<svg width="455" height="194" viewBox="0 0 455 194" fill="none" xmlns="http://www.w3.org/2000/svg">
<g clip-path="url(#clip0_5340_448)">
<path d="M0.345703 2.22461H15.6096V34.2151H30.5554V47.253H0.345703V2.22461Z" fill="#4D4D4D"/>
<path d="M38.9521 24.484C38.9234 21.1282 39.5949 17.8033 40.9236 14.7215C42.1328 11.9106 43.9206 9.38604 46.1706 7.31221C48.4775 5.21009 51.1801 3.58855 54.1205 2.54226C60.5511 0.337477 67.5329 0.337477 73.9635 2.54226C76.9 3.59691 79.601 5.21751 81.9134 7.31221C84.1204 9.39591 85.8647 11.9203 87.0332 14.7215C88.3401 17.8079 88.9899 21.1327 88.9412 24.484C88.9861 27.8659 88.3368 31.2211 87.0332 34.342C85.8254 37.2171 84.027 39.8065 81.7544 41.9421C79.4536 44.0753 76.7511 45.7292 73.8045 46.8074C67.3882 49.0966 60.3778 49.0966 53.9615 46.8074C51.0114 45.7366 48.3075 44.0819 46.0116 41.9421C43.8114 39.7852 42.0794 37.198 40.9236 34.342C39.5983 31.2257 38.9272 27.8704 38.9521 24.484ZM55.0427 24.484C55.0249 25.8695 55.2509 27.2473 55.7105 28.5544C56.1187 29.7215 56.7446 30.8005 57.5549 31.7344C58.3328 32.6253 59.2996 33.3315 60.385 33.8014C61.5066 34.2961 62.7209 34.5455 63.9466 34.5328C65.145 34.5473 66.3327 34.3051 67.4297 33.8224C68.5267 33.3398 69.5076 32.6278 70.3066 31.7344C71.1378 30.8102 71.7757 29.7289 72.1827 28.5544C72.6423 27.2473 72.8684 25.8695 72.8505 24.484C72.8644 23.13 72.6384 21.7842 72.1827 20.5091C71.7825 19.3692 71.1428 18.3282 70.3066 17.4563C69.4808 16.6081 68.4912 15.9367 67.3978 15.483C66.3045 15.0293 65.1303 14.8027 63.9466 14.8169C62.7246 14.8093 61.5134 15.0472 60.385 15.5165C59.319 15.963 58.3558 16.6232 57.5549 17.4563C56.7394 18.3383 56.1119 19.3769 55.7105 20.5091C55.2549 21.7842 55.0288 23.13 55.0427 24.484Z" fill="#4D4D4D"/>
<path d="M100.96 24.7381C100.933 21.3721 101.605 18.0372 102.931 14.9438C104.138 12.1115 105.913 9.55718 108.147 7.43902C110.404 5.3514 113.052 3.73037 115.937 2.66907C118.991 1.54171 122.222 0.970884 125.477 0.983683C128.836 0.968774 132.172 1.5391 135.335 2.66907C138.197 3.65737 140.834 5.20293 143.094 7.21642L133.809 18.3463C132.976 17.2562 131.882 16.3924 130.629 15.8341C129.286 15.2468 127.833 14.954 126.368 14.9756C125.149 14.965 123.939 15.1918 122.806 15.6433C121.718 16.0834 120.733 16.7438 119.912 17.5831C119.063 18.4686 118.403 19.5182 117.973 20.6677C117.495 21.9598 117.258 23.3286 117.273 24.7063C117.246 26.0671 117.494 27.4193 118.004 28.6812C118.464 29.8044 119.133 30.8298 119.976 31.7022C120.792 32.5466 121.779 33.2078 122.87 33.642C123.982 34.0889 125.17 34.3157 126.368 34.3098C127.932 34.3563 129.48 33.983 130.852 33.2286C132.008 32.602 133.017 31.7345 133.809 30.6846L143.094 41.8145C140.946 43.9253 138.393 45.5801 135.59 46.6799C129.251 49.0645 122.267 49.0983 115.906 46.7753C113.011 45.6878 110.362 44.0337 108.115 41.9099C105.903 39.7923 104.14 37.2508 102.931 34.437C101.603 31.3774 100.932 28.0733 100.96 24.7381Z" fill="#4D4D4D"/>
<path d="M169.707 29.318H169.58V47.253H154.889V2.22461H169.517V18.8241H169.707L181.728 2.22461H199.535L182.618 22.8944L200.362 47.3166H181.728L169.707 29.318Z" fill="#4D4D4D"/>
<path d="M237.57 47.253H222.306L210.031 2.22461H226.058L230.828 27.5372H231.083L236.298 2.22461H252.198L257.858 27.5372H258.112L263.01 2.22461H278.528L265.999 47.253H250.798L244.439 21.8132H244.184L237.57 47.253Z" fill="#4D4D4D"/>
<path d="M287.563 24.484C287.514 21.1327 288.164 17.8079 289.471 14.7215C290.68 11.9106 292.468 9.38604 294.718 7.31221C297.025 5.21009 299.728 3.58855 302.668 2.54226C309.099 0.337477 316.08 0.337477 322.511 2.54226C325.447 3.59691 328.148 5.21751 330.461 7.31221C332.725 9.38036 334.525 11.9059 335.74 14.7215C337.047 17.8079 337.696 21.1327 337.648 24.484C337.693 27.8659 337.043 31.2211 335.74 34.342C334.532 37.2171 332.733 39.8065 330.461 41.9421C328.16 44.0753 325.458 45.7292 322.511 46.8074C316.095 49.0966 309.084 49.0966 302.668 46.8074C299.718 45.7366 297.014 44.0819 294.718 41.9421C292.461 39.8003 290.674 37.212 289.471 34.342C288.168 31.2211 287.518 27.8659 287.563 24.484ZM303.654 24.484C303.636 25.8695 303.862 27.2473 304.322 28.5544C304.73 29.7215 305.356 30.8005 306.166 31.7344C306.944 32.6253 307.911 33.3315 308.996 33.8014C310.118 34.2961 311.332 34.5455 312.558 34.5328C313.756 34.5473 314.944 34.3051 316.041 33.8224C317.138 33.3398 318.119 32.6278 318.918 31.7344C319.749 30.8102 320.387 29.7289 320.794 28.5544C321.253 27.2473 321.479 25.8695 321.462 24.484C321.465 23.1281 321.228 21.7823 320.762 20.5091C320.362 19.3692 319.722 18.3282 318.886 17.4563C318.06 16.6081 317.07 15.9367 315.977 15.483C314.884 15.0293 313.71 14.8027 312.526 14.8169C311.304 14.8093 310.093 15.0472 308.964 15.5165C307.898 15.963 306.935 16.6232 306.134 17.4563C305.33 18.3411 304.713 19.3796 304.322 20.5091C303.866 21.7842 303.64 23.13 303.654 24.484Z" fill="#4D4D4D"/>
<path d="M345.755 24.484C345.706 21.1327 346.356 17.8079 347.663 14.7215C348.872 11.9106 350.66 9.38604 352.91 7.31221C355.217 5.21009 357.92 3.58855 360.86 2.54226C367.291 0.337477 374.273 0.337477 380.703 2.54226C383.64 3.59691 386.341 5.21751 388.653 7.31221C390.906 9.3835 392.694 11.9088 393.9 14.7215C395.207 17.8079 395.857 21.1327 395.808 24.484C395.853 27.8659 395.204 31.2211 393.9 34.342C392.692 37.2171 390.894 39.8065 388.621 41.9421C386.32 44.0753 383.618 45.7292 380.671 46.8074C374.255 49.0966 367.245 49.0966 360.828 46.8074C357.878 45.7366 355.174 44.0819 352.878 41.9421C350.621 39.8003 348.834 37.212 347.631 34.342C346.339 31.2188 345.7 27.8637 345.755 24.484ZM361.846 24.484C361.828 25.8695 362.054 27.2473 362.514 28.5544C362.922 29.7215 363.548 30.8005 364.358 31.7344C365.136 32.6253 366.103 33.3315 367.188 33.8014C368.31 34.2961 369.524 34.5455 370.75 34.5328C371.948 34.5473 373.136 34.3051 374.233 33.8224C375.33 33.3398 376.311 32.6278 377.11 31.7344C377.941 30.8102 378.579 29.7289 378.986 28.5544C379.424 27.2434 379.628 25.8657 379.59 24.484C379.604 23.13 379.378 21.7842 378.922 20.5091C378.522 19.3692 377.882 18.3282 377.046 17.4563C376.22 16.6081 375.231 15.9367 374.137 15.483C373.044 15.0293 371.87 14.8027 370.686 14.8169C369.464 14.8093 368.253 15.0472 367.125 15.5165C366.059 15.963 365.095 16.6232 364.294 17.4563C363.502 18.3439 362.896 19.3822 362.514 20.5091C362.058 21.7842 361.832 23.13 361.846 24.484Z" fill="#4D4D4D"/>
<path d="M409.799 47.2534V2.22499H426.589C430.019 2.21135 433.441 2.56314 436.797 3.27438C439.871 3.90195 442.789 5.13421 445.383 6.89955C447.896 8.65602 449.938 11.0041 451.329 13.7365C452.922 17.0892 453.685 20.7754 453.555 24.4848C453.641 28.0163 452.912 31.5201 451.425 34.7243C450.099 37.4949 448.151 39.9218 445.732 41.8156C443.288 43.7065 440.503 45.1099 437.528 45.9496C434.385 46.8468 431.13 47.2964 427.861 47.2852L409.799 47.2534ZM424.363 15.0721V34.1519H427.161C430.08 34.3496 432.977 33.5354 435.366 31.8464C437.274 30.3094 438.228 27.7866 438.228 24.2781C438.299 22.9986 438.078 21.7198 437.582 20.5381C437.086 19.3565 436.328 18.303 435.366 17.457C433.202 15.744 430.49 14.874 427.734 15.0085L424.363 15.0721Z" fill="#4D4D4D"/>
<path d="M201.969 93.3637L186.467 89.357L186.674 88.2917L202.176 92.2984L201.969 93.3637ZM208.727 84.1895L202.716 76.7961L203.559 76.1601L209.458 83.6489L208.727 84.1895ZM220.222 78.4815L215.897 66.2545L216.947 65.8252L221.272 78.0681L220.222 78.4815ZM232.242 78.0681L236.567 65.8252L237.617 66.2545L233.308 78.4815L232.242 78.0681ZM244.151 83.5535L249.955 76.1601L250.798 76.7961L244.787 84.1895L244.151 83.5535ZM251.322 92.2984L266.825 88.2917L267.047 89.357L251.545 93.3637L251.322 92.2984Z" fill="#4D4D4D"/>
<path d="M264.079 106.273H252.377V107.339H264.079V106.273Z" fill="#4D4D4D"/>
<path d="M340.46 106.273H275.525V107.339H340.46V106.273Z" fill="#4D4D4D"/>
<path d="M178.376 106.273H113.441V107.339H178.376V106.273Z" fill="#4D4D4D"/>
<path d="M201.097 106.386H189.395V107.451H201.097V106.386Z" fill="#4D4D4D"/>
<path d="M250.687 123.064L266.19 127.071L265.967 128.121L250.465 124.114L250.687 123.064Z" fill="#4D4D4D"/>
<path d="M243.933 132.221L249.943 139.614L249.1 140.25L243.201 132.745L243.933 132.221Z" fill="#4D4D4D"/>
<path d="M232.434 137.93L236.759 150.157L235.71 150.586L231.385 138.343L232.434 137.93Z" fill="#4D4D4D"/>
<path d="M220.417 138.343L216.092 150.586L215.043 150.157L219.368 137.93L220.417 138.343Z" fill="#4D4D4D"/>
<path d="M208.507 132.857L202.704 140.25L201.861 139.614L207.871 132.221L208.507 132.857Z" fill="#4D4D4D"/>
<path d="M201.336 124.114L185.834 128.121L185.611 127.071L201.114 123.049L201.336 124.114Z" fill="#4D4D4D"/>
<path d="M239.785 102.537C239.158 101.843 238.415 101.262 237.591 100.819V97.6394C237.603 94.5075 236.381 91.4971 234.189 89.2601C233.108 88.1597 231.819 87.2862 230.397 86.691C228.974 86.0958 227.447 85.7908 225.905 85.794C222.784 85.8275 219.804 87.0962 217.617 89.3223C215.429 91.5483 214.213 94.5504 214.234 97.6712V100.851C213.406 101.301 212.659 101.887 212.024 102.584C203.995 111.154 218.384 124.001 225.905 128.024C233.394 124.017 247.815 111.138 239.785 102.537ZM225.905 103.506C223.615 101.726 219.863 99.4996 216.222 100.152V97.6235C216.201 95.0328 217.209 92.5396 219.024 90.6913C220.839 88.843 223.314 87.7907 225.905 87.7656C227.18 87.7665 228.442 88.0231 229.616 88.5201C230.791 89.0171 231.853 89.7445 232.742 90.6593C233.65 91.5763 234.369 92.6633 234.858 93.8582C235.346 95.0532 235.594 96.3326 235.588 97.6235V100.152C231.947 99.5473 228.194 101.773 225.905 103.506ZM223.059 113.635C223.059 113.131 223.192 112.636 223.446 112.201C223.7 111.765 224.064 111.405 224.503 111.157C224.941 110.909 225.438 110.781 225.942 110.788C226.446 110.794 226.939 110.934 227.371 111.194C227.802 111.453 228.158 111.823 228.4 112.265C228.642 112.706 228.763 113.205 228.75 113.708C228.737 114.212 228.59 114.703 228.325 115.132C228.06 115.56 227.685 115.91 227.24 116.147V120.154H224.665V116.163C224.212 115.918 223.833 115.556 223.57 115.113C223.307 114.671 223.169 114.165 223.17 113.651" fill="#4D4D4D"/>
<path d="M202.147 187.25H201.639C201.523 187.246 201.414 187.198 201.334 187.115C201.254 187.031 201.209 186.921 201.209 186.805V169.029C201.207 168.971 201.217 168.914 201.237 168.86C201.258 168.806 201.289 168.757 201.329 168.715C201.369 168.674 201.417 168.641 201.471 168.618C201.524 168.596 201.581 168.584 201.639 168.584H202.147C202.265 168.584 202.379 168.631 202.462 168.714C202.546 168.798 202.593 168.911 202.593 169.029V186.805C202.589 186.922 202.54 187.033 202.458 187.116C202.375 187.198 202.264 187.246 202.147 187.25Z" fill="#4D4D4D"/>
<path d="M125.893 192.706H118.229C118.133 192.709 118.038 192.692 117.948 192.657C117.858 192.622 117.777 192.57 117.707 192.503C117.638 192.437 117.582 192.358 117.544 192.27C117.505 192.182 117.484 192.087 117.482 191.991C117.484 191.896 117.505 191.802 117.544 191.714C117.583 191.627 117.639 191.549 117.708 191.484C117.778 191.419 117.86 191.368 117.949 191.335C118.039 191.302 118.134 191.287 118.229 191.291C119.056 191.291 119.056 191.085 119.056 190.703C119.02 190.127 118.903 189.56 118.706 189.018L118.531 188.445C116.757 188.341 115.041 187.774 113.554 186.8C112.068 185.827 110.862 184.481 110.057 182.896L109.961 182.689C109.367 181.337 109.069 179.873 109.087 178.397C109.055 175.425 110.184 172.559 112.233 170.406C114.281 168.254 117.088 166.985 120.058 166.869C121.522 166.916 122.963 167.252 124.298 167.858C125.632 168.463 126.834 169.326 127.834 170.397C128.834 171.468 129.613 172.726 130.126 174.099C130.638 175.472 130.875 176.932 130.822 178.397C130.851 180.554 130.165 182.66 128.87 184.386C127.576 186.112 125.746 187.36 123.667 187.936L123.905 188.604C124.891 191.307 124.891 191.307 125.893 191.307C125.988 191.303 126.083 191.318 126.173 191.351C126.262 191.384 126.344 191.434 126.414 191.5C126.483 191.565 126.539 191.643 126.578 191.73C126.617 191.817 126.638 191.911 126.64 192.007C126.632 192.198 126.549 192.378 126.409 192.509C126.27 192.64 126.084 192.711 125.893 192.706ZM122.379 184.502L122.967 186.092C124.557 184.772 125.479 182.149 125.479 178.444C125.479 176.075 125.098 168.332 120.105 168.332C117.498 168.332 114.429 170.987 114.429 178.444C114.429 179.294 114.471 180.143 114.556 180.988C115.397 180.909 116.243 180.909 117.084 180.988C121.33 181.513 122.284 184.168 122.379 184.502ZM114.827 182.546C114.928 183.478 115.276 184.365 115.835 185.117C116.394 185.869 117.144 186.458 118.006 186.823L117.45 185.09C117.3 184.461 116.973 183.887 116.509 183.436C116.044 182.986 115.461 182.677 114.827 182.546Z" fill="#4D4D4D"/>
<path d="M154.527 188.253H154.082C153.223 188.253 153.017 187.951 152.572 187.299C152.46 187.156 152.349 186.981 152.206 186.775L140.313 171.781V179.079C140.313 186.711 141.903 186.711 142.873 186.711H143.27C143.371 186.707 143.472 186.723 143.566 186.759C143.66 186.794 143.746 186.849 143.819 186.918C143.892 186.988 143.95 187.072 143.989 187.165C144.029 187.258 144.049 187.357 144.049 187.458C144.049 187.559 144.029 187.659 143.989 187.752C143.95 187.845 143.892 187.928 143.819 187.998C143.746 188.068 143.66 188.123 143.566 188.158C143.472 188.194 143.371 188.21 143.27 188.206H136.91C136.712 188.206 136.522 188.127 136.382 187.987C136.242 187.847 136.163 187.657 136.163 187.458C136.161 187.36 136.179 187.261 136.215 187.17C136.252 187.078 136.307 186.995 136.377 186.925C136.447 186.855 136.53 186.8 136.622 186.763C136.713 186.727 136.811 186.709 136.91 186.711H137.053C137.324 186.711 138.643 186.329 138.643 179.079V170.207C138.588 169.858 138.407 169.541 138.134 169.317C137.727 168.862 137.155 168.587 136.545 168.553H136.322C136.222 168.556 136.124 168.538 136.031 168.501C135.939 168.465 135.854 168.41 135.783 168.34C135.712 168.271 135.656 168.188 135.617 168.096C135.579 168.004 135.559 167.906 135.559 167.806C135.557 167.708 135.576 167.61 135.614 167.52C135.653 167.43 135.709 167.348 135.781 167.281C135.852 167.211 135.937 167.155 136.029 167.116C136.122 167.078 136.222 167.059 136.322 167.059H142.078H142.539C142.698 167.063 142.855 167.103 142.998 167.174C143.141 167.246 143.266 167.347 143.366 167.472L143.858 168.045C144.033 168.267 144.192 168.442 144.638 168.951L153.526 180.303V175.422C153.526 168.522 151.586 168.522 150.346 168.522C150.244 168.526 150.143 168.51 150.047 168.474C149.952 168.439 149.865 168.385 149.791 168.315C149.717 168.246 149.657 168.162 149.616 168.069C149.575 167.976 149.553 167.876 149.551 167.774C149.553 167.673 149.575 167.573 149.616 167.48C149.657 167.387 149.717 167.303 149.791 167.233C149.865 167.164 149.952 167.11 150.047 167.074C150.143 167.039 150.244 167.023 150.346 167.027H157.183C157.282 167.025 157.381 167.043 157.473 167.079C157.566 167.116 157.65 167.171 157.721 167.24C157.792 167.31 157.849 167.393 157.887 167.485C157.926 167.576 157.946 167.675 157.946 167.774C157.946 167.874 157.926 167.972 157.887 168.064C157.849 168.156 157.792 168.239 157.721 168.308C157.65 168.378 157.566 168.433 157.473 168.469C157.381 168.506 157.282 168.524 157.183 168.522H156.992C156.292 168.522 155.116 168.522 155.116 175.438V187.633C155.112 187.788 155.048 187.935 154.939 188.045C154.829 188.154 154.682 188.218 154.527 188.222V188.253Z" fill="#4D4D4D"/>
<path d="M170.538 188.475H169.711C168.501 188.433 167.295 188.305 166.102 188.094H165.943C165.475 188.016 164.996 188.016 164.528 188.094C164.466 188.21 164.364 188.3 164.242 188.348C164.152 188.387 164.054 188.408 163.956 188.408C163.857 188.408 163.76 188.387 163.669 188.348C163.592 188.307 163.525 188.25 163.47 188.182C163.415 188.113 163.375 188.035 163.351 187.951C163.075 186.533 162.889 185.099 162.795 183.658C162.808 183.393 162.808 183.127 162.795 182.863V182.688C162.797 182.608 162.815 182.53 162.847 182.458C162.879 182.385 162.925 182.32 162.983 182.265C163.041 182.21 163.108 182.168 163.183 182.139C163.257 182.111 163.336 182.097 163.415 182.099C163.531 182.094 163.645 182.121 163.747 182.177C163.848 182.233 163.931 182.316 163.987 182.417C165.305 184.536 167.399 186.054 169.823 186.647C170.256 186.742 170.699 186.79 171.142 186.79C173.543 186.79 174.99 185.693 175.117 183.785C175.172 182.813 174.915 181.849 174.383 181.033C173.851 180.218 173.072 179.594 172.16 179.253L170.316 178.617C167.978 177.759 164.035 176.328 164.035 173.148C164.035 169.968 166.579 166.883 172.287 166.883C173.305 166.889 174.321 166.98 175.324 167.154H175.467C175.936 167.232 176.414 167.232 176.882 167.154C176.946 167.043 177.048 166.958 177.168 166.915C177.254 166.878 177.346 166.859 177.439 166.859C177.532 166.859 177.624 166.878 177.709 166.915C177.86 166.978 177.98 167.098 178.043 167.249C178.634 168.935 179.101 170.662 179.442 172.416C179.442 172.497 179.426 172.577 179.395 172.651C179.363 172.726 179.317 172.793 179.26 172.849C179.202 172.906 179.133 172.95 179.058 172.979C178.983 173.009 178.903 173.023 178.822 173.021C178.705 173.023 178.59 172.993 178.489 172.934C178.388 172.875 178.305 172.79 178.25 172.687C177.582 171.59 174.354 168.441 171.747 168.441C169.759 168.441 168.471 169.3 168.471 170.636C168.471 171.971 170.061 172.798 172.478 173.657H172.589L174.259 174.229C176.389 175.024 180.348 176.519 180.348 180.589C180.317 185.597 176.66 188.475 170.538 188.475ZM179.251 172.242C179.251 172.242 179.251 172.242 179.251 172.337V172.242Z" fill="#4D4D4D"/>
<path d="M233.308 188.206H224.182C224.08 188.211 223.979 188.195 223.884 188.159C223.788 188.124 223.701 188.07 223.627 188C223.553 187.93 223.494 187.847 223.452 187.754C223.411 187.661 223.389 187.561 223.387 187.459C223.389 187.358 223.411 187.257 223.452 187.164C223.494 187.072 223.553 186.988 223.627 186.918C223.701 186.849 223.788 186.795 223.884 186.759C223.979 186.724 224.08 186.708 224.182 186.712H224.5C225.088 186.712 225.088 186.712 225.199 186.267C225.432 184.453 225.507 182.623 225.422 180.797V174.596C225.507 172.733 225.432 170.866 225.199 169.015C225.104 168.554 225.104 168.554 224.516 168.554H224.182C224.08 168.558 223.979 168.542 223.884 168.507C223.788 168.471 223.701 168.417 223.627 168.348C223.553 168.278 223.494 168.194 223.452 168.102C223.411 168.009 223.389 167.909 223.387 167.807C223.389 167.705 223.411 167.605 223.452 167.512C223.494 167.419 223.553 167.336 223.627 167.266C223.701 167.196 223.788 167.142 223.884 167.107C223.979 167.071 224.08 167.055 224.182 167.06H228.125C228.506 167.06 229.079 167.06 229.715 167.06H231.48C233.338 166.944 235.197 167.254 236.918 167.966C237.615 168.285 238.2 168.805 238.6 169.46C238.999 170.114 239.194 170.873 239.159 171.639C239.15 172.502 238.868 173.34 238.354 174.034C237.84 174.728 237.12 175.241 236.297 175.502C239.318 176.218 242.037 178.031 242.037 182.228C242.037 186.426 239.128 188.206 233.308 188.206ZM231.718 175.041H232.116C233.706 174.707 234.501 173.706 234.501 171.702C234.501 169.095 233.308 168.522 231.114 168.522H230.287C230.287 169.031 230.287 170.112 230.287 171.162V171.337C230.287 171.83 230.287 172.386 230.287 172.927V174.898L231.718 175.041ZM230.271 182.069C230.189 183.514 230.264 184.965 230.494 186.394C230.589 186.664 230.605 186.712 231.289 186.712H232.688C233.266 186.763 233.847 186.692 234.395 186.503C234.943 186.314 235.445 186.011 235.868 185.615C236.603 184.64 236.954 183.429 236.854 182.212C236.854 178.174 235.518 176.6 232.084 176.6H230.271V182.069Z" fill="#4D4D4D"/>
<path d="M256.651 188.302H248.701C248.503 188.302 248.313 188.223 248.173 188.083C248.033 187.942 247.954 187.752 247.954 187.554C247.954 187.356 248.033 187.166 248.173 187.026C248.313 186.886 248.503 186.807 248.701 186.807H249.369C249.957 186.807 249.957 186.807 250.053 186.362C250.3 184.331 250.38 182.284 250.291 180.24V175.216C250.38 173.178 250.301 171.136 250.053 169.11C249.957 168.665 249.957 168.665 249.369 168.665H248.701C248.6 168.669 248.498 168.653 248.403 168.618C248.308 168.582 248.221 168.528 248.147 168.459C248.073 168.389 248.013 168.305 247.972 168.213C247.931 168.12 247.908 168.02 247.906 167.918C247.908 167.816 247.931 167.716 247.972 167.623C248.013 167.53 248.073 167.447 248.147 167.377C248.221 167.307 248.308 167.253 248.403 167.218C248.498 167.182 248.6 167.166 248.701 167.171H256.651C256.753 167.166 256.854 167.182 256.949 167.218C257.045 167.253 257.132 167.307 257.206 167.377C257.28 167.447 257.339 167.53 257.381 167.623C257.422 167.716 257.444 167.816 257.446 167.918C257.444 168.02 257.422 168.12 257.381 168.213C257.339 168.305 257.28 168.389 257.206 168.459C257.132 168.528 257.045 168.582 256.949 168.618C256.854 168.653 256.753 168.669 256.651 168.665H255.999C255.395 168.665 255.395 168.665 255.3 169.11C255.052 171.13 254.972 173.167 255.061 175.2L258.241 171.893C258.829 171.289 259.911 170.16 259.942 169.492C259.946 169.412 259.932 169.332 259.902 169.258C259.872 169.184 259.826 169.117 259.768 169.063C259.366 168.759 258.871 168.607 258.368 168.633C258.174 168.633 257.988 168.556 257.851 168.419C257.714 168.282 257.637 168.096 257.637 167.902C257.637 167.708 257.714 167.522 257.851 167.385C257.988 167.248 258.174 167.171 258.368 167.171H265.46C265.557 167.166 265.654 167.182 265.746 167.215C265.837 167.249 265.921 167.301 265.992 167.368C266.063 167.434 266.12 167.515 266.16 167.604C266.199 167.693 266.221 167.789 266.223 167.886C266.223 168.084 266.144 168.274 266.004 168.415C265.864 168.555 265.674 168.633 265.476 168.633C263.504 168.633 262.534 169.715 260.197 172.163L259.465 172.926L257.414 175.025C257.864 174.986 258.316 174.986 258.766 175.025C260.412 175.049 261.985 175.71 263.154 176.87C263.614 177.349 263.952 177.933 264.14 178.571L266.207 184.168C267.177 186.855 267.177 186.855 268.163 186.855C268.361 186.855 268.551 186.933 268.691 187.074C268.831 187.214 268.91 187.404 268.91 187.602C268.91 187.8 268.831 187.99 268.691 188.13C268.551 188.27 268.361 188.349 268.163 188.349H260.499C260.301 188.349 260.111 188.27 259.971 188.13C259.83 187.99 259.752 187.8 259.752 187.602C259.752 187.404 259.83 187.214 259.971 187.074C260.111 186.933 260.301 186.855 260.499 186.855C261.278 186.855 261.278 186.68 261.278 186.314C261.242 185.738 261.125 185.171 260.928 184.629L259.147 179.159C258.957 178.491 258.257 176.822 257.192 176.806C256.793 176.761 256.389 176.833 256.031 177.014C255.672 177.195 255.374 177.476 255.172 177.824L255.029 178.11V180.288C254.94 182.332 255.02 184.379 255.268 186.409C255.363 186.855 255.363 186.855 255.967 186.855H256.619C256.818 186.855 257.008 186.933 257.148 187.074C257.288 187.214 257.367 187.404 257.367 187.602C257.367 187.8 257.288 187.99 257.148 188.13C257.008 188.27 256.818 188.349 256.619 188.349L256.651 188.302Z" fill="#4D4D4D"/>
<path d="M291.44 188.714C291.34 188.735 291.237 188.735 291.138 188.714C291.057 188.686 290.986 188.636 290.931 188.571C290.442 188.45 289.94 188.386 289.436 188.38C288.721 188.38 287.64 188.38 286.257 188.38C284.428 188.38 281.741 188.301 281.216 188.285L276.049 188.38C275.838 188.38 275.636 188.297 275.487 188.148C275.338 187.998 275.254 187.796 275.254 187.585C275.254 187.375 275.338 187.172 275.487 187.023C275.636 186.874 275.838 186.79 276.049 186.79C276.876 186.79 276.892 186.79 276.987 186.472C277.272 185.071 277.379 183.639 277.305 182.211C277.305 181.973 277.305 181.321 277.305 180.24V173.148C277.356 171.76 277.271 170.37 277.05 168.998C276.955 168.68 276.955 168.665 276.415 168.665H275.763C275.656 168.671 275.548 168.656 275.447 168.62C275.346 168.584 275.254 168.528 275.175 168.455C275.096 168.382 275.033 168.294 274.989 168.196C274.945 168.098 274.922 167.993 274.92 167.885C274.922 167.778 274.945 167.671 274.989 167.573C275.033 167.474 275.096 167.385 275.174 167.311C275.253 167.237 275.345 167.179 275.446 167.141C275.547 167.104 275.655 167.086 275.763 167.09H283.713C283.923 167.09 284.126 167.174 284.275 167.323C284.424 167.472 284.508 167.675 284.508 167.885C284.508 168.096 284.424 168.299 284.275 168.448C284.126 168.597 283.923 168.68 283.713 168.68H283.045C282.488 168.68 282.488 168.68 282.393 169.11C282.146 171.124 282.066 173.156 282.154 175.183V181.766C282.154 183.356 282.154 185.391 282.043 186.536H284.364C285.939 186.616 287.5 186.213 288.839 185.38C290.177 184.547 291.229 183.325 291.853 181.877L292.235 181.21C292.294 181.117 292.377 181.041 292.474 180.991C292.572 180.941 292.682 180.917 292.791 180.923C292.907 180.925 293.02 180.959 293.118 181.021C293.216 181.082 293.296 181.17 293.348 181.273C293.37 181.367 293.37 181.465 293.348 181.559C293.355 181.591 293.355 181.623 293.348 181.655C293 183.905 292.469 186.122 291.758 188.285C291.74 188.376 291.702 188.461 291.647 188.536C291.592 188.61 291.522 188.671 291.44 188.714Z" fill="#4D4D4D"/>
<path d="M310.551 188.205H302.601C302.499 188.209 302.398 188.193 302.303 188.158C302.208 188.122 302.12 188.068 302.046 187.998C301.972 187.929 301.913 187.845 301.872 187.752C301.83 187.659 301.808 187.559 301.806 187.458C301.808 187.356 301.83 187.256 301.872 187.163C301.913 187.07 301.972 186.986 302.046 186.917C302.12 186.847 302.208 186.793 302.303 186.757C302.398 186.722 302.499 186.706 302.601 186.71H303.062C303.762 186.71 303.809 186.71 303.937 186.186C304.183 184.182 304.263 182.161 304.175 180.144V179.396L301.122 173.243C299.055 169.22 298.403 168.584 297.354 168.584H297.116C297.012 168.589 296.909 168.572 296.811 168.536C296.714 168.5 296.625 168.444 296.55 168.373C296.474 168.302 296.414 168.217 296.372 168.122C296.329 168.027 296.307 167.925 296.305 167.821C296.305 167.72 296.325 167.619 296.364 167.525C296.404 167.432 296.461 167.347 296.534 167.276C296.606 167.205 296.692 167.149 296.787 167.111C296.881 167.074 296.982 167.056 297.084 167.058H305.622C305.726 167.056 305.829 167.074 305.925 167.113C306.021 167.151 306.109 167.208 306.183 167.281C306.257 167.353 306.316 167.44 306.356 167.535C306.396 167.631 306.417 167.733 306.417 167.837C306.417 167.937 306.398 168.037 306.36 168.13C306.321 168.222 306.265 168.307 306.194 168.378C306.048 168.515 305.854 168.589 305.654 168.584H304.636C304.536 168.57 304.434 168.57 304.334 168.584C304.647 169.693 305.09 170.76 305.654 171.764L308.245 177.139L310.169 173.275C311.155 171.112 311.489 169.427 311.076 168.791C311.076 168.712 310.869 168.473 310.265 168.473H309.279C309.177 168.478 309.075 168.463 308.979 168.427C308.884 168.392 308.796 168.337 308.722 168.266C308.658 168.199 308.608 168.119 308.576 168.031C308.543 167.944 308.528 167.851 308.532 167.758C308.532 167.519 308.532 166.979 309.438 166.979H316.323C316.527 166.979 316.724 167.052 316.879 167.185C316.996 167.289 317.078 167.428 317.112 167.58C317.147 167.733 317.132 167.893 317.07 168.038C317.009 168.182 316.904 168.303 316.769 168.384C316.635 168.465 316.479 168.502 316.323 168.489C315.353 168.489 313.429 170.715 311.632 173.895L309.072 179.015V180.048C308.976 182.065 309.056 184.087 309.311 186.09C309.438 186.615 309.47 186.615 310.169 186.615H310.662C310.764 186.611 310.865 186.627 310.96 186.662C311.056 186.698 311.143 186.752 311.217 186.821C311.291 186.891 311.35 186.975 311.392 187.067C311.433 187.16 311.455 187.261 311.457 187.362C311.472 187.482 311.458 187.604 311.417 187.717C311.376 187.831 311.308 187.933 311.22 188.015C311.131 188.097 311.024 188.158 310.908 188.191C310.792 188.223 310.669 188.228 310.551 188.205Z" fill="#4D4D4D"/>
<path d="M341.527 188.253H341.066C340.207 188.253 340 187.951 339.476 187.299L339.11 186.775L327.217 171.781V179.079C327.217 186.711 328.807 186.711 329.777 186.711H330.301C330.401 186.709 330.5 186.727 330.592 186.763C330.685 186.8 330.769 186.855 330.84 186.924C330.911 186.994 330.968 187.077 331.006 187.169C331.045 187.26 331.065 187.359 331.065 187.458C331.065 187.558 331.045 187.656 331.006 187.748C330.968 187.84 330.911 187.923 330.84 187.992C330.769 188.062 330.685 188.117 330.592 188.153C330.5 188.19 330.401 188.208 330.301 188.206H323.941C323.843 188.208 323.745 188.19 323.653 188.153C323.561 188.116 323.478 188.061 323.408 187.992C323.338 187.922 323.283 187.839 323.247 187.747C323.21 187.655 323.192 187.557 323.194 187.458C323.192 187.36 323.21 187.261 323.247 187.17C323.283 187.078 323.338 186.995 323.408 186.925C323.478 186.855 323.561 186.8 323.653 186.763C323.745 186.727 323.843 186.709 323.941 186.711H324.085C324.355 186.711 325.674 186.329 325.674 179.079V170.207C325.608 169.862 325.429 169.549 325.166 169.317C324.953 169.083 324.696 168.895 324.409 168.764C324.122 168.633 323.812 168.561 323.496 168.553H323.242C323.042 168.553 322.85 168.475 322.708 168.336C322.565 168.196 322.483 168.006 322.479 167.806C322.477 167.708 322.496 167.61 322.534 167.52C322.572 167.43 322.629 167.348 322.701 167.281C322.772 167.211 322.857 167.155 322.949 167.116C323.042 167.078 323.142 167.059 323.242 167.059H328.998H329.459C329.618 167.063 329.775 167.103 329.918 167.174C330.061 167.246 330.186 167.347 330.285 167.472L330.778 168.045L331.557 168.951L340.461 180.303V175.422C340.461 168.522 338.537 168.522 337.281 168.522C337.18 168.526 337.078 168.51 336.983 168.474C336.888 168.439 336.801 168.385 336.727 168.315C336.653 168.246 336.593 168.162 336.552 168.069C336.511 167.976 336.488 167.876 336.486 167.774C336.488 167.673 336.511 167.573 336.552 167.48C336.593 167.387 336.653 167.303 336.727 167.233C336.801 167.164 336.888 167.11 336.983 167.074C337.078 167.039 337.18 167.023 337.281 167.027H344.118C344.218 167.025 344.317 167.043 344.409 167.079C344.502 167.116 344.586 167.171 344.657 167.24C344.728 167.31 344.785 167.393 344.823 167.485C344.862 167.576 344.882 167.675 344.882 167.774C344.882 167.874 344.862 167.972 344.823 168.064C344.785 168.156 344.728 168.239 344.657 168.308C344.586 168.378 344.502 168.433 344.409 168.469C344.317 168.506 344.218 168.524 344.118 168.522H344.023C343.323 168.522 342.147 168.522 342.147 175.438V187.633C342.147 187.71 342.132 187.787 342.102 187.858C342.071 187.929 342.027 187.993 341.972 188.047C341.918 188.112 341.85 188.164 341.773 188.2C341.696 188.236 341.612 188.254 341.527 188.253Z" fill="#4D4D4D"/>
</g>
<defs>
<clipPath id="clip0_5340_448">
<rect width="454.3" height="193.019" fill="white" transform="translate(0 0.433594)"/>
</clipPath>
</defs>
</svg>
