<svg width="455" height="199" viewBox="0 0 455 199" fill="none" xmlns="http://www.w3.org/2000/svg">
<g clip-path="url(#clip0_5353_658)">
<path d="M0.625 1.9707H15.8836V33.9941H30.8243V47.0454H0.625V1.9707Z" fill="#4D4D4D"/>
<path d="M39.2158 24.2515C39.1858 20.8921 39.8571 17.5634 41.1867 14.4789C42.3917 11.663 44.1794 9.13508 46.4319 7.06199C48.7339 4.95215 51.4367 3.32824 54.3791 2.28712C60.8075 0.0800737 67.7869 0.0800737 74.2153 2.28712C77.1543 3.33527 79.8558 4.95838 82.1624 7.06199C84.3719 9.14501 86.1161 11.6727 87.2804 14.4789C88.5883 17.5681 89.2379 20.8966 89.1878 24.2515C89.2314 27.6367 88.5823 30.9951 87.2804 34.1196C86.0731 36.9977 84.2753 39.5897 82.0035 41.7275C79.7034 43.8629 77.0019 45.5186 74.0563 46.5979C67.6422 48.8894 60.6342 48.8894 54.2201 46.5979C51.271 45.526 48.5681 43.8695 46.2729 41.7275C44.0735 39.5684 42.342 36.9786 41.1867 34.1196C39.8631 30.9997 39.1923 27.6412 39.2158 24.2515ZM55.3009 24.2515C55.2844 25.6383 55.5104 27.0173 55.9685 28.3261C56.3804 29.4926 57.0056 30.5721 57.8122 31.5093C58.5941 32.3965 59.5595 33.1026 60.6414 33.5784C61.7626 34.0737 62.9765 34.3233 64.2018 34.3105C65.417 34.3252 66.621 34.0754 67.7303 33.5784C68.805 33.09 69.768 32.3858 70.5595 31.5093C71.3858 30.5806 72.0229 29.4993 72.4351 28.3261C72.8932 27.0173 73.1191 25.6383 73.1026 24.2515C73.1179 22.896 72.8919 21.5486 72.4351 20.2724C72.035 19.1314 71.3955 18.0894 70.5595 17.2165C69.7543 16.3879 68.7926 15.7278 67.7303 15.2748C66.614 14.8033 65.4133 14.565 64.2018 14.5744C62.9802 14.5668 61.7694 14.805 60.6414 15.2748C59.5727 15.7159 58.6087 16.3776 57.8122 17.2165C56.9971 18.0994 56.3698 19.1391 55.9685 20.2724C55.5117 21.5486 55.2857 22.896 55.3009 24.2515Z" fill="#4D4D4D"/>
<path d="M101.202 24.5072C101.153 21.1421 101.803 17.8036 103.109 14.7028C104.313 11.862 106.088 9.29945 108.322 7.17446C110.575 5.07927 113.223 3.45587 116.111 2.3996C119.161 1.26365 122.393 0.692001 125.647 0.712481C129.006 0.691322 132.341 1.26241 135.502 2.3996C138.362 3.38892 140.999 4.93607 143.258 6.95164L133.976 18.093C133.143 17.0017 132.05 16.1371 130.797 15.5782C129.455 14.9902 128.002 14.6972 126.537 14.7188C125.319 14.7082 124.109 14.9352 122.977 15.3872C121.889 15.8277 120.904 16.4888 120.084 17.329C119.232 18.2128 118.571 19.2642 118.145 20.4168C117.667 21.7102 117.43 23.0804 117.446 24.4595C117.42 25.8216 117.669 27.1748 118.177 28.4385C118.638 29.5616 119.307 30.5876 120.148 31.4626C120.968 32.3028 121.953 32.9639 123.041 33.4044C124.152 33.8518 125.34 34.0789 126.537 34.0729C128.1 34.1118 129.646 33.7386 131.02 32.9906C132.172 32.3585 133.18 31.4909 133.976 30.444L143.258 41.5853C141.111 43.6983 138.559 45.3549 135.756 46.4557C129.419 48.8428 122.438 48.8767 116.079 46.5512C113.185 45.4626 110.537 43.8069 108.291 41.6808C106.106 39.5645 104.366 37.0319 103.173 34.232C101.845 31.1636 101.174 27.851 101.202 24.5072Z" fill="#4D4D4D"/>
<path d="M169.929 29.0919H169.802V47.0454H155.115V1.9707H169.738V18.5872H169.929L181.945 1.9707H199.747L182.835 22.6618L200.573 47.1091H181.945L169.929 29.0919Z" fill="#4D4D4D"/>
<path d="M237.765 47.0454H222.507L210.236 1.9707H226.258L231.026 27.3093H231.281L236.494 1.9707H252.388L258.047 27.3093H258.301L263.196 1.9707H278.709L266.185 47.0454H250.99L244.632 21.5795H244.377L237.765 47.0454Z" fill="#4D4D4D"/>
<path d="M287.741 24.2515C287.691 20.8966 288.34 17.5681 289.648 14.4789C290.853 11.663 292.641 9.13508 294.893 7.06199C297.195 4.95215 299.898 3.32824 302.841 2.28712C309.269 0.0800737 316.248 0.0800737 322.677 2.28712C325.616 3.33527 328.317 4.95838 330.624 7.06199C332.891 9.12934 334.69 11.6582 335.901 14.4789C337.209 17.5681 337.858 20.8966 337.808 24.2515C337.852 27.6367 337.203 30.9951 335.901 34.1196C334.694 36.9977 332.896 39.5897 330.624 41.7275C328.324 43.8629 325.622 45.5186 322.677 46.5979C316.263 48.8894 309.255 48.8894 302.841 46.5979C299.892 45.526 297.189 43.8695 294.893 41.7275C292.637 39.5835 290.85 36.9926 289.648 34.1196C288.347 30.9951 287.697 27.6367 287.741 24.2515ZM303.826 24.2515C303.81 25.6383 304.036 27.0173 304.494 28.3261C304.906 29.4926 305.531 30.5721 306.337 31.5093C307.119 32.3965 308.085 33.1026 309.167 33.5784C310.288 34.0737 311.502 34.3233 312.727 34.3105C313.942 34.3252 315.146 34.0754 316.256 33.5784C317.33 33.09 318.293 32.3858 319.085 31.5093C319.911 30.5806 320.548 29.4993 320.96 28.3261C321.418 27.0173 321.644 25.6383 321.628 24.2515C321.643 22.896 321.417 21.5486 320.96 20.2724C320.56 19.1314 319.921 18.0894 319.085 17.2165C318.279 16.3879 317.318 15.7278 316.256 15.2748C315.139 14.8033 313.938 14.565 312.727 14.5744C311.505 14.5668 310.295 14.805 309.167 15.2748C308.098 15.7159 307.134 16.3776 306.337 17.2165C305.522 18.0994 304.895 19.1391 304.494 20.2724C304.037 21.5486 303.811 22.896 303.826 24.2515Z" fill="#4D4D4D"/>
<path d="M345.915 24.2515C345.865 20.8966 346.515 17.5681 347.823 14.4789C349.028 11.663 350.815 9.13508 353.068 7.06199C355.37 4.95215 358.073 3.32824 361.015 2.28712C367.443 0.0800737 374.423 0.0800737 380.851 2.28712C383.79 3.33527 386.492 4.95838 388.798 7.06199C391.054 9.1325 392.842 11.6611 394.043 14.4789C395.351 17.5681 396.001 20.8966 395.951 24.2515C395.994 27.6367 395.345 30.9951 394.043 34.1196C392.836 36.9977 391.038 39.5897 388.766 41.7275C386.466 43.8629 383.765 45.5186 380.819 46.5979C374.405 48.8894 367.397 48.8894 360.983 46.5979C358.034 45.526 355.331 43.8695 353.036 41.7275C350.779 39.5835 348.993 36.9926 347.791 34.1196C346.5 30.9928 345.862 27.6345 345.915 24.2515ZM362 24.2515C361.984 25.6383 362.21 27.0173 362.668 28.3261C363.08 29.4926 363.705 30.5721 364.512 31.5093C365.294 32.3965 366.259 33.1026 367.341 33.5784C368.462 34.0737 369.676 34.3233 370.901 34.3105C372.116 34.3252 373.32 34.0754 374.43 33.5784C375.504 33.09 376.467 32.3858 377.259 31.5093C378.085 30.5806 378.722 29.4993 379.134 28.3261C379.593 27.0173 379.819 25.6383 379.802 24.2515C379.817 22.896 379.591 21.5486 379.134 20.2724C378.734 19.1314 378.095 18.0894 377.259 17.2165C376.454 16.3879 375.492 15.7278 374.43 15.2748C373.313 14.8033 372.113 14.565 370.901 14.5744C369.68 14.5668 368.469 14.805 367.341 15.2748C366.272 15.7159 365.308 16.3776 364.512 17.2165C363.697 18.0994 363.069 19.1391 362.668 20.2724C362.211 21.5486 361.985 22.896 362 24.2515Z" fill="#4D4D4D"/>
<path d="M409.938 47.0429V1.96816H426.722C430.151 1.95451 433.572 2.30665 436.926 3.01863C439.999 3.64684 442.917 4.88037 445.509 6.64752C448.025 8.40186 450.067 10.7533 451.454 13.4915C453.045 16.8477 453.809 20.5377 453.679 24.2509C453.765 27.786 453.036 31.2934 451.549 34.5009C450.22 37.272 448.273 39.7005 445.859 41.5995C443.412 43.4811 440.628 44.8751 437.657 45.7059C434.515 46.604 431.261 47.0541 427.994 47.0429H409.938ZM424.497 14.8285V33.9279H427.294C430.214 34.1213 433.11 33.3005 435.496 31.6042C437.403 30.0125 438.357 27.5455 438.357 24.028C438.424 22.7477 438.202 21.4686 437.706 20.2863C437.211 19.104 436.455 18.049 435.496 17.2C433.331 15.4895 430.62 14.6242 427.866 14.7648L424.497 14.8285Z" fill="#4D4D4D"/>
<path d="M202.177 93.1232L186.68 89.1124L186.886 88.0619L202.383 92.0728L202.177 93.1232ZM208.932 83.9396L202.924 76.5545L203.766 75.9178L209.663 83.478L208.932 83.9396ZM220.423 78.2416L216.1 66.0657L217.149 65.6519L221.472 77.8914L220.423 78.2416ZM232.44 77.8118L236.763 65.5723L237.812 65.9861L233.505 78.3052L232.44 77.8118ZM244.345 83.3029L250.146 75.9178L250.988 76.5545L244.98 83.9396L244.345 83.3029ZM251.513 92.0728L267.01 88.0619L267.232 89.1124L251.735 93.1232L251.513 92.0728Z" fill="#4D4D4D"/>
<path d="M264.265 106.126H252.566V107.192H264.265V106.126Z" fill="#4D4D4D"/>
<path d="M340.624 106.126H275.711V107.192H340.624V106.126Z" fill="#4D4D4D"/>
<path d="M178.59 106.126H113.678V107.192H178.59V106.126Z" fill="#4D4D4D"/>
<path d="M201.306 106.221H189.607V107.287H201.306V106.221Z" fill="#4D4D4D"/>
<path d="M250.877 122.918L266.374 126.929L266.151 127.979L250.654 123.968L250.877 122.918Z" fill="#4D4D4D"/>
<path d="M244.126 132.102L250.134 139.487L249.291 140.123L243.395 132.627L244.126 132.102Z" fill="#4D4D4D"/>
<path d="M232.631 137.801L236.954 150.056L235.905 150.47L231.582 138.231L232.631 137.801Z" fill="#4D4D4D"/>
<path d="M220.618 138.231L216.295 150.47L215.246 150.056L219.569 137.801L220.618 138.231Z" fill="#4D4D4D"/>
<path d="M208.712 132.738L202.911 140.123L202.068 139.487L208.076 132.102L208.712 132.738Z" fill="#4D4D4D"/>
<path d="M201.544 123.968L186.047 127.979L185.824 126.929L201.321 122.918L201.544 123.968Z" fill="#4D4D4D"/>
<path d="M239.974 102.386C239.343 101.692 238.602 101.106 237.781 100.651V97.4677C237.791 94.3329 236.569 91.3201 234.38 89.0798C233.297 87.9833 232.007 87.1133 230.585 86.5203C229.164 85.9274 227.639 85.6234 226.099 85.626C222.98 85.6554 220.001 86.9219 217.814 89.1477C215.627 91.3735 214.411 94.377 214.432 97.4995V100.683C213.604 101.133 212.857 101.719 212.223 102.418C204.196 111.012 218.58 123.873 226.099 127.884C233.585 123.889 248.001 111.028 239.974 102.386ZM226.099 103.357C223.81 101.574 220.059 99.3299 216.419 99.9983V97.4517C216.408 96.1684 216.65 94.8955 217.131 93.7058C217.612 92.5162 218.322 91.433 219.221 90.5181C220.12 89.6032 221.19 88.8746 222.37 88.3739C223.55 87.8731 224.817 87.61 226.099 87.5996C227.374 87.5932 228.638 87.8467 229.813 88.3447C230.988 88.8427 232.05 89.5747 232.933 90.4964C233.841 91.4113 234.559 92.4967 235.048 93.6902C235.536 94.8837 235.784 96.162 235.778 97.4517V99.9983C232.138 99.3776 228.387 101.622 226.099 103.357ZM223.253 113.495C223.253 112.74 223.553 112.015 224.087 111.481C224.62 110.946 225.344 110.646 226.099 110.646C226.853 110.646 227.577 110.946 228.11 111.481C228.644 112.015 228.944 112.74 228.944 113.495C228.944 114.01 228.803 114.515 228.537 114.956C228.271 115.397 227.889 115.756 227.434 115.994V120.021H224.859V116.026C224.407 115.784 224.03 115.424 223.767 114.984C223.503 114.543 223.365 114.04 223.365 113.527" fill="#4D4D4D"/>
<path d="M167.608 197.771H158.389C158.261 197.777 158.134 197.758 158.013 197.714C157.893 197.669 157.783 197.602 157.69 197.514C157.596 197.426 157.521 197.321 157.469 197.203C157.418 197.086 157.39 196.96 157.388 196.832C157.39 196.704 157.418 196.578 157.47 196.462C157.522 196.345 157.597 196.241 157.69 196.154C157.784 196.068 157.894 196.002 158.015 195.959C158.135 195.917 158.262 195.9 158.389 195.908C159.454 195.908 159.597 195.908 159.597 192.471V172.464C159.597 170.713 159.391 170.283 159.279 170.172C159.168 170.061 158.294 170.172 157.865 170.172C157.688 170.204 157.505 170.187 157.337 170.122C157.169 170.058 157.021 169.948 156.911 169.806C156.818 169.679 156.76 169.53 156.743 169.373C156.727 169.216 156.752 169.058 156.816 168.915C156.885 168.748 156.999 168.603 157.144 168.496C157.29 168.39 157.462 168.325 157.642 168.31C159.715 167.692 161.701 166.815 163.555 165.699L164.254 165.317C164.469 165.24 164.698 165.21 164.926 165.229C165.154 165.248 165.375 165.316 165.573 165.429C165.732 165.503 165.866 165.619 165.961 165.766C166.057 165.912 166.11 166.082 166.114 166.257V167.991C166.934 167.125 167.919 166.432 169.011 165.954C170.103 165.476 171.28 165.221 172.472 165.206C177.113 165.206 180.339 168.962 180.339 174.342C180.339 182.029 175.746 187.186 168.895 187.186C167.937 187.188 166.986 187.027 166.082 186.709V192.391C166.082 195.829 166.162 195.829 167.576 195.829C167.701 195.825 167.825 195.845 167.941 195.89C168.058 195.934 168.164 196.001 168.254 196.087C168.345 196.173 168.417 196.276 168.467 196.39C168.517 196.504 168.544 196.627 168.546 196.752C168.554 196.881 168.537 197.011 168.494 197.133C168.451 197.256 168.383 197.368 168.295 197.463C168.208 197.558 168.101 197.635 167.983 197.688C167.865 197.741 167.737 197.769 167.608 197.771ZM166.114 182.252C166.461 183.048 167.008 183.741 167.701 184.263C168.395 184.784 169.211 185.117 170.072 185.229C172.662 185.229 173.982 182.348 173.982 176.634C173.982 172.798 172.853 168.676 169.69 168.676C168.964 168.727 168.26 168.952 167.637 169.331C167.015 169.71 166.493 170.233 166.114 170.856V182.252Z" fill="#4D4D4D"/>
<path d="M209.235 187.364C208.216 187.378 207.199 187.25 206.216 186.982C205.498 186.845 204.839 186.493 204.325 185.973C203.811 185.453 203.467 184.789 203.339 184.069L203.18 183.066C200.621 185.136 195.471 188.335 192.244 187.061C191.545 186.802 190.909 186.396 190.377 185.872C189.846 185.348 189.431 184.718 189.161 184.021C188.621 182.634 188.621 181.095 189.161 179.708C190.496 176.302 193.929 174.838 201.781 174.376L201.177 170.493C200.827 168.487 199.858 167.309 198.523 167.309H198.3C198.029 167.321 197.766 167.401 197.535 167.543C197.304 167.686 197.113 167.884 196.981 168.121C196.577 168.788 196.261 169.505 196.043 170.254C195.884 170.715 195.725 171.193 195.535 171.607C195.161 172.263 194.603 172.794 193.931 173.137C193.259 173.479 192.501 173.616 191.752 173.533C189.971 173.533 189.177 172.466 189.177 171.416C189.23 170.759 189.443 170.125 189.798 169.57C190.153 169.015 190.638 168.556 191.211 168.233C193.538 166.393 196.417 165.394 199.381 165.399H199.46C203.943 165.399 206.947 167.421 207.71 170.795L209.951 183.13C210.008 183.878 210.316 184.585 210.825 185.136C210.96 185.236 211.114 185.308 211.279 185.347C211.443 185.385 211.613 185.389 211.779 185.358C211.946 185.332 212.117 185.363 212.265 185.447C212.412 185.531 212.526 185.662 212.589 185.82C212.651 185.966 212.668 186.126 212.64 186.281C212.612 186.437 212.539 186.581 212.43 186.695C211.454 187.228 210.343 187.46 209.235 187.364ZM202.147 176.445C198.554 176.907 196.44 178.037 195.678 180.026C195.484 180.355 195.359 180.72 195.311 181.098C195.263 181.477 195.293 181.861 195.398 182.228C195.504 182.594 195.684 182.936 195.926 183.23C196.168 183.525 196.467 183.767 196.806 183.942C197.95 184.419 201.066 182.462 202.83 180.759L202.608 179.326L202.147 176.445Z" fill="#4D4D4D"/>
<path d="M230.328 197.771H221.109C220.981 197.777 220.853 197.758 220.733 197.714C220.613 197.669 220.503 197.602 220.409 197.514C220.316 197.426 220.241 197.321 220.189 197.203C220.137 197.086 220.11 196.96 220.108 196.832C220.11 196.704 220.137 196.578 220.189 196.462C220.241 196.345 220.317 196.241 220.41 196.154C220.504 196.068 220.614 196.002 220.734 195.959C220.855 195.917 220.982 195.9 221.109 195.908C222.174 195.908 222.317 195.908 222.317 192.471V172.464C222.317 170.713 222.11 170.283 221.999 170.172C221.888 170.061 221.014 170.172 220.585 170.172C220.407 170.204 220.225 170.187 220.057 170.122C219.889 170.058 219.741 169.948 219.631 169.806C219.535 169.68 219.475 169.531 219.458 169.374C219.441 169.216 219.468 169.058 219.536 168.915C219.605 168.748 219.718 168.603 219.864 168.496C220.01 168.39 220.182 168.325 220.362 168.31C222.431 167.695 224.412 166.817 226.259 165.699L226.974 165.317C227.189 165.24 227.418 165.21 227.646 165.229C227.874 165.248 228.094 165.316 228.293 165.429C228.451 165.503 228.586 165.619 228.681 165.766C228.777 165.912 228.829 166.082 228.834 166.257V167.991C229.654 167.125 230.639 166.432 231.731 165.954C232.823 165.476 234 165.221 235.192 165.206C239.833 165.206 243.139 168.962 243.139 174.342C243.139 182.029 238.545 187.186 231.695 187.186C230.737 187.188 229.785 187.027 228.881 186.709V192.391C228.881 195.829 228.881 195.829 230.376 195.829C230.5 195.825 230.624 195.845 230.74 195.89C230.857 195.934 230.963 196.001 231.054 196.087C231.144 196.173 231.216 196.276 231.266 196.39C231.316 196.504 231.343 196.627 231.345 196.752C231.355 196.888 231.335 197.025 231.287 197.153C231.239 197.281 231.164 197.397 231.068 197.493C230.972 197.59 230.856 197.664 230.728 197.712C230.6 197.76 230.464 197.78 230.328 197.771ZM228.834 182.205C229.181 183.001 229.728 183.693 230.421 184.215C231.115 184.736 231.931 185.069 232.791 185.181C235.382 185.181 236.701 182.3 236.701 176.586C236.701 172.75 235.573 168.628 232.41 168.628C231.683 168.679 230.98 168.904 230.357 169.283C229.735 169.663 229.213 170.186 228.834 170.809V182.205Z" fill="#4D4D4D"/>
<path d="M261.609 187.555C259.493 187.576 257.428 186.906 255.728 185.645C254.044 184.261 252.787 182.427 252.106 180.355C251.424 178.283 251.345 176.06 251.879 173.945C252.412 171.83 253.536 169.911 255.118 168.412C256.7 166.912 258.676 165.895 260.814 165.479C262.039 165.286 263.29 165.353 264.487 165.677C265.684 166 266.799 166.573 267.76 167.357C268.598 168.109 269.255 169.041 269.684 170.082C270.114 171.124 270.303 172.248 270.24 173.373C270.255 173.452 270.255 173.533 270.24 173.612C270.247 173.643 270.247 173.676 270.24 173.707C270.198 173.8 270.136 173.881 270.059 173.947C269.982 174.013 269.892 174.062 269.795 174.089L258.669 177.687C259.559 182.048 261.609 183.846 265.122 183.369C267.41 183.066 269.143 181.554 270.748 178.466C270.834 178.298 270.979 178.168 271.155 178.1C271.331 178.032 271.526 178.033 271.702 178.1L272.179 178.291C272.274 178.33 272.36 178.387 272.433 178.459C272.506 178.531 272.563 178.618 272.601 178.713C272.64 178.808 272.659 178.91 272.657 179.012C272.656 179.115 272.634 179.216 272.592 179.31C270.399 184.085 267.379 186.759 263.326 187.379C262.758 187.478 262.185 187.537 261.609 187.555ZM261.212 167.421H260.751C260.517 167.461 260.294 167.548 260.095 167.676C259.895 167.805 259.724 167.972 259.59 168.169C258.557 169.522 258.001 172.53 258.335 175.665L264.136 173.787C264.136 172.434 264.136 169.331 262.801 167.994C262.587 167.798 262.336 167.646 262.064 167.548C261.791 167.449 261.501 167.406 261.212 167.421Z" fill="#4D4D4D"/>
<path d="M289.549 187.218H280.314C280.066 187.218 279.827 187.119 279.651 186.943C279.475 186.767 279.377 186.528 279.377 186.279C279.377 186.03 279.475 185.791 279.651 185.615C279.827 185.439 280.066 185.34 280.314 185.34C281.427 185.34 281.538 185.34 281.538 181.918V172.448C281.538 170.697 281.332 170.267 281.22 170.172C281.109 170.076 280.235 170.172 279.806 170.172C279.565 170.207 279.319 170.162 279.106 170.044C278.988 169.974 278.888 169.877 278.813 169.761C278.739 169.645 278.692 169.513 278.677 169.376C278.666 169.247 278.681 169.117 278.721 168.994C278.761 168.871 278.825 168.758 278.91 168.66C278.994 168.562 279.097 168.482 279.213 168.424C279.328 168.367 279.454 168.333 279.583 168.325C281.661 167.692 283.652 166.805 285.512 165.683L286.195 165.317C286.41 165.24 286.639 165.21 286.867 165.229C287.095 165.248 287.316 165.316 287.515 165.429C287.67 165.505 287.803 165.623 287.898 165.768C287.993 165.914 288.047 166.082 288.055 166.256V167.975C288.584 167.179 289.29 166.517 290.117 166.039C290.944 165.562 291.87 165.282 292.823 165.222C293.284 165.222 294.635 165.222 296.002 165.222H296.765C296.893 165.222 297.019 165.254 297.132 165.315C297.245 165.376 297.341 165.464 297.412 165.571C297.483 165.678 297.526 165.801 297.538 165.929C297.55 166.057 297.53 166.186 297.48 166.304L295.366 170.952C295.301 171.089 295.197 171.205 295.067 171.284C294.937 171.363 294.787 171.402 294.635 171.397H294.46C294.352 171.395 294.246 171.368 294.149 171.318C294.053 171.268 293.969 171.198 293.904 171.111C293.596 170.744 293.211 170.449 292.778 170.245C292.344 170.042 291.872 169.935 291.393 169.933C290.834 169.934 290.286 170.082 289.803 170.363C289.329 170.629 288.925 171.005 288.627 171.461C288.37 171.862 288.197 172.312 288.119 172.782C288.119 172.782 288.119 172.782 288.119 172.877V172.989V181.806C288.119 185.228 288.198 185.228 289.613 185.228C289.861 185.228 290.1 185.327 290.276 185.503C290.452 185.679 290.55 185.918 290.55 186.167C290.55 186.416 290.452 186.655 290.276 186.831C290.1 187.008 289.861 187.106 289.613 187.106L289.549 187.218Z" fill="#4D4D4D"/>
</g>
<defs>
<clipPath id="clip0_5353_658">
<rect width="454.3" height="198.069" fill="white" transform="translate(0 0.433594)"/>
</clipPath>
</defs>
</svg>
