<svg width="455" height="195" viewBox="0 0 455 195" fill="none" xmlns="http://www.w3.org/2000/svg">
<g clip-path="url(#clip0_5340_478)">
<path d="M53.1874 186.495H46.5891C46.4978 186.5 46.4065 186.486 46.3207 186.454C46.2349 186.423 46.1563 186.374 46.0894 186.312C46.0226 186.249 45.9689 186.174 45.9316 186.091C45.8942 186.007 45.8739 185.917 45.8719 185.826C45.8716 185.734 45.8904 185.643 45.927 185.558C45.9636 185.474 46.0172 185.398 46.0845 185.335C46.1518 185.272 46.2314 185.224 46.3182 185.193C46.405 185.162 46.4972 185.15 46.5891 185.157C47.3541 185.157 47.4497 185.157 47.4497 182.702V168.358C47.4497 167.099 47.3063 166.764 47.2266 166.764C46.89 166.696 46.5432 166.696 46.2066 166.764C46.0823 166.787 45.9541 166.776 45.8359 166.731C45.7178 166.686 45.6144 166.609 45.5372 166.509C45.4796 166.413 45.4492 166.302 45.4492 166.19C45.4492 166.078 45.4796 165.968 45.5372 165.871C45.5892 165.751 45.6732 165.648 45.7799 165.572C45.8867 165.496 46.0122 165.451 46.1428 165.441C47.6217 164.995 49.0401 164.368 50.3664 163.576L50.8764 163.305C51.024 163.238 51.1844 163.203 51.3466 163.203C51.5088 163.203 51.6692 163.238 51.8168 163.305C51.9314 163.36 52.0281 163.446 52.0959 163.553C52.1636 163.66 52.1995 163.784 52.1993 163.911V171.354C53.648 170.767 55.2293 170.585 56.7735 170.828C60.9493 171.593 61.3637 174.669 61.3796 174.797L62.9734 183.419C63.3241 185.013 63.4356 185.013 64.4557 185.013C64.5784 185.008 64.7001 185.037 64.8069 185.098C64.9137 185.158 65.0013 185.248 65.0595 185.356C65.1177 185.464 65.1443 185.587 65.1362 185.709C65.128 185.832 65.0855 185.95 65.0135 186.049C64.9465 186.15 64.853 186.23 64.7433 186.28C64.6335 186.331 64.5119 186.35 64.3919 186.336H57.0923C57.0021 186.328 56.9145 186.302 56.8343 186.26C56.7542 186.218 56.6832 186.161 56.6254 186.091C56.5676 186.021 56.5242 185.941 56.4976 185.854C56.4711 185.768 56.4619 185.677 56.4707 185.587C56.502 185.406 56.603 185.245 56.752 185.137C56.901 185.03 57.0861 184.985 57.2676 185.013C57.6661 185.013 57.7935 185.013 57.8414 184.886C57.8892 184.758 58.192 184.376 57.9848 183.196L56.6141 174.653C56.6141 174.653 56.2954 172.374 55.0203 172.183C54.4784 172.183 52.8528 171.864 52.2471 174.574C52.2471 174.813 52.1515 175.068 52.1196 175.323V182.559C52.1196 185.013 52.1196 185.013 53.1874 185.013C53.278 185.009 53.3685 185.023 53.4534 185.055C53.5384 185.086 53.616 185.135 53.6815 185.198C53.7471 185.26 53.7993 185.335 53.8349 185.419C53.8705 185.502 53.8888 185.592 53.8887 185.682C53.908 185.784 53.9041 185.888 53.8774 185.988C53.8507 186.088 53.8018 186.18 53.7344 186.258C53.6669 186.336 53.5827 186.398 53.488 186.439C53.3933 186.48 53.2906 186.5 53.1874 186.495Z" fill="#4D4D4D"/>
<path d="M76.5506 186.909C74.8332 186.926 73.1641 186.34 71.8335 185.254C70.5028 184.168 69.5947 182.65 69.267 180.964C68.971 179.933 68.8928 178.852 69.0373 177.789C69.1819 176.726 69.5461 175.705 70.1068 174.791C70.6675 173.876 71.4123 173.088 72.2939 172.478C73.1756 171.867 74.1747 171.446 75.2278 171.242C76.2264 170.926 77.2804 170.824 78.3211 170.942C79.3619 171.061 80.366 171.397 81.2681 171.929C82.1702 172.462 82.9501 173.178 83.557 174.032C84.1639 174.885 84.5843 175.857 84.7906 176.884C85.0708 177.92 85.139 179.001 84.9911 180.064C84.8432 181.126 84.4823 182.148 83.93 183.068C82.7467 184.851 80.9287 186.116 78.8457 186.606C78.0945 186.793 77.3246 186.895 76.5506 186.909ZM75.8653 172.645C75.7223 172.629 75.578 172.629 75.435 172.645C72.9646 173.266 73.8412 177.665 74.2556 179.53C74.596 181.159 75.2807 182.697 76.2638 184.04C76.5122 184.434 76.8719 184.746 77.2973 184.936C77.7228 185.126 78.1951 185.186 78.6545 185.108C81.1567 184.471 80.3439 180.119 79.8658 178.271C78.9892 174.796 77.4432 172.645 75.8653 172.645Z" fill="#4D4D4D"/>
<path d="M109.428 186.495C109.336 186.49 109.245 186.466 109.163 186.425C109.08 186.384 109.007 186.326 108.948 186.255C108.888 186.184 108.845 186.101 108.819 186.012C108.793 185.923 108.786 185.83 108.799 185.738C108.811 185.647 108.842 185.559 108.89 185.48C108.938 185.401 109.001 185.332 109.077 185.279C109.153 185.226 109.238 185.189 109.329 185.17C109.42 185.152 109.513 185.153 109.603 185.172C110.018 185.172 110.145 185.092 110.177 185.045C110.209 184.997 110.528 184.535 110.337 183.355L108.95 174.812C108.95 174.812 108.647 172.517 107.356 172.342C106.958 172.268 106.548 172.287 106.158 172.398C105.768 172.508 105.409 172.707 105.109 172.979C104.848 173.225 104.646 173.526 104.517 173.859C104.387 174.193 104.333 174.551 104.36 174.908L104.663 183.53C104.663 184.837 105.093 185.124 105.81 185.124C105.935 185.126 106.056 185.161 106.163 185.226C106.269 185.29 106.356 185.382 106.416 185.491C106.478 185.595 106.51 185.713 106.51 185.834C106.51 185.954 106.478 186.073 106.416 186.176C106.343 186.271 106.249 186.347 106.141 186.397C106.032 186.447 105.913 186.469 105.794 186.463H98.4467C98.3552 186.457 98.2658 186.433 98.1838 186.392C98.1019 186.35 98.029 186.293 97.9695 186.223C97.9101 186.154 97.8653 186.072 97.8377 185.985C97.8102 185.897 97.8005 185.805 97.8092 185.714C97.8227 185.623 97.8542 185.537 97.9019 185.458C97.9495 185.38 98.0123 185.312 98.0866 185.259C98.1609 185.206 98.2451 185.167 98.3344 185.147C98.4236 185.127 98.516 185.124 98.6061 185.14C98.7138 185.166 98.8259 185.166 98.9337 185.141C99.0416 185.117 99.1422 185.067 99.2277 184.997C99.3871 184.869 99.658 184.439 99.658 183.228V175.673C99.658 175.673 99.658 172.485 98.0642 172.31C97.1239 172.31 95.7851 172.31 95.2751 174.701C95.1689 175.167 95.1049 175.642 95.0838 176.119V182.654C95.0838 185.108 95.0838 185.108 96.1517 185.108C96.2422 185.104 96.3327 185.118 96.4176 185.15C96.5026 185.182 96.5802 185.23 96.6457 185.293C96.7113 185.355 96.7635 185.431 96.7991 185.514C96.8347 185.597 96.853 185.687 96.8529 185.778C96.8509 185.868 96.8311 185.956 96.7947 186.039C96.7584 186.121 96.7061 186.196 96.641 186.258C96.5759 186.32 96.4991 186.369 96.4152 186.401C96.3312 186.434 96.2417 186.449 96.1517 186.447H89.5852C89.4939 186.451 89.4026 186.437 89.3168 186.406C89.231 186.374 89.1523 186.326 89.0855 186.264C89.0187 186.201 88.965 186.126 88.9276 186.043C88.8903 185.959 88.87 185.869 88.868 185.778C88.8677 185.686 88.8865 185.595 88.9231 185.51C88.9597 185.426 89.0133 185.35 89.0806 185.287C89.1479 185.224 89.2275 185.176 89.3143 185.145C89.4011 185.114 89.4933 185.102 89.5852 185.108C90.3502 185.108 90.4458 185.108 90.4458 182.654V175.88C90.4458 174.621 90.3024 174.286 90.2227 174.286C90.143 174.286 89.5214 174.286 89.2027 174.286C89.0785 174.308 88.9508 174.296 88.833 174.251C88.7152 174.206 88.6116 174.13 88.5333 174.031C88.4757 173.935 88.4453 173.825 88.4453 173.713C88.4453 173.6 88.4757 173.49 88.5333 173.394C88.5853 173.274 88.6693 173.17 88.776 173.094C88.8828 173.018 89.0083 172.973 89.1389 172.964C90.6182 172.511 92.0366 171.88 93.3625 171.083L93.8725 170.812C94.0198 170.743 94.1803 170.708 94.3427 170.708C94.5051 170.708 94.6656 170.743 94.8129 170.812C94.9225 170.86 95.0166 170.937 95.0842 171.036C95.1518 171.135 95.1904 171.25 95.1954 171.37C96.665 170.868 98.2217 170.673 99.7696 170.796C100.945 170.839 102.07 171.284 102.957 172.055C103.372 171.832 103.802 171.625 104.216 171.449C105.728 170.825 107.376 170.605 108.998 170.812C109.758 170.879 110.495 171.106 111.16 171.48C111.825 171.854 112.403 172.365 112.855 172.979C113.232 173.516 113.497 174.123 113.636 174.765L115.23 183.387C115.596 184.981 115.692 184.981 116.712 184.981C116.837 184.979 116.96 185.013 117.067 185.078C117.174 185.142 117.261 185.236 117.317 185.347C117.385 185.449 117.42 185.568 117.42 185.69C117.42 185.812 117.385 185.931 117.317 186.033C117.247 186.13 117.153 186.207 117.044 186.257C116.935 186.307 116.815 186.329 116.696 186.32H109.428V186.495Z" fill="#4D4D4D"/>
<path d="M127.139 186.735C125.619 186.75 124.137 186.269 122.915 185.364C121.728 184.372 120.846 183.064 120.37 181.592C119.895 180.12 119.845 178.543 120.226 177.044C120.608 175.544 121.405 174.183 122.527 173.117C123.648 172.052 125.048 171.325 126.565 171.02C127.442 170.879 128.338 170.926 129.195 171.156C130.052 171.387 130.851 171.797 131.538 172.359C132.138 172.898 132.609 173.564 132.918 174.308C133.227 175.053 133.365 175.857 133.323 176.662C133.33 176.72 133.33 176.779 133.323 176.838C133.293 176.903 133.249 176.962 133.194 177.008C133.139 177.055 133.074 177.089 133.004 177.108L125.035 179.69C125.673 182.798 127.139 184.089 129.657 183.755C131.251 183.532 132.542 182.448 133.69 180.232C133.754 180.114 133.859 180.024 133.985 179.977C134.11 179.93 134.249 179.93 134.375 179.977L134.71 180.121C134.781 180.146 134.846 180.186 134.901 180.238C134.956 180.291 134.999 180.354 135.028 180.424C135.084 180.562 135.084 180.716 135.028 180.854C133.434 184.281 131.299 186.177 128.398 186.624C127.981 186.686 127.561 186.723 127.139 186.735ZM126.852 172.391H126.517C126.35 172.42 126.19 172.484 126.047 172.577C125.905 172.67 125.783 172.791 125.689 172.933C124.818 174.574 124.505 176.453 124.796 178.288L128.94 176.949C129.131 175.498 128.792 174.026 127.984 172.805C127.825 172.648 127.636 172.525 127.427 172.445C127.218 172.366 126.995 172.331 126.772 172.343L126.852 172.391Z" fill="#4D4D4D"/>
<path d="M155.97 186.144H155.46C155.356 186.153 155.254 186.121 155.173 186.056C155.093 185.99 155.041 185.896 155.029 185.793V171.449C155.041 171.346 155.093 171.252 155.173 171.186C155.254 171.121 155.356 171.089 155.46 171.098H155.97C156.075 171.089 156.179 171.12 156.262 171.185C156.345 171.25 156.4 171.345 156.416 171.449V185.793C156.4 185.897 156.345 185.992 156.262 186.057C156.179 186.122 156.075 186.153 155.97 186.144Z" fill="#4D4D4D"/>
<path d="M286.343 186.144H285.833C285.728 186.153 285.623 186.122 285.54 186.057C285.458 185.992 285.403 185.897 285.387 185.793V171.449C285.403 171.345 285.458 171.25 285.54 171.185C285.623 171.12 285.728 171.089 285.833 171.098H286.343C286.446 171.089 286.549 171.121 286.629 171.186C286.71 171.252 286.761 171.346 286.773 171.449V185.793C286.761 185.896 286.71 185.99 286.629 186.056C286.549 186.121 286.446 186.153 286.343 186.144Z" fill="#4D4D4D"/>
<path d="M184.642 186.496H183.957C182.889 186.461 181.825 186.365 180.769 186.209H180.642C180.224 186.15 179.8 186.15 179.382 186.209C179.318 186.303 179.222 186.371 179.111 186.4C179.021 186.449 178.92 186.474 178.817 186.474C178.714 186.474 178.612 186.449 178.522 186.4C178.452 186.349 178.395 186.282 178.356 186.204C178.317 186.126 178.297 186.04 178.299 185.954C178.209 184.846 178.054 183.744 177.836 182.654C177.836 182.431 177.836 182.256 177.757 182.176V182.097C177.753 182.024 177.763 181.951 177.788 181.883C177.813 181.814 177.851 181.752 177.9 181.698C177.959 181.641 178.029 181.596 178.106 181.566C178.182 181.536 178.264 181.521 178.346 181.523C178.447 181.525 178.545 181.55 178.634 181.597C178.722 181.644 178.799 181.712 178.856 181.794C180.095 183.46 181.916 184.598 183.957 184.981C184.341 185.045 184.73 185.077 185.12 185.077C187.112 185.077 188.308 184.408 188.308 183.324C188.308 182.24 186.841 181.73 184.769 181.013L183.415 180.598C181.47 179.977 177.852 178.829 177.852 175.658C177.852 173.219 180.116 170.749 185.152 170.749C186.043 170.748 186.933 170.817 187.814 170.956H187.957C188.369 171.014 188.788 171.014 189.2 170.956C189.265 170.862 189.361 170.794 189.471 170.765C189.562 170.717 189.663 170.692 189.766 170.692C189.869 170.692 189.97 170.717 190.061 170.765C190.131 170.816 190.188 170.883 190.227 170.961C190.266 171.038 190.285 171.124 190.284 171.211C190.375 172.324 190.53 173.431 190.746 174.526C190.746 174.733 190.746 174.909 190.746 174.988C190.749 175.064 190.735 175.138 190.707 175.208C190.679 175.278 190.636 175.341 190.582 175.394C190.528 175.446 190.464 175.487 190.393 175.513C190.323 175.539 190.248 175.551 190.172 175.546C190.073 175.552 189.973 175.531 189.884 175.486C189.794 175.442 189.718 175.374 189.662 175.291C188.977 174.271 186.746 172.103 184.594 172.103C182.905 172.103 181.757 172.725 181.757 173.697C181.757 174.669 183.526 175.387 185.232 175.913L186.825 176.391C188.706 177.012 192.228 178.16 192.228 181.379C192.324 184.981 188.467 186.496 184.642 186.496Z" fill="#4D4D4D"/>
<path d="M203.64 186.812C203.061 186.883 202.474 186.822 201.923 186.634C201.371 186.446 200.869 186.136 200.454 185.727C200.038 185.318 199.721 184.82 199.525 184.271C199.329 183.723 199.259 183.137 199.321 182.557V172.229H198.285C198.146 172.177 198.028 172.082 197.945 171.96C197.862 171.837 197.819 171.692 197.823 171.544C197.819 171.416 197.849 171.289 197.911 171.177C197.973 171.065 198.063 170.972 198.173 170.906L203.305 167.193C203.395 167.119 203.508 167.08 203.624 167.081H203.64C203.784 167.081 203.922 167.138 204.023 167.24C204.125 167.341 204.182 167.479 204.182 167.623V170.811H207.369C207.438 170.796 207.508 170.796 207.577 170.811C207.709 170.865 207.823 170.958 207.902 171.077C207.982 171.196 208.024 171.337 208.023 171.48C208.023 171.617 207.985 171.751 207.915 171.869C207.845 171.987 207.745 172.084 207.624 172.149C207.541 172.171 207.453 172.171 207.369 172.149H204.182V182.541C204.182 183.88 204.532 184.406 205.457 184.406C206.113 184.367 206.748 184.164 207.306 183.816C207.428 183.748 207.571 183.729 207.706 183.761C207.842 183.794 207.961 183.876 208.039 183.991L208.246 184.31C208.322 184.43 208.349 184.574 208.322 184.713C208.296 184.852 208.217 184.976 208.103 185.059C206.847 186.116 205.279 186.732 203.64 186.812Z" fill="#4D4D4D"/>
<path d="M215.338 193.443C214.759 193.406 214.184 193.326 213.617 193.203C213.471 193.168 213.345 193.076 213.266 192.948C213.235 192.884 213.219 192.813 213.219 192.741C213.219 192.669 213.235 192.599 213.266 192.534L213.999 189.665C214.03 189.549 214.098 189.445 214.193 189.37C214.288 189.296 214.405 189.254 214.525 189.251H214.621C214.698 189.248 214.774 189.264 214.844 189.298C214.913 189.331 214.973 189.38 215.019 189.442C215.341 189.803 215.733 190.094 216.172 190.297C216.611 190.5 217.086 190.61 217.57 190.621C218.25 190.651 218.915 190.41 219.418 189.952H219.498C219.832 189.567 220.121 189.144 220.359 188.693L221.379 186.318C220.414 186.27 219.486 185.93 218.718 185.344C217.95 184.758 217.377 183.953 217.075 183.035L214.653 175.385V175.289C213.76 172.659 213.76 172.659 212.74 172.659C212.65 172.661 212.561 172.646 212.477 172.613C212.393 172.581 212.316 172.532 212.251 172.47C212.186 172.408 212.134 172.333 212.097 172.251C212.061 172.169 212.041 172.08 212.039 171.99C212.041 171.9 212.061 171.811 212.097 171.729C212.134 171.646 212.186 171.572 212.251 171.51C212.316 171.448 212.393 171.399 212.477 171.366C212.561 171.334 212.65 171.318 212.74 171.32H220.008C220.191 171.316 220.369 171.384 220.503 171.509C220.637 171.634 220.717 171.807 220.725 171.99C220.723 172.081 220.703 172.171 220.666 172.255C220.628 172.338 220.575 172.413 220.508 172.476C220.441 172.538 220.362 172.586 220.276 172.618C220.191 172.649 220.099 172.664 220.008 172.659C219.768 172.628 219.524 172.685 219.323 172.819C219.323 172.819 219.131 173.201 219.323 174.189L221.729 182.541C221.864 183.042 222.074 183.52 222.351 183.959L223.945 180.341C223.94 180.299 223.94 180.256 223.945 180.214L225.539 176.771C225.81 176.054 226.702 173.775 226.208 173.058C226.033 172.803 225.586 172.659 224.885 172.675C224.793 172.682 224.7 172.669 224.612 172.639C224.524 172.608 224.444 172.56 224.375 172.498C224.307 172.435 224.251 172.359 224.213 172.275C224.175 172.19 224.154 172.099 224.152 172.006C224.154 171.914 224.174 171.823 224.211 171.739C224.249 171.654 224.302 171.578 224.369 171.515C224.435 171.451 224.514 171.401 224.6 171.368C224.686 171.334 224.777 171.318 224.869 171.32H230.527C230.623 171.306 230.72 171.312 230.813 171.338C230.906 171.364 230.992 171.411 231.066 171.473C231.139 171.536 231.198 171.614 231.238 171.702C231.279 171.79 231.3 171.885 231.3 171.982C231.3 172.079 231.279 172.174 231.238 172.262C231.198 172.35 231.139 172.427 231.066 172.49C230.992 172.553 230.906 172.599 230.813 172.626C230.72 172.652 230.623 172.658 230.527 172.643C230.161 172.643 228.79 172.978 226.941 177.425L225.347 180.931L221.729 189.283C221.409 190.047 220.979 190.761 220.454 191.402C219.755 192.235 218.839 192.858 217.809 193.203C217.373 193.345 216.925 193.447 216.47 193.506C216.089 193.558 215.706 193.584 215.322 193.586C215.322 193.586 215.37 193.443 215.338 193.443Z" fill="#4D4D4D"/>
<path d="M243.358 186.496H236.76C236.668 186.502 236.576 186.49 236.489 186.459C236.402 186.428 236.322 186.38 236.255 186.317C236.188 186.255 236.134 186.178 236.097 186.094C236.061 186.009 236.042 185.918 236.042 185.826C236.044 185.735 236.065 185.645 236.102 185.561C236.139 185.478 236.193 185.403 236.26 185.34C236.327 185.278 236.405 185.23 236.491 185.198C236.577 185.167 236.668 185.153 236.76 185.157C237.525 185.157 237.62 185.157 237.62 182.702V168.358C237.62 167.099 237.477 166.764 237.397 166.764C237.061 166.696 236.714 166.696 236.377 166.764C236.254 166.791 236.126 166.783 236.008 166.741C235.89 166.699 235.786 166.624 235.708 166.525C235.636 166.434 235.591 166.325 235.577 166.21C235.563 166.094 235.581 165.978 235.628 165.872C235.68 165.752 235.764 165.648 235.871 165.572C235.978 165.496 236.103 165.451 236.234 165.441C237.712 164.995 239.131 164.369 240.457 163.577L240.967 163.306C241.119 163.245 241.284 163.22 241.447 163.234C241.61 163.248 241.768 163.3 241.908 163.385C242.021 163.437 242.117 163.52 242.185 163.624C242.253 163.729 242.289 163.851 242.29 163.975V182.671C242.29 185.125 242.29 185.125 243.358 185.125C243.48 185.122 243.6 185.151 243.706 185.21C243.813 185.269 243.901 185.355 243.964 185.46C244.026 185.56 244.059 185.676 244.059 185.794C244.059 185.913 244.026 186.028 243.964 186.129C243.906 186.24 243.819 186.332 243.712 186.397C243.605 186.461 243.483 186.495 243.358 186.496Z" fill="#4D4D4D"/>
<path d="M256.235 186.735C254.715 186.75 253.232 186.269 252.011 185.364C250.824 184.372 249.942 183.064 249.466 181.592C248.99 180.12 248.94 178.543 249.322 177.044C249.703 175.544 250.501 174.183 251.622 173.117C252.744 172.052 254.144 171.325 255.661 171.02C256.537 170.879 257.434 170.926 258.291 171.156C259.148 171.387 259.946 171.797 260.634 172.359C261.233 172.898 261.705 173.564 262.014 174.308C262.323 175.053 262.461 175.857 262.419 176.662C262.419 176.662 262.419 176.774 262.419 176.838C262.389 176.903 262.344 176.962 262.289 177.008C262.234 177.055 262.17 177.089 262.1 177.108L254.131 179.69C254.768 182.798 256.235 184.089 258.753 183.755C260.347 183.532 261.638 182.448 262.785 180.232C262.85 180.114 262.954 180.024 263.08 179.977C263.206 179.93 263.345 179.93 263.471 179.977L263.805 180.121C263.876 180.144 263.94 180.184 263.992 180.236C264.045 180.289 264.085 180.353 264.108 180.424C264.139 180.491 264.156 180.564 264.156 180.639C264.156 180.713 264.139 180.787 264.108 180.854C262.514 184.281 260.363 186.177 257.462 186.624C257.055 186.686 256.646 186.723 256.235 186.735ZM255.948 172.391H255.613C255.445 172.42 255.286 172.484 255.143 172.577C255.001 172.67 254.879 172.791 254.784 172.933C253.914 174.574 253.6 176.453 253.892 178.288L258.036 176.949C258.227 175.498 257.887 174.026 257.079 172.805C256.783 172.511 256.382 172.345 255.964 172.343L255.948 172.391Z" fill="#4D4D4D"/>
<path d="M315.813 194.051H309.215C309.123 194.057 309.031 194.045 308.944 194.014C308.857 193.984 308.777 193.935 308.71 193.873C308.643 193.81 308.589 193.734 308.553 193.649C308.516 193.565 308.497 193.474 308.497 193.381C308.499 193.29 308.52 193.2 308.557 193.117C308.594 193.033 308.648 192.958 308.715 192.896C308.782 192.833 308.86 192.785 308.946 192.753C309.032 192.722 309.123 192.708 309.215 192.712C309.98 192.712 310.075 192.712 310.075 190.274V175.929C310.075 174.67 309.932 174.335 309.852 174.335C309.772 174.335 309.151 174.335 308.832 174.335C308.708 174.357 308.58 174.345 308.462 174.3C308.345 174.255 308.241 174.179 308.163 174.08C308.091 173.989 308.046 173.88 308.032 173.765C308.018 173.65 308.036 173.533 308.083 173.427C308.137 173.31 308.222 173.209 308.329 173.136C308.435 173.064 308.56 173.021 308.689 173.013C310.168 172.56 311.586 171.929 312.912 171.132L313.422 170.861C313.575 170.805 313.739 170.783 313.901 170.796C314.064 170.81 314.221 170.859 314.363 170.941C314.476 170.992 314.572 171.075 314.64 171.18C314.708 171.284 314.744 171.406 314.745 171.53V172.774C315.335 172.151 316.043 171.654 316.829 171.311C317.615 170.969 318.462 170.789 319.319 170.781C322.65 170.781 324.961 173.475 324.961 177.316C324.961 182.815 321.662 186.496 316.769 186.496C316.081 186.498 315.397 186.385 314.745 186.161V190.242C314.745 192.68 314.745 192.68 315.813 192.68C315.903 192.678 315.993 192.694 316.077 192.726C316.16 192.759 316.237 192.807 316.302 192.87C316.367 192.932 316.42 193.006 316.456 193.088C316.492 193.171 316.512 193.26 316.514 193.35C316.519 193.443 316.504 193.536 316.47 193.623C316.437 193.71 316.385 193.79 316.319 193.856C316.253 193.922 316.174 193.973 316.087 194.007C316 194.04 315.906 194.055 315.813 194.051ZM314.729 182.91C314.976 183.482 315.367 183.979 315.865 184.354C316.362 184.728 316.949 184.967 317.566 185.046C319.431 185.046 320.371 182.974 320.371 178.894C320.371 176.152 319.558 173.22 317.295 173.22C316.771 173.261 316.265 173.427 315.818 173.704C315.372 173.981 314.998 174.362 314.729 174.814V182.91Z" fill="#4D4D4D"/>
<path d="M345.632 186.607C344.899 186.618 344.169 186.522 343.465 186.32C342.952 186.224 342.481 185.975 342.113 185.605C341.746 185.234 341.5 184.761 341.409 184.248L341.297 183.531C339.464 185.013 335.766 187.308 333.471 186.399C332.971 186.208 332.516 185.916 332.135 185.54C331.754 185.164 331.454 184.713 331.256 184.216C330.865 183.222 330.865 182.118 331.256 181.124C332.212 178.685 334.683 177.649 340.293 177.315L339.863 174.542C339.608 173.107 338.922 172.246 337.966 172.199H337.791C337.598 172.212 337.411 172.273 337.247 172.376C337.083 172.479 336.947 172.62 336.85 172.788C336.57 173.266 336.346 173.774 336.181 174.302C336.078 174.633 335.956 174.958 335.814 175.275C335.546 175.743 335.147 176.123 334.665 176.367C334.184 176.61 333.641 176.707 333.105 176.645C331.83 176.645 331.256 175.896 331.256 175.147C331.296 174.677 331.451 174.223 331.707 173.826C331.962 173.429 332.311 173.1 332.722 172.868C334.385 171.547 336.448 170.833 338.572 170.844C341.759 170.844 343.927 172.294 344.485 174.717L346.078 183.531C346.125 184.067 346.349 184.572 346.716 184.965C346.811 185.036 346.919 185.087 347.034 185.115C347.149 185.142 347.269 185.145 347.385 185.124C347.507 185.102 347.633 185.123 347.741 185.184C347.849 185.245 347.932 185.343 347.975 185.459C348.012 185.563 348.021 185.676 348.002 185.785C347.982 185.894 347.934 185.996 347.863 186.081C347.183 186.46 346.41 186.642 345.632 186.607ZM340.564 178.797C337.982 179.116 336.468 179.96 335.91 181.347C335.773 181.583 335.686 181.845 335.653 182.115C335.62 182.386 335.643 182.661 335.719 182.923C335.794 183.185 335.923 183.429 336.095 183.64C336.268 183.851 336.481 184.025 336.723 184.152C337.552 184.503 339.783 183.1 341.042 181.889L340.883 180.869L340.564 178.797Z" fill="#4D4D4D"/>
<path d="M360.758 194.051H354.144C354.052 194.055 353.961 194.041 353.875 194.01C353.789 193.978 353.711 193.93 353.644 193.867C353.577 193.805 353.523 193.73 353.486 193.646C353.449 193.563 353.428 193.473 353.426 193.381C353.435 193.198 353.514 193.026 353.648 192.9C353.783 192.775 353.96 192.708 354.144 192.712C354.925 192.712 355.02 192.712 355.02 190.274V175.929C355.02 174.67 354.877 174.335 354.797 174.335C354.717 174.335 354.096 174.335 353.777 174.335C353.653 174.357 353.525 174.345 353.407 174.3C353.29 174.255 353.186 174.179 353.108 174.08C353.049 173.982 353.018 173.869 353.018 173.754C353.018 173.639 353.049 173.526 353.108 173.427C353.162 173.31 353.247 173.209 353.353 173.136C353.46 173.064 353.584 173.021 353.713 173.013C355.193 172.56 356.611 171.929 357.937 171.132L358.447 170.861C358.6 170.805 358.763 170.783 358.926 170.796C359.088 170.81 359.246 170.859 359.387 170.941C359.501 170.992 359.597 171.075 359.665 171.18C359.732 171.284 359.769 171.406 359.77 171.53V172.774C360.359 172.151 361.068 171.654 361.854 171.311C362.64 170.969 363.487 170.789 364.344 170.781C367.675 170.781 369.986 173.475 369.986 177.316C369.986 182.815 366.687 186.496 361.794 186.496C361.105 186.498 360.421 186.385 359.77 186.161V190.242C359.77 192.68 359.77 192.68 360.838 192.68C360.928 192.678 361.017 192.694 361.101 192.726C361.185 192.759 361.262 192.807 361.327 192.87C361.392 192.932 361.444 193.006 361.481 193.088C361.517 193.171 361.537 193.26 361.539 193.35C361.545 193.45 361.529 193.551 361.49 193.645C361.452 193.738 361.393 193.822 361.318 193.889C361.243 193.957 361.154 194.006 361.057 194.034C360.96 194.062 360.857 194.068 360.758 194.051ZM359.69 182.91C359.937 183.482 360.328 183.979 360.826 184.354C361.323 184.728 361.909 184.967 362.527 185.046C364.392 185.046 365.332 182.974 365.332 178.894C365.332 176.152 364.519 173.22 362.256 173.22C361.732 173.261 361.225 173.427 360.779 173.704C360.332 173.981 359.959 174.362 359.69 174.814V182.91Z" fill="#4D4D4D"/>
<path d="M383.153 186.735C381.633 186.753 380.149 186.271 378.929 185.365C377.304 184.081 376.251 182.208 375.997 180.153C375.787 179.113 375.793 178.041 376.015 177.004C376.237 175.966 376.671 174.986 377.288 174.123C377.905 173.261 378.694 172.534 379.604 171.99C380.514 171.445 381.527 171.093 382.579 170.957C383.456 170.816 384.352 170.862 385.209 171.093C386.066 171.324 386.865 171.734 387.552 172.295C388.152 172.834 388.623 173.5 388.932 174.245C389.241 174.989 389.379 175.794 389.337 176.599C389.337 176.599 389.337 176.71 389.337 176.774C389.305 176.839 389.261 176.896 389.206 176.943C389.151 176.989 389.087 177.024 389.018 177.045L381.049 179.627C381.687 182.735 383.153 184.026 385.671 183.691C387.265 183.468 388.556 182.384 389.704 180.169C389.768 180.051 389.873 179.96 389.999 179.913C390.125 179.867 390.263 179.867 390.389 179.914L390.724 180.057C390.794 180.081 390.858 180.12 390.911 180.173C390.963 180.225 391.003 180.29 391.026 180.36C391.058 180.428 391.074 180.501 391.074 180.575C391.074 180.65 391.058 180.723 391.026 180.79C389.433 184.217 387.281 186.114 384.38 186.56C383.975 186.644 383.565 186.702 383.153 186.735ZM382.85 172.391H382.531C382.364 172.421 382.204 172.484 382.061 172.577C381.919 172.67 381.797 172.791 381.703 172.933C380.832 174.574 380.519 176.454 380.81 178.288L384.954 176.949C385.145 175.498 384.806 174.026 383.998 172.805C383.847 172.656 383.668 172.538 383.471 172.458C383.274 172.379 383.063 172.34 382.85 172.343V172.391Z" fill="#4D4D4D"/>
<path d="M403.153 186.495H396.491C396.398 186.502 396.305 186.489 396.218 186.459C396.13 186.428 396.05 186.38 395.981 186.318C395.912 186.255 395.857 186.179 395.819 186.095C395.781 186.01 395.76 185.919 395.758 185.826C395.762 185.734 395.784 185.643 395.823 185.56C395.862 185.476 395.918 185.401 395.986 185.339C396.054 185.277 396.133 185.229 396.22 185.197C396.307 185.166 396.399 185.152 396.491 185.156C397.272 185.156 397.352 185.156 397.352 182.718V175.944C397.352 174.685 397.208 174.35 397.129 174.35C396.792 174.282 396.445 174.282 396.109 174.35C395.949 174.408 395.774 174.408 395.614 174.35C395.531 174.299 395.46 174.23 395.407 174.147C395.355 174.064 395.322 173.97 395.312 173.872C395.303 173.779 395.313 173.685 395.341 173.595C395.37 173.506 395.416 173.423 395.477 173.352C395.538 173.28 395.612 173.222 395.696 173.18C395.78 173.138 395.871 173.113 395.965 173.107C397.449 172.655 398.873 172.023 400.205 171.227L400.699 170.972C400.846 170.904 401.007 170.869 401.169 170.869C401.331 170.869 401.491 170.904 401.639 170.972C401.754 171.026 401.85 171.112 401.918 171.219C401.986 171.326 402.022 171.45 402.022 171.577V172.804C402.402 172.23 402.912 171.752 403.509 171.409C404.107 171.066 404.776 170.867 405.464 170.828H408.285C408.377 170.829 408.468 170.853 408.548 170.897C408.629 170.942 408.697 171.006 408.747 171.083C408.791 171.161 408.813 171.249 408.813 171.338C408.813 171.427 408.791 171.515 408.747 171.593L407.233 174.924C407.191 175.023 407.12 175.107 407.028 175.164C406.937 175.221 406.831 175.248 406.723 175.243H406.596C406.443 175.233 406.3 175.165 406.197 175.052C405.981 174.788 405.708 174.575 405.4 174.429C405.091 174.283 404.754 174.207 404.412 174.207C404.009 174.199 403.612 174.304 403.265 174.51C402.929 174.705 402.64 174.971 402.42 175.291C402.224 175.57 402.098 175.893 402.053 176.231V182.606C402.053 185.045 402.053 185.045 403.121 185.045C403.211 185.043 403.301 185.058 403.385 185.091C403.469 185.123 403.545 185.172 403.611 185.234C403.676 185.296 403.728 185.371 403.764 185.453C403.801 185.536 403.82 185.624 403.823 185.714C403.839 185.811 403.834 185.91 403.808 186.005C403.781 186.099 403.735 186.187 403.671 186.262C403.607 186.336 403.527 186.396 403.438 186.436C403.349 186.476 403.251 186.497 403.153 186.495Z" fill="#4D4D4D"/>
<path d="M0 1.70801H15.3006V33.7754H30.2823V46.8446H0V1.70801Z" fill="#4D4D4D"/>
<path d="M38.6943 24.0222C38.6426 20.6626 39.294 17.3292 40.6068 14.2362C41.8104 11.4179 43.5976 8.88661 45.8505 6.8091C48.1588 4.69636 50.869 3.07022 53.8195 2.02768C60.2656 -0.182403 67.2641 -0.182403 73.7102 2.02768C76.6573 3.07726 79.3662 4.7026 81.6792 6.8091C83.9523 8.87929 85.7565 11.4116 86.9707 14.2362C88.2835 17.3292 88.9349 20.6626 88.8832 24.0222C88.927 27.4121 88.2761 30.775 86.9707 33.9038C85.7476 36.7645 83.9398 39.3378 81.6633 41.4585C79.3569 43.5968 76.6479 45.2547 73.6943 46.3355C67.2747 48.647 60.2537 48.6695 53.8195 46.3993C50.857 45.3069 48.1462 43.6262 45.8505 41.4585C43.5875 39.3115 41.7963 36.717 40.5909 33.8401C39.2995 30.7299 38.6542 27.3896 38.6943 24.0222ZM54.8236 24.0222C54.807 25.4109 55.0336 26.7918 55.493 28.1024C55.906 29.2705 56.533 30.3514 57.3418 31.29C58.1304 32.1803 59.1041 32.8874 60.1947 33.3619C61.3212 33.8506 62.5369 34.1002 63.7648 34.0951C64.9661 34.1097 66.1566 33.8669 67.2563 33.383C68.3559 32.8992 69.3392 32.1855 70.1401 31.29C70.9686 30.36 71.6074 29.2772 72.0208 28.1024C72.4802 26.7918 72.7067 25.4109 72.6902 24.0222C72.7055 22.6648 72.4788 21.3156 72.0208 20.0377C71.6196 18.8951 70.9783 17.8516 70.1401 16.9776C69.3326 16.1478 68.3683 15.4868 67.3031 15.0331C66.1765 14.5698 64.9669 14.342 63.7489 14.3637C62.5239 14.3561 61.3099 14.5946 60.1788 15.065C59.1071 15.5068 58.1405 16.1693 57.3418 17.0095C56.5244 17.8936 55.8954 18.9347 55.493 20.0696C55.0387 21.3374 54.8121 22.6755 54.8236 24.0222Z" fill="#4D4D4D"/>
<path d="M100.858 24.2788C100.809 20.9091 101.461 17.566 102.771 14.461C103.984 11.6205 105.769 9.05995 108.014 6.93822C110.273 4.84015 112.928 3.21452 115.824 2.1568C118.883 1.01929 122.123 0.446856 125.387 0.467365C128.754 0.446176 132.099 1.01805 135.268 2.1568C138.145 3.13414 140.8 4.67266 143.078 6.68321L133.77 17.8399C132.935 16.7471 131.839 15.8813 130.583 15.3216C129.237 14.7328 127.78 14.4394 126.311 14.461C125.089 14.4504 123.876 14.6777 122.741 15.1304C121.647 15.5656 120.658 16.2284 119.84 17.0748C118.985 17.9599 118.323 19.0127 117.896 20.1668C117.417 21.4621 117.179 22.8342 117.195 24.2151C117.169 25.579 117.418 26.9342 117.928 28.1996C118.39 29.3243 119.061 30.3516 119.904 31.2278C120.726 32.0692 121.714 32.7312 122.805 33.1723C123.919 33.6203 125.11 33.8477 126.311 33.8417C127.878 33.8807 129.428 33.507 130.806 32.7579C131.962 32.125 132.972 31.2562 133.77 30.2078L143.078 41.4601C140.911 43.5434 138.347 45.1694 135.539 46.2415C129.185 48.6319 122.185 48.6658 115.808 46.3371C112.912 45.2452 110.262 43.5872 108.014 41.4601C105.782 39.331 104.004 36.772 102.787 33.9373C101.483 30.8857 100.826 27.597 100.858 24.2788Z" fill="#4D4D4D"/>
<path d="M169.77 28.8665H169.643V46.8446H154.916V1.70801H169.579V18.3474H169.707L181.756 1.70801H199.606L182.648 22.3319L200.451 46.8446H181.819L169.77 28.8665Z" fill="#4D4D4D"/>
<path d="M237.796 46.8446H222.496L210.191 1.70801H226.257L231.038 27.0814H231.293L236.521 1.70801H252.459L258.133 27.1133H258.388L263.297 1.73988H278.853L266.293 46.8765H250.993L244.618 21.3756H244.363L237.796 46.8446Z" fill="#4D4D4D"/>
<path d="M287.907 24.0222C287.855 20.6626 288.507 17.3292 289.82 14.2362C291.028 11.4165 292.821 8.88504 295.079 6.8091C297.388 4.69637 300.098 3.07022 303.048 2.02768C309.494 -0.182403 316.493 -0.182403 322.939 2.02768C325.886 3.07726 328.595 4.70261 330.908 6.8091C333.181 8.87929 334.985 11.4116 336.2 14.2362C337.512 17.3292 338.164 20.6626 338.112 24.0222C338.156 27.4121 337.505 30.775 336.2 33.9038C334.972 36.7659 333.158 39.3393 330.876 41.4585C328.57 43.5968 325.861 45.2547 322.907 46.3355C316.475 48.6302 309.448 48.6302 303.016 46.3355C300.059 45.2621 297.349 43.6034 295.047 41.4585C292.784 39.3115 290.993 36.717 289.788 33.8401C288.502 30.7288 287.862 27.3885 287.907 24.0222ZM304.036 24.0222C304.02 25.4109 304.246 26.7918 304.706 28.1024C305.119 29.2705 305.746 30.3514 306.555 31.29C307.339 32.1784 308.307 32.8854 309.392 33.3619C310.518 33.8506 311.734 34.1002 312.962 34.0951C314.163 34.1097 315.354 33.8669 316.453 33.383C317.553 32.8992 318.536 32.1855 319.337 31.29C320.166 30.36 320.804 29.2772 321.218 28.1024C321.677 26.7918 321.904 25.4109 321.887 24.0222C321.902 22.6648 321.676 21.3156 321.218 20.0377C320.817 18.8951 320.175 17.8516 319.337 16.9776C318.53 16.1478 317.565 15.4868 316.5 15.0331C315.381 14.561 314.177 14.3224 312.962 14.3319C311.737 14.3242 310.523 14.5627 309.392 15.0331C308.32 15.4749 307.353 16.1375 306.555 16.9776C305.737 17.8617 305.108 18.9028 304.706 20.0377C304.253 21.3166 304.032 22.6658 304.052 24.0222H304.036Z" fill="#4D4D4D"/>
<path d="M346.239 24.0222C346.187 20.6626 346.839 17.3292 348.152 14.2362C349.36 11.4165 351.153 8.88504 353.411 6.8091C355.72 4.69637 358.43 3.07022 361.38 2.02768C367.826 -0.182403 374.825 -0.182403 381.271 2.02768C384.218 3.07726 386.927 4.70261 389.24 6.8091C391.513 8.87929 393.317 11.4116 394.532 14.2362C395.844 17.3292 396.496 20.6626 396.444 24.0222C396.488 27.4121 395.837 30.775 394.532 33.9038C393.304 36.7659 391.49 39.3393 389.208 41.4585C386.902 43.5968 384.193 45.2547 381.239 46.3355C374.807 48.6302 367.78 48.6302 361.348 46.3355C358.42 45.2526 355.737 43.5943 353.459 41.4585C351.196 39.3115 349.405 36.717 348.2 33.8401C346.886 30.7345 346.219 27.394 346.239 24.0222ZM362.368 24.0222C362.352 25.4109 362.579 26.7918 363.038 28.1024C363.451 29.2705 364.078 30.3514 364.887 31.29C365.671 32.1784 366.639 32.8854 367.724 33.3619C368.85 33.8506 370.066 34.1002 371.294 34.0951C372.495 34.1097 373.686 33.8669 374.785 33.383C375.885 32.8992 376.868 32.1855 377.669 31.29C378.498 30.36 379.136 29.2772 379.55 28.1024C380.009 26.7918 380.236 25.4109 380.219 24.0222C380.234 22.6648 380.008 21.3156 379.55 20.0377C379.149 18.8951 378.507 17.8516 377.669 16.9776C376.862 16.1478 375.897 15.4868 374.832 15.0331C373.713 14.561 372.509 14.3224 371.294 14.3319C370.069 14.3242 368.855 14.5627 367.724 15.0331C366.652 15.4749 365.685 16.1375 364.887 16.9776C364.064 17.8603 363.429 18.9015 363.022 20.0377C362.569 21.3166 362.348 22.6658 362.368 24.0222Z" fill="#4D4D4D"/>
<path d="M410.438 46.845V1.70839H427.268C430.707 1.69472 434.137 2.04735 437.5 2.7603C440.582 3.38938 443.507 4.6246 446.107 6.39418C448.63 8.15093 450.678 10.5056 452.068 13.2476C453.664 16.6083 454.429 20.3034 454.299 24.0217C454.383 27.5615 453.653 31.0734 452.163 34.2858C450.839 37.0837 448.886 39.5382 446.458 41.4579C444.004 43.3421 441.213 44.738 438.233 45.57C435.082 46.4693 431.82 46.92 428.543 46.9088L410.438 46.845ZM425.037 14.5864V33.712H427.842C430.769 33.9056 433.674 33.0838 436.066 31.3851C437.978 29.7913 438.935 27.3209 438.935 23.7986C439.002 22.5164 438.779 21.2356 438.282 20.0517C437.786 18.8678 437.028 17.8113 436.066 16.9611C433.895 15.2483 431.177 14.3818 428.416 14.5226L425.037 14.5864Z" fill="#4D4D4D"/>
<path d="M202.045 93.0494L186.506 89.033L186.713 87.9811L202.253 91.9975L202.045 93.0494ZM208.819 83.8531L202.858 76.5216L203.703 75.8841L209.616 83.3909L208.819 83.8531ZM220.406 78.1154L216.071 65.8431L217.123 65.4287L221.458 77.6851L220.406 78.1154ZM232.455 77.6851L236.79 65.4287L237.842 65.8431L233.507 78.1154L232.455 77.6851ZM244.393 83.1837L250.21 75.7885L251.055 76.426L245.078 83.8531L244.393 83.1837ZM251.581 91.9656L267.121 87.9492L267.344 89.0011L251.804 93.0175L251.581 91.9656Z" fill="#4D4D4D"/>
<path d="M264.363 106.008H252.633V107.076H264.363V106.008Z" fill="#4D4D4D"/>
<path d="M340.929 106.008H275.838V107.076H340.929V106.008Z" fill="#4D4D4D"/>
<path d="M178.458 106.008H113.367V107.076H178.458V106.008Z" fill="#4D4D4D"/>
<path d="M201.232 106.104H189.502V107.171H201.232V106.104Z" fill="#4D4D4D"/>
<path d="M250.946 122.822L266.485 126.839L266.262 127.891L250.723 123.874L250.946 122.822Z" fill="#4D4D4D"/>
<path d="M244.171 132.018L250.195 139.413L249.351 140.05L243.438 132.544L244.171 132.018Z" fill="#4D4D4D"/>
<path d="M232.648 137.725L236.983 149.997L235.931 150.411L231.596 138.155L232.648 137.725Z" fill="#4D4D4D"/>
<path d="M220.598 138.155L216.263 150.411L215.211 149.997L219.546 137.725L220.598 138.155Z" fill="#4D4D4D"/>
<path d="M208.66 132.655L202.843 140.05L201.998 139.413L208.023 132.018L208.66 132.655Z" fill="#4D4D4D"/>
<path d="M201.472 123.874L185.932 127.891L185.709 126.839L201.249 122.822L201.472 123.874Z" fill="#4D4D4D"/>
<path d="M240.014 102.262C239.381 101.567 238.638 100.98 237.815 100.525V97.3375C237.825 94.1985 236.6 91.1815 234.404 88.9381C233.32 87.8372 232.027 86.9641 230.601 86.3702C229.175 85.7762 227.645 85.4734 226.1 85.4796C222.971 85.509 219.981 86.7795 217.787 89.0118C215.594 91.2441 214.376 94.2558 214.402 97.3853V100.573C213.571 101.024 212.822 101.611 212.186 102.31C204.138 110.917 218.561 123.795 226.1 127.811C233.607 123.795 248.063 110.917 240.014 102.262ZM226.1 103.219C223.805 101.45 220.044 99.2023 216.394 99.8717V97.3216C216.373 94.7247 217.383 92.2254 219.203 90.3727C221.023 88.52 223.503 87.4652 226.1 87.44C227.378 87.4409 228.643 87.6981 229.821 88.1963C230.998 88.6945 232.063 89.4237 232.954 90.3407C234.79 92.199 235.816 94.709 235.806 97.3216V99.8717C232.157 99.2501 228.395 101.497 226.1 103.219ZM223.247 113.387C223.247 112.63 223.548 111.905 224.083 111.37C224.618 110.835 225.344 110.534 226.1 110.534C226.857 110.534 227.583 110.835 228.118 111.37C228.653 111.905 228.953 112.63 228.953 113.387C228.954 113.903 228.813 114.409 228.546 114.85C228.279 115.291 227.896 115.651 227.439 115.889V119.89H224.857V115.921C224.404 115.679 224.026 115.318 223.762 114.877C223.498 114.437 223.359 113.933 223.359 113.419" fill="#4D4D4D"/>
</g>
<defs>
<clipPath id="clip0_5340_478">
<rect width="454.299" height="193.616" fill="white" transform="translate(0 0.433594)"/>
</clipPath>
</defs>
</svg>
