<svg width="455" height="189" viewBox="0 0 455 189" fill="none" xmlns="http://www.w3.org/2000/svg">
<g clip-path="url(#clip0_5353_607)">
<path d="M0.0664062 1.97363H15.3515V34.0526H30.3181V47.1265H0.0664062V1.97363Z" fill="#4D4D4D"/>
<path d="M38.7254 24.2924C38.6751 20.9317 39.3259 17.5975 40.636 14.5029C41.843 11.6822 43.6339 9.14982 45.8902 7.07313C48.1962 4.95964 50.9037 3.33291 53.8512 2.28999C60.2907 0.0791174 67.2822 0.0791174 73.7218 2.28999C76.6641 3.34378 79.3696 4.96928 81.6827 7.07313C83.9536 9.14407 85.7559 11.6773 86.9688 14.5029C88.2789 17.5975 88.9297 20.9317 88.8795 24.2924C88.9231 27.6835 88.2729 31.0477 86.9688 34.1776C85.7594 37.0607 83.9584 39.6572 81.6827 41.7987C79.3753 43.9335 76.67 45.5914 73.7218 46.6775C67.2966 48.973 60.2764 48.973 53.8512 46.6775C50.897 45.6038 48.1893 43.9444 45.8902 41.7987C43.6296 39.651 41.8402 37.0556 40.636 34.1776C39.3319 31.0477 38.6817 27.6835 38.7254 24.2924ZM54.8384 24.2924C54.8218 25.6816 55.0481 27.063 55.5071 28.3741C55.9134 29.5455 56.5404 30.628 57.354 31.5628C58.133 32.4562 59.1012 33.1643 60.1881 33.6355C61.3112 34.1317 62.5272 34.3817 63.7546 34.3689C64.972 34.3836 66.178 34.1334 67.2893 33.6355C68.3658 33.1463 69.3305 32.4408 70.1234 31.5628C70.9472 30.6297 71.5849 29.5473 72.0022 28.3741C72.4611 27.063 72.6875 25.6816 72.6709 24.2924C72.6862 22.9346 72.4598 21.5848 72.0022 20.3065C71.6042 19.1816 70.9728 18.1538 70.1495 17.2909C69.3262 16.428 68.3297 15.7495 67.2256 15.3001C66.1074 14.8278 64.9046 14.5891 63.691 14.5986C62.4672 14.591 61.2544 14.8295 60.1244 15.3001C59.0518 15.7382 58.0854 16.4015 57.2903 17.2453C56.4683 18.1255 55.8391 19.1683 55.4434 20.3065C55.0075 21.5887 54.8026 22.9384 54.8384 24.2924Z" fill="#4D4D4D"/>
<path d="M100.825 24.5488C100.776 21.1779 101.427 17.8336 102.735 14.7274C103.941 11.8816 105.719 9.31466 107.958 7.186C110.212 5.08406 112.865 3.45745 115.76 2.40286C118.815 1.26357 122.052 0.690881 125.313 0.712816C128.693 0.685986 132.051 1.25815 135.232 2.40286C138.096 3.39734 140.736 4.94679 143.002 6.96279L133.704 18.1235C132.866 17.0336 131.772 16.1682 130.519 15.6043C129.174 15.0167 127.719 14.7232 126.252 14.7434C125.031 14.7328 123.82 14.9602 122.686 15.413C121.594 15.8505 120.607 16.5133 119.788 17.3581C118.934 18.2435 118.272 19.2967 117.845 20.4512C117.359 21.7449 117.121 23.1189 117.145 24.501C117.119 25.8654 117.368 27.221 117.877 28.4869C118.333 29.6151 119.004 30.6439 119.852 31.5162C120.673 32.3579 121.66 33.0201 122.749 33.4614C123.862 33.9112 125.052 34.1387 126.252 34.131C127.818 34.1701 129.366 33.7962 130.742 33.0469C131.894 32.4099 132.902 31.5414 133.704 30.4958L143.002 41.6565C140.851 43.7731 138.295 45.4326 135.487 46.5353C129.139 48.9265 122.146 48.9605 115.775 46.631C112.875 45.5444 110.222 43.8853 107.974 41.7522C105.745 39.6425 103.963 37.1048 102.735 34.2905C101.428 31.212 100.777 27.8938 100.825 24.5488Z" fill="#4D4D4D"/>
<path d="M169.669 29.1419H169.542V47.1265H154.83V1.97363H169.478V18.619H169.606L181.643 1.97363H199.475L182.534 22.7006L200.303 47.1903H181.706L169.669 29.1419Z" fill="#4D4D4D"/>
<path d="M237.623 47.1265H222.338L210.062 1.97363H226.112L230.888 27.3562H231.143L236.366 1.97363H252.287L257.956 27.3562H258.21L263.114 1.97363H278.654L266.108 47.1265H250.823L244.454 21.6164H244.199L237.623 47.1265Z" fill="#4D4D4D"/>
<path d="M287.683 24.2924C287.633 20.9317 288.283 17.5975 289.594 14.5029C290.801 11.6822 292.591 9.14982 294.848 7.07313C297.154 4.95964 299.861 3.33291 302.809 2.28999C309.248 0.0791174 316.24 0.0791174 322.679 2.28999C325.622 3.34378 328.327 4.96928 330.64 7.07313C332.882 9.15196 334.657 11.6846 335.847 14.5029C337.157 17.5975 337.808 20.9317 337.757 24.2924C337.801 27.6835 337.151 31.0477 335.847 34.1776C334.637 37.0607 332.836 39.6572 330.561 41.7987C328.253 43.9335 325.548 45.5914 322.6 46.6775C316.174 48.973 309.154 48.973 302.729 46.6775C299.775 45.6038 297.067 43.9444 294.768 41.7987C292.508 39.651 290.718 37.0556 289.514 34.1776C288.237 31.042 287.614 27.678 287.683 24.2924ZM303.796 24.2924C303.779 25.6816 304.006 27.063 304.465 28.3741C304.871 29.5455 305.498 30.628 306.312 31.5628C307.091 32.4562 308.059 33.1643 309.146 33.6355C310.269 34.1317 311.485 34.3817 312.712 34.3689C313.93 34.3836 315.136 34.1334 316.247 33.6355C317.323 33.1463 318.288 32.4408 319.081 31.5628C319.905 30.6297 320.542 29.5473 320.96 28.3741C321.419 27.063 321.645 25.6816 321.628 24.2924C321.644 22.9346 321.417 21.5848 320.96 20.3065C320.562 19.1816 319.93 18.1538 319.107 17.2909C318.284 16.428 317.287 15.7495 316.183 15.3001C315.065 14.8278 313.862 14.5891 312.648 14.5986C311.425 14.591 310.212 14.8295 309.082 15.3001C308.009 15.7382 307.043 16.4015 306.248 17.2453C305.426 18.1255 304.797 19.1683 304.401 20.3065C303.965 21.5887 303.76 22.9384 303.796 24.2924Z" fill="#4D4D4D"/>
<path d="M345.954 24.2924C345.904 20.9317 346.554 17.5975 347.864 14.5029C349.072 11.6822 350.862 9.14982 353.119 7.07313C355.425 4.95964 358.132 3.33291 361.08 2.28999C367.519 0.0791174 374.511 0.0791174 380.95 2.28999C383.893 3.34378 386.598 4.96928 388.911 7.07313C391.182 9.14407 392.984 11.6773 394.197 14.5029C395.507 17.5975 396.158 20.9317 396.108 24.2924C396.152 27.6835 395.501 31.0477 394.197 34.1776C392.988 37.0607 391.187 39.6572 388.911 41.7987C386.604 43.9335 383.899 45.5914 380.95 46.6775C374.525 48.973 367.505 48.973 361.08 46.6775C358.125 45.6038 355.418 43.9444 353.119 41.7987C350.858 39.651 349.069 37.0556 347.864 34.1776C346.56 31.0477 345.91 27.6835 345.954 24.2924ZM362.067 24.2924C362.05 25.6816 362.277 27.063 362.736 28.3741C363.142 29.5455 363.769 30.628 364.583 31.5628C365.361 32.4562 366.33 33.1643 367.417 33.6355C368.54 34.1317 369.756 34.3817 370.983 34.3689C372.201 34.3836 373.407 34.1334 374.518 33.6355C375.594 33.1463 376.559 32.4408 377.352 31.5628C378.176 30.6297 378.813 29.5473 379.231 28.3741C379.69 27.063 379.916 25.6816 379.899 24.2924C379.915 22.9346 379.688 21.5848 379.231 20.3065C378.833 19.1816 378.201 18.1538 377.378 17.2909C376.555 16.428 375.558 15.7495 374.454 15.3001C373.336 14.8278 372.133 14.5891 370.919 14.5986C369.696 14.591 368.483 14.8295 367.353 15.3001C366.28 15.7382 365.314 16.4015 364.519 17.2453C363.697 18.1255 363.068 19.1683 362.672 20.3065C362.236 21.5887 362.031 22.9384 362.067 24.2924Z" fill="#4D4D4D"/>
<path d="M410.094 47.1239V1.97109H426.907C430.342 1.95741 433.769 2.31017 437.129 3.02338C440.207 3.65268 443.13 4.88835 445.727 6.65856C448.243 8.42087 450.288 10.7752 451.682 13.5144C453.276 16.8764 454.041 20.5728 453.911 24.2924C453.997 27.8337 453.267 31.3472 451.777 34.5602C450.441 37.3328 448.491 39.7644 446.077 41.6712C443.625 43.5529 440.836 44.949 437.862 45.7847C434.713 46.6831 431.455 47.1339 428.181 47.1239H410.094ZM424.678 14.8537V33.9862H427.48C430.405 34.1799 433.307 33.3578 435.696 31.6584C437.607 30.0641 438.562 27.5928 438.562 24.0692C438.63 22.7866 438.407 21.5053 437.911 20.321C437.414 19.1366 436.657 18.0798 435.696 17.2293C433.528 15.5159 430.812 14.6491 428.054 14.7899L424.678 14.8537Z" fill="#4D4D4D"/>
<path d="M201.973 93.2833L186.449 89.2655L186.656 88.2132L202.18 92.231L201.973 93.2833ZM208.724 84.0837L202.706 76.6858L203.549 76.048L209.472 83.5576L208.724 84.0837ZM220.236 78.3758L215.921 66.1788L216.972 65.7643L221.302 78.0251L220.236 78.3758ZM232.273 77.9454L236.603 65.6846L237.67 66.0991L233.339 78.3758L232.273 77.9454ZM244.214 83.446L250.026 76.048L250.869 76.6858L244.851 84.0837L244.214 83.446ZM251.458 92.2948L266.982 88.2769L267.189 89.3292L251.602 93.2833L251.458 92.2948Z" fill="#4D4D4D"/>
<path d="M264.164 106.309H252.445V107.377H264.164V106.309Z" fill="#4D4D4D"/>
<path d="M340.654 106.309H275.629V107.377H340.654V106.309Z" fill="#4D4D4D"/>
<path d="M178.344 106.309H113.318V107.377H178.344V106.309Z" fill="#4D4D4D"/>
<path d="M201.099 106.404H189.381V107.473H201.099V106.404Z" fill="#4D4D4D"/>
<path d="M250.758 123.13L266.282 127.148L266.059 128.2L250.535 124.182L250.758 123.13Z" fill="#4D4D4D"/>
<path d="M243.992 132.329L250.011 139.727L249.167 140.365L243.26 132.855L243.992 132.329Z" fill="#4D4D4D"/>
<path d="M232.481 138.039L236.811 150.316L235.76 150.73L231.43 138.47L232.481 138.039Z" fill="#4D4D4D"/>
<path d="M220.446 138.47L216.115 150.73L215.064 150.316L219.395 138.039L220.446 138.47Z" fill="#4D4D4D"/>
<path d="M208.521 132.967L202.709 140.365L201.865 139.727L207.884 132.329L208.521 132.967Z" fill="#4D4D4D"/>
<path d="M201.323 124.182L185.799 128.2L185.592 127.148L201.116 123.13L201.323 124.182Z" fill="#4D4D4D"/>
<path d="M239.82 102.562C239.187 101.866 238.445 101.279 237.623 100.824V97.635C237.639 94.4968 236.421 91.4784 234.232 89.2326C233.153 88.1377 231.87 87.267 230.454 86.6705C229.039 86.074 227.52 85.7635 225.984 85.7568C222.856 85.7863 219.868 87.0567 217.674 89.2893C215.48 91.522 214.26 94.5347 214.281 97.6669V100.856C213.459 101.311 212.717 101.898 212.084 102.593C204.044 111.203 218.453 124.086 225.984 128.104C233.436 124.102 247.877 111.219 239.82 102.562ZM225.936 103.534C223.628 101.748 219.886 99.5004 216.24 100.17V97.619C216.229 96.3294 216.473 95.0505 216.958 93.8556C217.443 92.6608 218.158 91.5736 219.064 90.6565C219.969 89.7394 221.047 89.0105 222.234 88.5117C223.422 88.0129 224.696 87.754 225.984 87.7498C227.262 87.7434 228.528 87.9974 229.705 88.4962C230.882 88.9951 231.945 89.7284 232.831 90.6516C233.74 91.5681 234.46 92.6554 234.949 93.851C235.438 95.0466 235.687 96.327 235.681 97.619V100.17C231.987 99.5482 228.229 101.796 225.984 103.534H225.936ZM223.086 113.69C223.083 113.184 223.215 112.687 223.467 112.248C223.719 111.81 224.083 111.447 224.522 111.196C224.961 110.945 225.458 110.815 225.963 110.82C226.468 110.824 226.963 110.964 227.397 111.223C227.831 111.482 228.188 111.852 228.432 112.295C228.676 112.738 228.798 113.239 228.785 113.744C228.773 114.25 228.626 114.743 228.361 115.174C228.095 115.604 227.72 115.956 227.274 116.194V120.227H224.678V116.225C224.226 115.983 223.848 115.622 223.584 115.181C223.321 114.74 223.182 114.236 223.182 113.722" fill="#4D4D4D"/>
<path d="M173.027 187.607H163.792C163.543 187.607 163.304 187.508 163.128 187.332C162.952 187.155 162.853 186.916 162.853 186.667C162.853 186.417 162.952 186.178 163.128 186.001C163.304 185.825 163.543 185.726 163.792 185.726C164.859 185.726 165.003 185.726 165.003 182.298V162.257C165.003 160.487 164.811 160.056 164.684 159.961C164.557 159.865 163.713 159.961 163.267 159.961C163.091 159.996 162.909 159.983 162.74 159.921C162.571 159.859 162.423 159.751 162.312 159.61C162.218 159.483 162.161 159.333 162.144 159.176C162.127 159.02 162.152 158.861 162.216 158.717C162.29 158.55 162.407 158.405 162.555 158.299C162.704 158.192 162.878 158.127 163.06 158.111C165.125 157.475 167.108 156.598 168.967 155.496L169.668 155.114C169.884 155.031 170.116 154.997 170.347 155.014C170.578 155.03 170.803 155.097 171.005 155.21C171.16 155.286 171.292 155.404 171.384 155.55C171.477 155.696 171.528 155.865 171.531 156.039V166.625C173.547 165.806 175.749 165.552 177.899 165.892C183.743 166.944 184.268 171.265 184.348 171.456L186.593 183.51C187.102 185.806 187.246 185.79 188.678 185.806C188.851 185.803 189.021 185.847 189.17 185.934C189.319 186.021 189.441 186.148 189.522 186.3C189.613 186.446 189.66 186.614 189.66 186.786C189.66 186.958 189.613 187.126 189.522 187.272C189.427 187.409 189.297 187.518 189.146 187.588C188.995 187.658 188.828 187.687 188.663 187.671H178.52C178.386 187.674 178.252 187.648 178.129 187.594C178.006 187.541 177.895 187.462 177.805 187.362C177.715 187.262 177.647 187.144 177.606 187.015C177.565 186.887 177.553 186.752 177.569 186.618C177.585 186.484 177.629 186.356 177.699 186.241C177.77 186.126 177.863 186.027 177.975 185.952C178.086 185.876 178.212 185.825 178.345 185.803C178.477 185.781 178.613 185.787 178.743 185.822C179.316 185.822 179.507 185.71 179.555 185.646C179.603 185.582 180.049 184.929 179.762 183.287L177.836 171.313C177.836 171.313 177.406 168.124 175.607 167.853C174.858 167.741 172.581 167.407 171.738 171.201C171.738 171.536 171.61 171.887 171.562 172.253V182.378C171.562 185.806 171.562 185.806 173.059 185.806C173.308 185.806 173.547 185.905 173.723 186.081C173.899 186.258 173.998 186.497 173.998 186.746C173.998 186.996 173.899 187.235 173.723 187.412C173.547 187.588 173.308 187.687 173.059 187.687L173.027 187.607Z" fill="#4D4D4D"/>
<path d="M205.699 188.18C203.299 188.209 200.967 187.393 199.107 185.875C197.247 184.356 195.979 182.232 195.524 179.873C195.105 178.43 194.992 176.915 195.191 175.425C195.391 173.936 195.899 172.504 196.683 171.222C197.466 169.94 198.509 168.837 199.744 167.982C200.978 167.127 202.377 166.539 203.852 166.257C210.22 164.663 215.698 167.852 217.29 174.134C217.688 175.586 217.786 177.104 217.578 178.595C217.37 180.087 216.86 181.52 216.08 182.807C214.432 185.311 211.882 187.082 208.963 187.75C207.897 188.028 206.8 188.173 205.699 188.18ZM204.743 168.218C204.542 168.194 204.339 168.194 204.138 168.218C200.667 169.095 201.83 175.25 202.546 177.785C203 180.08 203.933 182.253 205.285 184.162C205.618 184.733 206.115 185.19 206.712 185.474C207.308 185.758 207.976 185.857 208.628 185.757C212.115 184.864 210.985 178.757 210.332 176.19C209.106 171.216 206.956 168.218 204.743 168.218Z" fill="#4D4D4D"/>
<path d="M253.927 187.558C253.793 187.559 253.661 187.531 253.539 187.476C253.417 187.421 253.308 187.34 253.219 187.24C253.131 187.139 253.064 187.021 253.025 186.893C252.986 186.765 252.975 186.63 252.992 186.497C253.009 186.364 253.054 186.236 253.125 186.122C253.195 186.008 253.289 185.911 253.4 185.836C253.512 185.761 253.637 185.712 253.769 185.69C253.901 185.668 254.037 185.674 254.166 185.709C254.739 185.709 254.914 185.597 254.962 185.533C255.01 185.47 255.456 184.816 255.185 183.174L253.243 171.2C253.243 171.2 252.813 168.011 251.013 167.74C250.45 167.636 249.87 167.662 249.318 167.817C248.766 167.972 248.257 168.251 247.829 168.633C247.466 168.976 247.184 169.396 247.005 169.862C246.826 170.328 246.754 170.829 246.794 171.327V171.407L247.224 183.477C247.224 185.326 247.813 185.661 248.816 185.661C248.992 185.66 249.165 185.707 249.317 185.797C249.468 185.887 249.592 186.016 249.676 186.171C249.765 186.315 249.812 186.48 249.812 186.649C249.812 186.818 249.765 186.984 249.676 187.128C249.579 187.264 249.45 187.373 249.299 187.446C249.149 187.518 248.983 187.552 248.816 187.542H238.722C238.588 187.543 238.455 187.515 238.333 187.46C238.211 187.405 238.102 187.324 238.014 187.224C237.925 187.123 237.859 187.005 237.82 186.877C237.781 186.749 237.769 186.614 237.786 186.481C237.804 186.348 237.849 186.22 237.919 186.106C237.99 185.992 238.084 185.895 238.195 185.82C238.306 185.746 238.432 185.696 238.564 185.674C238.696 185.652 238.831 185.658 238.961 185.693C239.109 185.73 239.264 185.732 239.413 185.698C239.562 185.665 239.702 185.598 239.82 185.501C240.043 185.31 240.425 184.72 240.425 183.03L240.33 172.443C240.33 172.443 240.33 167.915 238.149 167.66C236.827 167.549 234.964 167.772 234.248 171.009C234.085 171.662 233.984 172.329 233.945 173.001V182.105C233.945 185.533 234.041 185.533 235.442 185.533C235.691 185.533 235.93 185.632 236.106 185.809C236.282 185.985 236.381 186.225 236.381 186.474C236.381 186.723 236.282 186.963 236.106 187.139C235.93 187.316 235.691 187.415 235.442 187.415H226.207C225.958 187.415 225.719 187.316 225.543 187.139C225.367 186.963 225.268 186.723 225.268 186.474C225.268 186.225 225.367 185.985 225.543 185.809C225.719 185.632 225.958 185.533 226.207 185.533C227.29 185.533 227.417 185.533 227.417 182.105V172.619C227.417 170.865 227.226 170.435 227.099 170.339C226.971 170.243 226.127 170.339 225.682 170.339C225.508 170.37 225.329 170.353 225.164 170.292C224.999 170.23 224.853 170.125 224.742 169.988C224.643 169.861 224.581 169.709 224.561 169.549C224.542 169.389 224.566 169.227 224.631 169.079C224.709 168.917 224.828 168.777 224.976 168.674C225.123 168.571 225.295 168.507 225.475 168.489C227.544 167.858 229.528 166.974 231.382 165.859L232.098 165.476C232.314 165.398 232.543 165.368 232.771 165.387C232.999 165.407 233.22 165.475 233.42 165.588C233.567 165.661 233.693 165.772 233.785 165.909C233.877 166.046 233.932 166.204 233.945 166.369C235.991 165.669 238.159 165.398 240.314 165.572C241.975 165.623 243.567 166.248 244.82 167.341C245.393 167.027 245.983 166.745 246.587 166.496C248.721 165.592 251.058 165.278 253.354 165.588C254.417 165.681 255.447 165.999 256.378 166.522C257.308 167.044 258.117 167.758 258.752 168.617C259.283 169.372 259.652 170.23 259.834 171.136L262.079 183.206C262.605 185.757 262.732 185.757 264.197 185.757C264.371 185.753 264.543 185.799 264.692 185.889C264.842 185.98 264.963 186.111 265.041 186.267C265.129 186.41 265.177 186.576 265.177 186.745C265.177 186.914 265.129 187.08 265.041 187.223C264.944 187.36 264.814 187.469 264.664 187.542C264.514 187.614 264.348 187.647 264.181 187.638H254.039L253.927 187.558Z" fill="#4D4D4D"/>
<path d="M280.807 187.956C278.681 187.972 276.608 187.295 274.9 186.026C273.212 184.643 271.952 182.806 271.268 180.732C270.584 178.657 270.505 176.43 271.039 174.312C271.574 172.194 272.701 170.272 274.287 168.772C275.873 167.272 277.853 166.255 279.995 165.842C281.223 165.649 282.478 165.716 283.679 166.037C284.88 166.359 286 166.927 286.969 167.707C287.803 168.467 288.457 169.404 288.883 170.45C289.31 171.495 289.499 172.622 289.437 173.75C289.445 173.829 289.445 173.909 289.437 173.989V174.084C289.341 174.263 289.182 174.4 288.991 174.467L277.846 178.07C278.753 182.439 280.807 184.241 284.31 183.762C286.603 183.459 288.338 181.929 289.946 178.836C290.037 178.672 290.184 178.547 290.359 178.483C290.534 178.419 290.727 178.419 290.902 178.485L291.379 178.676C291.476 178.713 291.564 178.769 291.638 178.841C291.712 178.913 291.771 179 291.81 179.096C291.848 179.192 291.867 179.294 291.864 179.398C291.862 179.501 291.837 179.603 291.793 179.697C289.612 184.48 286.571 187.142 282.511 187.78C281.948 187.879 281.379 187.938 280.807 187.956ZM280.393 167.787H279.932C279.699 167.824 279.477 167.911 279.279 168.04C279.082 168.169 278.913 168.338 278.785 168.536C277.734 169.891 277.193 172.889 277.527 176.03L283.323 174.164C283.323 172.809 283.323 169.7 281.985 168.361C281.773 168.161 281.522 168.008 281.249 167.909C280.975 167.81 280.684 167.769 280.393 167.787Z" fill="#4D4D4D"/>
</g>
<defs>
<clipPath id="clip0_5353_607">
<rect width="454.3" height="188.176" fill="white" transform="translate(0 0.433594)"/>
</clipPath>
</defs>
</svg>
