<svg width="455" height="197" viewBox="0 0 455 197" fill="none" xmlns="http://www.w3.org/2000/svg">
<g clip-path="url(#clip0_5353_632)">
<path d="M0.625 1.92969H15.8836V33.9531H30.8243V47.0044H0.625V1.92969Z" fill="#4D4D4D"/>
<path d="M39.2159 24.2115C39.1844 20.8519 39.8558 17.5229 41.1868 14.4389C42.3918 11.623 44.1795 9.09505 46.432 7.02195C48.734 4.91211 51.4368 3.2882 54.3792 2.24708C60.8075 0.0400347 67.7869 0.0400347 74.2153 2.24708C77.1544 3.29523 79.8559 4.91834 82.1625 7.02195C84.372 9.10498 86.1162 11.6327 87.2805 14.4389C88.5897 17.5276 89.2394 20.8564 89.1878 24.2115C89.2296 27.5965 88.5806 30.9545 87.2805 34.0795C86.069 36.9554 84.2718 39.5465 82.0036 41.6875C79.7035 43.8229 77.0019 45.4785 74.0564 46.5578C67.6423 48.8493 60.6343 48.8493 54.2202 46.5578C51.2711 45.4859 48.5681 43.8294 46.273 41.6875C44.077 39.5255 42.3461 36.9364 41.1868 34.0795C39.8649 30.9591 39.1942 27.601 39.2159 24.2115ZM55.301 24.2115C55.2858 25.5981 55.5117 26.9769 55.9686 28.286C56.3805 29.4525 57.0057 30.532 57.8123 31.4693C58.5942 32.3565 59.5596 33.0625 60.6415 33.5384C61.765 34.0264 62.9773 34.2757 64.2019 34.2705C65.3999 34.2851 66.5871 34.0426 67.6838 33.5595C68.7804 33.0763 69.761 32.3636 70.5596 31.4693C71.3859 30.5406 72.023 29.4593 72.4352 28.286C72.892 26.9769 73.1179 25.5981 73.1027 24.2115C73.118 22.8559 72.8919 21.5085 72.4352 20.2324C72.0351 19.0913 71.3956 18.0493 70.5596 17.1765C69.7342 16.3274 68.7449 15.6554 67.6519 15.2012C66.559 14.7469 65.3851 14.5201 64.2019 14.5344C62.9795 14.5187 61.7672 14.7572 60.6415 15.2347C59.5728 15.6759 58.6088 16.3375 57.8123 17.1765C56.9972 18.0594 56.3699 19.0991 55.9686 20.2324C55.5118 21.5085 55.2858 22.8559 55.301 24.2115Z" fill="#4D4D4D"/>
<path d="M101.202 24.4679C101.153 21.1028 101.803 17.7643 103.109 14.6635C104.315 11.8283 106.089 9.27136 108.322 7.15103C110.571 5.05064 113.22 3.42656 116.111 2.37616C119.161 1.24021 122.393 0.668564 125.647 0.689044C129.006 0.667884 132.341 1.23897 135.502 2.37616C138.365 3.35926 141.003 4.9071 143.258 6.9282L133.976 18.0696C133.147 16.9739 132.053 16.1083 130.797 15.5548C129.455 14.9668 128.002 14.6737 126.537 14.6953C125.319 14.6847 124.109 14.9118 122.977 15.3638C121.886 15.7984 120.9 16.4603 120.084 17.3056C119.232 18.1894 118.571 19.2408 118.145 20.3933C117.664 21.6859 117.427 23.0567 117.446 24.436C117.421 25.798 117.67 27.151 118.177 28.4151C118.642 29.5361 119.31 30.5614 120.148 31.4392C120.973 32.3002 121.969 32.978 123.072 33.4287C124.184 33.8761 125.371 34.1032 126.569 34.0972C128.132 34.1362 129.678 33.7629 131.051 33.0149C132.202 32.379 133.208 31.512 134.008 30.4683L143.29 41.6096C141.143 43.7226 138.591 45.3792 135.788 46.48C129.451 48.8671 122.47 48.901 116.111 46.5755C113.217 45.4869 110.569 43.8312 108.322 41.7051C106.117 39.5684 104.366 37.0078 103.173 34.1768C101.848 31.1132 101.176 27.8063 101.202 24.4679Z" fill="#4D4D4D"/>
<path d="M169.929 29.0509H169.802V47.0044H155.115V1.92969H169.738V18.5462H169.929L181.945 1.92969H199.747L182.835 22.6208L200.573 47.0681H181.945L169.929 29.0509Z" fill="#4D4D4D"/>
<path d="M237.765 47.0044H222.507L210.236 1.92969H226.258L231.026 27.2683H231.281L236.494 1.92969H252.388L258.047 27.2683H258.301L263.196 1.92969H278.709L266.185 47.0044H250.99L244.632 21.5385H244.377L237.765 47.0044Z" fill="#4D4D4D"/>
<path d="M287.741 24.2115C287.69 20.8564 288.339 17.5276 289.648 14.4389C290.853 11.623 292.641 9.09505 294.894 7.02195C297.196 4.91211 299.898 3.2882 302.841 2.24708C309.269 0.0400347 316.249 0.0400347 322.677 2.24708C325.616 3.29523 328.318 4.91834 330.624 7.02195C332.891 9.0893 334.69 11.6182 335.901 14.4389C337.21 17.5276 337.86 20.8564 337.808 24.2115C337.85 27.5965 337.201 30.9545 335.901 34.0795C334.69 36.9554 332.892 39.5465 330.624 41.6875C328.324 43.8229 325.623 45.4785 322.677 46.5578C316.263 48.8493 309.255 48.8493 302.841 46.5578C299.892 45.4859 297.189 43.8294 294.894 41.6875C292.64 39.5405 290.855 36.9503 289.648 34.0795C288.348 30.9545 287.699 27.5965 287.741 24.2115ZM303.826 24.2115C303.811 25.5981 304.037 26.9769 304.494 28.286C304.906 29.4525 305.531 30.532 306.338 31.4693C307.119 32.3565 308.085 33.0625 309.167 33.5384C310.29 34.0264 311.503 34.2757 312.727 34.2705C313.925 34.2851 315.112 34.0426 316.209 33.5595C317.306 33.0763 318.286 32.3636 319.085 31.4693C319.911 30.5406 320.548 29.4593 320.96 28.286C321.417 26.9769 321.643 25.5981 321.628 24.2115C321.643 22.8559 321.417 21.5085 320.96 20.2324C320.56 19.0913 319.921 18.0493 319.085 17.1765C318.259 16.3274 317.27 15.6554 316.177 15.2012C315.084 14.7469 313.91 14.5201 312.727 14.5344C311.505 14.5187 310.292 14.7572 309.167 15.2347C308.098 15.6759 307.134 16.3375 306.338 17.1765C305.522 18.0594 304.895 19.0991 304.494 20.2324C304.037 21.5085 303.811 22.8559 303.826 24.2115Z" fill="#4D4D4D"/>
<path d="M345.915 24.2115C345.863 20.8564 346.513 17.5276 347.822 14.4389C349.027 11.623 350.815 9.09505 353.068 7.02195C355.37 4.91211 358.072 3.2882 361.015 2.24708C367.443 0.0400347 374.423 0.0400347 380.851 2.24708C383.79 3.29523 386.491 4.91834 388.798 7.02195C391.053 9.09246 392.842 11.6211 394.043 14.4389C395.352 17.5276 396.002 20.8564 395.951 24.2115C395.992 27.5965 395.343 30.9545 394.043 34.0795C392.832 36.9554 391.034 39.5465 388.766 41.6875C386.466 43.8229 383.765 45.4785 380.819 46.5578C374.405 48.8493 367.397 48.8493 360.983 46.5578C358.034 45.4859 355.331 43.8294 353.036 41.6875C350.783 39.5405 348.997 36.9503 347.791 34.0795C346.501 30.9522 345.863 27.5943 345.915 24.2115ZM362 24.2115C361.985 25.5981 362.211 26.9769 362.668 28.286C363.08 29.4525 363.705 30.532 364.511 31.4693C365.293 32.3565 366.259 33.0625 367.341 33.5384C368.464 34.0264 369.676 34.2757 370.901 34.2705C372.099 34.2851 373.286 34.0426 374.383 33.5595C375.48 33.0763 376.46 32.3636 377.259 31.4693C378.085 30.5406 378.722 29.4593 379.134 28.286C379.591 26.9769 379.817 25.5981 379.802 24.2115C379.817 22.8559 379.591 21.5085 379.134 20.2324C378.734 19.0913 378.095 18.0493 377.259 17.1765C376.433 16.3274 375.444 15.6554 374.351 15.2012C373.258 14.7469 372.084 14.5201 370.901 14.5344C369.679 14.5187 368.466 14.7572 367.341 15.2347C366.272 15.6759 365.308 16.3375 364.511 17.1765C363.696 18.0594 363.069 19.0991 362.668 20.2324C362.211 21.5085 361.985 22.8559 362 24.2115Z" fill="#4D4D4D"/>
<path d="M409.938 47.0048V1.93007H426.722C430.151 1.91642 433.572 2.26857 436.926 2.98054C439.999 3.60875 442.917 4.84228 445.509 6.60944C448.025 8.36378 450.067 10.7152 451.454 13.4534C453.047 16.809 453.81 20.4994 453.679 24.2128C453.763 27.7478 453.034 31.2548 451.549 34.4628C450.22 37.2339 448.273 39.6625 445.859 41.5615C443.412 43.443 440.628 44.837 437.657 45.6678C434.515 46.566 431.261 47.016 427.993 47.0048H409.938ZM424.497 14.7904V33.8898H427.294C430.214 34.0832 433.11 33.2625 435.496 31.5661C437.403 29.9744 438.357 27.5074 438.357 23.9899C438.425 22.7094 438.203 21.43 437.708 20.2475C437.212 19.065 436.456 18.0102 435.496 17.1619C433.331 15.4515 430.62 14.5861 427.866 14.7267L424.497 14.7904Z" fill="#4D4D4D"/>
<path d="M202.177 93.1457L186.68 89.1348L186.886 88.0684L202.383 92.0952L202.177 93.1457ZM208.932 83.962L202.924 76.5769L203.766 75.9403L209.663 83.4368L208.932 83.962ZM220.423 78.264L216.1 66.0086L217.149 65.5947L221.472 77.8343L220.423 78.264ZM232.44 77.8343L236.763 65.5947L237.812 66.0086L233.505 78.264L232.44 77.8343ZM244.345 83.3254L250.146 75.9403L250.988 76.5769L244.98 83.962L244.345 83.3254ZM251.513 92.0952L267.01 88.0684L267.232 89.1348L251.735 93.1457L251.513 92.0952Z" fill="#4D4D4D"/>
<path d="M264.265 106.087H252.566V107.153H264.265V106.087Z" fill="#4D4D4D"/>
<path d="M340.624 106.087H275.711V107.153H340.624V106.087Z" fill="#4D4D4D"/>
<path d="M178.59 106.087H113.678V107.153H178.59V106.087Z" fill="#4D4D4D"/>
<path d="M201.306 106.18H189.607V107.246H201.306V106.18Z" fill="#4D4D4D"/>
<path d="M250.877 122.876L266.374 126.887L266.151 127.937L250.654 123.926L250.877 122.876Z" fill="#4D4D4D"/>
<path d="M244.126 132.06L250.134 139.445L249.291 140.081L243.395 132.585L244.126 132.06Z" fill="#4D4D4D"/>
<path d="M232.631 137.756L236.954 149.995L235.905 150.425L231.582 138.186L232.631 137.756Z" fill="#4D4D4D"/>
<path d="M220.618 138.186L216.295 150.425L215.246 149.995L219.569 137.756L220.618 138.186Z" fill="#4D4D4D"/>
<path d="M208.712 132.696L202.911 140.081L202.068 139.445L208.076 132.06L208.712 132.696Z" fill="#4D4D4D"/>
<path d="M201.544 123.926L186.047 127.937L185.824 126.887L201.321 122.876L201.544 123.926Z" fill="#4D4D4D"/>
<path d="M239.974 102.343C239.343 101.649 238.602 101.063 237.781 100.608V97.4248C237.793 94.2897 236.571 91.2762 234.38 89.0369C233.299 87.9375 232.009 87.0656 230.587 86.4725C229.165 85.8794 227.639 85.577 226.099 85.5831C222.98 85.6125 220.001 86.879 217.814 89.1048C215.627 91.3306 214.411 94.3341 214.432 97.4566V100.64C213.604 101.09 212.857 101.677 212.223 102.375C204.196 110.969 218.58 123.83 226.099 127.841C233.585 123.846 248.001 110.985 239.974 102.343ZM226.099 103.298C223.81 101.531 220.059 99.287 216.419 99.9555V97.4089C216.398 94.8155 217.405 92.3197 219.22 90.4695C221.035 88.6194 223.509 87.566 226.099 87.5408C227.373 87.5417 228.635 87.7986 229.809 88.2961C230.983 88.7936 232.045 89.5218 232.933 90.4376C234.765 92.2933 235.787 94.7998 235.778 97.4089V99.9555C232.138 99.3347 228.387 101.579 226.099 103.298ZM223.253 113.452C223.253 112.697 223.553 111.972 224.087 111.438C224.62 110.904 225.344 110.603 226.099 110.603C226.853 110.603 227.577 110.904 228.11 111.438C228.644 111.972 228.944 112.697 228.944 113.452C228.944 113.967 228.803 114.473 228.537 114.913C228.271 115.354 227.889 115.713 227.434 115.951V119.946H224.859V115.983C224.407 115.741 224.03 115.381 223.767 114.941C223.503 114.501 223.365 113.997 223.365 113.484" fill="#4D4D4D"/>
<path d="M176.463 187.098H175.51C174.025 187.052 172.544 186.92 171.075 186.7H170.885C170.305 186.614 169.716 186.614 169.136 186.7C169.048 186.828 168.919 186.923 168.771 186.97C168.636 187.024 168.491 187.045 168.348 187.031C168.204 187.017 168.066 186.969 167.944 186.891C167.844 186.818 167.764 186.722 167.708 186.611C167.653 186.5 167.625 186.378 167.626 186.254C167.506 184.71 167.294 183.174 166.99 181.654C166.99 181.336 166.895 181.097 166.863 180.97V180.874C166.863 180.767 166.885 180.661 166.927 180.562C166.969 180.464 167.03 180.374 167.107 180.3C167.184 180.226 167.276 180.168 167.376 180.13C167.476 180.092 167.583 180.074 167.69 180.079C167.832 180.075 167.972 180.109 168.097 180.176C168.223 180.243 168.329 180.341 168.405 180.461C170.139 182.794 172.677 184.399 175.526 184.965C176.052 185.046 176.583 185.088 177.115 185.092C179.897 185.092 181.613 184.153 181.613 182.641C181.613 181.129 179.563 180.317 176.67 179.458L174.795 178.869C172.061 178.01 167.022 176.402 167.022 171.977C167.022 168.555 170.201 165.101 177.211 165.101C178.456 165.102 179.7 165.204 180.93 165.404H181.057C181.637 165.481 182.225 165.481 182.805 165.404C182.897 165.279 183.024 165.184 183.171 165.133C183.307 165.076 183.455 165.053 183.602 165.066C183.749 165.08 183.891 165.131 184.013 165.213C184.11 165.289 184.189 165.385 184.244 165.495C184.299 165.605 184.329 165.726 184.331 165.85C184.451 167.399 184.663 168.941 184.967 170.465C184.967 170.768 185.062 171.006 185.078 171.134C185.087 171.17 185.087 171.209 185.078 171.245C185.076 171.351 185.053 171.455 185.01 171.552C184.967 171.649 184.906 171.736 184.829 171.809C184.752 171.882 184.661 171.938 184.562 171.975C184.463 172.012 184.357 172.029 184.252 172.025C184.114 172.027 183.978 171.995 183.856 171.931C183.733 171.867 183.629 171.774 183.552 171.659C182.583 170.242 179.483 167.123 176.479 167.123C174.111 167.123 172.522 168.014 172.522 169.319C172.522 170.911 174.985 171.675 177.29 172.503L179.483 173.155C182.122 174.03 187.033 175.638 187.033 180.142C187.192 184.901 181.804 187.082 176.463 187.098ZM167.038 181.097C167.029 181.15 167.029 181.204 167.038 181.256C167.032 181.204 167.032 181.15 167.038 181.097ZM184.903 170.768V170.879C184.906 170.842 184.906 170.805 184.903 170.768Z" fill="#4D4D4D"/>
<path d="M202.86 187.465C198.982 187.465 196.852 185.349 196.852 181.513V167.125H195.66C195.581 167.14 195.5 167.14 195.422 167.125C195.224 167.057 195.052 166.928 194.932 166.756C194.812 166.585 194.75 166.379 194.754 166.17C194.753 165.989 194.799 165.812 194.888 165.655C194.977 165.498 195.107 165.368 195.263 165.278L202.431 160.09C202.56 159.995 202.716 159.945 202.876 159.946H202.987C203.186 159.946 203.376 160.025 203.516 160.165C203.656 160.306 203.734 160.496 203.734 160.694V165.167H208.201C208.301 165.15 208.403 165.15 208.503 165.167C208.687 165.249 208.843 165.384 208.953 165.553C209.063 165.722 209.122 165.92 209.123 166.122C209.12 166.313 209.067 166.501 208.969 166.665C208.872 166.83 208.733 166.967 208.566 167.061C208.446 167.085 208.321 167.085 208.201 167.061H203.734V181.592C203.734 183.47 204.243 184.203 205.531 184.203C206.445 184.148 207.33 183.864 208.105 183.375C208.276 183.283 208.475 183.258 208.663 183.305C208.851 183.352 209.015 183.468 209.123 183.63L209.409 184.059C209.516 184.226 209.556 184.427 209.521 184.622C209.486 184.818 209.377 184.992 209.218 185.11C207.418 186.578 205.181 187.406 202.86 187.465Z" fill="#4D4D4D"/>
<path d="M219.329 196.709C218.516 196.664 217.708 196.552 216.914 196.375C216.815 196.357 216.721 196.318 216.639 196.26C216.556 196.202 216.488 196.128 216.437 196.041C216.327 195.859 216.293 195.642 216.341 195.436L217.374 191.441C217.414 191.277 217.508 191.131 217.64 191.027C217.773 190.923 217.937 190.867 218.106 190.868H218.233C218.341 190.868 218.448 190.89 218.546 190.934C218.645 190.978 218.733 191.042 218.805 191.123C219.253 191.624 219.802 192.025 220.415 192.3C221.029 192.574 221.693 192.715 222.365 192.714C223.318 192.75 224.247 192.413 224.956 191.775L225.067 191.664C225.53 191.128 225.93 190.54 226.259 189.913L227.69 186.587C226.348 186.503 225.061 186.022 223.992 185.206C222.923 184.391 222.119 183.276 221.682 182.003L218.312 171.307C218.28 171.263 218.253 171.215 218.233 171.164C217.009 167.503 217.009 167.503 215.578 167.503C215.33 167.503 215.091 167.404 214.915 167.228C214.739 167.052 214.641 166.813 214.641 166.564C214.641 166.315 214.739 166.076 214.915 165.9C215.091 165.724 215.33 165.625 215.578 165.625H225.719C225.968 165.625 226.206 165.724 226.382 165.9C226.558 166.076 226.657 166.315 226.657 166.564C226.657 166.813 226.558 167.052 226.382 167.228C226.206 167.404 225.968 167.503 225.719 167.503C225.194 167.503 224.861 167.503 224.749 167.71C224.638 167.917 224.495 168.235 224.845 169.636L228.214 181.302C228.394 182.005 228.689 182.672 229.089 183.276L231.282 178.231C231.31 178.167 231.347 178.108 231.393 178.056L233.523 173.281C233.92 172.262 235.113 169.079 234.461 168.076C234.207 167.71 233.603 167.535 232.601 167.551C232.467 167.568 232.33 167.557 232.2 167.517C232.071 167.478 231.951 167.411 231.849 167.321C231.747 167.232 231.666 167.121 231.61 166.998C231.554 166.874 231.525 166.74 231.525 166.604C231.525 166.468 231.554 166.334 231.61 166.21C231.666 166.086 231.747 165.976 231.849 165.886C231.951 165.797 232.071 165.73 232.2 165.69C232.33 165.651 232.467 165.639 232.601 165.657H240.548C240.681 165.639 240.815 165.651 240.943 165.689C241.071 165.728 241.189 165.794 241.289 165.882C241.389 165.97 241.469 166.079 241.525 166.201C241.58 166.322 241.608 166.454 241.608 166.588C241.608 166.722 241.58 166.854 241.525 166.975C241.469 167.097 241.389 167.206 241.289 167.294C241.189 167.382 241.071 167.448 240.943 167.486C240.815 167.525 240.681 167.536 240.548 167.519C240.04 167.519 238.133 167.997 235.542 174.188L233.507 178.995L228.469 190.645C228.027 191.724 227.421 192.728 226.673 193.622C225.697 194.786 224.422 195.661 222.985 196.152C222.375 196.35 221.747 196.488 221.11 196.566C220.582 196.631 220.051 196.663 219.52 196.662L219.329 196.709Z" fill="#4D4D4D"/>
<path d="M258.448 186.987H249.229C249.097 187.004 248.962 186.993 248.835 186.954C248.707 186.915 248.589 186.85 248.489 186.762C248.388 186.674 248.308 186.565 248.253 186.443C248.198 186.322 248.17 186.189 248.17 186.056C248.17 185.922 248.198 185.79 248.253 185.668C248.308 185.547 248.388 185.438 248.489 185.35C248.589 185.262 248.707 185.196 248.835 185.157C248.962 185.119 249.097 185.107 249.229 185.125C250.294 185.125 250.437 185.125 250.437 181.703V161.68C250.437 159.929 250.246 159.5 250.119 159.404C249.992 159.309 249.15 159.404 248.705 159.404C248.527 159.436 248.345 159.419 248.177 159.354C248.009 159.29 247.861 159.181 247.751 159.038C247.658 158.911 247.6 158.762 247.583 158.605C247.566 158.449 247.591 158.291 247.656 158.147C247.727 157.979 247.844 157.836 247.992 157.731C248.141 157.627 248.317 157.567 248.498 157.558C250.562 156.924 252.542 156.042 254.395 154.932L255.094 154.55C255.311 154.47 255.543 154.438 255.774 154.458C256.005 154.477 256.228 154.546 256.429 154.661C256.584 154.737 256.715 154.855 256.808 155.001C256.9 155.147 256.951 155.316 256.954 155.489V181.639C256.954 185.061 257.033 185.061 258.448 185.061C258.62 185.057 258.791 185.099 258.942 185.183C259.093 185.267 259.218 185.39 259.306 185.539C259.384 185.677 259.425 185.833 259.425 185.992C259.425 186.151 259.384 186.307 259.306 186.446C259.227 186.607 259.105 186.742 258.953 186.838C258.802 186.933 258.627 186.985 258.448 186.987Z" fill="#4D4D4D"/>
<path d="M276.426 187.352C274.31 187.373 272.245 186.703 270.545 185.442C268.86 184.061 267.602 182.227 266.919 180.156C266.237 178.085 266.157 175.862 266.691 173.747C267.225 171.633 268.349 169.715 269.933 168.217C271.516 166.719 273.493 165.705 275.631 165.292C276.855 165.091 278.107 165.154 279.304 165.475C280.502 165.796 281.618 166.368 282.577 167.154C283.413 167.908 284.069 168.839 284.498 169.881C284.927 170.922 285.118 172.046 285.057 173.17C285.072 173.249 285.072 173.33 285.057 173.409C285.064 173.446 285.064 173.484 285.057 173.52C284.961 173.699 284.803 173.835 284.612 173.902L273.486 177.484C274.376 181.845 276.426 183.659 279.939 183.182C282.228 182.863 283.96 181.351 285.565 178.263C285.651 178.095 285.796 177.965 285.972 177.897C286.148 177.829 286.343 177.83 286.519 177.897L286.996 178.088C287.189 178.171 287.343 178.325 287.425 178.518C287.497 178.713 287.497 178.928 287.425 179.123C285.232 183.898 282.212 186.556 278.159 187.177C277.586 187.276 277.007 187.335 276.426 187.352ZM276.029 167.218H275.568C275.334 167.258 275.111 167.345 274.912 167.473C274.712 167.602 274.541 167.769 274.408 167.966C273.359 169.334 272.818 172.327 273.152 175.462L278.953 173.584C278.953 172.247 278.953 169.128 277.618 167.791C277.187 167.403 276.623 167.198 276.045 167.218H276.029Z" fill="#4D4D4D"/>
</g>
<defs>
<clipPath id="clip0_5353_632">
<rect width="454.3" height="196.497" fill="white" transform="translate(0 0.433594)"/>
</clipPath>
</defs>
</svg>
