<svg width="846" height="993" viewBox="0 0 846 993" fill="none" xmlns="http://www.w3.org/2000/svg">
<path opacity="0.8" d="M151.333 746.119V729.319H156.685C160.381 729.319 162.421 731.431 162.421 734.311C162.421 737.359 160.213 739.399 156.541 739.399H153.253V746.119H151.333ZM156.349 730.951H153.253V737.767H156.349C159.109 737.767 160.525 736.399 160.525 734.383C160.525 732.295 159.133 730.951 156.349 730.951ZM170.603 736.543C168.971 736.543 167.531 737.503 166.979 739.063V746.119H165.155V734.983H166.931V737.095C167.771 735.487 169.211 734.743 170.843 734.743C171.299 734.743 171.731 734.815 172.115 734.935V736.807C171.659 736.639 171.155 736.543 170.603 736.543ZM175.489 732.103C174.793 732.103 174.241 731.551 174.241 730.879C174.241 730.183 174.793 729.655 175.489 729.655C176.161 729.655 176.713 730.183 176.713 730.879C176.713 731.551 176.161 732.103 175.489 732.103ZM174.577 746.119V734.983H176.401V746.119H174.577ZM185.24 736.327C183.8 736.327 182.72 737.095 182.096 738.151V746.119H180.272V734.983H182.048V736.615C182.84 735.439 184.184 734.743 185.744 734.743C187.568 734.743 188.792 735.607 189.416 736.951C190.184 735.679 191.6 734.743 193.376 734.743C196.184 734.743 197.6 736.591 197.6 739.135V746.119H195.8V739.375C195.8 737.623 194.864 736.327 192.992 736.327C191.552 736.327 190.4 737.119 189.776 738.271C189.824 738.535 189.848 738.823 189.848 739.135V746.119H188.024V739.375C188.024 737.623 187.088 736.327 185.24 736.327ZM210.268 746.239C208.756 746.239 207.988 745.471 207.988 744.151C207.028 745.519 205.372 746.311 203.788 746.311C201.628 746.311 200.476 745.111 200.476 743.383C200.476 741.775 201.436 740.671 204.124 739.951L207.964 738.943C207.868 737.047 207.004 736.327 205.228 736.303C203.884 736.303 202.66 736.807 201.556 737.623V735.871C202.636 735.175 203.908 734.743 205.444 734.743C208.396 734.743 209.764 736.207 209.764 739.063V743.959C209.764 744.559 210.1 744.847 210.724 744.847C211.012 744.847 211.228 744.823 211.516 744.703V745.999C211.18 746.167 210.724 746.239 210.268 746.239ZM202.276 743.311C202.276 744.175 202.924 744.847 204.268 744.847C205.828 744.847 207.292 743.791 207.964 742.639V740.311L204.484 741.247C202.756 741.727 202.276 742.399 202.276 743.311ZM219.564 736.543C217.932 736.543 216.492 737.503 215.94 739.063V746.119H214.116V734.983H215.892V737.095C216.732 735.487 218.172 734.743 219.804 734.743C220.26 734.743 220.692 734.815 221.076 734.935V736.807C220.62 736.639 220.116 736.543 219.564 736.543ZM227.828 747.559C226.772 750.151 225.116 751.303 223.244 751.303C222.5 751.303 221.972 751.183 221.516 750.991V749.359C221.948 749.551 222.548 749.719 223.172 749.719C224.252 749.719 225.5 749.119 226.388 746.863L226.604 746.287L222.14 734.983H224.06L227.564 744.079L231.092 734.983H232.964L227.828 747.559ZM236.026 746.239C235.354 746.239 234.778 745.687 234.778 744.991C234.778 744.295 235.354 743.767 236.026 743.767C236.722 743.767 237.274 744.295 237.274 744.991C237.274 745.687 236.722 746.239 236.026 746.239ZM236.026 738.415C235.354 738.415 234.778 737.863 234.778 737.167C234.778 736.471 235.354 735.943 236.026 735.943C236.722 735.943 237.274 736.471 237.274 737.167C237.274 737.863 236.722 738.415 236.026 738.415ZM246.208 746.119V729.319H251.56C255.256 729.319 257.296 731.431 257.296 734.311C257.296 737.359 255.088 739.399 251.416 739.399H248.128V746.119H246.208ZM251.224 730.951H248.128V737.767H251.224C253.984 737.767 255.4 736.399 255.4 734.383C255.4 732.295 254.008 730.951 251.224 730.951ZM268.898 744.991C267.962 745.759 266.378 746.359 264.578 746.359C261.17 746.359 258.722 743.959 258.722 740.551C258.722 737.143 261.29 734.743 264.122 734.743C267.194 734.743 269.186 737.023 269.186 740.431V740.743H260.498C260.642 743.167 262.226 744.847 264.746 744.847C266.234 744.847 267.89 744.271 268.898 743.335V744.991ZM264.098 736.255C262.394 736.255 261.002 737.479 260.618 739.327H267.362C267.098 737.479 265.874 736.255 264.098 736.255ZM277.689 736.543C276.057 736.543 274.617 737.503 274.065 739.063V746.119H272.241V734.983H274.017V737.095C274.857 735.487 276.297 734.743 277.929 734.743C278.385 734.743 278.817 734.815 279.201 734.935V736.807C278.745 736.639 278.241 736.543 277.689 736.543ZM282.575 732.103C281.879 732.103 281.327 731.551 281.327 730.879C281.327 730.183 281.879 729.655 282.575 729.655C283.247 729.655 283.799 730.183 283.799 730.879C283.799 731.551 283.247 732.103 282.575 732.103ZM281.663 746.119V734.983H283.487V746.119H281.663ZM297.534 746.119L294.414 737.455L291.294 746.119H289.734L286.158 734.983H287.982L290.598 743.503L293.718 734.983H295.158L298.278 743.503L300.894 734.983H302.67L299.094 746.119H297.534ZM306.293 732.103C305.597 732.103 305.045 731.551 305.045 730.879C305.045 730.183 305.597 729.655 306.293 729.655C306.965 729.655 307.517 730.183 307.517 730.879C307.517 731.551 306.965 732.103 306.293 732.103ZM305.381 746.119V734.983H307.205V746.119H305.381ZM310.093 736.447V734.983H318.685V736.063L312.253 744.655H319.021V746.119H309.997V745.039L316.477 736.447H310.093ZM331.077 744.991C330.141 745.759 328.557 746.359 326.757 746.359C323.349 746.359 320.901 743.959 320.901 740.551C320.901 737.143 323.469 734.743 326.301 734.743C329.373 734.743 331.365 737.023 331.365 740.431V740.743H322.677C322.821 743.167 324.405 744.847 326.925 744.847C328.413 744.847 330.069 744.271 331.077 743.335V744.991ZM326.277 736.255C324.573 736.255 323.181 737.479 322.797 739.327H329.541C329.277 737.479 328.053 736.255 326.277 736.255ZM163.237 773.119L161.221 768.199H153.517L151.501 773.119H149.533L156.613 756.319H158.173L165.229 773.119H163.237ZM154.165 766.615H160.573L157.381 758.815L154.165 766.615ZM172.752 773.359C169.488 773.359 166.8 770.983 166.8 767.575C166.8 764.167 169.512 761.743 172.752 761.743C174.168 761.743 175.536 762.103 176.424 762.847V764.719C175.464 763.879 174.264 763.327 172.824 763.327C170.424 763.327 168.6 765.127 168.6 767.551C168.6 770.023 170.424 771.799 172.824 771.799C174.288 771.799 175.44 771.271 176.424 770.383V772.159C175.44 772.951 174.12 773.359 172.752 773.359ZM184.471 773.359C181.207 773.359 178.519 770.983 178.519 767.575C178.519 764.167 181.231 761.743 184.471 761.743C185.887 761.743 187.255 762.103 188.143 762.847V764.719C187.183 763.879 185.983 763.327 184.543 763.327C182.143 763.327 180.319 765.127 180.319 767.551C180.319 770.023 182.143 771.799 184.543 771.799C186.007 771.799 187.159 771.271 188.143 770.383V772.159C187.159 772.951 185.839 773.359 184.471 773.359ZM200.413 771.991C199.477 772.759 197.893 773.359 196.093 773.359C192.685 773.359 190.237 770.959 190.237 767.551C190.237 764.143 192.805 761.743 195.637 761.743C198.709 761.743 200.701 764.023 200.701 767.431V767.743H192.013C192.157 770.167 193.741 771.847 196.261 771.847C197.749 771.847 199.405 771.271 200.413 770.335V771.991ZM195.613 763.255C193.909 763.255 192.517 764.479 192.133 766.327H198.877C198.613 764.479 197.389 763.255 195.613 763.255ZM208.772 763.327C207.308 763.327 206.228 764.119 205.58 765.151V773.119H203.756V761.983H205.532V763.543C206.348 762.415 207.692 761.743 209.252 761.743C212.012 761.743 213.452 763.591 213.452 766.135V773.119H211.628V766.375C211.628 764.623 210.668 763.327 208.772 763.327ZM224.024 772.735C223.328 773.047 222.416 773.239 221.504 773.239C219.2 773.239 218.096 772.039 218.096 770.023V763.447H215.96V761.983H218.096V759.391L219.896 759.103V761.983H223.928V763.447H219.896V769.663C219.896 770.911 220.448 771.655 221.84 771.655C222.632 771.655 223.376 771.487 224.024 771.223V772.735ZM227.307 773.239C226.635 773.239 226.059 772.687 226.059 771.991C226.059 771.295 226.635 770.767 227.307 770.767C228.003 770.767 228.555 771.295 228.555 771.991C228.555 772.687 228.003 773.239 227.307 773.239ZM227.307 765.415C226.635 765.415 226.059 764.863 226.059 764.167C226.059 763.471 226.635 762.943 227.307 762.943C228.003 762.943 228.555 763.471 228.555 764.167C228.555 764.863 228.003 765.415 227.307 765.415ZM237.489 773.119V756.319H242.841C246.537 756.319 248.577 758.431 248.577 761.311C248.577 764.359 246.369 766.399 242.697 766.399H239.409V773.119H237.489ZM242.505 757.951H239.409V764.767H242.505C245.265 764.767 246.681 763.399 246.681 761.383C246.681 759.295 245.289 757.951 242.505 757.951ZM260.179 771.991C259.243 772.759 257.659 773.359 255.859 773.359C252.451 773.359 250.003 770.959 250.003 767.551C250.003 764.143 252.571 761.743 255.403 761.743C258.475 761.743 260.467 764.023 260.467 767.431V767.743H251.779C251.923 770.167 253.507 771.847 256.027 771.847C257.515 771.847 259.171 771.271 260.179 770.335V771.991ZM255.379 763.255C253.675 763.255 252.283 764.479 251.899 766.327H258.643C258.379 764.479 257.155 763.255 255.379 763.255ZM268.97 763.543C267.338 763.543 265.898 764.503 265.346 766.063V773.119H263.522V761.983H265.298V764.095C266.138 762.487 267.578 761.743 269.21 761.743C269.666 761.743 270.098 761.815 270.482 761.935V763.807C270.026 763.639 269.522 763.543 268.97 763.543ZM273.856 759.103C273.16 759.103 272.608 758.551 272.608 757.879C272.608 757.183 273.16 756.655 273.856 756.655C274.528 756.655 275.08 757.183 275.08 757.879C275.08 758.551 274.528 759.103 273.856 759.103ZM272.944 773.119V761.983H274.768V773.119H272.944ZM288.815 773.119L285.695 764.455L282.575 773.119H281.015L277.439 761.983H279.263L281.879 770.503L284.999 761.983H286.439L289.559 770.503L292.175 761.983H293.951L290.375 773.119H288.815ZM297.575 759.103C296.879 759.103 296.327 758.551 296.327 757.879C296.327 757.183 296.879 756.655 297.575 756.655C298.247 756.655 298.799 757.183 298.799 757.879C298.799 758.551 298.247 759.103 297.575 759.103ZM296.663 773.119V761.983H298.487V773.119H296.663ZM301.374 763.447V761.983H309.966V763.063L303.534 771.655H310.302V773.119H301.278V772.039L307.758 763.447H301.374ZM322.359 771.991C321.423 772.759 319.839 773.359 318.039 773.359C314.631 773.359 312.183 770.959 312.183 767.551C312.183 764.143 314.751 761.743 317.583 761.743C320.655 761.743 322.647 764.023 322.647 767.431V767.743H313.959C314.103 770.167 315.687 771.847 318.207 771.847C319.695 771.847 321.351 771.271 322.359 770.335V771.991ZM317.559 763.255C315.855 763.255 314.463 764.479 314.079 766.327H320.823C320.559 764.479 319.335 763.255 317.559 763.255ZM331.122 773.119V756.319H336.474C340.17 756.319 342.21 758.431 342.21 761.311C342.21 764.359 340.002 766.399 336.33 766.399H333.042V773.119H331.122ZM336.138 757.951H333.042V764.767H336.138C338.898 764.767 340.314 763.399 340.314 761.383C340.314 759.295 338.922 757.951 336.138 757.951ZM343.636 767.599C343.636 764.239 346.228 761.743 349.42 761.743C352.612 761.743 355.132 764.239 355.132 767.527C355.132 770.839 352.516 773.359 349.348 773.359C346.204 773.359 343.636 770.839 343.636 767.599ZM353.308 767.551C353.308 765.175 351.604 763.303 349.372 763.303C347.14 763.303 345.46 765.151 345.46 767.551C345.46 769.927 347.14 771.799 349.372 771.799C351.604 771.799 353.308 769.951 353.308 767.551ZM363.898 773.359C362.338 773.359 360.994 772.807 360.034 771.727V778.159H358.21V761.983H359.986V763.615C360.946 762.391 362.338 761.743 363.97 761.743C367.186 761.743 369.538 764.239 369.538 767.551C369.538 770.815 367.066 773.359 363.898 773.359ZM363.61 763.279C362.074 763.279 360.802 764.023 360.034 765.223V769.879C360.754 771.031 362.026 771.847 363.658 771.847C366.058 771.847 367.714 770.023 367.714 767.575C367.714 765.103 365.938 763.279 363.61 763.279ZM388.077 765.727H383.589V770.383H381.885V765.727H377.397V764.215H381.885V759.487H383.589V764.215H388.077V765.727ZM406.964 771.511V773.119H397.028V756.319H398.948V771.511H406.964ZM410.684 759.103C409.988 759.103 409.436 758.551 409.436 757.879C409.436 757.183 409.988 756.655 410.684 756.655C411.356 756.655 411.908 757.183 411.908 757.879C411.908 758.551 411.356 759.103 410.684 759.103ZM409.772 773.119V761.983H411.596V773.119H409.772ZM424.851 761.983L420.147 773.119H418.467L413.787 761.983H415.731L419.355 770.911L422.955 761.983H424.851ZM436.195 771.991C435.259 772.759 433.675 773.359 431.875 773.359C428.467 773.359 426.019 770.959 426.019 767.551C426.019 764.143 428.587 761.743 431.419 761.743C434.491 761.743 436.483 764.023 436.483 767.431V767.743H427.795C427.939 770.167 429.523 771.847 432.043 771.847C433.531 771.847 435.187 771.271 436.195 770.335V771.991ZM431.395 763.255C429.691 763.255 428.299 764.479 427.915 766.327H434.659C434.395 764.479 433.171 763.255 431.395 763.255ZM439.538 773.119V755.959L441.362 755.671V773.119H439.538ZM449.289 774.559C448.233 777.151 446.577 778.303 444.705 778.303C443.961 778.303 443.433 778.183 442.977 777.991V776.359C443.409 776.551 444.009 776.719 444.633 776.719C445.713 776.719 446.961 776.119 447.849 773.863L448.065 773.287L443.601 761.983H445.521L449.025 771.079L452.553 761.983H454.425L449.289 774.559ZM473.683 768.775H471.379V773.119H469.603V768.775H460.795V767.431L469.315 756.319H471.379V767.215H473.683V768.775ZM463.003 767.215H469.603V758.455L463.003 767.215ZM482.264 773.359C478.856 773.359 475.64 770.647 475.64 764.767C475.64 758.887 478.856 756.175 482.264 756.175C485.72 756.175 488.96 758.887 488.96 764.767C488.96 770.647 485.72 773.359 482.264 773.359ZM482.264 771.727C484.928 771.727 487.136 769.423 487.136 764.767C487.136 760.111 484.928 757.807 482.264 757.807C479.624 757.807 477.464 760.111 477.464 764.767C477.464 769.423 479.624 771.727 482.264 771.727ZM498.225 773.359C494.817 773.359 491.601 770.647 491.601 764.767C491.601 758.887 494.817 756.175 498.225 756.175C501.681 756.175 504.921 758.887 504.921 764.767C504.921 770.647 501.681 773.359 498.225 773.359ZM498.225 771.727C500.889 771.727 503.097 769.423 503.097 764.767C503.097 760.111 500.889 757.807 498.225 757.807C495.585 757.807 493.425 760.111 493.425 764.767C493.425 769.423 495.585 771.727 498.225 771.727Z" fill="black"/>
<rect x="149.844" y="213.651" width="423" height="470.319" rx="17.4219" fill="#C9CDFD"/>
<rect x="405.566" y="343.809" width="248.884" height="248.884" rx="17.4219" fill="#F49376"/>
<rect x="447.879" y="303.987" width="248.884" height="248.884" rx="17.4219" fill="#6774F1"/>
</svg>
