<svg width="1575" height="160" viewBox="0 0 1575 160" fill="none" xmlns="http://www.w3.org/2000/svg">
<g clip-path="url(#clip0_5872_46099)">
<path d="M100.624 139.926V150.077H99.2118V136.894H100.662L105.803 143.881L110.926 136.894H112.395V150.077H110.945V139.926L110.963 139.041L110.342 139.926L105.784 146.122L101.227 139.926L100.605 139.059L100.624 139.926ZM124.82 136.705C128.625 136.705 131.581 139.587 131.581 143.485C131.581 147.346 128.587 150.265 124.783 150.265C120.997 150.265 118.022 147.384 118.022 143.504C118.022 139.643 121.035 136.705 124.82 136.705ZM124.802 138.024C121.788 138.024 119.528 140.434 119.528 143.504C119.528 146.48 121.788 148.947 124.802 148.947C127.834 148.947 130.075 146.498 130.075 143.485C130.075 140.491 127.834 138.024 124.802 138.024ZM136.327 149.173V147.61C137.702 148.589 138.869 149.022 140.112 149.022C141.845 149.022 142.862 148.118 142.862 146.819C142.862 145.858 142.391 145.161 140.696 144.314L138.549 143.221C136.986 142.412 136.27 141.414 136.27 140.076C136.27 138.212 137.683 136.705 140.15 136.705C141.6 136.705 142.749 137.12 143.578 137.703V139.342C142.353 138.363 141.205 137.948 140.112 137.948C138.681 137.948 137.702 138.739 137.702 139.888C137.702 140.698 138.116 141.395 139.529 142.11L141.619 143.165C143.465 144.107 144.312 145.105 144.312 146.668C144.312 148.777 142.674 150.265 140.15 150.265C138.775 150.265 137.306 149.851 136.327 149.173ZM154.089 150.077H152.583V138.174H148.044V136.894H158.628V138.174H154.089V150.077ZM169.853 150.077V136.894H174.053C176.953 136.894 178.554 138.551 178.554 140.811C178.554 143.203 176.821 144.803 173.94 144.803H171.36V150.077H169.853ZM173.789 138.174H171.36V143.523H173.789C175.955 143.523 177.066 142.449 177.066 140.867C177.066 139.229 175.974 138.174 173.789 138.174ZM189.963 136.705C193.767 136.705 196.724 139.587 196.724 143.485C196.724 147.346 193.729 150.265 189.925 150.265C186.14 150.265 183.164 147.384 183.164 143.504C183.164 139.643 186.177 136.705 189.963 136.705ZM189.944 138.024C186.931 138.024 184.671 140.434 184.671 143.504C184.671 146.48 186.931 148.947 189.944 148.947C192.976 148.947 195.217 146.498 195.217 143.485C195.217 140.491 192.976 138.024 189.944 138.024ZM202.354 150.077V136.894H206.554C209.454 136.894 211.055 138.551 211.055 140.811C211.055 143.203 209.323 144.803 206.441 144.803H203.861V150.077H202.354ZM206.291 138.174H203.861V143.523H206.291C208.456 143.523 209.567 142.449 209.567 140.867C209.567 139.229 208.475 138.174 206.291 138.174ZM217.643 136.894V144.634C217.643 147.497 219.112 148.928 221.315 148.928C223.575 148.928 225.025 147.497 225.025 144.634V136.894H226.532V144.747C226.532 148.212 224.423 150.265 221.315 150.265C218.189 150.265 216.136 148.269 216.136 144.747V136.894H217.643ZM240.427 148.815V150.077H232.63V136.894H234.137V148.815H240.427ZM255.096 150.077L253.514 146.216H247.468L245.886 150.077H244.342L249.898 136.894H251.122L256.659 150.077H255.096ZM247.977 144.973H253.005L250.5 138.852L247.977 144.973ZM261.564 150.077V136.894H265.575C268.381 136.894 269.926 138.381 269.926 140.66C269.926 142.581 268.494 144.031 266.347 144.333L271.074 150.077H269.21L264.652 144.408H263.07V150.077H261.564ZM265.406 138.174H263.07V143.146H265.387C267.364 143.146 268.419 142.204 268.419 140.679C268.419 139.135 267.402 138.174 265.406 138.174Z" fill="#661A0B"/>
<path d="M204.559 98.2968C204.216 98.2968 203.874 98.2312 203.554 98.1001C202.898 97.8306 202.374 97.2953 202.111 96.6362L192.508 72.5684C192.137 71.6362 192.592 70.5764 193.524 70.2013C194.46 69.8263 195.516 70.2851 195.891 71.2174L204.245 92.1569L207.151 82.3208C207.308 81.7855 207.701 81.3558 208.218 81.1482C208.736 80.9406 209.318 80.9807 209.803 81.2574L218.361 86.1518L208.153 60.5691C207.781 59.6369 208.237 58.5772 209.169 58.2021C210.105 57.827 211.161 58.2858 211.536 59.2181L222.96 87.8525C223.492 89.1926 222.851 90.744 221.529 91.3157C221.001 91.5451 220.4 91.5087 219.901 91.2247L209.992 85.5582L206.634 96.9239C206.481 97.441 206.106 97.8634 205.611 98.0783C205.276 98.2239 204.919 98.2968 204.559 98.2968V98.2968Z" fill="#661A0B"/>
<path d="M163.143 97.9508C162.816 97.9508 162.488 97.8925 162.171 97.7651C161.639 97.5538 161.235 97.1023 161.086 96.5524L158.085 85.5364L147.677 91.1991C147.204 91.4577 146.639 91.4905 146.137 91.2938C145.478 91.0316 144.942 90.5072 144.669 89.8517C144.396 89.1962 144.403 88.446 144.684 87.7942L156.974 59.1889C157.371 58.264 158.442 57.8379 159.367 58.2348C160.292 58.6318 160.718 59.7024 160.321 60.6274L149.356 86.1372L158.365 81.2356C158.853 80.9697 159.44 80.9406 159.95 81.1591C160.463 81.3776 160.845 81.8182 160.991 82.3535L163.58 91.8656L166.009 86.2101C166.406 85.2851 167.477 84.859 168.402 85.2559C169.327 85.6529 169.753 86.7235 169.356 87.6485L165.627 96.3266C165.194 97.3353 164.185 97.9508 163.14 97.9508H163.143Z" fill="#661A0B"/>
<path d="M171.894 78.9523C171.654 78.9523 171.41 78.9049 171.177 78.8029C170.252 78.406 169.826 77.3354 170.223 76.4104L172.699 70.6493C173.096 69.7243 174.167 69.2982 175.092 69.6951C176.017 70.0921 176.443 71.1627 176.046 72.0877L173.569 77.8488C173.274 78.5371 172.601 78.9523 171.894 78.9523V78.9523Z" fill="#661A0B"/>
<path d="M184.534 64.7534C170.98 64.7534 159.953 53.7265 159.953 40.1722C159.953 26.6179 170.98 15.591 184.534 15.591C198.089 15.591 209.116 26.6179 209.116 40.1722C209.116 53.7265 198.089 64.7534 184.534 64.7534ZM184.534 19.2326C172.987 19.2326 163.595 28.6245 163.595 40.1722C163.595 51.7199 172.987 61.1117 184.534 61.1117C196.082 61.1117 205.474 51.7199 205.474 40.1722C205.474 28.6245 196.082 19.2326 184.534 19.2326Z" fill="#6473F8"/>
<path d="M184.537 73.8576C165.964 73.8576 150.852 58.7447 150.852 40.1722C150.852 21.5997 165.964 6.48682 184.537 6.48682C190.702 6.48682 196.736 8.16926 201.98 11.3484C202.84 11.8692 203.113 12.9908 202.592 13.8503C202.072 14.7097 200.954 14.9828 200.09 14.4621C195.415 11.6252 190.036 10.1285 184.537 10.1285C167.971 10.1285 154.493 23.6063 154.493 40.1722C154.493 56.7381 167.971 70.2159 184.537 70.2159C201.103 70.2159 214.581 56.7381 214.581 40.1722C214.581 36.4868 213.921 32.8889 212.621 29.4803C211.624 26.8619 210.262 24.3965 208.572 22.146C207.967 21.3412 208.131 20.2013 208.936 19.5968C209.741 18.9923 210.881 19.1562 211.485 19.961C213.379 22.481 214.908 25.2487 216.026 28.1875C217.483 32.0149 218.222 36.0462 218.222 40.1758C218.222 58.7483 203.109 73.8612 184.537 73.8612V73.8576Z" fill="#661A0B"/>
<path d="M184.525 52.918C184.444 52.918 184.364 52.9144 184.284 52.9035C183.807 52.8452 183.356 52.6267 183.013 52.2844C181.695 51.0717 180.085 49.4475 178.793 48.1402L178.366 47.7068C178.093 47.4337 177.809 47.1533 177.514 46.8656C175.628 45.0193 173.49 42.9217 172.653 40.2305C172.594 40.0484 172.547 39.8663 172.5 39.6806C172.263 38.6755 172.238 37.6558 172.423 36.6544C172.675 35.3106 173.337 34.0834 174.342 33.1074C175.843 31.6544 177.908 30.9188 180.009 31.0936C181.276 31.1992 182.463 31.6179 183.538 32.339C183.884 32.5721 184.219 32.8379 184.535 33.1292C184.852 32.8379 185.184 32.5721 185.533 32.339C186.604 31.6179 187.791 31.1992 189.058 31.0936C191.163 30.9224 193.228 31.6544 194.725 33.1074C195.73 34.0834 196.393 35.3106 196.644 36.6544C196.83 37.6558 196.804 38.6718 196.567 39.6769C196.524 39.8627 196.473 40.0484 196.415 40.2305C195.577 42.9217 193.439 45.0156 191.553 46.8619C191.258 47.1496 190.974 47.43 190.701 47.7032L190.275 48.1365C188.982 49.4439 187.372 51.0681 186.054 52.2807C185.701 52.634 185.235 52.8561 184.739 52.9035C184.667 52.9107 184.594 52.9144 184.521 52.9144L184.525 52.918ZM179.419 34.7097C178.476 34.7097 177.547 35.0775 176.881 35.7221C176.418 36.17 176.116 36.7236 176.007 37.3208C175.912 37.8306 175.927 38.3295 176.047 38.8466C176.069 38.945 176.098 39.0469 176.13 39.1453C176.699 40.9661 178.487 42.7177 180.067 44.2654C180.373 44.5677 180.672 44.859 180.956 45.1467L181.385 45.5801C182.35 46.556 183.494 47.7141 184.539 48.7155C185.584 47.7105 186.728 46.556 187.693 45.5801L188.122 45.1467C188.407 44.859 188.705 44.5677 189.011 44.2654C190.588 42.7177 192.38 40.9661 192.944 39.1489C192.977 39.0469 193.002 38.9486 193.028 38.8466C193.148 38.3295 193.163 37.8306 193.068 37.3244C192.955 36.7272 192.653 36.1737 192.194 35.7257C191.458 35.012 190.402 34.6405 189.361 34.7243C188.72 34.7789 188.115 34.9901 187.569 35.3616C187.012 35.7367 186.509 36.2611 186.072 36.9275C185.741 37.43 185.187 37.7359 184.586 37.7469C184.379 37.7541 184.157 37.7177 183.96 37.6485C183.574 37.5247 183.239 37.2734 183.01 36.9275C182.573 36.2611 182.066 35.733 181.513 35.3616C180.963 34.9901 180.358 34.7753 179.718 34.7243C179.619 34.717 179.521 34.7134 179.423 34.7134L179.419 34.7097Z" fill="#661A0B"/>
<path d="M327.332 150.077V136.894H331.532C334.432 136.894 336.033 138.551 336.033 140.811C336.033 143.203 334.301 144.803 331.419 144.803H328.839V150.077H327.332ZM331.268 138.174H328.839V143.523H331.268C333.434 143.523 334.545 142.449 334.545 140.867C334.545 139.229 333.453 138.174 331.268 138.174ZM347.442 136.705C351.246 136.705 354.203 139.587 354.203 143.485C354.203 147.346 351.209 150.265 347.404 150.265C343.619 150.265 340.643 147.384 340.643 143.504C340.643 139.643 343.657 136.705 347.442 136.705ZM347.423 138.024C344.41 138.024 342.15 140.434 342.15 143.504C342.15 146.48 344.41 148.947 347.423 148.947C350.455 148.947 352.696 146.498 352.696 143.485C352.696 140.491 350.455 138.024 347.423 138.024ZM359.834 150.077V136.894H364.372C368.045 136.894 370.964 139.7 370.964 143.485C370.964 147.271 367.969 150.077 364.278 150.077H359.834ZM364.241 138.193H361.34V148.796H364.241C367.179 148.796 369.438 146.574 369.438 143.485C369.438 140.453 367.16 138.193 364.241 138.193ZM382.889 150.265C378.859 150.265 375.94 147.402 375.94 143.485C375.94 139.587 378.897 136.705 382.946 136.705C384.942 136.705 386.543 137.346 387.673 138.306V140.095C386.355 138.739 384.773 138.042 382.927 138.042C379.688 138.042 377.447 140.397 377.447 143.485C377.447 146.593 379.688 148.947 382.946 148.947C384.773 148.947 386.505 148.231 387.673 146.988V148.645C386.562 149.606 384.848 150.265 382.889 150.265ZM402.559 150.077L400.977 146.216H394.932L393.35 150.077H391.805L397.361 136.894H398.585L404.122 150.077H402.559ZM395.44 144.973H400.468L397.964 138.852L395.44 144.973ZM408.142 149.173V147.61C409.517 148.589 410.684 149.022 411.927 149.022C413.66 149.022 414.677 148.118 414.677 146.819C414.677 145.858 414.206 145.161 412.511 144.314L410.364 143.222C408.801 142.412 408.085 141.414 408.085 140.076C408.085 138.212 409.498 136.705 411.965 136.705C413.415 136.705 414.564 137.12 415.393 137.704V139.342C414.168 138.363 413.02 137.948 411.927 137.948C410.496 137.948 409.517 138.739 409.517 139.888C409.517 140.698 409.931 141.395 411.343 142.11L413.434 143.165C415.28 144.107 416.127 145.105 416.127 146.668C416.127 148.777 414.489 150.265 411.965 150.265C410.59 150.265 409.121 149.851 408.142 149.173ZM425.904 150.077H424.398V138.174H419.859V136.894H430.443V138.174H425.904V150.077ZM434.574 149.173V147.61C435.949 148.589 437.116 149.022 438.359 149.022C440.092 149.022 441.109 148.118 441.109 146.819C441.109 145.858 440.638 145.161 438.943 144.314L436.796 143.222C435.233 142.412 434.518 141.414 434.518 140.076C434.518 138.212 435.93 136.705 438.397 136.705C439.847 136.705 440.996 137.12 441.825 137.704V139.342C440.601 138.363 439.452 137.948 438.359 137.948C436.928 137.948 435.949 138.739 435.949 139.888C435.949 140.698 436.363 141.395 437.776 142.11L439.866 143.165C441.712 144.107 442.559 145.105 442.559 146.668C442.559 148.777 440.921 150.265 438.397 150.265C437.022 150.265 435.553 149.851 434.574 149.173Z" fill="#661A0B"/>
<path d="M381.615 98.2968C380.648 98.2968 379.863 97.512 379.863 96.545V85.9675C379.863 85.0005 380.648 84.2157 381.615 84.2157C382.582 84.2157 383.367 85.0005 383.367 85.9675V96.545C383.367 97.512 382.582 98.2968 381.615 98.2968Z" fill="#661A0B"/>
<path d="M385.119 87.3513H385.098C377.702 87.2672 370.67 84.3102 365.302 79.0232C360.082 73.8833 357.09 67.0338 357.09 60.2367V48.3069C357.09 47.3924 357.794 46.6321 358.705 46.562C366.97 45.9104 375.365 45.5635 383.654 45.5285H383.661C384.625 45.5285 385.41 46.3063 385.413 47.2733C385.417 48.2403 384.635 49.0286 383.668 49.0321C376.006 49.0636 368.249 49.3685 360.593 49.9325V60.2402C360.593 66.1088 363.204 72.0439 367.762 76.5321C372.478 81.1744 378.641 83.7741 385.119 83.8547C391.597 83.7776 397.763 81.1779 402.476 76.5321C407.031 72.0474 409.644 66.1088 409.644 60.2402V49.9325C404.452 49.5506 399.203 49.2844 394.011 49.1477C393.044 49.1232 392.28 48.3174 392.308 47.3504C392.336 46.3834 393.142 45.6266 394.106 45.6476C399.894 45.8018 405.755 46.1101 411.533 46.5655C412.444 46.6356 413.148 47.3994 413.148 48.3104V60.2402C413.148 67.0408 410.156 73.8869 404.935 79.0267C399.568 84.3137 392.536 87.2707 385.14 87.3548H385.119V87.3513Z" fill="#661A0B"/>
<path d="M384.075 79.8501C379.46 79.8501 375.112 78.1333 371.724 74.945C368.105 71.5395 366.027 66.7746 366.027 61.8695V24.4683C366.027 19.5632 368.101 14.7982 371.724 11.3927C375.393 7.94163 380.189 6.21084 385.227 6.52266C395.524 7.22339 404.217 15.9404 404.213 25.5579V60.7799C404.213 65.3416 402.255 69.8613 398.695 73.5121C398.019 74.2058 396.912 74.2198 396.218 73.5436C395.524 72.8674 395.51 71.7603 396.187 71.0665C399.102 68.0744 400.71 64.4201 400.71 60.7799V25.5579C400.71 17.8499 393.37 10.5904 384.999 10.0193C380.949 9.77053 377.078 11.1615 374.121 13.9434C371.202 16.6902 369.527 20.5232 369.527 24.4648V61.866C369.527 65.8076 371.202 69.6441 374.121 72.3909C377.078 75.1728 380.946 76.5672 385.01 76.315C385.974 76.2519 386.807 76.9912 386.867 77.9547C386.926 78.9182 386.191 79.752 385.227 79.8116C384.842 79.8361 384.456 79.8466 384.071 79.8466L384.075 79.8501Z" fill="#661A0B"/>
<path d="M394.172 42.6206C393.24 42.6206 392.462 41.8849 392.424 40.9424C392.382 39.9754 393.135 39.1591 394.098 39.117L402.388 38.7667C403.341 38.7176 404.171 39.4779 404.213 40.4414C404.255 41.4084 403.502 42.2247 402.539 42.2668L394.249 42.6171C394.224 42.6171 394.2 42.6171 394.175 42.6171L394.172 42.6206Z" fill="#661A0B"/>
<path d="M402.467 34.4851H394.178C393.211 34.4851 392.426 33.7003 392.426 32.7333C392.426 31.7663 393.211 30.9814 394.178 30.9814H402.467C403.434 30.9814 404.219 31.7663 404.219 32.7333C404.219 33.7003 403.434 34.4851 402.467 34.4851Z" fill="#661A0B"/>
<path d="M402.465 26.7001C402.441 26.7001 402.416 26.7001 402.392 26.7001L394.102 26.3497C393.135 26.3077 392.385 25.4913 392.427 24.5243C392.47 23.5573 393.289 22.797 394.253 22.8496L402.542 23.1999C403.509 23.242 404.259 24.0583 404.217 25.0253C404.179 25.9678 403.401 26.7036 402.469 26.7036L402.465 26.7001Z" fill="#661A0B"/>
<path d="M367.773 42.2702C366.841 42.2702 366.064 41.5345 366.025 40.592C365.983 39.625 366.736 38.8086 367.7 38.7666L375.989 38.4162C376.953 38.3637 377.773 39.124 377.815 40.091C377.857 41.058 377.104 41.8743 376.14 41.9164L367.851 42.2667C367.826 42.2667 367.801 42.2667 367.777 42.2667L367.773 42.2702Z" fill="#661A0B"/>
<path d="M376.067 34.8354C376.042 34.8354 376.018 34.8354 375.993 34.8354L367.704 34.4851C366.737 34.443 365.987 33.6267 366.029 32.6597C366.071 31.6927 366.901 30.9359 367.854 30.985L376.144 31.3353C377.111 31.3774 377.861 32.1937 377.819 33.1607C377.78 34.1032 377.002 34.8389 376.07 34.8389L376.067 34.8354Z" fill="#661A0B"/>
<path d="M376.065 26.7H367.775C366.808 26.7 366.023 25.9152 366.023 24.9482C366.023 23.9812 366.808 23.1964 367.775 23.1964H376.065C377.032 23.1964 377.817 23.9812 377.817 24.9482C377.817 25.9152 377.032 26.7 376.065 26.7Z" fill="#661A0B"/>
<path d="M412.595 31.7699C411.698 31.7699 410.931 31.0832 410.85 30.1723C410.766 29.2088 411.478 28.3574 412.445 28.2733L428.425 26.8754C429.385 26.7948 430.24 27.5025 430.324 28.4695C430.408 29.433 429.697 30.2844 428.73 30.3685L412.749 31.7664C412.697 31.7699 412.648 31.7734 412.595 31.7734V31.7699Z" fill="#6473F8"/>
<path d="M411.401 25.0638C410.809 25.0638 410.231 24.7625 409.902 24.2159C409.4 23.3891 409.667 22.31 410.494 21.8089L419.281 16.5009C420.108 15.9999 421.187 16.2662 421.688 17.0931C422.189 17.9199 421.922 18.999 421.096 19.5L412.309 24.808C412.025 24.9797 411.713 25.0603 411.405 25.0603L411.401 25.0638Z" fill="#6473F8"/>
<path d="M424.183 42.1091C423.991 42.1091 423.798 42.0775 423.605 42.011L413.217 38.3777C412.303 38.0589 411.823 37.0603 412.142 36.1459C412.46 35.2314 413.459 34.7514 414.373 35.0703L424.762 38.7035C425.676 39.0224 426.156 40.0209 425.837 40.9353C425.585 41.6571 424.909 42.1091 424.183 42.1091Z" fill="#6473F8"/>
<path d="M357.639 31.77C357.587 31.77 357.538 31.77 357.485 31.763L341.421 30.365C340.458 30.281 339.743 29.4331 339.827 28.4661C339.911 27.4991 340.763 26.7878 341.726 26.8719L357.79 28.2699C358.754 28.354 359.468 29.2018 359.384 30.1688C359.304 31.0798 358.54 31.77 357.639 31.77Z" fill="#6473F8"/>
<path d="M358.84 25.0641C358.532 25.0641 358.223 24.9835 357.94 24.8153L349.103 19.5073C348.273 19.0098 348.007 17.9307 348.504 17.1039C349.002 16.2735 350.081 16.0072 350.908 16.5047L359.744 21.8127C360.574 22.3103 360.841 23.3894 360.343 24.2162C360.014 24.7628 359.436 25.0676 358.84 25.0676V25.0641Z" fill="#6473F8"/>
<path d="M345.99 42.1091C345.265 42.1091 344.589 41.6571 344.336 40.9319C344.018 40.0174 344.501 39.0189 345.416 38.7001L355.86 35.0668C356.774 34.7515 357.773 35.2315 358.092 36.1459C358.411 37.0604 357.927 38.0589 357.013 38.3777L346.568 42.011C346.379 42.0776 346.183 42.1091 345.994 42.1091H345.99Z" fill="#6473F8"/>
<path d="M394.175 98.2967H376.064C375.097 98.2967 374.312 97.5119 374.312 96.5449C374.312 95.5779 375.097 94.7931 376.064 94.7931H394.175C395.142 94.7931 395.926 95.5779 395.926 96.5449C395.926 97.5119 395.142 98.2967 394.175 98.2967Z" fill="#661A0B"/>
<path d="M388.623 98.2968C387.656 98.2968 386.871 97.512 386.871 96.545V85.9675C386.871 85.0005 387.656 84.2157 388.623 84.2157C389.59 84.2157 390.375 85.0005 390.375 85.9675V96.545C390.375 97.512 389.59 98.2968 388.623 98.2968Z" fill="#661A0B"/>
<path d="M517.525 149.173V147.61C518.9 148.589 520.067 149.022 521.31 149.022C523.043 149.022 524.06 148.118 524.06 146.819C524.06 145.858 523.589 145.161 521.894 144.314L519.747 143.221C518.184 142.412 517.468 141.414 517.468 140.076C517.468 138.212 518.881 136.705 521.348 136.705C522.798 136.705 523.947 137.12 524.775 137.703V139.342C523.551 138.363 522.402 137.948 521.31 137.948C519.879 137.948 518.9 138.739 518.9 139.888C518.9 140.698 519.314 141.395 520.726 142.11L522.817 143.165C524.662 144.107 525.51 145.105 525.51 146.668C525.51 148.777 523.871 150.265 521.348 150.265C519.973 150.265 518.504 149.851 517.525 149.173ZM535.287 150.077H533.781V138.174H529.242V136.894H539.826V138.174H535.287V150.077ZM544.842 150.077V136.894H548.853C551.659 136.894 553.204 138.381 553.204 140.66C553.204 142.581 551.772 144.031 549.626 144.333L554.353 150.077H552.488L547.931 144.408H546.349V150.077H544.842ZM548.684 138.174H546.349V143.146H548.665C550.643 143.146 551.697 142.204 551.697 140.679C551.697 139.135 550.68 138.174 548.684 138.174ZM559.143 150.077V136.894H566.865V138.174H560.65V142.581H566.243V143.881H560.65V148.796H566.959V150.077H559.143ZM581.921 150.077L580.339 146.216H574.294L572.712 150.077H571.167L576.723 136.894H577.947L583.484 150.077H581.921ZM574.802 144.973H579.831L577.326 138.852L574.802 144.973ZM589.802 139.926V150.077H588.389V136.894H589.839L594.981 143.881L600.103 136.894H601.572V150.077H600.122V139.926L600.141 139.041L599.519 139.926L594.962 146.122L590.404 139.926L589.783 139.059L589.802 139.926ZM615.655 148.815V150.077H607.858V136.894H609.365V148.815H615.655ZM620.891 150.077V136.894H622.397V150.077H620.891ZM630.075 140.114L630.112 150.077H628.681V136.894H630.075L637.533 146.687L638.342 147.779L638.324 146.687L638.286 136.894H639.698V150.077H638.399L630.809 140.114L630.056 139.078L630.075 140.114ZM645.98 150.077V136.894H653.702V138.174H647.487V142.581H653.08V143.881H647.487V148.796H653.796V150.077H645.98Z" fill="#661A0B"/>
<path d="M563.827 72.3625H563.806L558.855 72.3063C557.886 72.2958 557.111 71.4993 557.121 70.5308C557.132 69.5624 557.925 68.7974 558.897 68.7974L563.848 68.8536C564.816 68.8641 565.592 69.6606 565.581 70.6291C565.571 71.5905 564.788 72.3625 563.827 72.3625Z" fill="#661A0B"/>
<path d="M560.535 53.225H560.514L555.921 53.1723C554.953 53.1618 554.177 52.3653 554.188 51.3968C554.198 50.4354 554.981 49.6635 555.942 49.6635H555.963L560.556 49.7161C561.525 49.7266 562.3 50.5231 562.29 51.4916C562.279 52.453 561.497 53.225 560.535 53.225Z" fill="#661A0B"/>
<path d="M614.192 53.8356H614.171L570.745 53.3408C569.777 53.3303 569.001 52.5338 569.012 51.5653C569.022 50.5969 569.812 49.8214 570.787 49.8319L614.213 50.3267C615.182 50.3372 615.957 51.1337 615.947 52.1022C615.936 53.0636 615.154 53.8356 614.192 53.8356Z" fill="#661A0B"/>
<path d="M599.472 53.6671H599.451C598.482 53.6566 597.707 52.86 597.717 51.8916C597.826 42.3264 590.135 34.456 580.569 34.3472C579.601 34.3367 578.826 33.5401 578.836 32.5717C578.847 31.6032 579.636 30.8348 580.612 30.8383C592.11 30.9681 601.36 40.4316 601.23 51.9302C601.219 52.8916 600.437 53.6636 599.475 53.6636L599.472 53.6671Z" fill="#661A0B"/>
<path d="M580.374 72.5519C580.293 72.5519 580.213 72.5519 580.132 72.5519C579.163 72.5414 578.388 71.7449 578.399 70.7764C578.409 69.815 579.192 69.043 580.153 69.043H580.174C580.241 69.043 580.307 69.043 580.374 69.043C589.848 69.043 597.61 61.3902 597.718 51.8916C597.729 50.9302 598.511 50.1582 599.473 50.1582H599.494C600.462 50.1688 601.238 50.9653 601.227 51.9337C601.098 63.3516 591.767 72.5519 580.378 72.5519H580.374Z" fill="#661A0B"/>
<path d="M609.959 60.513C609.478 60.513 609.001 60.3165 608.653 59.9305C608.004 59.2112 608.064 58.1024 608.787 57.4532L614.755 52.0882L608.91 46.5862C608.204 45.9231 608.169 44.8107 608.836 44.1055C609.499 43.4002 610.611 43.3651 611.317 44.0318L618.549 50.839C618.906 51.1759 619.106 51.646 619.099 52.1373C619.092 52.6285 618.882 53.0952 618.517 53.4215L611.131 60.0639C610.794 60.3656 610.376 60.513 609.959 60.513V60.513Z" fill="#661A0B"/>
<path d="M580.158 72.5485H580.137L574.038 72.4783C573.07 72.4678 572.294 71.6712 572.305 70.7028C572.315 69.7343 573.112 68.9624 574.08 68.9694L580.179 69.0396C581.147 69.0501 581.923 69.8466 581.912 70.8151C581.902 71.7765 581.119 72.5485 580.158 72.5485Z" fill="#661A0B"/>
<path d="M580.591 34.3508H580.57L574.472 34.2806C573.503 34.2701 572.728 33.4735 572.738 32.5051C572.749 31.5437 573.531 30.7717 574.493 30.7717H574.514L580.612 30.8419C581.581 30.8524 582.356 31.6489 582.346 32.6174C582.335 33.5788 581.553 34.3508 580.591 34.3508Z" fill="#661A0B"/>
<path d="M564.264 34.1648H564.243L559.292 34.1087C558.324 34.0981 557.548 33.3016 557.559 32.3332C557.569 31.3647 558.352 30.5963 559.334 30.5998L564.285 30.6559C565.254 30.6664 566.029 31.463 566.019 32.4314C566.008 33.3928 565.226 34.1648 564.264 34.1648Z" fill="#661A0B"/>
<path d="M569.378 39.3403C569.35 39.3403 569.326 39.3403 569.298 39.3403C565.508 39.2982 562.462 36.1788 562.504 32.3927C562.546 28.6312 565.62 25.5995 569.375 25.5995C569.403 25.5995 569.427 25.5995 569.452 25.5995C571.287 25.6206 573.006 26.354 574.287 27.6663C575.571 28.9786 576.266 30.712 576.245 32.5471C576.224 34.3823 575.491 36.0981 574.178 37.3824C572.884 38.6456 571.182 39.3403 569.378 39.3403ZM569.378 29.1049C567.543 29.1049 566.038 30.5892 566.017 32.4278C565.996 34.2805 567.487 35.8069 569.34 35.8279C569.354 35.8279 569.364 35.8279 569.378 35.8279C571.213 35.8279 572.719 34.3437 572.74 32.505C572.761 30.6523 571.27 29.126 569.417 29.1049C569.403 29.1049 569.392 29.1049 569.378 29.1049Z" fill="#661A0B"/>
<path d="M565.652 58.4006C565.624 58.4006 565.599 58.4006 565.571 58.4006C563.736 58.3795 562.02 57.6462 560.736 56.3338C559.452 55.0215 558.757 53.2881 558.778 51.453C558.799 49.6178 559.532 47.902 560.845 46.6177C562.157 45.3335 563.894 44.6352 565.725 44.6598C569.515 44.7019 572.561 47.8213 572.519 51.6074C572.498 53.4425 571.764 55.1584 570.452 56.4426C569.157 57.7058 567.455 58.4006 565.652 58.4006V58.4006ZM565.652 48.1651C563.817 48.1651 562.311 49.6494 562.29 51.4881C562.28 52.3863 562.62 53.2355 563.248 53.8776C563.876 54.5197 564.715 54.8776 565.613 54.8882C565.627 54.8882 565.638 54.8882 565.652 54.8882C567.487 54.8882 568.992 53.4039 569.013 51.5653C569.034 49.7126 567.543 48.1862 565.69 48.1651C565.676 48.1651 565.666 48.1651 565.652 48.1651V48.1651Z" fill="#6473F8"/>
<path d="M568.941 77.538C568.913 77.538 568.888 77.538 568.86 77.538C567.025 77.5169 565.309 76.7836 564.025 75.4713C562.741 74.1589 562.046 72.4256 562.067 70.5904C562.109 66.8289 565.183 63.7972 568.937 63.7972C568.965 63.7972 568.99 63.7972 569.018 63.7972C572.808 63.8393 575.853 66.9587 575.811 70.7448C575.79 72.5799 575.057 74.2958 573.744 75.58C572.45 76.8432 570.748 77.538 568.944 77.538H568.941ZM568.941 67.3026C567.106 67.3026 565.6 68.7868 565.579 70.6255C565.569 71.5238 565.909 72.3729 566.537 73.015C567.165 73.6572 568.004 74.0151 568.902 74.0256C568.916 74.0256 568.927 74.0256 568.941 74.0256C569.825 74.0256 570.657 73.6852 571.292 73.0677C571.934 72.4396 572.292 71.601 572.302 70.7027C572.323 68.85 570.832 67.3236 568.979 67.3026C568.965 67.3026 568.955 67.3026 568.941 67.3026Z" fill="#661A0B"/>
<path d="M626.605 98.2967C626.552 98.2967 626.503 98.2967 626.451 98.2967C623.359 98.209 620.24 98.1283 617.184 98.0617C616.215 98.0406 615.447 97.2371 615.468 96.2686C615.489 95.3142 616.271 94.5528 617.222 94.5528C617.236 94.5528 617.25 94.5528 617.261 94.5528C620.328 94.6194 623.454 94.7001 626.552 94.7914C627.016 94.8089 627.437 94.6405 627.759 94.3282C628.079 94.0159 628.254 93.5984 628.254 93.1422V12.4344C628.254 11.4554 627.43 10.6027 626.451 10.5747C599.85 9.80622 572.87 9.80622 546.269 10.5747C545.29 10.6027 544.466 11.4554 544.466 12.4344V93.1387C544.466 93.5913 544.641 94.0124 544.96 94.3247C545.283 94.637 545.708 94.8054 546.167 94.7879C565.34 94.2335 584.793 94.0756 603.983 94.3177C604.952 94.3317 605.727 95.1247 605.717 96.0932C605.703 97.0616 604.917 97.8301 603.941 97.8266C584.8 97.5844 565.396 97.7424 546.269 98.2932C544.859 98.3248 543.522 97.816 542.515 96.8371C541.508 95.8581 540.953 94.5458 540.953 93.1352V12.4344C540.953 9.55709 543.29 7.14649 546.164 7.06578C572.835 6.29383 599.881 6.29383 626.549 7.06578C629.423 7.15 631.76 9.55709 631.76 12.4344V93.1387C631.76 94.5493 631.205 95.8616 630.202 96.8406C629.23 97.7845 627.959 98.2967 626.605 98.2967V98.2967Z" fill="#661A0B"/>
<path d="M726.231 150.077V136.894H733.953V138.174H727.738V142.581H733.331V143.881H727.738V148.796H734.047V150.077H726.231ZM745.59 150.265C741.56 150.265 738.641 147.402 738.641 143.485C738.641 139.587 741.598 136.705 745.647 136.705C747.643 136.705 749.244 137.346 750.374 138.306V140.095C749.055 138.739 747.473 138.042 745.628 138.042C742.389 138.042 740.148 140.397 740.148 143.485C740.148 146.593 742.389 148.947 745.647 148.947C747.473 148.947 749.206 148.231 750.374 146.988V148.645C749.263 149.606 747.549 150.265 745.59 150.265ZM762.058 136.705C765.862 136.705 768.819 139.587 768.819 143.485C768.819 147.346 765.825 150.265 762.02 150.265C758.235 150.265 755.259 147.384 755.259 143.504C755.259 139.643 758.273 136.705 762.058 136.705ZM762.039 138.024C759.026 138.024 756.766 140.434 756.766 143.504C756.766 146.48 759.026 148.947 762.039 148.947C765.071 148.947 767.312 146.498 767.312 143.485C767.312 140.491 765.071 138.024 762.039 138.024ZM775.843 140.114L775.881 150.077H774.45V136.894H775.843L783.301 146.687L784.111 147.779L784.092 146.687L784.054 136.894H785.467V150.077H784.167L776.578 140.114L775.825 139.078L775.843 140.114ZM797.888 136.705C801.692 136.705 804.649 139.587 804.649 143.485C804.649 147.346 801.655 150.265 797.85 150.265C794.065 150.265 791.09 147.384 791.09 143.504C791.09 139.643 794.103 136.705 797.888 136.705ZM797.869 138.024C794.856 138.024 792.596 140.434 792.596 143.504C792.596 146.48 794.856 148.947 797.869 148.947C800.901 148.947 803.143 146.498 803.143 143.485C803.143 140.491 800.901 138.024 797.869 138.024ZM811.692 139.926V150.077H810.28V136.894H811.73L816.871 143.881L821.994 136.894H823.463V150.077H822.013V139.926L822.032 139.041L821.41 139.926L816.853 146.122L812.295 139.926L811.673 139.059L811.692 139.926ZM829.749 150.077V136.894H831.256V150.077H829.749ZM843.83 150.265C839.8 150.265 836.88 147.402 836.88 143.485C836.88 139.587 839.837 136.705 843.886 136.705C845.883 136.705 847.483 137.346 848.613 138.306V140.095C847.295 138.739 845.713 138.042 843.867 138.042C840.628 138.042 838.387 140.397 838.387 143.485C838.387 146.593 840.628 148.947 843.886 148.947C845.713 148.947 847.446 148.231 848.613 146.988V148.645C847.502 149.606 845.788 150.265 843.83 150.265Z" fill="#661A0B"/>
<path d="M788.126 64.3059C783.758 64.3059 779.574 63.3278 775.686 61.4033C774.814 60.969 774.454 59.9096 774.888 59.0374C775.322 58.1652 776.382 57.8051 777.254 58.2394C780.647 59.9202 784.306 60.7747 788.126 60.7747C801.644 60.7747 812.643 49.7752 812.643 36.258V14.3401H763.61V36.258C763.61 41.7277 765.372 46.9009 768.705 51.223C769.302 51.9963 769.157 53.1051 768.387 53.6983C767.614 54.2951 766.505 54.1503 765.912 53.3805C762.098 48.4369 760.082 42.5187 760.082 36.258V12.5745C760.082 11.5999 760.873 10.809 761.848 10.809H814.409C815.383 10.809 816.174 11.5999 816.174 12.5745V36.258C816.174 51.7244 803.593 64.3059 788.126 64.3059Z" fill="#661A0B"/>
<path d="M781.104 49.574C780.747 49.574 780.394 49.468 780.09 49.2561C779.539 48.8713 779.257 48.2074 779.359 47.5435L780.465 40.3506L775.164 35.3611C774.673 34.902 774.49 34.2029 774.688 33.5602C774.885 32.9175 775.429 32.4408 776.093 32.3349L783.275 31.1625L786.383 24.5805C786.669 23.9731 787.276 23.5812 787.947 23.5706C787.958 23.5706 787.968 23.5706 787.979 23.5706C788.639 23.5706 789.247 23.9378 789.547 24.5275L792.88 30.9966L800.101 31.9182C800.769 32.0029 801.327 32.4585 801.546 33.0941C801.764 33.7297 801.602 34.4324 801.129 34.9126L796.005 40.0822L797.361 47.2328C797.485 47.8931 797.227 48.5676 796.69 48.9701C796.153 49.3727 795.433 49.4398 794.833 49.1361L788.332 45.8627L781.948 49.3621C781.683 49.5069 781.39 49.581 781.1 49.581L781.104 49.574ZM780.189 35.2375L783.561 38.412C783.985 38.811 784.183 39.3901 784.098 39.9657L783.395 44.5421L787.456 42.3174C787.965 42.0385 788.579 42.0279 789.098 42.2892L793.233 44.3726L792.372 39.8244C792.262 39.2524 792.442 38.6662 792.852 38.2531L796.111 34.9656L791.521 34.3794C790.945 34.3053 790.44 33.9521 790.175 33.4366L788.053 29.3228L786.076 33.5107C785.828 34.0369 785.338 34.4077 784.762 34.4995L780.193 35.2445L780.189 35.2375Z" fill="#6473F8"/>
<path d="M802.985 93.9746H795.923C794.948 93.9746 794.157 93.1836 794.157 92.2091C794.157 91.2345 794.948 90.4435 795.923 90.4435H800.545L798.112 83.0598H777.162L774.729 90.4435H785.329C786.304 90.4435 787.095 91.2345 787.095 92.2091C787.095 93.1836 786.304 93.9746 785.329 93.9746H772.289C771.724 93.9746 771.191 93.7027 770.859 93.2437C770.527 92.7846 770.435 92.1949 770.612 91.6547L774.21 80.7399C774.45 80.016 775.124 79.5287 775.887 79.5287H799.39C800.153 79.5287 800.828 80.016 801.068 80.7399L804.666 91.6547C804.843 92.1914 804.751 92.7846 804.419 93.2437C804.087 93.7027 803.554 93.9746 802.989 93.9746H802.985Z" fill="#661A0B"/>
<path d="M792.131 83.0599H783.141C782.166 83.0599 781.375 82.2689 781.375 81.2943V62.1484C781.375 61.6364 781.597 61.1491 781.982 60.8136C782.367 60.4781 782.879 60.3263 783.388 60.4005C786.23 60.803 789.041 60.803 791.884 60.4005C792.389 60.3298 792.904 60.4781 793.289 60.8136C793.674 61.1491 793.896 61.6364 793.896 62.1484V81.2943C793.896 82.2689 793.105 83.0599 792.131 83.0599ZM784.906 79.5287H790.365V64.1223C788.536 64.2741 786.735 64.2741 784.906 64.1223V79.5287Z" fill="#661A0B"/>
<path d="M811.532 49.9659C810.963 49.9659 810.423 49.6904 810.091 49.2208C809.71 48.6841 809.66 47.9814 809.96 47.3987C811.736 43.9205 812.64 40.174 812.64 36.2579V25.0359C812.64 24.0613 813.431 23.2704 814.406 23.2704H831.776C832.75 23.2704 833.541 24.0613 833.541 25.0359C833.541 37.5715 824.18 48.285 811.768 49.9482C811.691 49.9588 811.609 49.9623 811.532 49.9623V49.9659ZM816.172 26.8015V36.2579C816.172 39.5454 815.617 42.7305 814.516 45.7638C822.987 43.2637 829.205 35.7071 829.936 26.8015H816.172Z" fill="#661A0B"/>
<path d="M764.775 50.0824C764.722 50.0824 764.669 50.0824 764.616 50.0753C758.383 49.5209 752.613 46.6678 748.362 42.049C744.086 37.402 741.73 31.3602 741.73 25.0359C741.73 24.0613 742.521 23.2704 743.496 23.2704H761.84C762.815 23.2704 763.606 24.0613 763.606 25.0359V36.2579C763.606 40.2163 764.528 43.9982 766.343 47.5046C766.639 48.0767 766.6 48.7653 766.24 49.2985C765.912 49.7893 765.361 50.0789 764.775 50.0789V50.0824ZM745.332 26.8015C745.721 31.5862 747.684 36.099 750.961 39.6584C753.899 42.8541 757.684 45.0611 761.837 46.0533C760.665 42.9318 760.075 39.6478 760.075 36.2544V26.798H745.332V26.8015Z" fill="#661A0B"/>
<path d="M948.392 150.265C947.431 150.265 946.621 150.058 945.962 149.662V148.212C946.603 148.645 947.337 148.965 948.241 148.965C949.785 148.965 950.746 148.25 950.746 146.329V136.894H952.252V146.536C952.252 149.078 950.633 150.265 948.392 150.265ZM964.499 136.705C968.303 136.705 971.26 139.587 971.26 143.485C971.26 147.346 968.266 150.265 964.461 150.265C960.676 150.265 957.701 147.384 957.701 143.504C957.701 139.643 960.714 136.705 964.499 136.705ZM964.48 138.024C961.467 138.024 959.207 140.434 959.207 143.504C959.207 146.48 961.467 148.947 964.48 148.947C967.512 148.947 969.754 146.498 969.754 143.485C969.754 140.491 967.512 138.024 964.48 138.024ZM976.891 150.077V136.894H981.091C983.445 136.894 984.838 138.231 984.838 140.133C984.838 141.414 984.141 142.412 983.012 142.92C984.65 143.353 985.705 144.634 985.705 146.291C985.705 148.438 984.123 150.077 981.618 150.077H976.891ZM980.883 138.155H978.379V142.506H980.902C982.597 142.506 983.388 141.602 983.388 140.321C983.388 139.041 982.578 138.155 980.883 138.155ZM981.335 143.673H978.379V148.852H981.373C983.2 148.852 984.198 147.798 984.198 146.254C984.198 144.728 983.181 143.673 981.335 143.673ZM998.045 150.077V136.894H1002.24C1005.14 136.894 1006.75 138.551 1006.75 140.811C1006.75 143.203 1005.01 144.803 1002.13 144.803H999.551V150.077H998.045ZM1001.98 138.174H999.551V143.523H1001.98C1004.15 143.523 1005.26 142.449 1005.26 140.867C1005.26 139.229 1004.17 138.174 1001.98 138.174ZM1018.15 136.705C1021.96 136.705 1024.92 139.587 1024.92 143.485C1024.92 147.346 1021.92 150.265 1018.12 150.265C1014.33 150.265 1011.36 147.384 1011.36 143.504C1011.36 139.643 1014.37 136.705 1018.15 136.705ZM1018.14 138.024C1015.12 138.024 1012.86 140.434 1012.86 143.504C1012.86 146.48 1015.12 148.947 1018.14 148.947C1021.17 148.947 1023.41 146.498 1023.41 143.485C1023.41 140.491 1021.17 138.024 1018.14 138.024ZM1029.66 149.173V147.61C1031.04 148.589 1032.2 149.022 1033.45 149.022C1035.18 149.022 1036.2 148.118 1036.2 146.819C1036.2 145.858 1035.72 145.161 1034.03 144.314L1031.88 143.221C1030.32 142.412 1029.6 141.414 1029.6 140.076C1029.6 138.212 1031.02 136.705 1033.48 136.705C1034.93 136.705 1036.08 137.12 1036.91 137.703V139.342C1035.69 138.363 1034.54 137.948 1033.45 137.948C1032.01 137.948 1031.04 138.739 1031.04 139.888C1031.04 140.698 1031.45 141.395 1032.86 142.11L1034.95 143.165C1036.8 144.107 1037.65 145.105 1037.65 146.668C1037.65 148.777 1036.01 150.265 1033.48 150.265C1032.11 150.265 1030.64 149.851 1029.66 149.173ZM1047.42 150.077H1045.92V138.174H1041.38V136.894H1051.96V138.174H1047.42V150.077Z" fill="#661A0B"/>
<path d="M1029.54 98.1985C1029.49 98.1985 1029.44 98.1985 1029.39 98.1985C1023.71 98.037 1017.94 97.9177 1012.26 97.8405C1011.29 97.8265 1010.51 97.0298 1010.53 96.0611C1010.54 95.0995 1011.32 94.3308 1012.28 94.3308H1012.31C1018.01 94.4081 1023.79 94.5274 1029.49 94.6888C1029.9 94.6959 1030.3 94.552 1030.59 94.2677C1030.88 93.9869 1031.04 93.6043 1031.04 93.1902V12.1523C1031.04 11.2573 1030.28 10.4782 1029.39 10.4536C1007.96 9.84292 986.23 9.84292 964.796 10.4536C963.905 10.4782 963.15 11.2573 963.15 12.1523V18.3152C963.15 19.2839 962.364 20.0701 961.395 20.0701C960.427 20.0701 959.641 19.2839 959.641 18.3152V12.1523C959.641 9.3621 961.908 7.02467 964.698 6.94746C986.195 6.33327 1007.99 6.33327 1029.49 6.94746C1032.28 7.02818 1034.55 9.3621 1034.55 12.1523V93.1902C1034.55 94.559 1034.01 95.833 1033.03 96.7841C1032.09 97.7001 1030.86 98.1985 1029.54 98.1985H1029.54Z" fill="#661A0B"/>
<path d="M997.436 98.2967C997.419 98.2967 997.397 98.2967 997.38 98.2967C986.57 97.9563 975.606 97.9247 964.793 98.202C963.421 98.2371 962.129 97.7317 961.15 96.7806C960.178 95.833 959.641 94.5554 959.641 93.1902V58.6376C959.641 57.669 960.427 56.8828 961.395 56.8828C962.364 56.8828 963.15 57.669 963.15 58.6376V93.1902C963.15 93.6008 963.308 93.9834 963.6 94.2677C963.891 94.5519 964.287 94.7099 964.702 94.6923C975.581 94.4151 986.612 94.4466 997.489 94.7871C998.457 94.8187 999.219 95.6259 999.187 96.5946C999.159 97.5457 998.377 98.2932 997.436 98.2932V98.2967Z" fill="#661A0B"/>
<path d="M961.48 52.9415C961.449 52.9415 961.417 52.9415 961.386 52.9415C958.989 52.9274 956.658 52.4466 954.461 51.5166C953.57 51.1375 953.152 50.1092 953.531 49.2177C953.91 48.3263 954.938 47.9086 955.83 48.2877C957.599 49.0387 959.476 49.4248 961.407 49.4353C961.431 49.4353 961.456 49.4353 961.48 49.4353C965.299 49.4353 968.872 47.9437 971.55 45.2308C974.294 42.4511 975.768 38.7414 975.702 34.786C975.561 26.6717 969.019 20.0736 961.119 20.0736H961.112C953.222 20.0876 946.803 26.6401 946.8 34.6807C946.8 37.2568 947.48 39.8013 948.768 42.0335C949.253 42.8723 948.965 43.9462 948.126 44.4306C947.287 44.9149 946.213 44.6271 945.729 43.7883C944.139 41.0192 943.297 37.871 943.297 34.6772C943.297 24.7063 951.292 16.5779 961.115 16.5604H961.122C970.928 16.5604 979.043 24.7063 979.215 34.7229C979.299 39.6294 977.467 44.2375 974.052 47.6945C970.707 51.0814 966.247 52.9415 961.484 52.9415H961.48Z" fill="#661A0B"/>
<path d="M966.389 43.3952C966.108 43.3952 965.831 43.3285 965.571 43.1952L961.258 40.9279L956.945 43.1952C956.355 43.5075 955.635 43.4549 955.095 43.0618C954.554 42.6687 954.284 42.0054 954.396 41.3456L955.221 36.5408L951.729 33.1365C951.252 32.6697 951.08 31.9713 951.283 31.3395C951.49 30.7043 952.038 30.241 952.701 30.1463L957.527 29.4443L959.686 25.0713C959.98 24.4711 960.591 24.0921 961.258 24.0921C961.925 24.0921 962.535 24.4711 962.83 25.0713L964.989 29.4443L969.814 30.1463C970.474 30.241 971.025 30.7043 971.232 31.3395C971.439 31.9748 971.267 32.6732 970.787 33.1365L967.294 36.5408L968.119 41.3456C968.232 42.0054 967.961 42.6687 967.421 43.0618C967.115 43.2829 966.754 43.3987 966.389 43.3987V43.3952ZM961.258 37.1866C961.539 37.1866 961.819 37.2533 962.076 37.3867L964.059 38.429L963.68 36.2215C963.581 35.6529 963.771 35.0703 964.185 34.6667L965.789 33.1014L963.571 32.7785C962.999 32.6943 962.504 32.3363 962.248 31.8169L961.254 29.8058L960.261 31.8169C960.005 32.3363 959.51 32.6943 958.938 32.7785L956.72 33.1014L958.324 34.6667C958.738 35.0703 958.927 35.6494 958.829 36.2215L958.45 38.429L960.433 37.3867C960.689 37.2533 960.97 37.1866 961.251 37.1866H961.258Z" fill="#6473F8"/>
<path d="M1022.27 84.2582H971.927C970.958 84.2582 970.172 83.472 970.172 82.5033C970.172 81.5347 970.958 80.7485 971.927 80.7485H1022.27C1023.23 80.7485 1024.02 81.5347 1024.02 82.5033C1024.02 83.472 1023.23 84.2582 1022.27 84.2582Z" fill="#661A0B"/>
<path d="M1022.27 24.594H972.372C971.403 24.594 970.617 23.8078 970.617 22.8392C970.617 21.8705 971.403 21.0844 972.372 21.0844H1022.27C1023.23 21.0844 1024.02 21.8705 1024.02 22.8392C1024.02 23.8078 1023.23 24.594 1022.27 24.594Z" fill="#661A0B"/>
<path d="M1022.27 36.5268H977.462C976.493 36.5268 975.707 35.7407 975.707 34.772C975.707 33.8033 976.493 33.0172 977.462 33.0172H1022.27C1023.23 33.0172 1024.02 33.8033 1024.02 34.772C1024.02 35.7407 1023.23 36.5268 1022.27 36.5268Z" fill="#661A0B"/>
<path d="M1022.27 48.4596H972.552C971.583 48.4596 970.797 47.6735 970.797 46.7048C970.797 45.7361 971.583 44.95 972.552 44.95H1022.27C1023.23 44.95 1024.02 45.7361 1024.02 46.7048C1024.02 47.6735 1023.23 48.4596 1022.27 48.4596Z" fill="#661A0B"/>
<path d="M1022.27 60.3925H971.927C970.958 60.3925 970.172 59.6063 970.172 58.6376C970.172 57.669 970.958 56.8828 971.927 56.8828H1022.27C1023.23 56.8828 1024.02 57.669 1024.02 58.6376C1024.02 59.6063 1023.23 60.3925 1022.27 60.3925Z" fill="#661A0B"/>
<path d="M1022.27 72.3253H971.927C970.958 72.3253 970.172 71.5392 970.172 70.5705C970.172 69.6018 970.958 68.8157 971.927 68.8157H1022.27C1023.23 68.8157 1024.02 69.6018 1024.02 70.5705C1024.02 71.5392 1023.23 72.3253 1022.27 72.3253Z" fill="#661A0B"/>
<path d="M1161.41 150.077V136.894H1165.95C1169.62 136.894 1172.54 139.7 1172.54 143.485C1172.54 147.271 1169.54 150.077 1165.85 150.077H1161.41ZM1165.82 138.193H1162.92V148.796H1165.82C1168.75 148.796 1171.01 146.574 1171.01 143.485C1171.01 140.453 1168.74 138.193 1165.82 138.193ZM1178.17 150.077V136.894H1179.68V150.077H1178.17ZM1185.08 149.173V147.61C1186.46 148.589 1187.62 149.022 1188.87 149.022C1190.6 149.022 1191.62 148.118 1191.62 146.819C1191.62 145.858 1191.14 145.161 1189.45 144.314L1187.3 143.221C1185.74 142.412 1185.02 141.414 1185.02 140.076C1185.02 138.212 1186.44 136.705 1188.9 136.705C1190.35 136.705 1191.5 137.12 1192.33 137.703V139.342C1191.11 138.363 1189.96 137.948 1188.87 137.948C1187.43 137.948 1186.46 138.739 1186.46 139.888C1186.46 140.698 1186.87 141.395 1188.28 142.11L1190.37 143.165C1192.22 144.107 1193.07 145.105 1193.07 146.668C1193.07 148.777 1191.43 150.265 1188.9 150.265C1187.53 150.265 1186.06 149.851 1185.08 149.173ZM1204.74 150.265C1200.71 150.265 1197.79 147.402 1197.79 143.485C1197.79 139.587 1200.74 136.705 1204.79 136.705C1206.79 136.705 1208.39 137.346 1209.52 138.306V140.095C1208.2 138.739 1206.62 138.042 1204.77 138.042C1201.53 138.042 1199.29 140.397 1199.29 143.485C1199.29 146.593 1201.53 148.947 1204.79 148.947C1206.62 148.947 1208.35 148.231 1209.52 146.988V148.645C1208.41 149.606 1206.69 150.265 1204.74 150.265ZM1222.97 144.276H1219.45V147.93H1218.12V144.276H1214.59V143.09H1218.12V139.38H1219.45V143.09H1222.97V144.276Z" fill="#661A0B"/>
<path fill-rule="evenodd" clip-rule="evenodd" d="M1190.18 15.3146C1193.92 15.3146 1197.53 15.8682 1200.94 16.8985C1201.87 17.1808 1202.4 18.1663 1202.11 19.0997C1201.83 20.033 1200.85 20.5607 1199.91 20.2783C1196.83 19.3472 1193.57 18.8458 1190.18 18.8458V15.3146Z" fill="#D7E85E"/>
<path fill-rule="evenodd" clip-rule="evenodd" d="M1221.54 36.0484C1222.43 35.6413 1223.48 36.0295 1223.89 36.9156C1226.05 41.6297 1227.26 46.8702 1227.26 52.3917C1227.26 53.3668 1226.47 54.1573 1225.49 54.1573C1224.52 54.1573 1223.73 53.3668 1223.73 52.3917C1223.73 47.3905 1222.64 42.652 1220.68 38.3899C1220.27 37.5038 1220.66 36.4555 1221.54 36.0484Z" fill="#D7E85E"/>
<path fill-rule="evenodd" clip-rule="evenodd" d="M1153.11 52.3917C1153.11 31.9141 1169.7 15.3146 1190.18 15.3146V18.8458C1171.66 18.8458 1156.64 33.8643 1156.64 52.3917H1153.11Z" fill="#E05D52"/>
<path fill-rule="evenodd" clip-rule="evenodd" d="M1190.18 89.4688C1169.7 89.4688 1153.11 72.8694 1153.11 52.3917H1156.64C1156.64 70.9192 1171.66 85.9377 1190.18 85.9377V89.4688Z" fill="#053F44"/>
<path fill-rule="evenodd" clip-rule="evenodd" d="M1227.26 52.3917C1227.26 72.8694 1210.66 89.4688 1190.18 89.4688V85.9377C1208.71 85.9377 1223.73 70.9192 1223.73 52.3917H1227.26Z" fill="#6473F8"/>
<path fill-rule="evenodd" clip-rule="evenodd" d="M1190.18 22.377C1191.16 22.377 1191.95 23.1674 1191.95 24.1425V80.6409C1191.95 81.616 1191.16 82.4065 1190.18 82.4065C1189.21 82.4065 1188.42 81.616 1188.42 80.6409V24.1425C1188.42 23.1674 1189.21 22.377 1190.18 22.377Z" fill="#661A0B"/>
<path fill-rule="evenodd" clip-rule="evenodd" d="M1160.17 52.3918C1160.17 51.4167 1160.96 50.6262 1161.93 50.6262H1218.43C1219.41 50.6262 1220.2 51.4167 1220.2 52.3918C1220.2 53.3669 1219.41 54.1573 1218.43 54.1573H1161.93C1160.96 54.1573 1160.17 53.3669 1160.17 52.3918Z" fill="#661A0B"/>
<path d="M1170.29 32.0876H1175.47C1179.03 32.0876 1181.93 34.5065 1181.93 38.2671C1181.93 42.0278 1178.87 44.4466 1175.38 44.4466H1170.29V32.0876ZM1173.31 34.5947V42.0102H1175.08C1177.44 42.0102 1178.89 40.4564 1178.89 38.2848C1178.89 36.1131 1177.43 34.5947 1175.08 34.5947H1173.31Z" fill="#661A0B"/>
<path d="M1201.67 32.0876H1204.69V44.4466H1201.67V32.0876Z" fill="#661A0B"/>
<path d="M1171.9 68.9352C1173.76 70.0511 1174.96 70.3936 1175.99 70.3936C1177.02 70.3936 1177.57 69.9628 1177.57 69.2777C1177.57 68.7445 1177.24 68.349 1176.31 67.9747L1174.17 67.0814C1172.47 66.3787 1171.71 65.3122 1171.71 63.8715C1171.71 61.7952 1173.31 60.2662 1176.14 60.2662C1177.74 60.2662 1178.97 60.6794 1179.78 61.1773V63.9739C1178.2 62.8934 1176.98 62.565 1175.97 62.565C1175.09 62.565 1174.56 63.0099 1174.56 63.5961C1174.56 64.0763 1174.87 64.4718 1175.74 64.832L1177.84 65.6901C1179.71 66.4634 1180.5 67.4768 1180.5 68.9846C1180.5 71.1139 1178.76 72.6253 1176.02 72.6253C1174.38 72.6253 1172.99 72.2474 1171.89 71.5942V68.9352H1171.9Z" fill="#661A0B"/>
<path d="M1197.78 66.4457C1197.78 62.8122 1200.56 60.2662 1204.36 60.2662C1206.19 60.2662 1207.61 60.7994 1208.58 61.5586V64.5531C1207.32 63.4337 1206.04 62.8828 1204.58 62.8828C1202.17 62.8828 1200.78 64.5001 1200.78 66.4634C1200.78 68.4267 1202.21 70.097 1204.62 70.097C1206.19 70.097 1207.51 69.4931 1208.58 68.4797V71.3364C1207.44 72.1627 1206.01 72.6288 1204.29 72.6288C1200.49 72.6288 1197.78 70.097 1197.78 66.4493L1197.78 66.4457Z" fill="#661A0B"/>
<path fill-rule="evenodd" clip-rule="evenodd" d="M1219.57 12.2708C1220.55 12.2727 1221.34 13.0647 1221.33 14.0398C1221.33 15.8412 1221.33 17.6425 1221.32 19.4429L1221.32 19.4501C1221.32 21.2482 1221.31 23.0454 1221.31 24.8416C1221.31 25.8167 1220.51 26.6056 1219.54 26.6037C1218.56 26.6018 1217.78 25.8098 1217.78 24.8347C1217.78 23.0373 1217.79 21.2392 1217.79 19.4411L1217.79 19.4342C1217.79 17.6337 1217.8 15.8333 1217.8 14.0329C1217.8 13.0578 1218.6 12.2689 1219.57 12.2708Z" fill="#661A0B"/>
<path fill-rule="evenodd" clip-rule="evenodd" d="M1213.11 19.2739C1213.13 18.2991 1213.94 17.5274 1214.91 17.5504L1224.38 17.7728C1225.35 17.7957 1226.12 18.6046 1226.1 19.5794C1226.08 20.5543 1225.27 21.3259 1224.29 21.303L1214.83 21.0805C1213.85 21.0576 1213.08 20.2488 1213.11 19.2739Z" fill="#661A0B"/>
<path fill-rule="evenodd" clip-rule="evenodd" d="M1206.65 19.439C1206.65 12.2844 1212.45 6.48672 1219.6 6.48672C1226.76 6.48672 1232.56 12.2883 1232.56 19.439C1232.56 23.2458 1230.91 26.6741 1228.29 29.0429C1227.57 29.6971 1226.45 29.6413 1225.8 28.9183C1225.14 28.1952 1225.2 27.0787 1225.92 26.4245C1227.83 24.6971 1229.03 22.2071 1229.03 19.439C1229.03 14.2377 1224.81 10.0179 1219.6 10.0179C1214.4 10.0179 1210.18 14.2346 1210.18 19.439C1210.18 24.6434 1214.4 28.8601 1219.6 28.8601C1220.58 28.8601 1221.37 29.6506 1221.37 30.6257C1221.37 31.6008 1220.58 32.3913 1219.6 32.3913C1212.45 32.3913 1206.65 26.5936 1206.65 19.439Z" fill="#661A0B"/>
<path fill-rule="evenodd" clip-rule="evenodd" d="M1190.18 10.0179C1166.78 10.0179 1147.81 28.9878 1147.81 52.3917C1147.81 75.7957 1166.78 94.7655 1190.18 94.7655C1213.59 94.7655 1232.56 75.7957 1232.56 52.3917C1232.56 47.0762 1231.58 41.9925 1229.79 37.3107L1229.79 37.3091C1229.55 36.6599 1229.28 36.0152 1229 35.3747C1228.61 34.481 1229.02 33.4404 1229.92 33.0505C1230.81 32.6607 1231.85 33.0692 1232.24 33.963C1232.54 34.6498 1232.83 35.3463 1233.09 36.0525C1235.03 41.1309 1236.09 46.6406 1236.09 52.3917C1236.09 77.7459 1215.54 98.2967 1190.18 98.2967C1164.83 98.2967 1144.28 77.7459 1144.28 52.3917C1144.28 27.0375 1164.83 6.48676 1190.18 6.48676C1197.74 6.48676 1204.89 8.31539 1211.18 11.5595C1212.05 12.0063 1212.39 13.0711 1211.94 13.9378C1211.49 14.8045 1210.43 15.145 1209.56 14.6982C1203.76 11.7063 1197.17 10.0179 1190.18 10.0179Z" fill="#661A0B"/>
<path d="M1367.13 148.909C1365.78 149.794 1363.97 150.265 1362.2 150.265C1358.02 150.265 1355.1 147.402 1355.1 143.485C1355.1 139.587 1358.08 136.705 1362.24 136.705C1364.14 136.705 1365.78 137.252 1366.95 138.193V139.945C1365.48 138.589 1363.91 138.024 1362.24 138.024C1358.85 138.024 1356.63 140.415 1356.63 143.485C1356.63 146.574 1358.85 148.947 1362.33 148.947C1363.54 148.947 1364.67 148.683 1365.67 148.193V144.86H1362.75V143.579H1367.13V148.909ZM1379.14 136.705C1382.95 136.705 1385.9 139.587 1385.9 143.485C1385.9 147.346 1382.91 150.265 1379.11 150.265C1375.32 150.265 1372.34 147.384 1372.34 143.504C1372.34 139.643 1375.36 136.705 1379.14 136.705ZM1379.12 138.024C1376.11 138.024 1373.85 140.434 1373.85 143.504C1373.85 146.48 1376.11 148.947 1379.12 148.947C1382.16 148.947 1384.4 146.498 1384.4 143.485C1384.4 140.491 1382.16 138.024 1379.12 138.024ZM1400.31 150.077L1398.72 146.216H1392.68L1391.1 150.077H1389.55L1395.11 136.894H1396.33L1401.87 150.077H1400.31ZM1393.19 144.973H1398.21L1395.71 138.852L1393.19 144.973ZM1414.57 148.815V150.077H1406.77V136.894H1408.28V148.815H1414.57ZM1418.92 149.173V147.61C1420.3 148.589 1421.46 149.022 1422.71 149.022C1424.44 149.022 1425.46 148.118 1425.46 146.819C1425.46 145.858 1424.98 145.161 1423.29 144.314L1421.14 143.222C1419.58 142.412 1418.86 141.414 1418.86 140.076C1418.86 138.212 1420.28 136.705 1422.74 136.705C1424.19 136.705 1425.34 137.12 1426.17 137.704V139.342C1424.95 138.363 1423.8 137.948 1422.71 137.948C1421.27 137.948 1420.3 138.739 1420.3 139.888C1420.3 140.698 1420.71 141.395 1422.12 142.11L1424.21 143.165C1426.06 144.107 1426.91 145.105 1426.91 146.668C1426.91 148.777 1425.27 150.265 1422.74 150.265C1421.37 150.265 1419.9 149.851 1418.92 149.173Z" fill="#661A0B"/>
<path d="M1430.23 98.2717H1418.19C1417.22 98.2717 1416.43 97.4808 1416.43 96.5062C1416.43 95.5316 1417.22 94.7406 1418.19 94.7406H1428.45L1408.05 55.3082L1403.6 63.9278C1403.15 64.7929 1402.08 65.1319 1401.22 64.6834C1400.35 64.235 1400.01 63.1686 1400.46 62.3034L1405.93 51.7347C1406.35 50.9261 1407.16 50.4211 1408.05 50.4211C1408.94 50.4211 1409.76 50.9225 1410.18 51.7347L1432.36 94.6241C1432.74 95.3585 1432.74 96.2343 1432.36 96.9652C1431.94 97.7703 1431.12 98.2682 1430.23 98.2682V98.2717Z" fill="#661A0B"/>
<path d="M1355.3 98.2718H1343.26C1342.37 98.2718 1341.56 97.7704 1341.14 96.9688C1340.76 96.2378 1340.75 95.3621 1341.13 94.6276L1363.32 51.7383C1363.74 50.9296 1364.55 50.4247 1365.44 50.4247C1366.33 50.4247 1367.15 50.9261 1367.57 51.7383L1369.63 55.7179C1370.07 56.583 1369.74 57.6494 1368.87 58.0979C1368 58.5463 1366.94 58.2073 1366.49 57.3422L1365.44 55.3153L1345.05 94.7406H1355.3C1356.28 94.7406 1357.07 95.5316 1357.07 96.5062C1357.07 97.4808 1356.28 98.2718 1355.3 98.2718Z" fill="#661A0B"/>
<path d="M1402.47 24.3718H1386.75C1385.77 24.3718 1384.98 23.5808 1384.98 22.6062V11.0735C1384.98 10.0989 1385.77 9.30792 1386.75 9.30792H1402.47C1403.04 9.30792 1403.58 9.58688 1403.91 10.0601C1404.24 10.5297 1404.32 11.1335 1404.13 11.6738L1402.26 16.8399L1404.13 22.0059C1404.32 22.5462 1404.24 23.15 1403.91 23.6197C1403.58 24.0893 1403.04 24.3718 1402.47 24.3718V24.3718ZM1388.51 20.8407H1399.95L1398.72 17.4402C1398.58 17.0517 1398.58 16.628 1398.72 16.2431L1399.95 12.8426H1388.51V20.8442V20.8407Z" fill="#6473F8"/>
<path d="M1386.74 56.3075C1385.86 56.3075 1384.99 55.9756 1384.32 55.3753L1381.23 52.6387L1379.87 53.8393C1379.19 54.4431 1378.33 54.775 1377.44 54.775C1376.55 54.775 1375.64 54.4254 1374.95 53.7934C1373.64 52.5822 1373.28 50.5941 1374.07 48.9522L1383.38 29.718C1384.03 28.3761 1385.32 27.5428 1386.75 27.5428C1388.18 27.5428 1389.47 28.3761 1390.12 29.718L1393.65 37.3876C1394.06 38.274 1393.67 39.3227 1392.79 39.7288C1391.9 40.1384 1390.85 39.75 1390.45 38.8637L1386.93 31.2258C1386.88 31.1304 1386.79 31.0739 1386.76 31.0739C1386.72 31.0739 1386.63 31.1304 1386.56 31.2576L1377.26 50.4882C1377.14 50.7424 1377.21 51.0603 1377.36 51.1944C1377.38 51.2121 1377.42 51.2439 1377.45 51.2439C1377.48 51.2439 1377.52 51.2156 1377.54 51.198L1380.06 48.9592C1380.73 48.366 1381.73 48.366 1382.4 48.9592L1386.66 52.7305C1386.67 52.7481 1386.71 52.7764 1386.74 52.7764C1386.78 52.7764 1386.82 52.7481 1386.83 52.7305L1391.09 48.9592C1391.76 48.366 1392.76 48.366 1393.43 48.9592L1395.96 51.205C1395.98 51.2227 1396.02 51.2509 1396.05 51.2509C1396.08 51.2509 1396.12 51.2227 1396.14 51.2015C1396.29 51.0673 1396.36 50.7495 1396.24 50.4953L1394.97 47.8575C1394.54 46.9782 1394.91 45.9224 1395.78 45.4987C1396.66 45.075 1397.72 45.4422 1398.14 46.3179L1399.42 48.9557C1400.21 50.5977 1399.85 52.5892 1398.54 53.7969C1397.85 54.4325 1396.97 54.7821 1396.05 54.7821C1395.14 54.7821 1394.3 54.4502 1393.62 53.8499L1392.26 52.6422L1389.17 55.3753C1388.49 55.9791 1387.63 56.3111 1386.74 56.3111L1386.74 56.3075Z" fill="#661A0B"/>
<path d="M1355.31 98.2965C1355.05 98.2965 1354.79 98.24 1354.54 98.1199C1353.66 97.6962 1353.29 96.6404 1353.72 95.7611L1374.91 51.9713C1375.33 51.0921 1376.39 50.7248 1377.27 51.1521C1378.15 51.5758 1378.51 52.6317 1378.09 53.5109L1356.9 97.3007C1356.6 97.9293 1355.96 98.2965 1355.31 98.2965H1355.31Z" fill="#661A0B"/>
<path d="M1386.75 31.0704C1385.77 31.0704 1384.98 30.2795 1384.98 29.3049V8.25215C1384.98 7.27755 1385.77 6.48657 1386.75 6.48657C1387.72 6.48657 1388.51 7.27755 1388.51 8.25215V29.3049C1388.51 30.2795 1387.72 31.0704 1386.75 31.0704Z" fill="#661A0B"/>
<path d="M1365.9 98.2965C1365.04 98.2965 1364.3 97.675 1364.16 96.8064C1364.01 95.8424 1364.66 94.9384 1365.63 94.7866C1382.05 92.1841 1398.7 92.0217 1415.16 94.2957L1395.55 53.7758C1395.13 52.8965 1395.49 51.8407 1396.37 51.417C1397.25 50.9932 1398.3 51.3605 1398.73 52.2362L1419.79 95.7612C1420.05 96.3085 1420.02 96.9547 1419.7 97.4667C1419.33 98.0599 1418.62 98.3813 1417.92 98.2718C1400.76 95.5528 1383.35 95.5528 1366.18 98.2718C1366.09 98.2859 1365.99 98.293 1365.9 98.293L1365.9 98.2965Z" fill="#661A0B"/>
</g>
<defs>
<clipPath id="clip0_5872_46099">
<rect width="1575" height="159.563" fill="white" transform="translate(0 0.100433)"/>
</clipPath>
</defs>
</svg>
