<svg width="592" height="431" viewBox="0 0 592 431" fill="none" xmlns="http://www.w3.org/2000/svg">
<g clip-path="url(#clip0_5872_45436)">
<rect x="1.55223" y="0.517074" width="296.8" height="365.054" rx="9.8244" fill="white" stroke="#E4DFDD" stroke-width="1.03415"/>
<rect x="53.0742" y="266.474" width="77.4408" height="22.7272" transform="rotate(-90 53.0742 266.474)" fill="#E05D52"/>
<rect x="46.6376" y="213.149" width="44.021" height="35.6035" transform="rotate(-90 46.6376 213.149)" stroke="#661A0B" stroke-width="2.27512"/>
<rect x="47.1836" y="286.677" width="34.5117" height="34.5117" rx="17.2558" fill="#E05D52"/>
<path d="M69.7039 303.936C69.7039 306.057 69.1787 307.714 68.2292 308.926C67.0575 310.421 65.8454 310.886 63.2393 310.886H59.7848V296.906H62.6939C65.3201 296.906 66.8757 297.391 68.1888 298.886C69.2191 300.078 69.7039 301.754 69.7039 303.936ZM67.1181 304.179C67.1181 302.381 66.9565 300.946 66.2292 299.956C65.5827 299.067 64.8555 298.744 63.603 298.744H62.1282V308.987H63.6636C66.1282 308.987 67.1181 307.35 67.1181 304.179Z" fill="#F9F7F2"/>
<rect x="109.57" y="266.474" width="167.508" height="22.7272" transform="rotate(-90 109.57 266.474)" fill="#D7E85E"/>
<rect x="103.134" y="138.232" width="44.021" height="35.6035" transform="rotate(-90 103.134 138.232)" stroke="#661A0B" stroke-width="2.27512"/>
<rect x="103.68" y="286.675" width="34.5117" height="34.5117" rx="17.2558" fill="#D7E85E"/>
<path d="M122.127 310.884H119.743V296.904H122.127V310.884Z" fill="#053F44"/>
<rect x="166.059" y="266.474" width="138.888" height="22.7272" transform="rotate(-90 166.059 266.474)" fill="#067B85"/>
<rect x="159.622" y="158.434" width="44.021" height="35.6035" transform="rotate(-90 159.622 158.434)" stroke="#661A0B" stroke-width="2.27512"/>
<rect x="160.168" y="286.676" width="34.5117" height="34.5117" rx="17.2558" fill="#053F44"/>
<path d="M182.448 306.663C182.448 308.986 180.569 311.148 176.993 311.148C175.397 311.148 173.781 310.724 172.407 309.895L173.296 308.117C174.549 308.845 175.66 309.269 177.074 309.269C178.791 309.269 179.821 308.441 179.821 307.047C179.821 306.016 179.175 305.37 177.741 304.966L176.246 304.542C174.973 304.178 174.064 303.653 173.539 302.865C173.155 302.299 172.953 301.633 172.953 300.825C172.953 298.36 174.892 296.683 177.7 296.683C179.296 296.683 180.892 297.148 182.124 298.016L181.074 299.653C179.781 298.885 178.892 298.582 177.781 298.582C176.407 298.582 175.498 299.33 175.498 300.481C175.498 301.35 175.983 301.794 177.357 302.198L179.013 302.683C181.034 303.269 182.448 304.562 182.448 306.663Z" fill="#F9F7F2"/>
<rect x="222.555" y="266.475" width="119.528" height="22.7272" transform="rotate(-90 222.555 266.475)" fill="#6473F8"/>
<rect x="216.118" y="234.192" width="44.021" height="35.6035" transform="rotate(-90 216.118 234.192)" stroke="#661A0B" stroke-width="2.27512"/>
<rect x="216.664" y="286.677" width="34.5117" height="34.5117" rx="17.2558" fill="#6473F8"/>
<path d="M239.04 309.876C237.949 310.704 236.717 311.108 235.222 311.108C233.363 311.108 231.889 310.401 230.798 309.088C229.747 307.815 229.202 306.118 229.202 304.098C229.202 302.421 229.505 301.027 230.131 299.855C231.182 297.855 233.101 296.643 235.283 296.643C236.636 296.643 237.929 297.047 238.757 297.734L237.687 299.27C236.939 298.724 236.171 298.482 235.303 298.482C234.111 298.482 233.121 299.088 232.515 300.159C232.03 301.007 231.788 302.179 231.788 303.835C231.788 305.552 231.969 306.522 232.333 307.31C232.939 308.643 234.091 309.29 235.444 309.29C236.434 309.29 237.161 309.027 237.949 308.401L239.04 309.876Z" fill="#F9F7F2"/>
<line y1="65.668" x2="298.869" y2="65.668" stroke="#E4DFDD" stroke-width="1.03415"/>
<path d="M37.5403 41.7002C36.4792 42.5058 35.2807 42.8988 33.8267 42.8988C32.019 42.8988 30.5846 42.211 29.5236 40.9339C28.5018 39.696 27.9713 38.0455 27.9713 36.0806C27.9713 34.4498 28.266 33.094 28.8752 31.9544C29.8969 30.0091 31.7635 28.8302 33.8856 28.8302C35.2021 28.8302 36.4596 29.2232 37.2652 29.8912L36.2238 31.3846C35.4968 30.854 34.7501 30.6183 33.9052 30.6183C32.746 30.6183 31.7832 31.2077 31.1937 32.2491C30.7221 33.0744 30.4864 34.214 30.4864 35.8252C30.4864 37.4953 30.6632 38.4385 31.0169 39.2048C31.6063 40.5016 32.7263 41.1304 34.0428 41.1304C35.0056 41.1304 35.7129 40.8749 36.4792 40.2658L37.5403 41.7002ZM47.4554 42.6826H45.353V35.9234C45.353 34.6856 44.9207 34.3319 44.0955 34.3319C43.3291 34.3319 42.4057 34.8231 41.6983 35.5501V42.6826H39.5173V30.854C39.5173 29.9698 39.4387 29.2035 39.3208 28.6927L41.5018 28.2211C41.6394 28.7909 41.6983 29.5965 41.6983 30.5593V32.6814C41.6983 33.2315 41.659 33.7031 41.659 33.8014C42.6414 32.9172 43.6435 32.5045 44.7046 32.5045C45.8835 32.5045 46.7873 33.0744 47.1214 33.7228C47.3768 34.214 47.4554 34.6659 47.4554 35.668V42.6826ZM56.1052 32.6224L55.4371 34.6266C55.221 34.548 55.0638 34.4891 54.828 34.4891C53.9241 34.4891 53.1578 35.1571 52.9614 35.9627V42.6826H50.8V35.668C50.8 34.4105 50.6624 33.6049 50.4463 32.9958L52.4308 32.4849C52.6666 32.9368 52.8042 33.5066 52.8042 34.0568C53.5901 32.9761 54.3761 32.4652 55.3389 32.4652C55.6532 32.4652 55.8497 32.5045 56.1052 32.6224ZM59.7353 42.6826H57.5543V32.8975L59.7353 32.5045V42.6826ZM60.089 29.8323C60.089 30.6183 59.4405 31.2667 58.6349 31.2667C57.849 31.2667 57.2399 30.6183 57.2399 29.8323C57.2399 29.0267 57.8686 28.3783 58.6742 28.3783C59.4405 28.3783 60.089 29.0071 60.089 29.8323ZM69.8443 39.5781C69.8443 41.5823 68.2134 42.9577 65.8163 42.9577C64.598 42.9577 63.2816 42.5647 62.0044 41.8574L62.7707 40.3051C63.6549 40.816 64.8731 41.3465 65.9931 41.3465C66.9363 41.3465 67.6043 40.7767 67.6043 39.9514C67.6043 39.1851 67.1131 38.7922 65.9931 38.5564L64.7945 38.3009C63.3012 37.9866 62.417 36.9648 62.417 35.5698C62.417 33.7031 63.9103 32.4063 66.111 32.4063C67.4668 32.4063 68.5475 32.8189 69.3924 33.2708L68.685 34.7642C67.7615 34.2729 67.0345 34.0371 66.2485 34.0371C65.3251 34.0371 64.7356 34.548 64.7356 35.3143C64.7356 35.9234 65.0696 36.2378 66.0717 36.4932L67.3096 36.8076C69.3138 37.3185 69.8443 38.4188 69.8443 39.5781ZM76.8489 42.5058C76.2005 42.8005 75.5717 42.9381 74.9037 42.9381C72.9781 42.9381 72.31 41.7984 72.31 40.3837V34.2336H71.2097V32.7403H72.31C72.31 31.8954 72.31 31.0309 72.4083 30.2842L74.6286 29.7537C74.5304 30.5593 74.4518 31.7579 74.4518 32.7403H76.8293L76.2595 34.2336H74.4321V39.8139C74.4321 41.0518 74.7072 41.4054 75.6503 41.4054C75.9451 41.4054 76.2005 41.3465 76.5738 41.209L76.8489 42.5058ZM81.1878 42.6826H79.0068V32.8975L81.1878 32.5045V42.6826ZM81.5415 29.8323C81.5415 30.6183 80.893 31.2667 80.0874 31.2667C79.3015 31.2667 78.6924 30.6183 78.6924 29.8323C78.6924 29.0267 79.3211 28.3783 80.1267 28.3783C80.893 28.3783 81.5415 29.0071 81.5415 29.8323ZM92.1174 42.6826H89.9757V36.0806C89.9757 34.7249 89.6613 34.3515 88.8361 34.3515C88.2073 34.3515 87.3035 34.8231 86.6551 35.4715V42.6826H84.533V35.3733C84.533 34.3319 84.4347 33.7228 84.1597 33.0154L86.1245 32.4652C86.3603 32.9172 86.4782 33.3494 86.4782 33.88C87.5392 32.9761 88.4627 32.5045 89.5238 32.5045C91.0564 32.5045 92.1174 33.428 92.1174 35.2554V42.6826ZM103.079 41.7198L101.959 43.0952C101.35 42.8595 100.839 42.3879 100.604 41.7591C99.7981 42.663 98.9336 42.9773 97.8725 42.9773C95.5933 42.9773 94.5715 41.7198 94.5715 39.9907C94.5715 37.6918 96.3006 36.5325 99.4837 36.5325H100.152V36.002C100.152 34.8624 99.9553 34.2533 98.7764 34.2533C97.4992 34.2533 96.1238 35.1571 95.8094 35.3929L94.8466 33.8407C96.3399 32.8975 97.5778 32.4849 99.0711 32.4849C100.623 32.4849 101.665 33.0547 102.097 34.1354C102.274 34.5677 102.274 35.0982 102.254 36.5718L102.215 39.4209C102.195 40.757 102.313 41.1893 103.079 41.7198ZM100.112 38.0062C100.073 38.0062 99.857 37.9866 99.7195 37.9866C97.5581 37.9866 96.9097 38.6153 96.9097 39.8728C96.9097 40.816 97.4206 41.4054 98.2851 41.4054C98.9729 41.4054 99.6409 40.9928 100.073 40.3641L100.112 38.0062ZM108.274 30.9523C108.274 31.7775 107.999 32.5438 107.508 33.1922C107.076 33.7424 106.388 34.214 105.7 34.4498L104.895 33.487C105.7 33.2315 106.231 32.6617 106.231 32.0919C106.231 31.974 106.015 31.7775 105.799 31.6793C105.288 31.4632 104.954 31.0112 104.954 30.3628C104.954 29.4786 105.641 28.7909 106.506 28.7909C107.528 28.7909 108.274 29.6948 108.274 30.9523ZM117.988 39.5781C117.988 41.5823 116.357 42.9577 113.96 42.9577C112.741 42.9577 111.425 42.5647 110.148 41.8574L110.914 40.3051C111.798 40.816 113.017 41.3465 114.137 41.3465C115.08 41.3465 115.748 40.7767 115.748 39.9514C115.748 39.1851 115.256 38.7922 114.137 38.5564L112.938 38.3009C111.445 37.9866 110.56 36.9648 110.56 35.5698C110.56 33.7031 112.054 32.4063 114.254 32.4063C115.61 32.4063 116.691 32.8189 117.536 33.2708L116.828 34.7642C115.905 34.2729 115.178 34.0371 114.392 34.0371C113.468 34.0371 112.879 34.548 112.879 35.3143C112.879 35.9234 113.213 36.2378 114.215 36.4932L115.453 36.8076C117.457 37.3185 117.988 38.4188 117.988 39.5781ZM134.418 35.9234C134.418 37.9866 133.907 39.5978 132.984 40.7767C131.844 42.2307 130.665 42.6826 128.131 42.6826H124.771V29.0856H127.6C130.155 29.0856 131.668 29.5572 132.945 31.0112C133.947 32.1705 134.418 33.8014 134.418 35.9234ZM131.903 36.1592C131.903 34.4105 131.746 33.0154 131.039 32.0526C130.41 31.1881 129.703 30.8737 128.484 30.8737H127.05V40.8356H128.543C130.941 40.8356 131.903 39.2441 131.903 36.1592ZM139.485 42.6826H137.166V29.0856H139.485V42.6826ZM151.905 38.576C151.905 40.8356 150.077 42.9381 146.6 42.9381C145.047 42.9381 143.475 42.5254 142.139 41.7198L143.004 39.9907C144.222 40.6981 145.303 41.1107 146.678 41.1107C148.348 41.1107 149.35 40.3051 149.35 38.9493C149.35 37.9473 148.722 37.3185 147.327 36.9255L145.873 36.5129C144.635 36.1592 143.75 35.6483 143.24 34.882C142.866 34.3319 142.67 33.6835 142.67 32.8975C142.67 30.5004 144.556 28.8695 147.287 28.8695C148.84 28.8695 150.392 29.3214 151.59 30.1663L150.569 31.7579C149.311 31.0112 148.447 30.7165 147.366 30.7165C146.03 30.7165 145.146 31.4435 145.146 32.5635C145.146 33.4084 145.617 33.8407 146.953 34.2336L148.564 34.7052C150.529 35.275 151.905 36.5325 151.905 38.576ZM163.531 41.7002C162.469 42.5058 161.271 42.8988 159.817 42.8988C158.009 42.8988 156.575 42.211 155.514 40.9339C154.492 39.696 153.962 38.0455 153.962 36.0806C153.962 34.4498 154.256 33.094 154.865 31.9544C155.887 30.0091 157.754 28.8302 159.876 28.8302C161.192 28.8302 162.45 29.2232 163.255 29.8912L162.214 31.3846C161.487 30.854 160.74 30.6183 159.895 30.6183C158.736 30.6183 157.773 31.2077 157.184 32.2491C156.712 33.0744 156.477 34.214 156.477 35.8252C156.477 37.4953 156.653 38.4385 157.007 39.2048C157.597 40.5016 158.717 41.1304 160.033 41.1304C160.996 41.1304 161.703 40.8749 162.469 40.2658L163.531 41.7002ZM175.126 38.1241H171.216V42.0539H169.212V38.1241H165.302V36.0806H169.212V32.1509H171.216V36.0806H175.126V38.1241ZM191.237 33.1529C191.237 35.8252 189.292 37.4953 186.836 37.4953H184.537V42.6826H182.297V29.0856H185.913C187.897 29.0856 188.624 29.2821 189.371 29.7341C190.569 30.4414 191.237 31.6596 191.237 33.1529ZM188.742 33.2905C188.742 32.5438 188.565 31.974 188.192 31.581C187.779 31.1488 187.19 30.913 186.306 30.913H184.537V35.6876H186.306C187.976 35.6876 188.742 34.9017 188.742 33.2905ZM198.712 32.6224L198.044 34.6266C197.828 34.548 197.671 34.4891 197.435 34.4891C196.531 34.4891 195.765 35.1571 195.569 35.9627V42.6826H193.407V35.668C193.407 34.4105 193.27 33.6049 193.054 32.9958L195.038 32.4849C195.274 32.9368 195.411 33.5066 195.411 34.0568C196.197 32.9761 196.983 32.4652 197.946 32.4652C198.261 32.4652 198.457 32.5045 198.712 32.6224ZM208.084 37.7508C208.084 40.9535 206.375 42.9381 203.683 42.9381C200.991 42.9381 199.301 40.9142 199.301 37.7311C199.301 34.548 201.011 32.5045 203.644 32.5045C206.473 32.5045 208.084 34.607 208.084 37.7508ZM205.707 37.7901C205.707 34.9803 204.921 34.1354 203.663 34.1354C202.288 34.1354 201.698 35.1768 201.698 37.5936C201.698 40.482 202.425 41.3269 203.722 41.3269C204.999 41.3269 205.707 40.2855 205.707 37.7901ZM218.79 42.6826H216.59V34.2336H212.876V42.6826H210.734V34.2336H209.811V32.7403H210.754C210.754 32.4259 210.715 31.5417 210.715 31.2667C210.715 29.2428 211.972 28.2408 213.741 28.2408C214.566 28.2408 215.371 28.4372 215.863 28.7123L215.155 30.0877C214.841 29.9502 214.409 29.8323 214.075 29.8323C213.328 29.8323 212.856 30.3432 212.856 31.2274V32.7403H218.79V42.6826ZM219.124 29.8323C219.124 30.6183 218.496 31.2667 217.69 31.2667C216.904 31.2667 216.275 30.6183 216.275 29.8323C216.275 29.0267 216.924 28.3783 217.71 28.3783C218.496 28.3783 219.124 29.0071 219.124 29.8323ZM225.514 42.663C225.121 42.8202 224.708 42.8988 224.217 42.8988C222.036 42.8988 222.036 40.9339 222.036 40.089V31.6203C222.036 30.2646 221.977 29.5376 221.84 28.7123L224.06 28.2211C224.217 28.8302 224.237 29.6555 224.237 30.9523V39.3816C224.237 40.7177 224.296 40.9339 224.453 41.1697C224.571 41.3465 224.905 41.4447 225.16 41.3269L225.514 42.663ZM235.304 38.3009H229.37V38.4581C229.37 39.8335 229.881 41.2876 231.826 41.2876C232.749 41.2876 233.555 40.9535 234.301 40.3051L235.146 41.6216C234.105 42.5058 232.906 42.9381 231.57 42.9381C228.761 42.9381 226.992 40.9142 226.992 37.7311C226.992 35.9824 227.365 34.8231 228.23 33.8407C229.036 32.9172 230.018 32.5045 231.276 32.5045C232.258 32.5045 233.162 32.76 234.007 33.5263C234.871 34.3122 235.304 35.5305 235.304 37.849V38.3009ZM233.064 36.7094C233.064 35.0982 232.356 34.1354 231.276 34.1354C230.057 34.1354 229.389 35.0982 229.389 36.7094H233.064Z" fill="#661A0B"/>
<rect x="281.802" y="88.4191" width="309.21" height="341.269" rx="9.8244" fill="white" stroke="#E4DFDD" stroke-width="1.03415"/>
<line x1="281.285" y1="176.322" x2="591.529" y2="176.322" stroke="#E4DFDD" stroke-width="1.03415"/>
<path d="M320.032 152.113C318.748 153.088 317.297 153.564 315.537 153.564C313.349 153.564 311.612 152.732 310.328 151.185C309.091 149.687 308.449 147.689 308.449 145.31C308.449 143.336 308.806 141.695 309.543 140.316C310.78 137.961 313.039 136.534 315.608 136.534C317.202 136.534 318.724 137.009 319.699 137.818L318.439 139.626C317.559 138.984 316.655 138.698 315.632 138.698C314.229 138.698 313.063 139.412 312.35 140.672C311.779 141.671 311.493 143.051 311.493 145.001C311.493 147.023 311.707 148.165 312.136 149.092C312.849 150.662 314.205 151.423 315.799 151.423C316.964 151.423 317.82 151.114 318.748 150.377L320.032 152.113ZM332.035 153.302H329.49V145.12C329.49 143.622 328.967 143.194 327.968 143.194C327.04 143.194 325.922 143.788 325.066 144.668V153.302H322.426V138.984C322.426 137.913 322.33 136.986 322.188 136.367L324.828 135.796C324.994 136.486 325.066 137.461 325.066 138.627V141.196C325.066 141.862 325.018 142.432 325.018 142.551C326.207 141.481 327.42 140.982 328.705 140.982C330.132 140.982 331.226 141.671 331.63 142.456C331.94 143.051 332.035 143.598 332.035 144.811V153.302ZM342.506 141.124L341.697 143.55C341.435 143.455 341.245 143.384 340.96 143.384C339.865 143.384 338.938 144.193 338.7 145.168V153.302H336.084V144.811C336.084 143.289 335.917 142.314 335.655 141.576L338.058 140.958C338.343 141.505 338.51 142.195 338.51 142.861C339.461 141.552 340.412 140.934 341.578 140.934C341.959 140.934 342.196 140.982 342.506 141.124ZM346.9 153.302H344.26V141.457L346.9 140.982V153.302ZM347.328 137.747C347.328 138.698 346.543 139.483 345.568 139.483C344.617 139.483 343.879 138.698 343.879 137.747C343.879 136.772 344.64 135.987 345.616 135.987C346.543 135.987 347.328 136.748 347.328 137.747ZM359.137 149.544C359.137 151.97 357.163 153.635 354.261 153.635C352.786 153.635 351.193 153.16 349.647 152.303L350.574 150.424C351.645 151.043 353.119 151.685 354.475 151.685C355.617 151.685 356.426 150.995 356.426 149.996C356.426 149.069 355.831 148.593 354.475 148.307L353.024 147.998C351.217 147.618 350.146 146.381 350.146 144.692C350.146 142.432 351.954 140.863 354.618 140.863C356.259 140.863 357.567 141.362 358.59 141.909L357.734 143.717C356.616 143.122 355.736 142.837 354.784 142.837C353.667 142.837 352.953 143.455 352.953 144.383C352.953 145.12 353.357 145.501 354.57 145.81L356.069 146.191C358.495 146.809 359.137 148.141 359.137 149.544ZM367.616 153.088C366.832 153.445 366.07 153.612 365.262 153.612C362.931 153.612 362.122 152.232 362.122 150.519V143.075H360.79V141.267H362.122C362.122 140.244 362.122 139.198 362.241 138.294L364.929 137.652C364.81 138.627 364.715 140.078 364.715 141.267H367.593L366.903 143.075H364.691V149.83C364.691 151.328 365.024 151.756 366.166 151.756C366.522 151.756 366.832 151.685 367.283 151.518L367.616 153.088ZM372.869 153.302H370.229V141.457L372.869 140.982V153.302ZM373.297 137.747C373.297 138.698 372.512 139.483 371.537 139.483C370.585 139.483 369.848 138.698 369.848 137.747C369.848 136.772 370.609 135.987 371.584 135.987C372.512 135.987 373.297 136.748 373.297 137.747ZM386.099 153.302H383.507V145.31C383.507 143.669 383.126 143.217 382.127 143.217C381.366 143.217 380.272 143.788 379.487 144.573V153.302H376.918V144.454C376.918 143.194 376.799 142.456 376.466 141.6L378.845 140.934C379.13 141.481 379.273 142.004 379.273 142.647C380.557 141.552 381.675 140.982 382.96 140.982C384.815 140.982 386.099 142.099 386.099 144.311V153.302ZM399.369 152.137L398.013 153.802C397.276 153.516 396.658 152.946 396.372 152.184C395.397 153.279 394.35 153.659 393.066 153.659C390.307 153.659 389.07 152.137 389.07 150.044C389.07 147.261 391.163 145.858 395.016 145.858H395.825V145.215C395.825 143.836 395.587 143.098 394.16 143.098C392.614 143.098 390.949 144.193 390.569 144.478L389.403 142.599C391.211 141.457 392.709 140.958 394.517 140.958C396.396 140.958 397.657 141.648 398.18 142.956C398.394 143.479 398.394 144.121 398.37 145.905L398.323 149.354C398.299 150.971 398.442 151.495 399.369 152.137ZM395.778 147.641C395.73 147.641 395.468 147.618 395.302 147.618C392.686 147.618 391.901 148.379 391.901 149.901C391.901 151.043 392.519 151.756 393.566 151.756C394.398 151.756 395.207 151.257 395.73 150.496L395.778 147.641ZM416.614 151.043L416.162 153.302H407.742V136.843H410.525V151.043H416.614ZM428.451 152.137L427.095 153.802C426.357 153.516 425.739 152.946 425.454 152.184C424.478 153.279 423.432 153.659 422.147 153.659C419.388 153.659 418.151 152.137 418.151 150.044C418.151 147.261 420.245 145.858 424.098 145.858H424.907V145.215C424.907 143.836 424.669 143.098 423.242 143.098C421.695 143.098 420.031 144.193 419.65 144.478L418.484 142.599C420.292 141.457 421.791 140.958 423.598 140.958C425.477 140.958 426.738 141.648 427.261 142.956C427.475 143.479 427.475 144.121 427.452 145.905L427.404 149.354C427.38 150.971 427.523 151.495 428.451 152.137ZM424.859 147.641C424.811 147.641 424.55 147.618 424.383 147.618C421.767 147.618 420.982 148.379 420.982 149.901C420.982 151.043 421.6 151.756 422.647 151.756C423.479 151.756 424.288 151.257 424.811 150.496L424.859 147.641ZM440.662 153.302H438.069V145.31C438.069 143.669 437.689 143.217 436.69 143.217C435.928 143.217 434.834 143.788 434.049 144.573V153.302H431.481V144.454C431.481 143.194 431.362 142.456 431.029 141.6L433.407 140.934C433.693 141.481 433.835 142.004 433.835 142.647C435.12 141.552 436.238 140.982 437.522 140.982C439.377 140.982 440.662 142.099 440.662 144.311V153.302ZM455.9 142.409C455.234 142.98 454.616 143.194 453.807 143.194C453.308 143.194 452.951 143.098 452.879 143.075C452.951 143.146 453.664 143.931 453.664 145.168C453.664 147.261 451.928 148.855 449.098 148.855C448.241 149.164 447.48 149.616 447.48 149.996C447.48 150.448 447.647 150.496 450.477 150.496C452.404 150.496 454.473 151.471 454.473 153.921C454.473 156.49 452.332 157.869 449.121 157.869C446.005 157.869 443.746 156.846 443.746 154.587C443.746 154.087 443.936 153.445 443.984 153.302H446.457C446.41 153.398 446.267 153.826 446.267 154.159C446.267 155.277 447.219 155.895 448.907 155.895C450.763 155.895 451.762 155.134 451.762 154.016C451.762 152.708 450.667 152.351 448.432 152.351C445.197 152.351 444.483 151.709 444.483 150.519C444.483 149.33 445.482 148.855 446.767 148.45C444.959 147.927 444.031 146.761 444.031 145.049C444.031 142.599 445.958 140.982 448.836 140.982C450.548 140.982 451.524 141.6 452.499 141.6C453.284 141.6 454.021 141.315 454.687 140.767L455.9 142.409ZM450.881 145.025C450.881 143.669 450.192 142.956 448.812 142.956C447.48 142.956 446.743 143.693 446.743 145.049C446.743 146.428 447.528 147.071 448.812 147.071C450.168 147.071 450.881 146.357 450.881 145.025Z" fill="#661A0B"/>
<path d="M315.201 120.653L314.467 118.854H311.344L310.61 120.653H309.327L312.419 113.414H313.453L316.525 120.653H315.201ZM311.757 117.841H314.064L312.905 115.007L311.757 117.841ZM319.604 120.653V113.414H322.272C323.927 113.414 324.785 114.428 324.785 115.669C324.785 117.065 323.751 117.965 322.189 117.965H320.845V120.653H319.604ZM322.075 114.5H320.845V116.889H322.075C323.079 116.889 323.544 116.393 323.544 115.7C323.544 114.976 323.079 114.5 322.075 114.5ZM328.085 120.653V113.414H330.753C332.408 113.414 333.266 114.428 333.266 115.669C333.266 117.065 332.232 117.965 330.67 117.965H329.326V120.653H328.085ZM330.557 114.5H329.326V116.889H330.557C331.56 116.889 332.025 116.393 332.025 115.7C332.025 114.976 331.56 114.5 330.557 114.5ZM341.199 119.588V120.653H336.566V113.414H337.807V119.588H341.199ZM344.512 120.653V113.414H345.753V120.653H344.512ZM353.147 120.757C350.872 120.757 349.269 119.206 349.269 117.034C349.269 114.873 350.914 113.311 353.189 113.311C354.337 113.311 355.247 113.704 355.764 114.159V115.576C355.009 114.811 354.161 114.428 353.209 114.428C351.524 114.428 350.521 115.627 350.521 117.034C350.521 118.451 351.524 119.661 353.209 119.661C354.233 119.661 355.154 119.216 355.764 118.533V119.878C355.154 120.416 354.212 120.757 353.147 120.757ZM364.372 120.653L363.637 118.854H360.514L359.78 120.653H358.498L361.59 113.414H362.624L365.695 120.653H364.372ZM360.928 117.841H363.234L362.076 115.007L360.928 117.841ZM369.933 115.876L369.953 120.653H368.774V113.414H369.87L373.531 118.068L373.997 118.689L373.986 118.068L373.966 113.414H375.134V120.653H374.1L370.357 115.876L369.912 115.286L369.933 115.876ZM381.961 120.653H380.72V114.5H378.31V113.414H384.37V114.5H381.961V120.653ZM391.521 120.653V113.414H392.762V120.653H391.521ZM397.768 115.876L397.788 120.653H396.609V113.414H397.706L401.366 118.068L401.832 118.689L401.822 118.068L401.801 113.414H402.969V120.653H401.935L398.192 115.876L397.747 115.286L397.768 115.876ZM406.363 120.157V118.895C407.314 119.547 407.986 119.723 408.607 119.723C409.382 119.723 409.848 119.371 409.848 118.813C409.848 118.389 409.558 118.078 408.845 117.737L407.593 117.127C406.693 116.682 406.29 116.072 406.29 115.317C406.29 114.2 407.149 113.311 408.658 113.311C409.506 113.311 410.168 113.549 410.613 113.838V115.152C409.796 114.521 409.155 114.324 408.576 114.324C407.893 114.324 407.469 114.707 407.469 115.172C407.469 115.555 407.738 115.865 408.4 116.186L409.548 116.744C410.561 117.241 411.047 117.841 411.047 118.699C411.047 119.899 410.085 120.757 408.627 120.757C407.779 120.757 406.973 120.54 406.363 120.157ZM414.42 120.653V113.414H415.661V120.653H414.42ZM425.878 120.064C425.196 120.488 424.151 120.757 423.097 120.757C420.77 120.757 419.188 119.206 419.188 117.034C419.188 114.873 420.852 113.311 423.21 113.311C424.151 113.311 425.041 113.528 425.744 114.014V115.39C424.875 114.697 424.079 114.418 423.231 114.418C421.411 114.418 420.439 115.627 420.439 117.034C420.439 118.44 421.421 119.65 423.231 119.65C423.727 119.65 424.203 119.557 424.648 119.392V118.016H423.231V116.951H425.878V120.064ZM434.189 120.653V117.406H430.725V120.653H429.484V113.414H430.725V116.32H434.189V113.414H435.43V120.653H434.189ZM442.256 120.653H441.015V114.5H438.606V113.414H444.666V114.5H442.256V120.653ZM447.385 120.157V118.895C448.336 119.547 449.009 119.723 449.629 119.723C450.405 119.723 450.87 119.371 450.87 118.813C450.87 118.389 450.581 118.078 449.867 117.737L448.616 117.127C447.716 116.682 447.313 116.072 447.313 115.317C447.313 114.2 448.171 113.311 449.681 113.311C450.529 113.311 451.191 113.549 451.635 113.838V115.152C450.818 114.521 450.177 114.324 449.598 114.324C448.916 114.324 448.492 114.707 448.492 115.172C448.492 115.555 448.76 115.865 449.422 116.186L450.57 116.744C451.584 117.241 452.07 117.841 452.07 118.699C452.07 119.899 451.108 120.757 449.65 120.757C448.802 120.757 447.995 120.54 447.385 120.157Z" fill="#661A0B"/>
<circle cx="524.312" cy="87.9017" r="36.1952" fill="#661A0B"/>
<path d="M541.467 100.992C542.385 99.618 544.372 99.6164 544.862 100.944C545.321 102.189 545.255 103.146 544.266 104.119C543.515 104.861 542.496 104.713 541.753 104.443C541.025 104.138 540.748 103.178 540.862 102.417C540.918 102.045 541.037 101.635 541.467 100.992Z" fill="#F49376"/>
<path d="M541.361 69.1488C541.346 69.0894 541.328 69.0278 541.311 68.964C541.099 68.1696 540.742 66.8427 539.959 66.8427C539.481 66.8427 539.285 68.2532 539.201 68.8561C539.183 68.9772 539.17 69.0806 539.157 69.1554C538.888 70.6672 538.676 71.9655 538.449 73.3408C538.268 74.4389 538.083 75.5743 537.867 76.8242C537.477 79.082 537.12 81.3155 536.822 83.1991L536.818 83.2343C536.703 83.9649 536.586 84.7175 536.426 85.4525C536.289 86.0598 536.163 86.6804 536.042 87.2789C535.85 88.2339 535.65 89.222 535.398 90.1792C534.744 92.6614 534.245 94.4086 533.553 96.7676L533.505 96.9348C533.328 97.5355 533.148 98.1561 532.973 98.7898C532.887 99.1243 532.178 101.224 531.814 101.578C531.739 101.646 531.664 101.679 531.587 101.679C531.335 101.679 531.205 101.345 531.168 101.149L531.128 100.938C531.022 100.39 530.914 99.8219 530.82 99.2607C530.507 97.4849 530.191 95.5881 530.057 93.6406C529.865 90.8679 529.629 88.6938 529.332 85.9454L529.285 85.5163C529.213 84.8363 529.144 84.1784 529.076 83.5336C528.778 80.6817 528.496 77.9883 527.991 74.9406C527.766 73.5806 526.812 71.0082 524.815 71.0082C522.817 71.0082 521.537 73.8909 520.851 75.4401L520.833 75.4775C519.698 78.0411 518.986 79.9864 518.069 82.6776C517.031 85.6747 516.283 88.0359 515.336 91.0264L515.126 91.6843C514.798 92.7186 514.487 93.7814 514.185 94.8113C513.64 96.6663 513.08 98.583 512.41 100.365V100.374L512.399 100.394C511.881 102.119 511.147 103.996 510.757 104.049C510.746 104.049 510.73 104.053 510.715 104.053C510.316 104.053 510.243 103.204 510.162 101.818C510.151 101.637 510.14 101.459 510.129 101.287C509.994 99.3664 509.988 97.0888 509.988 96.6509C509.988 93.1543 509.988 92.4259 510.223 89.0679C510.305 87.906 510.371 86.7222 510.435 85.5779C510.497 84.4534 510.563 83.2894 510.642 82.1473L510.669 81.7116C510.858 78.6397 511.037 75.7372 510.349 72.7687C510.023 71.3823 509.467 70.161 508.694 69.14C508.107 68.3654 506.877 67.7317 505.773 67.6304C505.72 67.626 505.662 67.6238 505.603 67.6238C504.752 67.6238 503.385 68.152 503.268 68.9486C503.22 69.2786 503.26 69.6329 503.93 69.7605C505.524 70.0642 506.458 70.951 506.784 72.4738C507.175 74.298 507.186 74.8173 507.214 76.2059C507.221 76.4875 507.225 76.8066 507.236 77.1807C507.236 78.2656 507.166 79.7465 507.104 81.0536C507.071 81.7446 507.04 82.3959 507.02 82.9505C506.954 84.8803 506.864 86.2667 506.716 88.1525C506.471 91.0308 506.445 93.1081 506.482 95.7245C506.513 97.8414 506.575 99.604 506.679 101.276C506.771 102.775 506.928 103.64 507.263 105.257C507.444 106.126 508.228 108.961 510.803 108.961C511.584 108.943 512.044 108.47 512.525 107.898C513.649 106.562 514.586 104.203 515.177 102.463C516.76 97.7842 517.637 94.8421 518.792 90.7359C519.255 89.0943 519.625 87.9303 520.018 86.698C520.309 85.7869 520.606 84.8451 520.966 83.6414C521.682 81.2275 522.072 80.1426 523.005 77.656C524.032 74.9648 524.402 74.5511 524.649 74.5049C524.711 74.4939 524.764 74.4873 524.81 74.4873C525.183 74.4873 525.238 74.8504 525.302 75.4885V75.5127C525.375 76.2037 525.469 77.1521 525.536 78.1027C525.661 79.8565 525.771 81.135 525.879 82.3717C525.981 83.5292 526.084 84.7263 526.201 86.3151C526.234 86.7816 526.267 87.2327 526.298 87.6728C526.47 90.056 526.618 92.1156 526.889 94.6705C527.076 96.4375 527.341 98.2265 527.572 99.7669C527.76 100.999 528.318 103.03 528.886 104.164C529.327 105.039 529.579 105.358 530.286 105.64C530.588 105.761 530.888 105.823 531.179 105.823C531.455 105.823 531.715 105.768 531.951 105.655C533.621 104.861 534.997 102.313 535.667 100.372C535.742 100.154 535.819 99.9385 535.894 99.7207C536.41 98.2441 536.941 96.7191 537.314 95.1766C537.49 94.4658 537.671 93.7528 537.85 93.0641C538.328 91.2002 538.82 89.2726 539.192 87.3185C539.516 85.6109 539.796 84.0573 540.05 82.5654C540.74 78.5054 541.278 74.9626 541.652 70.8762C541.679 70.5813 541.542 69.8244 541.39 69.2478L541.361 69.151V69.1488Z" fill="#F49376"/>
<rect x="307.65" y="198.039" width="258.537" height="61.0147" rx="9.8244" fill="white" stroke="#E4DFDD" stroke-width="1.03415"/>
<path d="M382.491 226.186C379.907 226.186 378.087 224.424 378.087 221.959C378.087 219.504 379.954 217.731 382.538 217.731C383.841 217.731 384.874 218.177 385.461 218.694V220.303C384.604 219.434 383.641 218.999 382.561 218.999C380.647 218.999 379.508 220.362 379.508 221.959C379.508 223.567 380.647 224.941 382.561 224.941C383.724 224.941 384.769 224.436 385.461 223.661V225.188C384.769 225.798 383.7 226.186 382.491 226.186ZM389.681 221.477C389.047 221.477 388.589 221.735 388.296 222.123V226.068H386.957V217.673L388.296 217.496V221.031C388.695 220.585 389.306 220.303 390.045 220.303C391.431 220.303 392.206 221.23 392.206 222.581V226.068H390.867V222.734C390.867 222.005 390.433 221.477 389.681 221.477ZM395.268 222.651V226.068H393.929V220.432H395.244V221.395C395.679 220.667 396.383 220.315 397.182 220.315C397.381 220.315 397.581 220.338 397.792 220.373V221.747C397.581 221.677 397.346 221.618 397.029 221.618C396.231 221.618 395.538 222.005 395.268 222.651ZM399.564 219.176C399.118 219.176 398.754 218.823 398.754 218.377C398.754 217.931 399.118 217.579 399.564 217.579C400.01 217.579 400.374 217.931 400.374 218.377C400.374 218.823 400.01 219.176 399.564 219.176ZM398.895 226.068V220.432H400.233V226.068H398.895ZM404.551 224.577C404.551 224.307 404.386 224.131 403.893 223.955L402.777 223.555C402.038 223.285 401.603 222.745 401.603 222.099C401.603 221.09 402.39 220.326 403.646 220.326C404.398 220.326 404.973 220.502 405.408 220.773V222.041C404.727 221.548 404.198 221.395 403.646 221.395C403.094 221.395 402.824 221.63 402.824 221.935C402.824 222.158 403.001 222.358 403.353 222.487L404.609 222.945C405.466 223.25 405.819 223.79 405.819 224.46C405.819 225.352 405.114 226.186 403.658 226.186C402.954 226.186 402.308 226.033 401.674 225.669V224.413C402.402 224.894 403.036 225.141 403.635 225.141C404.21 225.141 404.551 224.918 404.551 224.577ZM410.781 225.822C410.346 226.021 409.842 226.127 409.301 226.127C408.104 226.127 407.493 225.516 407.493 224.389V221.489H406.448V220.432H407.493V219.152L408.808 218.976V220.432H410.757V221.489H408.808V224.131C408.808 224.683 409.043 224.988 409.63 224.988C410.053 224.988 410.464 224.871 410.781 224.741V225.822ZM412.556 219.176C412.11 219.176 411.746 218.823 411.746 218.377C411.746 217.931 412.11 217.579 412.556 217.579C413.002 217.579 413.366 217.931 413.366 218.377C413.366 218.823 413.002 219.176 412.556 219.176ZM411.887 226.068V220.432H413.225V226.068H411.887ZM417.707 221.477C417.073 221.477 416.615 221.735 416.322 222.123V226.068H414.983V220.432H416.298V221.054C416.697 220.596 417.32 220.303 418.071 220.303C419.457 220.303 420.232 221.23 420.232 222.581V226.068H418.893V222.734C418.893 222.005 418.459 221.477 417.707 221.477ZM426.511 226.127C425.677 226.127 425.255 225.763 425.184 225.164C424.691 225.822 423.963 226.162 423.165 226.162C422.096 226.162 421.485 225.563 421.485 224.659C421.485 223.79 422.037 223.215 423.482 222.851L425.137 222.428C425.079 221.724 424.679 221.465 423.951 221.454C423.317 221.442 422.695 221.677 422.026 222.158V220.925C422.636 220.538 423.305 220.315 424.116 220.315C425.689 220.315 426.464 221.031 426.464 222.475V224.8C426.464 225.035 426.629 225.152 426.875 225.152C427.063 225.152 427.157 225.129 427.321 225.07V225.986C427.075 226.092 426.793 226.127 426.511 226.127ZM422.801 224.577C422.801 224.882 423.035 225.129 423.564 225.129C424.198 225.129 424.808 224.741 425.149 224.225V223.368L423.904 223.696C423.035 223.931 422.801 224.19 422.801 224.577ZM429.397 220.714H428.387L428.258 217.849H429.526L429.397 220.714ZM433.666 224.577C433.666 224.307 433.501 224.131 433.008 223.955L431.893 223.555C431.153 223.285 430.718 222.745 430.718 222.099C430.718 221.09 431.505 220.326 432.762 220.326C433.513 220.326 434.088 220.502 434.523 220.773V222.041C433.842 221.548 433.313 221.395 432.762 221.395C432.21 221.395 431.94 221.63 431.94 221.935C431.94 222.158 432.116 222.358 432.468 222.487L433.724 222.945C434.582 223.25 434.934 223.79 434.934 224.46C434.934 225.352 434.229 226.186 432.773 226.186C432.069 226.186 431.423 226.033 430.789 225.669V224.413C431.517 224.894 432.151 225.141 432.75 225.141C433.325 225.141 433.666 224.918 433.666 224.577ZM442.992 226.186C440.408 226.186 438.588 224.424 438.588 221.959C438.588 219.504 440.455 217.731 443.039 217.731C444.342 217.731 445.375 218.177 445.962 218.694V220.303C445.105 219.434 444.142 218.999 443.062 218.999C441.148 218.999 440.009 220.362 440.009 221.959C440.009 223.567 441.148 224.941 443.062 224.941C444.225 224.941 445.27 224.436 445.962 223.661V225.188C445.27 225.798 444.201 226.186 442.992 226.186ZM447.059 223.274C447.059 221.559 448.421 220.315 450.065 220.315C451.744 220.315 453.024 221.536 453.024 223.227C453.024 224.941 451.662 226.186 450.018 226.186C448.398 226.186 447.059 224.965 447.059 223.274ZM451.685 223.25C451.685 222.193 450.957 221.454 450.041 221.454C449.114 221.454 448.398 222.193 448.398 223.25C448.398 224.307 449.114 225.047 450.041 225.047C450.957 225.047 451.685 224.307 451.685 223.25ZM455.723 222.651V226.068H454.384V220.432H455.699V221.395C456.134 220.667 456.839 220.315 457.637 220.315C457.837 220.315 458.036 220.338 458.248 220.373V221.747C458.036 221.677 457.801 221.618 457.484 221.618C456.686 221.618 455.993 222.005 455.723 222.651ZM464.179 225.54C463.697 225.904 462.863 226.186 461.994 226.186C460.151 226.186 458.836 225 458.836 223.25C458.836 221.512 460.151 220.315 461.619 220.315C463.345 220.315 464.331 221.548 464.331 223.274V223.555H460.163C460.292 224.483 460.949 225.082 462.088 225.082C462.828 225.082 463.674 224.788 464.179 224.389V225.54ZM461.619 221.395C460.938 221.395 460.397 221.818 460.21 222.569H463.004C462.84 221.888 462.358 221.395 461.619 221.395ZM377.946 240.505V239.072C379.027 239.812 379.79 240.012 380.494 240.012C381.375 240.012 381.904 239.612 381.904 238.978C381.904 238.497 381.575 238.144 380.764 237.757L379.344 237.064C378.322 236.559 377.864 235.866 377.864 235.009C377.864 233.741 378.839 232.731 380.553 232.731C381.516 232.731 382.268 233.001 382.772 233.33V234.821C381.845 234.105 381.117 233.882 380.459 233.882C379.684 233.882 379.203 234.316 379.203 234.845C379.203 235.279 379.508 235.632 380.26 235.996L381.563 236.63C382.714 237.193 383.266 237.874 383.266 238.849C383.266 240.211 382.174 241.186 380.518 241.186C379.555 241.186 378.639 240.939 377.946 240.505ZM388.317 240.822C387.882 241.021 387.377 241.127 386.837 241.127C385.639 241.127 385.029 240.516 385.029 239.389V236.489H383.984V235.432H385.029V234.152L386.344 233.976V235.432H388.293V236.489H386.344V239.131C386.344 239.683 386.579 239.988 387.166 239.988C387.589 239.988 388 239.871 388.317 239.741V240.822ZM390.761 237.651V241.068H389.423V235.432H390.738V236.395C391.172 235.667 391.877 235.315 392.675 235.315C392.875 235.315 393.074 235.338 393.286 235.373V236.747C393.074 236.677 392.84 236.618 392.523 236.618C391.724 236.618 391.031 237.005 390.761 237.651ZM399.217 240.54C398.735 240.904 397.902 241.186 397.033 241.186C395.189 241.186 393.874 240 393.874 238.25C393.874 236.512 395.189 235.315 396.657 235.315C398.383 235.315 399.369 236.548 399.369 238.274V238.555H395.201C395.33 239.483 395.988 240.082 397.127 240.082C397.866 240.082 398.712 239.788 399.217 239.389V240.54ZM396.657 236.395C395.976 236.395 395.436 236.818 395.248 237.569H398.043C397.878 236.888 397.397 236.395 396.657 236.395ZM403.454 236.477C402.819 236.477 402.361 236.735 402.068 237.123V241.068H400.729V235.432H402.044V236.054C402.444 235.596 403.066 235.303 403.818 235.303C405.203 235.303 405.978 236.23 405.978 237.581V241.068H404.639V237.734C404.639 237.005 404.205 236.477 403.454 236.477ZM413.126 241.691C413.126 242.63 412.105 243.663 409.838 243.663C407.96 243.663 407.091 243.076 407.091 242.301C407.091 241.773 407.572 241.256 408.277 241.104C407.936 240.88 407.748 240.563 407.748 240.223C407.748 239.706 408.136 239.33 408.688 239.19C407.96 238.79 407.549 238.144 407.549 237.405C407.549 236.137 408.711 235.315 410.109 235.315C410.696 235.315 411.283 235.467 411.741 235.773C411.893 235.256 412.41 234.915 413.032 234.915C413.232 234.915 413.349 234.927 413.502 234.962V236.066C413.385 236.031 413.255 236.019 413.115 236.019C412.68 236.019 412.422 236.148 412.398 236.477C412.551 236.747 412.633 237.064 412.633 237.428C412.633 238.52 411.588 239.483 410.097 239.483H409.709C409.122 239.483 408.981 239.659 408.981 239.847C408.981 240.035 409.181 240.141 409.604 240.199L411.541 240.411C412.704 240.54 413.126 240.963 413.126 241.691ZM410.073 238.497C410.79 238.497 411.33 238.027 411.33 237.405C411.33 236.782 410.801 236.324 410.073 236.324C409.334 236.324 408.805 236.782 408.805 237.405C408.805 238.027 409.345 238.497 410.073 238.497ZM408.347 242.043C408.347 242.477 408.77 242.759 409.838 242.759C411.154 242.759 411.729 242.337 411.729 241.937C411.729 241.773 411.623 241.609 411.353 241.585L409.204 241.385L409.134 241.374C408.629 241.432 408.347 241.773 408.347 242.043ZM418.166 240.822C417.731 241.021 417.226 241.127 416.686 241.127C415.489 241.127 414.878 240.516 414.878 239.389V236.489H413.833V235.432H414.878V234.152L416.193 233.976V235.432H418.142V236.489H416.193V239.131C416.193 239.683 416.428 239.988 417.015 239.988C417.438 239.988 417.849 239.871 418.166 239.741V240.822ZM421.996 236.477C421.362 236.477 420.904 236.735 420.61 237.123V241.068H419.272V232.673L420.61 232.496V236.031C421.01 235.585 421.62 235.303 422.36 235.303C423.746 235.303 424.521 236.23 424.521 237.581V241.068H423.182V237.734C423.182 237.005 422.747 236.477 421.996 236.477ZM428.804 239.577C428.804 239.307 428.639 239.131 428.146 238.955L427.031 238.555C426.291 238.285 425.856 237.745 425.856 237.099C425.856 236.09 426.643 235.326 427.899 235.326C428.651 235.326 429.226 235.502 429.661 235.773V237.041C428.98 236.548 428.451 236.395 427.899 236.395C427.348 236.395 427.078 236.63 427.078 236.935C427.078 237.158 427.254 237.358 427.606 237.487L428.862 237.945C429.72 238.25 430.072 238.79 430.072 239.46C430.072 240.352 429.367 241.186 427.911 241.186C427.207 241.186 426.561 241.033 425.927 240.669V239.413C426.655 239.894 427.289 240.141 427.888 240.141C428.463 240.141 428.804 239.918 428.804 239.577Z" fill="#420C02"/>
<path d="M354.486 245.866C354.467 245.866 354.448 245.866 354.427 245.866C352.215 245.803 349.971 245.756 347.757 245.726C347.38 245.721 347.078 245.411 347.084 245.033C347.089 244.659 347.394 244.36 347.767 244.36H347.776C349.997 244.39 352.248 244.436 354.468 244.499C354.627 244.502 354.781 244.446 354.895 244.335C355.008 244.226 355.07 244.077 355.07 243.915V212.361C355.07 212.013 354.776 211.709 354.429 211.7C346.085 211.462 337.623 211.462 329.277 211.7C328.93 211.709 328.636 212.013 328.636 212.361V214.761C328.636 215.138 328.33 215.444 327.953 215.444C327.576 215.444 327.27 215.138 327.27 214.761V212.361C327.27 211.275 328.152 210.365 329.239 210.335C337.609 210.095 346.097 210.095 354.467 210.335C355.552 210.366 356.436 211.275 356.436 212.361V243.915C356.436 244.448 356.227 244.945 355.847 245.315C355.481 245.672 354.999 245.866 354.488 245.866H354.486Z" fill="#661A0B"/>
<path d="M341.986 245.904C341.979 245.904 341.971 245.904 341.964 245.904C337.755 245.771 333.486 245.759 329.276 245.867C328.741 245.881 328.238 245.684 327.857 245.314C327.479 244.945 327.27 244.447 327.27 243.916V230.462C327.27 230.084 327.576 229.778 327.953 229.778C328.33 229.778 328.636 230.084 328.636 230.462V243.916C328.636 244.075 328.698 244.224 328.811 244.335C328.924 244.446 329.079 244.507 329.24 244.5C333.477 244.392 337.772 244.405 342.007 244.537C342.384 244.55 342.68 244.864 342.668 245.241C342.657 245.611 342.352 245.903 341.986 245.903V245.904Z" fill="#661A0B"/>
<path d="M327.986 228.244C327.974 228.244 327.962 228.244 327.95 228.244C327.016 228.238 326.109 228.051 325.253 227.689C324.906 227.541 324.744 227.141 324.891 226.794C325.039 226.447 325.439 226.284 325.786 226.432C326.475 226.724 327.206 226.874 327.958 226.878C327.967 226.878 327.977 226.878 327.986 226.878C329.473 226.878 330.864 226.298 331.907 225.241C332.976 224.159 333.55 222.715 333.524 221.174C333.469 218.015 330.922 215.446 327.846 215.446H327.843C324.771 215.451 322.271 218.003 322.27 221.133C322.27 222.136 322.535 223.127 323.037 223.996C323.225 224.323 323.113 224.741 322.787 224.93C322.46 225.118 322.042 225.006 321.853 224.68C321.234 223.601 320.906 222.376 320.906 221.132C320.906 217.25 324.019 214.085 327.844 214.078H327.847C331.665 214.078 334.825 217.25 334.892 221.15C334.925 223.06 334.211 224.855 332.882 226.201C331.579 227.519 329.842 228.244 327.988 228.244H327.986Z" fill="#661A0B"/>
<path d="M329.899 224.527C329.79 224.527 329.682 224.501 329.58 224.449L327.901 223.566L326.221 224.449C325.992 224.57 325.712 224.55 325.501 224.397C325.291 224.244 325.186 223.985 325.229 223.728L325.55 221.858L324.191 220.532C324.005 220.35 323.938 220.078 324.017 219.832C324.098 219.585 324.311 219.405 324.569 219.368L326.448 219.094L327.289 217.392C327.404 217.158 327.641 217.01 327.901 217.01C328.161 217.01 328.398 217.158 328.513 217.392L329.354 219.094L331.233 219.368C331.49 219.405 331.704 219.585 331.785 219.832C331.865 220.08 331.798 220.352 331.611 220.532L330.251 221.858L330.573 223.728C330.616 223.985 330.511 224.244 330.301 224.397C330.182 224.483 330.041 224.528 329.899 224.528V224.527ZM327.901 222.109C328.01 222.109 328.12 222.135 328.219 222.187L328.991 222.593L328.844 221.733C328.806 221.512 328.879 221.285 329.041 221.128L329.665 220.518L328.802 220.393C328.579 220.36 328.386 220.22 328.286 220.018L327.9 219.235L327.513 220.018C327.413 220.22 327.22 220.36 326.998 220.393L326.134 220.518L326.759 221.128C326.92 221.285 326.994 221.511 326.955 221.733L326.808 222.593L327.58 222.187C327.68 222.135 327.789 222.109 327.898 222.109H327.901Z" fill="#6473F8"/>
<path d="M351.655 240.438H332.054C331.677 240.438 331.371 240.132 331.371 239.754C331.371 239.377 331.677 239.071 332.054 239.071H351.655C352.032 239.071 352.338 239.377 352.338 239.754C352.338 240.132 352.032 240.438 351.655 240.438Z" fill="#661A0B"/>
<path d="M351.653 217.206H332.226C331.849 217.206 331.543 216.9 331.543 216.523C331.543 216.145 331.849 215.839 332.226 215.839H351.653C352.031 215.839 352.337 216.145 352.337 216.523C352.337 216.9 352.031 217.206 351.653 217.206Z" fill="#661A0B"/>
<path d="M351.656 221.852H334.211C333.833 221.852 333.527 221.546 333.527 221.169C333.527 220.792 333.833 220.486 334.211 220.486H351.656C352.034 220.486 352.34 220.792 352.34 221.169C352.34 221.546 352.034 221.852 351.656 221.852Z" fill="#661A0B"/>
<path d="M351.654 226.499H332.297C331.919 226.499 331.613 226.192 331.613 225.815C331.613 225.438 331.919 225.132 332.297 225.132H351.654C352.031 225.132 352.337 225.438 352.337 225.815C352.337 226.192 352.031 226.499 351.654 226.499Z" fill="#661A0B"/>
<path d="M351.655 231.145H332.054C331.677 231.145 331.371 230.839 331.371 230.462C331.371 230.084 331.677 229.778 332.054 229.778H351.655C352.032 229.778 352.338 230.084 352.338 230.462C352.338 230.839 352.032 231.145 351.655 231.145Z" fill="#661A0B"/>
<path d="M351.655 235.791H332.054C331.677 235.791 331.371 235.485 331.371 235.108C331.371 234.731 331.677 234.425 332.054 234.425H351.655C352.032 234.425 352.338 234.731 352.338 235.108C352.338 235.485 352.032 235.791 351.655 235.791Z" fill="#661A0B"/>
<path d="M535.477 223.375V233.717" stroke="#420C02" stroke-width="1.55122" stroke-linecap="round"/>
<path d="M540.645 228.546L530.303 228.546" stroke="#420C02" stroke-width="1.55122" stroke-linecap="round"/>
<rect x="307.654" y="270.429" width="258.537" height="61.0147" rx="9.8244" fill="white" stroke="#E4DFDD" stroke-width="1.03415"/>
<path d="M382.495 298.576C379.911 298.576 378.091 296.815 378.091 294.349C378.091 291.895 379.958 290.122 382.542 290.122C383.845 290.122 384.878 290.568 385.465 291.085V292.693C384.608 291.825 383.645 291.39 382.565 291.39C380.651 291.39 379.512 292.752 379.512 294.349C379.512 295.958 380.651 297.332 382.565 297.332C383.727 297.332 384.773 296.827 385.465 296.052V297.578C384.773 298.189 383.704 298.576 382.495 298.576ZM389.685 293.868C389.051 293.868 388.593 294.126 388.3 294.514V298.459H386.961V290.063L388.3 289.887V293.421C388.699 292.975 389.31 292.693 390.049 292.693C391.435 292.693 392.21 293.621 392.21 294.971V298.459H390.871V295.124C390.871 294.396 390.437 293.868 389.685 293.868ZM395.272 295.042V298.459H393.933V292.823H395.248V293.786C395.683 293.057 396.387 292.705 397.186 292.705C397.385 292.705 397.585 292.729 397.796 292.764V294.138C397.585 294.067 397.35 294.009 397.033 294.009C396.235 294.009 395.542 294.396 395.272 295.042ZM399.568 291.566C399.122 291.566 398.758 291.214 398.758 290.768C398.758 290.321 399.122 289.969 399.568 289.969C400.014 289.969 400.378 290.321 400.378 290.768C400.378 291.214 400.014 291.566 399.568 291.566ZM398.898 298.459V292.823H400.237V298.459H398.898ZM404.554 296.968C404.554 296.698 404.39 296.521 403.897 296.345L402.781 295.946C402.042 295.676 401.607 295.136 401.607 294.49C401.607 293.48 402.394 292.717 403.65 292.717C404.402 292.717 404.977 292.893 405.412 293.163V294.431C404.731 293.938 404.202 293.786 403.65 293.786C403.098 293.786 402.828 294.02 402.828 294.326C402.828 294.549 403.004 294.748 403.357 294.878L404.613 295.336C405.47 295.641 405.823 296.181 405.823 296.85C405.823 297.743 405.118 298.576 403.662 298.576C402.957 298.576 402.312 298.424 401.678 298.06V296.803C402.406 297.285 403.04 297.531 403.639 297.531C404.214 297.531 404.554 297.308 404.554 296.968ZM410.785 298.212C410.35 298.412 409.845 298.518 409.305 298.518C408.108 298.518 407.497 297.907 407.497 296.78V293.879H406.452V292.823H407.497V291.543L408.812 291.367V292.823H410.761V293.879H408.812V296.521C408.812 297.073 409.047 297.379 409.634 297.379C410.057 297.379 410.468 297.261 410.785 297.132V298.212ZM412.56 291.566C412.114 291.566 411.75 291.214 411.75 290.768C411.75 290.321 412.114 289.969 412.56 289.969C413.006 289.969 413.37 290.321 413.37 290.768C413.37 291.214 413.006 291.566 412.56 291.566ZM411.891 298.459V292.823H413.229V298.459H411.891ZM417.711 293.868C417.077 293.868 416.619 294.126 416.326 294.514V298.459H414.987V292.823H416.302V293.445C416.701 292.987 417.324 292.693 418.075 292.693C419.461 292.693 420.236 293.621 420.236 294.971V298.459H418.897V295.124C418.897 294.396 418.463 293.868 417.711 293.868ZM426.515 298.518C425.681 298.518 425.259 298.154 425.188 297.555C424.695 298.212 423.967 298.553 423.168 298.553C422.1 298.553 421.489 297.954 421.489 297.05C421.489 296.181 422.041 295.606 423.485 295.242L425.141 294.819C425.082 294.114 424.683 293.856 423.955 293.844C423.321 293.832 422.699 294.067 422.029 294.549V293.316C422.64 292.928 423.309 292.705 424.12 292.705C425.693 292.705 426.468 293.421 426.468 294.866V297.191C426.468 297.426 426.632 297.543 426.879 297.543C427.067 297.543 427.161 297.52 427.325 297.461V298.377C427.079 298.482 426.797 298.518 426.515 298.518ZM422.804 296.968C422.804 297.273 423.039 297.52 423.568 297.52C424.202 297.52 424.812 297.132 425.153 296.615V295.758L423.908 296.087C423.039 296.322 422.804 296.58 422.804 296.968ZM429.401 293.104H428.391L428.262 290.239H429.53L429.401 293.104ZM433.67 296.968C433.67 296.698 433.505 296.521 433.012 296.345L431.897 295.946C431.157 295.676 430.722 295.136 430.722 294.49C430.722 293.48 431.509 292.717 432.765 292.717C433.517 292.717 434.092 292.893 434.527 293.163V294.431C433.846 293.938 433.317 293.786 432.765 293.786C432.214 293.786 431.944 294.02 431.944 294.326C431.944 294.549 432.12 294.748 432.472 294.878L433.728 295.336C434.586 295.641 434.938 296.181 434.938 296.85C434.938 297.743 434.233 298.576 432.777 298.576C432.073 298.576 431.427 298.424 430.793 298.06V296.803C431.521 297.285 432.155 297.531 432.754 297.531C433.329 297.531 433.67 297.308 433.67 296.968ZM442.925 290.122C445.356 290.122 447.211 291.977 447.211 294.349C447.211 296.733 445.285 298.576 442.878 298.576C440.471 298.576 438.592 296.733 438.592 294.349C438.592 291.977 440.518 290.122 442.925 290.122ZM442.902 291.378C441.222 291.378 440.013 292.717 440.013 294.349C440.013 295.946 441.222 297.32 442.902 297.32C444.581 297.32 445.79 295.946 445.79 294.349C445.79 292.764 444.581 291.378 442.902 291.378ZM451.823 298.576C451.131 298.576 450.52 298.377 450.062 297.954V300.925H448.723V292.823H450.039V293.48C450.508 292.964 451.166 292.705 451.929 292.705C453.432 292.705 454.653 293.903 454.653 295.641C454.653 297.332 453.385 298.576 451.823 298.576ZM451.553 293.832C450.896 293.832 450.379 294.114 450.062 294.561V296.698C450.367 297.167 450.896 297.473 451.577 297.473C452.598 297.473 453.315 296.709 453.315 295.641C453.315 294.596 452.563 293.832 451.553 293.832ZM459.105 298.576C458.412 298.576 457.802 298.377 457.344 297.954V300.925H456.005V292.823H457.32V293.48C457.79 292.964 458.448 292.705 459.211 292.705C460.714 292.705 461.935 293.903 461.935 295.641C461.935 297.332 460.667 298.576 459.105 298.576ZM458.835 293.832C458.177 293.832 457.661 294.114 457.344 294.561V296.698C457.649 297.167 458.177 297.473 458.859 297.473C459.88 297.473 460.596 296.709 460.596 295.641C460.596 294.596 459.845 293.832 458.835 293.832ZM462.888 295.664C462.888 293.95 464.25 292.705 465.894 292.705C467.573 292.705 468.853 293.926 468.853 295.617C468.853 297.332 467.491 298.576 465.847 298.576C464.226 298.576 462.888 297.355 462.888 295.664ZM467.514 295.641C467.514 294.584 466.786 293.844 465.87 293.844C464.942 293.844 464.226 294.584 464.226 295.641C464.226 296.698 464.942 297.437 465.87 297.437C466.786 297.437 467.514 296.698 467.514 295.641ZM471.552 295.042V298.459H470.213V292.823H471.528V293.786C471.963 293.057 472.667 292.705 473.466 292.705C473.665 292.705 473.865 292.729 474.076 292.764V294.138C473.865 294.067 473.63 294.009 473.313 294.009C472.515 294.009 471.822 294.396 471.552 295.042ZM479.106 298.212C478.672 298.412 478.167 298.518 477.627 298.518C476.429 298.518 475.819 297.907 475.819 296.78V293.879H474.774V292.823H475.819V291.543L477.134 291.367V292.823H479.083V293.879H477.134V296.521C477.134 297.073 477.369 297.379 477.956 297.379C478.378 297.379 478.789 297.261 479.106 297.132V298.212ZM484.111 298.459V297.837C483.712 298.295 483.089 298.588 482.338 298.588C480.952 298.588 480.177 297.66 480.177 296.31V292.823H481.516V296.157C481.516 296.885 481.95 297.414 482.702 297.414C483.336 297.414 483.794 297.156 484.087 296.768V292.823H485.426V298.459H484.111ZM489.909 293.868C489.275 293.868 488.817 294.126 488.523 294.514V298.459H487.184V292.823H488.5V293.445C488.899 292.987 489.521 292.693 490.273 292.693C491.658 292.693 492.433 293.621 492.433 294.971V298.459H491.095V295.124C491.095 294.396 490.66 293.868 489.909 293.868ZM494.826 291.566C494.38 291.566 494.016 291.214 494.016 290.768C494.016 290.321 494.38 289.969 494.826 289.969C495.272 289.969 495.636 290.321 495.636 290.768C495.636 291.214 495.272 291.566 494.826 291.566ZM494.157 298.459V292.823H495.495V298.459H494.157ZM500.952 298.212C500.517 298.412 500.012 298.518 499.472 298.518C498.274 298.518 497.664 297.907 497.664 296.78V293.879H496.619V292.823H497.664V291.543L498.979 291.367V292.823H500.928V293.879H498.979V296.521C498.979 297.073 499.214 297.379 499.801 297.379C500.224 297.379 500.634 297.261 500.952 297.132V298.212ZM502.727 291.566C502.281 291.566 501.917 291.214 501.917 290.768C501.917 290.321 502.281 289.969 502.727 289.969C503.173 289.969 503.537 290.321 503.537 290.768C503.537 291.214 503.173 291.566 502.727 291.566ZM502.057 298.459V292.823H503.396V298.459H502.057ZM510.097 297.931C509.616 298.295 508.782 298.576 507.913 298.576C506.069 298.576 504.754 297.39 504.754 295.641C504.754 293.903 506.069 292.705 507.537 292.705C509.263 292.705 510.25 293.938 510.25 295.664V295.946H506.081C506.21 296.874 506.868 297.473 508.007 297.473C508.747 297.473 509.592 297.179 510.097 296.78V297.931ZM507.537 293.786C506.856 293.786 506.316 294.208 506.128 294.96H508.923C508.759 294.279 508.277 293.786 507.537 293.786ZM514.169 296.968C514.169 296.698 514.005 296.521 513.512 296.345L512.396 295.946C511.657 295.676 511.222 295.136 511.222 294.49C511.222 293.48 512.009 292.717 513.265 292.717C514.017 292.717 514.592 292.893 515.027 293.163V294.431C514.346 293.938 513.817 293.786 513.265 293.786C512.713 293.786 512.443 294.02 512.443 294.326C512.443 294.549 512.619 294.748 512.972 294.878L514.228 295.336C515.085 295.641 515.438 296.181 515.438 296.85C515.438 297.743 514.733 298.576 513.277 298.576C512.572 298.576 511.927 298.424 511.293 298.06V296.803C512.021 297.285 512.655 297.531 513.254 297.531C513.829 297.531 514.169 297.308 514.169 296.968ZM381.767 308.879H380.076V313.459H378.749V308.879H377.692V307.823H378.749V307.001C378.749 305.697 379.535 305.004 380.733 305.004C381.215 305.004 381.59 305.098 381.825 305.216V306.343C381.52 306.202 381.203 306.143 380.874 306.143C380.299 306.143 380.076 306.484 380.076 307.048V307.823H381.767V308.879ZM382.376 310.664C382.376 308.95 383.738 307.705 385.382 307.705C387.062 307.705 388.341 308.926 388.341 310.617C388.341 312.332 386.979 313.576 385.335 313.576C383.715 313.576 382.376 312.355 382.376 310.664ZM387.003 310.641C387.003 309.584 386.275 308.844 385.359 308.844C384.431 308.844 383.715 309.584 383.715 310.641C383.715 311.698 384.431 312.437 385.359 312.437C386.275 312.437 387.003 311.698 387.003 310.641ZM391.04 310.042V313.459H389.702V307.823H391.017V308.786C391.451 308.057 392.156 307.705 392.954 307.705C393.154 307.705 393.354 307.729 393.565 307.764V309.138C393.354 309.067 393.119 309.009 392.802 309.009C392.003 309.009 391.31 309.396 391.04 310.042ZM404.552 312.79C403.777 313.271 402.591 313.576 401.394 313.576C398.752 313.576 396.955 311.815 396.955 309.349C396.955 306.895 398.845 305.122 401.523 305.122C402.591 305.122 403.601 305.368 404.4 305.92V307.482C403.413 306.695 402.509 306.378 401.546 306.378C399.48 306.378 398.376 307.752 398.376 309.349C398.376 310.946 399.491 312.32 401.546 312.32C402.11 312.32 402.65 312.214 403.155 312.026V310.465H401.546V309.255H404.552V312.79ZM407.507 310.042V313.459H406.169V307.823H407.484V308.786C407.918 308.057 408.623 307.705 409.421 307.705C409.621 307.705 409.821 307.729 410.032 307.764V309.138C409.821 309.067 409.586 309.009 409.269 309.009C408.47 309.009 407.777 309.396 407.507 310.042ZM410.62 310.664C410.62 308.95 411.982 307.705 413.626 307.705C415.305 307.705 416.585 308.926 416.585 310.617C416.585 312.332 415.223 313.576 413.579 313.576C411.959 313.576 410.62 312.355 410.62 310.664ZM415.247 310.641C415.247 309.584 414.519 308.844 413.603 308.844C412.675 308.844 411.959 309.584 411.959 310.641C411.959 311.698 412.675 312.437 413.603 312.437C414.519 312.437 415.247 311.698 415.247 310.641ZM423.103 313.459L421.659 309.584L420.203 313.459H419.087L417.244 307.823H418.582L419.733 311.557L421.154 307.823H422.199L423.62 311.557L424.747 307.823H426.062L424.219 313.459H423.103ZM430.933 313.212C430.498 313.412 429.993 313.518 429.453 313.518C428.255 313.518 427.645 312.907 427.645 311.78V308.879H426.6V307.823H427.645V306.543L428.96 306.367V307.823H430.909V308.879H428.96V311.521C428.96 312.073 429.195 312.379 429.782 312.379C430.205 312.379 430.616 312.261 430.933 312.132V313.212ZM434.763 308.868C434.129 308.868 433.671 309.126 433.377 309.514V313.459H432.039V305.063L433.377 304.887V308.421C433.777 307.975 434.387 307.693 435.127 307.693C436.513 307.693 437.288 308.621 437.288 309.971V313.459H435.949V310.124C435.949 309.396 435.514 308.868 434.763 308.868Z" fill="#420C02"/>
<path d="M348.579 319.269C348.579 319.269 348.566 319.269 348.561 319.269C343.442 319.176 338.289 319.081 333.098 318.988C332.613 318.98 332.153 318.636 332.007 318.17C330.866 314.554 330.459 311.117 330.801 307.95C330.843 307.562 331.19 307.283 331.578 307.324C331.966 307.366 332.245 307.713 332.204 308.101C331.889 311.025 332.258 314.214 333.301 317.582C338.365 317.674 343.396 317.765 348.392 317.856C349.495 314.404 349.892 311.135 349.574 308.139C349.533 307.751 349.813 307.404 350.2 307.364C350.585 307.321 350.935 307.603 350.976 307.99C351.321 311.235 350.884 314.761 349.675 318.468C349.523 318.935 349.063 319.269 348.579 319.269Z" fill="#661A0B"/>
<path d="M351.393 308.729H347.065C346.676 308.729 346.36 308.413 346.36 308.024C346.36 307.634 346.676 307.318 347.065 307.318H351.173C351.362 306.256 351.362 305.183 351.173 304.121H330.634C330.445 305.183 330.445 306.256 330.634 307.318H343.614C344.003 307.318 344.319 307.634 344.319 308.024C344.319 308.413 344.003 308.729 343.614 308.729H330.414C329.881 308.729 329.398 308.337 329.293 307.815C329.012 306.424 329.012 305.014 329.293 303.624C329.398 303.103 329.881 302.71 330.414 302.71H351.394C351.927 302.71 352.408 303.103 352.514 303.624C352.795 305.015 352.795 306.426 352.514 307.815C352.408 308.337 351.926 308.729 351.393 308.729Z" fill="#661A0B"/>
<path d="M341.424 297.678H341.423C341.033 297.678 340.719 297.361 340.719 296.971C340.729 293.136 342.157 291.081 343.231 289.867C343.241 289.857 343.249 289.846 343.259 289.836C344.169 288.924 344.634 288.722 345.09 288.694C345.478 288.667 345.823 288.956 345.851 289.345C345.88 289.735 345.595 290.072 345.207 290.1H345.176C345.169 290.103 345.16 290.103 345.15 290.104C345.145 290.105 344.92 290.168 344.272 290.818C343.352 291.861 342.136 293.634 342.128 296.974C342.128 297.364 341.812 297.678 341.423 297.678H341.424Z" fill="#661A0B"/>
<path d="M340.435 303.926C340.045 303.926 339.729 303.609 339.731 303.22C339.738 299.27 338.143 297.541 337.594 296.959C337.39 296.767 336.928 296.358 336.718 296.358C336.715 296.358 336.71 296.358 336.706 296.358C336.669 296.358 336.636 296.358 336.605 296.355C336.217 296.328 335.924 295.991 335.951 295.603C335.978 295.218 336.309 294.929 336.694 294.947H336.72C337.199 294.947 337.698 295.12 338.576 295.946C338.586 295.956 338.595 295.966 338.605 295.976C340.318 297.792 341.147 300.162 341.14 303.223C341.14 303.612 340.824 303.926 340.435 303.926Z" fill="#661A0B"/>
<path d="M347.797 295.06C347.318 295.06 346.839 294.959 346.37 294.758C345.367 294.325 344.536 293.486 344.148 292.51C343.777 291.581 343.838 290.599 344.312 289.671C343.24 289.28 342.449 288.619 342.036 287.754C341.567 286.774 341.672 285.592 342.316 284.593C342.704 283.987 343.254 283.483 343.906 283.138C345.952 282.031 347.965 282.873 349.741 283.615C350.071 283.753 350.381 283.883 350.693 284.001C352.054 284.538 353.277 285.025 354.525 285.571C354.679 285.639 354.797 285.754 354.869 285.894C354.958 286.059 354.981 286.259 354.917 286.45C354.567 287.503 354.05 288.632 353.288 290.004L353.126 290.299C352.138 292.103 350.787 294.574 348.414 295.005C348.208 295.042 348.002 295.062 347.796 295.062L347.797 295.06ZM345.947 288.77C346.012 288.839 346.064 288.922 346.098 289.015C346.184 289.251 346.133 289.514 345.972 289.708C345.333 290.476 345.16 291.244 345.457 291.988C345.711 292.626 346.258 293.176 346.924 293.464C347.336 293.64 347.753 293.692 348.162 293.619C349.873 293.309 350.99 291.265 351.889 289.623L352.054 289.323C352.628 288.29 353.052 287.411 353.363 286.608C352.336 286.17 351.305 285.761 350.181 285.317C349.856 285.193 349.521 285.052 349.195 284.916C347.566 284.235 346.027 283.591 344.573 284.379C344.572 284.379 344.569 284.38 344.567 284.382C344.134 284.61 343.756 284.957 343.5 285.356C343.116 285.952 343.045 286.603 343.305 287.148C343.752 288.086 344.906 288.431 345.553 288.554C345.705 288.584 345.841 288.66 345.942 288.771L345.947 288.77Z" fill="#6473F8"/>
<path d="M334.665 301.238C334.239 301.238 333.812 301.174 333.397 301.046C333.025 300.932 332.816 300.537 332.93 300.165C333.044 299.792 333.439 299.584 333.812 299.698C334.28 299.842 334.792 299.864 335.254 299.764C335.947 299.615 336.458 299.204 336.658 298.634C337.005 297.654 336.434 296.595 336.063 296.05C335.986 295.939 335.946 295.811 335.941 295.681C335.934 295.568 335.955 295.452 336.005 295.344C336.109 295.114 336.333 294.963 336.584 294.939C337.58 294.847 338.246 294.427 338.562 293.689C338.834 293.06 338.836 292.282 338.568 291.609C338.401 291.193 338.143 290.861 337.802 290.624C336.373 289.634 334.137 290.289 332.342 290.815L332.012 290.911C330.876 291.235 329.955 291.557 329.166 291.905C329.583 292.939 330.022 293.959 330.503 295.067C330.658 295.424 330.494 295.84 330.136 295.995C329.779 296.151 329.363 295.987 329.208 295.629C328.628 294.293 328.108 293.084 327.611 291.815C327.551 291.66 327.548 291.493 327.596 291.342C327.651 291.162 327.776 291.005 327.954 290.916C328.947 290.419 330.111 289.986 331.62 289.555L331.943 289.461C333.916 288.883 336.62 288.091 338.603 289.465C339.175 289.863 339.604 290.407 339.875 291.086C340.278 292.101 340.271 293.282 339.855 294.246C339.46 295.166 338.723 295.816 337.733 296.138C338.214 297.172 338.307 298.2 337.986 299.103C337.624 300.128 336.714 300.89 335.553 301.139C335.263 301.203 334.964 301.235 334.665 301.235V301.238Z" fill="#6473F8"/>
<path d="M331.206 299.049C330.963 299.049 330.728 298.925 330.597 298.701C330.202 298.028 329.901 297.294 329.609 296.584C329.474 296.254 329.346 295.942 329.21 295.637C329.051 295.282 329.21 294.864 329.566 294.705C329.921 294.546 330.339 294.705 330.498 295.06C330.643 295.385 330.782 295.722 330.915 296.048C331.188 296.712 331.47 297.4 331.814 297.986C332.011 298.321 331.899 298.754 331.563 298.95C331.451 299.017 331.327 299.048 331.207 299.048L331.206 299.049Z" fill="#6473F8"/>
<path d="M535.48 295.766V306.107" stroke="#420C02" stroke-width="1.55122" stroke-linecap="round"/>
<path d="M540.648 300.936L530.307 300.936" stroke="#420C02" stroke-width="1.55122" stroke-linecap="round"/>
<rect x="307.65" y="342.819" width="258.537" height="61.0147" rx="9.8244" fill="white" stroke="#E4DFDD" stroke-width="1.03415"/>
<path d="M535.473 368.156V378.498" stroke="#420C02" stroke-width="1.55122" stroke-linecap="round"/>
<path d="M540.641 373.327L530.299 373.327" stroke="#420C02" stroke-width="1.55122" stroke-linecap="round"/>
<path d="M379.498 369.814V361.594H382.528C384.406 361.594 385.381 362.745 385.381 364.154C385.381 365.739 384.207 366.761 382.434 366.761H380.907V369.814H379.498ZM382.305 362.827H380.907V365.54H382.305C383.444 365.54 383.972 364.976 383.972 364.189C383.972 363.367 383.444 362.827 382.305 362.827ZM391.365 369.286C390.883 369.65 390.05 369.931 389.181 369.931C387.337 369.931 386.022 368.745 386.022 366.996C386.022 365.258 387.337 364.06 388.805 364.06C390.531 364.06 391.518 365.293 391.518 367.019V367.301H387.349C387.478 368.229 388.136 368.828 389.275 368.828C390.014 368.828 390.86 368.534 391.365 368.135V369.286ZM388.805 365.14C388.124 365.14 387.584 365.563 387.396 366.315H390.191C390.026 365.634 389.545 365.14 388.805 365.14ZM394.216 366.397V369.814H392.877V364.178H394.192V365.14C394.627 364.412 395.332 364.06 396.13 364.06C396.33 364.06 396.529 364.084 396.741 364.119V365.493C396.529 365.422 396.294 365.364 395.977 365.364C395.179 365.364 394.486 365.751 394.216 366.397ZM400.517 368.323C400.517 368.053 400.353 367.876 399.86 367.7L398.744 367.301C398.004 367.031 397.57 366.491 397.57 365.845C397.57 364.835 398.357 364.072 399.613 364.072C400.365 364.072 400.94 364.248 401.374 364.518V365.786C400.693 365.293 400.165 365.14 399.613 365.14C399.061 365.14 398.791 365.375 398.791 365.681C398.791 365.904 398.967 366.103 399.319 366.233L400.576 366.69C401.433 366.996 401.785 367.536 401.785 368.205C401.785 369.098 401.081 369.931 399.625 369.931C398.92 369.931 398.274 369.779 397.64 369.415V368.158C398.368 368.64 399.002 368.886 399.601 368.886C400.177 368.886 400.517 368.663 400.517 368.323ZM402.764 367.019C402.764 365.305 404.126 364.06 405.77 364.06C407.449 364.06 408.729 365.281 408.729 366.972C408.729 368.687 407.367 369.931 405.723 369.931C404.103 369.931 402.764 368.71 402.764 367.019ZM407.391 366.996C407.391 365.939 406.663 365.199 405.747 365.199C404.819 365.199 404.103 365.939 404.103 366.996C404.103 368.053 404.819 368.792 405.747 368.792C406.663 368.792 407.391 368.053 407.391 366.996ZM412.814 365.223C412.18 365.223 411.722 365.481 411.428 365.869V369.814H410.09V364.178H411.405V364.8C411.804 364.342 412.426 364.048 413.178 364.048C414.563 364.048 415.338 364.976 415.338 366.326V369.814H414V366.479C414 365.751 413.565 365.223 412.814 365.223ZM421.618 369.873C420.784 369.873 420.361 369.509 420.291 368.91C419.798 369.567 419.07 369.908 418.271 369.908C417.203 369.908 416.592 369.309 416.592 368.405C416.592 367.536 417.144 366.961 418.588 366.597L420.244 366.174C420.185 365.469 419.786 365.211 419.058 365.199C418.424 365.187 417.801 365.422 417.132 365.904V364.671C417.743 364.283 418.412 364.06 419.222 364.06C420.796 364.06 421.571 364.776 421.571 366.221V368.546C421.571 368.781 421.735 368.898 421.982 368.898C422.17 368.898 422.264 368.875 422.428 368.816V369.732C422.181 369.837 421.9 369.873 421.618 369.873ZM417.907 368.323C417.907 368.628 418.142 368.875 418.67 368.875C419.304 368.875 419.915 368.487 420.256 367.97V367.113L419.011 367.442C418.142 367.677 417.907 367.935 417.907 368.323ZM423.552 369.814V361.418L424.891 361.242V369.814H423.552ZM427.318 362.921C426.871 362.921 426.507 362.569 426.507 362.123C426.507 361.676 426.871 361.324 427.318 361.324C427.764 361.324 428.128 361.676 428.128 362.123C428.128 362.569 427.764 362.921 427.318 362.921ZM426.648 369.814V364.178H427.987V369.814H426.648ZM429.228 365.234V364.178H433.854V364.929L430.942 368.757H434.03V369.814H429.251V369.062L432.21 365.234H429.228ZM440.146 369.286C439.665 369.65 438.831 369.931 437.962 369.931C436.119 369.931 434.804 368.745 434.804 366.996C434.804 365.258 436.119 364.06 437.587 364.06C439.313 364.06 440.299 365.293 440.299 367.019V367.301H436.13C436.26 368.229 436.917 368.828 438.056 368.828C438.796 368.828 439.641 368.534 440.146 368.135V369.286ZM437.587 365.14C436.905 365.14 436.365 365.563 436.177 366.315H438.972C438.808 365.634 438.326 365.14 437.587 365.14ZM445.863 369.814V369.168C445.405 369.673 444.759 369.931 444.019 369.931C442.493 369.931 441.248 368.745 441.248 367.019C441.248 365.317 442.516 364.06 444.078 364.06C444.771 364.06 445.381 364.26 445.839 364.683V361.418L447.178 361.242V369.814H445.863ZM442.586 366.996C442.586 368.053 443.338 368.816 444.348 368.816C445.005 368.816 445.522 368.534 445.839 368.088V365.951C445.534 365.481 445.005 365.176 444.324 365.176C443.303 365.176 442.586 365.939 442.586 366.996ZM451.592 369.814V361.594H453.002V369.814H451.592ZM457.616 365.223C456.982 365.223 456.524 365.481 456.231 365.869V369.814H454.892V364.178H456.207V364.8C456.606 364.342 457.229 364.048 457.98 364.048C459.366 364.048 460.141 364.976 460.141 366.326V369.814H458.802V366.479C458.802 365.751 458.368 365.223 457.616 365.223ZM465.563 369.567C465.128 369.767 464.624 369.873 464.083 369.873C462.886 369.873 462.275 369.262 462.275 368.135V365.234H461.23V364.178H462.275V362.898L463.59 362.722V364.178H465.539V365.234H463.59V367.876C463.59 368.428 463.825 368.734 464.412 368.734C464.835 368.734 465.246 368.616 465.563 368.487V369.567ZM471.612 369.286C471.131 369.65 470.297 369.931 469.428 369.931C467.585 369.931 466.27 368.745 466.27 366.996C466.27 365.258 467.585 364.06 469.053 364.06C470.779 364.06 471.765 365.293 471.765 367.019V367.301H467.596C467.726 368.229 468.383 368.828 469.522 368.828C470.262 368.828 471.107 368.534 471.612 368.135V369.286ZM469.053 365.14C468.371 365.14 467.831 365.563 467.643 366.315H470.438C470.274 365.634 469.792 365.14 469.053 365.14ZM474.464 366.397V369.814H473.125V364.178H474.44V365.14C474.874 364.412 475.579 364.06 476.378 364.06C476.577 364.06 476.777 364.084 476.988 364.119V365.493C476.777 365.422 476.542 365.364 476.225 365.364C475.426 365.364 474.734 365.751 474.464 366.397ZM483.442 364.178L481.07 369.814H479.814L477.442 364.178H478.874L480.459 368.264L482.056 364.178H483.442ZM485.112 362.921C484.666 362.921 484.302 362.569 484.302 362.123C484.302 361.676 484.666 361.324 485.112 361.324C485.559 361.324 485.923 361.676 485.923 362.123C485.923 362.569 485.559 362.921 485.112 362.921ZM484.443 369.814V364.178H485.782V369.814H484.443ZM492.483 369.286C492.001 369.65 491.168 369.931 490.299 369.931C488.455 369.931 487.14 368.745 487.14 366.996C487.14 365.258 488.455 364.06 489.923 364.06C491.649 364.06 492.635 365.293 492.635 367.019V367.301H488.467C488.596 368.229 489.254 368.828 490.393 368.828C491.132 368.828 491.978 368.534 492.483 368.135V369.286ZM489.923 365.14C489.242 365.14 488.702 365.563 488.514 366.315H491.308C491.144 365.634 490.663 365.14 489.923 365.14ZM499.153 369.814L497.709 365.939L496.252 369.814H495.137L493.293 364.178H494.632L495.783 367.912L497.204 364.178H498.249L499.67 367.912L500.797 364.178H502.112L500.268 369.814H499.153ZM387.084 386.575C386.614 386.751 386.274 386.834 385.78 386.834C384.759 386.834 383.972 386.282 383.314 385.777L382.657 385.272C382.234 384.943 381.776 384.814 381.389 384.814C380.778 384.814 380.214 385.049 379.522 385.413V384.086C379.745 383.957 380.132 383.804 380.543 383.722C379.663 382.959 379.122 381.878 379.122 380.704C379.122 378.332 381.036 376.477 383.444 376.477C385.863 376.477 387.718 378.332 387.718 380.704C387.718 382.853 386.109 384.509 384.007 384.779L384.583 385.166C384.982 385.436 385.393 385.648 385.874 385.648C386.297 385.648 386.591 385.554 387.084 385.342V386.575ZM383.42 377.733C381.741 377.733 380.543 379.072 380.543 380.704C380.543 382.301 381.741 383.675 383.42 383.675C385.088 383.675 386.297 382.301 386.297 380.704C386.297 379.119 385.088 377.733 383.42 377.733ZM393.129 384.814V384.192C392.73 384.65 392.108 384.943 391.356 384.943C389.971 384.943 389.196 384.015 389.196 382.665V379.178H390.534V382.512C390.534 383.24 390.969 383.769 391.72 383.769C392.354 383.769 392.812 383.511 393.106 383.123V379.178H394.444V384.814H393.129ZM401.146 384.286C400.665 384.65 399.831 384.931 398.962 384.931C397.119 384.931 395.804 383.745 395.804 381.996C395.804 380.258 397.119 379.06 398.587 379.06C400.313 379.06 401.299 380.293 401.299 382.019V382.301H397.13C397.26 383.229 397.917 383.828 399.056 383.828C399.796 383.828 400.641 383.534 401.146 383.135V384.286ZM398.587 380.14C397.905 380.14 397.365 380.563 397.177 381.315H399.972C399.808 380.634 399.326 380.14 398.587 380.14ZM405.219 383.323C405.219 383.053 405.054 382.876 404.561 382.7L403.446 382.301C402.706 382.031 402.271 381.491 402.271 380.845C402.271 379.835 403.058 379.072 404.315 379.072C405.066 379.072 405.641 379.248 406.076 379.518V380.786C405.395 380.293 404.866 380.14 404.315 380.14C403.763 380.14 403.493 380.375 403.493 380.681C403.493 380.904 403.669 381.103 404.021 381.233L405.277 381.69C406.135 381.996 406.487 382.536 406.487 383.205C406.487 384.098 405.782 384.931 404.326 384.931C403.622 384.931 402.976 384.779 402.342 384.415V383.158C403.07 383.64 403.704 383.886 404.303 383.886C404.878 383.886 405.219 383.663 405.219 383.323ZM411.449 384.567C411.015 384.767 410.51 384.873 409.97 384.873C408.772 384.873 408.161 384.262 408.161 383.135V380.234H407.116V379.178H408.161V377.898L409.476 377.722V379.178H411.426V380.234H409.476V382.876C409.476 383.428 409.711 383.734 410.298 383.734C410.721 383.734 411.132 383.616 411.449 383.487V384.567ZM413.224 377.921C412.778 377.921 412.414 377.569 412.414 377.123C412.414 376.676 412.778 376.324 413.224 376.324C413.671 376.324 414.035 376.676 414.035 377.123C414.035 377.569 413.671 377.921 413.224 377.921ZM412.555 384.814V379.178H413.894V384.814H412.555ZM415.252 382.019C415.252 380.305 416.614 379.06 418.258 379.06C419.937 379.06 421.217 380.281 421.217 381.972C421.217 383.687 419.855 384.931 418.211 384.931C416.591 384.931 415.252 383.71 415.252 382.019ZM419.878 381.996C419.878 380.939 419.15 380.199 418.235 380.199C417.307 380.199 416.591 380.939 416.591 381.996C416.591 383.053 417.307 383.792 418.235 383.792C419.15 383.792 419.878 383.053 419.878 381.996ZM425.302 380.223C424.668 380.223 424.21 380.481 423.916 380.869V384.814H422.577V379.178H423.893V379.8C424.292 379.342 424.914 379.048 425.666 379.048C427.051 379.048 427.826 379.976 427.826 381.326V384.814H426.488V381.479C426.488 380.751 426.053 380.223 425.302 380.223ZM432.109 383.323C432.109 383.053 431.945 382.876 431.452 382.7L430.336 382.301C429.596 382.031 429.162 381.491 429.162 380.845C429.162 379.835 429.949 379.072 431.205 379.072C431.957 379.072 432.532 379.248 432.967 379.518V380.786C432.285 380.293 431.757 380.14 431.205 380.14C430.653 380.14 430.383 380.375 430.383 380.681C430.383 380.904 430.559 381.103 430.912 381.233L432.168 381.69C433.025 381.996 433.378 382.536 433.378 383.205C433.378 384.098 432.673 384.931 431.217 384.931C430.512 384.931 429.867 384.779 429.232 384.415V383.158C429.96 383.64 430.595 383.886 431.193 383.886C431.769 383.886 432.109 383.663 432.109 383.323ZM440.707 380.234H439.016V384.814H437.689V380.234H436.633V379.178H437.689V378.356C437.689 377.052 438.476 376.359 439.674 376.359C440.155 376.359 440.531 376.453 440.766 376.571V377.698C440.461 377.557 440.144 377.498 439.815 377.498C439.239 377.498 439.016 377.839 439.016 378.403V379.178H440.707V380.234ZM441.317 382.019C441.317 380.305 442.679 379.06 444.323 379.06C446.002 379.06 447.282 380.281 447.282 381.972C447.282 383.687 445.92 384.931 444.276 384.931C442.656 384.931 441.317 383.71 441.317 382.019ZM445.943 381.996C445.943 380.939 445.215 380.199 444.3 380.199C443.372 380.199 442.656 380.939 442.656 381.996C442.656 383.053 443.372 383.792 444.3 383.792C445.215 383.792 445.943 383.053 445.943 381.996ZM449.981 381.397V384.814H448.642V379.178H449.958V380.14C450.392 379.412 451.097 379.06 451.895 379.06C452.095 379.06 452.294 379.084 452.506 379.119V380.493C452.294 380.422 452.059 380.364 451.742 380.364C450.944 380.364 450.251 380.751 449.981 381.397ZM460.287 384.931C457.704 384.931 455.884 383.17 455.884 380.704C455.884 378.25 457.751 376.477 460.334 376.477C461.638 376.477 462.671 376.923 463.258 377.44V379.048C462.401 378.179 461.438 377.745 460.358 377.745C458.444 377.745 457.305 379.107 457.305 380.704C457.305 382.313 458.444 383.687 460.358 383.687C461.52 383.687 462.565 383.182 463.258 382.407V383.933C462.565 384.544 461.497 384.931 460.287 384.931ZM467.478 380.223C466.844 380.223 466.386 380.481 466.092 380.869V384.814H464.754V376.418L466.092 376.242V379.776C466.492 379.33 467.102 379.048 467.842 379.048C469.228 379.048 470.003 379.976 470.003 381.326V384.814H468.664V381.479C468.664 380.751 468.23 380.223 467.478 380.223ZM473.065 381.397V384.814H471.726V379.178H473.041V380.14C473.475 379.412 474.18 379.06 474.979 379.06C475.178 379.06 475.378 379.084 475.589 379.119V380.493C475.378 380.422 475.143 380.364 474.826 380.364C474.027 380.364 473.335 380.751 473.065 381.397ZM477.36 377.921C476.914 377.921 476.55 377.569 476.55 377.123C476.55 376.676 476.914 376.324 477.36 376.324C477.807 376.324 478.171 376.676 478.171 377.123C478.171 377.569 477.807 377.921 477.36 377.921ZM476.691 384.814V379.178H478.03V384.814H476.691ZM482.347 383.323C482.347 383.053 482.183 382.876 481.69 382.7L480.574 382.301C479.834 382.031 479.4 381.491 479.4 380.845C479.4 379.835 480.187 379.072 481.443 379.072C482.195 379.072 482.77 379.248 483.204 379.518V380.786C482.523 380.293 481.995 380.14 481.443 380.14C480.891 380.14 480.621 380.375 480.621 380.681C480.621 380.904 480.797 381.103 481.149 381.233L482.406 381.69C483.263 381.996 483.615 382.536 483.615 383.205C483.615 384.098 482.911 384.931 481.455 384.931C480.75 384.931 480.104 384.779 479.47 384.415V383.158C480.198 383.64 480.832 383.886 481.431 383.886C482.007 383.886 482.347 383.663 482.347 383.323ZM488.578 384.567C488.143 384.767 487.638 384.873 487.098 384.873C485.9 384.873 485.29 384.262 485.29 383.135V380.234H484.245V379.178H485.29V377.898L486.605 377.722V379.178H488.554V380.234H486.605V382.876C486.605 383.428 486.84 383.734 487.427 383.734C487.85 383.734 488.261 383.616 488.578 383.487V384.567ZM490.353 377.921C489.907 377.921 489.543 377.569 489.543 377.123C489.543 376.676 489.907 376.324 490.353 376.324C490.799 376.324 491.163 376.676 491.163 377.123C491.163 377.569 490.799 377.921 490.353 377.921ZM489.684 384.814V379.178H491.022V384.814H489.684ZM495.504 380.223C494.87 380.223 494.412 380.481 494.118 380.869V384.814H492.78V379.178H494.095V379.8C494.494 379.342 495.116 379.048 495.868 379.048C497.254 379.048 498.029 379.976 498.029 381.326V384.814H496.69V381.479C496.69 380.751 496.255 380.223 495.504 380.223ZM504.308 384.873C503.474 384.873 503.051 384.509 502.981 383.91C502.488 384.567 501.76 384.908 500.961 384.908C499.893 384.908 499.282 384.309 499.282 383.405C499.282 382.536 499.834 381.961 501.278 381.597L502.934 381.174C502.875 380.469 502.476 380.211 501.748 380.199C501.114 380.187 500.491 380.422 499.822 380.904V379.671C500.433 379.283 501.102 379.06 501.912 379.06C503.486 379.06 504.261 379.776 504.261 381.221V383.546C504.261 383.781 504.425 383.898 504.672 383.898C504.86 383.898 504.954 383.875 505.118 383.816V384.732C504.871 384.837 504.59 384.873 504.308 384.873ZM500.597 383.323C500.597 383.628 500.832 383.875 501.36 383.875C501.995 383.875 502.605 383.487 502.946 382.97V382.113L501.701 382.442C500.832 382.677 500.597 382.935 500.597 383.323Z" fill="#420C02"/>
<path d="M342.834 366.424C342.834 366.424 342.828 366.424 342.825 366.424L327.968 366.243C327.569 366.239 327.25 365.91 327.254 365.512C327.258 365.113 327.589 364.796 327.985 364.797L342.843 364.978C343.242 364.983 343.561 365.311 343.557 365.71C343.552 366.106 343.229 366.424 342.834 366.424Z" fill="#661A0B"/>
<path d="M355.137 392.633C355.059 392.633 354.985 392.63 354.922 392.629C352.33 392.543 349.828 391.114 348.3 388.869C348.247 388.869 348.195 388.869 348.15 388.869C341.312 388.869 335.75 384.173 335.75 378.402C335.75 372.63 341.313 367.934 348.15 367.934C354.987 367.934 360.55 372.63 360.55 378.402C360.55 379.181 360.448 379.958 360.247 380.711C360.144 381.097 359.748 381.327 359.362 381.223C358.976 381.12 358.748 380.724 358.85 380.338C359.02 379.707 359.105 379.055 359.105 378.4C359.105 373.425 354.19 369.378 348.15 369.378C342.11 369.378 337.195 373.425 337.195 378.4C337.195 383.375 342.11 387.422 348.15 387.422C348.358 387.422 348.711 387.43 348.711 387.43C348.957 387.434 349.184 387.564 349.312 387.774C350.56 389.804 352.728 391.111 354.968 391.185C355.026 391.186 355.149 391.19 355.246 391.185C355.261 390.033 355.243 388.853 355.224 387.713C355.214 387.064 355.204 386.395 355.199 385.734C355.179 385.491 355.28 385.247 355.487 385.094C356.182 384.576 356.795 383.988 357.308 383.346C357.557 383.034 358.012 382.983 358.324 383.234C358.636 383.482 358.687 383.937 358.437 384.25C357.921 384.896 357.32 385.491 356.646 386.026C356.652 386.583 356.661 387.145 356.669 387.691C356.688 388.868 356.707 390.085 356.69 391.284C356.682 391.785 356.473 392.088 356.298 392.254C355.948 392.587 355.487 392.634 355.137 392.634V392.633Z" fill="#661A0B"/>
<path d="M354.765 379.123H340.723C340.324 379.123 340 378.799 340 378.4C340 378.001 340.324 377.677 340.723 377.677H354.763C355.162 377.677 355.486 378.001 355.486 378.4C355.486 378.799 355.162 379.123 354.763 379.123H354.765Z" fill="#6473F8"/>
<path d="M328.417 379.753C328.066 379.753 327.606 379.705 327.256 379.373C327.081 379.207 326.873 378.903 326.865 378.403C326.85 377.482 326.859 377.081 326.872 376.414C326.876 376.199 326.88 375.955 326.886 375.657L326.911 373.149C324.423 371.173 323.004 368.412 323.004 365.52C323.004 359.749 328.567 355.053 335.404 355.053C342.241 355.053 347.804 359.749 347.804 365.52C347.804 365.919 347.48 366.243 347.081 366.243C346.682 366.243 346.359 365.919 346.359 365.52C346.359 360.545 341.444 356.498 335.404 356.498C329.364 356.498 324.449 360.545 324.449 365.52C324.449 368.063 325.769 370.504 328.069 372.215C328.254 372.353 328.362 372.571 328.359 372.802L328.332 375.674C328.327 375.979 328.322 376.225 328.317 376.442C328.304 377.073 328.297 377.462 328.309 378.305C328.404 378.311 328.527 378.305 328.585 378.305C330.825 378.231 332.993 376.924 334.24 374.894C334.369 374.684 334.596 374.554 334.842 374.55C334.842 374.55 335.194 374.542 335.403 374.542C335.816 374.542 336.232 374.522 336.647 374.485C338.289 371.04 341.955 368.589 346.327 368.045C346.721 367.996 347.084 368.277 347.133 368.674C347.183 369.07 346.902 369.431 346.505 369.481C342.479 369.981 339.145 372.264 337.802 375.44C337.701 375.678 337.481 375.843 337.225 375.875C336.621 375.95 336.008 375.988 335.403 375.988C335.358 375.988 335.306 375.988 335.252 375.988C333.726 378.233 331.224 379.662 328.632 379.747C328.567 379.749 328.494 379.752 328.415 379.752L328.417 379.753Z" fill="#661A0B"/>
<path d="M342.834 363.533C342.834 363.533 342.828 363.533 342.825 363.533L327.968 363.352C327.569 363.348 327.25 363.02 327.254 362.621C327.258 362.222 327.589 361.9 327.985 361.907L342.843 362.087C343.242 362.092 343.561 362.42 343.557 362.819C343.552 363.215 343.229 363.533 342.834 363.533Z" fill="#661A0B"/>
<path d="M334.162 369.314C334.162 369.314 334.147 369.314 334.14 369.314L327.955 369.134C327.556 369.122 327.243 368.79 327.254 368.391C327.266 367.992 327.603 367.678 327.997 367.69L334.182 367.87C334.581 367.882 334.895 368.214 334.883 368.613C334.871 369.005 334.551 369.314 334.16 369.314H334.162Z" fill="#661A0B"/>
<path d="M354.765 376.232H340.723C340.324 376.232 340 375.908 340 375.509C340 375.111 340.324 374.787 340.723 374.787H354.763C355.162 374.787 355.486 375.111 355.486 375.509C355.486 375.908 355.162 376.232 354.763 376.232H354.765Z" fill="#6473F8"/>
<path d="M347.536 382.014H340.723C340.324 382.014 340 381.69 340 381.291C340 380.892 340.324 380.568 340.723 380.568H347.536C347.935 380.568 348.259 380.892 348.259 381.291C348.259 381.69 347.935 382.014 347.536 382.014Z" fill="#6473F8"/>
</g>
<defs>
<clipPath id="clip0_5872_45436">
<rect width="592" height="431" fill="white"/>
</clipPath>
</defs>
</svg>
