<svg width="592" height="431" viewBox="0 0 592 431" fill="none" xmlns="http://www.w3.org/2000/svg">
<path d="M434.995 189.853C434.995 268.911 370.906 333 291.848 333" stroke="#6473F8" stroke-width="194.098"/>
<path d="M434.995 180.147C434.995 101.089 370.906 37.0001 291.848 37.0001" stroke="#D7E85E" stroke-width="72.7868"/>
<path d="M139 180.147C139 101.089 203.089 37.0001 282.147 37.0001" stroke="#E05D52" stroke-width="7.99998"/>
<path d="M282.147 333C203.089 333 139 268.911 139 189.853" stroke="#067B85" stroke-width="26.6666" stroke-linejoin="bevel"/>
<rect x="291.848" y="66.1136" width="133.442" height="114.033" fill="#D7E85E"/>
<rect x="293.061" y="191.066" width="140.721" height="111.606" fill="#6473F8" stroke="#6473F8" stroke-width="2.42622"/>
<path d="M279.724 305.098C216.481 305.098 165.136 254.156 164.485 191.066H280.938V305.098H279.724Z" fill="#053F44" stroke="#053F44" stroke-width="2.42622"/>
<path d="M142.591 156.039C150.671 101.787 191.126 58.0051 244.571 45.6715L282.147 37.0001V180.147H139L142.591 156.039Z" fill="#E05D52"/>
<path d="M226.417 149.067V121.893H237.791C245.632 121.893 251.999 127.211 251.999 135.48C251.999 143.748 245.283 149.067 237.597 149.067H226.417ZM236.937 127.405H233.055V143.71H236.937C242.139 143.71 245.322 140.294 245.322 135.519C245.322 130.977 242.1 127.405 236.937 127.405Z" fill="#882F28"/>
<path d="M332.414 149.067V121.893H339.052V149.067H332.414Z" fill="#A6B633"/>
<path d="M229.137 244.172V238.155C233.329 240.679 236.047 241.455 238.376 241.455C240.666 241.455 241.947 240.485 241.947 238.932C241.947 237.728 241.21 236.836 239.113 235.981L234.261 233.963C230.418 232.371 228.71 229.964 228.71 226.704C228.71 222.006 232.32 218.551 238.725 218.551C242.335 218.551 245.13 219.483 246.955 220.609V226.937C243.384 224.491 240.627 223.753 238.337 223.753C236.357 223.753 235.154 224.763 235.154 226.082C235.154 227.169 235.853 228.062 237.832 228.877L242.568 230.818C246.8 232.565 248.585 234.856 248.585 238.272C248.585 243.085 244.665 246.502 238.454 246.502C234.766 246.502 231.621 245.648 229.137 244.172Z" fill="#067B85"/>
<path d="M338.23 246.463C329.651 246.463 323.557 240.756 323.557 232.527C323.557 224.336 329.806 218.59 338.386 218.59C342.5 218.59 345.722 219.794 347.896 221.502V228.256C345.063 225.733 342.19 224.491 338.89 224.491C333.456 224.491 330.311 228.14 330.311 232.565C330.311 237.068 333.533 240.756 338.968 240.756C342.5 240.756 345.49 239.398 347.896 237.107V243.551C345.334 245.415 342.112 246.463 338.23 246.463Z" fill="#A4ADFA"/>
<path d="M168.104 179.882C168.356 117.045 219.499 66.3092 282.336 66.5604" stroke="#882F28" stroke-width="26.6666" stroke-linejoin="bevel"/>
<path d="M291.89 48.5547C364.546 48.5547 423.445 107.454 423.445 180.11" stroke="#A6B633" stroke-width="26.6666" stroke-linejoin="bevel"/>
<path d="M402.998 189.889C402.998 251.254 353.252 301 291.887 301" stroke="#A4ADFA" stroke-width="26.6666" stroke-linejoin="bevel"/>
<path d="M183.882 121.11L188.575 126.214L187.53 128.205L177.562 126.006L178.705 123.827L185.08 125.362L180.518 120.373L181.421 118.656L188.159 119.619L183.239 115.189L184.325 113.119L191.802 120.065L190.742 122.084L183.883 121.106L183.882 121.11Z" fill="#E05D52"/>
<path d="M186.58 110.187L187.961 108.218L196.013 113.879L194.632 115.848L186.58 110.187Z" fill="#E05D52"/>
<path d="M190.085 105.267L195.199 99.3126L196.353 100.303L197.9 107.527L198.001 108.095L201.274 104.287L202.787 105.588L197.463 111.785L196.322 110.805L194.77 103.501L194.681 102.98L191.603 106.564L190.09 105.263L190.085 105.267Z" fill="#E05D52"/>
<path d="M198.053 96.4131L203.158 91.768L204.476 93.2135L201.146 96.2437L202.482 97.7089L205.466 94.9937L206.726 96.3751L203.742 99.0903L205.211 100.703L208.57 97.6466L209.821 99.0181L204.681 103.694L198.057 96.4134L198.053 96.4131Z" fill="#E05D52"/>
<path d="M206.254 89.3033L211.845 85.2426L213 86.8344L209.358 89.4771L210.583 91.1618L213.84 88.7991L214.991 90.3813L211.734 92.744L213.992 95.8497L212.044 97.2629L206.259 89.2942L206.254 89.3033Z" fill="#E05D52"/>
<path d="M214.747 83.3639L216.777 82.0771L222.05 90.3944L220.02 91.6812L214.747 83.3639Z" fill="#E05D52"/>
<path d="M226.907 87.5474L223.194 80.6367L220.42 82.1283L219.475 80.3692L227.154 76.2408L228.099 77.9998L225.31 79.4953L229.024 86.406L226.908 87.5427L226.907 87.5474Z" fill="#E05D52"/>
<path d="M207.501 312.075L212.427 307.197L214.456 308.167L212.627 318.21L210.407 317.148L211.705 310.721L206.889 315.465L205.139 314.626L205.852 307.857L201.607 312.938L199.499 311.929L206.163 304.199L208.22 305.184L207.496 312.075L207.501 312.075Z" fill="#053F44"/>
<path d="M196.492 309.791L194.473 308.483L199.833 300.227L201.852 301.534L196.492 309.791Z" fill="#053F44"/>
<path d="M191.443 306.469L185.303 301.579L186.25 300.389L193.411 298.576L193.976 298.454L190.049 295.324L191.293 293.764L197.683 298.855L196.745 300.031L189.505 301.852L188.987 301.961L192.682 304.904L191.438 306.464L191.443 306.469Z" fill="#053F44"/>
<path d="M182.299 298.829L177.468 293.899L178.864 292.529L182.015 295.744L183.43 294.355L180.606 291.473L181.94 290.163L184.764 293.044L186.321 291.517L183.142 288.273L184.466 286.972L189.33 291.935L182.299 298.824L182.299 298.829Z" fill="#053F44"/>
<path d="M174.889 290.897L170.624 285.46L172.172 284.247L174.948 287.789L176.586 286.502L174.105 283.335L175.643 282.126L178.125 285.293L181.145 282.922L182.629 284.816L174.88 290.892L174.889 290.897Z" fill="#053F44"/>
<path d="M168.642 282.634L167.281 280.652L175.398 275.075L176.759 277.057L168.642 282.634Z" fill="#053F44"/>
<path d="M172.372 270.329L165.603 274.296L167.197 277.013L165.474 278.022L161.064 270.501L162.787 269.492L164.384 272.223L171.153 268.256L172.367 270.329L172.372 270.329Z" fill="#053F44"/>
<path d="M364.786 70.9214L359.712 75.6455L357.714 74.6135L359.851 64.6316L362.037 65.7616L360.542 72.1454L365.502 67.552L367.225 68.4445L366.304 75.1883L370.703 70.2402L372.779 71.3134L365.881 78.8342L363.855 77.7868L364.79 70.9216L364.786 70.9214Z" fill="#D7E85E"/>
<path d="M375.724 73.5444L377.702 74.9134L372.091 83.0012L370.113 81.6322L375.724 73.5444Z" fill="#D7E85E"/>
<path d="M380.669 77.0209L386.655 82.0973L385.672 83.2576L378.459 84.8498L377.891 84.9547L381.719 88.203L380.428 89.7245L374.197 84.4396L375.171 83.2929L382.464 81.695L382.985 81.602L379.382 78.5472L380.673 77.0258L380.669 77.0209Z" fill="#D7E85E"/>
<path d="M389.569 84.9361L394.246 90.0123L392.809 91.3392L389.758 88.0285L388.301 89.3733L391.035 92.3405L389.662 93.6094L386.928 90.6421L385.324 92.1208L388.402 95.4608L387.038 96.7207L382.33 91.6102L389.569 84.9407L389.569 84.9361Z" fill="#D7E85E"/>
<path d="M396.732 93.0927L400.828 98.6581L399.243 99.8232L396.578 96.1973L394.901 97.4332L397.284 100.675L395.709 101.836L393.326 98.5941L390.234 100.872L388.809 98.9323L396.741 93.0978L396.732 93.0927Z" fill="#D7E85E"/>
<path d="M402.726 101.543L404.026 103.566L395.742 108.891L394.442 106.869L402.726 101.543Z" fill="#D7E85E"/>
<path d="M398.614 113.729L405.501 109.972L403.992 107.208L405.745 106.252L409.922 113.905L408.169 114.861L406.656 112.082L399.769 115.839L398.619 113.73L398.614 113.729Z" fill="#D7E85E"/>
<path d="M388.075 246.923L383.367 241.835L384.405 239.84L394.38 242.008L393.243 244.19L386.864 242.676L391.442 247.649L390.545 249.37L383.804 248.429L388.738 252.843L387.659 254.916L380.159 247.994L381.213 245.971L388.075 246.928L388.075 246.923Z" fill="#6473F8"/>
<path d="M385.422 257.854L384.047 259.827L375.976 254.192L377.351 252.218L385.422 257.854Z" fill="#6473F8"/>
<path d="M381.934 262.784L376.839 268.755L375.682 267.768L374.112 260.55L374.009 259.982L370.749 263.8L369.231 262.504L374.535 256.29L375.679 257.267L377.254 264.565L377.346 265.086L380.412 261.493L381.929 262.789L381.934 262.784Z" fill="#6473F8"/>
<path d="M373.986 271.664L368.896 276.325L367.573 274.884L370.893 271.843L369.553 270.382L366.577 273.107L365.313 271.73L368.288 269.005L366.815 267.397L363.465 270.464L362.209 269.097L367.334 264.404L373.982 271.664L373.986 271.664Z" fill="#6473F8"/>
<path d="M365.806 278.799L360.228 282.878L359.068 281.29L362.702 278.635L361.471 276.955L358.222 279.328L357.066 277.749L360.315 275.376L358.047 272.278L359.991 270.858L365.801 278.808L365.806 278.799Z" fill="#6473F8"/>
<path d="M357.339 284.767L355.312 286.06L350.012 277.76L352.039 276.466L357.339 284.767Z" fill="#6473F8"/>
<path d="M345.168 280.623L348.904 287.521L351.674 286.021L352.624 287.777L344.958 291.93L344.008 290.174L346.791 288.67L343.055 281.771L345.168 280.627L345.168 280.623Z" fill="#6473F8"/>
</svg>
