<svg width="595" height="395" viewBox="0 0 595 395" fill="none" xmlns="http://www.w3.org/2000/svg">
<rect width="34.2" height="34.2" rx="17.1" fill="#E05D52"/>
<path d="M22.3149 17.2841C22.3149 19.3861 21.7944 21.0277 20.8534 22.2289C19.6923 23.7103 18.4911 24.1708 15.9086 24.1708H12.4853V10.3173H15.3681C17.9706 10.3173 19.5121 10.7977 20.8134 12.2792C21.8344 13.4603 22.3149 15.122 22.3149 17.2841ZM19.7524 17.5243C19.7524 15.7426 19.5922 14.3212 18.8715 13.3402C18.2309 12.4594 17.5102 12.139 16.269 12.139H14.8076V22.2889H16.329C18.7714 22.2889 19.7524 20.6674 19.7524 17.5243Z" fill="white"/>
<path d="M60.8295 21.9572V10.3405H65.2605C68.5463 10.3405 71.185 12.7136 71.185 16.1488C71.185 19.584 68.4302 21.9572 65.1609 21.9572H60.8295ZM65.0281 12.0996H62.821V20.2312H65.0281C67.534 20.2312 69.1604 18.4887 69.1604 16.1488C69.1604 13.8753 67.5008 12.0996 65.0281 12.0996ZM80.3069 21.2104C79.6265 21.7248 78.4483 22.1231 77.2202 22.1231C74.6148 22.1231 72.7561 20.447 72.7561 17.9743C72.7561 15.5182 74.6148 13.8255 76.6892 13.8255C79.1287 13.8255 80.5227 15.568 80.5227 18.0075V18.4058H74.6314C74.8139 19.7168 75.7432 20.5632 77.353 20.5632C78.3985 20.5632 79.5933 20.1483 80.3069 19.584V21.2104ZM76.6892 15.3522C75.7266 15.3522 74.9633 15.9497 74.6977 17.0118H78.6474C78.4151 16.0492 77.7347 15.3522 76.6892 15.3522ZM86.2282 22.1231C83.7887 22.1231 81.8802 20.3972 81.8802 18.0075C81.8802 15.5846 83.8219 13.8255 86.2282 13.8255C87.2737 13.8255 88.2362 14.0744 88.7507 14.5059V16.3148C88.0869 15.8003 87.2903 15.4518 86.3444 15.4518C84.8674 15.4518 83.7555 16.4973 83.7555 17.9577C83.7555 19.4679 84.8674 20.5134 86.361 20.5134C87.3069 20.5134 88.0537 20.1815 88.7507 19.667V21.3597C88.0537 21.8742 87.1243 22.1231 86.2282 22.1231ZM91.5746 12.2157C90.944 12.2157 90.4295 11.7179 90.4295 11.0873C90.4295 10.4566 90.944 9.95878 91.5746 9.95878C92.2052 9.95878 92.7197 10.4566 92.7197 11.0873C92.7197 11.7179 92.2052 12.2157 91.5746 12.2157ZM90.6287 21.9572V13.9914H92.5205V21.9572H90.6287ZM98.6221 19.8496C98.6221 19.4679 98.3898 19.2189 97.6928 18.97L96.1163 18.4058C95.0708 18.0241 94.4567 17.2607 94.4567 16.348C94.4567 14.9208 95.5686 13.8421 97.3443 13.8421C98.4064 13.8421 99.2196 14.091 99.8336 14.4727V16.265C98.8711 15.568 98.1243 15.3522 97.3443 15.3522C96.5643 15.3522 96.1826 15.6841 96.1826 16.1156C96.1826 16.4309 96.4316 16.713 96.9294 16.8956L98.7051 17.5428C99.9166 17.9743 100.414 18.7377 100.414 19.6836C100.414 20.9448 99.4187 22.1231 97.3609 22.1231C96.3652 22.1231 95.4524 21.9074 94.5563 21.3929V19.6172C95.5852 20.2976 96.4814 20.6461 97.3277 20.6461C98.1409 20.6461 98.6221 20.3308 98.6221 19.8496ZM103.308 12.2157C102.677 12.2157 102.163 11.7179 102.163 11.0873C102.163 10.4566 102.677 9.95878 103.308 9.95878C103.939 9.95878 104.453 10.4566 104.453 11.0873C104.453 11.7179 103.939 12.2157 103.308 12.2157ZM102.362 21.9572V13.9914H104.254V21.9572H102.362ZM114.139 13.9914L110.787 21.9572H109.011L105.659 13.9914H107.684L109.924 19.7666L112.181 13.9914H114.139ZM122.379 21.2104C121.698 21.7248 120.52 22.1231 119.292 22.1231C116.686 22.1231 114.828 20.447 114.828 17.9743C114.828 15.5182 116.686 13.8255 118.761 13.8255C121.2 13.8255 122.594 15.568 122.594 18.0075V18.4058H116.703C116.885 19.7168 117.815 20.5632 119.425 20.5632C120.47 20.5632 121.665 20.1483 122.379 19.584V21.2104ZM118.761 15.3522C117.798 15.3522 117.035 15.9497 116.769 17.0118H120.719C120.487 16.0492 119.806 15.3522 118.761 15.3522Z" fill="#420C02"/>
<path d="M0 63.5941C0 56.4144 5.8203 50.5941 13 50.5941H276.721C283.901 50.5941 289.721 56.4144 289.721 63.5941V266.331H0V63.5941Z" fill="#E05D52"/>
<path opacity="0.5" d="M23.5113 75.709C23.5113 76.6673 23.2739 77.4158 22.845 77.9634C22.3156 78.6388 21.7679 78.8488 20.5905 78.8488H19.0297V72.5326H20.3441C21.5306 72.5326 22.2334 72.7517 22.8267 73.4271C23.2922 73.9656 23.5113 74.7232 23.5113 75.709ZM22.343 75.8185C22.343 75.0061 22.2699 74.3581 21.9413 73.9109C21.6493 73.5093 21.3207 73.3632 20.7548 73.3632H20.0885V77.9908H20.7822C21.8957 77.9908 22.343 77.2515 22.343 75.8185ZM25.8648 78.8488H24.7878V72.5326H25.8648V78.8488ZM31.6341 76.9411C31.6341 77.9908 30.7852 78.9674 29.1697 78.9674C28.4486 78.9674 27.7185 78.7757 27.0978 78.4015L27.4994 77.5983C28.0653 77.9269 28.5673 78.1186 29.2062 78.1186C29.982 78.1186 30.4475 77.7443 30.4475 77.1146C30.4475 76.6491 30.1555 76.357 29.5074 76.1744L28.832 75.9828C28.257 75.8185 27.8462 75.5812 27.6089 75.2252C27.4355 74.9696 27.3442 74.6684 27.3442 74.3033C27.3442 73.1898 28.2205 72.4322 29.4892 72.4322C30.2102 72.4322 30.9313 72.6422 31.488 73.0346L31.0134 73.774C30.4293 73.4271 30.0277 73.2902 29.5257 73.2902C28.905 73.2902 28.4943 73.6279 28.4943 74.1482C28.4943 74.5407 28.7133 74.7415 29.334 74.924L30.0824 75.1431C30.9952 75.4077 31.6341 75.9919 31.6341 76.9411ZM37.0345 78.3924C36.5417 78.7666 35.9849 78.9492 35.3095 78.9492C34.4698 78.9492 33.8035 78.6297 33.3106 78.0364C32.836 77.4614 32.5895 76.6947 32.5895 75.782C32.5895 75.0244 32.7264 74.3946 33.0094 73.8652C33.484 72.9616 34.3511 72.414 35.3369 72.414C35.9484 72.414 36.5325 72.5965 36.9068 72.9069L36.423 73.6005C36.0853 73.3541 35.7385 73.2446 35.346 73.2446C34.8075 73.2446 34.3602 73.5184 34.0864 74.0021C33.8674 74.3855 33.7578 74.9149 33.7578 75.6633C33.7578 76.4391 33.84 76.8773 34.0043 77.2332C34.2781 77.8356 34.7983 78.1277 35.4099 78.1277C35.8571 78.1277 36.1857 78.009 36.5417 77.7261L37.0345 78.3924ZM44.1559 74.422C44.1559 75.6633 43.2523 76.4391 42.1114 76.4391H41.0435V78.8488H40.003V72.5326H41.6824C42.6043 72.5326 42.942 72.6239 43.2888 72.8338C43.8456 73.1624 44.1559 73.7283 44.1559 74.422ZM42.9968 74.4859C42.9968 74.139 42.9146 73.8744 42.7412 73.6918C42.5495 73.491 42.2757 73.3815 41.865 73.3815H41.0435V75.5994H41.865C42.6408 75.5994 42.9968 75.2343 42.9968 74.4859ZM47.6282 74.1756L47.3179 75.1065C47.2175 75.07 47.1445 75.0427 47.035 75.0427C46.6151 75.0427 46.2591 75.353 46.1679 75.7272V78.8488H45.1639V75.5903C45.1639 75.0061 45.1 74.6319 44.9996 74.349L45.9214 74.1117C46.031 74.3216 46.0948 74.5863 46.0948 74.8419C46.4599 74.3399 46.825 74.1025 47.2723 74.1025C47.4183 74.1025 47.5096 74.1208 47.6282 74.1756ZM49.3145 78.8488H48.3014V74.3033L49.3145 74.1208V78.8488ZM49.4788 72.8795C49.4788 73.2446 49.1776 73.5458 48.8034 73.5458C48.4383 73.5458 48.1553 73.2446 48.1553 72.8795C48.1553 72.5053 48.4474 72.2041 48.8216 72.2041C49.1776 72.2041 49.4788 72.4961 49.4788 72.8795ZM56.6917 78.8488H55.7059V75.6542C55.7059 75.1157 55.5873 74.9605 55.2313 74.9605C54.8936 74.9605 54.5741 75.1887 54.2547 75.4899V78.8488H53.2963V75.6816C53.2963 75.1431 53.1777 74.9696 52.7943 74.9696C52.5114 74.9696 52.1828 75.1157 51.8451 75.426V78.8488H50.8684V75.5355C50.8684 74.9605 50.8137 74.6137 50.7042 74.3672L51.6169 74.1117C51.7082 74.2577 51.7629 74.4494 51.7812 74.7049C52.1463 74.3307 52.5753 74.1208 53.0042 74.1208C53.415 74.1208 53.7709 74.2577 54.1086 74.7962C54.5559 74.3399 54.994 74.1208 55.4869 74.1208C56.2444 74.1208 56.6917 74.5133 56.6917 75.4716V78.8488ZM61.7834 78.4015L61.2631 79.0404C60.9802 78.9309 60.7429 78.7118 60.6333 78.4198C60.2591 78.8396 59.8575 78.9857 59.3646 78.9857C58.3059 78.9857 57.8312 78.4015 57.8312 77.5983C57.8312 76.5304 58.6345 75.9919 60.1131 75.9919H60.4234V75.7455C60.4234 75.2161 60.3321 74.9331 59.7845 74.9331C59.1912 74.9331 58.5523 75.353 58.4063 75.4625L57.959 74.7415C58.6527 74.3033 59.2277 74.1117 59.9214 74.1117C60.6425 74.1117 61.1262 74.3764 61.327 74.8784C61.4092 75.0792 61.4092 75.3256 61.4 76.0102L61.3818 77.3336C61.3727 77.9543 61.4274 78.1551 61.7834 78.4015ZM60.4052 76.6764C60.3869 76.6764 60.2865 76.6673 60.2226 76.6673C59.2186 76.6673 58.9174 76.9594 58.9174 77.5435C58.9174 77.9817 59.1547 78.2555 59.5563 78.2555C59.8758 78.2555 60.1861 78.0638 60.3869 77.7717L60.4052 76.6764ZM65.4105 74.1756L65.1002 75.1065C64.9998 75.07 64.9268 75.0427 64.8172 75.0427C64.3974 75.0427 64.0414 75.353 63.9501 75.7272V78.8488H62.9461V75.5903C62.9461 75.0061 62.8822 74.6319 62.7818 74.349L63.7037 74.1117C63.8132 74.3216 63.8771 74.5863 63.8771 74.8419C64.2422 74.3399 64.6073 74.1025 65.0545 74.1025C65.2006 74.1025 65.2918 74.1208 65.4105 74.1756ZM69.9659 74.2303L68.3321 78.9492C67.9488 80.0627 67.6202 80.6195 66.534 80.8203L66.2054 80.1722C66.8352 79.9988 67.1912 79.7341 67.4559 78.8488H67.1364C67.0086 78.3285 66.8352 77.8265 66.6983 77.4158L65.6487 74.3033L66.6709 74.1299L67.5198 76.9411C67.6019 77.215 67.7571 77.9086 67.7753 77.9817C67.7845 77.9451 67.9488 77.288 68.1222 76.7312L68.8889 74.2303H69.9659Z" fill="#F9F7F2"/>
<path d="M24.4539 96.2444L24.122 97.7844H19.2496V88.5575H21.1481V96.2444H24.4539ZM27.3555 97.7844H25.5765V91.1065L27.3555 90.8277V97.7844ZM27.5679 89.1151C27.5679 89.7258 27.0767 90.217 26.466 90.217C25.8686 90.217 25.3774 89.7258 25.3774 89.1151C25.3774 88.5044 25.8819 88.0132 26.4926 88.0132C27.09 88.0132 27.5679 88.5044 27.5679 89.1151ZM34.5832 90.987L32.1006 97.7844H30.6269L28.1576 91.0933L29.9764 90.8676L30.9588 93.9343C31.1049 94.3857 31.304 95.1292 31.397 95.5673C31.4501 95.169 31.5961 94.5185 31.8085 93.8414L32.7246 90.987H34.5832ZM40.7827 94.9433H36.8529V94.9964C36.8529 96.0453 37.3707 96.6427 38.2867 96.6427C38.8975 96.6427 39.4683 96.417 40.0126 95.9656L40.703 97.0277C39.9197 97.6649 39.0966 97.9703 38.1407 97.9703C36.1891 97.9703 34.9279 96.5896 34.9279 94.4521C34.9279 93.2307 35.1801 92.4209 35.7776 91.7571C36.3352 91.1331 37.0122 90.841 37.915 90.841C38.6983 90.841 39.4418 91.1065 39.8799 91.5579C40.5039 92.1952 40.7827 93.1112 40.7827 94.5318V94.9433ZM38.9373 93.6423V93.5626C38.9373 93.0581 38.8842 92.7926 38.7249 92.5404C38.5523 92.2748 38.3 92.1421 37.9416 92.1421C37.2645 92.1421 36.8795 92.6731 36.8795 93.6157V93.6423H38.9373ZM44.9729 97.7579C44.6676 97.8774 44.2959 97.9437 43.9108 97.9437C43.1541 97.9437 42.5434 97.5853 42.331 97.0144C42.1982 96.6692 42.1717 96.4568 42.1717 95.4877V90.4162C42.1717 89.5267 42.1451 88.9824 42.0787 88.3717L43.8976 87.9601C43.964 88.3318 43.9905 88.7699 43.9905 89.7258V95.023C43.9905 96.1913 44.0038 96.3506 44.11 96.5365C44.1764 96.656 44.3224 96.7223 44.4684 96.7223C44.5348 96.7223 44.5747 96.7223 44.6676 96.6958L44.9729 97.7579ZM51.7705 90.987L49.3012 97.8906C48.8365 99.205 48.4913 99.7758 48.0001 100.134C47.5487 100.466 46.9646 100.679 46.3539 100.758L45.7432 99.59C46.1282 99.4838 46.5796 99.3245 46.8451 99.1386C47.0442 98.9926 47.2035 98.8067 47.3496 98.581C47.5222 98.3022 47.5753 98.1827 47.7346 97.7844H47.2832L45.0395 91.0933L46.8584 90.8808L48.0399 94.8504L48.3984 96.2577C48.3984 96.2178 48.5311 95.5009 48.6108 95.169C48.6639 94.9433 48.7701 94.545 48.8763 94.2264L49.8986 90.987H51.7705ZM61.4977 97.7844H60.9002C60.6745 97.7844 60.5152 97.7579 60.4887 97.7579C60.502 97.7977 60.5551 97.9703 60.5551 98.2358V100.108L58.869 100.32V98.0765C58.869 97.9703 58.8955 97.7844 58.8955 97.7446C58.869 97.7579 58.7097 97.7844 58.4707 97.7844H54.9525V96.5763L57.5148 90.9074H59.3469L57.4352 95.2089C57.3555 95.3814 57.0103 96.1116 56.8377 96.2842C56.9705 96.2577 56.9838 96.2577 57.1165 96.2577H58.6167C58.7628 96.2577 58.9088 96.2709 58.9354 96.2709C58.9354 96.2311 58.9221 96.0851 58.9221 96.032C58.9221 95.6602 58.9486 95.262 59.015 94.6114L59.1611 93.0581L60.5551 92.7395V95.0894C60.5551 95.3947 60.5551 95.6337 60.5418 95.8727C60.5285 96.1382 60.5152 96.2444 60.5152 96.2709C60.5683 96.2709 60.794 96.2577 60.9401 96.2577H61.4977V97.7844ZM68.7327 94.3857C68.7327 96.5232 67.445 97.9437 65.573 97.9437C63.6347 97.9437 62.4266 96.5497 62.4266 94.4123C62.4266 92.2748 63.7144 90.8543 65.5863 90.8543C67.5246 90.8543 68.7327 92.2483 68.7327 94.3857ZM66.7811 94.4256C66.7811 92.5536 66.2634 92.1553 65.5863 92.1553C64.6835 92.1553 64.3782 93.0316 64.3782 94.3725C64.3782 96.2444 64.8959 96.6427 65.573 96.6427C66.4758 96.6427 66.7811 95.7665 66.7811 94.4256ZM76.2395 94.3857C76.2395 96.5232 74.9517 97.9437 73.0797 97.9437C71.1414 97.9437 69.9333 96.5497 69.9333 94.4123C69.9333 92.2748 71.2211 90.8543 73.093 90.8543C75.0313 90.8543 76.2395 92.2483 76.2395 94.3857ZM74.2879 94.4256C74.2879 92.5536 73.7701 92.1553 73.093 92.1553C72.1902 92.1553 71.8849 93.0316 71.8849 94.3725C71.8849 96.2444 72.4027 96.6427 73.0797 96.6427C73.9825 96.6427 74.2879 95.7665 74.2879 94.4256Z" fill="#F9F7F2"/>
<path d="M19.1102 241.933V234.963H23.5312V236.009H20.3051V237.831H23.2026V238.876H20.3051V240.908H23.581V241.933H19.1102ZM28.488 242.033C27.0243 242.033 25.6303 240.908 25.6303 238.468C25.6303 236.029 27.0243 234.903 28.488 234.903C29.9617 234.903 31.3557 236.029 31.3557 238.468C31.3557 240.908 29.9617 242.033 28.488 242.033ZM28.488 241.007C29.4638 241.007 30.2205 240.161 30.2205 238.468C30.2205 236.775 29.4638 235.929 28.488 235.929C27.5122 235.929 26.7654 236.775 26.7654 238.468C26.7654 240.161 27.5122 241.007 28.488 241.007ZM33.385 238.707L33.7434 234.963H37.5669V235.929H34.6893L34.53 237.552C34.8188 237.512 35.1075 237.492 35.3266 237.492C36.9994 237.492 38.005 238.329 38.005 239.673C38.005 240.898 37.0093 242.033 35.1274 242.033C34.4603 242.033 33.8928 241.903 33.3252 241.644V240.589C33.843 240.898 34.4902 241.067 35.1175 241.067C36.2924 241.067 36.86 240.459 36.86 239.762C36.86 239.036 36.3223 238.488 35.0876 238.488C34.7391 238.488 33.9127 238.558 33.385 238.707ZM40.2904 241.933V234.963H42.949C44.9205 234.963 46.5037 236.387 46.5037 238.448C46.5037 240.509 44.8508 241.933 42.8892 241.933H40.2904ZM42.8096 236.019H41.4853V240.898H42.8096C44.3131 240.898 45.2889 239.852 45.2889 238.448C45.2889 237.084 44.2932 236.019 42.8096 236.019ZM48.5715 238.707L48.9299 234.963H52.7534V235.929H49.8758L49.7165 237.552C50.0053 237.512 50.294 237.492 50.5131 237.492C52.1859 237.492 53.1916 238.329 53.1916 239.673C53.1916 240.898 52.1958 242.033 50.314 242.033C49.6468 242.033 49.0793 241.903 48.5117 241.644V240.589C49.0295 240.898 49.6767 241.067 50.304 241.067C51.4789 241.067 52.0465 240.459 52.0465 239.762C52.0465 239.036 51.5088 238.488 50.2741 238.488C49.9256 238.488 49.0992 238.558 48.5715 238.707ZM59.5693 240.967V241.933H54.8795V241.276L57.5679 238.368C58.0459 237.851 58.245 237.403 58.245 236.984C58.245 236.357 57.8268 235.859 57.0103 235.859C56.393 235.859 55.706 236.118 55.0289 236.646V235.541C55.5367 235.162 56.3133 234.864 57.1298 234.864C58.6732 234.864 59.41 235.79 59.41 236.835C59.41 237.462 59.1511 238.08 58.474 238.817L56.5125 240.967H59.5693Z" fill="#F9F7F2"/>
<path d="M0 274.63H289.721V381.945C289.721 389.125 283.901 394.945 276.721 394.945H13C5.82031 394.945 0 389.125 0 381.945V274.63Z" fill="#882F28"/>
<path opacity="0.5" d="M23.5113 299.745C23.5113 300.703 23.2739 301.452 22.845 301.999C22.3156 302.675 21.7679 302.885 20.5905 302.885H19.0297V296.569H20.3441C21.5306 296.569 22.2334 296.788 22.8267 297.463C23.2922 298.002 23.5113 298.759 23.5113 299.745ZM22.343 299.854C22.343 299.042 22.2699 298.394 21.9413 297.947C21.6493 297.545 21.3207 297.399 20.7548 297.399H20.0885V302.027H20.7822C21.8957 302.027 22.343 301.287 22.343 299.854ZM25.8648 302.885H24.7878V296.569H25.8648V302.885ZM31.6341 300.977C31.6341 302.027 30.7852 303.003 29.1697 303.003C28.4486 303.003 27.7185 302.812 27.0978 302.438L27.4994 301.634C28.0653 301.963 28.5673 302.155 29.2062 302.155C29.982 302.155 30.4475 301.78 30.4475 301.151C30.4475 300.685 30.1555 300.393 29.5074 300.21L28.832 300.019C28.257 299.854 27.8462 299.617 27.6089 299.261C27.4355 299.006 27.3442 298.704 27.3442 298.339C27.3442 297.226 28.2205 296.468 29.4892 296.468C30.2102 296.468 30.9313 296.678 31.488 297.071L31.0134 297.81C30.4293 297.463 30.0277 297.326 29.5257 297.326C28.905 297.326 28.4943 297.664 28.4943 298.184C28.4943 298.577 28.7133 298.777 29.334 298.96L30.0824 299.179C30.9952 299.444 31.6341 300.028 31.6341 300.977ZM37.0345 302.428C36.5417 302.803 35.9849 302.985 35.3095 302.985C34.4698 302.985 33.8035 302.666 33.3106 302.072C32.836 301.497 32.5895 300.731 32.5895 299.818C32.5895 299.06 32.7264 298.431 33.0094 297.901C33.484 296.998 34.3511 296.45 35.3369 296.45C35.9484 296.45 36.5325 296.633 36.9068 296.943L36.423 297.637C36.0853 297.39 35.7385 297.281 35.346 297.281C34.8075 297.281 34.3602 297.554 34.0864 298.038C33.8674 298.421 33.7578 298.951 33.7578 299.699C33.7578 300.475 33.84 300.913 34.0043 301.269C34.2781 301.872 34.7983 302.164 35.4099 302.164C35.8571 302.164 36.1857 302.045 36.5417 301.762L37.0345 302.428ZM44.5575 302.885H43.4075L42.8964 301.224H40.8518L40.3407 302.885H39.2546L41.3265 296.56H42.5404L44.5575 302.885ZM42.659 300.347C42.5952 300.21 41.9562 297.856 41.9106 297.609H41.9015C41.7737 298.075 41.2352 299.973 41.1074 300.347H42.659ZM48.5271 302.392C48.1073 302.812 47.6692 303.003 47.0485 303.003C45.7889 303.003 45.0861 302.118 45.0861 300.63C45.0861 298.951 46.0901 298.148 47.1215 298.148C47.6235 298.148 47.9886 298.266 48.3994 298.65L47.8974 299.316C47.6235 299.07 47.3862 298.96 47.1215 298.96C46.8021 298.96 46.5374 299.124 46.3913 299.426C46.2544 299.708 46.1997 300.137 46.1997 300.712C46.1997 301.342 46.3001 301.744 46.51 301.972C46.656 302.136 46.8751 302.237 47.1215 302.237C47.441 302.237 47.7513 302.082 48.0525 301.78L48.5271 302.392ZM52.654 302.392C52.2342 302.812 51.7961 303.003 51.1754 303.003C49.9158 303.003 49.213 302.118 49.213 300.63C49.213 298.951 50.2171 298.148 51.2484 298.148C51.7504 298.148 52.1155 298.266 52.5263 298.65L52.0243 299.316C51.7504 299.07 51.5131 298.96 51.2484 298.96C50.929 298.96 50.6643 299.124 50.5183 299.426C50.3813 299.708 50.3266 300.137 50.3266 300.712C50.3266 301.342 50.427 301.744 50.6369 301.972C50.7829 302.136 51.002 302.237 51.2484 302.237C51.5679 302.237 51.8782 302.082 52.1794 301.78L52.654 302.392ZM57.2008 300.849H54.4444V300.922C54.4444 301.561 54.6817 302.237 55.5853 302.237C56.0143 302.237 56.3885 302.082 56.7353 301.78L57.1278 302.392C56.6441 302.803 56.0873 303.003 55.4666 303.003C54.1614 303.003 53.34 302.063 53.34 300.585C53.34 299.772 53.5134 299.234 53.915 298.777C54.2892 298.348 54.7456 298.157 55.3297 298.157C55.7861 298.157 56.2059 298.275 56.5984 298.631C57 298.997 57.2008 299.562 57.2008 300.639V300.849ZM56.1603 300.11C56.1603 299.362 55.8317 298.914 55.3297 298.914C54.7638 298.914 54.4535 299.362 54.4535 300.11H56.1603ZM61.9145 302.885H60.9196V299.818C60.9196 299.188 60.7736 299.015 60.3902 299.015C60.0982 299.015 59.6783 299.234 59.3771 299.535V302.885H58.3914V299.489C58.3914 299.006 58.3457 298.723 58.2179 298.394L59.1307 298.139C59.2402 298.348 59.295 298.549 59.295 298.796C59.7878 298.376 60.2168 298.157 60.7097 298.157C61.4216 298.157 61.9145 298.586 61.9145 299.435V302.885ZM65.5715 302.803C65.2703 302.94 64.9782 303.003 64.6679 303.003C63.7734 303.003 63.4631 302.474 63.4631 301.817V298.96H62.952V298.266H63.4631C63.4631 297.874 63.4631 297.472 63.5087 297.125L64.5401 296.879C64.4945 297.253 64.458 297.81 64.458 298.266H65.5624L65.2977 298.96H64.4489V301.552C64.4489 302.127 64.5766 302.291 65.0147 302.291C65.1517 302.291 65.2703 302.264 65.4437 302.2L65.5715 302.803Z" fill="#F9F7F2"/>
<path d="M24.4539 320.28L24.122 321.82H19.2496V312.593H21.1481V320.28H24.4539ZM27.3555 321.82H25.5765V315.142L27.3555 314.864V321.82ZM27.5679 313.151C27.5679 313.762 27.0767 314.253 26.466 314.253C25.8686 314.253 25.3774 313.762 25.3774 313.151C25.3774 312.54 25.8819 312.049 26.4926 312.049C27.09 312.049 27.5679 312.54 27.5679 313.151ZM34.5832 315.023L32.1006 321.82H30.6269L28.1576 315.129L29.9764 314.903L30.9588 317.97C31.1049 318.422 31.304 319.165 31.397 319.603C31.4501 319.205 31.5961 318.554 31.8085 317.877L32.7246 315.023H34.5832ZM40.7827 318.979H36.8529V319.032C36.8529 320.081 37.3707 320.679 38.2867 320.679C38.8975 320.679 39.4683 320.453 40.0126 320.001L40.703 321.064C39.9197 321.701 39.0966 322.006 38.1407 322.006C36.1891 322.006 34.9279 320.625 34.9279 318.488C34.9279 317.267 35.1801 316.457 35.7776 315.793C36.3352 315.169 37.0122 314.877 37.915 314.877C38.6983 314.877 39.4418 315.142 39.8799 315.594C40.5039 316.231 40.7827 317.147 40.7827 318.568V318.979ZM38.9373 317.678V317.599C38.9373 317.094 38.8842 316.828 38.7249 316.576C38.5523 316.311 38.3 316.178 37.9416 316.178C37.2645 316.178 36.8795 316.709 36.8795 317.652V317.678H38.9373ZM44.9729 321.794C44.6676 321.913 44.2959 321.98 43.9108 321.98C43.1541 321.98 42.5434 321.621 42.331 321.05C42.1982 320.705 42.1717 320.493 42.1717 319.524V314.452C42.1717 313.563 42.1451 313.018 42.0787 312.408L43.8976 311.996C43.964 312.368 43.9905 312.806 43.9905 313.762V319.059C43.9905 320.227 44.0038 320.386 44.11 320.572C44.1764 320.692 44.3224 320.758 44.4684 320.758C44.5348 320.758 44.5747 320.758 44.6676 320.732L44.9729 321.794ZM51.7705 315.023L49.3012 321.927C48.8365 323.241 48.4913 323.812 48.0001 324.17C47.5487 324.502 46.9646 324.715 46.3539 324.794L45.7432 323.626C46.1282 323.52 46.5796 323.36 46.8451 323.174C47.0442 323.028 47.2035 322.843 47.3496 322.617C47.5222 322.338 47.5753 322.219 47.7346 321.82H47.2832L45.0395 315.129L46.8584 314.917L48.0399 318.886L48.3984 320.294C48.3984 320.254 48.5311 319.537 48.6108 319.205C48.6639 318.979 48.7701 318.581 48.8763 318.262L49.8986 315.023H51.7705ZM60.794 320.891C60.794 322.856 59.0549 324.263 56.6121 324.263C56.1872 324.263 56.0279 324.25 55.6031 324.17L55.2181 322.856C55.7226 322.989 56.081 323.042 56.466 323.042C57.8733 323.042 58.869 322.245 58.869 321.103C58.869 320.254 58.2848 319.696 57.4219 319.696C56.8776 319.696 56.3333 319.802 55.4836 320.068L55.9084 315.023H60.4356L60.1701 316.536H57.5679L57.3821 318.382C57.6609 318.329 57.7671 318.315 58.006 318.315C59.6523 318.315 60.794 319.378 60.794 320.891ZM68.3179 318.422C68.3179 320.559 67.0301 321.98 65.1581 321.98C63.2198 321.98 62.0117 320.586 62.0117 318.448C62.0117 316.311 63.2995 314.89 65.1714 314.89C67.1097 314.89 68.3179 316.284 68.3179 318.422ZM66.3663 318.461C66.3663 316.59 65.8485 316.191 65.1714 316.191C64.2686 316.191 63.9633 317.067 63.9633 318.408C63.9633 320.28 64.4811 320.679 65.1581 320.679C66.0609 320.679 66.3663 319.802 66.3663 318.461ZM75.8246 318.422C75.8246 320.559 74.5368 321.98 72.6649 321.98C70.7265 321.98 69.5184 320.586 69.5184 318.448C69.5184 316.311 70.8062 314.89 72.6781 314.89C74.6164 314.89 75.8246 316.284 75.8246 318.422ZM73.873 318.461C73.873 316.59 73.3552 316.191 72.6781 316.191C71.7754 316.191 71.47 317.067 71.47 318.408C71.47 320.28 71.9878 320.679 72.6649 320.679C73.5676 320.679 73.873 319.802 73.873 318.461Z" fill="#F9F7F2"/>
<path opacity="0.5" d="M22.1513 333.958L20.8643 334.396L21.6767 335.483L21.2294 335.829L20.408 334.707L19.6139 335.829L19.1575 335.483L19.9516 334.396L18.6646 333.958L18.8381 333.429L20.1341 333.867V332.507H20.6818V333.867L21.9779 333.429L22.1513 333.958ZM27.5335 337.162C27.5335 337.92 27.4331 338.276 27.0589 338.595C26.6755 338.924 26.1735 339.079 25.4159 339.079C24.4484 339.079 23.9008 338.796 23.5631 338.175C23.3988 337.874 23.3805 337.472 23.3805 337.199V332.708H24.1199V336.925C24.1199 337.235 24.1472 337.637 24.2294 337.828C24.348 338.102 24.6858 338.44 25.4525 338.44C25.9727 338.44 26.3652 338.303 26.5569 338.047C26.7668 337.764 26.7942 337.491 26.7942 337.071V332.708H27.5335V337.162ZM32.1519 337.618C32.1519 338.504 31.4582 339.106 30.436 339.106C29.861 339.106 29.2312 338.933 28.7657 338.65L29.0395 338.12C29.505 338.403 29.9796 338.549 30.4816 338.549C31.0384 338.549 31.4035 338.248 31.4035 337.764C31.4035 337.354 31.1753 337.126 30.655 337.016L30.0891 336.897C29.3407 336.742 28.9391 336.277 28.9391 335.647C28.9391 334.825 29.6054 334.25 30.5546 334.25C31.0293 334.25 31.5586 334.396 31.942 334.615L31.6773 335.145C31.2757 334.953 30.938 334.816 30.5364 334.816C30.0161 334.816 29.6784 335.118 29.6784 335.565C29.6784 335.912 29.8518 336.122 30.3356 336.222L30.938 336.35C31.7594 336.523 32.1519 336.943 32.1519 337.618ZM36.9113 336.815H34.0727V336.925C34.0727 337.354 34.1275 337.682 34.2826 337.92C34.5382 338.312 34.9581 338.476 35.4144 338.476C35.8525 338.476 36.2085 338.339 36.528 338.047L36.8018 338.504C36.4002 338.869 35.8525 339.07 35.2684 339.07C34.0088 339.07 33.2513 338.157 33.2513 336.651C33.2513 335.884 33.4156 335.391 33.7989 334.935C34.164 334.506 34.6112 334.305 35.1589 334.305C35.6517 334.305 36.0807 334.479 36.3911 334.798C36.7835 335.2 36.9113 335.629 36.9113 336.715V336.815ZM36.1538 336.277C36.1446 335.784 36.0807 335.483 35.9438 335.264C35.7887 335.017 35.4692 334.862 35.1224 334.862C34.4743 334.862 34.1092 335.337 34.0727 336.277H36.1538ZM41.8993 338.969H41.1691C41.1508 338.924 41.0778 338.714 41.0687 338.504C40.7401 338.878 40.3933 339.033 39.8639 339.033C38.6864 339.033 38.011 338.184 38.011 336.733C38.011 335.766 38.3305 335.054 38.9511 334.625C39.2432 334.424 39.4988 334.342 39.8274 334.342C40.3385 334.342 40.7857 334.552 41.0596 334.917C41.0596 334.844 41.0504 334.506 41.0504 334.214V332.306L41.7624 332.425V337.5C41.7624 338.285 41.7989 338.705 41.8993 338.969ZM41.0413 337.81V335.4C40.8131 335.081 40.4754 334.926 39.9369 334.926C39.5809 334.926 39.2797 335.09 39.088 335.4C38.869 335.747 38.796 336.076 38.796 336.715C38.796 337.244 38.8325 337.637 38.9785 337.901C39.1884 338.276 39.4714 338.431 39.8913 338.431C40.2655 338.431 40.4754 338.349 40.7675 338.139C40.9135 338.038 41.0139 337.874 41.0413 337.81ZM47.8228 332.626L47.5581 333.128C47.3847 333.027 47.1292 332.918 46.8827 332.918C46.4811 332.918 46.2621 333.201 46.2621 333.721V334.424H47.5216L47.3026 334.962H46.2621V338.969H45.5136V334.962H45.0755V334.424H45.5136V333.712C45.5136 333.036 45.8239 332.744 46.0156 332.598C46.2347 332.434 46.4811 332.361 46.8188 332.361C47.2113 332.361 47.5581 332.452 47.8228 332.626ZM51.8284 336.77C51.8284 338.285 51.016 339.088 49.8751 339.088C48.6247 339.088 47.9128 338.166 47.9128 336.669C47.9128 335.191 48.6521 334.287 49.8477 334.287C50.6053 334.287 51.0982 334.634 51.4085 335.081C51.6915 335.492 51.8284 336.03 51.8284 336.77ZM51.016 336.824C51.016 336.185 50.9522 335.756 50.8061 335.455C50.6144 335.054 50.2128 334.871 49.8386 334.871C49.437 334.871 49.0628 335.063 48.9076 335.364C48.7616 335.647 48.6886 336.012 48.6886 336.55C48.6886 337.189 48.7981 337.755 48.9715 338.038C49.1358 338.312 49.5009 338.495 49.8934 338.495C50.368 338.495 50.724 338.248 50.8791 337.81C50.9795 337.527 51.016 337.272 51.016 336.824ZM55.4686 334.333L55.1765 335.108C55.1309 335.09 55.0488 335.072 54.9757 335.072C54.7019 335.072 54.4281 335.191 54.2182 335.4C54.0082 335.61 53.9535 335.747 53.9535 336.122V338.969H53.2416V335.464C53.2416 334.871 53.1138 334.561 53.0864 334.497L53.7983 334.305C53.8348 334.378 53.9717 334.707 53.9444 335.044C54.2729 334.579 54.7567 334.287 55.2222 334.287C55.3317 334.287 55.4412 334.323 55.4686 334.333ZM62.6216 335.848C62.6216 336.943 62.3295 337.719 61.9097 338.184C61.362 338.796 60.8144 338.969 59.9382 338.969H58.3044V332.708H59.5548C60.5132 332.708 60.9513 332.754 61.5628 333.192C62.2748 333.703 62.6216 334.625 62.6216 335.848ZM61.8093 335.939C61.8093 334.999 61.6906 334.396 61.2708 333.894C60.86 333.411 60.4584 333.319 59.8013 333.319H59.0528V338.349H59.8013C60.4493 338.349 61.0517 338.276 61.3894 337.691C61.6724 337.208 61.8093 336.596 61.8093 335.939ZM64.8104 338.969H64.0803V332.708H64.8104V338.969ZM70.456 337.199C70.456 337.783 70.1457 338.349 69.5889 338.705C69.1782 338.969 68.7583 339.088 68.1833 339.088C67.4348 339.088 66.7959 338.905 66.1753 338.522L66.5039 337.938C67.0241 338.312 67.5535 338.476 68.1833 338.476C68.6579 338.476 68.9135 338.403 69.1782 338.203C69.4794 337.974 69.6254 337.673 69.6254 337.308C69.6254 336.751 69.2603 336.368 68.5027 336.14L67.873 335.948C67.3071 335.775 67.0059 335.647 66.7594 335.391C66.5039 335.118 66.3669 334.771 66.3669 334.369C66.3669 333.301 67.1793 332.571 68.3932 332.571C69.0686 332.571 69.6893 332.772 70.2826 333.173L69.954 333.712C69.3516 333.319 68.9682 333.183 68.4297 333.183C67.6448 333.183 67.1793 333.575 67.1793 334.214C67.1793 334.716 67.4805 334.999 68.2198 335.236L68.9409 335.464C69.4976 335.638 69.7897 335.802 70.0453 336.094C70.3008 336.386 70.456 336.806 70.456 337.199ZM75.8694 338.559C75.3674 338.887 74.7468 339.07 74.1261 339.07C73.4507 339.07 72.7844 338.787 72.3006 338.239C71.7713 337.637 71.5522 336.788 71.5522 335.857C71.5522 333.995 72.6657 332.626 74.1809 332.626C74.7833 332.626 75.3309 332.808 75.7599 333.137L75.3583 333.621C74.9841 333.347 74.6281 333.228 74.1717 333.228C73.4507 333.228 72.9304 333.602 72.6292 334.305C72.4467 334.725 72.3645 335.227 72.3645 335.966C72.3645 336.569 72.4193 336.925 72.5653 337.29C72.8848 338.075 73.5328 338.458 74.2448 338.458C74.7103 338.458 75.0662 338.339 75.4678 338.057L75.8694 338.559ZM82.5797 336.77C82.5797 338.285 81.7673 339.088 80.6264 339.088C79.376 339.088 78.664 338.166 78.664 336.669C78.664 335.191 79.4033 334.287 80.599 334.287C81.3566 334.287 81.8495 334.634 82.1598 335.081C82.4427 335.492 82.5797 336.03 82.5797 336.77ZM81.7673 336.824C81.7673 336.185 81.7034 335.756 81.5574 335.455C81.3657 335.054 80.9641 334.871 80.5899 334.871C80.1883 334.871 79.8141 335.063 79.6589 335.364C79.5129 335.647 79.4399 336.012 79.4399 336.55C79.4399 337.189 79.5494 337.755 79.7228 338.038C79.8871 338.312 80.2522 338.495 80.6447 338.495C81.1193 338.495 81.4752 338.248 81.6304 337.81C81.7308 337.527 81.7673 337.272 81.7673 336.824ZM87.3334 338.969H86.6124V335.893C86.6124 335.41 86.5759 335.291 86.4481 335.136C86.3477 335.017 86.156 334.944 85.9461 334.944C85.581 334.944 85.0151 335.236 84.6865 335.583V338.969H83.9928V335.464C83.9928 334.889 83.8559 334.57 83.8194 334.506L84.5131 334.314C84.5496 334.378 84.6774 334.698 84.6774 335.026C85.152 334.552 85.6266 334.323 86.1104 334.323C86.6032 334.323 87.0414 334.588 87.2239 334.99C87.2969 335.154 87.3334 335.337 87.3334 335.519V338.969ZM90.1894 338.96C90.0068 339.042 89.9247 339.061 89.733 339.061C89.5139 339.061 89.3314 338.997 89.1945 338.869C89.0484 338.741 88.9754 338.549 88.9754 338.221V333.402C88.9754 332.872 88.8842 332.534 88.8659 332.471L89.5778 332.334C89.6052 332.407 89.6965 332.79 89.6965 333.411V338.057C89.6965 338.412 89.7513 338.513 89.9521 338.513C89.9703 338.513 90.0068 338.504 90.0433 338.495L90.1894 338.96ZM94.6121 334.424L93.0513 339.134C92.7501 340.046 92.3759 340.649 91.5818 340.84L91.3718 340.357C91.956 340.174 92.1751 339.882 92.4215 338.96L92.1294 339.006C92.0747 338.714 91.8282 337.828 91.6731 337.372L90.6964 334.524L91.3992 334.287L92.3302 337.235C92.4489 337.618 92.5767 338.23 92.604 338.367H92.6223C92.7136 338.047 92.814 337.728 92.9052 337.408L93.7997 334.424H94.6121Z" fill="#F9F7F2"/>
<path d="M23.9294 368.923C23.9294 370.168 22.884 371.004 21.3306 371.004C19.7973 371.004 18.7518 370.218 18.7518 369.063C18.7518 368.306 19.1401 367.778 20.0462 367.35C19.389 367.002 19.0405 366.494 19.0405 365.847C19.0405 364.692 19.9964 363.875 21.3506 363.875C22.7047 363.875 23.6407 364.632 23.6407 365.717C23.6407 366.325 23.2822 366.812 22.5753 367.181C23.4515 367.579 23.9294 368.206 23.9294 368.923ZM21.0817 366.673L21.5895 366.832C22.2467 366.603 22.5852 366.255 22.5852 365.807C22.5852 365.199 22.0774 364.781 21.3406 364.781C20.6038 364.781 20.096 365.16 20.096 365.707C20.096 366.155 20.3947 366.454 21.0817 366.673ZM19.867 368.963C19.867 369.64 20.4445 370.078 21.3406 370.078C22.2367 370.078 22.8143 369.65 22.8143 368.983C22.8143 368.505 22.4458 368.147 21.7289 367.928L20.9125 367.679C20.2254 367.948 19.867 368.386 19.867 368.963ZM31.0803 368.923C31.0803 370.168 30.0348 371.004 28.4815 371.004C26.9481 371.004 25.9026 370.218 25.9026 369.063C25.9026 368.306 26.2909 367.778 27.197 367.35C26.5398 367.002 26.1913 366.494 26.1913 365.847C26.1913 364.692 27.1472 363.875 28.5014 363.875C29.8556 363.875 30.7915 364.632 30.7915 365.717C30.7915 366.325 30.4331 366.812 29.7261 367.181C30.6023 367.579 31.0803 368.206 31.0803 368.923ZM28.2325 366.673L28.7404 366.832C29.3975 366.603 29.7361 366.255 29.7361 365.807C29.7361 365.199 29.2283 364.781 28.4914 364.781C27.7546 364.781 27.2468 365.16 27.2468 365.707C27.2468 366.155 27.5455 366.454 28.2325 366.673ZM27.0178 368.963C27.0178 369.64 27.5953 370.078 28.4914 370.078C29.3876 370.078 29.9651 369.65 29.9651 368.983C29.9651 368.505 29.5967 368.147 28.8798 367.928L28.0633 367.679C27.3762 367.948 27.0178 368.386 27.0178 368.963ZM37.5042 369.939V370.905H32.8144V370.248L35.5029 367.34C35.9808 366.822 36.1799 366.374 36.1799 365.956C36.1799 365.329 35.7617 364.831 34.9453 364.831C34.3279 364.831 33.6409 365.09 32.9638 365.618V364.512C33.4716 364.134 34.2483 363.835 35.0647 363.835C36.6081 363.835 37.3449 364.761 37.3449 365.807C37.3449 366.434 37.086 367.051 36.409 367.788L34.4474 369.939H37.5042ZM39.6389 370.905V363.935H44.0599V364.98H40.8338V366.912H43.7114V367.957H40.8338V370.905H39.6389ZM50.4932 369.939V370.905H45.8034V370.248L48.4918 367.34C48.9698 366.822 49.1689 366.374 49.1689 365.956C49.1689 365.329 48.7507 364.831 47.9342 364.831C47.3169 364.831 46.6298 365.09 45.9528 365.618V364.512C46.4606 364.134 47.2372 363.835 48.0537 363.835C49.597 363.835 50.3339 364.761 50.3339 365.807C50.3339 366.434 50.075 367.051 49.3979 367.788L47.4364 369.939H50.4932ZM57.4471 368.923C57.4471 370.168 56.4016 371.004 54.8483 371.004C53.3149 371.004 52.2694 370.218 52.2694 369.063C52.2694 368.306 52.6578 367.778 53.5639 367.35C52.9067 367.002 52.5582 366.494 52.5582 365.847C52.5582 364.692 53.5141 363.875 54.8682 363.875C56.2224 363.875 57.1584 364.632 57.1584 365.717C57.1584 366.325 56.7999 366.812 56.093 367.181C56.9692 367.579 57.4471 368.206 57.4471 368.923ZM54.5994 366.673L55.1072 366.832C55.7644 366.603 56.1029 366.255 56.1029 365.807C56.1029 365.199 55.5951 364.781 54.8583 364.781C54.1215 364.781 53.6136 365.16 53.6136 365.707C53.6136 366.155 53.9124 366.454 54.5994 366.673ZM53.3846 368.963C53.3846 369.64 53.9621 370.078 54.8583 370.078C55.7544 370.078 56.3319 369.65 56.3319 368.983C56.3319 368.505 55.9635 368.147 55.2466 367.928L54.4301 367.679C53.7431 367.948 53.3846 368.386 53.3846 368.963Z" fill="#F9F7F2"/>
<path d="M304.723 274.63H594.444V381.945C594.444 389.125 588.623 394.945 581.444 394.945H317.723C310.543 394.945 304.723 389.125 304.723 381.945V274.63Z" fill="#83902B"/>
<path opacity="0.5" d="M328.234 299.745C328.234 300.703 327.997 301.452 327.568 301.999C327.038 302.675 326.491 302.885 325.313 302.885H323.752V296.569H325.067C326.253 296.569 326.956 296.788 327.549 297.463C328.015 298.002 328.234 298.759 328.234 299.745ZM327.066 299.854C327.066 299.042 326.993 298.394 326.664 297.947C326.372 297.545 326.043 297.399 325.477 297.399H324.811V302.027H325.505C326.618 302.027 327.066 301.287 327.066 299.854ZM330.587 302.885H329.51V296.569H330.587V302.885ZM336.357 300.977C336.357 302.027 335.508 303.003 333.892 303.003C333.171 303.003 332.441 302.812 331.82 302.438L332.222 301.634C332.788 301.963 333.29 302.155 333.929 302.155C334.705 302.155 335.17 301.78 335.17 301.151C335.17 300.685 334.878 300.393 334.23 300.21L333.555 300.019C332.98 299.854 332.569 299.617 332.332 299.261C332.158 299.006 332.067 298.704 332.067 298.339C332.067 297.226 332.943 296.468 334.212 296.468C334.933 296.468 335.654 296.678 336.211 297.071L335.736 297.81C335.152 297.463 334.75 297.326 334.248 297.326C333.628 297.326 333.217 297.664 333.217 298.184C333.217 298.577 333.436 298.777 334.057 298.96L334.805 299.179C335.718 299.444 336.357 300.028 336.357 300.977ZM341.757 302.428C341.264 302.803 340.708 302.985 340.032 302.985C339.192 302.985 338.526 302.666 338.033 302.072C337.559 301.497 337.312 300.731 337.312 299.818C337.312 299.06 337.449 298.431 337.732 297.901C338.207 296.998 339.074 296.45 340.06 296.45C340.671 296.45 341.255 296.633 341.629 296.943L341.146 297.637C340.808 297.39 340.461 297.281 340.069 297.281C339.53 297.281 339.083 297.554 338.809 298.038C338.59 298.421 338.48 298.951 338.48 299.699C338.48 300.475 338.563 300.913 338.727 301.269C339.001 301.872 339.521 302.164 340.133 302.164C340.58 302.164 340.908 302.045 341.264 301.762L341.757 302.428ZM349.28 302.885H348.13L347.619 301.224H345.574L345.063 302.885H343.977L346.049 296.56H347.263L349.28 302.885ZM347.382 300.347C347.318 300.21 346.679 297.856 346.633 297.609H346.624C346.496 298.075 345.958 299.973 345.83 300.347H347.382ZM353.25 302.392C352.83 302.812 352.392 303.003 351.771 303.003C350.512 303.003 349.809 302.118 349.809 300.63C349.809 298.951 350.813 298.148 351.844 298.148C352.346 298.148 352.711 298.266 353.122 298.65L352.62 299.316C352.346 299.07 352.109 298.96 351.844 298.96C351.525 298.96 351.26 299.124 351.114 299.426C350.977 299.708 350.922 300.137 350.922 300.712C350.922 301.342 351.023 301.744 351.233 301.972C351.379 302.136 351.598 302.237 351.844 302.237C352.164 302.237 352.474 302.082 352.775 301.78L353.25 302.392ZM357.377 302.392C356.957 302.812 356.519 303.003 355.898 303.003C354.639 303.003 353.936 302.118 353.936 300.63C353.936 298.951 354.94 298.148 355.971 298.148C356.473 298.148 356.838 298.266 357.249 298.65L356.747 299.316C356.473 299.07 356.236 298.96 355.971 298.96C355.652 298.96 355.387 299.124 355.241 299.426C355.104 299.708 355.049 300.137 355.049 300.712C355.049 301.342 355.15 301.744 355.36 301.972C355.506 302.136 355.725 302.237 355.971 302.237C356.291 302.237 356.601 302.082 356.902 301.78L357.377 302.392ZM361.923 300.849H359.167V300.922C359.167 301.561 359.404 302.237 360.308 302.237C360.737 302.237 361.111 302.082 361.458 301.78L361.85 302.392C361.367 302.803 360.81 303.003 360.189 303.003C358.884 303.003 358.063 302.063 358.063 300.585C358.063 299.772 358.236 299.234 358.638 298.777C359.012 298.348 359.468 298.157 360.052 298.157C360.509 298.157 360.929 298.275 361.321 298.631C361.723 298.997 361.923 299.562 361.923 300.639V300.849ZM360.883 300.11C360.883 299.362 360.554 298.914 360.052 298.914C359.486 298.914 359.176 299.362 359.176 300.11H360.883ZM366.637 302.885H365.642V299.818C365.642 299.188 365.496 299.015 365.113 299.015C364.821 299.015 364.401 299.234 364.1 299.535V302.885H363.114V299.489C363.114 299.006 363.068 298.723 362.941 298.394L363.853 298.139C363.963 298.348 364.018 298.549 364.018 298.796C364.511 298.376 364.939 298.157 365.432 298.157C366.144 298.157 366.637 298.586 366.637 299.435V302.885ZM370.294 302.803C369.993 302.94 369.701 303.003 369.391 303.003C368.496 303.003 368.186 302.474 368.186 301.817V298.96H367.675V298.266H368.186C368.186 297.874 368.186 297.472 368.231 297.125L369.263 296.879C369.217 297.253 369.181 297.81 369.181 298.266H370.285L370.02 298.96H369.172V301.552C369.172 302.127 369.299 302.291 369.737 302.291C369.874 302.291 369.993 302.264 370.166 302.2L370.294 302.803Z" fill="#F9F7F2"/>
<path d="M330.292 315.434C330.292 316.656 329.708 317.638 328.699 318.116C328.274 318.315 327.875 318.422 326.853 318.422H325.831V321.82H323.972V312.593H326.402C327.968 312.593 328.446 312.753 328.964 313.045C329.827 313.523 330.292 314.372 330.292 315.434ZM328.26 315.474C328.26 314.611 327.796 314.094 327.013 314.094H325.831V316.908H326.8C327.557 316.908 327.783 316.815 328.035 316.43C328.194 316.178 328.26 315.912 328.26 315.474ZM337.174 318.395C337.174 319.563 336.909 320.36 336.324 321.024C335.807 321.608 335.13 321.966 334.081 321.966C332.235 321.966 331.027 320.586 331.027 318.448C331.027 316.311 332.249 314.89 334.081 314.89C335.05 314.89 335.807 315.222 336.391 315.912C336.935 316.55 337.174 317.293 337.174 318.395ZM335.236 318.382C335.236 317.466 335.116 316.868 334.877 316.563C334.705 316.337 334.426 316.205 334.107 316.205C333.683 316.205 333.337 316.47 333.191 316.895C333.072 317.253 333.005 317.731 333.005 318.408C333.005 319.192 333.085 319.776 333.231 320.121C333.39 320.493 333.789 320.679 334.134 320.679C334.904 320.679 335.236 319.988 335.236 318.382ZM344.569 318.236C344.569 319.696 344.33 320.44 343.626 321.196C343.161 321.688 342.551 321.966 341.807 321.966C341.276 321.966 340.772 321.834 340.387 321.608C340.413 321.767 340.413 321.966 340.413 322.165V324.29L338.7 324.741V316.882C338.7 315.992 338.687 315.74 338.594 315.169L340.174 314.89C340.241 315.129 340.28 315.315 340.294 315.527C340.599 315.156 341.276 314.89 341.966 314.89C342.444 314.89 342.936 315.049 343.307 315.302C344.037 315.793 344.569 316.669 344.569 318.236ZM342.63 318.408C342.63 317.758 342.577 317.24 342.458 316.908C342.325 316.536 342.046 316.337 341.608 316.337C341.17 316.337 340.745 316.523 340.426 316.855V320.161C340.665 320.36 341.05 320.559 341.409 320.559C342.285 320.559 342.63 319.962 342.63 318.408ZM354.315 320.891C354.315 322.856 352.576 324.263 350.133 324.263C349.708 324.263 349.549 324.25 349.124 324.17L348.739 322.856C349.243 322.989 349.602 323.042 349.987 323.042C351.394 323.042 352.39 322.245 352.39 321.103C352.39 320.254 351.806 319.696 350.943 319.696C350.399 319.696 349.854 319.802 349.005 320.068L349.429 315.023H353.957L353.691 316.536H351.089L350.903 318.382C351.182 318.329 351.288 318.315 351.527 318.315C353.173 318.315 354.315 319.378 354.315 320.891ZM361.839 318.422C361.839 320.559 360.551 321.98 358.679 321.98C356.741 321.98 355.533 320.586 355.533 318.448C355.533 316.311 356.82 314.89 358.692 314.89C360.631 314.89 361.839 316.284 361.839 318.422ZM359.887 318.461C359.887 316.59 359.369 316.191 358.692 316.191C357.79 316.191 357.484 317.067 357.484 318.408C357.484 320.28 358.002 320.679 358.679 320.679C359.582 320.679 359.887 319.802 359.887 318.461ZM369.346 318.422C369.346 320.559 368.058 321.98 366.186 321.98C364.247 321.98 363.039 320.586 363.039 318.448C363.039 316.311 364.327 314.89 366.199 314.89C368.137 314.89 369.346 316.284 369.346 318.422ZM367.394 318.461C367.394 316.59 366.876 316.191 366.199 316.191C365.296 316.191 364.991 317.067 364.991 318.408C364.991 320.28 365.509 320.679 366.186 320.679C367.089 320.679 367.394 319.802 367.394 318.461Z" fill="#F9F7F2"/>
<path opacity="0.5" d="M326.874 333.958L325.587 334.396L326.399 335.483L325.952 335.829L325.131 334.707L324.337 335.829L323.88 335.483L324.674 334.396L323.387 333.958L323.561 333.429L324.857 333.867V332.507H325.404V333.867L326.701 333.429L326.874 333.958ZM332.256 337.162C332.256 337.92 332.156 338.276 331.782 338.595C331.398 338.924 330.896 339.079 330.139 339.079C329.171 339.079 328.623 338.796 328.286 338.175C328.121 337.874 328.103 337.472 328.103 337.199V332.708H328.843V336.925C328.843 337.235 328.87 337.637 328.952 337.828C329.071 338.102 329.408 338.44 330.175 338.44C330.695 338.44 331.088 338.303 331.28 338.047C331.489 337.764 331.517 337.491 331.517 337.071V332.708H332.256V337.162ZM336.875 337.618C336.875 338.504 336.181 339.106 335.159 339.106C334.584 339.106 333.954 338.933 333.488 338.65L333.762 338.12C334.228 338.403 334.702 338.549 335.204 338.549C335.761 338.549 336.126 338.248 336.126 337.764C336.126 337.354 335.898 337.126 335.378 337.016L334.812 336.897C334.063 336.742 333.662 336.277 333.662 335.647C333.662 334.825 334.328 334.25 335.277 334.25C335.752 334.25 336.281 334.396 336.665 334.615L336.4 335.145C335.998 334.953 335.661 334.816 335.259 334.816C334.739 334.816 334.401 335.118 334.401 335.565C334.401 335.912 334.574 336.122 335.058 336.222L335.661 336.35C336.482 336.523 336.875 336.943 336.875 337.618ZM341.634 336.815H338.795V336.925C338.795 337.354 338.85 337.682 339.005 337.92C339.261 338.312 339.681 338.476 340.137 338.476C340.575 338.476 340.931 338.339 341.251 338.047L341.524 338.504C341.123 338.869 340.575 339.07 339.991 339.07C338.731 339.07 337.974 338.157 337.974 336.651C337.974 335.884 338.138 335.391 338.522 334.935C338.887 334.506 339.334 334.305 339.882 334.305C340.374 334.305 340.803 334.479 341.114 334.798C341.506 335.2 341.634 335.629 341.634 336.715V336.815ZM340.876 336.277C340.867 335.784 340.803 335.483 340.666 335.264C340.511 335.017 340.192 334.862 339.845 334.862C339.197 334.862 338.832 335.337 338.795 336.277H340.876ZM346.622 338.969H345.892C345.873 338.924 345.8 338.714 345.791 338.504C345.463 338.878 345.116 339.033 344.587 339.033C343.409 339.033 342.734 338.184 342.734 336.733C342.734 335.766 343.053 335.054 343.674 334.625C343.966 334.424 344.221 334.342 344.55 334.342C345.061 334.342 345.508 334.552 345.782 334.917C345.782 334.844 345.773 334.506 345.773 334.214V332.306L346.485 332.425V337.5C346.485 338.285 346.522 338.705 346.622 338.969ZM345.764 337.81V335.4C345.536 335.081 345.198 334.926 344.66 334.926C344.304 334.926 344.002 335.09 343.811 335.4C343.592 335.747 343.519 336.076 343.519 336.715C343.519 337.244 343.555 337.637 343.701 337.901C343.911 338.276 344.194 338.431 344.614 338.431C344.988 338.431 345.198 338.349 345.49 338.139C345.636 338.038 345.737 337.874 345.764 337.81ZM352.545 332.626L352.281 333.128C352.107 333.027 351.852 332.918 351.605 332.918C351.204 332.918 350.985 333.201 350.985 333.721V334.424H352.244L352.025 334.962H350.985V338.969H350.236V334.962H349.798V334.424H350.236V333.712C350.236 333.036 350.547 332.744 350.738 332.598C350.957 332.434 351.204 332.361 351.541 332.361C351.934 332.361 352.281 332.452 352.545 332.626ZM356.551 336.77C356.551 338.285 355.739 339.088 354.598 339.088C353.347 339.088 352.635 338.166 352.635 336.669C352.635 335.191 353.375 334.287 354.57 334.287C355.328 334.287 355.821 334.634 356.131 335.081C356.414 335.492 356.551 336.03 356.551 336.77ZM355.739 336.824C355.739 336.185 355.675 335.756 355.529 335.455C355.337 335.054 354.935 334.871 354.561 334.871C354.16 334.871 353.785 335.063 353.63 335.364C353.484 335.647 353.411 336.012 353.411 336.55C353.411 337.189 353.521 337.755 353.694 338.038C353.858 338.312 354.224 338.495 354.616 338.495C355.091 338.495 355.447 338.248 355.602 337.81C355.702 337.527 355.739 337.272 355.739 336.824ZM360.191 334.333L359.899 335.108C359.854 335.09 359.771 335.072 359.698 335.072C359.425 335.072 359.151 335.191 358.941 335.4C358.731 335.61 358.676 335.747 358.676 336.122V338.969H357.964V335.464C357.964 334.871 357.836 334.561 357.809 334.497L358.521 334.305C358.557 334.378 358.694 334.707 358.667 335.044C358.996 334.579 359.479 334.287 359.945 334.287C360.054 334.287 360.164 334.323 360.191 334.333ZM367.344 335.848C367.344 336.943 367.052 337.719 366.632 338.184C366.085 338.796 365.537 338.969 364.661 338.969H363.027V332.708H364.277C365.236 332.708 365.674 332.754 366.285 333.192C366.997 333.703 367.344 334.625 367.344 335.848ZM366.532 335.939C366.532 334.999 366.413 334.396 365.993 333.894C365.583 333.411 365.181 333.319 364.524 333.319H363.775V338.349H364.524C365.172 338.349 365.774 338.276 366.112 337.691C366.395 337.208 366.532 336.596 366.532 335.939ZM369.533 338.969H368.803V332.708H369.533V338.969ZM375.179 337.199C375.179 337.783 374.868 338.349 374.312 338.705C373.901 338.969 373.481 339.088 372.906 339.088C372.157 339.088 371.519 338.905 370.898 338.522L371.227 337.938C371.747 338.312 372.276 338.476 372.906 338.476C373.381 338.476 373.636 338.403 373.901 338.203C374.202 337.974 374.348 337.673 374.348 337.308C374.348 336.751 373.983 336.368 373.225 336.14L372.596 335.948C372.03 335.775 371.729 335.647 371.482 335.391C371.227 335.118 371.09 334.771 371.09 334.369C371.09 333.301 371.902 332.571 373.116 332.571C373.791 332.571 374.412 332.772 375.005 333.173L374.677 333.712C374.074 333.319 373.691 333.183 373.152 333.183C372.367 333.183 371.902 333.575 371.902 334.214C371.902 334.716 372.203 334.999 372.942 335.236L373.664 335.464C374.22 335.638 374.512 335.802 374.768 336.094C375.023 336.386 375.179 336.806 375.179 337.199ZM380.592 338.559C380.09 338.887 379.469 339.07 378.849 339.07C378.173 339.07 377.507 338.787 377.023 338.239C376.494 337.637 376.275 336.788 376.275 335.857C376.275 333.995 377.388 332.626 378.904 332.626C379.506 332.626 380.054 332.808 380.483 333.137L380.081 333.621C379.707 333.347 379.351 333.228 378.894 333.228C378.173 333.228 377.653 333.602 377.352 334.305C377.169 334.725 377.087 335.227 377.087 335.966C377.087 336.569 377.142 336.925 377.288 337.29C377.607 338.075 378.255 338.458 378.967 338.458C379.433 338.458 379.789 338.339 380.19 338.057L380.592 338.559ZM387.302 336.77C387.302 338.285 386.49 339.088 385.349 339.088C384.099 339.088 383.387 338.166 383.387 336.669C383.387 335.191 384.126 334.287 385.322 334.287C386.079 334.287 386.572 334.634 386.882 335.081C387.165 335.492 387.302 336.03 387.302 336.77ZM386.49 336.824C386.49 336.185 386.426 335.756 386.28 335.455C386.088 335.054 385.687 334.871 385.313 334.871C384.911 334.871 384.537 335.063 384.382 335.364C384.236 335.647 384.163 336.012 384.163 336.55C384.163 337.189 384.272 337.755 384.445 338.038C384.61 338.312 384.975 338.495 385.367 338.495C385.842 338.495 386.198 338.248 386.353 337.81C386.453 337.527 386.49 337.272 386.49 336.824ZM392.056 338.969H391.335V335.893C391.335 335.41 391.299 335.291 391.171 335.136C391.07 335.017 390.879 334.944 390.669 334.944C390.304 334.944 389.738 335.236 389.409 335.583V338.969H388.715V335.464C388.715 334.889 388.579 334.57 388.542 334.506L389.236 334.314C389.272 334.378 389.4 334.698 389.4 335.026C389.875 334.552 390.349 334.323 390.833 334.323C391.326 334.323 391.764 334.588 391.947 334.99C392.02 335.154 392.056 335.337 392.056 335.519V338.969ZM394.912 338.96C394.729 339.042 394.647 339.061 394.456 339.061C394.237 339.061 394.054 338.997 393.917 338.869C393.771 338.741 393.698 338.549 393.698 338.221V333.402C393.698 332.872 393.607 332.534 393.589 332.471L394.3 332.334C394.328 332.407 394.419 332.79 394.419 333.411V338.057C394.419 338.412 394.474 338.513 394.675 338.513C394.693 338.513 394.729 338.504 394.766 338.495L394.912 338.96ZM399.335 334.424L397.774 339.134C397.473 340.046 397.099 340.649 396.304 340.84L396.095 340.357C396.679 340.174 396.898 339.882 397.144 338.96L396.852 339.006C396.797 338.714 396.551 337.828 396.396 337.372L395.419 334.524L396.122 334.287L397.053 337.235C397.172 337.618 397.299 338.23 397.327 338.367H397.345C397.436 338.047 397.537 337.728 397.628 337.408L398.522 334.424H399.335Z" fill="#F9F7F2"/>
<path d="M328.652 368.923C328.652 370.168 327.607 371.004 326.053 371.004C324.52 371.004 323.474 370.218 323.474 369.063C323.474 368.306 323.863 367.778 324.769 367.35C324.112 367.002 323.763 366.494 323.763 365.847C323.763 364.692 324.719 363.875 326.073 363.875C327.427 363.875 328.363 364.632 328.363 365.717C328.363 366.325 328.005 366.812 327.298 367.181C328.174 367.579 328.652 368.206 328.652 368.923ZM325.804 366.673L326.312 366.832C326.969 366.603 327.308 366.255 327.308 365.807C327.308 365.199 326.8 364.781 326.063 364.781C325.326 364.781 324.819 365.16 324.819 365.707C324.819 366.155 325.117 366.454 325.804 366.673ZM324.59 368.963C324.59 369.64 325.167 370.078 326.063 370.078C326.959 370.078 327.537 369.65 327.537 368.983C327.537 368.505 327.168 368.147 326.452 367.928L325.635 367.679C324.948 367.948 324.59 368.386 324.59 368.963ZM334.399 371.004C332.208 371.004 330.665 369.511 330.665 367.42C330.665 365.339 332.248 363.835 334.439 363.835C335.544 363.835 336.42 364.214 336.918 364.652V366.016C336.191 365.279 335.375 364.911 334.459 364.911C332.836 364.911 331.87 366.066 331.87 367.42C331.87 368.784 332.836 369.949 334.459 369.949C335.444 369.949 336.331 369.521 336.918 368.864V370.158C336.331 370.676 335.425 371.004 334.399 371.004ZM338.883 366.255C338.883 364.881 339.969 363.875 341.442 363.875C343.125 363.875 344.23 365.229 344.23 367.29C344.23 369.481 342.936 371.004 341.064 371.004C340.407 371.004 339.78 370.845 339.331 370.566V369.421C339.829 369.78 340.427 369.979 340.994 369.979C342.169 369.979 342.946 369.113 343.075 367.709C342.617 368.196 341.96 368.475 341.233 368.475C339.869 368.475 338.883 367.549 338.883 366.255ZM341.432 367.559C342.09 367.559 342.697 367.241 343.065 366.723C342.916 365.538 342.309 364.821 341.413 364.821C340.596 364.821 339.999 365.399 339.999 366.185C339.999 366.992 340.586 367.559 341.432 367.559ZM351.497 370.905L350.79 369.172H347.783L347.076 370.905H345.842L348.819 363.935H349.815L352.772 370.905H351.497ZM348.182 368.196H350.402L349.287 365.468L348.182 368.196ZM358.833 369.939V370.905H354.143V370.248L356.832 367.34C357.31 366.822 357.509 366.374 357.509 365.956C357.509 365.329 357.091 364.831 356.274 364.831C355.657 364.831 354.97 365.09 354.293 365.618V364.512C354.8 364.134 355.577 363.835 356.394 363.835C357.937 363.835 358.674 364.761 358.674 365.807C358.674 366.434 358.415 367.051 357.738 367.788L355.776 369.939H358.833ZM365.787 368.923C365.787 370.168 364.742 371.004 363.188 371.004C361.655 371.004 360.609 370.218 360.609 369.063C360.609 368.306 360.998 367.778 361.904 367.35C361.247 367.002 360.898 366.494 360.898 365.847C360.898 364.692 361.854 363.875 363.208 363.875C364.562 363.875 365.498 364.632 365.498 365.717C365.498 366.325 365.14 366.812 364.433 367.181C365.309 367.579 365.787 368.206 365.787 368.923ZM362.939 366.673L363.447 366.832C364.104 366.603 364.443 366.255 364.443 365.807C364.443 365.199 363.935 364.781 363.198 364.781C362.461 364.781 361.954 365.16 361.954 365.707C361.954 366.155 362.252 366.454 362.939 366.673ZM361.725 368.963C361.725 369.64 362.302 370.078 363.198 370.078C364.094 370.078 364.672 369.65 364.672 368.983C364.672 368.505 364.303 368.147 363.586 367.928L362.77 367.679C362.083 367.948 361.725 368.386 361.725 368.963Z" fill="#F9F7F2"/>
<path d="M304.723 63.5941C304.723 56.4144 310.543 50.5941 317.723 50.5941H581.444C588.623 50.5941 594.444 56.4144 594.444 63.5941V266.331H304.723V63.5941Z" fill="#D7E85E"/>
<path opacity="0.5" d="M328.234 75.709C328.234 76.6673 327.997 77.4158 327.568 77.9634C327.038 78.6388 326.491 78.8488 325.313 78.8488H323.752V72.5326H325.067C326.253 72.5326 326.956 72.7517 327.549 73.4271C328.015 73.9656 328.234 74.7232 328.234 75.709ZM327.066 75.8185C327.066 75.0061 326.993 74.3581 326.664 73.9109C326.372 73.5093 326.043 73.3632 325.477 73.3632H324.811V77.9908H325.505C326.618 77.9908 327.066 77.2515 327.066 75.8185ZM330.587 78.8488H329.51V72.5326H330.587V78.8488ZM336.357 76.9411C336.357 77.9908 335.508 78.9674 333.892 78.9674C333.171 78.9674 332.441 78.7757 331.82 78.4015L332.222 77.5983C332.788 77.9269 333.29 78.1186 333.929 78.1186C334.705 78.1186 335.17 77.7443 335.17 77.1146C335.17 76.6491 334.878 76.357 334.23 76.1744L333.555 75.9828C332.98 75.8185 332.569 75.5812 332.332 75.2252C332.158 74.9696 332.067 74.6684 332.067 74.3033C332.067 73.1898 332.943 72.4322 334.212 72.4322C334.933 72.4322 335.654 72.6422 336.211 73.0346L335.736 73.774C335.152 73.4271 334.75 73.2902 334.248 73.2902C333.628 73.2902 333.217 73.6279 333.217 74.1482C333.217 74.5407 333.436 74.7415 334.057 74.924L334.805 75.1431C335.718 75.4077 336.357 75.9919 336.357 76.9411ZM341.757 78.3924C341.264 78.7666 340.708 78.9492 340.032 78.9492C339.192 78.9492 338.526 78.6297 338.033 78.0364C337.559 77.4614 337.312 76.6947 337.312 75.782C337.312 75.0244 337.449 74.3946 337.732 73.8652C338.207 72.9616 339.074 72.414 340.06 72.414C340.671 72.414 341.255 72.5965 341.629 72.9069L341.146 73.6005C340.808 73.3541 340.461 73.2446 340.069 73.2446C339.53 73.2446 339.083 73.5184 338.809 74.0021C338.59 74.3855 338.48 74.9149 338.48 75.6633C338.48 76.4391 338.563 76.8773 338.727 77.2332C339.001 77.8356 339.521 78.1277 340.133 78.1277C340.58 78.1277 340.908 78.009 341.264 77.7261L341.757 78.3924ZM348.879 74.422C348.879 75.6633 347.975 76.4391 346.834 76.4391H345.766V78.8488H344.726V72.5326H346.405C347.327 72.5326 347.665 72.6239 348.011 72.8338C348.568 73.1624 348.879 73.7283 348.879 74.422ZM347.719 74.4859C347.719 74.139 347.637 73.8744 347.464 73.6918C347.272 73.491 346.998 73.3815 346.588 73.3815H345.766V75.5994H346.588C347.363 75.5994 347.719 75.2343 347.719 74.4859ZM352.351 74.1756L352.041 75.1065C351.94 75.07 351.867 75.0427 351.758 75.0427C351.338 75.0427 350.982 75.353 350.891 75.7272V78.8488H349.887V75.5903C349.887 75.0061 349.823 74.6319 349.722 74.349L350.644 74.1117C350.754 74.3216 350.818 74.5863 350.818 74.8419C351.183 74.3399 351.548 74.1025 351.995 74.1025C352.141 74.1025 352.232 74.1208 352.351 74.1756ZM354.037 78.8488H353.024V74.3033L354.037 74.1208V78.8488ZM354.201 72.8795C354.201 73.2446 353.9 73.5458 353.526 73.5458C353.161 73.5458 352.878 73.2446 352.878 72.8795C352.878 72.5053 353.17 72.2041 353.544 72.2041C353.9 72.2041 354.201 72.4961 354.201 72.8795ZM361.414 78.8488H360.429V75.6542C360.429 75.1157 360.31 74.9605 359.954 74.9605C359.616 74.9605 359.297 75.1887 358.977 75.4899V78.8488H358.019V75.6816C358.019 75.1431 357.9 74.9696 357.517 74.9696C357.234 74.9696 356.905 75.1157 356.568 75.426V78.8488H355.591V75.5355C355.591 74.9605 355.536 74.6137 355.427 74.3672L356.34 74.1117C356.431 74.2577 356.486 74.4494 356.504 74.7049C356.869 74.3307 357.298 74.1208 357.727 74.1208C358.138 74.1208 358.494 74.2577 358.831 74.7962C359.279 74.3399 359.717 74.1208 360.21 74.1208C360.967 74.1208 361.414 74.5133 361.414 75.4716V78.8488ZM366.506 78.4015L365.986 79.0404C365.703 78.9309 365.466 78.7118 365.356 78.4198C364.982 78.8396 364.58 78.9857 364.087 78.9857C363.029 78.9857 362.554 78.4015 362.554 77.5983C362.554 76.5304 363.357 75.9919 364.836 75.9919H365.146V75.7455C365.146 75.2161 365.055 74.9331 364.507 74.9331C363.914 74.9331 363.275 75.353 363.129 75.4625L362.682 74.7415C363.375 74.3033 363.95 74.1117 364.644 74.1117C365.365 74.1117 365.849 74.3764 366.05 74.8784C366.132 75.0792 366.132 75.3256 366.123 76.0102L366.104 77.3336C366.095 77.9543 366.15 78.1551 366.506 78.4015ZM365.128 76.6764C365.11 76.6764 365.009 76.6673 364.945 76.6673C363.941 76.6673 363.64 76.9594 363.64 77.5435C363.64 77.9817 363.877 78.2555 364.279 78.2555C364.598 78.2555 364.909 78.0638 365.11 77.7717L365.128 76.6764ZM370.133 74.1756L369.823 75.1065C369.722 75.07 369.649 75.0427 369.54 75.0427C369.12 75.0427 368.764 75.353 368.673 75.7272V78.8488H367.669V75.5903C367.669 75.0061 367.605 74.6319 367.504 74.349L368.426 74.1117C368.536 74.3216 368.6 74.5863 368.6 74.8419C368.965 74.3399 369.33 74.1025 369.777 74.1025C369.923 74.1025 370.015 74.1208 370.133 74.1756ZM374.689 74.2303L373.055 78.9492C372.671 80.0627 372.343 80.6195 371.257 80.8203L370.928 80.1722C371.558 79.9988 371.914 79.7341 372.179 78.8488H371.859C371.731 78.3285 371.558 77.8265 371.421 77.4158L370.371 74.3033L371.394 74.1299L372.242 76.9411C372.325 77.215 372.48 77.9086 372.498 77.9817C372.507 77.9451 372.671 77.288 372.845 76.7312L373.612 74.2303H374.689Z" fill="#420C02"/>
<path d="M330.292 91.3986C330.292 92.62 329.708 93.6024 328.699 94.0804C328.274 94.2795 327.875 94.3857 326.853 94.3857H325.831V97.7844H323.972V88.5575H326.402C327.968 88.5575 328.446 88.7168 328.964 89.0089C329.827 89.4868 330.292 90.3365 330.292 91.3986ZM328.26 91.4384C328.26 90.5755 327.796 90.0577 327.013 90.0577H325.831V92.8723H326.8C327.557 92.8723 327.783 92.7793 328.035 92.3943C328.194 92.1421 328.26 91.8765 328.26 91.4384ZM337.174 94.3592C337.174 95.5275 336.909 96.3241 336.324 96.9879C335.807 97.572 335.13 97.9305 334.081 97.9305C332.235 97.9305 331.027 96.5497 331.027 94.4123C331.027 92.2748 332.249 90.8543 334.081 90.8543C335.05 90.8543 335.807 91.1862 336.391 91.8765C336.935 92.5138 337.174 93.2573 337.174 94.3592ZM335.236 94.3459C335.236 93.4299 335.116 92.8324 334.877 92.5271C334.705 92.3014 334.426 92.1686 334.107 92.1686C333.683 92.1686 333.337 92.4341 333.191 92.859C333.072 93.2174 333.005 93.6954 333.005 94.3725C333.005 95.1558 333.085 95.7399 333.231 96.0851C333.39 96.4568 333.789 96.6427 334.134 96.6427C334.904 96.6427 335.236 95.9523 335.236 94.3459ZM344.569 94.1999C344.569 95.6602 344.33 96.4037 343.626 97.1604C343.161 97.6517 342.551 97.9305 341.807 97.9305C341.276 97.9305 340.772 97.7977 340.387 97.572C340.413 97.7313 340.413 97.9305 340.413 98.1296V100.254L338.7 100.705V92.8457C338.7 91.9562 338.687 91.704 338.594 91.1331L340.174 90.8543C340.241 91.0933 340.28 91.2791 340.294 91.4915C340.599 91.1198 341.276 90.8543 341.966 90.8543C342.444 90.8543 342.936 91.0136 343.307 91.2658C344.037 91.7571 344.569 92.6333 344.569 94.1999ZM342.63 94.3725C342.63 93.7219 342.577 93.2042 342.458 92.8723C342.325 92.5005 342.046 92.3014 341.608 92.3014C341.17 92.3014 340.745 92.4873 340.426 92.8192V96.1249C340.665 96.3241 341.05 96.5232 341.409 96.5232C342.285 96.5232 342.63 95.9258 342.63 94.3725Z" fill="#420C02"/>
<path opacity="0.5" d="M326.874 109.922L325.587 110.36L326.399 111.446L325.952 111.793L325.131 110.671L324.337 111.793L323.88 111.446L324.674 110.36L323.387 109.922L323.561 109.393L324.857 109.831V108.471H325.404V109.831L326.701 109.393L326.874 109.922ZM332.256 113.126C332.256 113.883 332.156 114.239 331.782 114.559C331.398 114.887 330.896 115.043 330.139 115.043C329.171 115.043 328.623 114.76 328.286 114.139C328.121 113.838 328.103 113.436 328.103 113.162V108.672H328.843V112.889C328.843 113.199 328.87 113.601 328.952 113.792C329.071 114.066 329.408 114.404 330.175 114.404C330.695 114.404 331.088 114.267 331.28 114.011C331.489 113.728 331.517 113.454 331.517 113.035V108.672H332.256V113.126ZM336.875 113.582C336.875 114.468 336.181 115.07 335.159 115.07C334.584 115.07 333.954 114.897 333.488 114.614L333.762 114.084C334.228 114.367 334.702 114.513 335.204 114.513C335.761 114.513 336.126 114.212 336.126 113.728C336.126 113.318 335.898 113.089 335.378 112.98L334.812 112.861C334.063 112.706 333.662 112.241 333.662 111.611C333.662 110.789 334.328 110.214 335.277 110.214C335.752 110.214 336.281 110.36 336.665 110.579L336.4 111.109C335.998 110.917 335.661 110.78 335.259 110.78C334.739 110.78 334.401 111.081 334.401 111.529C334.401 111.875 334.574 112.085 335.058 112.186L335.661 112.314C336.482 112.487 336.875 112.907 336.875 113.582ZM341.634 112.779H338.795V112.889C338.795 113.318 338.85 113.646 339.005 113.883C339.261 114.276 339.681 114.44 340.137 114.44C340.575 114.44 340.931 114.303 341.251 114.011L341.524 114.468C341.123 114.833 340.575 115.034 339.991 115.034C338.731 115.034 337.974 114.121 337.974 112.615C337.974 111.848 338.138 111.355 338.522 110.899C338.887 110.47 339.334 110.269 339.882 110.269C340.374 110.269 340.803 110.442 341.114 110.762C341.506 111.164 341.634 111.593 341.634 112.679V112.779ZM340.876 112.241C340.867 111.748 340.803 111.446 340.666 111.227C340.511 110.981 340.192 110.826 339.845 110.826C339.197 110.826 338.832 111.3 338.795 112.241H340.876ZM346.622 114.933H345.892C345.873 114.887 345.8 114.678 345.791 114.468C345.463 114.842 345.116 114.997 344.587 114.997C343.409 114.997 342.734 114.148 342.734 112.697C342.734 111.729 343.053 111.017 343.674 110.588C343.966 110.388 344.221 110.306 344.55 110.306C345.061 110.306 345.508 110.515 345.782 110.881C345.782 110.808 345.773 110.47 345.773 110.178V108.27L346.485 108.389V113.464C346.485 114.249 346.522 114.668 346.622 114.933ZM345.764 113.774V111.364C345.536 111.045 345.198 110.89 344.66 110.89C344.304 110.89 344.002 111.054 343.811 111.364C343.592 111.711 343.519 112.04 343.519 112.679C343.519 113.208 343.555 113.601 343.701 113.865C343.911 114.239 344.194 114.395 344.614 114.395C344.988 114.395 345.198 114.312 345.49 114.103C345.636 114.002 345.737 113.838 345.764 113.774ZM352.545 108.59L352.281 109.092C352.107 108.991 351.852 108.882 351.605 108.882C351.204 108.882 350.985 109.165 350.985 109.685V110.388H352.244L352.025 110.926H350.985V114.933H350.236V110.926H349.798V110.388H350.236V109.676C350.236 109 350.547 108.708 350.738 108.562C350.957 108.398 351.204 108.325 351.541 108.325C351.934 108.325 352.281 108.416 352.545 108.59ZM356.551 112.733C356.551 114.249 355.739 115.052 354.598 115.052C353.347 115.052 352.635 114.13 352.635 112.633C352.635 111.154 353.375 110.251 354.57 110.251C355.328 110.251 355.821 110.598 356.131 111.045C356.414 111.456 356.551 111.994 356.551 112.733ZM355.739 112.788C355.739 112.149 355.675 111.72 355.529 111.419C355.337 111.017 354.935 110.835 354.561 110.835C354.16 110.835 353.785 111.027 353.63 111.328C353.484 111.611 353.411 111.976 353.411 112.514C353.411 113.153 353.521 113.719 353.694 114.002C353.858 114.276 354.224 114.458 354.616 114.458C355.091 114.458 355.447 114.212 355.602 113.774C355.702 113.491 355.739 113.235 355.739 112.788ZM360.191 110.296L359.899 111.072C359.854 111.054 359.771 111.036 359.698 111.036C359.425 111.036 359.151 111.154 358.941 111.364C358.731 111.574 358.676 111.711 358.676 112.085V114.933H357.964V111.428C357.964 110.835 357.836 110.525 357.809 110.461L358.521 110.269C358.557 110.342 358.694 110.671 358.667 111.008C358.996 110.543 359.479 110.251 359.945 110.251C360.054 110.251 360.164 110.287 360.191 110.296ZM367.344 111.812C367.344 112.907 367.052 113.683 366.632 114.148C366.085 114.76 365.537 114.933 364.661 114.933H363.027V108.672H364.277C365.236 108.672 365.674 108.717 366.285 109.156C366.997 109.667 367.344 110.588 367.344 111.812ZM366.532 111.903C366.532 110.963 366.413 110.36 365.993 109.858C365.583 109.375 365.181 109.283 364.524 109.283H363.775V114.312H364.524C365.172 114.312 365.774 114.239 366.112 113.655C366.395 113.172 366.532 112.56 366.532 111.903ZM369.533 114.933H368.803V108.672H369.533V114.933ZM375.179 113.162C375.179 113.747 374.868 114.312 374.312 114.668C373.901 114.933 373.481 115.052 372.906 115.052C372.157 115.052 371.519 114.869 370.898 114.486L371.227 113.902C371.747 114.276 372.276 114.44 372.906 114.44C373.381 114.44 373.636 114.367 373.901 114.166C374.202 113.938 374.348 113.637 374.348 113.272C374.348 112.715 373.983 112.332 373.225 112.104L372.596 111.912C372.03 111.739 371.729 111.611 371.482 111.355C371.227 111.081 371.09 110.735 371.09 110.333C371.09 109.265 371.902 108.535 373.116 108.535C373.791 108.535 374.412 108.736 375.005 109.137L374.677 109.676C374.074 109.283 373.691 109.146 373.152 109.146C372.367 109.146 371.902 109.539 371.902 110.178C371.902 110.68 372.203 110.963 372.942 111.2L373.664 111.428C374.22 111.602 374.512 111.766 374.768 112.058C375.023 112.35 375.179 112.77 375.179 113.162ZM380.592 114.522C380.09 114.851 379.469 115.034 378.849 115.034C378.173 115.034 377.507 114.751 377.023 114.203C376.494 113.601 376.275 112.752 376.275 111.821C376.275 109.959 377.388 108.59 378.904 108.59C379.506 108.59 380.054 108.772 380.483 109.101L380.081 109.584C379.707 109.311 379.351 109.192 378.894 109.192C378.173 109.192 377.653 109.566 377.352 110.269C377.169 110.689 377.087 111.191 377.087 111.93C377.087 112.533 377.142 112.889 377.288 113.254C377.607 114.039 378.255 114.422 378.967 114.422C379.433 114.422 379.789 114.303 380.19 114.02L380.592 114.522ZM387.302 112.733C387.302 114.249 386.49 115.052 385.349 115.052C384.099 115.052 383.387 114.13 383.387 112.633C383.387 111.154 384.126 110.251 385.322 110.251C386.079 110.251 386.572 110.598 386.882 111.045C387.165 111.456 387.302 111.994 387.302 112.733ZM386.49 112.788C386.49 112.149 386.426 111.72 386.28 111.419C386.088 111.017 385.687 110.835 385.313 110.835C384.911 110.835 384.537 111.027 384.382 111.328C384.236 111.611 384.163 111.976 384.163 112.514C384.163 113.153 384.272 113.719 384.445 114.002C384.61 114.276 384.975 114.458 385.367 114.458C385.842 114.458 386.198 114.212 386.353 113.774C386.453 113.491 386.49 113.235 386.49 112.788ZM392.056 114.933H391.335V111.857C391.335 111.373 391.299 111.255 391.171 111.1C391.07 110.981 390.879 110.908 390.669 110.908C390.304 110.908 389.738 111.2 389.409 111.547V114.933H388.715V111.428C388.715 110.853 388.579 110.534 388.542 110.47L389.236 110.278C389.272 110.342 389.4 110.662 389.4 110.99C389.875 110.515 390.349 110.287 390.833 110.287C391.326 110.287 391.764 110.552 391.947 110.954C392.02 111.118 392.056 111.3 392.056 111.483V114.933ZM394.912 114.924C394.729 115.006 394.647 115.024 394.456 115.024C394.237 115.024 394.054 114.96 393.917 114.833C393.771 114.705 393.698 114.513 393.698 114.185V109.365C393.698 108.836 393.607 108.498 393.589 108.434L394.3 108.298C394.328 108.371 394.419 108.754 394.419 109.375V114.02C394.419 114.376 394.474 114.477 394.675 114.477C394.693 114.477 394.729 114.468 394.766 114.458L394.912 114.924ZM399.335 110.388L397.774 115.097C397.473 116.01 397.099 116.613 396.304 116.804L396.095 116.32C396.679 116.138 396.898 115.846 397.144 114.924L396.852 114.97C396.797 114.678 396.551 113.792 396.396 113.336L395.419 110.488L396.122 110.251L397.053 113.199C397.172 113.582 397.299 114.194 397.327 114.331H397.345C397.436 114.011 397.537 113.692 397.628 113.372L398.522 110.388H399.335Z" fill="#420C02"/>
<path d="M323.833 241.869V234.899H326.491C328.463 234.899 330.046 236.323 330.046 238.384C330.046 240.445 328.393 241.869 326.432 241.869H323.833ZM326.352 235.954H325.028V240.833H326.352C327.856 240.833 328.831 239.788 328.831 238.384C328.831 237.02 327.836 235.954 326.352 235.954ZM331.935 235.895V234.899H336.913V235.715C336.256 237.737 334.872 240.276 333.418 241.869H332.094C333.946 239.748 335.001 237.806 335.728 235.895H331.935ZM339.019 241.869V234.899H343.44V235.944H340.214V237.767H343.112V238.812H340.214V240.843H343.49V241.869H339.019ZM350.717 239.887C350.717 241.132 349.672 241.968 348.118 241.968C346.585 241.968 345.539 241.182 345.539 240.027C345.539 239.27 345.928 238.742 346.834 238.314C346.177 237.966 345.828 237.458 345.828 236.811C345.828 235.656 346.784 234.839 348.138 234.839C349.492 234.839 350.428 235.596 350.428 236.681C350.428 237.289 350.07 237.777 349.363 238.145C350.239 238.543 350.717 239.171 350.717 239.887ZM347.869 237.637L348.377 237.796C349.034 237.567 349.373 237.219 349.373 236.771C349.373 236.163 348.865 235.745 348.128 235.745C347.392 235.745 346.884 236.124 346.884 236.671C346.884 237.119 347.182 237.418 347.869 237.637ZM346.655 239.927C346.655 240.604 347.232 241.042 348.128 241.042C349.024 241.042 349.602 240.614 349.602 239.947C349.602 239.469 349.234 239.111 348.517 238.892L347.7 238.643C347.013 238.912 346.655 239.35 346.655 239.927ZM352.633 238.643L352.991 234.899H356.815V235.865H353.937L353.778 237.488C354.067 237.448 354.355 237.428 354.575 237.428C356.247 237.428 357.253 238.264 357.253 239.609C357.253 240.833 356.257 241.968 354.375 241.968C353.708 241.968 353.141 241.839 352.573 241.58V240.525C353.091 240.833 353.738 241.003 354.365 241.003C355.54 241.003 356.108 240.395 356.108 239.698C356.108 238.971 355.57 238.424 354.336 238.424C353.987 238.424 353.161 238.493 352.633 238.643ZM359.538 241.869V234.899H363.959V235.944H360.733V237.767H363.631V238.812H360.733V240.843H364.009V241.869H359.538Z" fill="#420C02"/>
<path d="M362.419 21.9572V10.3405H364.411V21.9572H362.419ZM370.933 15.4684C370.036 15.4684 369.389 15.8335 368.974 16.3811V21.9572H367.083V13.9914H368.941V14.871C369.505 14.2238 370.385 13.8089 371.447 13.8089C373.405 13.8089 374.501 15.1199 374.501 17.0284V21.9572H372.609V17.2441C372.609 16.2152 371.995 15.4684 370.933 15.4684ZM382.163 21.6087C381.549 21.8908 380.836 22.0401 380.072 22.0401C378.38 22.0401 377.517 21.1772 377.517 19.584V15.485H376.04V13.9914H377.517V12.1825L379.375 11.9336V13.9914H382.13V15.485H379.375V19.2189C379.375 19.9989 379.707 20.4304 380.537 20.4304C381.135 20.4304 381.715 20.2644 382.163 20.0819V21.6087ZM390.713 21.2104C390.033 21.7248 388.854 22.1231 387.626 22.1231C385.021 22.1231 383.162 20.447 383.162 17.9743C383.162 15.5182 385.021 13.8255 387.095 13.8255C389.535 13.8255 390.929 15.568 390.929 18.0075V18.4058H385.037C385.22 19.7168 386.149 20.5632 387.759 20.5632C388.805 20.5632 389.999 20.1483 390.713 19.584V21.2104ZM387.095 15.3522C386.133 15.3522 385.369 15.9497 385.104 17.0118H389.053C388.821 16.0492 388.141 15.3522 387.095 15.3522ZM394.742 17.1279V21.9572H392.851V13.9914H394.709V15.3522C395.323 14.3233 396.319 13.8255 397.447 13.8255C397.73 13.8255 398.012 13.8587 398.31 13.9084V15.8501C398.012 15.7505 397.68 15.6675 397.232 15.6675C396.103 15.6675 395.124 16.2152 394.742 17.1279ZM406.145 22.0401C404.967 22.0401 404.369 21.5257 404.27 20.6793C403.573 21.6087 402.544 22.0899 401.415 22.0899C399.905 22.0899 399.042 21.2436 399.042 19.9657C399.042 18.7377 399.822 17.9245 401.863 17.4101L404.203 16.8126C404.12 15.8169 403.556 15.4518 402.527 15.4352C401.631 15.4186 400.751 15.7505 399.805 16.4309V14.6884C400.668 14.1408 401.614 13.8255 402.759 13.8255C404.983 13.8255 406.078 14.8378 406.078 16.879V20.1649C406.078 20.4968 406.311 20.6627 406.659 20.6627C406.925 20.6627 407.058 20.6295 407.29 20.5466V21.841C406.941 21.9903 406.543 22.0401 406.145 22.0401ZM400.901 19.8496C400.901 20.281 401.233 20.6295 401.979 20.6295C402.876 20.6295 403.738 20.0819 404.22 19.3517V18.1402L402.461 18.6049C401.233 18.9368 400.901 19.3019 400.901 19.8496ZM412.662 22.1231C410.223 22.1231 408.314 20.3972 408.314 18.0075C408.314 15.5846 410.256 13.8255 412.662 13.8255C413.708 13.8255 414.67 14.0744 415.185 14.5059V16.3148C414.521 15.8003 413.724 15.4518 412.778 15.4518C411.302 15.4518 410.19 16.4973 410.19 17.9577C410.19 19.4679 411.302 20.5134 412.795 20.5134C413.741 20.5134 414.488 20.1815 415.185 19.667V21.3597C414.488 21.8742 413.558 22.1231 412.662 22.1231ZM422.452 21.6087C421.838 21.8908 421.125 22.0401 420.361 22.0401C418.669 22.0401 417.806 21.1772 417.806 19.584V15.485H416.329V13.9914H417.806V12.1825L419.664 11.9336V13.9914H422.419V15.485H419.664V19.2189C419.664 19.9989 419.996 20.4304 420.826 20.4304C421.423 20.4304 422.004 20.2644 422.452 20.0819V21.6087ZM424.961 12.2157C424.331 12.2157 423.816 11.7179 423.816 11.0873C423.816 10.4566 424.331 9.95878 424.961 9.95878C425.592 9.95878 426.106 10.4566 426.106 11.0873C426.106 11.7179 425.592 12.2157 424.961 12.2157ZM424.015 21.9572V13.9914H425.907V21.9572H424.015ZM435.792 13.9914L432.44 21.9572H430.665L427.312 13.9914H429.337L431.577 19.7666L433.834 13.9914H435.792ZM444.032 21.2104C443.351 21.7248 442.173 22.1231 440.945 22.1231C438.34 22.1231 436.481 20.447 436.481 17.9743C436.481 15.5182 438.34 13.8255 440.414 13.8255C442.854 13.8255 444.248 15.568 444.248 18.0075V18.4058H438.356C438.539 19.7168 439.468 20.5632 441.078 20.5632C442.123 20.5632 443.318 20.1483 444.032 19.584V21.2104ZM440.414 15.3522C439.451 15.3522 438.688 15.9497 438.423 17.0118H442.372C442.14 16.0492 441.46 15.3522 440.414 15.3522Z" fill="#420C02"/>
<rect x="304.723" y="1.13318" width="34.2" height="34.2" rx="17.1" fill="#D7E85E"/>
<path d="M323.001 25.304H320.639V11.4505H323.001V25.304Z" fill="black"/>
</svg>
