<svg width="595" height="394" viewBox="0 0 595 394" fill="none" xmlns="http://www.w3.org/2000/svg">
<path d="M0 273.63H289.721V380.945C289.721 388.125 283.901 393.945 276.721 393.945H13C5.82031 393.945 0 388.125 0 380.945V273.63Z" fill="#067B85"/>
<path opacity="0.5" d="M23.5113 298.745C23.5113 299.703 23.2739 300.452 22.845 300.999C22.3156 301.675 21.7679 301.885 20.5905 301.885H19.0297V295.569H20.3441C21.5306 295.569 22.2334 295.788 22.8267 296.463C23.2922 297.002 23.5113 297.759 23.5113 298.745ZM22.343 298.854C22.343 298.042 22.2699 297.394 21.9413 296.947C21.6493 296.545 21.3207 296.399 20.7548 296.399H20.0885V301.027H20.7822C21.8957 301.027 22.343 300.287 22.343 298.854ZM25.8648 301.885H24.7878V295.569H25.8648V301.885ZM31.6341 299.977C31.6341 301.027 30.7852 302.003 29.1697 302.003C28.4486 302.003 27.7185 301.812 27.0978 301.438L27.4994 300.634C28.0653 300.963 28.5673 301.155 29.2062 301.155C29.982 301.155 30.4475 300.78 30.4475 300.151C30.4475 299.685 30.1555 299.393 29.5074 299.21L28.832 299.019C28.257 298.854 27.8462 298.617 27.6089 298.261C27.4355 298.006 27.3442 297.704 27.3442 297.339C27.3442 296.226 28.2205 295.468 29.4892 295.468C30.2102 295.468 30.9313 295.678 31.488 296.071L31.0134 296.81C30.4293 296.463 30.0277 296.326 29.5257 296.326C28.905 296.326 28.4943 296.664 28.4943 297.184C28.4943 297.577 28.7133 297.777 29.334 297.96L30.0824 298.179C30.9952 298.444 31.6341 299.028 31.6341 299.977ZM37.0345 301.428C36.5417 301.803 35.9849 301.985 35.3095 301.985C34.4698 301.985 33.8035 301.666 33.3106 301.072C32.836 300.497 32.5895 299.731 32.5895 298.818C32.5895 298.06 32.7264 297.431 33.0094 296.901C33.484 295.998 34.3511 295.45 35.3369 295.45C35.9484 295.45 36.5325 295.633 36.9068 295.943L36.423 296.637C36.0853 296.39 35.7385 296.281 35.346 296.281C34.8075 296.281 34.3602 296.554 34.0864 297.038C33.8674 297.421 33.7578 297.951 33.7578 298.699C33.7578 299.475 33.84 299.913 34.0043 300.269C34.2781 300.872 34.7983 301.164 35.4099 301.164C35.8571 301.164 36.1857 301.045 36.5417 300.762L37.0345 301.428ZM44.5575 301.885H43.4075L42.8964 300.224H40.8518L40.3407 301.885H39.2546L41.3265 295.56H42.5404L44.5575 301.885ZM42.659 299.347C42.5952 299.21 41.9562 296.856 41.9106 296.609H41.9015C41.7737 297.075 41.2352 298.973 41.1074 299.347H42.659ZM48.5271 301.392C48.1073 301.812 47.6692 302.003 47.0485 302.003C45.7889 302.003 45.0861 301.118 45.0861 299.63C45.0861 297.951 46.0901 297.148 47.1215 297.148C47.6235 297.148 47.9886 297.266 48.3994 297.65L47.8974 298.316C47.6235 298.07 47.3862 297.96 47.1215 297.96C46.8021 297.96 46.5374 298.124 46.3913 298.426C46.2544 298.708 46.1997 299.137 46.1997 299.712C46.1997 300.342 46.3001 300.744 46.51 300.972C46.656 301.136 46.8751 301.237 47.1215 301.237C47.441 301.237 47.7513 301.082 48.0525 300.78L48.5271 301.392ZM52.654 301.392C52.2342 301.812 51.7961 302.003 51.1754 302.003C49.9158 302.003 49.213 301.118 49.213 299.63C49.213 297.951 50.2171 297.148 51.2484 297.148C51.7504 297.148 52.1155 297.266 52.5263 297.65L52.0243 298.316C51.7504 298.07 51.5131 297.96 51.2484 297.96C50.929 297.96 50.6643 298.124 50.5183 298.426C50.3813 298.708 50.3266 299.137 50.3266 299.712C50.3266 300.342 50.427 300.744 50.6369 300.972C50.7829 301.136 51.002 301.237 51.2484 301.237C51.5679 301.237 51.8782 301.082 52.1794 300.78L52.654 301.392ZM57.2008 299.849H54.4444V299.922C54.4444 300.561 54.6817 301.237 55.5853 301.237C56.0143 301.237 56.3885 301.082 56.7353 300.78L57.1278 301.392C56.6441 301.803 56.0873 302.003 55.4666 302.003C54.1614 302.003 53.34 301.063 53.34 299.585C53.34 298.772 53.5134 298.234 53.915 297.777C54.2892 297.348 54.7456 297.157 55.3297 297.157C55.7861 297.157 56.2059 297.275 56.5984 297.631C57 297.997 57.2008 298.562 57.2008 299.639V299.849ZM56.1603 299.11C56.1603 298.362 55.8317 297.914 55.3297 297.914C54.7638 297.914 54.4535 298.362 54.4535 299.11H56.1603ZM61.9145 301.885H60.9196V298.818C60.9196 298.188 60.7736 298.015 60.3902 298.015C60.0982 298.015 59.6783 298.234 59.3771 298.535V301.885H58.3914V298.489C58.3914 298.006 58.3457 297.723 58.2179 297.394L59.1307 297.139C59.2402 297.348 59.295 297.549 59.295 297.796C59.7878 297.376 60.2168 297.157 60.7097 297.157C61.4216 297.157 61.9145 297.586 61.9145 298.435V301.885ZM65.5715 301.803C65.2703 301.94 64.9782 302.003 64.6679 302.003C63.7734 302.003 63.4631 301.474 63.4631 300.817V297.96H62.952V297.266H63.4631C63.4631 296.874 63.4631 296.472 63.5087 296.125L64.5401 295.879C64.4945 296.253 64.458 296.81 64.458 297.266H65.5624L65.2977 297.96H64.4489V300.552C64.4489 301.127 64.5766 301.291 65.0147 301.291C65.1517 301.291 65.2703 301.264 65.4437 301.2L65.5715 301.803Z" fill="#F9F7F2"/>
<path d="M25.9939 316.24C25.9939 317.501 25.6885 318.603 25.0646 319.44C24.507 320.196 23.6838 320.701 22.8209 320.767C22.4757 320.794 22.0376 320.82 21.4933 320.82H19.2496V311.593H21.1083C21.6393 311.593 22.343 311.62 22.7147 311.647C23.498 311.713 24.1751 312.005 24.7327 312.563C25.5823 313.399 25.9939 314.581 25.9939 316.24ZM23.9095 316.413C23.9095 315.337 23.8166 314.434 23.4449 313.824C23.1395 313.319 22.7147 313.054 21.9845 313.054H21.1348V319.307H22.1305C23.3519 319.307 23.9095 318.364 23.9095 316.413ZM33.0426 317.979H29.1128V318.032C29.1128 319.081 29.6306 319.679 30.5467 319.679C31.1574 319.679 31.7282 319.453 32.2726 319.001L32.9629 320.064C32.1796 320.701 31.3565 321.006 30.4006 321.006C28.449 321.006 27.1878 319.625 27.1878 317.488C27.1878 316.267 27.4401 315.457 28.0375 314.793C28.5951 314.169 29.2722 313.877 30.1749 313.877C30.9582 313.877 31.7017 314.142 32.1398 314.594C32.7638 315.231 33.0426 316.147 33.0426 317.568V317.979ZM31.1972 316.678V316.599C31.1972 316.094 31.1441 315.828 30.9848 315.576C30.8122 315.311 30.5599 315.178 30.2015 315.178C29.5244 315.178 29.1394 315.709 29.1394 316.652V316.678H31.1972ZM40.2996 317.236C40.2996 318.696 40.0607 319.44 39.357 320.196C38.8924 320.688 38.2817 320.966 37.5382 320.966C37.0072 320.966 36.5027 320.834 36.1177 320.608C36.1442 320.767 36.1442 320.966 36.1442 321.165V323.29L34.4316 323.741V315.882C34.4316 314.992 34.4183 314.74 34.3254 314.169L35.9052 313.89C35.9716 314.129 36.0114 314.315 36.0247 314.527C36.3301 314.156 37.0072 313.89 37.6975 313.89C38.1755 313.89 38.6667 314.049 39.0384 314.302C39.7686 314.793 40.2996 315.669 40.2996 317.236ZM38.3613 317.408C38.3613 316.758 38.3082 316.24 38.1887 315.908C38.056 315.536 37.7772 315.337 37.3391 315.337C36.9009 315.337 36.4761 315.523 36.1575 315.855V319.161C36.3965 319.36 36.7815 319.559 37.1399 319.559C38.0161 319.559 38.3613 318.962 38.3613 317.408ZM45.2851 320.674C44.7674 320.887 44.3027 320.98 43.838 320.98C42.9353 320.98 42.2183 320.581 42.0059 319.984C41.8997 319.692 41.8864 319.559 41.8864 318.935V315.244H41.2094V314.023H41.8864C41.8864 313.359 41.8864 312.921 41.9528 312.417L43.7584 311.965C43.692 312.589 43.6522 313.333 43.6522 314.023H45.2453L44.7939 315.244H43.6522V318.656C43.6522 319.519 43.8115 319.745 44.4222 319.745C44.5815 319.745 44.7408 319.705 45.0594 319.612L45.2851 320.674ZM52.1832 320.82H50.444V316.253C50.444 315.576 50.2582 315.324 49.7537 315.324C49.3156 315.324 48.7447 315.59 48.3464 315.948V320.82H46.5409V312.961C46.5409 312.324 46.4878 311.686 46.4081 311.408L48.2269 310.983C48.3066 311.354 48.3464 311.992 48.3464 312.642V313.996C48.3464 314.209 48.3199 314.488 48.3199 314.567C48.7845 314.129 49.5545 313.837 50.2449 313.837C51.1079 313.837 51.7982 314.209 52.0106 314.806C52.1434 315.191 52.1832 315.417 52.1832 316.067V320.82ZM62.3369 319.891C62.3369 321.856 60.5977 323.263 58.1549 323.263C57.73 323.263 57.5707 323.25 57.1459 323.17L56.7609 321.856C57.2654 321.989 57.6238 322.042 58.0088 322.042C59.4161 322.042 60.4118 321.245 60.4118 320.103C60.4118 319.254 59.8277 318.696 58.9647 318.696C58.4204 318.696 57.8761 318.802 57.0264 319.068L57.4512 314.023H61.9784L61.7129 315.536H59.1108L58.9249 317.382C59.2037 317.329 59.3099 317.315 59.5489 317.315C61.1951 317.315 62.3369 318.378 62.3369 319.891ZM69.8607 317.422C69.8607 319.559 68.5729 320.98 66.701 320.98C64.7627 320.98 63.5545 319.586 63.5545 317.448C63.5545 315.311 64.8423 313.89 66.7142 313.89C68.6526 313.89 69.8607 315.284 69.8607 317.422ZM67.9091 317.461C67.9091 315.59 67.3913 315.191 66.7142 315.191C65.8115 315.191 65.5061 316.067 65.5061 317.408C65.5061 319.28 66.0239 319.679 66.701 319.679C67.6037 319.679 67.9091 318.802 67.9091 317.461ZM77.3674 317.422C77.3674 319.559 76.0796 320.98 74.2077 320.98C72.2694 320.98 71.0612 319.586 71.0612 317.448C71.0612 315.311 72.349 313.89 74.221 313.89C76.1593 313.89 77.3674 315.284 77.3674 317.422ZM75.4158 317.461C75.4158 315.59 74.898 315.191 74.221 315.191C73.3182 315.191 73.0128 316.067 73.0128 317.408C73.0128 319.28 73.5306 319.679 74.2077 319.679C75.1105 319.679 75.4158 318.802 75.4158 317.461Z" fill="#F9F7F2"/>
<path opacity="0.5" d="M22.1513 332.958L20.8643 333.396L21.6767 334.483L21.2294 334.829L20.408 333.707L19.6139 334.829L19.1575 334.483L19.9516 333.396L18.6646 332.958L18.8381 332.429L20.1341 332.867V331.507H20.6818V332.867L21.9779 332.429L22.1513 332.958ZM27.5335 336.162C27.5335 336.92 27.4331 337.276 27.0589 337.595C26.6755 337.924 26.1735 338.079 25.4159 338.079C24.4484 338.079 23.9008 337.796 23.5631 337.175C23.3988 336.874 23.3805 336.472 23.3805 336.199V331.708H24.1199V335.925C24.1199 336.235 24.1472 336.637 24.2294 336.828C24.348 337.102 24.6858 337.44 25.4525 337.44C25.9727 337.44 26.3652 337.303 26.5569 337.047C26.7668 336.764 26.7942 336.491 26.7942 336.071V331.708H27.5335V336.162ZM32.1519 336.618C32.1519 337.504 31.4582 338.106 30.436 338.106C29.861 338.106 29.2312 337.933 28.7657 337.65L29.0395 337.12C29.505 337.403 29.9796 337.549 30.4816 337.549C31.0384 337.549 31.4035 337.248 31.4035 336.764C31.4035 336.354 31.1753 336.126 30.655 336.016L30.0891 335.897C29.3407 335.742 28.9391 335.277 28.9391 334.647C28.9391 333.825 29.6054 333.25 30.5546 333.25C31.0293 333.25 31.5586 333.396 31.942 333.615L31.6773 334.145C31.2757 333.953 30.938 333.816 30.5364 333.816C30.0161 333.816 29.6784 334.118 29.6784 334.565C29.6784 334.912 29.8518 335.122 30.3356 335.222L30.938 335.35C31.7594 335.523 32.1519 335.943 32.1519 336.618ZM36.9113 335.815H34.0727V335.925C34.0727 336.354 34.1275 336.682 34.2826 336.92C34.5382 337.312 34.9581 337.476 35.4144 337.476C35.8525 337.476 36.2085 337.339 36.528 337.047L36.8018 337.504C36.4002 337.869 35.8525 338.07 35.2684 338.07C34.0088 338.07 33.2513 337.157 33.2513 335.651C33.2513 334.884 33.4156 334.391 33.7989 333.935C34.164 333.506 34.6112 333.305 35.1589 333.305C35.6517 333.305 36.0807 333.479 36.3911 333.798C36.7835 334.2 36.9113 334.629 36.9113 335.715V335.815ZM36.1538 335.277C36.1446 334.784 36.0807 334.483 35.9438 334.264C35.7887 334.017 35.4692 333.862 35.1224 333.862C34.4743 333.862 34.1092 334.337 34.0727 335.277H36.1538ZM41.8993 337.969H41.1691C41.1508 337.924 41.0778 337.714 41.0687 337.504C40.7401 337.878 40.3933 338.033 39.8639 338.033C38.6864 338.033 38.011 337.184 38.011 335.733C38.011 334.766 38.3305 334.054 38.9511 333.625C39.2432 333.424 39.4988 333.342 39.8274 333.342C40.3385 333.342 40.7857 333.552 41.0596 333.917C41.0596 333.844 41.0504 333.506 41.0504 333.214V331.306L41.7624 331.425V336.5C41.7624 337.285 41.7989 337.705 41.8993 337.969ZM41.0413 336.81V334.4C40.8131 334.081 40.4754 333.926 39.9369 333.926C39.5809 333.926 39.2797 334.09 39.088 334.4C38.869 334.747 38.796 335.076 38.796 335.715C38.796 336.244 38.8325 336.637 38.9785 336.901C39.1884 337.276 39.4714 337.431 39.8913 337.431C40.2655 337.431 40.4754 337.349 40.7675 337.139C40.9135 337.038 41.0139 336.874 41.0413 336.81ZM47.8228 331.626L47.5581 332.128C47.3847 332.027 47.1292 331.918 46.8827 331.918C46.4811 331.918 46.2621 332.201 46.2621 332.721V333.424H47.5216L47.3026 333.962H46.2621V337.969H45.5136V333.962H45.0755V333.424H45.5136V332.712C45.5136 332.036 45.8239 331.744 46.0156 331.598C46.2347 331.434 46.4811 331.361 46.8188 331.361C47.2113 331.361 47.5581 331.452 47.8228 331.626ZM51.8284 335.77C51.8284 337.285 51.016 338.088 49.8751 338.088C48.6247 338.088 47.9128 337.166 47.9128 335.669C47.9128 334.191 48.6521 333.287 49.8477 333.287C50.6053 333.287 51.0982 333.634 51.4085 334.081C51.6915 334.492 51.8284 335.03 51.8284 335.77ZM51.016 335.824C51.016 335.185 50.9522 334.756 50.8061 334.455C50.6144 334.054 50.2128 333.871 49.8386 333.871C49.437 333.871 49.0628 334.063 48.9076 334.364C48.7616 334.647 48.6886 335.012 48.6886 335.55C48.6886 336.189 48.7981 336.755 48.9715 337.038C49.1358 337.312 49.5009 337.495 49.8934 337.495C50.368 337.495 50.724 337.248 50.8791 336.81C50.9795 336.527 51.016 336.272 51.016 335.824ZM55.4686 333.333L55.1765 334.108C55.1309 334.09 55.0488 334.072 54.9757 334.072C54.7019 334.072 54.4281 334.191 54.2182 334.4C54.0082 334.61 53.9535 334.747 53.9535 335.122V337.969H53.2416V334.464C53.2416 333.871 53.1138 333.561 53.0864 333.497L53.7983 333.305C53.8348 333.378 53.9717 333.707 53.9444 334.044C54.2729 333.579 54.7567 333.287 55.2222 333.287C55.3317 333.287 55.4412 333.323 55.4686 333.333ZM62.6216 334.848C62.6216 335.943 62.3295 336.719 61.9097 337.184C61.362 337.796 60.8144 337.969 59.9382 337.969H58.3044V331.708H59.5548C60.5132 331.708 60.9513 331.754 61.5628 332.192C62.2748 332.703 62.6216 333.625 62.6216 334.848ZM61.8093 334.939C61.8093 333.999 61.6906 333.396 61.2708 332.894C60.86 332.411 60.4584 332.319 59.8013 332.319H59.0528V337.349H59.8013C60.4493 337.349 61.0517 337.276 61.3894 336.691C61.6724 336.208 61.8093 335.596 61.8093 334.939ZM64.8104 337.969H64.0803V331.708H64.8104V337.969ZM70.456 336.199C70.456 336.783 70.1457 337.349 69.5889 337.705C69.1782 337.969 68.7583 338.088 68.1833 338.088C67.4348 338.088 66.7959 337.905 66.1753 337.522L66.5039 336.938C67.0241 337.312 67.5535 337.476 68.1833 337.476C68.6579 337.476 68.9135 337.403 69.1782 337.203C69.4794 336.974 69.6254 336.673 69.6254 336.308C69.6254 335.751 69.2603 335.368 68.5027 335.14L67.873 334.948C67.3071 334.775 67.0059 334.647 66.7594 334.391C66.5039 334.118 66.3669 333.771 66.3669 333.369C66.3669 332.301 67.1793 331.571 68.3932 331.571C69.0686 331.571 69.6893 331.772 70.2826 332.173L69.954 332.712C69.3516 332.319 68.9682 332.183 68.4297 332.183C67.6448 332.183 67.1793 332.575 67.1793 333.214C67.1793 333.716 67.4805 333.999 68.2198 334.236L68.9409 334.464C69.4976 334.638 69.7897 334.802 70.0453 335.094C70.3008 335.386 70.456 335.806 70.456 336.199ZM75.8694 337.559C75.3674 337.887 74.7468 338.07 74.1261 338.07C73.4507 338.07 72.7844 337.787 72.3006 337.239C71.7713 336.637 71.5522 335.788 71.5522 334.857C71.5522 332.995 72.6657 331.626 74.1809 331.626C74.7833 331.626 75.3309 331.808 75.7599 332.137L75.3583 332.621C74.9841 332.347 74.6281 332.228 74.1717 332.228C73.4507 332.228 72.9304 332.602 72.6292 333.305C72.4467 333.725 72.3645 334.227 72.3645 334.966C72.3645 335.569 72.4193 335.925 72.5653 336.29C72.8848 337.075 73.5328 337.458 74.2448 337.458C74.7103 337.458 75.0662 337.339 75.4678 337.057L75.8694 337.559ZM82.5797 335.77C82.5797 337.285 81.7673 338.088 80.6264 338.088C79.376 338.088 78.664 337.166 78.664 335.669C78.664 334.191 79.4033 333.287 80.599 333.287C81.3566 333.287 81.8495 333.634 82.1598 334.081C82.4427 334.492 82.5797 335.03 82.5797 335.77ZM81.7673 335.824C81.7673 335.185 81.7034 334.756 81.5574 334.455C81.3657 334.054 80.9641 333.871 80.5899 333.871C80.1883 333.871 79.8141 334.063 79.6589 334.364C79.5129 334.647 79.4399 335.012 79.4399 335.55C79.4399 336.189 79.5494 336.755 79.7228 337.038C79.8871 337.312 80.2522 337.495 80.6447 337.495C81.1193 337.495 81.4752 337.248 81.6304 336.81C81.7308 336.527 81.7673 336.272 81.7673 335.824ZM87.3334 337.969H86.6124V334.893C86.6124 334.41 86.5759 334.291 86.4481 334.136C86.3477 334.017 86.156 333.944 85.9461 333.944C85.581 333.944 85.0151 334.236 84.6865 334.583V337.969H83.9928V334.464C83.9928 333.889 83.8559 333.57 83.8194 333.506L84.5131 333.314C84.5496 333.378 84.6774 333.698 84.6774 334.026C85.152 333.552 85.6266 333.323 86.1104 333.323C86.6032 333.323 87.0414 333.588 87.2239 333.99C87.2969 334.154 87.3334 334.337 87.3334 334.519V337.969ZM90.1894 337.96C90.0068 338.042 89.9247 338.061 89.733 338.061C89.5139 338.061 89.3314 337.997 89.1945 337.869C89.0484 337.741 88.9754 337.549 88.9754 337.221V332.402C88.9754 331.872 88.8842 331.534 88.8659 331.471L89.5778 331.334C89.6052 331.407 89.6965 331.79 89.6965 332.411V337.057C89.6965 337.412 89.7513 337.513 89.9521 337.513C89.9703 337.513 90.0068 337.504 90.0433 337.495L90.1894 337.96ZM94.6121 333.424L93.0513 338.134C92.7501 339.046 92.3759 339.649 91.5818 339.84L91.3718 339.357C91.956 339.174 92.1751 338.882 92.4215 337.96L92.1294 338.006C92.0747 337.714 91.8282 336.828 91.6731 336.372L90.6964 333.524L91.3992 333.287L92.3302 336.235C92.4489 336.618 92.5767 337.23 92.604 337.367H92.6223C92.7136 337.047 92.814 336.728 92.9052 336.408L93.7997 333.424H94.6121Z" fill="#F9F7F2"/>
<path d="M21.6094 370.004C20.1458 370.004 18.7518 368.879 18.7518 366.44C18.7518 364 20.1458 362.875 21.6094 362.875C23.0831 362.875 24.4771 364 24.4771 366.44C24.4771 368.879 23.0831 370.004 21.6094 370.004ZM21.6094 368.979C22.5852 368.979 23.342 368.132 23.342 366.44C23.342 364.747 22.5852 363.901 21.6094 363.901C20.6337 363.901 19.8869 364.747 19.8869 366.44C19.8869 368.132 20.6337 368.979 21.6094 368.979ZM31.8135 367.625C31.8135 368.999 30.7282 370.004 29.2545 370.004C27.5718 370.004 26.4666 368.65 26.4666 366.589C26.4666 364.399 27.761 362.875 29.6329 362.875C30.2901 362.875 30.9174 363.034 31.3655 363.313V364.458C30.8676 364.1 30.2702 363.901 29.7026 363.901C28.5277 363.901 27.751 364.767 27.6216 366.171C28.0796 365.683 28.7368 365.404 29.4636 365.404C30.8278 365.404 31.8135 366.33 31.8135 367.625ZM29.2645 366.32C28.6073 366.32 28 366.639 27.6315 367.157C27.7809 368.342 28.3883 369.058 29.2844 369.058C30.1009 369.058 30.6983 368.481 30.6983 367.694C30.6983 366.888 30.1109 366.32 29.2645 366.32ZM33.3127 363.931V362.935H38.2912V363.751C37.6341 365.773 36.25 368.312 34.7963 369.905H33.472C35.324 367.784 36.3795 365.842 37.1063 363.931H33.3127ZM40.3974 369.905V362.935H42.9365C44.2807 362.935 45.0075 363.711 45.0075 364.727C45.0075 365.354 44.6491 365.872 44.0616 366.161C44.898 366.42 45.4257 367.067 45.4257 367.883C45.4257 369.048 44.5893 369.905 43.1754 369.905H40.3974ZM42.7771 363.95H41.5823V365.822H42.7871C43.504 365.822 43.8425 365.434 43.8425 364.886C43.8425 364.349 43.4841 363.95 42.7771 363.95ZM43.046 366.768H41.5823V368.929H43.0559C43.8226 368.929 44.2309 368.481 44.2309 367.844C44.2309 367.216 43.7928 366.768 43.046 366.768ZM52.523 367.923C52.523 369.168 51.4775 370.004 49.9242 370.004C48.3908 370.004 47.3453 369.218 47.3453 368.063C47.3453 367.306 47.7337 366.778 48.6398 366.35C47.9826 366.002 47.6341 365.494 47.6341 364.847C47.6341 363.692 48.59 362.875 49.9441 362.875C51.2983 362.875 52.2343 363.632 52.2343 364.717C52.2343 365.325 51.8758 365.812 51.1689 366.181C52.0451 366.579 52.523 367.206 52.523 367.923ZM49.6753 365.673L50.1831 365.832C50.8403 365.603 51.1788 365.255 51.1788 364.807C51.1788 364.199 50.671 363.781 49.9342 363.781C49.1974 363.781 48.6896 364.16 48.6896 364.707C48.6896 365.155 48.9883 365.454 49.6753 365.673ZM48.4605 367.963C48.4605 368.64 49.038 369.078 49.9342 369.078C50.8303 369.078 51.4078 368.65 51.4078 367.983C51.4078 367.505 51.0394 367.147 50.3225 366.928L49.506 366.679C48.819 366.948 48.4605 367.386 48.4605 367.963ZM54.4388 366.679L54.7972 362.935H58.6207V363.901H55.7431L55.5838 365.524C55.8726 365.484 56.1613 365.464 56.3804 365.464C58.0532 365.464 59.0589 366.3 59.0589 367.645C59.0589 368.869 58.0631 370.004 56.1813 370.004C55.5141 370.004 54.9466 369.875 54.379 369.616V368.561C54.8968 368.869 55.544 369.039 56.1713 369.039C57.3462 369.039 57.9138 368.431 57.9138 367.734C57.9138 367.007 57.3761 366.46 56.1414 366.46C55.7929 366.46 54.9665 366.529 54.4388 366.679Z" fill="#F9F7F2"/>
<path d="M0 62.5941C0 55.4144 5.8203 49.5941 13 49.5941H276.721C283.901 49.5941 289.721 55.4144 289.721 62.5941V265.331H0V62.5941Z" fill="#053F44"/>
<path opacity="0.5" d="M23.5113 74.709C23.5113 75.6673 23.2739 76.4158 22.845 76.9634C22.3156 77.6388 21.7679 77.8488 20.5905 77.8488H19.0297V71.5326H20.3441C21.5306 71.5326 22.2334 71.7517 22.8267 72.4271C23.2922 72.9656 23.5113 73.7232 23.5113 74.709ZM22.343 74.8185C22.343 74.0061 22.2699 73.3581 21.9413 72.9109C21.6493 72.5093 21.3207 72.3632 20.7548 72.3632H20.0885V76.9908H20.7822C21.8957 76.9908 22.343 76.2515 22.343 74.8185ZM25.8648 77.8488H24.7878V71.5326H25.8648V77.8488ZM31.6341 75.9411C31.6341 76.9908 30.7852 77.9674 29.1697 77.9674C28.4486 77.9674 27.7185 77.7757 27.0978 77.4015L27.4994 76.5983C28.0653 76.9269 28.5673 77.1186 29.2062 77.1186C29.982 77.1186 30.4475 76.7443 30.4475 76.1146C30.4475 75.6491 30.1555 75.357 29.5074 75.1744L28.832 74.9828C28.257 74.8185 27.8462 74.5812 27.6089 74.2252C27.4355 73.9696 27.3442 73.6684 27.3442 73.3033C27.3442 72.1898 28.2205 71.4322 29.4892 71.4322C30.2102 71.4322 30.9313 71.6422 31.488 72.0346L31.0134 72.774C30.4293 72.4271 30.0277 72.2902 29.5257 72.2902C28.905 72.2902 28.4943 72.6279 28.4943 73.1482C28.4943 73.5407 28.7133 73.7415 29.334 73.924L30.0824 74.1431C30.9952 74.4077 31.6341 74.9919 31.6341 75.9411ZM37.0345 77.3924C36.5417 77.7666 35.9849 77.9492 35.3095 77.9492C34.4698 77.9492 33.8035 77.6297 33.3106 77.0364C32.836 76.4614 32.5895 75.6947 32.5895 74.782C32.5895 74.0244 32.7264 73.3946 33.0094 72.8652C33.484 71.9616 34.3511 71.414 35.3369 71.414C35.9484 71.414 36.5325 71.5965 36.9068 71.9069L36.423 72.6005C36.0853 72.3541 35.7385 72.2446 35.346 72.2446C34.8075 72.2446 34.3602 72.5184 34.0864 73.0021C33.8674 73.3855 33.7578 73.9149 33.7578 74.6633C33.7578 75.4391 33.84 75.8773 34.0043 76.2332C34.2781 76.8356 34.7983 77.1277 35.4099 77.1277C35.8571 77.1277 36.1857 77.009 36.5417 76.7261L37.0345 77.3924ZM44.1559 73.422C44.1559 74.6633 43.2523 75.4391 42.1114 75.4391H41.0435V77.8488H40.003V71.5326H41.6824C42.6043 71.5326 42.942 71.6239 43.2888 71.8338C43.8456 72.1624 44.1559 72.7283 44.1559 73.422ZM42.9968 73.4859C42.9968 73.139 42.9146 72.8744 42.7412 72.6918C42.5495 72.491 42.2757 72.3815 41.865 72.3815H41.0435V74.5994H41.865C42.6408 74.5994 42.9968 74.2343 42.9968 73.4859ZM47.6282 73.1756L47.3179 74.1065C47.2175 74.07 47.1445 74.0427 47.035 74.0427C46.6151 74.0427 46.2591 74.353 46.1679 74.7272V77.8488H45.1639V74.5903C45.1639 74.0061 45.1 73.6319 44.9996 73.349L45.9214 73.1117C46.031 73.3216 46.0948 73.5863 46.0948 73.8419C46.4599 73.3399 46.825 73.1025 47.2723 73.1025C47.4183 73.1025 47.5096 73.1208 47.6282 73.1756ZM49.3145 77.8488H48.3014V73.3033L49.3145 73.1208V77.8488ZM49.4788 71.8795C49.4788 72.2446 49.1776 72.5458 48.8034 72.5458C48.4383 72.5458 48.1553 72.2446 48.1553 71.8795C48.1553 71.5053 48.4474 71.2041 48.8216 71.2041C49.1776 71.2041 49.4788 71.4961 49.4788 71.8795ZM56.6917 77.8488H55.7059V74.6542C55.7059 74.1157 55.5873 73.9605 55.2313 73.9605C54.8936 73.9605 54.5741 74.1887 54.2547 74.4899V77.8488H53.2963V74.6816C53.2963 74.1431 53.1777 73.9696 52.7943 73.9696C52.5114 73.9696 52.1828 74.1157 51.8451 74.426V77.8488H50.8684V74.5355C50.8684 73.9605 50.8137 73.6137 50.7042 73.3672L51.6169 73.1117C51.7082 73.2577 51.7629 73.4494 51.7812 73.7049C52.1463 73.3307 52.5753 73.1208 53.0042 73.1208C53.415 73.1208 53.7709 73.2577 54.1086 73.7962C54.5559 73.3399 54.994 73.1208 55.4869 73.1208C56.2444 73.1208 56.6917 73.5133 56.6917 74.4716V77.8488ZM61.7834 77.4015L61.2631 78.0404C60.9802 77.9309 60.7429 77.7118 60.6333 77.4198C60.2591 77.8396 59.8575 77.9857 59.3646 77.9857C58.3059 77.9857 57.8312 77.4015 57.8312 76.5983C57.8312 75.5304 58.6345 74.9919 60.1131 74.9919H60.4234V74.7455C60.4234 74.2161 60.3321 73.9331 59.7845 73.9331C59.1912 73.9331 58.5523 74.353 58.4063 74.4625L57.959 73.7415C58.6527 73.3033 59.2277 73.1117 59.9214 73.1117C60.6425 73.1117 61.1262 73.3764 61.327 73.8784C61.4092 74.0792 61.4092 74.3256 61.4 75.0102L61.3818 76.3336C61.3727 76.9543 61.4274 77.1551 61.7834 77.4015ZM60.4052 75.6764C60.3869 75.6764 60.2865 75.6673 60.2226 75.6673C59.2186 75.6673 58.9174 75.9594 58.9174 76.5435C58.9174 76.9817 59.1547 77.2555 59.5563 77.2555C59.8758 77.2555 60.1861 77.0638 60.3869 76.7717L60.4052 75.6764ZM65.4105 73.1756L65.1002 74.1065C64.9998 74.07 64.9268 74.0427 64.8172 74.0427C64.3974 74.0427 64.0414 74.353 63.9501 74.7272V77.8488H62.9461V74.5903C62.9461 74.0061 62.8822 73.6319 62.7818 73.349L63.7037 73.1117C63.8132 73.3216 63.8771 73.5863 63.8771 73.8419C64.2422 73.3399 64.6073 73.1025 65.0545 73.1025C65.2006 73.1025 65.2918 73.1208 65.4105 73.1756ZM69.9659 73.2303L68.3321 77.9492C67.9488 79.0627 67.6202 79.6195 66.534 79.8203L66.2054 79.1722C66.8352 78.9988 67.1912 78.7341 67.4559 77.8488H67.1364C67.0086 77.3285 66.8352 76.8265 66.6983 76.4158L65.6487 73.3033L66.6709 73.1299L67.5198 75.9411C67.6019 76.215 67.7571 76.9086 67.7753 76.9817C67.7845 76.9451 67.9488 76.288 68.1222 75.7312L68.8889 73.2303H69.9659Z" fill="#F9F7F2"/>
<path d="M25.9939 92.2042C25.9939 93.4654 25.6885 94.5673 25.0646 95.4037C24.507 96.1604 23.6838 96.6649 22.8209 96.7313C22.4757 96.7579 22.0376 96.7844 21.4933 96.7844H19.2496V87.5575H21.1083C21.6393 87.5575 22.343 87.5841 22.7147 87.6106C23.498 87.677 24.1751 87.9691 24.7327 88.5267C25.5823 89.3631 25.9939 90.5446 25.9939 92.2042ZM23.9095 92.3768C23.9095 91.3014 23.8166 90.3986 23.4449 89.7879C23.1395 89.2834 22.7147 89.0179 21.9845 89.0179H21.1348V95.2709H22.1305C23.3519 95.2709 23.9095 94.3283 23.9095 92.3768ZM33.0426 93.9433H29.1128V93.9964C29.1128 95.0453 29.6306 95.6427 30.5467 95.6427C31.1574 95.6427 31.7282 95.417 32.2726 94.9656L32.9629 96.0277C32.1796 96.6649 31.3565 96.9703 30.4006 96.9703C28.449 96.9703 27.1878 95.5896 27.1878 93.4521C27.1878 92.2307 27.4401 91.4209 28.0375 90.7571C28.5951 90.1331 29.2722 89.841 30.1749 89.841C30.9582 89.841 31.7017 90.1065 32.1398 90.5579C32.7638 91.1952 33.0426 92.1112 33.0426 93.5318V93.9433ZM31.1972 92.6423V92.5626C31.1972 92.0581 31.1441 91.7926 30.9848 91.5404C30.8122 91.2748 30.5599 91.1421 30.2015 91.1421C29.5244 91.1421 29.1394 91.6731 29.1394 92.6157V92.6423H31.1972ZM40.2996 93.1999C40.2996 94.6602 40.0607 95.4037 39.357 96.1604C38.8924 96.6517 38.2817 96.9305 37.5382 96.9305C37.0072 96.9305 36.5027 96.7977 36.1177 96.572C36.1442 96.7313 36.1442 96.9305 36.1442 97.1296V99.2538L34.4316 99.7052V91.8457C34.4316 90.9562 34.4183 90.704 34.3254 90.1331L35.9052 89.8543C35.9716 90.0933 36.0114 90.2791 36.0247 90.4915C36.3301 90.1198 37.0072 89.8543 37.6975 89.8543C38.1755 89.8543 38.6667 90.0136 39.0384 90.2658C39.7686 90.7571 40.2996 91.6333 40.2996 93.1999ZM38.3613 93.3725C38.3613 92.7219 38.3082 92.2042 38.1887 91.8723C38.056 91.5005 37.7772 91.3014 37.3391 91.3014C36.9009 91.3014 36.4761 91.4873 36.1575 91.8192V95.1249C36.3965 95.3241 36.7815 95.5232 37.1399 95.5232C38.0161 95.5232 38.3613 94.9258 38.3613 93.3725ZM45.2851 96.6384C44.7674 96.8508 44.3027 96.9437 43.838 96.9437C42.9353 96.9437 42.2183 96.5455 42.0059 95.948C41.8997 95.656 41.8864 95.5232 41.8864 94.8992V91.2085H41.2094V89.987H41.8864C41.8864 89.3232 41.8864 88.8851 41.9528 88.3806L43.7584 87.9292C43.692 88.5532 43.6522 89.2967 43.6522 89.987H45.2453L44.7939 91.2085H43.6522V94.6204C43.6522 95.4834 43.8115 95.7091 44.4222 95.7091C44.5815 95.7091 44.7408 95.6692 45.0594 95.5763L45.2851 96.6384ZM52.1832 96.7844H50.444V92.2174C50.444 91.5404 50.2582 91.2881 49.7537 91.2881C49.3156 91.2881 48.7447 91.5536 48.3464 91.9121V96.7844H46.5409V88.925C46.5409 88.2877 46.4878 87.6505 46.4081 87.3717L48.2269 86.9468C48.3066 87.3185 48.3464 87.9558 48.3464 88.6063V89.9605C48.3464 90.1729 48.3199 90.4517 48.3199 90.5314C48.7845 90.0933 49.5545 89.8012 50.2449 89.8012C51.1079 89.8012 51.7982 90.1729 52.0106 90.7703C52.1434 91.1553 52.1832 91.381 52.1832 92.0316V96.7844Z" fill="#F9F7F2"/>
<path d="M21.6094 241.033C20.1458 241.033 18.7518 239.908 18.7518 237.468C18.7518 235.029 20.1458 233.903 21.6094 233.903C23.0831 233.903 24.4771 235.029 24.4771 237.468C24.4771 239.908 23.0831 241.033 21.6094 241.033ZM21.6094 240.007C22.5852 240.007 23.342 239.161 23.342 237.468C23.342 235.775 22.5852 234.929 21.6094 234.929C20.6337 234.929 19.8869 235.775 19.8869 237.468C19.8869 239.161 20.6337 240.007 21.6094 240.007ZM26.5064 237.707L26.8648 233.963H30.6884V234.929H27.8108L27.6515 236.552C27.9402 236.512 28.229 236.492 28.448 236.492C30.1208 236.492 31.1265 237.329 31.1265 238.673C31.1265 239.898 30.1308 241.033 28.2489 241.033C27.5818 241.033 27.0142 240.903 26.4466 240.644V239.589C26.9644 239.898 27.6116 240.067 28.2389 240.067C29.4139 240.067 29.9814 239.459 29.9814 238.762C29.9814 238.036 29.4437 237.488 28.2091 237.488C27.8606 237.488 27.0341 237.558 26.5064 237.707ZM37.5066 238.872C37.5066 239.917 36.6403 241.033 34.6887 241.033C34.0216 241.033 33.4441 240.893 32.8865 240.634V239.589C33.4042 239.898 34.0515 240.067 34.6788 240.067C35.8139 240.067 36.3515 239.509 36.3515 238.862C36.3515 238.245 35.8338 237.787 34.8779 237.787H33.8623V236.821H34.619C35.5749 236.821 36.0429 236.363 36.0429 235.815C36.0429 235.287 35.5848 234.869 34.6688 234.869C33.922 234.869 33.3047 235.138 32.8865 235.387V234.371C33.3545 234.063 34.0515 233.864 34.7982 233.864C36.5208 233.864 37.1979 234.79 37.1979 235.656C37.1979 236.273 36.7697 236.881 36.0628 237.209C36.9191 237.408 37.5066 238.056 37.5066 238.872ZM39.8334 240.933V233.963H44.2544V235.009H41.0283V236.94H43.9059V237.986H41.0283V240.933H39.8334ZM51.7829 239.33H50.8669V240.933H49.7616V239.33H46.1174V238.514L49.7417 233.963H50.8669V238.364H51.7829V239.33ZM47.5113 238.364H49.7616V235.477L47.5113 238.364ZM58.9727 239.33H58.0566V240.933H56.9514V239.33H53.3071V238.514L56.9315 233.963H58.0566V238.364H58.9727V239.33ZM54.7011 238.364H56.9514V235.477L54.7011 238.364Z" fill="#F9F7F2"/>
<path d="M56.8337 20.1606V18.136C58.3605 19.1815 59.4392 19.4636 60.4349 19.4636C61.6795 19.4636 62.4263 18.8993 62.4263 18.0032C62.4263 17.3228 61.9617 16.8249 60.8166 16.2773L58.8086 15.2982C57.3648 14.5846 56.7176 13.6055 56.7176 12.394C56.7176 10.6017 58.095 9.17451 60.5179 9.17451C61.8787 9.17451 62.9408 9.55621 63.6544 10.0209V12.1285C62.3433 11.1162 61.3144 10.8009 60.3851 10.8009C59.2898 10.8009 58.6094 11.4149 58.6094 12.1617C58.6094 12.7757 59.0409 13.2735 60.103 13.788L61.9451 14.6841C63.5714 15.4807 64.3514 16.4432 64.3514 17.8206C64.3514 19.7457 62.808 21.1231 60.4681 21.1231C59.1073 21.1231 57.8128 20.7746 56.8337 20.1606ZM71.4899 20.6087C70.8759 20.8908 70.1623 21.0401 69.3989 21.0401C67.7062 21.0401 66.8433 20.1772 66.8433 18.584V14.485H65.3663V12.9914H66.8433V11.1825L68.7019 10.9336V12.9914H71.4567V14.485H68.7019V18.2189C68.7019 18.9989 69.0338 19.4304 69.8636 19.4304C70.461 19.4304 71.0419 19.2644 71.4899 19.0819V20.6087ZM79.6539 21.0401C78.4756 21.0401 77.8782 20.5257 77.7786 19.6793C77.0816 20.6087 76.0527 21.0899 74.9242 21.0899C73.4141 21.0899 72.5511 20.2436 72.5511 18.9657C72.5511 17.7377 73.3311 16.9245 75.3723 16.4101L77.7122 15.8126C77.6293 14.8169 77.065 14.4518 76.0361 14.4352C75.14 14.4186 74.2604 14.7505 73.3145 15.4309V13.6884C74.1775 13.1408 75.1234 12.8255 76.2685 12.8255C78.4922 12.8255 79.5875 13.8378 79.5875 15.879V19.1649C79.5875 19.4968 79.8198 19.6627 80.1683 19.6627C80.4339 19.6627 80.5666 19.6295 80.799 19.5466V20.841C80.4505 20.9903 80.0522 21.0401 79.6539 21.0401ZM74.4098 18.8496C74.4098 19.281 74.7417 19.6295 75.4885 19.6295C76.3846 19.6295 77.2476 19.0819 77.7288 18.3517V17.1402L75.9697 17.6049C74.7417 17.9368 74.4098 18.3019 74.4098 18.8496ZM90.7683 16.9743C90.7683 19.364 88.976 21.1231 86.7689 21.1231C85.7731 21.1231 84.9102 20.8244 84.2464 20.227V20.9572H82.3877V9.09154L84.2796 8.84261V13.8876C84.9434 13.174 85.8561 12.8255 86.9182 12.8255C89.0424 12.8255 90.7683 14.5182 90.7683 16.9743ZM86.3872 14.4186C85.4578 14.4186 84.7276 14.8169 84.2796 15.4475V18.4679C84.711 19.1317 85.4578 19.5632 86.4204 19.5632C87.8641 19.5632 88.8765 18.4845 88.8765 16.9743C88.8765 15.4973 87.8144 14.4186 86.3872 14.4186ZM92.6787 20.9572V9.09154L94.5706 8.84261V20.9572H92.6787ZM104.041 20.2104C103.361 20.7248 102.182 21.1231 100.954 21.1231C98.3488 21.1231 96.4902 19.447 96.4902 16.9743C96.4902 14.5182 98.3488 12.8255 100.423 12.8255C102.863 12.8255 104.257 14.568 104.257 17.0075V17.4058H98.3654C98.548 18.7168 99.4773 19.5632 101.087 19.5632C102.133 19.5632 103.327 19.1483 104.041 18.584V20.2104ZM100.423 14.3522C99.4607 14.3522 98.6973 14.9497 98.4318 16.0118H102.381C102.149 15.0492 101.469 14.3522 100.423 14.3522Z" fill="#420C02"/>
<rect y="0.133179" width="34.2" height="34.2" rx="17.1" fill="#053F44"/>
<path d="M22.0764 20.1199C22.0764 22.4221 20.2146 24.5642 16.6712 24.5642C15.0896 24.5642 13.4881 24.1438 12.1267 23.323L13.0076 21.5613C14.2488 22.282 15.3499 22.7024 16.7512 22.7024C18.4529 22.7024 19.4739 21.8816 19.4739 20.5002C19.4739 19.4793 18.8333 18.8386 17.4119 18.4382L15.9304 18.0178C14.6692 17.6575 13.7683 17.137 13.2478 16.3562C12.8675 15.7957 12.6673 15.135 12.6673 14.3342C12.6673 11.8919 14.5891 10.2302 17.3718 10.2302C18.9534 10.2302 20.5349 10.6907 21.7561 11.5515L20.7151 13.1731C19.4339 12.4124 18.553 12.1121 17.4519 12.1121C16.0906 12.1121 15.1897 12.8528 15.1897 13.9939C15.1897 14.8547 15.6702 15.2952 17.0315 15.6956L18.6731 16.176C20.6751 16.7566 22.0764 18.0378 22.0764 20.1199Z" fill="white"/>
<path d="M304.723 273.63H594.444V380.945C594.444 388.125 588.623 393.945 581.444 393.945H317.723C310.543 393.945 304.723 388.125 304.723 380.945V273.63Z" fill="#C9CDFD"/>
<path opacity="0.5" d="M328.234 298.745C328.234 299.703 327.997 300.452 327.568 300.999C327.038 301.675 326.491 301.885 325.313 301.885H323.752V295.569H325.067C326.253 295.569 326.956 295.788 327.549 296.463C328.015 297.002 328.234 297.759 328.234 298.745ZM327.066 298.854C327.066 298.042 326.993 297.394 326.664 296.947C326.372 296.545 326.043 296.399 325.477 296.399H324.811V301.027H325.505C326.618 301.027 327.066 300.287 327.066 298.854ZM330.587 301.885H329.51V295.569H330.587V301.885ZM336.357 299.977C336.357 301.027 335.508 302.003 333.892 302.003C333.171 302.003 332.441 301.812 331.82 301.438L332.222 300.634C332.788 300.963 333.29 301.155 333.929 301.155C334.705 301.155 335.17 300.78 335.17 300.151C335.17 299.685 334.878 299.393 334.23 299.21L333.555 299.019C332.98 298.854 332.569 298.617 332.332 298.261C332.158 298.006 332.067 297.704 332.067 297.339C332.067 296.226 332.943 295.468 334.212 295.468C334.933 295.468 335.654 295.678 336.211 296.071L335.736 296.81C335.152 296.463 334.75 296.326 334.248 296.326C333.628 296.326 333.217 296.664 333.217 297.184C333.217 297.577 333.436 297.777 334.057 297.96L334.805 298.179C335.718 298.444 336.357 299.028 336.357 299.977ZM341.757 301.428C341.264 301.803 340.708 301.985 340.032 301.985C339.192 301.985 338.526 301.666 338.033 301.072C337.559 300.497 337.312 299.731 337.312 298.818C337.312 298.06 337.449 297.431 337.732 296.901C338.207 295.998 339.074 295.45 340.06 295.45C340.671 295.45 341.255 295.633 341.629 295.943L341.146 296.637C340.808 296.39 340.461 296.281 340.069 296.281C339.53 296.281 339.083 296.554 338.809 297.038C338.59 297.421 338.48 297.951 338.48 298.699C338.48 299.475 338.563 299.913 338.727 300.269C339.001 300.872 339.521 301.164 340.133 301.164C340.58 301.164 340.908 301.045 341.264 300.762L341.757 301.428ZM349.28 301.885H348.13L347.619 300.224H345.574L345.063 301.885H343.977L346.049 295.56H347.263L349.28 301.885ZM347.382 299.347C347.318 299.21 346.679 296.856 346.633 296.609H346.624C346.496 297.075 345.958 298.973 345.83 299.347H347.382ZM353.25 301.392C352.83 301.812 352.392 302.003 351.771 302.003C350.512 302.003 349.809 301.118 349.809 299.63C349.809 297.951 350.813 297.148 351.844 297.148C352.346 297.148 352.711 297.266 353.122 297.65L352.62 298.316C352.346 298.07 352.109 297.96 351.844 297.96C351.525 297.96 351.26 298.124 351.114 298.426C350.977 298.708 350.922 299.137 350.922 299.712C350.922 300.342 351.023 300.744 351.233 300.972C351.379 301.136 351.598 301.237 351.844 301.237C352.164 301.237 352.474 301.082 352.775 300.78L353.25 301.392ZM357.377 301.392C356.957 301.812 356.519 302.003 355.898 302.003C354.639 302.003 353.936 301.118 353.936 299.63C353.936 297.951 354.94 297.148 355.971 297.148C356.473 297.148 356.838 297.266 357.249 297.65L356.747 298.316C356.473 298.07 356.236 297.96 355.971 297.96C355.652 297.96 355.387 298.124 355.241 298.426C355.104 298.708 355.049 299.137 355.049 299.712C355.049 300.342 355.15 300.744 355.36 300.972C355.506 301.136 355.725 301.237 355.971 301.237C356.291 301.237 356.601 301.082 356.902 300.78L357.377 301.392ZM361.923 299.849H359.167V299.922C359.167 300.561 359.404 301.237 360.308 301.237C360.737 301.237 361.111 301.082 361.458 300.78L361.85 301.392C361.367 301.803 360.81 302.003 360.189 302.003C358.884 302.003 358.063 301.063 358.063 299.585C358.063 298.772 358.236 298.234 358.638 297.777C359.012 297.348 359.468 297.157 360.052 297.157C360.509 297.157 360.929 297.275 361.321 297.631C361.723 297.997 361.923 298.562 361.923 299.639V299.849ZM360.883 299.11C360.883 298.362 360.554 297.914 360.052 297.914C359.486 297.914 359.176 298.362 359.176 299.11H360.883ZM366.637 301.885H365.642V298.818C365.642 298.188 365.496 298.015 365.113 298.015C364.821 298.015 364.401 298.234 364.1 298.535V301.885H363.114V298.489C363.114 298.006 363.068 297.723 362.941 297.394L363.853 297.139C363.963 297.348 364.018 297.549 364.018 297.796C364.511 297.376 364.939 297.157 365.432 297.157C366.144 297.157 366.637 297.586 366.637 298.435V301.885ZM370.294 301.803C369.993 301.94 369.701 302.003 369.391 302.003C368.496 302.003 368.186 301.474 368.186 300.817V297.96H367.675V297.266H368.186C368.186 296.874 368.186 296.472 368.231 296.125L369.263 295.879C369.217 296.253 369.181 296.81 369.181 297.266H370.285L370.02 297.96H369.172V300.552C369.172 301.127 369.299 301.291 369.737 301.291C369.874 301.291 369.993 301.264 370.166 301.2L370.294 301.803Z" fill="#420C02"/>
<path d="M330.292 314.434C330.292 315.656 329.708 316.638 328.699 317.116C328.274 317.315 327.875 317.422 326.853 317.422H325.831V320.82H323.972V311.593H326.402C327.968 311.593 328.446 311.753 328.964 312.045C329.827 312.523 330.292 313.372 330.292 314.434ZM328.26 314.474C328.26 313.611 327.796 313.094 327.013 313.094H325.831V315.908H326.8C327.557 315.908 327.783 315.815 328.035 315.43C328.194 315.178 328.26 314.912 328.26 314.474ZM336.948 317.979H333.019V318.032C333.019 319.081 333.536 319.679 334.453 319.679C335.063 319.679 335.634 319.453 336.178 319.001L336.869 320.064C336.085 320.701 335.262 321.006 334.306 321.006C332.355 321.006 331.094 319.625 331.094 317.488C331.094 316.267 331.346 315.457 331.943 314.793C332.501 314.169 333.178 313.877 334.081 313.877C334.864 313.877 335.608 314.142 336.046 314.594C336.67 315.231 336.948 316.147 336.948 317.568V317.979ZM335.103 316.678V316.599C335.103 316.094 335.05 315.828 334.891 315.576C334.718 315.311 334.466 315.178 334.107 315.178C333.43 315.178 333.045 315.709 333.045 316.652V316.678H335.103ZM342.214 314.01L341.723 315.576C341.55 315.483 341.404 315.443 341.205 315.443C340.807 315.443 340.448 315.629 340.116 316.014V320.82H338.337V316.28C338.337 315.364 338.231 314.673 338.085 314.288L339.678 313.864C339.838 314.142 339.931 314.448 339.957 314.833C340.342 314.315 340.886 313.864 341.55 313.864C341.816 313.864 341.935 313.89 342.214 314.01ZM344.758 320.82H342.979V314.142L344.758 313.864V320.82ZM344.97 312.151C344.97 312.762 344.479 313.253 343.868 313.253C343.271 313.253 342.78 312.762 342.78 312.151C342.78 311.54 343.284 311.049 343.895 311.049C344.492 311.049 344.97 311.54 344.97 312.151ZM355.102 314.023L353.164 320.82H351.531L350.92 318.484C350.774 317.939 350.615 317.289 350.535 316.837L350.429 316.16C350.389 316.452 350.376 316.545 350.27 317.037C350.137 317.621 349.845 318.789 349.686 319.426L349.341 320.82H347.681L345.822 314.142L347.588 313.943L348.146 316.559C348.305 317.262 348.491 318.404 348.531 318.67C348.61 318.152 348.81 317.063 349.022 316.306L349.659 314.023H351.332L351.876 316.267C352.142 317.395 352.341 318.444 352.381 318.67C352.421 318.378 352.567 317.315 352.753 316.452L353.27 314.023H355.102ZM357.814 320.82H356.035V314.142L357.814 313.864V320.82ZM358.026 312.151C358.026 312.762 357.535 313.253 356.924 313.253C356.327 313.253 355.835 312.762 355.835 312.151C355.835 311.54 356.34 311.049 356.951 311.049C357.548 311.049 358.026 311.54 358.026 312.151ZM364.706 319.586L364.281 320.82H359.276V319.718L362.476 315.271H359.542V314.023H364.587V315.244L361.586 319.586H364.706ZM371.487 317.979H367.557V318.032C367.557 319.081 368.075 319.679 368.991 319.679C369.602 319.679 370.173 319.453 370.717 319.001L371.407 320.064C370.624 320.701 369.801 321.006 368.845 321.006C366.894 321.006 365.632 319.625 365.632 317.488C365.632 316.267 365.885 315.457 366.482 314.793C367.04 314.169 367.717 313.877 368.619 313.877C369.403 313.877 370.146 314.142 370.584 314.594C371.208 315.231 371.487 316.147 371.487 317.568V317.979ZM369.642 316.678V316.599C369.642 316.094 369.589 315.828 369.429 315.576C369.257 315.311 369.004 315.178 368.646 315.178C367.969 315.178 367.584 315.709 367.584 316.652V316.678H369.642Z" fill="#420C02"/>
<path d="M327.248 370.069C325.058 370.069 323.514 368.575 323.514 366.484C323.514 364.403 325.097 362.9 327.288 362.9C328.393 362.9 329.269 363.278 329.767 363.716V365.08C329.04 364.343 328.224 363.975 327.308 363.975C325.685 363.975 324.719 365.13 324.719 366.484C324.719 367.848 325.685 369.013 327.308 369.013C328.294 369.013 329.18 368.585 329.767 367.928V369.222C329.18 369.74 328.274 370.069 327.248 370.069ZM331.733 365.319C331.733 363.945 332.818 362.94 334.292 362.94C335.974 362.94 337.08 364.294 337.08 366.355C337.08 368.545 335.785 370.069 333.913 370.069C333.256 370.069 332.629 369.909 332.181 369.631V368.486C332.679 368.844 333.276 369.043 333.843 369.043C335.018 369.043 335.795 368.177 335.925 366.773C335.466 367.261 334.809 367.54 334.082 367.54C332.718 367.54 331.733 366.614 331.733 365.319ZM334.282 366.624C334.939 366.624 335.546 366.305 335.915 365.787C335.765 364.602 335.158 363.885 334.262 363.885C333.445 363.885 332.848 364.463 332.848 365.25C332.848 366.056 333.435 366.624 334.282 366.624ZM342.843 370.069C340.653 370.069 339.109 368.575 339.109 366.484C339.109 364.403 340.692 362.9 342.883 362.9C343.988 362.9 344.864 363.278 345.362 363.716V365.08C344.635 364.343 343.819 363.975 342.903 363.975C341.28 363.975 340.314 365.13 340.314 366.484C340.314 367.848 341.28 369.013 342.903 369.013C343.889 369.013 344.775 368.585 345.362 367.928V369.222C344.775 369.74 343.869 370.069 342.843 370.069ZM347.736 369.969V362.999H350.394C352.366 362.999 353.949 364.423 353.949 366.484C353.949 368.545 352.296 369.969 350.335 369.969H347.736ZM350.255 364.055H348.931V368.934H350.255C351.758 368.934 352.734 367.888 352.734 366.484C352.734 365.12 351.738 364.055 350.255 364.055ZM356.335 369.969V362.999H360.756V364.045H357.53V365.976H360.408V367.022H357.53V369.969H356.335ZM363.097 369.969V362.999H365.756C367.727 362.999 369.31 364.423 369.31 366.484C369.31 368.545 367.658 369.969 365.696 369.969H363.097ZM365.616 364.055H364.292V368.934H365.616C367.12 368.934 368.096 367.888 368.096 366.484C368.096 365.12 367.1 364.055 365.616 364.055Z" fill="#420C02"/>
<path d="M304.723 62.5941C304.723 55.4144 310.543 49.5941 317.723 49.5941H581.444C588.623 49.5941 594.444 55.4144 594.444 62.5941V265.331H304.723V62.5941Z" fill="#6473F8"/>
<path opacity="0.5" d="M328.234 74.709C328.234 75.6673 327.997 76.4158 327.568 76.9634C327.038 77.6388 326.491 77.8488 325.313 77.8488H323.752V71.5326H325.067C326.253 71.5326 326.956 71.7517 327.549 72.4271C328.015 72.9656 328.234 73.7232 328.234 74.709ZM327.066 74.8185C327.066 74.0061 326.993 73.3581 326.664 72.9109C326.372 72.5093 326.043 72.3632 325.477 72.3632H324.811V76.9908H325.505C326.618 76.9908 327.066 76.2515 327.066 74.8185ZM330.587 77.8488H329.51V71.5326H330.587V77.8488ZM336.357 75.9411C336.357 76.9908 335.508 77.9674 333.892 77.9674C333.171 77.9674 332.441 77.7757 331.82 77.4015L332.222 76.5983C332.788 76.9269 333.29 77.1186 333.929 77.1186C334.705 77.1186 335.17 76.7443 335.17 76.1146C335.17 75.6491 334.878 75.357 334.23 75.1744L333.555 74.9828C332.98 74.8185 332.569 74.5812 332.332 74.2252C332.158 73.9696 332.067 73.6684 332.067 73.3033C332.067 72.1898 332.943 71.4322 334.212 71.4322C334.933 71.4322 335.654 71.6422 336.211 72.0346L335.736 72.774C335.152 72.4271 334.75 72.2902 334.248 72.2902C333.628 72.2902 333.217 72.6279 333.217 73.1482C333.217 73.5407 333.436 73.7415 334.057 73.924L334.805 74.1431C335.718 74.4077 336.357 74.9919 336.357 75.9411ZM341.757 77.3924C341.264 77.7666 340.708 77.9492 340.032 77.9492C339.192 77.9492 338.526 77.6297 338.033 77.0364C337.559 76.4614 337.312 75.6947 337.312 74.782C337.312 74.0244 337.449 73.3946 337.732 72.8652C338.207 71.9616 339.074 71.414 340.06 71.414C340.671 71.414 341.255 71.5965 341.629 71.9069L341.146 72.6005C340.808 72.3541 340.461 72.2446 340.069 72.2446C339.53 72.2446 339.083 72.5184 338.809 73.0021C338.59 73.3855 338.48 73.9149 338.48 74.6633C338.48 75.4391 338.563 75.8773 338.727 76.2332C339.001 76.8356 339.521 77.1277 340.133 77.1277C340.58 77.1277 340.908 77.009 341.264 76.7261L341.757 77.3924ZM348.879 73.422C348.879 74.6633 347.975 75.4391 346.834 75.4391H345.766V77.8488H344.726V71.5326H346.405C347.327 71.5326 347.665 71.6239 348.011 71.8338C348.568 72.1624 348.879 72.7283 348.879 73.422ZM347.719 73.4859C347.719 73.139 347.637 72.8744 347.464 72.6918C347.272 72.491 346.998 72.3815 346.588 72.3815H345.766V74.5994H346.588C347.363 74.5994 347.719 74.2343 347.719 73.4859ZM352.351 73.1756L352.041 74.1065C351.94 74.07 351.867 74.0427 351.758 74.0427C351.338 74.0427 350.982 74.353 350.891 74.7272V77.8488H349.887V74.5903C349.887 74.0061 349.823 73.6319 349.722 73.349L350.644 73.1117C350.754 73.3216 350.818 73.5863 350.818 73.8419C351.183 73.3399 351.548 73.1025 351.995 73.1025C352.141 73.1025 352.232 73.1208 352.351 73.1756ZM354.037 77.8488H353.024V73.3033L354.037 73.1208V77.8488ZM354.201 71.8795C354.201 72.2446 353.9 72.5458 353.526 72.5458C353.161 72.5458 352.878 72.2446 352.878 71.8795C352.878 71.5053 353.17 71.2041 353.544 71.2041C353.9 71.2041 354.201 71.4961 354.201 71.8795ZM361.414 77.8488H360.429V74.6542C360.429 74.1157 360.31 73.9605 359.954 73.9605C359.616 73.9605 359.297 74.1887 358.977 74.4899V77.8488H358.019V74.6816C358.019 74.1431 357.9 73.9696 357.517 73.9696C357.234 73.9696 356.905 74.1157 356.568 74.426V77.8488H355.591V74.5355C355.591 73.9605 355.536 73.6137 355.427 73.3672L356.34 73.1117C356.431 73.2577 356.486 73.4494 356.504 73.7049C356.869 73.3307 357.298 73.1208 357.727 73.1208C358.138 73.1208 358.494 73.2577 358.831 73.7962C359.279 73.3399 359.717 73.1208 360.21 73.1208C360.967 73.1208 361.414 73.5133 361.414 74.4716V77.8488ZM366.506 77.4015L365.986 78.0404C365.703 77.9309 365.466 77.7118 365.356 77.4198C364.982 77.8396 364.58 77.9857 364.087 77.9857C363.029 77.9857 362.554 77.4015 362.554 76.5983C362.554 75.5304 363.357 74.9919 364.836 74.9919H365.146V74.7455C365.146 74.2161 365.055 73.9331 364.507 73.9331C363.914 73.9331 363.275 74.353 363.129 74.4625L362.682 73.7415C363.375 73.3033 363.95 73.1117 364.644 73.1117C365.365 73.1117 365.849 73.3764 366.05 73.8784C366.132 74.0792 366.132 74.3256 366.123 75.0102L366.104 76.3336C366.095 76.9543 366.15 77.1551 366.506 77.4015ZM365.128 75.6764C365.11 75.6764 365.009 75.6673 364.945 75.6673C363.941 75.6673 363.64 75.9594 363.64 76.5435C363.64 76.9817 363.877 77.2555 364.279 77.2555C364.598 77.2555 364.909 77.0638 365.11 76.7717L365.128 75.6764ZM370.133 73.1756L369.823 74.1065C369.722 74.07 369.649 74.0427 369.54 74.0427C369.12 74.0427 368.764 74.353 368.673 74.7272V77.8488H367.669V74.5903C367.669 74.0061 367.605 73.6319 367.504 73.349L368.426 73.1117C368.536 73.3216 368.6 73.5863 368.6 73.8419C368.965 73.3399 369.33 73.1025 369.777 73.1025C369.923 73.1025 370.015 73.1208 370.133 73.1756ZM374.689 73.2303L373.055 77.9492C372.671 79.0627 372.343 79.6195 371.257 79.8203L370.928 79.1722C371.558 78.9988 371.914 78.7341 372.179 77.8488H371.859C371.731 77.3285 371.558 76.8265 371.421 76.4158L370.371 73.3033L371.394 73.1299L372.242 75.9411C372.325 76.215 372.48 76.9086 372.498 76.9817C372.507 76.9451 372.671 76.288 372.845 75.7312L373.612 73.2303H374.689Z" fill="#F9F7F2"/>
<path d="M330.292 90.3986C330.292 91.62 329.708 92.6024 328.699 93.0804C328.274 93.2795 327.875 93.3857 326.853 93.3857H325.831V96.7844H323.972V87.5575H326.402C327.968 87.5575 328.446 87.7168 328.964 88.0089C329.827 88.4868 330.292 89.3365 330.292 90.3986ZM328.26 90.4384C328.26 89.5755 327.796 89.0577 327.013 89.0577H325.831V91.8723H326.8C327.557 91.8723 327.783 91.7793 328.035 91.3943C328.194 91.1421 328.26 90.8765 328.26 90.4384ZM336.948 93.9433H333.019V93.9964C333.019 95.0453 333.536 95.6427 334.453 95.6427C335.063 95.6427 335.634 95.417 336.178 94.9656L336.869 96.0277C336.085 96.6649 335.262 96.9703 334.306 96.9703C332.355 96.9703 331.094 95.5896 331.094 93.4521C331.094 92.2307 331.346 91.4209 331.943 90.7571C332.501 90.1331 333.178 89.841 334.081 89.841C334.864 89.841 335.608 90.1065 336.046 90.5579C336.67 91.1952 336.948 92.1112 336.948 93.5318V93.9433ZM335.103 92.6423V92.5626C335.103 92.0581 335.05 91.7926 334.891 91.5404C334.718 91.2748 334.466 91.1421 334.107 91.1421C333.43 91.1421 333.045 91.6731 333.045 92.6157V92.6423H335.103ZM342.214 89.9738L341.723 91.5404C341.55 91.4474 341.404 91.4076 341.205 91.4076C340.807 91.4076 340.448 91.5935 340.116 91.9785V96.7844H338.337V92.244C338.337 91.3279 338.231 90.6376 338.085 90.2526L339.678 89.8277C339.838 90.1065 339.931 90.4119 339.957 90.7969C340.342 90.2791 340.886 89.8277 341.55 89.8277C341.816 89.8277 341.935 89.8543 342.214 89.9738ZM344.758 96.7844H342.979V90.1065L344.758 89.8277V96.7844ZM344.97 88.1151C344.97 88.7258 344.479 89.217 343.868 89.217C343.271 89.217 342.78 88.7258 342.78 88.1151C342.78 87.5044 343.284 87.0132 343.895 87.0132C344.492 87.0132 344.97 87.5044 344.97 88.1151ZM355.102 89.987L353.164 96.7844H351.531L350.92 94.4478C350.774 93.9035 350.615 93.253 350.535 92.8016L350.429 92.1245C350.389 92.4166 350.376 92.5095 350.27 93.0007C350.137 93.5849 349.845 94.7532 349.686 95.3904L349.341 96.7844H347.681L345.822 90.1065L347.588 89.9074L348.146 92.5228C348.305 93.2264 348.491 94.3682 348.531 94.6337C348.61 94.1159 348.81 93.0273 349.022 92.2705L349.659 89.987H351.332L351.876 92.2307C352.142 93.3592 352.341 94.408 352.381 94.6337C352.421 94.3416 352.567 93.2795 352.753 92.4166L353.27 89.987H355.102ZM357.814 96.7844H356.035V90.1065L357.814 89.8277V96.7844ZM358.026 88.1151C358.026 88.7258 357.535 89.217 356.924 89.217C356.327 89.217 355.835 88.7258 355.835 88.1151C355.835 87.5044 356.34 87.0132 356.951 87.0132C357.548 87.0132 358.026 87.5044 358.026 88.1151ZM364.706 95.5497L364.281 96.7844H359.276V95.6825L362.476 91.235H359.542V89.987H364.587V91.2085L361.586 95.5497H364.706ZM371.487 93.9433H367.557V93.9964C367.557 95.0453 368.075 95.6427 368.991 95.6427C369.602 95.6427 370.173 95.417 370.717 94.9656L371.407 96.0277C370.624 96.6649 369.801 96.9703 368.845 96.9703C366.894 96.9703 365.632 95.5896 365.632 93.4521C365.632 92.2307 365.885 91.4209 366.482 90.7571C367.04 90.1331 367.717 89.841 368.619 89.841C369.403 89.841 370.146 90.1065 370.584 90.5579C371.208 91.1952 371.487 92.1112 371.487 93.5318V93.9433ZM369.642 92.6423V92.5626C369.642 92.0581 369.589 91.7926 369.429 91.5404C369.257 91.2748 369.004 91.1421 368.646 91.1421C367.969 91.1421 367.584 91.6731 367.584 92.6157V92.6423H369.642ZM382.177 90.3986C382.177 91.62 381.593 92.6024 380.584 93.0804C380.16 93.2795 379.761 93.3857 378.739 93.3857H377.717V96.7844H375.858V87.5575H378.288C379.854 87.5575 380.332 87.7168 380.85 88.0089C381.713 88.4868 382.177 89.3365 382.177 90.3986ZM380.146 90.4384C380.146 89.5755 379.682 89.0577 378.898 89.0577H377.717V91.8723H378.686C379.443 91.8723 379.668 91.7793 379.921 91.3943C380.08 91.1421 380.146 90.8765 380.146 90.4384ZM389.06 93.3592C389.06 94.5275 388.794 95.3241 388.21 95.9879C387.692 96.572 387.015 96.9305 385.967 96.9305C384.121 96.9305 382.913 95.5497 382.913 93.4123C382.913 91.2748 384.134 89.8543 385.967 89.8543C386.936 89.8543 387.692 90.1862 388.277 90.8765C388.821 91.5138 389.06 92.2573 389.06 93.3592ZM387.122 93.3459C387.122 92.4299 387.002 91.8324 386.763 91.5271C386.591 91.3014 386.312 91.1686 385.993 91.1686C385.568 91.1686 385.223 91.4341 385.077 91.859C384.958 92.2174 384.891 92.6954 384.891 93.3725C384.891 94.1558 384.971 94.7399 385.117 95.0851C385.276 95.4568 385.675 95.6427 386.02 95.6427C386.79 95.6427 387.122 94.9523 387.122 93.3459ZM396.454 93.1999C396.454 94.6602 396.215 95.4037 395.512 96.1604C395.047 96.6517 394.436 96.9305 393.693 96.9305C393.162 96.9305 392.657 96.7977 392.272 96.572C392.299 96.7313 392.299 96.9305 392.299 97.1296V99.2538L390.586 99.7052V91.8457C390.586 90.9562 390.573 90.704 390.48 90.1331L392.06 89.8543C392.126 90.0933 392.166 90.2791 392.179 90.4915C392.485 90.1198 393.162 89.8543 393.852 89.8543C394.33 89.8543 394.821 90.0136 395.193 90.2658C395.923 90.7571 396.454 91.6333 396.454 93.1999ZM394.516 93.3725C394.516 92.7219 394.463 92.2042 394.343 91.8723C394.211 91.5005 393.932 91.3014 393.494 91.3014C393.056 91.3014 392.631 91.4873 392.312 91.8192V95.1249C392.551 95.3241 392.936 95.5232 393.295 95.5232C394.171 95.5232 394.516 94.9258 394.516 93.3725Z" fill="#F9F7F2"/>
<path d="M328.821 238.653C328.821 240.027 327.736 241.033 326.262 241.033C324.58 241.033 323.474 239.679 323.474 237.617C323.474 235.427 324.769 233.903 326.641 233.903C327.298 233.903 327.925 234.063 328.373 234.342V235.487C327.875 235.128 327.278 234.929 326.71 234.929C325.536 234.929 324.759 235.795 324.629 237.199C325.087 236.711 325.745 236.432 326.472 236.432C327.836 236.432 328.821 237.359 328.821 238.653ZM326.272 237.349C325.615 237.349 325.008 237.667 324.639 238.185C324.789 239.37 325.396 240.087 326.292 240.087C327.109 240.087 327.706 239.509 327.706 238.723C327.706 237.916 327.119 237.349 326.272 237.349ZM336.307 239.33H335.391V240.933H334.286V239.33H330.642V238.514L334.266 233.963H335.391V238.364H336.307V239.33ZM332.036 238.364H334.286V235.477L332.036 238.364ZM337.714 234.959V233.963H342.693V234.78C342.036 236.801 340.652 239.34 339.198 240.933H337.874C339.726 238.812 340.781 236.871 341.508 234.959H337.714ZM348.991 238.872C348.991 239.917 348.125 241.033 346.173 241.033C345.506 241.033 344.929 240.893 344.371 240.634V239.589C344.889 239.898 345.536 240.067 346.163 240.067C347.298 240.067 347.836 239.509 347.836 238.862C347.836 238.245 347.318 237.787 346.362 237.787H345.347V236.821H346.104C347.059 236.821 347.527 236.363 347.527 235.815C347.527 235.287 347.069 234.869 346.153 234.869C345.407 234.869 344.789 235.138 344.371 235.387V234.371C344.839 234.063 345.536 233.864 346.283 233.864C348.005 233.864 348.682 234.79 348.682 235.656C348.682 236.273 348.254 236.881 347.547 237.209C348.404 237.408 348.991 238.056 348.991 238.872ZM351.318 240.933V233.963H355.739V235.009H352.513V236.94H355.39V237.986H352.513V240.933H351.318ZM362.899 238.952C362.899 240.196 361.854 241.033 360.3 241.033C358.767 241.033 357.721 240.246 357.721 239.091C357.721 238.334 358.11 237.807 359.016 237.378C358.359 237.03 358.01 236.522 358.01 235.875C358.01 234.72 358.966 233.903 360.32 233.903C361.674 233.903 362.61 234.66 362.61 235.745C362.61 236.353 362.252 236.841 361.545 237.209C362.421 237.607 362.899 238.235 362.899 238.952ZM360.051 236.701L360.559 236.861C361.216 236.632 361.555 236.283 361.555 235.835C361.555 235.228 361.047 234.809 360.31 234.809C359.573 234.809 359.066 235.188 359.066 235.736C359.066 236.184 359.364 236.482 360.051 236.701ZM358.837 238.991C358.837 239.669 359.414 240.107 360.31 240.107C361.206 240.107 361.784 239.679 361.784 239.011C361.784 238.533 361.415 238.175 360.699 237.956L359.882 237.707C359.195 237.976 358.837 238.414 358.837 238.991Z" fill="#F9F7F2"/>
<rect x="304.723" y="0.133179" width="34.2" height="34.2" rx="17.1" fill="#6473F8"/>
<path d="M326.894 23.303C325.813 24.1238 324.592 24.5242 323.111 24.5242C321.269 24.5242 319.808 23.8235 318.727 22.5222C317.686 21.261 317.145 19.5793 317.145 17.5774C317.145 15.9158 317.445 14.5344 318.066 13.3733C319.107 11.3914 321.009 10.1902 323.171 10.1902C324.512 10.1902 325.793 10.5906 326.614 11.2713L325.553 12.7927C324.812 12.2522 324.052 12.012 323.191 12.012C322.01 12.012 321.029 12.6126 320.428 13.6736C319.948 14.5144 319.707 15.6755 319.707 17.3171C319.707 19.0188 319.888 19.9797 320.248 20.7605C320.849 22.0818 321.99 22.7224 323.331 22.7224C324.312 22.7224 325.033 22.4622 325.813 21.8416L326.894 23.303Z" fill="white"/>
<path d="M367.842 21.1231C364.191 21.1231 361.619 18.6338 361.619 15.1488C361.619 11.6804 364.257 9.17451 367.908 9.17451C369.75 9.17451 371.211 9.80513 372.041 10.5353V12.8089C370.829 11.5808 369.468 10.9668 367.942 10.9668C365.237 10.9668 363.627 12.8919 363.627 15.1488C363.627 17.4224 365.237 19.364 367.942 19.364C369.585 19.364 371.062 18.6504 372.041 17.5551V19.7125C371.062 20.5755 369.551 21.1231 367.842 21.1231ZM380.918 21.0401C379.739 21.0401 379.142 20.5257 379.042 19.6793C378.345 20.6087 377.316 21.0899 376.188 21.0899C374.678 21.0899 373.815 20.2436 373.815 18.9657C373.815 17.7377 374.595 16.9245 376.636 16.4101L378.976 15.8126C378.893 14.8169 378.329 14.4518 377.3 14.4352C376.404 14.4186 375.524 14.7505 374.578 15.4309V13.6884C375.441 13.1408 376.387 12.8255 377.532 12.8255C379.756 12.8255 380.851 13.8378 380.851 15.879V19.1649C380.851 19.4968 381.083 19.6627 381.432 19.6627C381.698 19.6627 381.83 19.6295 382.063 19.5466V20.841C381.714 20.9903 381.316 21.0401 380.918 21.0401ZM375.673 18.8496C375.673 19.281 376.005 19.6295 376.752 19.6295C377.648 19.6295 378.511 19.0819 378.992 18.3517V17.1402L377.233 17.6049C376.005 17.9368 375.673 18.3019 375.673 18.8496ZM389.161 20.9572V20.0776C388.597 20.7248 387.717 21.1397 386.655 21.1397C384.697 21.1397 383.602 19.8287 383.602 17.9202V12.9914H385.493V17.7045C385.493 18.7334 386.107 19.4802 387.17 19.4802C388.066 19.4802 388.713 19.1151 389.128 18.5674V12.9914H391.02V20.9572H389.161ZM398.732 20.6087C398.118 20.8908 397.405 21.0401 396.641 21.0401C394.949 21.0401 394.086 20.1772 394.086 18.584V14.485H392.609V12.9914H394.086V11.1825L395.944 10.9336V12.9914H398.699V14.485H395.944V18.2189C395.944 18.9989 396.276 19.4304 397.106 19.4304C397.703 19.4304 398.284 19.2644 398.732 19.0819V20.6087ZM401.241 11.2157C400.611 11.2157 400.096 10.7179 400.096 10.0873C400.096 9.45663 400.611 8.95878 401.241 8.95878C401.872 8.95878 402.386 9.45663 402.386 10.0873C402.386 10.7179 401.872 11.2157 401.241 11.2157ZM400.295 20.9572V12.9914H402.187V20.9572H400.295ZM404.107 17.0075C404.107 14.5846 406.032 12.8255 408.355 12.8255C410.728 12.8255 412.537 14.5514 412.537 16.9411C412.537 19.364 410.612 21.1231 408.289 21.1231C405.999 21.1231 404.107 19.3972 404.107 17.0075ZM410.645 16.9743C410.645 15.4807 409.616 14.4352 408.322 14.4352C407.011 14.4352 405.999 15.4807 405.999 16.9743C405.999 18.4679 407.011 19.5134 408.322 19.5134C409.616 19.5134 410.645 18.4679 410.645 16.9743ZM419.969 20.9572V20.0776C419.405 20.7248 418.525 21.1397 417.463 21.1397C415.505 21.1397 414.41 19.8287 414.41 17.9202V12.9914H416.302V17.7045C416.302 18.7334 416.916 19.4802 417.978 19.4802C418.874 19.4802 419.521 19.1151 419.936 18.5674V12.9914H421.828V20.9572H419.969ZM427.931 18.8496C427.931 18.4679 427.698 18.2189 427.001 17.97L425.425 17.4058C424.379 17.0241 423.765 16.2607 423.765 15.348C423.765 13.9208 424.877 12.8421 426.653 12.8421C427.715 12.8421 428.528 13.091 429.142 13.4727V15.265C428.18 14.568 427.433 14.3522 426.653 14.3522C425.873 14.3522 425.491 14.6841 425.491 15.1156C425.491 15.4309 425.74 15.713 426.238 15.8956L428.014 16.5428C429.225 16.9743 429.723 17.7377 429.723 18.6836C429.723 19.9448 428.727 21.1231 426.67 21.1231C425.674 21.1231 424.761 20.9074 423.865 20.3929V18.6172C424.894 19.2976 425.79 19.6461 426.636 19.6461C427.449 19.6461 427.931 19.3308 427.931 18.8496Z" fill="#420C02"/>
</svg>
