<svg width="1440" height="1134" viewBox="0 0 1440 1134" fill="none" xmlns="http://www.w3.org/2000/svg">
<g clip-path="url(#clip0_4815_17627)">
<rect x="-25.0042" y="0.507494" width="75.4886" height="75.4886" stroke="#1D1D1B" stroke-width="1.01499"/>
<rect x="50.4841" y="0.507494" width="75.4886" height="75.4886" fill="#71861E" stroke="#1D1D1B" stroke-width="1.01499"/>
<path d="M85.8542 34.7008H82.039C82.1937 33.2572 82.8381 31.7363 83.7404 30.8083C85.0035 29.4936 86.6791 29.1843 88.0969 29.1843C90.2107 29.1843 91.7316 29.8287 92.6081 30.7052C93.3299 31.4012 93.9228 32.5355 93.9228 34.211C93.9228 35.0617 93.7681 35.8093 93.2268 36.5569C92.8659 37.0724 92.4276 37.4075 91.9378 37.6395C92.6596 37.8973 93.433 38.3871 93.897 39.0316C94.4126 39.7276 94.6961 40.8103 94.6961 41.7383C94.6961 43.053 94.1806 44.5481 92.969 45.6566C91.4996 46.997 89.824 47.1517 88.432 47.1517C86.7564 47.1517 84.9262 46.8939 83.4053 45.373C82.4257 44.3677 81.6781 42.8467 81.4977 41.1196H85.4675C85.5191 41.7898 85.8284 42.589 86.2924 43.053C86.7049 43.4654 87.3751 43.749 88.2 43.749C88.8702 43.749 89.5147 43.5428 89.9271 43.1561C90.3396 42.7694 90.6232 42.0992 90.6232 41.4032C90.6232 40.6814 90.288 40.0885 89.8756 39.7534C89.2569 39.2636 88.3547 39.212 87.7618 39.212H87.4524V36.4795H87.6844C87.9164 36.4795 88.8445 36.4537 89.4116 35.9897C89.7725 35.6804 90.056 35.1391 90.056 34.443C90.056 33.8501 89.824 33.3604 89.4889 33.051C89.1796 32.7675 88.664 32.5355 88.0196 32.5355C87.3493 32.5355 86.808 32.7675 86.4729 33.1026C86.112 33.4893 85.88 34.1595 85.8542 34.7008Z" fill="white"/>
<rect x="125.972" y="0.507494" width="75.4886" height="75.4886" stroke="#1D1D1B" stroke-width="1.01499"/>
<rect x="201.463" y="0.507494" width="75.4886" height="75.4886" fill="#A6A1FF" stroke="#1D1D1B" stroke-width="1.01499"/>
<rect x="276.951" y="0.507494" width="75.4886" height="75.4886" stroke="#1D1D1B" stroke-width="1.01499"/>
<rect x="352.439" y="0.507494" width="75.4886" height="75.4886" stroke="#1D1D1B" stroke-width="1.01499"/>
<rect x="427.927" y="0.507494" width="75.4886" height="75.4886" stroke="#1D1D1B" stroke-width="1.01499"/>
<rect x="503.416" y="0.507494" width="75.4886" height="75.4886" stroke="#1D1D1B" stroke-width="1.01499"/>
<rect x="578.904" y="0.507494" width="75.4886" height="75.4886" stroke="#1D1D1B" stroke-width="1.01499"/>
<path d="M617.303 29.6624L621.557 30.1006L617.02 35.7461C617.535 35.5656 618.076 35.4625 618.824 35.4625C620.989 35.4625 622.33 36.339 623.077 37.1123C623.696 37.7568 624.573 38.9941 624.573 41.0822C624.573 42.732 624.057 44.4849 622.949 45.6965C621.376 47.3978 619.185 47.6298 617.664 47.6298C616.092 47.6298 613.797 47.4752 612.096 45.6191C610.962 44.4076 610.601 42.964 610.601 41.4431C610.601 38.7106 611.89 36.7772 613.359 34.8438L617.303 29.6624ZM617.535 44.3818C618.566 44.3818 619.236 43.9436 619.597 43.6084C620.061 43.1702 620.5 42.4484 620.5 41.34C620.5 40.3346 620.087 39.6644 619.597 39.2261C618.953 38.659 618.205 38.5043 617.535 38.5043C616.762 38.5043 616.04 38.6848 615.447 39.2519C615.112 39.5613 614.571 40.2573 614.571 41.4431C614.571 42.2422 614.803 42.9898 615.447 43.5827C615.937 44.0467 616.659 44.3818 617.535 44.3818Z" fill="black"/>
<rect x="654.394" y="0.507494" width="75.4886" height="75.4886" stroke="#1D1D1B" stroke-width="1.01499"/>
<rect x="729.882" y="0.507494" width="75.4886" height="75.4886" stroke="#1D1D1B" stroke-width="1.01499"/>
<rect x="805.371" y="0.507494" width="75.4886" height="75.4886" stroke="#1D1D1B" stroke-width="1.01499"/>
<rect x="880.859" y="0.507494" width="75.4886" height="75.4886" stroke="#1D1D1B" stroke-width="1.01499"/>
<rect x="956.347" y="0.507494" width="75.4886" height="75.4886" stroke="#1D1D1B" stroke-width="1.01499"/>
<rect x="1031.84" y="0.507494" width="75.4886" height="75.4886" stroke="#1D1D1B" stroke-width="1.01499"/>
<rect x="1107.32" y="0.507494" width="75.4886" height="75.4886" stroke="#1D1D1B" stroke-width="1.01499"/>
<rect x="1182.81" y="0.507494" width="75.4886" height="75.4886" stroke="#1D1D1B" stroke-width="1.01499"/>
<rect x="1258.3" y="0.507494" width="75.4886" height="75.4886" stroke="#1D1D1B" stroke-width="1.01499"/>
<rect x="1333.79" y="0.507494" width="75.4886" height="75.4886" stroke="#1D1D1B" stroke-width="1.01499"/>
<rect x="-25.0042" y="76.0114" width="75.4886" height="75.4886" stroke="#1D1D1B" stroke-width="1.01499"/>
<rect x="50.4841" y="76.0114" width="75.4886" height="75.4886" stroke="#1D1D1B" stroke-width="1.01499"/>
<path d="M93.5877 105.049V115.85H95.6499V118.995H93.5877V122.243H89.7725V118.995H81.3688V116.727L88.9476 105.049H93.5877ZM85.5448 115.85H89.7725V109.174L85.5448 115.85Z" fill="black"/>
<rect x="125.972" y="76.0114" width="75.4886" height="75.4886" stroke="#1D1D1B" stroke-width="1.01499"/>
<rect x="201.463" y="76.0114" width="75.4886" height="75.4886" fill="#A6A1FF" stroke="#1D1D1B" stroke-width="1.01499"/>
<rect x="276.951" y="76.0114" width="75.4886" height="75.4886" stroke="#1D1D1B" stroke-width="1.01499"/>
<rect x="352.439" y="76.0114" width="75.4886" height="75.4886" stroke="#1D1D1B" stroke-width="1.01499"/>
<rect x="427.927" y="76.0114" width="75.4886" height="75.4886" stroke="#1D1D1B" stroke-width="1.01499"/>
<rect x="503.416" y="76.0114" width="75.4886" height="75.4886" stroke="#1D1D1B" stroke-width="1.01499"/>
<rect x="578.904" y="76.0114" width="75.4886" height="75.4886" stroke="#1D1D1B" stroke-width="1.01499"/>
<path d="M611.168 121.728L618.953 108.4H611.374V105.049H625.037L614.854 122.63L611.168 121.728Z" fill="black"/>
<rect x="654.394" y="76.0114" width="75.4886" height="75.4886" stroke="#1D1D1B" stroke-width="1.01499"/>
<path d="M692.587 122.63C691.04 122.63 689.416 122.553 687.895 121.186C686.58 120 686.245 118.583 686.245 117.448C686.245 115.979 686.89 115.051 687.405 114.51C687.972 113.917 688.797 113.453 689.545 113.221C689.107 113.04 688.514 112.731 687.972 112.164C687.199 111.365 686.915 110.488 686.915 109.431C686.915 107.988 687.457 106.957 688.179 106.235C689.442 104.946 691.092 104.662 692.638 104.662C694.133 104.662 695.783 104.946 697.046 106.235C697.768 106.957 698.309 107.988 698.309 109.431C698.309 110.488 698.026 111.365 697.253 112.164C696.711 112.731 696.118 113.04 695.68 113.221C696.428 113.453 697.253 113.917 697.82 114.51C698.335 115.051 698.98 115.979 698.98 117.448C698.98 118.583 698.645 120 697.33 121.186C695.809 122.553 694.211 122.63 692.587 122.63ZM692.612 107.601C692.071 107.601 691.556 107.756 691.092 108.168C690.653 108.581 690.447 109.07 690.447 109.638C690.447 110.359 690.782 110.823 691.092 111.107C691.478 111.442 691.994 111.674 692.612 111.674C693.154 111.674 693.669 111.519 694.108 111.107C694.546 110.695 694.752 110.231 694.752 109.638C694.752 108.787 694.288 108.323 694.108 108.142C693.747 107.833 693.231 107.601 692.612 107.601ZM692.561 114.819C691.891 114.819 691.298 115.077 690.937 115.438C690.524 115.85 690.267 116.546 690.267 117.139C690.267 117.758 690.473 118.428 690.937 118.866C691.375 119.279 692.02 119.485 692.612 119.485C693.205 119.485 693.85 119.279 694.288 118.866C694.675 118.505 694.958 117.861 694.958 117.113C694.958 116.392 694.675 115.799 694.288 115.438C693.876 115.025 693.231 114.819 692.561 114.819Z" fill="black"/>
<rect x="729.882" y="76.0114" width="75.4886" height="75.4886" stroke="#1D1D1B" stroke-width="1.01499"/>
<rect x="805.371" y="76.0114" width="75.4886" height="75.4886" stroke="#1D1D1B" stroke-width="1.01499"/>
<rect x="880.859" y="76.0114" width="75.4886" height="75.4886" stroke="#1D1D1B" stroke-width="1.01499"/>
<rect x="956.347" y="76.0114" width="75.4886" height="75.4886" stroke="#1D1D1B" stroke-width="1.01499"/>
<rect x="1031.84" y="76.0114" width="75.4886" height="75.4886" stroke="#1D1D1B" stroke-width="1.01499"/>
<rect x="1107.32" y="76.0114" width="75.4886" height="75.4886" stroke="#1D1D1B" stroke-width="1.01499"/>
<rect x="1182.81" y="76.0114" width="75.4886" height="75.4886" stroke="#1D1D1B" stroke-width="1.01499"/>
<path d="M1220.3 104.662L1224.56 105.101L1220.02 110.746C1220.54 110.566 1221.08 110.463 1221.82 110.463C1223.99 110.463 1225.33 111.339 1226.08 112.112C1226.7 112.757 1227.57 113.994 1227.57 116.082C1227.57 117.732 1227.06 119.485 1225.95 120.696C1224.38 122.398 1222.18 122.63 1220.66 122.63C1219.09 122.63 1216.8 122.475 1215.1 120.619C1213.96 119.408 1213.6 117.964 1213.6 116.443C1213.6 113.711 1214.89 111.777 1216.36 109.844L1220.3 104.662ZM1220.54 119.382C1221.57 119.382 1222.24 118.944 1222.6 118.608C1223.06 118.17 1223.5 117.448 1223.5 116.34C1223.5 115.335 1223.09 114.664 1222.6 114.226C1221.95 113.659 1221.21 113.504 1220.54 113.504C1219.76 113.504 1219.04 113.685 1218.45 114.252C1218.11 114.561 1217.57 115.257 1217.57 116.443C1217.57 117.242 1217.8 117.99 1218.45 118.583C1218.94 119.047 1219.66 119.382 1220.54 119.382Z" fill="black"/>
<rect x="1258.3" y="76.0114" width="75.4886" height="75.4886" stroke="#1D1D1B" stroke-width="1.01499"/>
<rect x="1333.79" y="76.0114" width="75.4886" height="75.4886" stroke="#1D1D1B" stroke-width="1.01499"/>
<path d="M1376.59 105.049V115.85H1378.65V118.995H1376.59V122.243H1372.77V118.995H1364.37V116.727L1371.95 105.049H1376.59ZM1368.54 115.85H1372.77V109.174L1368.54 115.85Z" fill="black"/>
<rect x="-25.0042" y="151.514" width="75.4886" height="75.4886" stroke="#1D1D1B" stroke-width="1.01499"/>
<rect x="50.4841" y="151.514" width="75.4886" height="75.4886" stroke="#1D1D1B" stroke-width="1.01499"/>
<rect x="125.972" y="151.514" width="75.4886" height="75.4886" stroke="#1D1D1B" stroke-width="1.01499"/>
<rect x="201.463" y="151.514" width="75.4886" height="75.4886" fill="#A6A1FF" stroke="#1D1D1B" stroke-width="1.01499"/>
<rect x="276.951" y="151.514" width="75.4886" height="75.4886" stroke="#1D1D1B" stroke-width="1.01499"/>
<rect x="352.439" y="151.514" width="75.4886" height="75.4886" stroke="#1D1D1B" stroke-width="1.01499"/>
<rect x="427.927" y="151.514" width="75.4886" height="75.4886" stroke="#1D1D1B" stroke-width="1.01499"/>
<rect x="503.416" y="151.514" width="75.4886" height="75.4886" stroke="#1D1D1B" stroke-width="1.01499"/>
<rect x="578.904" y="151.514" width="75.4886" height="75.4886" stroke="#1D1D1B" stroke-width="1.01499"/>
<rect x="654.394" y="151.514" width="75.4886" height="75.4886" stroke="#1D1D1B" stroke-width="1.01499"/>
<rect x="729.882" y="151.514" width="75.4886" height="75.4886" stroke="#1D1D1B" stroke-width="1.01499"/>
<rect x="805.371" y="151.514" width="75.4886" height="75.4886" stroke="#1D1D1B" stroke-width="1.01499"/>
<rect x="880.859" y="151.514" width="75.4886" height="75.4886" stroke="#1D1D1B" stroke-width="1.01499"/>
<rect x="956.347" y="151.514" width="75.4886" height="75.4886" stroke="#1D1D1B" stroke-width="1.01499"/>
<rect x="1031.84" y="151.514" width="75.4886" height="75.4886" stroke="#1D1D1B" stroke-width="1.01499"/>
<rect x="1107.32" y="151.514" width="75.4886" height="75.4886" stroke="#1D1D1B" stroke-width="1.01499"/>
<rect x="1182.81" y="151.514" width="75.4886" height="75.4886" stroke="#1D1D1B" stroke-width="1.01499"/>
<rect x="1258.3" y="151.514" width="75.4886" height="75.4886" stroke="#1D1D1B" stroke-width="1.01499"/>
<rect x="1333.79" y="151.514" width="75.4886" height="75.4886" stroke="#1D1D1B" stroke-width="1.01499"/>
<rect x="-25.0042" y="227.018" width="75.4886" height="75.4886" stroke="#1D1D1B" stroke-width="1.01499"/>
<rect x="50.4841" y="227.018" width="75.4886" height="75.4886" stroke="#1D1D1B" stroke-width="1.01499"/>
<rect x="125.972" y="227.018" width="75.4886" height="75.4886" stroke="#1D1D1B" stroke-width="1.01499"/>
<rect x="201.463" y="227.018" width="75.4886" height="75.4886" fill="#A6A1FF" stroke="#1D1D1B" stroke-width="1.01499"/>
<rect x="276.951" y="227.018" width="75.4886" height="75.4886" stroke="#1D1D1B" stroke-width="1.01499"/>
<rect x="352.439" y="227.018" width="75.4886" height="75.4886" stroke="#1D1D1B" stroke-width="1.01499"/>
<rect x="427.927" y="227.018" width="75.4886" height="75.4886" stroke="#1D1D1B" stroke-width="1.01499"/>
<rect x="503.416" y="227.018" width="75.4886" height="75.4886" stroke="#1D1D1B" stroke-width="1.01499"/>
<rect x="578.904" y="227.018" width="75.4886" height="75.4886" stroke="#1D1D1B" stroke-width="1.01499"/>
<rect x="654.394" y="227.018" width="75.4886" height="75.4886" stroke="#1D1D1B" stroke-width="1.01499"/>
<rect x="729.882" y="227.018" width="75.4886" height="75.4886" stroke="#1D1D1B" stroke-width="1.01499"/>
<rect x="805.371" y="227.018" width="75.4886" height="75.4886" stroke="#1D1D1B" stroke-width="1.01499"/>
<rect x="880.859" y="227.018" width="75.4886" height="75.4886" stroke="#1D1D1B" stroke-width="1.01499"/>
<rect x="956.347" y="227.018" width="75.4886" height="75.4886" stroke="#1D1D1B" stroke-width="1.01499"/>
<rect x="1031.84" y="227.018" width="75.4886" height="75.4886" stroke="#1D1D1B" stroke-width="1.01499"/>
<rect x="1107.32" y="227.018" width="75.4886" height="75.4886" stroke="#1D1D1B" stroke-width="1.01499"/>
<rect x="1182.81" y="227.018" width="75.4886" height="75.4886" stroke="#1D1D1B" stroke-width="1.01499"/>
<rect x="1258.3" y="227.018" width="75.4886" height="75.4886" stroke="#1D1D1B" stroke-width="1.01499"/>
<rect x="1333.79" y="227.018" width="75.4886" height="75.4886" stroke="#1D1D1B" stroke-width="1.01499"/>
<rect x="-25.0042" y="302.522" width="75.4886" height="75.4886" stroke="#1D1D1B" stroke-width="1.01499"/>
<rect x="50.4841" y="302.522" width="75.4886" height="75.4886" stroke="#1D1D1B" stroke-width="1.01499"/>
<rect x="125.972" y="302.522" width="75.4886" height="75.4886" stroke="#1D1D1B" stroke-width="1.01499"/>
<rect x="201.463" y="302.522" width="75.4886" height="75.4886" fill="#A6A1FF" stroke="#1D1D1B" stroke-width="1.01499"/>
<rect x="276.951" y="302.522" width="75.4886" height="75.4886" stroke="#1D1D1B" stroke-width="1.01499"/>
<path d="M321.645 345.892V349.243H308.498L313.653 343.624C314.556 342.618 315.922 340.943 316.463 340.118C316.85 339.499 317.494 338.391 317.494 337.205C317.494 336.56 317.236 335.89 316.824 335.503C316.489 335.194 315.922 335.014 315.252 335.014C314.504 335.014 314.014 335.271 313.679 335.632C313.215 336.148 312.957 337.076 312.957 337.746H308.987C309.116 336.251 309.709 334.55 310.766 333.441C311.591 332.565 313.06 331.662 315.509 331.662C318.01 331.662 319.35 332.694 319.969 333.286C320.897 334.214 321.567 335.632 321.567 337.411C321.567 338.932 321.103 340.04 320.278 341.2C319.531 342.231 318.629 343.108 317.52 344.165L315.716 345.892H321.645Z" fill="black"/>
<rect x="352.439" y="302.522" width="75.4886" height="75.4886" stroke="#1D1D1B" stroke-width="1.01499"/>
<rect x="427.927" y="302.522" width="75.4886" height="75.4886" stroke="#1D1D1B" stroke-width="1.01499"/>
<rect x="503.416" y="302.522" width="75.4886" height="75.4886" stroke="#1D1D1B" stroke-width="1.01499"/>
<rect x="578.904" y="302.522" width="75.4886" height="75.4886" stroke="#1D1D1B" stroke-width="1.01499"/>
<rect x="654.394" y="302.522" width="75.4886" height="75.4886" stroke="#1D1D1B" stroke-width="1.01499"/>
<rect x="729.882" y="302.522" width="75.4886" height="75.4886" stroke="#1D1D1B" stroke-width="1.01499"/>
<rect x="805.371" y="302.522" width="75.4886" height="75.4886" stroke="#1D1D1B" stroke-width="1.01499"/>
<rect x="880.859" y="302.522" width="75.4886" height="75.4886" stroke="#1D1D1B" stroke-width="1.01499"/>
<rect x="956.347" y="302.522" width="75.4886" height="75.4886" stroke="#1D1D1B" stroke-width="1.01499"/>
<rect x="1031.84" y="302.522" width="75.4886" height="75.4886" stroke="#1D1D1B" stroke-width="1.01499"/>
<rect x="1107.32" y="302.522" width="75.4886" height="75.4886" stroke="#1D1D1B" stroke-width="1.01499"/>
<rect x="1182.81" y="302.522" width="75.4886" height="75.4886" stroke="#1D1D1B" stroke-width="1.01499"/>
<rect x="1258.3" y="302.522" width="75.4886" height="75.4886" stroke="#1D1D1B" stroke-width="1.01499"/>
<path d="M1301.59 332.049V342.85H1303.65V345.995H1301.59V349.243H1297.77V345.995H1289.37V343.727L1296.95 332.049H1301.59ZM1293.54 342.85H1297.77V336.174L1293.54 342.85Z" fill="black"/>
<rect x="1333.79" y="302.522" width="75.4886" height="75.4886" stroke="#1D1D1B" stroke-width="1.01499"/>
<rect x="-25.0042" y="378.025" width="75.4886" height="75.4886" stroke="#1D1D1B" stroke-width="1.01499"/>
<rect x="50.4841" y="378.025" width="75.4886" height="75.4886" stroke="#1D1D1B" stroke-width="1.01499"/>
<rect x="125.972" y="378.025" width="75.4886" height="75.4886" stroke="#1D1D1B" stroke-width="1.01499"/>
<rect x="201.463" y="378.025" width="75.4886" height="75.4886" fill="#A6A1FF" stroke="#1D1D1B" stroke-width="1.01499"/>
<rect x="276.951" y="378.025" width="75.4886" height="75.4886" stroke="#1D1D1B" stroke-width="1.01499"/>
<rect x="352.439" y="378.025" width="75.4886" height="75.4886" stroke="#1D1D1B" stroke-width="1.01499"/>
<path d="M388.834 424.243V410.4H386.385V407.049H392.804V424.243H388.834Z" fill="black"/>
<rect x="427.927" y="378.025" width="75.4886" height="75.4886" stroke="#1D1D1B" stroke-width="1.01499"/>
<rect x="503.416" y="378.025" width="75.4886" height="75.4886" stroke="#1D1D1B" stroke-width="1.01499"/>
<rect x="578.904" y="378.025" width="75.4886" height="75.4886" stroke="#1D1D1B" stroke-width="1.01499"/>
<rect x="654.394" y="378.025" width="75.4886" height="75.4886" stroke="#1D1D1B" stroke-width="1.01499"/>
<rect x="729.882" y="378.025" width="75.4886" height="75.4886" stroke="#1D1D1B" stroke-width="1.01499"/>
<rect x="805.371" y="378.025" width="75.4886" height="75.4886" stroke="#1D1D1B" stroke-width="1.01499"/>
<rect x="880.859" y="378.025" width="75.4886" height="75.4886" stroke="#1D1D1B" stroke-width="1.01499"/>
<rect x="956.347" y="378.025" width="75.4886" height="75.4886" stroke="#1D1D1B" stroke-width="1.01499"/>
<rect x="1031.84" y="378.025" width="75.4886" height="75.4886" stroke="#1D1D1B" stroke-width="1.01499"/>
<rect x="1107.32" y="378.025" width="75.4886" height="75.4886" stroke="#1D1D1B" stroke-width="1.01499"/>
<rect x="1182.81" y="378.025" width="75.4886" height="75.4886" stroke="#1D1D1B" stroke-width="1.01499"/>
<rect x="1258.3" y="378.025" width="75.4886" height="75.4886" stroke="#1D1D1B" stroke-width="1.01499"/>
<rect x="1333.79" y="378.025" width="75.4886" height="75.4886" stroke="#1D1D1B" stroke-width="1.01499"/>
<rect x="-25.0042" y="453.529" width="75.4886" height="75.4886" stroke="#1D1D1B" stroke-width="1.01499"/>
<rect x="50.4841" y="453.529" width="75.4886" height="75.4886" fill="#A6A1FF" stroke="#1D1D1B" stroke-width="1.01499"/>
<rect x="125.972" y="453.529" width="75.4886" height="75.4886" fill="#A6A1FF" stroke="#1D1D1B" stroke-width="1.01499"/>
<rect x="201.463" y="453.529" width="75.4886" height="75.4886" fill="#A6A1FF" stroke="#1D1D1B" stroke-width="1.01499"/>
<rect x="276.951" y="453.529" width="75.4886" height="75.4886" stroke="#1D1D1B" stroke-width="1.01499"/>
<rect x="352.439" y="453.529" width="75.4886" height="75.4886" stroke="#1D1D1B" stroke-width="1.01499"/>
<rect x="427.927" y="453.529" width="75.4886" height="75.4886" stroke="#1D1D1B" stroke-width="1.01499"/>
<rect x="503.416" y="453.529" width="75.4886" height="75.4886" stroke="#1D1D1B" stroke-width="1.01499"/>
<rect x="578.904" y="453.529" width="75.4886" height="75.4886" stroke="#1D1D1B" stroke-width="1.01499"/>
<rect x="654.394" y="453.529" width="75.4886" height="75.4886" stroke="#1D1D1B" stroke-width="1.01499"/>
<rect x="729.882" y="453.529" width="75.4886" height="75.4886" stroke="#1D1D1B" stroke-width="1.01499"/>
<rect x="805.371" y="453.529" width="75.4886" height="75.4886" stroke="#1D1D1B" stroke-width="1.01499"/>
<rect x="880.859" y="453.529" width="75.4886" height="75.4886" stroke="#1D1D1B" stroke-width="1.01499"/>
<rect x="956.347" y="453.529" width="75.4886" height="75.4886" stroke="#1D1D1B" stroke-width="1.01499"/>
<rect x="1031.84" y="453.529" width="75.4886" height="75.4886" stroke="#1D1D1B" stroke-width="1.01499"/>
<rect x="1107.32" y="453.529" width="75.4886" height="75.4886" stroke="#1D1D1B" stroke-width="1.01499"/>
<rect x="1182.81" y="453.529" width="75.4886" height="75.4886" stroke="#1D1D1B" stroke-width="1.01499"/>
<rect x="1258.3" y="453.529" width="75.4886" height="75.4886" stroke="#1D1D1B" stroke-width="1.01499"/>
<rect x="1333.79" y="453.529" width="75.4886" height="75.4886" stroke="#1D1D1B" stroke-width="1.01499"/>
<rect x="-25.0042" y="529.032" width="75.4886" height="75.4886" fill="#AEA9FF" stroke="#1D1D1B" stroke-width="1.01499"/>
<rect x="50.4841" y="529.032" width="75.4886" height="75.4886" fill="#A6A1FF" stroke="#1D1D1B" stroke-width="1.01499"/>
<rect x="125.972" y="529.032" width="75.4886" height="75.4886" fill="#A6A1FF" stroke="#1D1D1B" stroke-width="1.01499"/>
<rect x="201.463" y="529.032" width="75.4886" height="75.4886" fill="#E3FA71" stroke="#1D1D1B" stroke-width="1.01499"/>
<path d="M236.854 563.205H233.039C233.194 561.761 233.838 560.24 234.74 559.312C236.004 557.998 237.679 557.688 239.097 557.688C241.211 557.688 242.732 558.333 243.608 559.209C244.33 559.905 244.923 561.039 244.923 562.715C244.923 563.566 244.768 564.313 244.227 565.061C243.866 565.576 243.428 565.911 242.938 566.143C243.66 566.401 244.433 566.891 244.897 567.535C245.413 568.231 245.696 569.314 245.696 570.242C245.696 571.557 245.181 573.052 243.969 574.16C242.5 575.501 240.824 575.656 239.432 575.656C237.756 575.656 235.926 575.398 234.405 573.877C233.426 572.872 232.678 571.351 232.498 569.624H236.468C236.519 570.294 236.828 571.093 237.292 571.557C237.705 571.969 238.375 572.253 239.2 572.253C239.87 572.253 240.515 572.047 240.927 571.66C241.34 571.273 241.623 570.603 241.623 569.907C241.623 569.185 241.288 568.592 240.876 568.257C240.257 567.767 239.355 567.716 238.762 567.716H238.452V564.983H238.684C238.916 564.983 239.844 564.958 240.412 564.494C240.772 564.184 241.056 563.643 241.056 562.947C241.056 562.354 240.824 561.864 240.489 561.555C240.18 561.271 239.664 561.039 239.02 561.039C238.349 561.039 237.808 561.271 237.473 561.606C237.112 561.993 236.88 562.663 236.854 563.205Z" fill="black"/>
<rect x="276.951" y="529.032" width="75.4886" height="75.4886" fill="#A6A1FF" stroke="#1D1D1B" stroke-width="1.01499"/>
<rect x="352.439" y="529.032" width="75.4886" height="75.4886" fill="#A6A1FF" stroke="#1D1D1B" stroke-width="1.01499"/>
<rect x="427.927" y="529.032" width="75.4886" height="75.4886" fill="#A6A1FF" stroke="#1D1D1B" stroke-width="1.01499"/>
<rect x="503.416" y="529.032" width="75.4886" height="75.4886" fill="#A6A1FF" stroke="#1D1D1B" stroke-width="1.01499"/>
<rect x="578.904" y="529.032" width="75.4886" height="75.4886" fill="#A6A1FF" stroke="#1D1D1B" stroke-width="1.01499"/>
<rect x="654.394" y="529.032" width="75.4886" height="75.4886" fill="#A6A1FF" stroke="#1D1D1B" stroke-width="1.01499"/>
<rect x="729.882" y="529.032" width="75.4886" height="75.4886" fill="#A6A1FF" stroke="#1D1D1B" stroke-width="1.01499"/>
<rect x="805.371" y="529.032" width="75.4886" height="75.4886" fill="#A6A1FF" stroke="#1D1D1B" stroke-width="1.01499"/>
<rect x="880.859" y="529.032" width="75.4886" height="75.4886" fill="#A6A1FF" stroke="#1D1D1B" stroke-width="1.01499"/>
<rect x="956.347" y="529.032" width="75.4886" height="75.4886" fill="#A6A1FF" stroke="#1D1D1B" stroke-width="1.01499"/>
<rect x="1031.84" y="529.032" width="75.4886" height="75.4886" fill="#71861E" stroke="#1D1D1B" stroke-width="1.01499"/>
<path d="M1067.01 563.336H1063.19C1063.35 561.892 1063.99 560.371 1064.89 559.443C1066.16 558.128 1067.83 557.819 1069.25 557.819C1071.37 557.819 1072.89 558.464 1073.76 559.34C1074.48 560.036 1075.08 561.17 1075.08 562.846C1075.08 563.696 1074.92 564.444 1074.38 565.192C1074.02 565.707 1073.58 566.042 1073.09 566.274C1073.81 566.532 1074.59 567.022 1075.05 567.666C1075.57 568.362 1075.85 569.445 1075.85 570.373C1075.85 571.688 1075.33 573.183 1074.12 574.291C1072.65 575.632 1070.98 575.786 1069.59 575.786C1067.91 575.786 1066.08 575.529 1064.56 574.008C1063.58 573.002 1062.83 571.482 1062.65 569.754H1066.62C1066.67 570.425 1066.98 571.224 1067.45 571.688C1067.86 572.1 1068.53 572.384 1069.35 572.384C1070.02 572.384 1070.67 572.178 1071.08 571.791C1071.49 571.404 1071.78 570.734 1071.78 570.038C1071.78 569.316 1071.44 568.723 1071.03 568.388C1070.41 567.898 1069.51 567.847 1068.92 567.847H1068.61V565.114H1068.84C1069.07 565.114 1070 565.089 1070.57 564.625C1070.93 564.315 1071.21 563.774 1071.21 563.078C1071.21 562.485 1070.98 561.995 1070.64 561.686C1070.33 561.402 1069.82 561.17 1069.17 561.17C1068.5 561.17 1067.96 561.402 1067.63 561.737C1067.27 562.124 1067.03 562.794 1067.01 563.336Z" fill="white"/>
<rect x="1107.32" y="529.032" width="75.4886" height="75.4886" fill="#A6A1FF" stroke="#1D1D1B" stroke-width="1.01499"/>
<rect x="1182.81" y="529.032" width="75.4886" height="75.4886" fill="#A6A1FF" stroke="#1D1D1B" stroke-width="1.01499"/>
<rect x="1258.3" y="529.032" width="75.4886" height="75.4886" fill="#A6A1FF" stroke="#1D1D1B" stroke-width="1.01499"/>
<rect x="1333.79" y="529.032" width="75.4886" height="75.4886" fill="#A6A1FF" stroke="#1D1D1B" stroke-width="1.01499"/>
<rect x="-25.0042" y="604.536" width="75.4886" height="75.4886" stroke="#1D1D1B" stroke-width="1.01499"/>
<rect x="50.4841" y="604.536" width="75.4886" height="75.4886" fill="#A6A1FF" stroke="#1D1D1B" stroke-width="1.01499"/>
<rect x="125.972" y="604.536" width="75.4886" height="75.4886" fill="#A6A1FF" stroke="#1D1D1B" stroke-width="1.01499"/>
<rect x="201.463" y="604.536" width="75.4886" height="75.4886" fill="#A6A1FF" stroke="#1D1D1B" stroke-width="1.01499"/>
<rect x="276.951" y="604.536" width="75.4886" height="75.4886" stroke="#1D1D1B" stroke-width="1.01499"/>
<rect x="352.439" y="604.536" width="75.4886" height="75.4886" stroke="#1D1D1B" stroke-width="1.01499"/>
<rect x="427.927" y="604.536" width="75.4886" height="75.4886" stroke="#1D1D1B" stroke-width="1.01499"/>
<rect x="503.416" y="604.536" width="75.4886" height="75.4886" stroke="#1D1D1B" stroke-width="1.01499"/>
<rect x="578.904" y="604.536" width="75.4886" height="75.4886" stroke="#1D1D1B" stroke-width="1.01499"/>
<rect x="654.394" y="604.536" width="75.4886" height="75.4886" stroke="#1D1D1B" stroke-width="1.01499"/>
<rect x="729.882" y="604.536" width="75.4886" height="75.4886" stroke="#1D1D1B" stroke-width="1.01499"/>
<rect x="805.371" y="604.536" width="75.4886" height="75.4886" stroke="#1D1D1B" stroke-width="1.01499"/>
<rect x="880.859" y="604.536" width="75.4886" height="75.4886" stroke="#1D1D1B" stroke-width="1.01499"/>
<rect x="956.347" y="604.536" width="75.4886" height="75.4886" stroke="#1D1D1B" stroke-width="1.01499"/>
<rect x="1031.84" y="604.536" width="75.4886" height="75.4886" stroke="#1D1D1B" stroke-width="1.01499"/>
<rect x="1107.32" y="604.536" width="75.4886" height="75.4886" stroke="#1D1D1B" stroke-width="1.01499"/>
<rect x="1182.81" y="604.536" width="75.4886" height="75.4886" stroke="#1D1D1B" stroke-width="1.01499"/>
<rect x="1258.3" y="604.536" width="75.4886" height="75.4886" stroke="#1D1D1B" stroke-width="1.01499"/>
<rect x="1333.79" y="604.536" width="75.4886" height="75.4886" stroke="#1D1D1B" stroke-width="1.01499"/>
<rect x="-25.0042" y="680.04" width="75.4886" height="75.4886" stroke="#1D1D1B" stroke-width="1.01499"/>
<rect x="50.4841" y="680.04" width="75.4886" height="75.4886" stroke="#1D1D1B" stroke-width="1.01499"/>
<rect x="125.972" y="680.04" width="75.4886" height="75.4886" stroke="#1D1D1B" stroke-width="1.01499"/>
<rect x="201.463" y="680.04" width="75.4886" height="75.4886" fill="#A6A1FF" stroke="#1D1D1B" stroke-width="1.01499"/>
<rect x="276.951" y="680.04" width="75.4886" height="75.4886" stroke="#1D1D1B" stroke-width="1.01499"/>
<rect x="352.439" y="680.04" width="75.4886" height="75.4886" stroke="#1D1D1B" stroke-width="1.01499"/>
<rect x="427.927" y="680.04" width="75.4886" height="75.4886" stroke="#1D1D1B" stroke-width="1.01499"/>
<rect x="503.416" y="680.04" width="75.4886" height="75.4886" stroke="#1D1D1B" stroke-width="1.01499"/>
<rect x="578.904" y="680.04" width="75.4886" height="75.4886" stroke="#1D1D1B" stroke-width="1.01499"/>
<rect x="654.394" y="680.04" width="75.4886" height="75.4886" stroke="#1D1D1B" stroke-width="1.01499"/>
<rect x="729.882" y="680.04" width="75.4886" height="75.4886" stroke="#1D1D1B" stroke-width="1.01499"/>
<rect x="805.371" y="680.04" width="75.4886" height="75.4886" stroke="#1D1D1B" stroke-width="1.01499"/>
<rect x="880.859" y="680.04" width="75.4886" height="75.4886" stroke="#1D1D1B" stroke-width="1.01499"/>
<rect x="956.347" y="680.04" width="75.4886" height="75.4886" stroke="#1D1D1B" stroke-width="1.01499"/>
<rect x="1031.84" y="680.04" width="75.4886" height="75.4886" stroke="#1D1D1B" stroke-width="1.01499"/>
<rect x="1107.32" y="680.04" width="75.4886" height="75.4886" stroke="#1D1D1B" stroke-width="1.01499"/>
<rect x="1182.81" y="680.04" width="75.4886" height="75.4886" stroke="#1D1D1B" stroke-width="1.01499"/>
<rect x="1258.3" y="680.04" width="75.4886" height="75.4886" stroke="#1D1D1B" stroke-width="1.01499"/>
<rect x="1333.79" y="680.04" width="75.4886" height="75.4886" stroke="#1D1D1B" stroke-width="1.01499"/>
<rect x="-25.0042" y="755.543" width="75.4886" height="75.4886" stroke="#1D1D1B" stroke-width="1.01499"/>
<rect x="50.4841" y="755.543" width="75.4886" height="75.4886" stroke="#1D1D1B" stroke-width="1.01499"/>
<rect x="125.972" y="755.543" width="75.4886" height="75.4886" stroke="#1D1D1B" stroke-width="1.01499"/>
<rect x="201.463" y="755.543" width="75.4886" height="75.4886" fill="#A6A1FF" stroke="#1D1D1B" stroke-width="1.01499"/>
<path d="M239.587 802.63C238.04 802.63 236.416 802.553 234.895 801.186C233.58 800 233.245 798.583 233.245 797.448C233.245 795.979 233.89 795.051 234.405 794.51C234.972 793.917 235.797 793.453 236.545 793.221C236.107 793.04 235.514 792.731 234.972 792.164C234.199 791.365 233.915 790.488 233.915 789.431C233.915 787.988 234.457 786.957 235.179 786.235C236.442 784.946 238.092 784.662 239.638 784.662C241.133 784.662 242.783 784.946 244.046 786.235C244.768 786.957 245.309 787.988 245.309 789.431C245.309 790.488 245.026 791.365 244.253 792.164C243.711 792.731 243.118 793.04 242.68 793.221C243.428 793.453 244.253 793.917 244.82 794.51C245.335 795.051 245.98 795.979 245.98 797.448C245.98 798.583 245.645 800 244.33 801.186C242.809 802.553 241.211 802.63 239.587 802.63ZM239.612 787.601C239.071 787.601 238.556 787.756 238.092 788.168C237.653 788.581 237.447 789.07 237.447 789.638C237.447 790.359 237.782 790.823 238.092 791.107C238.478 791.442 238.994 791.674 239.612 791.674C240.154 791.674 240.669 791.519 241.108 791.107C241.546 790.695 241.752 790.231 241.752 789.638C241.752 788.787 241.288 788.323 241.108 788.142C240.747 787.833 240.231 787.601 239.612 787.601ZM239.561 794.819C238.891 794.819 238.298 795.077 237.937 795.438C237.524 795.85 237.267 796.546 237.267 797.139C237.267 797.758 237.473 798.428 237.937 798.866C238.375 799.279 239.02 799.485 239.612 799.485C240.205 799.485 240.85 799.279 241.288 798.866C241.675 798.505 241.958 797.861 241.958 797.113C241.958 796.392 241.675 795.799 241.288 795.438C240.876 795.025 240.231 794.819 239.561 794.819Z" fill="black"/>
<rect x="276.951" y="755.543" width="75.4886" height="75.4886" stroke="#1D1D1B" stroke-width="1.01499"/>
<rect x="352.439" y="755.543" width="75.4886" height="75.4886" stroke="#1D1D1B" stroke-width="1.01499"/>
<rect x="427.927" y="755.543" width="75.4886" height="75.4886" stroke="#1D1D1B" stroke-width="1.01499"/>
<rect x="503.416" y="755.543" width="75.4886" height="75.4886" stroke="#1D1D1B" stroke-width="1.01499"/>
<rect x="578.904" y="755.543" width="75.4886" height="75.4886" stroke="#1D1D1B" stroke-width="1.01499"/>
<rect x="654.394" y="755.543" width="75.4886" height="75.4886" stroke="#1D1D1B" stroke-width="1.01499"/>
<rect x="729.882" y="755.543" width="75.4886" height="75.4886" stroke="#1D1D1B" stroke-width="1.01499"/>
<rect x="805.371" y="755.543" width="75.4886" height="75.4886" stroke="#1D1D1B" stroke-width="1.01499"/>
<path d="M848.588 785.049V788.4H842.788L842.324 790.695C842.762 790.617 843.303 790.566 843.741 790.566C845.675 790.566 847.17 791.262 848.124 792.241C848.897 793.015 849.696 794.355 849.696 796.392C849.696 798.608 848.742 800.026 847.943 800.825C846.371 802.372 844.489 802.63 842.736 802.63C841.112 802.63 839.179 802.424 837.013 800.748L837.915 797.062C838.379 797.577 839.024 798.144 839.565 798.48C840.287 798.944 841.138 799.227 842.169 799.227C843.071 799.227 843.999 799.021 844.618 798.531C845.159 798.119 845.623 797.371 845.623 796.366C845.623 795.335 845.159 794.716 844.747 794.355C844.54 794.175 843.69 793.453 841.885 793.453C840.442 793.453 839.23 793.891 838.379 794.355L840.132 785.049H848.588Z" fill="black"/>
<rect x="880.859" y="755.543" width="75.4886" height="75.4886" stroke="#1D1D1B" stroke-width="1.01499"/>
<rect x="956.347" y="755.543" width="75.4886" height="75.4886" stroke="#1D1D1B" stroke-width="1.01499"/>
<rect x="1031.84" y="755.543" width="75.4886" height="75.4886" stroke="#1D1D1B" stroke-width="1.01499"/>
<rect x="1107.32" y="755.543" width="75.4886" height="75.4886" stroke="#1D1D1B" stroke-width="1.01499"/>
<rect x="1182.81" y="755.543" width="75.4886" height="75.4886" stroke="#1D1D1B" stroke-width="1.01499"/>
<rect x="1258.3" y="755.543" width="75.4886" height="75.4886" stroke="#1D1D1B" stroke-width="1.01499"/>
<rect x="1333.79" y="755.543" width="75.4886" height="75.4886" stroke="#1D1D1B" stroke-width="1.01499"/>
<rect x="-25.0042" y="831.047" width="75.4886" height="75.4886" stroke="#1D1D1B" stroke-width="1.01499"/>
<rect x="50.4841" y="831.047" width="75.4886" height="75.4886" stroke="#1D1D1B" stroke-width="1.01499"/>
<rect x="125.972" y="831.047" width="75.4886" height="75.4886" stroke="#1D1D1B" stroke-width="1.01499"/>
<rect x="201.463" y="831.047" width="75.4886" height="75.4886" fill="#A6A1FF" stroke="#1D1D1B" stroke-width="1.01499"/>
<rect x="276.951" y="831.047" width="75.4886" height="75.4886" stroke="#1D1D1B" stroke-width="1.01499"/>
<rect x="352.439" y="831.047" width="75.4886" height="75.4886" stroke="#1D1D1B" stroke-width="1.01499"/>
<rect x="427.927" y="831.047" width="75.4886" height="75.4886" stroke="#1D1D1B" stroke-width="1.01499"/>
<rect x="503.416" y="831.047" width="75.4886" height="75.4886" stroke="#1D1D1B" stroke-width="1.01499"/>
<rect x="578.904" y="831.047" width="75.4886" height="75.4886" stroke="#1D1D1B" stroke-width="1.01499"/>
<rect x="654.394" y="831.047" width="75.4886" height="75.4886" stroke="#1D1D1B" stroke-width="1.01499"/>
<rect x="729.882" y="831.047" width="75.4886" height="75.4886" stroke="#1D1D1B" stroke-width="1.01499"/>
<rect x="805.371" y="831.047" width="75.4886" height="75.4886" stroke="#1D1D1B" stroke-width="1.01499"/>
<rect x="880.859" y="831.047" width="75.4886" height="75.4886" stroke="#1D1D1B" stroke-width="1.01499"/>
<rect x="956.347" y="831.047" width="75.4886" height="75.4886" stroke="#1D1D1B" stroke-width="1.01499"/>
<rect x="1031.84" y="831.047" width="75.4886" height="75.4886" stroke="#1D1D1B" stroke-width="1.01499"/>
<rect x="1107.32" y="831.047" width="75.4886" height="75.4886" stroke="#1D1D1B" stroke-width="1.01499"/>
<rect x="1182.81" y="831.047" width="75.4886" height="75.4886" stroke="#1D1D1B" stroke-width="1.01499"/>
<rect x="1258.3" y="831.047" width="75.4886" height="75.4886" fill="#71861E" stroke="#1D1D1B" stroke-width="1.01499"/>
<path d="M1293.01 865.241H1289.19C1289.35 863.797 1289.99 862.276 1290.89 861.348C1292.16 860.034 1293.83 859.724 1295.25 859.724C1297.37 859.724 1298.89 860.369 1299.76 861.245C1300.48 861.941 1301.08 863.075 1301.08 864.751C1301.08 865.602 1300.92 866.349 1300.38 867.097C1300.02 867.612 1299.58 867.948 1299.09 868.18C1299.81 868.437 1300.59 868.927 1301.05 869.572C1301.57 870.268 1301.85 871.35 1301.85 872.278C1301.85 873.593 1301.33 875.088 1300.12 876.197C1298.65 877.537 1296.98 877.692 1295.59 877.692C1293.91 877.692 1292.08 877.434 1290.56 875.913C1289.58 874.908 1288.83 873.387 1288.65 871.66H1292.62C1292.67 872.33 1292.98 873.129 1293.45 873.593C1293.86 874.005 1294.53 874.289 1295.35 874.289C1296.02 874.289 1296.67 874.083 1297.08 873.696C1297.49 873.309 1297.78 872.639 1297.78 871.943C1297.78 871.221 1297.44 870.629 1297.03 870.293C1296.41 869.804 1295.51 869.752 1294.92 869.752H1294.61V867.02H1294.84C1295.07 867.02 1296 866.994 1296.57 866.53C1296.93 866.22 1297.21 865.679 1297.21 864.983C1297.21 864.39 1296.98 863.9 1296.64 863.591C1296.33 863.307 1295.82 863.075 1295.17 863.075C1294.5 863.075 1293.96 863.307 1293.63 863.643C1293.27 864.029 1293.03 864.7 1293.01 865.241Z" fill="white"/>
<rect x="1333.79" y="831.047" width="75.4886" height="75.4886" stroke="#1D1D1B" stroke-width="1.01499"/>
<rect x="-25.0042" y="906.55" width="75.4886" height="75.4886" stroke="#1D1D1B" stroke-width="1.01499"/>
<rect x="50.4841" y="906.55" width="75.4886" height="75.4886" stroke="#1D1D1B" stroke-width="1.01499"/>
<rect x="125.972" y="906.55" width="75.4886" height="75.4886" stroke="#1D1D1B" stroke-width="1.01499"/>
<rect x="201.463" y="906.55" width="75.4886" height="75.4886" fill="#A6A1FF" stroke="#1D1D1B" stroke-width="1.01499"/>
<rect x="276.951" y="906.55" width="75.4886" height="75.4886" stroke="#1D1D1B" stroke-width="1.01499"/>
<rect x="352.439" y="906.55" width="75.4886" height="75.4886" stroke="#1D1D1B" stroke-width="1.01499"/>
<rect x="427.927" y="906.55" width="75.4886" height="75.4886" stroke="#1D1D1B" stroke-width="1.01499"/>
<path d="M472.645 949.892V953.243H459.498L464.653 947.624C465.556 946.618 466.922 944.943 467.463 944.118C467.85 943.499 468.494 942.391 468.494 941.205C468.494 940.56 468.236 939.89 467.824 939.503C467.489 939.194 466.922 939.014 466.252 939.014C465.504 939.014 465.014 939.271 464.679 939.632C464.215 940.148 463.957 941.076 463.957 941.746H459.987C460.116 940.251 460.709 938.55 461.766 937.441C462.591 936.565 464.06 935.662 466.509 935.662C469.01 935.662 470.35 936.694 470.969 937.286C471.897 938.214 472.567 939.632 472.567 941.411C472.567 942.932 472.103 944.04 471.278 945.2C470.531 946.231 469.629 947.108 468.52 948.165L466.716 949.892H472.645Z" fill="black"/>
<rect x="503.416" y="906.55" width="75.4886" height="75.4886" stroke="#1D1D1B" stroke-width="1.01499"/>
<rect x="578.904" y="906.55" width="75.4886" height="75.4886" stroke="#1D1D1B" stroke-width="1.01499"/>
<rect x="654.394" y="906.55" width="75.4886" height="75.4886" stroke="#1D1D1B" stroke-width="1.01499"/>
<rect x="729.882" y="906.55" width="75.4886" height="75.4886" stroke="#1D1D1B" stroke-width="1.01499"/>
<rect x="805.371" y="906.55" width="75.4886" height="75.4886" stroke="#1D1D1B" stroke-width="1.01499"/>
<rect x="880.859" y="906.55" width="75.4886" height="75.4886" stroke="#1D1D1B" stroke-width="1.01499"/>
<rect x="956.347" y="906.55" width="75.4886" height="75.4886" stroke="#1D1D1B" stroke-width="1.01499"/>
<rect x="1031.84" y="906.55" width="75.4886" height="75.4886" stroke="#1D1D1B" stroke-width="1.01499"/>
<rect x="1107.32" y="906.55" width="75.4886" height="75.4886" stroke="#1D1D1B" stroke-width="1.01499"/>
<path d="M1151.64 949.892V953.243H1138.5L1143.65 947.624C1144.56 946.618 1145.92 944.943 1146.46 944.118C1146.85 943.499 1147.49 942.391 1147.49 941.205C1147.49 940.56 1147.24 939.89 1146.82 939.503C1146.49 939.194 1145.92 939.014 1145.25 939.014C1144.5 939.014 1144.01 939.271 1143.68 939.632C1143.22 940.148 1142.96 941.076 1142.96 941.746H1138.99C1139.12 940.251 1139.71 938.55 1140.77 937.441C1141.59 936.565 1143.06 935.662 1145.51 935.662C1148.01 935.662 1149.35 936.694 1149.97 937.286C1150.9 938.214 1151.57 939.632 1151.57 941.411C1151.57 942.932 1151.1 944.04 1150.28 945.2C1149.53 946.231 1148.63 947.108 1147.52 948.165L1145.72 949.892H1151.64Z" fill="black"/>
<rect x="1182.81" y="906.55" width="75.4886" height="75.4886" stroke="#1D1D1B" stroke-width="1.01499"/>
<rect x="1258.3" y="906.55" width="75.4886" height="75.4886" stroke="#1D1D1B" stroke-width="1.01499"/>
<rect x="1333.79" y="906.55" width="75.4886" height="75.4886" stroke="#1D1D1B" stroke-width="1.01499"/>
<rect x="-25.0042" y="982.053" width="75.4886" height="75.4886" stroke="#1D1D1B" stroke-width="1.01499"/>
<rect x="50.4841" y="982.053" width="75.4886" height="75.4886" stroke="#1D1D1B" stroke-width="1.01499"/>
<path d="M86.8338 1029.24V1015.4H84.3848V1012.05H90.8036V1029.24H86.8338Z" fill="black"/>
<rect x="125.972" y="982.053" width="75.4886" height="75.4886" stroke="#1D1D1B" stroke-width="1.01499"/>
<rect x="201.463" y="982.053" width="75.4886" height="75.4886" fill="#A6A1FF" stroke="#1D1D1B" stroke-width="1.01499"/>
<path d="M245.645 1025.89V1029.24H232.498L237.653 1023.62C238.556 1022.62 239.922 1020.94 240.463 1020.12C240.85 1019.5 241.494 1018.39 241.494 1017.2C241.494 1016.56 241.236 1015.89 240.824 1015.5C240.489 1015.19 239.922 1015.01 239.252 1015.01C238.504 1015.01 238.014 1015.27 237.679 1015.63C237.215 1016.15 236.957 1017.08 236.957 1017.75H232.987C233.116 1016.25 233.709 1014.55 234.766 1013.44C235.591 1012.56 237.06 1011.66 239.509 1011.66C242.01 1011.66 243.35 1012.69 243.969 1013.29C244.897 1014.21 245.567 1015.63 245.567 1017.41C245.567 1018.93 245.103 1020.04 244.278 1021.2C243.531 1022.23 242.629 1023.11 241.52 1024.16L239.716 1025.89H245.645Z" fill="black"/>
<rect x="276.951" y="982.053" width="75.4886" height="75.4886" stroke="#1D1D1B" stroke-width="1.01499"/>
<rect x="352.439" y="982.053" width="75.4886" height="75.4886" stroke="#1D1D1B" stroke-width="1.01499"/>
<rect x="427.927" y="982.053" width="75.4886" height="75.4886" stroke="#1D1D1B" stroke-width="1.01499"/>
<rect x="503.416" y="982.053" width="75.4886" height="75.4886" stroke="#1D1D1B" stroke-width="1.01499"/>
<rect x="578.904" y="982.053" width="75.4886" height="75.4886" stroke="#1D1D1B" stroke-width="1.01499"/>
<rect x="654.394" y="982.053" width="75.4886" height="75.4886" stroke="#1D1D1B" stroke-width="1.01499"/>
<rect x="729.882" y="982.053" width="75.4886" height="75.4886" stroke="#1D1D1B" stroke-width="1.01499"/>
<rect x="805.371" y="982.053" width="75.4886" height="75.4886" stroke="#1D1D1B" stroke-width="1.01499"/>
<rect x="880.859" y="982.053" width="75.4886" height="75.4886" stroke="#1D1D1B" stroke-width="1.01499"/>
<rect x="956.347" y="982.053" width="75.4886" height="75.4886" stroke="#1D1D1B" stroke-width="1.01499"/>
<rect x="956.347" y="982.053" width="75.4886" height="75.4886" stroke="#1D1D1B" stroke-width="1.01499"/>
<path d="M999.588 1012.05V1015.4H993.788L993.324 1017.69C993.762 1017.62 994.303 1017.57 994.741 1017.57C996.675 1017.57 998.17 1018.26 999.124 1019.24C999.897 1020.01 1000.7 1021.36 1000.7 1023.39C1000.7 1025.61 999.742 1027.03 998.943 1027.83C997.371 1029.37 995.489 1029.63 993.736 1029.63C992.112 1029.63 990.179 1029.42 988.013 1027.75L988.915 1024.06C989.379 1024.58 990.024 1025.14 990.565 1025.48C991.287 1025.94 992.138 1026.23 993.169 1026.23C994.071 1026.23 994.999 1026.02 995.618 1025.53C996.159 1025.12 996.623 1024.37 996.623 1023.37C996.623 1022.33 996.159 1021.72 995.747 1021.36C995.54 1021.17 994.69 1020.45 992.885 1020.45C991.442 1020.45 990.23 1020.89 989.379 1021.36L991.132 1012.05H999.588Z" fill="black"/>
<rect x="1031.84" y="982.053" width="75.4886" height="75.4886" stroke="#1D1D1B" stroke-width="1.01499"/>
<path d="M1069.87 1029.63L1065.62 1029.19L1070.15 1023.57C1069.56 1023.75 1068.99 1023.83 1068.43 1023.83C1066.57 1023.83 1065.05 1023.19 1064.1 1022.23C1063.17 1021.3 1062.6 1019.94 1062.6 1018.08C1062.6 1015.53 1063.76 1014.14 1064.28 1013.6C1065.95 1011.84 1068.3 1011.66 1069.66 1011.66C1072.37 1011.66 1073.92 1012.56 1074.82 1013.39C1075.67 1014.19 1076.57 1015.61 1076.57 1017.75C1076.57 1018.83 1076.31 1020.09 1075.8 1021.25C1075.36 1022.21 1074.59 1023.39 1073.79 1024.45L1069.87 1029.63ZM1069.64 1014.91C1068.84 1014.91 1068.09 1015.19 1067.58 1015.68C1067.24 1015.99 1066.67 1016.66 1066.67 1017.85C1066.67 1018.93 1067.06 1019.63 1067.55 1020.07C1068.09 1020.56 1068.86 1020.79 1069.64 1020.79C1070.51 1020.79 1071.24 1020.48 1071.73 1020.04C1072.14 1019.65 1072.6 1018.96 1072.6 1017.77C1072.6 1016.95 1072.34 1016.28 1071.73 1015.68C1071.31 1015.3 1070.64 1014.91 1069.64 1014.91Z" fill="black"/>
<rect x="1107.32" y="982.053" width="75.4886" height="75.4886" stroke="#1D1D1B" stroke-width="1.01499"/>
<rect x="1182.81" y="982.051" width="75.4936" height="75.4936" stroke="#1D1D1B" stroke-width="1.01"/>
<rect x="1258.3" y="982.053" width="75.4886" height="75.4886" stroke="#1D1D1B" stroke-width="1.01499"/>
<rect x="1333.79" y="982.053" width="75.4886" height="75.4886" stroke="#1D1D1B" stroke-width="1.01499"/>
<rect x="-25.0042" y="1057.56" width="75.4886" height="75.4886" stroke="#1D1D1B" stroke-width="1.01499"/>
<rect x="50.4841" y="1057.56" width="75.4886" height="75.4886" stroke="#1D1D1B" stroke-width="1.01499"/>
<rect x="125.972" y="1057.56" width="75.4886" height="75.4886" stroke="#1D1D1B" stroke-width="1.01499"/>
<rect x="201.463" y="1057.56" width="75.4886" height="75.4886" fill="#A6A1FF" stroke="#1D1D1B" stroke-width="1.01499"/>
<rect x="276.951" y="1057.56" width="75.4886" height="75.4886" stroke="#1D1D1B" stroke-width="1.01499"/>
<rect x="352.439" y="1057.56" width="75.4886" height="75.4886" stroke="#1D1D1B" stroke-width="1.01499"/>
<rect x="427.927" y="1057.56" width="75.4886" height="75.4886" stroke="#1D1D1B" stroke-width="1.01499"/>
<rect x="503.416" y="1057.56" width="75.4886" height="75.4886" fill="#71861E" stroke="#1D1D1B" stroke-width="1.01499"/>
<path d="M537.799 1092.74H533.984C534.139 1091.29 534.783 1089.77 535.686 1088.85C536.949 1087.53 538.624 1087.22 540.042 1087.22C542.156 1087.22 543.677 1087.87 544.553 1088.74C545.275 1089.44 545.868 1090.57 545.868 1092.25C545.868 1093.1 545.713 1093.85 545.172 1094.59C544.811 1095.11 544.373 1095.44 543.883 1095.68C544.605 1095.93 545.378 1096.42 545.842 1097.07C546.358 1097.76 546.641 1098.85 546.641 1099.78C546.641 1101.09 546.126 1102.59 544.914 1103.69C543.445 1105.03 541.769 1105.19 540.377 1105.19C538.702 1105.19 536.871 1104.93 535.351 1103.41C534.371 1102.4 533.623 1100.88 533.443 1099.16H537.413C537.464 1099.83 537.774 1100.63 538.238 1101.09C538.65 1101.5 539.32 1101.79 540.145 1101.79C540.816 1101.79 541.46 1101.58 541.872 1101.19C542.285 1100.81 542.568 1100.14 542.568 1099.44C542.568 1098.72 542.233 1098.13 541.821 1097.79C541.202 1097.3 540.3 1097.25 539.707 1097.25H539.398V1094.52H539.63C539.862 1094.52 540.79 1094.49 541.357 1094.03C541.718 1093.72 542.001 1093.18 542.001 1092.48C542.001 1091.89 541.769 1091.4 541.434 1091.09C541.125 1090.8 540.609 1090.57 539.965 1090.57C539.295 1090.57 538.753 1090.8 538.418 1091.14C538.057 1091.53 537.825 1092.2 537.799 1092.74Z" fill="white"/>
<rect x="578.904" y="1057.56" width="75.4886" height="75.4886" stroke="#1D1D1B" stroke-width="1.01499"/>
<rect x="654.394" y="1057.56" width="75.4886" height="75.4886" stroke="#1D1D1B" stroke-width="1.01499"/>
<rect x="729.882" y="1057.56" width="75.4886" height="75.4886" stroke="#1D1D1B" stroke-width="1.01499"/>
<rect x="805.371" y="1057.56" width="75.4886" height="75.4886" stroke="#1D1D1B" stroke-width="1.01499"/>
<rect x="880.859" y="1057.56" width="75.4886" height="75.4886" stroke="#1D1D1B" stroke-width="1.01499"/>
<rect x="956.347" y="1057.56" width="75.4886" height="75.4886" stroke="#1D1D1B" stroke-width="1.01499"/>
<rect x="1031.84" y="1057.56" width="75.4886" height="75.4886" stroke="#1D1D1B" stroke-width="1.01499"/>
<path d="M1074.59 1087.05V1097.85H1076.65V1101H1074.59V1104.24H1070.77V1101H1062.37V1098.73L1069.95 1087.05H1074.59ZM1066.54 1097.85H1070.77V1091.17L1066.54 1097.85Z" fill="black"/>
<rect x="1107.32" y="1057.56" width="75.4886" height="75.4886" stroke="#1D1D1B" stroke-width="1.01499"/>
<rect x="1182.81" y="1057.56" width="75.4886" height="75.4886" stroke="#1D1D1B" stroke-width="1.01499"/>
<rect x="1258.3" y="1057.56" width="75.4886" height="75.4886" stroke="#1D1D1B" stroke-width="1.01499"/>
<rect x="1333.79" y="1057.56" width="75.4886" height="75.4886" stroke="#1D1D1B" stroke-width="1.01499"/>
<path d="M-92 906.105L1410 906.105" stroke="#1D1D1B" stroke-width="3.04496"/>
<path d="M-84 681.105L1410 681.105" stroke="#1D1D1B" stroke-width="3.04496"/>
<path d="M-84 454.105L1410 454.105" stroke="#1D1D1B" stroke-width="3.04496"/>
<path d="M-84 226.105L1410 226.105" stroke="#1D1D1B" stroke-width="3.04496"/>
<path d="M1182 0.105469V1133.11" stroke="#1D1D1B" stroke-width="3.04496"/>
<path d="M956 0.105469V1133.11" stroke="#1D1D1B" stroke-width="3.04496"/>
<path d="M731 0.105469V1133.11" stroke="#1D1D1B" stroke-width="3.04496"/>
<path d="M277 0.105469V1133.11" stroke="#1D1D1B" stroke-width="3.04496"/>
<path d="M52 0.105469V1133.11" stroke="#1D1D1B" stroke-width="3.04496"/>
<path d="M504 0.105469V1133.11" stroke="#1D1D1B" stroke-width="3.04496"/>
</g>
<defs>
<clipPath id="clip0_4815_17627">
<rect width="1440" height="1134" fill="white"/>
</clipPath>
</defs>
</svg>
