<svg width="840" height="160" viewBox="0 0 840 160" fill="none" xmlns="http://www.w3.org/2000/svg">
<path d="M239.712 0.493604C273.007 0.493602 299.999 27.4847 299.999 60.78C299.999 94.0753 273.007 121.066 239.712 121.066C206.417 121.066 179.426 94.0753 179.426 60.78C179.426 27.4847 206.417 0.493605 239.712 0.493604Z" fill="#4C60ED"/>
<path d="M205.512 83.225C205.535 82.4602 206.17 81.862 206.928 81.8791L208.408 81.924C208.526 81.9261 219.909 82.2209 232.739 78.4395C228.679 75.8374 224.798 72.5346 221.716 69.048C214.823 61.2502 211.972 52.8499 213.472 44.753C214.609 38.6173 217.883 35.8272 220.431 34.5689C223.93 32.8384 228.355 32.9324 231.981 34.8146C234.879 36.3186 237.056 38.6152 238.648 40.2922C239.029 40.6939 239.52 41.2109 239.922 41.5954C240.318 41.2194 240.792 40.7174 241.196 40.2922C242.788 38.6152 244.966 36.3186 247.863 34.8146C251.487 32.9345 255.912 32.8384 259.413 34.5689C261.959 35.8272 265.233 38.6173 266.372 44.753C267.872 52.8499 265.022 61.2502 258.128 69.048C255.047 72.5346 251.165 75.8374 247.105 78.4395C259.864 82.1974 271.318 81.9282 271.435 81.924L272.916 81.877C273.282 81.8663 273.634 81.9987 273.9 82.253C274.169 82.5072 274.321 82.8512 274.334 83.2229L274.425 86.2117C274.448 86.9765 273.852 87.6196 273.092 87.6431L271.61 87.6901C270.967 87.7093 255.711 88.0981 239.922 82.1034C226.245 87.297 213.002 87.7029 209.256 87.7029C208.674 87.7029 208.325 87.6943 208.232 87.6901L206.752 87.6431C205.995 87.6196 205.396 86.9765 205.419 86.2117L205.51 83.2229L205.512 83.225ZM253.969 39.1023C252.744 39.1023 251.535 39.3928 250.477 39.944C248.433 41.0058 246.782 42.7448 245.326 44.2809C243.565 46.1374 242.043 47.7397 239.924 47.7397C237.806 47.7397 236.284 46.1374 234.523 44.2809C233.067 42.7448 231.416 41.0058 229.371 39.944C227.35 38.8951 224.829 38.8181 222.95 39.7496C220.956 40.7366 219.659 42.7769 219.096 45.8148C217.627 53.7408 222.031 60.7353 225.985 65.2089C230.648 70.4815 236.352 74.2202 239.926 75.878C243.501 74.2223 249.205 70.4836 253.868 65.2089C257.821 60.7374 262.226 53.7408 260.757 45.8148C260.194 42.7769 258.896 40.7366 256.903 39.7496C256.048 39.3266 255.036 39.1044 253.973 39.1044L253.969 39.1023Z" fill="#FFFCFA"/>
<path d="M198.586 155.472L198.81 153.376H197.338L197.45 152.144H198.938L199.21 149.616H197.722L197.85 148.384H199.338L199.562 146.304H201.338L201.114 148.384H203.29L203.514 146.304H205.274L205.066 148.384H206.554L206.426 149.616H204.922L204.666 152.144H206.17L206.042 153.376H204.538L204.314 155.472H202.538L202.762 153.376H200.586L200.362 155.472H198.586ZM200.714 152.144H202.89L203.162 149.616H200.986L200.714 152.144ZM215.814 145.504H217.638V152.08H219.446V153.696H217.638V156H215.766V153.696H210.502V152.272L215.814 145.504ZM215.862 148.304L212.742 152.272H215.862V148.304ZM227.81 156.224C226.898 156.224 226.103 156.008 225.426 155.576C224.754 155.139 224.231 154.515 223.858 153.704C223.484 152.893 223.298 151.92 223.298 150.784C223.298 149.611 223.49 148.627 223.874 147.832C224.263 147.032 224.796 146.429 225.474 146.024C226.156 145.613 226.935 145.408 227.81 145.408C229.02 145.408 229.964 145.701 230.642 146.288C231.324 146.875 231.762 147.637 231.954 148.576L229.938 148.944C229.772 148.4 229.508 147.96 229.146 147.624C228.783 147.288 228.338 147.12 227.81 147.12C227.346 147.12 226.927 147.256 226.554 147.528C226.18 147.795 225.882 148.2 225.658 148.744C225.439 149.288 225.33 149.968 225.33 150.784C225.33 151.552 225.426 152.213 225.618 152.768C225.815 153.323 226.098 153.749 226.466 154.048C226.834 154.347 227.282 154.496 227.81 154.496C228.487 154.496 229.01 154.317 229.378 153.96C229.751 153.597 229.938 153.136 229.938 152.576H231.954C231.954 153.349 231.786 154.008 231.45 154.552C231.119 155.091 230.644 155.504 230.026 155.792C229.407 156.08 228.668 156.224 227.81 156.224ZM240.718 156.224C239.849 156.224 239.084 155.997 238.422 155.544C237.761 155.091 237.244 154.472 236.87 153.688C236.502 152.899 236.318 152 236.318 150.992C236.318 149.803 236.505 148.792 236.878 147.96C237.252 147.128 237.774 146.496 238.446 146.064C239.124 145.627 239.913 145.408 240.814 145.408C241.502 145.408 242.11 145.536 242.638 145.792C243.166 146.043 243.582 146.397 243.886 146.856C244.19 147.315 244.356 147.851 244.382 148.464H242.366C242.308 148.048 242.158 147.72 241.918 147.48C241.678 147.24 241.332 147.12 240.878 147.12C240.057 147.12 239.406 147.483 238.926 148.208C238.446 148.928 238.206 149.909 238.206 151.152C238.206 151.312 238.209 151.485 238.214 151.672C238.225 151.859 238.244 152.037 238.27 152.208C238.356 151.552 238.542 151.037 238.83 150.664C239.124 150.291 239.476 150.027 239.886 149.872C240.297 149.712 240.729 149.632 241.182 149.632C241.833 149.632 242.406 149.773 242.902 150.056C243.398 150.339 243.788 150.728 244.07 151.224C244.353 151.72 244.494 152.288 244.494 152.928C244.494 153.584 244.334 154.16 244.014 154.656C243.7 155.152 243.257 155.539 242.686 155.816C242.121 156.088 241.465 156.224 240.718 156.224ZM240.718 154.496C241.22 154.496 241.649 154.347 242.006 154.048C242.364 153.744 242.542 153.344 242.542 152.848C242.542 152.331 242.364 151.925 242.006 151.632C241.649 151.333 241.22 151.184 240.718 151.184C240.388 151.184 240.086 151.253 239.814 151.392C239.548 151.531 239.332 151.725 239.166 151.976C239.006 152.227 238.926 152.517 238.926 152.848C238.926 153.344 239.1 153.744 239.446 154.048C239.798 154.347 240.222 154.496 240.718 154.496ZM253.237 156.224C252.384 156.224 251.632 156.027 250.981 155.632C250.336 155.237 249.829 154.64 249.461 153.84C249.098 153.04 248.917 152.032 248.917 150.816C248.917 149.595 249.098 148.584 249.461 147.784C249.829 146.984 250.336 146.389 250.981 146C251.632 145.605 252.384 145.408 253.237 145.408C254.08 145.408 254.824 145.605 255.469 146C256.12 146.389 256.626 146.984 256.989 147.784C257.357 148.584 257.541 149.595 257.541 150.816C257.541 152.032 257.357 153.04 256.989 153.84C256.626 154.64 256.12 155.237 255.469 155.632C254.824 156.027 254.08 156.224 253.237 156.224ZM253.237 154.496C253.984 154.496 254.562 154.181 254.973 153.552C255.384 152.917 255.589 152.005 255.589 150.816C255.589 149.627 255.384 148.715 254.973 148.08C254.562 147.44 253.984 147.12 253.237 147.12C252.485 147.12 251.901 147.44 251.485 148.08C251.074 148.715 250.869 149.627 250.869 150.816C250.869 152.005 251.074 152.917 251.485 153.552C251.901 154.181 252.485 154.496 253.237 154.496ZM262.642 156V145.616H269.314V147.248H264.53V149.984H269.026V151.616H264.53V154.352H269.314V156H262.642ZM274.929 145.616H278.289C279.345 145.616 280.27 145.829 281.065 146.256C281.859 146.677 282.478 147.277 282.921 148.056C283.363 148.835 283.585 149.755 283.585 150.816C283.585 151.867 283.363 152.781 282.921 153.56C282.478 154.333 281.859 154.933 281.065 155.36C280.27 155.787 279.345 156 278.289 156H274.929V145.616ZM276.817 147.328V154.304H278.289C278.961 154.304 279.539 154.152 280.025 153.848C280.515 153.544 280.891 153.131 281.153 152.608C281.419 152.08 281.553 151.483 281.553 150.816C281.553 150.139 281.419 149.539 281.153 149.016C280.891 148.493 280.515 148.083 280.025 147.784C279.539 147.48 278.961 147.328 278.289 147.328H276.817Z" fill="#363131"/>
<path d="M60.2864 0.493604C93.5817 0.493602 120.573 27.4847 120.573 60.78C120.573 94.0753 93.5817 121.066 60.2864 121.066C26.9911 121.066 -1.17982e-06 94.0753 -2.6352e-06 60.78C-4.09058e-06 27.4847 26.9911 0.493605 60.2864 0.493604Z" fill="#C2C5FC"/>
<path d="M26.0864 83.225C26.1097 82.4602 26.7447 81.862 27.5024 81.8791L28.9818 81.924C29.1003 81.9261 40.4828 82.2209 53.313 78.4395C49.2535 75.8374 45.3719 72.5346 42.2903 69.048C35.3969 61.2502 32.546 52.8499 34.0466 44.753C35.1831 38.6173 38.4573 35.8272 41.0056 34.5689C44.5041 32.8384 48.9297 32.9324 52.5553 34.8146C55.4527 36.3186 57.6306 38.6152 59.2222 40.2922C59.6032 40.6939 60.0942 41.2109 60.4963 41.5954C60.8921 41.2194 61.3662 40.7174 61.7705 40.2922C63.3621 38.6152 65.5399 36.3186 68.4374 34.8146C72.0608 32.9345 76.4864 32.8384 79.9871 34.5689C82.5332 35.8272 85.8074 38.6173 86.9461 44.753C88.4467 52.8499 85.5958 61.2502 78.7024 69.048C75.6208 72.5346 71.7391 75.8374 67.6797 78.4395C80.4379 82.1974 91.8923 81.9282 92.0087 81.924L93.4903 81.877C93.8564 81.8663 94.2078 81.9987 94.4745 82.253C94.7432 82.5072 94.8956 82.8512 94.9083 83.2229L94.9993 86.2117C95.0226 86.9765 94.4258 87.6196 93.666 87.6431L92.1844 87.6901C91.541 87.7093 76.2853 88.0981 60.4963 82.1034C46.8196 87.297 33.5767 87.7029 29.8305 87.7029C29.2485 87.7029 28.8993 87.6943 28.8061 87.6901L27.3267 87.6431C26.569 87.6196 25.97 86.9765 25.9933 86.2117L26.0843 83.2229L26.0864 83.225ZM74.5435 39.1023C73.318 39.1023 72.1095 39.3928 71.0513 39.944C69.0067 41.0058 67.3559 42.7448 65.8997 44.2809C64.1388 46.1374 62.6171 47.7397 60.4984 47.7397C58.3798 47.7397 56.8581 46.1374 55.0972 44.2809C53.641 42.7448 51.9902 41.0058 49.9456 39.944C47.9244 38.8951 45.4036 38.8181 43.5242 39.7496C41.5305 40.7366 40.2331 42.7769 39.6701 45.8148C38.2012 53.7408 42.6056 60.7353 46.5592 65.2089C51.2219 70.4815 56.9258 74.2202 60.5006 75.878C64.0753 74.2223 69.7793 70.4836 74.4419 65.2089C78.3955 60.7374 82.7999 53.7408 81.3311 45.8148C80.7681 42.7769 79.4707 40.7366 77.4769 39.7496C76.6219 39.3266 75.6102 39.1044 74.5477 39.1044L74.5435 39.1023Z" fill="#4C60ED"/>
<path d="M19.5122 155.472L19.7362 153.376H18.2642L18.3762 152.144H19.8642L20.1362 149.616H18.6482L18.7762 148.384H20.2642L20.4882 146.304H22.2642L22.0402 148.384H24.2162L24.4402 146.304H26.2002L25.9922 148.384H27.4802L27.3522 149.616H25.8482L25.5922 152.144H27.0962L26.9682 153.376H25.4642L25.2402 155.472H23.4642L23.6882 153.376H21.5122L21.2882 155.472H19.5122ZM21.6402 152.144H23.8162L24.0882 149.616H21.9122L21.6402 152.144ZM36.3399 156.224C35.4279 156.224 34.6333 156.008 33.9559 155.576C33.2839 155.139 32.7613 154.515 32.3879 153.704C32.0146 152.893 31.8279 151.92 31.8279 150.784C31.8279 149.611 32.0199 148.627 32.4039 147.832C32.7933 147.032 33.3266 146.429 34.0039 146.024C34.6866 145.613 35.4653 145.408 36.3399 145.408C37.5506 145.408 38.4946 145.701 39.1719 146.288C39.8546 146.875 40.2919 147.637 40.4839 148.576L38.4679 148.944C38.3026 148.4 38.0386 147.96 37.6759 147.624C37.3133 147.288 36.8679 147.12 36.3399 147.12C35.8759 147.12 35.4573 147.256 35.0839 147.528C34.7106 147.795 34.4119 148.2 34.1879 148.744C33.9693 149.288 33.8599 149.968 33.8599 150.784C33.8599 151.552 33.9559 152.213 34.1479 152.768C34.3453 153.323 34.6279 153.749 34.9959 154.048C35.3639 154.347 35.8119 154.496 36.3399 154.496C37.0173 154.496 37.5399 154.317 37.9079 153.96C38.2813 153.597 38.4679 153.136 38.4679 152.576H40.4839C40.4839 153.349 40.3159 154.008 39.9799 154.552C39.6493 155.091 39.1746 155.504 38.5559 155.792C37.9373 156.08 37.1986 156.224 36.3399 156.224ZM45.0566 156V154.224C45.0566 153.643 45.1446 153.149 45.3206 152.744C45.4966 152.339 45.7579 151.997 46.1046 151.72C46.4566 151.437 46.8966 151.195 47.4246 150.992L49.5526 150.176C50.0166 149.989 50.3579 149.76 50.5766 149.488C50.8006 149.216 50.9126 148.88 50.9126 148.48C50.9126 148.08 50.7659 147.744 50.4726 147.472C50.1846 147.195 49.7712 147.056 49.2326 147.056C48.7152 147.056 48.2806 147.187 47.9286 147.448C47.5819 147.704 47.3819 148.08 47.3286 148.576H45.2326C45.2486 147.867 45.4326 147.277 45.7846 146.808C46.1366 146.339 46.6086 145.989 47.2006 145.76C47.7926 145.525 48.4592 145.408 49.2006 145.408C49.8992 145.408 50.5312 145.541 51.0966 145.808C51.6619 146.069 52.1099 146.437 52.4406 146.912C52.7766 147.381 52.9446 147.931 52.9446 148.56C52.9446 149.093 52.8459 149.563 52.6486 149.968C52.4566 150.373 52.1632 150.728 51.7686 151.032C51.3739 151.336 50.8752 151.605 50.2726 151.84L48.1286 152.672C47.7126 152.832 47.4112 153.011 47.2246 153.208C47.0379 153.4 46.9446 153.653 46.9446 153.968V154.272H52.8806V156H45.0566ZM61.9281 156.224C61.0161 156.224 60.2214 156.008 59.5441 155.576C58.8721 155.139 58.3494 154.515 57.9761 153.704C57.6027 152.893 57.4161 151.92 57.4161 150.784C57.4161 149.611 57.6081 148.627 57.9921 147.832C58.3814 147.032 58.9147 146.429 59.5921 146.024C60.2747 145.613 61.0534 145.408 61.9281 145.408C63.1387 145.408 64.0827 145.701 64.7601 146.288C65.4427 146.875 65.8801 147.637 66.0721 148.576L64.0561 148.944C63.8907 148.4 63.6267 147.96 63.2641 147.624C62.9014 147.288 62.4561 147.12 61.9281 147.12C61.4641 147.12 61.0454 147.256 60.6721 147.528C60.2987 147.795 60.0001 148.2 59.7761 148.744C59.5574 149.288 59.4481 149.968 59.4481 150.784C59.4481 151.552 59.5441 152.213 59.7361 152.768C59.9334 153.323 60.2161 153.749 60.5841 154.048C60.9521 154.347 61.4001 154.496 61.9281 154.496C62.6054 154.496 63.1281 154.317 63.4961 153.96C63.8694 153.597 64.0561 153.136 64.0561 152.576H66.0721C66.0721 153.349 65.9041 154.008 65.5681 154.552C65.2374 155.091 64.7627 155.504 64.1441 155.792C63.5254 156.08 62.7867 156.224 61.9281 156.224ZM74.4367 156.224C73.69 156.224 73.0314 156.096 72.4607 155.84C71.89 155.579 71.4394 155.2 71.1087 154.704C70.7834 154.208 70.6127 153.605 70.5967 152.896H72.5167C72.5167 153.429 72.7007 153.829 73.0687 154.096C73.4367 154.363 73.8927 154.496 74.4367 154.496C75.018 154.496 75.4927 154.309 75.8607 153.936C76.234 153.557 76.4207 153.093 76.4207 152.544C76.4207 151.477 75.706 150.944 74.2767 150.944H71.1087L71.5887 145.616H77.8127V147.344H73.1087L73.4767 146.8L73.1727 149.888L73.0127 149.712C73.2687 149.653 73.5727 149.611 73.9247 149.584C74.2767 149.552 74.5807 149.536 74.8367 149.536C75.9087 149.536 76.762 149.797 77.3967 150.32C78.0367 150.837 78.3567 151.579 78.3567 152.544C78.3567 153.232 78.194 153.856 77.8687 154.416C77.5434 154.971 77.0874 155.411 76.5007 155.736C75.914 156.061 75.226 156.224 74.4367 156.224ZM83.3652 156V145.616H89.9092V147.248H85.2532V149.984H89.5092V151.6H85.2532V156H83.3652ZM98.7712 156.224C97.8592 156.224 97.0645 156.008 96.3872 155.576C95.7152 155.139 95.1925 154.515 94.8192 153.704C94.4459 152.893 94.2592 151.92 94.2592 150.784C94.2592 149.611 94.4512 148.627 94.8352 147.832C95.2245 147.032 95.7579 146.429 96.4352 146.024C97.1179 145.613 97.8965 145.408 98.7712 145.408C99.9819 145.408 100.926 145.701 101.603 146.288C102.286 146.875 102.723 147.637 102.915 148.576L100.899 148.944C100.734 148.4 100.47 147.96 100.107 147.624C99.7445 147.288 99.2992 147.12 98.7712 147.12C98.3072 147.12 97.8885 147.256 97.5152 147.528C97.1419 147.795 96.8432 148.2 96.6192 148.744C96.4005 149.288 96.2912 149.968 96.2912 150.784C96.2912 151.552 96.3872 152.213 96.5792 152.768C96.7765 153.323 97.0592 153.749 97.4272 154.048C97.7952 154.347 98.2432 154.496 98.7712 154.496C99.4485 154.496 99.9712 154.317 100.339 153.96C100.713 153.597 100.899 153.136 100.899 152.576H102.915C102.915 153.349 102.747 154.008 102.411 154.552C102.081 155.091 101.606 155.504 100.987 155.792C100.369 156.08 99.6299 156.224 98.7712 156.224Z" fill="#363131"/>
<circle cx="419.712" cy="60.2859" r="60.2864" transform="rotate(-90 419.712 60.2859)" fill="#EAB31E"/>
<path d="M385.512 83.226C385.535 82.4612 386.17 81.863 386.928 81.8801L388.408 81.9249C388.526 81.9271 399.909 82.2219 412.739 78.4405C408.679 75.8384 404.798 72.5355 401.716 69.049C394.823 61.2512 391.972 52.8509 393.472 44.754C394.609 38.6183 397.883 35.8282 400.431 34.5698C403.93 32.8394 408.355 32.9334 411.981 34.8155C414.879 36.3195 417.056 38.6162 418.648 40.2932C419.029 40.6949 419.52 41.2119 419.922 41.5964C420.318 41.2204 420.792 40.7184 421.196 40.2932C422.788 38.6162 424.966 36.3195 427.863 34.8155C431.487 32.9355 435.912 32.8394 439.413 34.5698C441.959 35.8282 445.233 38.6183 446.372 44.754C447.872 52.8509 445.022 61.2512 438.128 69.049C435.047 72.5355 431.165 75.8384 427.105 78.4405C439.864 82.1984 451.318 81.9292 451.435 81.9249L452.916 81.8779C453.282 81.8673 453.634 81.9997 453.9 82.254C454.169 82.5082 454.321 82.8521 454.334 83.2239L454.425 86.2127C454.448 86.9775 453.852 87.6206 453.092 87.6441L451.61 87.6911C450.967 87.7103 435.711 88.0991 419.922 82.1044C406.245 87.298 393.002 87.7039 389.256 87.7039C388.674 87.7039 388.325 87.6953 388.232 87.6911L386.752 87.6441C385.995 87.6206 385.396 86.9775 385.419 86.2127L385.51 83.2239L385.512 83.226ZM433.969 39.1033C432.744 39.1033 431.535 39.3938 430.477 39.945C428.433 41.0068 426.782 42.7458 425.326 44.2819C423.565 46.1384 422.043 47.7407 419.924 47.7407C417.806 47.7407 416.284 46.1384 414.523 44.2819C413.067 42.7458 411.416 41.0068 409.371 39.945C407.35 38.896 404.829 38.8191 402.95 39.7506C400.956 40.7376 399.659 42.7778 399.096 45.8158C397.627 53.7418 402.031 60.7363 405.985 65.2099C410.648 70.4825 416.352 74.2211 419.926 75.879C423.501 74.2233 429.205 70.4846 433.868 65.2099C437.821 60.7384 442.226 53.7418 440.757 45.8158C440.194 42.7778 438.896 40.7376 436.903 39.7506C436.048 39.3276 435.036 39.1054 433.973 39.1054L433.969 39.1033Z" fill="#FFFCFA"/>
<path d="M380.61 155.472L380.834 153.376H379.362L379.474 152.144H380.962L381.234 149.616H379.746L379.874 148.384H381.362L381.586 146.304H383.362L383.138 148.384H385.314L385.538 146.304H387.298L387.09 148.384H388.578L388.45 149.616H386.946L386.69 152.144H388.194L388.066 153.376H386.562L386.338 155.472H384.562L384.786 153.376H382.61L382.386 155.472H380.61ZM382.738 152.144H384.914L385.186 149.616H383.01L382.738 152.144ZM393.646 156V145.616H400.318V147.248H395.534V149.984H400.03V151.616H395.534V154.352H400.318V156H393.646ZM404.796 156L408.332 145.616H410.7L414.092 156H412.108L411.388 153.76H407.532L406.796 156H404.796ZM408.012 152.336H410.94L409.484 147.872L408.012 152.336ZM418.828 156V145.616H423.02C423.82 145.616 424.484 145.741 425.012 145.992C425.54 146.237 425.935 146.568 426.196 146.984C426.457 147.4 426.588 147.861 426.588 148.368C426.588 148.955 426.423 149.456 426.092 149.872C425.767 150.288 425.308 150.581 424.716 150.752C425.105 150.832 425.455 150.979 425.764 151.192C426.073 151.405 426.316 151.675 426.492 152C426.673 152.325 426.764 152.699 426.764 153.12C426.764 153.451 426.705 153.784 426.588 154.12C426.476 154.456 426.279 154.768 425.996 155.056C425.719 155.339 425.337 155.568 424.852 155.744C424.372 155.915 423.767 156 423.036 156H418.828ZM420.716 154.352H422.988C423.591 154.352 424.031 154.232 424.308 153.992C424.591 153.747 424.732 153.419 424.732 153.008C424.732 152.597 424.588 152.269 424.3 152.024C424.012 151.773 423.575 151.648 422.988 151.648H420.716V154.352ZM420.716 147.248V150H422.94C423.5 150 423.924 149.877 424.212 149.632C424.505 149.381 424.652 149.04 424.652 148.608C424.652 148.197 424.508 147.869 424.22 147.624C423.937 147.373 423.516 147.248 422.956 147.248H420.716ZM435.603 156.224C435.054 156.224 434.523 156.149 434.011 156C433.499 155.851 433.04 155.629 432.635 155.336C432.23 155.043 431.907 154.68 431.667 154.248C431.432 153.811 431.315 153.307 431.315 152.736H433.299C433.32 153.099 433.43 153.413 433.627 153.68C433.824 153.941 434.091 154.144 434.427 154.288C434.768 154.427 435.16 154.496 435.603 154.496C436.254 154.496 436.763 154.347 437.131 154.048C437.499 153.749 437.683 153.371 437.683 152.912C437.683 152.613 437.608 152.357 437.459 152.144C437.31 151.925 437.08 151.76 436.771 151.648C436.462 151.531 436.067 151.472 435.587 151.472H434.211V149.984H435.379C435.987 149.984 436.464 149.853 436.811 149.592C437.158 149.331 437.331 148.976 437.331 148.528C437.331 148.128 437.182 147.795 436.883 147.528C436.584 147.256 436.136 147.12 435.539 147.12C435.054 147.12 434.619 147.219 434.235 147.416C433.856 147.613 433.614 147.957 433.507 148.448H431.523C431.598 147.739 431.811 147.16 432.163 146.712C432.52 146.264 432.982 145.936 433.547 145.728C434.112 145.515 434.75 145.408 435.459 145.408C436.211 145.408 436.88 145.531 437.467 145.776C438.054 146.021 438.515 146.363 438.851 146.8C439.192 147.232 439.363 147.733 439.363 148.304C439.363 148.832 439.219 149.293 438.931 149.688C438.643 150.077 438.216 150.368 437.651 150.56C438.28 150.773 438.784 151.091 439.163 151.512C439.542 151.933 439.731 152.459 439.731 153.088C439.731 153.701 439.558 154.245 439.211 154.72C438.87 155.189 438.39 155.557 437.771 155.824C437.152 156.091 436.43 156.224 435.603 156.224ZM446.212 145.552H447.636V156H445.748V147.808C445.465 147.936 445.188 148.035 444.916 148.104C444.644 148.173 444.372 148.208 444.1 148.208V146.4C444.463 146.363 444.815 146.28 445.156 146.152C445.497 146.019 445.849 145.819 446.212 145.552ZM453.483 156V145.616H460.155V147.248H455.371V149.984H459.867V151.616H455.371V154.352H460.155V156H453.483Z" fill="#363131"/>
<circle cx="599.712" cy="60.2859" r="59.8826" transform="rotate(-90 599.712 60.2859)" fill="#F7F4ED" stroke="#4C60ED" stroke-width="0.807692"/>
<path d="M565.512 83.226C565.535 82.4612 566.17 81.863 566.928 81.8801L568.408 81.9249C568.526 81.9271 579.909 82.2219 592.739 78.4405C588.679 75.8384 584.798 72.5355 581.716 69.049C574.823 61.2512 571.972 52.8509 573.472 44.754C574.609 38.6183 577.883 35.8282 580.431 34.5698C583.93 32.8394 588.355 32.9334 591.981 34.8155C594.879 36.3195 597.056 38.6162 598.648 40.2932C599.029 40.6949 599.52 41.2119 599.922 41.5964C600.318 41.2204 600.792 40.7184 601.196 40.2932C602.788 38.6162 604.966 36.3195 607.863 34.8155C611.487 32.9355 615.912 32.8394 619.413 34.5698C621.959 35.8282 625.233 38.6183 626.372 44.754C627.872 52.8509 625.022 61.2512 618.128 69.049C615.047 72.5355 611.165 75.8384 607.105 78.4405C619.864 82.1984 631.318 81.9292 631.435 81.9249L632.916 81.8779C633.282 81.8673 633.634 81.9997 633.9 82.254C634.169 82.5082 634.321 82.8521 634.334 83.2239L634.425 86.2127C634.448 86.9775 633.852 87.6206 633.092 87.6441L631.61 87.6911C630.967 87.7103 615.711 88.0991 599.922 82.1044C586.245 87.298 573.002 87.7039 569.256 87.7039C568.674 87.7039 568.325 87.6953 568.232 87.6911L566.752 87.6441C565.995 87.6206 565.396 86.9775 565.419 86.2127L565.51 83.2239L565.512 83.226ZM613.969 39.1033C612.744 39.1033 611.535 39.3938 610.477 39.945C608.433 41.0068 606.782 42.7458 605.326 44.2819C603.565 46.1384 602.043 47.7407 599.924 47.7407C597.806 47.7407 596.284 46.1384 594.523 44.2819C593.067 42.7458 591.416 41.0068 589.371 39.945C587.35 38.896 584.829 38.8191 582.95 39.7506C580.956 40.7376 579.659 42.7778 579.096 45.8158C577.627 53.7418 582.031 60.7363 585.985 65.2099C590.648 70.4825 596.352 74.2211 599.926 75.879C603.501 74.2233 609.205 70.4846 613.868 65.2099C617.821 60.7384 622.226 53.7418 620.757 45.8158C620.194 42.7778 618.896 40.7376 616.903 39.7506C616.048 39.3276 615.036 39.1054 613.973 39.1054L613.969 39.1033Z" fill="#4C60ED"/>
<path d="M559.852 155.472L560.076 153.376H558.604L558.716 152.144H560.204L560.476 149.616H558.988L559.116 148.384H560.604L560.828 146.304H562.604L562.38 148.384H564.556L564.78 146.304H566.54L566.332 148.384H567.82L567.692 149.616H566.188L565.932 152.144H567.436L567.308 153.376H565.804L565.58 155.472H563.804L564.028 153.376H561.852L561.628 155.472H559.852ZM561.98 152.144H564.156L564.428 149.616H562.252L561.98 152.144ZM572.904 156V145.616H579.448V147.248H574.792V149.984H579.048V151.6H574.792V156H572.904ZM583.75 156L588.502 147.44H583.43V145.616H590.726V147.424L586.294 156H583.75ZM595.367 156V145.616H601.911V147.248H597.255V149.984H601.511V151.6H597.255V156H595.367ZM611.173 145.504H612.997V152.08H614.805V153.696H612.997V156H611.125V153.696H605.861V152.272L611.173 145.504ZM611.221 148.304L608.101 152.272H611.221V148.304ZM619.377 156V145.616H626.049V147.248H621.265V149.984H625.761V151.616H621.265V154.352H626.049V156H619.377ZM631.663 145.616H635.023C636.079 145.616 637.004 145.829 637.799 146.256C638.594 146.677 639.212 147.277 639.655 148.056C640.098 148.835 640.319 149.755 640.319 150.816C640.319 151.867 640.098 152.781 639.655 153.56C639.212 154.333 638.594 154.933 637.799 155.36C637.004 155.787 636.079 156 635.023 156H631.663V145.616ZM633.551 147.328V154.304H635.023C635.695 154.304 636.274 154.152 636.759 153.848C637.25 153.544 637.626 153.131 637.887 152.608C638.154 152.08 638.287 151.483 638.287 150.816C638.287 150.139 638.154 149.539 637.887 149.016C637.626 148.493 637.25 148.083 636.759 147.784C636.274 147.48 635.695 147.328 635.023 147.328H633.551Z" fill="#363131"/>
<circle cx="779.712" cy="60.2859" r="60.2864" transform="rotate(-90 779.712 60.2859)" fill="#28292E"/>
<path d="M745.512 83.226C745.535 82.4612 746.17 81.863 746.928 81.8801L748.408 81.9249C748.526 81.9271 759.909 82.2219 772.739 78.4405C768.679 75.8384 764.798 72.5355 761.716 69.049C754.823 61.2512 751.972 52.8509 753.472 44.754C754.609 38.6183 757.883 35.8282 760.431 34.5698C763.93 32.8394 768.355 32.9334 771.981 34.8155C774.879 36.3195 777.056 38.6162 778.648 40.2932C779.029 40.6949 779.52 41.2119 779.922 41.5964C780.318 41.2204 780.792 40.7184 781.196 40.2932C782.788 38.6162 784.966 36.3195 787.863 34.8155C791.487 32.9355 795.912 32.8394 799.413 34.5698C801.959 35.8282 805.233 38.6183 806.372 44.754C807.872 52.8509 805.022 61.2512 798.128 69.049C795.047 72.5355 791.165 75.8384 787.105 78.4405C799.864 82.1984 811.318 81.9292 811.435 81.9249L812.916 81.8779C813.282 81.8673 813.634 81.9997 813.9 82.254C814.169 82.5082 814.321 82.8521 814.334 83.2239L814.425 86.2127C814.448 86.9775 813.852 87.6206 813.092 87.6441L811.61 87.6911C810.967 87.7103 795.711 88.0991 779.922 82.1044C766.245 87.298 753.002 87.7039 749.256 87.7039C748.674 87.7039 748.325 87.6953 748.232 87.6911L746.752 87.6441C745.995 87.6206 745.396 86.9775 745.419 86.2127L745.51 83.2239L745.512 83.226ZM793.969 39.1033C792.744 39.1033 791.535 39.3938 790.477 39.945C788.433 41.0068 786.782 42.7458 785.326 44.2819C783.565 46.1384 782.043 47.7407 779.924 47.7407C777.806 47.7407 776.284 46.1384 774.523 44.2819C773.067 42.7458 771.416 41.0068 769.371 39.945C767.35 38.896 764.829 38.8191 762.95 39.7506C760.956 40.7376 759.659 42.7778 759.096 45.8158C757.627 53.7418 762.031 60.7363 765.985 65.2099C770.648 70.4825 776.352 74.2211 779.926 75.879C783.501 74.2233 789.205 70.4846 793.868 65.2099C797.821 60.7384 802.226 53.7418 800.757 45.8158C800.194 42.7778 798.896 40.7376 796.903 39.7506C796.048 39.3276 795.036 39.1054 793.973 39.1054L793.969 39.1033Z" fill="#FFFCFA"/>
<path d="M738.743 155.472L738.967 153.376H737.495L737.607 152.144H739.095L739.367 149.616H737.879L738.007 148.384H739.495L739.719 146.304H741.495L741.271 148.384H743.447L743.671 146.304H745.431L745.223 148.384H746.711L746.583 149.616H745.079L744.823 152.144H746.327L746.199 153.376H744.695L744.471 155.472H742.695L742.919 153.376H740.743L740.519 155.472H738.743ZM740.871 152.144H743.047L743.319 149.616H741.143L740.871 152.144ZM751.266 156V154.224C751.266 153.643 751.354 153.149 751.53 152.744C751.706 152.339 751.968 151.997 752.314 151.72C752.666 151.437 753.106 151.195 753.634 150.992L755.762 150.176C756.226 149.989 756.568 149.76 756.786 149.488C757.01 149.216 757.122 148.88 757.122 148.48C757.122 148.08 756.976 147.744 756.682 147.472C756.394 147.195 755.981 147.056 755.442 147.056C754.925 147.056 754.49 147.187 754.138 147.448C753.792 147.704 753.592 148.08 753.538 148.576H751.442C751.458 147.867 751.642 147.277 751.994 146.808C752.346 146.339 752.818 145.989 753.41 145.76C754.002 145.525 754.669 145.408 755.41 145.408C756.109 145.408 756.741 145.541 757.306 145.808C757.872 146.069 758.32 146.437 758.65 146.912C758.986 147.381 759.154 147.931 759.154 148.56C759.154 149.093 759.056 149.563 758.858 149.968C758.666 150.373 758.373 150.728 757.978 151.032C757.584 151.336 757.085 151.605 756.482 151.84L754.338 152.672C753.922 152.832 753.621 153.011 753.434 153.208C753.248 153.4 753.154 153.653 753.154 153.968V154.272H759.09V156H751.266ZM768.042 156.224C767.151 156.224 766.378 156.093 765.722 155.832C765.066 155.565 764.557 155.205 764.194 154.752C763.837 154.293 763.658 153.776 763.658 153.2C763.658 152.709 763.789 152.291 764.05 151.944C764.311 151.597 764.669 151.331 765.122 151.144C765.575 150.957 766.085 150.864 766.65 150.864C766.874 150.864 767.082 150.883 767.274 150.92C767.466 150.957 767.69 151.008 767.946 151.072V151.536C767.493 151.536 767.09 151.603 766.738 151.736C766.386 151.869 766.109 152.048 765.906 152.272C765.709 152.496 765.61 152.741 765.61 153.008C765.61 153.317 765.719 153.584 765.938 153.808C766.157 154.027 766.45 154.197 766.818 154.32C767.186 154.437 767.594 154.496 768.042 154.496C768.874 154.496 769.49 154.389 769.89 154.176C770.29 153.957 770.49 153.68 770.49 153.344C770.49 153.077 770.391 152.851 770.194 152.664C770.002 152.472 769.733 152.309 769.386 152.176L766.426 151.04C766.069 150.901 765.703 150.709 765.33 150.464C764.962 150.219 764.65 149.912 764.394 149.544C764.138 149.176 764.01 148.741 764.01 148.24C764.01 147.664 764.167 147.165 764.482 146.744C764.802 146.317 765.261 145.989 765.858 145.76C766.461 145.525 767.189 145.408 768.042 145.408C768.799 145.408 769.482 145.536 770.09 145.792C770.698 146.048 771.181 146.4 771.538 146.848C771.895 147.296 772.074 147.808 772.074 148.384C772.074 148.784 771.965 149.155 771.746 149.496C771.527 149.837 771.21 150.115 770.794 150.328C770.378 150.536 769.877 150.64 769.29 150.64C769.087 150.64 768.901 150.624 768.73 150.592C768.559 150.555 768.362 150.501 768.138 150.432V149.888C768.49 149.888 768.815 149.832 769.114 149.72C769.418 149.603 769.661 149.443 769.842 149.24C770.029 149.032 770.122 148.789 770.122 148.512C770.122 148.229 770.034 147.984 769.858 147.776C769.682 147.568 769.437 147.408 769.122 147.296C768.813 147.179 768.453 147.12 768.042 147.12C767.653 147.12 767.301 147.173 766.986 147.28C766.671 147.381 766.421 147.523 766.234 147.704C766.053 147.885 765.962 148.091 765.962 148.32C765.962 148.581 766.053 148.797 766.234 148.968C766.415 149.133 766.677 149.285 767.018 149.424L770.074 150.608C770.837 150.901 771.421 151.243 771.826 151.632C772.237 152.016 772.442 152.555 772.442 153.248C772.442 153.824 772.269 154.336 771.922 154.784C771.581 155.232 771.082 155.584 770.426 155.84C769.77 156.096 768.975 156.224 768.042 156.224ZM777.058 156V154.224C777.058 153.643 777.146 153.149 777.322 152.744C777.498 152.339 777.759 151.997 778.106 151.72C778.458 151.437 778.898 151.195 779.426 150.992L781.554 150.176C782.018 149.989 782.359 149.76 782.578 149.488C782.802 149.216 782.914 148.88 782.914 148.48C782.914 148.08 782.767 147.744 782.474 147.472C782.186 147.195 781.772 147.056 781.234 147.056C780.716 147.056 780.282 147.187 779.93 147.448C779.583 147.704 779.383 148.08 779.33 148.576H777.234C777.25 147.867 777.434 147.277 777.786 146.808C778.138 146.339 778.61 145.989 779.202 145.76C779.794 145.525 780.46 145.408 781.202 145.408C781.9 145.408 782.532 145.541 783.098 145.808C783.663 146.069 784.111 146.437 784.442 146.912C784.778 147.381 784.946 147.931 784.946 148.56C784.946 149.093 784.847 149.563 784.65 149.968C784.458 150.373 784.164 150.728 783.77 151.032C783.375 151.336 782.876 151.605 782.274 151.84L780.13 152.672C779.714 152.832 779.412 153.011 779.226 153.208C779.039 153.4 778.946 153.653 778.946 153.968V154.272H784.882V156H777.058ZM793.417 156.224C792.702 156.224 792.06 156.085 791.489 155.808C790.918 155.525 790.465 155.139 790.129 154.648C789.793 154.152 789.625 153.579 789.625 152.928H791.593C791.614 153.408 791.788 153.789 792.113 154.072C792.444 154.355 792.857 154.496 793.353 154.496C793.934 154.496 794.404 154.331 794.761 154C795.118 153.664 795.377 153.195 795.537 152.592C795.702 151.989 795.785 151.285 795.785 150.48C795.785 150.32 795.78 150.165 795.769 150.016C795.764 149.861 795.748 149.701 795.721 149.536C795.62 150.123 795.428 150.597 795.145 150.96C794.862 151.317 794.518 151.579 794.113 151.744C793.713 151.904 793.278 151.984 792.809 151.984C792.164 151.984 791.593 151.845 791.097 151.568C790.606 151.285 790.22 150.899 789.937 150.408C789.654 149.912 789.513 149.344 789.513 148.704C789.513 148.043 789.67 147.464 789.985 146.968C790.305 146.472 790.745 146.088 791.305 145.816C791.87 145.544 792.521 145.408 793.257 145.408C793.876 145.408 794.452 145.533 794.985 145.784C795.524 146.035 795.993 146.392 796.393 146.856C796.793 147.315 797.105 147.864 797.329 148.504C797.558 149.144 797.673 149.856 797.673 150.64C797.673 151.776 797.516 152.763 797.201 153.6C796.886 154.437 796.414 155.085 795.785 155.544C795.156 155.997 794.366 156.224 793.417 156.224ZM793.273 150.432C793.598 150.432 793.897 150.363 794.169 150.224C794.446 150.085 794.668 149.893 794.833 149.648C794.998 149.403 795.081 149.12 795.081 148.8C795.081 148.288 794.9 147.883 794.537 147.584C794.18 147.285 793.753 147.136 793.257 147.136C792.761 147.136 792.337 147.285 791.985 147.584C791.638 147.883 791.465 148.288 791.465 148.8C791.465 149.312 791.641 149.712 791.993 150C792.345 150.288 792.772 150.432 793.273 150.432ZM802.271 156V154.224C802.271 153.643 802.359 153.149 802.535 152.744C802.711 152.339 802.972 151.997 803.319 151.72C803.671 151.437 804.111 151.195 804.639 150.992L806.767 150.176C807.231 149.989 807.572 149.76 807.791 149.488C808.015 149.216 808.127 148.88 808.127 148.48C808.127 148.08 807.98 147.744 807.687 147.472C807.399 147.195 806.985 147.056 806.447 147.056C805.929 147.056 805.495 147.187 805.143 147.448C804.796 147.704 804.596 148.08 804.543 148.576H802.447C802.463 147.867 802.647 147.277 802.999 146.808C803.351 146.339 803.823 145.989 804.415 145.76C805.007 145.525 805.673 145.408 806.415 145.408C807.113 145.408 807.745 145.541 808.311 145.808C808.876 146.069 809.324 146.437 809.655 146.912C809.991 147.381 810.159 147.931 810.159 148.56C810.159 149.093 810.06 149.563 809.863 149.968C809.671 150.373 809.377 150.728 808.983 151.032C808.588 151.336 808.089 151.605 807.487 151.84L805.343 152.672C804.927 152.832 804.625 153.011 804.439 153.208C804.252 153.4 804.159 153.653 804.159 153.968V154.272H810.095V156H802.271ZM815.35 156V145.616H822.022V147.248H817.238V149.984H821.734V151.616H817.238V154.352H822.022V156H815.35Z" fill="#363131"/>
</svg>
