<?xml version="1.0" encoding="UTF-8"?><svg id="a" xmlns="http://www.w3.org/2000/svg" width="922" height="179" viewBox="0 0 922 179"><circle cx="468.18281" cy="58.94659" r="9.40763" style="fill:#e9b31d; stroke-width:0px;"/><path d="M781.9536,96.65264h-28.70489c-11.86682,0-17.7767,7.99885-17.7767,17.93682s9.16787,16.04296,19.34823,16.04296h47.75073c5.09018,0,26.42045-1.30853,26.42045-10.79879,0-7.65181-9.96891-3.30505-25.4509-3.30505h-20.8455c-2.29272,0-4.18122-1.57553-4.18122-3.63584s1.87852-3.69644,3.93883-3.69644h5.49416c5.09398,0,11.14992-2.1076,11.14992-6.29001,0-4.66909-6.78691-6.25365-17.14312-6.25365Z" style="fill:#e9b31d; stroke-width:0px;"/><path d="M787.91128,43.47822c0-.07091,1.69596,7.04409,1.69596,18.36082,0,13.39971,9.22444,17.89891,15.70485,17.89891,8.31433,0,11.54769-6.0528,11.54769-11.31673,0-17.55248-28.9485-24.80449-28.9485-24.943Z" style="fill:#c5c9fa; stroke-width:0px;"/><path d="M798.15197,58.44056c.77679,0,18.83727,21.94445,18.83727,31.84858" style="fill:none; stroke:#28292e; stroke-linecap:round; stroke-linejoin:round; stroke-width:3.78772px;"/><path d="M506.6416,105.07969c0-15.31454-17.95501-27.72914-40.10349-27.72914-6.76794,0-13.12671,1.17441-18.71112,3.22352l.01046-.04078-9.83611-5.24151c-1.531-.81594-3.37914.29514-3.37673,2.03006l.01556,11.01052c-3.18327,2.90262-5.57341,6.2458-6.91551,9.88199-.37457-.05983-.75101-.11511-1.14248-.11511-3.99921,0-7.24125,3.24203-7.24125,7.24125v2.5082c0,3.99921,3.24203,7.24125,7.24125,7.24125.83231,0,1.619-.16931,2.36331-.42769,2.42126,4.53799,6.48031,8.52218,11.72289,11.58846-1.95815,2.82266-1.69306,6.71991.82158,9.23455v.00027c2.82803,2.82776,7.41297,2.82776,10.24099,0l1.77355-1.77355c.62168-.62195,1.08265-1.33781,1.43092-2.09204,3.67482.76711,7.56618,1.18917,11.60269,1.18917,3.91201,0,7.68236-.40542,11.25683-1.12772.34612.73089.79394,1.42609,1.39845,2.0306l1.77355,1.77355c2.82803,2.82776,7.41297,2.82776,10.24099,0v-.00027c2.46553-2.46553,2.77812-6.26539.9442-9.07356,8.85032-5.08642,14.48947-12.75268,14.48947-21.332Z" style="fill:#c5c9fa; stroke-width:0px;"/><path d="M501.53075,90.15664c6.68681,0,7.20904-6.18352,7.20904-6.20874" style="fill:none; stroke:#28292e; stroke-linecap:round; stroke-linejoin:round; stroke-width:3.78772px;"/><path d="M456.12073,91.37028c0-.0495,5.31975-1.59795,10.23495-1.59795,5.09725,0,10.6395,1.28193,10.6395,1.33499" style="fill:none; stroke:#28292e; stroke-linecap:round; stroke-linejoin:round; stroke-width:3.78772px;"/><rect x="95.21429" y="65.56597" width="94.53024" height="53.2604" style="fill:#c5c9fa; stroke-width:0px;"/><path d="M189.72489,78.73283h9.41082c.47275,0,.85656.38381.85656.85656v25.13916c0,.51382-.41716.93097-.93097.93097h-9.3364v-26.92669h0Z" style="fill:#4c60ed; stroke-width:0px;"/><rect x="106.70885" y="76.65027" width="10.26738" height="31.0918" style="fill:#fff6ee; stroke-width:0px;"/><rect x="127.84338" y="76.65027" width="10.26738" height="31.0918" style="fill:#fff6ee; stroke-width:0px;"/><path d="M175.69488,88.46627c0-1.81272-1.26597-6.41328-5.79718-6.41328-4.52405,0-6.33098,4.58369-6.48148,4.59849-.1505-.0148-1.95767-4.59849-6.48171-4.59849-4.53121,0-5.79718,4.60057-5.79718,6.41328,0,7.33594,9.94509,14.41527,12.16284,14.89775l-.00023.0467c.02936,0,.08161-.01896.11629-.02335.03468.00439.08669.02335.11605.02335l-.00023-.0467c2.21775-.48248,12.16284-7.56181,12.16284-14.89775Z" style="fill:#e9b31d; stroke-width:0px;"/><circle cx="91.86808" cy="133.13488" r="4.0259" style="fill:none; stroke:#28292e; stroke-linecap:round; stroke-linejoin:round; stroke-width:3.78772px;"/><line x1="191.4099" y1="38.38388" x2="191.4099" y2="41.78627" style="fill:none; stroke:#28292e; stroke-linecap:round; stroke-linejoin:round; stroke-width:3.78772px;"/><line x1="191.4099" y1="50.16722" x2="191.4099" y2="53.56961" style="fill:none; stroke:#28292e; stroke-linecap:round; stroke-linejoin:round; stroke-width:3.78772px;"/><line x1="199.00277" y1="45.97674" x2="195.60038" y2="45.97674" style="fill:none; stroke:#28292e; stroke-linecap:round; stroke-linejoin:round; stroke-width:3.78772px;"/><line x1="187.21943" y1="45.97674" x2="183.81704" y2="45.97674" style="fill:none; stroke:#28292e; stroke-linecap:round; stroke-linejoin:round; stroke-width:3.78772px;"/><line x1="476.46263" y1="38.10548" x2="476.46263" y2="41.50787" style="fill:none; stroke:#28292e; stroke-linecap:round; stroke-linejoin:round; stroke-width:3.78772px;"/><line x1="485.77184" y1="50.81708" x2="489.17423" y2="50.81708" style="fill:none; stroke:#28292e; stroke-linecap:round; stroke-linejoin:round; stroke-width:3.78772px;"/><line x1="484.65848" y1="42.62124" x2="482.25262" y2="45.02709" style="fill:none; stroke:#28292e; stroke-linecap:round; stroke-linejoin:round; stroke-width:3.78772px;"/><circle cx="824.7738" cy="42.12069" r="4.0259" style="fill:none; stroke:#28292e; stroke-linecap:round; stroke-linejoin:round; stroke-width:3.78772px;"/><line x1="764.54215" y1="63.32492" x2="764.54215" y2="66.72731" style="fill:none; stroke:#28292e; stroke-linecap:round; stroke-linejoin:round; stroke-width:3.78772px;"/><line x1="764.54215" y1="75.10826" x2="764.54215" y2="78.51064" style="fill:none; stroke:#28292e; stroke-linecap:round; stroke-linejoin:round; stroke-width:3.78772px;"/><line x1="772.13501" y1="70.91778" x2="768.73262" y2="70.91778" style="fill:none; stroke:#28292e; stroke-linecap:round; stroke-linejoin:round; stroke-width:3.78772px;"/><line x1="760.35167" y1="70.91778" x2="756.94928" y2="70.91778" style="fill:none; stroke:#28292e; stroke-linecap:round; stroke-linejoin:round; stroke-width:3.78772px;"/><circle cx="468.18281" cy="58.94659" r="9.40763" style="fill:none; stroke:#28292e; stroke-linecap:round; stroke-linejoin:round; stroke-width:3.78772px;"/><path d="M781.9536,96.65264h-28.70489c-11.86682,0-17.7767,7.99885-17.7767,17.93682s9.16787,16.04296,19.34823,16.04296h47.75073c5.09018,0,26.42045-1.30853,26.42045-10.79879,0-7.65181-9.96891-3.30505-25.4509-3.30505h-20.8455c-2.29272,0-4.18122-1.57553-4.18122-3.63584s1.87852-3.69644,3.93883-3.69644h5.49416c5.09398,0,11.14992-2.1076,11.14992-6.29001,0-4.66909-6.78691-6.25365-17.14312-6.25365Z" style="fill:none; stroke:#28292e; stroke-linecap:round; stroke-linejoin:round; stroke-width:3.78772px;"/><path d="M787.91128,43.47822c0-.07091,1.69596,7.04409,1.69596,18.36082,0,13.39971,9.22444,17.89891,15.70485,17.89891,8.31433,0,11.54769-6.0528,11.54769-11.31673,0-17.55248-28.9485-24.80449-28.9485-24.943Z" style="fill:none; stroke:#28292e; stroke-linecap:round; stroke-linejoin:round; stroke-width:3.78772px;"/><path d="M798.15197,58.44056c.77679,0,18.83727,21.94445,18.83727,31.84858" style="fill:none; stroke:#28292e; stroke-linecap:round; stroke-linejoin:round; stroke-width:3.78772px;"/><path d="M506.6416,105.07969c0-15.31454-17.95501-27.72914-40.10349-27.72914-6.76794,0-13.12671,1.17441-18.71112,3.22352l.01046-.04078-9.83611-5.24151c-1.531-.81594-3.37914.29514-3.37673,2.03006l.01556,11.01052c-3.18327,2.90262-5.57341,6.2458-6.91551,9.88199-.37457-.05983-.75101-.11511-1.14248-.11511-3.99921,0-7.24125,3.24203-7.24125,7.24125v2.5082c0,3.99921,3.24203,7.24125,7.24125,7.24125.83231,0,1.619-.16931,2.36331-.42769,2.42126,4.53799,6.48031,8.52218,11.72289,11.58846-1.95815,2.82266-1.69306,6.71991.82158,9.23455v.00027c2.82803,2.82776,7.41297,2.82776,10.24099,0l1.77355-1.77355c.62168-.62195,1.08265-1.33781,1.43092-2.09204,3.67482.76711,7.56618,1.18917,11.60269,1.18917,3.91201,0,7.68236-.40542,11.25683-1.12772.34612.73089.79394,1.42609,1.39845,2.0306l1.77355,1.77355c2.82803,2.82776,7.41297,2.82776,10.24099,0v-.00027c2.46553-2.46553,2.77812-6.26539.9442-9.07356,8.85032-5.08642,14.48947-12.75268,14.48947-21.332Z" style="fill:none; stroke:#28292e; stroke-linecap:round; stroke-linejoin:round; stroke-width:3.78772px;"/><path d="M501.53075,90.15664c6.68681,0,7.20904-6.18352,7.20904-6.20874" style="fill:none; stroke:#28292e; stroke-linecap:round; stroke-linejoin:round; stroke-width:3.78772px;"/><path d="M456.12073,91.37028c0-.0495,5.31975-1.59795,10.23495-1.59795,5.09725,0,10.6395,1.28193,10.6395,1.33499" style="fill:none; stroke:#28292e; stroke-linecap:round; stroke-linejoin:round; stroke-width:3.78772px;"/><rect x="95.21429" y="65.56597" width="94.53024" height="53.2604" style="fill:none; stroke:#28292e; stroke-linecap:round; stroke-linejoin:round; stroke-width:3.78772px;"/><path d="M189.72489,78.73283h9.41082c.47275,0,.85656.38381.85656.85656v25.13916c0,.51382-.41716.93097-.93097.93097h-9.3364v-26.92669h0Z" style="fill:none; stroke:#28292e; stroke-linecap:round; stroke-linejoin:round; stroke-width:3.78772px;"/><rect x="106.70885" y="76.65027" width="10.26738" height="31.0918" style="fill:none; stroke:#28292e; stroke-linecap:round; stroke-linejoin:round; stroke-width:3.78772px;"/><rect x="127.84338" y="76.65027" width="10.26738" height="31.0918" style="fill:none; stroke:#28292e; stroke-linecap:round; stroke-linejoin:round; stroke-width:3.78772px;"/><path d="M175.69488,88.46627c0-1.81272-1.26597-6.41328-5.79718-6.41328-4.52405,0-6.33098,4.58369-6.48148,4.59849-.1505-.0148-1.95767-4.59849-6.48171-4.59849-4.53121,0-5.79718,4.60057-5.79718,6.41328,0,7.33594,9.94509,14.41527,12.16284,14.89775l-.00023.0467c.02936,0,.08161-.01896.11629-.02335.03468.00439.08669.02335.11605.02335l-.00023-.0467c2.21775-.48248,12.16284-7.56181,12.16284-14.89775Z" style="fill:none; stroke:#28292e; stroke-linecap:round; stroke-linejoin:round; stroke-width:3.78772px;"/><circle cx="91.86808" cy="133.13488" r="4.0259" style="fill:none; stroke:#28292e; stroke-linecap:round; stroke-linejoin:round; stroke-width:3.78772px;"/><line x1="191.4099" y1="38.38388" x2="191.4099" y2="41.78627" style="fill:none; stroke:#28292e; stroke-linecap:round; stroke-linejoin:round; stroke-width:3.78772px;"/><line x1="191.4099" y1="50.16722" x2="191.4099" y2="53.56961" style="fill:none; stroke:#28292e; stroke-linecap:round; stroke-linejoin:round; stroke-width:3.78772px;"/><line x1="199.00277" y1="45.97674" x2="195.60038" y2="45.97674" style="fill:none; stroke:#28292e; stroke-linecap:round; stroke-linejoin:round; stroke-width:3.78772px;"/><line x1="187.21943" y1="45.97674" x2="183.81704" y2="45.97674" style="fill:none; stroke:#28292e; stroke-linecap:round; stroke-linejoin:round; stroke-width:3.78772px;"/><line x1="476.46263" y1="38.10548" x2="476.46263" y2="41.50787" style="fill:none; stroke:#28292e; stroke-linecap:round; stroke-linejoin:round; stroke-width:3.78772px;"/><line x1="485.77184" y1="50.81708" x2="489.17423" y2="50.81708" style="fill:none; stroke:#28292e; stroke-linecap:round; stroke-linejoin:round; stroke-width:3.78772px;"/><line x1="484.65848" y1="42.62124" x2="482.25262" y2="45.02709" style="fill:none; stroke:#28292e; stroke-linecap:round; stroke-linejoin:round; stroke-width:3.78772px;"/><circle cx="824.7738" cy="42.12069" r="4.0259" style="fill:none; stroke:#28292e; stroke-linecap:round; stroke-linejoin:round; stroke-width:3.78772px;"/><line x1="764.54215" y1="63.32492" x2="764.54215" y2="66.72731" style="fill:none; stroke:#28292e; stroke-linecap:round; stroke-linejoin:round; stroke-width:3.78772px;"/><line x1="764.54215" y1="75.10826" x2="764.54215" y2="78.51064" style="fill:none; stroke:#28292e; stroke-linecap:round; stroke-linejoin:round; stroke-width:3.78772px;"/><line x1="772.13501" y1="70.91778" x2="768.73262" y2="70.91778" style="fill:none; stroke:#28292e; stroke-linecap:round; stroke-linejoin:round; stroke-width:3.78772px;"/><line x1="760.35167" y1="70.91778" x2="756.94928" y2="70.91778" style="fill:none; stroke:#28292e; stroke-linecap:round; stroke-linejoin:round; stroke-width:3.78772px;"/></svg>