<?xml version="1.0" encoding="UTF-8"?><svg id="a" xmlns="http://www.w3.org/2000/svg" width="922" height="179" viewBox="0 0 922 179"><polygon points="460.0684 83.22431 445.19974 98.09297 439.54467 92.43789 432.28612 99.69645 437.94119 105.35152 431.90848 111.38423 426.34632 105.78129 419.38691 112.74069 424.92266 118.37006 419.04934 124.24337 426.16551 131.35954 467.18458 90.34048 460.0684 83.22431" style="fill:#e9b31d; stroke-width:0px;"/><path d="M499.14712,50.66086c-9.85261-9.85284-25.82722-9.85284-35.68006,0s-9.85284,25.82745,0,35.68006c9.85284,9.85284,25.82745,9.85284,35.68006,0,9.85284-9.85261,9.85284-25.82722,0-35.68006ZM491.50695,78.70074c-5.63304,5.63327-14.76643,5.63327-20.3997,0-5.63327-5.63327-5.63327-14.76643,0-20.3997,5.63327-5.63327,14.76667-5.63327,20.3997,0,5.63327,5.63327,5.63327,14.76643,0,20.3997Z" style="fill:#e9b31d; stroke-width:0px;"/><circle cx="150.32423" cy="53.97649" r="7.44952" style="fill:#e9b31d; stroke-width:0px;"/><circle cx="173.96038" cy="129.02351" r="7.44952" style="fill:#c5c9fa; stroke-width:0px;"/><circle cx="108.69015" cy="53.97649" r="7.44952" style="fill:#e9b31d; stroke-width:0px;"/><path d="M150.30576,61.65076v17.52925c0,9.49734-7.69911,17.19645-17.19645,17.19645h-4.81325c-10.80636,0-19.56665-8.76029-19.56665-19.56665v-15.15904" style="fill:none; stroke:#28292e; stroke-linecap:round; stroke-linejoin:round; stroke-width:3.78772px;"/><path d="M129.7935,97.10496v21.38288c0,5.65612,3.39138,12.22044,10.97885,12.22044s10.8409-5.80557,10.8409-11.91004v-8.89804c0-7.03566,4.90887-12.10547,10.97885-12.10547,8.82906,0,11.17428,7.31157,11.17428,12.00201v10.62246" style="fill:none; stroke:#28292e; stroke-linecap:round; stroke-linejoin:round; stroke-width:3.78772px;"/><circle cx="481.11226" cy="118.56993" r="4.0259" style="fill:none; stroke:#28292e; stroke-linecap:round; stroke-linejoin:round; stroke-width:3.78772px;"/><line x1="425.01687" y1="60.10432" x2="425.01687" y2="63.50671" style="fill:none; stroke:#28292e; stroke-linecap:round; stroke-linejoin:round; stroke-width:3.78772px;"/><line x1="425.01687" y1="71.88766" x2="425.01687" y2="75.29005" style="fill:none; stroke:#28292e; stroke-linecap:round; stroke-linejoin:round; stroke-width:3.78772px;"/><line x1="432.60973" y1="67.69719" x2="429.20734" y2="67.69719" style="fill:none; stroke:#28292e; stroke-linecap:round; stroke-linejoin:round; stroke-width:3.78772px;"/><line x1="420.8264" y1="67.69719" x2="417.42401" y2="67.69719" style="fill:none; stroke:#28292e; stroke-linecap:round; stroke-linejoin:round; stroke-width:3.78772px;"/><circle cx="173.09977" cy="72.65756" r="4.0259" style="fill:none; stroke:#28292e; stroke-linecap:round; stroke-linejoin:round; stroke-width:3.78772px;"/><line x1="97.98447" y1="108.16258" x2="97.98447" y2="111.56497" style="fill:none; stroke:#28292e; stroke-linecap:round; stroke-linejoin:round; stroke-width:3.78772px;"/><line x1="97.98447" y1="119.94592" x2="97.98447" y2="123.34831" style="fill:none; stroke:#28292e; stroke-linecap:round; stroke-linejoin:round; stroke-width:3.78772px;"/><line x1="105.57734" y1="115.75545" x2="102.17495" y2="115.75545" style="fill:none; stroke:#28292e; stroke-linecap:round; stroke-linejoin:round; stroke-width:3.78772px;"/><line x1="93.794" y1="115.75545" x2="90.39161" y2="115.75545" style="fill:none; stroke:#28292e; stroke-linecap:round; stroke-linejoin:round; stroke-width:3.78772px;"/><circle cx="758.18333" cy="45.78384" r="4.0259" style="fill:none; stroke:#28292e; stroke-linecap:round; stroke-linejoin:round; stroke-width:3.78772px;"/><line x1="830.48106" y1="99.25918" x2="830.48106" y2="102.66157" style="fill:none; stroke:#28292e; stroke-linecap:round; stroke-linejoin:round; stroke-width:3.78772px;"/><line x1="830.48106" y1="111.04252" x2="830.48106" y2="114.44491" style="fill:none; stroke:#28292e; stroke-linecap:round; stroke-linejoin:round; stroke-width:3.78772px;"/><line x1="838.07392" y1="106.85204" x2="834.67154" y2="106.85204" style="fill:none; stroke:#28292e; stroke-linecap:round; stroke-linejoin:round; stroke-width:3.78772px;"/><line x1="826.29059" y1="106.85204" x2="822.8882" y2="106.85204" style="fill:none; stroke:#28292e; stroke-linecap:round; stroke-linejoin:round; stroke-width:3.78772px;"/><circle cx="786.32009" cy="85.46257" r="11.51253" style="fill:#fff6ee; stroke-width:0px;"/><rect x="751.55744" y="100.32767" width="10.26738" height="27.83914" transform="translate(1372.53755 -340.02919) rotate(135)" style="fill:#4c60ed; stroke-width:0px;"/><path d="M768.54639,70.2975c-6.22193-6.22193-20.57005.73026-27.35252,7.51272-4.23219,4.23219-8.27825,10.35223-6.98902,11.64145.16816.16816,16.32166-.81882,16.38365-.88081.61659-.61659,17.95789-18.27337,17.95789-18.27337Z" style="fill:#e9b31d; stroke-width:0px;"/><path d="M800.81867,102.56978c6.22193,6.22193-.73026,20.57005-7.51272,27.35252-4.23219,4.23219-10.35223,8.27825-11.64145,6.98902-.16816-.16816.99818-16.14231,1.06017-16.20429.61659-.61659,18.09401-18.13725,18.09401-18.13725Z" style="fill:#e9b31d; stroke-width:0px;"/><line x1="741.87059" y1="120.44599" x2="735.49189" y2="126.82469" style="fill:none; stroke:#28292e; stroke-linecap:round; stroke-linejoin:round; stroke-width:3.78772px;"/><line x1="749.32983" y1="127.20811" x2="737.16499" y2="139.37295" style="fill:none; stroke:#28292e; stroke-linecap:round; stroke-linejoin:round; stroke-width:3.78772px;"/><path d="M820.62417,49.76484c-4.76679-4.76702-35.31964,4.73234-47.37197,16.78467l-28.21489,28.74453,31.05059,31.05059s20.64198-20.64198,28.77551-28.77551c12.20029-12.20029,20.52755-43.0375,15.76076-47.80429ZM794.46058,93.60317c-4.49584,4.49584-11.78508,4.49584-16.28115,0-4.49584-4.49607-4.49584-11.78531,0-16.28115,4.49607-4.49607,11.78531-4.49607,16.28115,0,4.49607,4.49584,4.49607,11.78508,0,16.28115Z" style="fill:#c5c9fa; stroke-width:0px;"/><polygon points="460.0684 83.22431 445.19974 98.09297 439.54467 92.43789 432.28612 99.69645 437.94119 105.35152 431.90848 111.38423 426.34632 105.78129 419.38691 112.74069 424.92266 118.37006 419.04934 124.24337 426.16551 131.35954 467.18458 90.34048 460.0684 83.22431" style="fill:none; stroke:#28292e; stroke-linecap:round; stroke-linejoin:round; stroke-width:3.78772px;"/><circle cx="481.30717" cy="68.50099" r="25.22965" style="fill:none; stroke:#28292e; stroke-linecap:round; stroke-linejoin:round; stroke-width:3.78772px;"/><circle cx="481.30717" cy="68.50099" r="14.42482" style="fill:none; stroke:#28292e; stroke-linecap:round; stroke-linejoin:round; stroke-width:3.78772px;"/><circle cx="150.32423" cy="53.97649" r="7.44952" style="fill:none; stroke:#28292e; stroke-linecap:round; stroke-linejoin:round; stroke-width:3.78772px;"/><circle cx="173.96038" cy="129.02351" r="7.44952" style="fill:none; stroke:#28292e; stroke-linecap:round; stroke-linejoin:round; stroke-width:3.78772px;"/><circle cx="108.69015" cy="53.97649" r="7.44952" style="fill:none; stroke:#28292e; stroke-linecap:round; stroke-linejoin:round; stroke-width:3.78772px;"/><path d="M150.30576,61.65076v17.52925c0,9.49734-7.69911,17.19645-17.19645,17.19645h-4.81325c-10.80636,0-19.56665-8.76029-19.56665-19.56665v-15.15904" style="fill:none; stroke:#28292e; stroke-linecap:round; stroke-linejoin:round; stroke-width:3.78772px;"/><path d="M129.7935,97.10496v21.38288c0,5.65612,3.39138,12.22044,10.97885,12.22044s10.8409-5.80557,10.8409-11.91004v-8.89804c0-7.03566,4.90887-12.10547,10.97885-12.10547,8.82906,0,11.17428,7.31157,11.17428,12.00201v10.62246" style="fill:none; stroke:#28292e; stroke-linecap:round; stroke-linejoin:round; stroke-width:3.78772px;"/><circle cx="481.11226" cy="118.56993" r="4.0259" style="fill:none; stroke:#28292e; stroke-linecap:round; stroke-linejoin:round; stroke-width:3.78772px;"/><line x1="425.01687" y1="60.10432" x2="425.01687" y2="63.50671" style="fill:none; stroke:#28292e; stroke-linecap:round; stroke-linejoin:round; stroke-width:3.78772px;"/><line x1="425.01687" y1="71.88766" x2="425.01687" y2="75.29005" style="fill:none; stroke:#28292e; stroke-linecap:round; stroke-linejoin:round; stroke-width:3.78772px;"/><line x1="432.60973" y1="67.69719" x2="429.20734" y2="67.69719" style="fill:none; stroke:#28292e; stroke-linecap:round; stroke-linejoin:round; stroke-width:3.78772px;"/><line x1="420.8264" y1="67.69719" x2="417.42401" y2="67.69719" style="fill:none; stroke:#28292e; stroke-linecap:round; stroke-linejoin:round; stroke-width:3.78772px;"/><circle cx="173.09977" cy="72.65756" r="4.0259" style="fill:none; stroke:#28292e; stroke-linecap:round; stroke-linejoin:round; stroke-width:3.78772px;"/><line x1="97.98447" y1="108.16258" x2="97.98447" y2="111.56497" style="fill:none; stroke:#28292e; stroke-linecap:round; stroke-linejoin:round; stroke-width:3.78772px;"/><line x1="97.98447" y1="119.94592" x2="97.98447" y2="123.34831" style="fill:none; stroke:#28292e; stroke-linecap:round; stroke-linejoin:round; stroke-width:3.78772px;"/><line x1="105.57734" y1="115.75545" x2="102.17495" y2="115.75545" style="fill:none; stroke:#28292e; stroke-linecap:round; stroke-linejoin:round; stroke-width:3.78772px;"/><line x1="93.794" y1="115.75545" x2="90.39161" y2="115.75545" style="fill:none; stroke:#28292e; stroke-linecap:round; stroke-linejoin:round; stroke-width:3.78772px;"/><circle cx="758.18333" cy="45.78384" r="4.0259" style="fill:none; stroke:#28292e; stroke-linecap:round; stroke-linejoin:round; stroke-width:3.78772px;"/><line x1="830.48106" y1="99.25918" x2="830.48106" y2="102.66157" style="fill:none; stroke:#28292e; stroke-linecap:round; stroke-linejoin:round; stroke-width:3.78772px;"/><line x1="830.48106" y1="111.04252" x2="830.48106" y2="114.44491" style="fill:none; stroke:#28292e; stroke-linecap:round; stroke-linejoin:round; stroke-width:3.78772px;"/><line x1="838.07392" y1="106.85204" x2="834.67154" y2="106.85204" style="fill:none; stroke:#28292e; stroke-linecap:round; stroke-linejoin:round; stroke-width:3.78772px;"/><line x1="826.29059" y1="106.85204" x2="822.8882" y2="106.85204" style="fill:none; stroke:#28292e; stroke-linecap:round; stroke-linejoin:round; stroke-width:3.78772px;"/><circle cx="786.32009" cy="85.46257" r="11.51253" style="fill:none; stroke:#28292e; stroke-linecap:round; stroke-linejoin:round; stroke-width:3.78772px;"/><path d="M773.25215,66.54961c12.05244-12.05244,42.60512-21.55162,47.37195-16.78479,4.76683,4.76683-3.56044,35.60413-15.76076,47.80445-8.13355,8.13355-28.77535,28.77535-28.77535,28.77535l-31.05061-31.05061,28.21476-28.74441Z" style="fill:none; stroke:#28292e; stroke-linecap:round; stroke-linejoin:round; stroke-width:3.78772px;"/><rect x="751.55744" y="100.32767" width="10.26738" height="27.83914" transform="translate(1372.53755 -340.02919) rotate(135)" style="fill:none; stroke:#28292e; stroke-linecap:round; stroke-linejoin:round; stroke-width:3.78772px;"/><path d="M768.54639,70.2975c-6.22193-6.22193-20.57005.73026-27.35252,7.51272-4.23219,4.23219-8.27825,10.35223-6.98902,11.64145.16816.16816,16.32166-.81882,16.38365-.88081.61659-.61659,17.95789-18.27337,17.95789-18.27337Z" style="fill:none; stroke:#28292e; stroke-miterlimit:10; stroke-width:3.78772px;"/><path d="M800.81867,102.56978c6.22193,6.22193-.73026,20.57005-7.51272,27.35252-4.23219,4.23219-10.35223,8.27825-11.64145,6.98902-.16816-.16816.99818-16.14231,1.06017-16.20429.61659-.61659,18.09401-18.13725,18.09401-18.13725Z" style="fill:none; stroke:#28292e; stroke-miterlimit:10; stroke-width:3.78772px;"/></svg>