<?xml version="1.0" encoding="UTF-8"?><svg id="a" xmlns="http://www.w3.org/2000/svg" width="800" height="800" viewBox="0 0 800 800"><path d="M484.17508,364.3865c-.03307-14.82388-5.04605-27.24878-18.24855-35.2894-2.01843-1.2243-2.74639-2.29968-1.75371-4.71519.56251-1.3732.97612-2.76293,1.307-4.15266-2.43204-.33088-4.78136-.79413-7.01485-1.47246-.46327,1.80334-1.57175,3.45779-2.31624,5.19497l2.15079,3.20964c.90995.5956,1.77025,1.29047,2.54784,2.13423.67833.72796,1.34012,1.48902,2.03499,2.20042.16543.16546.49631.38052.7445.61214,1.02575.66179,2.03497,1.35666,2.91182,2.18388,8.65276,8.07372,12.25945,18.38093,12.54073,29.91244.18202,7.47809,5.14536,11.7962,5.1288.19853l-.03312-.01654Z" style="fill:#fdf7ed;"/><path d="M462.68381,330.66882c.4798-.06617.95958-.18199,1.45592-.19853,1.40629-.06619,2.72983.16543,4.00376.51288-.39708-.72796-.76103-1.45592-1.15811-2.18388-.56251-1.02575-.76106-2.23349-1.14157-3.35853,1.07538-.23162,2.15079-.56251,3.22617-.6783,2.01843-.21509,4.89718.18197,4.79792-2.54787-.04963-1.65445-1.95226-3.78868-3.59015-4.74826-4.40084-2.58094-8.52043-5.26116-11.23372-9.79434-2.48167-4.13612-6.07183-7.44502-10.85318-8.37153-5.93947-1.15811-12.04439-1.43936-18.06658-2.2004-5.69131-.72796-11.38262-1.53865-17.05737-2.38241l-4.76482,3.67288c3.06074.46324,6.12146.99265,9.16564,1.47246,6.33654,1.00921,12.67309,2.0515,19.02616,2.97801,2.15079.31432,4.35121.49631,6.51853.43015,5.41006-.18199,8.91748,2.66366,12.02785,6.71706,2.54784,3.32543,5.54241,6.30345,9.00021,10.19141-5.74094-1.55519-10.53883-3.24273-14.49299-6.89905-.89339-.82722-1.96877-1.63791-3.11035-2.00189-.7445-.23162-1.73718.34745-2.63057.56251.24816.90995.21506,2.15079.81066,2.64713,2.74639,2.25005,5.44315,4.71519,8.5535,6.31998,4.41738,2.28315,7.0976,5.92293,9.46345,9.86053h.04963Z" style="fill:#fdf7ed;"/><path d="M479.06123,359.67131c1.04226,9.09947,1.68752,18.24857,1.62133,27.39767-.03307,3.68944-.18197,7.39539-.47975,11.0848-.28128,3.45782-.56256,5.7575-1.12506,8.98367-.46324,2.61403-1.02575,5.2115-1.75371,7.75937-.31435,1.10848-.66177,2.20042-1.04231,3.29234-.18197.5129-.36398,1.00921-.56251,1.50555-.0827.21509-.18197.43017-.26472.64523-.04963.13236-.26472.5956.01656-.04963-.04963.13236-.09926.24818-.16546.38052-.7114,1.62138-1.52209,3.20964-2.49821,4.68209-.89339,1.35666-1.86954,2.64713-2.72983,4.03686-3.87143,6.27038-6.4689,13.28522-7.79247,20.51518-.67833,3.75558-1.04231,7.56082-.46324,11.34952.26472,1.80334.82722,3.59015,1.72064,5.19497.97612,1.75371,2.44858,3.12691,3.90448,4.46701,1.45592,1.3401,2.64713,2.48167,3.12693,4.46698.44668,1.83646.49631,3.7887.66177,5.6748.36398,4.08649.66177,8.18949.97612,12.29254.31435,4.20231.6287,8.42114.97612,12.62345.14892,1.86954.31435,3.72251.49634,5.59205.19855,2.06806.51288,4.30153,0,6.30345-.89339,3.49086-4.45047,5.11224-7.08104,7.4119-1.62135,1.42285-2.81256,3.11037-3.83831,4.99647-.26472.47975-.52944.97612-.81069,1.45592-.09926.1654-.21509.34742-.31435.51288l-.16543.24816c-.28128.38049-.23165.33086.14889-.16546-.06619.01656-.31435.29779-.36398.34742.16543-.2316.54597-.36398.18199-.14889-.09926.04963-.18199.11582-.26472.16546-.26472.14889-.52941.28128-.79413.39705.52941-.19853-.56251.26472,0,0-.16546.06619-.33088.13238-.49634.18202-.46324.16546-.90995.31435-1.38973.44668-2.82912.84379-5.74094,1.38973-8.63623,1.8861-2.28315.38049-4.5663.72796-6.84942,1.02575-1.24084.16546-1.91917,1.77027-1.62138,2.86216.36398,1.34015,1.60482,1.80339,2.86222,1.62138,4.06993-.54595,8.13989-1.15808,12.14365-2.0515,2.15079-.4798,4.30158-1.04231,6.32001-1.95224,1.72062-.77759,2.6802-1.91917,3.60669-3.55711,1.09194-1.90261,1.80334-3.34197,3.34199-4.7317,1.42283-1.29047,2.79602-2.16732,4.35118-3.49091,1.47248-1.25735,2.81258-2.74634,3.59018-4.53317,1.05882-2.38241,1.14157-4.97991.94305-7.54428-.31435-3.92104-.69489-7.82556-.99268-11.7466-.64526-8.28876-1.04231-16.62719-2.01843-24.88293-.29779-2.58094-.97614-4.83096-2.64713-6.86593-1.27393-1.55519-2.91182-2.74639-4.25195-4.23541-.51288-.57904-.77759-.94302-1.22428-1.83644,0,0-.31435-.69487-.14889-.28125-.06619-.14889-.11582-.28125-.16546-.43015-.18199-.51288-.33088-1.04231-.46324-1.57172-.08273-.38054-.16546-.77759-.23162-1.17467-.13236-.76103.0331.43017-.04963-.33088,0-.16546-.0331-.33088-.04963-.47978-.08273-.97614-.09929-1.9688-.06619-2.94494.09926-3.20961.6287-5.93947,1.43939-9.2649,1.00919-4.16922,2.43202-7.97446,4.35118-11.7135,1.12504-2.18388,2.39895-4.31811,3.8218-6.33654.8603-1.2243,1.68752-2.46514,2.38241-3.78868,2.1342-4.05342,3.54049-8.48733,4.54974-12.9378,3.34197-14.74115,3.06069-30.29296,1.75371-45.24917-.21509-2.51477-.4798-5.013-.76108-7.52775-.14889-1.24084-.95956-2.33278-2.33273-2.33278-1.14157,0-2.48167,1.07538-2.33278,2.33278l-.04963.01654Z" style="fill:#fdf7ed;"/><path d="M445.27735,487.26245c-.34742,2.59745.08273,5.31077.57907,7.85863.23162,1.19121.52941,2.38241,1.05885,3.47435.56251,1.17464,1.32356,2.25003,1.95224,3.3916.38052.69484.76106,1.40629,1.09194,2.11769.16546.33091.31435.67833.46324,1.02575.13236.29779-.16546-.41361-.04963-.11582.0331.06619.06617.14889.08273.21509.08273.19853.14889.38054.21506.57907.24818.69489.46327,1.4228.61216,2.15076.01654.11582.09926.64526.04963.24821-.04963-.3971,0,.13233,0,.2316.01654.33091-.06619.7114-.01656,1.04231,0,.01656.09929-.54595.04966-.31435,0,.06619-.01656.13233-.0331.18202-.01656.09926-.04963.21504-.06619.3143-.06617.24821-.13233.4798-.21506.72796-.08273.26472-.18199.52944-.28125.77759-.01656.04963-.04963.09926-.06619.16546-.09926.26472.21509-.49631.09926-.2316-.06617.14889-.13236.29779-.19853.44668-.54597,1.19121-1.20774,2.34934-1.95224,3.44123-.21509.33091-.44671.64526-.67833.95961-.0331.04963-.08273.11582-.13236.16546-.28125.38049.24816-.31435.06617-.08275-.13236.14889-.24816.31435-.38052.4798-.46324.54595-.94302,1.07538-1.47246,1.55519-.11582.11582-.24816.21509-.36398.33086-.08273.08275-.51288.41361-.18199.14894.33088-.26472-.13236.0827-.21509.14889-.1158.0827-.24816.14889-.36396.2316-.11582.08275-.24818.13238-.36398.19853-.04963.03312-.13236.04963-.18199.08275,0,0,.57904-.21509.28125-.11582-.29781.09926-1.19121.24816-.24818.13233-.64523.08275-1.17464.19858-1.65445.67833-.39705.3971-.7114,1.05887-.6783,1.65445.04963,1.12506,1.02575,2.49823,2.33275,2.33278,1.60482-.19853,2.89529-.8603,4.15268-1.85297,1.02575-.81066,1.91914-1.77027,2.72983-2.79602,1.80334-2.29966,3.39163-4.88059,4.28502-7.67662,1.02578-3.2262-.06617-6.45239-1.42283-9.39731-.66177-1.43936-1.43936-2.81253-2.23349-4.18575-.31435-.52939-.6287-1.05882-.92649-1.58826-.23162-.41361.1158.31435.0827.19853-.03307-.09926-.0827-.19853-.1158-.29779-.08273-.26472-.16546-.51288-.24816-.77759-.18199-.67833-.33091-1.35666-.44671-2.03499-.06619-.38049-.13236-.74447-.18199-1.12501,0-.0827-.0331-.18197-.0331-.26472-.04963-.38049,0-.01651.01654.14889,0-.18197-.04963-.34742-.06617-.52939-.08273-.71145-.14889-1.42285-.18199-2.15081,0-.28123-.01654-.57907,0-.8603.01654-.28128.09926-1.19121-.0331-.16546.08273-.64521.11582-1.20777-.23162-1.78678-.28125-.4798-.84376-.94305-1.38973-1.07543-1.09194-.24816-2.69676.33091-2.86219,1.62138l-.0331-.03307Z" style="fill:#fdf7ed;"/><path d="M313.83302,298.35743c-.23162,1.32356.72796,2.58094,2.06806,2.7133,5.95603.57907,11.29989.81069,16.19707.81069,11.8624,0,21.12732-1.40629,30.22679-2.77949,14.90658-2.26659,28.96939-4.40084,53.42215.57907,1.25737.24816,2.48167-.56251,2.74639-1.8199.24816-1.25737-.56251-2.49821-1.8199-2.74639-25.26344-5.12878-39.72331-2.94492-55.06006-.61214-12.52417,1.90261-25.37924,3.85487-45.24919,1.9357-1.22428-.1158-2.33275.71143-2.53131,1.91917Z" style="fill:#fdf7ed;"/><path d="M419.4514,548.5267c-11.38262,0-18.95997-1.07538-19.75413-5.72443-.09926-.54595-.19853-1.14152-.33088-1.75371-.7445-3.83828-1.65445-8.60311.38052-12.6896,2.25005-4.51666,5.2777-5.11224,8.78515-5.80713.59558-.11582,1.24084-.24816,1.9357-.39705,1.24084-.28128,2.28312-.46324,3.12691-.6287.62867-.11582,1.307-.23165,1.72062-.34742v-.33091c0-3.65632-.5956-15.96542-9.03328-20.82951-.08273-.04963-.14892-.0827-.21509-.14889-3.1931-2.34934-6.25382-4.78138-9.09947-7.2465-8.73549-7.56084-18.28167-12.75579-28.37382-15.41948-16.06469-4.25192-31.73232-22.96374-30.49148-36.39786.11582-1.27393,1.24084-2.23352,2.53131-2.10116,1.27393.1158,2.21696,1.25737,2.10116,2.53131-1.10848,11.99476,14.5426,28.15873,27.03369,31.46763,10.77045,2.84563,20.94533,8.37148,30.22679,16.39557,2.72983,2.36585,5.65821,4.69863,8.71893,6.94871,10.50576,6.15455,11.26682,20.54823,11.25026,24.81674v.09926c.08273,4.10305-2.6471,4.61593-5.54239,5.14531-.82722.14889-1.78681.33091-2.94492.57907-.74452.16546-1.42283.29779-2.05153.43017-3.29236.66177-4.30158.8603-5.52585,3.3089-1.3401,2.6802-.61216,6.43578.03307,9.72817.11582.61214.23162,1.19121.33091,1.73715,2.06806,2.46511,19.60521,1.93573,25.39578,1.75371,2.36588-.06619,4.40084-.13233,5.97256-.13233h.06619c.57904,0,1.50553-.38054,1.78681-.66177,2.58094-2.71332,3.72251-5.54241,3.67285-9.13259-.26469-20.11811,3.77217-43.51199,3.80524-43.72708.64523-3.40816.46324-6.35308-.57904-9.01677-1.04231-2.64708-2.66366-4.21883-4.08649-5.59205-.33088-.33086-.66179-.62865-.94305-.92649-4.7648-4.94679-6.71706-12.98741-5.79057-23.87369.0331-.43015.19855-.84376.46324-1.20774,10.78702-14.4268,23.95644-37.88687,25.4289-67.73315.36398-7.42846,0-14.95621-1.12504-22.40123-.18199-1.27393.67833-2.4486,1.95226-2.64713,1.27391-.18199,2.46511.67833,2.6471,1.95226,1.15811,7.74281,1.55519,15.58491,1.17467,23.31118-1.50555,30.6404-14.84041,54.76225-25.94178,69.75158-.6783,9.16564.86032,15.75034,4.5663,19.60521.24816.24818.52941.52944.81066.81069,1.58828,1.53865,3.7887,3.65634,5.19497,7.24647,1.3401,3.44128,1.62138,7.34576.81069,11.58114-.6287,3.29239-3.97067,25.13109-3.72251,42.80059.06617,4.78138-1.55519,8.8348-4.94681,12.40837-1.32354,1.38978-3.59015,2.11769-5.16187,2.11769h-.06617c-1.50555,0-3.50745.06619-5.82367.13238-3.70598.11582-7.19686.19853-10.3734.19853v.01656Z" style="fill:#fdf7ed;"/><path d="M460.64884,361.24304c-.92649,0-1.8199-.56251-2.16732-1.48899-.23162-.57907-.43015-1.19121-.64523-1.78681-.6287-1.78681-1.2243-3.47435-2.18388-4.56627-9.11601-10.34031-5.64165-21.09423-1.67098-30.35915.51288-1.17464,1.88607-1.73718,3.06074-1.2243,1.17464.5129,1.73715,1.86954,1.22428,3.06074-4.46701,10.40647-5.75748,17.91769.87686,25.44544,1.55519,1.77025,2.36588,4.06993,3.07728,6.10492.19855.56251.38054,1.10848.5956,1.63789.46324,1.20774-.13236,2.54787-1.32356,3.01111-.28125.09926-.56251.16543-.84376.16543Z" style="fill:#fdf7ed;"/></svg>