<?xml version="1.0" encoding="UTF-8"?><svg id="a" xmlns="http://www.w3.org/2000/svg" width="800" height="800" viewBox="0 0 800 800"><path d="M334.97688,425.18751c.31435,1.09192.56253,2.20042.72796,3.34197.0331.16546.04963.31435.06619.4798,0-.08273-.04963-.43015,0,0,.03307.26472.06617.51288.08273.77759.04963.57904.09926,1.15811.1158,1.73718.09926,2.28312,0,4.58281-.16546,6.86595-.33088,4.6159-.97612,9.21529-.92649,13.84773.04963,4.71519.84379,9.44692,2.33278,13.91392.71143,2.13425,1.50555,4.30158,3.01111,6.02219.69487.77759,1.53863,1.42283,2.31622,2.10116.52944.44668,1.04231.90993,1.50555,1.4228.1158.13238.24816.26472.36398.3971.06617.0827.41361.52939.18199.21509-.23162-.31435.14889.19853.19853.28123.1158.16546.21509.31435.31435.4798.19853.33086.36398.66177.52941,1.00919.14892.31435-.06617-.13233-.06617-.1654,0,.11577.09926.24816.13236.36393.06617.21509.13236.41361.19853.6287.06619.21509.11582.44673.16546.67833.01654.09926.03307.18202.04963.28128v.14889c.06617.2316.04963.19853,0-.13238.18199.43017.09926,1.14157.09926,1.60482,0,1.12506.99268,2.21701,2.15079,2.15081,1.15811-.04963,2.16732-.94305,2.15079-2.15081-.01656-3.55706-1.30703-6.76669-3.85487-9.2649-.81069-.79413-1.72064-1.50555-2.58096-2.26659-.36396-.33088-.6783-.71143-1.02575-1.05885.46324.44671.24818.34742.13236.16543-.06617-.09926-.14889-.19853-.21509-.31432-.14889-.23162-.29779-.4798-.43015-.72796-.11582-.21509-.23162-.44671-.33088-.66179-.04963-.09926-.21509-.47978-.04963-.0827-.06619-.14892-.11582-.28128-.18199-.43017-.84379-2.15079-1.48902-4.36774-1.9688-6.6178-.11582-.54597-.21509-1.10848-.31435-1.65445-.04963-.26472-.08273-.52941-.13236-.77759-.0331-.16543-.04963-.33088-.06617-.49634-.0331-.24816.03307.29781,0-.1158-.14889-1.17467-.24818-2.36588-.29781-3.55706-.19853-4.63246.38054-9.24839.77759-13.86429.44671-5.2446.57907-10.60502-.89339-15.7338-.31435-1.09194-1.53865-1.86954-2.64713-1.50555s-1.83644,1.48899-1.50555,2.6471l.04963.01656Z" style="fill:#fdf7ed;"/><path d="M314.16557,309.22715c-1.45592-1.37317-4.08649-2.23349-5.956-2.87873-1.07541-.36398-2.39897.41361-2.64713,1.50555-.14889.69487,0,1.307.38052,1.80334-.43015.26472-1.24084,1.65445-1.40627,2.13423-.77759,2.21698-.57907,6.73362.5956,7.809,1.15811,1.05885,3.62322,1.3732,5.14534,1.32356,1.96877-.06617,4.03683-.72796,5.44313-2.10116.19853-.18199.56251-.89339.67833-1.12501.56251-1.15811,1.98533-4.45047-2.25005-8.4708h.01654Z" style="fill:#fdf7ed;"/><path d="M267.14779,317.36706c-1.15813,1.62135-1.63791,4.35118-2.01843,6.28689-.21509,1.1085.7445,2.31624,1.86951,2.41551.69487.06617,1.29047-.19853,1.73718-.6287.33088.38054,1.80334.99268,2.31624,1.09194,2.29968.46324,6.75013-.36398,7.64355-1.67098.89339-1.29047.86032-3.77214.5956-5.2777-.34745-1.9357-1.27393-3.9045-2.84565-5.09571-.21509-.16546-.95958-.43015-1.2243-.51288-1.22428-.39708-4.68209-1.3401-8.07369,3.40816v-.01654Z" style="fill:#fdf7ed;"/><path d="M428.88342,366.15675c-.44671,0-.87686-.13236-1.27393-.38052-1.07538-.71143-1.3732-2.15079-.66177-3.22617,3.88794-5.9064,6.91559-12.25947,8.98365-18.91037,1.55519-4.99642,4.79792-15.36982,2.84565-28.20836-1.09194-7.24647-2.05153-13.51685-6.84942-18.31474-8.81822-8.81822-23.47664-5.97256-26.32229-5.31079-1.25737.29781-2.49821-.49631-2.79602-1.73715-.29779-1.24084.49634-2.49823,1.73718-2.79602,3.27583-.76106,20.10157-4.00376,30.6735,6.5516,5.8733,5.8733,6.98178,13.18596,8.15642,20.91224,2.10116,13.89739-1.3401,24.96566-3.01108,30.29298-2.20042,7.06448-5.41006,13.83117-9.54618,20.08501-.44671.6783-1.19121,1.04229-1.95226,1.04229h.01656Z" style="fill:#fdf7ed;"/><path d="M461.90788,379.57434c-.44671,0-.87686-.13236-1.27393-.38052-1.07538-.71143-1.3732-2.15079-.66177-3.22617,3.88794-5.9064,6.91559-12.25947,8.98365-18.91037,1.55519-4.99642,4.79792-15.36982,2.84565-28.20836-1.09194-7.24647-2.0515-13.51685-6.84942-18.31474-8.81822-8.81822-23.47664-5.97256-26.32229-5.31079-1.25737.29781-2.49821-.49631-2.796-1.73715-.29781-1.24084.49631-2.49823,1.73715-2.79602,3.27583-.76106,20.10157-4.00376,30.6735,6.5516,5.8733,5.8733,6.98175,13.18596,8.15645,20.91224,2.10113,13.89739-1.3401,24.96566-3.01111,30.29296-2.20042,7.0645-5.41006,13.8312-9.54618,20.08504-.44671.6783-1.19121,1.04229-1.95224,1.04229h.01654Z" style="fill:#fdf7ed;"/><path d="M357.69248,556.12061h-8.90094c-6.48544-.01656-12.55726-.01656-19.86992.04963-1.29047.09926-1.72064-.24816-1.75371-.28128-.09929-.0827-.24818-.47975-.21509-1.3401.01654-1.12501-.09926-2.25003-.23162-3.37504-.09926-.82722-.19853-1.67101-.19853-2.49823-.06619-4.33465,2.26659-6.98178,6.89905-7.87519,6.41925-1.24084,13.53338-3.19307,16.57756-10.80355,1.58828-3.97067,3.27583-8.6693,3.77214-13.45068.71143-6.81632-1.72062-27.19915-2.97799-33.75075-.89342-4.649-1.90263-9.91013-6.76672-14.06282-2.25005-1.90261-4.36774-3.93757-6.40271-6.02219,1.47246,2.39895,2.18388,5.14534,2.10116,7.87519.52941.46324.99265.97612,1.52209,1.42283,3.72251,3.16,4.5332,7.44502,5.32733,11.59765,1.307,6.83288,3.52398,26.60357,2.91182,32.4934-.44671,4.23539-2.01843,8.60316-3.49089,12.29254-2.23349,5.59205-7.61045,7.06453-13.40102,8.18954-6.68399,1.29047-10.47267,5.72438-10.38994,12.16021,0,.97612.1158,1.95224.23162,2.92836.1158.94305.21506,1.86954.19853,2.81258-.0331,1.96875.44671,3.42467,1.47246,4.45042,1.35664,1.37322,3.29236,1.55519,4.68209,1.55519h.16543c7.29613-.0827,13.35142-.06614,19.82032-.06614h9.38072c-.36398-1.38973-.52944-2.84565-.4798-4.30158h.01656Z" style="fill:#fdf7ed;"/><path d="M499.3464,476.07835c.23165-1.40629-.90993-2.64713-2.33278-2.51474-21.92145,1.95224-45.3319,4.61588-48.02866,5.14531-.84376.16546-1.68752.34742-2.54784.51288l-4.45047.90998c-3.62325.72796-7.37885,1.48899-11.03517,2.49818-2.16732.59563-3.65634,3.29239-4.11959,4.96335-3.39163,12.09402-16.4783,54.64645-18.3313,57.67412-.79413,1.29047-2.46511,1.9688-4.41738,2.7629-2.53131,1.00924-5.65821,2.26664-7.67664,5.44315-.31435.4798-.79413,1.3401-1.3732,2.36585-.82722,1.45592-2.44858,4.30158-3.2758,5.41008h-9.24836c-6.63436-.01656-12.82198-.03312-20.3001.04963-1.307.13233-1.72062-.24816-1.75371-.28128-.09926-.0827-.24818-.4798-.23162-1.3401.01654-1.12501-.09926-2.25003-.23162-3.37509-.09926-.82722-.19855-1.67096-.19855-2.49818-.06617-4.33465,2.26661-6.98178,6.89907-7.87519,6.41925-1.24084,13.53338-3.20964,16.56103-10.80355,1.58828-3.97067,3.2758-8.6693,3.77214-13.45068.71143-6.81632-1.72062-27.19915-2.96145-33.75075-.13236-.7114-.24818-1.43936-.36398-2.20045-.64523-4.20226-1.50555-9.97633-6.98178-12.19326-2.49823-1.00921-4.99644-1.91917-7.41195-2.79602-8.88438-3.20964-19.25779-9.94326-19.25779-9.94326-1.62135-1.17464-2.72983.94305-2.10113,1.95226,3.88794,6.25382,11.69694,9.06637,19.88646,12.02783,2.36588.86035,4.81445,1.7372,7.2465,2.72988,2.97801,1.20772,3.65634,4.30153,4.35121,8.86782.1158.82722.24816,1.62138.39705,2.36585,1.30703,6.84944,3.52398,26.60357,2.91185,32.4934-.44671,4.25195-2.00189,8.60311-3.49089,12.30911-2.23352,5.59205-7.61048,7.06448-13.38449,8.17298-6.68399,1.29047-10.47267,5.72438-10.38994,12.16016,0,.97617.1158,1.95229.23162,2.92841.09926.94305.21506,1.86954.19853,2.81253-.0331,1.9688.44671,3.42472,1.47246,4.45047,1.35664,1.35666,3.29236,1.55519,4.68209,1.55519h.16543c7.46158-.0827,13.63267-.06619,20.25047-.06619h10.05905c1.73718,0,2.72983-1.43936,6.22072-7.57735.52944-.94305.99268-1.73715,1.27393-2.18388,1.27393-2.00187,3.40816-2.86216,5.65821-3.75558,2.43204-.97612,4.96335-1.98536,6.502-4.5001,2.34931-3.85484,16.04815-48.95514,18.79454-58.7495.24816-.89337.90993-1.83641,1.12501-1.98531,3.50742-.97612,7.1803-1.70408,10.73738-2.41553l6.96522-1.4228c2.5975-.49631,26.09064-3.09381,47.59848-5.02954.99268-.0827,1.78683-.82722,1.93573-1.80334v-.04963Z" style="fill:#fdf7ed;"/><path d="M368.26605,544.60566l-3.9872-1.60482c1.43936-3.59018,2.87873-6.83288,4.26846-9.97633,5.93949-13.43417,10.63812-24.03914,10.53886-49.08753h4.30155c.09929,25.94175-4.99642,37.47326-10.90281,50.82468-1.3732,3.11037-2.79602,6.30345-4.20229,9.82743l-.01656.01656Z" style="fill:#fdf7ed;"/><path d="M334.08515,424.65807c-1.67101,0-3.25927-.29779-4.76482-.90995-5.09571-2.0515-8.4046-4.97988-9.86053-8.73549-2.34931-6.10492.82722-12.62343,2.91185-16.92501.34742-.72796.79413-1.62135,1.07538-2.31622-1.73718-.66179-5.22807-1.8199-8.61967-2.96148-11.26682-3.75561-28.30763-9.43035-34.51181-13.98009l-.31435-.23162c-19.75413-14.37717-25.57779-35.65338-16.44523-59.90761,2.66366-7.04794,9.24836-7.79244,13.59957-8.27225,1.24084-.13233,3.12691-.34742,3.54052-.69487,1.45592-1.19121,2.11769-6.38617,1.95224-8.12333-.69487-6.79979,1.91917-11.94512,7.77593-15.30365.82722-.46327,1.15811-.87688,1.22428-.97614,2.94492-8.63623,10.30721-12.22638,17.81842-14.80731,9.1822-3.14344,24.22113-2.58094,25.52814-2.53131,8.30534-.08273,16.66031.46324,24.88293,1.65445,2.97801.43015,6.08836.66177,9.36419.92649,10.83662.82722,23.12919,1.77027,32.39409,10.63812,14.45989,13.8312,14.79078,44.25651.87688,77.49439-.49634,1.19121-1.853,1.73718-3.04421,1.24084s-1.73718-1.85297-1.24084-3.04418c13.16943-31.43453,13.25215-59.82489.19855-72.31598-8.05718-7.72627-18.97653-8.5535-29.53193-9.36419-3.20964-.24816-6.53507-.49631-9.67854-.95958-8.00753-1.15811-16.14741-1.68752-24.22113-1.60479h-.13236c-.14889,0-15.30365-.66179-23.87369,2.28312-7.59392,2.61403-12.73925,5.50932-14.93967,11.94512-.56251,1.62135-2.10116,2.77949-3.29236,3.47435-4.23539,2.41548-5.956,5.8402-5.45969,10.78699.13236,1.32356.0331,9.1822-3.62322,12.19331-1.47246,1.20774-3.55708,1.43936-5.98912,1.72062-4.74826.52944-8.22261,1.2243-9.76124,5.29423-8.45424,22.43435-3.32543,41.27853,14.82385,54.49756l.33091.23162c5.62512,4.11959,22.9141,9.87706,33.23788,13.31832,7.3292,2.44858,9.7778,3.29236,10.75392,3.9376,2.48167,1.65445,1.04231,4.63246-.49634,7.77591-1.85297,3.80524-4.38428,9.00021-2.76293,13.21906.95958,2.49821,3.39163,4.53317,7.2465,6.08836,2.76293,1.10848,6.17109.57907,10.15832-1.57172,15.28709-8.25571,32.94006-37.15894,33.66802-40.84835.24818-1.25737,1.47246-2.06806,2.72986-1.83644,1.25737.24816,2.0846,1.47246,1.83644,2.72983-1.02578,5.21153-19.5225,35.09088-35.98427,44.02489-3.34199,1.8199-6.48544,2.7133-9.38072,2.7133v.0331Z" style="fill:#fdf7ed;"/><path d="M483.92693,316.09313c.66177,1.67098-.7263,3.4247-2.49657,3.16-3.45779-.49634-7.13065-1.10848-11.00208-1.83644-1.25737-.23162-2.10113-1.45592-1.85297-2.7133.23162-1.2574,1.45592-2.10116,2.7133-1.853,3.80524.71143,7.39536,1.30703,10.80358,1.80337.82722.1158,1.52206.66177,1.81985,1.43936h.01489Z" style="fill:#fdf7ed;"/><path d="M309.94508,387.76385c-3.7887,0-7.66011-.43015-11.51498-1.27391-7.41192-1.63791-14.29444-4.91372-20.43243-9.69507-1.00921-.79415-1.19121-2.25005-.39708-3.27583.79413-1.00921,2.25005-1.19118,3.2758-.39705,5.59205,4.36774,11.82933,7.3292,18.57948,8.81822,11.76313,2.61403,23.46008.81066,32.97316-5.04607,3.8714-2.38241,7.29613-5.37696,10.22451-8.90094.82722-.99265,2.28312-1.12501,3.2758-.31435.99265.82722,1.12501,2.28315.31435,3.27583-3.24273,3.92104-7.0645,7.24647-11.36608,9.91013-7.39539,4.5663-15.98196,6.91561-24.916,6.91561l-.01654-.01656Z" style="fill:#fdf7ed;"/><path d="M317.77392,337.28662c-5.50932,0-10.24104-1.3401-14.11245-3.98723-3.63978-2.49821-5.47622-5.47622-7.08104-8.10679-1.40629-2.29968-2.74639-4.46701-5.22807-6.32001-4.26848-3.19307-10.4892-4.20229-18.46366-3.04418-1.25737.19853-2.44858-.69487-2.6471-1.9688-.18199-1.27391.69487-2.44858,1.9688-2.6471,9.24836-1.35666,16.62722-.04963,21.92145,3.9045,3.19307,2.38239,4.83099,5.04605,6.40271,7.61045,1.50555,2.4486,2.92838,4.76482,5.74094,6.68399,3.85487,2.6471,8.93402,3.63978,15.07203,2.96145,1.27393-.13236,2.43204.77759,2.5644,2.06806.13236,1.27393-.77759,2.43204-2.06806,2.5644-1.40629.14889-2.77949.23162-4.08649.23162l.01654.04963Z" style="fill:#fdf7ed;"/><path d="M364.19445,287.04101c6.28691.95958,12.14365,3.73905,16.87538,8.00753l1.57175,1.42283c3.57359,3.22617,4.53317,8.45424,2.33275,12.73925l-4.45045,8.68586c-1.90263,3.72251-5.82367,5.9891-10.00942,5.77404-4.11959-.21509-7.74283-2.79602-9.29802-6.60126l-9.13254-22.40123c-1.17467-2.87875.41361-6.15455,3.4247-6.99834l.31435-.09926c2.72983-.76103,5.57549-.94302,8.37151-.51288v-.01654Z" style="fill:#fdf7ed;"/></svg>