<?xml version="1.0" encoding="UTF-8"?><svg id="a" xmlns="http://www.w3.org/2000/svg" width="800" height="800" viewBox="0 0 800 800"><path d="M536.33825,426.56071c-.82722.47978-2.18388,1.15811-3.16,1.15811-1.15813,0-2.26659-.38052-3.2262-1.09194-.99268-.72796-2.33278-.76106-3.35853-.08273s-1.50555,1.9357-1.20772,3.12691c.39705,1.55519.1654,2.26661-.43017,3.62325-.8603,1.95226-2.77946,3.22617-4.91372,3.22617h-.01656c-1.17464,0-2.29966-.41361-3.27578-1.14157-.99268-.76103-2.34934-.79413-3.37509-.1158-1.04231.69487-1.52212,1.95224-1.20777,3.16.4798,1.83644.11582,2.5644-.76103,4.20229-.90993,1.68755-2.69676,2.74639-4.61593,2.69676h-.03307c-1.67101-.0331-2.86222-.81069-3.57362-1.45592-.95956-.87686-2.38241-1.00921-3.49086-.31435-1.1085.67833-1.62138,2.01843-1.27396,3.25927.19853.67833.26472,1.30703.21509,1.90263-.2316,3.02764-2.87873,5.34386-5.93947,5.06261-1.67101-.13236-2.81258-.97612-3.49091-1.67101-.89337-.90993-2.26659-1.14155-3.3916-.56251-1.14157.57907-1.77027,1.8199-1.57175,3.07728.19858,1.2574.03312,2.29968-.49631,3.3089-.97612,1.83644-2.87873,3.11037-4.94679,3.07728-2.13425-.0331-3.47435-1.15811-4.16922-2.01843-.76106-.92649-2.01843-1.29047-3.16-.90995-1.14157.38054-1.9357,1.42283-2.00189,2.61403-.13233,2.49823-1.29047,3.47435-3.77214,4.649-1.17464.56253-2.56438.66179-3.77214.18199-1.43936-.57904-2.26659-1.63789-2.7133-2.43204-.57904-1.00919-1.68755-1.60479-2.84565-1.47246-1.15811.13236-2.13423.92651-2.48167,2.03499-.19853.64523-.44668,1.15811-.7445,1.58826-.94302,1.32356-2.43204,2.15079-4.10303,2.26661-.81069.06617-1.57172.46324-2.08462,1.10848-.51288.64523-.7114,1.47246-.57904,2.28312.29779,1.77027-.28125,3.59018-1.55519,4.83101-.79413.77759-1.80334,1.30698-2.91182,1.50555-1.2243.21504-2.18388,1.19121-2.38241,2.41548-.19855,1.22428.41361,2.4486,1.50555,3.02762.43015.23165.77757.46324,1.07538.72796,1.10848.97612,1.75371,2.33278,1.83644,3.80526.08273,1.47243-.41361,2.89529-1.38973,3.98723-.77759.87686-1.83644,1.47243-3.02764,1.70408-1.24084.24816-2.16732,1.27391-2.31624,2.53131-.14889,1.25735.52944,2.46511,1.68755,2.99455,1.38973.6287,1.86954,1.24084,2.44858,2.38241.90995,1.78678.95958,3.98723-.14889,5.65819-1.02575,1.53863-2.48167,2.10118-3.45779,2.29971-1.2243.24816-2.16732,1.27391-2.29968,2.51474-.14889,1.2574.52941,2.4486,1.67098,2.97799.57907.26472,1.00921.52944,1.35666.84379,1.10848.97612,1.75371,2.33278,1.85297,3.80526.08273,1.47243-.39708,2.89529-1.3732,3.98718-1.00921,1.12506-2.23349,1.55519-3.09381,1.72064-1.20774.23165-2.13425,1.19121-2.33278,2.41548-.19853,1.20777.39708,2.41553,1.47246,3.01111,1.67101.92649,2.00189,1.72064,2.63057,3.57362.14892.44668.26472.92649.24818,1.40629-.04963,1.40629-.61216,2.72983-1.62135,3.73907-1.05887,1.05882-2.31624,1.40624-3.17656,1.52206-1.19121.14889-2.16732,1.02575-2.44858,2.18388-.28125,1.15808.16546,2.38241,1.14157,3.07725,1.42283,1.00924,1.73718,1.77027,2.06806,3.32546.39708,1.85297-.04963,3.85484-1.42283,5.14536-1.29047,1.24084-2.79602,1.48899-3.78868,1.48899-1.20777,0-2.28315.72796-2.7133,1.85297-.43017,1.12501-.14892,2.39892.7445,3.20964,1.05885.97612,1.43936,1.75371,1.62135,2.96148.26472,1.75371-.11582,3.6232-1.3401,4.89716-1.3732,1.4228-3.32546,1.9688-5.22807,1.53863-1.19121-.28128-2.41548.21509-3.09381,1.24084s-.64523,2.34934.08273,3.32546c1.07538,1.47243,1.35664,3.17651.77757,4.96335-.51288,1.58826-1.75371,2.92836-3.34197,3.47435-.89342.3143-1.78681.39705-2.66366.24816.34742-1.72064.31435-3.52398-.16546-5.2777-.26472-.97612-.66177-1.90261-1.15811-2.74639,2.23352-1.05887,4.11959-2.82909,5.2777-5.16187,1.91917-3.82177,1.45592-8.23917-.81069-11.53151,2.33278-1.22433,4.13612-3.19307,5.17843-5.64168,1.58826-3.7887.92649-8.02409-1.38973-11.15097,2.01843-1.38978,3.55706-3.42472,4.33465-5.87332,1.15811-3.60669.38052-7.49465-1.83644-10.38994,1.58828-1.50555,2.72983-3.45779,3.24273-5.65819.7445-3.20964.0827-6.48546-1.77027-9.09947.95958-1.30703,1.63791-2.79602,1.95226-4.38433.72794-3.60669-.38054-7.22993-2.71332-9.82743,1.53865-1.22428,2.76295-2.86216,3.50745-4.76477,1.07538-2.81258.95958-5.88983-.19855-8.57008,1.00921-.47975,1.95226-1.12501,2.79602-1.90261.99268-.92649,1.78681-2.00187,2.38241-3.19307,5.88983,1.2574,11.82933-2.33278,13.36795-8.22261.41361-1.55519-.52941-3.16-2.0846-3.55706-1.57175-.41361-3.16.52941-3.55708,2.0846-.77759,2.94492-3.78868,4.69863-6.73359,3.9376-.41361-.09929-.84379-.29781-1.35666-.5956-.82722-.4798-1.85297-.52944-2.72983-.09926-.87686.41361-1.47246,1.24084-1.62135,2.2004-.13236.87686-.52944,2.15081-1.65445,3.20964-1.2574,1.17464-2.68022,1.43936-3.67288,1.45592-1.20777.01656-2.26661.77759-2.68022,1.90261s-.09926,2.39897.79415,3.19307c1.73715,1.53868,2.33275,3.9376,1.50553,6.08841-.72794,1.88605-2.44858,3.20964-4.5001,3.45779-1.37317.16546-2.44858,1.27391-2.54784,2.66364-.11582,1.38973.76106,2.64713,2.10116,3.02767,2.79602.81066,4.46701,3.54049,3.88794,6.36959-.33088,1.60482-1.29047,2.63062-2.03497,3.2262-.69487.546-1.12501,1.38973-1.12501,2.26659,0,.89342.39705,1.7372,1.09192,2.29971,1.67101,1.35666,2.41551,3.47435,1.9357,5.52585-.41361,1.77027-1.68752,3.22615-3.3916,3.88797-1.04231.41361-1.77027,1.37317-1.853,2.49818-.0827,1.12506.4798,2.18388,1.45592,2.74639,2.23352,1.29047,3.2758,4.00379,2.49821,6.45234-.6783,2.10118-2.53131,3.59018-4.73173,3.80526-1.32354.13233-2.38239,1.12501-2.59747,2.43204s.47978,2.5975,1.70408,3.12688c2.72983,1.20777,4.00376,4.4174,2.86219,7.16379-.56251,1.35666-1.63789,2.41548-2.99455,2.97799-1.35664.56251-2.86219.546-4.21885-.01656-1.48899-.61214-3.19307.08275-3.82177,1.55519-.6287,1.48904.08273,3.19313,1.55519,3.82177.72796.29784,1.47246.52944,2.21696.67833.18199.16546.38052.29784.5956.41361,1.32356.66182,2.29968,1.78683,2.76293,3.19313.46324,1.40624.36398,2.89529-.29779,4.21883-1.12504,2.23352-3.62325,3.42472-6.08839,2.89529-1.47246-.31435-2.96145.54595-3.40816,1.98536-.44671,1.43936.28125,2.99455,1.68755,3.55706l.21509.0827c.14889.06619.31432.11582.46324.19853,1.27391.72796,2.20042,1.91917,2.59747,3.32546.23162.81066.23162,1.63789.08273,2.4486-1.00921.57902-1.58828,1.70408-1.43936,2.86216.21506,1.90266-.44671,3.60674-1.9688,4.84757-1.24084,1.00919-2.89529,1.5055-4.46701,1.22428-1.73718-.31435-3.17656-1.40629-3.95413-2.94492-.56253-1.1085-1.75374-1.75371-2.99457-1.57175-1.22428.16546-2.21696,1.1085-2.46511,2.31622-.13236.69489-.36398,1.29047-.69487,1.8199-.77759,1.2574-1.98536,2.13425-3.42472,2.46516-1.43936.34742-2.91182.09926-4.16922-.67833-1.37317-.84379-2.00187-2.08462-2.29968-2.96148-.39705-1.19121-1.50553-2.00187-2.76293-2.00187s-2.36585.7941-2.76293,1.98531c-.84376,2.49823-3.09381,3.9376-6.28691,3.49091-.90993-.13238-1.80334-.46324-2.49821-1.05887-1.20774-1.02575-1.88607-2.49818-1.91917-4.13612-.01654-1.17464-.7445-2.23352-1.83644-2.66364-1.09194-.43017-2.34931-.16546-3.16.67833-.76103.77759-1.72062,1.30698-2.77946,1.53863-1.43936.31435-2.91182.03307-4.15266-.76103-1.24084-.79415-2.08462-2.03499-2.39897-3.47435-.39705-1.80334.14892-3.68944,1.45592-5.01298.76106-.77759,1.02575-1.93573.67833-2.97804-.34745-1.04226-1.25737-1.78678-2.34931-1.95224-.97612-.13233-2.36588-.57907-3.45779-1.90261-.94305-1.12501-1.38976-2.56438-1.2574-4.03686s.82722-2.79602,1.9688-3.73907c1.58828-1.32354,3.78868-1.62133,5.72441-.7941,1.00921.43012,2.18386.26472,3.02762-.44673.84379-.7114,1.2243-1.83641.97614-2.89529-.23162-.97612-.21509-1.93568.04963-2.81253.51288-1.70408,1.81988-3.06074,3.52396-3.63981.79415-.26472,1.42283-.8603,1.75374-1.62138.33088-.76103.29779-1.63789-.04963-2.39892-.79415-1.65445-.71143-3.59018.21506-5.17843.57907-.99268,1.47246-1.77027,2.5644-2.25003,1.12501-.49637,1.8199-1.63794,1.75371-2.86222-.08273-1.22428-.92649-2.26659-2.10116-2.61406-1.63789-.46324-2.10113-1.04226-3.12691-2.48167-.29779-.41361-.56251-.8603-.69487-1.3401-.39705-1.43936-.18199-2.94492.56253-4.23539.57904-.99263,1.47246-1.77022,2.56438-2.25003,1.12504-.49637,1.8199-1.63789,1.75371-2.86222-.0827-1.22428-.92649-2.26659-2.10113-2.61401-1.58828-.44673-2.05153-1.00924-3.04418-2.34934-.31435-.41361-.5956-.87686-.74452-1.37317-.43015-1.47248-.23162-3.02767.52944-4.35121.57904-.99268,1.47246-1.77027,2.5644-2.23352,1.12501-.49631,1.81988-1.63789,1.75371-2.86222-.08273-1.22428-.92649-2.26659-2.10116-2.61401-1.307-.38054-1.86954-.82722-2.5644-1.68752-1.19121-1.48904-1.75371-3.47435-1.17464-5.2777.47978-1.52212,1.57172-2.69676,3.04418-3.34202,1.12501-.49631,1.83644-1.63789,1.75371-2.86216-.08273-1.22433-.92649-2.26659-2.10116-2.61406-1.55516-.44668-2.0515-.99263-3.02762-2.31622-.31435-.41361-.61216-.87686-.76106-1.38973-.44671-1.48899-.24816-3.04418.52941-4.36777.57907-.99263,1.47248-1.77022,2.58096-2.25003,1.14155-.49631,1.83644-1.63789,1.75371-2.87873s-.94305-2.28315-2.13425-2.61406c-.51288-.14889-.90993-.29779-1.24084-.49631-1.27391-.72796-2.20042-1.90263-2.59747-3.32546-.39708-1.42283-.21509-2.91182.51288-4.18575.49634-.87686,1.2243-1.58826,2.15079-2.10113,1.09194-.5956,1.67098-1.80337,1.47246-3.02764-.19853-1.2243-1.14157-2.18388-2.36588-2.39897l-.19853-.03307c-.18199-.0331-.36398-.04963-.54597-.11582-2.89529-.92649-4.5001-4.0534-3.55706-6.94868.21506-.69487.57904-1.32356,1.04229-1.86954.76106-.90993.90995-2.18386.36398-3.24271s-1.67098-1.65445-2.86219-1.55519c-.1158,0-.21509.0331-.33088.04963-1.43936.06617-2.79602-.41361-3.8714-1.35666-1.10848-.97612-1.77027-2.31622-1.88607-3.78868-.09929-1.48899.43015-2.64713.90993-3.37507.67833-1.02578.6287-2.38241-.1158-3.35853-.7445-.97614-2.03497-1.38976-3.1931-1.02578-.66177.21509-1.24084.29781-1.80334.28125-1.47246-.04963-2.84565-.66177-3.85487-1.73715-1.00921-1.07541-1.53863-2.48167-1.50553-3.95416.04963-1.67098.84376-2.86219,1.50553-3.57359.84379-.89342,1.02578-2.21698.46324-3.3089-.56251-1.09194-1.73715-1.70408-2.96145-1.57172-1.70408.21506-2.92838-.19855-4.15266-1.32356-1.43939-1.32356-2.31624-3.25927-1.93573-5.17843.33091-1.72062,1.3732-2.77946,2.16735-3.35853.99265-.72796,1.42283-2.00189,1.07538-3.17654-.34745-1.17467-1.40629-2.01843-2.63057-2.08462-.69487-.03307-1.29047-.16543-1.83644-.39705-1.35666-.57907-2.41551-1.63791-2.96148-3.01111s-.54597-2.86219.0331-4.21883c.64523-1.53865,1.8199-2.36588,2.6802-2.77949,1.1085-.52941,1.75374-1.70408,1.63791-2.92838-.13236-1.22428-1.00921-2.23349-2.21696-2.53131-.67833-.16543-1.24084-.39705-1.73718-.72796-1.2243-.81066-2.06806-2.0515-2.36585-3.49089-.29781-1.43936,0-2.91182.79413-4.15266.90995-1.38973,2.21696-1.98533,3.14344-2.25005,1.19121-.33088,2.03497-1.35664,2.13425-2.58094.09926-1.2243-.57907-2.38241-1.70408-2.87875-.64523-.28125-1.15813-.62867-1.57175-1.02575-1.05885-1.02575-1.65445-2.39895-1.67098-3.8714s.52944-2.86222,1.55519-3.92106c1.17464-1.20774,2.5644-1.55516,3.54052-1.62135,1.2243-.09926,2.26659-.94302,2.58094-2.13423.33088-1.19121-.13236-2.4486-1.14157-3.16-.56251-.39708-.97612-.79413-1.29047-1.2243-1.80334-2.44858-1.27393-5.90637,1.17467-7.70971.41361-.31435.92649-.56253,1.57172-.76106,1.00921-.33088,1.75371-1.17467,1.95224-2.20042.19855-1.04231-.16543-2.10116-.95958-2.77946-.29779-.24818-.54595-.49634-.76103-.77759-.34745-.44671-.6287-.97614-.86032-1.63791-.39705-1.14157-1.43936-1.90261-2.6471-1.95224-1.15813-.08273-2.29968.64523-2.77949,1.75371-.04963.13236-.09926.24816-.16543.44668-1.43939,2.64713-4.74829,3.65634-7.41195,2.25005-1.42283-.7445-2.15079-1.9357-2.49821-2.81256-.4798-1.17464-1.63791-1.86951-2.89529-1.80334-1.25737.08273-2.31624.97612-2.63057,2.18388-.18199.69487-.4798,1.3401-.87686,1.88607-.86032,1.19118-2.15079,1.96877-3.60671,2.2004-1.72062.26472-3.44126-.26469-4.71519-1.52209-.84376-.82722-1.3401-1.95224-1.58826-3.12691-.24816-1.17464-1.17467-2.0846-2.36588-2.28312-1.22428-.21509-2.44858.38052-3.04418,1.47246-.38052.6783-.86032,1.25737-1.4559,1.72062-2.41551,1.85297-5.8733,1.40629-7.74283-1.00921-.86032-1.10848-1.24084-2.49821-1.09194-3.92104.11582-1.15811-.46324-2.28315-1.48899-2.84565s-2.28315-.46324-3.20964.26472c-.94302.7445-2.0846,1.14155-3.32543,1.19121-1.58828.04963-3.17654-.64523-4.20231-1.853-1.78681-2.0846-1.78681-4.89716-.26472-6.94868.72796-.99268.76106-2.33278.08273-3.35853-.6783-1.02575-1.9357-1.52209-3.12691-1.20774-.99265.24816-1.9688.23162-2.87873-.0331-1.40629-.41361-2.58095-1.35666-3.27581-2.66366-.69488-1.29047-.86032-2.79602-.43016-4.20229.46324-1.57175,1.63791-2.84565,3.19307-3.49089,1.14157-.46324,1.853-1.60482,1.80337-2.82912s-.87686-2.28315-2.03499-2.64713c-.97612-.31432-1.80334-.82722-2.44858-1.53863-.99267-1.09194-1.48901-2.51477-1.40628-3.97067.08273-1.47246.72796-2.82912,1.81989-3.80524,1.19121-1.07541,2.79602-1.55519,4.43394-1.3401,1.12501.14889,2.2004-.34745,2.81256-1.27393.39705-.5956.52941-1.29047.44671-1.9688.38052-.16546.7445-.36398,1.04229-.6287h.29781c.41361-.03307.84376-.0827,1.25737-.18199.46324-.1158.92649-.33088,1.35666-.54595.43015-.23165.84376-.56253,1.20774-.87688.67833-.57904,1.10848-1.35664,1.45592-2.16732.14889-.34742.29779-.6783.38052-1.02575.13236-.52944.18199-1.09194.24816-1.63791.09926-.84376.11582-1.70408-.0331-2.53131,3.72251-.09926,8.07372.46324,12.30911,1.00921,4.10305.52944,8.30534,1.07541,12.20984,1.07541.82722,0,1.63791-.0331,2.44858-.08273,2.00189,1.80334,4.649,2.91182,7.56084,2.91182,1.60482,0,2.91182-1.307,2.91182-2.91182s-1.307-2.91185-2.91182-2.91185c-1.43939,0-2.74639-.56251-3.73907-1.48899-.21506-.39708-.51288-.7445-.8603-.99268-.57907-.87686-.92649-1.91914-.92649-3.04418,0-1.57172.69487-2.74639,1.27391-3.45779.69487-.86032.84379-2.03497.39708-3.04418s-1.43936-1.67101-2.53131-1.72064c-1.42283-.06617-2.74639-.64523-3.72251-1.6379-2.11769-2.18387-2.06806-5.67476.1158-7.809.79415-.77758,1.80337-1.29047,2.89529-1.47246,1.24084-.21507,2.20042-1.19119,2.38241-2.44858.18199-1.24084-.44671-2.46513-1.57172-3.02764-.86032-.43016-2.00189-1.27392-2.63057-2.81256-1.14157-2.82911.23162-6.03874,3.04418-7.18032.84376-.34743,1.75371-.4467,2.74639-.33088,1.19121.14889,2.38241-.46324,2.94492-1.53864s.41361-2.38241-.39708-3.29235c-.62867-.69488-1.3732-1.88608-1.40627-3.49089-.06619-3.04419,2.34931-5.5755,5.3935-5.64168.97612,0,1.9688.23162,2.87875.76105,1.00921.57905,2.26659.51289,3.20961-.18199.94305-.69487,1.3732-1.88607,1.1085-3.0111-.21509-.92649-.33091-2.34931.43015-3.80523,1.40629-2.69643,4.73173-3.75528,7.44502-2.34899.81069.43015,1.50555,1.05885,2.05153,1.90228.66177,1.00921,1.86951,1.52209,3.06072,1.25738,1.19121-.24817,2.08462-1.20775,2.26659-2.41517.18199-1.19121.71143-2.25005,1.53865-3.07728,2.15079-2.15079,5.65821-2.13424,7.79247.01655.54595.54597.95956,1.19121,1.24084,1.9357.43015,1.14157,1.52209,1.88574,2.76293,1.88574,1.22428,0,2.31622-.7938,2.7133-1.95192.36398-1.00921.99265-1.90262,1.81988-2.53131,1.17467-.8934,2.61403-1.29047,4.06996-1.10848s2.76293.94304,3.65632,2.10114c.46324.5956.79415,1.29047.97614,2.06806.28125,1.17466,1.25737,2.05119,2.46511,2.20009,1.20777.14889,2.36588-.44671,2.94492-1.52176.52944-.97613,1.32356-1.77026,2.29968-2.28315,2.69676-1.40628,6.03875-.36397,7.44502,2.34933.38054.72762.57907,1.5383.5956,2.44825.01656,1.20775.77759,2.2666,1.91917,2.68021s2.39895.08271,3.1931-.82722c.81066-.9265,1.83644-1.53864,2.97799-1.78681,2.97801-.6287,5.9064,1.27392,6.53509,4.25193.19853.8934.13233,1.85299-.16546,2.79602-.36398,1.15811.01654,2.43203.99268,3.19309.95956.7445,2.29968.82722,3.32543.18198.79413-.49633,2.06806-1.02575,3.63978-.81068,1.45592.19854,2.76293.95958,3.63978,2.13424.89342,1.17466,1.27393,2.63058,1.07541,4.08649-.13236.92649-.51288,1.80334-1.12504,2.59748-.72796.92649-.81066,2.21696-.23162,3.24272v.01655c-.49634.26471-.99265.57905-1.43936.92649-1.95226-2.2335-4.649-3.6067-7.62701-3.85487-3.01111-.24816-5.95603.69488-8.27225,2.64713-1.53865,1.307-2.6802,2.99455-3.34199,4.86407-5.3935-1.60482-11.28333,1.02576-13.61611,6.30346-.6287,1.43936-.94305,2.96145-.94305,4.50009-5.29423.14891-9.92669,4.02031-10.85318,9.43037-.29779,1.73718-.18199,3.49089.31435,5.14534-5.34386,1.86954-8.57003,7.51119-7.31266,13.1694.39708,1.8199,1.24084,3.47435,2.41551,4.84755-4.11959,3.82177-4.84755,10.22448-1.48902,14.90658,1.07541,1.50555,2.48167,2.69676,4.08649,3.49089-1.04231,2.31624-1.27393,4.89718-.64523,7.37885.72796,2.94492,2.5644,5.42659,5.17843,6.98178,1.65445.99265,3.47433,1.52209,5.32733,1.60482.03307,5.67475,4.33465,10.55537,10.12522,11.2006,1.83644.19855,3.65634-.04963,5.32733-.7114,1.00921,2.28315,2.72983,4.16922,4.96335,5.37696,1.68755.90995,3.52398,1.3732,5.3935,1.3732,1.09194,0,2.18388-.16546,3.24273-.4798,1.80334-.52941,3.39163-1.48899,4.68209-2.76293,1.88607,1.75371,4.28502,2.79602,6.88249,2.99455,3.01111.21509,5.95603-.7445,8.23917-2.72983,1.86951-1.62135,3.12691-3.80524,3.63978-6.17109,2.96145.38052,5.88983-.39708,8.27225-2.20042,2.41548-1.8199,3.98723-4.48357,4.40084-7.49465v-.01656c1.85297.06619,3.25927,1.14157,3.83831,1.70408,1.48902,1.42283,2.05153,3.16,1.83644,4.13612-.26472,1.2243.26472,2.48167,1.32356,3.12691s2.43204.54597,3.39163-.24816c.7445-.6287,1.57172-1.02575,2.43204-1.20774,1.43936-.28125,2.91182,0,4.13612.82722,1.22428.82722,2.0515,2.06806,2.33275,3.52396.0331.13236.0331.28128.0331.41361v.28128c.11582,1.32354,1.07541,2.41548,2.38241,2.66366,1.307.24816,2.61403-.41361,3.17654-1.62138.51288-1.09194,1.3401-1.9688,2.36588-2.51474,2.6802-1.42283,6.03873-.39708,7.46156,2.28312.09926.18199.18199.44671.29779.77759.41361,1.17467,1.52212,1.95226,2.74639,1.95226h.14889c1.29049-.06619,2.38241-.97614,2.68022-2.23352.23162-.99268.8603-2.46514,2.48167-3.44126,1.8199-1.10848,4.16919-.89339,5.93947.29781.89342.61214,1.12501.69487,1.72064,1.75371.61214,1.12501,1.90261,1.70408,3.16,1.43936,1.25735-.26472,2.18383-1.307,2.29966-2.59747.08275-.89342.41361-2.21698,1.48899-3.32546,1.02575-1.05885,2.39897-1.65445,3.8714-1.68755,1.48904.01656,2.86222.52944,3.92109,1.53865.28123.26472.52939.5956.81066,1.00921.7114,1.10848,2.06806,1.60482,3.32546,1.20774,1.25735-.39705,2.10113-1.57172,2.0515-2.87873-.06619-2.18388,1.09194-4.21885,3.16-5.17843,1.19121-.54597,2.58094-.51288,3.83833-.16546,1.40624.38054,2.11769.7445,3.04418,2.11769.74447,1.10848,2.1342,1.57175,3.3916,1.14157,1.2574-.43015,2.0515-1.67098,1.95224-2.99455-.11577-1.47246.33091-2.89529,1.27396-4.0203.69484-.82722,1.5717-1.38976,2.51474-1.68755.46324-.14889.7114-.64523.61214-1.12504l-.7941-3.75558c-.11582-.56253-.67833-.92651-1.22433-.77759-2.10113.5956-4.06993,1.80334-5.57549,3.60669-.64521.77759-1.19121,1.62135-1.60482,2.51477-4.5663-2.29968-10.29068-1.27393-13.74847,2.79602-.56251.66177-1.04231,1.38973-1.43936,2.16732-4.36777-2.36588-9.95977-1.63791-13.5665,2.10116-.51288.52941-.95956,1.09192-1.3401,1.68752-4.00374-2.61403-9.41382-2.49821-13.35139.66179-.4798.39705-.92649.81066-1.32356,1.27391-3.44126-3.12691-8.61967-3.93757-12.95434-1.63789-.41361.21509-.79413.46324-1.17464.7114-1.17467-1.77025-2.84565-3.20964-4.89718-4.13612-2.0846-.94302-4.46701-1.19121-6.71706-.7445-.28125.04963-.56251.11582-.84376.19853-.61216-1.62135-1.65445-3.17654-3.06074-4.50008-1.47246-1.38976-3.17654-2.34934-4.97988-2.87875,3.35853-2.0846,5.55895-5.85676,5.3935-10.07559-.06617-1.68755-.51288-3.32546-1.29047-4.79792,4.79789-2.84565,6.88251-8.88438,4.649-14.17862-.67833-1.60482-1.70408-3.01111-3.01108-4.11959,3.2758-4.35121,3.02762-10.58846-.86032-14.65842-1.14157-1.20774-2.53131-2.11769-4.0534-2.7133,1.80334-5.04606-.21509-10.83663-5.01298-13.61611-1.3732-.79414-2.89529-1.27393-4.45047-1.43938.47978-5.29423-2.84565-10.38994-8.13989-11.91203-1.05885-.2978-2.13425-.44671-3.2262-.43016-.03307-.01655-.04963-.0331-.06617-.06618-.87686-.57905-1.85297-1.00921-2.84565-1.32356.08273-.36397.14889-.71141.19853-1.09193.41361-2.99455-.36398-5.98911-2.20042-8.4046s-4.50008-3.97068-7.49465-4.38429c-.90993-.13235-1.83644-.13235-2.72983-.03308-.0331-.24817-.08273-.49634-.13236-.74451-1.307-6.12113-7.36229-10.04216-13.46721-8.73516-.76106.16546-1.48899.39708-2.18386.71141-.0331-.08271-.08273-.14889-.11582-.23162-2.89529-5.5424-9.76124-7.70973-15.30365-4.81444-.52944.28125-1.04231.5956-1.52209.94304-1.85297-2.29968-4.46701-3.77214-7.39539-4.15267-2.99455-.39706-5.9891.41361-8.38807,2.2666-.38052.2978-.7445.61214-1.07538.94304-4.43391-4.2023-11.46532-4.15267-15.81653.18199-.52944.51288-.99268,1.09193-1.38973,1.68753-.23162-.14889-.4798-.28125-.72796-.41361-2.69676-1.38973-5.75748-1.65445-8.65276-.7445-2.89529.90994-5.24463,2.89529-6.65089,5.59203-.51288.99267-.87686,2.05119-1.07541,3.15966-.49631-.06617-1.00921-.08271-1.52209-.06617-6.25382.14889-11.2337,5.36041-11.0848,11.61423.01654.97613.18199,1.9357.44671,2.8622-.23162.06617-.44671.16544-.67833.24816-5.80711,2.34933-8.61969,8.96712-6.27035,14.77423.34742.87687.81066,1.68755,1.37317,2.44859-.39705.2978-.76103.61215-1.12501.95958-4.48357,4.36774-4.58283,11.5646-.23162,16.04815.99268,1.02575,2.16732,1.83644,3.45779,2.41551-.34742,1.07538-.51288,2.21696-.51288,3.37507,0,.92649.11582,1.8199.33088,2.66366-3.2758-.08273-6.89905-.54597-10.43957-1.00921-5.49276-.7114-11.18407-1.45592-16.06469-.86032-1.68755.01656-3.29236.43017-4.73173,1.12504-.84379-.06619-1.68755-.09926-2.53133.06617-.09926.01656-.18197.0331-.28125.06619-.36398.13236-.77759.28125-1.10848.49631-.33088.19855-.66177.46327-.94302.74452-.19855.19853-.4798.5956-.64523.82722-.0331.04963-.08273.1158-.09926.16543-.34745.66179-.61216,1.3732-.71143,2.10116-.1158.77759-.24816,1.55519-.18199,2.34931.0331.51288.11582,1.04231.21509,1.57172-.09926.5956-.16546,1.20777-.16546,1.8199,0,.52941.0331,1.05885.11582,1.58826-1.75372.44671-3.39163,1.30703-4.76482,2.53133-2.25005,2.03497-3.57362,4.81443-3.73906,7.84207s.87686,5.93947,2.91183,8.18952c.19854.23162.41361.44671.62869.64523-1.09193,1.2243-1.91915,2.68022-2.39895,4.28504-.86032,2.91182-.54597,5.97256.8934,8.63623,1.43936,2.66366,3.83832,4.6159,6.75016,5.47622.28125.08273.54597.14889.82722.21506-.31435,1.63791-.26472,3.34199.18199,5.013,1.60482,6.00563,7.75937,9.61235,13.74847,8.07369.39708,1.2243.99268,2.38241,1.80334,3.40816,3.70598,4.81445,10.55539,5.82367,15.48564,2.36588.69487.95958,1.52209,1.80334,2.49821,2.51477,2.4486,1.78678,5.44315,2.51474,8.4377,2.0515,2.64713-.41361,5.02954-1.72062,6.76669-3.72251.64523.56251,1.35666,1.05885,2.11769,1.45592,2.34934,1.24084,4.94681,1.57172,7.39539,1.10848-1.07538,3.01111-.87686,6.41927.72796,9.34763-.87686.5129-1.67098,1.14157-2.38241,1.86954-2.11769,2.18388-3.24271,5.04607-3.19307,8.07372.04963,2.61403.95958,5.07915,2.61403,7.06448-.76106.66179-1.42283,1.42283-1.9688,2.25005-1.67098,2.53133-2.25005,5.55895-1.63791,8.53696.52944,2.54787,1.88607,4.79792,3.8714,6.43581-.61214.77759-1.12501,1.63791-1.52209,2.5644-1.17464,2.79602-1.20774,5.8733-.06617,8.68586.97612,2.41551,2.7133,4.38428,4.96335,5.64168-.46324.87686-.81069,1.81988-1.04231,2.79602-1.27391,5.69128,2.01843,11.36606,7.42849,13.2025-.29781.95958-.4798,1.9688-.49634,2.97801-.08273,3.02764,1.00921,5.92293,3.07728,8.12333,1.77027,1.86954,4.0534,3.06074,6.55163,3.44126-.08273.71143-.11582,1.42283-.06619,2.15079.21509,3.02764,1.57172,5.79057,3.8714,7.77591,1.12504.99268,2.41551,1.72064,3.80524,2.20042-1.307,4.63246.4798,9.48001,4.20231,12.22638-.19855.29781-.39708.5956-.57907.90995-2.6802,4.73173-1.57172,10.58846,2.31622,14.06282-.43015.49631-.81066,1.02575-1.14155,1.60482-1.53865,2.61401-1.95226,5.67475-1.19121,8.60316.56251,2.18383,1.75371,4.103,3.3916,5.57549-.43015.49631-.81066,1.02575-1.14155,1.60482-2.77949,4.7317-1.72064,10.65466,2.20042,14.17859-.43017.49637-.81069,1.0258-1.14157,1.60482-2.77949,4.73175-1.72064,10.65466,2.20042,14.17864-.43017.49637-.81069,1.02575-1.14157,1.60482-1.53865,2.61406-1.95226,5.67475-1.19121,8.60316.56251,2.18388,1.75371,4.103,3.39163,5.57549-.43017.49631-.81069,1.02575-1.14157,1.60482-1.40629,2.41548-1.86954,5.2115-1.35666,7.8917-2.21696,1.45592-3.8714,3.63981-4.649,6.22074-.14889.49631-.26472,1.00919-.34742,1.52206-3.40819-.13233-6.78325,1.34015-9.11603,4.16924-2.31622,2.79602-3.11037,6.65087-2.13423,10.14178.84376,3.02762,2.79602,5.42659,5.31077,6.84939-.89339,2.10118-1.12501,4.46703-.62867,6.76669.62867,2.96148,2.38239,5.50934,4.93025,7.14723,2.54784,1.65445,5.57549,2.20045,8.53696,1.57175.61214-.13238,1.20774-.31435,1.77025-.52944.67833,1.47243,1.67101,2.81258,2.94492,3.8714,4.5001,3.80521,11.151,3.49091,15.27058-.56251.61214.61214,1.29047,1.14157,2.03497,1.60482,1.85297,1.14157,3.9045,1.68752,5.93947,1.68752,3.42472,0,6.79979-1.55519,9.00021-4.40084,1.02575.77759,2.20042,1.37322,3.47433,1.75371,4.11959,1.27396,8.61969-.28123,11.46535-3.52393,2.23352-2.54787,2.46514-3.20964,2.7133-3.97072,1.55519.36398,3.19307.41361,4.78136.09926,6.08839-1.20772,10.09215-7.13067,8.95058-13.21903,1.10848-.24816,2.20042-.66177,3.20964-1.24084,4.97988-2.86216,6.96522-8.96709,4.83099-14.14552.79413-.36398,1.55519-.84379,2.26659-1.40629,2.36588-1.8861,3.85487-4.59937,4.20231-7.61048.26469-2.41548-.23165-4.81445-1.42283-6.89902.6783-.43017,1.307-.92649,1.88607-1.50555,2.15076-2.13425,3.34197-4.97991,3.35853-8.00753,0-2.38241-.71143-4.66556-2.06806-6.58473.5956-.44668,1.15811-.95956,1.67098-1.53863,2.01843-2.26659,3.02764-5.17843,2.84565-8.2061-.13236-2.33273-.97612-4.51661-2.38241-6.31996.54597-.44673,1.05885-.92649,1.52209-1.47248,3.55708-4.16919,3.55708-10.20792.28125-14.36061.49634-.39705.95958-.82722,1.38976-1.30703,2.01843-2.26659,3.02762-5.17843,2.84565-8.20605-.13236-2.16732-.84379-4.20231-2.08462-5.92296.43017-.3143.84379-.67828,1.2243-1.05882,1.9357-1.90261,3.09381-4.43391,3.3089-7.0976,1.91917-.62867,3.63978-1.75371,4.96335-3.2758.81066.61216,1.68755,1.10848,2.6471,1.47246,5.41006,2.11769,11.48188-.23162,14.14554-5.22807.82725.39708,1.72062.69489,2.6471.87688,5.65824,1.10848,11.18409-2.21698,12.95436-7.56084.8603.28125,1.73715.46324,2.64713.54597,5.67475.43015,10.7208-3.37509,11.94512-8.76859.81066.19853,1.62133.31435,2.46511.33088h.21509c5.42659,0,10.0094-3.85487,11.10134-9.00021.66177.13236,1.3401.19855,2.01843.19855h.0827c5.44315,0,10.00945-3.85487,11.10139-8.98367.64521.11582,1.29047.18199,1.9688.18199.64521,0,1.29047-.04963,1.90261-.14889.97612-.16546,1.75371-.92649,1.91917-1.90261l.09926-4.5001c0-.38054-.3971-.6287-.7114-.43017l-.11582.14892ZM421.12239,249.51809c-.1158.41361-.31432.84377-.64523,1.35666-.66177,1.05885-.56251,2.41549.23162,3.39161.79415.95958,2.10116,1.32356,3.27583.87686,1.57172-.57905,3.2758-.46324,4.68209.34743,2.63057,1.5221,3.54052,4.89718,2.01843,7.52775-.21509.36398-.49634.72796-.92651,1.14157-.8603.86032-1.10848,2.16732-.5956,3.2758.5129,1.10848,1.67101,1.78681,2.86222,1.70408,1.68752-.13236,3.2758.4798,4.40082,1.65445,2.10116,2.20042,2.01843,5.70784-.18197,7.79247-.28128.28125-.64526.52941-1.14157.79413-1.02578.56251-1.60482,1.68755-1.47246,2.84565.1158,1.15811.92649,2.13423,2.03497,2.48167,1.58826.47978,2.84565,1.62135,3.47435,3.09381.57904,1.35666.57904,2.86222.03307,4.21885-.56251,1.3732-1.60482,2.43204-2.96145,3.01111-.43017.18199-.92649.29779-1.57172.36398-1.19121.1158-2.18388.95956-2.49823,2.10113-.33088,1.14157.08273,2.38241,1.02578,3.11037,1.32354,1.00921,2.11769,2.51477,2.16732,4.11959.1158,3.04418-2.25005,5.60858-5.29423,5.74092-.36398,0-.77759-.01654-1.2574-.1158-1.19121-.23162-2.39895.31435-3.04418,1.35664-.6287,1.04231-.54597,2.36588.19853,3.32546.94305,1.19121,1.35666,2.6802,1.14157,4.16922-.19853,1.4559-.95958,2.74637-2.13423,3.63978-1.17467.89339-2.63059,1.27391-4.08649,1.05885-.69487-.09926-1.3732-.33088-2.00189-.69487-.99265-.57907-2.21696-.51288-3.14344.13236-.92649.66177-1.38973,1.80334-1.19121,2.91182.36398,1.9688-.29781,3.9045-1.78681,5.19497-1.10848.95958-2.53131,1.43936-4.00376,1.32356-1.47246-.11582-2.81256-.77759-3.77214-1.90263-.34745-.39705-.6287-.89339-.89342-1.52209-.44668-1.10848-1.50553-1.80334-2.72983-1.80334-1.19121,0-2.26659.76106-2.69676,1.88607-.62867,1.63791-1.91917,2.86219-3.55706,3.34199-1.40629.41361-2.91185.26472-4.20231-.44671-1.29047-.69487-2.23349-1.86954-2.66366-3.2758-.14889-.4798-.19853-1.00921-.18199-1.68755.0331-1.20774-.69487-2.29968-1.80334-2.76293-.36398-.14889-.7445-.21509-1.10848-.21509-.77759,0-1.55519.31435-2.11769.90995-1.20774,1.27393-2.87875,1.88607-4.56627,1.70408-3.02764-.33088-5.21153-3.06072-4.88065-6.08836.04966-.5129.21509-1.05885.49634-1.67101.49634-1.09192.28125-2.36585-.56251-3.22617-.82722-.86032-2.10116-1.12501-3.20964-.67833-1.63789.67833-3.44126.54597-4.93025-.34742-2.61403-1.57172-3.45779-4.96335-1.88607-7.57738.26472-.44671.6287-.86032,1.14157-1.30703.90995-.77757,1.24084-2.0515.84376-3.17654-.39708-1.12501-1.45592-1.90261-2.64713-1.9357-1.75371-.06617-3.3089-.89339-4.30155-2.26659-1.77027-2.46514-1.20774-5.92293,1.27393-7.6932.41361-.29779.89339-.52941,1.52209-.72794,1.14157-.36398,1.95224-1.40629,2.01843-2.5975.06617-1.20774-.5956-2.31622-1.68755-2.82909-1.58828-.74452-2.72983-2.11772-3.09381-3.7887-.66179-2.96145,1.22428-5.92293,4.18575-6.5847.49631-.11582,1.07538-.13236,1.73715-.06619,1.19121.11582,2.33278-.51288,2.87875-1.57172.54597-1.07538.38052-2.36585-.41361-3.25927-1.12501-1.27391-1.62135-2.94492-1.3401-4.56627.51288-2.99455,3.37507-5.02953,6.36964-4.5001.38052.06618.79413.19854,1.29047.41361,1.10848.49634,2.41548.24817,3.25927-.62869.84376-.87687,1.07538-2.18387.54595-3.27581-.69487-1.48901-.72794-3.11036-.0827-4.56628,1.22428-2.77948,4.5001-4.0534,7.27957-2.82911.44671.19854.87686.49634,1.3732.9265.89339.77758,2.18386.94304,3.24271.39706,1.05887-.54597,1.68755-1.671,1.58828-2.8622-.16546-1.80334.54597-3.55707,1.91917-4.71518,1.12501-.95958,2.54784-1.40628,4.0203-1.29047s2.79602.81068,3.75561,1.9357c.47978.56252.82722,1.19121,1.04231,1.90262.34742,1.10848,1.32354,1.90262,2.46511,2.01843s2.26661-.44671,2.84565-1.45592c.97612-1.72062,2.7133-2.76293,4.63246-2.79601h.24816c.56253.01654,1.1085-.14891,1.58828-.43016,1.35666-.84377,2.92838-1.05885,4.41738-.62869,2.92838.84376,4.61593,3.92104,3.77214,6.83287l-.0331.03308Z" style="fill:#fdf7ed;"/><path d="M335.67177,274.89733c3.13352,0,5.67475-2.53956,5.67475-5.67475,0-3.13352-2.54123-5.67475-5.67475-5.67475s-5.67477,2.54123-5.67477,5.67475c0,3.13519,2.54123,5.67475,5.67477,5.67475Z" style="fill:#fdf7ed;"/></svg>