<?xml version="1.0" encoding="UTF-8"?><svg id="a" xmlns="http://www.w3.org/2000/svg" width="800" height="800" viewBox="0 0 800 800"><path d="M524.3286,263.10113c.97612-2.87875.76103-5.95603-.57907-8.66932-1.12501-2.28314-2.94492-4.06994-5.19494-5.16187.84373-2.01843,1.09189-4.25193.66177-6.4689-.56251-2.978-2.26659-5.55895-4.76482-7.26303-2.11769-1.43938-4.61593-2.11769-7.13067-1.9357-.29779-2.2666-1.27396-4.41738-2.89529-6.15455-3.98723-4.33466-10.58846-4.84754-15.18783-1.35665-1.48904-1.73718-3.49091-3.0111-5.80713-3.59015-5.74094-1.43938-11.56461,1.77026-13.48378,7.24648-2.26659-.5956-4.69863-.47979-6.96522.41361-2.82912,1.10848-5.04607,3.24272-6.25382,6.02219-.97614,2.25005-1.20777,4.69864-.66179,7.03141-1.85297.5956-3.52396,1.65445-4.86408,3.14346-3.62322,3.98722-3.8714,9.87706-.90993,14.129-1.40629.99267-2.58094,2.29968-3.44126,3.8714-1.43939,2.66366-1.75371,5.74094-.89342,8.63623.69487,2.34931,2.11769,4.36774,4.03686,5.80711-.77759,1.2574-1.27393,2.64713-1.52209,4.10305-5.47622,5.59202-12.35874,9.57925-22.43433,12.97087-1.57172-4.40084-5.75748-7.56084-10.68775-7.56084-1.47246,0-2.92836.29781-4.26848.84379-2.25003-5.22807-8.13989-8.04062-13.71537-6.35308-1.307.39705-2.53131,1.04229-3.60669,1.86951-3.44126-4.35118-9.67854-5.62512-14.60879-2.76293-1.17467.67833-2.18388,1.55519-3.02764,2.58094-4.11959-3.67288-10.43957-3.88794-14.80731-.24816-.99268.82722-1.8199,1.80334-2.46514,2.87875-1.95226-1.32356-4.25195-2.00189-6.66743-1.95226-3.02764.08273-5.85676,1.3401-7.94136,3.52398-.77759.82722-1.42283,1.75371-1.91917,2.74637-4.6159-2.46511-10.5223-1.4559-14.01319,2.71332-.64523.77757-1.19121,1.62135-1.60482,2.51474-4.56627-2.29968-10.29065-1.27391-13.74847,2.79602-.56251.66177-1.05885,1.38973-1.43936,2.16732-4.36774-2.36585-9.95979-1.63789-13.56648,2.10116-.51288.52941-2.77949,5.29423-2.77949,6.91559,0,3.3089,1.9357,3.32546,3.17654,3.06074,1.2574-.26472,2.18388-1.307,2.29968-2.59747.08273-.89342.41361-2.21698,1.48902-3.32546,1.02575-1.05885,2.39895-1.65445,3.8714-1.68755,1.48902.01656,2.86219.52944,3.92104,1.53865.28128.26472.52944.5956.81069,1.00921.71143,1.10848,2.06806,1.60482,3.32543,1.20774,1.2574-.39705,2.10116-1.57172,2.05153-2.87873-.04963-1.38976.41361-2.72986,1.27393-3.75561,1.9688-2.31624,5.45969-2.5975,7.77591-.6287.33088.28125.64523.66179.99268,1.17467.7445,1.10848,2.13423,1.57172,3.3916,1.14157,1.2574-.43017,2.05153-1.67101,1.95226-2.99457-.11582-1.4559.33088-2.89529,1.27393-4.00376,1.95224-2.33278,5.44313-2.63057,7.77591-.67833.38052.31435.72796.72796,1.07538,1.29049.71143,1.12501,2.08462,1.62135,3.35853,1.22428,1.2574-.39705,2.10116-1.60482,2.01843-2.92838-.08273-1.53863.44671-2.99455,1.48902-4.08647,1.00921-1.07541,2.38239-1.67101,3.85484-1.72064,1.50555-.04963,2.87875.49634,3.9376,1.52209.52944.49634.94305,1.09194,1.24084,1.77027.56251,1.25737,1.9357,1.95224,3.29236,1.67098,1.35664-.29779,2.31622-1.50555,2.28312-2.89529-.01654-1.70408.67833-3.2758,1.95226-4.31811,2.33278-1.95224,5.82367-1.62135,7.77591.71143.43017.51288.76106,1.12501.99268,1.81988.41361,1.27393,1.65445,2.10116,2.99455,2.00189s2.43204-1.10848,2.64713-2.43204c.28125-1.63791,1.24084-3.06074,2.63057-3.8714,2.63057-1.52209,6.00563-.6287,7.54428,2.00187.26472.46324.46324,1.00921.5956,1.67101.24816,1.22428,1.25737,2.15076,2.49821,2.31622,1.2574.14889,2.4486-.49634,2.97801-1.63791.67833-1.42283,1.86954-2.46511,3.34199-2.91182,2.91182-.87686,6.00563.76106,6.88251,3.67288.16543.56251.23162,1.17464.19853,1.88607-.06619,1.24084.66177,2.38241,1.80334,2.84565s2.46514.16543,3.29236-.76106c1.07538-1.20774,2.53131-1.88607,4.10303-1.88607,3.04418,0,5.50932,2.48167,5.50932,5.50932v.13236c0,.09926,0,.19853.0331.29779,0,.09929.03307.19855.06617.29781,0,.0331,0,.08273.01654.1158,0,.0331.0331.04966.0331.06619.08273.26472.21509.52941.36398.7445.01654.0331.04963.04963.06617.08273.14892.19853.33091.38052.52944.52941.0331.0331.06617.04966.09926.08273.21509.14889.44671.26472.71143.36398.04963.01656.1158.0331.16543.04963.24818.06619.51288.13236.79415.13236h.03307c.26472,0,.51288-.04963.7445-.1158h.08273c10.78702-3.29236,18.67874-7.26303,24.916-12.57382,2.4486,4.78136,8.04062,7.31266,13.36795,5.70784.04963,0,.08273-.0331.13236-.04963.21509.52944.4798,1.04231.77759,1.53865-8.38804,12.95431-18.56292,26.63662-33.02279,31.05399-.0331,0-.06619.0331-.09929.04963-.09926.0331-.21506.08273-.31432.13236-.06619.0331-.14892.06619-.21509.11582-.08273.04963-.16546.1158-.24818.16543-.06617.04963-.13233.09929-.19853.16546-.06617.06617-.13236.13236-.19853.21509-.06619.06617-.11582.13236-.18199.21506-.04963.06619-.09926.14892-.14889.23162-.04963.08273-.09929.18199-.14892.26472-.01654.0331-.04963.06619-.06617.11582s-.01654.0827-.0331.13236c-.0331.09926-.06617.19853-.09926.29779-.01654.08273-.0331.18199-.04963.26472,0,.09926-.01654.18199-.0331.28125v.29779c0,.08273,0,.18199.0331.26472,0,.09926.0331.21509.06617.31435,0,.04963,0,.08273.0331.13236,0,.0331.0331.04963.0331.06617.08273.26472.21509.51288.36398.74452.03307.03307.04963.06617.08273.09926.14889.19853.33088.38052.52941.52941.0331.01656.04963.04963.08273.06619.16543.1158.36398.23162.56251.31432,2.81256,1.17467,4.13612,4.4174,2.96148,7.2134-.08273.18199-.18199.34745-.28128.49634l-.09926.16546c-.61214,1.04231-.52941,2.34931.23162,3.29234.76106.94305,2.01843,1.32356,3.16.95958,1.60482-.51288,3.29236-.29779,4.649.57907,1.24084.79413,2.10116,2.03497,2.39895,3.47435.31435,1.43936.04966,2.91182-.7445,4.15266-.06617.09926-.14889.19853-.23162.28125l-.19853.23162c-.76106.92649-.89342,2.23352-.29781,3.2758.57907,1.05885,1.77027,1.62138,2.96148,1.45592,1.62135-.23162,3.24271.23162,4.41738,1.29047,1.10848.97612,1.77025,2.31624,1.85297,3.7887.09926,1.47246-.39705,2.89529-1.3732,3.9872-.1158.11582-.23162.21509-.36398.33091l-.18197.16543c-.92651.81069-1.24084,2.10116-.79415,3.24273.43017,1.12501,1.52209,1.86951,2.7133,1.86951h.06619c1.62135-.03307,3.22617.6287,4.26848,1.83644.97612,1.10848,1.4559,2.53131,1.35664,4.00376s-.76103,2.81258-1.86954,3.7887c-.1158.09926-.33088.24816-.56251.38052l-.09926.06619c-1.05885.6783-1.55519,1.95224-1.24084,3.17654.31435,1.20774,1.35666,2.10113,2.61403,2.18386,1.68755.11582,3.19307.95958,4.13612,2.29968,1.75371,2.49823,1.14157,5.93949-1.3401,7.67664-.11582.08273-.33088.19855-.54597.29781l-.13236.06617c-1.12501.57907-1.75371,1.80334-1.55519,3.04418s1.15811,2.21698,2.39895,2.43204c1.65445.28128,3.07728,1.24084,3.88797,2.66366.72796,1.27393.92649,2.76293.54597,4.18575s-1.29047,2.61403-2.5644,3.34199c-.08273.04963-.16546.06619-.24816.09926l-.31435.13236c-1.14157.49634-1.83644,1.65445-1.75371,2.87875.0827,1.24084.94302,2.28315,2.13423,2.59747,1.58828.43017,2.82912,1.45592,3.52398,2.87875.64523,1.32356.72796,2.82912.24816,4.21885-.47978,1.38973-1.47246,2.51477-2.76293,3.14344l-.13236.04963c-.13236.04963-.26472.08273-.39705.13236-1.14157.43017-1.90263,1.53865-1.8861,2.77949.01656,1.22428.81069,2.31622,1.9688,2.7133,1.50555.51288,2.68022,1.58826,3.29236,3.01108,1.19121,2.79602-.09926,6.03875-2.82912,7.2134l-.1158.0331c-.13236.0331-.26472.08273-.39708.1158-1.17464.39708-1.9688,1.47246-2.00187,2.7133-.0331,1.2243.72796,2.34934,1.86951,2.77949,1.47246.56251,2.5975,1.65445,3.17654,3.07728,1.12504,2.81256-.23162,6.00566-3.04418,7.16377-.14889.03307-.28125.06617-.41361.1158-1.17464.38054-1.98533,1.43939-2.03497,2.68022s.69487,2.36585,1.83644,2.81256c1.43936.57904,2.54784,1.67098,3.11037,3.07728.54595,1.3732.51288,2.86222-.06619,4.21883-.57904,1.32359-1.60482,2.34934-2.94492,2.89529-.13236.03312-.28125.06619-.41361.11582-1.17464.38054-1.9688,1.45592-2.00187,2.69676-.0331,1.22428.7114,2.34929,1.85297,2.79602,1.42283.54595,2.51477,1.62133,3.09381,3.01111,1.15811,2.77946-.13236,5.95598-2.86219,7.16374-.11582.03307-.24818.06619-.36398.11582-1.15811.41361-1.91917,1.50555-1.91917,2.74639,0,1.22428.76106,2.33278,1.91917,2.74639,1.40629.51288,2.51477,1.53863,3.14344,2.87873.61216,1.3401.67833,2.84565.16546,4.21883-.51288,1.37322-1.52209,2.48167-2.86219,3.09381-.13236.06619-.28125.09926-.41361.13238l-.26472.0827c-1.2243.38054-2.05153,1.52212-2.03497,2.79602,0,1.29047.8603,2.41548,2.0846,2.77946,1.63791.4798,2.92838,1.63794,3.55706,3.17656,1.14157,2.81258-.21506,6.03873-3.02762,7.19686-.18199.06614-.44671.13233-.79415.21509-1.19121.28123-2.0846,1.30698-2.21696,2.53131-.13236,1.22428.52944,2.39892,1.63791,2.92836,1.58826.76103,2.69673,2.16732,3.04418,3.83833.61214,2.97799-1.32356,5.9064-4.30158,6.51853-.26469.04963-.5956.0827-.90995.0827-1.17464.04963-2.2004.77759-2.61401,1.86954s-.14892,2.33278.69487,3.14344c1.29047,1.24084,1.88607,2.96148,1.63789,4.69863-.19853,1.45592-.95958,2.76295-2.13423,3.63981-1.17467.89342-2.63057,1.27391-4.08649,1.07538-.7445-.09926-1.47246-.36398-2.15079-.77759-.92649-.57907-2.0846-.57907-3.01108-.03307-.92649.54595-1.48902,1.5717-1.43939,2.64713.11582,2.23347-1.12501,4.30153-3.14344,5.26114-1.3401.6287-2.82912.69484-4.21885.19853s-2.49821-1.50555-3.12691-2.84565c-.04963-.13233-.08273-.28128-.14889-.41361-.44671-1.14157-1.57172-1.86954-2.77949-1.86954-1.22428.03307-2.31622.82722-2.69673,1.98536-.49634,1.47243-1.52209,2.63057-2.91185,3.27578-2.74637,1.2574-6.00563.06619-7.27957-2.64708-.04963-.14894-.08273-.28128-.14889-.41361-.43017-1.12506-1.52209-1.86954-2.72986-1.86954h-.06617c-1.2243.03307-2.31624.82722-2.7133,1.98531-.49634,1.47248-1.52209,2.63057-2.91185,3.25927-1.3401.61214-2.84563.67833-4.21883.16546-1.38976-.51288-2.48167-1.52206-3.09384-2.86222-.0827-.1654-.1158-.33086-.16543-.51288l-.04963-.18197c-.08273-.24816-.19855-.49637-.34745-.7114-.0331-.04963-.06617-.09926-.09926-.14889-.14889-.19858-.29781-.38054-.49634-.546-.26472-.21509-.43015-.82722-.39705-1.04231.38052-.95956.21506-2.06806-.43017-2.87873s-1.67098-1.22428-2.69676-1.07538c-2.76293.39705-5.3935-1.32359-6.1049-4.00379-.77759-2.94492.97612-5.97254,3.92104-6.75013,1.07538-.28128,2.18386-.24816,3.22617.13233,1.09194.38054,2.29968.08275,3.09381-.74447.79415-.84379,1.00921-2.06806.56253-3.12693-.6287-1.48899-.5956-3.09381.08273-4.5001.84376-1.77027,2.54784-2.92836,4.54974-3.09381,1.14155-.0827,2.11769-.84379,2.51474-1.91917.39708-1.07538.11582-2.28315-.69487-3.07725-.61214-.59563-1.05885-1.29047-1.3401-2.03499-1.02575-2.81258.39708-5.93947,3.16-7.03141.09926-.03307.19853-.04963.31435-.0827,1.19118-.3971,1.98533-1.48904,2.00187-2.74639,0-1.24084-.77759-2.3659-1.95224-2.77951-1.34012-.47975-2.43204-1.40624-3.07728-2.64708-1.32356-2.54787-.46324-5.62517,1.9688-7.16379,1.02575-.64521,1.53863-1.85297,1.307-3.02762-.23162-1.1747-1.17467-2.10118-2.34931-2.31622-1.19121-.21509-2.23352-.76108-3.02764-1.60482-1.91917-2.00192-2.01843-5.14536-.23162-7.29613.77759-.94305.87686-2.25008.28125-3.3089-.5956-1.05887-1.80334-1.63794-2.99455-1.42285-.89342.13238-2.23352.14889-3.57362-.61214-2.63057-1.48899-3.57362-4.81445-2.11769-7.44502.08273-.11582.18199-.2316.26472-.36398.67833-1.04231.62867-2.39897-.13236-3.37507-.76106-.97614-2.05153-1.3732-3.22617-.99268-1.57172.51288-3.24273.33088-4.59937-.49634-2.5975-1.58826-3.40819-4.99642-1.8199-7.59392.11582-.18199.31435-.43015.52944-.67833.79413-.94302.90993-2.26659.29779-3.32543s-1.8199-1.63791-3.02764-1.42283c-1.68755.29779-3.35853-.16546-4.6159-1.27393-1.10848-.97612-1.75371-2.33275-1.83644-3.80524-.08273-1.47246.39705-2.89529,1.38973-3.9872.13236-.14892.33088-.31435.61214-.54597.94305-.79413,1.29047-2.08462.87686-3.22617-.41361-1.15813-1.52209-1.91917-2.74637-1.91917-1.70408,0-3.27583-.7445-4.30158-2.03497-.92649-1.14157-1.3401-2.58096-1.17467-4.05342.16546-1.47246.87688-2.77946,2.03499-3.70595.16543-.13236.39705-.26472.7114-.44671,1.05885-.61214,1.62138-1.83644,1.40629-3.04418s-1.17467-2.15079-2.39895-2.34931c-1.68755-.28125-3.11037-1.2574-3.92106-2.7133-.72796-1.29047-.89339-2.77949-.49631-4.18575.39705-1.42283,1.32354-2.5975,2.61401-3.32546.16546-.09926.41361-.19853.76106-.33088,1.14157-.44671,1.90261-1.55519,1.88607-2.77946-.01654-1.2243-.81069-2.31624-1.98533-2.71332-1.62135-.54595-2.87875-1.75371-3.44126-3.3089-.06619-.19853-.16546-.38052-.26472-.54595.09926-1.15813-.49634-2.31624-1.60482-2.87875-1.43936-.71143-3.19307-.11582-3.9045,1.32356-.94302,1.90261-2.82909,3.09381-4.93025,3.09381h-.06617c-.21509,0-.41361.01654-.61216.06619-1.35664-.61216-2.39895-1.68755-2.89529-3.06074-.13236-.34745-.21506-.7445-.28125-1.19121-.16543-1.27393-1.14157-2.28315-2.41548-2.49821-1.27393-.21509-2.51477.43015-3.09384,1.58826-.94302,1.91917-2.84565,3.09384-4.96335,3.09384-1.14157,0-2.26659-.39708-3.22617-1.09194-.99268-.72796-2.33278-.76106-3.35853-.08273s-1.50555,1.9357-1.20774,3.12691c.13236.54597.19853.97612.19853,1.3732-.01654,3.02764-2.49821,5.47622-5.50932,5.47622h-.04963c-1.17467,0-2.29968-.41361-3.2758-1.14157-.99268-.76103-2.34931-.79413-3.37509-.1158-1.04229.69487-1.52209,1.95224-1.20774,3.15998.14889.57907.21509,1.05885.21509,1.48902-.04963,3.01108-2.51477,5.41006-5.50932,5.41006h-.09926c-1.67101-.0331-2.86222-.81069-3.57362-1.45592-.95958-.87686-2.38241-1.00921-3.49089-.31435-1.10848.67833-1.62135,2.01843-1.27393,3.25927.19855.67833.26472,1.307.21509,1.90261-.23162,3.02764-2.87875,5.34389-5.93947,5.06264-1.67101-.13236-2.81258-.97614-3.49089-1.67101-.89342-.90995-2.26661-1.14157-3.39163-.56251-1.14157.57907-1.77027,1.8199-1.57172,3.07728.1158.69487.1158,1.3401,0,1.9357-.57907,2.97801-3.49089,4.94681-6.4689,4.35121-1.53865-.29781-2.5644-1.20777-3.16-1.91917-.76103-.92649-2.01843-1.29047-3.16-.90995-1.14155.38052-1.9357,1.42283-2.00187,2.61403-.0331.67833,4.25192,5.82367,7.1803,5.92293,5.75748.19853,11.18407-2.21696,12.95434-7.56084.86032.28125,1.73718.46324,2.64713.54597,5.67475.43017,10.72082-3.37507,11.94512-8.76859.81066.19855,1.62135.31435,2.46511.33091h.21509c5.42659,0,10.00942-3.85487,11.10134-9.00021.66179.13236,1.34012.19853,2.01843.19853h.08273c5.44315,0,10.00942-3.85487,11.10136-8.98365.64523.1158,1.307.18199,1.9688.18199,2.44858,0,4.81443-.76106,6.71706-2.15079.38052.52941.81066,1.02575,1.27391,1.48899-3.29234,3.52398-4.10303,8.90094-1.62135,13.33486.82722,1.47246,1.9688,2.72986,3.32543,3.67288-1.00919,1.50555-1.63789,3.22617-1.85297,5.07917-.33088,3.01108.52944,5.97256,2.43204,8.33841,1.05885,1.32356,2.39895,2.36588,3.88797,3.09384-1.98536,4.40082-.99268,9.77778,2.81256,13.15287,1.29047,1.14157,2.77946,1.95224,4.40084,2.41548-1.20777,4.69865.72794,9.84399,5.07915,12.49112,1.32356.81066,2.79602,1.32354,4.31811,1.53863-.52941,4.41735,1.57172,8.91745,5.67477,11.23372.76103.43012,1.57172.77754,2.41548,1.00919-.92649,3.67288,0,7.69318,2.77949,10.57195.51288.54595,1.07538,1.02575,1.67098,1.43936-2.13423,3.3089-2.44858,7.59392-.51288,11.31643.51288.99268,1.15811,1.86954,1.91917,2.66364-3.02764,3.02767-4.21885,7.66011-2.66366,11.94512.04963.14889.1158.29779.18199.46324-2.15079,1.12506-3.92106,2.91185-4.99644,5.14536-.71143,1.50555-1.07541,3.14344-1.09194,4.78133-.7114.04963-1.40627.16546-2.10116.34747-2.92836.77759-5.37696,2.64708-6.91559,5.26114-1.52209,2.61401-1.9357,5.67475-1.15811,8.60311,1.12501,4.23539,4.53317,7.31269,8.63623,8.17298-.01656.59563,0,1.19121.0827,1.78683.81069,6.20418,6.51853,10.58846,12.72272,9.79431,2.26661-.29779,4.31811-1.24084,5.97256-2.69676,1.19121,1.29052,2.68022,2.28315,4.38431,2.91185,2.84565,1.05887,5.92293.92649,8.68586-.33086,1.25737-.57907,2.38239-1.37322,3.32543-2.33278,3.2758,3.04418,8.18952,4.00374,12.4911,2.01843,1.25737-.57907,2.38241-1.37322,3.32543-2.33278,1.10848,1.04231,2.44858,1.85297,3.92104,2.38241,2.86222,1.02575,5.93949.87686,8.66932-.41361,2.86219-1.35666,4.96335-3.7887,5.92293-6.68399.18199.03307.36398.06619.54597.0827,2.99455.41361,5.9891-.36398,8.4046-2.2004,2.41548-1.83646,3.97067-4.5001,4.38428-7.49465.26472-1.9688,0-3.95416-.72796-5.77401,4.54974-2.21701,7.22996-7.31269,6.17111-12.49112-.36398-1.77027-1.12504-3.37509-2.20042-4.7317,3.68941-3.0773,5.16187-8.32188,3.24271-13.004-.5956-1.45592-1.47246-2.72983-2.5644-3.80521,3.20964-3.25927,4.26848-8.30537,2.23352-12.72272-.54597-1.19121-1.27393-2.26659-2.16732-3.17656,3.06074-3.16,4.13612-7.9579,2.34931-12.27598-.51288-1.24084-1.24084-2.36585-2.11769-3.32546,1.05885-1.02575,1.90261-2.25003,2.49821-3.63981,1.20777-2.77946,1.2574-5.87327.14892-8.68583-.5129-1.29047-1.24084-2.44858-2.15079-3.45779,3.24271-3.11037,4.45047-7.99099,2.69673-12.40837-.52941-1.30703-1.29047-2.49823-2.25005-3.50745,3.2262-3.19307,4.36777-8.15642,2.46514-12.55726-.56251-1.32356-1.38973-2.53131-2.39895-3.52398,1.09194-1.15811,1.9357-2.53131,2.46514-4.06993.99265-2.86219.81066-5.93947-.5129-8.66932-.66177-1.35664-1.57172-2.54784-2.6802-3.52396,1.05885-1.2574,1.83644-2.72986,2.28315-4.36774.79413-2.92838.39705-5.98912-1.12504-8.61969-.79413-1.3732-1.83644-2.53131-3.09381-3.45779,2.76293-3.80524,2.96145-9.11603.09926-13.18596-.92649-1.30703-2.10116-2.39895-3.44126-3.1931.87686-1.48899,1.38973-3.17654,1.50555-4.96335.19853-3.02764-.79413-5.93947-2.77946-8.22261-1.05887-1.20774-2.34934-2.16732-3.7887-2.81256.67833-1.60482.99268-3.35853.87686-5.14534-.18199-3.02764-1.53863-5.79057-3.82177-7.809-1.20774-1.07538-2.63057-1.85297-4.15266-2.31622.44668-1.70408.47978-3.49089.09926-5.26116-.64523-2.96145-2.39895-5.49276-4.94681-7.13067-1.40627-.90993-2.99455-1.47246-4.6159-1.68752.26469-2.84565-.5956-5.65824-2.29968-7.90826,13.30176-6.00566,22.79831-18.52985,30.70657-30.62387.01654,0,.0331.01656.04963.0331,3.9376,2.11769,8.58659,1.68755,12.02783-.81069.72796.69487,1.53868,1.29047,2.4486,1.78681,1.68752.90995,3.52398,1.3732,5.37696,1.3732,1.09194,0,2.18388-.16546,3.25927-.47978,2.77946-.82722,5.07917-2.64713,6.53509-5.1288,2.33273,1.12501,5.01298,1.42283,7.61043.77759,5.7575-1.43936,9.39731-7.04794,8.47077-12.80545,2.05155-.44668,3.97072-1.4559,5.5259-2.97801,4.03686-3.95413,4.48354-10.20795,1.30698-14.67496,1.65445-1.32356,2.92841-3.12691,3.62325-5.19497l-.0827.0331ZM378.75361,469.77491c-1.57172.51288-3.24273.33088-4.59937-.49634-1.25737-.76103-2.13423-1.98533-2.48167-3.40816-.34745-1.43936-.11582-2.91182.66177-4.16922.11582-.18199.31435-.43015.52944-.67833.79413-.94302.90995-2.26659.29779-3.32543-.61214-1.05885-1.81988-1.63791-3.02764-1.42283-1.68752.29781-3.37507-.16543-4.6159-1.27393-2.26659-2.0184-2.48167-5.50929-.44671-7.79244.13236-.13236.33091-.31435.61216-.54597.94302-.79413,1.29047-2.0846.87686-3.22617-.41361-1.15811-1.52209-1.91917-2.74639-1.91917-1.70408,0-3.2758-.7445-4.31811-2.03497-.92649-1.14157-1.3401-2.58094-1.17467-4.0534.16546-1.47246.87688-2.77949,2.03499-3.70598.14889-.13236.39705-.26472.69487-.44671,1.05885-.61214,1.62135-1.83644,1.40627-3.04418-.21506-1.20774-1.17464-2.15079-2.39895-2.34931-1.68752-.28125-3.11035-1.2574-3.93757-2.7133-1.48902-2.64713-.54597-6.02219,2.10113-7.51121.16546-.0827.39708-.18199.69487-.29779h.08273c2.44858,0,4.73173-.79413,6.63436-2.18388.38052.54597.79413,1.05885,1.27391,1.50555-1.24084,1.30703-2.15079,2.91182-2.6471,4.69863-.81069,2.91185-.44671,5.98912,1.02575,8.61969.82722,1.47246,1.9688,2.72983,3.32543,3.67288-1.00921,1.50555-1.63789,3.22617-1.85297,5.07915-.33088,3.01111.52944,5.97256,2.43204,8.33844,1.05885,1.32356,2.39895,2.38241,3.88797,3.09381-1.98536,4.40084-.99268,9.7778,2.81256,13.15287,1.29047,1.14157,2.77946,1.95226,4.40084,2.41551-.5129,1.98533-.43017,4.0534.13233,5.97256-.54595-.14889-1.14155-.14889-1.68752.0331l.01654.01654ZM391.31087,564.54175c-1.4559.19853-2.91182-.19853-4.06993-1.09194-1.17467-.89342-1.91917-2.2004-2.10116-3.65632-.11582-.89342,0-1.80334.36398-2.71332.38052-.95956.21509-2.06806-.43015-2.87873s-1.67101-1.22428-2.69676-1.07538c-2.77949.39705-5.3935-1.32359-6.10492-4.00379-.38052-1.4228-.18199-2.9118.56251-4.18575.7445-1.27391,1.9357-2.18388,3.35853-2.56438,1.07541-.28128,2.18388-.24816,3.2262.13233,1.09192.38054,2.29968.08275,3.09381-.74447.79413-.84379,1.00921-2.06806.56251-3.12693-.6287-1.48899-.5956-3.09381.08273-4.5001.84376-1.77027,2.54784-2.92836,4.54974-3.09381,1.14157-.09926,2.11769-.84379,2.51477-1.91917.39705-1.07538.1158-2.28315-.69487-3.07725-.61216-.59563-1.07541-1.29047-1.34012-2.03499-1.02575-2.82909.39708-5.95603,3.16-7.01485.09926-.03312.21509-.04963.31435-.08275,1.19121-.39705,1.98533-1.48899,2.00189-2.74639,0-1.24084-.77759-2.36585-1.95226-2.77946-1.3401-.46324-2.43204-1.40629-3.07728-2.64713-1.32356-2.54782-.46324-5.62512,1.9688-7.16374,1.02575-.64526,1.53863-1.85297,1.307-3.02767-.23162-1.17464-1.17464-2.10113-2.34931-2.29966-1.19121-.21509-2.23349-.76103-3.02764-1.60482-1.91914-2.00187-2.01843-5.1288-.23162-7.29613.77759-.94305.89342-2.25003.28125-3.3089-.5956-1.05882-1.78678-1.62138-2.99455-1.43936-.89339.14889-2.23349.14889-3.59015-.61214-2.63057-1.48899-3.57362-4.81445-2.11769-7.44502.08273-.11582.18199-.23165.26472-.36398.1158-.18202.19853-.39705.26472-.59563.81066,1.04231,1.80334,1.98536,3.01108,2.71332,1.32356.81066,2.79602,1.32354,4.31811,1.53863-.52941,4.4174,1.57172,8.9175,5.67477,11.23372.76103.43017,1.57172.77759,2.41548,1.00919-.92649,3.67288.01654,7.69323,2.77949,10.57195.51288.54595,1.07538,1.02575,1.67098,1.43936-2.13423,3.3089-2.44858,7.59392-.51288,11.31643.51288.97612,1.15811,1.86954,1.91917,2.66369-3.02764,3.02762-4.21885,7.66006-2.66366,11.92856.04963.14889.1158.31435.18199.46324-2.15079,1.10845-3.92106,2.91185-4.99644,5.14531-.71143,1.50555-1.07541,3.14349-1.09194,4.78138-.7114.04963-1.40629.16546-2.10116.34742-6.05526,1.60482-9.66198,7.82556-8.05716,13.88085,1.17467,4.45047,4.89718,7.62699,9.26493,8.27225.14889.57907.38052,1.14157.66177,1.67096-.87686,1.09194-2.11769,1.8199-3.52398,2.00192l-.04963-.01656ZM518.80274,261.24814c-.59563,1.75372-2.03499,3.09382-3.83833,3.5736-1.14157.29781-1.98536,1.2574-2.15076,2.41551-.16546,1.17464.39705,2.31622,1.40624,2.91182.49637.29781.87686.56251,1.15813.86032,2.13425,2.16732,2.10113,5.67475-.06619,7.809-1.32354,1.29047-3.19307,1.83644-5.02949,1.4559-1.15813-.24816-2.34934.23165-3.01111,1.20777s-.67833,2.26659-.01656,3.25927c.38054.57904.64526,1.14157.77759,1.68752.72796,2.94492-1.07538,5.95603-4.0203,6.68399-1.98536.49634-4.06993-.16546-5.44315-1.73718-.76103-.86032-1.95224-1.19121-3.04418-.86032-1.09194.33091-1.8861,1.29047-2.03499,2.43204-.0827.71143-.29779,1.35666-.59558,1.9357-.69489,1.29047-1.86954,2.25005-3.27583,2.66366s-2.9118.26472-4.20231-.43015c-.99263-.54597-1.78678-1.3732-2.29966-2.39895-.46324-.92649-1.37317-1.53865-2.41548-1.60482h-.19853c-.95961,0-1.86954.47978-2.41553,1.27393-1.58826,2.34931-4.66553,3.11035-7.14721,1.77025-1.80334-.97612-2.89529-2.87875-2.86219-4.96335.01654-1.14157-.6287-2.20042-1.67101-2.69676-1.04229-.49631-2.26659-.31432-3.14344.43017-.5956.51288-1.27393.89339-2.00189,1.10848-2.91182.87686-5.9891-.79413-6.86595-3.70598-.66177-2.23349.16546-4.649,2.0846-6.03873.92649-.66179,1.3732-1.80334,1.15813-2.91185-.21509-1.10848-1.04231-2.00187-2.13425-2.28312-.51288-.13236-.92649-.28125-1.25737-.46324-1.29047-.69487-2.25005-1.86954-2.66366-3.27583-.41361-1.40627-.26472-2.89529.43015-4.20229.82722-1.53863,2.31624-2.5644,4.10303-2.81256,1.2574-.18199,2.25005-1.14157,2.46514-2.38241s-.39708-2.49822-1.50555-3.07728c-.49634-.26472-.8603-.49634-1.14157-.77759-2.25005-2.05151-2.41548-5.5424-.38052-7.79245,1.14157-1.25738,2.79602-1.90262,4.54974-1.75371,1.12504.08271,2.21696-.47979,2.77949-1.47246.56251-.99268.49631-2.21697-.16546-3.14346-.31435-.44671-.52941-.81068-.67833-1.19121-1.10848-2.82911.28125-6.03874,3.11037-7.14722,1.80334-.71141,3.82177-.41361,5.3935.81068.90995.71141,2.15079.81069,3.16.26472s1.62138-1.63791,1.53863-2.77948c-.04963-.66178,0-1.24084.11582-1.73718.74452-2.94492,3.75558-4.74826,6.7005-4.00376,1.8861.47979,3.34202,1.88607,3.90453,3.78869.33091,1.12503,1.32354,1.95225,2.48167,2.06806,1.19121.11581,2.29966-.46324,2.86222-1.50555.33086-.5956.67828-1.05885,1.07538-1.42283,2.23352-2.06806,5.74094-1.91915,7.79244.31435,1.30703,1.42283,1.75371,3.39163,1.20777,5.29423-.33091,1.12503.04963,2.33278.95956,3.07728.90998.74451,2.16732.86032,3.20964.31435.57907-.2978,1.05887-.49634,1.53863-.57905,1.43936-.28125,2.91185.03308,4.13612.86031,1.22433.82722,2.03499,2.08461,2.31622,3.52398.34747,1.85297-.26467,3.73905-1.67096,5.06261-.86035.81068-1.15813,2.05151-.74452,3.16.41361,1.10848,1.47248,1.85297,2.64713,1.88607.64526.01654,1.15813.09926,1.62138.24816,1.38973.46326,2.53131,1.45592,3.17651,2.77948.66177,1.32356.76103,2.81257.28128,4.21885h-.04963Z" style="fill:#fdf7ed;"/></svg>