<?xml version="1.0" encoding="UTF-8"?><svg id="a" xmlns="http://www.w3.org/2000/svg" width="800" height="800" viewBox="0 0 800 800"><path d="M448.79154,536.50318c-13.599,0-22.39834-1.79985-26.59804-5.39962-2.09985-1.79985-3.19978-4.09967-3.19978-6.69952,0-9.4993,7.69944-11.79911,14.39893-13.99896,6.89948-2.09985,13.89896-4.39967,17.5987-12.89904.39996-.99993.2-4.49967,0-6.59952-.1-1.59989-.29997-3.19978-.29997-4.59967,0-12.69907-7.09948-13.89896-46.89652-15.09889-4.0997-.1-8.49937-.29997-13.19903-.39996-7.79941-.29997-42.29686,2.69981-72.69463,5.2996-17.6987,1.49989-34.39745,2.99978-46.49656,3.89971-1.99985.1-3.69974-1.29989-3.79971-3.29974-.1-1.99985,1.29989-3.69974,3.29974-3.79971,12.09911-.89993,28.79786-2.29982,46.39656-3.89971,32.09763-2.79978,65.39515-5.69959,73.59456-5.39959,4.69966.2,9.09933.29997,13.19903.39996,36.99726,1.09992,53.796,1.59989,53.796,22.19837s.1,2.59981.2,4.0997c.29997,3.79971.59996,7.39945-.49996,10.09926-4.99963,11.49915-14.89889,14.59893-22.09837,16.89874-7.09948,2.19985-9.3993,3.29974-9.3993,7.09945s0,.69996.69996,1.29989c6.19955,5.2996,34.79741,4.29967,58.49567.69996,12.59907-1.69989,12.89904-4.79963,14.29893-16.19881,1.29989-13.299,6.79948-62.79534,9.69929-79.29412,1.49989-10.29923,1.09992-19.09859-1.29989-27.29797-.69996-2.09985-1.49989-4.0997-2.29982-6.09955-2.39982-6.09955-4.79963-12.49907-4.79963-19.79852s2.29982-8.39937,5.49959-14.39893c5.19963-9.5993,12.29908-22.7983,13.19903-42.39685.69996-16.39878-1.49989-53.59604-35.99733-65.09519,7.49944,10.69922,19.79852,31.69767,17.6987,59.19563-1.99985,26.39804-23.0983,44.89667-37.49722,48.09644-2.79978.59996-147.48908,4.49967-195.38553,5.59959-1.99985,0-3.59974-1.49989-3.69974-3.49974,0-1.99985,1.49989-3.59974,3.49974-3.69974,56.79578-1.29989,187.98608-4.99963,194.1856-5.49959,9.89926-2.29982,29.89778-17.19874,31.69767-41.59693,2.29982-29.99778-14.39893-52.09615-19.89852-59.29561-2.29982-2.99978-3.39974-4.49967-2.29982-6.6995.69996-1.49989,2.59981-2.29983,4.1997-1.89985h.49996c11.09918,2.09985,20.79845,6.6995,28.79786,13.699,15.39885,13.399,22.4983,33.89748,21.29844,60.89548-.99993,21.19844-8.79934,35.79734-13.99896,45.49663-2.49981,4.69966-4.69966,8.69937-4.69966,10.99919,0,5.99956,2.09985,11.39915,4.29967,17.19874.79993,2.09985,1.69989,4.29967,2.39985,6.49952v.1c2.59978,9.19933,3.09975,19.09859,1.49989,30.49774-2.69981,15.69885-8.19941,63.4953-9.5993,78.99415-1.39989,12.09908-2.39982,20.09849-20.29848,22.49833-4.0997.59993-18.59863,2.69981-33.59752,3.09975h-3.8998Z" style="fill:#fdf7ed;"/></svg>