<?xml version="1.0" encoding="UTF-8"?><svg id="a" xmlns="http://www.w3.org/2000/svg" width="800" height="800" viewBox="0 0 800 800"><path d="M425.493,486.75555c1.40017-1.80022,2.4003-1.80022,6.00076-1.80022,6.90087.10002,34.20436-2.20029,63.00801-4.70061,21.50273-1.90024,43.80556-3.80047,58.3074-4.70061,2.00025-.10002,3.50045-1.80022,3.30041-3.80047-.09999-2.00025-1.80022-3.50045-3.80047-3.30041-14.60183,1.00013-36.90472,2.90036-58.50744,4.8006-27.40348,2.4003-55.7071,4.8006-62.30791,4.70061-4.00051,0-8.10104,0-11.7015,4.50057-4.30053,5.40068-4.70061,13.70175-5.10065,22.50286-.80009,15.60196-2.10027,25.20322-14.00178,26.1033-3.80047.30003-7.901.7001-11.80149,1.10012-15.70201,1.60018-35.20449,3.50045-37.20474-3.90052.20004-4.20055,4.50057-6.10075,11.50146-8.90116,4.8006-1.90027,9.70125-3.90052,13.00165-7.40094,1.70023-1.90024,2.4003-4.8006,2.00025-8.90113-.80009-8.40106-6.60085-23.60301-10.10129-26.20334-.10002,0-.20004-.10002-.30003-.20004-28.90367-17.2022-45.10574-51.00649-40.30511-84.1107v-.10002c.20004-1.70023.50006-3.50045.80009-5.30066.80009-4.10053,1.50019-8.40106,1.10015-13.20169-1.30015-12.50159-13.50172-18.40233-23.30295-23.10294-1.90024-.90011-3.60046-1.70023-5.20067-2.60034-2.60034-1.50019-5.30066-3.00038-7.901-4.40055-9.50121-5.30066-19.30244-10.70137-27.10345-18.00229-6.70086-6.10078-12.00153-14.00178-14.90189-22.10282,0-.20004-.20002-.40004-.30004-.60008-.40004-.60008-.70009-1.30015-1.00013-2.00025.50006.10002,1.00013.20004,1.50019.20004,3.1004,0,6.10077-2.80034,6.00078-6.00076,0-.80009-.20004-1.50019-.50006-2.20029.50006,0,1.10015.20004,1.50019.30003.80009.20004,1.50019.30003,2.30028.40004l1.60021.20004c9.10116,1.20016,17.70226,2.4003,27.5035,2.4003,16.30206,0,30.40386-.80009,43.10549-2.60034,2.80034-.40004,5.60072-.90011,8.20106-1.40017,9.40119-1.80022,17.50223-3.30041,27.20347-.50006,17.80225,4.70061,28.40361,18.70239,27.90354,36.40462-.50006,9.80123,4.30053,29.40373,13.50172,39.10498,3.80047,4.00051,7.901,6.00076,12.40157,6.00076,10.3013,0,72.70926-1.60021,129.01641-3.1004,2.00025,0,3.50045-1.70023,3.50045-3.70048s-1.70023-3.50045-3.70048-3.50045c-56.20716,1.60021-118.51507,3.1004-128.81637,3.1004s-4.8006-1.30015-7.20093-3.70048c-7.30092-7.80098-12.00153-25.60326-11.50146-33.90431.7001-20.90265-12.30155-38.10485-33.10422-43.60555-11.20144-3.20042-20.60263-1.50019-30.40386.40004-2.60034.50006-5.30066,1.00013-7.901,1.40017-12.40157,1.70023-26.20334,2.50032-42.10536,2.50032s-17.70226-1.10015-26.50337-2.30028l-1.50019-.20004c-.60008,0-1.20016-.20004-1.90024-.40004-4.30055-.80009-10.10129-2.00025-14.50184.80009-2.4003,1.30015-3.50045,4.20055-3.70047,6.50083-.8001,4.40055,1.00013,9.50121,2.90036,12.70163,3.30042,9.10116,9.20117,17.80225,16.70212,24.60313,8.30104,7.80098,18.60237,13.50172,28.40361,19.00242,2.60034,1.40017,5.30066,2.90036,7.80098,4.40055h.10002c1.70023.90011,3.60046,1.80022,5.5007,2.70036,8.6011,4.10053,18.50235,8.80111,19.30244,17.40221.40004,3.80047-.30003,7.40094-1.00013,11.20144-.30003,1.90024-.7001,3.80047-.90011,5.80073-5.20067,35.80454,12.20156,72.30921,43.30549,91.01157.90011,1.20016,3.30041,6.10078,5.30066,12.20156,2.70036,8.30104,2.20029,11.90151,1.90024,12.40157-2.20029,2.4003-6.30079,4.00051-10.40132,5.60069-7.10091,2.80034-16.00203,6.40084-16.00203,15.90205s0,.40008,0,.7001c1.70023,9.10113,11.20144,11.50146,23.20296,11.50146,6.80085,0,14.30181-.80009,21.80276-1.50019,3.90049-.40008,7.901-.80009,11.60148-1.10012,19.10244-1.4002,19.90252-18.80238,20.60263-32.80416.40004-7.30092.7001-14.80187,3.60046-18.40233l.20004-.29993Z" style="fill:#fdf7ed;"/><path d="M379.48715,330.03561c-6.40081-12.70163-12.10154-12.70163-19.70252-.60008-9.50121,15.30193-14.60186,31.80403-12.70163,49.60631,1.30015,13.4017,7.00089,19.70252,19.10244,22.30282,21.60275,4.50057,35.60453-10.20131,29.20373-31.20398-4.50057-14.00178-9.50121-27.30346-15.90202-40.10511v.00003Z" style="fill:#fdf7ed;"/><path d="M333.18127,311.43324c-.10002.20004-.20004.40004-.20004.7001-.50006,2.50032,1.70023,4.8006,4.20055,5.00064,1.90024.20004,3.60046.20004,5.30066-.10002,3.90049-.80009,2.80034-4.40055,2.4003-7.00089s-1.10015-5.10065-1.90024-7.50095c-.30003-.90011-4.8006-4.8006-5.40068-4.10053-2.70036,3.20042,2.30028,5.60072,1.90024,6.2008-1.90024,3.1004-4.70061,3.50045-6.30079,6.80085Z" style="fill:#fdf7ed;"/></svg>