<?xml version="1.0" encoding="UTF-8"?><svg id="a" xmlns="http://www.w3.org/2000/svg" width="800" height="800" viewBox="0 0 800 800"><path d="M393.02985,349.29791c1.75371,0,3.16-1.42283,3.16-3.15998s-1.42283-3.16-3.16-3.16-3.16,1.40627-3.16,3.16,1.40629,3.15998,3.16,3.15998Z" style="fill:#fdf7ed;"/><path d="M538.60483,372.85728c-.06619-.84376-.77759-1.48899-1.62138-1.48899l-2.10113.03307c-7.9579.11582-15.91579.24818-23.87369.34745-7.0149.08273-14.26134.16546-20.86263-2.06806-9.84394-3.34199-18.51326-12.07748-25.74322-25.95831-2.0515-3.95413-3.93757-8.02409-5.90637-12.34218-6.00566-13.05363-12.20984-26.55391-23.64209-35.81884-3.24271-2.63057-5.64165-6.18765-8.17298-9.94323-2.15076-3.20964-4.38428-6.51853-7.24647-9.31456-4.08649-4.00376-8.75205-7.31266-13.28522-10.5223-3.17654-2.25005-6.4689-4.58282-9.46345-7.09759-.39708-.33088-1.90263-1.9357-3.35853-3.49089-11.7135-12.458-16.42869-16.46176-19.39015-16.46176-.87686,0-1.67101.33088-2.25005.94304-.99268,1.05885-1.9357,3.02764-1.62135,4.83099.87686,5.14534,1.9357,10.65466,3.32543,17.33862,2.15079,10.34031,4.5332,20.38283,9.82743,29.54846-2.36588.94305-4.91372,1.90263-7.61048,2.91185-11.44878,4.26848-24.40312,9.09947-32.1294,17.04083-.61214.62867-.82722,1.37317-.95958,1.86951-.01654.08273-.04963.14889-.06617.23162-4.5001,13.46721-14.311,21.22659-32.82429,25.97485-3.68941.94305-7.34573,2.13425-10.88625,3.27583-1.3732.44668-2.74639.89339-4.11959,1.32356-4.15266,1.307-6.12146,4.08647-6.15455,8.73549-.11582,12.67306,8.4046,29.51537,22.36816,34.62761,6.25382,2.28315,12.93778,1.86954,19.22469,1.09194,13.99665-1.75371,29.26721-3.37509,45.97713-3.47435h.13236c2.72986,0,3.02764.49634,3.25927,1.30703,2.77949,9.46345,4.96335,18.03349,3.45782,27.08332-.52944,3.16-1.2574,6.48544-2.03499,10.02596-2.51474,11.49842-5.37696,24.53548-1.4559,35.40523.14889.43015.28125.87686.41361,1.32354.33088,1.1085.7114,2.36588,1.42283,3.50745.51288.82722,1.70408,2.74637,3.78868,2.74637h.04963c1.05885,0,2.01843-.51288,2.84565-1.50553,1.12501,4.74826.69487,13.84776-.51288,15.68417-33.15517,4.649-69.51996,6.88251-114.35554,7.04797-14.59223.04963-36.64604.13233-45.8944,20.00228-1.14157,2.46511-.8934,5.37696-.66178,7.94134.06618.66177.11581,1.32359.14889,1.9688.13236,2.6802,3.24272,3.44128,10.15832,4.10305,4.99644.47975,12.37528.8603,21.92145,1.10845,10.30722.26472,23.37736.41361,39.045.41361,9.54618,0,20.08501-.04963,31.5338-.14889,54.34866-.4798,117.31699-1.98531,151.1505-2.77946,11.54802-.28128,19.90302-.4798,23.29462-.52944,1.27396-.01651,2.46511-.66177,3.16-1.72064.69489-1.04226.81066-2.36585.34742-3.52393-.43012-1.04231-.8603-2.3659-1.29047-3.63981-1.10845-3.3089-2.01843-6.03873-3.40816-7.03141h25.62745c1.86949,0,3.29234-2.28315,1.30698-4.46703-.03307-.04963-.09926-.06614-.16546-.06614h-29.59807c-.92649-1.35666-1.8199-2.6802-2.61406-4.06998-1.53863-2.6802-3.90448-8.752-2.48167-19.25776.16546-1.24084-.7114-2.38241-1.95224-2.54787-1.24084-.16543-2.38241.7114-2.54782,1.93573-1.58831,11.84586,1.22428,18.94341,3.04418,22.11998.89337,1.57175,1.90261,3.07725,2.9118,4.53317.34247.407.67833.89342,1.00924,1.45592.84373,1.20777,1.70408,2.46511,2.48167,3.70595.03307.04963.06619.09926.09926.14894.54595.72791,1.32354,3.07725,1.9688,4.96335.33086.99263.66177,2.00187,1.00919,2.92836-3.88797.06619-11.76311.24816-22.3185.51288-32.59264.77759-93.24475,2.21696-146.45184,2.74639-79.31428.77759-98.77061-.92649-102.77437-2.20045-.0331-.34742-.06618-.69484-.08273-1.05882-.18199-2.10113-.38052-4.26851.26472-5.64168,7.42847-15.94891,24.00605-17.32208,41.80794-17.38828,45.21607-.1654,81.87867-2.43204,115.34817-7.14718.77759-.11582,1.90263-.546,2.79602-1.98536,2.63059-4.21883,2.11769-16.31287.76106-20.48209-.38052-1.15811-1.15811-3.55706-3.35853-3.78868-1.8199-.19855-2.96148,1.27393-3.60671,2.31622-.33088-.61214-.57904-1.40627-.82722-2.25005-.16543-.52941-.31435-1.05885-.49631-1.57172-3.47435-9.64544-.76106-22.00418,1.62135-32.90699.79413-3.59015,1.52209-6.98178,2.06806-10.25758,1.65445-9.99289-.64523-19.09236-3.59015-29.10175-.38054-1.30703-1.02578-2.23352-1.80337-2.89529.33091-.26472.57907-.6287.69489-1.05885,2.44858-9.46345-.97614-20.267-8.53696-26.48775-1.32356-1.09194-12.39183-13.69884-13.36795-15.10513,0,0-17.66953-.61214-27.4804-5.64165,5.70784-4.33467,10.58846-10.35687,13.46721-18.96.04963-.14889.09926-.29779.13236-.44671,0-.03307.01654-.0827.0331-.13233,7.04794-7.0976,19.37358-11.7135,30.2764-15.76692,2.84565-1.05885,5.54241-2.06806,8.04062-3.07725,1.3732-.54597,2.25005-1.3732,2.61403-2.46514.57907-1.65445-.31435-3.20964-.7445-3.95413-4.94681-8.57006-7.2134-18.19894-9.28146-28.14218-1.38973-6.63434-2.43204-12.09402-3.29236-17.14009,0-.04963,0-.13236.0331-.21507,3.40816,1.91915,12.35874,11.43224,15.45255,14.72459,2.13425,2.2666,3.17656,3.37508,3.73907,3.85487,3.12691,2.63057,6.50197,5.02954,9.76124,7.32922,4.36774,3.11035,8.90094,6.30345,12.72272,10.05903.33088.33091.64523.66179.95958.99268.06617.14889.14889.28125.24816.41361,9.49655,12.65653,12.20984,17.14009,6.08839,27.11642-.66179,1.07541-.31435,2.46514.7445,3.11037,1.05885.66177,2.46514.31435,3.11037-.7445.7114-1.15813,1.307-2.25005,1.81988-3.32546.66179,6.89905.82722,16.18051,5.21153,29.51537,7.72627,23.44357,16.37904,49.68313,39.65715,62.0915,13.99665,7.46156,29.10173,7.70971,47.44961,8.00753,7.42846.1158,12.57377-.13236,17.70258-.38052.99268-.04966,1.77027-.90995,1.68752-1.90263l-2.36585-31.56689.01656.08273Z" style="fill:#fdf7ed;"/><path d="M393.01165,322.94255c-.38052-1.68755-1.57172-3.7887-3.02764-4.51664-4.03683-2.01843-8.28878-3.7887-12.63999-4.93028-4.54974-1.20774-10.40647-3.8714-12.68962,2.7133-.95958,2.76295-1.19121,5.80713-1.32356,9.09947-.18199,4.48357-.5956,9.662,3.88797,9.39728.43015-.0331,4.76482-1.07541,5.16187-1.20774,6.08839-1.9688,11.92859-4.78136,17.76879-7.46158,1.24084-.56251,3.04418-2.28312,2.86219-3.07728v-.01654ZM372.38066,326.21835c-1.83644,0-3.34197-1.48899-3.34197-3.34199s1.48899-3.34197,3.34197-3.34197,3.34199,1.48899,3.34199,3.34197-1.48899,3.34199-3.34199,3.34199Z" style="fill:#fdf7ed;"/></svg>