<?xml version="1.0" encoding="UTF-8"?><svg id="a" xmlns="http://www.w3.org/2000/svg" width="800" height="800" viewBox="0 0 800 800"><path d="M608.85606,469.26203c-.67833-.89342-1.91917-1.15811-2.89529-.6287-2.08462,1.12504-7.42851,3.8714-11.71353,6.00566,3.32546-6.12146,6.53509-12.98744,8.60316-20.34973,2.25003-8.05716,4.48354-18.69528,1.70408-29.53193-1.65445-6.45234-3.09381-6.6178-4.05342-6.73359-1.00919-.11582-2.00187.41361-2.49818,1.35664-.99268,1.88607-3.19313,4.00376-5.2777,5.60858-.57907-4.28502-1.68757-10.82009-2.61406-13.46721l-.06614-.21506c-.74452-2.11769-1.98536-5.67477-4.11961-9.92669-2.86216-5.69131-6.6178-11.151-11.13441-16.21361-1.80339-2.01843-11.08483-11.99476-17.63643-11.33299-1.60482.16546-2.71332.81069-3.27583,1.91917-.89342,1.75371.18202,3.55706.546,4.15266,8.70237,14.49299,13.28522,31.08711,12.57377,45.53045-.56251,11.28336-5.37696,21.16042-12.88812,26.45465-9.01677,6.35308-21.34243,6.17109-31.07055,5.31077-19.85339-1.75371-32.92358-8.10679-41.14619-19.96919-5.42659-7.8421-8.90092-16.9912-12.25945-25.84251-2.49821-6.60124-5.09571-13.41756-8.50387-19.7872-.61214-1.14157-1.2243-2.29968-1.8199-3.44126-6.5847-12.47454-13.40102-25.37924-28.14217-31.56689-9.62888-4.0534-20.28354-5.19497-30.35915-6.03873-41.8741-3.47435-84.50924-2.81256-125.73813-2.18388-7.9579.11582-15.91579.24818-23.87369.34745-2.01843.01654-4.0534.04963-6.08837,0-4.30157-.06619-8.60313-.38052-12.68962-1.47246-.99267-.26472-1.9357.56251-1.83644,1.58826l3.25927,31.15328c.11581,1.04231.92649,1.853,1.96879,1.95226,7.04796.64523,18.97653,1.62135,25.95831,1.73715,14.84041.24818,20.58135-.99265,35.3225-.7445,11.29987.19855,24.76711,2.16732,36.10007,7.27959-1.27393,4.88062-1.19121,10.12522-.84376,14.90658,1.19121,16.3294,4.91372,32.34449,11.05171,47.61504.36398.89342,1.04231,2.11769,1.83644,3.52398.95958,1.72062,2.96148,5.31077,2.96148,6.31998-.0331.26472-.06619.4798-.09929.64523-.0827-.01654-.14889-.04963-.23162-.06617-.90993-.26472-2.16732-.6287-3.75558-.77759-8.35497-.76106-17.30555-1.47246-26.8848-1.29047-10.57193.21509-19.30742.66177-27.5135,1.42283-9.82743.90995-16.04815,5.50932-18.57946,13.6823h-29.10177c-1.20774,0-2.21696.95956-2.2666,2.16732-.06617,1.29047.97613,2.36585,2.2666,2.36585h28.12565c-.4798,2.29971-.97614,11.39918-.97614,13.64921,0,.99268.64523,1.86954,1.58828,2.16732,9.28146,2.92841,57.34321,1.90261,103.81668.90998,20.64752-.44673,40.15349-.86035,54.74571-.87686,7.64355,0,14.82388-3.72251,19.24125-9.94326,2.39895-2.72983,4.79789-5.45971,7.19684-8.18954,1.68755,1.60482,4.86408,3.98723,10.95247,7.7263l.28125.18197c9.52962,5.92296,17.68604,7.26306,30.19367,8.95058,17.65299,2.39897,36.39788,2.87878,55.68876,1.43936,2.03499-.14889,4.11961-.28123,6.25382-.39705,14.62532-.8603,31.20294-1.8199,42.07268-13.05358,1.58826-1.63794,3.82177-4.96335,5.02949-6.79981,2.97804-4.56627,3.77214-5.79057,2.66369-7.26303l-.04963.0331ZM597.90362,480.16485c-9.62891,9.95977-25.27998,10.86974-39.07813,11.68041-2.15076.13238-4.28502.24816-6.33652.39705-18.97653,1.42285-37.39056.94305-54.74571-1.40624-12.27603-1.65445-19.6383-2.86222-28.40689-8.32188l-.31435-.18202c-7.77591-4.76482-10.02596-6.89902-10.67119-7.62699.03307-.66182-.23165-1.34012-.76106-1.8199-.94305-.82722-2.36588-.72796-3.1931.19853l-1.65445,1.88605c-2.58094,2.92841-5.16187,5.85676-7.72627,8.78517-.06617.06614-.1158.14889-.16543.2316-3.09384,4.73175-7.87519,8.07372-13.51685,8.07372-14.82388,0-35.22324.41361-56.8965.87686-41.70867.89342-88.71158,1.88605-100.72287-.31435.13236-3.34197.51288-9.34763.82722-10.91937,0-.04963.01654-.09926.0331-.14889.09926-.81066.23162-1.5717.39705-2.29966.06619-.16546.09926-.33091.11582-.51288,1.73718-7.24652,6.4689-10.8863,15.00584-11.68043,8.09026-.76106,16.72648-1.20774,27.16605-1.40629,9.34765-.18199,18.16587.52944,26.38848,1.27393,1.15811.09926,2.0846.38052,2.89529.61214,1.27391.38054,2.72983.79415,4.10303-.0827,1.35664-.87688,1.75371-2.54787,2.00187-4.21885.29781-2.18388-1.19118-5.04607-3.49086-9.16566-.67833-1.22428-1.32356-2.36585-1.57175-2.99455-5.956-14.82385-9.57925-30.39222-10.73736-46.25838-.46324-6.36964-.46324-13.58304,3.09381-18.9269,4.5001-6.75016,13.61611-8.96711,20.48209-9.64544l.54597-.04963c17.12353-1.70408,40.55054-4.02032,55.29169,31.35181.47978,1.15811,1.80334,1.70408,2.96145,1.2243,1.15811-.4798,1.70408-1.80337,1.2243-2.96148-2.76293-6.63433-5.8733-12.01129-9.19873-16.41213,18.89381,7.54428,33.3206,21.25968,47.54885,36.10009,4.13612,4.31811,9.92669,5.93947,15.27058,7.67664,1.24084,2.28312,2.58094,4.51664,4.06993,6.68396,11.87893,17.17319,31.07055,20.73025,44.4716,21.90492,10.4892.92649,23.85713,1.07538,34.08166-6.12148,8.65274-6.08836,14.19515-17.28899,14.82385-29.94551.74452-15.0224-3.8714-32.16249-12.68965-47.1849,3.45784.87686,9.18222,5.92293,12.57382,9.72817,4.20231,4.69863,7.82556,9.97633,10.47269,15.23746,2.00187,3.97069,3.17651,7.36232,3.88792,9.38075l.06619.21506c.86035,2.48167,2.21696,10.60502,2.6802,14.67498.13238,1.10848.79415,2.06806,1.80334,2.54784,1.00924.47978,2.16737.41361,3.11037-.19853.43017-.28125,3.16-2.06806,5.59205-4.5663.49637.13236.6287.16546,1.12501.29781,2.56443,9.82743.46324,19.75413-1.63789,27.29841-2.61401,9.36419-7.29613,18.01695-11.53151,25.24691-.52944.90993-.4798,2.08457.24816,2.84565,1.22433,1.29047,2.4486.7114,5.1288-.546,1.37322-.64521,3.2262-1.55519,5.54241-2.71327.95956-.4798,1.9688-.99268,2.94492-1.48904-1.05887,1.53868-2.11769,2.94492-2.89529,3.73907l-.03307-.04963Z" style="fill:#fdf7ed;"/></svg>