<?xml version="1.0" encoding="UTF-8"?><svg id="a" xmlns="http://www.w3.org/2000/svg" width="800" height="800" viewBox="0 0 800 800"><path d="M523.90554,283.22967c2.20029-.30003,4.60056.40004,7.20093,1.90024,1.20016.7001,2.70036.30003,3.40046-.90011.7001-1.20016.30003-2.70036-.90014-3.40043-3.50045-2.10027-7.00089-2.90036-10.3013-2.50032-14.1018,1.70023-22.10282,24.80314-22.20284,40.20512,0,10.40132,3.30041,21.00267,9.70125,30.40386.40004.60008,1.00013.90011,1.60018,1.00013.09999,4.00051.09999,7.901-.50006,11.60148-2.60034,14.70188-11.60148,26.00331-26.70341,33.50426-1.20016.60008-1.70023,2.10027-1.10015,3.40043.40004.90011,1.30015,1.40017,2.30028,1.40017s.80009,0,1.10015-.30003c16.60212-8.30104,26.50337-20.80263,29.40376-37.10472,1.00013-5.40068.7001-11.0014.50006-16.30206-.09999-2.30028-.20004-4.8006-.20004-7.10091s-1.10012-2.50032-2.50032-2.50032-2.50032,1.10015-2.50032,2.50032v2.4003c-3.20042-5.80073-6.10078-13.70175-6.00076-22.90291,0-15.30193,7.80098-34.00432,17.70226-35.20449v-.10002Z" style="fill:#fdf7ed;"/><path d="M499.40239,401.44469c.40004-1.30015-.30003-2.70036-1.60021-3.20042-1.30015-.40004-2.70036.30003-3.20042,1.60021-3.00038,8.90113-13.00165,17.80225-25.50324,22.80289-10.10129,4.00051-19.80251,4.50057-26.00331,1.30015h-1.90027c-.10002,0-.20004,0-.30003.10002h-.10002c-.10002,0-.30003.20004-.40004.30003h0c-.10002,0-.20004.20004-.30003.30003v.10002s-.10002.20004-.20004.30003h0s0,.20004-.10002.30003,0,.10002,0,.20004v.50006h0c-.10002.30003-.50006.7001-.7001,1.10015-2.10027,3.20042-6.2008,9.30117-7.60097,23.90303-7.20093,30.20385-20.90265,39.70506-29.9038,45.90583-5.60072,3.80047-10.40132,7.20093-10.10129,13.60174.30003,8.10101.7001,12.60158.7001,12.70163.30003,3.50045.60008,5.90077.90011,7.60094.20004,1.20016.30003,2.10024.30003,2.90039h-1.10015c-.50006-.09999-1.10015,0-1.50019.30003-4.10053,2.50032-9.90125,7.30092-13.50172,20.6026-.50006,1.80022-.90011,3.30041-1.20016,4.60056-1.30015,4.90065-1.90024,7.30092-4.40055,13.10164-4.00051,9.30117-8.40106,15.60196-16.5021,16.00203-1.20016,0-2.60034.20004-4.00051.30003-5.10065.40008-11.30142.90014-15.10193-1.00013-1.80022-.90014-2.80034-3.30041-2.50032-5.40071.50006-3.00038,3.00038-4.50057,5.90074-6.40084,1.30015-.80009,2.70036-1.70023,3.90049-2.70036h0c.90011-.7001,2.20029-2.00025,4.20055-4.8006,3.1004-4.20055,5.80073-9.30117,8.10104-15.30193.30003-.80009,1.10015-2.80034.80009-5.20067-.30003-2.50032-1.70023-4.50057-3.20042-6.40084-8.70112-10.80136-14.80187-20.10253-17.70226-26.70341-1.80022-4.20055-5.20067-12.10154-2.50032-20.30257.90011-2.60034,2.30028-5.10065,4.20055-7.30092.90011-1.00013.80009-2.60034-.20004-3.50045s-2.60034-.80009-3.50045.20004c-2.4003,2.70036-4.10053,5.80073-5.20067,9.00114-2.00025,6.10078-1.30015,11.90151,0,16.5021-13.80174-.60008-27.60352.20004-41.10523,2.50032-1.40017.20004-2.30028,1.60018-2.00025,2.90039.30003,1.4002,1.50019,2.20029,2.90036,2.00025,13.80174-2.40033,27.90354-3.20042,42.00534-2.40033.30003.80009.7001,1.60018,1.00013,2.30028,3.90049,8.90116,12.10154,20.10253,18.40233,27.90357,1.40017,1.70023,2.00025,2.80034,2.10027,3.90052.20004,1.20016-.20004,2.20029-.50006,2.80034-4.90062,12.80162-10.70137,17.9023-10.80136,18.00229-1.00013.80009-2.10027,1.50019-3.30041,2.30028-3.40043,2.20029-7.30092,4.60056-8.20106,9.80123-.7001,4.30053,1.40017,8.80111,5.10065,10.70137,3.00038,1.60018,6.60085,2.00025,10.3013,2.00025s5.10065-.20004,7.50095-.40008c1.40017-.09999,2.70036-.20004,3.80047-.30003,13.00165-.60005,18.30232-13.00165,20.90265-19.00242,2.70036-6.10075,3.40043-8.90116,4.60059-13.80174.30003-1.30015.7001-2.80034,1.20016-4.50057,2.90036-10.80136,7.30092-15.00191,10.60135-17.2022l2.90036.20004c1.40017.09999,2.50032-.90014,2.70036-2.20029.30003-2.30028,0-3.80047-.30003-6.50083v-.60005c2.10027,3.00038,4.20055,5.30066,6.10078,7.40097,1.00013,1.10012,2.00025,2.20029,2.80034,3.20042,1.40017,1.70023,2.00025,2.80034,2.10027,3.90052.20004,1.20016-.20004,2.20029-.50006,2.80034-4.90062,12.80162-10.70137,17.9023-10.80136,18.00229-1.00013.80009-2.10027,1.50019-3.30041,2.30028-3.40043,2.20029-7.30092,4.60056-8.20106,9.80123-.7001,4.30053,1.40017,8.80111,5.10065,10.70137,1.60021.80009,4.10053,1.20016,7.60097,1.20016s9.70125-.60005,16.60212-1.80022c5.60072-1.00013,10.40132-3.90052,13.60174-8.10101,3.20042-4.30053,5.70074-9.70125,7.10091-13.40173,1.90024-4.8006,3.70048-9.70125,5.5007-14.40186,3.40043-9.20118,7.00089-18.70239,11.10142-27.70354,2.60034-5.70074,1.60021-12.30155-2.50032-16.70214-5.60072-6.10078-11.50146-23.40297-13.70175-33.30422-.7001-8.90113-.60008-16.00203,0-21.70277v-.30003c1.30015-13.30168,4.90062-18.70239,6.70086-21.50273.10002-.20004.20004-.30003.30003-.50006,2.90036,1.10015,6.30079,1.60021,9.90125,1.60021,5.5007,0,11.60148-1.30015,17.90227-3.80047,13.80174-5.5007,24.90316-15.70201,28.40361-25.90329l-.59999-.0999ZM446.29563,510.15852c2.70036,2.90036,3.30041,7.40094,1.60021,11.30146-4.10053,9.20118-7.70099,18.80238-11.20144,28.00356-1.80022,4.70061-3.60046,9.6012-5.5007,14.30181-1.30015,3.40046-3.60046,8.30104-6.50083,12.20156-2.4003,3.20042-6.2008,5.5007-10.50134,6.2008-12.70163,2.20029-19.20245,2.00025-21.00267,1.10012s-2.80034-3.30041-2.50032-5.40071c.50006-3.00038,3.00038-4.50057,5.90074-6.40084,1.30015-.80009,2.70036-1.70023,3.90049-2.70036h0c.90011-.7001,2.20029-2.00025,4.20055-4.8006,3.1004-4.20055,5.80073-9.30117,8.10104-15.30193.30003-.80009,1.10015-2.80034.80009-5.20067-.30003-2.50032-1.70023-4.50057-3.20042-6.40084-.90011-1.10012-1.90024-2.20029-3.00038-3.40046-3.30041-3.70048-7.40094-8.20106-10.60135-15.40198-.10002-.20004-.30003-.50006-.40004-.7001-.10002-1.90027-.20004-4.30053-.30003-7.10091-.10002-3.50045,2.50032-5.5007,8.00102-9.30117,7.80098-5.40068,18.80238-13.00165,26.8034-32.50413,0,1.70023.20004,3.50045.30003,5.40068v.40004c1.90024,8.40106,8.00102,28.30359,15.00191,35.80454l.10005-.09987Z" style="fill:#fdf7ed;"/><path d="M502.70283,225.62234c2.4003-1.30017,10.80136-5.20066,19.80251-1.80023,3.20042,1.20015,6.10075,3.2004,8.60107,5.90074.50006.50006,1.20016.8001,1.90027.8001s1.20016-.20002,1.70023-.70009c1.00013-.90011,1.10012-2.50032.20004-3.60046-3.00038-3.30042-6.50083-5.70072-10.50134-7.20091-11.0014-4.10053-21.10269.50006-23.90303,2.10027-1.20016.70009-1.70023,2.20028-1.00013,3.40043s2.20029,1.70021,3.40043,1.00013l-.20004.10002Z" style="fill:#fdf7ed;"/><path d="M548.90872,251.02556c.40008.90011,1.30015,1.40017,2.20029,1.40017s.80009,0,1.10012-.30004c1.20016-.60008,1.70023-2.10027,1.10012-3.40043-2.20029-4.30055-5.40071-8.10104-9.20118-11.0014-6.30079-4.70059-12.80162-6.00076-17.2022-6.20079-1.4002,0-2.60031,1.00013-2.70036,2.4003,0,1.40017,1.00013,2.60034,2.40033,2.70034,3.70048.20002,9.20118,1.30017,14.50184,5.20066,3.20042,2.4003,5.90077,5.60072,7.70099,9.20117l.10005.00002Z" style="fill:#fdf7ed;"/><path d="M547.90859,263.82718c-1.00013-10.50134-10.3013-15.20193-10.70137-15.40195-1.20016-.60008-2.80034-.10002-3.40046,1.10015-.60005,1.20015-.09999,2.80036,1.10012,3.40043.30003.10002,7.20093,3.70048,7.90103,11.40144.60005,6.80085-4.1005,11.30142-4.60056,11.80149-1.00013.90011-1.10012,2.50032-.20004,3.60046.50006.50006,1.20016.80009,1.90027.80009s1.20016-.20004,1.70023-.7001c1.20016-1.10015,7.10088-7.00089,6.30079-16.00203v.00003Z" style="fill:#fdf7ed;"/><path d="M271.07337,381.14212c-1.40017,0-2.80034,0-4.10053.20004-1.40017.10002-2.4003,1.40017-2.30028,2.80034s1.40017,2.4003,2.70036,2.20029c3.00038-.30003,5.5007-.30003,9.40119.50006,2.50032.50006,4.40055,1.10015,6.30079,1.70023,5.00064,1.60021,9.30117,3.00038,18.50235.50006,1.30015-.40004,2.20029-1.60021,2.00025-2.90036-.30003-1.50019-1.70023-2.4003-3.20042-2.00025-7.80098,2.20029-11.10142,1.10015-15.70201-.40004-.10002,0-.20004,0-.30003-.10002,16.80212-1.90024,28.70366-3.70048,41.40526-5.90074,14.1018-2.50032,25.30321-4.40055,35.10447-4.90062,24.10307-1.20016,49.20627,3.80047,74.60949,14.90189h1.00013c.10002,0,0,0,0,0h.60008c.20004,0,.40004-.10002.60008-.30003h.20004c33.60428-25.90329,25.60326-54.10689,19.10244-76.70974-2.50032-8.6011-4.8006-16.70214-4.70061-24.00305,0-12.20156.20004-35.00445,15.00191-52.7067,2.80034-3.30042,8.10104-8.40106,15.00191-12.70161,5.60072-3.60046,9.30117-5.80074,14.80187-6.3008,3.80047-.30004,7.60097.20002,11.30142,1.70021,1.30015.50006,2.80034-.10002,3.30041-1.40017.50003-1.30017-.10002-2.80036-1.40017-3.30042-4.50057-1.70021-9.00114-2.4003-13.60174-2.00025-7.00089.60008-11.90151,3.70047-17.10218,7.00089-9.20118,5.90074-14.70188,12.00153-16.10205,13.70174-15.90202,19.10244-16.10205,43.10549-16.10205,55.9071,0,7.901,2.4003,16.40208,4.90062,25.40322,6.60085,23.10294,13.4017,46.90596-16.20207,70.50897-25.70328-11.0014-51.10651-16.00203-75.5096-14.80187-10.10129.50006-22.0028,2.60034-35.70455,5.00064-15.10193,2.60034-29.10371,4.70061-51.80658,6.90087-.90011,0-1.60021.60008-2.00025,1.40017l.00006.09996Z" style="fill:#fdf7ed;"/></svg>