<?xml version="1.0" encoding="UTF-8"?><svg id="a" xmlns="http://www.w3.org/2000/svg" width="800" height="800" viewBox="0 0 800 800"><path d="M301.27719,331.23578c1.70023,0,10.60135,1.20016,12.00153,1.50019,3.70048,1.30015,4.8006,2.10027,6.10078,2.90036,1.40017.90011,2.90036,1.90024,7.10091,3.50045.30003.10002.60008.20004.90011.20004,1.10015,0,2.10027-.60008,2.50032-1.70023.50006-1.40017-.20004-2.90036-1.50019-3.40043-3.70048-1.40017-4.8006-2.20029-6.10078-3.00038-1.40017-.90011-2.90036-1.90024-7.30092-3.50045-.10002,0-13.10167-2.4003-15.30193-1.50019-1.30015.60008-2.00025,2.10027-1.40017,3.50045.50006,1.20016,1.80022,1.80022,3.00038,1.60021l-.00003-.10002Z" style="fill:#fdf7ed;"/><path d="M300.27706,324.03485c6.50083-3.00038,15.50197-2.50032,19.20245-.20004,1.20016.80009,2.90036.40004,3.60046-.80009.80009-1.20016.40004-2.90036-.80009-3.60046-5.60072-3.60046-16.5021-3.70048-24.20309-.20004-1.30015.60008-1.90024,2.20029-1.30015,3.50045.40004,1.00013,1.40017,1.60021,2.4003,1.60021s.7001,0,1.10015-.20004l-.00003-.09999Z" style="fill:#fdf7ed;"/><path d="M515.70448,482.35497c1.4002,0,2.70036-1.00013,2.80034-2.50032,0-1.50019-1.00013-2.70036-2.50032-2.80034-16.10205-.90011-20.50261.10002-36.3046,3.1004-11.7015,2.20029-23.20296,5.40068-34.40437,9.60123-3.1004.40004-6.30079,1.20016-9.40119,1.90024-5.10065,1.30015-10.40132,2.60034-14.70188,1.70023-1.90024-.40004-11.50146-4.50057-14.50184-7.80098-1.00013-1.10015-2.60034-1.20016-3.70048-.20004s-1.20016,2.60034-.20004,3.70048c4.10053,4.50057,15.00191,8.90113,17.30219,9.40119,1.40017.30003,2.80034.40004,4.20055.40004s2.00025,0,3.00038-.20004c-2.00025,8.10104-1.10015,20.50258-.20004,31.60403.50006,6.80085,1.00013,13.30168.50006,16.20207-.7001,4.20055-5.00064,4.8006-16.90214,4.50057-1.90024,0-3.90049-.09999-5.80073-.09999-6.60085,0-7.901-4.20055-8.10104-6.10075-.40004-3.40046,1.30015-6.70086,3.80047-7.40097,3.40043-.90014,5.80073-2.70036,7.10091-5.5007,3.40043-7.00089-1.00013-17.80225-4.60059-26.50337-.40004-.90011-.80009-1.90024-1.20016-2.90036,4.70061,3.20042,8.80111,6.40081,10.50134,10.40132.40004,1.00013,1.40017,1.60018,2.4003,1.60018s.7001,0,1.00013-.20004c1.30015-.60005,2.00025-2.10024,1.40017-3.50045-2.80034-6.50083-9.40119-10.80136-16.5021-15.40195-.7001-.40004-1.30015-.80009-2.00025-1.30015h0c-7.50095-4.90062-14.80187-10.20131-16.40208-18.50235,0-.20004,0-.30003-.10002-.50006,6.10078-5.60072,12.50159-8.6011,17.2022-10.20131,1.40017-.50006,2.10027-2.00025,1.60021-3.40043s-2.00025-2.10027-3.40043-1.60021c-6.2008,2.10027-15.20195,6.50083-22.90291,15.10193-2.60034,2.90036-10.3013,11.60148-12.40157,25.30321-.50006,3.1004-.60008,6.2008-.50006,9.40119,0,0-.20004.10002-.20004.20004-12.40157,13.00168-14.60186,18.60237-16.00203,32.70414-.50006,5.20067-7.10091,10.90141-12.90163,11.10139-8.90113.30003-18.20233,0-27.80352-.80009-2.10027-.20004-3.30041-1.70023-3.90049-2.60031-1.30015-2.20029-1.50019-5.10062-.50006-7.50095,2.00025-4.70061,4.20055-5.80073,8.90113-8.00102.50006-.30003,1.10015-.50006,1.70023-.80009,8.20106-3.90052,14.40183-16.00203,16.60212-23.20296,2.00025-6.50083,4.20055-13.20169,6.30079-19.6025,1.40017-4.20055,2.80034-8.6011,4.20055-12.90163h0c1.40017-4.40055,2.80034-8.90113,4.10053-13.30168,1.40017-4.90062,2.10027-9.90125,2.80034-14.80187.30003-2.20029.60008-4.50057,1.00013-6.70086.20004-1.40017-.7001-2.80034-2.20029-3.1004-1.40017-.20004-2.80034.7001-3.1004,2.20029-.40004,2.30028-.7001,4.60059-1.00013,6.90087-.40004,2.60034-.7001,5.00064-1.10015,7.50095-1.40017-8.80111-5.00064-12.80162-8.20106-16.20207-3.00038-3.30041-5.20067-5.70074-5.20067-11.90151h0c0-1.10015,1.10015-3.30041,2.10027-5.5007,2.10027-4.40055,4.70061-9.80123,4.30053-15.802-.10002-1.50019-1.40017-2.60034-2.80034-2.4003-1.50019.10002-2.60034,1.40017-2.4003,2.80034.30003,4.50057-1.80022,9.00114-3.70048,12.90163-2.20029-8.00102-2.60034-15.40195-2.50032-20.60263.20004-8.80111,1.80022-14.90189,2.70036-17.10218,2.4003-5.90074,2.10027-13.00165-.80009-19.50248-2.90036-6.40081-7.80098-11.30142-13.60174-13.30168-4.90062-1.70023-10.20131-3.70048-15.10193-6.2008-8.40106-4.20055-14.20182-11.10142-17.10218-20.40259-2.50032-7.901-.80009-17.90227,2.10027-23.70303.60008-1.30015,5.40068-1.60021,7.901-1.70023,1.40017,0,2.80034-.20004,4.10053-.40004,13.90176-2.00025,21.70277-11.50146,26.40335-18.50235,3.50045-5.30066,6.60085-7.00089,11.80149-6.2008,4.40055.60008,8.90113.90011,13.30168,1.20016,2.20029.10002,4.50057.30003,6.70086.50006,4.60059.40004,6.90087-1.90024,8.80111-4.40055,5.5007-7.40094,11.60148-14.80189,18.70239-22.60288,1.00013-1.20015,1.70023-1.70021,2.00025-2.00025.60008.50006,1.50019,1.70021,2.4003,2.70034,6.60085,7.90101,12.00153,24.70314,9.00114,40.10509-1.60021,8.20106-.60008,18.60237,2.60034,27.60352,2.80034,7.901,8.50108,18.60237,20.10256,24.80314,8.30104,4.40055,26.20334,7.60097,34.30435,7.60097h0c5.5007,0,9.30117-.40004,12.40157-.80009,4.40055-.50006,7.30092-.80009,12.40157.20004,2.60034.50006,4.70061,1.20016,6.70086,1.80022,5.30066,1.70023,9.90125,3.20042,19.6025.50006,1.40017-.40004,2.20029-1.90024,1.80022-3.30041-.40004-1.40017-1.80022-2.20029-3.30041-1.80022-7.70099,2.10027-11.20144,1.30015-15.60199-.10002,10.90138-1.50019,18.10231-3.00038,27.90354-4.8006,1.40017-.30003,2.4003-1.60021,2.10027-3.1004-.30003-1.40017-1.60021-2.4003-3.1004-2.10027-14.20182,2.50032-22.7029,4.60059-45.10574,6.80085-.40004,0-.7001.20004-1.10015.30003-1.00013,0-2.00025.20004-3.1004.30003-3.1004.30003-6.60085.7001-11.80149.7001h0c-7.40094,0-24.4031-3.00038-31.80403-7.00089-17.90227-9.60123-22.50286-33.60428-20.00254-46.80594,3.30041-17.2022-2.60034-35.4045-10.20131-44.50566-2.50032-3.00038-3.90049-4.80061-6.40081-4.80061-2.30028,0-4.00051,1.60021-6.10078,3.90049-7.20093,8.00102-13.4017,15.50196-19.00242,23.00291-1.60021,2.10027-2.4003,2.50032-4.10053,2.30028-2.30028-.20004-4.60059-.30003-6.90087-.50006-4.20055-.30003-8.6011-.50006-12.80162-1.10015-9.00114-1.30015-13.60174,3.60046-16.90214,8.50108-6.60085,9.90125-13.60174,14.90189-22.7029,16.20207-1.10015.10002-2.30028.20004-3.70048.30003-4.8006.30003-10.3013.7001-12.30155,4.60059-4.00051,8.00102-5.00064,19.30244-2.4003,27.70354,3.30041,10.70137,10.00127,18.60237,19.70252,23.50299,5.20067,2.60034,10.60135,4.60059,15.70201,6.40081,4.40055,1.60021,8.30104,5.40068,10.60135,10.50134,2.30028,5.20067,2.60034,10.90138.7001,15.40195-2.90036,6.90087-6.10078,27.70354,1.90024,48.30613,0,7.901,3.40043,11.50146,6.50083,15.00191,4.50057,4.90062,9.50121,10.40132,6.50083,32.60415-1.40017,4.30053-2.80034,8.50108-4.10053,12.70163-2.10027,6.40081-4.30053,13.10167-6.30079,19.70252-2.4003,7.70096-8.20106,17.20217-13.80174,20.00251-.60008.30003-1.10015.50006-1.60021.80009-5.00064,2.40033-8.70112,4.1005-11.50146,10.70137-1.70023,3.90052-1.40017,8.70112.80009,12.30155,1.80022,3.00038,4.70061,4.90065,8.00102,5.20067,7.30092.60005,14.40183.90014,21.3027.90014s4.8006,0,7.10091-.09999c8.40106-.30003,17.10218-8.00102,18.00229-15.802,1.20016-11.7015,2.90036-16.80212,11.90151-26.60336.20004.80009.30003,1.50019.50006,2.30028.30003,1.20016,1.40017,2.00025,2.60034,2.00025s.40004,0,.60008,0c1.40017-.40008,2.30028-1.80022,1.90024-3.20042-1.40017-5.40071-1.60021-10.90138-.80009-16.30206,1.70023-10.90138,7.40094-18.20233,10.3013-21.60275,2.70036,8.20106,9.80123,13.60174,16.80212,18.30232.40004,2.4003,1.70023,5.60072,3.30041,9.50121,3.00038,7.30095,7.20093,17.30222,4.8006,22.10282-.7001,1.4002-1.90024,2.20029-3.70048,2.70036-5.10065,1.4002-8.50108,7.10088-7.70099,13.20169,1.00013,7.90103,7.80098,10.70137,13.30168,10.70137s3.80047,0,5.70074.09999c1.80022,0,3.60046.09999,5.30066.09999,8.30104,0,15.70201-1.20016,17.00216-9.00114.60008-3.50045.10002-10.00127-.40004-17.40224-.80009-11.50146-1.90024-25.80327.80009-32.3041,1.40017-.30003,2.70036-.7001,4.10053-1.00013,6.60085-1.70023,12.70163-3.20042,17.00216-.40004,1.20016.80009,2.90036.50006,3.70048-.7001.80009-1.20016.50006-2.90036-.7001-3.70048-.30003-.20004-.60008-.30003-.80009-.50006,8.00102-2.60034,16.10205-4.60059,24.30308-6.10078,15.30193-2.80034,19.40246-3.80047,35.00445-3.00038l.30015-.09999Z" style="fill:#fdf7ed;"/><path d="M338.2819,298.83163c2.4003-2.50032,2.30028-6.40081-.20004-8.80111s-10.60135-1.60021-10.60135-1.60021c0,0-.40004,8.20106,2.00025,10.60135,2.50032,2.4003,6.40081,2.30028,8.80111-.20004h.00003Z" style="fill:#fdf7ed;"/></svg>