<?xml version="1.0" encoding="UTF-8"?><svg id="a" xmlns="http://www.w3.org/2000/svg" width="800" height="800" viewBox="0 0 800 800"><path d="M615.21714,419.04693c-1.90027-1.50019-3.70048-1.50019-4.20055-1.50019-.80009,0-1.50019.40004-2.10024,1.10015-2.90039,3.50045-4.1005,4.40055-4.30053,4.50057-.50006.20004-1.00013.40004-1.50019.60008-.40008.20004-.7001.30003-1.10012.50006-2.20029-8.20106-8.80111-28.50362-10.00127-30.90392-6.70086-14.30181-14.80187-24.10307-23.90306-29.30371-2.20029-1.20016-4.8006-.80009-7.10088-.40004-.40008,0-.90014.20004-1.30015.20004-2.00025.30003-3.30041,1.10015-4.00051,2.50032-1.00013,2.10027.20004,4.30053.60005,5.00064,11.50146,19.50248,21.90281,49.30626,6.50083,80.21021-3.10037,6.2008-6.50083,9.80123-10.40135,10.80136-2.90039.80009-6.30079.10002-9.50121-.60008-40.70519-9.50121-73.20932-32.50413-86.91105-61.70786-3.00038-6.30079-6.30079-12.40157-9.60123-18.40233-1.80022-3.20042-3.60046-6.60085-5.30066-9.90125-5.00064-9.50121-11.40144-17.2022-19.10244-22.7029-9.50121-6.80085-19.00242-9.30117-31.20398-10.90138-27.30346-3.70048-55.50706-4.30053-79.71012-4.50057-17.00216-.10002-54.80696-.10002-73.1093.10002-.8001,0-1.50019.30003-2.10027.90011-.50006.60008-.8001,1.30015-.8001,2.10027,0,1.60021,1.30017,2.90036,3.00038,2.90036,18.30233-.20004,56.00714-.20004,73.0093-.10002,24.10307.20004,52.00661.7001,79.01005,4.40055,11.60148,1.60021,20.10256,3.70048,28.60364,9.90125,6.90087,5.00064,12.80162,12.00153,17.30219,20.70264,1.80022,3.40043,3.60046,6.70086,5.40068,10.00127,3.20042,5.90074,6.50083,11.90151,9.40119,18.00229,14.50184,30.8039,48.50617,55.00699,90.91155,64.90825,3.70048.90011,8.10101,1.70023,12.30155.60008,5.60069-1.50019,10.20131-6.00076,14.10177-13.80174,13.00165-26.00331,10.90141-55.30702-6.00076-84.71075h.09999c.7001-.10002,2.80034-.50006,3.10037-.30003,8.00102,4.50057,15.20195,13.50172,21.50273,26.70341,1.10012,2.30028,9.20118,27.30346,10.10126,31.80403.20004,1.00013.80009,1.90024,1.60018,2.4003s1.90027.7001,2.80034.50006c1.50019-.30003,2.80034-.90011,4.20055-1.50019.50006-.20004.90014-.40004,1.4002-.60008.90014-.40004,2.20029-1.20016,5.10062-4.40055,1.70023,3.80047,2.50032,19.80251-5.20067,36.40462-1.4002,3.1004-15.00191,30.6039-44.10558,38.60492-12.30155,3.40043-23.60298,1.70023-46.10584-1.70023-8.80111-1.30015-18.00229-3.40043-36.40462-7.50095-9.90125-2.20029-15.90202-3.90049-19.20245-4.8006-1.10015-.30003-1.90024-.50006-2.4003-.60008-1.30015-.30003-3.50045-.90011-5.90074-1.60021-11.80149-3.30041-12.70163-3.50045-14.20182-1.80022-1.00013,1.00013-3.1004,3.20042-6.50083,6.50083-5.90074,5.80073-13.70175,8.90113-22.0028,8.80111-41.10523-.7001-94.31201-.20004-133.21692.10002h-.7001c-21.20269.20004-38.10485.30003-46.80596.20004.30004-2.70036.8001-6.00076,1.60021-9.20118v-.30003c1.20015-4.50057,2.90036-7.70099,5.10065-9.60123,8.20104-7.10091,64.90826-7.50095,79.31009-3.20042,2.10027.60008,4.00051.20004,5.20067-1.10015.7001-.80009,1.70023-2.50032.60008-5.40068-8.70112-22.20284-17.70226-45.10574-18.30232-71.40907-.10002-7.00089.30003-14.90189,4.90062-20.40259,4.70061-5.60072,12.90163-7.30092,19.50248-8.20106,14.60186-1.90024,41.30524-2.4003,56.40717,14.80187.50006.60008,1.20016.90011,2.00025,1.00013.80009,0,1.50019-.20004,2.10027-.7001,1.20016-1.10015,1.30015-2.90036.30003-4.10053-16.80212-19.30244-45.70582-18.80238-61.50782-16.80212-7.00089.90011-17.10218,2.90036-23.20296,10.20131-5.80073,6.90087-6.40081,16.60212-6.2008,24.20309.60008,26.90342,9.80123,50.70646,18.00229,71.60911-16.40208-3.50045-72.10918-4.20055-82.71051,4.90062-2.80036,2.4003-4.90062,6.00076-6.50083,10.80136h.40004c0,.10002-1.30017,5.10065-1.30017,5.10065h-.40004c-.70009,3.50045-1.10015,7.20093-1.50019,10.10129,0,.80009.20002,1.60021.70009,2.20029s1.30017,1.00013,2.10027,1.00013c7.30093.20004,26.50337,0,50.80646-.20004h.30003c38.80492-.30003,91.91168-.80009,132.71686-.10002,9.90125.20004,19.10244-3.50045,26.20334-10.40132,2.60034-2.50032,4.50057-4.40055,5.70074-5.70074,2.10027.40004,6.40081,1.60021,9.30117,2.50032,2.4003.7001,4.70061,1.30015,6.10078,1.60021.40004.10002,1.00013.30003,1.90024.50006h.30003c3.30041,1.00013,9.40119,2.70036,19.50248,5.00064,18.50235,4.20055,27.70354,6.2008,36.80467,7.60097,14.00178,2.10027,24.10304,3.60046,32.70417,3.60046,5.70074,0,10.70137-.60008,15.802-2.00025,31.70404-8.6011,46.30588-38.40488,47.90612-41.70532,4.00051-8.50108,6.40084-18.30232,6.80085-27.40348.40008-8.20106-1.00013-14.50184-3.60043-16.5021l.10011-.00006Z" style="fill:#fdf7ed;"/></svg>