<?xml version="1.0" encoding="UTF-8"?><svg id="a" xmlns="http://www.w3.org/2000/svg" width="800" height="800" viewBox="0 0 800 800"><path d="M404.09084,291.16513s.20007,0,.30007-.20007c.4001-.20007.8002-.4001,1.20034-.7002,1.40037-.90024,1.70047-2.70074.90024-4.00108-.90024-1.30034-2.70074-1.70047-4.00108-.90024-.10003,0-.4001.20007-.60017.30007-1.00027.50014-2.50068,1.20034-3.00081,2.90078-.30007.90024-.60017,1.80047-1.00027,2.60071-2.50068,6.90186-5.40145,14.70398-1.20034,22.50608,4.70128,8.70236,10.0027,17.20466,15.20412,25.30682l2.50068,3.90105c1.50041,2.40064,6.00162,9.6026,13.20358,9.6026h.4001c8.5023-.4001,10.10273-9.80263,11.103-15.50419.20007-1.00027.30007-2.00054.50014-2.80074,1.70047-7.20196,4.30115-14.30385,6.80182-21.20574,1.60044-4.40118,3.30088-9.00243,4.70128-13.60368.10003-.4001.20007-.8002.10003-1.20034-1.20034-12.50338-13.50365-28.1076-25.80696-32.70884-1.80047-.7002-4.40118.10003-5.50149,1.70047-.50014.60017-.60017,1.40037-.50014,2.20061.10003.8002.60017,1.40037,1.20034,1.90051,1.1003.7002,2.50068.7002,3.50095,0,9.90267,4.10111,19.90537,16.90456,21.20574,26.90726-1.40037,4.30115-2.90078,8.60233-4.50122,12.80345-2.60071,7.10192-5.30142,14.30385-7.00189,21.90591-.20007,1.00027-.4001,2.10057-.60017,3.10084-1.00027,5.70155-2.10057,10.4028-5.60152,10.60287-2.70074.10003-5.40145-2.10057-8.40226-6.80182l-2.50068-3.90105c-5.10138-8.10219-10.4028-16.40442-14.90402-25.00675-3.00081-5.60152-.8002-11.50311,1.50041-17.8048.30007-.7002.50014-1.40037.8002-2.10057l-.00003.2001Z" style="fill:#fdf7ed;"/><path d="M537.42683,497.52084h-15.90432c-.1-.20007-.30007-.30007-.40013-.50014-1.4004-1.90051-5.50149-7.60206-4.50122-28.70776,0-.8002-.20007-1.50041-.8002-2.10057-.50014-.60017-1.20034-.90024-2.00054-1.00027-1.60041,0-3.00081,1.20034-3.10084,2.80074-1.00027,20.80561,2.70071,28.40766,5.60152,32.40875.40013.50014.8002,1.1003,1.30034,1.60044,2.70074,3.50095,2.40067,3.80101,2.10054,4.10111-1.30034,1.20034-4.20115,3.30088-5.60149,4.00108-25.80696-.4001-52.61421-.4001-82.12218.10003-48.61313.8002-97.82643.60017-145.5393.4001-23.80642,0-48.41307-.20007-72.81967-.20007-3.50095,0-4.8013-.60017-5.30143-1.1003-.80022-.8002-1.00027-2.80074-.80022-6.50176v-2.00054c6.20167-11.80317,13.7037-17.70479,23.40631-18.505,14.40388-1.20034,29.20788-1.60044,43.61177-2.10057,10.50284-.30007,21.40577-.7002,32.00864-1.30034,26.10706-1.50041,52.51418-3.50095,78.42117-5.80155,5.20142-.50014,13.80372-1.30034,16.40442-10.10273,1.80047-6.10165-.8002-14.50392-2.40064-19.00513-.4001-.90024-1.1003-1.70047-2.00054-2.10057s-2.00054-.30007-2.90078.10003c-.8002.4001-2.90078,1.40037-4.80128,6.90186-1.40037-3.40091-3.00081-8.40226-3.50095-14.40388-.50014-5.40145-.4001-10.90294.20007-16.10435.30007-2.50068-1.00027-4.70128-3.30088-5.60152-2.40064-.90024-5.10138,0-6.70182,2.30061-1.40037,2.10057-2.70074,5.50149-3.80101,10.10273-1.20034-7.40199-.60017-17.70479,7.40199-28.20763,6.10165-8.00216,10.90294-21.00567,7.10192-30.80831-2.50068-6.40172-5.70155-9.40253-15.30412-7.10192-.60017.20007-1.00027.30007-5.90159,3.00081-17.10462,9.3025-28.00756,14.60395-32.70884,15.80426,2.20061-2.20061,6.60179-5.50149,15.00405-10.8029,4.40118-2.70074,5.60152-3.50095,6.20169-4.70128,2.70074-.7002,5.10138-1.50041,7.00189-2.10057.7002-.30007,1.30034-.8002,1.70047-1.50041.30007-.7002.4001-1.50041.10003-2.20061s-.8002-1.30034-1.50041-1.70047c-.7002-.30007-1.50041-.4001-2.20061-.10003-13.60368,4.80128-44.31195,10.30277-48.9132,9.40253-4.30115-3.70101-8.40226-11.30304-12.10327-22.50608,0-.30007-.20007-.50014-.20007-.8002h.50014c.8002,0,1.80047-1.00027,2.10057-1.50041.60017-.90024,1.50041-2.30061,2.50068-3.70101,2.10057-3.00081,4.50122-6.40172,5.50149-8.40226.10003-.20007.20007-.50014.20007-.7002h0c.20007-1.1003,0-2.30061-.7002-3.20088l-.90024-.90024c.7002-.20007,1.40037-.50014,2.00054-.7002,10.8029-3.40091,21.20574-8.10219,30.90834-12.70344,6.30169-3.00081,11.103-8.10219,13.30358-14.20385,2.80074-7.80209,7.10192-14.30385,12.60341-21.70587,4.30115-5.80155,8.60233-9.10246,14.00378-10.90294,2.90078-1.00027,5.80155-2.00054,8.70236-3.00081h.20007c6.80182-2.40064,13.80372-4.90132,20.80561-6.90186,10.30277-3.00081,19.00513-1.00027,27.50743,6.20169,13.50365,11.50311,21.60584,27.10733,29.50797,42.21141l.90024,1.80047c.7002,1.40037,1.50041,2.80074,2.40064,4.70128,3.70101,7.50203,12.90348,17.10462,22.70614,23.80642-2.70074.4001-4.60125.90024-5.30142,2.70074-.4001,1.1003-.20007,2.40064.60017,3.30088,7.60206,8.70236,14.80399,13.00351,24.80669,14.80399,5.20142,1.00027,10.90297,1.60044,17.40472,1.80047,1.50041,0,3.00081,0,4.60122.10003,5.40148,0,11.10297-.10003,16.10432-.20007h0c.60014,0,2.00054-.20007,5.80155-.60017,1.70047-.20007,2.90081-1.40037,2.80074-3.00081,0-1.60044-1.30034-2.90078-2.90081-2.90078v.4001l-.1-.4001c-3.20088.4001-5.70155.60017-5.80155.60017-5.20142.10003-10.60284.30007-15.90432.20007h-4.40121c-6.20169-.20007-11.60311-.8002-16.50446-1.70047-7.40199-1.40037-12.90348-4.20115-18.30493-9.50257.4001,0,.90024,0,1.20034-.10003,4.60125-.50014,6.70182-.7002,7.10192-3.20088.20007-1.00027-.10003-2.50068-1.70047-3.30088-12.00324-6.10165-23.40631-17.90483-27.10733-25.30682-.90024-1.90051-1.70047-3.40091-2.40064-4.80128l-.90024-1.70047c-8.10219-15.60422-16.50446-31.60854-30.90834-43.91185-10.0027-8.5023-20.80561-10.90294-33.00891-7.40199-7.10192,2.10057-14.20385,4.60125-21.10571,6.90186h-.20007c-2.90078,1.1003-5.80155,2.10057-8.70236,3.10084-6.50176,2.20061-11.70317,6.20169-16.80453,13.00351-5.90159,7.80209-10.4028,14.70398-13.40361,23.20628-1.60044,4.60125-5.40145,8.5023-10.30277,10.90294-9.40253,4.50122-19.6053,9.10246-30.10814,12.40334-3.40091,1.1003-7.20196,2.40064-10.4028,5.10138-6.00162,5.10138-6.70182,14.90402-4.30115,22.10598,4.30115,12.70344,8.9024,21.00567,14.20385,25.40685.60017.50014,1.40037,1.20034,5.10138,1.20034,1.1003,0,2.30061,0,3.80101-.20007-3.00081,3.10084-5.00135,6.70182-5.70155,10.7029-.8002,5.40145.30007,14.40388,7.00189,16.90456,1.1003.4001,2.40064.60017,3.70101.60017,4.00108,0,7.80209-2.00054,9.6026-5.00135,1.60044-2.70074,1.40037-5.00135,1.1003-8.20223v-.90024c5.50149,0,18.30493-6.50176,37.11003-16.80453,2.10057-1.20034,4.20115-2.30061,4.70128-2.50068,5.60152-1.40037,6.50176-1.00027,8.30223,3.60098,2.90078,7.30196-1.00027,18.20493-6.30169,25.10679-15.70425,20.60557-6.70182,40.71101-4.80128,44.51202.60017,1.20034,2.00054,1.90051,3.40091,1.70047,1.40037-.20007,2.40064-1.30034,2.60071-2.70074.7002-5.70155,2.00054-13.00351,3.80101-16.90456-.4001,4.90132-.4001,10.0027,0,14.90402.90024,11.00297,5.10138,19.2052,6.80182,22.10598.8002,1.30034,2.20061,2.00054,3.60098,1.70047,1.50041-.20007,2.60071-1.30034,2.90078-2.80074.50014-2.60071,1.1003-4.40118,1.60044-5.70155,1.00027,3.50095,1.70047,7.90213.90024,10.90294-1.20034,4.30115-4.80128,5.30142-11.30304,5.90159-25.90699,2.30061-52.21411,4.30115-78.32117,5.80155-10.60287.60017-21.40577,1.00027-32.00864,1.30034-14.40388.50014-29.20788.90024-43.81183,2.10057-11.80319,1.00027-21.00567,8.00216-28.1076,21.50581-.70019,1.30034-.70019,2.60071-.70019,3.70101v.60017c-.30008,4.90132,0,8.40226,2.40064,10.90297,2.00054,2.10054,4.90132,3.00081,9.6026,2.90081,24.10652,0,48.71317,0,72.41955.20007h.7002c23.60638,0,48.01296.20007,72.31952.20007,27.40739,0,51.21384-.20007,73.01972-.60014,29.70803-.50014,56.71533-.50014,82.62229,0,.30007,0,.7002,0,.90027-.1,2.50068-.8002,6.90189-4.30115,8.20223-5.50149,2.40067-2.30061,2.40067-4.80128,1.50041-7.00189h12.10324c1.30034,0,2.50068-.90024,2.80074-2.20061.20007-.90024,0-1.80047-.50014-2.50068-.60014-.7002-1.4004-1.1003-2.30061-1.1003l.00006.10003ZM325.4696,385.89069c.30007,2.80074.30007,3.70101-.30007,4.70128-1.00027,1.70047-4.20115,2.60071-6.20169,1.90051-3.00081-1.1003-3.90105-7.00189-3.30088-10.60287,1.00027-6.10165,7.20196-11.50311,15.80426-13.80372.20007,0,.4001-.20007.60017-.30007,2.10057-.4001,4.20115-.8002,6.30169-1.30034-7.90213,5.20142-13.60368,10.10273-13.30358,14.90402,0,1.70047.20007,3.20088.30007,4.30115l.10003.20004Z" style="fill:#fdf7ed;"/><path d="M369.58152,303.96858c0,.20007.20007.50014.30007.7002.60017,1.00027,1.50041,1.70047,2.70074,2.00054.30007,0,.7002.10003,1.1003.10003,1.00027,0,2.00054-.30007,2.80074-.90024,1.30034-.90024,2.70074-1.90051,3.70101-3.20088,2.20061-2.80074,0-4.90132-1.80047-6.40172l-.60017-.60017c-1.60044-1.50041-3.50095-2.80074-5.80155-4.20115-.7002-.50014-5.20142-.7002-6.40172,0-.4001.20007-.4001.50014-.4001.7002,0,3.10084,2.70074,3.30088,4.20115,3.40091h.7002c.20007,1.40037,0,2.50068-.30007,3.70101-.30007,1.40037-.60017,2.80074-.10003,4.60125l-.10009.1Z" style="fill:#fdf7ed;"/></svg>