<?xml version="1.0" encoding="UTF-8"?><svg id="a" xmlns="http://www.w3.org/2000/svg" width="800" height="800" viewBox="0 0 800 800"><path d="M293.44635,304.25328c2.36591-2.4652,2.2832-6.36976-.19853-8.7357-2.4652-2.36591-10.58874-1.62139-10.58874-1.62139,0,0-.43016,8.14008,2.03501,10.52255,2.4652,2.38247,6.38633,2.29974,8.73572-.16546h.01654Z" style="fill:#fdf7ed;"/><path d="M525.0416,469.93373c1.34013-.04963,2.4321-1.1085,2.5148-2.4321.11583-1.57176-1.17467-2.89535-2.74641-2.81262-7.54451.33089-14.60916.67835-21.37601,1.00924-11.73032.57908-22.83192,1.1416-33.32139,1.37323-20.81346.47979-35.29024,1.02577-43.11596,1.60486,1.63793-10.9858,3.07735-19.37407,3.8715-21.16092.59562-1.32357,0-2.87879-1.34013-3.47441-1.3236-.59562-2.87882,0-3.47444,1.34013-3.30898,7.46173-12.5741,85.40467-13.00428,92.02263-.79415,12.60719-1.60486,20.00276-2.10118,22.98087l-23.54339.1489c-1.42286-.03312-2.66373-.77761-3.11042-1.93577-1.42286-3.6564-.92653-3.98732,2.96152-6.51869,1.02577-.66179,2.18394-1.42284,3.4248-2.34935.57906-.43018.94305-1.07541,1.02577-1.78688,1.48903-12.57412,1.1416-24.42021-.41362-35.25714.09927,0,.18199,0,.28126-.03307.19853-.03312.52945-.06619.56252-.16546.71144-3.14352,2.74646-4.02039,5.70798-3.49095.13236.01651.33092-.67835.56255-.9927,2.4321-3.20971,4.93037-6.36979,7.2632-9.66221.97614-1.37325,1.83648-2.96155,2.18391-4.58296.16546-.72798-3.27588,1.4394-4.45058,3.80535-.18199.34743-.09927.82724-.23163,1.20774-.24816.71147-.57906,1.40633-.87688,2.10123-.16543-.7611-.34743-1.52215-.51289-2.2832-.13236-.57908-.23163-1.15816-.34743-1.73724-.57908.56257-1.43942,1.02583-1.68759,1.70412-.87688,2.48173-1.52213,5.06278-2.3163,7.57758-.1489.46325-.54596.86032-.82724,1.27394-.19853-.34743-.43016-.67835-.56252-1.04234-.2978-.76105-.62869-1.53866-.79415-2.33278-.23163-1.24087-.31436-2.49829-.47979-3.75572-.66181,1.24087-1.50559,2.4321-1.91921,3.75572-.43018,1.35664-.38055,2.86223-.64525,4.26856-.09927.51289-.51289.97614-.77761,1.45596-.21509-.24816-.47982-.46325-.71144-.69491-1.38976-8.10698-3.42478-15.56874-5.85688-22.2694.74451.13234,1.45596.18197,2.06811-.06619,1.2905-.5294,1.86958-2.82916,2.76299-4.35131,1.09197,1.35669,1.60486,3.50756,4.07005,2.97811.19853-.03312.52942-.06619.56252-.16546.71142-3.14352,2.74646-4.02039,5.70798-3.49095.11583.01651.33089-.67835.56252-.9927,2.41556-3.20971,4.93039-6.36979,7.2632-9.66223.97617-1.37323,1.83648-2.96152,2.18394-4.58291.16543-.72798-3.27588,1.4394-4.45058,3.8053-.18199.34745-.09927.82724-.23163,1.20779-.24816.71142-.57908,1.4063-.87688,2.10121-.16546-.76108-.34745-1.52215-.51289-2.2832-.13236-.57908-.23163-1.15816-.34745-1.73722-.57906.56252-1.4394,1.02577-1.68759,1.70412-.87688,2.48171-1.52213,5.06276-2.31627,7.57756-.1489.46325-.54598.86032-.82724,1.27394-.19853-.34743-.43016-.67835-.56252-1.04234-.29782-.76105-.62871-1.53866-.79417-2.33278-.23163-1.24087-.31433-2.49829-.47979-3.75572-.66179,1.24087-1.50559,2.4321-1.91921,3.75572-.43016,1.35664-.38053,2.86223-.64525,4.26856-.09927.51289-.51289.97614-.77761,1.45596-.52942-.57908-1.2905-1.09197-1.53866-1.77031-.26472-.72798.06617-1.63793-.04963-2.4321-.13236-.90995-.46325-1.78683-.71144-2.68026-.52942.71142-1.09194,1.42284-1.60486,2.15081-.34743.49638-.57906,1.10853-1.00924,1.52215-1.02577.95958.44672,3.70604-2.05155,3.22627-.51289-.09932-.66181-2.84572-.69488-4.38443-.01656-.72798.77761-1.47247.89341-2.25008.06619-.46325-.46325-1.00926-.71142-1.52215-.34745.31436-.92653.56252-1.00924.94307-.51291,2.18394-.81071,4.41751-1.38979,6.58488-.06617.28123-.2647.5294-.47979.76105-.41362-1.02577-.84378-2.03504-1.27396-3.02769.13236-1.38981.26472-2.79609.36399-4.20241.0331-.52945-.19853-1.07541-.31436-1.62142-.59562.49638-1.34013.89344-1.77029,1.50559-.06619.0827-.08273.19853-.11583.2978-4.54984-9.38095-9.64567-16.51179-14.09622-20.71417-1.05887-.9927-2.71336-.95961-3.7226.09927-.9927,1.05887-.95961,2.71336.09927,3.7226,1.38976,1.3236,2.86226,2.96152,4.35129,4.88074-9.89383,22.83194-37.02743,85.28887-42.63614,92.18811h-21.8558c-1.24087,0-2.399-.66184-2.96152-1.68761l-.21509-.39706c-1.53866-2.76302-1.95228-3.50751-1.37323-5.84034.62871-2.16738,1.19123-2.33283,3.5406-3.01118,1.42286-.41362,3.19318-.92651,5.19509-2.10118.39709-.23165.72798-.56252.95961-.95963,1.67102-2.92843,6.51869-20.73074,11.82958-41.97436.9927.13239,2.00194.66179,3.02772,1.55522.09929.0827.62871-.41362.9927-.56252,3.73913-1.48903,7.52793-2.89535,11.21743-4.50021,1.53869-.67835,3.11045-1.58829,4.25205-2.79609.51289-.54596-3.55716-.47982-5.77417.94307-.33089.21509-.51289.66179-.82724.90995-.59562.47982-1.22433.89344-1.83648,1.34013.24816-.74449.49635-1.47247.74451-2.21701.19853-.56252.39709-1.10848.59562-1.67105-.77761.18202-1.75375.13239-2.31627.57908-2.03504,1.67105-3.92115,3.54063-5.90654,5.27782-.36399.33092-.90997.44674-1.37323.66179,0-.39706,0-.79412.06619-1.19123.1489-.81068.24816-1.63793.52942-2.39898.44672-1.17467,1.0258-2.29976,1.53869-3.45787-1.20779.72798-2.54793,1.30701-3.59024,2.21701,0,0-.01656.01656-.0331.03307,1.45596-5.8569,2.91189-11.89577,4.35131-17.90157,1.30703-.11578,2.79606-1.5221,4.20239-2.28315.23163,1.72063-.44672,3.83837,1.93575,4.66562.18199.06619.49635.21509.56252.1489,2.23357-2.31627,4.43404-2.01843,6.70068-.03307.09927.08275.62871-.41362.9927-.56252,3.73913-1.48903,7.52793-2.89535,11.21743-4.50021,1.53866-.67835,3.11045-1.58829,4.25202-2.79609.51291-.54598-3.55714-.47979-5.77415.94307-.33089.21507-.51289.66179-.82724.90997-.59562.47979-1.22433.89341-1.83648,1.34011.24816-.74449.49635-1.47247.74451-2.21701.19853-.56252.39709-1.1085.59562-1.67102-.77761.18199-1.75375.13236-2.31627.57908-2.03504,1.67102-3.92115,3.5406-5.90654,5.2778-.36399.33092-.90997.44674-1.37323.66179,0-.39706,0-.79412.04963-1.19118.1489-.81073.24819-1.63798.52945-2.39903.44669-1.1747,1.02577-2.29974,1.53866-3.45787-1.20777.72795-2.5479,1.30703-3.59024,2.21701-1.05887.94305-1.80339,2.25008-2.76299,3.32554-.34745.39706-.94307.57903-1.42286.84375-.1489-.77761-.52942-1.60486-.39709-2.31627.14892-.76105.89344-1.35667,1.22433-2.11774.36399-.84378.52945-1.77029.77761-2.66373-.82724.33089-1.67102.64525-2.48173,1.00924-.56252.24816-1.07541.66179-1.65449.77761-1.37323.2978-1.53869,3.40824-3.4248,1.70412-.39706-.34743.90997-2.77953,1.67105-4.10312.36399-.64525,1.42286-.86034,1.91921-1.45596.2978-.36399.13234-1.1085.18199-1.67102-.46328.08273-1.09197,0-1.35669.28126-.67835.69488-1.30703,1.4063-1.95228,2.11774,3.02769-12.90501,5.77415-25.09858,7.67682-34.21483,3.07735,3.92115,6.32013,7.2963,9.74493,9.81113,1.2905.94305,3.16005.54598,3.92113-.95961.59562-1.17467.1158-2.61409-.95961-3.39171-4.18585-3.11042-8.15661-7.75955-11.87921-13.21934-.0331-.04963-.06619-.09929-.08273-.13236-2.79609-4.08659-5.44328-8.61989-7.94155-13.3021.09927-.82724.21509-1.67102.31436-2.49827.09927-.79415.21507-1.57176.33089-2.34937.36399.82724.81071,1.63793,1.07541,2.49827.79417,2.51483,1.43942,5.06273,2.33283,7.52793.23163.62871,1.1416,1.40633,1.72068,1.42286.52942,0,1.24087-.90997,1.52213-1.57176.2978-.71144.1489-1.60486.2647-2.399.24819-1.57178.56255-3.12698.84381-4.69877.49635,1.57178.92651,3.16008,1.48903,4.7153.26472.74451.71144,1.45596,1.19123,2.08465.44672.61218,1.04234,1.1085,1.57176,1.65449.67835-.69488,1.75378-1.2905,1.95231-2.10118.47979-1.95231.52942-4.02042.79415-6.0389.06619-.54598.26472-1.07541.39709-1.60486.52942.28126,1.20777.44672,1.57176.87688.52942.59562.71142,1.52213,1.27396,2.06811,1.83648,1.73722,3.57368,1.09197,4.20239-1.4394.19853-.79415.56252-1.57176.59562-2.34937.08273-2.77955.61215-3.5737,2.49827-.79415.16546.23163,2.00194-.11583,2.20047-.56255.61218-1.42286.86034-3.01116,1.12507-4.54984.16543-.99268.08273-2.01848.1158-3.02772.56255.74454,1.05887,1.57178,1.72068,2.20047,1.62139,1.55522,3.40824,1.35669,3.75567-.59562.49635-2.82916,0-6.05541,4.41751-5.85688.0827,0,.28126-.72798.31433-1.12507.28129-3.42478,1.98541-6.20433,3.7557-9.03349,1.19123-1.86958,2.01848-4.02042,2.71336-6.13816.28126-.86032-.24816-1.98538-.41362-2.97806-.71142.57906-1.72066,1.02577-2.06811,1.78683-.72798,1.63795-1.15814,3.4248-1.63793,5.16202-.26472.97614-.43018,1.58829-1.27396.31436-.47982-.71144-1.20777-1.24087-1.83648-1.85304-.1489.95961-.28126,1.91921-.44672,2.87882-.23163,1.40633-.46325,2.81262-.74451,4.21895-.08273.38053-.29782.74451-.44672,1.12504-.33089-.44672-.66179-.90997-.97614-1.35667-.33089-.47982-.66179-.95961-.9927-1.43942-.44669.54598-1.20777,1.07543-1.27394,1.67105-.24819,2.41554-.18199,4.8642-.41362,7.29627-.08273.89344-.66181,1.75378-1.00924,2.61409-.51289-.66179-1.0258-1.32357-1.52213-2.00192-.94307-1.22433-1.86958-2.4652-2.81265-3.6895-.52942,1.42284-1.09194,2.82916-1.58829,4.25202-.13236.38053-.13236.81071-.13236,1.20777-.0331,2.06811-.04963,4.13622-.06617,6.22089-.84381-1.81995-1.65449-3.63989-2.54793-5.42672-.33089-.64525-.87688-1.19123-1.30703-1.77031-.33092.62871-.87688,1.24087-.92653,1.90265-.19853,2.61409-.13234,5.26129-.38053,7.87538-.09927,1.07541-.77761,2.08465-1.19123,3.12698-.44669-.77761-.99268-1.50559-1.34013-2.3163-.71142-1.67102-1.2905-3.39168-1.98538-5.07927-.1489-.34745-.57908-.92651-.71144-.87688-.51289.18199-1.30703.51289-1.3732.87688-.52945,3.37514-.92653,6.78341-1.38979,10.17509-.09927.71144-.2978,1.40633-.44669,2.10121-.34745-.69488-.81071-1.37323-1.04234-2.11774-.86034-2.69682-1.55522-5.47635-2.56446-8.12354-.2978-.79415-1.4394-1.2574-2.20047-1.86955-.2978.84378-.82724,1.67102-.84378,2.5148-.04963,1.83648.33089,3.68953.18199,5.50945-.13236,1.67105-.71144,3.30898-1.07543,4.96346-.39706-1.57176-.69488-3.17661-1.19121-4.71528-.31436-.95961-.9927-1.78685-1.38979-2.72992-.74451-1.81992-1.4063-3.67297-2.10118-5.50945-.79417,2.06811-1.68759,4.08659-2.3163,6.1878-.01654.08273-.01654.16546-.0331.23163-2.29974-4.48367-4.46711-9.03352-6.46903-13.40136,1.34013.52945,2.49827-.28126,2.99462-2.23354.19853-.79417.56252-1.57176.59562-2.34937.08273-2.77955.61215-3.5737,2.49827-.79417.16546.23163,2.00194-.1158,2.20047-.56252.61215-1.42286.86034-3.01116,1.12507-4.54984.16543-.99268.09927-2.01848.1158-3.02772.56252.74451,1.05887,1.57176,1.72066,2.20047,1.62142,1.55522,3.40827,1.35669,3.7557-.59562.49635-2.82916,0-6.05543,4.41748-5.85688.08273,0,.28126-.72798.31436-1.12507.28126-3.42478,1.98538-6.20433,3.7557-9.03349,1.19123-1.86958,2.01848-4.02042,2.71336-6.13816.28126-.86034-.24816-1.98538-.41362-2.97808-.71144.57908-1.72068,1.0258-2.06811,1.78685-.72798,1.63795-1.15814,3.4248-1.63795,5.16202-.2647.95958-.43016,1.58829-1.27394.31433-.47982-.71142-1.20779-1.24087-1.83648-1.85302-.14892.95961-.28129,1.91921-.44672,2.87882-.23163,1.4063-.46325,2.81262-.74451,4.21892-.08273.39709-.28126.74454-.44672,1.12507-.33089-.44672-.66179-.90997-.97614-1.35669-.33089-.47979-.66181-.95958-.9927-1.4394-.44672.54598-1.20777,1.07543-1.27396,1.67102-.24816,2.41556-.18199,4.8642-.41362,7.2963-.0827.89344-.66179,1.75375-1.02577,2.61409-.51289-.66179-1.02577-1.3236-1.52213-2.00192-.94307-1.22433-1.86958-2.4652-2.81262-3.68953-.52945,1.42286-1.09197,2.82919-1.58832,4.25205-.13236.38053-.13236.81068-.13236,1.20777-.03307,2.06811-.04963,4.13622-.06617,6.22087-.84378-1.81992-1.65449-3.63987-2.54793-5.42672-.33089-.64525-.87688-1.19123-1.30703-1.77029-.33089.62871-.87688,1.24087-.92651,1.90265-.19853,2.61409-.13236,5.26129-.38053,7.87538-.09929,1.07541-.77761,2.08465-1.19123,3.12698-.44672-.77761-.9927-1.50559-1.34016-2.3163-.71142-1.67102-1.2905-3.39171-1.98538-5.07927-.1489-.34745-.57906-.92651-.69488-.87688-.33089.1158-.74451.2978-1.04234.49633-3.55714-7.80916-6.48559-13.98042-9.06659-17.38866-2.06811-4.35131-8.45444-9.34785-17.20667-15.86654-3.47444-2.581-6.75031-5.02966-8.33863-6.61795-4.26858-4.26858-12.14394-6.88268-19.10933-9.18241-3.6895-1.22433-7.16394-2.38247-8.91769-3.44134-4.1693-2.53136-4.91383-10.24129-4.84765-12.98772,0-.56255-.18199-1.10853-.49635-1.58832-4.68219-7.09774-1.24087-13.48407-.51289-14.69186,2.31629-1.1085,4.89728-2.05155,7.61064-3.04425,4.2024-1.52213,8.55371-3.09388,12.67337-5.59218,3.63989-2.18391,5.04619-4.93037,6.17126-7.14738,1.90265-3.73913,3.55714-6.96541,18.01738-8.20627,2.33283-.19853,5.90651-.1158,9.08312-.03307,2.54793.06617,4.7484.1158,6.17126.03307,4.31822-.28126,8.63643-6.28704,15.23782-16.1478,1.75375-2.63064,4.02042-6.02234,5.44328-7.69337,6.43596,7.59411,6.4194,19.47332,6.40286,26.73652,0,4.7484,0,7.19703,1.48903,8.60336.14892.16543.47982.64525.79417,1.07541,2.92843,4.05349,10.67144,14.8242,27.79538,28.2421,3.5737,2.81265,13.69919,6.83304,23.47719,10.73764,6.56832,2.61409,12.78921,5.09583,15.07239,6.46906.94307.56252,2.48173,1.2574,5.59218,2.03501-4.16932-.08273-9.61257-.18199-16.01546-.2978-.19853.92651-.49633,1.80339-.86032,2.64717,2.13428.0331,4.26858.0331,6.40286.06619,1.60486.03307,3.22625.57906,4.81457.99268.28126.06619.57906.59562.59562.90997,0,.19853-.51289.57908-.81071.59562-2.06811.06617-4.13622-.01654-6.18777.09927-.69491.04963-1.35669.56252-2.05157.86034.54598.79415.90997,1.95228,1.65449,2.26664,1.07541.46325,2.41554.36399,3.63987.39709,2.26664.08273,4.54984.04963,6.81648.13236.59562.01654,1.1747.31436,1.75378.49635-.49635.28126-.97617.69488-1.52215.81068-2.16738.46325-4.35129.87688-6.55176,1.22433-3.25934.51289-3.32551.66179-1.22433,3.60677.26472.38055.51289.87688.54598,1.3236.26472,5.0131.26472,4.99656,4.79803,6.13816,1.3732.34743,2.7299.76105,4.03693,1.32357.43018.18199.95961,1.27396.89344,1.35669-1.70412,1.62139,0,5.64181-4.18585,5.64181-1.70412,0-2.77955,1.4394-2.48173,3.50751.28126,1.95231,1.3236,2.79609,3.22625,3.07735,1.80339.26472,3.55714.81071,5.31089,1.30703.46328.13236.86034.56255,1.27396.84381-.36399.16543-.71142.39706-1.09197.46325-.61215.09927-1.34013-.1489-1.83648.13236-2.00192,1.09197-5.69142.61215-5.42672,3.8715.21509,2.53136,3.16008,1.91921,5.14546,2.16738.43018.04963,1.1416.89344,1.09197,1.2905-.46325,4.10315-.51289,4.13622,3.34207,4.8642,4.40094.82724,7.77609,3.73913,11.63105,5.65835-.57908,4.6822,3.80533,3.90459,6.05543,5.37709,2.53136,1.63795,5.06273,3.62333,8.47097,2.87882.79415-.16546,1.63795-.1489,2.44864-.21509-.62869-.74451-1.1085-1.72066-1.90265-2.16738-1.67102-.95961-3.44134-1.83648-5.27782-2.41556-2.13428-.66179-4.36785-.95958-6.55178-1.47249-.34743-.0827-.61215-.46325-.92651-.69488.31436-.16543.62871-.47979.95961-.49633,1.85304-.08273,3.7226-.01656,5.57564-.16546.43016-.0331.82724-.64525,1.24087-1.00924-.39709-.36399-.76108-.95961-1.20779-1.05887-2.00192-.38053-4.03696-.56252-6.03887-.92651-1.77031-.31436-3.52407-.76108-5.29436-1.1416,1.85302-.26472,3.70604-.47982,5.54252-.81071.56252-.09927,1.04234-.57906,1.55522-.87688-.62871-.44672-1.2574-1.24087-1.90265-1.27396-3.70606-.18197-7.4452,0-11.13472-.34743-1.4394-.13236-2.76299-1.34013-4.15276-2.06811,1.20777-.16546,2.41556-.26472,3.6068-.51289,1.58829-.33089,3.14352-.72798,4.69874-1.15814.94305-.24819,1.85302-.61218,2.77953-.92653-1.05887-.46325-2.06811-1.15814-3.17661-1.32357-1.62139-.24819-3.30898-.01656-4.94693-.13236-2.01845-.14892-4.07003-.33089-6.05541-.72798-.67835-.13236-1.24087-.92651-1.85304-1.42286.57908-.18199,1.1416-.39709,1.73722-.52945,3.5406-.79415,7.09777-1.52213,10.60528-2.399.90997-.23163,1.70412-.87688,2.56446-1.34013-.92651-.38053-1.83648-.89341-2.79609-1.09197-2.38247-.47979-4.84766-.61215-7.19703-1.22431-2.581-.67835-5.07927-1.72068-7.61063-2.59756,2.56446-.82724,5.07927-2.00192,7.72646-2.38247,2.82916-.39706,5.77415.04963,8.65297-.09927.86034-.04963,1.67102-.84378,2.51483-1.30703-.74451-.29782-1.47249-.77761-2.23357-.87688-3.20971-.43018-6.43596-.69491-9.64567-1.12507-.52942-.06617-.99268-.62871-1.48903-.95961.46325-.21507.89341-.54598,1.37323-.64525,2.18391-.43016,4.41748-.72798,6.58486-1.24087.81071-.19853,1.52213-.86034,2.2832-1.30703-.67835-.33089-1.3236-.82724-2.03501-.95961-4.7815-.90997-9.59604-1.70412-14.36097-2.66373-.94305-.18199-1.78685-.95961-2.66373-1.45596,1.07541-.39706,2.1343-1.02577,3.25934-1.1416,4.66567-.46325,9.34785-.77761,14.03005-1.17467.41362-.0331.79417-.36399,1.1747-.56252-.33089-.23163-.62871-.56255-.9927-.66181-1.53866-.39706-3.09388-.95961-4.64911-1.04231-3.50751-.19856-7.01504-.09929-10.52255-.21509-.64525-.01656-1.2574-.51289-1.88612-.79415.56252-.18199,1.12507-.46328,1.70412-.52945,3.83842-.41362,7.69339-.74451,11.53178-1.20777.66179-.08273,1.24087-.67835,1.86958-1.04234-.56252-.47979-1.07543-1.27396-1.72068-1.38976-2.56444-.49635-5.17853-.76108-7.75955-1.1747-.56252-.08273-1.07541-.39706-1.62139-.59562.52945-.24816,1.0258-.59562,1.58832-.74451,12.90501-3.40824,26.05819-2.06811,39.12864-1.91921.9927,0,2.94499,2.01848,2.77955,2.4321-.74454,1.85304-.36399,2.3163,1.52213,2.581.61215.08273,1.02577,1.50559,1.52213,2.3163-3.19318,1.86958-1.07543,2.10121.74451,2.49827.64525.1489,1.22433.54598,1.83648.84381-.56252.19853-1.12504.39706-1.67102.62869-.36399.1489-.87688.29782-1.0258.59562-1.42286,2.94499.86034,7.37903,4.07005,7.82572,1.22433.16546,2.48173.01656,3.70606.11583.81068.06617,1.60483.2978,2.399.44672-.64525.34743-1.27396.72798-1.93575,1.05887-.54598.28126-1.1085.54598-1.65449.79415-1.0258.46325-2.05157.92651-3.06081,1.38976,1.09197.79417,2.13428,1.67105,3.29244,2.34937.47979.28129,1.22431.04963,1.81992.19856.49635.1158.95961.44669,1.43942.67832-.52945.23165-1.05887.49635-1.60486.69491-2.41556.81068-3.65643,1.93575-1.47249,4.36785.2978.31433.21507,1.5552-.06619,1.70412-2.38247,1.30703-.84378,2.61409.26472,3.14352,1.98538.90997,4.25202,1.19123,6.32013,1.93575.86034.31436,1.53869,1.1416,2.3163,1.73722-.67835.26472-1.35669.52945-2.05157.77761-1.05887.38053-2.11774.76108-3.17661,1.1416.62871,1.17467,1.09197,2.48173,1.93575,3.47441,1.27396,1.45596,2.91192,2.59756,4.18585,4.05352.44672.52942.61218,2.16738.34745,2.33281-2.63063,1.52213-1.05887,2.86228.33089,3.59024,1.65449.86034,2.7299,1.42286,1.93575,3.6068-.18199.49635,1.27396,2.26664,2.10121,2.34937,3.67297.36399,7.379.34745,11.08509.41362.2978,0,.89339-.56252.86032-.66179-.19853-.49635-.52945-1.27396-.86032-1.30706-2.26669-.19853-4.53333-.19853-6.79997-.31436-.38055-.01654-.74454-.28126-1.12504-.43016.41362-.28126.79412-.69488,1.24087-.81071.57908-.1489,1.25743.0331,1.83646-.09927.72798-.16543,1.40633-.52942,2.10123-.81068-.72798-.49635-1.40633-1.09197-2.18394-1.47249-.90995-.46328-1.88614-.81071-2.86228-1.07543-1.62139-.43016-3.25932-.74451-4.89727-1.1085,1.81995-.1489,3.67297-.16546,5.44328-.51289,1.17467-.23163,2.25008-.92651,3.37512-1.42286-1.15811-.69488-2.23352-1.58832-3.47438-2.01848-1.91921-.66179-3.95425-.97614-5.90654-1.48903-.33089-.08273-.59562-.47982-.89344-.72798.34745-.16546.67835-.44672,1.0258-.46325,2.26664-.06619,4.54984-.01656,6.79995-.14892.41362-.01654.77761-.69488,1.17467-1.05887-.41362-.34743-.81068-.89341-1.27394-.99268-1.00926-.18199-2.0516-.09927-3.09391-.16546-2.2501-.1489-4.51675-.21507-6.73375-.57906-.64525-.09929-1.15816-1.05887-1.72068-1.62142.57908-.16543,1.15814-.39706,1.73722-.49633,2.79609-.49635,5.59218-.92653,8.37173-1.50559.47977-.09927.84375-.82724,1.25738-1.25743-.44669-.23163-.87688-.59562-1.35669-.69488-4.33473-.90997-8.68604-1.77029-13.03735-2.66373-.57906-.1158-1.1416-.36399-1.70412-.56252.64525-.2978,1.27396-.76105,1.95231-.86034,3.01116-.44669,6.05541-.76105,9.06659-1.17467.44672-.06619.86034-.41362,1.2905-.64525-.38053-.44672-.69488-1.15814-1.1747-1.30706-.97614-.28126-2.03501-.18199-3.04425-.34743-2.38247-.43018-4.76491-.90997-7.1143-1.42286-.34743-.06619-.61215-.46325-.90995-.71144.33089-.16543.66179-.46325.99268-.47979,1.85304-.08273,3.78879.21509,5.54255-.23163,1.75375-.46325,3.32551-1.65449,4.98-2.51483-1.55522-.28126-3.09388-.56252-4.64911-.82724-.19853-.0331-.44672.04963-.61215-.04963-.84381-.47979-1.67105-.9927-2.49829-1.48903.72798-.38055,1.43942-.72798,2.15084-1.12507,1.00924-.54598,2.01848-1.12504,3.02772-1.68759-1.15814-.61215-2.23357-1.5552-3.45787-1.78683-3.39171-.64525-6.83304-.97617-10.24129-1.50559-.43016-.06619-.79415-.57908-1.1747-.87688.38055-.13236.76108-.36399,1.1416-.38055,4.03696-.24816,8.07391-.44669,12.11087-.74451.49635-.03307.95961-.54598,1.42286-.86032.03307-.0331-.08273-.43018-.14892-.43018-2.68026-.06617-5.17853-.23163-2.18391-3.67297-.39709-.08273-.82724-.1158-1.20777-.26472-1.96885-.72795-3.92115-1.50557-5.87344-2.25008,2.03501-.06619,4.05349-.14892,6.0885-.19856.18199,0,.39709.31436.52945.26472.52942-.16546,1.04234-.39709,1.57176-.61215-.38053-.29782-.72798-.81071-1.1416-.87688-2.01848-.26472-4.05349-.41362-6.0885-.59562,1.95228-.69491,3.92113-1.38979,5.87344-2.06811.76105-.26472,1.67102-.31436,2.26664-.77761.87688-.71144,1.58829-2.23357,2.34937-2.581,8.80189.21507,17.63685.41362,26.48837.62869,1.35664,1.00924,2.08462,2.97808.99265,4.25205-1.48903,1.73722-1.72063,2.16738.57908,2.48173,1.58835.21507,3.83842-.08273.95963,2.15084-.18202.1489.43013,1.91919,1.07541,2.34937.76105.51289,1.96885.36399,2.96155.56252.77761.1489,1.53866.39709,2.31627.61215-.71142.26472-1.45596.44672-2.11774.81071-.76105.43016-1.4394,1.02577-2.16738,1.55522.79412.64525,1.57173,1.35667,2.4321,1.91919.2978.19856.81068,0,1.22431.08273.59559.09927,1.19123.28126,1.78683.41362-.56252.47982-1.07541,1.05887-1.72063,1.40633-.69491.38053-1.53871.49635-2.26664.82724-.49638.23163-.92656.61215-1.38981.92651.33092.43016.59564,1.09197,1.02583,1.2574,1.48903.57908,3.06076.95961,4.59948,1.43942.36399.1158.67835.38053,1.00921.57906-.33087.21509-.64522.49635-1.00921.61218-.38055.1158-.87688-.0331-1.22436.1158-1.05885.47982-2.06811,1.07543-3.11045,1.60486.72798.64525,1.52215,1.22433,2.15086,1.95231.66179.77759,1.57173,1.67102,1.65449,2.581.16546,1.83648-.81068,4.05349-.06619,5.47635.64527,1.24087,2.97811,1.62139,4.5664,2.38247-1.24087,1.20777-3.35861,1.90265-2.61412,4.31822.06619.19853.11583.52942.21509.54598,3.19315.43016,4.25205,2.38244,3.98732,5.37709,0,.13234.71142.2647,1.04234.47979,3.40824,2.13428,6.76685,4.36785,10.25785,6.38633,1.45591.84378,3.12696,1.57176,4.76488,1.77029.72798.09929-1.72063-3.14352-4.16929-4.10312-.36399-.1489-.82724-.01654-1.22431-.1158-.72798-.19856-1.4394-.46325-2.16738-.69488.74449-.23165,1.48903-.47982,2.23352-.71144.56257-.18199,1.12509-.33089,1.68761-.49635-.61215-.52942-1.1416-1.34013-1.83651-1.52213-2.54788-.66179-5.162-1.07541-7.74299-1.65449-.47982-.09927-.89344-.47979-1.34013-.71142.33092-.21509.64527-.47982.9927-.66181.74449-.36399,1.47247-.76105,2.25008-.99268,1.20779-.34745,2.46522-.54598,3.68953-.79417-1.30706-.54598-2.54793-1.27394-3.90462-1.57176-1.38976-.2978-2.87879-.13236-4.31819-.26472-.52945-.04963-1.02577-.41362-1.52215-.64525.52945-.57906.97619-1.37323,1.63798-1.68756.69486-.31436,1.63793-.08273,2.41554-.26472.89344-.21509,1.73719-.61215,2.59756-.94307-.7611-.47979-1.50559-.95961-2.2832-1.4063-.52945-.31436-1.15816-.47982-1.60486-.87688-1.0589-.92651-3.6564.77761-3.39168-1.75375.04963-.52945,2.77953-.90997,4.30163-1.07543.72798-.08273,1.52215.64525,2.31632.69488.46325.0331.97614-.54598,1.45591-.84378-.34743-.31436-.64522-.87688-1.02577-.92651-2.21701-.31436-4.46709-.43018-6.6841-.81071-.69491-.1158-1.29055-.87688-1.91921-1.35667.67835-.19856,1.35664-.56255,2.03499-.59562,2.06811-.06619,4.13622.03307,6.18782,0,.5294,0,1.05885-.29782,1.58829-.46325-.54601-.56255-1.00926-1.25743-1.65449-1.62142-.47982-.28126-1.20779-.09927-1.81995-.19853-2.79609-.43016-5.59218-.87688-8.38827-1.35669-.56252-.09927-1.07541-.44669-1.60486-.67832.66184-.23163,1.30706-.56255,2.00197-.66181,3.01113-.43016,6.05543-.74451,9.06656-1.24087.59564-.09927,1.0589-.86032,1.58835-1.3236-.67835-.2978-1.34018-.79415-2.0516-.86032-2.05155-.16546-4.13622-.11583-6.18777-.29782-.41362-.03307-1.04234-.76105-1.04234-1.15814s.62871-.89341,1.07541-1.15814c.31436-.19853.81073-.0331,1.20779-.13236,2.56444-.61215,5.11236-1.2574,7.66029-1.88612-2.77953-.56252-5.54255-1.20777-8.32207-1.65449-2.00197-.31436-4.05352-.38053-6.08856-.54598,1.96885-.67835,3.90462-1.48903,5.9231-1.96885,1.57178-.38053,3.24278-.33089,4.88076-.47979-1.80344-.64525-3.59026-1.30706-5.39365-1.90268-.38055-.13236-.82724-.04963-1.24087-.09927-1.80339-.23163-3.59026-.46325-5.39365-.69488,1.91921-.24816,3.85499-.38053,5.74108-.76105,1.34013-.26472,2.61412-.84381,3.92113-1.29052-1.09197-.34743-2.18389-.71142-3.29242-1.02577-1.57178-.44672-3.14352-.81071-4.7153-1.2574-.54596-.16546-1.07541-.46325-1.60486-.69488.67835-.21509,1.34013-.61218,2.01848-.64525,1.65449-.08273,3.32554.18199,4.9469-.0331,2.2005-.29782,4.41751-.74451,6.51869-1.45596.6122-.19853-2.9615-1.24087-.1489-2.21701.16546-.06617.34748-.13236.51289-.19853,1.20779.03307,2.41559.06617,3.62333.0827,1.60486.0331,2.87884-1.35667,2.68026-2.96152-.16541-1.2905-1.24087-2.26664-2.54788-2.29974-17.33905-.43016-34.66155-.84378-51.83512-1.24087l-41.77583-1.58832c-17.96774-1.75375-23.12976-3.50751-24.60226-4.40092-2.64717-1.58832-8.75223-4.02042-15.83344-6.83304-8.5537-3.40824-19.20861-7.64373-22.18669-9.9931-16.52835-12.95465-23.95698-23.2952-26.76963-27.18325-.52942-.72798-.84378-1.1747-1.12504-1.48903-.18199-.86034-.16546-3.19318-.16546-5.11239,0-8.5206.0331-22.76575-9.18239-31.79925-.66181-.64525-1.57178-1.04232-2.48173-.97615-2.49829.16546-4.38441,2.68028-9.81113,10.80382-2.91189,4.3513-8.96732,13.40135-11.20089,13.83151-1.17467.08273-3.35861.01656-5.67488-.03307-3.30898-.08273-7.04811-.18199-9.66221.04963-16.11472,1.38976-19.37407,5.45979-22.23633,11.05197-1.04234,2.01848-1.85302,3.62333-4.20241,5.02966-3.6895,2.21701-7.79263,3.70604-11.7634,5.14546-3.04426,1.1085-5.92307,2.15081-8.63643,3.50751-1.80339.89341-3.20971,4.63257-3.68951,6.48559-.97614,3.65643-1.34013,9.18241,2.23357,15.0062.06618,2.96155.8107,12.78921,7.37902,16.75997,2.26664,1.37323,5.84034,2.56446,9.99311,3.93769,6.0885,2.01848,13.64953,4.53328,17.04123,7.90845,1.86955,1.86958,5.1289,4.30168,8.91769,7.1143,5.98924,4.46711,14.19551,10.57218,15.66801,14.03005.09927.21509.21507.41362.36399.59562,2.59753,3.29244,6.0885,11.00234,10.142,19.93659,5.24472,11.56486,11.73032,25.8431,19.3906,37.30871-2.13428,10.75417-5.59218,26.12436-9.36441,42.05709-.1158.21507-.23163.43016-.34743.62869.01654.26472,0,.52945,0,.77761-7.13084,30.01242-15.25438,61.48081-17.60375,67.05643-1.1747.59559-2.26667.90995-3.32554,1.22431-2.68026.77761-5.70798,1.65449-7.14738,6.70066-1.1085,4.41751.13236,6.65107,1.85302,9.76152l.21509.3805c1.50559,2.71338,4.40094,4.40094,7.57756,4.40094h22.74921c2.87879,0,5.162,0,45.29987-92.40315,10.14202,15.85,19.93659,43.87703,16.24709,77.54583-.77761.54601-1.50559,1.02583-2.23357,1.50559-3.92113,2.56449-7.97462,5.21168-4.99654,12.83884,1.24087,3.16008,4.45055,5.27782,7.99118,5.27782h.04963l25.46257-.16546c2.84572,0,3.16005-2.79609,3.88803-9.48019.51289-4.69879,1.04234-11.25055,1.50559-18.43102.36399-5.87341,4.41748-39.27753,7.92499-63.81362.14892.03312.29782.04963.44672.04963h.19853c7.59412-.57906,22.18669-1.12504,43.34761-1.62139,10.57215-.24816,21.69032-.79415,33.47026-1.38976,6.75034-.33089,13.81499-.69488,21.34294-1.00924l.0827.04963Z" style="fill:#fdf7ed;"/><path d="M307.94132,303.5584c.82724-.38053,1.57176-.95961,2.34937-1.45596-.71144-.2647-1.42286-.52942-2.15084-.77761-.0331.0331-.06617.06619-.09927.09929-2.16738,1.88612-4.38438,3.30898-6.78341,4.56638,0,.38053.11583.79415.36399,1.2574.09927.18199.21509.49635.31436.47982,3.20971-.23163,4.64911,1.47249,4.99656,4.45058,0,.13234.74451.1158,1.1085.24816,3.78877,1.38976,7.52793,2.87882,11.34979,4.15276,1.60486.52945,3.37514.89344,5.02963.76108.74454-.06619-2.31627-2.72992-4.93037-3.16008-.39709-.06617-.82724.1489-1.22433.13236-.76105-.0331-1.50557-.1489-2.26664-.23163.67835-.38053,1.35669-.77761,2.03501-1.15814.51291-.28126,1.04234-.56252,1.55522-.84381-.71142-.39706-1.38976-1.07541-2.11774-1.1085-2.63063-.1158-5.27782,0-7.92499-.03307-.49635,0-.97617-.28129-1.45596-.43018.28126-.28126.52945-.61215.84378-.84378.64525-.51289,1.2905-1.05887,2.00194-1.42286,1.1085-.57908,2.29974-1.02577,3.45787-1.53869-1.37323-.2647-2.76299-.72795-4.15276-.74451-1.42286,0-2.84572.46325-4.28512.62871-.52945.04963-1.07543-.19853-1.62142-.31436.41362-.67835.67835-1.53866,1.25743-1.98538.61215-.46325,1.57176-.41362,2.31627-.76108l.0331.0331Z" style="fill:#fdf7ed;"/><path d="M283.60048,314.22984c-.21509-.79415-1.04234-1.22431-1.83648-1.04231-6.48559,1.52213-13.10354,2.28318-19.77113,2.31627-1.91921,0-1.91921,2.97808,0,2.97808,6.91575-.0331,13.81499-.84381,20.54874-2.41556.77761-.18199,1.24087-1.07541,1.04234-1.83648h.01654Z" style="fill:#fdf7ed;"/><path d="M263.2172,324.2726c3.7226.97614,7.14738,2.79609,10.73761,4.13622,3.62333,1.35667,7.36247,2.34937,11.1678,3.02772.79417.13234,1.60486-.21509,1.83648-1.04234.19856-.71144-.24816-1.68759-1.04231-1.83648-3.80533-.66179-7.54449-1.67102-11.1678-3.02772-3.59026-1.34013-7.01504-3.14352-10.73764-4.13622-1.85303-.49635-2.64718,2.38247-.79415,2.86226v.01656Z" style="fill:#fdf7ed;"/></svg>