<?xml version="1.0" encoding="UTF-8"?><svg id="a" xmlns="http://www.w3.org/2000/svg" width="800" height="800" viewBox="0 0 800 800"><path d="M500.23256,348.6432s.04963-.1489.0827-.21509c3.75572-11.26706,3.24283-24.22171,2.76302-36.76273-.57908-14.6753-1.15816-29.84696,5.02966-42.25562.04963-.11583.09927-.23163.1489-.34745,1.57173-4.71528,6.35323-9.06659,11.43252-13.66606,6.58483-5.9727,14.03003-12.7561,16.41249-22.23633.03312-.21508.04963-.43016.08275-.64525,0-8.75224-4.07008-15.61836-11.44908-19.30755-11.20087-5.60871-28.95354-3.27588-40.38606,5.29403-.04963.04965-.09927.08273-.1489.13236-4.00383,3.50752-7.21354,7.31283-9.8111,11.36634l-1.91921,1.45595c.28126.06618.57908.16545.86034.24818-9.11625,15.46946-9.7284,34.14865-10.29092,52.36455-.49635,15.9658-1.02577,32.47761-7.2963,46.60693-.06617.18199-.1158.38053-.18199.56252-.74451,3.73916-3.40824,10.10892-3.37514,9.97656-.59562.13236-5.67491,8.45444-5.8569,9.09969,0,.0331-5.9727,6.32016-9.44711,8.57026-.51289.06617-4.69877,2.61409-4.69877,2.61409-6.89921,3.27588-14.37748,4.50021-21.21053,3.35861-.13236,0-.24816-.01656-.38053-.0331l-18.431-.46325c-15.85-.39709-31.882-.79415-47.98016-1.19123-.69488-.04963-1.38979-.09927-2.08467-.1489-.03307.0331-.08273.06617-.1158.09927-23.04703-.57908-46.24294-1.1416-69.28997-1.70412-1.2905-.0331-2.41554.87688-2.64719,2.15084-.2978,1.58829.89344,3.07735,2.51483,3.11042,1.07543.0331,2.1343.04963,3.20971.08273,1.35669,1.00924,2.08465,2.97808.9927,4.25205-1.48905,1.73722-1.72068,2.16738.57906,2.48173,1.58832.21507,3.83842-.08273.95961,2.15084-.18199.1489.43016,1.91919,1.07543,2.34937.76105.51289,1.96882.36399,2.96152.56252.77761.1489,1.53866.39709,2.31627.61215-.71142.26472-1.45593.44672-2.11774.81071-.76105.43016-1.4394,1.02577-2.16738,1.55522.79415.64525,1.57176,1.35667,2.4321,1.91919.29782.19856.81071,0,1.22433.08273.59562.09927,1.19123.28126,1.78685.41362-.56255.47982-1.07543,1.05887-1.72068,1.40633-.69488.38053-1.53866.49635-2.26664.82724-.49635.23163-.92651.61215-1.38976.92651.34743.43016.59562,1.09197,1.02577,1.2574,1.48903.57908,3.06079.95961,4.59948,1.43942.36399.1158.67835.38053,1.00924.57906-.33089.21509-.64525.49635-1.00924.61218-.38053.1158-.87688-.0331-1.22433.1158-1.05887.47982-2.06811,1.07543-3.11042,1.60486.72795.64525,1.52213,1.22433,2.15081,1.95231.66181.77759,1.57178,1.67102,1.65449,2.581.16546,1.83648-.81068,4.05349-.06617,5.47635.64525,1.24087,2.97808,1.62139,4.56638,2.38247-1.24087,1.20777-3.35861,1.90265-2.61409,4.31822.06619.19853.11583.52942.21509.54598,3.19318.43016,4.25205,2.38244,3.98732,5.37709,0,.13234.71142.2647,1.04234.47979,3.40824,2.13428,6.76685,4.36785,10.25782,6.38633,1.45593.84378,3.12698,1.57176,4.76491,1.77029.72798.09929-1.72066-3.14352-4.16929-4.10312-.36399-.1489-.82724-.01654-1.22433-.1158-.72798-.19856-1.4394-.46325-2.16738-.69488.74451-.23165,1.48903-.47982,2.23357-.71144.56252-.18199,1.12504-.33089,1.68756-.49635-.61215-.52942-1.1416-1.34013-1.83648-1.52213-2.5479-.66179-5.162-1.07541-7.74299-1.63795-.47982-.09927-.89344-.47979-1.34013-.71142.33089-.21509.64525-.47979.99268-.66179.74451-.36399,1.47249-.76108,2.2501-.9927,1.20779-.34745,2.4652-.54598,3.68953-.79415-1.30706-.54598-2.54793-1.27396-3.90459-1.57176-1.38979-.29782-2.87882-.11583-4.31822-.26472-.52945-.04963-1.0258-.41362-1.52215-.64525.52945-.57908.97617-1.37323,1.63795-1.68759.69488-.31436,1.63795-.08273,2.41556-.26472.89341-.21507,1.73719-.61215,2.59753-.94305-.76105-.47982-1.50559-.95961-2.28318-1.40633-.52945-.31436-1.15816-.47979-1.60486-.87688-1.05887-.92651-3.65643.77761-3.39171-1.75375.04963-.52945,2.77953-.90997,4.30165-1.07543.72798-.0827,1.52215.64527,2.3163.69491.46325.03307.97614-.54598,1.45593-.84381-.34743-.31436-.64525-.87688-1.02577-.92651-2.21701-.31436-4.46711-.41362-6.68412-.81071-.69488-.1158-1.2905-.87688-1.91921-1.35667.67835-.19853,1.35667-.56252,2.03501-.59562,2.06811-.06617,4.13622.0331,6.1878,0,.52942,0,1.05887-.29782,1.58829-.46325-.54596-.56252-1.00924-1.2574-1.65449-1.62139-.47979-.28129-1.20777-.09929-1.81992-.19856-2.79609-.43016-5.59218-.87688-8.38827-1.35667-.56252-.09927-1.07541-.44672-1.60486-.67835.66181-.23163,1.30706-.56252,2.00194-.66179,3.01116-.43018,6.05543-.74454,9.06659-1.24087.59562-.09929,1.05887-.86034,1.58832-1.3236-.67835-.29782-1.35669-.79415-2.05157-.86034-2.05155-.16546-4.13622-.1158-6.18777-.2978-.41362-.0331-1.04234-.76108-1.04234-1.15816,0-.39706.62871-.89341,1.07541-1.15814.31436-.19853.81071-.0331,1.20779-.13236,2.56444-.61215,5.11236-1.2574,7.66026-1.88612-2.77953-.56252-5.54252-1.20777-8.32207-1.65449-2.00192-.31436-4.07003-.38053-6.0885-.54598,1.96882-.67832,3.90459-1.48903,5.92307-1.96882,1.57176-.38055,3.24278-.33092,4.88074-.47982-1.80341-.64525-3.59024-1.30703-5.39365-1.90265-.38053-.13236-.82724-.04963-1.24087-.09927-1.80339-.23163-3.59024-.46328-5.39362-.69491,1.91921-.24816,3.85496-.38053,5.74108-.76105,1.34013-.26472,2.61409-.84378,3.92113-1.2905-1.09197-.34745-2.18391-.71144-3.29242-1.0258-1.57178-.44669-3.16008-.81068-4.7153-1.2574-.54598-.16543-1.07541-.46325-1.60486-.69488.67835-.21509,1.34013-.61215,2.01848-.64525,1.65449-.08273,3.32551.18199,4.94693-.0331,2.20047-.2978,4.41748-.74451,6.51866-1.45593.61218-.19856-2.96152-1.24087-.1489-2.21703.16546-.06617.34745-.13236.51289-.19853,3.25934.08273,6.50215.16546,9.7615.23163.2978.23163.61215.44672.95961.56252,2.66373.89344,5.39362,1.57176,8.10698,2.33283.76108.21509,1.52213.43016,2.29974.64525-.69488.24816-1.35667.56252-2.06811.74451-1.57176.41362-3.20971.61218-4.71528,1.19123-.76108.29782-1.85304,1.22433-1.81995,1.80339.04963.76108.92651,1.70415,1.70412,2.11777,1.85302,1.02577,4.79801,1.00921,3.24281,4.58291-.19856.44672,1.2905,1.90268,2.2501,2.49829,1.88612,1.17467,4.00386,2.00192,5.92305,3.12698,1.58832.92651,1.75378,1.4063-.28126,2.53136-1.52213.84378-1.52213,3.70604.33089,4.73184,2.20047,1.22431,1.75378,3.85496,2.84572,4.78147,2.61409,2.20047.06619,3.17661-.24816,4.73184-.16546.87688.1489,2.15081.76108,2.77953.92651.97614,2.20045,1.81995,3.47441,2.23357,2.68026.87688,5.64181,1.12504,5.95617,4.91383.04963.62869,1.02577,1.2574,1.65449,1.77029,1.1085.90997,2.94499,1.15814,1.90265,3.52407-.26472.61215,1.35669,2.48173,2.48173,3.20971,3.85496,2.48173,8.22281,1.88612,12.49139,1.48903.44672-.0331.84378-.84378,1.2574-1.30703-.46325-.31436-.90995-.79417-1.42286-.90997-1.95228-.44672-3.93766-.76108-5.88997-1.1747-.52942-.1158-1.00924-.38053-1.52213-.56252.49635-.26472,1.05887-.47979,1.48903-.81071,1.25743-.95958,2.4652-1.96882,3.70606-2.96152-1.45596-.61215-2.86226-1.40633-4.36785-1.75375-1.77029-.41362-3.6564-.38053-5.45982-.69488-.49635-.09927-.87688-.81071-1.3236-1.22433.46328-.26472.90997-.72798,1.37323-.76105,1.98541-.08273,4.20241-.44672,3.80533-2.84572-.34743-2.18394-2.7299-2.08467-4.61601-2.03504-.61218,0-1.25743.08273-1.85304-.03307-3.29242-.67835-6.58486-1.42286-9.8773-2.1343,3.16008-.1489,6.08853-2.31627,9.48024-1.05887.46325.16546,1.42286-1.02577,2.15084-1.58829-.52945-.46328-1.00924-1.20779-1.62142-1.3236-1.53866-.31436-2.581-1.22433-1.37323-2.399,2.94499-2.86228-.1158-3.29244-1.53866-3.68953-2.91189-.79415-5.9727-1.05887-8.96732-1.57176-.57908-.09927-1.1416-.36399-1.70412-.56252.66179-.29782,1.2905-.74451,1.96885-.87688,2.581-.49635,5.21163-.74451,7.74299-1.37323.76108-.19853,1.2574-1.37323,1.86958-2.10121-.61218-.38053-1.19123-.90997-1.85304-1.1085-4.45055-1.30703-8.91769-2.53136-13.36824-3.82186-.51291-.1489-.95961-.59562-1.43942-.89344.47982-.39706.89344-1.04231,1.42286-1.14158,2.00194-.36399,4.05349-.46325,6.0389-.89344.64525-.1489,1.14158-1.02577,1.70412-1.57176-.61218-.52945-1.12507-1.2905-1.83648-1.50559-.95961-.2978-2.05157-.09927-3.06081-.26472-2.59753-.41362-5.162-.87688-7.74299-1.3732-.36399-.06619-.67835-.36399-1.0258-.54598.39709-.24819.76108-.64525,1.19123-.72798,2.00194-.33089,4.05349-.34745,5.98926-.89344,1.05887-.2978,1.88612-1.38976,2.82916-2.13428-.89341-.49635-1.72066-1.20777-2.66373-1.47249-2.34937-.66179-4.76493-1.07541-7.13084-1.67102-.24816-.06619-.49635-.18199-.72798-.31436,12.29286.2978,24.5857.61215,36.81236.90997,1.35669.28126,2.71336.57906,4.02042.99268.87688.26472,1.73719-.16543,2.581-.56252,0,.69488.44669,1.4063,1.04231,2.06811,1.12507,1.24087,2.58102,2.18391,3.90459,3.24278-1.77029.38055-3.55714.74454-5.32745,1.12507-.59559.13236-1.17467.2978-1.77029.44672-2.13428.52942-2.15084,2.21701-.89341,3.12698,1.93575,1.4063,2.21701,2.01848-.06619,3.22625-2.05157,1.07541-2.5479,2.26664-.24816,4.08659,3.29242,2.61409,3.09388,2.99462,3.25934,7.54446.03307.95961.99268,2.16738,1.85302,2.79609,3.02772,2.21701,4.8311,5.19509,5.47635,8.80186.16546.94307,1.2574,2.10121,2.20047,2.44866,2.4652.90995,4.78147,1.4394,5.55908,4.69874.46325,1.93575,5.49289,2.82916,7.46173,1.83648.34745-.18199.67835-.39709,1.0258-.57908-.24819-.18199-.47982-.39706-.76108-.52942-.90997-.39709-1.85302-.74454-2.76299-1.1747-.52945-.24816-.97614-.64525-1.47249-.95961.56252-.19853,1.20777-.2978,1.68759-.62869.94305-.66181,1.77029-1.45596,2.66373-2.18394-.97617-.44672-1.95231-.90997-2.94501-1.34013-.90995-.41362-1.86955-.76108-2.74643-1.22433-.36399-.19853-.82724-.64525-.82724-.99268-.08273-3.4579-.0331-3.55716-2.05157-3.98732-4.51675-.95961,0-1.37323.1489-1.98538.18199-.72798.69488-1.37323,1.05887-2.06811-.67832-.29782-1.32357-.74454-2.03501-.89344-2.581-.51289-5.19509-.90997-7.79263-1.38976-.59562-.11583-1.1747-.33089-1.75378-.49635.49635-.2978.95961-.64525,1.48905-.86034.92651-.39706,1.96885-.61215,2.81262-1.12504.81071-.49635,1.45596-1.2905,2.16738-1.93575-.79415-.21509-1.63795-.29782-2.34937-.66181-1.90265-1.00921-2.31627-2.01845.13236-2.96152.43016-.16546.59562-.9927.89341-1.52213-.39706-.08273-.79415-.21509-1.20777-.24816-1.02577-.09929-2.08465-.0331-3.07735-.28129-.43016-.09927-1.04234-.79415-1.00924-1.19123.0331-.41362.67835-.86032,1.1416-1.12504.33089-.18199.82724,0,1.20777-.13236.71144-.23163,1.38976-.56252,2.08467-.86034-.51291-.51289-.92653-1.22431-1.53869-1.50557-1.62139-.72798-3.34207-1.27396-5.0131-1.88612,1.72066-.29782,3.4248-.56255,5.12892-.89344.38053-.06617.74451-.34743,1.1085-.51289,2.10118-.95961,2.29974-2.2832.39706-3.5406-1.34013-.89341-2.92843-1.42286-4.30165-2.26664-.43018-.26472-.52945-1.04234-.77761-1.58832.0331,0,.08273-.0331.1158-.04963,3.50753.08273,6.9985.18199,10.48947.26472,1.91919.21507,3.82186.43016,5.74108.61215.61215.06619,1.22431-.09927,1.85302-.1489-.09927-.09927-.21509-.19853-.31436-.29782,4.30168.09929,8.5868.21509,12.87192.31436l18.249.46325c7.57756,1.22433,14.84076.18199,21.37598-2.46517-.13236.38053-.23163.76105-.36399,1.14158.71144.13236,1.52215.54598,2.1343.34745,2.81262-.95961,5.55908-2.08465,8.33861-3.12698.72798-.28126,1.45596-.52945,2.20047-.79415-.54598.69488-1.04234,1.45593-1.67102,2.08465-1.80339,1.85302-3.7226,3.59024-5.45982,5.50945-.44672.49635-.69488,1.63795-.43016,2.15084.24816.44669,1.35667.66179,2.06811.59562.76105-.06619,1.45593-.61218,2.20047-.87688,1.48903-.51291,2.97806-.95961,4.46711-1.43942-1.1416,1.15816-2.3163,2.26667-3.39171,3.47444-.51289.57908-.92651,1.2905-1.2574,2.00192-.31436.66181-.47982,1.40633-.71144,2.11777.90997.2647,1.93575.92651,2.7299.72795,1.91921-.49633,3.73916-1.38976,5.60874-2.10118.51289-.19856,1.05887-.26472,1.57176-.39709,0,.59562.16543,1.24087-.0331,1.77031-.26472.72795-.9927,1.32357-1.19123,2.06811-.66179,2.399.69488,3.60677,3.19318,2.97806.77759-.19853,1.62139-.23163,2.31627-.57906,2.44864-1.22433,3.37514-1.12507,1.85302,1.80339-.13236.24816,1.0258,1.68759,1.50559,1.65449,1.24087-.09927,2.48173-.47979,3.6895-.87688-8.50407,8.22281-16.21396,16.36289-21.04509,25.97546-8.8515,14.82423-7.19701,31.882-5.60871,48.39378.82724,8.57026,1.68759,17.43829,1.1416,26.09129v.16546l.11583,42.42105c.24816,6.83304.09927,30.34331-12.22667,45.84591-1.30706,1.63793-2.96155,3.06076-4.91383,4.18585-.87688.51289-1.73722,1.04229-2.63063,1.57173-4.33478,2.63063-8.81843,5.36053-13.94735,5.62525-3.6895.19858-7.39556-1.70412-9.43058-4.81457-1.20777-1.85302-.94307-2.64714.06617-3.6564,14.34441-14.34438,20.96236-34.31407,20.08549-46.64003-.51289-7.26318-3.44134-13.10352-8.47097-16.85924-.06617-.03307-.11583-.0827-.18199-.11578-7.561-4.73186-15.91617-9.06661-23.99008-13.26903-7.72646-4.02039-15.53564-8.09042-22.84848-12.59063.41362-.33092,1.02577-1.37325,1.38976-2.03504.28126-.51289.18199-1.22431.34745-1.80339.16543-.57908.43016-1.1416.64525-1.70412.46325.59559,1.02577,1.1416,1.35667,1.80339.38055.71142.39709,1.65449.84381,2.2832.99268,1.3732,2.16738,2.63063,3.25934,3.93769,1.14158-1.09197,2.36591-2.1343,3.42478-3.30898,2.08465-2.31627,6.25396-2.44866,6.75031-6.40286.39709.13234.86034.46325,1.15814.34743,1.05887-.41362,2.36593-.72798,3.04425-1.52215,1.52213-1.83646,1.83648-5.162,5.57564-3.93769.2978.09932,1.1416-.64522,1.32357-1.14155,1.57178-4.16934,3.07735-8.3552,4.53331-12.57412.16546-.46328-.13236-1.09197-.21509-1.65449-.62869.46325-1.60483.79415-1.83648,1.4063-1.05887,2.84572-1.85302,5.79071-2.89535,8.65297-.24816.66181-1.14158,1.10853-1.72066,1.65449-.24816-.64522-.46325-1.30703-.77761-1.90265-.24816-.47979-.62871-.87688-.94305-1.3236-.41362.36399-.9927.64525-1.19123,1.09197-1.04234,2.41556-1.93575,4.88074-3.01118,7.27976-.19853.46325-.97614.67835-1.47249,1.00921-.1489-.52945-.34743-1.05885-.46325-1.60486-.26472-1.24087-.51289-2.49824-.76108-3.73911-.56252,1.19118-1.12504,2.38242-1.68756,3.57365-.52945,1.10853-1.09197,2.18394-1.60486,3.29247-.41362.87688-.77761,1.78683-1.1747,2.68026-.08273-.9927-.21507-2.00192-.21507-2.99462,0-.82724.43016-1.72068.19853-2.44866-.26472-.82724-1.02577-1.50559-1.55522-2.23357-.56252.56252-1.50559,1.04234-1.63795,1.68761-.62869,3.02769-.94305,6.12158-1.53866,9.14932-.1489.74449-1.20777,2.03499-1.34013,1.96885-1.40633-.64527-1.20777-1.52215-.61218-2.91192.8769-2.01848,1.3236-4.30168,1.57178-6.50213.1489-1.37325,1.53866-3.17664-.71144-4.23549-.51289,1.25738-1.00924,2.49824-1.52213,3.75567-.08273.18202-.04963.44669-.16546.59564-.19853.26467-.47979.46325-.71142.6783-.1489-.36399-.41362-.71142-.43016-1.07541-.0331-.61215.2647-1.2905.0827-1.83646-.31433-.91-.87688-1.73724-1.34013-2.59756-.67832.69491-1.57176,1.2905-1.96885,2.11774-.43016.89344-.33089,2.01848-.56252,3.02769-.39706,1.70412.09927,3.90462-2.36591,4.53333-.11583-1.48903-.14892-2.99462-.39709-4.46714-.13236-.74449-.66179-1.42284-1.00924-2.1343-.77761.44674-1.95228.72798-2.2501,1.38981-.84378,1.83646-1.48903,3.77223-2.20047,5.69139-.13236-.0827-.28126-.13234-.41362-.19853-9.33131-6.51869-17.42176-14.07969-22.86501-23.62606.26472-.67835.54598-1.34016.84378-2.00194.16546-.36399.39709-.69488.59562-1.05887.21509.31436.47982.61215.64525.95961.66181,1.4394.90997,3.45787,2.01848,4.20239,1.60486,1.07543,3.22625-.06617,4.36785-1.68756.23163-.33092,1.22433-.38055,1.73722-.21509,3.09388,1.04234,4.51675-.72798,5.60871-3.16008.36399-.81071.84378-1.55522,1.2574-2.33283.19856.77761.16546,1.75378.62871,2.26667.76108.81068,1.78685,1.55522,2.82919,1.80339.36396.08273,1.19121-1.3236,1.63793-2.15084.28126-.51289.18199-1.22433.34745-1.80339.16543-.57908.43016-1.1416.64525-1.70412.46325.59562,1.02577,1.1416,1.35667,1.80339.38055.71144.39709,1.65449.84381,2.2832.99268,1.37323,2.16738,2.63063,3.25934,3.93766,1.14158-1.09194,2.36591-2.13428,3.42478-3.30898,2.08465-2.31627,6.25396-2.44864,6.75031-6.40286.39709.13236.86034.46325,1.15814.34745,1.05887-.41362,2.36593-.72798,3.04425-1.52213,1.52215-1.83648,1.83648-5.16202,5.57564-3.93769.2978.09927,1.12504-.64525,1.3236-1.1416,1.57176-4.16932,3.07732-8.35517,4.53328-12.57412.16546-.47979-.13236-1.09194-.21509-1.65449-.62869.46325-1.60483.79417-1.83646,1.40633-1.0589,2.84572-1.85304,5.79071-2.89535,8.65297-.24819.66181-1.1416,1.1085-1.72068,1.65449-.24816-.64525-.46325-1.30703-.77761-1.90265-.24816-.47982-.62871-.87688-.94305-1.3236-.41362.36399-.9927.64525-1.19123,1.09197-1.04234,2.41554-1.93575,4.88074-3.01118,7.27974-.19853.46325-.97614.67835-1.47249,1.00924-.1489-.52942-.34743-1.05887-.46325-1.60486-.26472-1.24087-.51289-2.49827-.76105-3.73913-.56255,1.19123-1.12507,2.38247-1.68759,3.5737-.52945,1.1085-1.09197,2.18391-1.60486,3.29242-.41362.87688-.77761,1.78685-1.1747,2.68029-.0827-.9927-.21507-2.00194-.21507-2.99464,0-.82724.43016-1.72066.19853-2.43207-.24816-.82724-1.02577-1.50559-1.55522-2.23357-.56252.56252-1.50559,1.04234-1.63795,1.68759-.62869,3.02772-.94305,6.1216-1.5552,9.14932-.14892.76105-1.20779,2.03501-1.34016,1.96885-1.4063-.64525-1.20777-1.52215-.61215-2.91192.87688-2.01848,1.3236-4.30165,1.57176-6.50213.14892-1.37323,1.53869-3.17661-.71142-4.23549-.51289,1.2574-1.00924,2.49827-1.52213,3.75567-.08273.18199-.04963.44672-.16546.59562-.19853.26472-.47979.46325-.71142.67835-.14892-.36399-.41362-.71142-.43018-1.07541-.03307-.61218.26472-1.2905.08273-1.83648-.31436-.90997-.87688-1.73722-1.34013-2.59756-.67835.69488-1.57176,1.2905-1.96885,2.11774-.43016.89344-.33089,2.01848-.56252,3.02772-.39709,1.70412.09927,3.90459-2.36593,4.53331-.1158-1.48905-.1489-2.99462-.39706-4.46711-.13236-.74454-.66181-1.42286-1.00924-2.1343-.77761.44672-1.95231.72798-2.2501,1.38976-1.09197,2.38247-1.83648,4.91383-2.84572,7.3294-.19853.47979-.92651.72798-1.40633,1.07541-.24816-.44669-.69488-.87688-.72798-1.34013-.19853-2.20047-.23163-4.43402-.41362-6.63449-.06617-.71144-.44669-1.40633-.67832-2.10121-.52945.69488-1.20779,1.34013-1.55522,2.11774-.31436.72798-.23163,1.63795-.41362,2.4321-.61215,2.56446-1.24087,5.12892-1.96885,7.66029-.1489.52942-.77761.92651-1.19123,1.37323-.21509-.52945-.56252-1.05887-.61215-1.60486-.33089-3.63989-.59562-7.27976-.90997-10.9031-.09927-1.12504-.33089-2.23354-.51289-3.34205-.56252.89341-1.22433,1.75375-1.68759,2.71336-.26472.52942-.13236,1.24087-.31436,1.81992-.86032,2.61409-1.73722,5.21165-2.59753,7.82575-1.85304-3.78879-3.29244-7.87538-4.26858-12.3094-.34745-1.63795-2.15084-2.581-3.77223-1.78685-1.09197.52942-1.60486,1.81992-1.35669,3.01116,3.6068,16.44562,12.97121,28.24213,24.93315,37.75543-23.57646.36399-42.78507,1.32357-59.92557,2.16738-2.54793.13234-5.04619.24816-7.52793.38055-1.62139.0827-2.76299,1.58829-2.4321,3.16008.26472,1.27394,1.40633,2.15081,2.69682,2.08462,2.48173-.11583,4.99656-.24816,7.52793-.3805,10.80381-.54601,22.43486-1.12509,35.45567-1.55522.0331.11578.06619.21509.11583.33087,4.05349,8.12354,9.16585,15.28751,14.09622,22.20325,4.7484,6.66759,9.66223,13.56677,13.51717,21.19399,2.38247,12.67339-4.13622,22.00467-11.05197,31.86546-3.04425,4.35126-6.1878,8.83496-8.63643,13.73223-.18199.36399-.28126.76105-.28126,1.17467,0,1.24087.26472,2.54793.81071,3.88806,1.96882,4.93039,6.99848,8.27244,12.52446,8.32207h.1489c7.82575,0,13.31864-4.88071,14.82423-6.3863.1158-.11583.23163-.26472.33089-.39711,14.64223-21.9716,30.47567-47.5169,34.84352-74.23688,4.48367,2.41554,8.91769,4.89727,13.07047,7.47832,3.75567,2.86223,5.87341,7.23011,6.28704,12.95462.90997,12.75609-7.06465,31.05473-18.56333,42.53688-2.05157,2.0516-3.85496,5.50947-.74454,10.27441,2.94499,4.50016,7.97465,7.19698,13.3021,7.19698.26472,0,.54598,0,.81068-.01651,6.45252-.33092,11.74688-3.55719,16.41255-6.38635.86032-.51289,1.70412-1.04234,2.5479-1.5221,2.51483-1.47252,4.66567-3.30898,6.38633-5.45984,13.43444-16.92538,13.61643-42.02399,13.36827-49.22102l-.11583-42.25564c.56255-9.03349-.31436-18.08354-1.15814-26.83578-1.58829-16.41252-3.07735-31.91507,4.93037-45.2668.0331-.06617.06619-.1158.09929-.18199,4.40092-8.81843,11.68068-16.54488,19.77113-24.38717.34743.08273,4.66564-4.46711,5.21163-4.98,11.82958-11.25052,24.05627-22.89811,30.6411-38.23522l-.03307-.09927ZM353.41329,486.21389c.1489.61215.16543,1.34013.41362,1.88614-.36399-.23165-.71144-.47982-1.07543-.71147.21509-.39706.44672-.77756.66181-1.17467ZM348.92962,584.04379c-2.38247,2.29976-6.41942,4.66567-10.93617,4.66567h-.09927c-3.40824-.03312-6.48559-2.03504-7.67682-5.0131-.19856-.49638-.33089-.95963-.39709-1.38976,2.23357-4.30168,5.11236-8.4379,7.92501-12.44178,7.29627-10.42326,14.84076-21.19399,11.82958-36.24984-.04963-.2316-.11583-.44669-.23163-.66179-4.05349-8.12354-9.16585-15.28746-14.09625-22.21976-4.43402-6.22089-8.98386-12.64031-12.70646-19.67189,7.92499-.2316,16.36289-.41362,25.44601-.51289,9.21551,6.27052,19.4568,11.59798,29.56572,16.85924,1.83648.95963,3.6895,1.91921,5.54252,2.89535-3.73913,26.22365-19.5395,51.76895-34.16517,73.72399v.01656ZM487.57574,222.65392c9.8111-7.31251,25.3964-9.43025,34.79389-4.73184,5.57562,2.79609,8.45441,7.59411,8.53717,14.27824-2.06811,7.77609-8.5206,13.63298-14.75806,19.30787-2.18394,1.98538-4.30168,3.92114-6.20433,5.90652h-.19853c.34743-.76106.69491-1.52213,1.04234-2.28319.64522-1.40633,1.2905-2.81264,1.93572-4.21895-1.50554.19854-3.01113.36399-4.50016.59562-.39711.06618-.77761.26471-1.12509.44671-1.83646.94306-3.67297,1.90266-5.50942,2.86227,1.20774-1.60486,2.4321-3.17661,3.59021-4.81457.41362-.59562.62871-1.32358.94307-1.98538-.71142,0-1.5221-.19854-2.11774.06618-2.39898,1.05887-4.7153,2.36592-7.13084,3.35861-.9927.41362-2.20045.29781-3.32554.43017.46325-.76106.86037-1.58831,1.42289-2.26665,1.1416-1.40631,2.38247-2.74644,3.54058-4.13622.24821-.29781.54601-.95961.44674-1.04232-.41362-.36399-1.0589-.92652-1.42289-.79416-3.22622,1.1085-6.41942,2.36592-9.62913,3.55715-.66179.24818-1.3732.39707-2.06811.59562.44674-.64525.82724-1.35668,1.37325-1.91921,1.96885-2.03501,4.10315-3.93768,5.95617-6.07197.56252-.64525.43013-1.86957.61215-2.82917-.87688.13236-1.86958.04963-2.61412.43017-1.65449.8107-3.1104,2.01848-4.78144,2.76299-1.53866.67833-3.25934.94306-4.89727,1.38976,1.20774-1.07541,2.48173-2.10119,3.60677-3.27588.69486-.72798,1.10848-1.72067,1.75375-2.49828,1.25743-1.52213,2.581-2.96154,3.8715-4.43403-2.18394.26472-4.40094.44672-6.55176.86034-.95963.18199-1.78688.94306-2.7299,1.34013-.71147.29781-1.48908.44671-2.25013.6618.51289-.61217.95963-1.3236,1.55522-1.81993,1.10853-.90997,2.53136-1.53867,3.45787-2.59755,1.30706-1.50559,2.26664-3.30898,3.37517-4.98001-1.17467.43017-2.3494.86033-3.52407,1.2905,1.09197-1.17469,2.26664-2.31629,3.52407-3.42479v-.01655ZM461.21973,379.33396c-2.36591,1.04231-4.63257,2.31627-7.01501,3.30898-.97617.39706-2.1674.2978-3.25934.41362.46325-.74451.84378-1.55522,1.4063-2.23357,1.12507-1.38976,2.34937-2.6968,3.49097-4.07003.23163-.28126.52945-.94307.44672-1.0258-.39709-.36399-1.04234-.90995-1.38976-.77761-3.17661,1.09197-6.3036,2.33283-9.46367,3.49097-.66181.24819-1.35669.39709-2.03501.57908.44669-.62871.81068-1.34013,1.35667-1.88612,1.93575-2.00194,4.03696-3.8715,5.8569-5.9727.54596-.62871.43016-1.83648.61215-2.77955-.86034.13236-1.83648.04966-2.581.43018-1.62142.79415-3.06081,1.98538-4.69877,2.71336-1.50557.66179-3.20969.92651-4.81454,1.35667,1.19123-1.05887,2.4321-2.06811,3.5406-3.20969.67832-.71144,1.09194-1.68759,1.72066-2.4652,1.22433-1.48903,2.53136-2.91189,3.80533-4.36785-2.15084.26472-4.31822.43016-6.45249.84378-.94307.18199-1.75378.92651-2.68029,1.3236-.69488.29782-1.47249.43016-2.21701.64525.2978-.36399.59562-.74451.89341-1.1085,6.71724-4.03696,12.40866-9.79457,16.52835-16.37942.13236-.09929.26472-.21509.39709-.31436-.21509.89341-.52945,1.78685-.61218,2.68026-.18199,2.20047,1.09197,3.44134,2.79609,2.48173,2.4652-1.38976,5.06273-2.69682,8.33863-4.74837.0827-.04963,2.13428,4.79801,2.2501,5.62525.44669,3.34207,1.73719,2.72992,4.99654,2.33283,2.1674-.26472,4.31822-.95961,6.35325-1.75375.82724-.31436,1.35669-1.42286,2.01848-2.16738-.89344-.18199-1.85302-.67835-2.64719-.46328-1.70412.46328-1.24087.33092-2.87879,1.04234-.91.39709-1.83651.92651-1.38979-.49635.24816-.79415.44672-2.81262.52945-3.67297-.82724.47982-3.62333,2.74646-4.45058,3.20971-1.22433.69488-2.16738-6.96538-2.00194-7.51137-.69488,0-1.57176-.24819-2.06811.06617-2.00192,1.3236-3.82186,2.87882-5.80724,4.21895-.74451.49635-1.73722.57908-2.63063.86034.18199-.81071.38053-1.60486.56252-2.399.34743-1.47249.71142-2.96155,1.05887-4.43404-.74451.24819-1.48905.51289-2.23357.76108,1.72068-3.52407,3.01118-7.21357,3.78879-10.95273.61215-1.38976,1.15814-2.79606,1.65449-4.21892.71142-.34745,1.4063-.71144,2.10118-1.10853.87688-.49633,1.62142-1.20777,2.41556-1.81992-.21509.90997-.54598,1.80339-.61215,2.7299-.18199,2.23357,1.1085,3.50753,2.82916,2.53136,2.49829-1.4063,4.69874-3.82186,7.3294-.28126.04963.06619.74449-.24816,1.07541-.46325,2.82916-1.93575,6.05543-2.399,9.38097-2.79609,2.20045-.2647,2.8126.04963,3.45787,2.16738.26472.86034,1.34013,1.47249,2.03499,2.20047.24821-.89341.82724-1.83648.66184-2.64717-.33092-1.77031-1.52215-6.40289-3.17664-5.67491-.92651.39709-3.68953,2.15084-3.24278.69488.24816-.81068.19853-1.72066.28123-2.59753-.82724.49635-1.671.99268-2.49824,1.47249-1.24087.71142-2.48173,1.4063-3.73916,2.08465-.34743.18199-.76105.24819-1.1416.36399.1489-.54598.28129-1.07541.43018-1.62139.1489-.56252.31436-1.12507.47977-1.68759-.71142,0-1.60486-.26472-2.10118.06619-2.03504,1.34013-3.88806,2.92843-5.90651,4.28512-.74454.49635-1.77031.59562-2.68029.86034.19856-.81071.38055-1.63795.57908-2.44866.36399-1.50557.72798-3.01116,1.07541-4.50021-1.4394.47982-2.87879.94307-4.30165,1.45596-.38055.13236-.71144.41362-1.0258.66179-.01654.01656-.04963.0331-.06617.04966-.69488,1.63793-1.78685,3.22625-3.20971,4.74837,3.7226-10.9858,4.74837-22.79885,5.22819-34.54572,2.53136-.94305,4.9469-2.41554,6.71722,1.3236.0331.08273.77759-.09927,1.14158-.24816,3.16008-1.35669,6.40291-1.1747,9.74496-.92653,2.21701.16546,4.50021-.1158,6.68415-.49633.89339-.16546,1.62137-1.15816,2.4321-1.77031-.84381-.34743-1.72068-1.04234-2.54793-.97614-1.78688.1158-3.55714.59562-5.32745.97614-.97614.21509-1.58829.36399-.87688-.97614.39706-.74451.51289-1.65449.76105-2.48173-.90995.31436-1.81995.66179-2.74646.95961-1.35664.44669-2.69682.90997-4.07003,1.3236-.38055.1158-.79417.09927-1.19123.1489.24816-.49635.49633-1.00924.74454-1.50559.26472-.52945.5294-1.04234.79412-1.55522-.69486-.13236-1.5221-.56252-2.06811-.33089-2.25008.92651-4.38438,2.13428-6.63449,3.06081-.82724.34743-1.85302.23163-2.79609.33089.34745-.76108.69488-1.52213,1.04234-2.2832.64525-1.40633,1.2905-2.81262,1.93575-4.21895-1.15814.14892-2.29974.29782-3.45787.46325.52942-16.56142,1.1416-32.4445,7.79263-45.79622,2.71338-.94306,5.36058-2.01848,8.04084-3.02772.74449-.28126,1.48903-.54598,2.23357-.8107-.56257.71143-1.0589,1.48904-1.70417,2.13429-1.83646,1.88612-3.78874,3.65642-5.5425,5.60871-.44674.49634-.71147,1.67102-.43018,2.18392.24816.46325,1.38976.6618,2.10118.61215.77761-.06618,1.48908-.6287,2.25013-.89343,1.50559-.51289,3.02769-.97614,4.54984-1.45595-1.15816,1.17469-2.3494,2.31629-3.45787,3.52406-.52945.59562-.94307,1.30705-1.2905,2.03503-.33092.67835-.47982,1.43941-.71147,2.15084.92656.26471,1.96885.94306,2.76302.74451,1.95228-.49635,3.8053-1.42286,5.708-2.13429.51289-.19853,1.07541-.26471,1.60486-.39707,0,.61217.16541,1.27395-.03312,1.80339-.28123.74453-1.00921,1.34014-1.22431,2.10121-.66179,2.4321.71142,3.67297,3.24278,3.02772.79417-.19854,1.65449-.23164,2.36591-.57908,2.49829-1.24087,3.44136-1.14159,1.88614,1.83648-.13239.24818,1.04234,1.72067,1.5221,1.67104,1.53871-.13236,3.06081-.64525,4.53333-1.1416.94307-.31434,1.81995-.87688,2.7299-1.32358-.38055.84378-.87688,1.67102-1.12504,2.56445-.43018,1.50559-.04963,2.66373.86032,3.02772-1.58829,2.03501-2.86228,4.15276-3.6564,6.45249-6.71722,13.56682-6.10507,29.36717-5.50947,44.63811.49638,12.59066.95963,24.48643-2.46517,34.81042-6.05543,14.06315-17.57066,25.16478-28.82118,35.85276-.38053.04963-.77761.09927-1.15814.14892-.38053.06617-.76108.2647-1.1085.44669-1.81995.92651-3.62333,1.86958-5.42672,2.81262,1.17467-1.57176,2.399-3.12698,3.52404-4.73184.41362-.57906.62871-1.30703.92651-1.95228-.69488,0-1.48903-.19853-2.06811.06617l.08273.01656Z" style="fill:#fdf7ed;"/></svg>