<?xml version="1.0" encoding="UTF-8"?><svg id="a" xmlns="http://www.w3.org/2000/svg" width="800" height="800" viewBox="0 0 800 800"><path d="M114.5,444.79999c-.1-.89999-1-1.5-1.8-1.39999l-20,2.5-1.3-10.60001c-1.3-10.39999-11-17.89999-21.6-16.60001-10.3,1.29999-17.7,11-16.4,21.5l2.5,20c.1.89999,1,1.5,1.8,1.39999l56.4-7.10001c.9-.10001,1.5-.89999,1.4-1.79999l-1-7.79999v-.10001ZM65.1,449.29999l-1.2-9.89999c-.6-4.79999,2.5-9.20001,7.2-9.79999,5-.60001,9.4,2.89999,10,7.70001l1.2,9.89999-17.1,2.20001-.1-.10004Z" style="fill:#fdf7ed; stroke-width:0px;"/><path d="M111.1,384.89999l3.7-34.70001c0-.89999-.6-1.70001-1.4-1.79999l-7-.70001c-.9,0-1.7.5-1.8,1.39999l-2.7,25.29999-14.9-1.60001,2.2-21.10001c0-.89999-.5-1.70001-1.4-1.79999l-7.1-.79999c-.9,0-1.7.60001-1.8,1.39999l-2.2,21.10001-14-1.5,2.7-25.29999c.1-.89999-.6-1.70001-1.4-1.79999l-7-.70001c-.9,0-1.7.5-1.8,1.39999l-3.7,34.70001c0,.89999.6,1.70001,1.4,1.79999l56.5,6c.9,0,1.7-.5,1.8-1.39999l-.09999.10001Z" style="fill:#fdf7ed; stroke-width:0px;"/><path d="M126.9,300.89999l-45.6-15.60001,4.2-12.39999c.3-.89999-.2-1.79999-1-2.10001l-6.7-2.29999c-.8-.29999-1.8.10001-2.1,1l-12.1,35.5c-.3.89999.2,1.79999,1,2.10001l6.7,2.29999c.8.29999,1.8-.10001,2.1-1l4.2-12.39999,45.6,15.60001c.8.29999,1.8-.20001,2.1-1l2.6-7.60001c.3-.79999-.2-1.79999-.99999-2.10001Z" style="fill:#fdf7ed; stroke-width:0px;"/><path d="M175.60001,171.8c-12.5-10.7-31.60001-9.10001-42.3,3.39999l-13.2,15.5c-.6.7-.4,1.7.2,2.2l43.2,36.89999c.7.60001,1.7.5,2.2-.10001l13.2-15.5c10.8-12.60001,9.3-31.7-3.3-42.5l.00002.10002ZM170.3,208.3l-6.39999,7.39999-29.8-25.5,6.39999-7.39999c7.2-8.5,18.89999-9.2,27.39999-2,8.5,7.3,9.60001,19,2.39999,27.5h.00002Z" style="fill:#fdf7ed; stroke-width:0px;"/><path d="M219.2,172.2c.5.7,1.5.89999,2.3.39999l28.60001-20c.8-.5.89999-1.60001.39999-2.3l-4-5.8c-.5-.7-1.5-.89999-2.3-.39999l-20.8,14.60001-8.60001-12.3,17.39999-12.2c.7-.5.89999-1.5.39999-2.3l-4.10001-5.8c-.5-.7-1.60001-.9-2.3-.4l-17.39999,12.2-8.10001-11.5,20.8-14.6c.8-.5.89999-1.6.39999-2.3l-4-5.8c-.5-.7-1.5-.9-2.3-.4l-28.60001,20c-.8.5-.89999,1.6-.39999,2.3l32.59999,46.5.00005.10001Z" style="fill:#fdf7ed; stroke-width:0px;"/><path d="M276.5,136.5c.29999.8,1.20001,1.3,2.10001.89999l7.39999-2.8c.79999-.3,1.20001-1.3.89999-2.10001l-7.79999-20.4,8.89999-3.4,18.79999,17.2c.29999.3.79999.5,1.60001.2l8.39999-3.2c1.39999-.5,1.39999-2,.5-2.8l-18.79999-16.1c5.89999-5.5,8.5-13.4,5.70001-20.7-3.70001-9.5-14.5-14.2-24.10001-10.5l-22.89999,8.8c-.89999.3-1.20001,1.3-.89999,2.1l20.29999,53.1-.10001-.29997ZM282.79999,82.5c4.20001-1.6,9.29999.5,10.89999,4.7,1.70001,4.5-.60001,9.6-4.79999,11.2l-13.10001,5-6.10001-16,13.10001-5v.10001Z" style="fill:#fdf7ed; stroke-width:0px;"/><path d="M343.79999,115.2l7.70001-.6c.79999,0,1.39999-.8,1.39999-1.4l2.29999-32.8h.29999l17.89999,32.4c.29999.5.79999.9,1.5.8h1.5c.79999-.2,1.20001-.7,1.39999-1.2l12.20001-34.9h.29999l7.70001,32c.20001.6,1,1.2,1.70001,1.1l7.79999-.6c1.10001,0,1.70001-.9,1.39999-2.1l-14.79999-56.7c-.10001-.7-.70001-1.2-1.60001-1.2h-1.39999c-.79999.2-1.20001.6-1.39999,1.1l-15.5,41.9h-.29999l-22.10001-38.8c-.29999-.5-.79999-.8-1.5-.7h-1.39999c-.89999.2-1.39999.8-1.39999,1.5l-5.39999,58.3c0,1.2.70001,1.9,1.79999,1.8l-.10001.09999Z" style="fill:#fdf7ed; stroke-width:0px;"/><path d="M430.39999,111.9l7.29999,1.5c1.29999.3,2.29999-.4,2.79999-1.2l5.89999-8.3,25.20001,5.1,2.29999,9.9c.39999,1.3.79999,1.9,2.10001,2.2l7.29999,1.5c1.29999.3,2.20001-.7,1.89999-1.9l-14.60001-61.8c-.20001-.6-.39999-1-1.20001-1.2l-.79999-.2c-.79999-.2-1.29999.2-1.60001.6l-37.5,51.40001c-.70001,1-.29999,2.2,1,2.5l-.09995-.1ZM464.39999,78.5h.29999l4.70001,20.3-16.89999-3.4,12-16.9h-.10001Z" style="fill:#fdf7ed; stroke-width:0px;"/><path d="M514.09998,135.10001l7.29999,3.3c.79999.39999,1.79999,0,2.20001-.8l19.70001-43.9,12,5.4c.90002.4,1.79999,0,2.20001-.8l2.90002-6.4c.40002-.8,0-1.8-.79999-2.2l-34.20001-15.4c-.90002-.4-1.79999,0-2.20001.8l-2.90002,6.4c-.40002.8,0,1.8.79999,2.2l12,5.4-19.70001,43.89999c-.40002.8,0,1.8.79999,2.2l-.09998-.09999Z" style="fill:#fdf7ed; stroke-width:0px;"/><path d="M616.79999,126.2c-13.40002-10.7-32.70001-8.3-43.40002,5.10001-10.70001,13.39999-8.5,32.59999,5,43.3,13.40002,10.7,32.70001,8.5,43.40002-4.89999s8.5-32.8-4.90002-43.5l-.09998-.00002ZM613,162.7c-6.70001,8.5-19.20001,9.89999-27.70001,3.10001-8.5-6.7-9.90002-19.10001-3.20001-27.60001s19.20001-10,27.70001-3.3,9.90002,19.3,3.09998,27.8h.10004Z" style="fill:#fdf7ed; stroke-width:0px;"/><path d="M636.20001,217.2l38.29999-29.2c.70001-.5.79999-1.60001.29999-2.3l-4.79999-6.3c-.59998-.8-1.59998-.8-2.29999-.3l-45.20001,34.40001c-.70001.5-.90002,1.5-.29999,2.3l19,25c.59998.8,1.59998.8,2.29999.3l5.59998-4.3c.70001-.5.90002-1.5.29999-2.3l-13.29999-17.39999.10004.09999Z" style="fill:#fdf7ed; stroke-width:0px;"/><path d="M705.20001,304.39999c15.79999-6.70001,23.20001-24.70001,16.5-40.5-6.70001-15.8-24.70001-23-40.59998-16.3-15.79999,6.7-23,24.59999-16.29999,40.40001,6.70001,15.79999,24.59998,23.10001,40.40002,16.39999h-.00006ZM675.09998,283.60001c-4.20001-10,.5-21.5,10.40002-25.79999,10-4.2,21.70001.39999,25.90002,10.39999s-.59998,21.70001-10.59998,25.89999c-10,4.20001-21.59998-.5-25.79999-10.5h.09991Z" style="fill:#fdf7ed; stroke-width:0px;"/><path d="M712.79999,334.79999c-17,2.10001-28.90002,17.29999-26.79999,34.29999,1.5,12.39999,8.09998,20.5,8.09998,20.5.29999.29999.79999.60001,1.40002.5l21.79999-2.60001c.90002-.10001,1.5-.89999,1.40002-1.70001l-2-16.39999c-.09998-.89999-.90002-1.5-1.79999-1.39999l-6.70001.79999c-.90002.10001-1.5.89999-1.29999,1.79999l.79999,6.79999-7.20001.89999c-.90002-1.60001-2.79999-5.10001-3.40002-9.89999-1.29999-10.70001,6.59998-20.29999,17.20001-21.5,10.70001-1.29999,20.79999,6.10001,22.09998,16.70001.59998,4.70001-.59998,9.39999-3.40002,13.5-.59998.79999-.5,1.60001.29999,2.20001l6.20001,4.60001c.79999.60001,1.79999.39999,2.40002-.39999,4.20001-6.39999,6.29999-14.10001,5.40002-21.70001-2-17-17.40002-28.89999-34.5-26.89999v-.09998Z" style="fill:#fdf7ed; stroke-width:0px;"/><path d="M746.29999,419.39999l-30.90002,15.79999-27.09998-3.5c-.90002-.10001-1.70001.5-1.79999,1.39999l-1,7.79999c-.09998.89999.59998,1.70001,1.40002,1.79999l27.20001,3.5,25.79999,23.29999c1,.79999,2.5.29999,2.59998-1l1.09998-8.79999c0-.70001-.29999-1.20001-.59998-1.5l-17.79999-16.10001,21.29999-11.10001c.40002-.20001.90002-.60001.90002-1.29999l1.09998-8.70001c.20001-1.39999-1.09998-2.20001-2.29999-1.70001l.09998.10007Z" style="fill:#fdf7ed; stroke-width:0px;"/><path d="M234.89999,636.09998c-13.89999-10.09998-33.2-7-43.3,6.79999-10.10001,13.90002-6.89999,33.09998,6.89999,43.09998,6.2,4.5,13.7,6.70001,21.8,5.5.8-.09998,1.60001-.90002,1.39999-1.79999l-1.10001-7.59998c-.10001-.70001-.8-1.29999-1.7-1.29999-4.60001.20001-9.3-.70001-13.5-3.79999-8.89999-6.5-10.2-18.70001-3.89999-27.29999,6.39999-8.70001,18.39999-11.40002,27.2-4.90002,3.89999,2.79999,6.7,7.20001,7.7,11.90002.2,1,.8,1.5,1.7,1.29999l7.39999-1.29999c1-.20001,1.60001-1,1.3-2-1.60001-7.70001-5.10001-13.59998-12.10001-18.70001l.20003.09998Z" style="fill:#fdf7ed; stroke-width:0px;"/><path d="M310.20001,675.29999l-32.39999-13c-.89999-.40002-1.79999.09998-2.10001.90002l-21.10001,52.70001c-.3.79999,0,1.79999.89999,2.09998l32.39999,13c.89999.40002,1.79999-.09998,2.10001-.90002l2.60001-6.5c.29999-.79999,0-1.79999-.89999-2.09998l-23.60001-9.5,5.60001-13.90002,19.70001,7.90002c.79999.29999,1.79999,0,2.10001-.90002l2.70001-6.59998c.29999-.79999-.10001-1.79999-.89999-2.09998l-19.70001-7.90002,5.20001-13.09998,23.60001,9.5c.89999.40002,1.79999-.09998,2.10001-.90002l2.60001-6.5c.29999-.79999,0-1.79999-.89999-2.09998l-.00006-.10004Z" style="fill:#fdf7ed; stroke-width:0px;"/><path d="M388.10001,689.5l-7.79999-1c-.89999-.09998-1.70001.59998-1.79999,1.40002l-4.29999,35.20001h0l-30.89999-42-2.10001-.29999c-.89999-.09998-1.70001.5-1.79999,1.29999l-7,57.40002c-.10001.90002.60001,1.70001,1.39999,1.79999l7.79999.90002c.89999.09998,1.70001-.59998,1.79999-1.40002l4.5-36.59998h0l30.89999,43.5,2,.20001c.89999.09998,1.70001-.5,1.79999-1.29999l7-57.40002c.10001-.90002-.60001-1.70001-1.39999-1.79999l-.10001.09991Z" style="fill:#fdf7ed; stroke-width:0px;"/><path d="M456.10001,685.59998c-.10001-.90002-.89999-1.5-1.79999-1.40002l-37.20001,4.59998c-.89999.09998-1.5,1-1.39999,1.79999l.89999,7c.10001.90002.89999,1.5,1.79999,1.40002l13-1.59998,5.89999,47.79999c.10001.90002,1,1.5,1.79999,1.40002l7.89999-1c.89999-.09998,1.5-1,1.39999-1.79999l-5.89999-47.79999,13-1.59998c.89999-.09998,1.5-1,1.39999-1.79999l-.89999-7,.10004-.00006Z" style="fill:#fdf7ed; stroke-width:0px;"/><path d="M534.90002,712.90002c-.29999-.79999-1.20001-1.29999-2.09998-1l-23.89999,8.59998-5.10001-14.09998,19.90002-7.20001c.79999-.29999,1.29999-1.20001,1-2.09998l-2.40002-6.70001c-.29999-.79999-1.29999-1.29999-2.09998-1l-19.89999,7.20001-4.79999-13.20001,23.89999-8.59998c.90002-.29999,1.29999-1.29999,1-2.09998l-2.40002-6.59998c-.29999-.79999-1.20001-1.29999-2.09998-1l-32.89999,11.90002c-.89999.29999-1.29999,1.29999-1,2.09998l19.29999,53.40002c.29999.79999,1.20001,1.29999,2.10001,1l32.90002-11.90002c.90002-.29999,1.29999-1.29999,1-2.09998l-2.40002-6.59998-.00006-.00012Z" style="fill:#fdf7ed; stroke-width:0px;"/><path d="M611.90002,674.70001l-21.90002-11.5c4.5-6.70001,5.29999-14.90002.90002-21.5-5.70001-8.5-17.29999-10.59998-25.79999-4.90002l-20.40002,13.70001c-.79999.5-.90002,1.59998-.40002,2.29999l31.70001,47.20001c.5.70001,1.5,1,2.29999.40002l6.59998-4.40002c.70001-.5.90002-1.59998.40002-2.29999l-12.20001-18.20001,7.90002-5.29999,22.20001,12.5c.29999.20001.90002.29999,1.59998-.09998l7.5-5c1.20001-.79999.90002-2.29999-.20001-2.90002h-.19995ZM579.59998,660.09998l-11.59998,7.79999-9.5-14.20001,11.59998-7.79999c3.79999-2.5,9.20001-1.59998,11.70001,2.20001,2.70001,4,1.59998,9.5-2.20001,12Z" style="fill:#fdf7ed; stroke-width:0px;"/><path d="M425.5,486.70001c1.39999-1.79999,2.39999-1.79999,6-1.79999,6.89999.10001,34.20001-2.20001,63-4.70001,21.5-1.89999,43.79999-3.79999,58.29999-4.70001,2-.10001,3.5-1.79999,3.29999-3.79999-.09998-2-1.79999-3.5-3.79999-3.29999-14.59998,1-36.90002,2.89999-58.5,4.79999-27.39999,2.39999-55.70001,4.79999-62.29999,4.70001-4,0-8.10001,0-11.70001,4.5-4.29999,5.39999-4.70001,13.70001-5.10001,22.5-.79999,15.59998-2.10001,25.20001-14,26.09998-3.79999.29999-7.89999.70001-11.79999,1.09998-15.70001,1.59998-35.20001,3.5-37.20001-3.90002.20001-4.20001,4.5-6.09998,11.5-8.90002,4.79999-1.90002,9.70001-3.90002,13-7.39999,1.70001-1.89999,2.39999-4.79999,2-8.89999-.79999-8.39999-6.60001-23.60001-10.10001-26.20001-.10001,0-.20001-.10001-.29999-.20001-28.89999-17.20001-45.10001-51-40.29999-84.10001v-.10001c.20001-1.70001.5-3.5.79999-5.29999.79999-4.10001,1.5-8.39999,1.10001-13.20001-1.29999-12.5-13.5-18.39999-23.29999-23.10001-1.89999-.89999-3.60001-1.70001-5.20001-2.60001-2.60001-1.5-5.29999-3-7.89999-4.39999-9.5-5.29999-19.29999-10.70001-27.10001-18-6.70001-6.10001-12-14-14.89999-22.10001,0-.20001-.2-.39999-.3-.60001-.39999-.60001-.7-1.29999-1-2,.5.10001,1,.20001,1.5.20001,3.10001,0,6.09999-2.79999,6.00002-6,0-.79999-.20001-1.5-.5-2.20001.5,0,1.10001.20001,1.5.29999.79999.20001,1.5.29999,2.29999.39999l1.60001.20001c9.10001,1.20001,17.70001,2.39999,27.5,2.39999,16.29999,0,30.39999-.79999,43.10001-2.60001,2.79999-.39999,5.60001-.89999,8.20001-1.39999,9.39999-1.79999,17.5-3.29999,27.20001-.5,17.79999,4.70001,28.39999,18.70001,27.89999,36.39999-.5,9.79999,4.29999,29.39999,13.5,39.10001,3.79999,4,7.89999,6,12.39999,6,10.29999,0,72.70001-1.60001,129-3.10001,2,0,3.5-1.70001,3.5-3.70001s-1.70001-3.5-3.70001-3.5c-56.20001,1.60001-118.5,3.10001-128.79999,3.10001s-4.79999-1.29999-7.20001-3.70001c-7.29999-7.79999-12-25.60001-11.5-33.89999.70001-20.89999-12.29999-38.10001-33.10001-43.60001-11.20001-3.20001-20.60001-1.5-30.39999.39999-2.60001.5-5.29999,1-7.89999,1.39999-12.39999,1.70001-26.20001,2.5-42.10001,2.5s-17.70001-1.10001-26.5-2.29999l-1.5-.20001c-.60001,0-1.20001-.20001-1.89999-.39999-4.3-.79999-10.10001-2-14.5.79999-2.39999,1.29999-3.5,4.20001-3.7,6.5-.8,4.39999,1,9.5,2.89999,12.70001,3.3,9.10001,9.2,17.79999,16.7,24.60001,8.29999,7.79999,18.60001,13.5,28.39999,19,2.60001,1.39999,5.29999,2.89999,7.79999,4.39999h.10001c1.70001.89999,3.60001,1.79999,5.5,2.70001,8.60001,4.10001,18.5,8.79999,19.29999,17.39999.39999,3.79999-.29999,7.39999-1,11.20001-.29999,1.89999-.70001,3.79999-.89999,5.79999-5.20001,35.79999,12.20001,72.30002,43.29999,91,.89999,1.20001,3.29999,6.10001,5.29999,12.20001,2.70001,8.29999,2.20001,11.89999,1.89999,12.39999-2.20001,2.39999-6.29999,4-10.39999,5.59998-7.10001,2.79999-16,6.40002-16,15.90002s0,.40002,0,.70001c1.70001,9.09998,11.20001,11.5,23.20001,11.5,6.79999,0,14.29999-.79999,21.79999-1.5,3.89999-.40002,7.89999-.79999,11.60001-1.09998,19.10001-1.40002,19.89999-18.79999,20.60001-32.79999.39999-7.29999.70001-14.79999,3.60001-18.39999l.20001-.2999Z" style="fill:#fdf7ed; stroke-width:0px;"/><path d="M379.5,330c-6.39999-12.70001-12.10001-12.70001-19.70001-.60001-9.5,15.29999-14.60001,31.79999-12.70001,49.60001,1.29999,13.39999,7,19.70001,19.10001,22.29999,21.60001,4.5,35.60001-10.20001,29.20001-31.20001-4.5-14-9.5-27.29999-15.89999-40.10001v.00003Z" style="fill:#fdf7ed; stroke-width:0px;"/><path d="M333.20001,311.39999c-.10001.20001-.20001.39999-.20001.70001-.5,2.5,1.70001,4.79999,4.20001,5,1.89999.20001,3.60001.20001,5.29999-.10001,3.89999-.79999,2.79999-4.39999,2.39999-7s-1.10001-5.10001-1.89999-7.5c-.29999-.89999-4.79999-4.79999-5.39999-4.10001-2.70001,3.20001,2.29999,5.60001,1.89999,6.20001-1.89999,3.10001-4.70001,3.5-6.29999,6.79999Z" style="fill:#fdf7ed; stroke-width:0px;"/></svg>