<?xml version="1.0" encoding="UTF-8"?><svg id="a" xmlns="http://www.w3.org/2000/svg" width="800" height="800" viewBox="0 0 800 800"><path d="M57.7,461.5c-.9.10001-1.7-.5-1.8-1.39999l-2.5-20c-1.3-10.5,6.1-20.20001,16.4-21.5,10.6-1.29999,20.2,6.20001,21.6,16.60001l1.3,10.60001,20-2.5c.9-.10001,1.7.60001,1.8,1.39999l1,7.79999c.1.89999-.6,1.70001-1.4,1.79999l-56.4,7.10001v.10001ZM81,437.29999c-.6-4.79999-4.9-8.29999-10-7.70001-4.7.60001-7.8,5-7.2,9.79999l1.2,9.89999,17.1-2.20001-1.2-9.89999.1.10004Z" style="fill:#fdf7ed; stroke-width:0px;"/><path d="M52.8,380.39999c-.9,0-1.5-.89999-1.4-1.79999l3.7-34.70001c.1-.89999.9-1.5,1.8-1.39999l7,.70001c.9,0,1.5.89999,1.4,1.79999l-2.7,25.29999,14,1.5,2.2-21.10001c0-.89999.9-1.5,1.8-1.39999l7.1.79999c.9,0,1.5.89999,1.4,1.79999l-2.2,21.10001,14.9,1.60001,2.7-25.29999c.1-.89999.9-1.5,1.8-1.39999l7,.70001c.9,0,1.5.89999,1.4,1.79999l-3.7,34.70001c-.1.89999-.9,1.5-1.8,1.39999l-56.5-6,.1-.10001Z" style="fill:#fdf7ed; stroke-width:0px;"/><path d="M77.7,296l-4.2,12.39999c-.3.89999-1.3,1.29999-2.1,1l-6.7-2.29999c-.8-.29999-1.3-1.20001-1-2.10001l12.1-35.5c.3-.89999,1.3-1.29999,2.1-1l6.7,2.29999c.8.29999,1.3,1.20001,1,2.10001l-4.2,12.39999,45.6,15.60001c.8.29999,1.3,1.29999,1,2.10001l-2.6,7.60001c-.3.79999-1.3,1.29999-2.1,1,0,0-45.6-15.60001-45.60001-15.60001Z" style="fill:#fdf7ed; stroke-width:0px;"/><path d="M120.3,193c-.7-.60001-.8-1.60001-.2-2.2l13.2-15.5c10.8-12.60001,29.8-14.2,42.3-3.39999,12.7,10.8,14.10001,29.89999,3.3,42.5l-13.2,15.5c-.60001.7-1.60001.7-2.2.10001l-43.2-36.90001-.00002-.10001ZM170.3,208.3c7.2-8.5,6.10001-20.10001-2.39999-27.5-8.5-7.2-20.2-6.5-27.39999,2l-6.39999,7.39999,29.8,25.5,6.39999-7.39999h-.00002Z" style="fill:#fdf7ed; stroke-width:0px;"/><path d="M186.60001,125.7c-.5-.7-.39999-1.7.39999-2.3l28.60001-20c.8-.5,1.8-.3,2.3.4l4,5.8c.5.7.39999,1.7-.39999,2.3l-20.8,14.6,8.10001,11.5,17.39999-12.2c.7-.5,1.8-.3,2.3.4l4.10001,5.8c.5.8.3,1.8-.39999,2.3l-17.39999,12.2,8.60001,12.3,20.8-14.60001c.8-.5,1.8-.3,2.3.39999l4,5.8c.5.7.39999,1.7-.39999,2.3l-28.60001,20c-.8.5-1.8.3-2.3-.39999l-32.60001-46.5-.00003-.10001Z" style="fill:#fdf7ed; stroke-width:0px;"/><path d="M256.10001,83.4c-.3-.8,0-1.8.89999-2.1l22.89999-8.8c9.60001-3.7,20.39999,1,24.10001,10.5,2.79999,7.4.20001,15.3-5.70001,20.7l18.79999,16.1c1,.8.89999,2.3-.5,2.8l-8.39999,3.2c-.70001.3-1.29999,0-1.60001-.2l-18.79999-17.2-8.89999,3.4,7.79999,20.4c.29999.8-.10001,1.8-.89999,2.10001l-7.39999,2.8c-.89999.3-1.79999-.10001-2.10001-.89999l-20.3-53.1.10002.29999ZM288.89999,98.4c4.20001-1.6,6.5-6.7,4.79999-11.2-1.60001-4.2-6.70001-6.4-10.89999-4.7l-13.10001,5,6.10001,16,13.10001-5v-.10001Z" style="fill:#fdf7ed; stroke-width:0px;"/><path d="M347.5,55c0-.7.5-1.3,1.39999-1.4h1.39999c.70001-.2,1.20001.1,1.5.6l22.10001,38.8h.29999l15.5-41.9c.20001-.5.60001-.9,1.39999-1h1.39999c.89999-.2,1.5.4,1.60001,1l14.79999,56.7c.39999,1.2-.29999,2-1.39999,2.1l-7.79999.6c-.79999,0-1.5-.6-1.70001-1.1l-7.70001-32h-.29999l-12.20001,34.9c-.10001.5-.60001,1-1.39999,1.1h-1.5c-.79999.2-1.20001-.2-1.5-.7l-17.89999-32.4h-.29999l-2.29999,32.8c0,.6-.70001,1.3-1.39999,1.4l-7.70001.6c-1.10001,0-1.89999-.6-1.79999-1.8l5.39999-58.3h.10001Z" style="fill:#fdf7ed; stroke-width:0px;"/><path d="M429.39999,109.4l37.5-51.4c.39999-.5.89999-.8,1.60001-.6l.79999.2c.79999.2,1.10001.7,1.20001,1.2l14.60001,61.8c.29999,1.2-.60001,2.2-1.89999,1.9l-7.29999-1.5c-1.29999-.3-1.70001-.9-2.10001-2.2l-2.29999-9.9-25.20001-5-5.89999,8.3c-.5.8-1.39999,1.5-2.79999,1.2l-7.29999-1.5c-1.29999-.3-1.70001-1.5-1-2.5h.09995ZM469.39999,98.8l-4.70001-20.2h-.29999l-12,16.8,16.89999,3.4h.10001Z" style="fill:#fdf7ed; stroke-width:0px;"/><path d="M533,89l-12-5.4c-.90002-.4-1.20001-1.4-.79999-2.2l2.90002-6.4c.40002-.8,1.29999-1.2,2.20001-.8l34.20001,15.4c.90002.4,1.20001,1.4.79999,2.2l-2.90002,6.4c-.40002.8-1.29999,1.2-2.20001.8l-12-5.4-19.70001,43.9c-.40002.8-1.40002,1.2-2.20001.8l-7.29999-3.3c-.79999-.39999-1.20001-1.39999-.79999-2.2l19.70001-43.9.09998.1Z" style="fill:#fdf7ed; stroke-width:0px;"/><path d="M616.79999,126.2c13.40002,10.7,15.59998,30,4.90002,43.5-10.70001,13.39999-29.90002,15.60001-43.40002,4.89999-13.40002-10.7-15.70001-29.8-5-43.3,10.70001-13.4,29.90002-15.8,43.40002-5.1h.09998ZM585.40002,165.8c8.5,6.7,21,5.3,27.70001-3.10001,6.70001-8.5,5.29999-21.10001-3.09998-27.8-8.5-6.7-21-5.2-27.70001,3.3s-5.29999,20.89999,3.20001,27.60001h-.10004Z" style="fill:#fdf7ed; stroke-width:0px;"/><path d="M667.70001,179.2c.70001-.5,1.70001-.39999,2.29999.3l4.79999,6.3c.5.7.40002,1.8-.29999,2.3l-38.29999,29.2,13.29999,17.39999c.59998.8.40002,1.8-.29999,2.3l-5.59998,4.3c-.70001.5-1.70001.39999-2.29999-.3l-19-25c-.59998-.8-.40002-1.8.29999-2.3l45.20001-34.40001-.10004-.09999Z" style="fill:#fdf7ed; stroke-width:0px;"/><path d="M721.70001,263.89999c6.70001,15.79999-.70001,33.79999-16.5,40.5s-33.70001-.60001-40.40002-16.39999.5-33.7,16.29999-40.39999,33.90002.5,40.59998,16.29999h.00006ZM675.09998,283.60001c4.20001,10,15.79999,14.70001,25.79999,10.5s14.79999-16,10.59998-25.89999c-4.20001-10-16-14.60001-25.90002-10.39999-10,4.20001-14.59998,15.79999-10.40002,25.79999h-.09991Z" style="fill:#fdf7ed; stroke-width:0px;"/><path d="M747.20001,361.60001c.90002,7.70001-1.20001,15.39999-5.40002,21.70001-.59998.79999-1.59998,1-2.40002.39999l-6.20001-4.60001c-.79999-.60001-.90002-1.39999-.29999-2.20001,2.79999-4.10001,4-8.79999,3.40002-13.5-1.29999-10.70001-11.40002-18-22.09998-16.70001-10.59998,1.29999-18.5,10.79999-17.20001,21.5.59998,4.79999,2.5,8.29999,3.40002,9.89999l7.20001-.89999-.79999-6.79999c-.09998-.89999.5-1.70001,1.29999-1.79999l6.70001-.79999c.90002-.10001,1.70001.5,1.79999,1.39999l2,16.39999c.09998.89999-.59998,1.60001-1.40002,1.70001l-21.79999,2.60001c-.70001,0-1.09998-.20001-1.40002-.5,0,0-6.59998-8.10001-8.09998-20.5-2-17,9.79999-32.20001,26.79999-34.29999,17-2.10001,32.40002,9.89999,34.5,26.89999v.09998Z" style="fill:#fdf7ed; stroke-width:0px;"/><path d="M715.40002,435.20001l30.90002-15.79999c1.20001-.5,2.5.29999,2.29999,1.70001l-1.09998,8.70001c0,.70001-.59998,1.10001-.90002,1.29999l-21.29999,11.10001,17.79999,16.10001c.29999.29999.70001.79999.59998,1.5l-1.09998,8.79999c-.20001,1.39999-1.59998,1.89999-2.59998,1l-25.79999-23.29999-27.20001-3.5c-.90002-.10001-1.5-1-1.40002-1.79999l1-7.79999c.09998-.89999,1-1.5,1.79999-1.39999l27.09998,3.5-.09998-.10007Z" style="fill:#fdf7ed; stroke-width:0px;"/><path d="M234.89999,636.09998c7,5.09998,10.5,11,12.10001,18.70001.2,1-.39999,1.79999-1.3,2l-7.39999,1.29999c-.89999.20001-1.60001-.29999-1.7-1.29999-1-4.70001-3.8-9-7.7-11.90002-8.89999-6.5-20.89999-3.79999-27.2,4.90002s-5,20.90002,3.89999,27.29999c4.2,3,8.89999,4,13.5,3.79999.89999,0,1.60001.5,1.7,1.29999l1.10001,7.59998c.2.90002-.60001,1.70001-1.39999,1.79999-8.10001,1.20001-15.60001-1-21.8-5.5-13.89999-10.09998-17-29.29999-6.89999-43.09998,10.10001-13.90002,29.39999-16.90002,43.3-6.79999l-.20003-.09998Z" style="fill:#fdf7ed; stroke-width:0px;"/><path d="M275.60001,663.20001c.29999-.79999,1.20001-1.29999,2.10001-.90002l32.39999,13c.89999.40002,1.20001,1.29999.89999,2.09998l-2.60001,6.5c-.29999.79999-1.20001,1.29999-2.10001.90002l-23.60001-9.5-5.20001,13.09998,19.70001,7.90002c.79999.29999,1.20001,1.29999.89999,2.09998l-2.70001,6.59998c-.39999.90002-1.29999,1.20001-2.10001.90002l-19.70001-7.90002-5.60001,13.90002,23.60001,9.5c.89999.40002,1.20001,1.29999.89999,2.09998l-2.60001,6.5c-.29999.79999-1.20001,1.29999-2.10001.90002l-32.39999-13c-.89999-.40002-1.2-1.29999-.89999-2.09998l21.10001-52.70001.00006.10004Z" style="fill:#fdf7ed; stroke-width:0px;"/><path d="M339.20001,684.20001c.10001-.90002,1-1.40002,1.79999-1.29999l2.10001.29999,30.89999,42h0l4.29999-35.20001c.10001-.90002.89999-1.5,1.79999-1.40002l7.79999,1c.89999.09998,1.5,1,1.39999,1.79999l-7,57.40002c-.10001.90002-1,1.40002-1.79999,1.29999l-2-.20001-30.89999-43.40002h0l-4.5,36.59998c-.10001.90002-.89999,1.5-1.79999,1.40002l-7.79999-.90002c-.89999-.09998-1.5-1-1.39999-1.79999l7-57.40002.10001-.19989Z" style="fill:#fdf7ed; stroke-width:0px;"/><path d="M431.39999,697.40002l-13,1.59998c-.89999.09998-1.70001-.59998-1.79999-1.40002l-.89999-7c-.10001-.90002.5-1.70001,1.39999-1.79999l37.20001-4.59998c.89999-.09998,1.70001.59998,1.79999,1.40002l.89999,7c.10001.90002-.5,1.70001-1.39999,1.79999l-13,1.59998,5.89999,47.79999c.10001.90002-.60001,1.70001-1.39999,1.79999l-7.89999,1c-.89999.09998-1.70001-.59998-1.79999-1.40002l-5.89999-47.79999-.10004.00006Z" style="fill:#fdf7ed; stroke-width:0px;"/><path d="M482,679.09998c-.29999-.79999,0-1.79999,1-2.09998l32.90002-11.90002c.90002-.29999,1.79999.20001,2.09998,1l2.40002,6.59998c.29999.79999,0,1.79999-1,2.09998l-23.89999,8.59998,4.79999,13.20001,19.89999-7.20001c.79999-.29999,1.79999.20001,2.09998,1l2.40002,6.70001c.29999.90002-.20001,1.79999-1,2.09998l-19.89999,7.20001,5.10001,14.09998,23.90002-8.59998c.90002-.29999,1.79999.20001,2.09998,1l2.40002,6.59998c.29999.79999,0,1.79999-1,2.09998l-32.89999,11.90002c-.89999.29999-1.79999-.20001-2.10001-1l-19.29999-53.40002-.00006.00012Z" style="fill:#fdf7ed; stroke-width:0px;"/><path d="M544.20001,652.79999c-.5-.70001-.29999-1.70001.40002-2.29999l20.40002-13.70001c8.5-5.70001,20.09998-3.59998,25.79999,4.90002,4.40002,6.59998,3.70001,14.79999-.90002,21.5l21.90002,11.5c1.09998.59998,1.40002,2.09998.20001,2.90002l-7.5,5c-.59998.40002-1.20001.29999-1.59998.09998l-22.20001-12.5-7.90002,5.29999,12.20001,18.20001c.5.70001.29999,1.79999-.40002,2.29999l-6.59998,4.40002c-.79999.5-1.79999.29999-2.29999-.40002l-31.70001-47.20001h.19995ZM579.59998,660.09998c3.79999-2.5,4.79999-8,2.20001-12-2.5-3.79999-7.90002-4.70001-11.70001-2.20001l-11.59998,7.79999,9.5,14.20001,11.59998-7.79999Z" style="fill:#fdf7ed; stroke-width:0px;"/><path d="M448.79999,536.59998c-13.60001,0-22.39999-1.79999-26.60001-5.40002-2.10001-1.79999-3.20001-4.09998-3.20001-6.70001,0-9.5,7.70001-11.79999,14.39999-14,6.89999-2.10001,13.89999-4.39999,17.60001-12.89999.39999-1,.20001-4.5,0-6.60001-.10001-1.60001-.29999-3.20001-.29999-4.60001,0-12.70001-7.10001-13.89999-46.89999-15.10001-4.10001-.10001-8.5-.29999-13.20001-.39999-7.79999-.29999-42.29999,2.70001-72.70001,5.29999-17.70001,1.5-34.39999,3-46.5,3.89999-2,.10001-3.70001-1.29999-3.79999-3.29999-.10001-2,1.29999-3.70001,3.29999-3.79999,12.10001-.89999,28.79999-2.29999,46.39999-3.89999,32.10001-2.79999,65.39999-5.70001,73.60001-5.39999,4.70001.20001,9.10001.29999,13.20001.39999,37,1.10001,53.79999,1.60001,53.79999,22.20001s.10001,2.60001.20001,4.10001c.29999,3.79999.60001,7.39999-.5,10.10001-5,11.5-14.89999,14.60001-22.10001,16.89999-7.10001,2.20001-9.39999,3.29999-9.39999,7.09998s0,.70001.70001,1.29999c6.20001,5.29999,34.79999,4.29999,58.5.70001,12.60001-1.70001,12.89999-4.79999,14.29999-16.20001,1.29999-13.29999,6.79999-62.79999,9.70001-79.29999,1.5-10.29999,1.10001-19.10001-1.29999-27.29999-.70001-2.10001-1.5-4.10001-2.29999-6.10001-2.39999-6.10001-4.79999-12.5-4.79999-19.79999s2.29999-8.39999,5.5-14.39999c5.20001-9.60001,12.29999-22.79999,13.20001-42.39999.70001-16.39999-1.5-53.60001-36-65.10001,7.5,10.70001,19.79999,31.70001,17.70001,59.20001-2,26.39999-23.10001,44.89999-37.5,48.10001-2.79999.60001-147.5,4.5-195.39999,5.60001-2,0-3.60001-1.5-3.70001-3.5,0-2,1.5-3.60001,3.5-3.70001,56.79999-1.29999,188-5,194.19998-5.5,9.89999-2.29999,29.89999-17.20001,31.70001-41.60001,2.29999-30-14.39999-52.10001-19.89999-59.3-2.29999-3-3.39999-4.5-2.29999-6.7.70001-1.5,2.60001-2.3,4.20001-1.89999h.5c11.10001,2.10001,20.79999,6.7,28.79999,13.70001,15.39999,13.39999,22.49997,33.89999,21.30002,60.89999-1,21.20001-8.79999,35.79999-14,45.5-2.5,4.70001-4.70001,8.70001-4.70001,11,0,6,2.10001,11.39999,4.29999,17.20001.79999,2.10001,1.70001,4.29999,2.40002,6.5v.10001c2.59998,9.20001,3.09998,19.10001,1.5,30.5-2.70001,15.70001-8.20001,63.5-9.60001,79-1.39999,12.09998-2.39999,20.09998-20.29999,22.5-4.10001.59998-18.60001,2.70001-33.60001,3.09998h-3.90009Z" style="fill:#fdf7ed; stroke-width:0px;"/></svg>