<?xml version="1.0" encoding="UTF-8"?>
<svg id="Layer_1" xmlns="http://www.w3.org/2000/svg" version="1.1" viewBox="0 0 800 800">
  <!-- Generator: Adobe Illustrator 29.1.0, SVG Export Plug-In . SVG Version: 2.1.0 Build 142)  -->
  <defs>
    <style>
      .st0 {
        fill: #fdf7ed;
      }
    </style>
  </defs>
  <path class="st0" d="M114.5,445.1c-.1-.9-1-1.5-1.8-1.4l-20,2.6-1.4-10.6c-1.3-10.4-11-17.9-21.6-16.5-10.3,1.3-17.7,11-16.4,21.5l2.6,20c.1.9,1,1.5,1.8,1.4l56.4-7.2c.9-.1,1.5-.9,1.4-1.8l-1-7.8ZM65.2,449.7l-1.3-9.9c-.6-4.8,2.5-9.2,7.1-9.8,5-.6,9.4,2.9,10,7.6l1.3,9.9-17.1,2.2Z"/>
  <path class="st0" d="M111.1,385.2l3.7-34.7c0-.9-.6-1.7-1.5-1.8l-7-.7c-.9,0-1.7.5-1.8,1.5l-2.7,25.3-14.9-1.6,2.2-21.1c0-.9-.5-1.7-1.5-1.8l-7.1-.7c-.9,0-1.7.6-1.8,1.5l-2.2,21.1-14-1.5,2.7-25.3c0-.9-.6-1.7-1.5-1.8l-7-.7c-.9,0-1.7.5-1.8,1.5l-3.7,34.7c0,.9.6,1.7,1.5,1.8l56.5,5.9c.9,0,1.7-.5,1.8-1.5Z"/>
  <path class="st0" d="M126.8,301.2l-45.6-15.5,4.2-12.4c.3-.9-.2-1.8-1-2.1l-6.7-2.3c-.8-.3-1.8.1-2.1,1l-12.1,35.5c-.3.9.2,1.8,1,2.1l6.7,2.3c.8.3,1.8-.1,2.1-1l4.2-12.4,45.6,15.5c.8.3,1.8-.2,2.1-1l2.6-7.6c.3-.8-.2-1.8-1-2.1Z"/>
  <path class="st0" d="M175.4,172.1c-12.5-10.7-31.6-9.1-42.3,3.5l-13.2,15.5c-.6.7-.4,1.7.2,2.2l43.2,36.9c.7.6,1.7.5,2.2-.1l13.2-15.5c10.7-12.6,9.3-31.7-3.4-42.5ZM170.1,208.5l-6.3,7.4-29.9-25.4,6.3-7.4c7.2-8.5,18.9-9.2,27.4-2,8.6,7.3,9.7,19,2.4,27.4Z"/>
  <path class="st0" d="M218.9,172.4c.5.7,1.5.9,2.3.4l28.6-20.1c.8-.5.9-1.6.4-2.3l-4-5.8c-.5-.7-1.5-.9-2.3-.4l-20.8,14.6-8.6-12.3,17.4-12.2c.7-.5.9-1.5.4-2.3l-4.1-5.8c-.5-.7-1.6-.9-2.3-.4l-17.4,12.2-8.1-11.5,20.8-14.6c.8-.5.9-1.6.4-2.3l-4-5.8c-.5-.7-1.5-.9-2.3-.4l-28.6,20.1c-.8.5-.9,1.6-.4,2.3l32.6,46.5Z"/>
  <path class="st0" d="M276.2,136.6c.3.8,1.2,1.3,2.1.9l7.4-2.8c.8-.3,1.2-1.3.9-2.1l-7.9-20.4,8.9-3.4,18.8,17.1c.3.3.8.5,1.6.2l8.4-3.2c1.4-.5,1.4-2,.5-2.8l-18.8-16.1c5.9-5.5,8.5-13.4,5.6-20.7-3.7-9.5-14.5-14.2-24.1-10.5l-22.9,8.8c-.9.3-1.2,1.3-.9,2.1l20.4,53ZM282.5,82.6c4.2-1.6,9.3.5,10.9,4.7,1.7,4.5-.5,9.6-4.8,11.2l-13.1,5-6.1-15.9,13.1-5Z"/>
  <path class="st0" d="M343.5,115.2l7.7-.6c.8,0,1.4-.8,1.4-1.4l2.3-32.8c0,0,.3,0,.3,0l17.9,32.4c.3.5.8.9,1.5.8h1.5c.8-.2,1.2-.7,1.4-1.2l12.2-34.9s.2,0,.3,0l7.8,32c.2.6,1,1.2,1.7,1.1l7.8-.6c1.1,0,1.7-.9,1.4-2.1l-14.9-56.6c-.1-.7-.7-1.2-1.6-1.2h-1.4c-.8.2-1.2.6-1.4,1.1l-15.4,41.9q0,0-.3,0l-22.2-38.8c-.3-.5-.8-.8-1.5-.7h-1.4c-.9.2-1.4.8-1.4,1.5l-5.4,58.3c0,1.2.7,1.9,1.8,1.8Z"/>
  <path class="st0" d="M430.1,111.8l7.3,1.5c1.3.3,2.3-.4,2.8-1.2l5.9-8.3,25.2,5,2.3,9.9c.4,1.3.8,1.9,2.1,2.2l7.3,1.5c1.3.3,2.2-.7,1.9-1.9l-14.6-61.8c-.2-.6-.4-1-1.2-1.2l-.8-.2c-.8-.2-1.3.2-1.6.6l-37.5,51.4c-.7,1-.3,2.2,1,2.5ZM464.1,78.4h.3s4.7,20.2,4.7,20.2l-16.9-3.4,11.9-16.9Z"/>
  <path class="st0" d="M513.8,134.9l7.3,3.3c.8.4,1.8,0,2.2-.8l19.7-44,12,5.4c.9.4,1.8,0,2.2-.8l2.9-6.4c.4-.8,0-1.8-.8-2.2l-34.2-15.3c-.9-.4-1.8,0-2.2.8l-2.9,6.4c-.4.8,0,1.8.8,2.2l12,5.4-19.7,44c-.4.8,0,1.8.8,2.2Z"/>
  <path class="st0" d="M616.5,125.9c-13.5-10.7-32.7-8.3-43.4,5.2-10.7,13.5-8.4,32.6,5,43.3,13.5,10.7,32.7,8.5,43.4-5,10.7-13.5,8.5-32.8-5-43.5ZM612.8,162.5c-6.7,8.5-19.2,9.9-27.7,3.2-8.5-6.7-9.9-19.1-3.2-27.6,6.7-8.5,19.2-10.1,27.7-3.3,8.5,6.7,9.9,19.3,3.2,27.8Z"/>
  <path class="st0" d="M635.9,216.9l38.3-29.2c.7-.5.8-1.6.3-2.3l-4.8-6.3c-.6-.8-1.6-.8-2.3-.3l-45.2,34.5c-.7.5-.9,1.5-.3,2.3l19.1,25c.6.8,1.6.8,2.3.3l5.6-4.3c.7-.5.9-1.5.3-2.3l-13.3-17.4Z"/>
  <path class="st0" d="M705.1,304.1c15.8-6.7,23.1-24.8,16.4-40.6-6.7-15.8-24.8-23-40.6-16.2-15.8,6.7-23,24.6-16.3,40.4,6.7,15.8,24.6,23.1,40.4,16.4ZM675,283.3c-4.2-10,.4-21.5,10.4-25.8,10-4.2,21.7.4,25.9,10.3,4.2,10-.6,21.7-10.5,25.9-10,4.2-21.6-.5-25.8-10.5Z"/>
  <path class="st0" d="M712.7,334.4c-17,2.1-28.8,17.3-26.8,34.3,1.5,12.4,8.1,20.5,8.1,20.5.3.3.8.6,1.4.5l21.8-2.7c.9-.1,1.5-.9,1.4-1.7l-2-16.4c-.1-.9-.9-1.5-1.8-1.4l-6.7.8c-.9.1-1.5.9-1.3,1.8l.8,6.8-7.2.9c-.9-1.6-2.8-5.1-3.4-9.9-1.3-10.7,6.6-20.3,17.2-21.5,10.7-1.3,20.8,6,22.1,16.7.6,4.7-.6,9.4-3.4,13.5-.6.8-.5,1.6.3,2.2l6.2,4.6c.8.6,1.8.4,2.4-.4,4.2-6.4,6.3-14.1,5.4-21.8-2.1-17-17.4-28.9-34.5-26.8Z"/>
  <path class="st0" d="M746.4,419l-30.9,15.8-27.1-3.4c-.9-.1-1.7.5-1.8,1.4l-1,7.8c-.1.9.6,1.7,1.4,1.8l27.2,3.4,25.9,23.3c1,.8,2.5.3,2.6-1l1.1-8.8c0-.7-.3-1.2-.6-1.5l-17.9-16.1,21.3-11.1c.4-.2.9-.6.9-1.3l1.1-8.7c.2-1.4-1.1-2.2-2.3-1.7Z"/>
  <path class="st0" d="M235.2,636.2c-13.9-10.1-33.2-7-43.3,6.9-10.1,13.9-6.9,33.1,7,43.1,6.2,4.5,13.7,6.7,21.8,5.5.8-.1,1.6-.9,1.4-1.8l-1.1-7.6c-.1-.7-.8-1.3-1.7-1.3-4.6.2-9.3-.7-13.5-3.7-8.9-6.4-10.2-18.7-3.9-27.3,6.3-8.8,18.3-11.4,27.2-5,3.9,2.8,6.7,7.2,7.7,11.9.2,1,.8,1.5,1.7,1.3l7.4-1.3c1-.2,1.6-1,1.3-2-1.7-7.7-5.1-13.6-12.1-18.7Z"/>
  <path class="st0" d="M310.5,675.3l-32.4-13c-.9-.4-1.8.1-2.1.9l-21.1,52.8c-.3.8,0,1.8.9,2.1l32.4,13c.9.4,1.8-.1,2.1-.9l2.6-6.5c.3-.8,0-1.8-.9-2.1l-23.6-9.4,5.6-13.9,19.7,7.9c.8.3,1.8,0,2.1-.9l2.6-6.6c.3-.8-.1-1.8-.9-2.1l-19.7-7.9,5.2-13.1,23.6,9.4c.9.4,1.8-.1,2.1-.9l2.6-6.5c.3-.8,0-1.8-.9-2.1Z"/>
  <path class="st0" d="M388.4,689.5l-7.8-.9c-.9-.1-1.7.6-1.8,1.4l-4.2,35.2h0s-30.9-42-30.9-42l-2.1-.3c-.9-.1-1.7.5-1.8,1.3l-6.9,57.4c-.1.9.6,1.7,1.4,1.8l7.8.9c.9.1,1.7-.6,1.8-1.4l4.4-36.6h0s30.9,43.4,30.9,43.4l2,.2c.9.1,1.7-.5,1.8-1.3l6.9-57.4c.1-.9-.6-1.7-1.4-1.8Z"/>
  <path class="st0" d="M456.4,685.6c-.1-.9-.9-1.5-1.8-1.4l-37.2,4.7c-.9.1-1.5,1-1.4,1.8l.9,7c.1.9.9,1.5,1.8,1.4l13-1.6,6,47.8c.1.9,1,1.5,1.8,1.4l7.9-1c.9-.1,1.5-1,1.4-1.8l-6-47.8,13-1.6c.9-.1,1.5-1,1.4-1.8l-.9-7Z"/>
  <path class="st0" d="M535.2,712.8c-.3-.8-1.2-1.3-2.1-1l-23.9,8.7-5.1-14.1,19.9-7.2c.8-.3,1.3-1.2,1-2.1l-2.4-6.7c-.3-.8-1.3-1.3-2.1-1l-19.9,7.2-4.8-13.2,23.9-8.7c.9-.3,1.3-1.3,1-2.1l-2.4-6.6c-.3-.8-1.2-1.3-2.1-1l-32.8,11.9c-.9.3-1.3,1.3-1,2.1l19.4,53.4c.3.8,1.2,1.3,2.1,1l32.8-11.9c.9-.3,1.3-1.3,1-2.1l-2.4-6.6Z"/>
  <path class="st0" d="M612.2,674.4l-21.9-11.5c4.5-6.7,5.3-14.9.8-21.5-5.7-8.5-17.3-10.6-25.8-4.8l-20.4,13.7c-.8.5-.9,1.6-.4,2.3l31.8,47.1c.5.7,1.5,1,2.3.4l6.5-4.4c.7-.5.9-1.6.4-2.3l-12.2-18.2,7.9-5.3,22.2,12.5c.3.2.9.3,1.6-.1l7.5-5c1.2-.8.9-2.3-.2-2.9ZM579.8,659.8l-11.6,7.8-9.5-14.2,11.6-7.8c3.8-2.5,9.2-1.6,11.7,2.2,2.7,4,1.6,9.5-2.2,12Z"/>
  <path class="st0" d="M404,291.2c0,0,.2,0,.3-.2.4-.2.8-.4,1.2-.7,1.4-.9,1.7-2.7.9-4-.9-1.3-2.7-1.7-4-.9-.1,0-.4.2-.6.3-1,.5-2.5,1.2-3,2.9-.3.9-.6,1.8-1,2.6-2.5,6.9-5.4,14.7-1.2,22.5,4.7,8.7,10,17.2,15.2,25.3l2.5,3.9c1.5,2.4,6,9.6,13.2,9.6h0c.1,0,.3,0,.4,0,8.5-.4,10.1-9.8,11.1-15.5.2-1,.3-2,.5-2.8,1.7-7.2,4.3-14.3,6.8-21.2,1.6-4.4,3.3-9,4.7-13.6.1-.4.2-.8.1-1.2-1.2-12.5-13.5-28.1-25.8-32.7-1.8-.7-4.4.1-5.5,1.7-.5.6-.6,1.4-.5,2.2.1.8.6,1.4,1.2,1.9,1.1.7,2.5.7,3.5,0,9.9,4.1,19.9,16.9,21.2,26.9-1.4,4.3-2.9,8.6-4.5,12.8-2.6,7.1-5.3,14.3-7,21.9-.2,1-.4,2.1-.6,3.1-1,5.7-2.1,10.4-5.6,10.6-2.7.1-5.4-2.1-8.4-6.8l-2.5-3.9c-5.1-8.1-10.4-16.4-14.9-25-3-5.6-.8-11.5,1.5-17.8.3-.7.5-1.4.8-2.1Z"/>
  <path class="st0" d="M537.3,497.5h-15.9c-.1-.2-.3-.3-.4-.5-1.4-1.9-5.5-7.6-4.5-28.7,0-.8-.2-1.5-.8-2.1-.5-.6-1.2-.9-2-1-1.6,0-3,1.2-3.1,2.8-1,20.8,2.7,28.4,5.6,32.4.4.5.8,1.1,1.3,1.6,2.7,3.5,2.4,3.8,2.1,4.1-1.3,1.2-4.2,3.3-5.6,4-25.8-.4-52.6-.4-82.1.1-48.6.8-97.8.6-145.5.4-23.8,0-48.4-.2-72.8-.2-3.5,0-4.8-.6-5.3-1.1-.8-.8-1-2.8-.8-6.5,0-.3,0-.7,0-1.1,0-.2,0-.9,0-.9,6.2-11.8,13.7-17.7,23.4-18.5,14.4-1.2,29.2-1.6,43.6-2.1,10.5-.3,21.4-.7,32-1.3,26.1-1.5,52.5-3.5,78.4-5.8,5.2-.5,13.8-1.3,16.4-10.1,1.8-6.1-.8-14.5-2.4-19-.4-.9-1.1-1.7-2-2.1-.9-.4-2-.3-2.9.1-.8.4-2.9,1.4-4.8,6.9-1.4-3.4-3-8.4-3.5-14.4-.5-5.4-.4-10.9.2-16.1.3-2.5-1-4.7-3.3-5.6-2.4-.9-5.1,0-6.7,2.3-1.4,2.1-2.7,5.5-3.8,10.1-1.2-7.4-.6-17.7,7.4-28.2,6.1-8,10.9-21,7.1-30.8-2.5-6.4-5.7-9.4-15.3-7.1-.6.2-1,.3-5.9,3-17.1,9.3-28,14.6-32.7,15.8,2.2-2.2,6.6-5.5,15-10.8,4.4-2.7,5.6-3.5,6.2-4.7,2.7-.7,5.1-1.5,7-2.1.7-.3,1.3-.8,1.7-1.5.3-.7.4-1.5.1-2.2-.3-.7-.8-1.3-1.5-1.7-.7-.3-1.5-.4-2.2-.1-13.6,4.8-44.3,10.3-48.9,9.4-4.3-3.7-8.4-11.3-12.1-22.5,0-.3-.2-.5-.2-.8,0,0,.1,0,.2,0,0,0,.2,0,.3,0,.8,0,1.8-1,2.1-1.5.6-.9,1.5-2.3,2.5-3.7,2.1-3,4.5-6.4,5.5-8.4.1-.2.2-.5.2-.7h0c.2-1.1,0-2.3-.7-3.2-.3-.3-.6-.6-.9-.9.7-.2,1.4-.5,2-.7,10.8-3.4,21.2-8.1,30.9-12.7,6.3-3,11.1-8.1,13.3-14.2,2.8-7.8,7.1-14.3,12.6-21.7,4.3-5.8,8.6-9.1,14-10.9,2.9-1,5.8-2,8.7-3h.2c6.8-2.4,13.8-4.9,20.8-6.9,10.3-3,19-1,27.5,6.2,13.5,11.5,21.6,27.1,29.5,42.2l.9,1.8c.7,1.4,1.5,2.8,2.4,4.7,3.7,7.5,12.9,17.1,22.7,23.8-2.7.4-4.6.9-5.3,2.7-.4,1.1-.2,2.4.6,3.3,7.6,8.7,14.8,13,24.8,14.8,5.2,1,10.9,1.6,17.4,1.8,1.5,0,3,0,4.6.1,5.4,0,11.1-.1,16.1-.2h0c.6,0,2-.2,5.8-.6,1.7-.2,2.9-1.4,2.8-3,0-1.6-1.3-2.9-2.9-2.9v.4s-.1-.4-.1-.4c-3.2.4-5.7.6-5.8.6-5.2.1-10.6.3-15.9.2-1.5,0-2.9,0-4.4,0-6.2-.2-11.6-.8-16.5-1.7-7.4-1.4-12.9-4.2-18.3-9.5.4,0,.9,0,1.2-.1,4.6-.5,6.7-.7,7.1-3.2.2-1-.1-2.5-1.7-3.3-12-6.1-23.4-17.9-27.1-25.3-.9-1.9-1.7-3.4-2.4-4.8l-.9-1.7c-8.1-15.6-16.5-31.6-30.9-43.9-10-8.5-20.8-10.9-33-7.4-7.1,2.1-14.2,4.6-21.1,6.9h-.2c-2.9,1.1-5.8,2.1-8.7,3.1-6.5,2.2-11.7,6.2-16.8,13-5.9,7.8-10.4,14.7-13.4,23.2-1.6,4.6-5.4,8.5-10.3,10.9-9.4,4.5-19.6,9.1-30.1,12.4-3.4,1.1-7.2,2.4-10.4,5.1-6,5.1-6.7,14.9-4.3,22.1,4.3,12.7,8.9,21,14.2,25.4.6.5,1.4,1.2,5.1,1.2,1.1,0,2.3,0,3.8-.2-3,3.1-5,6.7-5.7,10.7-.8,5.4.3,14.4,7,16.9,1.1.4,2.4.6,3.7.6,4,0,7.8-2,9.6-5,1.6-2.7,1.4-5,1.1-8.2,0-.3,0-.6,0-.9,5.5,0,18.3-6.5,37.1-16.8,2.1-1.2,4.2-2.3,4.7-2.5,5.6-1.4,6.5-1,8.3,3.6,2.9,7.3-1,18.2-6.3,25.1-15.7,20.6-6.7,40.7-4.8,44.5.6,1.2,2,1.9,3.4,1.7,1.4-.2,2.4-1.3,2.6-2.7.7-5.7,2-13,3.8-16.9-.4,4.9-.4,10,0,14.9.9,11,5.1,19.2,6.8,22.1.8,1.3,2.2,2,3.6,1.7,1.5-.2,2.6-1.3,2.9-2.8.5-2.6,1.1-4.4,1.6-5.7,1,3.5,1.7,7.9.9,10.9-1.2,4.3-4.8,5.3-11.3,5.9-25.9,2.3-52.2,4.3-78.3,5.8-10.6.6-21.4,1-32,1.3-14.4.5-29.2.9-43.8,2.1-11.8,1-21,8-28.1,21.5-.7,1.3-.7,2.6-.7,3.7,0,.2,0,.4,0,.6-.3,4.9,0,8.4,2.4,10.9,2,2.1,4.9,3,9.6,2.9,24.1,0,48.7,0,72.4.2h.7c23.6,0,48,.2,72.3.2,27.4,0,51.2-.2,73-.6,29.7-.5,56.7-.5,82.6,0,.3,0,.7,0,.9-.1,2.5-.8,6.9-4.3,8.2-5.5,2.4-2.3,2.4-4.8,1.5-7h12.1c1.3,0,2.5-.9,2.8-2.2.2-.9,0-1.8-.5-2.5-.6-.7-1.4-1.1-2.3-1.1ZM325.4,385.9c.3,2.8.3,3.7-.3,4.7-1,1.7-4.2,2.6-6.2,1.9-3-1.1-3.9-7-3.3-10.6,1-6.1,7.2-11.5,15.8-13.8.2,0,.4-.2.6-.3,2.1-.4,4.2-.8,6.3-1.3-7.9,5.2-13.6,10.1-13.3,14.9,0,1.7.2,3.2.3,4.3Z"/>
  <path class="st0" d="M369.5,304c0,.2.2.5.3.7.6,1,1.5,1.7,2.7,2,.3,0,.7.1,1.1.1,1,0,2-.3,2.8-.9,1.3-.9,2.7-1.9,3.7-3.2,2.2-2.8,0-4.9-1.8-6.4-.2-.2-.4-.4-.6-.6-1.6-1.5-3.5-2.8-5.8-4.2-.7-.5-5.2-.7-6.4,0-.4.2-.4.5-.4.7,0,3.1,2.7,3.3,4.2,3.4.2,0,.6,0,.7,0,.2,1.4,0,2.5-.3,3.7-.3,1.4-.6,2.8-.1,4.6Z"/>
</svg>