<?xml version="1.0" encoding="UTF-8"?>
<svg id="Layer_1" xmlns="http://www.w3.org/2000/svg" version="1.1" viewBox="0 0 800 800">
  <!-- Generator: Adobe Illustrator 29.1.0, SVG Export Plug-In . SVG Version: 2.1.0 Build 142)  -->
  <defs>
    <style>
      .st0 {
        fill: #fdf7ed;
      }
    </style>
  </defs>
  <path class="st0" d="M114.5,444.8c-.1-.9-1-1.5-1.8-1.4l-20,2.5-1.3-10.6c-1.3-10.4-11-17.9-21.6-16.6-10.3,1.3-17.7,11-16.4,21.5l2.5,20c.1.9,1,1.5,1.8,1.4l56.4-7.1c.9-.1,1.5-.9,1.4-1.8l-1-7.8ZM65.1,449.3l-1.2-9.9c-.6-4.8,2.5-9.2,7.2-9.8,5-.6,9.4,2.9,10,7.7l1.2,9.9-17.1,2.2Z"/>
  <path class="st0" d="M111.1,384.9l3.7-34.7c0-.9-.6-1.7-1.4-1.8l-7-.7c-.9,0-1.7.5-1.8,1.4l-2.7,25.3-14.9-1.6,2.2-21.1c0-.9-.5-1.7-1.4-1.8l-7.1-.8c-.9,0-1.7.6-1.8,1.4l-2.2,21.1-14-1.5,2.7-25.3c.1-.9-.6-1.7-1.4-1.8l-7-.7c-.9,0-1.7.5-1.8,1.4l-3.7,34.7c0,.9.6,1.7,1.4,1.8l56.5,6c.9,0,1.7-.5,1.8-1.4Z"/>
  <path class="st0" d="M126.9,300.9l-45.6-15.6,4.2-12.4c.3-.9-.2-1.8-1-2.1l-6.7-2.3c-.8-.3-1.8.1-2.1,1l-12.1,35.5c-.3.9.2,1.8,1,2.1l6.7,2.3c.8.3,1.8-.1,2.1-1l4.2-12.4,45.6,15.6c.8.3,1.8-.2,2.1-1l2.6-7.6c.3-.8-.2-1.8-1-2.1Z"/>
  <path class="st0" d="M175.6,171.8c-12.5-10.7-31.6-9.1-42.3,3.4l-13.2,15.5c-.6.7-.4,1.7.2,2.2l43.2,36.9c.7.6,1.7.5,2.2-.1l13.2-15.5c10.8-12.6,9.3-31.7-3.3-42.5ZM170.3,208.3l-6.4,7.4-29.8-25.5,6.4-7.4c7.2-8.5,18.9-9.2,27.4-2,8.5,7.3,9.6,19,2.4,27.5Z"/>
  <path class="st0" d="M219.2,172.2c.5.7,1.5.9,2.3.4l28.6-20c.8-.5.9-1.6.4-2.3l-4-5.8c-.5-.7-1.5-.9-2.3-.4l-20.8,14.6-8.6-12.3,17.4-12.2c.7-.5.9-1.5.4-2.3l-4.1-5.8c-.5-.7-1.6-.9-2.3-.4l-17.4,12.2-8.1-11.5,20.8-14.6c.8-.5.9-1.6.4-2.3l-4-5.8c-.5-.7-1.5-.9-2.3-.4l-28.6,20c-.8.5-.9,1.6-.4,2.3l32.6,46.5Z"/>
  <path class="st0" d="M276.5,136.5c.3.8,1.2,1.3,2.1.9l7.4-2.8c.8-.3,1.2-1.3.9-2.1l-7.8-20.4,8.9-3.4,18.8,17.2c.3.3.8.5,1.6.2l8.4-3.2c1.4-.5,1.4-2,.5-2.8l-18.8-16.1c5.9-5.5,8.5-13.4,5.7-20.7-3.7-9.5-14.5-14.2-24.1-10.5l-22.9,8.8c-.9.3-1.2,1.3-.9,2.1l20.3,53.1ZM282.8,82.5c4.2-1.6,9.3.5,10.9,4.7,1.7,4.5-.6,9.6-4.8,11.2l-13.1,5-6.1-16,13.1-5Z"/>
  <path class="st0" d="M343.8,115.2l7.7-.6c.8,0,1.4-.8,1.4-1.4l2.3-32.8c0,0,.3,0,.3,0l17.9,32.4c.3.5.8.9,1.5.8h1.5c.8-.2,1.2-.7,1.4-1.2l12.2-34.9s.2,0,.3,0l7.7,32c.2.6,1,1.2,1.7,1.1l7.8-.6c1.1,0,1.7-.9,1.4-2.1l-14.8-56.7c-.1-.7-.7-1.2-1.6-1.2h-1.4c-.8.2-1.2.6-1.4,1.1l-15.5,41.9q0,0-.3,0l-22.1-38.8c-.3-.5-.8-.8-1.5-.7h-1.4c-.9.2-1.4.8-1.4,1.5l-5.4,58.3c0,1.2.7,1.9,1.8,1.8Z"/>
  <path class="st0" d="M430.4,111.9l7.3,1.5c1.3.3,2.3-.4,2.8-1.2l5.9-8.3,25.2,5.1,2.3,9.9c.4,1.3.8,1.9,2.1,2.2l7.3,1.5c1.3.3,2.2-.7,1.9-1.9l-14.6-61.8c-.2-.6-.4-1-1.2-1.2l-.8-.2c-.8-.2-1.3.2-1.6.6l-37.5,51.4c-.7,1-.3,2.2,1,2.5ZM464.4,78.5h.3c0,0,4.7,20.3,4.7,20.3l-16.9-3.4,12-16.9Z"/>
  <path class="st0" d="M514.1,135.1l7.3,3.3c.8.4,1.8,0,2.2-.8l19.7-43.9,12,5.4c.9.4,1.8,0,2.2-.8l2.9-6.4c.4-.8,0-1.8-.8-2.2l-34.2-15.4c-.9-.4-1.8,0-2.2.8l-2.9,6.4c-.4.8,0,1.8.8,2.2l12,5.4-19.7,43.9c-.4.8,0,1.8.8,2.2Z"/>
  <path class="st0" d="M616.8,126.2c-13.4-10.7-32.7-8.3-43.4,5.1-10.7,13.4-8.5,32.6,5,43.3,13.4,10.7,32.7,8.5,43.4-4.9,10.7-13.4,8.5-32.8-4.9-43.5ZM613,162.7c-6.7,8.5-19.2,9.9-27.7,3.1-8.5-6.7-9.9-19.1-3.2-27.6s19.2-10,27.7-3.3c8.5,6.7,9.9,19.3,3.1,27.8Z"/>
  <path class="st0" d="M636.2,217.2l38.3-29.2c.7-.5.8-1.6.3-2.3l-4.8-6.3c-.6-.8-1.6-.8-2.3-.3l-45.2,34.4c-.7.5-.9,1.5-.3,2.3l19,25c.6.8,1.6.8,2.3.3l5.6-4.3c.7-.5.9-1.5.3-2.3l-13.3-17.4Z"/>
  <path class="st0" d="M705.2,304.4c15.8-6.7,23.2-24.7,16.5-40.5-6.7-15.8-24.7-23-40.6-16.3-15.8,6.7-23,24.6-16.3,40.4,6.7,15.8,24.6,23.1,40.4,16.4ZM675.1,283.6c-4.2-10,.5-21.5,10.4-25.8,10-4.2,21.7.4,25.9,10.4,4.2,10-.6,21.7-10.6,25.9-10,4.2-21.6-.5-25.8-10.5Z"/>
  <path class="st0" d="M712.8,334.8c-17,2.1-28.9,17.3-26.8,34.3,1.5,12.4,8.1,20.5,8.1,20.5.3.3.8.6,1.4.5l21.8-2.6c.9-.1,1.5-.9,1.4-1.7l-2-16.4c-.1-.9-.9-1.5-1.8-1.4l-6.7.8c-.9.1-1.5.9-1.3,1.8l.8,6.8-7.2.9c-.9-1.6-2.8-5.1-3.4-9.9-1.3-10.7,6.6-20.3,17.2-21.5,10.7-1.3,20.8,6.1,22.1,16.7.6,4.7-.6,9.4-3.4,13.5-.6.8-.5,1.6.3,2.2l6.2,4.6c.8.6,1.8.4,2.4-.4,4.2-6.4,6.3-14.1,5.4-21.7-2-17-17.4-28.9-34.5-26.9Z"/>
  <path class="st0" d="M746.3,419.4l-30.9,15.8-27.1-3.5c-.9-.1-1.7.5-1.8,1.4l-1,7.8c-.1.9.6,1.7,1.4,1.8l27.2,3.5,25.8,23.3c1,.8,2.5.3,2.6-1l1.1-8.8c0-.7-.3-1.2-.6-1.5l-17.8-16.1,21.3-11.1c.4-.2.9-.6.9-1.3l1.1-8.7c.2-1.4-1.1-2.2-2.3-1.7Z"/>
  <path class="st0" d="M234.9,636.1c-13.9-10.1-33.2-7-43.3,6.8-10.1,13.9-6.9,33.1,6.9,43.1,6.2,4.5,13.7,6.7,21.8,5.5.8-.1,1.6-.9,1.4-1.8l-1.1-7.6c-.1-.7-.8-1.3-1.7-1.3-4.6.2-9.3-.7-13.5-3.8-8.9-6.5-10.2-18.7-3.9-27.3,6.4-8.7,18.4-11.4,27.2-4.9,3.9,2.8,6.7,7.2,7.7,11.9.2,1,.8,1.5,1.7,1.3l7.4-1.3c1-.2,1.6-1,1.3-2-1.6-7.7-5.1-13.6-12.1-18.7Z"/>
  <path class="st0" d="M310.2,675.3l-32.4-13c-.9-.4-1.8.1-2.1.9l-21.1,52.7c-.3.8,0,1.8.9,2.1l32.4,13c.9.4,1.8-.1,2.1-.9l2.6-6.5c.3-.8,0-1.8-.9-2.1l-23.6-9.5,5.6-13.9,19.7,7.9c.8.3,1.8,0,2.1-.9l2.7-6.6c.3-.8-.1-1.8-.9-2.1l-19.7-7.9,5.2-13.1,23.6,9.5c.9.4,1.8-.1,2.1-.9l2.6-6.5c.3-.8,0-1.8-.9-2.1Z"/>
  <path class="st0" d="M388.1,689.5l-7.8-1c-.9-.1-1.7.6-1.8,1.4l-4.3,35.2h0s-30.9-42-30.9-42l-2.1-.3c-.9-.1-1.7.5-1.8,1.3l-7,57.4c-.1.9.6,1.7,1.4,1.8l7.8.9c.9.1,1.7-.6,1.8-1.4l4.5-36.6h0s30.9,43.5,30.9,43.5l2,.2c.9.1,1.7-.5,1.8-1.3l7-57.4c.1-.9-.6-1.7-1.4-1.8Z"/>
  <path class="st0" d="M456.1,685.6c-.1-.9-.9-1.5-1.8-1.4l-37.2,4.6c-.9.1-1.5,1-1.4,1.8l.9,7c.1.9.9,1.5,1.8,1.4l13-1.6,5.9,47.8c.1.9,1,1.5,1.8,1.4l7.9-1c.9-.1,1.5-1,1.4-1.8l-5.9-47.8,13-1.6c.9-.1,1.5-1,1.4-1.8l-.9-7Z"/>
  <path class="st0" d="M534.9,712.9c-.3-.8-1.2-1.3-2.1-1l-23.9,8.6-5.1-14.1,19.9-7.2c.8-.3,1.3-1.2,1-2.1l-2.4-6.7c-.3-.8-1.3-1.3-2.1-1l-19.9,7.2-4.8-13.2,23.9-8.6c.9-.3,1.3-1.3,1-2.1l-2.4-6.6c-.3-.8-1.2-1.3-2.1-1l-32.9,11.9c-.9.3-1.3,1.3-1,2.1l19.3,53.4c.3.8,1.2,1.3,2.1,1l32.9-11.9c.9-.3,1.3-1.3,1-2.1l-2.4-6.6Z"/>
  <path class="st0" d="M611.9,674.7l-21.9-11.5c4.5-6.7,5.3-14.9.9-21.5-5.7-8.5-17.3-10.6-25.8-4.9l-20.4,13.7c-.8.5-.9,1.6-.4,2.3l31.7,47.2c.5.7,1.5,1,2.3.4l6.6-4.4c.7-.5.9-1.6.4-2.3l-12.2-18.2,7.9-5.3,22.2,12.5c.3.2.9.3,1.6-.1l7.5-5c1.2-.8.9-2.3-.2-2.9ZM579.6,660.1l-11.6,7.8-9.5-14.2,11.6-7.8c3.8-2.5,9.2-1.6,11.7,2.2,2.7,4,1.6,9.5-2.2,12Z"/>
  <path class="st0" d="M615.2,419c-1.9-1.5-3.7-1.5-4.2-1.5-.8,0-1.5.4-2.1,1.1-2.9,3.5-4.1,4.4-4.3,4.5-.5.2-1,.4-1.5.6-.4.2-.7.3-1.1.5-2.2-8.2-8.8-28.5-10-30.9-6.7-14.3-14.8-24.1-23.9-29.3-2.2-1.2-4.8-.8-7.1-.4-.4,0-.9.2-1.3.2-2,.3-3.3,1.1-4,2.5-1,2.1.2,4.3.6,5,11.5,19.5,21.9,49.3,6.5,80.2-3.1,6.2-6.5,9.8-10.4,10.8-2.9.8-6.3.1-9.5-.6-40.7-9.5-73.2-32.5-86.9-61.7-3-6.3-6.3-12.4-9.6-18.4-1.8-3.2-3.6-6.6-5.3-9.9-5-9.5-11.4-17.2-19.1-22.7-9.5-6.8-19-9.3-31.2-10.9-27.3-3.7-55.5-4.3-79.7-4.5-17-.1-54.8-.1-73.1.1-.8,0-1.5.3-2.1.9-.5.6-.8,1.3-.8,2.1,0,1.6,1.3,2.9,3,2.9,18.3-.2,56-.2,73-.1,24.1.2,52,.7,79,4.4,11.6,1.6,20.1,3.7,28.6,9.9,6.9,5,12.8,12,17.3,20.7,1.8,3.4,3.6,6.7,5.4,10,3.2,5.9,6.5,11.9,9.4,18,14.5,30.8,48.5,55,90.9,64.9,3.7.9,8.1,1.7,12.3.6,5.6-1.5,10.2-6,14.1-13.8,13-26,10.9-55.3-6-84.7h.1c.7-.1,2.8-.5,3.1-.3,8,4.5,15.2,13.5,21.5,26.7,1.1,2.3,9.2,27.3,10.1,31.8.2,1,.8,1.9,1.6,2.4.8.5,1.9.7,2.8.5,1.5-.3,2.8-.9,4.2-1.5.5-.2.9-.4,1.4-.6.9-.4,2.2-1.2,5.1-4.4,1.7,3.8,2.5,19.8-5.2,36.4-1.4,3.1-15,30.6-44.1,38.6-12.3,3.4-23.6,1.7-46.1-1.7-8.8-1.3-18-3.4-36.4-7.5-9.9-2.2-15.9-3.9-19.2-4.8-1.1-.3-1.9-.5-2.4-.6-1.3-.3-3.5-.9-5.9-1.6-11.8-3.3-12.7-3.5-14.2-1.8-1,1-3.1,3.2-6.5,6.5-5.9,5.8-13.7,8.9-22,8.8-41.1-.7-94.3-.2-133.2.1h-.7c-21.2.2-38.1.3-46.8.2.3-2.7.8-6,1.6-9.2,0,0,0-.2,0-.3,1.2-4.5,2.9-7.7,5.1-9.6,8.2-7.1,64.9-7.5,79.3-3.2,2.1.6,4,.2,5.2-1.1.7-.8,1.7-2.5.6-5.4-8.7-22.2-17.7-45.1-18.3-71.4-.1-7,.3-14.9,4.9-20.4,4.7-5.6,12.9-7.3,19.5-8.2,14.6-1.9,41.3-2.4,56.4,14.8.5.6,1.2.9,2,1,.8,0,1.5-.2,2.1-.7,1.2-1.1,1.3-2.9.3-4.1-16.8-19.3-45.7-18.8-61.5-16.8-7,.9-17.1,2.9-23.2,10.2-5.8,6.9-6.4,16.6-6.2,24.2.6,26.9,9.8,50.7,18,71.6-16.4-3.5-72.1-4.2-82.7,4.9-2.8,2.4-4.9,6-6.5,10.8h.4c0,.1-1.3,5.1-1.3,5.1h-.4c-.7,3.5-1.1,7.2-1.5,10.1,0,.8.2,1.6.7,2.2.5.6,1.3,1,2.1,1,7.3.2,26.5,0,50.8-.2h.3c38.8-.3,91.9-.8,132.7-.1,9.9.2,19.1-3.5,26.2-10.4,2.6-2.5,4.5-4.4,5.7-5.7,2.1.4,6.4,1.6,9.3,2.5,2.4.7,4.7,1.3,6.1,1.6.4.1,1,.3,1.9.5h.3c3.3,1,9.4,2.7,19.5,5,18.5,4.2,27.7,6.2,36.8,7.6,14,2.1,24.1,3.6,32.7,3.6,5.7,0,10.7-.6,15.8-2,31.7-8.6,46.3-38.4,47.9-41.7,4-8.5,6.4-18.3,6.8-27.4.4-8.2-1-14.5-3.6-16.5Z"/>
</svg>