<?xml version="1.0" encoding="UTF-8"?>
<svg id="Layer_1" xmlns="http://www.w3.org/2000/svg" version="1.1" viewBox="0 0 800 800">
  <!-- Generator: Adobe Illustrator 29.1.0, SVG Export Plug-In . SVG Version: 2.1.0 Build 142)  -->
  <defs>
    <style>
      .st0 {
        fill: #525c6d;
      }
    </style>
  </defs>
  <g>
    <g>
      <path class="st0" d="M57.7,461.5c-.9.1-1.7-.5-1.8-1.4l-2.5-20c-1.3-10.5,6.1-20.2,16.4-21.5,10.6-1.3,20.2,6.2,21.6,16.6l1.3,10.6,20-2.5c.9-.1,1.7.6,1.8,1.4l1,7.8c.1.9-.6,1.7-1.4,1.8l-56.4,7.1ZM81,437.3c-.6-4.8-4.9-8.3-10-7.7-4.7.6-7.8,5-7.2,9.8l1.2,9.9,17.1-2.2-1.2-9.9Z"/>
      <path class="st0" d="M52.8,380.4c-.9,0-1.5-.9-1.4-1.8l3.7-34.7c.1-.9.9-1.5,1.8-1.4l7,.7c.9,0,1.5.9,1.4,1.8l-2.7,25.3,14,1.5,2.2-21.1c0-.9.9-1.5,1.8-1.4l7.1.8c.9,0,1.5.9,1.4,1.8l-2.2,21.1,14.9,1.6,2.7-25.3c.1-.9.9-1.5,1.8-1.4l7,.7c.9,0,1.5.9,1.4,1.8l-3.7,34.7c-.1.9-.9,1.5-1.8,1.4l-56.5-6Z"/>
      <path class="st0" d="M77.7,296l-4.2,12.4c-.3.9-1.3,1.3-2.1,1l-6.7-2.3c-.8-.3-1.3-1.2-1-2.1l12.1-35.5c.3-.9,1.3-1.3,2.1-1l6.7,2.3c.8.3,1.3,1.2,1,2.1l-4.2,12.4,45.6,15.6c.8.3,1.3,1.3,1,2.1l-2.6,7.6c-.3.8-1.3,1.3-2.1,1l-45.6-15.6Z"/>
      <path class="st0" d="M120.3,193c-.7-.6-.8-1.6-.2-2.2l13.2-15.5c10.8-12.6,29.8-14.2,42.3-3.4,12.7,10.8,14.1,29.9,3.3,42.5l-13.2,15.5c-.6.7-1.6.7-2.2.1l-43.2-36.9ZM170.3,208.3c7.2-8.5,6.1-20.1-2.4-27.5-8.5-7.2-20.2-6.5-27.4,2l-6.4,7.4,29.8,25.5,6.4-7.4Z"/>
      <path class="st0" d="M186.6,125.7c-.5-.7-.4-1.7.4-2.3l28.6-20c.8-.5,1.8-.3,2.3.4l4,5.8c.5.7.4,1.7-.4,2.3l-20.8,14.6,8.1,11.5,17.4-12.2c.7-.5,1.8-.3,2.3.4l4.1,5.8c.5.8.3,1.8-.4,2.3l-17.4,12.2,8.6,12.3,20.8-14.6c.8-.5,1.8-.3,2.3.4l4,5.8c.5.7.4,1.7-.4,2.3l-28.6,20c-.8.5-1.8.3-2.3-.4l-32.6-46.5Z"/>
      <path class="st0" d="M256.1,83.4c-.3-.8,0-1.8.9-2.1l22.9-8.8c9.6-3.7,20.4,1,24.1,10.5,2.8,7.4.2,15.3-5.7,20.7l18.8,16.1c1,.8.9,2.3-.5,2.8l-8.4,3.2c-.7.3-1.3,0-1.6-.2l-18.8-17.2-8.9,3.4,7.8,20.4c.3.8-.1,1.8-.9,2.1l-7.4,2.8c-.9.3-1.8-.1-2.1-.9l-20.3-53.1ZM288.9,98.4c4.2-1.6,6.5-6.7,4.8-11.2-1.6-4.2-6.7-6.4-10.9-4.7l-13.1,5,6.1,16,13.1-5Z"/>
      <path class="st0" d="M347.5,55c0-.7.5-1.3,1.4-1.4h1.4c.7-.2,1.2.1,1.5.6l22.1,38.8q.2,0,.3,0l15.5-41.9c.2-.5.6-.9,1.4-1h1.4c.9-.2,1.5.4,1.6,1l14.8,56.7c.4,1.2-.3,2-1.4,2.1l-7.8.6c-.8,0-1.5-.6-1.7-1.1l-7.7-32h-.3s-12.2,34.9-12.2,34.9c-.1.5-.6,1-1.4,1.1h-1.5c-.8.2-1.2-.2-1.5-.7l-17.9-32.4s-.2,0-.3,0l-2.3,32.8c0,.6-.7,1.3-1.4,1.4l-7.7.6c-1.1,0-1.9-.6-1.8-1.8l5.4-58.3Z"/>
      <path class="st0" d="M429.4,109.4l37.5-51.4c.4-.5.9-.8,1.6-.6l.8.2c.8.2,1.1.7,1.2,1.2l14.6,61.8c.3,1.2-.6,2.2-1.9,1.9l-7.3-1.5c-1.3-.3-1.7-.9-2.1-2.2l-2.3-9.9-25.2-5-5.9,8.3c-.5.8-1.4,1.5-2.8,1.2l-7.3-1.5c-1.3-.3-1.7-1.5-1-2.5ZM469.4,98.8l-4.7-20.2h-.3c0,0-12,16.8-12,16.8l16.9,3.4Z"/>
      <path class="st0" d="M533,89l-12-5.4c-.9-.4-1.2-1.4-.8-2.2l2.9-6.4c.4-.8,1.3-1.2,2.2-.8l34.2,15.4c.9.4,1.2,1.4.8,2.2l-2.9,6.4c-.4.8-1.3,1.2-2.2.8l-12-5.4-19.7,43.9c-.4.8-1.4,1.2-2.2.8l-7.3-3.3c-.8-.4-1.2-1.4-.8-2.2l19.7-43.9Z"/>
      <path class="st0" d="M616.8,126.2c13.4,10.7,15.6,30,4.9,43.5-10.7,13.4-29.9,15.6-43.4,4.9-13.4-10.7-15.7-29.8-5-43.3,10.7-13.4,29.9-15.8,43.4-5.1ZM585.4,165.8c8.5,6.7,21,5.3,27.7-3.1,6.7-8.5,5.3-21.1-3.1-27.8-8.5-6.7-21-5.2-27.7,3.3-6.7,8.5-5.3,20.9,3.2,27.6Z"/>
      <path class="st0" d="M667.7,179.2c.7-.5,1.7-.4,2.3.3l4.8,6.3c.5.7.4,1.8-.3,2.3l-38.3,29.2,13.3,17.4c.6.8.4,1.8-.3,2.3l-5.6,4.3c-.7.5-1.7.4-2.3-.3l-19-25c-.6-.8-.4-1.8.3-2.3l45.2-34.4Z"/>
      <path class="st0" d="M721.7,263.9c6.7,15.8-.7,33.8-16.5,40.5-15.8,6.7-33.7-.6-40.4-16.4-6.7-15.8.5-33.7,16.3-40.4,15.8-6.7,33.9.5,40.6,16.3ZM675.1,283.6c4.2,10,15.8,14.7,25.8,10.5,10-4.2,14.8-16,10.6-25.9-4.2-10-16-14.6-25.9-10.4-10,4.2-14.6,15.8-10.4,25.8Z"/>
      <path class="st0" d="M747.2,361.6c.9,7.7-1.2,15.4-5.4,21.7-.6.8-1.6,1-2.4.4l-6.2-4.6c-.8-.6-.9-1.4-.3-2.2,2.8-4.1,4-8.8,3.4-13.5-1.3-10.7-11.4-18-22.1-16.7-10.6,1.3-18.5,10.8-17.2,21.5.6,4.8,2.5,8.3,3.4,9.9l7.2-.9-.8-6.8c-.1-.9.5-1.7,1.3-1.8l6.7-.8c.9-.1,1.7.5,1.8,1.4l2,16.4c.1.9-.6,1.6-1.4,1.7l-21.8,2.6c-.7,0-1.1-.2-1.4-.5,0,0-6.6-8.1-8.1-20.5-2-17,9.8-32.2,26.8-34.3,17-2.1,32.4,9.9,34.5,26.9Z"/>
      <path class="st0" d="M715.4,435.2l30.9-15.8c1.2-.5,2.5.3,2.3,1.7l-1.1,8.7c0,.7-.6,1.1-.9,1.3l-21.3,11.1,17.8,16.1c.3.3.7.8.6,1.5l-1.1,8.8c-.2,1.4-1.6,1.9-2.6,1l-25.8-23.3-27.2-3.5c-.9-.1-1.5-1-1.4-1.8l1-7.8c.1-.9,1-1.5,1.8-1.4l27.1,3.5Z"/>
    </g>
    <g>
      <path class="st0" d="M234.9,636.1c7,5.1,10.5,11,12.1,18.7.2,1-.4,1.8-1.3,2l-7.4,1.3c-.9.2-1.6-.3-1.7-1.3-1-4.7-3.8-9-7.7-11.9-8.9-6.5-20.9-3.8-27.2,4.9-6.3,8.7-5,20.9,3.9,27.3,4.2,3,8.9,4,13.5,3.8.9,0,1.6.5,1.7,1.3l1.1,7.6c.2.9-.6,1.7-1.4,1.8-8.1,1.2-15.6-1-21.8-5.5-13.9-10.1-17-29.3-6.9-43.1,10.1-13.9,29.4-16.9,43.3-6.8Z"/>
      <path class="st0" d="M275.6,663.2c.3-.8,1.2-1.3,2.1-.9l32.4,13c.9.4,1.2,1.3.9,2.1l-2.6,6.5c-.3.8-1.2,1.3-2.1.9l-23.6-9.5-5.2,13.1,19.7,7.9c.8.3,1.2,1.3.9,2.1l-2.7,6.6c-.4.9-1.3,1.2-2.1.9l-19.7-7.9-5.6,13.9,23.6,9.5c.9.4,1.2,1.3.9,2.1l-2.6,6.5c-.3.8-1.2,1.3-2.1.9l-32.4-13c-.9-.4-1.2-1.3-.9-2.1l21.1-52.7Z"/>
      <path class="st0" d="M339.2,684.2c.1-.9,1-1.4,1.8-1.3l2.1.3,30.9,42h0s4.3-35.2,4.3-35.2c.1-.9.9-1.5,1.8-1.4l7.8,1c.9.1,1.5,1,1.4,1.8l-7,57.4c-.1.9-1,1.4-1.8,1.3l-2-.2-30.9-43.4h0s-4.5,36.6-4.5,36.6c-.1.9-.9,1.5-1.8,1.4l-7.8-.9c-.9-.1-1.5-1-1.4-1.8l7-57.4Z"/>
      <path class="st0" d="M431.4,697.4l-13,1.6c-.9.1-1.7-.6-1.8-1.4l-.9-7c-.1-.9.5-1.7,1.4-1.8l37.2-4.6c.9-.1,1.7.6,1.8,1.4l.9,7c.1.9-.5,1.7-1.4,1.8l-13,1.6,5.9,47.8c.1.9-.6,1.7-1.4,1.8l-7.9,1c-.9.1-1.7-.6-1.8-1.4l-5.9-47.8Z"/>
      <path class="st0" d="M482,679.1c-.3-.8,0-1.8,1-2.1l32.9-11.9c.9-.3,1.8.2,2.1,1l2.4,6.6c.3.8,0,1.8-1,2.1l-23.9,8.6,4.8,13.2,19.9-7.2c.8-.3,1.8.2,2.1,1l2.4,6.7c.3.9-.2,1.8-1,2.1l-19.9,7.2,5.1,14.1,23.9-8.6c.9-.3,1.8.2,2.1,1l2.4,6.6c.3.8,0,1.8-1,2.1l-32.9,11.9c-.9.3-1.8-.2-2.1-1l-19.3-53.4Z"/>
      <path class="st0" d="M544.2,652.8c-.5-.7-.3-1.7.4-2.3l20.4-13.7c8.5-5.7,20.1-3.6,25.8,4.9,4.4,6.6,3.7,14.8-.9,21.5l21.9,11.5c1.1.6,1.4,2.1.2,2.9l-7.5,5c-.6.4-1.2.3-1.6.1l-22.2-12.5-7.9,5.3,12.2,18.2c.5.7.3,1.8-.4,2.3l-6.6,4.4c-.8.5-1.8.3-2.3-.4l-31.7-47.2ZM579.6,660.1c3.8-2.5,4.8-8,2.2-12-2.5-3.8-7.9-4.7-11.7-2.2l-11.6,7.8,9.5,14.2,11.6-7.8Z"/>
    </g>
  </g>
  <path class="st0" d="M448.8,536.6c-13.6,0-22.4-1.8-26.6-5.4-2.1-1.8-3.2-4.1-3.2-6.7,0-9.5,7.7-11.8,14.4-14,6.9-2.1,13.9-4.4,17.6-12.9.4-1,.2-4.5,0-6.6-.1-1.6-.3-3.2-.3-4.6,0-12.7-7.1-13.9-46.9-15.1-4.1-.1-8.5-.3-13.2-.4-7.8-.3-42.3,2.7-72.7,5.3-17.7,1.5-34.4,3-46.5,3.9-2,.1-3.7-1.3-3.8-3.3-.1-2,1.3-3.7,3.3-3.8,12.1-.9,28.8-2.3,46.4-3.9,32.1-2.8,65.4-5.7,73.6-5.4,4.7.2,9.1.3,13.2.4,37,1.1,53.8,1.6,53.8,22.2s.1,2.6.2,4.1c.3,3.8.6,7.4-.5,10.1-5,11.5-14.9,14.6-22.1,16.9-7.1,2.2-9.4,3.3-9.4,7.1s0,.7.7,1.3c6.2,5.3,34.8,4.3,58.5.7,12.6-1.7,12.9-4.8,14.3-16.2,1.3-13.3,6.8-62.8,9.7-79.3,1.5-10.3,1.1-19.1-1.3-27.3-.7-2.1-1.5-4.1-2.3-6.1-2.4-6.1-4.8-12.5-4.8-19.8s2.3-8.4,5.5-14.4c5.2-9.6,12.3-22.8,13.2-42.4.7-16.4-1.5-53.6-36-65.1,7.5,10.7,19.8,31.7,17.7,59.2-2,26.4-23.1,44.9-37.5,48.1-2.8.6-147.5,4.5-195.4,5.6-2,0-3.6-1.5-3.7-3.5,0-2,1.5-3.6,3.5-3.7,56.8-1.3,188-5,194.2-5.5,9.9-2.3,29.9-17.2,31.7-41.6,2.3-30-14.4-52.1-19.9-59.3-2.3-3-3.4-4.5-2.3-6.7.7-1.5,2.6-2.3,4.2-1.9,0,0,.3,0,.5,0,11.1,2.1,20.8,6.7,28.8,13.7,15.4,13.4,22.5,33.9,21.3,60.9-1,21.2-8.8,35.8-14,45.5-2.5,4.7-4.7,8.7-4.7,11,0,6,2.1,11.4,4.3,17.2.8,2.1,1.7,4.3,2.4,6.5,0,0,0,0,0,.1,2.6,9.2,3.1,19.1,1.5,30.5-2.7,15.7-8.2,63.5-9.6,79-1.4,12.1-2.4,20.1-20.3,22.5-4.1.6-18.6,2.7-33.6,3.1-1.4,0-2.7,0-3.9,0Z"/>
</svg>