<?xml version="1.0" encoding="UTF-8"?><svg id="a" xmlns="http://www.w3.org/2000/svg" width="800" height="800" viewBox="0 0 800 800"><path d="M112.63594,443.36265l-20.0193,2.53136-1.34014-10.63835c-1.30704-10.39018-11.00235-17.90157-21.55798-16.56144-10.30743,1.30706-17.73607,10.9858-16.41249,21.45871l2.53137,20.01932c.11581.94305.97615,1.52213,1.81994,1.4063l56.38493-7.13084c.84379-.09927,1.53867-.89341,1.40631-1.81992l-.99269-7.84228c-.11581-.84378-.97615-1.52213-1.81994-1.40633v-.01654ZM65.11907,449.35189l-1.24087-9.8773c-.59562-4.76491,2.46519-9.21549,7.14736-9.8111,5.02964-.62871,9.3644,2.87882,9.96002,7.64373l1.24087,9.8773-17.12392,2.16738h.01655Z" style="fill:#fdf7ed;"/><path d="M111.11331,384.92612l3.68951-34.74425c.09927-.94305-.59562-1.70412-1.45595-1.78683l-6.99848-.74454c-.86033-.09927-1.68758.51291-1.78684,1.45596l-2.68027,25.26404-14.94003-1.58832,2.2501-21.07816c.08273-.86034-.51289-1.68759-1.45595-1.78685l-7.08121-.76108c-.86033-.09927-1.70412.59562-1.78685,1.45596l-2.2501,21.07816-13.99704-1.48903,2.68027-25.26404c.09927-.94305-.59562-1.70412-1.45595-1.78685l-6.99849-.74451c-.86033-.08273-1.68758.51289-1.78685,1.45596l-3.70605,34.71116c-.09927.94307.59562,1.70412,1.45595,1.78685l56.50084,6.0058c.86033.08273,1.68758-.51289,1.78685-1.45596l.01654.01654Z" style="fill:#fdf7ed;"/><path d="M126.86288,300.92777l-45.5646-15.56874,4.25204-12.4252c.29781-.89344-.19854-1.78685-1.00924-2.06811l-6.66759-2.2832c-.8107-.28126-1.7703.1158-2.06811,1.00924l-12.1274,35.48877c-.29781.89344.19855,1.78685,1.00925,2.06811l6.66757,2.2832c.8107.28126,1.7703-.11583,2.06811-1.00924l4.25203-12.42522,45.56461,15.56874c.8107.28126,1.78685-.19853,2.06811-1.00924l2.581-7.561c.28126-.81071-.19854-1.78685-1.00924-2.06811h-.01655Z" style="fill:#fdf7ed;"/><path d="M175.60427,171.82838c-12.52448-10.70454-31.58417-9.14933-42.3549,3.44133l-13.21936,15.46947c-.56253.64525-.41362,1.67102.23163,2.23356l43.19869,36.9113c.64525.56252,1.68757.54598,2.2501-.11581l13.21936-15.46913c10.75417-12.59066,9.33131-31.6669-3.34206-42.47071h.01654ZM170.30991,208.27676l-6.35323,7.44487-29.83043-25.47879,6.35324-7.4452c7.24665-8.48752,18.94389-9.2155,27.43142-1.96885,8.5537,7.31283,9.64566,18.96043,2.399,27.44797Z" style="fill:#fdf7ed;"/><path d="M246.43241,144.57846c-.49634-.69489-1.50558-.94306-2.26664-.39708l-20.81346,14.57604-8.61972-12.30938,17.37196-12.16049c.71143-.49635.94306-1.50558.39707-2.26665l-4.08659-5.84034c-.49634-.69489-1.57176-.89343-2.26664-.39708l-17.37196,12.16049-8.07391-11.53178,20.8133-14.57604c.77761-.54598.89343-1.57177.39707-2.26665l-4.03694-5.75762c-.49635-.69489-1.50543-.94306-2.26649-.39708l-28.62264,20.03585c-.77761.54598-.89343,1.57177-.39709,2.26665l32.59326,46.54076c.49634.71143,1.50558.94306,2.26664.39707l28.62265-20.03585c.77761-.54598.89343-1.57177.39707-2.26665l-4.03696-5.75762v-.01654Z" style="fill:#fdf7ed;"/><path d="M276.49777,136.48801c.31436.79415,1.22433,1.27396,2.10121.94306l7.37903-2.82917c.79415-.31436,1.24087-1.30705.94305-2.1012l-7.84226-20.43293,8.90113-3.40824,18.81155,17.15704c.28126.26472.84378.51289,1.5552.23163l8.42136-3.22625c1.35667-.52944,1.4394-2.01847.47979-2.84572l-18.79499-16.14781c5.88997-5.47636,8.48753-13.36826,5.65835-20.74728-3.6564-9.5464-14.46021-14.2286-24.08934-10.53909l-22.93121,8.78533c-.87688.3309-1.24087,1.30705-.94306,2.1012l20.3502,53.05944ZM282.83446,82.48552c4.25205-1.6214,9.28168.4798,10.91963,4.73184,1.72066,4.48366-.54598,9.59603-4.79803,11.21743l-13.07045,5.0131-6.1216-15.94927,13.07045-5.0131Z" style="fill:#fdf7ed;"/><path d="M343.84869,115.16183l7.69336-.62871c.77761-.06618,1.40633-.8107,1.43942-1.40631l2.29974-32.82505c.0827,0,.2647-.01655.2647-.01655l17.90157,32.37833c.2978.49635.76108.87688,1.53866.82724l1.53869-.13236c.77761-.06618,1.24087-.52944,1.37323-1.05887l12.21011-34.84352s.16546,0,.26472-.01655l7.70992,32.01435c.21509.57907.95961,1.20778,1.73722,1.14159l7.79263-.64525c1.1085-.09927,1.73722-.90997,1.37323-2.1012l-14.8573-56.68274c-.1489-.67834-.71144-1.24087-1.63795-1.15814l-1.37323.11581c-.77759.06618-1.17467.44671-1.38976.97615l-15.50255,41.92471c-.05461,0-.13734.00546-.24819.01655l-22.13704-38.83082c-.29782-.49635-.84381-.79415-1.52213-.72797l-1.37323.11581c-.94307.08272-1.40633.71143-1.43942,1.40631l-5.44326,58.32069c-.06617,1.20778.67835,1.91921,1.78685,1.83648Z" style="fill:#fdf7ed;"/><path d="M430.41316,111.88561l7.32937,1.47249c1.34016.26472,2.26667-.41362,2.77955-1.19123l5.93961-8.2559,25.16478,5.04619,2.29974,9.91039c.34743,1.2905.84378,1.91921,2.10118,2.16738l7.32937,1.4725c1.25743.24817,2.15086-.71143,1.86958-1.90266l-14.55948-61.84477c-.1489-.56253-.39709-1.04233-1.24087-1.20778l-.84381-.16545c-.76105-.1489-1.2574.18199-1.62139.64525l-37.54034,51.38841c-.72795.99269-.2647,2.21701.9927,2.48173v-.01655ZM464.42944,78.53112l.24819.04964,4.69874,20.2013-16.90887-3.3917,11.96194-16.85924Z" style="fill:#fdf7ed;"/><path d="M557.44641,98.15402l2.87884-6.41942c.34743-.77761.03307-1.7703-.82724-2.15083l-34.23137-15.35365c-.86037-.38053-1.80339.03309-2.15086.82724l-2.87879,6.41942c-.34743.77761-.03307,1.7703.82724,2.15083l11.97848,5.37709-19.72147,43.94321c-.34748.77761.03307,1.80339.82724,2.15083l7.27974,3.27589c.77761.34745,1.80339-.03308,2.15081-.82724l19.72152-43.9432,11.97848,5.37709c.86037.38053,1.80339-.03309,2.15086-.82724h.01651Z" style="fill:#fdf7ed;"/><path d="M616.84091,126.18072c-13.451-10.67145-32.72578-8.32208-43.39724,5.12891s-8.45441,32.62651,4.99654,43.29795c13.451,10.67146,32.6927,8.52062,43.36417-4.93037,10.67142-13.451,8.50404-32.8085-4.94695-43.47995l-.01651-.01654ZM613.05212,162.72836c-6.71722,8.47098-19.20858,9.84421-27.67961,3.12698-8.47097-6.71722-9.91037-19.14242-3.17659-27.6134,6.71722-8.47098,19.25822-10.04275,27.72919-3.30898,8.47102,6.71722,9.86079,19.32442,3.14357,27.79539h-.01656Z" style="fill:#fdf7ed;"/><path d="M636.16532,217.21065l38.31795-29.15175c.67835-.51289.82724-1.60486.31436-2.28319l-4.7815-6.28706c-.57908-.74451-1.60486-.82724-2.2832-.31436l-45.21714,34.41336c-.67835.51289-.87688,1.53867-.31436,2.28286l19.02661,24.99932c.57908.74451,1.60486.82724,2.2832.31436l5.60869-4.26858c.67835-.51289.87688-1.53867.31436-2.2832l-13.25242-17.42176h-.01656Z" style="fill:#fdf7ed;"/><path d="M705.2551,304.41874c15.80034-6.70068,23.16284-24.73459,16.47869-40.53496-6.68415-15.80037-24.75113-22.98085-40.55152-16.28017-15.80034,6.70068-23.04701,24.58568-16.3463,40.40261,6.70066,15.80034,24.61874,23.12974,40.4357,16.42906l-.01656-.01654ZM675.11032,283.63837c-4.21892-9.96003.46325-21.54144,10.42326-25.77694,9.96005-4.23549,21.70688.39709,25.92585,10.3571,4.21892,9.96003-.59564,21.69034-10.55564,25.90929-9.96,4.21895-21.57454-.54598-25.81003-10.50601l.01656.01656Z" style="fill:#fdf7ed;"/><path d="M712.7681,334.77858c-17.04121,2.05157-28.87079,17.30596-26.81924,34.26446,1.48903,12.35903,8.09047,20.46601,8.09047,20.46601.2978.31436.76105.59562,1.4394.51289l21.8227-2.63063c.84375-.09927,1.53866-.87688,1.4394-1.73722l-1.96885-16.36289c-.11583-.94305-.87688-1.53866-1.81995-1.42286l-6.73378.81071c-.84375.09927-1.45591.86034-1.34013,1.80339l.82724,6.81651-7.24667.87688c-.89339-1.62142-2.77953-5.11239-3.35861-9.8773-1.2905-10.73764,6.63451-20.25094,17.20672-21.52491,10.65491-1.2905,20.78037,6.05543,22.07087,16.71034.56252,4.6822-.59564,9.41404-3.39173,13.46753-.59559.84378-.49633,1.62139.26472,2.21701l6.17126,4.61604c.76105.59562,1.77031.39706,2.38247-.38055,4.25205-6.38633,6.33667-14.07969,5.41016-21.75651-2.05155-16.9585-17.4052-28.93701-34.44646-26.88543v.01654Z" style="fill:#fdf7ed;"/><path d="M746.35591,419.4553l-30.92239,15.76727-27.08401-3.47444c-.84375-.1158-1.70412.47982-1.8199,1.40633l-1.00926,7.82572c-.11583.84381.56252,1.72068,1.40633,1.81995l27.16672,3.47441,25.82654,23.2952c1.02577.82724,2.46517.31436,2.64719-1.04231l1.12504-8.76879c.0827-.67835-.28129-1.15814-.59559-1.45596l-17.83538-16.13126,21.32633-11.11816c.38055-.21509.86032-.57906.94307-1.2574l1.10848-8.68606c.18202-1.35669-1.10848-2.21701-2.29971-1.67105l.01656.01656Z" style="fill:#fdf7ed;"/><path d="M234.8874,636.07746c-13.88116-10.09239-33.18937-7.03157-43.28175,6.84955-10.09238,13.88118-6.9323,33.05669,6.94886,43.14908,6.18778,4.48365,13.71571,6.6841,21.77339,5.52598.84379-.13239,1.63795-.92651,1.43941-1.81995l-1.07542-7.57758c-.11581-.71142-.82724-1.34013-1.73721-1.25738-4.6329.24816-9.33165-.72798-13.50096-3.75572-8.88461-6.45249-10.20819-18.66263-3.88804-27.34869,6.35323-8.75221,18.3486-11.38284,27.24975-4.93034,3.88804,2.82916,6.66759,7.18047,7.70991,11.86265.14891.95963.84379,1.45596,1.73722,1.25743l7.4121-1.2905c.95961-.1489,1.57177-.9927,1.34014-2.00192-1.63794-7.66029-5.09583-13.56682-12.11085-18.67919l-.01655.01656Z" style="fill:#fdf7ed;"/><path d="M310.19804,675.2888l-32.42795-13.00425c-.87688-.34748-1.80341.11583-2.11774.90995l-21.14437,52.74509c-.31436.79417.03143,1.77031.90831,2.11774l32.42963,13.0043c.87688.34743,1.80339-.11583,2.11774-.91l2.61409-6.5352c.31436-.79417-.0331-1.77031-.90997-2.11779l-23.57646-9.44711,5.59218-13.94732,19.67186,7.89189c.79415.31436,1.77029-.03307,2.11774-.90995l2.64553-6.61795c.31436-.79417-.11416-1.80339-.90831-2.11774l-19.67186-7.89189,5.24472-13.0705,23.57646,9.44716c.87688.34743,1.80339-.11583,2.11774-.91l2.61409-6.5352c.31433-.79417-.0331-1.77031-.90997-2.11774l.01654.01651Z" style="fill:#fdf7ed;"/><path d="M388.07315,689.50085l-7.84226-.95958c-.94307-.11583-1.72068.56252-1.81995,1.42284l-4.28512,35.191h-.08273l-30.87276-41.99092-2.13428-.26472c-.86034-.09927-1.70412.47982-1.80341,1.34013l-6.96538,57.34457c-.09927.86032.56252,1.72068,1.42286,1.81995l7.75955.94307c.94305.11578,1.72066-.56257,1.81992-1.42289l4.45058-36.6469h.08273l30.87276,43.46339,2.05155.24816c.86034.09932,1.70412-.47977,1.80341-1.34013l6.96538-57.34457c.09927-.84375-.56252-1.70412-1.42286-1.8199v.01651Z" style="fill:#fdf7ed;"/><path d="M454.32051,684.23959l-37.22599,4.61604c-.94305.11583-1.52213.95958-1.42286,1.81995l.86034,6.98194c.09927.86032.87688,1.53866,1.81995,1.42284l13.03735-1.62142,5.93961,47.79819c.09929.86032.95961,1.52215,1.81995,1.42284l7.92499-.97614c.86034-.09927,1.52215-.95958,1.42286-1.8199l-5.93961-47.79819,13.03738-1.62142c.94305-.11578,1.52213-.95958,1.42286-1.8199l-.86034-6.98194c-.09927-.84381-.87688-1.53871-1.81992-1.42289h-.01656Z" style="fill:#fdf7ed;"/><path d="M534.89411,712.97804c-.29785-.81068-1.20779-1.30701-2.08467-.97614l-23.89081,8.63643-5.11236-14.12934,19.93656-7.21354c.81073-.2978,1.30706-1.20779.97614-2.08467l-2.41554-6.70066c-.2978-.81068-1.27394-1.27399-2.08462-.97614l-19.93661,7.21354-4.78144-13.23591,23.89081-8.63643c.89339-.31436,1.27394-1.27394.97614-2.08462l-2.39903-6.61795c-.2978-.81073-1.20779-1.30706-2.08467-.97619l-32.85811,11.87926c-.89344.31436-1.27394,1.27394-.97614,2.08462l19.30785,53.44c.29785.81068,1.20779,1.30701,2.08467.97614l32.85811-11.87921c.89344-.31436,1.27399-1.27399.97619-2.08467l-2.39903-6.61795.01656-.01656Z" style="fill:#fdf7ed;"/><path d="M611.96015,674.70972l-21.92197-11.53178c4.51677-6.66759,5.27782-14.92347.86032-21.47522-5.70795-8.47097-17.27281-10.62184-25.82654-4.8642l-20.36675,13.69916c-.77761.52945-.92651,1.55522-.44669,2.26664l31.71651,47.15291c.47982.71142,1.47252.97614,2.26664.44669l6.55181-4.40089c.71142-.47982.92651-1.55522.44669-2.26669l-12.21013-18.16625,7.90845-5.31089,22.17013,12.50793c.33092.18197.92651.31436,1.57178-.13239l7.47827-5.02966c1.20779-.81068.94307-2.28315-.18197-2.87879l-.01656-.01656ZM579.56529,660.08405l-11.61454,7.80919-9.52982-14.17893,11.61449-7.80919c3.77223-2.53136,9.16588-1.60486,11.69724,2.16738,2.68026,3.98732,1.60486,9.46367-2.16738,12.01155Z" style="fill:#fdf7ed;"/></svg>