<?xml version="1.0" encoding="UTF-8"?>
<svg id="Layer_1" xmlns="http://www.w3.org/2000/svg" version="1.1" viewBox="0 0 176.9 161.9">
  <!-- Generator: Adobe Illustrator 29.1.0, SVG Export Plug-In . SVG Version: 2.1.0 Build 142)  -->
  <defs>
    <style>
      .st0 {
        fill: #f7f4ed;
      }
    </style>
  </defs>
  <path class="st0" d="M175.1,2.4c-1.3-.4-2.7-.8-4.1-.9-.8,0-13.8,0-14.4.2-2,.7-3.8.9-5.6-.4-.5-.4-4.8,0-6.1,0s-2.1-.2-3.2-.2c-1.7,0-2.9.8-3.3,2.5-.2.9-.5,1.3-1.5,1.3s-4.7,6.6-5.1,7c-3,2.7-8.9,9.3-11.8,12.1-.6.6-.8,1.6-1.4,2.2-2.7,3.1-4.5,6.7-8.3,8.6-.9.4-1.6,1.5-2,2.4-.9,2-2.2,3.6-3.9,4.9-2,1.7-3.4,4-5,5.8-.7.8-6.1,5.3-7,7.7-.3.7-.6,1.8-1.2,2-2.9,1.2-3.9,4.2-6,6-1,.9-1.1,1.7-2.2,2.5,0,0-.7-.4-.7-.7-.5-2.2-1.8-3.4-4.1-3.8-.8-.2-1.4-1.2-2-2-.5-.7-.7-1.8-1.4-2.3-2-1.4-3.4-3.3-4.9-5-.2-.3-.4-.7-.4-1.1,0-1.8-6.3-7.9-7-9.3s-14-14.8-14-16.5-.6-2.2-1.7-2.8c-1.1-.5-1.3-1.6-1.9-2.4-1.5-1.9-2.3-4-3.2-6-.5-1.1-5.9-8.5-6.4-10.4-.3-1.4,0-2.9-1.2-2.7-3.1.7-18.2.6-19.4,0-1.2-.6-1.5.2-2.2.4.2.7.2,1.4.5,2,.8,1.4,1.7,2.7,2.6,3.9.5.7,1.2,1.4,2,1.8,1.4.7,2.3,1.7,2.5,3.2.4,2.1,14.4,17.1,15.5,18.3.9.9,1.4,1.8,1.5,3,.2,3.2,2.1,5.5,5,6.3,1,.3,1.4.8,1.3,1.8,0,1.9.8,3.1,2.4,4.1.2,0,.6.2.6.4.5,2.8,3.3,3.7,4.5,5.9,1,1.7,2.7,3.1,4.1,4.5,1.7,1.9,9.2,9.7,11,11.5s1,.9,1.4,1.4c1.6,2,3,4.1,4.6,6,.5.6,1.3,1.9,2.2,3.1-.8.4-1.6.8-2.2,1.3-.5.4-1.2.8-1.4,1.3-.9,2-8.3,9.7-10.2,11.3-.7.4-10.8,12.8-12.9,14.7-.7.6-1.6,1.5-1.7,2.3-.5,3.6-3.1,5.1-5.8,6.4-1.6.7-2.5,1.7-3.2,3.2-.5.9-1.2,1.8-1.9,2.5-1.6,1.7-3.5,3.1-4.8,4.8-1.1,1.4-8.5,8.3-9.3,9.4-1.2,1.6-1.8,3.3-4.1,4-1.5.5-4.4,3.5-5.6,4.8-.4.5-.8,1-1.1,1.6-1.1,2.1-8.5,10.4-9.1,10.7-.8.4-.8,1.5,0,1.7,1.9.5,3.9.9,5.7,1.2.4,0,1-.4,1.3-.7.9-1.1,1.9-.9,3.1-.4,1,.4,2.1.7,3.1.7,2.6,0,17.8.5,20.3.5s2.9-.3,4-2.8c0-.4.6-.9.9-.9,1.4,0,1.7-1,2.4-1.8,1.1-1.3,2.2-2.4,2.5-4.2,0-.5.5-1.1,1-1.4,2.4-1.4,6-4.6,7.9-6.7,1.3-1.4,11.8-13,13-14.2,1.2-1.2,2.3-2.6,3.4-3.9.5-.6,1.5-1.2,2-1.7,2.7-3.2,4.1-4.7,6.9-7.8.4-.4,7.3-8.8,7.8-9,1.9-.7,2.6-2.8,3.8-4.1,1.4-1.6,2-3.5,4-4.5,1-.6,1.2,2.6,3.1,3.1.9.2,2,1.1,2.3,1.9.6,1.7,2.7,2.7,4.1,3.7.9.6,1.5,1.3,2,2.3.7,1.4,3.8,4.3,3.9,4.3,1.7.5,2.5,1.7,2.5,3.5s.9.9,1.4,1.3c.6.6,1.6,1.2,1.8,1.9.5,2.3,2.4,3.4,4,4.4,2,1.3,3.5,3,4.7,4.8,1.2,1.8,2.5,3.6,4.1,4.8,1.2.9,2,1.8,1.8,3.2-.2,1.6.5,2.6,1.8,3.3,2.1,1.2,3.2,3.9,5,5.1v.2c0,1.6,7.6,11.2,8,12.2,1.2,2.6,1.7,3.8,1.7,3.8,2-.2,17.7-1.3,20,0,.3.2,1.3-.2,1.4-.6.2-.5,0-1.3-.3-1.8-.9-1.5-1.9-2.9-2.9-4.3-.5-.6-1.1-1.2-1.7-1.5-1.7-.7-2.6-1.8-2.9-3.5-.3-1.8-1.5-3.1-2.9-3.9-2.3-1.4-3.6-3.3-4.3-5.7-.2-.9-1-2-1.7-2.2-2.1-.5-3.2-1.9-4.2-3.6-.6-1-1.4-1.9-2.3-2.6-1.2-1-13.5-16.7-14.9-18.6-.2-.2-.5-.4-.8-.6-.4-.3-.9-.6-1.1-1-1.3-2.7-3.9-4.2-5.6-6.4-2-2.5-6.6-4.4-7.2-7.9,0-.5-.7-1-1.1-1.3-3.9-3-6.5-6.9-9.4-10.7,0,0-.1-.2-.2-.3,1.2-1.2,2.3-2.4,3.3-3.8.6-.8,7.8-10,9.9-10.8,2.2-.8,2.9-3,4.3-4.4,1.7-1.7,2.9-3.8,4.5-5.4,1.9-2,4-3.7,5.9-5.5.5-.4,1-1.1,1-1.6.3-3.5,2.9-5,5.4-6.5,1.7-.9,2.7-2.1,3.8-3.7,1.3-2,3.3-3.4,4.9-5s1.4-1.3,1.7-2c.8-1.6,1.2-3.3,3.3-3.7.3,0,4.4-6.6,5.4-7.1,0,0,.2,0,.2,0,.6-1.1,4.4-3.6,5-5.2.3-.7,1.2-1.1,1.8-1.7,1-1.1,2.3-2,2.4-3.7,0-.5,3.4-3.9,4-4.2,2.1-1,5.2-6.3,5.5-6.7-.4-.3-.8-.9-1.3-1Z"/>
</svg>