<?xml version="1.0" encoding="UTF-8"?>
<svg id="a" xmlns="http://www.w3.org/2000/svg" version="1.1" viewBox="0 0 10 32">
  <defs>
    <style>
      .cls-1 {
        fill: #fff;
      }

      .cls-1, .cls-2 {
        stroke-width: 0px;
      }

      .cls-2 {
        fill: #f7f4ed;
      }
    </style>
  </defs>
  <path class="cls-1" d="M5.1,20.2c.1,0,.5-.3,1.2-.9.5-.4,1.1-1,1.6-1.5.9-.9,1.3-1.7,1.5-2.5.1-.8,0-1.6-.6-2.2-.4-.5-1-.9-1.7-.9h0c-.8,0-1.5.4-2,.9-.5-.6-1.2-1-2-.9-.7,0-1.3.4-1.7.9-.5.6-.7,1.4-.6,2.2.1.8.5,1.5,1.5,2.5.5.5,1.1,1.1,1.6,1.5.7.6,1.1.9,1.2.9Z"/>
  <path class="cls-2" d="M5.1,20.2c.1,0,.5-.3,1.2-.9.5-.4,1.1-1,1.6-1.5.9-.9,1.3-1.7,1.5-2.5.1-.8,0-1.6-.6-2.2-.4-.5-1-.9-1.7-.9h0c-.8,0-1.5.4-2,.9-.5-.6-1.2-1-2-.9-.7,0-1.3.4-1.7.9-.5.6-.7,1.4-.6,2.2.1.8.5,1.5,1.5,2.5.5.5,1.1,1.1,1.6,1.5.7.6,1.1.9,1.2.9Z"/>
  <path class="cls-1" d="M5.1,31.9c.1,0,.5-.3,1.2-.9.5-.4,1.1-1,1.6-1.5.9-.9,1.3-1.7,1.5-2.5.1-.8,0-1.6-.6-2.2-.4-.5-1-.9-1.7-.9h0c-.8,0-1.5.4-2,.9-.5-.6-1.2-1-2-.9-.7,0-1.3.4-1.7.9-.5.6-.7,1.4-.6,2.2.1.8.5,1.5,1.5,2.5.5.5,1.1,1.1,1.6,1.5.7.6,1.1.9,1.2.9Z"/>
  <path class="cls-2" d="M5.1,31.9c.1,0,.5-.3,1.2-.9.5-.4,1.1-1,1.6-1.5.9-.9,1.3-1.7,1.5-2.5.1-.8,0-1.6-.6-2.2-.4-.5-1-.9-1.7-.9h0c-.8,0-1.5.4-2,.9-.5-.6-1.2-1-2-.9-.7,0-1.3.4-1.7.9-.5.6-.7,1.4-.6,2.2.1.8.5,1.5,1.5,2.5.5.5,1.1,1.1,1.6,1.5.7.6,1.1.9,1.2.9Z"/>
  <path class="cls-1" d="M5.1,8.1c.1,0,.5-.3,1.2-.9.5-.4,1.1-1,1.6-1.5.9-.9,1.3-1.7,1.5-2.5.1-.8,0-1.6-.6-2.2-.4-.5-1-.9-1.7-.9h0c-.8,0-1.5.4-2,.9-.5-.6-1.2-1-2-.9-.7,0-1.3.4-1.7.9-.5.6-.7,1.4-.6,2.2.1.8.5,1.5,1.5,2.5.5.5,1.1,1.1,1.6,1.5.7.6,1.1.9,1.2.9Z"/>
  <path class="cls-2" d="M5.1,8.1c.1,0,.5-.3,1.2-.9.5-.4,1.1-1,1.6-1.5.9-.9,1.3-1.7,1.5-2.5.1-.8,0-1.6-.6-2.2-.4-.5-1-.9-1.7-.9h0c-.8,0-1.5.4-2,.9-.5-.6-1.2-1-2-.9-.7,0-1.3.4-1.7.9-.5.6-.7,1.4-.6,2.2.1.8.5,1.5,1.5,2.5.5.5,1.1,1.1,1.6,1.5.7.6,1.1.9,1.2.9Z"/>
</svg>