<?xml version="1.0" encoding="UTF-8"?>
<svg id="a" xmlns="http://www.w3.org/2000/svg" version="1.1" viewBox="0 0 10 32">
  <!-- Generator: Adobe Illustrator 29.2.1, SVG Export Plug-In . SVG Version: 2.1.0 Build 116)  -->
  <defs>
    <style>
      .st0 {
        fill: #363131;
      }
    </style>
  </defs>
  <path class="st0" d="M5,1.2s-.7-1.2-2.1-1.2S.5,1.1.5,2.1c0,1.5.8,2.5,1.8,3.6,1,1,2.6,2.4,2.6,2.4s0,0,0-.2c0,.1,0,.2,0,.2,0,0,1.6-1.4,2.6-2.4s1.8-2,1.8-3.6c0-1.1-1-2.1-2.4-2.1s-2,1.2-2.1,1.2"/>
  <path class="st0" d="M5,13.1s-.7-1.2-2.1-1.2-2.4,1.1-2.4,2.1c0,1.5.8,2.5,1.8,3.6,1,1,2.6,2.4,2.6,2.4s0,0,0-.2c0,.1,0,.2,0,.2,0,0,1.6-1.4,2.6-2.4,1-1,1.8-2,1.8-3.6s-1-2.1-2.4-2.1-2,1.2-2.1,1.2"/>
  <path class="st0" d="M5,25s-.7-1.2-2.1-1.2-2.4,1.1-2.4,2.1c0,1.5.8,2.5,1.8,3.6,1,1,2.6,2.4,2.6,2.4s0,0,0-.2c0,.1,0,.2,0,.2,0,0,1.6-1.4,2.6-2.4,1-1,1.8-2,1.8-3.6s-1-2.1-2.4-2.1-2,1.2-2.1,1.2"/>
</svg>