<?xml version="1.0" encoding="UTF-8"?><svg id="a" xmlns="http://www.w3.org/2000/svg" width="10" height="32" viewBox="0 0 10 32"><path d="M5.05761,20.24891q.20569,0,1.19721-.90713c.45357-.41665,1.10227-1.02316,1.60331-1.54529.91241-.94933,1.33433-1.6666,1.45564-2.48935.11603-.77528-.08966-1.55584-.5696-2.15181-.43775-.53795-1.04953-.85967-1.71934-.90186h0c-.8122-.04747-1.5031.35863-1.97249.91241-.46412-.55377-1.16029-.96515-1.96722-.91241-.67508.04219-1.28159.36391-1.71934.90186-.47994.59597-.68563,1.37652-.5696,2.15181.12658.81748.5485,1.54002,1.45564,2.48935.50103.52213,1.14974,1.12864,1.60858,1.54529q.99152.90713,1.19721.90713Z" style="fill:#fff; stroke-width:0px;"/><path d="M5.05761,20.24891q.20569,0,1.19721-.90713c.45357-.41665,1.10227-1.02316,1.60331-1.54529.91241-.94933,1.33433-1.6666,1.45564-2.48935.11603-.77528-.08966-1.55584-.5696-2.15181-.43775-.53795-1.04953-.85967-1.71934-.90186h0c-.8122-.04747-1.5031.35863-1.97249.91241-.46412-.55377-1.16029-.96515-1.96722-.91241-.67508.04219-1.28159.36391-1.71934.90186-.47994.59597-.68563,1.37652-.5696,2.15181.12658.81748.5485,1.54002,1.45564,2.48935.50103.52213,1.14974,1.12864,1.60858,1.54529q.99152.90713,1.19721.90713Z" style="fill:#363131; stroke-width:0px;"/><path d="M5.05761,31.91135q.20569,0,1.19721-.90713c.45357-.41665,1.10227-1.02316,1.60331-1.54529.91241-.94933,1.33433-1.6666,1.45564-2.48935.11603-.77528-.08966-1.55584-.5696-2.15181-.43775-.53795-1.04953-.85967-1.71934-.90186h0c-.8122-.04747-1.5031.35863-1.97249.91241-.46412-.55377-1.16029-.96515-1.96722-.91241-.67508.04219-1.28159.36391-1.71934.90186-.47994.59597-.68563,1.37652-.5696,2.15181.12658.81748.5485,1.54002,1.45564,2.48935.50103.52213,1.14974,1.12864,1.60858,1.54529q.99152.90713,1.19721.90713Z" style="fill:#fff; stroke-width:0px;"/><path d="M5.05761,31.91135q.20569,0,1.19721-.90713c.45357-.41665,1.10227-1.02316,1.60331-1.54529.91241-.94933,1.33433-1.6666,1.45564-2.48935.11603-.77528-.08966-1.55584-.5696-2.15181-.43775-.53795-1.04953-.85967-1.71934-.90186h0c-.8122-.04747-1.5031.35863-1.97249.91241-.46412-.55377-1.16029-.96515-1.96722-.91241-.67508.04219-1.28159.36391-1.71934.90186-.47994.59597-.68563,1.37652-.5696,2.15181.12658.81748.5485,1.54002,1.45564,2.48935.50103.52213,1.14974,1.12864,1.60858,1.54529q.99152.90713,1.19721.90713Z" style="fill:#363131; stroke-width:0px;"/><path d="M5.05761,8.13607q.20569,0,1.19721-.90713c.45357-.41665,1.10227-1.02316,1.60331-1.54529.91241-.94933,1.33433-1.6666,1.45564-2.48935.11603-.77528-.08966-1.55584-.5696-2.15181-.43775-.53795-1.04953-.85967-1.71934-.90186h0c-.8122-.04747-1.5031.35863-1.97249.91241-.46412-.55377-1.16029-.96515-1.96722-.91241-.67508.04219-1.28159.36391-1.71934.90186-.47994.59597-.68563,1.37652-.5696,2.15181.12658.81748.5485,1.54002,1.45564,2.48935.50103.52213,1.14974,1.12864,1.60858,1.54529q.99152.90713,1.19721.90713Z" style="fill:#fff; stroke-width:0px;"/><path d="M5.05761,8.13607q.20569,0,1.19721-.90713c.45357-.41665,1.10227-1.02316,1.60331-1.54529.91241-.94933,1.33433-1.6666,1.45564-2.48935.11603-.77528-.08966-1.55584-.5696-2.15181-.43775-.53795-1.04953-.85967-1.71934-.90186h0c-.8122-.04747-1.5031.35863-1.97249.91241-.46412-.55377-1.16029-.96515-1.96722-.91241-.67508.04219-1.28159.36391-1.71934.90186-.47994.59597-.68563,1.37652-.5696,2.15181.12658.81748.5485,1.54002,1.45564,2.48935.50103.52213,1.14974,1.12864,1.60858,1.54529q.99152.90713,1.19721.90713Z" style="fill:#363131; stroke-width:0px;"/></svg>