<?xml version="1.0" encoding="UTF-8"?><svg id="by-hart-h-logo" xmlns="http://www.w3.org/2000/svg" width="100%" height="100%" viewBox="0 0 820.32 526.08" fill="currentcolor"><path d="M779.12091,55.86908c-4.73047-8.27148-15.12988-18.13135-37.81152-18.13135-53.95703,0-133.17871,69.82861-217.39258,191.6123-12.06348,2.69189-24.19922,4.89648-35.9375,7.02979-39.26562,7.08887-70.53516,13.14453-98.12695,19.00488,19.32812-31.53125,34.23047-56.57666,46.25195-76.78027l.14941-.25195c45.83301-77.03418,50.62402-85.08691,106.96289-127.78223l4.19336-3.17871-11.14746-11.14453-16.70312,12.7417c-54.01758,41.26221-89.70312,68.52148-116.84961,68.52148-10.47852,0-17.9082-8.75391-33.58984-30.24561-21.03906-28.99951-40.57812-49.52686-100.70117-49.52686-70.30176,0-148.63477,47.13623-148.63477,114.7749,0,20.69629,7.25781,38.05762,20.98828,50.20752,12.34082,10.92041,29.34277,16.93457,47.875,16.93457,53.11426,0,97.14062-39.95459,111.59961-77.54785l1.62402-4.2251-14.21094-5.68311-1.69629,4.27539c-13.12402,33.06982-49.38672,66.54736-93.29883,66.54736-32.56934,0-50.50684-18.1416-50.50684-51.08301,0-55.35352,55.45996-98.71338,126.26074-98.71338,34.08008,0,46.72168,12.36084,67.43652,40.55713,15.26465,21.26074,33.16406,40.93555,60.54297,40.93555,12.00879,0,26.64453-2.1377,51.96582-16.85498-39.78516,44.04785-71.59473,92.76416-108.20898,148.87891-68.61035,17.90283-107.00684,36.28467-132.46875,63.40869l-2.72461,2.89844,10.42578,13.03027,3.61719-3.9541c21.1582-23.125,53.5918-39.66602,108.17188-55.10352-72.39844,111.92773-136.37598,186.30371-212.56152,186.30371-38.86133,0-60.26367-17.9375-60.26367-50.50879,0-8.10938,5.83203-11.58594,13.21582-15.98828,7.52441-4.4873,16.05273-9.57227,16.05273-20.74121,0-6.35547-4.66797-13.19531-14.91602-13.19531-17.69727,0-31.56055,20.16602-31.56055,45.90918,0,43.83887,28.96094,70.01172,77.47168,70.01172,84.53711,0,179.96094-75.03906,255.24707-200.71094l8.74316-13.88965c30.26758-6.84131,64.7168-13.18408,104.57715-20.52344l7.51465-1.38574c7.13672-1.18896,14.28418-2.65967,20.11621-3.91455-9.71875,14.62012-20.77734,31.45068-31.10352,48.65869-37.60645,61.86816-57.4834,111.9082-57.4834,144.70996,0,29.02539,15.3916,47.05566,40.16895,47.05566,32.25195,0,57.29785-31.19824,95.20898-78.42285l.26562-.33008c6.86719-8.55176,13.96777-17.39551,21.7002-26.79785l6.16895-7.5h-18.7627l-1.37598,1.66992c-5.84766,7.09668-11.34961,13.83301-16.5459,20.19629l-1.03711,1.27051c-38.57227,47.25-59.81934,73.27734-79.30859,73.27734-5.67773,0-11.48242-2.31836-11.48242-19.51465,0-31.30566,20.63477-81.29688,61.33496-148.58984,12.90137-21.67285,26.99316-43.66357,43.07715-67.22217,61.55957-16.58643,170.16602-53.99268,208.87598-118.74023,14.24414-24.21484,17.38086-46.90039,8.60645-62.23975ZM753.46368,109.94769c-26.41699,43.23096-87.91602,79.81689-177.93164,105.88477,71.99316-103.37598,134.23438-162.60742,170.94141-162.60742,5.88965,0,13.73242,1.47363,17.6543,8.49463,5.66699,10.14014,1.68066,28.16846-10.66406,48.22803Z M622.14532,436.58685c-5.21094,0-9.69629,2.49707-13.33398,7.42188-3.6377-4.9248-8.12305-7.42188-13.33301-7.42188-7.50977,0-15.90918,5.9541-15.90918,13.92285,0,9.67188,4.53223,16.14746,11.8457,23.46094,3.99805,3.99805,14.65137,14.06641,16.97656,15.65137.06348.20312.18262.21094.40625.21094h.02734c.22461,0,.34473-.00781.4082-.21289,2.32812-1.58887,12.97852-11.65234,16.97559-15.64941,7.31348-7.31445,11.8457-13.79004,11.8457-23.46094,0-8.32812-8.22656-13.92285-15.90918-13.92285Z"/></svg>