<?xml version="1.0" encoding="UTF-8"?>
<svg id="Layer_1" data-name="Layer 1" xmlns="http://www.w3.org/2000/svg" viewBox="0 0 734 734">
  <defs>
    <style>
      .cls-1 {
        fill: #be0c0f;
      }

      .cls-2 {
        fill: #ebd4c7;
      }
    </style>
  </defs>
  <circle class="cls-2" cx="367" cy="367" r="367"/>
  <g>
    <path class="cls-1" d="M644.9,210.78c-3.57-6.24-11.41-13.67-28.51-13.67-40.69,0-100.42,52.65-163.92,144.48-9.1,2.03-18.25,3.69-27.1,5.3-29.61,5.35-53.19,9.91-73.99,14.33,14.57-23.78,25.81-42.66,34.88-57.9l.11-.19c34.56-58.09,38.17-64.16,80.65-96.35l3.16-2.4-8.41-8.4-12.59,9.61c-40.73,31.11-67.64,51.67-88.11,51.67-7.9,0-13.5-6.6-25.33-22.81-15.86-21.87-30.6-37.35-75.93-37.35-53.01,0-112.08,35.54-112.08,86.54,0,15.61,5.47,28.7,15.83,37.86,9.31,8.23,22.13,12.77,36.1,12.77,40.05,0,73.25-30.13,84.15-58.47l1.22-3.19-10.72-4.29-1.28,3.22c-9.9,24.94-37.24,50.18-70.35,50.18-24.56,0-38.08-13.68-38.08-38.52,0-41.74,41.82-74.43,95.21-74.43,25.7,0,35.23,9.32,50.85,30.58,11.51,16.03,25.01,30.87,45.65,30.87,9.06,0,20.09-1.61,39.18-12.71-30,33.21-53.99,69.95-81.59,112.26-51.74,13.5-80.69,27.36-99.89,47.81l-2.05,2.19,7.86,9.83,2.73-2.98c15.95-17.44,40.41-29.91,81.57-41.55-54.59,84.4-102.83,140.48-160.28,140.48-29.3,0-45.44-13.53-45.44-38.09,0-6.11,4.4-8.74,9.97-12.06,5.67-3.38,12.1-7.22,12.1-15.64,0-4.79-3.52-9.95-11.25-9.95-13.34,0-23.8,15.21-23.8,34.62,0,33.06,21.84,52.79,58.42,52.79,63.74,0,135.7-56.58,192.47-151.34l6.59-10.47c22.82-5.16,48.8-9.94,78.86-15.48l5.67-1.04c5.38-.9,10.77-2.01,15.17-2.95-7.33,11.02-15.67,23.72-23.45,36.69-28.36,46.65-43.34,84.38-43.34,109.12,0,21.89,11.61,35.48,30.29,35.48,24.32,0,43.2-23.52,71.79-59.13l.2-.25c5.18-6.45,10.53-13.12,16.36-20.21l4.65-5.66h-14.15l-1.04,1.26c-4.41,5.35-8.56,10.43-12.48,15.23l-.78.96c-29.09,35.63-45.11,55.25-59.8,55.25-4.28,0-8.66-1.75-8.66-14.71,0-23.61,15.56-61.3,46.25-112.04,9.73-16.34,20.35-32.92,32.48-50.69,46.42-12.51,128.31-40.71,157.5-89.54,10.74-18.26,13.11-35.36,6.49-46.93ZM625.55,251.56c-19.92,32.6-66.29,60.19-134.17,79.84,54.29-77.95,101.22-122.61,128.9-122.61,4.44,0,10.35,1.11,13.31,6.41,4.27,7.65,1.27,21.24-8.04,36.37Z"/>
    <path class="cls-1" d="M526.53,497.86c-3.93,0-7.31,1.88-10.05,5.6-2.74-3.71-6.13-5.6-10.05-5.6-5.66,0-12,4.49-12,10.5,0,7.29,3.42,12.18,8.93,17.69,3.01,3.01,11.05,10.61,12.8,11.8.05.15.14.16.31.16h.02c.17,0,.26,0,.31-.16,1.76-1.2,9.79-8.79,12.8-11.8,5.51-5.52,8.93-10.4,8.93-17.69,0-6.28-6.2-10.5-12-10.5Z"/>
  </g>
</svg>