<?xml version="1.0" encoding="utf-8"?>
<!-- Generator: Adobe Illustrator 28.2.0, SVG Export Plug-In . SVG Version: 6.00 Build 0)  -->
<svg version="1.1" id="Layer_1" xmlns="http://www.w3.org/2000/svg" xmlns:xlink="http://www.w3.org/1999/xlink" x="0px" y="0px"
	 viewBox="0 0 162.7 151.7" style="enable-background:new 0 0 162.7 151.7;" xml:space="preserve">
<style type="text/css">
	.st0{fill:#9D1224;}
	.st1{fill:#DA1932;}
</style>
<g>
	<path class="st0" d="M81.4,151.7c3.9,0,3.9,0,22.7-17.2c8.6-7.9,20.9-19.4,30.4-29.3c17.3-18,25.3-31.6,27.6-47.2
		c2.2-14.7-1.7-29.5-10.8-40.8C143,7,131.4,0.9,118.7,0.1h0c-15.4-0.9-28.5,6.8-37.4,17.3C72.5,6.9,59.3-0.9,44,0.1
		C31.2,0.9,19.7,7,11.4,17.2C2.3,28.5-1.6,43.3,0.6,58C3,73.5,11,87.2,28.2,105.2c9.5,9.9,21.8,21.4,30.5,29.3
		C77.5,151.7,77.5,151.7,81.4,151.7z"/>
	<path class="st1" d="M81.4,151.7c3.9,0,3.9,0,22.7-17.2c8.6-7.9,20.9-19.4,30.4-29.3c17.3-18,25.3-31.6,27.6-47.2
		c2.2-14.7-1.7-29.5-10.8-40.8C143,7,131.4,0.9,118.7,0.1h0c-15.4-0.9-28.5,6.8-37.4,17.3C72.5,6.9,59.3-0.9,44,0.1
		C31.2,0.9,19.7,7,11.4,17.2C2.3,28.5-1.6,43.3,0.6,58C3,73.5,11,87.2,28.2,105.2c9.5,9.9,21.8,21.4,30.5,29.3
		C77.5,151.7,77.5,151.7,81.4,151.7z M23.9,51.4c0-17.8,12.7-32.4,27.3-32.7c10,2.1,18,10.8,21.9,19.2c1.5,3.2,4.7,5.3,8.3,5.3
		c3.6,0,6.8-2.1,8.3-5.3c4.6-10,15.3-20.4,27.9-19.6h0c7.6,0.5,14.5,4.2,19.5,10.4c5.9,7.3,8.4,17,7,26.6
		c-1.7,11.4-8.3,22.2-22.8,37.2c-11.6,12-27.4,26.6-37.1,35.3l0,0C83.5,127.6,23.9,82.9,23.9,51.4z"/>
</g>
</svg>
