<svg width="956" height="497" viewBox="0 0 956 497" fill="none" xmlns="http://www.w3.org/2000/svg">
<path d="M616.772 216.842V239.87H627.526L627.108 243.024H613.162V216.842H616.772ZM655.002 216.842L654.584 219.73H644.438V228.28H653.254V231.168H644.438V240.136H655.306V243.024H640.828V216.842H655.002ZM685.37 216.842L684.99 219.92H677.732V243.024H674.122V219.92H666.674V216.842H685.37ZM699.368 214.41C700.052 214.41 700.635 214.651 701.116 215.132C701.597 215.588 701.838 216.146 701.838 216.804C701.838 217.108 701.787 217.425 701.686 217.754C701.61 218.058 701.445 218.476 701.192 219.008L698.646 224.404H696.366L697.886 218.704C697.227 218.198 696.898 217.564 696.898 216.804C696.898 216.146 697.139 215.588 697.62 215.132C698.127 214.651 698.709 214.41 699.368 214.41ZM722.492 216.386C724.24 216.386 725.735 216.64 726.976 217.146C728.218 217.628 729.421 218.388 730.586 219.426L728.61 221.63C727.622 220.845 726.647 220.275 725.684 219.92C724.747 219.54 723.734 219.35 722.644 219.35C721.276 219.35 720.149 219.667 719.262 220.3C718.376 220.934 717.932 221.858 717.932 223.074C717.932 223.834 718.084 224.48 718.388 225.012C718.692 225.519 719.25 225.988 720.06 226.418C720.896 226.849 722.1 227.305 723.67 227.786C725.317 228.293 726.685 228.838 727.774 229.42C728.864 230.003 729.738 230.814 730.396 231.852C731.08 232.866 731.422 234.158 731.422 235.728C731.422 237.248 731.042 238.591 730.282 239.756C729.548 240.922 728.471 241.834 727.052 242.492C725.659 243.151 724 243.48 722.074 243.48C718.452 243.48 715.488 242.353 713.182 240.098L715.158 237.894C716.222 238.756 717.299 239.414 718.388 239.87C719.478 240.301 720.694 240.516 722.036 240.516C723.658 240.516 725 240.124 726.064 239.338C727.128 238.528 727.66 237.362 727.66 235.842C727.66 234.981 727.496 234.272 727.166 233.714C726.837 233.132 726.267 232.612 725.456 232.156C724.671 231.7 723.518 231.244 721.998 230.788C719.313 229.978 717.35 229.002 716.108 227.862C714.867 226.722 714.246 225.177 714.246 223.226C714.246 221.909 714.588 220.731 715.272 219.692C715.982 218.654 716.957 217.843 718.198 217.26C719.465 216.678 720.896 216.386 722.492 216.386ZM773.928 216.386C775.575 216.386 776.993 216.627 778.184 217.108C779.4 217.564 780.603 218.286 781.794 219.274L779.666 221.478C778.729 220.718 777.829 220.174 776.968 219.844C776.107 219.515 775.093 219.35 773.928 219.35C772.585 219.35 771.344 219.718 770.204 220.452C769.089 221.162 768.177 222.314 767.468 223.91C766.759 225.481 766.404 227.482 766.404 229.914C766.404 233.588 766.999 236.273 768.19 237.97C769.406 239.668 771.192 240.516 773.548 240.516C775.473 240.516 777.133 240.124 778.526 239.338V231.434H773.89L773.472 228.508H782.098V241.162C779.387 242.708 776.537 243.48 773.548 243.48C770.103 243.48 767.405 242.328 765.454 240.022C763.529 237.717 762.566 234.348 762.566 229.914C762.566 227.077 763.073 224.645 764.086 222.618C765.125 220.566 766.505 219.021 768.228 217.982C769.976 216.918 771.876 216.386 773.928 216.386ZM806.337 216.386C808.541 216.386 810.466 216.918 812.113 217.982C813.785 219.021 815.077 220.554 815.989 222.58C816.926 224.607 817.395 227.064 817.395 229.952C817.395 232.79 816.926 235.222 815.989 237.248C815.077 239.275 813.785 240.82 812.113 241.884C810.466 242.948 808.541 243.48 806.337 243.48C804.133 243.48 802.195 242.961 800.523 241.922C798.876 240.884 797.584 239.351 796.647 237.324C795.735 235.298 795.279 232.853 795.279 229.99C795.279 227.178 795.735 224.746 796.647 222.694C797.584 220.642 798.889 219.084 800.561 218.02C802.233 216.931 804.158 216.386 806.337 216.386ZM806.337 219.35C804.057 219.35 802.283 220.212 801.017 221.934C799.75 223.657 799.117 226.342 799.117 229.99C799.117 233.613 799.75 236.273 801.017 237.97C802.309 239.668 804.082 240.516 806.337 240.516C811.15 240.516 813.557 236.995 813.557 229.952C813.557 222.884 811.15 219.35 806.337 219.35ZM857.714 216.842C860.957 216.842 863.465 217.526 865.238 218.894C867.011 220.237 867.898 222.251 867.898 224.936C867.898 227.799 866.973 229.927 865.124 231.32C863.275 232.714 860.817 233.41 857.752 233.41H854.446V243.024H850.836V216.842H857.714ZM857.6 230.56C859.703 230.56 861.299 230.155 862.388 229.344C863.503 228.534 864.06 227.077 864.06 224.974C864.06 223.1 863.503 221.744 862.388 220.908C861.299 220.072 859.728 219.654 857.676 219.654H854.446V230.56H857.6ZM885.266 216.842V239.87H896.02L895.602 243.024H881.656V216.842H885.266ZM923.268 243.024L921.292 236.45H911.374L909.398 243.024H905.75L914.148 216.842H918.708L927.068 243.024H923.268ZM912.248 233.524H920.418L916.352 219.844L912.248 233.524ZM954.9 216.842L946.464 232.954V243.024H942.816V232.992L934.38 216.842H938.37L944.754 229.8L951.138 216.842H954.9Z" fill="#622232"/>
<path d="M10.3548 216.386C12.1028 216.386 13.5975 216.64 14.8388 217.146C16.0802 217.628 17.2835 218.388 18.4488 219.426L16.4728 221.63C15.4848 220.845 14.5095 220.275 13.5468 219.92C12.6095 219.54 11.5962 219.35 10.5068 219.35C9.13885 219.35 8.01152 219.667 7.12485 220.3C6.23818 220.934 5.79485 221.858 5.79485 223.074C5.79485 223.834 5.94685 224.48 6.25085 225.012C6.55485 225.519 7.11218 225.988 7.92285 226.418C8.75885 226.849 9.96218 227.305 11.5328 227.786C13.1795 228.293 14.5475 228.838 15.6368 229.42C16.7262 230.003 17.6002 230.814 18.2588 231.852C18.9428 232.866 19.2848 234.158 19.2848 235.728C19.2848 237.248 18.9048 238.591 18.1448 239.756C17.4102 240.922 16.3335 241.834 14.9148 242.492C13.5215 243.151 11.8622 243.48 9.93685 243.48C6.31418 243.48 3.35018 242.353 1.04485 240.098L3.02085 237.894C4.08485 238.756 5.16152 239.414 6.25085 239.87C7.34018 240.301 8.55618 240.516 9.89885 240.516C11.5202 240.516 12.8628 240.124 13.9268 239.338C14.9908 238.528 15.5228 237.362 15.5228 235.842C15.5228 234.981 15.3582 234.272 15.0288 233.714C14.6995 233.132 14.1295 232.612 13.3188 232.156C12.5335 231.7 11.3808 231.244 9.86085 230.788C7.17552 229.978 5.21218 229.002 3.97085 227.862C2.72952 226.722 2.10885 225.177 2.10885 223.226C2.10885 221.909 2.45085 220.731 3.13485 219.692C3.84418 218.654 4.81952 217.843 6.06085 217.26C7.32752 216.678 8.75885 216.386 10.3548 216.386ZM47.5159 216.842L47.0979 219.73H36.9519V228.28H45.7679V231.168H36.9519V240.136H47.8199V243.024H33.3419V216.842H47.5159ZM77.8838 216.842L77.5038 219.92H70.2458V243.024H66.6358V219.92H59.1878V216.842H77.8838ZM113.195 216.842V243.024H109.585V216.842H113.195ZM144.998 216.842L144.618 219.92H137.36V243.024H133.75V219.92H126.302V216.842H144.998ZM192.166 216.842L191.786 219.92H184.528V243.024H180.918V219.92H173.47V216.842H192.166ZM213.083 216.386C215.287 216.386 217.212 216.918 218.859 217.982C220.531 219.021 221.823 220.554 222.735 222.58C223.672 224.607 224.141 227.064 224.141 229.952C224.141 232.79 223.672 235.222 222.735 237.248C221.823 239.275 220.531 240.82 218.859 241.884C217.212 242.948 215.287 243.48 213.083 243.48C210.879 243.48 208.941 242.961 207.269 241.922C205.622 240.884 204.33 239.351 203.393 237.324C202.481 235.298 202.025 232.853 202.025 229.99C202.025 227.178 202.481 224.746 203.393 222.694C204.33 220.642 205.635 219.084 207.307 218.02C208.979 216.931 210.904 216.386 213.083 216.386ZM213.083 219.35C210.803 219.35 209.029 220.212 207.763 221.934C206.496 223.657 205.863 226.342 205.863 229.99C205.863 233.613 206.496 236.273 207.763 237.97C209.055 239.668 210.828 240.516 213.083 240.516C217.896 240.516 220.303 236.995 220.303 229.952C220.303 222.884 217.896 219.35 213.083 219.35ZM271.528 243.024L269.552 236.45H259.634L257.658 243.024H254.01L262.408 216.842H266.968L275.328 243.024H271.528ZM260.508 233.524H268.678L264.612 219.844L260.508 233.524ZM314.743 216.842L309.423 243.024H304.787L299.961 221.098L295.097 243.024H290.575L285.255 216.842H288.789L293.007 239.87L298.061 216.842H301.899L307.067 239.87L311.437 216.842H314.743ZM342.186 243.024L340.21 236.45H330.292L328.316 243.024H324.668L333.066 216.842H337.626L345.986 243.024H342.186ZM331.166 233.524H339.336L335.27 219.844L331.166 233.524ZM373.817 216.842L365.381 232.954V243.024H361.733V232.992L353.297 216.842H357.287L363.671 229.8L370.055 216.842H373.817Z" fill="#622232"/>
<path d="M449.691 236.233C476.879 259.419 492.848 269.166 528.394 271.496C534.374 256.716 519.858 236.963 506.728 225.399L542.163 196.241C559.188 218.786 561.405 240.804 546.607 271.041C565.949 266.566 583.277 259.749 598.948 252.509C605.18 265.903 609.904 275.369 616.344 289.694C596.76 300.072 545.793 307.707 524.669 306.999C507.17 334.259 480.393 358.144 444.17 362.679C422.774 365.361 400.13 356.805 389.796 337.293C383.085 324.636 382.511 314.605 385.083 299.479C389.445 273.861 406.817 255.113 429.865 238.208C429.865 238.208 426.081 231.532 422.912 224.232C407.802 189.313 410.099 161.208 432.108 129.379C439.776 118.424 452.246 109.288 467.445 105.758C493.358 99.759 519.709 119.742 518.834 150.227C518.367 166.434 514.31 177.022 501.928 190.78C493.075 200.625 486.602 206.453 473.863 216.7C458.914 228.735 449.689 236.208 449.689 236.208L449.691 236.233ZM422.201 266.417C410.935 293.941 419.639 323.449 454.324 326.777C472.987 328.572 499.176 316.49 511.537 303.215C471.577 291.203 455.316 278.99 435.851 249.955C431.796 252.612 424.336 261.183 422.2 266.404L422.201 266.417ZM442.607 227.847C464.746 210.958 478.607 200.372 486.405 184.966C489.563 178.707 491.039 168.243 489.72 162.426C487.057 150.642 475.952 140.381 466.048 139.375C456.312 138.418 448.125 142.145 441.555 149.019C429.021 162.348 425.866 178.183 428.317 195.209C430.242 208.69 434.905 218.604 442.607 227.847Z" fill="#622232"/>
</svg>
