<?xml version="1.0" encoding="UTF-8"?>
<svg id="Layer_1" xmlns="http://www.w3.org/2000/svg" version="1.1" viewBox="0 0 2380 1175">
  <!-- Generator: Adobe Illustrator 29.1.0, SVG Export Plug-In . SVG Version: 2.1.0 Build 142)  -->
  <defs>
    <style>
      .st0 {
        fill: #fdf7ed;
      }
    </style>
  </defs>
  <path class="st0" d="M195.7,678.3h61.6c50.1,0,91.2-40.8,91.2-91.2s-41-90.6-91.2-90.6h-61.6c-2.6,0-4.7,2.3-4.7,4.9v171.9c0,2.6,2.1,4.9,4.7,4.9ZM224.5,527.9h29.6c33.8,0,58.4,25.5,58.4,59.2s-24.7,59.5-58.4,59.5h-29.6v-118.7Z"/>
  <path class="st0" d="M503.7,527.6c2.9,0,4.9-2.3,4.9-4.9v-21.3c0-2.6-2.1-4.9-4.9-4.9h-105.7c-2.9,0-4.9,2.3-4.9,4.9v171.9c0,2.6,2.1,4.9,4.9,4.9h105.7c2.9,0,4.9-2.3,4.9-4.9v-21.3c0-2.6-2.1-4.9-4.9-4.9h-76.9v-45.5h64.2c2.6,0,4.9-2.1,4.9-4.9v-21.6c0-2.6-2.3-4.9-4.9-4.9h-64.2v-42.6h76.9Z"/>
  <path class="st0" d="M556.2,501.4v171.9c0,2.6,2.1,4.9,4.9,4.9h23.9c2.6,0,4.9-2.3,4.9-4.9v-66.2h28.8l34.5,68.8c.5,1,1.8,2.3,4.2,2.3h27.3c4.4,0,6.2-4.2,4.4-7.5l-35.6-66c22.6-9.1,38.4-28.6,38.4-52.5s-25.5-55.8-56.6-55.8h-74.3c-2.9,0-4.9,2.3-4.9,4.9ZM590.2,527.6h42.3c13.8,0,25.7,11.4,25.7,25.2s-11.9,26.5-25.7,26.5h-42.3v-51.7Z"/>
  <path class="st0" d="M895.4,493.9h-4.2c-2.3,0-3.6,1-4.4,2.6l-57.1,122.6h-.8l-57.1-122.6c-.8-1.6-2.3-2.6-4.4-2.6h-4.2c-2.9,0-4.4,1.8-4.7,3.9l-30.9,174.5c-.5,3.6,1.6,6,4.9,6h23.4c2.3,0,4.4-2.1,4.7-3.9l15.1-98.4h.8l46,102.1c.8,1.6,2.1,2.9,4.4,2.9h4.7c2.3,0,3.9-1.3,4.4-2.9l45.5-102.1h.8l15.3,98.4c.5,1.8,2.6,3.9,4.9,3.9h23.6c3.4,0,5.5-2.3,4.7-6l-30.6-174.5c-.3-2.1-1.8-3.9-4.7-3.9Z"/>
  <path class="st0" d="M1045.2,496.7c-.8-1.6-1.8-2.9-4.4-2.9h-2.6c-2.3,0-3.6,1.3-4.4,2.9l-80.8,174.8c-1.6,3.4.5,6.8,4.4,6.8h22.6c4.2,0,6.5-2.6,7.5-5.2l12.7-28h77.7l12.7,28c1.8,3.6,3.6,5.2,7.5,5.2h22.6c3.9,0,6-3.4,4.4-6.8l-80-174.8ZM1013,616.2l25.5-57.1h.8l26,57.1h-52.2Z"/>
  <path class="st0" d="M1179,678.3h24.2c2.6,0,4.9-2.3,4.9-4.9v-145.7h39.7c2.9,0,4.9-2.3,4.9-4.9v-21.3c0-2.6-2.1-4.9-4.9-4.9h-113.5c-2.9,0-4.9,2.3-4.9,4.9v21.3c0,2.6,2.1,4.9,4.9,4.9h39.7v145.7c0,2.6,2.3,4.9,4.9,4.9Z"/>
  <path class="st0" d="M1462.1,587.6c0-51.9-41.6-93.8-93.5-93.8s-93.2,41.8-93.2,93.8,41.3,93.2,93.2,93.2,93.5-41.3,93.5-93.2ZM1368.6,647.1c-32.7,0-59.5-26.8-59.5-59.5s26.7-60,59.5-60,59.7,27.3,59.7,60-27,59.5-59.7,59.5Z"/>
  <path class="st0" d="M1611.4,673.3v-21.3c0-2.6-2.1-4.9-4.9-4.9h-66.2v-145.7c0-2.6-2.3-4.9-4.9-4.9h-23.9c-2.9,0-4.9,2.3-4.9,4.9v171.9c0,2.6,2.1,4.9,4.9,4.9h95.1c2.9,0,4.9-2.3,4.9-4.9Z"/>
  <path class="st0" d="M1820,587.6c0-51.9-41.6-93.8-93.5-93.8s-93.2,41.8-93.2,93.8,41.3,93.2,93.2,93.2,93.5-41.3,93.5-93.2ZM1726.5,647.1c-32.7,0-59.5-26.8-59.5-59.5s26.7-60,59.5-60,59.7,27.3,59.7,60-27,59.5-59.7,59.5Z"/>
  <path class="st0" d="M2006.5,588.1h-49.9c-2.9,0-4.9,2.1-4.9,4.9v20.5c0,2.6,2.1,4.7,4.9,4.7h20.8v22.1c-5.2,2.1-16.4,6.5-30.9,6.5-32.7,0-58.4-27.3-58.4-59.5s25.7-60.3,58.2-60.3,28.1,5.2,39.2,15.1c2.3,2.1,4.7,2.1,6.8,0l16.1-16.9c2.1-2.1,1.8-5.2-.3-7.3-17.7-15.1-40-24.2-63.4-24.2-51.7,0-93.2,41.8-93.2,93.8s41.6,93,93.2,93,64.4-16.9,64.4-16.9c1-.8,2.1-2.1,2.1-4.2v-66.5c0-2.6-2.1-4.9-4.7-4.9Z"/>
  <path class="st0" d="M2094.5,673.3c0,2.6,2.1,4.9,4.9,4.9h23.9c2.6,0,4.9-2.3,4.9-4.9v-82.9l60-86.5c2.1-3.4,0-7.5-4.2-7.5h-26.8c-2.1,0-3.4,1.3-4.2,2.3l-41.6,59.7-41.6-59.7c-.8-1-2.1-2.3-4.2-2.3h-26.5c-4.2,0-6.2,4.2-4.2,7.5l59.2,86.8v82.6Z"/>
  <path class="st0" d="M1316,931c-1.6-1.6-4.4-1.8-6.5,0-10.9,8.8-24.2,14.8-39.7,14.8-33.2,0-58.2-27.5-58.2-60s24.7-60.5,57.9-60.5,29.1,5.7,40,15.3c2.1,2.1,4.7,2.1,6.5,0l15.8-16.4c2.1-2.1,2.1-5.2-.3-7.3-17.7-15.8-36.6-24.2-62.9-24.2-51.9,0-93.8,41.8-93.8,93.8s41.8,93.2,93.8,93.2,45.5-8,63.1-25.2c1.8-1.8,2.3-5.2.3-7l-16.1-16.6Z"/>
  <path class="st0" d="M1486.9,795.4h-105.7c-2.9,0-4.9,2.3-4.9,4.9v171.9c0,2.6,2.1,4.9,4.9,4.9h105.7c2.9,0,4.9-2.3,4.9-4.9v-21.3c0-2.6-2.1-4.9-4.9-4.9h-76.9v-45.5h64.2c2.6,0,4.9-2.1,4.9-4.9v-21.6c0-2.6-2.3-4.9-4.9-4.9h-64.2v-42.6h76.9c2.9,0,4.9-2.3,4.9-4.9v-21.3c0-2.6-2.1-4.9-4.9-4.9Z"/>
  <path class="st0" d="M1687.9,795.4h-23.9c-2.9,0-4.9,2.3-4.9,4.9v107.3h-.3l-108-114.8h-6.5c-2.6,0-4.9,2.1-4.9,4.7v174.8c0,2.6,2.3,4.9,4.9,4.9h23.6c2.9,0,4.9-2.3,4.9-4.9v-111.7h.3l108.6,119.2h6.2c2.6,0,4.9-2.1,4.9-4.7v-174.8c0-2.6-2.3-4.9-4.9-4.9Z"/>
  <path class="st0" d="M1848.7,795.4h-113.5c-2.9,0-4.9,2.3-4.9,4.9v21.3c0,2.6,2.1,4.9,4.9,4.9h39.7v145.7c0,2.6,2.3,4.9,4.9,4.9h24.2c2.6,0,4.9-2.3,4.9-4.9v-145.7h39.7c2.9,0,4.9-2.3,4.9-4.9v-21.3c0-2.6-2.1-4.9-4.9-4.9Z"/>
  <path class="st0" d="M2001.7,795.4h-105.7c-2.9,0-4.9,2.3-4.9,4.9v171.9c0,2.6,2.1,4.9,4.9,4.9h105.7c2.9,0,4.9-2.3,4.9-4.9v-21.3c0-2.6-2.1-4.9-4.9-4.9h-76.9v-45.5h64.2c2.6,0,4.9-2.1,4.9-4.9v-21.6c0-2.6-2.3-4.9-4.9-4.9h-64.2v-42.6h76.9c2.9,0,4.9-2.3,4.9-4.9v-21.3c0-2.6-2.1-4.9-4.9-4.9Z"/>
  <path class="st0" d="M2151.6,903.7c22.6-9.1,38.4-28.6,38.4-52.5s-25.5-55.8-56.6-55.8h-74.3c-2.9,0-4.9,2.3-4.9,4.9v171.9c0,2.6,2.1,4.9,4.9,4.9h23.9c2.6,0,4.9-2.3,4.9-4.9v-66.2h28.8l34.5,68.8c.5,1,1.8,2.3,4.2,2.3h27.3c4.4,0,6.2-4.2,4.4-7.5l-35.6-66ZM2130.5,878.3h-42.3v-51.7h42.3c13.8,0,25.7,11.4,25.7,25.2s-11.9,26.5-25.7,26.5Z"/>
  <path class="st0" d="M195.9,379.3h23.9c2.6,0,4.9-2.3,4.9-4.9v-61h32.5c31.7,0,57.9-26.2,57.9-58.4s-26.2-57.4-58.2-57.4h-61c-2.9,0-4.9,2.3-4.9,4.9v171.9c0,2.6,2.1,4.9,4.9,4.9ZM224.8,229.4h30.1c14.5,0,26.8,10.9,26.8,25.2s-12.2,27-26.8,27h-30.1v-52.2Z"/>
  <path class="st0" d="M349.7,379.3h105.7c2.9,0,4.9-2.3,4.9-4.9v-21.3c0-2.6-2.1-4.9-4.9-4.9h-76.9v-45.5h64.2c2.6,0,4.9-2.1,4.9-4.9v-21.6c0-2.6-2.3-4.9-4.9-4.9h-64.2v-42.6h76.9c2.9,0,4.9-2.3,4.9-4.9v-21.3c0-2.6-2.1-4.9-4.9-4.9h-105.7c-2.9,0-4.9,2.3-4.9,4.9v171.9c0,2.6,2.1,4.9,4.9,4.9Z"/>
  <path class="st0" d="M492.5,228.7h39.7v145.7c0,2.6,2.3,4.9,4.9,4.9h24.2c2.6,0,4.9-2.3,4.9-4.9v-145.7h39.7c2.9,0,4.9-2.3,4.9-4.9v-21.3c0-2.6-2.1-4.9-4.9-4.9h-113.5c-2.9,0-4.9,2.3-4.9,4.9v21.3c0,2.6,2.1,4.9,4.9,4.9Z"/>
  <path class="st0" d="M364.8,847.3c6.4,0,687.6-1.2,736.4-2.6,1.9,0,3.4-1.6,3.4-3.6,0-1.9-1.6-3.4-3.6-3.4-48.7,1.3-729.7,2.6-736.2,2.6s-4.7-1.2-6.9-3.6c-7.1-7.5-11.6-24.8-11.2-32.8.7-20.3-12-36.9-32.1-42.2-10.9-3.1-19.9-1.4-29.5.4-2.5.5-5.1,1-7.7,1.4-12,1.6-25.3,2.4-40.8,2.4s-17.2-1.1-25.7-2.2l-1.4-.2c-.6,0-1.2-.2-1.9-.4-4.1-.8-9.7-1.9-14,.8-2.3,1.3-3.4,4.1-3.5,6.3-.7,4.3,1,9.2,2.8,12.3,3.2,8.8,9,17.3,16.2,23.8,8.1,7.6,18,13.1,27.6,18.4,2.5,1.4,5.1,2.8,7.7,4.3,1.6.9,3.5,1.7,5.4,2.7,8.4,4,17.9,8.6,18.7,16.8.4,3.7-.3,7.2-.9,10.9-.3,1.9-.7,3.8-.9,5.5-5,34.7,11.8,70.1,41.9,88.2,2.9,3.6,8.8,20.9,6.9,23.9-2.1,2.3-6.1,3.9-10,5.5-6.9,2.8-15.5,6.2-15.5,15.4s0,.4,0,.6c1.7,8.9,10.8,11.2,22.5,11.2,6.5,0,13.9-.7,21.1-1.5,3.8-.4,7.6-.8,11.2-1,18.5-1.4,19.3-18.2,20-31.8.4-7.1.7-14.4,3.5-17.9,1.4-1.7,2.3-1.8,5.9-1.8,5.1,0,23.5-1.6,44.8-3.5,20.9-1.9,44.5-4,57.3-4.6,157.1-7.2,621.4-1.8,624.9-1.7,1.9,0,3.5-1.4,3.6-3.3,0-1.9-1.4-3.5-3.3-3.6-3.3-.1-470.4-5.4-625.4,1.7-13,.6-36.7,2.7-57.6,4.6-20.2,1.8-39.3,3.5-44.1,3.4-3.8,0-7.8,0-11.3,4.4-4.1,5.2-4.5,13.3-5,21.8-.7,15.1-2,24.4-13.6,25.3-3.7.3-7.5.7-11.4,1-15.2,1.5-34.1,3.4-36-3.8.2-4,4.4-5.9,11.1-8.6,4.6-1.8,9.4-3.7,12.6-7.2,1.7-1.8,2.3-4.7,2-8.7-.8-8.2-6.4-22.9-9.7-25.4,0,0-.2-.1-.3-.2-28-16.7-43.7-49.4-39-81.6.2-1.7.5-3.4.8-5.2.7-4,1.5-8.2,1-12.8-1.2-12.1-13.1-17.8-22.6-22.4-1.8-.9-3.5-1.7-5-2.5-2.5-1.5-5.1-2.9-7.7-4.3-9.2-5.1-18.7-10.4-26.2-17.4-6.5-5.9-11.7-13.5-14.5-21.4,0-.2-.2-.4-.3-.6-.4-.6-.7-1.2-.9-1.9.5.1,1,.2,1.5.2,3,0,5.9-2.7,5.8-5.8,0-.8-.2-1.5-.5-2.2.5,0,1,.2,1.5.3.7.1,1.4.3,2.2.4l1.5.2c8.8,1.2,17.1,2.3,26.6,2.3,15.8,0,29.4-.8,41.8-2.5,2.7-.4,5.4-.9,8-1.4,9.1-1.7,17-3.2,26.3-.5,17.2,4.6,27.5,18.1,27,35.3-.5,9.5,4.2,28.5,13,37.9,3.6,3.8,7.7,5.8,12,5.8Z"/>
  <path class="st0" d="M323.6,805.6c-6.2-12.3-11.7-12.3-19.1-.6-9.2,14.8-14.2,30.8-12.3,48,1.2,12.9,6.8,19.1,18.5,21.6,20.9,4.3,34.5-9.9,28.3-30.2-4.3-13.5-9.2-26.5-15.4-38.8Z"/>
  <path class="st0" d="M278.7,787.6c0,.2-.2.4-.2.7-.5,2.5,1.6,4.7,4.1,4.9,1.8.1,3.5.2,5.1-.1,3.8-.8,2.7-4.2,2.4-6.8-.3-2.5-1-4.9-1.9-7.3-.3-.9-4.6-4.7-5.2-3.9-2.6,3.1,2.2,5.4,1.8,6-1.9,3-4.6,3.4-6.1,6.6Z"/>
  <path class="st0" d="M2106.1,386.9c6.6-2,15.5-4.9,20.1-15.3,1.1-2.4.8-5.7.5-9.2-.1-1.3-.2-2.6-.2-3.7,0-18.8-15.3-19.2-49-20.2-3.7-.1-7.7-.2-12-.4-1.8,0-233.5,1-615.1,2.7-357.8,1.6-763.3,3.4-768.2,3.3-1.8,0-3.3,1.4-3.3,3.2,0,1.8,1.4,3.3,3.2,3.3,5,0,393.1-1.6,768.4-3.3,314.4-1.4,611.3-2.7,614.8-2.7,4.3.2,8.3.3,12,.4,36.2,1.1,42.7,2.2,42.7,13.7s.1,2.7.2,4.2c.2,1.9.4,5.1,0,6-3.4,7.8-9.8,9.8-16,11.7-6.2,1.9-13.1,4.1-13.1,12.7s1,4.5,2.9,6.1c4.4,3.8,14.2,5,24.6,5,14.1,0,29.3-2.2,33.8-2.9,16.4-2.2,17.2-9.5,18.5-20.5,1.3-14.1,6.3-57.6,8.8-71.8,1.5-10.3,1-19.4-1.4-27.9-.7-2-1.4-4-2.2-5.9-2-5.3-3.9-10.2-3.9-15.7s2-5.8,4.3-10c4.7-8.8,11.9-22.1,12.8-41.4,2.4-53.1-31.1-65.2-45.6-67.9h-.5c-1.5-.5-3.1.3-3.8,1.7-1,2,0,3.4,2.1,6.1,5,6.6,20.2,26.6,18.1,53.9-1.7,22.3-20.1,35.9-28.8,37.8-2.3.2-43.8,1.5-96.4,2.9-36.4,1-843.2,0-1320.9-.8-19.5,0-30.5,0-31.3,0-1.8,0-3.3,1.5-3.3,3.3s1.5,3.3,3.3,3.3,11.8,0,31.3,0c336.9.5,837.5,1.2,1116.2,1.2s194.2-.1,205-.4c22.3-.6,95.3-2.6,97.3-3,13.1-2.9,32.3-19.7,34.1-43.7,1.9-24.9-9.2-44-16-53.8,14.2,5,34.5,19.2,32.7,59.1-.8,17.8-7.3,29.8-12,38.6-2.9,5.4-5,9.3-5,13.1,0,6.6,2.2,12.4,4.4,18,.7,1.9,1.4,3.7,2,5.5,2.2,7.5,2.5,15.5,1.2,24.9-2.6,15-7.7,60-8.8,72.2-1.2,10.4-1.6,13.2-13,14.8-21.6,3.3-47.6,4.2-53.2-.6-.7-.6-.7-1-.7-1.2,0-3.5,2.1-4.5,8.6-6.5Z"/>
</svg>