<?xml version="1.0" encoding="UTF-8"?><svg id="a" xmlns="http://www.w3.org/2000/svg" width="335" height="450" xmlns:xlink="http://www.w3.org/1999/xlink" viewBox="0 0 335 450"><defs><clipPath id="b"><rect x="-.00101" y="2" width="335" height="202.496" style="fill:none; stroke-width:0px;"/></clipPath><clipPath id="c"><rect x="218.655" y="19.56738" width="76.07809" height="100.84799" style="fill:none; stroke-width:0px;"/></clipPath><clipPath id="d"><rect y="249.496" width="334.99799" height="202.45001" style="fill:none; stroke-width:0px;"/></clipPath><clipPath id="e"><rect x="42.1641" y="270.31534" width="68.6487" height="98.24521" style="fill:none; stroke-width:0px;"/></clipPath><clipPath id="f"><rect x="219.55099" y="265.76114" width="75.88651" height="109.306" style="fill:none; stroke-width:0px;"/></clipPath></defs><g style="clip-path:url(#b);"><circle cx="256.99698" cy="70.9668" r="68.64151" style="fill:#fdf7ed; stroke:#000; stroke-width:.65063px;"/><g style="clip-path:url(#c);"><path d="M286.759,38.8338c.57498-.0785,1.203.1047,1.884.4972.314.1832.707.0785.88998-.2355.18301-.314.078-.7066-.23599-.8898-.91602-.5496-1.832-.7589-2.69501-.6543-3.69.4449-5.784,6.4903-5.81,10.5205,0,2.7217.86301,5.4958,2.53799,7.9558.10501.157.26199.2355.41901.2617.026,1.0468.026,2.0674-.13101,3.0357-.67999,3.8471-3.03598,6.8043-6.987,8.7671-.314.157-.44498.5495-.28799.8898.10501.2355.34.36629.60202.36629.26099,0,.20898,0,.28799-.0785,4.34399-2.1721,6.935-5.4434,7.694-9.7092.26099-1.4131.18298-2.8787.13098-4.2657-.02698-.6019-.05298-1.2562-.05298-1.8581s-.28802-.6543-.65402-.6543-.65399.2879-.65399.6543v.6281c-.83801-1.5179-1.59698-3.5853-1.57001-5.993,0-4.0041,2.04102-8.8979,4.63202-9.2119v-.0262Z" style="fill:#525c6d; stroke-width:0px;"/><path d="M280.349,69.7672c.10498-.34019-.078-.7066-.418-.83739-.341-.1047-.707.0785-.83801.4187-.785,2.32919-3.40201,4.65829-6.673,5.9668-2.64297,1.0468-5.18198,1.1777-6.80499.3402h-.49701c-.026,0-.052,0-.078.0262h-.02597c-.02701,0-.07901.0523-.10501.0785-.026,0-.052.0524-.07901.0785v.0262s-.026.0523-.052.0785c0,0,0,.0524-.026.0785-.026.02621,0,.02621,0,.05241v.1308c-.026.0785-.13098.1832-.18298.2879-.55002.8374-1.62302,2.43381-1.98901,6.25471-1.88498,7.9034-5.47,10.3896-7.825,12.0121-1.466.9945-2.722,1.88429-2.64299,3.5592.07799,2.1198.183,3.2975.183,3.3236.07799.9164.157,1.5444.235,1.9894.05299.314.07899.549.07899.759h-.28799c-.13101-.027-.28801,0-.39301.078-1.073.654-2.59,1.91-3.533,5.391-.12999.471-.235.864-.314,1.204-.34,1.282-.49699,1.91-1.151,3.42799-1.047,2.43401-2.198,4.083-4.31799,4.187-.31401,0-.681.053-1.04701.079-1.33499.105-2.957.236-3.952-.262-.47099-.235-.73199-.863-.65399-1.413.131-.785.78499-1.178,1.54399-1.675.34-.209.707-.445,1.021-.70599.235-.18401.57501-.524,1.099-1.257.811-1.099,1.51801-2.433,2.12001-4.004.078-.209.28799-.732.209-1.36-.078-.655-.44501-1.178-.83701-1.675-2.27699-2.827-3.87399-5.2606-4.633-6.9878-.47101-1.0992-1.36-3.1666-.65401-5.3126.23601-.6804.60201-1.3347,1.099-1.9104.23601-.2617.21001-.6805-.05199-.916-.26201-.2355-.68001-.2094-.916.0523-.62801.7066-1.07301,1.51791-1.36101,2.3554-.52299,1.59641-.34,3.1142,0,4.3181-3.61099-.1571-7.22299.0523-10.756.65421-.366.0524-.60201.4187-.52299.759.07799.3663.392.5757.75899.5234,3.61101-.6281,7.30101-.83749,10.99101-.6281.07899.2093.183.4187.26199.6019,1.021,2.32961,3.16699,5.2606,4.815,7.30161.367.445.524.73299.55,1.021.05199.314-.052.575-.13101.732-1.282,3.35-2.79999,4.685-2.82599,4.711-.26201.209-.55.393-.864.602-.89001.576-1.91,1.204-2.14601,2.565-.183,1.125.366,2.303,1.33501,2.8.785.419,1.72701.52299,2.69499.52299.96901,0,1.33501-.05199,1.96301-.104.366-.027.70699-.053.995-.079,3.40199-.157,4.789-3.402,5.46899-4.972.707-1.597.89-2.33,1.20401-3.612.07799-.34.183-.733.314-1.178.759-2.826,1.91-3.925,2.774-4.501l.759.053c.366.026.65399-.236.707-.576.07799-.60201,0-.995-.07901-1.701v-.157c.55.785,1.099,1.387,1.59601,1.936.26199.288.52399.576.733.838.367.44501.52399.733.54999,1.02.052.314-.05301.576-.13098.733-1.28201,3.35-2.80002,4.685-2.82602,4.711-.26199.209-.54999.392-.864.602-.89.575-1.911,1.204-2.146,2.564-.183,1.126.366,2.303,1.33501,2.801.418.209,1.073.314,1.989.314s2.53801-.157,4.34401-.471c1.465-.262,2.72198-1.021,3.55899-2.12.83701-1.126,1.492-2.539,1.858-3.507.49698-1.256.96799-2.539,1.439-3.769.88998-2.40701,1.832-4.89301,2.905-7.2487.681-1.4917.41901-3.2189-.65399-4.3704-1.465-1.5964-3.009-6.1239-3.58502-8.7147-.18298-2.3292-.15698-4.1873,0-5.679v-.0785c.34003-3.4806,1.28201-4.8938,1.75302-5.6266.026-.0523.05298-.0785.07898-.1309.759.2879,1.64801.4188,2.591.4188,1.439,0,3.035-.3402,4.68402-.9945,3.612-1.4394,6.51599-4.1087,7.43198-6.7781l-.15698-.02621ZM266.453,98.2143c.707.759.86398,1.9366.41898,2.9573-1.073,2.4074-2.01498,4.9204-2.931,7.3274-.47098,1.23-.94299,2.513-1.43997,3.743-.34003.889-.94202,2.172-1.70102,3.192-.62799.83801-1.62201,1.44-2.74799,1.623-3.32301.576-5.024.523-5.49501.288-.472-.236-.733-.864-.655-1.413.131-.786.785-1.178,1.54401-1.675.34099-.21001.707-.44501,1.021-.707.235-.18301.576-.523,1.099-1.256.81099-1.099,1.51799-2.434,2.12001-4.004.078-.209.28799-.733.20898-1.361-.078-.654-.44501-1.178-.83701-1.675-.23599-.28799-.49698-.576-.785-.89-.86398-.96799-1.93698-2.146-2.77399-4.0299-.02699-.0523-.07899-.1308-.105-.1832-.026-.4972-.052-1.12531-.07901-1.8581-.026-.9159.655-1.4393,2.09401-2.4338,2.04099-1.4132,4.91998-3.4021,7.01401-8.5053,0,.4449.052.9159.078,1.4132v.1046c.49698,2.1983,2.09399,7.4062,3.92599,9.369l.026-.0262Z" style="fill:#525c6d; stroke-width:0px;"/><path d="M281.21298,23.7601c.62802-.3402,2.827-1.3608,5.18201-.471.83701.314,1.59601.8374,2.25101,1.544.13.1309.314.2094.49701.2094.18298,0,.314-.0524.44498-.1832.26102-.2355.28802-.6543.052-.9421-.785-.8637-1.70099-1.4917-2.74799-1.8843-2.879-1.073-5.522.1309-6.255.5496-.314.1832-.444.5757-.26099.8898.18298.314.57498.4449.88898.2617l-.052.0261Z" style="fill:#525c6d; stroke-width:0px;"/><path d="M293.30298,30.4079c.10501.2355.34003.3664.57602.3664.23499,0,.20898,0,.28799-.0785.314-.1571.444-.5496.28699-.8898-.57498-1.1253-1.41299-2.1198-2.40698-2.8788-1.64902-1.23-3.35001-1.5702-4.50201-1.6225-.366,0-.67999.2617-.70599.6281,0,.3664.26199.6804.62799.7066.96802.0523,2.40802.3402,3.79501,1.3608.83701.6281,1.54401,1.4656,2.01501,2.4077h.02597Z" style="fill:#525c6d; stroke-width:0px;"/><path d="M293.04099,33.7569c-.26199-2.7479-2.69598-3.9779-2.80099-4.0302-.314-.157-.73199-.0262-.88901.2879-.15698.314-.026.7327.28802.8898.07797.0261,1.88397.9683,2.06699,2.9834.15701,1.7795-1.073,2.9572-1.20401,3.0881-.26199.2355-.28799.6542-.052.9421.13101.1308.31403.2094.49701.2094.18301,0,.314-.0524.44501-.1832.314-.2879,1.858-1.832,1.64899-4.1873Z" style="fill:#525c6d; stroke-width:0px;"/><path d="M220.601,64.455c-.36601,0-.73201,0-1.073.0523-.36601.0262-.62801.3664-.60101.7328.026.3664.36601.6281.70601.5757.785-.0785,1.44-.0785,2.45999.1309.65401.1308,1.15201.2879,1.649.4449,1.308.4187,2.43401.7851,4.841.1308.341-.1046.576-.4187.524-.7589-.07899-.3925-.44501-.6281-.838-.5234-2.041.5757-2.905.2879-4.108-.1047-.02701,0-.05301,0-.07901-.0261,4.397-.4973,7.511-.9683,10.83501-1.5441,3.69-.6543,6.621-1.1515,9.185-1.2823,6.30701-.3141,12.87601.9944,19.52301,3.8993h.41901c.05197,0,.10498-.0261.15698-.0785h.05301c8.793-6.7781,6.69901-14.1581,4.99799-20.0726-.65399-2.2506-1.25598-4.3704-1.22998-6.2809,0-3.1927.052-9.1596,3.92599-13.7917.73199-.8636,2.11899-2.1983,3.92499-3.3236,1.466-.9422,2.43402-1.5179,3.87302-1.6488.995-.0785,1.98898.0524,2.95798.4449.34003.1309.73203-.0261.86301-.3663.13101-.3403-.026-.7328-.366-.8637-1.17801-.4449-2.35599-.628-3.55899-.5234-1.832.1571-3.11499.9683-4.47501,1.832-2.40799,1.544-3.84799,3.1404-4.21399,3.5853-4.16101,4.9985-4.21301,11.2794-4.21301,14.6292,0,2.0674.62799,4.2919,1.28201,6.6472,1.72699,6.0454,3.50699,12.2739-4.24002,18.4501-6.72498-2.8788-13.37299-4.1873-19.758-3.8732-2.64299.1308-5.758.6804-9.34299,1.3085-3.95201.6804-7.61501,1.23-13.556,1.8057-.23601,0-.41901.1571-.524.3664v.0262Z" style="fill:#525c6d; stroke-width:0px;"/></g><circle cx="78.0752" cy="70.9668" r="68.9668" style="fill:#c35e28; stroke-width:0px;"/><path d="M91.3774,104.8c-3.5782,0-5.8935-.473-6.9985-1.417-.5525-.473-.8419-1.076-.8419-1.75851,0-2.4928,2.0259-3.0964,3.7886-3.6737,1.8154-.55099,3.6571-1.1545,4.6306-3.38499.1053-.26241.0526-1.1808,0-1.7318-.0263-.4199-.0789-.8397-.0789-1.2071,0-3.3325-1.868-3.6474-12.3395-3.9623-1.0787-.0262-2.23631-.0787-3.4729-.1049-2.0522-.0787-11.1292.7085-19.1275,1.3907-4.6569.3936-9.0507.7872-12.2342,1.0234-.5262.0262-.9735-.3411-.9998-.8659-.0263-.5249.342-.9709.8682-.9972,3.1836-.2361,7.5774-.6035,12.2079-1.0233,8.4456-.7348,17.2069-1.4957,19.3643-1.417,1.2366.0525,2.3942.0787,3.473.1049,9.7347.2887,14.1548.4199,14.1548,5.8254s.0263.6822.0526,1.0758c.07899.9972.1579,1.9418-.1315,2.6503-1.31551,3.0177-3.9202,3.8311-5.8145,4.4346-1.8681.5773-2.47321.866-2.47321,1.8631,0,.99751,0,.1835.1842.34151,1.6312,1.39,9.1559,1.128,15.3918.183,3.31499-.4458,3.394-1.2592,3.762-4.2506.342-3.49,1.78899-16.479,2.55199-20.8086.395-2.7028.289-5.01189-.342-7.1636-.18401-.5511-.395-1.0759-.605-1.6007-.632-1.6006-1.263-3.28-1.263-5.1956,0-1.9155.605-2.2041,1.447-3.7786,1.368-2.519,3.236-5.9827,3.473-11.1258.18401-4.3035-.395-14.0649-9.472-17.0825,1.97401,2.8077,5.21001,8.3182,4.65701,15.5343-.526,6.9274-6.0774,11.7819-9.8661,12.6216-.73669.1574-38.8075,1.1808-51.41,1.4694-.5262,0-.9472-.3936-.9735-.9184,0-.5248.3947-.9446.9209-.9709,14.9441-.3411,49.463-1.312,51.0943-1.4432,2.60471-.6035,7.8664-4.5133,8.3404-10.916.605-7.8721-3.7888-13.6712-5.23579-15.5605-.6052-.7872-.8946-1.1808-.6052-1.7581.1842-.3936.6841-.6035,1.10509-.4985h.1315c2.9204.551,5.4724,1.7581,7.5774,3.5949,4.052,3.5162,5.92001,8.8955,5.604,15.9803-.263,5.563-2.315,9.3941-3.683,11.9394-.658,1.2333-1.237,2.2829-1.237,2.8864,0,1.5744.553,2.9914,1.131,4.5133.211.5511.448,1.1284.632,1.7057v.0262c.684,2.4141.81499,5.0119.394,8.0033-.71,4.1197-2.157,16.6626-2.525,20.7298-.369,3.1751-.632,5.274-5.341,5.904-1.079.158-4.894.709-8.8405.814h-1.0261Z" style="fill:#fdf7ed; stroke-width:0px;"/><path d="M200.98,165.798h2.77499c.87201,0,1.636.17599,2.293.528.65601.34799,1.16701.84399,1.532,1.487.36601.64299.54901,1.403.54901,2.27899,0,.86801-.183,1.623-.54901,2.26601-.36499.63899-.87599,1.134-1.532,1.487-.657.35201-1.42099.528-2.293.528h-2.77499v-8.575ZM202.53999,167.21201v5.75999h1.215c.55501,0,1.033-.125,1.43401-.37601.405-.25099.715-.592.931-1.02399.22-.436.33099-.929.33099-1.48001,0-.55899-.11099-1.05499-.33099-1.48599-.216-.43201-.526-.771-.931-1.01801-.401-.25099-.879-.37599-1.43401-.37599h-1.215ZM212.416,174.373v-8.575h5.50999v1.34799h-3.95v2.259h3.71199v1.34801h-3.71199v2.25899h3.95v1.36101h-5.50999ZM222.56299,174.373v-8.575h3.17101c1.026,0,1.812.23999,2.358.72.55099.48.826,1.11699.826,1.909,0,.78-.27501,1.41-.826,1.89-.54601.47501-1.332.713-2.358.713h-1.612v3.343h-1.55901ZM227.2,174.373l-2.272-4.017h1.66499l2.642,4.017h-2.03499ZM224.12199,169.98599h1.453c.573,0,1.00699-.12999,1.302-.38899.295-.265.442-.606.442-1.024,0-.42799-.134-.771-.403-1.03099-.26801-.26401-.662-.39601-1.18201-.39601h-1.612v2.84ZM233.444,165.798h2.23299l2.418,5.245h-.13199l2.418-5.245h2.15399v8.575h-1.573v-6.778h.23801l-2.66901,5.84h-1.017l-2.65601-5.814h.145v6.752h-1.55899v-8.575ZM253.09099,174.373v-8.575h3.46199c.66,0,1.20901.103,1.64502.31.436.203.76199.476.978.81999.215.343.323.724.323,1.14301,0,.48399-.13599.89799-.409,1.242-.26901.343-.64801.58499-1.13699.726.32199.06599.60999.187.866.364.255.17599.45599.39799.60098.66701.15002.269.22501.577.22501.92499,0,.27301-.04901.548-.146.826-.09201.27701-.255.535-.48901.772-.22897.23399-.54398.423-.944.569-.39697.14099-.89697.211-1.5.211h-3.47499ZM254.64999,173.01199h1.87601c.49799,0,.86099-.099,1.09-.297.23401-.203.35098-.474.35098-.813s-.11899-.60999-.35699-.812c-.23801-.207-.599-.31099-1.08398-.31099h-1.87601v2.23299ZM254.64999,167.146v2.272h1.83701c.46201,0,.81198-.101,1.04999-.304.242-.207.36401-.489.36401-.845,0-.339-.11902-.61-.35699-.813-.23401-.207-.582-.31-1.04401-.31h-1.85001ZM265.59598,165.798v7.21399h3.52802v1.36101h-5.08701v-8.575h1.55899ZM276.22098,174.558c-.76199,0-1.43597-.16699-2.021-.502-.582-.33501-1.03799-.83501-1.36798-1.5-.33002-.66499-.495-1.491-.495-2.47701,0-1.004.16498-1.834.495-2.491.32999-.66.78598-1.151,1.36798-1.47299.58502-.326,1.259-.489,2.021-.489.76602,0,1.44302.168,2.02802.502.586.33099,1.04401.82599,1.37399,1.487.33099.65999.496,1.48199.496,2.46399,0,1-.16501,1.832-.496,2.49701-.32999.66499-.78799,1.16299-1.37399,1.493-.58499.326-1.26199.489-2.02802.489ZM276.22098,173.144c.70001,0,1.255-.26399,1.66501-.793.414-.528.621-1.28999.621-2.285,0-.95999-.207-1.707-.621-2.23999-.41-.533-.965-.79901-1.66501-.79901-.68698,0-1.237.26801-1.65097.806-.414.533-.621,1.28101-.621,2.246,0,.99101.207,1.75101.621,2.27901.41397.524.96399.786,1.65097.786ZM284.31598,165.798h1.70401l3.89801,6.11699h-.11902v-6.11699h1.55902v8.575h-1.586l-4.14801-6.487h.25101v6.487h-1.55902v-8.575ZM296.19098,165.798h2.77502c.87198,0,1.63599.17599,2.29199.528.65601.34799,1.16699.84399,1.53299,1.487.36502.64299.548,1.403.548,2.27899,0,.86801-.18298,1.623-.548,2.26601-.366.63899-.87698,1.134-1.53299,1.487-.65601.35201-1.42001.528-2.29199.528h-2.77502v-8.575ZM297.75,167.21201v5.75999h1.216c.55499,0,1.03299-.125,1.43298-.37601.40601-.25099.716-.592.93201-1.02399.22-.436.32999-.929.32999-1.48001,0-.55899-.10999-1.05499-.32999-1.48599-.216-.43201-.526-.771-.93201-1.01801-.39999-.25099-.87799-.37599-1.43298-.37599h-1.216ZM307.62698,174.373v-8.575h5.51001v1.34799h-3.95099v2.259h3.71298v1.34801h-3.71298v2.25899h3.95099v1.36101h-5.51001Z" style="fill:#363131; stroke-width:0px;"/><path d="M230.291,198.43401l.198-1.836h-1.321l.06599-.701h1.321l.25101-2.36501h-1.32101l.06601-.7h1.33499l.18501-1.81h.96399l-.185,1.81h2.035l.198-1.81h.952l-.185,1.81h1.347l-.07899.7h-1.34801l-.23799,2.36501h1.34799l-.07899.701h-1.34801l-.198,1.836h-.965l.19901-1.836h-2.035l-.198,1.836h-.965ZM231.51999,195.897h2.035l.25101-2.36501h-2.035l-.25101,2.36501ZM238.073,198.84399v-8.29799h5.047v.88499h-4.01601v2.76199h3.739v.88501h-3.739v3.76599h-1.03099ZM245.002,190.54601h2.431c.83699,0,1.564.172,2.17999.515.617.34,1.095.81999,1.43401,1.44099.33899.621.509,1.35201.509,2.19301,0,.83199-.17001,1.55899-.509,2.17999-.339.621-.817,1.106-1.43401,1.453-.616.34399-1.343.51599-2.17999.51599h-2.431v-8.29799ZM246.03299,191.45799v6.48701h1.40001c.62599,0,1.16299-.14101,1.612-.423.45399-.28101.802-.66701,1.04399-1.15601.24701-.493.37001-1.05.37001-1.67099,0-.625-.123-1.18001-.37001-1.66501-.24199-.489-.59-.87199-1.04399-1.149-.44901-.282-.98601-.423-1.612-.423h-1.40001ZM253.72499,198.84399v-8.29799h5.04701v.88499h-4.01701v2.76199h3.739v.88501h-3.739v3.76599h-1.03ZM260.099,198.84399l3.97699-7.31999h-4.44v-.978h5.655v.95099l-3.81799,7.347h-1.37399ZM266.84698,198.84399v-8.29799h5.11301v.88499h-4.08301v2.78799h3.845v.886h-3.845v2.84001h4.08301v.89899h-5.11301ZM274.27899,190.54601h2.431c.83701,0,1.564.172,2.181.515.616.34,1.09399.81999,1.43301,1.44099.33899.621.509,1.35201.509,2.19301,0,.83199-.17001,1.55899-.509,2.17999-.33902.621-.81702,1.106-1.43301,1.453-.617.34399-1.34399.51599-2.181.51599h-2.431v-8.29799ZM275.31,191.45799v6.48701h1.39999c.62601,0,1.16299-.14101,1.612-.423.45401-.28101.802-.66701,1.04401-1.15601.24701-.493.37-1.05.37-1.67099,0-.625-.12299-1.18001-.37-1.66501-.242-.489-.59-.87199-1.04401-1.149-.44901-.282-.98599-.423-1.612-.423h-1.39999Z" style="fill:#363131; stroke-width:0px;"/><path d="M23.44569,165.798h2.7747c.872,0,1.6362.17599,2.2924.528.6562.34799,1.1671.84399,1.5327,1.487.3655.64299.5483,1.403.5483,2.27899,0,.86801-.1828,1.623-.5483,2.26601-.3656.63899-.8765,1.134-1.5327,1.487-.6562.35201-1.4204.528-2.2924.528h-2.7747v-8.575ZM25.00479,167.21201v5.75999h1.2156c.5549,0,1.0328-.125,1.4336-.37601.4052-.25099.7157-.592.9315-1.02399.2202-.436.3303-.929.3303-1.48001,0-.55899-.1101-1.05499-.3303-1.48599-.2158-.43201-.5263-.771-.9315-1.01801-.4008-.25099-.8787-.37599-1.4336-.37599h-1.2156ZM34.88169,174.373v-8.575h5.5097v1.34799h-3.9506v2.259h3.7128v1.34801h-3.7128v2.25899h3.9506v1.36101h-5.5097ZM45.02799,174.373v-8.575h3.1711c1.0262,0,1.8123.23999,2.3585.72.5505.48.8258,1.11699.8258,1.909,0,.78-.2753,1.41-.8258,1.89-.5462.47501-1.3323.713-2.3585.713h-1.612v3.343h-1.5591ZM49.66569,174.373l-2.2726-4.017h1.6648l2.6426,4.017h-2.0348ZM46.58709,169.98599h1.4534c.5726,0,1.0064-.12999,1.3015-.38899.2951-.265.4426-.606.4426-1.024,0-.42799-.1343-.771-.403-1.03099-.2686-.26401-.6628-.39601-1.1825-.39601h-1.612v2.84ZM55.90949,165.798h2.2329l2.418,5.245h-.1322l2.418-5.245h2.1537v8.575h-1.5724v-6.778h.2379l-2.669,5.84h-1.0174l-2.6558-5.814h.1454v6.752h-1.5591v-8.575ZM78.68769,174.558c-.70029,0-1.3323-.185-1.896-.55499-.5638-.37001-1.013-.88501-1.3477-1.54601-.3303-.66499-.4955-1.44-.4955-2.325,0-.701.1013-1.328.3039-1.88301.207-.55499.49329-1.028.8588-1.42.3656-.392.79501-.68999,1.2883-.892.4932-.207,1.0284-.31099,1.6053-.31099.80161,0,1.4733.174,2.015.52199.5461.34801.9711.89601,1.275,1.645l-1.5987.37c-.2247-.366-.4845-.64299-.77959-.832-.2907-.194-.621-.291-.991-.291-.4228,0-.8081.125-1.1561.37701-.3479.24599-.6254.601-.8324,1.06299-.207.463-.3105,1.013-.3105,1.65201,0,.599.09029,1.123.2709,1.57199.185.44901.4426.79901.7729,1.05.3304.252.7135.377,1.1495.377.37,0,.7003-.08099.991-.244.2951-.168.5263-.40599.6937-.71399.1717-.308.2576-.68001.2576-1.116h.3436c0,.713-.0859,1.332-.2577,1.85599-.1674.524-.4294.929-.7862,1.216-.3567.286-.8147.429-1.3741.429ZM80.98669,174.373l-.2246-1.88901v-1.48l-1.929-.03999v-.991h3.4221v4.39999h-1.2685ZM86.8765,174.373v-8.575h1.5591v8.575h-1.5591ZM93.25409,165.798h1.70451l3.8977,6.11699h-.1189v-6.11699h1.55959v8.575h-1.586l-4.1488-6.487h.251v6.487h-1.5591v-8.575ZM108.26099,174.558c-.7,0-1.332-.185-1.896-.55499-.564-.37001-1.013-.88501-1.348-1.54601-.32999-.66499-.495-1.44-.495-2.325,0-.701.101-1.328.304-1.88301.20699-.55499.493-1.028.85899-1.42.36501-.392.79501-.68999,1.288-.892.493-.207,1.028-.31099,1.605-.31099.80199,0,1.474.174,2.015.52199.546.34801.971.89601,1.275,1.645l-1.598.37c-.22501-.366-.485-.64299-.78001-.832-.291-.194-.62099-.291-.991-.291-.423,0-.808.125-1.156.37701-.348.24599-.626.601-.833,1.06299-.207.463-.31001,1.013-.31001,1.65201,0,.599.09,1.123.271,1.57199.185.44901.442.79901.773,1.05.32999.252.713.377,1.14899.377.37,0,.701-.08099.991-.244.295-.168.527-.40599.694-.71399.172-.308.258-.68001.258-1.116h.343c0,.713-.086,1.332-.258,1.85599-.167.524-.429.929-.786,1.216-.356.286-.814.429-1.374.429ZM110.55999,174.373l-.224-1.88901v-1.48l-1.929-.03999v-.991h3.422v4.39999h-1.269ZM116.437,174.373v-8.575h5.509v1.34799h-3.95v2.259h3.713v1.34801h-3.713v2.25899h3.95v1.36101h-5.509ZM126.58299,174.373v-8.575h3.17101c1.026,0,1.812.23999,2.35899.72.55.48.825,1.11699.825,1.909,0,.78-.27499,1.41-.825,1.89-.547.47501-1.33299.713-2.35899.713h-1.612v3.343h-1.55901ZM131.22099,174.373l-2.27299-4.017h1.66499l2.642,4.017h-2.034ZM128.142,169.98599h1.45399c.57201,0,1.006-.12999,1.30099-.38899.295-.265.44301-.606.44301-1.024,0-.42799-.13501-.771-.403-1.03099-.269-.26401-.66301-.39601-1.183-.39601h-1.612v2.84Z" style="fill:#363131; stroke-width:0px;"/><path d="M50.54499,198.43401l.1982-1.836h-1.3213l.0661-.701h1.3213l.251-2.36501h-1.3213l.0661-.7h1.3345l.185-1.81h.9645l-.185,1.81h2.0348l.1982-1.81h.9513l-.185,1.81h1.3477l-.0792.7h-1.3477l-.2379,2.36501h1.3477l-.0792.701h-1.3477l-.1982,1.836h-.9646l.1982-1.836h-2.0347l-.1982,1.836h-.9646ZM51.77379,195.897h2.0348l.251-2.36501h-2.0347l-.2511,2.36501ZM61.20739,199.002c-.7311,0-1.3609-.18199-1.8894-.548-.5285-.37-.9359-.881-1.2222-1.53299-.2862-.65601-.4294-1.416-.4294-2.27901,0-.92.1542-1.696.4625-2.325.3127-.63.7355-1.106,1.2684-1.427.5373-.326,1.1407-.489,1.8101-.489.8853,0,1.5966.222,2.1339.66699.5417.44.9139,1.015,1.1165,1.72401l-1.1099.22499c-.1717-.515-.447-.925-.8258-1.229-.3743-.308-.8126-.46199-1.3147-.46199-.436,0-.839.125-1.2089.37599-.3656.24701-.6607.617-.8853,1.11-.2246.493-.3369,1.103-.3369,1.83,0,.661.0881,1.24901.2642,1.76401.1806.515.4493.92.806,1.21599.3612.29501.8148.442,1.3609.442.6563,0,1.176-.17599,1.5592-.528.3875-.353.5813-.815.5813-1.388h1.1231c0,.595-.1365,1.106-.4096,1.533-.2731.423-.6562.74899-1.1495.978-.4889.229-1.057.343-1.7045.343ZM69.01989,199.002c-.41399,0-.8148-.05699-1.20229-.17101-.3832-.11899-.7289-.291-1.0372-.51599-.3039-.229-.54401-.511-.7201-.845-.1762-.33501-.26431-.72301-.26431-1.16299h1.057c.0088.379.11011.698.3039.95799.1938.25999.4515.45599.773.588.3259.132.6892.198,1.09.198.6166,0,1.09451-.14999,1.4336-.44899.3392-.3.50871-.67401.50871-1.123,0-.287-.0705-.54001-.2114-.76001s-.3655-.392-.6738-.515c-.3039-.12799-.7047-.192-1.2024-.192h-.9381v-.819h.6342c.643,0,1.1495-.12799,1.5195-.383.3699-.256.5549-.608.5549-1.05699,0-.397-.1497-.731-.4492-1.005-.2995-.27299-.7267-.409-1.2817-.409-.4272,0-.8082.088-1.1429.26399-.3347.172-.5615.489-.6804.951h-1.05711c.0705-.515.2379-.931.50211-1.248.2643-.317.599-.54601,1.0042-.687.4052-.146.8544-.218,1.3477-.218.5505,0,1.0416.097,1.4732.28999.4317.194.7708.461,1.0174.8.2511.339.37659.729.37659,1.16901,0,.43599-.1255.81099-.37659,1.123-.2466.30899-.6056.54599-1.07681.71399.5241.149.9513.39601,1.2816.74001.3347.343.50211.784.50211,1.321,0,.476-.1255.89799-.3766,1.26801-.2466.366-.5989.65399-1.057.866-.458.207-1.002.31-1.63181.31ZM76.62809,199.002c-.52409,0-1.0019-.09399-1.43359-.284-.4316-.189-.77731-.467-1.0372-.832-.2598-.37-.3919-.82201-.3963-1.354h1.0306c0,.502.17609.88.5285,1.136.3567.255.7927.383,1.308.383.5946,0,1.0615-.181,1.4006-.54199.3435-.36501.5153-.815.5153-1.347,0-1.06601-.6871-1.599-2.0612-1.599h-2.2198l.3568-4.017h4.59801v.93799h-3.7656l.2114-.35699-.2775,2.894-.1321-.119c.2114-.04799.4514-.08099.7201-.099.2687-.02199.50871-.03299.7201-.03299.8985,0,1.6098.2,2.1339.601s.78609.998.78609,1.791c0,.537-.12109,1.021-.3633,1.453-.2423.427-.588.76599-1.0372,1.017-.4449.24699-.9734.37-1.5856.37ZM81.6814,198.84399v-8.29799h5.1134v.88499h-4.0828v2.78799h3.8449v.886h-3.8449v2.84001h4.0828v.89899h-5.1134ZM88.62509,198.84399v-1.22899c0-.48001.077-.88101.2312-1.20201.1585-.32199.3787-.588.6606-.79999.2863-.21101.6232-.39401,1.0108-.548l1.6384-.64799c.4228-.17101.7399-.39201.9513-.66.2114-.269.3171-.604.3171-1.004,0-.423-.1475-.76901-.4426-1.03801-.2907-.26799-.6981-.403-1.2222-.403-.5197,0-.9469.11301-1.2816.33701-.3304.22099-.5197.55299-.5682.998h-1.1495c.0308-.48.1718-.888.4228-1.222.2555-.33501.6012-.588,1.0372-.76001.436-.17599.9447-.26399,1.5261-.26399.5329,0,1.0108.103,1.4336.31s.7553.494.9975.85901c.2467.36099.37.77699.37,1.24899,0,.427-.0793.799-.2378,1.116-.1586.317-.3854.59-.6805.819-.2907.229-.6364.425-1.03719.588l-1.678.67401c-.42281.16299-.7399.35899-.9513.588-.2114.22899-.3171.526-.3171.892v.396h4.8226v.952h-5.8532ZM99.48729,199.002c-.65179,0-1.2288-.103-1.7309-.31-.4976-.207-.8896-.491-1.1759-.85201-.2819-.362-.4228-.771-.4228-1.229,0-.41899.1079-.778.3237-1.077.2202-.3.5197-.52899.8985-.687.3831-.16299.817-.245,1.3014-.245.1278,0,.25111.00699.37.01999.1189.013.2466.03801.3832.07301v.30399c-.4405,0-.8258.07201-1.1562.218-.3303.14101-.5879.328-.7729.561-.185.23399-.2775.485-.2775.754,0,.325.09911.603.2973.832.1982.22501.4669.396.806.515.3435.11501.7289.172,1.1561.172.71371,0,1.26871-.11499,1.6647-.34399.397-.229.595-.528.595-.89799,0-.3-.106-.54601-.317-.74001-.207-.194-.494-.35699-.859-.489l-2.286-.87201c-.2775-.10599-.5594-.25099-.8457-.43599-.2818-.185-.5197-.416-.7135-.694-.1937-.27701-.2906-.605-.2906-.98401,0-.42699.12109-.806.3633-1.136.2422-.33099.5902-.588,1.0438-.77299.4581-.19,1.0064-.284,1.645-.284.5857,0,1.10571.101,1.5587.304.458.198.817.47099,1.077.819.26.343.39.735.39,1.17599,0,.343-.088.66301-.264.95801-.172.28999-.427.526-.767.707-.334.17599-.748.26399-1.242.26399-.118,0-.23299-.007-.34309-.02-.10571-.01799-.2246-.04599-.3567-.086v-.33c.3567,0,.6778-.06.9648-.17899.286-.123.513-.29201.68-.50801.172-.216.258-.467.258-.75299,0-.27301-.084-.51601-.251-.72701-.163-.216-.392-.383-.687-.502-.291-.123-.6301-.185-1.0177-.185-.3743,0-.7113.05899-1.0108.17799-.295.11501-.5285.271-.7002.46899-.1718.194-.2577.41-.2577.64801,0,.295.0991.533.2973.713.2026.17599.4823.33099.839.463l2.2861.87201c.608.22899,1.074.5,1.4.812.326.313.489.73799.489,1.27499,0,.436-.132.82401-.396,1.16301-.264.33499-.645.597-1.143.786-.498.19-1.099.284-1.8037.284Z" style="fill:#363131; stroke-width:0px;"/></g><g style="clip-path:url(#d);"><circle cx="78.1307" cy="318.44601" r="68.951" style="fill:#08090b; stroke-width:0px;"/><g style="clip-path:url(#e);"><path d="M100.419,293.23481c.307,0,.616-.045.92-.135.783-.2336,1.43-.743,1.841-1.4437.655.3152,1.41.4024,2.138.2195,1.619-.4024,2.643-1.984,2.384-3.6021.577-.1267,1.117-.4109,1.55299-.8415,1.135-1.1144,1.261-2.8704.369-4.1283.464-.3743.822-.8781,1.019-1.4634.273-.8077.214-1.6744-.166-2.4399-.318-.6416-.82999-1.1453-1.464-1.4549.237-.5657.307-1.196.189-1.8208-.16-.8386-.636-1.5646-1.342-2.0431-.597-.4052-1.301-.5966-2.007-.5459-.084-.6388-.36-1.241-.813-1.7335-1.123-1.2186-2.98-1.3621-4.275-.3827-.419-.4897-.982-.8471-1.6349-1.0103-1.6153-.4053-3.256.4981-3.7963,2.0402-.6388-.1688-1.3227-.1322-1.9615.1182-.7936.3124-1.4183.9146-1.7588,1.697-.2758.6332-.3377,1.3198-.18861,1.9811-.5206.1661-.99059.4672-1.3677.8837-1.0187,1.1228-1.089,2.7804-.256,3.9764-.3968.2786-.7289.6473-.9653,1.0891-.4052.7514-.4953,1.6153-.2505,2.4314.197.6613.5938,1.2298,1.13699,1.635-.2167.3546-.3603.7458-.4278,1.1539-1.5422,1.5731-3.4755,2.6931-6.315,3.6471-.439-1.2382-1.6209-2.1275-3.0055-2.1275-.4137,0-.8217.0816-1.1988.2392-.636-1.4718-2.2908-2.2654-3.8611-1.787-.3686.1126-.7119.2927-1.0159.5263-.9709-1.2242-2.7213-1.5844-4.1087-.7767-.32919.1913-.61629.4361-.8498.726-1.1595-1.0328-2.938-1.0919-4.16779-.0675-.2786.2307-.5122.5065-.69231.8104-.5488-.3742-1.196-.5628-1.877-.5515-.8527.0225-1.6463.3742-2.2345.9934-.2223.2335-.4024.4924-.5403.771-1.3001-.6922-2.9577-.408-3.9455.7627-.1829.2195-.3348.4559-.453.7092-1.2861-.6473-2.8958-.3574-3.8695.7851-.1604.1886-.2955.394-.4052.6107-1.2298-.6642-2.8001-.4615-3.8189.591-.1407.1463-.7795,1.4886-.7795,1.9445,0,.9315.5431.9343.8949.8612.3518-.0732.6163-.3715.6473-.7289.0225-.2533.1154-.6219.4193-.9371.287-.2983.6754-.4672,1.0891-.4756.4193.0056.8076.1463,1.1059.4334.076.0731.152.1688.2252.287.1998.3124.5825.4503.9343.3433.3545-.1097.5881-.4418.5769-.8104-.0141-.3912.1153-.7683.3602-1.0553.5544-.6529,1.5365-.7317,2.1866-.1773.0929.0788.1829.1857.2786.3292.2082.3124.5994.4447.954.3208.3546-.1238.5797-.4699.5487-.8442-.0337-.4109.0929-.8133.3574-1.1285.5516-.6557,1.5338-.7401,2.1867-.1885.1069.09.2026.2054.3011.363.1998.3152.5853.4559.9427.3433.3546-.1126.591-.4531.5713-.8245-.0225-.4334.1266-.8415.4193-1.151.2842-.3011.6698-.4728,1.0863-.4841.4221-.014.8076.1407,1.1087.425.1492.1407.2646.3067.349.4953.1576.3574.5431.5515.9259.4699.3799-.0844.65-.4249.6444-.8133-.0056-.4784.1942-.9202.5488-1.2185.6585-.5488,1.6378-.4559,2.1866.1998.121.1464.2138.318.2786.5094.11819.3574.46429.5938.8414.5628.3771-.0281.6838-.3095.7458-.6838.0788-.4644.3461-.8612.7401-1.0891.7401-.4306,1.6913-.1801,2.1219.56.0759.1295.1294.2814.1688.47.0704.3461.3546.6078.7036.65.3517.0451.6866-.1407.8414-.4587.1913-.4024.5262-.6923.9427-.8189.819-.2476,1.6885.2139,1.9362,1.0328.04781.1604.0675.3321.0563.5291-.0169.3489.1857.6697.5093.802s.6951.045.9259-.2139c.3039-.3405.71481-.529,1.1566-.529.8555,0,1.5534.6979,1.5534,1.5534,0,.0112.0028.0225.0028.0366,0,.0281.00571.0563.00851.0844s.0084.0563.0169.0844c.0028.0113.0028.0225.0056.0338.0056.0169.0112.0281.0169.045.0084.0197.014.0394.0225.0563.0141.031.0309.0591.0478.0872.0085.0141.0141.0282.0254.0394.02811.0394.0591.0788.0928.1126.0338.0338.0704.0619.1098.0901.014.0084.0281.0168.0394.0253.0281.0169.0563.0338.0872.0478.0169.0085.03381.0141.0507.0197.0309.0113.0647.0225.0956.031.0141.0028.0282.0084.0451.0112.0506.0085.0985.0169.15189.0169.0535,0,.0985-.0056.1464-.014.0169-.0029.0309-.0057.04501-.0113.0141-.0028.031-.0056.045-.0113,3.0337-.9258,5.2597-2.043,7.0129-3.5402.6867,1.348,2.2626,2.0572,3.7597,1.6069.0113-.0028.0254-.0084.0366-.0112.0619.1519.1351.2954.21671.4361-2.3582,3.6416-5.22311,7.497-9.2923,8.738-.0113.0028-.0197.0085-.0282.0113-.0309.0112-.0591.0225-.0872.0366-.0197.0112-.0422.0197-.0619.0337-.0254.0141-.0479.031-.0704.0479-.0197.014-.03941.0309-.0591.0478s-.0394.0394-.0563.0591-.0337.0394-.0506.0591c-.0141.0197-.02821.0422-.04221.0647-.0141.0254-.0282.0507-.0423.076-.0056.0113-.0112.0197-.0168.031-.0057.0112-.0057.0253-.0113.0366-.0112.0281-.0197.0562-.0253.0844-.0056.0253-.0113.0478-.0141.0732-.0028.0281-.0056.0534-.0084.0816v.0816c0,.0253.0028.0506.0084.0731.0056.031.0113.0591.0169.0873.0028.0112.0028.0253.0084.0366.0028.014.0113.0253.0169.0394.0056.0197.0141.0394.0225.0562.0141.0282.0282.0563.0422.0817.0085.014.0169.0309.02821.045.0225.0338.0478.0647.0732.0928.0056.0057.0112.0141.0168.0197.0338.0338.0732.0648.1126.0929.0113.0085.0225.0141.0366.0225.0309.0197.0647.0394.0985.0535.0084.0028.0141.0084.0197.0113.79079.332,1.1622,1.241.833,2.0318-.0225.0506-.0507.0957-.0788.1407l-.0282.045c-.1716.2927-.1463.6642.0648.9287.21381.2673.56561.3743.89211.2701.4502-.1435.9258-.0844,1.3114.1633.3489.2251.5881.5712.6782.9765.0872.4052.014.8189-.21111,1.1707-.0197.0309-.0422.0534-.0647.0788l-.0563.0647c-.21671.2617-.2505.6276-.0844.923.166.2955.4981.4588.833.4109.4559-.0647.9089.0676,1.2438.363.3096.2758.4953.6529.52061,1.0666.0254.4137-.1097.8133-.38551,1.1229-.031.0337-.0675.0619-.1013.09l-.0535.045c-.2617.228-.3517.5938-.2251.9146.1238.318.4277.5235.7654.5235h.0169c.45589-.0113.9062.1773,1.2045.5178.273.3124.408.712.3799,1.1256-.0281.4137-.2139.79079-.5262,1.0666-.0338.031-.0929.0676-.1576.1098l-.0254.0169c-.2955.1913-.4362.5515-.3489.892.0872.3434.3827.5882.7345.6135.4756.0338.89771.2702,1.1622.6473.4925.7007.3208,1.6716-.3799,2.16129-.0338.02531-.0929.05341-.1548.0844l-.0394.0197c-.3152.1604-.4924.5065-.439.8555.0535.3489.3265.6247.6782.6838.4672.076.8668.349,1.0947.7486.2055.3602.2618.7767.152,1.1791-.1069.3996-.36581.7345-.72321.93999-.0225.0112-.0479.01971-.0704.03091l-.09.0366c-.3208.1379-.515.46429-.4925.8105.02531.3461.2673.64159.6022.7317.4447.121.7964.408.9934.8104.1801.3743.2054.79359.0704,1.1876-.13509.3912-.4165.7064-.7767.8837l-.03941.014c-.0366.0113-.0732.0254-.10979.0394-.3236.1239-.5347.4334-.5291.7796.0057.3461.228.65.5544.7626.425.14629.7542.44749.9259.8471.3377.7879-.0281,1.7025-.79359,2.0318l-.031.0084c-.03651.0113-.0759.0225-.1125.0338-.3293.1098-.5544.4137-.56.7626-.00851.3462.2054.6614.529.78519.4137.1576.7317.4671.8921.86681.3152.7907-.0675,1.6913-.8555,2.01489.0028,0,.0056,0-.0028,0-.0394.0112-.0788.01971-.1182.03381-.3321.1041-.56.408-.5713.7542-.0112.3461.197.6641.5178.7907.4081.1604.7176.47.8752.8668.152.3855.1464.8077-.0197,1.1876-.1604.3715-.453.6585-.8301.8161-.0394.0084-.0788.0197-.1182.0338-.3293.1069-.5544.4108-.5657.757-.0112.3461.1998.6613.5234.7879.3997.1548.7092.4559.8724.8471.3237.7795-.0365,1.6772-.8048,2.0149-.0338.00851-.0675.01971-.1041.03101-.3265.11819-.5432.4249-.5432.7711,0,.3461.2167.6557.5404.771.3939.1436.7091.4306.8836.8106.1717.377.1885.799.045,1.188-.14349.388-.4305.69701-.80759.872-.03661.017-.076.025-.1154.039l-.0732.023c-.3433.10999-.5769.42799-.5741.78799s.242.678.5854.779c.45869.138.82449.46201.99899.89201.3236.794-.0591,1.7-.8527,2.02399-.0506.019-.12659.039-.2223.062-.3377.081-.5882.366-.6248.712-.0365.346.1492.675.4616.824.4474.214.757.608.8555,1.081.1716.83801-.3715,1.66-1.2101,1.832-.076.017-.1689.02-.2589.022-.3293.012-.61909.22-.7373.527-.1182.306-.0422.655.1941.883.3603.35201.5291.833.4616,1.32-.0563.411-.2702.774-.5994,1.024-.3293.251-.7402.358-1.14819.302-.21111-.029-.4137-.105-.6051-.22-.2589-.16-.5853-.163-.8498-.008-.2618.154-.4194.441-.4025.745.03101.631-.31799,1.21-.8864,1.481-.3743.17699-.7964.197-1.1876.056-.3912-.14101-.7035-.425-.878-.799-.0113-.04-.0254-.079-.0394-.118-.1238-.32401-.439-.527-.7852-.527-.3461.009-.6501.231-.7598.56-.13789.414-.4278.74-.81609.921-.7711.354-1.68851.019-2.05151-.743-.0113-.04-.0254-.079-.0394-.119-.121-.318-.4278-.529-.7655-.529h-.0169c-.3461.009-.64999.231-.7626.56-.1407.414-.4306.74001-.8161.91801-.3771.171-.7992.188-1.1876.045-.3884-.144-.6979-.431-.8724-.808-.0225-.04501-.03381-.096-.04781-.14301l-.0141-.05099c-.0141-.048-.0338-.09-.0535-.132-.0056-.014-.014-.026-.0225-.04-.0169-.031-.0366-.059-.0563-.087-.0084-.014-.0197-.025-.0309-.037-.0253-.031-.0563-.059-.0873-.087-.0056-.005-.0084-.011-.014-.014-.076-.062-.121-.233-.1098-.293.107-.273.0619-.579-.1182-.81-.1801-.231-.4728-.346-.7598-.304-.7795.113-1.5196-.374-1.7195-1.128-.21951-.828.27579-1.68,1.1032-1.9.3011-.079.6163-.068.909.03699.30669.107.64719.025.8696-.211.2223-.237.28419-.583.1604-.881-.1773-.42-.1689-.87.0225-1.269.2392-.501.7176-.825,1.2832-.87.3208-.025.5966-.236.70641-.538.1097-.303.0338-.641-.197-.866-.17451-.169-.3011-.363-.37711-.572-.28989-.79.1097-1.66801.88931-1.97501.0281-.006.0591-.014.0872-.02499.3349-.11.56-.42001.5628-.772.00291-.351-.2166-.667-.5487-.782-.3771-.132-.6867-.397-.8668-.746-.3715-.714-.1322-1.581.5544-2.017.2871-.181.4334-.521.3658-.8531-.0647-.3321-.32919-.591-.66409-.6501-.3321-.0591-.6276-.2138-.85271-.4502-.5375-.5629-.5656-1.4465-.0647-2.05151.2167-.2646.2476-.63319.0788-.9315-.1689-.2955-.5066-.4587-.84151-.4025-.2504.03941-.62749.0423-1.00739-.1716-.7401-.4193-1.0047-1.3564-.5966-2.0966.0253-.0337.0506-.0675.0731-.1013.19141-.29269.1773-.6726-.0365-.95119-.2139-.2758-.5798-.38831-.909-.2786-.439.1464-.9146.0957-1.2945-.1379-.7317-.4474-.9625-1.4042-.515-2.1359.0338-.0535.0872-.11819.1463-.1886.2223-.2645.2561-.6388.0844-.9371-.1716-.2983-.5149-.4587-.8526-.3996-.4756.0844-.94839-.0478-1.29739-.3574-.3095-.27579-.4953-.6557-.51781-1.0694-.0253-.4137.1154-.8133.3912-1.1228.0366-.0394.0929-.0873.1745-.1548.2645-.2223.363-.5853.2448-.909-.11819-.3236-.4249-.5403-.7711-.5403-.4812,0-.923-.20821-1.21291-.5713-.2589-.3236-.3771-.7288-.3321-1.1397.0451-.4137.2477-.7823.5713-1.0412.045-.0366.1126-.076.1998-.1239.3011-.1744.4587-.5178.394-.8583-.0619-.3405-.3321-.605-.6754-.6613-.47559-.0788-.878-.3546-1.106-.7627-.2026-.3602-.2532-.7795-.1407-1.1791.1126-.3996.3715-.7317.7345-.9343.0479-.0281.1182-.0535.21671-.09.3236-.1239.5347-.4362.5291-.7824-.0056-.3461-.2308-.6501-.55721-.7626-.45589-.15479-.80769-.49249-.96809-.9315-.0197-.0563-.04501-.1069-.076-.1548.0282-.3264-.1407-.6529-.4531-.8077-.4052-.2026-.8977-.0337-1.1003.3715-.2673.53751-.7964.86961-1.3846.86961h-.0197c-.0591,0-.1153.0056-.1716.0197-.3799-.1745-.6754-.4756-.8161-.8611-.0366-.0985-.0619-.20831-.0788-.3321-.0479-.35741-.3237-.6445-.6782-.70361-.3574-.0591-.7092.1211-.8696.4447-.2674.5403-.8021.8696-1.3987.8696-.3236,0-.636-.10979-.9061-.3096-.2786-.2054-.6557-.2167-.9428-.0225-.287.1914-.4249.5459-.3405.8808.0366.152.0563.2758.0535.3856-.0056.8527-.7007,1.5393-1.5534,1.5393h-.0113c-.3292,0-.6472-.1154-.923-.3236-.2786-.2111-.6614-.2251-.9512-.031-.2927.1942-.4278.5516-.3405.8893.0422.1632.0619.2983.0591.4165-.0141.8471-.7092,1.5253-1.5506,1.5253h-.0282c-.4699-.0085-.8048-.2252-1.0046-.4081-.2702-.2448-.6698-.28139-.9822-.09-.3123.1913-.4587.5656-.3602.9174.0535.1942.0732.3686.0591.5375-.0675.85271-.8105,1.5028-1.6688,1.4268-.47-.0366-.7936-.2758-.9821-.47-.2505-.2561-.636-.3208-.9568-.1604-.3209.1604-.4982.5094-.4419.8639.031.197.031.37711,0,.54321-.166.8414-.9821,1.3902-1.8235,1.2241-.4362-.0844-.7233-.3405-.8865-.5375-.2167-.2617-.5685-.36021-.8893-.2561-.3208.107-.5431.3997-.56.7374-.0084.1885,1.1988,1.64059,2.0234,1.6688,1.6209.0562,3.149-.6248,3.6471-2.1304.2392.0788.4897.1323.743.152,1.5984.12379,3.0168-.9512,3.3629-2.468.2251.0563.4587.0872.6923.0928h.0591c1.5281,0,2.8198-1.0834,3.1237-2.5327.1857.03661.3771.0535.5685.0563h.0253c1.5309,0,2.817-1.0835,3.1237-2.5299.1801.0337.3659.0506.5516.0534.6923,0,1.3536-.211,1.8911-.605.1069.1491.2251.2898.3574.4165-.9287.9906-1.1538,2.5074-.4559,3.7512.2336.4165.5544.7655.9343,1.0328-.2842.4222-.4643.909-.5206,1.4296-.0929.8471.1491,1.6829.6838,2.3471.2983.3742.6726.6669,1.0947.8695-.5572,1.2383-.2786,2.7495.7908,3.7007.3602.3208.7824.5487,1.2354.6782-.3377,1.3226.20551,2.7691,1.4268,3.5177.3743.22791.788.3743,1.2129.4333-.1463,1.2411.4447,2.5075,1.5985,3.1604.2167.12099.4446.2166.6782.28419-.2617,1.0328.0056,2.1641.7795,2.9774.1435.1519.3039.287.4728.4052-.60229.93111-.6895,2.1361-.1464,3.1861.1436.275.3265.529.53751.748-.8526.853-1.1875,2.153-.7485,3.36.0169.042.0309.087.0506.13-.605.315-1.1059.819-1.4042,1.446-.2026.422-.304.884-.3068,1.345-.1998.014-.3968.048-.5909.099-.8246.219-1.5141.746-1.9446,1.483-.4278.737-.5432,1.598-.3265,2.423.3152,1.19,1.2777,2.05701,2.4286,2.299-.0056.166,0,.335.0226.501.2279,1.745,1.8348,2.983,3.5796,2.755.6388-.084,1.2157-.349,1.68-.757.3377.363.7542.644,1.2326.819.7993.295,1.6688.262,2.4427-.093.3546-.163.6698-.385.9343-.656.9203.859,2.30479,1.126,3.5177.569.3546-.163.6698-.386.9343-.656.3152.293.6867.52399,1.1032.673.80479.287,1.6716.245,2.4427-.118.8076-.38,1.39861-1.067,1.6688-1.88.05061.008.1013.017.1519.025.8443.118,1.6857-.104,2.3639-.619.6811-.515,1.1173-1.266,1.2355-2.111.0759-.55399,0-1.114-.20551-1.62399,1.2833-.621,2.03471-2.05701,1.7364-3.514-.1014-.496-.3152-.94901-.622-1.334,1.0385-.867,1.4521-2.339.9146-3.659-.16599-.408-.4108-.771-.7204-1.069.9062-.918,1.1988-2.339.6304-3.5769-.1548-.3349-.3602-.636-.6107-.89211.8611-.8893,1.1651-2.2401.6613-3.453-.1463-.3489-.3461-.6641-.5966-.9343.29549-.287.5347-.6332.7036-1.0243.3405-.7824.3546-1.652.0394-2.4455-.1436-.36311-.349-.69231-.60509-.9709.9118-.87521,1.2551-2.2485.757-3.4924-.1463-.3687-.363-.7036-.6332-.9878.909-.8977,1.22701-2.2935.6951-3.5346-.1604-.3743-.3911-.7091-.6754-.9934.3068-.3236.54321-.7119.6951-1.1481.2786-.8049.228-1.6717-.14349-2.4399-.1857-.37991-.4418-.71481-.7542-.9906.2983-.3518.5178-.7711.6417-1.2298.2223-.8245.1097-1.6857-.3152-2.423-.2223-.3855-.5178-.7148-.8696-.9709.7767-1.0722.8302-2.5637.0281-3.709-.2589-.3687-.5909-.6726-.968-.8978.2448-.4193.39111-.89491.4249-1.39581.0563-.8499-.2223-1.6744-.7823-2.316-.2983-.3406-.6614-.6079-1.0666-.7908.1914-.4503.2786-.9428.2448-1.4465-.0534-.8527-.4334-1.6322-1.075-2.1951-.3405-.3011-.7401-.5234-1.1707-.6528.1239-.4784.1351-.9822.0282-1.4803-.1801-.833-.6754-1.5478-1.393-2.0093-.3968-.2561-.8415-.4137-1.3002-.4756.0732-.802-.1632-1.5956-.6444-2.226,3.74-1.6913,6.4135-5.2146,8.6338-8.617.0057,0,.0085.0057.0141.0085,1.1088.5966,2.4174.4756,3.3854-.2308.2055.1942.4334.363.6867.5009.4728.2561.9906.3856,1.5109.3856l.02.0112ZM69.6799,340.00341c-.4418.1463-.9146.0957-1.2973-.1379-.3546-.2167-.6023-.5572-.6979-.9596-.0985-.4024-.031-.8189.1857-1.1735.0338-.0535.0872-.11819.1463-.1886.2223-.2645.2561-.6388.0844-.9371-.1716-.30109-.5121-.45869-.8526-.3996-.47559.0816-.94839-.0478-1.29739-.3574-.6388-.5685-.69791-1.5506-.1266-2.1922.0366-.0394.0929-.0873.1745-.1548.2645-.2223.363-.5854.2448-.909-.11819-.3236-.4249-.54031-.7711-.54031-.4812,0-.923-.2082-1.2129-.5713-.2589-.3236-.3771-.7288-.3321-1.1397.0451-.4137.2477-.7823.5741-1.0412.0422-.0338.1098-.0732.197-.1239.2983-.1745.4587-.5178.394-.8583-.0619-.3405-.3321-.605-.6754-.6613-.4756-.0788-.878-.3546-1.106-.7598-.4193-.7458-.1547-1.69421.5938-2.1135.0451-.0253.1126-.0506.197-.0844h.031c.6894,0,1.3339-.22511,1.8658-.6135.1069.152.2251.2955.3574.4249-.349.37151-.6051.8218-.7458,1.3255-.23071.8217-.1266,1.6829.28989,2.4286.23351.4165.55441.7655.9343,1.0328-.2843.4222-.4644.909-.5206,1.4296-.0929.84711.1491,1.6829.6838,2.347.2983.37431.6726.667,1.0947.86961-.5572,1.2383-.27859,2.7495.7908,3.7006.3602.3209.7823.5488,1.2354.6783-.14349.5572-.12659,1.1397.03101,1.68-.152-.0394-.3124-.0394-.4672.0113l-.0028-.0113ZM73.2117,366.67091c-.4109.053-.819-.057-1.1482-.31-.3293-.253-.5403-.619-.5938-1.03-.03381-.25,0-.507.1041-.765.107-.273.0619-.583-.1182-.811-.1801-.231-.46989-.34299-.7598-.304-.7823.11-1.5196-.37099-1.7194-1.128-.107-.4-.0507-.819.1575-1.17699.2083-.357.5432-.61301.94559-.72.3011-.079.6163-.068.909.036.30389.107.64719.026.8696-.211.2223-.236.2842-.582.1604-.88-.1773-.42001-.1689-.87.0225-1.26701.2392-.501.7176-.824,1.2832-.869.3209-.026.5966-.237.7064-.538.1097-.304.0309-.642-.197-.867-.1745-.168-.3011-.363-.37711-.571-.28989-.79401.1126-1.674.88931-1.97501.0281-.009.0591-.015.0872-.02599.3349-.11.56-.41901.5628-.771.00291-.352-.2166-.667-.5487-.782-.3771-.132-.6867-.397-.8668-.746-.3714-.715-.1322-1.582.5544-2.018.2871-.18.4334-.5203.36591-.8524-.0648-.3321-.3293-.591-.6642-.6501-.3321-.0591-.6275-.2138-.8527-.4502-.53751-.5629-.56561-1.4465-.0675-2.0516.2167-.2645.2504-.6331.0788-.9315-.1689-.2954-.5038-.4558-.8415-.4024-.2504.0394-.6275.0422-1.0074-.1716-.7402-.4194-1.0047-1.3565-.5966-2.0966.0253-.03381.0506-.0675.0731-.1013.03381-.0507.0563-.1041.0788-.1576.228.2927.5094.5488.8443.7542.3743.2279.7879.3743,1.2129.4334-.1463,1.241.4446,2.5102,1.5984,3.1631.2167.121.44469.2167.6782.2842-.2589,1.0328.0057,2.1641.77959,2.9774.1435.15199.3011.28699.4727.405-.6022.932-.6894,2.13599-.1463,3.186.1435.276.3265.529.53751.748-.85271.853-1.18761,2.153-.7486,3.361.0169.042.0338.087.0507.129-.605.315-1.106.819-1.4043,1.447-.2026.422-.3039.883-.3067,1.345-.197.014-.3968.047-.591.098-1.70261.45-2.72131,2.204-2.2682,3.90601.3321,1.253,1.3789,2.147,2.6087,2.32999.0422.164.10699.32401.1858.473-.2449.307-.5966.507-.9934.56001v-.005ZM98.3027,290.27721c-.2701,0-.5262.1322-.6782.3602-.4502.6613-1.31419.8752-2.0093.5009-.50649-.273-.81609-.8077-.80479-1.3958.0056-.3237-.1801-.6192-.4728-.757-.2927-.1379-.6388-.0901-.8837.121-.1688.1463-.35741.2504-.56281.3123-.8189.2477-1.6885-.2223-1.9333-1.0412-.1886-.6276.0478-1.3086.5853-1.6969.2589-.1858.3856-.5066.3265-.819-.0591-.3123-.2955-.5628-.60229-.6416-.1463-.0366-.2589-.0788-.3545-.1323-.36591-.197-.6304-.5234-.7514-.9202-.1182-.3968-.076-.8161.121-1.1819.2336-.4334.6529-.7233,1.1538-.7936.3518-.0507.63319-.3208.6951-.6726.0619-.3518-.1098-.7007-.425-.8668-.1378-.0731-.2392-.1407-.3236-.2167-.6332-.5769-.681-1.559-.1041-2.1922.3208-.3546.78799-.5347,1.2804-.4925.318.0253.6248-.1351.7824-.4137s.1379-.6247-.0479-.8836c-.09-.1238-.1491-.2308-.1913-.3321-.3124-.7964.0816-1.6997.878-2.0121.5094-.1998,1.075-.1154,1.5168.2279.2561.197.60509.228.8893.076.287-.1519.4531-.4587.4306-.7823-.0141-.1886-.0029-.349.0337-.4897.2111-.8302,1.0582-1.3339,1.8855-1.1256.5291.135.9428.5318,1.1004,1.0693.0928.318.3715.5488.7005.5826.335.0337.647-.1323.808-.4222.093-.1688.191-.2983.301-.4024.63-.5797,1.612-.5403,2.195.0901.369.3996.495.9568.338,1.4887-.093.3151.014.6585.267.8667.253.2083.611.2449.903.0901.164-.0873.299-.1379.431-.1632.405-.076.819.0084,1.165.242.343.2336.574.5853.653.9934.098.5234-.076,1.0553-.473,1.4239-.242.228-.326.5798-.208.8921.118.3124.414.5207.746.5291.183.0056.326.0281.456.0703.394.1323.709.4109.894.7824.183.3715.214.7936.082,1.1847-.166.4953-.571.8696-1.081,1.0047-.32.0844-.56.3518-.605.681-.045.3293.11301.6529.397.819.141.0844.245.1604.327.242.599.6106.591,1.5956-.02,2.195-.372.3659-.901.5178-1.416.4081-.326-.0704-.661.0647-.849.3405-.189.2758-.192.636-.006.9146.11.1632.18.3208.21899.4756.206.8302-.30099,1.6744-1.131,1.8827-.557.1378-1.145-.0479-1.534-.4897-.214-.242-.548-.3377-.858-.242-.31001.0957-.53201.363-.57401.681-.02499.1998-.08199.3827-.169.5431-.197.3659-.52299.6304-.92.7514-.397.1182-.816.076-1.1821-.121-.2786-.152-.5037-.3855-.6472-.6754-.1295-.2617-.3884-.4334-.6782-.4531h-.0563l-.00851-.014Z" style="fill:#f6eedf; stroke-width:0px;"/></g><circle cx="257.013" cy="318.44601" r="68.95099" style="fill:#525c6d; stroke-width:0px;"/><g style="clip-path:url(#f);"><path d="M280.46301,302.33891c.996-2.9879.86099-6.4131.73199-9.7276-.14999-3.8521-.30499-7.8359,1.315-11.074.01599-.0343.03198-.0685.04498-.1054.40601-1.2146,1.65402-2.3502,2.98001-3.5543,1.74701-1.5861,3.72299-3.3831,4.35999-5.9309l.021-.1844c0-2.3529-1.09299-4.1946-3.07999-5.1879-2.98801-1.4939-7.71399-.8774-10.776,1.4201l-.03198.0238c-5.21103,4.5608-5.414,11.0476-5.61203,17.321-.13098,4.1972-.26797,8.534-1.918,12.2491l-.04999.1607c-.19699.9907-.51401,1.9076-.91901,2.748-.00598,0-.01099.0027-.01599.0053,0,.0132-.005.0264-.008.0395-2.147,4.379-6.81601,6.616-10.681,5.9757l-5.13-.137c-10.284-.2582-20.855-.5217-31.312-.772-.395-.0079-.74001.2688-.81401.6613-.04199.2345.01801.4743.166.6587.15001.1845.371.2925.608.2978.33.0079.65901.0158.98601.0237.263.2819.369.7114.121,1.0012-.395.4558-.45601.5691.153.6534.416.058,1.00899-.0211.25299.5691-.04799.0369.11301.5059.282.6192.203.1344.51601.0949.78001.1476.20499.0421.40799.1053.61099.1607-.187.0685-.38499.1185-.556.216-.203.116-.382.2714-.569.4111.211.1712.41299.3556.64.5058.076.0501.213,0,.32201.0211.15799.0264.31299.0738.46899.1107-.151.1264-.285.2793-.45399.3715-.18401.1001-.403.1317-.595.2187-.132.0579-.24501.1607-.366.2424.08899.1159.155.2898.271.3346.395.1502.806.25031,1.209.3794.095.0316.17999.1027.26599.1554-.086.0554-.17099.1318-.26599.1634-.10001.0316-.229-.0105-.321.0316-.27901.1291-.548.2819-.819.42419.192.1686.403.3215.569.5138.17599.2055.416.44.437.6798.045.4848-.213,1.0697-.01801,1.4438.168.3294.785.4269,1.20401.6271-.33.3188-.886.5006-.688,1.1382.01601.0501.032.1397.05499.1423.841.1133,1.12001.6297,1.04901,1.4175-.00301.0343.187.0711.274.1265.901.5612,1.784,1.1487,2.70099,1.6836.384.224.82201.411,1.254.46899.19501.0237-.45099-.82729-1.099-1.0803-.097-.0369-.21899-.0052-.32399-.0316-.192-.05-.382-.1212-.57201-.18179.19501-.0632.39-.1265.588-.1871.147-.0447.298-.0895.44501-.1317-.161-.1396-.3-.35571-.485-.40051-.674-.1739-1.362-.2845-2.04201-.4347-.12599-.029-.237-.12389-.355-.1897.08701-.058.168-.1265.25999-.1739.19501-.0949.388-.2029.59601-.2609.319-.0895.64799-.1422.972-.2107-.342-.1423-.672-.3373-1.03-.4163-.366-.0791-.759-.0317-1.138-.0712-.13701-.01311-.269-.1106-.401-.1686.14301-.1528.256-.3636.42999-.4426.18401-.0844.429-.0211.63701-.0712.235-.0553.459-.1633.685-.2477-.2-.12379-.397-.2529-.60001-.3715-.14-.0816-.306-.1264-.42499-.2292-.276-.245-.964.2029-.895-.4637.015-.13699.73199-.2398,1.13499-.2846.19301-.021.403.1687.60901.1818.12399.0079.25499-.1422.38499-.2213-.09-.0843-.172-.2292-.272-.245-.58499-.0843-1.17799-.11069-1.75999-.21339-.18401-.0316-.33701-.2319-.506-.35571.179-.0554.35899-.1502.53799-.15549.54201-.0184,1.088.0079,1.633-.0052.14-.0027.28-.0791.41701-.1212-.14301-.1476-.267-.3294-.438-.4295-.12601-.0738-.319-.029-.479-.0527-.73799-.1159-1.476-.2292-2.211-.3583-.147-.0264-.284-.116-.424-.1766.174-.0606.345-.1502.524-.1765.79599-.11591,1.597-.19501,2.38699-.3293.15601-.02641.28-.2293.41901-.3505-.179-.079-.355-.2081-.54001-.2239-.543-.0448-1.088-.029-1.62799-.0764-.108-.0106-.274-.2003-.274-.3057s.16299-.2345.284-.3082c.082-.0501.216-.0079.319-.0343.675-.1607,1.347-.332,2.01801-.498-.729-.1475-1.457-.3161-2.194-.4347-.53-.0843-1.07001-.0975-1.60501-.1423.51901-.1765,1.028-.3926,1.56001-.5217.414-.1001.85599-.0869,1.28299-.1238-.474-.1686-.946-.3425-1.42299-.5032-.10001-.0343-.216-.0132-.32401-.0264-.474-.058-.946-.1212-1.42-.1818.506-.0632,1.017-.1001,1.515-.2002.353-.0712.688-.224,1.033-.3399-.29001-.0896-.57701-.1897-.867-.2714-.414-.1159-.83-.2134-1.244-.332-.145-.0421-.282-.1212-.42101-.1818.17601-.0579.35001-.1581.52901-.1686.435-.0211.87801.0474,1.30499-.0105.582-.0765,1.164-.1977,1.71701-.3847.151-.0501-.64801-.2899-.17101-.5296,1.01201.0237,2.024.05,3.033.0738.021.0079.039.0237.06.0289.70399.2345,1.423.4111,2.13699.6113.201.0553.403.1133.604.1713-.18199.0658-.35899.1475-.54601.1949-.41299.1081-.84599.1608-1.241.3136-.203.0764-.487.3241-.47699.4769.01399.1976.245.4479.448.5585.48999.2688,1.265.2635.85399,1.2094-.04999.1159.34001.5033.59001.6613.498.3109,1.054.527,1.56.8247.416.2451.464.3689-.07401.6666-.39999.224-.39999.9749.084,1.2463.58.3214.464,1.0144.75101,1.2594.688.58231.01599.83791-.063,1.2462-.045.2293.04201.56651.198.73251.245.25819.577.4795.914.59019.70599.2292,1.489.2951,1.57001,1.2963.013.1686.269.332.435.469.293.2398.77699.30299.50099.9274-.071.1608.35501.6561.653.8458,1.017.6534,2.16901.4953,3.291.39259.121-.0105.22101-.224.332-.3425-.12399-.0817-.23999-.2082-.37399-.2398-.51401-.1186-1.03601-.2029-1.552-.3083-.13701-.0289-.26601-.10011-.401-.1501.132-.07121.27699-.1239.396-.2135.332-.2529.65001-.519.974-.7799-.382-.158-.75-.3688-1.14799-.4637-.46899-.1106-.96201-.0975-1.439-.1844-.132-.0237-.23201-.2108-.34801-.3241.12199-.0685.24001-.1923.36101-.1976.52199-.0237,1.10399-.1159,1.002-.7483-.093-.5744-.71701-.55061-1.218-.53751-.16301.0053-.332.0237-.49001-.0079-.869-.1791-1.73599-.3741-2.603-.5638.83299-.03951,1.60201-.6086,2.498-.2793.121.0448.37399-.2688.56599-.4189-.13899-.1212-.26599-.3188-.424-.3505-.403-.0843-.68201-.3214-.364-.63229.778-.7535-.03101-.86951-.405-.97221-.767-.2108-1.576-.2793-2.364-.4137-.15201-.0263-.3-.0975-.45001-.1475.17401-.0791.34001-.1976.51901-.2319.67999-.1291,1.37-.195,2.039-.3636.198-.05009.332-.36359.493-.5559-.164-.1002-.314-.2424-.49001-.2925-1.173-.3452-2.34999-.6666-3.52299-1.0091-.13701-.0395-.25301-.1555-.377-.2371.12399-.1028.237-.2741.37399-.2978.52701-.0975,1.07001-.1212,1.59201-.2345.17099-.0369.29999-.2687.448-.4136-.16101-.137-.298-.3399-.48201-.3979-.25099-.079-.541-.0263-.80699-.0685-.68201-.108-1.362-.2318-2.04201-.361-.09399-.0184-.179-.0948-.26799-.1449.105-.0658.20299-.1712.31299-.1897.52701-.0843,1.07001-.0922,1.578-.2371.28-.079.498-.3689.743-.5612-.23399-.1317-.45299-.3162-.70299-.3873-.561-.1555-1.138-.2661-1.705-.3979,3.30699.0817,6.606.1634,9.894.2451.168.0421.334.0816.5.1317.19499.0606.39-.0158.58299-.1054h.10501c.01599.166.12399.3399.269.5006.298.3267.68199.5744,1.02699.8563-.46899.1001-.935.1976-1.40399.2977-.155.0343-.311.0791-.466.1186-.564.1423-.567.5849-.235.8247.511.3715.58501.5322-.01801.8484-.543.2819-.66899.5955-.06599,1.075.869.6903.817.7878.85899,1.9892.01001.2556.261.5692.48701.7351.799.585,1.27299,1.3675,1.44199,2.3213.04401.2477.332.55331.57901.64291.651.2397,1.25999.37939,1.46199,1.23569.12201.5085,1.44701.743,1.966.4848.092-.0448.179-.1028.269-.1555-.06599-.04739-.129-.1054-.2-.137-.23999-.1054-.491-.195-.728-.3083-.13699-.0658-.258-.1686-.38699-.2555.14999-.0527.319-.0791.44299-.166.24699-.1739.46899-.3821.701-.577-.259-.11861-.517-.23721-.77501-.35571-.243-.108-.493-.20029-.72499-.3241-.095-.0501-.216-.1713-.218-.2608-.021-.909-.008-.938-.543-1.0513-1.188-.253,0-.3636.039-.5243.04799-.1924.185-.3636.282-.54539-.179-.0791-.35001-.1976-.537-.2345-.67999-.1344-1.368-.2424-2.05299-.3663-.155-.029-.308-.0869-.461-.1317.129-.0764.25299-.16859.39299-.22919.24501-.1054.51601-.1581.743-.2951.216-.1318.38501-.3373.57201-.5112-.209-.0553-.433-.0764-.62-.1739-.5-.2661-.608-.5322.03499-.7825.11301-.0448.158-.2635.23401-.4005-.105-.0211-.211-.0553-.31599-.0659-.27101-.0263-.548-.0105-.80901-.0737-.11301-.029-.274-.2108-.26601-.3136.00801-.108.177-.2239.3-.2951.08501-.0474.21899-.0026.319-.0368.187-.0606.366-.1502.548-.2266-.134-.1344-.245-.3215-.408-.3953-.427-.1923-.87799-.3346-1.31999-.4979.45-.0764.90399-.1502,1.35399-.2345.10301-.0211.19501-.0922.293-.137.55-.2556.606-.6034.10201-.9354-.355-.2345-.772-.3741-1.133-.5981-.08701-.0553-.12401-.1923-.166-.3188,1.38899.0343,2.772.0685,4.14999.1028.04001.0052.07901.0079.119.0132.06799.0079.13699.0026.20799-.0053,1.08.0263,2.158.0553,3.23001.0817l5.14299.1264c2.03201.3294,3.979.0395,5.733-.6824-.01498.0553-.02899.1107-.047.1634.177.0316.379.1343.53.0843.698-.2371,1.38-.5164,2.07101-.7799.181-.0685.36298-.1317.54498-.2002-.13699.1738-.26099.3609-.414.519-.448.4585-.92499.8932-1.354,1.3701-.11099.1212-.17398.4057-.10498.5348.06.1133.33899.1634.513.1476.18698-.0158.36099-.1528.548-.2187.36899-.1265.741-.2371,1.10999-.3557-.28201.2872-.57501.5639-.84299.8616-.13.1449-.23001.3188-.31403.4953-.07898.166-.11899.3504-.17697.527.22699.0658.47998.2318.67798.1791.47601-.1212.927-.3477,1.39102-.5216.12598-.0475.26099-.0659.392-.0975,0,.1475.04199.3109-.00803.44-.06799.1818-.24698.3293-.297.5111-.164.5955.17401.8958.793.7404.19202-.0474.40302-.058.57703-.1423.60797-.303.84-.2793.45798.4479-.03101.0633.25601.419.37399.4111.37701-.0317.746-.1581,1.11002-.2793.23099-.0791.44501-.2134.66599-.3215-.013.0316-.02899.0606-.04498.0896-2.474,2.366-4.75299,4.6636-6.13901,7.4222-2.35001,3.93629-1.91199,8.4523-1.491,12.8182.21899,2.2527.44299,4.5845.29999,6.853v.05531l.03201,11.1821c.06299,1.792.02399,7.949-3.19601,12.004-.33499.422-.75897.783-1.26199,1.075-.229.134-.461.274-.698.41901-1.12799.688-2.295,1.396-3.618,1.465-.93199.05-1.86499-.427-2.382-1.217-.29199-.446-.21799-.599.00301-.82,3.80501-3.804,5.55901-9.106,5.325-12.375-.13998-1.95-.92499-3.5152-2.282-4.5322l-.05-.0343c-1.99699-1.2488-4.19699-2.3923-6.32599-3.5016-2.026-1.05389-4.07301-2.12099-5.99101-3.2987.097-.1212.20801-.3162.28201-.4506.073-.1343.04999-.3214.092-.4769.04199-.1554.11299-.3003.17099-.4505.121.1554.26901.3004.358.4743.09801.187.10301.4347.224.6007.261.3636.569.6929.85901,1.0355.30099-.28989.62199-.56129.901-.8722.55099-.6086,1.647-.6428,1.78099-1.6888.10301.0342.22701.1212.306.0895.27901-.108.62401-.1897.80101-.4031.403-.4848.48199-1.3595,1.468-1.0355.07899.0264.297-.1712.347-.303.414-1.0987.812-2.2026,1.194-3.3119.04199-.1238-.03401-.2898-.05501-.4347-.166.1212-.425.2108-.485.3715-.27899.7509-.48799,1.5282-.76399,2.2791-.06601.1765-.298.2898-.45601.4347-.06599-.1686-.121-.3425-.20599-.5032-.065-.1265-.166-.2319-.25-.3478-.108.0948-.261.1686-.313.28979-.274.635-.51199,1.28841-.79401,1.91811-.05499.1212-.25499.1792-.38899.2661-.03999-.1396-.09-.2792-.12199-.4215-.071-.3267-.134-.6587-.20001-.9854-.14699.3135-.295.6297-.44499.9432-.14.28979-.287.577-.424.8669-.108.2318-.20601.4689-.30901.7061-.021-.2635-.05501-.5243-.05501-.7878,0-.2161.11101-.4532.05301-.64291-.069-.2187-.269-.3952-.411-.59019-.15001.1449-.39801.2714-.43201.4426-.164.7984-.25099,1.6125-.409,2.4109-.039.19759-.31601.5375-.353.519-.369-.1686-.319-.4005-.158-.7667.23199-.5322.35001-1.1303.414-1.7126.039-.361.403-.8379-.187-1.1145-.13501.3293-.26901.65871-.401.9907-.02101.05-.013.11591-.04201.1554-.05299.0685-.12599.1212-.19.1792-.039-.0949-.108-.1871-.11299-.2846-.011-.1607.069-.3425.021-.4848-.082-.24239-.23199-.4584-.356-.685-.179.1818-.41299.3399-.519.5586-.11301.2344-.08701.5322-.147.7983-.106.4505.026,1.0276-.625,1.1935-.03099-.3925-.037-.7878-.10199-1.1751-.035-.19759-.17401-.37669-.26701-.5638-.20499.1186-.513.1897-.592.3662-.20599.4506-.367.9222-.53799,1.3886-.03101-.0159-.06-.0317-.095-.0422-2.468-1.7258-4.60001-3.7256-6.02501-6.2576.052-.1317.108-.2635.166-.3926.04401-.0975.10501-.1844.158-.2766.058.0843.129.1633.17101.2555.174.3794.23999.91171.53,1.10661.424.282.851-.0184,1.14799-.4426.061-.0869.32201-.1028.459-.0553.814.274,1.19101-.1897,1.48-.83521.095-.21349.222-.41109.332-.6166.05101.2029.043.46371.166.59811.19801.21339.472.411.746.4769.09801.0237.31601-.3478.43201-.5638.07399-.1344.05-.3215.092-.4769.043-.15549.114-.3004.172-.4506.121.1555.26801.3004.358.4743.097.187.103.4347.224.6007.261.36359.569.69299.85901,1.0355.29999-.2899.62199-.5612.901-.8721.55099-.6087,1.64699-.6429,1.78099-1.6889.103.0342.229.1212.308.0896.28-.1081.625-.1898.80101-.4032.403-.4848.48199-1.3595,1.46799-1.0354.07901.0263.298-.1713.34801-.303.41299-1.0987.811-2.2027,1.19299-3.3119.04201-.1239-.034-.2899-.05499-.4348-.166.1212-.424.2082-.485.3715-.27901.7509-.487,1.5282-.76399,2.2791-.06601.1765-.298.2898-.45601.4347-.06599-.16859-.121-.3425-.205-.5032-.06599-.1265-.166-.2319-.25099-.3478-.108.0949-.26001.1686-.313.2898-.274.63499-.511,1.2884-.793,1.9181-.056.1212-.256.1792-.39.2662-.04001-.1397-.09-.2793-.121-.4216-.07201-.3267-.13499-.6587-.201-.9854-.147.3135-.295.6297-.44499.9432-.14.2899-.287.5771-.42401.8669-.10799.2318-.20599.469-.308.7061-.021-.2635-.056-.5243-.056-.7878,0-.216.11101-.4532.05301-.6429-.06801-.2187-.269-.3952-.41101-.5902-.14999.1449-.39799.2714-.43199.4427-.16299.7983-.25,1.6125-.409,2.4108-.039.1976-.31601.5375-.35301.519-.368-.1686-.31799-.4004-.15799-.7667.23199-.5322.351-1.13029.414-1.7126.03999-.36089.403-.8378-.18701-1.11449-.13399.3294-.269.6587-.40099.9907-.02101.05-.013.1159-.04201.1554-.052.0685-.12601.1212-.189.1792-.04001-.09489-.108-.1871-.114-.2846-.01001-.1607.069-.3425.021-.48479-.08101-.2397-.231-.4584-.355-.68501-.179.1818-.414.3399-.51901.5586-.114.2345-.08699.5322-.14799.7983-.105.4506.026,1.0276-.62399,1.1936-.03201-.39259-.037-.7878-.10301-1.17509-.034-.1977-.174-.3768-.26599-.5639-.20601.1186-.51401.1897-.593.3662-.287.6271-.485,1.2937-.748,1.934-.05.1238-.245.1923-.37199.2845-.06601-.1159-.18201-.2292-.192-.3504-.05-.5823-.061-1.1672-.11101-1.7495-.01599-.1897-.116-.3715-.179-.5559-.14.1844-.319.353-.40799.5585-.08501.1924-.061.4295-.11101.6403-.16299.6745-.327,1.3516-.519,2.0182-.03999.13969-.20599.24239-.314.361-.05501-.1396-.147-.2793-.16-.4242-.09-.9564-.15601-1.9155-.24001-2.8745-.026-.2951-.09-.5876-.134-.8801-.151.2372-.32199.4638-.44299.7141-.069.1396-.034.32671-.082.4795-.20799.635-.42101,1.2673-.632,1.8997-.459-.9591-.81999-1.9893-1.065-3.1091-.05199-.245-.213-.4479-.43999-.5559-.22601-.108-.487-.108-.716.0079-.32401.1581-.50101.54539-.41901.91949.93201,4.2526,3.30901,7.3274,6.36,9.8119-6.06.1002-11.021.3452-15.47099.5692l-1.98401.0974c-.237.0106-.453.1239-.59799.3109-.145.1871-.201.4295-.151.6614.08.3794.409.64291.78799.64291h.04001l1.98399-.0975c2.82401-.1397,5.86-.2925,9.258-.4084.00301.0053.00601.0132.00801.0184,1.073,2.1474,2.422,4.0365,3.72299,5.8677,1.246,1.7495,2.535,3.56001,3.547,5.554.61101,3.283-1.09099,5.718-2.896,8.294-.804,1.149-1.636,2.335-2.282,3.62801-.05501.111-.084.238-.084.361,0,.34299.07401.701.22099,1.06799.53801,1.343,1.905,2.25201,3.40401,2.265h.043c2.10699,0,3.58299-1.312,3.98599-1.715.037-.037.07101-.079.10001-.124,3.836-5.754,7.989-12.438,9.18001-19.4443,1.127.6086,2.237,1.23569,3.27699,1.8839.965.7324,1.507,1.8544,1.61301,3.33041.237,3.33299-1.85201,8.112-4.856,11.119-.57201.571-1.075,1.533-.211,2.85.80099,1.223,2.14499,1.95,3.599,1.95.07399,0,.14499,0,.222-.005,1.73099-.09,3.13501-.946,4.37601-1.699l.04199-.027c.211-.129.41901-.255.62698-.377.677-.395,1.25403-.888,1.71503-1.467,3.56497-4.49,3.61499-11.12199,3.547-13.042l-.03201-11.1243c.14801-2.3898-.08099-4.7769-.30499-7.0876-.41699-4.3052-.80899-8.3707,1.28299-11.8538.01001-.0185.021-.0369.03101-.0554,1.397-2.79549,3.905-5.18,6.561-7.7067,3.125-2.972,6.358-6.0468,8.099-10.1175l.02399-.0606.01602.0079ZM281.62701,275.86731c-.63501.2792-1.24103.6218-1.88101.8852-.263.1081-.582.0791-.875.1107.12399-.2002.23001-.4163.37399-.5981.30099-.3715.62799-.7219.93301-1.0882.06299-.0764.142-.2503.11899-.274-.108-.0975-.28-.2424-.37399-.2108-.85101.2951-1.69202.6245-2.535.938-.177.0659-.36099.1054-.543.1555.11899-.1686.21899-.3583.36099-.5059.522-.5375,1.08002-1.0381,1.57001-1.5993.14801-.1686.11401-.4927.164-.7456-.23199.0342-.48999.0158-.69.1132-.435.2161-.82001.5349-1.26001.7272-.40598.1792-.85898.2477-1.28799.3636.319-.2845.65302-.5559.948-.8615.185-.1924.293-.4532.461-.6587.33002-.3979.67999-.7825,1.02002-1.1699-.57703.0712-1.15903.116-1.728.2266-.25302.0501-.47202.2503-.71701.3557-.18701.0791-.39301.1186-.59302.1739.134-.1607.25-.3478.41101-.4795.293-.2424.66699-.4058.909-.6851.34302-.3978.59799-.8721.89099-1.3147-.388.1396-.77197.2819-1.15997.4216.28497-.3057.59097-.6034.91699-.8932,2.55301-1.8997,6.61099-2.4556,9.04498-1.2384,1.423.7114,2.15802,1.9366,2.18701,3.6439-.54199,2.0104-2.22299,3.5385-3.85199,5.0166-.32401.2951-.64502.5876-.95401.8774.14499-.3162.29001-.6323.435-.9485-.39499.0501-.793.0975-1.185.1581-.103.0158-.203.0685-.298.1185-.48499.2504-.97.5033-1.45499.7562.31699-.4215.64301-.8378.94598-1.2673.11099-.1555.16901-.3478.24802-.5243-.18701.0026-.39801-.0501-.556.0184l.005.0027ZM240.754,351.07191c-.013-.071-.037-.14-.06799-.203-1.07501-2.1474-2.422-4.0392-3.726-5.86771-1.13-1.5888-2.29501-3.225-3.257-5.0061,2.024-.0606,4.174-.1054,6.479-.1291,2.424,1.64671,5.114,3.04581,7.77299,4.4291.461.2397.927.4821,1.394.7271-1.007,6.8737-5.151,13.5537-8.959,19.2737-.59799.579-1.649,1.196-2.82401,1.196-.851-.008-1.62-.509-1.916-1.249-.04199-.10799-.073-.20799-.08899-.30299.582-1.117,1.33299-2.192,2.06-3.23,1.937-2.767,3.939-5.625,3.136-9.641l-.00301.003ZM270.487,311.17331c-.45001.2318-.89801.4663-1.34601.7008.29501-.3899.59601-.7746.87802-1.1751.10199-.1449.155-.3241.23099-.4874-.17401,0-.36899-.0475-.51599.0158-.58801.2582-1.14902.577-1.742.822-.242.1002-.54001.0738-.811.1028.11301-.1844.211-.3847.34799-.5533.27902-.3452.582-.6692.866-1.0091.061-.0712.13202-.2319.11102-.253-.10001-.0896-.26102-.2239-.34802-.1949-.78998.2713-1.56699.5796-2.34998.8694-.16302.0606-.33401.0975-.50302.1449.11099-.158.203-.3319.33401-.4689.483-.498,1.00198-.9617,1.45499-1.4834.13699-.1555.10501-.4558.14999-.6903-.21597.0316-.45599.0131-.63998.1054-.40302.2002-.759.4953-1.16699.6745-.37701.1659-.79602.2292-1.19702.3372.29602-.2635.60602-.5138.88-.7983.172-.1766.272-.419.42999-.6113.306-.3689.63-.7246.94601-1.0855-.535.0658-1.073.108-1.60199.2108-.23502.0447-.43802.2318-.664.3293-.17401.0738-.366.108-.548.1607.026-.0316.05298-.0658.07898-.1001,1.78101-1.0302,3.29602-2.5136,4.41302-4.2156.15799-.1133.306-.2451.46399-.3636-.05499.2345-.14001.469-.16101.7061-.04498.5796.28702.9063.73502.6534.64798-.3662,1.33301-.7087,2.19501-1.2515.021-.0132.564,1.262.59299,1.4807.11801.8827.45801.7193,1.31699.6139.57202-.0685,1.138-.2529,1.67603-.461.21899-.0844.35599-.3742.53-.5692-.23502-.0474-.491-.1765-.69601-.1212-.45099.1212-.327.0844-.75598.2741-.24002.1053-.48203.245-.36603-.1318.065-.2108.11801-.7404.13901-.9669-.216.1264-.95398.7219-1.172.8484-.32199.1818-.57199-1.8339-.53-1.9788-.18399,0-.414-.0685-.543.0185-.52399.3478-1.00601.7588-1.53,1.1092-.19501.1291-.45901.1528-.69299.224.04999-.2108.10001-.4216.14999-.635.09201-.39.18701-.7773.27899-1.1672-.26898.0896-.53699.1792-.806.2714.461-.9406.806-1.9208,1.01199-2.9115.17603-.4031.33401-.8141.479-1.2278.13702-.0711.272-.1449.40601-.2213.229-.1317.427-.3188.63699-.4795-.05499.2397-.142.4769-.16299.7193-.047.5902.293.9221.746.6666.65799-.3715,1.23801-1.0091,1.92801-.0738.01401.0184.19501-.0632.28198-.1238.746-.5112,1.59702-.6297,2.47202-.7351.57901-.0712.73999.0105.914.5717.069.2266.353.39.53799.5797.065-.2345.216-.4848.17599-.6983-.09-.4637-.40298-1.6862-.83798-1.4965-.242.1054-.97501.5665-.85602.1818.06601-.2134.05002-.4532.07101-.6824-.21899.1291-.43701.2635-.659.3899-.32602.1871-.65302.3715-.98203.5507-.09299.0501-.20099.0659-.30298.0975.03598-.1423.07599-.2846.116-.4268.04199-.1476.08398-.2951.12601-.4453-.18701,0-.42203-.0685-.55103.0184-.53497.3531-1.02499.772-1.55698,1.1277-.19702.1317-.466.1555-.703.2292.04999-.216.10001-.4294.15198-.6455.095-.3952.19-.7904.285-1.1883-.379.1265-.759.2477-1.133.3847-.09698.0343-.18698.108-.26898.1739l-.01801.0158c-.15302.3583-.37201.7061-.65601,1.0434.92499-2.8535,1.18301-5.9072,1.30701-8.9398.62399-.2451,1.21399-.5349,1.65399.3926.01099.021.20599-.0238.30099-.0659.83002-.3583,1.689-.3083,2.56601-.245.582.0421,1.186-.029,1.763-.1318.23401-.0421.42899-.303.63998-.4637-.224-.0922-.453-.274-.672-.2582-.47198.0316-.93799.1554-1.40399.2582-.259.058-.41901.0975-.23001-.2582.10602-.1976.13702-.4347.203-.6561-.23898.0843-.479.1739-.72198.253-.35501.1185-.711.2397-1.07202.3478-.09998.0316-.211.0263-.31598.0368.06598-.1317.129-.2634.19501-.3952.06799-.137.13898-.274.211-.411-.185-.0342-.401-.1475-.54602-.0896-.59299.2424-1.15399.5612-1.74698.8063-.21802.0922-.487.0632-.73502.0869.09201-.2002.18201-.4031.27402-.6034.16898-.3715.34-.7403.50897-1.1092-.26398.0343-.53.0685-.793.1028.13702-4.3421.30002-8.5051,2.039-11.9988.03201,0,.06302,0,.09201-.0105.754-.2556,1.48901-.556,2.23502-.8405.19498-.0738.392-.1423.59-.2161-.14801.1871-.28201.39-.448.5612-.48502.4954-.99902.9643-1.46201,1.4781-.11902.1318-.18802.4374-.116.577.065.1212.366.1766.55298.1608.203-.0185.39001-.166.59302-.2345.39798-.137.798-.2582,1.19901-.3847-.306.3083-.62003.6086-.909.9301-.14001.1554-.24802.3451-.34003.5348-.08499.1792-.12698.3768-.19.5691.24503.0712.51602.2503.73001.195.51599-.1317,1.00101-.3741,1.50201-.5638.134-.0501.28198-.0712.42099-.1054,0,.1607.04501.3346-.008.4742-.073.1976-.26599.3531-.32101.5533-.177.6429.18701.967.85602.801.20798-.0527.435-.0632.62198-.1554.65601-.3268.90601-.303.49503.4821-.03403.0685.27399.4532.40298.4427.40601-.0343.80701-.1713,1.19699-.303.25-.0843.479-.2293.71902-.3478-.10303.2239-.23203.44-.298.6745-.05801.2055-.05801.3847-.013.5269-.49802.6034-.89801,1.2331-1.13602,1.9234-1.78299,3.6018-1.62,7.7752-1.46201,11.817.12903,3.304.25,6.4262-.638,9.1216-1.53799,3.5701-4.42899,6.4183-7.293,9.1506-.29498.0369-.59.0737-.88199.1185-.095.0158-.18701.0633-.27701.1107l-.00299.0053ZM241.703,338.92801c-.058-.0369-.116-.0764-.174-.1133.03899-.0685.07899-.1396.118-.2081.02699.1027.037.216.056.32401v-.0026Z" style="fill:#f6eedf; stroke-width:0px;"/></g><path d="M12.2814,413.29491h2.7746c.8721,0,1.6362.17599,2.2925.528.6562.34801,1.1671.843,1.5327,1.48601.3655.64299.5483,1.403.5483,2.28,0,.86699-.1828,1.623-.5483,2.26599-.3656.638-.8765,1.134-1.5327,1.48601-.6563.35199-1.4204.52899-2.2925.52899h-2.7746v-8.575ZM13.8405,414.7079v5.761h1.2155c.555,0,1.0328-.125,1.4336-.37599.4052-.252.7157-.593.9315-1.024.2203-.437.3304-.92999.3304-1.48,0-.56-.1101-1.05501-.3304-1.487-.2158-.431-.5263-.77101-.9315-1.017-.4008-.25101-.8786-.37701-1.4336-.37701h-1.2155ZM23.7174,421.8699v-8.575h5.5097v1.347h-3.9506v2.25999h3.7128v1.347h-3.7128v2.26001h3.9506v1.36099h-5.5097ZM33.8636,421.8699v-8.575h3.1711c1.0262,0,1.8124.24001,2.3585.72.5505.48.8258,1.116.8258,1.909,0,.77901-.2753,1.409-.8258,1.88901-.5461.476-1.3323.71399-2.3585.71399h-1.6119v3.343h-1.5592ZM38.5013,421.8699l-2.2726-4.017h1.6649l2.6425,4.017h-2.0348ZM35.4228,417.48291h1.4534c.5725,0,1.0063-.13,1.3014-.39.2951-.26401.4427-.605.4427-1.024,0-.427-.1344-.771-.403-1.03-.2687-.265-.6629-.397-1.1826-.397h-1.6119v2.841ZM44.7451,413.29491h2.233l2.4179,5.245h-.1321l2.4179-5.245h2.1537v8.575h-1.5723v-6.77899h.2378l-2.669,5.841h-1.0173l-2.6558-5.81401h.1453v6.752h-1.5591v-8.575ZM64.3919,421.8699v-8.575h3.4618c.6606,0,1.209.103,1.645.31.436.203.76189.476.9777.819.2158.34401.3238.72501.3238,1.14301,0,.485-.1366.899-.4096,1.242-.2687.34399-.6475.586-1.1363.72699.3215.06601.60989.18701.86539.36301.2554.17599.4558.399.6012.66699.1497.26901.2246.57701.2246.925,0,.27301-.0485.549-.1453.826-.0925.278-.2555.535-.4889.77299-.229.233-.5439.423-.9447.56801-.3964.14099-.8963.21199-1.4997.21199h-3.475ZM65.9511,420.50891h1.8762c.4977,0,.861-.099,1.09-.298.23351-.202.3502-.47299.3502-.812s-.1189-.61-.3568-.813c-.2378-.207-.599-.31-1.0834-.31h-1.8762v2.233ZM65.9511,414.64191v2.27299h1.83649c.4625,0,.8126-.101,1.0505-.304.2422-.20699.3633-.489.3633-.84599,0-.339-.1189-.61-.3567-.812-.23351-.207-.58141-.311-1.04391-.311h-1.84969ZM75.3379,421.8699v-8.575h3.1711c1.0262,0,1.8124.24001,2.3585.72.5505.48.8258,1.116.8258,1.909,0,.77901-.2753,1.409-.8258,1.88901-.5461.476-1.3323.71399-2.3585.71399h-1.612v3.343h-1.5591ZM79.9756,421.8699l-2.2726-4.017h1.66479l2.6426,4.017h-2.0348ZM76.897,417.48291h1.4534c.57259,0,1.00639-.13,1.3015-.39.2951-.26401.4426-.605.4426-1.024,0-.427-.1343-.771-.403-1.03-.2686-.265-.6628-.397-1.1825-.397h-1.612v2.841ZM86.0873,413.29491h1.5591v5.33701c0,.705.1783,1.21399.5351,1.52699.3611.312.8214.46901,1.3807.46901.5638,0,1.02399-.15701,1.3808-.46901.3567-.313.5351-.82199.5351-1.52699v-5.33701h1.5591v5.33701c0,.72299-.1387,1.33899-.4162,1.84999-.2775.511-.6761.901-1.1958,1.17-.5153.26801-1.1363.403-1.863.403s-1.3499-.13499-1.86961-.403c-.5153-.269-.9117-.659-1.18909-1.17-.2775-.511-.4162-1.127-.4162-1.84999v-5.33701ZM97.6938,413.29491h1.7044l3.8978,6.117h-.119v-6.117h1.559v8.575h-1.585l-4.1491-6.48799h.251v6.48799h-1.5591v-8.575ZM109.556,421.8699v-8.575h5.51v1.347h-3.951v2.25999h3.71301v1.347h-3.71301v2.26001h3.951v1.36099h-5.51ZM118.553,414.64191v-1.347h6.871v1.347h-3.006l.35-.35699v7.58499h-1.559v-7.58499l.35.35699h-3.006ZM127.951,414.64191v-1.347h6.87v1.347h-3.006l.34999-.35699v7.58499h-1.55899v-7.58499l.351.35699h-3.006ZM138.48399,421.8699v-8.575h5.51001v1.347h-3.95v2.25999h3.71199v1.347h-3.71199v2.26001h3.95v1.36099h-5.51001Z" style="fill:#363131; stroke-width:0px;"/><path d="M50.546,445.93091l.1982-1.83701h-1.3213l.0661-.7h1.3213l.251-2.36499h-1.3213l.0661-.70001h1.3345l.185-1.81099h.9645l-.185,1.81099h2.0348l.1982-1.81099h.9513l-.185,1.81099h1.3477l-.0792.70001h-1.3477l-.2379,2.36499h1.3477l-.0792.7h-1.3477l-.1982,1.83701h-.9646l.1982-1.83701h-2.0347l-.1982,1.83701h-.9646ZM51.7748,443.39391h2.0348l.251-2.36499h-2.0347l-.2511,2.36499ZM60.9178,446.4989c-.6519,0-1.2222-.159-1.7111-.476-.4845-.317-.8632-.795-1.1363-1.433-.2687-.63899-.403-1.438-.403-2.39799,0-.961.1343-1.758.403-2.392.2731-.63901.6518-1.114,1.1363-1.427.4889-.317,1.0592-.476,1.7111-.476.6474,0,1.2155.159,1.7044.476.4889.313.8677.78799,1.1363,1.427.2731.634.4096,1.431.4096,2.392,0,.95999-.1365,1.759-.4096,2.39799-.2686.638-.6474,1.116-1.1363,1.433s-1.057.476-1.7044.476ZM60.9178,445.54791c.7135,0,1.2552-.291,1.6251-.87201.37-.586.555-1.414.555-2.48399,0-1.071-.185-1.897-.555-2.478-.3699-.586-.9116-.879-1.6251-.879-.7047,0-1.2442.293-1.6186.879-.3744.58099-.5615,1.407-.5615,2.478,0,1.06999.1871,1.89799.5615,2.48399.3744.58101.9139.87201,1.6186.87201ZM68.895,446.4989c-.65179,0-1.2288-.10399-1.7309-.31099-.4977-.207-.8896-.491-1.1759-.85201-.2819-.36099-.4228-.771-.4228-1.229,0-.418.1079-.77699.3237-1.07599.2202-.3.5197-.52901.8985-.688.3831-.162.8169-.244,1.3014-.244.1277,0,.25111.007.37.02.1189.013.2466.037.3831.073v.30299c-.4404,0-.82581.073-1.15611.218-.3303.14101-.5879.32901-.7729.562-.185.233-.2775.48401-.2775.75301,0,.326.09911.603.2973.832.1982.22501.4668.397.806.51601.3435.114.7289.172,1.1561.172.7135,0,1.2684-.11501,1.6648-.34401.3964-.22899.5946-.528.5946-.89799,0-.3-.10571-.547-.3171-.74001-.207-.194-.4933-.35699-.8589-.489l-2.2858-.87199c-.2774-.106-.5593-.25101-.8456-.436-.2819-.185-.5197-.41699-.7135-.694-.1938-.27699-.2907-.606-.2907-.98399,0-.42801.1212-.806.3634-1.13701.2422-.33.5902-.588,1.0438-.77299.458-.189,1.0064-.284,1.645-.284.5858,0,1.10551.10199,1.5591.304.4581.198.817.472,1.0769.819.2598.34399.3897.73599.3897,1.17599,0,.34399-.0881.66299-.2642.95801-.1718.291-.4272.52699-.7664.70699-.3347.17601-.7487.26401-1.242.26401-.1189,0-.2334-.006-.3435-.019-.10571-.01801-.2246-.047-.3568-.086v-.33101c.3568,0,.6783-.05899.9646-.17799.2863-.123.5131-.293.6804-.509.17181-.215.25771-.466.25771-.75301,0-.27299-.0837-.515-.2511-.726-.1629-.21599-.39191-.38399-.687-.50299-.2907-.123-.6298-.185-1.0174-.185-.3744,0-.7113.06-1.0108.179-.2951.114-.5285.271-.7003.46899-.1717.194-.2576.409-.2576.647,0,.295.0991.53299.2973.71399.2026.17601.4822.33.839.46201l2.2858.87199c.6078.229,1.0746.5,1.4006.813.3259.313.4888.73801.4888,1.27501,0,.43599-.1321.82399-.3963,1.16299-.2643.334-.6453.59599-1.143.786-.4976.18901-1.0988.284-1.8035.284ZM76.8789,446.4989c-.6518,0-1.2221-.159-1.711-.476-.4845-.317-.8633-.795-1.1363-1.433-.2687-.63899-.403-1.438-.403-2.39799,0-.961.1343-1.758.403-2.392.273-.63901.6518-1.114,1.1363-1.427.4889-.317,1.0592-.476,1.711-.476.6475,0,1.2156.159,1.7045.476.48891.313.8676.78799,1.13631,1.427.27309.634.4096,1.431.4096,2.392,0,.95999-.13651,1.759-.4096,2.39799-.26871.638-.6474,1.116-1.13631,1.433-.4889.317-1.057.476-1.7045.476ZM76.8789,445.54791c.7135,0,1.2553-.291,1.6252-.87201.37-.586.555-1.414.555-2.48399,0-1.071-.185-1.897-.555-2.478-.3699-.586-.9117-.879-1.6252-.879-.7046,0-1.2442.293-1.6185.879-.3744.58099-.5616,1.407-.5616,2.478,0,1.06999.1872,1.89799.5616,2.48399.3743.58101.9139.87201,1.6185.87201ZM84.5523,446.4989c-.5462,0-1.0328-.112-1.46-.33699-.4228-.22501-.7576-.533-1.0042-.925-.2422-.396-.3634-.84799-.3634-1.354h1.0703c.0132.50601.1717.91101.4756,1.21501.3083.29999.7267.45,1.2553.45.5197,0,.9403-.15001,1.2618-.45.3259-.29901.56371-.722.7135-1.26801.1541-.55099.2312-1.198.2312-1.942,0-.172-.0044-.33099-.0132-.476-.0088-.15001-.0264-.317-.0529-.502-.0572.476-.19379.87199-.4096,1.189-.2158.313-.4933.548-.8324.707-.3347.15401-.7135.231-1.1363.231-.4933,0-.9381-.11-1.3345-.33-.392-.22501-.7047-.53101-.9381-.918-.229-.392-.34351-.839-.34351-1.342,0-.515.1167-.964.35011-1.347.2379-.38301.5682-.679.991-.886.4228-.211.9139-.317,1.4732-.317.4757,0,.9139.097,1.3147.291.4052.194.75529.47299,1.0504.83899.2951.36101.52409.79501.6871,1.302.1673.50601.251,1.07401.251,1.70401,0,.912-.1167,1.702-.3501,2.37199-.229.66901-.5836,1.187-1.0637,1.552-.4756.36099-1.0834.54199-1.8233.54199ZM84.4862,442.12491c.3259,0,.621-.07201.8853-.218.2642-.145.4734-.341.6276-.588.1541-.246.2312-.524.2312-.832,0-.511-.1696-.914-.5087-1.209-.3347-.295-.74651-.44299-1.2354-.44299-.5021,0-.9183.14799-1.2486.44299s-.4955.698-.4955,1.209c0,.507.1652.907.4955,1.202.3303.291.7465.436,1.2486.436ZM92.3885,446.4989c-.65179,0-1.2222-.159-1.7111-.476-.4844-.317-.8632-.795-1.1363-1.433-.2686-.63899-.4029-1.438-.4029-2.39799,0-.961.1343-1.758.4029-2.392.2731-.63901.6519-1.114,1.1363-1.427.4889-.317,1.0593-.476,1.7111-.476.6474,0,1.21561.159,1.70451.476.4888.313.8676.78799,1.1363,1.427.27299.634.4096,1.431.4096,2.392,0,.95999-.1366,1.759-.4096,2.39799-.2687.638-.6475,1.116-1.1363,1.433-.4889.317-1.05711.476-1.70451.476ZM92.3885,445.54791c.7135,0,1.2552-.291,1.62521-.87201.3699-.586.5549-1.414.5549-2.48399,0-1.071-.18501-1.897-.5549-2.478-.37-.586-.91171-.879-1.62521-.879-.7047,0-1.24419.293-1.6186.879-.3743.58099-.5615,1.407-.5615,2.478,0,1.06999.1872,1.89799.5615,2.48399.3744.58101.9139.87201,1.6186.87201ZM97.6439,446.3399v-8.297h3.1051c.608,0,1.112.101,1.513.304.401.198.7.46201.898.79201.198.32599.298.683.298,1.071,0,.47499-.133.88899-.397,1.24199-.25999.34801-.652.58501-1.17599.713.339.05301.637.17401.892.36301.26.185.463.414.608.688.145.26799.21799.55699.21799.86499,0,.28201-.049.55701-.145.826-.093.26801-.249.511-.47.726-.22.216-.513.388-.878.51601-.366.127-.819.19099-1.361.19099h-3.1051ZM98.6745,445.44191h2.0615c.63,0,1.081-.132,1.354-.397.277-.26399.416-.603.416-1.017,0-.418-.14999-.75301-.449-1.004-.3-.256-.74-.383-1.321-.383h-2.0615v2.80099ZM98.6745,438.9279v2.82701h2.0345c.516,0,.925-.125,1.229-.37601.308-.256.463-.614.463-1.077,0-.43201-.15-.76801-.45-1.011-.295-.242-.70399-.36301-1.229-.36301h-2.0475Z" style="fill:#363131; stroke-width:0px;"/><path d="M212.657,413.29491h2.77501c.87199,0,1.63599.17599,2.29199.528.657.34801,1.16701.843,1.533,1.48601.366.64299.54799,1.403.54799,2.28,0,.86699-.18199,1.623-.54799,2.26599-.366.638-.87601,1.134-1.533,1.48601-.65601.35199-1.42.52899-2.29199.52899h-2.77501v-8.575ZM214.216,414.7079v5.761h1.216c.55499,0,1.03299-.125,1.433-.37599.40599-.252.71599-.593.93199-1.024.22-.437.33-.92999.33-1.48,0-.56-.11-1.05501-.33-1.487-.216-.431-.526-.77101-.93199-1.017-.40001-.25101-.87801-.37701-1.433-.37701h-1.216ZM224.093,421.8699v-8.575h5.50999v1.347h-3.951v2.25999h3.71301v1.347h-3.71301v2.26001h3.951v1.36099h-5.50999ZM234.239,421.8699v-8.575h3.172c1.026,0,1.81201.24001,2.358.72.55101.48.826,1.116.826,1.909,0,.77901-.27499,1.409-.826,1.88901-.54599.476-1.332.71399-2.358.71399h-1.612v3.343h-1.56ZM238.877,421.8699l-2.272-4.017h1.664l2.64301,4.017h-2.035ZM235.799,417.48291h1.453c.573,0,1.006-.13,1.30099-.39.29601-.26401.44301-.605.44301-1.024,0-.427-.134-.771-.403-1.03-.269-.265-.66301-.397-1.18201-.397h-1.612v2.841ZM245.121,413.29491h2.233l2.418,5.245h-.132l2.418-5.245h2.153v8.575h-1.57199v-6.77899h.23799l-2.66901,5.841h-1.017l-2.65599-5.81401h.14499v6.752h-1.55899v-8.575ZM264.76801,421.8699v-8.575h3.46201c.66,0,1.20898.103,1.64499.31.436.203.76099.476.97699.819.216.34401.32401.72501.32401,1.14301,0,.485-.13699.899-.41,1.242-.26801.34399-.647.586-1.13599.72699.32199.06601.60999.18701.866.36301.255.17599.45499.399.60098.66699.14902.26901.22403.57701.22403.925,0,.27301-.048.549-.14502.826-.09198.278-.255.535-.48898.77299-.229.233-.54401.423-.94501.56801-.396.14099-.896.21199-1.49899.21199h-3.47501ZM266.327,420.50891h1.87601c.49799,0,.86099-.099,1.09-.298.23401-.202.35001-.47299.35001-.812s-.11902-.61-.35602-.813c-.23798-.207-.599-.31-1.08398-.31h-1.87601v2.233ZM266.327,414.64191v2.27299h1.836c.46301,0,.81302-.101,1.05099-.304.242-.20699.36301-.489.36301-.84599,0-.339-.11899-.61-.35599-.812-.23401-.207-.582-.311-1.04401-.311h-1.85001ZM277.27301,413.29491v7.214h3.52798v1.36099h-5.08701v-8.575h1.55902ZM284.48901,413.29491h1.55899v5.33701c0,.705.17801,1.21399.535,1.52699.36099.312.82199.46901,1.38098.46901.56403,0,1.02402-.15701,1.38101-.46901.35599-.313.535-.82199.535-1.52699v-5.33701h1.55899v5.33701c0,.72299-.13901,1.33899-.41599,1.84999-.27802.511-.67603.901-1.19601,1.17-.51498.26801-1.13599.403-1.86301.403s-1.34998-.13499-1.87-.403c-.51498-.269-.91098-.659-1.189-1.17-.27701-.511-.41599-1.127-.41599-1.84999v-5.33701ZM296.10901,421.8699v-8.575h5.509v1.347h-3.95001v2.25999h3.71301v1.347h-3.71301v2.26001h3.95001v1.36099h-5.509Z" style="fill:#363131; stroke-width:0px;"/><path d="M230.92101,445.93091l.198-1.83701h-1.321l.06599-.7h1.321l.25101-2.36499h-1.321l.06599-.70001h1.33501l.185-1.81099h.96399l-.185,1.81099h2.035l.198-1.81099h.951l-.185,1.81099h1.34799l-.07899.70001h-1.34801l-.23799,2.36499h1.34799l-.07899.7h-1.34801l-.198,1.83701h-.965l.19901-1.83701h-2.035l-.198,1.83701h-.965ZM232.14999,443.39391h2.035l.25101-2.36499h-2.035l-.25101,2.36499ZM241.095,446.4989c-.52499,0-1.002-.09499-1.43401-.284-.43199-.19-.77699-.467-1.037-.83299-.25999-.37001-.392-.821-.39699-1.354h1.03099c0,.502.17601.881.52901,1.136.356.256.79199.384,1.308.384.59399,0,1.061-.181,1.39999-.54201.34401-.366.515-.815.515-1.34799,0-1.06601-.687-1.599-2.06099-1.599h-2.22l.35699-4.01601h4.59801v.938h-3.765l.211-.35701-.27701,2.89401-.133-.119c.21201-.049.452-.082.72099-.099.26801-.022.50801-.033.72-.033.89801,0,1.60901.2,2.134.601.524.401.786.99701.786,1.79001,0,.537-.12099,1.02199-.364,1.45399-.24199.427-.588.76601-1.037,1.017-.44499.24701-.97299.37-1.58499.37ZM245.672,446.3399v-1.228c0-.481.077-.881.231-1.203.159-.321.379-.588.661-.799.28601-.21201.623-.394,1.011-.549l1.638-.647c.423-.172.74001-.392.952-.661.21101-.26801.317-.60301.317-1.00401,0-.42299-.14799-.76799-.44299-1.03699-.291-.26901-.698-.403-1.222-.403-.52,0-.94701.112-1.282.33699-.33.22-.52.55301-.56801.998h-1.149c.03001-.481.17101-.888.42201-1.22299.256-.334.60199-.58801,1.03799-.759.436-.177.944-.265,1.526-.265.533,0,1.00999.104,1.433.31099.423.207.756.49301.998.85901.246.36099.37.77699.37,1.248,0,.42799-.08.8-.23799,1.117-.15901.31699-.38501.59-.681.819-.29001.22899-.636.42499-1.037.588l-1.67801.674c-.42299.16299-.73999.35899-.95099.588-.21201.229-.317.526-.317.892v.39601h4.82199v.95099h-5.853ZM256.20401,446.4989c-.52402,0-1.00201-.09499-1.43301-.284-.43199-.19-.778-.467-1.03799-.83299-.25999-.37001-.392-.821-.396-1.354h1.03099c0,.502.17601.881.528,1.136.35701.256.793.384,1.30801.384.595,0,1.06198-.181,1.401-.54201.34299-.366.51498-.815.51498-1.34799,0-1.06601-.68698-1.599-2.061-1.599h-2.21999l.35699-4.01601h4.59801v.938h-3.76601l.21201-.35701-.278,2.89401-.132-.119c.211-.049.451-.082.72-.099.269-.022.50899-.033.71999-.033.89902,0,1.61002.2,2.134.601.52402.401.78601.99701.78601,1.79001,0,.537-.121,1.02199-.36301,1.45399-.242.427-.58798.76601-1.03699,1.017-.44501.24701-.974.37-1.586.37ZM264.151,446.4989c-.73099,0-1.36099-.183-1.88901-.54799-.52899-.37001-.936-.881-1.22299-1.533-.28601-.65601-.42902-1.416-.42902-2.27899,0-.92101.15402-1.69601.46201-2.326.31302-.63.73602-1.10501,1.26901-1.427.53699-.326,1.14099-.489,1.81-.489.88501,0,1.59698.22299,2.134.668.54199.44.914,1.015,1.116,1.724l-1.11002.224c-.17099-.515-.44699-.924-.82498-1.228-.375-.30901-.81299-.463-1.315-.463-.436,0-.83899.12599-1.20901.377-.366.246-.66098.616-.88498,1.11-.22501.493-.33701,1.103-.33701,1.83,0,.65999.08801,1.24799.26401,1.76399.181.515.44901.92.806,1.215.36099.295.815.44301,1.36099.44301.65601,0,1.17599-.17601,1.55899-.52901.388-.35201.58099-.815.58099-1.38699h1.12402c0,.59399-.13699,1.105-.41,1.53299-.27301.42201-.65601.748-1.14999.97701-.48801.229-1.05701.34399-1.70401.34399ZM272.01599,446.4989c-.66498,0-1.246-.183-1.74399-.54799-.49301-.366-.87601-.86101-1.14902-1.487-.27298-.63-.40997-1.339-.40997-2.127,0-.929.13898-1.724.41599-2.38501.27802-.66499.67401-1.174,1.19-1.526.51501-.35199,1.129-.52899,1.84299-.52899.49301,0,.927.095,1.30103.284.379.185.681.44501.905.78.22897.33501.366.724.41,1.16901h-1.12302c-.06601-.39601-.216-.711-.44901-.944-.23401-.23401-.573-.351-1.01801-.351-.75699,0-1.35199.32899-1.784.985-.431.65199-.647,1.54399-.647,2.67499,0,.16301.004.35301.013.569.009.211.02701.40901.05301.59401.04001-.586.17401-1.04601.40302-1.38101.233-.33899.52399-.57899.87198-.71999.34802-.14101.716-.21101,1.103-.21101.50201,0,.95203.11,1.34802.33.401.22.716.52701.94498.91901.233.38699.35001.834.35001,1.341,0,.50999-.11899.95999-.35699,1.347-.23801.383-.57001.683-.99701.899-.423.211-.914.31699-1.474.31699ZM272.01599,445.54791c.50201,0,.91901-.14801,1.24902-.44301.32999-.295.495-.694.495-1.196,0-.515-.16501-.918-.495-1.209-.33002-.295-.74701-.442-1.24902-.442-.32999,0-.625.07201-.88498.218-.26001.14101-.46701.33701-.621.588-.15002.246-.22501.528-.22501.845,0,.502.16599.901.496,1.196.32999.295.742.44301,1.23499.44301ZM276.935,438.04291h2.431c.83701,0,1.564.17101,2.17999.515.617.339,1.095.819,1.43402,1.44.33899.621.509,1.35201.509,2.194,0,.832-.17001,1.55901-.509,2.17999-.33902.621-.81702,1.10501-1.43402,1.453-.616.34401-1.34299.515-2.17999.515h-2.431v-8.297ZM277.966,438.9539v6.48801h1.39999c.62601,0,1.16299-.14101,1.612-.423.45401-.282.802-.66699,1.04401-1.15599.24701-.49301.37-1.05.37-1.67101,0-.62601-.12299-1.181-.37-1.66501-.242-.489-.59-.87199-1.04401-1.14999-.44901-.282-.98599-.423-1.612-.423h-1.39999Z" style="fill:#363131; stroke-width:0px;"/></g></svg>