<?xml version="1.0" encoding="UTF-8"?>
<svg id="a" xmlns="http://www.w3.org/2000/svg" version="1.1" viewBox="0 0 750 563">
  <!-- Generator: Adobe Illustrator 29.2.1, SVG Export Plug-In . SVG Version: 2.1.0 Build 116)  -->
  <defs>
    <style>
      .st0 {
        fill: #c35e28;
      }

      .st1 {
        fill: #fdf7ed;
      }
    </style>
  </defs>
  <rect class="st0" width="750" height="563"/>
  <path class="st1" d="M58.7,314.4h19.6c15.9,0,29-13,29-29s-13-28.8-29-28.8h-19.6c-.8,0-1.5.7-1.5,1.6v54.7c0,.8.7,1.6,1.5,1.6,0,0,0,0,0,0ZM67.8,266.5h9.4c10.8,0,18.6,8.1,18.6,18.8s-7.9,18.9-18.6,18.9h-9.4s0-37.8,0-37.8Z"/>
  <path class="st1" d="M156.7,266.4c.9,0,1.6-.7,1.6-1.6v-6.8c0-.8-.7-1.6-1.6-1.6h-33.6c-.9,0-1.6.7-1.6,1.6v54.7c0,.8.7,1.6,1.6,1.6h33.6c.9,0,1.6-.7,1.6-1.6v-6.8c0-.8-.7-1.6-1.6-1.6h-24.5v-14.5h20.4c.8,0,1.6-.7,1.6-1.6v-6.9c0-.8-.7-1.6-1.6-1.6h-20.4v-13.6h24.5s0,0,0,0Z"/>
  <path class="st1" d="M173.4,258.1v54.7c0,.8.7,1.6,1.6,1.6h7.6c.8,0,1.6-.7,1.6-1.6v-21.1h9.2l11,21.9c.2.3.6.7,1.3.7h8.7c1.4,0,2-1.3,1.4-2.4l-11.3-21c7.2-2.9,12.2-9.1,12.2-16.7s-8.1-17.8-18-17.8h-23.6c-.9,0-1.6.7-1.6,1.6h0s0,0,0,0ZM184.2,266.4h13.5c4.4,0,8.2,3.6,8.2,8s-3.8,8.4-8.2,8.4h-13.5v-16.4Z"/>
  <path class="st1" d="M281.3,255.7h-1.3c-.7,0-1.1.3-1.4.8l-18.2,39h-.3l-18.2-39c-.3-.5-.7-.8-1.4-.8h-1.3c-.9,0-1.4.6-1.5,1.2l-9.8,55.5c-.2,1.1.5,1.9,1.6,1.9h7.4c.7,0,1.4-.7,1.5-1.2l4.8-31.3h.3l14.6,32.5c.3.5.7.9,1.4.9h1.5c.7,0,1.2-.4,1.4-.9l14.5-32.5h.3l4.9,31.3c.2.6.8,1.2,1.6,1.2h7.5c1.1,0,1.7-.7,1.5-1.9l-9.7-55.5c0-.7-.6-1.2-1.5-1.2h0s0,0,0,0Z"/>
  <path class="st1" d="M328.9,256.6c-.3-.5-.6-.9-1.4-.9h-.8c-.7,0-1.1.4-1.4.9l-25.7,55.6c-.5,1.1.2,2.2,1.4,2.2h7.2c1.3,0,2.1-.8,2.4-1.7l4-8.9h24.7l4,8.9c.6,1.1,1.1,1.7,2.4,1.7h7.2c1.2,0,1.9-1.1,1.4-2.2l-25.5-55.6h0ZM318.7,294.6l8.1-18.2h.3l8.3,18.2h-16.6Z"/>
  <path class="st1" d="M371.5,314.4h7.7c.8,0,1.6-.7,1.6-1.6v-46.4h12.6c.9,0,1.6-.7,1.6-1.6v-6.8c0-.8-.7-1.6-1.6-1.6h-36.1c-.9,0-1.6.7-1.6,1.6v6.8c0,.8.7,1.6,1.6,1.6h12.6v46.4c0,.8.7,1.6,1.6,1.6h0Z"/>
  <path class="st1" d="M461.6,285.5c0-16.5-13.2-29.8-29.7-29.8s-29.7,13.3-29.7,29.8,13.1,29.7,29.7,29.7,29.7-13.1,29.7-29.7ZM431.8,304.4c-10.4,0-18.9-8.5-18.9-18.9s8.5-19.1,18.9-19.1,19,8.7,19,19.1-8.6,18.9-19,18.9Z"/>
  <path class="st1" d="M509.1,312.8v-6.8c0-.8-.7-1.6-1.6-1.6h-21.1v-46.4c0-.8-.7-1.6-1.6-1.6h-7.6c-.9,0-1.6.7-1.6,1.6v54.7c0,.8.7,1.6,1.6,1.6h30.3c.9,0,1.6-.7,1.6-1.6h0s0,0,0,0Z"/>
  <path class="st1" d="M575.5,285.5c0-16.5-13.2-29.8-29.7-29.8s-29.7,13.3-29.7,29.8,13.1,29.7,29.7,29.7,29.7-13.1,29.7-29.7ZM545.7,304.4c-10.4,0-18.9-8.5-18.9-18.9s8.5-19.1,18.9-19.1,19,8.7,19,19.1-8.6,18.9-19,18.9Z"/>
  <path class="st1" d="M634.8,285.7h-15.9c-.9,0-1.6.7-1.6,1.6v6.5c0,.8.7,1.5,1.6,1.5h6.6v7c-1.7.7-5.2,2.1-9.8,2.1-10.4,0-18.6-8.7-18.6-18.9s8.2-19.2,18.5-19.2,8.9,1.7,12.5,4.8c.7.7,1.5.7,2.2,0l5.1-5.4c.7-.7.6-1.7,0-2.3-5.6-4.8-12.7-7.7-20.2-7.7-16.4,0-29.7,13.3-29.7,29.8s13.2,29.6,29.7,29.6,20.5-5.4,20.5-5.4c.3-.3.7-.7.7-1.3v-21.2c0-.8-.7-1.6-1.5-1.6h0s0,0,0,0Z"/>
  <path class="st1" d="M662.8,312.8c0,.8.7,1.6,1.6,1.6h7.6c.8,0,1.6-.7,1.6-1.6v-26.4l19.1-27.5c.7-1.1,0-2.4-1.3-2.4h-8.5c-.7,0-1.1.4-1.3.7l-13.2,19-13.2-19c-.3-.3-.7-.7-1.3-.7h-8.4c-1.3,0-2,1.3-1.3,2.4l18.8,27.6v26.3h.1s0,0,0,0Z"/>
  <path class="st1" d="M415.1,394.8c-.5-.5-1.4-.6-2.1,0-3.5,2.8-7.7,4.7-12.6,4.7-10.6,0-18.5-8.7-18.5-19.1s7.9-19.2,18.4-19.2,9.3,1.8,12.7,4.9c.7.7,1.5.7,2.1,0l5-5.2c.7-.7.7-1.7,0-2.3-5.6-5-11.6-7.7-20-7.7-16.5,0-29.8,13.3-29.8,29.8s13.3,29.7,29.8,29.7,14.5-2.5,20.1-8c.6-.6.7-1.7,0-2.2l-5.1-5.3h0s0,0,0,0Z"/>
  <path class="st1" d="M469.5,351.6h-33.6c-.9,0-1.6.7-1.6,1.6v54.7c0,.8.7,1.6,1.6,1.6h33.6c.9,0,1.6-.7,1.6-1.6v-6.8c0-.8-.7-1.6-1.6-1.6h-24.5v-14.5h20.4c.8,0,1.6-.7,1.6-1.6v-6.9c0-.8-.7-1.6-1.6-1.6h-20.4v-13.6h24.5c.9,0,1.6-.7,1.6-1.6v-6.8c0-.8-.7-1.6-1.6-1.6h0Z"/>
  <path class="st1" d="M533.4,351.6h-7.6c-.9,0-1.6.7-1.6,1.6v34.1h0l-34.4-36.5h-2.1c-.8,0-1.6.7-1.6,1.5v55.6c0,.8.7,1.6,1.6,1.6h7.5c.9,0,1.6-.7,1.6-1.6v-35.5h0l34.6,37.9h2c.8,0,1.6-.7,1.6-1.5v-55.6c0-.8-.7-1.6-1.6-1.6h0Z"/>
  <path class="st1" d="M584.6,351.6h-36.1c-.9,0-1.6.7-1.6,1.6v6.8c0,.8.7,1.6,1.6,1.6h12.6v46.4c0,.8.7,1.6,1.6,1.6h7.7c.8,0,1.6-.7,1.6-1.6v-46.4h12.6c.9,0,1.6-.7,1.6-1.6v-6.8c0-.8-.7-1.6-1.6-1.6h0Z"/>
  <path class="st1" d="M633.3,351.6h-33.6c-.9,0-1.6.7-1.6,1.6v54.7c0,.8.7,1.6,1.6,1.6h33.6c.9,0,1.6-.7,1.6-1.6v-6.8c0-.8-.7-1.6-1.6-1.6h-24.5v-14.5h20.4c.8,0,1.6-.7,1.6-1.6v-6.9c0-.8-.7-1.6-1.6-1.6h-20.4v-13.6h24.5c.9,0,1.6-.7,1.6-1.6v-6.8c0-.8-.7-1.6-1.6-1.6h0Z"/>
  <path class="st1" d="M681,386.1c7.2-2.9,12.2-9.1,12.2-16.7s-8.1-17.8-18-17.8h-23.6c-.9,0-1.6.7-1.6,1.6v54.7c0,.8.7,1.6,1.6,1.6h7.6c.8,0,1.6-.7,1.6-1.6v-21.1h9.2l11,21.9c.2.3.6.7,1.3.7h8.7c1.4,0,2-1.3,1.4-2.4l-11.3-21h0ZM674.2,378h-13.5v-16.4h13.5c4.4,0,8.2,3.6,8.2,8s-3.8,8.4-8.2,8.4Z"/>
  <path class="st1" d="M58.7,219.2h7.6c.8,0,1.6-.7,1.6-1.6v-19.4h10.3c10.1,0,18.4-8.3,18.4-18.6s-8.3-18.3-18.5-18.3h-19.4c-.9,0-1.6.7-1.6,1.6v54.7c0,.8.7,1.6,1.6,1.6h0ZM67.9,171.5h9.6c4.6,0,8.5,3.5,8.5,8s-3.9,8.6-8.5,8.6h-9.6v-16.6h0Z"/>
  <path class="st1" d="M107.7,219.2h33.6c.9,0,1.6-.7,1.6-1.6v-6.8c0-.8-.7-1.6-1.6-1.6h-24.5v-14.5h20.4c.8,0,1.6-.7,1.6-1.6v-6.9c0-.8-.7-1.6-1.6-1.6h-20.4v-13.6h24.5c.9,0,1.6-.7,1.6-1.6v-6.8c0-.8-.7-1.6-1.6-1.6h-33.6c-.9,0-1.6.7-1.6,1.6v54.7c0,.8.7,1.6,1.6,1.6h0s0,0,0,0Z"/>
  <path class="st1" d="M153.1,171.3h12.6v46.4c0,.8.7,1.6,1.6,1.6h7.7c.8,0,1.6-.7,1.6-1.6v-46.4h12.6c.9,0,1.6-.7,1.6-1.6v-6.8c0-.8-.7-1.6-1.6-1.6h-36.1c-.9,0-1.6.7-1.6,1.6v6.8c0,.8.7,1.6,1.6,1.6h0Z"/>
  <path class="st1" d="M112.5,368.1c2,0,218.8-.4,234.3-.8.6,0,1.1-.5,1.1-1.1s-.5-1.1-1.1-1.1c-15.5.4-232.2.8-234.2.8s-1.5-.4-2.2-1.1c-2.3-2.4-3.7-7.9-3.6-10.4.2-6.5-3.8-11.7-10.2-13.4-3.5-1-6.3-.4-9.4.1-.8.2-1.6.3-2.4.4-3.8.5-8,.8-13,.8s-5.5-.3-8.2-.7h-.4c-.2,0-.4-.1-.6-.2-1.3-.3-3.1-.6-4.5.3-.7.4-1.1,1.3-1.1,2-.2,1.4.3,2.9.9,3.9,1,2.8,2.9,5.5,5.2,7.6,2.6,2.4,5.7,4.2,8.8,5.9.8.4,1.6.9,2.4,1.4.5.3,1.1.5,1.7.9,2.7,1.3,5.7,2.7,5.9,5.3.1,1.2,0,2.3-.3,3.5,0,.6-.2,1.2-.3,1.7-1.6,11,3.8,22.3,13.3,28.1.9,1.1,2.8,6.6,2.2,7.6-.7.7-1.9,1.2-3.2,1.7-2.2.9-4.9,2-4.9,4.9s0,.1,0,.2c.5,2.8,3.4,3.6,7.2,3.6s4.4-.2,6.7-.5c1.2-.1,2.4-.3,3.6-.3,5.9-.4,6.1-5.8,6.4-10.1.1-2.3.2-4.6,1.1-5.7.4-.5.7-.6,1.9-.6,1.6,0,7.5-.5,14.3-1.1,6.6-.6,14.2-1.3,18.2-1.5,50-2.3,197.7-.6,198.8-.5.6,0,1.1-.4,1.1-1,0-.6-.4-1.1-1-1.1-1,0-149.7-1.7-199,.5-4.1.2-11.7.9-18.3,1.5-6.4.6-12.5,1.1-14,1.1-1.2,0-2.5,0-3.6,1.4-1.3,1.7-1.4,4.2-1.6,6.9-.2,4.8-.6,7.8-4.3,8-1.2,0-2.4.2-3.6.3-4.8.5-10.8,1.1-11.5-1.2,0-1.3,1.4-1.9,3.5-2.7,1.5-.6,3-1.2,4-2.3.5-.6.7-1.5.6-2.8-.3-2.6-2-7.3-3.1-8.1,0,0,0,0,0,0-8.9-5.3-13.9-15.7-12.4-26,0-.5.2-1.1.3-1.7.2-1.3.5-2.6.3-4.1-.4-3.8-4.2-5.7-7.2-7.1-.6-.3-1.1-.5-1.6-.8-.8-.5-1.6-.9-2.4-1.4-2.9-1.6-5.9-3.3-8.3-5.5-2.1-1.9-3.7-4.3-4.6-6.8,0,0,0-.1,0-.2-.1-.2-.2-.4-.3-.6.2,0,.3,0,.5,0,1,0,1.9-.9,1.8-1.8,0-.3,0-.5-.2-.7.2,0,.3,0,.5,0,.2,0,.4,0,.7.1h.5c2.8.4,5.4.8,8.5.8,5,0,9.4-.3,13.3-.8.9-.1,1.7-.3,2.5-.4,2.9-.5,5.4-1,8.4-.2,5.5,1.5,8.7,5.8,8.6,11.2-.2,3,1.3,9.1,4.1,12.1,1.1,1.2,2.4,1.8,3.8,1.8h0s0,0,0,0Z"/>
  <path class="st1" d="M99.4,354.9c-2-3.9-3.7-3.9-6.1-.2-2.9,4.7-4.5,9.8-3.9,15.3.4,4.1,2.2,6.1,5.9,6.9,6.6,1.4,11-3.1,9-9.6-1.4-4.3-2.9-8.4-4.9-12.3h0Z"/>
  <path class="st1" d="M85.1,349.1c0,0,0,.1,0,.2-.2.8.5,1.5,1.3,1.6.6,0,1.1,0,1.6,0,1.2-.3.9-1.3.8-2.2,0-.8-.3-1.6-.6-2.3,0-.3-1.5-1.5-1.7-1.2-.8,1,.7,1.7.6,1.9-.6,1-1.5,1.1-1.9,2.1h0s0,0,0,0Z"/>
  <path class="st1" d="M666.5,221.7c2.1-.6,4.9-1.6,6.4-4.9.4-.8.3-1.8.2-2.9,0-.4,0-.8,0-1.2,0-6-4.9-6.1-15.6-6.4-1.2,0-2.4,0-3.8-.1-.6,0-74.3.3-195.7.9-113.8.5-242.9,1.1-244.4,1-.6,0-1,.4-1,1s.4,1,1,1c1.6,0,125.1-.5,244.5-1,100-.4,194.5-.9,195.6-.9,1.4,0,2.6,0,3.8.1,11.5.3,13.6.7,13.6,4.4s0,.9,0,1.3c0,.6.1,1.6,0,1.9-1.1,2.5-3.1,3.1-5.1,3.7-2,.6-4.2,1.3-4.2,4s.3,1.4.9,1.9c1.4,1.2,4.5,1.6,7.8,1.6s9.3-.7,10.8-.9c5.2-.7,5.5-3,5.9-6.5.4-4.5,2-18.3,2.8-22.8.5-3.3.3-6.2-.4-8.9-.2-.6-.4-1.3-.7-1.9-.6-1.7-1.2-3.2-1.2-5s.6-1.8,1.4-3.2c1.5-2.8,3.8-7,4.1-13.2.8-16.9-9.9-20.7-14.5-21.6h-.2c-.5-.2-1,0-1.2.5-.3.6,0,1.1.7,1.9,1.6,2.1,6.4,8.5,5.8,17.1-.5,7.1-6.4,11.4-9.2,12-.7,0-13.9.5-30.7.9-11.6.3-268.3,0-420.3-.3h-10c-.6,0-1,.5-1,1s.5,1,1,1h10c107.2.2,266.5.4,355.1.4s61.8,0,65.2-.1c7.1-.2,30.3-.8,31-1,4.2-.9,10.3-6.3,10.8-13.9.6-7.9-2.9-14-5.1-17.1,4.5,1.6,11,6.1,10.4,18.8-.3,5.7-2.3,9.5-3.8,12.3-.9,1.7-1.6,3-1.6,4.2,0,2.1.7,3.9,1.4,5.7.2.6.4,1.2.6,1.7.7,2.4.8,4.9.4,7.9-.8,4.8-2.4,19.1-2.8,23-.4,3.3-.5,4.2-4.1,4.7-6.9,1-15.1,1.3-16.9-.2-.2-.2-.2-.3-.2-.4,0-1.1.7-1.4,2.7-2.1h0s0,0,0,0Z"/>
</svg>