<?xml version="1.0" encoding="UTF-8"?><svg id="a" xmlns="http://www.w3.org/2000/svg" width="1200" height="675" viewBox="0 0 1200 675"><rect width="1200" height="675" style="fill:#c35e28; stroke-width:0px;"/><path d="M93.85224,390.09902h31.3584c25.50416,0,46.42673-20.76985,46.42673-46.42673s-20.87166-46.12129-46.42673-46.12129h-31.35841c-1.32357,0-2.3926,1.17084-2.3926,2.49442v87.50825c0,1.32356,1.06904,2.49443,2.3926,2.49443v.05093ZM108.51331,313.53566h15.06833c17.20639,0,29.72939,12.98116,29.72939,30.13665s-12.57391,30.28937-29.72939,30.28937h-15.06833v-60.42602Z" style="fill:#fdf7ed; stroke-width:0px;"/><path d="M250.64426,313.38292c1.47629,0,2.49442-1.17084,2.49442-2.49443v-10.84308c0-1.32357-1.06904-2.49442-2.49442-2.49442h-53.80818c-1.47629,0-2.49442,1.17084-2.49442,2.49442v87.50825c0,1.32356,1.06904,2.49443,2.49442,2.49443h53.80818c1.47629,0,2.49442-1.17084,2.49442-2.49443v-10.84308c0-1.32356-1.06904-2.49443-2.49442-2.49443h-39.1471v-23.16246h32.68196c1.32357,0,2.49442-1.06902,2.49442-2.49443v-10.99579c0-1.32356-1.17084-2.49443-2.49442-2.49443h-32.68198v-21.68616h39.1471l.00002.00003Z" style="fill:#fdf7ed; stroke-width:0px;"/><path d="M277.37018,300.04542v87.50827c0,1.32356,1.06902,2.49443,2.49443,2.49443h12.16667c1.32356,0,2.49443-1.17084,2.49443-2.49443v-33.70011h14.66107l17.56274,35.02367c.25453.50906.91631,1.17084,2.13808,1.17084h13.89747c2.2399,0,3.15621-2.13808,2.2399-3.81799l-18.1227-33.59829c11.50486-4.63248,19.54811-14.55925,19.54811-26.72591s-12.98116-28.40582-28.81307-28.40582h-37.82352c-1.4763,0-2.49443,1.17084-2.49443,2.49442l.05083.05093ZM294.67839,313.38292h21.53344c7.02509,0,13.08298,5.80335,13.08298,12.82844s-6.05789,13.49022-13.08298,13.49022h-21.53344v-26.31867Z" style="fill:#fdf7ed; stroke-width:0px;"/><path d="M450.04503,296.22744h-2.13808c-1.17084,0-1.83262.50906-2.2399,1.32357l-29.0676,62.41136h-.40725l-29.0676-62.41137c-.40725-.81451-1.17084-1.32357-2.2399-1.32357h-2.13808c-1.4763,0-2.2399.91631-2.39261,1.98535l-15.73012,88.83183c-.25453,1.83262.81449,3.05439,2.49443,3.05439h11.91213c1.17084,0,2.2399-1.06902,2.39261-1.98537l7.68687-50.09201h.40725l23.41699,51.97552c.40725.81449,1.06902,1.4763,2.2399,1.4763h2.39261c1.17084,0,1.98537-.66178,2.2399-1.4763l23.16246-51.97552h.40725l7.78869,50.09201c.25453.91631,1.32356,1.98537,2.49443,1.98537h12.01392c1.73083,0,2.79986-1.17084,2.39261-3.05439l-15.57738-88.83184c-.15271-1.06904-.91631-1.98535-2.39261-1.98535l-.05093.00003Z" style="fill:#fdf7ed; stroke-width:0px;"/><path d="M526.30293,297.65283c-.40728-.81451-.91634-1.47629-2.2399-1.47629h-1.32356c-1.17087,0-1.83262.66178-2.2399,1.47629l-41.13245,88.98456c-.81449,1.73083.25453,3.46164,2.2399,3.46164h11.50486c2.13808,0,3.30892-1.32356,3.81799-2.64714l6.46513-14.25382h39.55433l6.4651,14.25382c.91634,1.83262,1.83262,2.64714,3.81799,2.64714h11.50486c1.98537,0,3.05439-1.73083,2.2399-3.46164l-40.7252-88.98456h.05096ZM509.91106,358.48609l12.98116-29.0676h.40728l13.23569,29.0676h-26.62412Z" style="fill:#fdf7ed; stroke-width:0px;"/><path d="M594.41585,390.09902h12.31935c1.32356,0,2.49443-1.17084,2.49443-2.49443v-74.17078h20.20986c1.4763,0,2.49443-1.17084,2.49443-2.49443v-10.84308c0-1.32357-1.06902-2.49442-2.49443-2.49442h-57.77888c-1.4763,0-2.49443,1.17084-2.49443,2.49442v10.84308c0,1.32356,1.06902,2.49443,2.49443,2.49443h20.20986v74.17078c0,1.32356,1.17087,2.49443,2.49443,2.49443h.05096Z" style="fill:#fdf7ed; stroke-width:0px;"/><path d="M738.53214,343.92682c0-26.42049-21.17709-47.75029-47.59758-47.75029s-47.44483,21.27891-47.44483,47.75029,21.02441,47.44486,47.44483,47.44486,47.59758-21.02438,47.59758-47.44486ZM690.93456,374.21618c-16.6464,0-30.28937-13.64294-30.28937-30.28937s13.59201-30.5439,30.28937-30.5439,30.39116,13.89747,30.39116,30.5439-13.74475,30.28937-30.39116,30.28937Z" style="fill:#fdf7ed; stroke-width:0px;"/><path d="M814.53557,387.55369v-10.84308c0-1.32356-1.06902-2.49443-2.49443-2.49443h-33.70008v-74.17078c0-1.32357-1.17087-2.49442-2.49443-2.49442h-12.16667c-1.4763,0-2.49443,1.17084-2.49443,2.49442v87.50825c0,1.32356,1.06902,2.49443,2.49443,2.49443h48.41207c1.4763,0,2.49443-1.17084,2.49443-2.49443l-.05089.00003Z" style="fill:#fdf7ed; stroke-width:0px;"/><path d="M920.72652,343.92682c0-26.42049-21.17709-47.75029-47.59758-47.75029s-47.44483,21.27891-47.44483,47.75029,21.02441,47.44486,47.44483,47.44486,47.59758-21.02438,47.59758-47.44486ZM873.12894,374.21618c-16.6464,0-30.28937-13.64294-30.28937-30.28937s13.59201-30.5439,30.28937-30.5439,30.39116,13.89747,30.39116,30.5439-13.74475,30.28937-30.39116,30.28937Z" style="fill:#fdf7ed; stroke-width:0px;"/><path d="M1015.66714,344.18135h-25.40236c-1.4763,0-2.49443,1.06902-2.49443,2.49443v10.43583c0,1.32356,1.06902,2.39261,2.49443,2.39261h10.58858v11.25032c-2.64711,1.06902-8.34868,3.30892-15.73012,3.30892-16.6464,0-29.72941-13.89747-29.72941-30.28937s13.08295-30.69661,29.62756-30.69661,14.30471,2.64714,19.95532,7.68687c1.17087,1.06902,2.39258,1.06902,3.46167,0l8.19593-8.60321c1.06902-1.06902.91634-2.64714-.15274-3.71617-9.01043-7.68688-20.3626-12.31938-32.27473-12.31938-26.31864,0-47.44483,21.27891-47.44483,47.75029s21.17709,47.34304,47.44483,47.34304,32.7838-8.60321,32.7838-8.60321c.50906-.40725,1.06902-1.06902,1.06902-2.13808v-33.85282c0-1.32356-1.06902-2.49443-2.39258-2.49443l.00006.05096Z" style="fill:#fdf7ed; stroke-width:0px;"/><path d="M1060.46486,387.55369c0,1.32356,1.06909,2.49443,2.49437,2.49443h12.1666c1.32362,0,2.49437-1.17084,2.49437-2.49443v-42.2015l30.5439-44.03412c1.06909-1.73082,0-3.81799-2.13805-3.81799h-13.64297c-1.06909,0-1.73077.66178-2.13805,1.17084l-21.17715,30.39119-21.17715-30.39119c-.40728-.50906-1.06909-1.17084-2.13805-1.17084h-13.49022c-2.13805,0-3.15618,2.13808-2.13805,3.81799l30.13662,44.18684v42.04876l.20382.00003Z" style="fill:#fdf7ed; stroke-width:0px;"/><path d="M664.15776,518.73975c-.81449-.81449-2.2399-.91631-3.30892,0-5.54882,4.47977-12.31935,7.53416-20.20986,7.53416-16.90093,0-29.62756-13.99929-29.62756-30.5439s12.57388-30.79843,29.47488-30.79843,14.81378,2.90168,20.3626,7.78869c1.06902,1.06902,2.39258,1.06902,3.30892,0l8.04325-8.34868c1.06902-1.06902,1.06902-2.64714-.15274-3.71617-9.01043-8.04322-18.63177-12.31938-32.0202-12.31938-26.42049,0-47.75032,21.27891-47.75032,47.75029s21.27894,47.44486,47.75032,47.44486,23.16246-4.07252,32.12199-12.82844c.91634-.91631,1.17087-2.64714.15274-3.56345l-8.19593-8.45047.05083.05093Z" style="fill:#fdf7ed; stroke-width:0px;"/><path d="M751.15698,449.71055h-53.80815c-1.4763,0-2.49443,1.17084-2.49443,2.49443v87.50829c0,1.32356,1.06902,2.49443,2.49443,2.49443h53.80815c1.4763,0,2.49443-1.17084,2.49443-2.49443v-10.84308c0-1.32356-1.06902-2.49443-2.49443-2.49443h-39.14711v-23.16246h32.68195c1.32356,0,2.49443-1.06902,2.49443-2.49443v-10.99579c0-1.32356-1.17087-2.49443-2.49443-2.49443h-32.68195v-21.68616h39.14711c1.4763,0,2.49443-1.17084,2.49443-2.49443v-10.84308c0-1.32356-1.06902-2.49443-2.49443-2.49443Z" style="fill:#fdf7ed; stroke-width:0px;"/><path d="M853.47904,449.71055h-12.16667c-1.4763,0-2.49443,1.17084-2.49443,2.49443v54.62267h-.15274l-54.97902-58.44066h-3.30892c-1.32356,0-2.49443,1.06902-2.49443,2.39261v88.98456c0,1.32356,1.17087,2.49443,2.49443,2.49443h12.01392c1.4763,0,2.49443-1.17084,2.49443-2.49443v-56.86257h.15274l55.28445,60.68055h3.15618c1.32356,0,2.49443-1.06902,2.49443-2.39261v-88.98456c0-1.32356-1.17087-2.49443-2.49443-2.49443h.00006Z" style="fill:#fdf7ed; stroke-width:0px;"/><path d="M935.33666,449.71055h-57.77888c-1.4763,0-2.49443,1.17084-2.49443,2.49443v10.84308c0,1.32356,1.06902,2.49443,2.49443,2.49443h20.20986v74.17078c0,1.32356,1.17087,2.49443,2.49443,2.49443h12.31935c1.32356,0,2.49443-1.17084,2.49443-2.49443v-74.17078h20.20986c1.4763,0,2.49443-1.17084,2.49443-2.49443v-10.84308c0-1.32356-1.06902-2.49443-2.49443-2.49443h.05096Z" style="fill:#fdf7ed; stroke-width:0px;"/><path d="M1013.2236,449.71055h-53.80815c-1.4763,0-2.49443,1.17084-2.49443,2.49443v87.50829c0,1.32356,1.06902,2.49443,2.49443,2.49443h53.80815c1.4763,0,2.49443-1.17084,2.49443-2.49443v-10.84308c0-1.32356-1.06902-2.49443-2.49443-2.49443h-39.14711v-23.16246h32.68195c1.32356,0,2.49443-1.06902,2.49443-2.49443v-10.99579c0-1.32356-1.17087-2.49443-2.49443-2.49443h-32.68195v-21.68616h39.14711c1.4763,0,2.49443-1.17084,2.49443-2.49443v-10.84308c0-1.32356-1.06902-2.49443-2.49443-2.49443Z" style="fill:#fdf7ed; stroke-width:0px;"/><path d="M1089.53252,504.84228c11.50492-4.63248,19.54805-14.55925,19.54805-26.72591s-12.98116-28.40582-28.81313-28.40582h-37.82355c-1.47624,0-2.49437,1.17084-2.49437,2.49443v87.50829c0,1.32356,1.06909,2.49443,2.49437,2.49443h12.1666c1.32362,0,2.49437-1.17084,2.49437-2.49443v-33.70011h14.6611l17.56274,35.02367c.25453.50906.91634,1.17084,2.13805,1.17084h13.8975c2.23984,0,3.15618-2.13808,2.23984-3.81799l-18.12276-33.59829.0512.05089ZM1078.7912,491.91202h-21.53347v-26.31867h21.53347c7.02512,0,13.08295,5.80335,13.08295,12.82844s-6.05782,13.49022-13.08295,13.49022Z" style="fill:#fdf7ed; stroke-width:0px;"/><path d="M93.95405,237.88858h12.16665c1.32357,0,2.49442-1.17084,2.49442-2.49442v-31.05296h16.54461c16.13737,0,29.47486-13.33751,29.47486-29.72939s-13.33751-29.22033-29.62759-29.22033h-31.05296c-1.47629,0-2.49442,1.17085-2.49442,2.49442v87.50827c0,1.32357,1.06904,2.49442,2.49442,2.49442h.00002ZM108.66603,161.57974h15.32286c7.38145,0,13.64294,5.54881,13.64294,12.82844s-6.2106,13.74475-13.64294,13.74475h-15.32286v-26.57319h0Z" style="fill:#fdf7ed; stroke-width:0px;"/><path d="M172.24825,237.88858h53.80818c1.47629,0,2.49442-1.17084,2.49442-2.49442v-10.84308c0-1.32357-1.06904-2.49442-2.49442-2.49442h-39.1471v-23.16246h32.68196c1.32357,0,2.49442-1.06904,2.49442-2.49442v-10.99581c0-1.32357-1.17084-2.49442-2.49442-2.49442h-32.68198v-21.68617h39.1471c1.47629,0,2.49442-1.17085,2.49442-2.49442v-10.84309c0-1.32357-1.06904-2.49442-2.49442-2.49442h-53.80816c-1.47629,0-2.49442,1.17085-2.49442,2.49442v87.50828c0,1.32357,1.06904,2.49442,2.49442,2.49442v-.00002Z" style="fill:#fdf7ed; stroke-width:0px;"/><path d="M244.94273,161.2234h20.20989v74.17077c0,1.32357,1.17084,2.49442,2.49443,2.49442h12.31938c1.32356,0,2.49443-1.17084,2.49443-2.49442v-74.17077h20.20989c1.4763,0,2.49443-1.17085,2.49443-2.49442v-10.84309c0-1.32357-1.06902-2.49442-2.49443-2.49442h-57.77888c-1.47629,0-2.49442,1.17085-2.49442,2.49442v10.84309c0,1.32357,1.06904,2.49442,2.49442,2.49442h.05086Z" style="fill:#fdf7ed; stroke-width:0px;"/><path d="M179.93512,476.131c3.25801,0,350.03305-.61088,374.87545-1.32356.96724,0,1.73083-.81449,1.73083-1.83262,0-.96724-.81449-1.73083-1.83262-1.73083-24.79144.66178-371.46474,1.32356-374.77366,1.32356s-2.39261-.61088-3.51255-1.83262c-3.61436-3.81799-5.90516-12.62481-5.70153-16.69733.35635-10.33401-6.10878-18.78451-16.34099-21.48255-5.54881-1.57809-10.13039-.7127-15.01742.20364-1.27266.25453-2.59623.50906-3.91981.7127-6.10878.81449-12.87935,1.22177-20.76985,1.22177s-8.75592-.55996-13.08297-1.11995l-.71269-.10182c-.30544,0-.61088-.10182-.96722-.20364-2.08717-.40725-4.93793-.96724-7.12691.40725-1.17085.66178-1.73082,2.08715-1.78173,3.2071-.35634,2.18897.50906,4.6834,1.42538,6.26149,1.62901,4.47977,4.58158,8.80682,8.24685,12.11574,4.12343,3.86888,9.16317,6.66874,14.0502,9.36681,1.27266.7127,2.59623,1.42538,3.9198,2.18897.81451.45817,1.78173.86542,2.74895,1.37448,4.27615,2.03626,9.11227,4.37795,9.51951,8.55229.20362,1.88355-.15271,3.66527-.45816,5.54882-.15271.96724-.35635,1.93444-.45816,2.79986-2.54532,17.66456,6.00696,35.68544,21.32982,44.89954,1.47629,1.83262,4.47977,10.63947,3.51255,12.16667-1.06904,1.17084-3.1053,1.98537-5.09065,2.79986-3.51255,1.42538-7.89051,3.15621-7.89051,7.83961s0,.20364,0,.30543c.86542,4.53069,5.4979,5.70153,11.45396,5.70153,3.30892,0,7.076-.35635,10.74127-.7636,1.93444-.20364,3.8689-.40725,5.70153-.50906,9.4177-.7127,9.82495-9.26499,10.1813-16.18826.20362-3.61435.35635-7.33055,1.78173-9.11228.71269-.86542,1.17084-.91631,3.00348-.91631,2.59623,0,11.96303-.81449,22.80611-1.78173,10.63946-.96724,22.65339-2.03626,29.16942-2.34169,79.97411-3.66527,316.33299-.91631,318.11471-.86542.96724,0,1.78173-.7127,1.83262-1.67991,0-.96724-.7127-1.78173-1.67994-1.83262-1.67994-.05089-239.46419-2.74896-318.36926.86542-6.61784.30543-18.68269,1.37448-29.32215,2.34169-10.28312.91631-20.00625,1.78173-22.44977,1.73083-1.93444,0-3.9707,0-5.75243,2.2399-2.08717,2.64714-2.29079,6.77056-2.54532,11.09761-.35635,7.68687-1.01813,12.4212-6.92329,12.87934-1.88355.15271-3.81799.35635-5.80334.50906-7.73779.7636-17.35912,1.73083-18.32634-1.93444.10182-2.03626,2.23988-3.0035,5.65062-4.37795,2.3417-.91631,4.78521-1.88355,6.41422-3.66527.86542-.91631,1.17084-2.39261,1.01813-4.42887-.40725-4.17434-3.25801-11.6576-4.93794-12.93026,0,0-.10182-.05089-.15271-.10182-14.25382-8.50139-22.24615-25.14782-19.85353-41.53969.10182-.86542.25453-1.73083.40725-2.64714.35635-2.03626.7636-4.17434.50906-6.51603-.61088-6.15967-6.66875-9.06135-11.50487-11.40307-.91632-.45817-1.78173-.86542-2.54532-1.27266-1.27266-.7636-2.59623-1.4763-3.9198-2.18897-4.6834-2.59622-9.51951-5.29429-13.3375-8.85774-3.30892-3.0035-5.95606-6.87238-7.38144-10.894,0-.10182-.10181-.20364-.15272-.30543-.20362-.30543-.35634-.61088-.45816-.96724.25453.05089.50906.10182.7636.10182,1.52719,0,3.00348-1.37448,2.95258-2.95257,0-.40725-.10181-.7636-.25453-1.11995.25453,0,.50906.10182.7636.15271.35634.05089.71269.15271,1.11994.20364l.7636.10182c4.47977.61088,8.70501,1.17084,13.54113,1.17084,8.04323,0,14.96652-.40725,21.27892-1.27266,1.37448-.20364,2.74895-.45817,4.07252-.7127,4.63249-.86542,8.6541-1.62901,13.3884-.25453,8.75592,2.34169,13.99929,9.21406,13.74475,17.96999-.25453,4.83612,2.13808,14.50835,6.61784,19.29358,1.83264,1.93444,3.91981,2.95257,6.10878,2.95257l-.15265.05086Z" style="fill:#fdf7ed; stroke-width:0px;"/><path d="M158.96165,454.90299c-3.15621-6.26149-5.95607-6.26149-9.72314-.30543-4.6834,7.53416-7.22873,15.6792-6.26149,24.43512.61088,6.56695,3.46164,9.72313,9.4177,10.99579,10.63946,2.18897,17.56274-5.03976,14.40653-15.37377-2.18897-6.87238-4.6834-13.49022-7.8396-19.75172Z" style="fill:#fdf7ed; stroke-width:0px;"/><path d="M136.10464,445.73982c0,.10182-.10182.20364-.10182.35635-.25453,1.27266.81451,2.39261,2.08717,2.49443.91631.05089,1.78173.10182,2.59623-.05089,1.93444-.40725,1.37448-2.13808,1.22175-3.46164-.15271-1.27266-.50906-2.49443-.96722-3.71617-.15271-.45817-2.3417-2.39261-2.64714-1.98537-1.32357,1.57809,1.11995,2.74896.91631,3.05439-.96722,1.52719-2.3417,1.73083-3.1053,3.35982l.00002-.05093Z" style="fill:#fdf7ed; stroke-width:0px;"/><path d="M1066.37006,241.75748c3.35988-1.01813,7.89051-2.49442,10.23226-7.78869.56002-1.22175.40728-2.90168.25453-4.6834-.05096-.66178-.10179-1.32357-.10179-1.88355,0-9.57042-7.78872-9.77405-24.94418-10.28312-1.88352-.05091-3.91978-.10182-6.10878-.20362-.91634,0-118.86668.50906-313.12587,1.37448-182.14342.81451-388.56931,1.73082-391.06374,1.67991-.91631,0-1.67991.71269-1.67991,1.62901s.7127,1.67991,1.62901,1.67991c2.54532,0,200.11347-.81451,391.16553-1.67991,160.05005-.71269,311.19146-1.37448,312.97319-1.37448,2.189.10182,4.22526.15271,6.10878.20362,18.42813.55997,21.73705,1.11995,21.73705,6.9742s.05096,1.37448.10179,2.13808c.10179.96722.20358,2.59623,0,3.05439-1.73077,3.9707-4.98886,4.98883-8.14504,5.95607-3.15618.96722-6.6688,2.08717-6.6688,6.46513s.50906,2.29079,1.47624,3.1053c2.23984,1.93444,7.2287,2.54532,12.52305,2.54532,7.17787,0,14.91563-1.11995,17.20642-1.47629,8.34862-1.11995,8.75589-4.83612,9.4177-10.43583.66181-7.17782,3.20713-29.32215,4.4798-36.55088.7636-5.24336.50906-9.87586-.71264-14.20291-.35632-1.01813-.71264-2.03626-1.11992-3.00348-1.01813-2.69804-1.9853-5.19247-1.9853-7.99233s1.01813-2.95258,2.189-5.09065c2.39258-4.47977,6.05782-11.25034,6.51606-21.07529,1.22171-27.03135-15.83197-33.19104-23.21341-34.56551h-.25453c-.7636-.25453-1.57815.15272-1.93447.86541-.50906,1.01813,0,1.73082,1.06909,3.1053,2.54532,3.35983,10.28309,13.54113,9.21413,27.43861-.86539,11.35215-10.23226,18.27543-14.6611,19.24266-1.17087.10181-22.29707.7636-49.07388,1.47629-18.52998.50906-429.24364,0-672.42397-.40725h-15.93373c-.91631,0-1.67991.7636-1.67991,1.67992s.7636,1.67992,1.67991,1.67992h15.93373c171.50401.25453,426.34194.61088,568.21833.61088s98.8604-.05091,104.35832-.20362c11.35217-.30544,48.51392-1.32357,49.53205-1.52719,6.6688-1.47629,16.44282-10.02858,17.35917-22.24614.96717-12.67572-4.68337-22.39886-8.14504-27.3877,7.2287,2.54532,17.56274,9.77405,16.6464,30.08574-.40728,9.06136-3.7162,15.17014-6.10878,19.64991-1.47624,2.74895-2.54532,4.73431-2.54532,6.66875,0,3.35983,1.11992,6.3124,2.23984,9.16317.35632.96722.71264,1.88355,1.01813,2.79986,1.11992,3.81799,1.27266,7.89051.61085,12.67572-1.32362,7.63597-3.91978,30.5439-4.4798,36.7545-.61085,5.29427-.81455,6.71966-6.61784,7.53416-10.99585,1.67991-24.23154,2.13808-27.08223-.30544-.35632-.30544-.35632-.50906-.35632-.61088,0-1.78173,1.06909-2.29079,4.37801-3.30892l-.10204.05089Z" style="fill:#fdf7ed; stroke-width:0px;"/></svg>