<svg width="2275" height="249" viewBox="0 0 2275 249" fill="none" xmlns="http://www.w3.org/2000/svg">
<path d="M79.2737 142.384C79.0817 142.768 78.6977 143.088 78.1857 143.088C77.9937 143.088 77.8017 143.088 77.6097 143.024C77.4817 142.96 77.2897 142.832 77.2257 142.704C76.9697 142.64 76.2657 142.448 74.3457 142.32C73.0017 142.384 70.9537 142.384 68.4577 142.384C64.9377 142.384 59.8177 142.256 58.8577 142.256L49.0017 142.384C48.1057 142.384 47.4017 141.744 47.4017 140.912C47.4017 140.08 48.1057 139.44 49.0017 139.44C50.5377 139.44 50.6017 139.312 50.7937 138.864C51.1777 137.776 51.3057 135.28 51.3697 130.736C51.4337 130.288 51.4337 129.072 51.4337 126.96V116.464C51.4337 115.376 51.4337 114.416 51.4337 113.584C51.4337 109.744 51.3057 106.928 50.9857 105.648C50.7937 105.072 50.7937 105.008 49.7697 105.008H48.4897C47.5937 105.008 46.9537 104.368 46.9537 103.536C46.9537 102.704 47.5937 102 48.4897 102H49.0657C49.1937 102 49.3857 102 49.5777 102C50.3457 102 51.2417 102.064 52.1377 102.064H53.1617C53.9297 102.064 54.5697 102.064 54.8897 102.064C55.2097 102.064 56.5537 102.064 58.1537 102.064H58.5377C60.5857 102 62.9537 102 63.7857 102C64.6817 102 65.3217 102.704 65.3217 103.536C65.3217 104.368 64.6817 105.008 63.7857 105.008H62.5057C61.4177 105.008 61.4177 105.008 61.2257 105.84C60.9057 107.504 60.8417 111.024 60.8417 117.424V127.024L60.7777 127.088V129.968C60.7777 133.04 60.7777 136.88 60.5857 139.12H65.0017C74.6017 138.928 77.6737 133.296 79.2737 130.224C79.5297 129.712 79.7857 129.328 79.9777 128.944C80.1697 128.688 80.5537 128.432 81.0657 128.432C81.5137 128.432 81.8977 128.688 82.0897 129.072C82.2177 129.264 82.2177 129.456 82.2177 129.648C82.2177 129.712 82.2177 129.776 82.2177 129.84C82.0897 130.672 80.5537 139.312 79.2737 142.384ZM107.383 142.064C105.783 142.512 104.183 142.704 102.711 142.704C95.6074 142.704 89.9754 138.288 88.0554 130.8C85.7514 121.648 90.6794 113.584 100.023 111.28C109.303 108.912 117.047 113.456 119.351 122.544C120.439 127.024 119.863 131.376 117.559 134.96C115.383 138.416 111.799 140.976 107.383 142.064ZM109.367 125.424C107.575 118.384 104.503 114.032 101.303 114.032C101.047 114.032 100.727 114.096 100.407 114.16C95.4794 115.44 97.1434 124.208 98.1034 127.984C99.0634 131.888 100.471 135.024 102.135 137.008C103.671 138.864 105.271 139.568 106.935 139.184C111.927 137.904 110.263 129.136 109.367 125.424ZM156.258 132.912C152.034 139.184 147.042 142.256 141.026 142.256C132.194 142.256 126.114 135.92 126.114 126.96C126.114 118.128 132.194 111.536 140.962 110.896C141.666 110.832 142.434 110.768 143.138 110.768C146.466 110.768 149.282 111.216 151.714 112.048C151.778 111.984 151.778 111.984 151.778 111.984C152.034 111.92 152.61 111.664 153.186 111.984C153.506 112.176 153.698 112.496 153.762 112.88C153.826 113.2 153.89 113.84 153.954 115.184C154.082 116.4 154.274 118.192 154.466 120.944C154.594 121.52 154.274 122.032 153.698 122.288C153.122 122.544 152.418 122.352 152.098 121.84C152.098 121.776 152.034 121.712 152.034 121.712C150.882 119.152 148.962 115.824 146.018 114.224C144.418 113.392 143.33 113.456 143.266 113.456C142.882 113.456 142.626 113.456 142.306 113.52C138.658 114.032 134.818 118.512 134.818 125.168C134.818 133.232 139.682 136.88 144.546 137.008C148.066 137.072 151.33 135.152 154.146 131.44C154.466 130.992 155.106 130.864 155.554 131.184L155.938 131.376C156.194 131.504 156.386 131.76 156.45 132.08C156.514 132.336 156.45 132.656 156.258 132.912ZM197.673 140.528C197.673 141.232 197.033 141.872 196.265 141.872H181.673C180.841 141.872 180.201 141.232 180.201 140.528C180.201 139.76 180.841 139.184 181.673 139.184C183.209 139.184 183.209 138.8 183.209 138.032C183.209 137.328 183.017 136.24 182.569 134.832L180.201 127.344C180.201 127.28 178.921 122.864 176.425 122.8C174.697 122.8 173.481 123.376 172.649 124.592V134.192C172.649 139.12 172.777 139.12 174.825 139.12C175.593 139.12 176.233 139.76 176.233 140.464C176.233 141.232 175.593 141.808 174.825 141.808H161.577C160.745 141.808 160.105 141.232 160.105 140.464C160.105 139.76 160.745 139.12 161.577 139.12C163.113 139.12 163.305 139.12 163.305 134.192V105.456C163.305 102.96 162.985 102.32 162.857 102.192C162.601 102 161.449 102.192 160.809 102.32C160.233 102.384 159.721 102.192 159.465 101.808C159.145 101.424 159.081 100.912 159.273 100.528C159.465 100.016 159.913 99.696 160.489 99.632C162.729 99.248 166.761 97.072 168.937 95.856C169.385 95.664 169.705 95.472 170.025 95.344C170.793 94.896 171.881 95.472 171.881 95.472C172.585 95.856 172.649 96.432 172.649 96.688V110.896C172.905 110.576 173.289 110.384 173.737 110.384H187.241C188.009 110.384 188.649 110.96 188.649 111.664C188.649 112.368 188.073 113.008 187.305 113.008C183.529 113.136 181.673 115.056 177.321 119.664C178.025 119.6 178.729 119.536 179.433 119.6C187.561 120.112 189.353 125.552 189.609 126.256L192.489 134C194.345 139.184 194.345 139.184 196.265 139.184C196.585 139.184 196.969 139.312 197.225 139.504C197.481 139.76 197.673 140.144 197.673 140.528ZM173.737 113.008C173.289 113.008 172.905 112.816 172.649 112.496V120.304L173.609 119.344C174.697 118.192 176.809 116.016 176.873 114.736C176.873 114.352 176.745 114.096 176.489 113.84C175.977 113.328 174.953 113.008 173.737 113.008ZM232.225 140.464C231.841 141.296 231.009 141.872 230.049 141.872H226.209C225.313 141.872 224.545 141.296 224.225 140.4L220.321 128.56L215.009 140.464C214.689 141.296 213.857 141.872 212.897 141.872H209.057C208.161 141.872 207.393 141.296 207.073 140.4L199.905 118.832C199.905 118.832 199.841 118.768 199.841 118.704C198.113 113.712 198.113 113.712 196.129 113.712C195.361 113.712 194.785 113.136 194.785 112.368C194.785 111.6 195.361 111.024 196.129 111.024H210.337C211.169 111.024 211.745 111.6 211.745 112.368C211.745 113.136 211.169 113.712 210.337 113.712C209.441 113.712 209.121 113.84 208.993 113.968C208.929 114.096 208.609 114.672 209.185 116.784L214.433 133.936L218.849 124.208L217.057 118.832C217.057 118.768 217.057 118.768 216.993 118.704C215.329 113.712 215.329 113.712 213.345 113.712C212.513 113.712 211.937 113.136 211.937 112.368C211.937 111.6 212.513 111.024 213.345 111.024H218.337C218.401 111.024 218.465 111.024 218.465 111.024H227.489C228.321 111.024 228.961 111.6 228.961 112.368C228.961 113.136 228.321 113.712 227.489 113.712C226.529 113.712 226.273 113.904 226.209 113.968C226.081 114.096 225.889 114.48 226.209 116.016C226.209 116.272 226.273 116.528 226.401 116.784L231.585 133.936L236.897 121.84C237.473 120.368 239.265 115.824 238.305 114.48C237.985 113.968 237.089 113.712 235.681 113.776C234.849 113.776 234.209 113.136 234.209 112.368C234.209 111.6 234.849 111.024 235.617 111.024H247.009C247.841 111.024 248.481 111.6 248.481 112.368C248.481 112.752 248.289 113.136 247.969 113.392C247.713 113.584 247.393 113.712 247.009 113.712C246.305 113.712 243.553 114.416 239.777 123.312L232.225 140.464ZM269.539 142.064C267.939 142.512 266.339 142.704 264.867 142.704C257.763 142.704 252.131 138.288 250.211 130.8C247.907 121.648 252.835 113.584 262.179 111.28C271.459 108.912 279.203 113.456 281.507 122.544C282.595 127.024 282.019 131.376 279.715 134.96C277.539 138.416 273.955 140.976 269.539 142.064ZM271.523 125.424C269.731 118.384 266.659 114.032 263.459 114.032C263.203 114.032 262.883 114.096 262.563 114.16C257.635 115.44 259.299 124.208 260.259 127.984C261.219 131.888 262.627 135.024 264.291 137.008C265.827 138.864 267.427 139.568 269.091 139.184C274.083 137.904 272.419 129.136 271.523 125.424ZM308.109 142.064C306.509 142.512 304.909 142.704 303.437 142.704C296.333 142.704 290.701 138.288 288.781 130.8C286.477 121.648 291.405 113.584 300.749 111.28C310.029 108.912 317.773 113.456 320.077 122.544C321.165 127.024 320.589 131.376 318.285 134.96C316.109 138.416 312.525 140.976 308.109 142.064ZM310.093 125.424C308.301 118.384 305.229 114.032 302.029 114.032C301.773 114.032 301.453 114.096 301.133 114.16C296.205 115.44 297.869 124.208 298.829 127.984C299.789 131.888 301.197 135.024 302.861 137.008C304.397 138.864 305.997 139.568 307.661 139.184C312.653 137.904 310.989 129.136 310.093 125.424ZM344.951 140.592C343.031 141.616 340.919 142.192 338.679 142.192C331.703 142.192 326.903 136.688 326.903 128.944C326.903 116.72 335.543 110.32 344.055 110.32C345.463 110.32 346.807 110.576 348.151 111.024V105.52C348.151 102.96 347.895 102.384 347.703 102.192C347.447 102 346.295 102.192 345.655 102.32C344.823 102.448 344.119 101.936 344.055 101.168C343.991 100.464 344.503 99.76 345.335 99.632C347.639 99.248 351.735 97.072 353.911 95.856C354.295 95.664 354.615 95.472 354.871 95.344C355.511 94.96 356.471 95.344 356.791 95.536C357.431 95.92 357.559 96.496 357.559 96.688V134.256C357.559 135.024 357.559 135.664 357.559 136.24C357.687 139.184 357.815 139.184 359.671 139.184C360.439 139.184 361.079 139.76 361.079 140.528C361.079 141.232 360.439 141.872 359.671 141.872H346.423C345.591 141.872 345.015 141.296 344.951 140.592ZM347.127 139.12C347.703 139.056 347.767 138.928 347.895 138.48C347.639 138.736 347.383 138.928 347.127 139.12ZM348.151 117.168C347.319 115.824 345.271 113.328 342.391 113.328C339.575 113.328 336.311 114.736 336.311 125.68C336.311 131.312 338.039 137.264 342.903 137.264C344.759 137.264 346.487 136.304 348.151 134.32V117.168ZM345.655 101.808H345.719H345.655ZM422.093 142.384C421.901 142.768 421.517 143.088 421.005 143.088C420.813 143.088 420.621 143.088 420.429 143.024C420.301 142.96 420.109 142.832 420.045 142.704C419.789 142.64 419.085 142.448 417.165 142.32C415.821 142.384 413.773 142.384 411.277 142.384C407.757 142.384 402.637 142.256 401.677 142.256L391.821 142.384C390.925 142.384 390.221 141.744 390.221 140.912C390.221 140.08 390.925 139.44 391.821 139.44C393.357 139.44 393.421 139.312 393.613 138.864C393.997 137.776 394.125 135.28 394.189 130.736C394.253 130.288 394.253 129.072 394.253 126.96V116.464C394.253 115.376 394.253 114.416 394.253 113.584C394.253 109.744 394.125 106.928 393.805 105.648C393.613 105.072 393.613 105.008 392.589 105.008H391.309C390.413 105.008 389.773 104.368 389.773 103.536C389.773 102.704 390.413 102 391.309 102H391.885C392.013 102 392.205 102 392.397 102C393.165 102 394.061 102.064 394.957 102.064H395.981C396.749 102.064 397.389 102.064 397.709 102.064C398.029 102.064 399.373 102.064 400.973 102.064H401.357C403.405 102 405.773 102 406.605 102C407.501 102 408.141 102.704 408.141 103.536C408.141 104.368 407.501 105.008 406.605 105.008H405.325C404.237 105.008 404.237 105.008 404.045 105.84C403.725 107.504 403.661 111.024 403.661 117.424V127.024L403.597 127.088V129.968C403.597 133.04 403.597 136.88 403.405 139.12H407.821C417.421 138.928 420.493 133.296 422.093 130.224C422.349 129.712 422.605 129.328 422.797 128.944C422.989 128.688 423.373 128.432 423.885 128.432C424.333 128.432 424.717 128.688 424.909 129.072C425.037 129.264 425.037 129.456 425.037 129.648C425.037 129.712 425.037 129.776 425.037 129.84C424.909 130.672 423.373 139.312 422.093 142.384ZM450.202 142.064C448.602 142.512 447.002 142.704 445.53 142.704C438.426 142.704 432.794 138.288 430.874 130.8C428.57 121.648 433.498 113.584 442.842 111.28C452.122 108.912 459.866 113.456 462.17 122.544C463.258 127.024 462.682 131.376 460.378 134.96C458.202 138.416 454.618 140.976 450.202 142.064ZM452.186 125.424C450.394 118.384 447.322 114.032 444.122 114.032C443.866 114.032 443.546 114.096 443.226 114.16C438.298 115.44 439.962 124.208 440.922 127.984C441.882 131.888 443.29 135.024 444.954 137.008C446.49 138.864 448.09 139.568 449.754 139.184C454.746 137.904 453.082 129.136 452.186 125.424ZM484.374 140.464C484.054 141.296 483.158 141.872 482.262 141.872H478.422C477.526 141.872 476.758 141.296 476.438 140.4L469.27 118.832C469.27 118.768 469.27 118.768 469.27 118.704C467.542 113.712 467.542 113.712 465.558 113.712C464.79 113.712 464.214 113.136 464.214 112.368C464.214 111.6 464.79 111.024 465.558 111.024H479.702C480.534 111.024 481.11 111.6 481.11 112.368C481.11 113.136 480.534 113.712 479.702 113.712C478.806 113.712 478.486 113.84 478.358 113.968C478.294 114.096 478.038 114.672 478.614 116.784L483.798 134.064L489.174 121.968C489.686 120.496 491.478 115.952 490.518 114.48C490.134 113.968 489.238 113.712 487.83 113.776C486.998 113.776 486.358 113.136 486.358 112.368C486.358 111.6 486.998 111.024 487.83 111.024H499.158C499.99 111.024 500.566 111.6 500.566 112.368C500.566 113.136 499.99 113.712 499.158 113.712C498.454 113.712 495.702 114.416 491.99 123.312L484.374 140.464ZM518.775 142.192C517.943 142.32 517.175 142.384 516.343 142.384C513.207 142.384 510.263 141.424 507.895 139.632C504.759 137.264 502.711 133.616 502.007 129.136C500.599 119.856 506.103 112.048 515.191 110.64C518.007 110.192 522.167 110.704 525.175 113.328C527.543 115.376 528.823 118.384 528.759 121.968C528.759 122.096 528.759 122.224 528.695 122.352C528.695 122.352 528.631 122.416 528.631 122.48C528.503 122.736 528.247 122.928 527.991 123.056L512.055 128.176V128.24C513.335 134.512 516.279 137.136 521.335 136.432C524.663 135.984 527.095 133.808 529.463 129.392C529.719 128.88 530.295 128.624 530.807 128.88L531.511 129.136C531.767 129.2 532.023 129.456 532.087 129.712C532.215 130.032 532.215 130.288 532.087 130.608C528.951 137.456 524.599 141.296 518.775 142.192ZM518.071 114.288C517.431 113.712 516.727 113.456 515.767 113.456C515.575 113.456 515.319 113.456 515.127 113.52C514.487 113.584 513.911 113.904 513.463 114.544C511.927 116.528 511.223 120.816 511.671 125.296L519.991 122.608C520.055 120.688 520.055 116.208 518.071 114.288ZM567.138 131.824C567.138 138.8 559.394 142 551.714 142C551.266 142 550.754 141.936 550.306 141.936C548.066 141.936 544.93 141.488 543.906 141.36C543.842 141.36 543.778 141.36 543.65 141.36C541.986 141.232 541.346 141.296 541.154 141.36C541.026 141.552 540.834 141.68 540.578 141.744C540.002 141.936 539.618 141.744 539.426 141.616C539.106 141.424 538.978 141.04 538.978 140.72C538.978 139.248 538.338 135.792 538.018 134.064C537.954 133.616 537.89 133.296 537.89 133.104C537.89 133.04 537.89 133.04 537.89 132.976C537.826 132.656 537.954 132.4 538.146 132.144C538.338 132.016 538.594 131.824 539.042 131.824C539.49 131.824 539.874 132.016 540.066 132.4C540.514 133.04 543.842 137.584 550.306 138.864C551.074 138.992 551.842 139.056 552.674 139.056C556.642 139.056 559.138 137.712 559.138 135.536C559.138 133.296 556.194 132.208 552.034 130.928L549.282 130.032C545.378 128.816 538.146 126.512 538.146 120.176C538.146 115.248 542.69 110.256 552.802 110.256C554.53 110.256 556.322 110.448 558.114 110.704C558.178 110.704 558.306 110.704 558.37 110.704C560.034 110.896 560.674 110.768 560.93 110.704C561.058 110.576 561.25 110.448 561.442 110.32C562.018 110.128 562.402 110.32 562.658 110.448C562.914 110.64 563.106 111.024 563.106 111.408C563.106 112.816 563.746 116.336 564.002 118C564.066 118.448 564.13 118.768 564.194 118.96C564.194 119.024 564.194 119.088 564.194 119.152C564.194 119.664 563.746 120.24 562.978 120.24C562.53 120.24 562.146 119.984 562.018 119.728C560.61 117.68 556.13 113.2 551.842 113.2C548.45 113.2 546.146 114.48 546.146 116.336C546.146 118.64 549.666 119.728 553.122 120.816L556.258 121.776C560.034 122.992 567.138 125.36 567.138 131.824ZM538.21 133.552C538.21 133.488 538.146 133.424 538.146 133.36C538.146 133.488 538.21 133.552 538.274 133.616C538.274 133.616 538.274 133.552 538.21 133.552ZM563.938 118.704C563.874 118.64 563.874 118.576 563.81 118.512C563.874 118.576 563.874 118.64 563.938 118.704ZM624.223 140.72C624.223 141.488 623.519 142.128 622.687 142.128H607.455C606.623 142.128 605.919 141.488 605.919 140.72C605.919 139.888 606.623 139.312 607.455 139.312H608.351C609.631 139.312 609.759 139.312 609.951 138.288C610.335 136.752 610.463 133.488 610.463 126.768V125.36L604.639 113.648C600.735 106.032 599.455 104.816 597.471 104.816H597.023C596.063 104.816 595.487 104.048 595.487 103.344C595.487 102.512 596.127 101.872 596.959 101.872H613.215C614.047 101.872 614.751 102.576 614.751 103.408C614.751 103.792 614.559 104.176 614.303 104.432C613.983 104.688 613.663 104.816 613.279 104.816H611.359C611.039 104.816 610.847 104.816 610.719 104.88C610.719 105.648 611.999 108.208 613.279 110.96L618.207 121.2L621.855 113.84C623.711 109.68 624.351 106.48 623.583 105.264C623.519 105.136 623.199 104.688 622.047 104.688C621.855 104.688 621.407 104.688 621.087 104.688L620.895 104.752C620.575 104.752 620.255 104.752 620.191 104.752C619.999 104.752 619.487 104.752 619.103 104.368C618.719 103.984 618.719 103.536 618.719 103.344C618.719 102.96 618.911 101.872 620.447 101.872H633.567C633.951 101.872 634.335 102.064 634.591 102.32C634.655 102.32 634.655 102.32 634.655 102.32C634.911 102.576 635.039 102.96 635.039 103.344C635.039 104.176 634.399 104.816 633.567 104.816H633.503C631.647 104.816 627.999 109.04 624.543 115.056L619.679 124.848V126.768C619.679 133.488 619.743 136.752 620.127 138.288C620.383 139.312 620.447 139.312 621.791 139.312H622.687C623.519 139.312 624.223 139.888 624.223 140.72ZM655.061 142.064C653.461 142.512 651.861 142.704 650.389 142.704C643.285 142.704 637.653 138.288 635.733 130.8C633.429 121.648 638.357 113.584 647.701 111.28C656.981 108.912 664.725 113.456 667.029 122.544C668.117 127.024 667.541 131.376 665.237 134.96C663.061 138.416 659.477 140.976 655.061 142.064ZM657.045 125.424C655.253 118.384 652.181 114.032 648.981 114.032C648.725 114.032 648.405 114.096 648.085 114.16C643.157 115.44 644.821 124.208 645.781 127.984C646.741 131.888 648.149 135.024 649.813 137.008C651.349 138.864 652.949 139.568 654.613 139.184C659.605 137.904 657.941 129.136 657.045 125.424ZM694.429 138.8C692.509 140.656 689.693 142.512 685.533 142.512C683.869 142.512 682.333 142.256 681.053 141.808C677.469 140.464 675.741 136.88 675.741 130.992V120.688C675.741 118.192 675.421 117.552 675.293 117.424C675.037 117.232 673.885 117.424 673.245 117.488C672.861 117.552 672.541 117.488 672.221 117.296C671.901 117.104 671.645 116.784 671.645 116.4C671.517 115.632 672.093 114.928 672.925 114.864C675.165 114.48 679.261 112.24 681.437 111.088C681.821 110.896 682.141 110.704 682.461 110.512C683.229 110.128 684.317 110.704 684.317 110.704C685.021 111.088 685.085 111.664 685.085 111.856V132.08C685.085 135.088 685.533 137.904 688.861 137.904C690.461 137.904 692.061 136.944 693.853 135.152V119.152C693.725 117.744 693.469 117.488 693.405 117.424C693.149 117.232 691.997 117.424 691.357 117.488C690.973 117.552 690.653 117.488 690.397 117.296C690.013 117.104 689.821 116.784 689.757 116.4C689.693 115.632 690.269 114.928 691.101 114.864C693.341 114.48 697.437 112.24 699.613 111.088C699.997 110.896 700.317 110.704 700.573 110.512C701.405 110.128 702.493 110.704 702.493 110.704C703.197 111.088 703.261 111.664 703.261 111.856V119.984C703.261 120.048 703.261 120.176 703.261 120.24V131.76C703.261 131.824 703.261 131.824 703.261 131.888V134C703.261 134.128 703.261 134.192 703.261 134.256C703.261 139.184 703.389 139.184 705.437 139.184C705.949 139.184 706.397 139.44 706.653 139.824C706.845 140.272 706.845 140.784 706.653 141.168C706.397 141.616 705.949 141.872 705.437 141.872H696.221C695.773 141.872 695.325 141.552 695.197 141.104L694.429 138.8ZM691.357 117.04C691.421 117.04 691.421 117.04 691.421 116.976C691.421 117.04 691.421 117.04 691.357 117.04ZM673.245 117.04C673.245 117.04 673.245 117.04 673.309 116.976C673.245 117.04 673.245 117.04 673.245 117.04ZM839.817 142.384C839.625 142.768 839.241 143.088 838.729 143.088C838.537 143.088 838.345 143.088 838.153 143.024C838.025 142.96 837.833 142.832 837.769 142.704C837.513 142.64 836.809 142.448 834.889 142.32C833.545 142.384 831.497 142.384 829.001 142.384C825.481 142.384 820.361 142.256 819.401 142.256L809.545 142.384C808.649 142.384 807.945 141.744 807.945 140.912C807.945 140.08 808.649 139.44 809.545 139.44C811.081 139.44 811.145 139.312 811.337 138.864C811.721 137.776 811.849 135.28 811.913 130.736C811.977 130.288 811.977 129.072 811.977 126.96V116.464C811.977 115.376 811.977 114.416 811.977 113.584C811.977 109.744 811.849 106.928 811.529 105.648C811.337 105.072 811.337 105.008 810.313 105.008H809.033C808.137 105.008 807.497 104.368 807.497 103.536C807.497 102.704 808.137 102 809.033 102H809.609C809.737 102 809.929 102 810.121 102C810.889 102 811.785 102.064 812.681 102.064H813.705C814.473 102.064 815.113 102.064 815.433 102.064C815.753 102.064 817.097 102.064 818.697 102.064H819.081C821.129 102 823.497 102 824.329 102C825.225 102 825.865 102.704 825.865 103.536C825.865 104.368 825.225 105.008 824.329 105.008H823.049C821.961 105.008 821.961 105.008 821.769 105.84C821.449 107.504 821.385 111.024 821.385 117.424V127.024L821.321 127.088V129.968C821.321 133.04 821.321 136.88 821.129 139.12H825.545C835.145 138.928 838.217 133.296 839.817 130.224C840.073 129.712 840.329 129.328 840.521 128.944C840.713 128.688 841.097 128.432 841.609 128.432C842.057 128.432 842.441 128.688 842.633 129.072C842.761 129.264 842.761 129.456 842.761 129.648C842.761 129.712 842.761 129.776 842.761 129.84C842.633 130.672 841.097 139.312 839.817 142.384ZM867.927 142.064C866.327 142.512 864.727 142.704 863.255 142.704C856.151 142.704 850.519 138.288 848.599 130.8C846.295 121.648 851.223 113.584 860.567 111.28C869.847 108.912 877.591 113.456 879.895 122.544C880.983 127.024 880.407 131.376 878.103 134.96C875.927 138.416 872.343 140.976 867.927 142.064ZM869.911 125.424C868.119 118.384 865.047 114.032 861.847 114.032C861.591 114.032 861.271 114.096 860.951 114.16C856.023 115.44 857.687 124.208 858.647 127.984C859.607 131.888 861.015 135.024 862.679 137.008C864.215 138.864 865.815 139.568 867.479 139.184C872.471 137.904 870.807 129.136 869.911 125.424ZM916.801 132.912C912.577 139.184 907.585 142.256 901.569 142.256C892.737 142.256 886.657 135.92 886.657 126.96C886.657 118.128 892.737 111.536 901.505 110.896C902.209 110.832 902.977 110.768 903.681 110.768C907.009 110.768 909.825 111.216 912.257 112.048C912.321 111.984 912.321 111.984 912.321 111.984C912.577 111.92 913.153 111.664 913.729 111.984C914.049 112.176 914.241 112.496 914.305 112.88C914.369 113.2 914.433 113.84 914.497 115.184C914.625 116.4 914.817 118.192 915.009 120.944C915.137 121.52 914.817 122.032 914.241 122.288C913.665 122.544 912.961 122.352 912.641 121.84C912.641 121.776 912.577 121.712 912.577 121.712C911.425 119.152 909.505 115.824 906.561 114.224C904.961 113.392 903.873 113.456 903.809 113.456C903.425 113.456 903.169 113.456 902.849 113.52C899.201 114.032 895.361 118.512 895.361 125.168C895.361 133.232 900.225 136.88 905.089 137.008C908.609 137.072 911.873 135.152 914.689 131.44C915.009 130.992 915.649 130.864 916.097 131.184L916.481 131.376C916.737 131.504 916.929 131.76 916.993 132.08C917.057 132.336 916.993 132.656 916.801 132.912ZM958.216 140.528C958.216 141.232 957.576 141.872 956.808 141.872H942.216C941.384 141.872 940.744 141.232 940.744 140.528C940.744 139.76 941.384 139.184 942.216 139.184C943.752 139.184 943.752 138.8 943.752 138.032C943.752 137.328 943.56 136.24 943.112 134.832L940.744 127.344C940.744 127.28 939.464 122.864 936.968 122.8C935.24 122.8 934.024 123.376 933.192 124.592V134.192C933.192 139.12 933.32 139.12 935.368 139.12C936.136 139.12 936.776 139.76 936.776 140.464C936.776 141.232 936.136 141.808 935.368 141.808H922.12C921.288 141.808 920.648 141.232 920.648 140.464C920.648 139.76 921.288 139.12 922.12 139.12C923.656 139.12 923.848 139.12 923.848 134.192V105.456C923.848 102.96 923.528 102.32 923.4 102.192C923.144 102 921.992 102.192 921.352 102.32C920.776 102.384 920.264 102.192 920.008 101.808C919.688 101.424 919.624 100.912 919.816 100.528C920.008 100.016 920.456 99.696 921.032 99.632C923.272 99.248 927.304 97.072 929.48 95.856C929.928 95.664 930.248 95.472 930.568 95.344C931.336 94.896 932.424 95.472 932.424 95.472C933.128 95.856 933.192 96.432 933.192 96.688V110.896C933.448 110.576 933.832 110.384 934.28 110.384H947.784C948.552 110.384 949.192 110.96 949.192 111.664C949.192 112.368 948.616 113.008 947.848 113.008C944.072 113.136 942.216 115.056 937.864 119.664C938.568 119.6 939.272 119.536 939.976 119.6C948.104 120.112 949.896 125.552 950.152 126.256L953.032 134C954.888 139.184 954.888 139.184 956.808 139.184C957.128 139.184 957.512 139.312 957.768 139.504C958.024 139.76 958.216 140.144 958.216 140.528ZM934.28 113.008C933.832 113.008 933.448 112.816 933.192 112.496V120.304L934.152 119.344C935.24 118.192 937.352 116.016 937.416 114.736C937.416 114.352 937.288 114.096 937.032 113.84C936.52 113.328 935.496 113.008 934.28 113.008ZM992.769 140.464C992.385 141.296 991.553 141.872 990.593 141.872H986.753C985.857 141.872 985.089 141.296 984.769 140.4L980.865 128.56L975.553 140.464C975.233 141.296 974.401 141.872 973.441 141.872H969.601C968.705 141.872 967.937 141.296 967.617 140.4L960.449 118.832C960.449 118.832 960.385 118.768 960.385 118.704C958.657 113.712 958.657 113.712 956.673 113.712C955.905 113.712 955.329 113.136 955.329 112.368C955.329 111.6 955.905 111.024 956.673 111.024H970.881C971.713 111.024 972.289 111.6 972.289 112.368C972.289 113.136 971.713 113.712 970.881 113.712C969.985 113.712 969.665 113.84 969.537 113.968C969.473 114.096 969.153 114.672 969.729 116.784L974.977 133.936L979.393 124.208L977.601 118.832C977.601 118.768 977.601 118.768 977.537 118.704C975.873 113.712 975.873 113.712 973.889 113.712C973.057 113.712 972.481 113.136 972.481 112.368C972.481 111.6 973.057 111.024 973.889 111.024H978.881C978.945 111.024 979.009 111.024 979.009 111.024H988.033C988.865 111.024 989.505 111.6 989.505 112.368C989.505 113.136 988.865 113.712 988.033 113.712C987.073 113.712 986.817 113.904 986.753 113.968C986.625 114.096 986.433 114.48 986.753 116.016C986.753 116.272 986.817 116.528 986.945 116.784L992.129 133.936L997.441 121.84C998.017 120.368 999.809 115.824 998.849 114.48C998.529 113.968 997.633 113.712 996.225 113.776C995.393 113.776 994.753 113.136 994.753 112.368C994.753 111.6 995.393 111.024 996.161 111.024H1007.55C1008.38 111.024 1009.02 111.6 1009.02 112.368C1009.02 112.752 1008.83 113.136 1008.51 113.392C1008.26 113.584 1007.94 113.712 1007.55 113.712C1006.85 113.712 1004.1 114.416 1000.32 123.312L992.769 140.464ZM1030.08 142.064C1028.48 142.512 1026.88 142.704 1025.41 142.704C1018.31 142.704 1012.67 138.288 1010.75 130.8C1008.45 121.648 1013.38 113.584 1022.72 111.28C1032 108.912 1039.75 113.456 1042.05 122.544C1043.14 127.024 1042.56 131.376 1040.26 134.96C1038.08 138.416 1034.5 140.976 1030.08 142.064ZM1032.07 125.424C1030.27 118.384 1027.2 114.032 1024 114.032C1023.75 114.032 1023.43 114.096 1023.11 114.16C1018.18 115.44 1019.84 124.208 1020.8 127.984C1021.76 131.888 1023.17 135.024 1024.83 137.008C1026.37 138.864 1027.97 139.568 1029.63 139.184C1034.63 137.904 1032.96 129.136 1032.07 125.424ZM1068.65 142.064C1067.05 142.512 1065.45 142.704 1063.98 142.704C1056.88 142.704 1051.24 138.288 1049.32 130.8C1047.02 121.648 1051.95 113.584 1061.29 111.28C1070.57 108.912 1078.32 113.456 1080.62 122.544C1081.71 127.024 1081.13 131.376 1078.83 134.96C1076.65 138.416 1073.07 140.976 1068.65 142.064ZM1070.64 125.424C1068.84 118.384 1065.77 114.032 1062.57 114.032C1062.32 114.032 1062 114.096 1061.68 114.16C1056.75 115.44 1058.41 124.208 1059.37 127.984C1060.33 131.888 1061.74 135.024 1063.4 137.008C1064.94 138.864 1066.54 139.568 1068.2 139.184C1073.2 137.904 1071.53 129.136 1070.64 125.424ZM1105.5 140.592C1103.58 141.616 1101.46 142.192 1099.22 142.192C1092.25 142.192 1087.45 136.688 1087.45 128.944C1087.45 116.72 1096.09 110.32 1104.6 110.32C1106.01 110.32 1107.35 110.576 1108.7 111.024V105.52C1108.7 102.96 1108.44 102.384 1108.25 102.192C1107.99 102 1106.84 102.192 1106.2 102.32C1105.37 102.448 1104.66 101.936 1104.6 101.168C1104.54 100.464 1105.05 99.76 1105.88 99.632C1108.18 99.248 1112.28 97.072 1114.46 95.856C1114.84 95.664 1115.16 95.472 1115.42 95.344C1116.06 94.96 1117.02 95.344 1117.34 95.536C1117.98 95.92 1118.1 96.496 1118.1 96.688V134.256C1118.1 135.024 1118.1 135.664 1118.1 136.24C1118.23 139.184 1118.36 139.184 1120.22 139.184C1120.98 139.184 1121.62 139.76 1121.62 140.528C1121.62 141.232 1120.98 141.872 1120.22 141.872H1106.97C1106.14 141.872 1105.56 141.296 1105.5 140.592ZM1107.67 139.12C1108.25 139.056 1108.31 138.928 1108.44 138.48C1108.18 138.736 1107.93 138.928 1107.67 139.12ZM1108.7 117.168C1107.86 115.824 1105.82 113.328 1102.94 113.328C1100.12 113.328 1096.86 114.736 1096.86 125.68C1096.86 131.312 1098.58 137.264 1103.45 137.264C1105.3 137.264 1107.03 136.304 1108.7 134.32V117.168ZM1106.2 101.808H1106.26H1106.2ZM1182.64 142.384C1182.44 142.768 1182.06 143.088 1181.55 143.088C1181.36 143.088 1181.16 143.088 1180.97 143.024C1180.84 142.96 1180.65 142.832 1180.59 142.704C1180.33 142.64 1179.63 142.448 1177.71 142.32C1176.36 142.384 1174.32 142.384 1171.82 142.384C1168.3 142.384 1163.18 142.256 1162.22 142.256L1152.36 142.384C1151.47 142.384 1150.76 141.744 1150.76 140.912C1150.76 140.08 1151.47 139.44 1152.36 139.44C1153.9 139.44 1153.96 139.312 1154.16 138.864C1154.54 137.776 1154.67 135.28 1154.73 130.736C1154.8 130.288 1154.8 129.072 1154.8 126.96V116.464C1154.8 115.376 1154.8 114.416 1154.8 113.584C1154.8 109.744 1154.67 106.928 1154.35 105.648C1154.16 105.072 1154.16 105.008 1153.13 105.008H1151.85C1150.96 105.008 1150.32 104.368 1150.32 103.536C1150.32 102.704 1150.96 102 1151.85 102H1152.43C1152.56 102 1152.75 102 1152.94 102C1153.71 102 1154.6 102.064 1155.5 102.064H1156.52C1157.29 102.064 1157.93 102.064 1158.25 102.064C1158.57 102.064 1159.92 102.064 1161.52 102.064H1161.9C1163.95 102 1166.32 102 1167.15 102C1168.04 102 1168.68 102.704 1168.68 103.536C1168.68 104.368 1168.04 105.008 1167.15 105.008H1165.87C1164.78 105.008 1164.78 105.008 1164.59 105.84C1164.27 107.504 1164.2 111.024 1164.2 117.424V127.024L1164.14 127.088V129.968C1164.14 133.04 1164.14 136.88 1163.95 139.12H1168.36C1177.96 138.928 1181.04 133.296 1182.64 130.224C1182.89 129.712 1183.15 129.328 1183.34 128.944C1183.53 128.688 1183.92 128.432 1184.43 128.432C1184.88 128.432 1185.26 128.688 1185.45 129.072C1185.58 129.264 1185.58 129.456 1185.58 129.648C1185.58 129.712 1185.58 129.776 1185.58 129.84C1185.45 130.672 1183.92 139.312 1182.64 142.384ZM1210.75 142.064C1209.15 142.512 1207.55 142.704 1206.07 142.704C1198.97 142.704 1193.34 138.288 1191.42 130.8C1189.11 121.648 1194.04 113.584 1203.39 111.28C1212.67 108.912 1220.41 113.456 1222.71 122.544C1223.8 127.024 1223.23 131.376 1220.92 134.96C1218.75 138.416 1215.16 140.976 1210.75 142.064ZM1212.73 125.424C1210.94 118.384 1207.87 114.032 1204.67 114.032C1204.41 114.032 1204.09 114.096 1203.77 114.16C1198.84 115.44 1200.51 124.208 1201.47 127.984C1202.43 131.888 1203.83 135.024 1205.5 137.008C1207.03 138.864 1208.63 139.568 1210.3 139.184C1215.29 137.904 1213.63 129.136 1212.73 125.424ZM1244.92 140.464C1244.6 141.296 1243.7 141.872 1242.81 141.872H1238.97C1238.07 141.872 1237.3 141.296 1236.98 140.4L1229.81 118.832C1229.81 118.768 1229.81 118.768 1229.81 118.704C1228.09 113.712 1228.09 113.712 1226.1 113.712C1225.33 113.712 1224.76 113.136 1224.76 112.368C1224.76 111.6 1225.33 111.024 1226.1 111.024H1240.25C1241.08 111.024 1241.65 111.6 1241.65 112.368C1241.65 113.136 1241.08 113.712 1240.25 113.712C1239.35 113.712 1239.03 113.84 1238.9 113.968C1238.84 114.096 1238.58 114.672 1239.16 116.784L1244.34 134.064L1249.72 121.968C1250.23 120.496 1252.02 115.952 1251.06 114.48C1250.68 113.968 1249.78 113.712 1248.37 113.776C1247.54 113.776 1246.9 113.136 1246.9 112.368C1246.9 111.6 1247.54 111.024 1248.37 111.024H1259.7C1260.53 111.024 1261.11 111.6 1261.11 112.368C1261.11 113.136 1260.53 113.712 1259.7 113.712C1259 113.712 1256.25 114.416 1252.53 123.312L1244.92 140.464ZM1279.32 142.192C1278.49 142.32 1277.72 142.384 1276.89 142.384C1273.75 142.384 1270.81 141.424 1268.44 139.632C1265.3 137.264 1263.25 133.616 1262.55 129.136C1261.14 119.856 1266.65 112.048 1275.73 110.64C1278.55 110.192 1282.71 110.704 1285.72 113.328C1288.09 115.376 1289.37 118.384 1289.3 121.968C1289.3 122.096 1289.3 122.224 1289.24 122.352C1289.24 122.352 1289.17 122.416 1289.17 122.48C1289.05 122.736 1288.79 122.928 1288.53 123.056L1272.6 128.176V128.24C1273.88 134.512 1276.82 137.136 1281.88 136.432C1285.21 135.984 1287.64 133.808 1290.01 129.392C1290.26 128.88 1290.84 128.624 1291.35 128.88L1292.05 129.136C1292.31 129.2 1292.57 129.456 1292.63 129.712C1292.76 130.032 1292.76 130.288 1292.63 130.608C1289.49 137.456 1285.14 141.296 1279.32 142.192ZM1278.61 114.288C1277.97 113.712 1277.27 113.456 1276.31 113.456C1276.12 113.456 1275.86 113.456 1275.67 113.52C1275.03 113.584 1274.45 113.904 1274.01 114.544C1272.47 116.528 1271.77 120.816 1272.21 125.296L1280.53 122.608C1280.6 120.688 1280.6 116.208 1278.61 114.288ZM1327.68 131.824C1327.68 138.8 1319.94 142 1312.26 142C1311.81 142 1311.3 141.936 1310.85 141.936C1308.61 141.936 1305.47 141.488 1304.45 141.36C1304.39 141.36 1304.32 141.36 1304.19 141.36C1302.53 141.232 1301.89 141.296 1301.7 141.36C1301.57 141.552 1301.38 141.68 1301.12 141.744C1300.55 141.936 1300.16 141.744 1299.97 141.616C1299.65 141.424 1299.52 141.04 1299.52 140.72C1299.52 139.248 1298.88 135.792 1298.56 134.064C1298.5 133.616 1298.43 133.296 1298.43 133.104C1298.43 133.04 1298.43 133.04 1298.43 132.976C1298.37 132.656 1298.5 132.4 1298.69 132.144C1298.88 132.016 1299.14 131.824 1299.59 131.824C1300.03 131.824 1300.42 132.016 1300.61 132.4C1301.06 133.04 1304.39 137.584 1310.85 138.864C1311.62 138.992 1312.39 139.056 1313.22 139.056C1317.19 139.056 1319.68 137.712 1319.68 135.536C1319.68 133.296 1316.74 132.208 1312.58 130.928L1309.83 130.032C1305.92 128.816 1298.69 126.512 1298.69 120.176C1298.69 115.248 1303.23 110.256 1313.35 110.256C1315.07 110.256 1316.87 110.448 1318.66 110.704C1318.72 110.704 1318.85 110.704 1318.91 110.704C1320.58 110.896 1321.22 110.768 1321.47 110.704C1321.6 110.576 1321.79 110.448 1321.99 110.32C1322.56 110.128 1322.95 110.32 1323.2 110.448C1323.46 110.64 1323.65 111.024 1323.65 111.408C1323.65 112.816 1324.29 116.336 1324.55 118C1324.61 118.448 1324.67 118.768 1324.74 118.96C1324.74 119.024 1324.74 119.088 1324.74 119.152C1324.74 119.664 1324.29 120.24 1323.52 120.24C1323.07 120.24 1322.69 119.984 1322.56 119.728C1321.15 117.68 1316.67 113.2 1312.39 113.2C1308.99 113.2 1306.69 114.48 1306.69 116.336C1306.69 118.64 1310.21 119.728 1313.67 120.816L1316.8 121.776C1320.58 122.992 1327.68 125.36 1327.68 131.824ZM1298.75 133.552C1298.75 133.488 1298.69 133.424 1298.69 133.36C1298.69 133.488 1298.75 133.552 1298.82 133.616C1298.82 133.616 1298.82 133.552 1298.75 133.552ZM1324.48 118.704C1324.42 118.64 1324.42 118.576 1324.35 118.512C1324.42 118.576 1324.42 118.64 1324.48 118.704ZM1384.77 140.72C1384.77 141.488 1384.06 142.128 1383.23 142.128H1368C1367.17 142.128 1366.46 141.488 1366.46 140.72C1366.46 139.888 1367.17 139.312 1368 139.312H1368.89C1370.17 139.312 1370.3 139.312 1370.49 138.288C1370.88 136.752 1371.01 133.488 1371.01 126.768V125.36L1365.18 113.648C1361.28 106.032 1360 104.816 1358.01 104.816H1357.57C1356.61 104.816 1356.03 104.048 1356.03 103.344C1356.03 102.512 1356.67 101.872 1357.5 101.872H1373.76C1374.59 101.872 1375.29 102.576 1375.29 103.408C1375.29 103.792 1375.1 104.176 1374.85 104.432C1374.53 104.688 1374.21 104.816 1373.82 104.816H1371.9C1371.58 104.816 1371.39 104.816 1371.26 104.88C1371.26 105.648 1372.54 108.208 1373.82 110.96L1378.75 121.2L1382.4 113.84C1384.25 109.68 1384.89 106.48 1384.13 105.264C1384.06 105.136 1383.74 104.688 1382.59 104.688C1382.4 104.688 1381.95 104.688 1381.63 104.688L1381.44 104.752C1381.12 104.752 1380.8 104.752 1380.73 104.752C1380.54 104.752 1380.03 104.752 1379.65 104.368C1379.26 103.984 1379.26 103.536 1379.26 103.344C1379.26 102.96 1379.45 101.872 1380.99 101.872H1394.11C1394.49 101.872 1394.88 102.064 1395.13 102.32C1395.2 102.32 1395.2 102.32 1395.2 102.32C1395.45 102.576 1395.58 102.96 1395.58 103.344C1395.58 104.176 1394.94 104.816 1394.11 104.816H1394.05C1392.19 104.816 1388.54 109.04 1385.09 115.056L1380.22 124.848V126.768C1380.22 133.488 1380.29 136.752 1380.67 138.288C1380.93 139.312 1380.99 139.312 1382.33 139.312H1383.23C1384.06 139.312 1384.77 139.888 1384.77 140.72ZM1415.6 142.064C1414 142.512 1412.4 142.704 1410.93 142.704C1403.83 142.704 1398.2 138.288 1396.28 130.8C1393.97 121.648 1398.9 113.584 1408.24 111.28C1417.52 108.912 1425.27 113.456 1427.57 122.544C1428.66 127.024 1428.08 131.376 1425.78 134.96C1423.6 138.416 1420.02 140.976 1415.6 142.064ZM1417.59 125.424C1415.8 118.384 1412.72 114.032 1409.52 114.032C1409.27 114.032 1408.95 114.096 1408.63 114.16C1403.7 115.44 1405.36 124.208 1406.32 127.984C1407.28 131.888 1408.69 135.024 1410.36 137.008C1411.89 138.864 1413.49 139.568 1415.16 139.184C1420.15 137.904 1418.48 129.136 1417.59 125.424ZM1454.97 138.8C1453.05 140.656 1450.24 142.512 1446.08 142.512C1444.41 142.512 1442.88 142.256 1441.6 141.808C1438.01 140.464 1436.28 136.88 1436.28 130.992V120.688C1436.28 118.192 1435.96 117.552 1435.84 117.424C1435.58 117.232 1434.43 117.424 1433.79 117.488C1433.4 117.552 1433.08 117.488 1432.76 117.296C1432.44 117.104 1432.19 116.784 1432.19 116.4C1432.06 115.632 1432.64 114.928 1433.47 114.864C1435.71 114.48 1439.8 112.24 1441.98 111.088C1442.36 110.896 1442.68 110.704 1443 110.512C1443.77 110.128 1444.86 110.704 1444.86 110.704C1445.56 111.088 1445.63 111.664 1445.63 111.856V132.08C1445.63 135.088 1446.08 137.904 1449.4 137.904C1451 137.904 1452.6 136.944 1454.4 135.152V119.152C1454.27 117.744 1454.01 117.488 1453.95 117.424C1453.69 117.232 1452.54 117.424 1451.9 117.488C1451.52 117.552 1451.2 117.488 1450.94 117.296C1450.56 117.104 1450.36 116.784 1450.3 116.4C1450.24 115.632 1450.81 114.928 1451.64 114.864C1453.88 114.48 1457.98 112.24 1460.16 111.088C1460.54 110.896 1460.86 110.704 1461.12 110.512C1461.95 110.128 1463.04 110.704 1463.04 110.704C1463.74 111.088 1463.8 111.664 1463.8 111.856V119.984C1463.8 120.048 1463.8 120.176 1463.8 120.24V131.76C1463.8 131.824 1463.8 131.824 1463.8 131.888V134C1463.8 134.128 1463.8 134.192 1463.8 134.256C1463.8 139.184 1463.93 139.184 1465.98 139.184C1466.49 139.184 1466.94 139.44 1467.2 139.824C1467.39 140.272 1467.39 140.784 1467.2 141.168C1466.94 141.616 1466.49 141.872 1465.98 141.872H1456.76C1456.32 141.872 1455.87 141.552 1455.74 141.104L1454.97 138.8ZM1451.9 117.04C1451.96 117.04 1451.96 117.04 1451.96 116.976C1451.96 117.04 1451.96 117.04 1451.9 117.04ZM1433.79 117.04C1433.79 117.04 1433.79 117.04 1433.85 116.976C1433.79 117.04 1433.79 117.04 1433.79 117.04ZM1600.36 142.384C1600.17 142.768 1599.79 143.088 1599.27 143.088C1599.08 143.088 1598.89 143.088 1598.7 143.024C1598.57 142.96 1598.38 142.832 1598.31 142.704C1598.06 142.64 1597.35 142.448 1595.43 142.32C1594.09 142.384 1592.04 142.384 1589.55 142.384C1586.03 142.384 1580.91 142.256 1579.95 142.256L1570.09 142.384C1569.19 142.384 1568.49 141.744 1568.49 140.912C1568.49 140.08 1569.19 139.44 1570.09 139.44C1571.63 139.44 1571.69 139.312 1571.88 138.864C1572.27 137.776 1572.39 135.28 1572.46 130.736C1572.52 130.288 1572.52 129.072 1572.52 126.96V116.464C1572.52 115.376 1572.52 114.416 1572.52 113.584C1572.52 109.744 1572.39 106.928 1572.07 105.648C1571.88 105.072 1571.88 105.008 1570.86 105.008H1569.58C1568.68 105.008 1568.04 104.368 1568.04 103.536C1568.04 102.704 1568.68 102 1569.58 102H1570.15C1570.28 102 1570.47 102 1570.67 102C1571.43 102 1572.33 102.064 1573.23 102.064H1574.25C1575.02 102.064 1575.66 102.064 1575.98 102.064C1576.3 102.064 1577.64 102.064 1579.24 102.064H1579.63C1581.67 102 1584.04 102 1584.87 102C1585.77 102 1586.41 102.704 1586.41 103.536C1586.41 104.368 1585.77 105.008 1584.87 105.008H1583.59C1582.51 105.008 1582.51 105.008 1582.31 105.84C1581.99 107.504 1581.93 111.024 1581.93 117.424V127.024L1581.87 127.088V129.968C1581.87 133.04 1581.87 136.88 1581.67 139.12H1586.09C1595.69 138.928 1598.76 133.296 1600.36 130.224C1600.62 129.712 1600.87 129.328 1601.07 128.944C1601.26 128.688 1601.64 128.432 1602.15 128.432C1602.6 128.432 1602.99 128.688 1603.18 129.072C1603.31 129.264 1603.31 129.456 1603.31 129.648C1603.31 129.712 1603.31 129.776 1603.31 129.84C1603.18 130.672 1601.64 139.312 1600.36 142.384ZM1628.47 142.064C1626.87 142.512 1625.27 142.704 1623.8 142.704C1616.69 142.704 1611.06 138.288 1609.14 130.8C1606.84 121.648 1611.77 113.584 1621.11 111.28C1630.39 108.912 1638.13 113.456 1640.44 122.544C1641.53 127.024 1640.95 131.376 1638.65 134.96C1636.47 138.416 1632.89 140.976 1628.47 142.064ZM1630.45 125.424C1628.66 118.384 1625.59 114.032 1622.39 114.032C1622.13 114.032 1621.81 114.096 1621.49 114.16C1616.57 115.44 1618.23 124.208 1619.19 127.984C1620.15 131.888 1621.56 135.024 1623.22 137.008C1624.76 138.864 1626.36 139.568 1628.02 139.184C1633.01 137.904 1631.35 129.136 1630.45 125.424ZM1677.34 132.912C1673.12 139.184 1668.13 142.256 1662.11 142.256C1653.28 142.256 1647.2 135.92 1647.2 126.96C1647.2 118.128 1653.28 111.536 1662.05 110.896C1662.75 110.832 1663.52 110.768 1664.22 110.768C1667.55 110.768 1670.37 111.216 1672.8 112.048C1672.86 111.984 1672.86 111.984 1672.86 111.984C1673.12 111.92 1673.7 111.664 1674.27 111.984C1674.59 112.176 1674.78 112.496 1674.85 112.88C1674.91 113.2 1674.98 113.84 1675.04 115.184C1675.17 116.4 1675.36 118.192 1675.55 120.944C1675.68 121.52 1675.36 122.032 1674.78 122.288C1674.21 122.544 1673.5 122.352 1673.18 121.84C1673.18 121.776 1673.12 121.712 1673.12 121.712C1671.97 119.152 1670.05 115.824 1667.1 114.224C1665.5 113.392 1664.42 113.456 1664.35 113.456C1663.97 113.456 1663.71 113.456 1663.39 113.52C1659.74 114.032 1655.9 118.512 1655.9 125.168C1655.9 133.232 1660.77 136.88 1665.63 137.008C1669.15 137.072 1672.42 135.152 1675.23 131.44C1675.55 130.992 1676.19 130.864 1676.64 131.184L1677.02 131.376C1677.28 131.504 1677.47 131.76 1677.54 132.08C1677.6 132.336 1677.54 132.656 1677.34 132.912ZM1718.76 140.528C1718.76 141.232 1718.12 141.872 1717.35 141.872H1702.76C1701.93 141.872 1701.29 141.232 1701.29 140.528C1701.29 139.76 1701.93 139.184 1702.76 139.184C1704.3 139.184 1704.3 138.8 1704.3 138.032C1704.3 137.328 1704.1 136.24 1703.66 134.832L1701.29 127.344C1701.29 127.28 1700.01 122.864 1697.51 122.8C1695.78 122.8 1694.57 123.376 1693.74 124.592V134.192C1693.74 139.12 1693.86 139.12 1695.91 139.12C1696.68 139.12 1697.32 139.76 1697.32 140.464C1697.32 141.232 1696.68 141.808 1695.91 141.808H1682.66C1681.83 141.808 1681.19 141.232 1681.19 140.464C1681.19 139.76 1681.83 139.12 1682.66 139.12C1684.2 139.12 1684.39 139.12 1684.39 134.192V105.456C1684.39 102.96 1684.07 102.32 1683.94 102.192C1683.69 102 1682.54 102.192 1681.9 102.32C1681.32 102.384 1680.81 102.192 1680.55 101.808C1680.23 101.424 1680.17 100.912 1680.36 100.528C1680.55 100.016 1681 99.696 1681.58 99.632C1683.82 99.248 1687.85 97.072 1690.02 95.856C1690.47 95.664 1690.79 95.472 1691.11 95.344C1691.88 94.896 1692.97 95.472 1692.97 95.472C1693.67 95.856 1693.74 96.432 1693.74 96.688V110.896C1693.99 110.576 1694.38 110.384 1694.82 110.384H1708.33C1709.1 110.384 1709.74 110.96 1709.74 111.664C1709.74 112.368 1709.16 113.008 1708.39 113.008C1704.62 113.136 1702.76 115.056 1698.41 119.664C1699.11 119.6 1699.82 119.536 1700.52 119.6C1708.65 120.112 1710.44 125.552 1710.7 126.256L1713.58 134C1715.43 139.184 1715.43 139.184 1717.35 139.184C1717.67 139.184 1718.06 139.312 1718.31 139.504C1718.57 139.76 1718.76 140.144 1718.76 140.528ZM1694.82 113.008C1694.38 113.008 1693.99 112.816 1693.74 112.496V120.304L1694.7 119.344C1695.78 118.192 1697.9 116.016 1697.96 114.736C1697.96 114.352 1697.83 114.096 1697.58 113.84C1697.06 113.328 1696.04 113.008 1694.82 113.008ZM1753.31 140.464C1752.93 141.296 1752.1 141.872 1751.14 141.872H1747.3C1746.4 141.872 1745.63 141.296 1745.31 140.4L1741.41 128.56L1736.1 140.464C1735.78 141.296 1734.94 141.872 1733.98 141.872H1730.14C1729.25 141.872 1728.48 141.296 1728.16 140.4L1720.99 118.832C1720.99 118.832 1720.93 118.768 1720.93 118.704C1719.2 113.712 1719.2 113.712 1717.22 113.712C1716.45 113.712 1715.87 113.136 1715.87 112.368C1715.87 111.6 1716.45 111.024 1717.22 111.024H1731.42C1732.26 111.024 1732.83 111.6 1732.83 112.368C1732.83 113.136 1732.26 113.712 1731.42 113.712C1730.53 113.712 1730.21 113.84 1730.08 113.968C1730.02 114.096 1729.7 114.672 1730.27 116.784L1735.52 133.936L1739.94 124.208L1738.14 118.832C1738.14 118.768 1738.14 118.768 1738.08 118.704C1736.42 113.712 1736.42 113.712 1734.43 113.712C1733.6 113.712 1733.02 113.136 1733.02 112.368C1733.02 111.6 1733.6 111.024 1734.43 111.024H1739.42C1739.49 111.024 1739.55 111.024 1739.55 111.024H1748.58C1749.41 111.024 1750.05 111.6 1750.05 112.368C1750.05 113.136 1749.41 113.712 1748.58 113.712C1747.62 113.712 1747.36 113.904 1747.3 113.968C1747.17 114.096 1746.98 114.48 1747.3 116.016C1747.3 116.272 1747.36 116.528 1747.49 116.784L1752.67 133.936L1757.98 121.84C1758.56 120.368 1760.35 115.824 1759.39 114.48C1759.07 113.968 1758.18 113.712 1756.77 113.776C1755.94 113.776 1755.3 113.136 1755.3 112.368C1755.3 111.6 1755.94 111.024 1756.7 111.024H1768.1C1768.93 111.024 1769.57 111.6 1769.57 112.368C1769.57 112.752 1769.38 113.136 1769.06 113.392C1768.8 113.584 1768.48 113.712 1768.1 113.712C1767.39 113.712 1764.64 114.416 1760.86 123.312L1753.31 140.464ZM1790.63 142.064C1789.03 142.512 1787.43 142.704 1785.95 142.704C1778.85 142.704 1773.22 138.288 1771.3 130.8C1768.99 121.648 1773.92 113.584 1783.27 111.28C1792.55 108.912 1800.29 113.456 1802.59 122.544C1803.68 127.024 1803.11 131.376 1800.8 134.96C1798.63 138.416 1795.04 140.976 1790.63 142.064ZM1792.61 125.424C1790.82 118.384 1787.75 114.032 1784.55 114.032C1784.29 114.032 1783.97 114.096 1783.65 114.16C1778.72 115.44 1780.39 124.208 1781.35 127.984C1782.31 131.888 1783.71 135.024 1785.38 137.008C1786.91 138.864 1788.51 139.568 1790.18 139.184C1795.17 137.904 1793.51 129.136 1792.61 125.424ZM1829.2 142.064C1827.6 142.512 1826 142.704 1824.52 142.704C1817.42 142.704 1811.79 138.288 1809.87 130.8C1807.56 121.648 1812.49 113.584 1821.84 111.28C1831.12 108.912 1838.86 113.456 1841.16 122.544C1842.25 127.024 1841.68 131.376 1839.37 134.96C1837.2 138.416 1833.61 140.976 1829.2 142.064ZM1831.18 125.424C1829.39 118.384 1826.32 114.032 1823.12 114.032C1822.86 114.032 1822.54 114.096 1822.22 114.16C1817.29 115.44 1818.96 124.208 1819.92 127.984C1820.88 131.888 1822.28 135.024 1823.95 137.008C1825.48 138.864 1827.08 139.568 1828.75 139.184C1833.74 137.904 1832.08 129.136 1831.18 125.424ZM1866.04 140.592C1864.12 141.616 1862.01 142.192 1859.77 142.192C1852.79 142.192 1847.99 136.688 1847.99 128.944C1847.99 116.72 1856.63 110.32 1865.14 110.32C1866.55 110.32 1867.89 110.576 1869.24 111.024V105.52C1869.24 102.96 1868.98 102.384 1868.79 102.192C1868.53 102 1867.38 102.192 1866.74 102.32C1865.91 102.448 1865.21 101.936 1865.14 101.168C1865.08 100.464 1865.59 99.76 1866.42 99.632C1868.73 99.248 1872.82 97.072 1875 95.856C1875.38 95.664 1875.7 95.472 1875.96 95.344C1876.6 94.96 1877.56 95.344 1877.88 95.536C1878.52 95.92 1878.65 96.496 1878.65 96.688V134.256C1878.65 135.024 1878.65 135.664 1878.65 136.24C1878.77 139.184 1878.9 139.184 1880.76 139.184C1881.53 139.184 1882.17 139.76 1882.17 140.528C1882.17 141.232 1881.53 141.872 1880.76 141.872H1867.51C1866.68 141.872 1866.1 141.296 1866.04 140.592ZM1868.21 139.12C1868.79 139.056 1868.85 138.928 1868.98 138.48C1868.73 138.736 1868.47 138.928 1868.21 139.12ZM1869.24 117.168C1868.41 115.824 1866.36 113.328 1863.48 113.328C1860.66 113.328 1857.4 114.736 1857.4 125.68C1857.4 131.312 1859.13 137.264 1863.99 137.264C1865.85 137.264 1867.57 136.304 1869.24 134.32V117.168ZM1866.74 101.808H1866.81H1866.74ZM1943.18 142.384C1942.99 142.768 1942.6 143.088 1942.09 143.088C1941.9 143.088 1941.71 143.088 1941.52 143.024C1941.39 142.96 1941.2 142.832 1941.13 142.704C1940.88 142.64 1940.17 142.448 1938.25 142.32C1936.91 142.384 1934.86 142.384 1932.36 142.384C1928.84 142.384 1923.72 142.256 1922.76 142.256L1912.91 142.384C1912.01 142.384 1911.31 141.744 1911.31 140.912C1911.31 140.08 1912.01 139.44 1912.91 139.44C1914.44 139.44 1914.51 139.312 1914.7 138.864C1915.08 137.776 1915.21 135.28 1915.28 130.736C1915.34 130.288 1915.34 129.072 1915.34 126.96V116.464C1915.34 115.376 1915.34 114.416 1915.34 113.584C1915.34 109.744 1915.21 106.928 1914.89 105.648C1914.7 105.072 1914.7 105.008 1913.68 105.008H1912.4C1911.5 105.008 1910.86 104.368 1910.86 103.536C1910.86 102.704 1911.5 102 1912.4 102H1912.97C1913.1 102 1913.29 102 1913.48 102C1914.25 102 1915.15 102.064 1916.04 102.064H1917.07C1917.84 102.064 1918.48 102.064 1918.8 102.064C1919.12 102.064 1920.46 102.064 1922.06 102.064H1922.44C1924.49 102 1926.86 102 1927.69 102C1928.59 102 1929.23 102.704 1929.23 103.536C1929.23 104.368 1928.59 105.008 1927.69 105.008H1926.41C1925.32 105.008 1925.32 105.008 1925.13 105.84C1924.81 107.504 1924.75 111.024 1924.75 117.424V127.024L1924.68 127.088V129.968C1924.68 133.04 1924.68 136.88 1924.49 139.12H1928.91C1938.51 138.928 1941.58 133.296 1943.18 130.224C1943.44 129.712 1943.69 129.328 1943.88 128.944C1944.08 128.688 1944.46 128.432 1944.97 128.432C1945.42 128.432 1945.8 128.688 1946 129.072C1946.12 129.264 1946.12 129.456 1946.12 129.648C1946.12 129.712 1946.12 129.776 1946.12 129.84C1946 130.672 1944.46 139.312 1943.18 142.384ZM1971.29 142.064C1969.69 142.512 1968.09 142.704 1966.62 142.704C1959.51 142.704 1953.88 138.288 1951.96 130.8C1949.66 121.648 1954.59 113.584 1963.93 111.28C1973.21 108.912 1980.95 113.456 1983.26 122.544C1984.35 127.024 1983.77 131.376 1981.47 134.96C1979.29 138.416 1975.71 140.976 1971.29 142.064ZM1973.27 125.424C1971.48 118.384 1968.41 114.032 1965.21 114.032C1964.95 114.032 1964.63 114.096 1964.31 114.16C1959.39 115.44 1961.05 124.208 1962.01 127.984C1962.97 131.888 1964.38 135.024 1966.04 137.008C1967.58 138.864 1969.18 139.568 1970.84 139.184C1975.83 137.904 1974.17 129.136 1973.27 125.424ZM2005.46 140.464C2005.14 141.296 2004.24 141.872 2003.35 141.872H1999.51C1998.61 141.872 1997.84 141.296 1997.52 140.4L1990.36 118.832C1990.36 118.768 1990.36 118.768 1990.36 118.704C1988.63 113.712 1988.63 113.712 1986.64 113.712C1985.88 113.712 1985.3 113.136 1985.3 112.368C1985.3 111.6 1985.88 111.024 1986.64 111.024H2000.79C2001.62 111.024 2002.2 111.6 2002.2 112.368C2002.2 113.136 2001.62 113.712 2000.79 113.712C1999.89 113.712 1999.57 113.84 1999.44 113.968C1999.38 114.096 1999.12 114.672 1999.7 116.784L2004.88 134.064L2010.26 121.968C2010.77 120.496 2012.56 115.952 2011.6 114.48C2011.22 113.968 2010.32 113.712 2008.92 113.776C2008.08 113.776 2007.44 113.136 2007.44 112.368C2007.44 111.6 2008.08 111.024 2008.92 111.024H2020.24C2021.08 111.024 2021.65 111.6 2021.65 112.368C2021.65 113.136 2021.08 113.712 2020.24 113.712C2019.54 113.712 2016.79 114.416 2013.08 123.312L2005.46 140.464ZM2039.86 142.192C2039.03 142.32 2038.26 142.384 2037.43 142.384C2034.29 142.384 2031.35 141.424 2028.98 139.632C2025.85 137.264 2023.8 133.616 2023.09 129.136C2021.69 119.856 2027.19 112.048 2036.28 110.64C2039.09 110.192 2043.25 110.704 2046.26 113.328C2048.63 115.376 2049.91 118.384 2049.85 121.968C2049.85 122.096 2049.85 122.224 2049.78 122.352C2049.78 122.352 2049.72 122.416 2049.72 122.48C2049.59 122.736 2049.33 122.928 2049.08 123.056L2033.14 128.176V128.24C2034.42 134.512 2037.37 137.136 2042.42 136.432C2045.75 135.984 2048.18 133.808 2050.55 129.392C2050.81 128.88 2051.38 128.624 2051.89 128.88L2052.6 129.136C2052.85 129.2 2053.11 129.456 2053.17 129.712C2053.3 130.032 2053.3 130.288 2053.17 130.608C2050.04 137.456 2045.69 141.296 2039.86 142.192ZM2039.16 114.288C2038.52 113.712 2037.81 113.456 2036.85 113.456C2036.66 113.456 2036.41 113.456 2036.21 113.52C2035.57 113.584 2035 113.904 2034.55 114.544C2033.01 116.528 2032.31 120.816 2032.76 125.296L2041.08 122.608C2041.14 120.688 2041.14 116.208 2039.16 114.288ZM2088.23 131.824C2088.23 138.8 2080.48 142 2072.8 142C2072.35 142 2071.84 141.936 2071.39 141.936C2069.15 141.936 2066.02 141.488 2064.99 141.36C2064.93 141.36 2064.87 141.36 2064.74 141.36C2063.07 141.232 2062.43 141.296 2062.24 141.36C2062.11 141.552 2061.92 141.68 2061.67 141.744C2061.09 141.936 2060.71 141.744 2060.51 141.616C2060.19 141.424 2060.07 141.04 2060.07 140.72C2060.07 139.248 2059.43 135.792 2059.11 134.064C2059.04 133.616 2058.98 133.296 2058.98 133.104C2058.98 133.04 2058.98 133.04 2058.98 132.976C2058.91 132.656 2059.04 132.4 2059.23 132.144C2059.43 132.016 2059.68 131.824 2060.13 131.824C2060.58 131.824 2060.96 132.016 2061.15 132.4C2061.6 133.04 2064.93 137.584 2071.39 138.864C2072.16 138.992 2072.93 139.056 2073.76 139.056C2077.73 139.056 2080.23 137.712 2080.23 135.536C2080.23 133.296 2077.28 132.208 2073.12 130.928L2070.37 130.032C2066.47 128.816 2059.23 126.512 2059.23 120.176C2059.23 115.248 2063.78 110.256 2073.89 110.256C2075.62 110.256 2077.41 110.448 2079.2 110.704C2079.27 110.704 2079.39 110.704 2079.46 110.704C2081.12 110.896 2081.76 110.768 2082.02 110.704C2082.15 110.576 2082.34 110.448 2082.53 110.32C2083.11 110.128 2083.49 110.32 2083.75 110.448C2084 110.64 2084.19 111.024 2084.19 111.408C2084.19 112.816 2084.83 116.336 2085.09 118C2085.15 118.448 2085.22 118.768 2085.28 118.96C2085.28 119.024 2085.28 119.088 2085.28 119.152C2085.28 119.664 2084.83 120.24 2084.07 120.24C2083.62 120.24 2083.23 119.984 2083.11 119.728C2081.7 117.68 2077.22 113.2 2072.93 113.2C2069.54 113.2 2067.23 114.48 2067.23 116.336C2067.23 118.64 2070.75 119.728 2074.21 120.816L2077.35 121.776C2081.12 122.992 2088.23 125.36 2088.23 131.824ZM2059.3 133.552C2059.3 133.488 2059.23 133.424 2059.23 133.36C2059.23 133.488 2059.3 133.552 2059.36 133.616C2059.36 133.616 2059.36 133.552 2059.3 133.552ZM2085.03 118.704C2084.96 118.64 2084.96 118.576 2084.9 118.512C2084.96 118.576 2084.96 118.64 2085.03 118.704ZM2145.31 140.72C2145.31 141.488 2144.61 142.128 2143.77 142.128H2128.54C2127.71 142.128 2127.01 141.488 2127.01 140.72C2127.01 139.888 2127.71 139.312 2128.54 139.312H2129.44C2130.72 139.312 2130.85 139.312 2131.04 138.288C2131.42 136.752 2131.55 133.488 2131.55 126.768V125.36L2125.73 113.648C2121.82 106.032 2120.54 104.816 2118.56 104.816H2118.11C2117.15 104.816 2116.57 104.048 2116.57 103.344C2116.57 102.512 2117.21 101.872 2118.05 101.872H2134.3C2135.13 101.872 2135.84 102.576 2135.84 103.408C2135.84 103.792 2135.65 104.176 2135.39 104.432C2135.07 104.688 2134.75 104.816 2134.37 104.816H2132.45C2132.13 104.816 2131.93 104.816 2131.81 104.88C2131.81 105.648 2133.09 108.208 2134.37 110.96L2139.29 121.2L2142.94 113.84C2144.8 109.68 2145.44 106.48 2144.67 105.264C2144.61 105.136 2144.29 104.688 2143.13 104.688C2142.94 104.688 2142.49 104.688 2142.17 104.688L2141.98 104.752C2141.66 104.752 2141.34 104.752 2141.28 104.752C2141.09 104.752 2140.57 104.752 2140.19 104.368C2139.81 103.984 2139.81 103.536 2139.81 103.344C2139.81 102.96 2140 101.872 2141.53 101.872H2154.65C2155.04 101.872 2155.42 102.064 2155.68 102.32C2155.74 102.32 2155.74 102.32 2155.74 102.32C2156 102.576 2156.13 102.96 2156.13 103.344C2156.13 104.176 2155.49 104.816 2154.65 104.816H2154.59C2152.73 104.816 2149.09 109.04 2145.63 115.056L2140.77 124.848V126.768C2140.77 133.488 2140.83 136.752 2141.21 138.288C2141.47 139.312 2141.53 139.312 2142.88 139.312H2143.77C2144.61 139.312 2145.31 139.888 2145.31 140.72ZM2176.15 142.064C2174.55 142.512 2172.95 142.704 2171.48 142.704C2164.37 142.704 2158.74 138.288 2156.82 130.8C2154.52 121.648 2159.44 113.584 2168.79 111.28C2178.07 108.912 2185.81 113.456 2188.12 122.544C2189.2 127.024 2188.63 131.376 2186.32 134.96C2184.15 138.416 2180.56 140.976 2176.15 142.064ZM2178.13 125.424C2176.34 118.384 2173.27 114.032 2170.07 114.032C2169.81 114.032 2169.49 114.096 2169.17 114.16C2164.24 115.44 2165.91 124.208 2166.87 127.984C2167.83 131.888 2169.24 135.024 2170.9 137.008C2172.44 138.864 2174.04 139.568 2175.7 139.184C2180.69 137.904 2179.03 129.136 2178.13 125.424ZM2215.52 138.8C2213.6 140.656 2210.78 142.512 2206.62 142.512C2204.96 142.512 2203.42 142.256 2202.14 141.808C2198.56 140.464 2196.83 136.88 2196.83 130.992V120.688C2196.83 118.192 2196.51 117.552 2196.38 117.424C2196.12 117.232 2194.97 117.424 2194.33 117.488C2193.95 117.552 2193.63 117.488 2193.31 117.296C2192.99 117.104 2192.73 116.784 2192.73 116.4C2192.6 115.632 2193.18 114.928 2194.01 114.864C2196.25 114.48 2200.35 112.24 2202.52 111.088C2202.91 110.896 2203.23 110.704 2203.55 110.512C2204.32 110.128 2205.4 110.704 2205.4 110.704C2206.11 111.088 2206.17 111.664 2206.17 111.856V132.08C2206.17 135.088 2206.62 137.904 2209.95 137.904C2211.55 137.904 2213.15 136.944 2214.94 135.152V119.152C2214.81 117.744 2214.56 117.488 2214.49 117.424C2214.24 117.232 2213.08 117.424 2212.44 117.488C2212.06 117.552 2211.74 117.488 2211.48 117.296C2211.1 117.104 2210.91 116.784 2210.84 116.4C2210.78 115.632 2211.36 114.928 2212.19 114.864C2214.43 114.48 2218.52 112.24 2220.7 111.088C2221.08 110.896 2221.4 110.704 2221.66 110.512C2222.49 110.128 2223.58 110.704 2223.58 110.704C2224.28 111.088 2224.35 111.664 2224.35 111.856V119.984C2224.35 120.048 2224.35 120.176 2224.35 120.24V131.76C2224.35 131.824 2224.35 131.824 2224.35 131.888V134C2224.35 134.128 2224.35 134.192 2224.35 134.256C2224.35 139.184 2224.48 139.184 2226.52 139.184C2227.04 139.184 2227.48 139.44 2227.74 139.824C2227.93 140.272 2227.93 140.784 2227.74 141.168C2227.48 141.616 2227.04 141.872 2226.52 141.872H2217.31C2216.86 141.872 2216.41 141.552 2216.28 141.104L2215.52 138.8ZM2212.44 117.04C2212.51 117.04 2212.51 117.04 2212.51 116.976C2212.51 117.04 2212.51 117.04 2212.44 117.04ZM2194.33 117.04C2194.33 117.04 2194.33 117.04 2194.4 116.976C2194.33 117.04 2194.33 117.04 2194.33 117.04Z" fill="#B06D50"/>
<path fill-rule="evenodd" clip-rule="evenodd" d="M753.443 130.334C753.445 128.849 754.627 127.646 756.087 127.642C757.547 127.646 758.727 128.849 758.732 130.334C758.732 131.356 758.167 132.249 757.335 132.703L757.289 132.727V136.503H754.885V132.727L754.84 132.703C754.006 132.249 753.443 131.356 753.443 130.334M756.091 120.755C753.957 119.076 750.479 116.962 747.094 117.588V115.187C747.094 110.049 751.127 105.873 756.091 105.873C758.502 105.873 760.729 106.834 762.444 108.609C764.16 110.386 765.087 112.69 765.087 115.187V117.588C761.702 117.01 758.224 119.123 756.091 120.755M768.983 119.843C768.334 119.122 767.638 118.595 766.942 118.212V115.187C766.942 112.211 765.828 109.379 763.788 107.265C761.749 105.153 758.965 104 756.09 104C750.107 104 745.237 109.042 745.237 115.235V118.26C744.541 118.643 743.845 119.171 743.197 119.892C735.729 128.005 749.133 140.151 756.09 143.944C763.048 140.151 776.451 128.005 768.983 119.843" fill="#B06D50"/>
<path fill-rule="evenodd" clip-rule="evenodd" d="M1513.44 130.334C1513.44 128.849 1514.63 127.646 1516.09 127.642C1517.55 127.646 1518.73 128.849 1518.73 130.334C1518.73 131.356 1518.17 132.249 1517.34 132.703L1517.29 132.727V136.503H1514.89V132.727L1514.84 132.703C1514.01 132.249 1513.44 131.356 1513.44 130.334M1516.09 120.755C1513.96 119.076 1510.48 116.962 1507.09 117.588V115.187C1507.09 110.049 1511.13 105.873 1516.09 105.873C1518.5 105.873 1520.73 106.834 1522.44 108.609C1524.16 110.386 1525.09 112.69 1525.09 115.187V117.588C1521.7 117.01 1518.22 119.123 1516.09 120.755M1528.98 119.843C1528.33 119.122 1527.64 118.595 1526.94 118.212V115.187C1526.94 112.211 1525.83 109.379 1523.79 107.265C1521.75 105.153 1518.97 104 1516.09 104C1510.11 104 1505.24 109.042 1505.24 115.235V118.26C1504.54 118.643 1503.85 119.171 1503.2 119.892C1495.73 128.005 1509.13 140.151 1516.09 143.944C1523.05 140.151 1536.45 128.005 1528.98 119.843" fill="#B06D50"/>
</svg>
