<svg width="282" height="574" viewBox="0 0 282 574" fill="none" xmlns="http://www.w3.org/2000/svg">
<g clip-path="url(#clip0_4853_13408)">
<rect width="282" height="574" rx="25.6364" fill="#1D1D1B"/>
<path d="M244.285 28.082H266.87" stroke="#F0F0E8" stroke-width="2.25848"/>
<path d="M244.285 34.1055H266.87" stroke="#F0F0E8" stroke-width="2.25848"/>
<path d="M244.285 40.127H266.87" stroke="#F0F0E8" stroke-width="2.25848"/>
<rect x="10.1792" y="56.6411" width="28.2955" height="28.2955" fill="#F0F0E8" stroke="#1D1D1B" stroke-width="0.35844"/>
<rect x="38.8335" y="56.6411" width="28.2955" height="28.2955" fill="#F0F0E8" stroke="#1D1D1B" stroke-width="0.35844"/>
<rect x="67.4878" y="56.6411" width="28.2955" height="28.2955" fill="#AEA9FF" stroke="#1D1D1B" stroke-width="0.35844"/>
<rect x="10.1792" y="85.2954" width="28.2955" height="28.2955" fill="#F0F0E8" stroke="#1D1D1B" stroke-width="0.35844"/>
<rect x="38.8335" y="85.2954" width="28.2955" height="28.2955" fill="#F0F0E8" stroke="#1D1D1B" stroke-width="0.35844"/>
<path d="M53.7206 104.909H50.5846L53.6086 101.309C53.1606 101.549 52.7286 101.645 52.1846 101.645C51.2726 101.645 50.4566 101.373 49.7366 100.669C48.8726 99.8212 48.6646 98.8292 48.6646 98.0932C48.6646 97.0212 49.0486 96.0612 49.7366 95.3412C50.3606 94.7012 51.4486 93.9972 53.2406 93.9972C55.2086 93.9972 56.2486 94.8452 56.6646 95.2612C57.3526 95.9652 57.7206 96.9252 57.7206 97.9012C57.7206 99.5172 56.7446 100.989 56.1046 101.821L53.7206 104.909ZM53.2726 96.1892C52.9366 96.1892 52.4566 96.2852 52.0406 96.7012C51.7206 97.0212 51.5126 97.4692 51.5126 97.9172C51.5126 98.3652 51.7366 98.7972 52.0246 99.0692C52.3446 99.3732 52.8246 99.5492 53.2726 99.5492C53.6726 99.5492 54.1366 99.4052 54.4726 99.1012C54.7926 98.8132 55.0326 98.3012 55.0326 97.8852C55.0326 97.4692 54.8086 96.9892 54.5206 96.7012C54.2326 96.4292 53.7686 96.1892 53.2726 96.1892Z" fill="#1D1D1B"/>
<rect x="67.4878" y="85.2954" width="28.2955" height="28.2955" fill="#AEA9FF" stroke="#1D1D1B" stroke-width="0.35844"/>
<rect x="10.1792" y="113.949" width="28.2955" height="28.2955" fill="#F0F0E8" stroke="#1D1D1B" stroke-width="0.35844"/>
<rect x="38.8335" y="113.949" width="28.2955" height="28.2955" fill="#F0F0E8" stroke="#1D1D1B" stroke-width="0.35844"/>
<rect x="67.4878" y="113.949" width="28.2955" height="28.2955" fill="#AEA9FF" stroke="#1D1D1B" stroke-width="0.35844"/>
<rect x="97.9488" y="56.6411" width="28.2955" height="28.2955" fill="#F0F0E8" stroke="#1D1D1B" stroke-width="0.35844"/>
<rect x="126.603" y="56.6411" width="28.2955" height="28.2955" fill="#F0F0E8" stroke="#1D1D1B" stroke-width="0.35844"/>
<path d="M145.101 64.9344V71.4624H146.397V73.5904H145.101V75.6064H142.541V73.5904H137.373V71.8144L141.485 64.9344H145.101ZM140.029 71.4624H142.541V67.1104L140.029 71.4624Z" fill="#1D1D1B"/>
<rect x="155.257" y="56.6411" width="28.2955" height="28.2955" fill="#F0F0E8" stroke="#1D1D1B" stroke-width="0.35844"/>
<rect x="97.9488" y="85.2954" width="28.2955" height="28.2955" fill="#F0F0E8" stroke="#1D1D1B" stroke-width="0.35844"/>
<rect x="126.603" y="85.2954" width="28.2955" height="28.2955" fill="#71861E" stroke="#1D1D1B" stroke-width="0.35844"/>
<path d="M139.877 104.434V96.1136H138.357V93.7616H142.645V104.434H139.877Z" fill="#F0F0E8"/>
<rect x="155.257" y="85.2954" width="28.2955" height="28.2955" fill="#F0F0E8" stroke="#1D1D1B" stroke-width="0.35844"/>
<path d="M173.857 101.911V104.263H165.297L168.001 101.431C168.961 100.423 169.681 99.5427 170.193 98.7267C170.481 98.2787 170.769 97.7507 170.769 97.0627C170.769 96.9507 170.769 96.3907 170.449 96.0387C170.289 95.8627 170.017 95.7187 169.665 95.7187C169.217 95.7187 168.913 95.9267 168.737 96.1507C168.481 96.4867 168.369 97.0947 168.353 97.4627H165.489C165.505 96.0707 166.113 95.0627 166.673 94.5027C167.393 93.7827 168.369 93.3507 169.697 93.3507C171.297 93.3507 172.225 93.9747 172.705 94.4547C173.137 94.8867 173.745 95.7027 173.745 97.0787C173.745 98.4227 173.121 99.3507 172.161 100.247L170.369 101.911H173.857Z" fill="#1D1D1B"/>
<rect x="97.9488" y="113.949" width="28.2955" height="28.2955" fill="#F0F0E8" stroke="#1D1D1B" stroke-width="0.35844"/>
<rect x="126.603" y="113.949" width="28.2955" height="28.2955" fill="#F0F0E8" stroke="#1D1D1B" stroke-width="0.35844"/>
<rect x="155.257" y="113.949" width="28.2955" height="28.2955" fill="#F0F0E8" stroke="#1D1D1B" stroke-width="0.35844"/>
<rect x="185.718" y="56.6411" width="28.2955" height="28.2955" fill="#F0F0E8" stroke="#1D1D1B" stroke-width="0.35844"/>
<rect x="214.373" y="56.6411" width="28.2955" height="28.2955" fill="#F0F0E8" stroke="#1D1D1B" stroke-width="0.35844"/>
<rect x="243.027" y="56.6411" width="28.2955" height="28.2955" fill="#F0F0E8" stroke="#1D1D1B" stroke-width="0.35844"/>
<rect x="185.718" y="85.2954" width="28.2955" height="28.2955" fill="#F0F0E8" stroke="#1D1D1B" stroke-width="0.35844"/>
<rect x="214.373" y="85.2954" width="28.2955" height="28.2955" fill="#F0F0E8" stroke="#1D1D1B" stroke-width="0.35844"/>
<rect x="243.027" y="85.2954" width="28.2955" height="28.2955" fill="#F0F0E8" stroke="#1D1D1B" stroke-width="0.35844"/>
<rect x="185.718" y="113.949" width="28.2955" height="28.2955" fill="#F0F0E8" stroke="#1D1D1B" stroke-width="0.35844"/>
<rect x="214.373" y="113.949" width="28.2955" height="28.2955" fill="#F0F0E8" stroke="#1D1D1B" stroke-width="0.35844"/>
<rect x="243.027" y="113.949" width="28.2955" height="28.2955" fill="#F0F0E8" stroke="#1D1D1B" stroke-width="0.35844"/>
<rect x="10.1792" y="144.411" width="28.2955" height="28.2955" fill="#AEA9FF" stroke="#1D1D1B" stroke-width="0.35844"/>
<rect x="38.8335" y="144.411" width="28.2955" height="28.2955" fill="#AEA9FF" stroke="#1D1D1B" stroke-width="0.35844"/>
<rect x="67.4878" y="144.411" width="28.2955" height="28.2955" fill="#E3FA71" stroke="#1D1D1B" stroke-width="0.35844"/>
<path d="M80.3397 163.398V155.078H78.8197V152.726H83.1077V163.398H80.3397Z" fill="#1D1D1B"/>
<rect x="10.1792" y="173.065" width="28.2955" height="28.2955" fill="#AEA9FF" stroke="#1D1D1B" stroke-width="0.35844"/>
<path d="M27.6759 181.428V183.78H23.9799L23.7879 184.964C24.1879 184.9 24.5079 184.884 24.6519 184.884C26.0759 184.884 26.9719 185.428 27.4679 185.94C27.9479 186.42 28.4439 187.236 28.4439 188.468C28.4439 189.748 27.9319 190.612 27.4199 191.14C26.4279 192.164 25.1159 192.34 24.0919 192.34C22.4759 192.34 21.3559 191.924 20.4919 191.38L20.9079 188.788C21.4679 189.3 22.0119 189.572 22.1879 189.652C22.6679 189.876 23.2599 190.02 23.7879 190.02C24.3479 190.02 24.8599 189.828 25.1799 189.492C25.4199 189.236 25.5959 188.852 25.5959 188.404C25.5959 187.844 25.3239 187.46 25.0839 187.252C24.5079 186.74 23.5159 186.724 23.1639 186.724C22.4119 186.724 21.7719 186.884 21.1959 187.172L22.1239 181.428H27.6759Z" fill="#1D1D1B"/>
<rect x="38.8335" y="173.065" width="28.2955" height="28.2955" fill="#ADA9FF" stroke="#1D1D1B" stroke-width="0.35844"/>
<rect x="67.4878" y="173.065" width="28.2955" height="28.2955" fill="#AEA9FF" stroke="#1D1D1B" stroke-width="0.35844"/>
<rect x="10" y="201.539" width="28.654" height="28.654" fill="#AEA9FF"/>
<path d="M26.4439 215.136C27.0199 215.312 27.4839 215.616 27.8199 215.952C28.4759 216.592 28.6359 217.312 28.6359 217.84C28.6359 218.56 28.3319 219.296 27.7719 219.856C27.4039 220.224 26.4439 220.992 24.5399 220.992C22.7159 220.992 21.7719 220.288 21.3559 219.872C20.7799 219.296 20.4759 218.528 20.4759 217.84C20.4759 217.136 20.8119 216.368 21.2599 215.92C21.5959 215.584 22.1399 215.28 22.6039 215.136C22.2359 214.992 21.8839 214.768 21.6439 214.528C21.3079 214.192 20.9239 213.648 20.9239 212.832C20.9239 212.032 21.2759 211.312 21.8039 210.816C22.4599 210.208 23.4839 209.84 24.6519 209.84C25.8039 209.84 26.7799 210.224 27.4039 210.864C27.8039 211.264 28.1879 211.904 28.1879 212.816C28.1879 213.584 27.8999 214.112 27.5319 214.48C27.2759 214.736 26.8599 214.992 26.4439 215.136ZM24.5879 211.696C24.1879 211.696 23.8999 211.856 23.7079 212.064C23.4999 212.288 23.3879 212.592 23.3879 212.88C23.3879 213.152 23.5319 213.44 23.7239 213.648C23.9639 213.904 24.2839 214 24.5719 214C24.8119 214 25.0999 213.936 25.3559 213.68C25.5959 213.44 25.7239 213.136 25.7239 212.864C25.7239 212.576 25.5959 212.24 25.3559 212.016C25.1319 211.808 24.8919 211.696 24.5879 211.696ZM24.5559 216.256C24.2519 216.256 23.9159 216.384 23.6599 216.624C23.4039 216.88 23.2759 217.2 23.2759 217.504C23.2759 217.792 23.3719 218.128 23.6439 218.4C23.8679 218.624 24.1879 218.784 24.5559 218.784C24.9399 218.784 25.2119 218.656 25.4519 218.416C25.7079 218.16 25.8359 217.872 25.8359 217.504C25.8359 217.152 25.7079 216.864 25.4519 216.624C25.1639 216.352 24.8279 216.256 24.5559 216.256Z" fill="#1D1D1B"/>
<rect x="38.8335" y="201.718" width="28.2955" height="28.2955" fill="#AEA9FF" stroke="#1D1D1B" stroke-width="0.35844"/>
<rect x="67.4878" y="201.718" width="28.2955" height="28.2955" fill="#AEA9FF" stroke="#1D1D1B" stroke-width="0.35844"/>
<rect x="97.9488" y="144.411" width="28.2955" height="28.2955" fill="#AEA9FF" stroke="#1D1D1B" stroke-width="0.35844"/>
<rect x="126.603" y="144.411" width="28.2955" height="28.2955" fill="#AEA9FF" stroke="#1D1D1B" stroke-width="0.35844"/>
<rect x="155.257" y="144.411" width="28.2955" height="28.2955" fill="#AEA9FF" stroke="#1D1D1B" stroke-width="0.35844"/>
<path d="M172.527 153.237V159.765H173.823V161.893H172.527V163.909H169.967V161.893H164.799V160.117L168.911 153.237H172.527ZM167.455 159.765H169.967V155.413L167.455 159.765Z" fill="#1D1D1B"/>
<rect x="97.9488" y="173.065" width="28.2955" height="28.2955" fill="#F0F0E8" stroke="#1D1D1B" stroke-width="0.35844"/>
<path d="M107.714 188.941H110.546C110.562 189.341 110.722 189.757 110.978 190.013C111.218 190.269 111.602 190.429 112.066 190.429C112.61 190.429 112.946 190.189 113.154 189.965C113.394 189.693 113.474 189.405 113.474 189.085C113.474 188.621 113.25 188.301 113.058 188.141C112.786 187.917 112.37 187.837 112.034 187.837C111.858 187.837 111.714 187.853 111.57 187.901V186.029C112.13 186.109 112.482 185.949 112.706 185.757C112.962 185.533 113.058 185.245 113.058 185.005C113.058 184.717 112.93 184.397 112.77 184.237C112.594 184.061 112.29 183.949 111.986 183.949C111.65 183.949 111.378 184.061 111.218 184.221C110.978 184.445 110.85 184.829 110.85 185.165H108.274C108.338 184.045 108.834 183.197 109.314 182.717C110.098 181.901 111.106 181.677 112.13 181.677C112.93 181.677 113.986 181.837 114.786 182.621C115.314 183.149 115.65 183.869 115.65 184.685C115.65 185.149 115.57 185.565 115.33 185.997C115.138 186.349 114.898 186.621 114.514 186.813C115.17 187.053 115.554 187.469 115.778 187.789C116.082 188.237 116.226 188.749 116.226 189.357C116.226 190.493 115.73 191.245 115.282 191.693C114.706 192.269 113.682 192.829 112.098 192.829C111.074 192.829 109.97 192.589 109.042 191.725C108.498 191.229 107.842 190.317 107.714 188.941Z" fill="#1D1D1B"/>
<rect x="126.603" y="173.065" width="28.2955" height="28.2955" fill="#F0F0E8" stroke="#1D1D1B" stroke-width="0.35844"/>
<rect x="155.257" y="173.065" width="28.2955" height="28.2955" fill="#F0F0E8" stroke="#1D1D1B" stroke-width="0.35844"/>
<rect x="97.9488" y="201.718" width="28.2955" height="28.2955" fill="#F0F0E8" stroke="#1D1D1B" stroke-width="0.35844"/>
<rect x="126.603" y="201.718" width="28.2955" height="28.2955" fill="#F0F0E8" stroke="#1D1D1B" stroke-width="0.35844"/>
<rect x="155.257" y="201.718" width="28.2955" height="28.2955" fill="#F0F0E8" stroke="#1D1D1B" stroke-width="0.35844"/>
<rect x="185.718" y="144.411" width="28.2955" height="28.2955" fill="#AEA9FF" stroke="#1D1D1B" stroke-width="0.35844"/>
<rect x="214.373" y="144.411" width="28.2955" height="28.2955" fill="#AEA9FF" stroke="#1D1D1B" stroke-width="0.35844"/>
<rect x="243.027" y="144.411" width="28.2955" height="28.2955" fill="#AEA9FF" stroke="#1D1D1B" stroke-width="0.35844"/>
<path d="M257.721 163.909H254.585L257.609 160.309C257.161 160.549 256.729 160.645 256.185 160.645C255.273 160.645 254.457 160.373 253.737 159.669C252.873 158.821 252.665 157.829 252.665 157.093C252.665 156.021 253.049 155.061 253.737 154.341C254.361 153.701 255.449 152.997 257.241 152.997C259.209 152.997 260.249 153.845 260.665 154.261C261.353 154.965 261.721 155.925 261.721 156.901C261.721 158.517 260.745 159.989 260.105 160.821L257.721 163.909ZM257.273 155.189C256.937 155.189 256.457 155.285 256.041 155.701C255.721 156.021 255.513 156.469 255.513 156.917C255.513 157.365 255.737 157.797 256.025 158.069C256.345 158.373 256.825 158.549 257.273 158.549C257.673 158.549 258.137 158.405 258.473 158.101C258.793 157.813 259.033 157.301 259.033 156.885C259.033 156.469 258.809 155.989 258.521 155.701C258.233 155.429 257.769 155.189 257.273 155.189Z" fill="#1D1D1B"/>
<rect x="185.718" y="173.065" width="28.2955" height="28.2955" fill="#F0F0E8" stroke="#1D1D1B" stroke-width="0.35844"/>
<rect x="214.373" y="173.065" width="28.2955" height="28.2955" fill="#F0F0E8" stroke="#1D1D1B" stroke-width="0.35844"/>
<rect x="243.027" y="173.065" width="28.2955" height="28.2955" fill="#F0F0E8" stroke="#1D1D1B" stroke-width="0.35844"/>
<rect x="185.718" y="201.718" width="28.2955" height="28.2955" fill="#F0F0E8" stroke="#1D1D1B" stroke-width="0.35844"/>
<rect x="214.373" y="201.718" width="28.2955" height="28.2955" fill="#F0F0E8" stroke="#1D1D1B" stroke-width="0.35844"/>
<rect x="243.027" y="201.718" width="28.2955" height="28.2955" fill="#F0F0E8" stroke="#1D1D1B" stroke-width="0.35844"/>
<rect x="10.1792" y="232.179" width="28.2955" height="28.2955" fill="#F0F0E8" stroke="#1D1D1B" stroke-width="0.35844"/>
<rect x="38.8335" y="232.179" width="28.2955" height="28.2955" fill="#F0F0E8" stroke="#1D1D1B" stroke-width="0.35844"/>
<rect x="67.4878" y="232.179" width="28.2955" height="28.2955" fill="#AEA9FF" stroke="#1D1D1B" stroke-width="0.35844"/>
<rect x="10.1792" y="260.834" width="28.2955" height="28.2955" fill="#F0F0E8" stroke="#1D1D1B" stroke-width="0.35844"/>
<rect x="38.8335" y="260.834" width="28.2955" height="28.2955" fill="#F0F0E8" stroke="#1D1D1B" stroke-width="0.35844"/>
<rect x="67.4878" y="260.834" width="28.2955" height="28.2955" fill="#AEA9FF" stroke="#1D1D1B" stroke-width="0.35844"/>
<rect x="10.1792" y="289.487" width="28.2955" height="28.2955" fill="#F0F0E8" stroke="#1D1D1B" stroke-width="0.35844"/>
<rect x="38.8335" y="289.487" width="28.2955" height="28.2955" fill="#F0F0E8" stroke="#1D1D1B" stroke-width="0.35844"/>
<rect x="67.4878" y="289.487" width="28.2955" height="28.2955" fill="#AEA9FF" stroke="#1D1D1B" stroke-width="0.35844"/>
<rect x="97.9488" y="232.179" width="28.2955" height="28.2955" fill="#71861E" stroke="#1D1D1B" stroke-width="0.35844"/>
<path d="M110.756 251.236V242.916H109.236V240.564H113.524V251.236H110.756Z" fill="#F0F0E8"/>
<rect x="126.603" y="232.179" width="28.2955" height="28.2955" fill="#F0F0E8" stroke="#1D1D1B" stroke-width="0.35844"/>
<path d="M137.134 247.588H139.966C139.982 247.988 140.142 248.404 140.398 248.66C140.638 248.916 141.022 249.076 141.486 249.076C142.03 249.076 142.366 248.836 142.574 248.612C142.814 248.34 142.894 248.052 142.894 247.732C142.894 247.268 142.67 246.948 142.478 246.788C142.206 246.564 141.79 246.484 141.454 246.484C141.278 246.484 141.134 246.5 140.99 246.548V244.676C141.55 244.756 141.902 244.596 142.126 244.404C142.382 244.18 142.478 243.892 142.478 243.652C142.478 243.364 142.35 243.044 142.19 242.884C142.014 242.708 141.71 242.596 141.406 242.596C141.07 242.596 140.798 242.708 140.638 242.868C140.398 243.092 140.27 243.476 140.27 243.812H137.694C137.758 242.692 138.254 241.844 138.734 241.364C139.518 240.548 140.526 240.324 141.55 240.324C142.35 240.324 143.406 240.484 144.206 241.268C144.734 241.796 145.07 242.516 145.07 243.332C145.07 243.796 144.99 244.212 144.75 244.644C144.558 244.996 144.318 245.268 143.934 245.46C144.59 245.7 144.974 246.116 145.198 246.436C145.502 246.884 145.646 247.396 145.646 248.004C145.646 249.14 145.15 249.892 144.702 250.34C144.126 250.916 143.102 251.476 141.518 251.476C140.494 251.476 139.39 251.236 138.462 250.372C137.918 249.876 137.262 248.964 137.134 247.588Z" fill="#1D1D1B"/>
<rect x="155.257" y="232.179" width="28.2955" height="28.2955" fill="#F0F0E8" stroke="#1D1D1B" stroke-width="0.35844"/>
<rect x="97.9488" y="260.834" width="28.2955" height="28.2955" fill="#F0F0E8" stroke="#1D1D1B" stroke-width="0.35844"/>
<rect x="126.603" y="260.834" width="28.2955" height="28.2955" fill="#F0F0E8" stroke="#1D1D1B" stroke-width="0.35844"/>
<path d="M144.662 277.562V279.914H136.102L138.806 277.082C139.766 276.074 140.486 275.194 140.998 274.378C141.286 273.93 141.574 273.402 141.574 272.714C141.574 272.602 141.574 272.042 141.254 271.69C141.094 271.514 140.822 271.37 140.47 271.37C140.022 271.37 139.718 271.578 139.542 271.802C139.286 272.138 139.174 272.746 139.158 273.114H136.294C136.31 271.722 136.918 270.714 137.478 270.154C138.198 269.434 139.174 269.002 140.502 269.002C142.102 269.002 143.03 269.626 143.51 270.106C143.942 270.538 144.55 271.354 144.55 272.73C144.55 274.074 143.926 275.002 142.966 275.898L141.174 277.562H144.662Z" fill="#1D1D1B"/>
<rect x="155.257" y="260.834" width="28.2955" height="28.2955" fill="#F0F0E8" stroke="#1D1D1B" stroke-width="0.35844"/>
<rect x="97.9488" y="289.487" width="28.2955" height="28.2955" fill="#F0F0E8" stroke="#1D1D1B" stroke-width="0.35844"/>
<rect x="126.603" y="289.487" width="28.2955" height="28.2955" fill="#F0F0E8" stroke="#1D1D1B" stroke-width="0.35844"/>
<rect x="155.257" y="289.487" width="28.2955" height="28.2955" fill="#F0F0E8" stroke="#1D1D1B" stroke-width="0.35844"/>
<rect x="185.718" y="232.179" width="28.2955" height="28.2955" fill="#F0F0E8" stroke="#1D1D1B" stroke-width="0.35844"/>
<rect x="214.373" y="232.179" width="28.2955" height="28.2955" fill="#F0F0E8" stroke="#1D1D1B" stroke-width="0.35844"/>
<rect x="243.027" y="232.179" width="28.2955" height="28.2955" fill="#F0F0E8" stroke="#1D1D1B" stroke-width="0.35844"/>
<path d="M253.134 247.588H255.966C255.982 247.988 256.142 248.404 256.398 248.66C256.638 248.916 257.022 249.076 257.486 249.076C258.03 249.076 258.366 248.836 258.574 248.612C258.814 248.34 258.894 248.052 258.894 247.732C258.894 247.268 258.67 246.948 258.478 246.788C258.206 246.564 257.79 246.484 257.454 246.484C257.278 246.484 257.134 246.5 256.99 246.548V244.676C257.55 244.756 257.902 244.596 258.126 244.404C258.382 244.18 258.478 243.892 258.478 243.652C258.478 243.364 258.35 243.044 258.19 242.884C258.014 242.708 257.71 242.596 257.406 242.596C257.07 242.596 256.798 242.708 256.638 242.868C256.398 243.092 256.27 243.476 256.27 243.812H253.694C253.758 242.692 254.254 241.844 254.734 241.364C255.518 240.548 256.526 240.324 257.55 240.324C258.35 240.324 259.406 240.484 260.206 241.268C260.734 241.796 261.07 242.516 261.07 243.332C261.07 243.796 260.99 244.212 260.75 244.644C260.558 244.996 260.318 245.268 259.934 245.46C260.59 245.7 260.974 246.116 261.198 246.436C261.502 246.884 261.646 247.396 261.646 248.004C261.646 249.14 261.15 249.892 260.702 250.34C260.126 250.916 259.102 251.476 257.518 251.476C256.494 251.476 255.39 251.236 254.462 250.372C253.918 249.876 253.262 248.964 253.134 247.588Z" fill="#1D1D1B"/>
<rect x="185.718" y="260.834" width="28.2955" height="28.2955" fill="#F0F0E8" stroke="#1D1D1B" stroke-width="0.35844"/>
<rect x="214.373" y="260.834" width="28.2955" height="28.2955" fill="#F0F0E8" stroke="#1D1D1B" stroke-width="0.35844"/>
<path d="M228.721 279.909H225.585L228.609 276.309C228.161 276.549 227.729 276.645 227.185 276.645C226.273 276.645 225.457 276.373 224.737 275.669C223.873 274.821 223.665 273.829 223.665 273.093C223.665 272.021 224.049 271.061 224.737 270.341C225.361 269.701 226.449 268.997 228.241 268.997C230.209 268.997 231.249 269.845 231.665 270.261C232.353 270.965 232.721 271.925 232.721 272.901C232.721 274.517 231.745 275.989 231.105 276.821L228.721 279.909ZM228.273 271.189C227.937 271.189 227.457 271.285 227.041 271.701C226.721 272.021 226.513 272.469 226.513 272.917C226.513 273.365 226.737 273.797 227.025 274.069C227.345 274.373 227.825 274.549 228.273 274.549C228.673 274.549 229.137 274.405 229.473 274.101C229.793 273.813 230.033 273.301 230.033 272.885C230.033 272.469 229.809 271.989 229.521 271.701C229.233 271.429 228.769 271.189 228.273 271.189Z" fill="#1D1D1B"/>
<rect x="243.027" y="260.834" width="28.2955" height="28.2955" fill="#F0F0E8" stroke="#1D1D1B" stroke-width="0.35844"/>
<rect x="185.718" y="289.487" width="28.2955" height="28.2955" fill="#F0F0E8" stroke="#1D1D1B" stroke-width="0.35844"/>
<rect x="214.373" y="289.487" width="28.2955" height="28.2955" fill="#F0F0E8" stroke="#1D1D1B" stroke-width="0.35844"/>
<rect x="243.027" y="289.487" width="28.2955" height="28.2955" fill="#F0F0E8" stroke="#1D1D1B" stroke-width="0.35844"/>
<path d="M124.393 34.5704C124.393 32.8314 125.194 30.9448 127.144 30.9448C129.094 30.9448 129.895 32.8314 129.895 34.5704C129.895 36.3094 129.094 38.2066 127.144 38.2066C125.194 38.2066 124.393 36.3094 124.393 34.5704ZM128.82 34.5704C128.82 33.2003 128.388 31.8828 127.144 31.8828C125.9 31.8828 125.468 33.2003 125.468 34.5704C125.468 35.9405 125.9 37.2685 127.144 37.2685C128.388 37.2685 128.82 35.9405 128.82 34.5704ZM133.344 38.0801H132.184L134.925 31.9777H131.215V31.0502H136.147V31.7774L133.344 38.0801ZM137.543 33.5797C137.543 33.2213 137.838 32.9157 138.197 32.9157C138.555 32.9157 138.861 33.2213 138.861 33.5797C138.861 33.9275 138.555 34.2331 138.197 34.2331C137.838 34.2331 137.543 33.9275 137.543 33.5797ZM137.543 37.532C137.543 37.1737 137.838 36.8786 138.197 36.8786C138.555 36.8786 138.861 37.1737 138.861 37.532C138.861 37.8904 138.555 38.196 138.197 38.196C137.838 38.196 137.543 37.8904 137.543 37.532ZM140.476 34.5704C140.476 32.8314 141.277 30.9448 143.227 30.9448C145.177 30.9448 145.978 32.8314 145.978 34.5704C145.978 36.3094 145.177 38.2066 143.227 38.2066C141.277 38.2066 140.476 36.3094 140.476 34.5704ZM144.903 34.5704C144.903 33.2003 144.471 31.8828 143.227 31.8828C141.983 31.8828 141.551 33.2003 141.551 34.5704C141.551 35.9405 141.983 37.2685 143.227 37.2685C144.471 37.2685 144.903 35.9405 144.903 34.5704ZM152.494 38.0801H147.54V37.2475C150.175 35.2239 151.387 34.1699 151.387 33.0632C151.387 32.2412 150.702 31.8828 150.017 31.8828C149.185 31.8828 148.542 32.2306 148.11 32.7471L147.488 32.062C148.067 31.3348 149.026 30.9448 150.007 30.9448C151.271 30.9448 152.462 31.6615 152.462 33.0632C152.462 34.4334 151.145 35.6665 149.216 37.1526H152.494V38.0801Z" fill="#F0F0E8"/>
<path d="M19.2988 34.8555H38.1195" stroke="#F0F0E8" stroke-width="2.25848"/>
<path d="M25.6982 27.3262L18.1699 34.8544L24.5689 41.2535" stroke="#F0F0E8" stroke-width="2.25848"/>
<rect x="10.5832" y="335.945" width="94.4753" height="29.9366" stroke="#AEA9FF" stroke-width="1.16636"/>
<path d="M46.0467 348.211V349.811H43.8042V351.019H45.9269V352.62H43.8042V353.871H46.0467V355.472H41.9209V348.211H46.0467ZM47.7913 348.211H50.7305C51.2748 348.211 51.9715 348.298 52.5049 348.853C52.9186 349.278 53.1254 349.909 53.1254 350.486C53.1254 351.106 52.9077 351.651 52.5485 351.999C52.2654 352.271 51.8844 352.434 51.5469 352.5L53.8221 355.472H51.4816L49.6745 352.685V355.472H47.7913V348.211ZM49.6745 349.669V351.466H50.0338C50.3168 351.466 50.7196 351.389 50.9482 351.172C51.0897 351.03 51.1877 350.791 51.1877 350.562C51.1877 350.344 51.1006 350.105 50.9373 349.952C50.7632 349.778 50.4475 349.669 50.0338 349.669H49.6745ZM60.0376 355.472L59.5912 354.252H56.9568L56.4669 355.472H54.4748L57.2616 348.211H59.3191L62.0515 355.472H60.0376ZM57.4793 352.815H59.0905L58.274 350.464L57.4793 352.815ZM62.8306 354.819L63.6362 353.294C64.0389 353.675 64.6486 354.035 65.3017 354.035C65.6827 354.035 65.9113 353.915 66.0311 353.784C66.1399 353.675 66.2161 353.512 66.2161 353.327C66.2161 353.186 66.1617 353.022 66.0093 352.892C65.8243 352.728 65.5412 352.652 65.0731 352.511L64.5832 352.358C64.2784 352.26 63.8321 352.097 63.5382 351.77C63.1681 351.368 63.1245 350.856 63.1245 350.486C63.1245 349.593 63.4729 349.049 63.7886 348.733C64.1587 348.363 64.7683 348.047 65.6501 348.047C66.3686 348.047 67.2068 348.276 67.8926 348.635L67.1415 350.105C66.5754 349.659 66.1508 349.615 65.9005 349.615C65.7154 349.615 65.465 349.659 65.2799 349.833C65.1711 349.942 65.0949 350.061 65.0949 350.225C65.0949 350.355 65.1167 350.453 65.1929 350.551C65.2473 350.617 65.3779 350.747 65.8243 350.878L66.4012 351.052C66.8584 351.193 67.3374 351.357 67.7184 351.77C68.0885 352.162 68.1865 352.565 68.1865 353.066C68.1865 353.73 68.0232 354.372 67.5007 354.895C66.8802 355.515 66.1291 355.635 65.3561 355.635C64.8989 355.635 64.4635 355.591 63.9301 355.395C63.8103 355.352 63.3531 355.178 62.8306 354.819ZM74.0464 348.211V349.811H71.8038V351.019H73.9266V352.62H71.8038V353.871H74.0464V355.472H69.9205V348.211H74.0464Z" fill="#F0F0E8"/>
<rect x="10.5832" y="372.213" width="94.4753" height="29.9366" stroke="#AEA9FF" stroke-width="1.16636"/>
<path d="M41.2345 384.477H43.1178V388.777C43.1178 389.082 43.1287 389.55 43.4879 389.899C43.7057 390.105 44.054 390.247 44.3806 390.247C44.7072 390.247 45.0446 390.116 45.2515 389.931C45.6869 389.55 45.676 389.017 45.676 388.614V384.477H47.5593V388.647C47.5593 389.409 47.5267 390.203 46.7429 390.998C46.1332 391.619 45.3712 391.902 44.3479 391.902C43.2049 391.902 42.3884 391.51 41.9421 391.031C41.3107 390.345 41.2345 389.42 41.2345 388.647V384.477ZM51.5077 391.738H49.6244V384.477H51.5077L54.9804 388.919V384.477H56.8637V391.738H54.9804L51.5077 387.297V391.738ZM61.563 391.738H58.9286V384.477H61.3997C62.1291 384.477 63.3483 384.575 64.2845 385.479C65.1336 386.295 65.2969 387.34 65.2969 388.124C65.2969 389.082 65.0574 389.931 64.3498 390.639C63.7729 391.216 62.804 391.738 61.563 391.738ZM60.8119 386.078V390.138H61.1929C61.6501 390.138 62.2924 390.094 62.7823 389.616C63.0218 389.387 63.3374 388.93 63.3374 388.124C63.3374 387.449 63.1306 386.872 62.7714 386.535C62.325 386.121 61.7372 386.078 61.2691 386.078H60.8119ZM74.7277 388.113C74.7277 389.071 74.3575 390.084 73.5846 390.824C72.8444 391.531 71.7993 391.902 70.7216 391.902C69.6439 391.902 68.5988 391.531 67.8586 390.824C67.0856 390.084 66.7155 389.071 66.7155 388.113C66.7155 387.144 67.0856 386.121 67.8586 385.392C68.5988 384.684 69.6439 384.314 70.7216 384.314C71.7993 384.314 72.8444 384.684 73.5846 385.392C74.3575 386.121 74.7277 387.144 74.7277 388.113ZM70.7216 386.143C70.1991 386.143 69.6439 386.328 69.252 386.72C68.8601 387.101 68.675 387.634 68.675 388.146C68.675 388.788 68.9798 389.234 69.252 389.496C69.6003 389.833 70.0902 390.073 70.7216 390.073C71.3639 390.073 71.8428 389.844 72.1803 389.507C72.5178 389.169 72.7682 388.668 72.7682 388.113C72.7682 387.547 72.5178 387.046 72.1803 386.72C71.7775 386.339 71.2223 386.143 70.7216 386.143Z" fill="#F0F0E8"/>
<rect x="10.5832" y="408.481" width="94.4753" height="29.9366" stroke="#AEA9FF" stroke-width="1.16636"/>
<path d="M42.2208 426.929H40.3376V419.668H42.2208L45.6935 424.109V419.668H47.5768V426.929H45.6935L42.2208 422.487V426.929ZM57.3273 423.304C57.3273 424.262 56.9572 425.274 56.1842 426.014C55.444 426.722 54.3989 427.092 53.3212 427.092C52.2435 427.092 51.1984 426.722 50.4582 426.014C49.6853 425.274 49.3151 424.262 49.3151 423.304C49.3151 422.335 49.6853 421.312 50.4582 420.582C51.1984 419.875 52.2435 419.504 53.3212 419.504C54.3989 419.504 55.444 419.875 56.1842 420.582C56.9572 421.312 57.3273 422.335 57.3273 423.304ZM53.3212 421.333C52.7987 421.333 52.2435 421.518 51.8516 421.91C51.4597 422.291 51.2746 422.825 51.2746 423.336C51.2746 423.979 51.5794 424.425 51.8516 424.686C52.1999 425.024 52.6898 425.263 53.3212 425.263C53.9635 425.263 54.4425 425.035 54.7799 424.697C55.1174 424.36 55.3678 423.859 55.3678 423.304C55.3678 422.738 55.1174 422.237 54.7799 421.91C54.3772 421.529 53.822 421.333 53.3212 421.333ZM63.3626 421.268H61.8168V426.929H59.9335V421.268H58.3876V419.668H63.3626V421.268ZM68.8677 419.668V421.268H66.6252V422.476H68.7479V424.077H66.6252V425.328H68.8677V426.929H64.7419V419.668H68.8677ZM70.2857 426.276L71.0912 424.752C71.494 425.133 72.1036 425.492 72.7568 425.492C73.1378 425.492 73.3664 425.372 73.4862 425.241C73.595 425.133 73.6712 424.969 73.6712 424.784C73.6712 424.643 73.6168 424.479 73.4644 424.349C73.2793 424.185 72.9963 424.109 72.5282 423.968L72.0383 423.815C71.7335 423.717 71.2872 423.554 70.9933 423.227C70.6231 422.825 70.5796 422.313 70.5796 421.943C70.5796 421.05 70.9279 420.506 71.2436 420.19C71.6138 419.82 72.2234 419.504 73.1052 419.504C73.8236 419.504 74.6619 419.733 75.3477 420.092L74.5965 421.562C74.0305 421.116 73.6059 421.072 73.3555 421.072C73.1705 421.072 72.9201 421.116 72.735 421.29C72.6262 421.399 72.55 421.518 72.55 421.682C72.55 421.812 72.5717 421.91 72.6479 422.008C72.7024 422.074 72.833 422.204 73.2793 422.335L73.8563 422.509C74.3135 422.65 74.7925 422.814 75.1735 423.227C75.5436 423.619 75.6416 424.022 75.6416 424.523C75.6416 425.187 75.4783 425.829 74.9558 426.352C74.3353 426.972 73.5841 427.092 72.8112 427.092C72.354 427.092 71.9186 427.048 71.3852 426.853C71.2654 426.809 70.8082 426.635 70.2857 426.276Z" fill="#F0F0E8"/>
<rect x="129.92" y="335.362" width="43.512" height="43.512" fill="#71861E"/>
<path d="M150.619 363.51V353.806H148.846V351.062H153.847V363.51H150.619Z" fill="#F0F0E8"/>
<rect x="179.179" y="335.945" width="42.3456" height="42.3456" stroke="#F0F0E8" stroke-width="1.16636"/>
<path d="M204.618 360.766V363.51H194.634L197.787 360.207C198.907 359.031 199.747 358.005 200.344 357.053C200.68 356.53 201.016 355.914 201.016 355.112C201.016 354.981 201.016 354.328 200.643 353.918C200.456 353.712 200.139 353.544 199.728 353.544C199.206 353.544 198.851 353.787 198.646 354.048C198.347 354.44 198.217 355.149 198.198 355.579H194.858C194.876 353.955 195.585 352.779 196.239 352.126C197.078 351.286 198.217 350.782 199.766 350.782C201.632 350.782 202.714 351.51 203.274 352.07C203.778 352.574 204.487 353.526 204.487 355.131C204.487 356.698 203.759 357.781 202.64 358.826L200.549 360.766H204.618Z" fill="#F0F0E8"/>
<rect x="227.857" y="335.945" width="42.3456" height="42.3456" stroke="#F0F0E8" stroke-width="1.16636"/>
<path d="M243.349 359.255H246.652C246.671 359.721 246.857 360.207 247.156 360.505C247.436 360.804 247.884 360.99 248.425 360.99C249.059 360.99 249.451 360.71 249.694 360.449C249.974 360.132 250.067 359.796 250.067 359.423C250.067 358.882 249.806 358.508 249.582 358.322C249.264 358.061 248.779 357.967 248.387 357.967C248.182 357.967 248.014 357.986 247.846 358.042V355.858C248.499 355.952 248.91 355.765 249.171 355.541C249.47 355.28 249.582 354.944 249.582 354.664C249.582 354.328 249.432 353.955 249.246 353.768C249.041 353.563 248.686 353.432 248.331 353.432C247.94 353.432 247.622 353.563 247.436 353.75C247.156 354.011 247.006 354.459 247.006 354.851H244.002C244.077 353.544 244.655 352.555 245.215 351.995C246.129 351.044 247.305 350.782 248.499 350.782C249.432 350.782 250.664 350.969 251.597 351.883C252.213 352.499 252.605 353.339 252.605 354.291C252.605 354.832 252.512 355.317 252.232 355.821C252.008 356.232 251.728 356.549 251.28 356.773C252.045 357.053 252.493 357.538 252.754 357.911C253.109 358.434 253.277 359.031 253.277 359.74C253.277 361.065 252.698 361.942 252.176 362.465C251.504 363.137 250.31 363.79 248.462 363.79C247.268 363.79 245.98 363.51 244.898 362.502C244.263 361.924 243.498 360.86 243.349 359.255Z" fill="#F0F0E8"/>
<rect x="130.503" y="384.622" width="42.3456" height="42.3456" stroke="#F0F0E8" stroke-width="1.16636"/>
<path d="M155.471 398.961V406.575H156.982V409.057H155.471V411.408H152.485V409.057H146.457V406.985L151.253 398.961H155.471ZM149.555 406.575H152.485V401.499L149.555 406.575Z" fill="#F0F0E8"/>
<rect x="179.179" y="384.622" width="42.3456" height="42.3456" stroke="#F0F0E8" stroke-width="1.16636"/>
<path d="M203.386 398.961V401.704H199.075L198.851 403.085C199.318 403.01 199.691 402.992 199.859 402.992C201.52 402.992 202.565 403.626 203.143 404.223C203.703 404.783 204.282 405.735 204.282 407.172C204.282 408.665 203.685 409.673 203.087 410.288C201.93 411.483 200.4 411.688 199.206 411.688C197.321 411.688 196.015 411.203 195.007 410.568L195.492 407.545C196.145 408.142 196.78 408.46 196.985 408.553C197.545 408.814 198.235 408.982 198.851 408.982C199.504 408.982 200.102 408.758 200.475 408.366C200.755 408.068 200.96 407.62 200.96 407.097C200.96 406.444 200.643 405.996 200.363 405.754C199.691 405.157 198.534 405.138 198.123 405.138C197.246 405.138 196.5 405.324 195.828 405.66L196.91 398.961H203.386Z" fill="#F0F0E8"/>
<rect x="227.857" y="384.622" width="42.3456" height="42.3456" stroke="#F0F0E8" stroke-width="1.16636"/>
<path d="M247.809 398.961H251.485L247.94 403.197C248.443 402.973 249.059 402.805 249.675 402.805C250.608 402.805 251.672 403.178 252.493 403.999C253.37 404.877 253.669 405.903 253.669 406.967C253.669 408.124 253.351 409.243 252.381 410.214C251.149 411.446 249.6 411.688 248.406 411.688C246.26 411.688 245.01 410.886 244.319 410.177C243.722 409.561 243.181 408.609 243.181 407.265C243.181 405.567 244.039 403.925 245.028 402.618L247.809 398.961ZM248.35 409.131C249.041 409.131 249.507 408.833 249.787 408.553C250.142 408.198 250.366 407.695 250.366 407.135C250.366 406.743 250.235 406.258 249.787 405.828C249.283 405.343 248.723 405.25 248.35 405.25C247.865 405.25 247.324 405.455 246.95 405.791C246.559 406.146 246.335 406.649 246.335 407.079C246.335 407.601 246.521 408.124 246.876 408.497C247.361 409.001 247.94 409.131 248.35 409.131Z" fill="#F0F0E8"/>
</g>
<defs>
<clipPath id="clip0_4853_13408">
<rect width="282" height="574" rx="25.6364" fill="white"/>
</clipPath>
</defs>
</svg>
