<svg width="284" height="565" viewBox="0 0 284 565" fill="none" xmlns="http://www.w3.org/2000/svg">
<g clip-path="url(#clip0_4644_21097)">
<rect x="1" y="1.34766" width="282" height="562.652" rx="25.6364" fill="#1D1D1B"/>
<path d="M246.285 30.2246H268.87" stroke="#F0F0E8" stroke-width="2.25848"/>
<path d="M246.285 36.248H268.87" stroke="#F0F0E8" stroke-width="2.25848"/>
<path d="M246.285 42.2695H268.87" stroke="#F0F0E8" stroke-width="2.25848"/>
<rect x="15.4354" y="62.8592" width="41.6001" height="41.6001" fill="#F0F0E8" stroke="#1D1D1B" stroke-width="0.526979"/>
<rect x="57.5604" y="62.8592" width="41.6001" height="41.6001" fill="#AEA9FF" stroke="#1D1D1B" stroke-width="0.526979"/>
<rect x="99.6854" y="62.8592" width="41.6001" height="41.6001" fill="#F0F0E8" stroke="#1D1D1B" stroke-width="0.526979"/>
<rect x="15.4354" y="105.017" width="41.6001" height="41.6001" fill="#F0F0E8" stroke="#1D1D1B" stroke-width="0.526979"/>
<rect x="57.5604" y="105.017" width="41.6001" height="41.6001" fill="#AEA9FF" stroke="#1D1D1B" stroke-width="0.526979"/>
<rect x="99.6854" y="105.017" width="41.6001" height="41.6001" fill="#F0F0E8" stroke="#1D1D1B" stroke-width="0.526979"/>
<rect x="15.4354" y="234.406" width="41.6001" height="41.6001" fill="#71861E" stroke="#1D1D1B" stroke-width="0.526979"/>
<rect x="57.5604" y="234.406" width="41.6001" height="41.6001" fill="#AEA9FF" stroke="#1D1D1B" stroke-width="0.526979"/>
<rect x="99.6854" y="234.406" width="41.6001" height="41.6001" fill="#F0F0E8" stroke="#1D1D1B" stroke-width="0.526979"/>
<rect x="15.4354" y="276.529" width="41.6001" height="41.6001" fill="#F0F0E8" stroke="#1D1D1B" stroke-width="0.526979"/>
<rect x="57.5604" y="276.529" width="41.6001" height="41.6001" fill="#AEA9FF" stroke="#1D1D1B" stroke-width="0.526979"/>
<rect x="99.6854" y="276.529" width="41.6001" height="41.6001" fill="#F0F0E8" stroke="#1D1D1B" stroke-width="0.526979"/>
<path d="M34.4564 261.311V251.915H32.7399V249.259H37.5821V261.311H34.4564Z" fill="#F0F0E8"/>
<path d="M72.8907 257.191H76.0887C76.1067 257.643 76.2874 258.113 76.5765 258.402C76.8475 258.691 77.2811 258.871 77.8051 258.871C78.4194 258.871 78.7988 258.6 79.0337 258.347C79.3047 258.04 79.3951 257.715 79.3951 257.354C79.3951 256.83 79.1421 256.468 78.9253 256.288C78.6182 256.035 78.1484 255.944 77.769 255.944C77.5702 255.944 77.4076 255.962 77.245 256.017V253.903C77.8774 253.993 78.2749 253.812 78.5278 253.596C78.8169 253.343 78.9253 253.017 78.9253 252.746C78.9253 252.421 78.7808 252.06 78.6001 251.879C78.4014 251.68 78.0581 251.554 77.7148 251.554C77.3354 251.554 77.0282 251.68 76.8475 251.861C76.5765 252.114 76.432 252.548 76.432 252.927H73.523C73.5953 251.662 74.1554 250.705 74.6974 250.163C75.5828 249.241 76.721 248.988 77.8774 248.988C78.7808 248.988 79.9733 249.169 80.8766 250.054C81.4729 250.651 81.8523 251.464 81.8523 252.385C81.8523 252.909 81.762 253.379 81.491 253.867C81.2741 254.264 81.0031 254.571 80.5695 254.788C81.3103 255.059 81.7439 255.529 81.9969 255.89C82.3401 256.396 82.5028 256.974 82.5028 257.661C82.5028 258.944 81.9427 259.793 81.4368 260.299C80.7863 260.949 79.63 261.582 77.8413 261.582C76.6849 261.582 75.4382 261.311 74.3903 260.335C73.776 259.775 73.0352 258.745 72.8907 257.191Z" fill="#1D1D1B"/>
<path d="M82.5208 300.813V303.469H72.8545L75.908 300.271C76.9921 299.132 77.8051 298.139 78.3833 297.217C78.7085 296.711 79.0337 296.115 79.0337 295.338C79.0337 295.212 79.0337 294.579 78.6724 294.182C78.4917 293.983 78.1845 293.821 77.787 293.821C77.2811 293.821 76.9379 294.055 76.7391 294.308C76.45 294.688 76.3236 295.374 76.3055 295.79H73.0713C73.0894 294.218 73.776 293.08 74.4084 292.447C75.2214 291.634 76.3236 291.146 77.8232 291.146C79.63 291.146 80.6779 291.851 81.2199 292.393C81.7078 292.881 82.3943 293.802 82.3943 295.356C82.3943 296.874 81.6897 297.922 80.6056 298.934L78.582 300.813H82.5208Z" fill="#1D1D1B"/>
<rect x="15.4354" y="148.652" width="41.6001" height="41.6001" fill="#AEA9FF" stroke="#1D1D1B" stroke-width="0.526979"/>
<rect x="57.5604" y="148.652" width="41.6001" height="41.6001" fill="#AEA9FF" stroke="#1D1D1B" stroke-width="0.526979"/>
<rect x="99.6854" y="148.652" width="41.6001" height="41.6001" fill="#71861E" stroke="#1D1D1B" stroke-width="0.526979"/>
<rect x="15.4354" y="190.775" width="41.6001" height="41.6001" fill="#AEA9FF" stroke="#1D1D1B" stroke-width="0.526979"/>
<rect x="57.5604" y="190.775" width="41.6001" height="41.6001" fill="#E3FA71" stroke="#1D1D1B" stroke-width="0.526979"/>
<rect x="99.6854" y="190.775" width="41.6001" height="41.6001" fill="#AEA9FF" stroke="#1D1D1B" stroke-width="0.526979"/>
<path d="M118.773 173.984V164.589H117.056V161.933H121.899V173.984H118.773Z" fill="#F0F0E8"/>
<path d="M39.928 205.595V208.251H35.7543L35.5375 209.588C35.9892 209.516 36.3505 209.498 36.5131 209.498C38.1212 209.498 39.133 210.112 39.6931 210.69C40.2351 211.232 40.7952 212.154 40.7952 213.545C40.7952 214.991 40.217 215.966 39.6389 216.562C38.5187 217.719 37.0371 217.918 35.8808 217.918C34.0559 217.918 32.7912 217.448 31.8155 216.833L32.2853 213.906C32.9176 214.485 33.5319 214.792 33.7307 214.882C34.2727 215.135 34.9412 215.298 35.5375 215.298C36.1698 215.298 36.748 215.081 37.1094 214.701C37.3804 214.412 37.5791 213.979 37.5791 213.473C37.5791 212.84 37.272 212.407 37.001 212.172C36.3505 211.594 35.2303 211.576 34.8328 211.576C33.9836 211.576 33.2609 211.756 32.6105 212.082L33.6584 205.595H39.928Z" fill="#1D1D1B"/>
<rect x="142.939" y="234.406" width="41.6001" height="41.6001" fill="#F0F0E8" stroke="#1D1D1B" stroke-width="0.526979"/>
<rect x="185.064" y="234.406" width="41.6001" height="41.6001" fill="#F0F0E8" stroke="#1D1D1B" stroke-width="0.526979"/>
<rect x="227.187" y="234.406" width="41.6001" height="41.6001" fill="#F0F0E8" stroke="#1D1D1B" stroke-width="0.526979"/>
<rect x="142.939" y="276.529" width="41.6001" height="41.6001" fill="#F0F0E8" stroke="#1D1D1B" stroke-width="0.526979"/>
<rect x="185.064" y="276.529" width="41.6001" height="41.6001" fill="#F0F0E8" stroke="#1D1D1B" stroke-width="0.526979"/>
<rect x="227.187" y="276.529" width="41.6001" height="41.6001" fill="#F0F0E8" stroke="#1D1D1B" stroke-width="0.526979"/>
<rect x="142.939" y="148.652" width="41.6001" height="41.6001" fill="#AEA9FF" stroke="#1D1D1B" stroke-width="0.526979"/>
<rect x="185.064" y="148.652" width="41.6001" height="41.6001" fill="#AEA9FF" stroke="#1D1D1B" stroke-width="0.526979"/>
<rect x="227.187" y="148.652" width="41.6001" height="41.6001" fill="#AEA9FF" stroke="#1D1D1B" stroke-width="0.526979"/>
<rect x="142.939" y="190.775" width="41.6001" height="41.6001" fill="#F0F0E8" stroke="#1D1D1B" stroke-width="0.526979"/>
<rect x="185.064" y="190.775" width="41.6001" height="41.6001" fill="#F0F0E8" stroke="#1D1D1B" stroke-width="0.526979"/>
<rect x="227.187" y="190.775" width="41.6001" height="41.6001" fill="#F0F0E8" stroke="#1D1D1B" stroke-width="0.526979"/>
<path d="M158.615 212.777H161.813C161.831 213.229 162.012 213.698 162.301 213.988C162.572 214.277 163.006 214.457 163.53 214.457C164.144 214.457 164.523 214.186 164.758 213.933C165.029 213.626 165.12 213.301 165.12 212.94C165.12 212.416 164.867 212.054 164.65 211.874C164.343 211.621 163.873 211.53 163.494 211.53C163.295 211.53 163.132 211.548 162.97 211.603V209.489C163.602 209.579 163.999 209.398 164.252 209.182C164.542 208.929 164.65 208.603 164.65 208.332C164.65 208.007 164.505 207.646 164.325 207.465C164.126 207.266 163.783 207.14 163.439 207.14C163.06 207.14 162.753 207.266 162.572 207.447C162.301 207.7 162.157 208.134 162.157 208.513H159.248C159.32 207.248 159.88 206.291 160.422 205.749C161.307 204.827 162.446 204.574 163.602 204.574C164.505 204.574 165.698 204.755 166.601 205.64C167.197 206.236 167.577 207.05 167.577 207.971C167.577 208.495 167.487 208.965 167.216 209.453C166.999 209.85 166.728 210.157 166.294 210.374C167.035 210.645 167.469 211.115 167.721 211.476C168.065 211.982 168.227 212.56 168.227 213.247C168.227 214.53 167.667 215.379 167.161 215.885C166.511 216.535 165.355 217.168 163.566 217.168C162.41 217.168 161.163 216.896 160.115 215.921C159.501 215.361 158.76 214.331 158.615 212.777Z" fill="#1D1D1B"/>
<path d="M251.351 162.685V170.057H252.815V172.46H251.351V174.736H248.46V172.46H242.625V170.454L247.268 162.685H251.351ZM245.624 170.057H248.46V165.142L245.624 170.057Z" fill="#1D1D1B"/>
<rect x="185.162" y="105.017" width="41.6001" height="41.6001" fill="#71861E" stroke="#1D1D1B" stroke-width="0.526979"/>
<rect x="142.939" y="62.8592" width="41.6001" height="41.6001" fill="#F0F0E8" stroke="#1D1D1B" stroke-width="0.526979"/>
<rect x="185.064" y="62.8592" width="41.6001" height="41.6001" fill="#F0F0E8" stroke="#1D1D1B" stroke-width="0.526979"/>
<rect x="227.187" y="62.8592" width="41.6001" height="41.6001" fill="#F0F0E8" stroke="#1D1D1B" stroke-width="0.526979"/>
<rect x="142.939" y="105.017" width="41.6001" height="41.6001" fill="#F0F0E8" stroke="#1D1D1B" stroke-width="0.526979"/>
<rect x="227.187" y="105.017" width="41.6001" height="41.6001" fill="#F0F0E8" stroke="#1D1D1B" stroke-width="0.526979"/>
<path d="M252.941 129.135V131.791H243.274L246.328 128.593C247.412 127.455 248.225 126.461 248.803 125.54C249.128 125.034 249.454 124.437 249.454 123.66C249.454 123.534 249.454 122.902 249.092 122.504C248.912 122.305 248.604 122.143 248.207 122.143C247.701 122.143 247.358 122.378 247.159 122.631C246.87 123.01 246.743 123.697 246.725 124.112H243.491C243.509 122.54 244.196 121.402 244.828 120.77C245.641 119.957 246.743 119.469 248.243 119.469C250.05 119.469 251.098 120.173 251.64 120.715C252.128 121.203 252.814 122.125 252.814 123.679C252.814 125.196 252.11 126.244 251.026 127.256L249.002 129.135H252.941Z" fill="#1D1D1B"/>
<path d="M209.568 77.5777V84.9493H211.032V87.3524H209.568V89.6289H206.677V87.3524H200.841V85.3468L205.485 77.5777H209.568ZM203.841 84.9493H206.677V80.0349L203.841 84.9493Z" fill="#1D1D1B"/>
<path d="M204.87 129.529V120.134H203.154V117.478H207.996V129.529H204.87Z" fill="#F0F0E8"/>
<path d="M125.393 36.713C125.393 34.974 126.194 33.0874 128.144 33.0874C130.094 33.0874 130.895 34.974 130.895 36.713C130.895 38.452 130.094 40.3491 128.144 40.3491C126.194 40.3491 125.393 38.452 125.393 36.713ZM129.82 36.713C129.82 35.3428 129.388 34.0254 128.144 34.0254C126.9 34.0254 126.468 35.3428 126.468 36.713C126.468 38.0831 126.9 39.4111 128.144 39.4111C129.388 39.4111 129.82 38.0831 129.82 36.713ZM132.552 39.2425L133.174 38.5258C133.638 39.0949 134.27 39.4111 135.092 39.4111C136.009 39.4111 136.62 38.8104 136.62 38.041C136.62 37.1978 136.02 36.6603 135.113 36.6603C134.502 36.6603 133.996 36.85 133.532 37.2927L132.773 37.0502V33.1928H137.221V34.1202H133.827V36.3652C134.165 36.0279 134.755 35.7433 135.44 35.7433C136.62 35.7433 137.685 36.5549 137.685 37.9988C137.685 39.4427 136.589 40.3491 135.103 40.3491C133.901 40.3491 133.1 39.9275 132.552 39.2425ZM139.295 35.7223C139.295 35.3639 139.59 35.0583 139.948 35.0583C140.306 35.0583 140.612 35.3639 140.612 35.7223C140.612 36.0701 140.306 36.3757 139.948 36.3757C139.59 36.3757 139.295 36.0701 139.295 35.7223ZM139.295 39.6746C139.295 39.3163 139.59 39.0211 139.948 39.0211C140.306 39.0211 140.612 39.3163 140.612 39.6746C140.612 40.0329 140.306 40.3386 139.948 40.3386C139.59 40.3386 139.295 40.0329 139.295 39.6746ZM142.228 36.713C142.228 34.974 143.029 33.0874 144.978 33.0874C146.928 33.0874 147.729 34.974 147.729 36.713C147.729 38.452 146.928 40.3491 144.978 40.3491C143.029 40.3491 142.228 38.452 142.228 36.713ZM146.654 36.713C146.654 35.3428 146.222 34.0254 144.978 34.0254C143.735 34.0254 143.303 35.3428 143.303 36.713C143.303 38.0831 143.735 39.4111 144.978 39.4111C146.222 39.4111 146.654 38.0831 146.654 36.713ZM154.245 40.2227H149.292V39.39C151.927 37.3664 153.139 36.3125 153.139 35.2058C153.139 34.3837 152.454 34.0254 151.769 34.0254C150.936 34.0254 150.293 34.3732 149.861 34.8896L149.239 34.2046C149.819 33.4773 150.778 33.0874 151.758 33.0874C153.023 33.0874 154.214 33.8041 154.214 35.2058C154.214 36.576 152.896 37.8091 150.968 39.2952H154.245V40.2227Z" fill="#F0F0E8"/>
<path d="M16.2988 36.998H35.1195" stroke="#F0F0E8" stroke-width="2.25848"/>
<path d="M22.6982 29.4688L15.1699 36.997L21.5689 43.396" stroke="#F0F0E8" stroke-width="2.25848"/>
<rect x="17.2345" y="337.938" width="91.4684" height="28.9838" stroke="#AEA9FF" stroke-width="1.12924"/>
<path d="M51.5696 349.13V350.68H49.3985V351.849H51.4537V353.399H49.3985V354.611H51.5696V356.16H47.5751V349.13H51.5696ZM53.2587 349.13H56.1044C56.6313 349.13 57.3059 349.215 57.8223 349.752C58.2228 350.163 58.4231 350.774 58.4231 351.333C58.4231 351.934 58.2123 352.461 57.8645 352.798C57.5904 353.062 57.2215 353.22 56.8948 353.283L59.0976 356.16H56.8316L55.082 353.462V356.16H53.2587V349.13ZM55.082 350.543V352.282H55.4298C55.7039 352.282 56.0938 352.208 56.3151 351.997C56.4522 351.86 56.547 351.628 56.547 351.407C56.547 351.196 56.4627 350.964 56.3046 350.817C56.136 350.648 55.8303 350.543 55.4298 350.543H55.082ZM65.1152 356.16L64.6831 354.98H62.1325L61.6582 356.16H59.7295L62.4276 349.13H64.4196L67.065 356.16H65.1152ZM62.6384 353.589H64.1982L63.4078 351.312L62.6384 353.589ZM67.8193 355.528L68.5993 354.052C68.9892 354.421 69.5794 354.769 70.2118 354.769C70.5807 354.769 70.802 354.653 70.918 354.527C71.0234 354.421 71.0971 354.263 71.0971 354.084C71.0971 353.947 71.0444 353.789 70.8969 353.662C70.7177 353.504 70.4437 353.43 69.9905 353.293L69.5162 353.146C69.2211 353.051 68.789 352.893 68.5044 352.577C68.1461 352.187 68.1039 351.691 68.1039 351.333C68.1039 350.469 68.4412 349.942 68.7468 349.636C69.1052 349.278 69.6954 348.972 70.5491 348.972C71.2447 348.972 72.0562 349.194 72.7202 349.541L71.993 350.964C71.4449 350.532 71.0339 350.49 70.7915 350.49C70.6123 350.49 70.3699 350.532 70.1907 350.701C70.0853 350.806 70.0116 350.922 70.0116 351.08C70.0116 351.207 70.0326 351.301 70.1064 351.396C70.1591 351.46 70.2856 351.586 70.7177 351.712L71.2763 351.881C71.719 352.018 72.1827 352.176 72.5516 352.577C72.9099 352.956 73.0048 353.346 73.0048 353.831C73.0048 354.474 72.8467 355.096 72.3408 355.602C71.7401 356.202 71.0128 356.318 70.2645 356.318C69.8219 356.318 69.4003 356.276 68.8838 356.086C68.7679 356.044 68.3252 355.876 67.8193 355.528ZM78.6781 349.13V350.68H76.507V351.849H78.5622V353.399H76.507V354.611H78.6781V356.16H74.6836V349.13H78.6781Z" fill="#F0F0E8"/>
<rect x="17.2345" y="374.076" width="91.4684" height="28.9838" stroke="#AEA9FF" stroke-width="1.12924"/>
<path d="M46.9093 385.269H48.7326V389.432C48.7326 389.727 48.7431 390.18 49.0909 390.518C49.3017 390.718 49.639 390.855 49.9552 390.855C50.2714 390.855 50.5981 390.728 50.7984 390.549C51.2199 390.18 51.2094 389.664 51.2094 389.274V385.269H53.0327V389.306C53.0327 390.043 53.0011 390.813 52.2423 391.582C51.6521 392.183 50.9143 392.457 49.9236 392.457C48.8169 392.457 48.0264 392.077 47.5943 391.614C46.983 390.95 46.9093 390.054 46.9093 389.306V385.269ZM56.8555 392.299H55.0321V385.269H56.8555L60.2176 389.569V385.269H62.0409V392.299H60.2176L56.8555 387.999V392.299ZM66.5907 392.299H64.0402V385.269H66.4327C67.1388 385.269 68.3192 385.364 69.2256 386.239C70.0477 387.029 70.2058 388.041 70.2058 388.8C70.2058 389.727 69.9739 390.549 69.2889 391.234C68.7303 391.793 67.7923 392.299 66.5907 392.299ZM65.8635 386.818V390.75H66.2324C66.6751 390.75 67.2969 390.707 67.7712 390.244C68.003 390.022 68.3087 389.58 68.3087 388.8C68.3087 388.146 68.1084 387.588 67.7606 387.261C67.3285 386.86 66.7594 386.818 66.3062 386.818H65.8635ZM79.3364 388.789C79.3364 389.717 78.978 390.697 78.2297 391.414C77.513 392.099 76.5012 392.457 75.4578 392.457C74.4144 392.457 73.4026 392.099 72.6859 391.414C71.9376 390.697 71.5793 389.717 71.5793 388.789C71.5793 387.851 71.9376 386.86 72.6859 386.154C73.4026 385.469 74.4144 385.111 75.4578 385.111C76.5012 385.111 77.513 385.469 78.2297 386.154C78.978 386.86 79.3364 387.851 79.3364 388.789ZM75.4578 386.881C74.9519 386.881 74.4144 387.061 74.035 387.44C73.6555 387.809 73.4764 388.325 73.4764 388.821C73.4764 389.443 73.7715 389.875 74.035 390.128C74.3722 390.454 74.8465 390.686 75.4578 390.686C76.0796 390.686 76.5434 390.465 76.8701 390.138C77.1968 389.811 77.4393 389.327 77.4393 388.789C77.4393 388.241 77.1968 387.756 76.8701 387.44C76.4802 387.071 75.9426 386.881 75.4578 386.881Z" fill="#F0F0E8"/>
<rect x="17.2345" y="410.209" width="91.4684" height="28.9838" stroke="#AEA9FF" stroke-width="1.12924"/>
<path d="M47.8636 428.432H46.0402V421.402H47.8636L51.2257 425.702V421.402H53.0491V428.432H51.2257L47.8636 424.131V428.432ZM62.4892 424.922C62.4892 425.849 62.1309 426.83 61.3826 427.546C60.6659 428.231 59.6541 428.59 58.6107 428.59C57.5672 428.59 56.5554 428.231 55.8388 427.546C55.0904 426.83 54.7321 425.849 54.7321 424.922C54.7321 423.984 55.0904 422.993 55.8388 422.287C56.5554 421.602 57.5672 421.244 58.6107 421.244C59.6541 421.244 60.6659 421.602 61.3826 422.287C62.1309 422.993 62.4892 423.984 62.4892 424.922ZM58.6107 423.014C58.1048 423.014 57.5672 423.193 57.1878 423.573C56.8084 423.942 56.6292 424.458 56.6292 424.954C56.6292 425.575 56.9243 426.008 57.1878 426.26C57.5251 426.587 57.9994 426.819 58.6107 426.819C59.2325 426.819 59.6962 426.598 60.023 426.271C60.3497 425.944 60.5921 425.459 60.5921 424.922C60.5921 424.374 60.3497 423.889 60.023 423.573C59.633 423.204 59.0955 423.014 58.6107 423.014ZM68.3324 422.951H66.8358V428.432H65.0125V422.951H63.5158V421.402H68.3324V422.951ZM73.6623 421.402V422.951H71.4912V424.121H73.5464V425.67H71.4912V426.882H73.6623V428.432H69.6678V421.402H73.6623ZM75.0352 427.799L75.8151 426.324C76.2051 426.693 76.7953 427.04 77.4277 427.04C77.7965 427.04 78.0179 426.924 78.1338 426.798C78.2392 426.693 78.313 426.535 78.313 426.355C78.313 426.218 78.2603 426.06 78.1127 425.934C77.9336 425.776 77.6595 425.702 77.2063 425.565L76.7321 425.417C76.4369 425.322 76.0048 425.164 75.7203 424.848C75.3619 424.458 75.3197 423.963 75.3197 423.605C75.3197 422.74 75.657 422.213 75.9627 421.908C76.321 421.549 76.9112 421.244 77.7649 421.244C78.4605 421.244 79.2721 421.465 79.9361 421.813L79.2089 423.236C78.6608 422.804 78.2497 422.761 78.0073 422.761C77.8282 422.761 77.5858 422.804 77.4066 422.972C77.3012 423.078 77.2274 423.193 77.2274 423.352C77.2274 423.478 77.2485 423.573 77.3223 423.668C77.375 423.731 77.5014 423.857 77.9336 423.984L78.4922 424.153C78.9348 424.29 79.3986 424.448 79.7674 424.848C80.1258 425.228 80.2206 425.618 80.2206 426.102C80.2206 426.745 80.0626 427.367 79.5567 427.873C78.9559 428.474 78.2287 428.59 77.4804 428.59C77.0377 428.59 76.6161 428.548 76.0997 428.358C75.9837 428.316 75.5411 428.147 75.0352 427.799Z" fill="#F0F0E8"/>
<rect x="130.352" y="337.373" width="42.1271" height="42.1271" fill="#71861E"/>
<path d="M150.392 365.197V355.802H148.675V353.146H153.518V365.197H150.392Z" fill="#F0F0E8"/>
<rect x="179.065" y="337.938" width="40.9979" height="40.9979" stroke="#F0F0E8" stroke-width="1.12924"/>
<path d="M203.693 362.541V365.197H194.026L197.08 361.999C198.164 360.861 198.977 359.867 199.555 358.946C199.88 358.44 200.206 357.844 200.206 357.067C200.206 356.94 200.206 356.308 199.844 355.91C199.664 355.712 199.356 355.549 198.959 355.549C198.453 355.549 198.11 355.784 197.911 356.037C197.622 356.416 197.495 357.103 197.477 357.518H194.243C194.261 355.947 194.948 354.808 195.58 354.176C196.393 353.363 197.495 352.875 198.995 352.875C200.802 352.875 201.85 353.58 202.392 354.122C202.88 354.61 203.566 355.531 203.566 357.085C203.566 358.603 202.862 359.65 201.778 360.662L199.754 362.541H203.693Z" fill="#F0F0E8"/>
<rect x="227.213" y="337.938" width="40.9979" height="40.9979" stroke="#F0F0E8" stroke-width="1.12924"/>
<path d="M242.211 361.078H245.409C245.427 361.529 245.608 361.999 245.897 362.288C246.168 362.577 246.601 362.758 247.125 362.758C247.74 362.758 248.119 362.487 248.354 362.234C248.625 361.927 248.715 361.602 248.715 361.24C248.715 360.716 248.462 360.355 248.246 360.174C247.938 359.921 247.469 359.831 247.089 359.831C246.891 359.831 246.728 359.849 246.565 359.903V357.789C247.198 357.88 247.595 357.699 247.848 357.482C248.137 357.229 248.246 356.904 248.246 356.633C248.246 356.308 248.101 355.947 247.92 355.766C247.722 355.567 247.378 355.441 247.035 355.441C246.656 355.441 246.349 355.567 246.168 355.748C245.897 356.001 245.752 356.434 245.752 356.814H242.843C242.916 355.549 243.476 354.591 244.018 354.049C244.903 353.128 246.041 352.875 247.198 352.875C248.101 352.875 249.294 353.056 250.197 353.941C250.793 354.537 251.173 355.35 251.173 356.272C251.173 356.796 251.082 357.265 250.811 357.753C250.594 358.151 250.323 358.458 249.89 358.675C250.631 358.946 251.064 359.416 251.317 359.777C251.66 360.283 251.823 360.861 251.823 361.548C251.823 362.83 251.263 363.68 250.757 364.185C250.107 364.836 248.95 365.468 247.162 365.468C246.005 365.468 244.759 365.197 243.711 364.222C243.096 363.661 242.356 362.632 242.211 361.078Z" fill="#F0F0E8"/>
<rect x="130.916" y="386.09" width="40.9979" height="40.9979" stroke="#F0F0E8" stroke-width="1.12924"/>
<path d="M155.09 400.544V407.916H156.553V410.319H155.09V412.596H152.199V410.319H146.363V408.314L151.006 400.544H155.09ZM149.362 407.916H152.199V403.002L149.362 407.916Z" fill="#F0F0E8"/>
<rect x="179.065" y="386.09" width="40.9979" height="40.9979" stroke="#F0F0E8" stroke-width="1.12924"/>
<path d="M202.5 400.544V403.2H198.327L198.11 404.537C198.561 404.465 198.923 404.447 199.085 404.447C200.693 404.447 201.705 405.061 202.265 405.64C202.807 406.182 203.367 407.103 203.367 408.494C203.367 409.94 202.789 410.915 202.211 411.512C201.091 412.668 199.609 412.867 198.453 412.867C196.628 412.867 195.363 412.397 194.388 411.783L194.858 408.856C195.49 409.434 196.104 409.741 196.303 409.831C196.845 410.084 197.513 410.247 198.11 410.247C198.742 410.247 199.32 410.03 199.682 409.651C199.953 409.362 200.151 408.928 200.151 408.422C200.151 407.79 199.844 407.356 199.573 407.121C198.923 406.543 197.803 406.525 197.405 406.525C196.556 406.525 195.833 406.706 195.183 407.031L196.231 400.544H202.5Z" fill="#F0F0E8"/>
<rect x="227.213" y="386.09" width="40.9979" height="40.9979" stroke="#F0F0E8" stroke-width="1.12924"/>
<path d="M246.529 400.544H250.089L246.656 404.646C247.143 404.429 247.74 404.266 248.336 404.266C249.239 404.266 250.269 404.628 251.064 405.423C251.913 406.272 252.202 407.266 252.202 408.296C252.202 409.416 251.895 410.5 250.956 411.439C249.763 412.632 248.264 412.867 247.107 412.867C245.03 412.867 243.819 412.09 243.151 411.403C242.572 410.807 242.048 409.886 242.048 408.585C242.048 406.94 242.879 405.351 243.837 404.086L246.529 400.544ZM247.053 410.391C247.722 410.391 248.173 410.102 248.444 409.831C248.788 409.488 249.004 409 249.004 408.458C249.004 408.079 248.878 407.609 248.444 407.193C247.957 406.724 247.415 406.633 247.053 406.633C246.583 406.633 246.059 406.832 245.698 407.157C245.319 407.501 245.102 407.988 245.102 408.404C245.102 408.91 245.283 409.416 245.626 409.777C246.096 410.265 246.656 410.391 247.053 410.391Z" fill="#F0F0E8"/>
</g>
<rect x="0.508711" y="0.856367" width="282.983" height="563.635" rx="26.1277" stroke="black" stroke-width="0.982578"/>
<defs>
<clipPath id="clip0_4644_21097">
<rect x="1" y="1.34766" width="282" height="562.652" rx="25.6364" fill="white"/>
</clipPath>
</defs>
</svg>
