<svg width="1440" height="1134" viewBox="0 0 1440 1134" fill="none" xmlns="http://www.w3.org/2000/svg">
<g clip-path="url(#clip0_4815_17627)">
<rect width="1440" height="1134" fill="white"/>
<rect x="-25.0042" y="0.507494" width="75.4886" height="75.4886" stroke="#1D1D1B" stroke-width="1.01499"/>
<rect x="50.4841" y="0.507494" width="75.4886" height="75.4886" fill="#71861E" stroke="#1D1D1B" stroke-width="1.01499"/>
<path d="M93.5877 29.5452V32.8964H87.7876L87.3235 35.1906C87.7618 35.1133 88.3031 35.0617 88.7413 35.0617C90.6747 35.0617 92.1699 35.7577 93.1236 36.7373C93.897 37.5107 94.6961 38.8511 94.6961 40.8876C94.6961 43.1045 93.7423 44.5223 92.9432 45.3215C91.3707 46.8681 89.4889 47.1259 87.736 47.1259C86.112 47.1259 84.1786 46.9197 82.0132 45.2441L82.9155 41.5578C83.3795 42.0734 84.0239 42.6405 84.5653 42.9756C85.2871 43.4396 86.1377 43.7232 87.1689 43.7232C88.0711 43.7232 88.9991 43.517 89.6178 43.0272C90.1592 42.6147 90.6232 41.8672 90.6232 40.8618C90.6232 39.8307 90.1592 39.212 89.7467 38.8511C89.5405 38.6707 88.6898 37.9489 86.8853 37.9489C85.4417 37.9489 84.2302 38.3871 83.3795 38.8511L85.1324 29.5452H93.5877Z" fill="#E3FA71"/>
<rect x="125.972" y="0.507494" width="75.4886" height="75.4886" stroke="#1D1D1B" stroke-width="1.01499"/>
<rect x="201.463" y="0.507494" width="75.4886" height="75.4886" stroke="#1D1D1B" stroke-width="1.01499"/>
<rect x="276.951" y="0.507494" width="75.4886" height="75.4886" stroke="#1D1D1B" stroke-width="1.01499"/>
<rect x="352.439" y="0.507494" width="75.4886" height="75.4886" stroke="#1D1D1B" stroke-width="1.01499"/>
<rect x="427.927" y="0.507494" width="75.4886" height="75.4886" stroke="#1D1D1B" stroke-width="1.01499"/>
<rect x="503.416" y="0.507494" width="75.4886" height="75.4886" stroke="#1D1D1B" stroke-width="1.01499"/>
<rect x="578.904" y="0.507494" width="75.4886" height="75.4886" stroke="#1D1D1B" stroke-width="1.01499"/>
<rect x="654.394" y="0.507494" width="75.4886" height="75.4886" stroke="#1D1D1B" stroke-width="1.01499"/>
<rect x="729.882" y="0.507494" width="75.4886" height="75.4886" stroke="#1D1D1B" stroke-width="1.01499"/>
<rect x="805.371" y="0.507494" width="75.4886" height="75.4886" stroke="#1D1D1B" stroke-width="1.01499"/>
<rect x="880.859" y="0.507494" width="75.4886" height="75.4886" stroke="#1D1D1B" stroke-width="1.01499"/>
<rect x="956.347" y="0.507494" width="75.4886" height="75.4886" stroke="#1D1D1B" stroke-width="1.01499"/>
<rect x="1031.84" y="0.507494" width="75.4886" height="75.4886" stroke="#1D1D1B" stroke-width="1.01499"/>
<rect x="1107.32" y="0.507494" width="75.4886" height="75.4886" stroke="#1D1D1B" stroke-width="1.01499"/>
<rect x="1182.81" y="0.507494" width="75.4886" height="75.4886" stroke="#1D1D1B" stroke-width="1.01499"/>
<rect x="1258.3" y="0.507494" width="75.4886" height="75.4886" stroke="#1D1D1B" stroke-width="1.01499"/>
<rect x="1333.79" y="0.507494" width="75.4886" height="75.4886" stroke="#1D1D1B" stroke-width="1.01499"/>
<rect x="-25.0042" y="76.0114" width="75.4886" height="75.4886" stroke="#1D1D1B" stroke-width="1.01499"/>
<rect x="50.4841" y="76.0114" width="75.4886" height="75.4886" fill="#71861E" stroke="#1D1D1B" stroke-width="1.01499"/>
<path d="M93.5877 105.049V115.85H95.6499V118.995H93.5877V122.243H89.7725V118.995H81.3688V116.727L88.9476 105.049H93.5877ZM85.5448 115.85H89.7725V109.174L85.5448 115.85Z" fill="#E3FA71"/>
<rect x="125.972" y="76.0114" width="75.4886" height="75.4886" stroke="#1D1D1B" stroke-width="1.01499"/>
<rect x="201.463" y="76.0114" width="75.4886" height="75.4886" stroke="#1D1D1B" stroke-width="1.01499"/>
<rect x="276.951" y="76.0114" width="75.4886" height="75.4886" stroke="#1D1D1B" stroke-width="1.01499"/>
<rect x="352.439" y="76.0114" width="75.4886" height="75.4886" stroke="#1D1D1B" stroke-width="1.01499"/>
<rect x="427.927" y="76.0114" width="75.4886" height="75.4886" stroke="#1D1D1B" stroke-width="1.01499"/>
<rect x="503.416" y="76.0114" width="75.4886" height="75.4886" stroke="#1D1D1B" stroke-width="1.01499"/>
<rect x="578.904" y="76.0114" width="75.4886" height="75.4886" stroke="#1D1D1B" stroke-width="1.01499"/>
<rect x="654.394" y="76.0114" width="75.4886" height="75.4886" stroke="#1D1D1B" stroke-width="1.01499"/>
<rect x="729.882" y="76.0114" width="75.4886" height="75.4886" stroke="#1D1D1B" stroke-width="1.01499"/>
<rect x="805.371" y="76.0114" width="75.4886" height="75.4886" stroke="#1D1D1B" stroke-width="1.01499"/>
<rect x="880.859" y="76.0114" width="75.4886" height="75.4886" stroke="#1D1D1B" stroke-width="1.01499"/>
<rect x="956.347" y="76.0114" width="75.4886" height="75.4886" stroke="#1D1D1B" stroke-width="1.01499"/>
<rect x="1031.84" y="76.0114" width="75.4886" height="75.4886" stroke="#1D1D1B" stroke-width="1.01499"/>
<rect x="1107.32" y="76.0114" width="75.4886" height="75.4886" stroke="#1D1D1B" stroke-width="1.01499"/>
<rect x="1182.81" y="76.0114" width="75.4886" height="75.4886" stroke="#1D1D1B" stroke-width="1.01499"/>
<rect x="1258.3" y="76.0114" width="75.4886" height="75.4886" stroke="#1D1D1B" stroke-width="1.01499"/>
<rect x="1333.79" y="76.0114" width="75.4886" height="75.4886" stroke="#1D1D1B" stroke-width="1.01499"/>
<rect x="-25.0042" y="151.514" width="75.4886" height="75.4886" stroke="#1D1D1B" stroke-width="1.01499"/>
<rect x="50.4841" y="151.514" width="75.4886" height="75.4886" stroke="#1D1D1B" stroke-width="1.01499"/>
<rect x="125.972" y="151.514" width="75.4886" height="75.4886" stroke="#1D1D1B" stroke-width="1.01499"/>
<rect x="201.463" y="151.514" width="75.4886" height="75.4886" stroke="#1D1D1B" stroke-width="1.01499"/>
<rect x="276.951" y="151.514" width="75.4886" height="75.4886" stroke="#1D1D1B" stroke-width="1.01499"/>
<rect x="352.439" y="151.514" width="75.4886" height="75.4886" stroke="#1D1D1B" stroke-width="1.01499"/>
<rect x="427.927" y="151.514" width="75.4886" height="75.4886" stroke="#1D1D1B" stroke-width="1.01499"/>
<rect x="503.416" y="151.514" width="75.4886" height="75.4886" stroke="#1D1D1B" stroke-width="1.01499"/>
<rect x="578.904" y="151.514" width="75.4886" height="75.4886" stroke="#1D1D1B" stroke-width="1.01499"/>
<rect x="654.394" y="151.514" width="75.4886" height="75.4886" stroke="#1D1D1B" stroke-width="1.01499"/>
<rect x="729.882" y="151.514" width="75.4886" height="75.4886" stroke="#1D1D1B" stroke-width="1.01499"/>
<rect x="805.371" y="151.514" width="75.4886" height="75.4886" stroke="#1D1D1B" stroke-width="1.01499"/>
<rect x="880.859" y="151.514" width="75.4886" height="75.4886" stroke="#1D1D1B" stroke-width="1.01499"/>
<rect x="956.347" y="151.514" width="75.4886" height="75.4886" stroke="#1D1D1B" stroke-width="1.01499"/>
<rect x="1031.84" y="151.514" width="75.4886" height="75.4886" stroke="#1D1D1B" stroke-width="1.01499"/>
<rect x="1107.32" y="151.514" width="75.4886" height="75.4886" stroke="#1D1D1B" stroke-width="1.01499"/>
<rect x="1182.81" y="151.514" width="75.4886" height="75.4886" stroke="#1D1D1B" stroke-width="1.01499"/>
<rect x="1258.3" y="151.514" width="75.4886" height="75.4886" stroke="#1D1D1B" stroke-width="1.01499"/>
<rect x="1333.79" y="151.514" width="75.4886" height="75.4886" stroke="#1D1D1B" stroke-width="1.01499"/>
<rect x="-25.0042" y="227.018" width="75.4886" height="75.4886" stroke="#1D1D1B" stroke-width="1.01499"/>
<rect x="50.4841" y="227.018" width="75.4886" height="75.4886" stroke="#1D1D1B" stroke-width="1.01499"/>
<rect x="125.972" y="227.018" width="75.4886" height="75.4886" stroke="#1D1D1B" stroke-width="1.01499"/>
<rect x="201.463" y="227.018" width="75.4886" height="75.4886" stroke="#1D1D1B" stroke-width="1.01499"/>
<rect x="276.951" y="227.018" width="75.4886" height="75.4886" stroke="#1D1D1B" stroke-width="1.01499"/>
<rect x="352.439" y="227.018" width="75.4886" height="75.4886" stroke="#1D1D1B" stroke-width="1.01499"/>
<rect x="427.927" y="227.018" width="75.4886" height="75.4886" stroke="#1D1D1B" stroke-width="1.01499"/>
<rect x="503.416" y="227.018" width="75.4886" height="75.4886" stroke="#1D1D1B" stroke-width="1.01499"/>
<rect x="578.904" y="227.018" width="75.4886" height="75.4886" fill="#A6A1FF" stroke="#1D1D1B" stroke-width="1.01499"/>
<rect x="654.394" y="227.018" width="75.4886" height="75.4886" stroke="#1D1D1B" stroke-width="1.01499"/>
<rect x="729.882" y="227.018" width="75.4886" height="75.4886" stroke="#1D1D1B" stroke-width="1.01499"/>
<rect x="805.371" y="227.018" width="75.4886" height="75.4886" stroke="#1D1D1B" stroke-width="1.01499"/>
<rect x="880.859" y="227.018" width="75.4886" height="75.4886" stroke="#1D1D1B" stroke-width="1.01499"/>
<rect x="956.347" y="227.018" width="75.4886" height="75.4886" stroke="#1D1D1B" stroke-width="1.01499"/>
<rect x="1031.84" y="227.018" width="75.4886" height="75.4886" stroke="#1D1D1B" stroke-width="1.01499"/>
<rect x="1107.32" y="227.018" width="75.4886" height="75.4886" stroke="#1D1D1B" stroke-width="1.01499"/>
<rect x="1182.81" y="227.018" width="75.4886" height="75.4886" stroke="#1D1D1B" stroke-width="1.01499"/>
<rect x="1258.3" y="227.018" width="75.4886" height="75.4886" stroke="#1D1D1B" stroke-width="1.01499"/>
<rect x="1333.79" y="227.018" width="75.4886" height="75.4886" stroke="#1D1D1B" stroke-width="1.01499"/>
<rect x="-25.0042" y="302.522" width="75.4886" height="75.4886" stroke="#1D1D1B" stroke-width="1.01499"/>
<rect x="50.4841" y="302.522" width="75.4886" height="75.4886" stroke="#1D1D1B" stroke-width="1.01499"/>
<rect x="125.972" y="302.522" width="75.4886" height="75.4886" stroke="#1D1D1B" stroke-width="1.01499"/>
<rect x="201.463" y="302.522" width="75.4886" height="75.4886" stroke="#1D1D1B" stroke-width="1.01499"/>
<rect x="276.951" y="302.522" width="75.4886" height="75.4886" stroke="#1D1D1B" stroke-width="1.01499"/>
<rect x="352.439" y="302.522" width="75.4886" height="75.4886" stroke="#1D1D1B" stroke-width="1.01499"/>
<rect x="427.927" y="302.522" width="75.4886" height="75.4886" stroke="#1D1D1B" stroke-width="1.01499"/>
<rect x="503.416" y="302.522" width="75.4886" height="75.4886" stroke="#1D1D1B" stroke-width="1.01499"/>
<rect x="578.904" y="302.522" width="75.4886" height="75.4886" stroke="#1D1D1B" stroke-width="1.01499"/>
<rect x="654.394" y="302.522" width="75.4886" height="75.4886" stroke="#1D1D1B" stroke-width="1.01499"/>
<rect x="729.882" y="302.522" width="75.4886" height="75.4886" stroke="#1D1D1B" stroke-width="1.01499"/>
<rect x="805.371" y="302.522" width="75.4886" height="75.4886" stroke="#1D1D1B" stroke-width="1.01499"/>
<rect x="880.859" y="302.522" width="75.4886" height="75.4886" stroke="#1D1D1B" stroke-width="1.01499"/>
<rect x="956.347" y="302.522" width="75.4886" height="75.4886" stroke="#1D1D1B" stroke-width="1.01499"/>
<rect x="1031.84" y="302.522" width="75.4886" height="75.4886" stroke="#1D1D1B" stroke-width="1.01499"/>
<rect x="1107.32" y="302.522" width="75.4886" height="75.4886" stroke="#1D1D1B" stroke-width="1.01499"/>
<rect x="1182.81" y="302.522" width="75.4886" height="75.4886" stroke="#1D1D1B" stroke-width="1.01499"/>
<rect x="1258.3" y="302.522" width="75.4886" height="75.4886" stroke="#1D1D1B" stroke-width="1.01499"/>
<rect x="1333.79" y="302.522" width="75.4886" height="75.4886" stroke="#1D1D1B" stroke-width="1.01499"/>
<rect x="-25.0042" y="378.025" width="75.4886" height="75.4886" stroke="#1D1D1B" stroke-width="1.01499"/>
<rect x="50.4841" y="378.025" width="75.4886" height="75.4886" stroke="#1D1D1B" stroke-width="1.01499"/>
<rect x="125.972" y="378.025" width="75.4886" height="75.4886" stroke="#1D1D1B" stroke-width="1.01499"/>
<rect x="201.463" y="378.025" width="75.4886" height="75.4886" stroke="#1D1D1B" stroke-width="1.01499"/>
<rect x="276.951" y="378.025" width="75.4886" height="75.4886" stroke="#1D1D1B" stroke-width="1.01499"/>
<rect x="352.439" y="378.025" width="75.4886" height="75.4886" stroke="#1D1D1B" stroke-width="1.01499"/>
<rect x="427.927" y="378.025" width="75.4886" height="75.4886" stroke="#1D1D1B" stroke-width="1.01499"/>
<rect x="503.416" y="378.025" width="75.4886" height="75.4886" stroke="#1D1D1B" stroke-width="1.01499"/>
<rect x="578.904" y="378.025" width="75.4886" height="75.4886" stroke="#1D1D1B" stroke-width="1.01499"/>
<rect x="654.394" y="378.025" width="75.4886" height="75.4886" stroke="#1D1D1B" stroke-width="1.01499"/>
<rect x="729.882" y="378.025" width="75.4886" height="75.4886" stroke="#1D1D1B" stroke-width="1.01499"/>
<rect x="805.371" y="378.025" width="75.4886" height="75.4886" stroke="#1D1D1B" stroke-width="1.01499"/>
<rect x="880.859" y="378.025" width="75.4886" height="75.4886" stroke="#1D1D1B" stroke-width="1.01499"/>
<rect x="956.347" y="378.025" width="75.4886" height="75.4886" stroke="#1D1D1B" stroke-width="1.01499"/>
<rect x="1031.84" y="378.025" width="75.4886" height="75.4886" stroke="#1D1D1B" stroke-width="1.01499"/>
<rect x="1107.32" y="378.025" width="75.4886" height="75.4886" stroke="#1D1D1B" stroke-width="1.01499"/>
<rect x="1182.81" y="378.025" width="75.4886" height="75.4886" stroke="#1D1D1B" stroke-width="1.01499"/>
<rect x="1258.3" y="378.025" width="75.4886" height="75.4886" stroke="#1D1D1B" stroke-width="1.01499"/>
<rect x="1333.79" y="378.025" width="75.4886" height="75.4886" stroke="#1D1D1B" stroke-width="1.01499"/>
<rect x="-25.0042" y="453.529" width="75.4886" height="75.4886" fill="#A6A1FF" stroke="#1D1D1B" stroke-width="1.01499"/>
<rect x="50.4841" y="453.529" width="75.4886" height="75.4886" stroke="#1D1D1B" stroke-width="1.01499"/>
<rect x="125.972" y="453.529" width="75.4886" height="75.4886" stroke="#1D1D1B" stroke-width="1.01499"/>
<rect x="201.463" y="453.529" width="75.4886" height="75.4886" stroke="#1D1D1B" stroke-width="1.01499"/>
<rect x="276.951" y="453.529" width="75.4886" height="75.4886" stroke="#1D1D1B" stroke-width="1.01499"/>
<rect x="352.439" y="453.529" width="75.4886" height="75.4886" stroke="#1D1D1B" stroke-width="1.01499"/>
<rect x="427.927" y="453.529" width="75.4886" height="75.4886" stroke="#1D1D1B" stroke-width="1.01499"/>
<rect x="503.416" y="453.529" width="75.4886" height="75.4886" stroke="#1D1D1B" stroke-width="1.01499"/>
<rect x="578.904" y="453.529" width="75.4886" height="75.4886" stroke="#1D1D1B" stroke-width="1.01499"/>
<rect x="654.394" y="453.529" width="75.4886" height="75.4886" stroke="#1D1D1B" stroke-width="1.01499"/>
<rect x="729.882" y="453.529" width="75.4886" height="75.4886" stroke="#1D1D1B" stroke-width="1.01499"/>
<rect x="805.371" y="453.529" width="75.4886" height="75.4886" stroke="#1D1D1B" stroke-width="1.01499"/>
<rect x="880.859" y="453.529" width="75.4886" height="75.4886" stroke="#1D1D1B" stroke-width="1.01499"/>
<rect x="956.347" y="453.529" width="75.4886" height="75.4886" stroke="#1D1D1B" stroke-width="1.01499"/>
<rect x="1031.84" y="453.529" width="75.4886" height="75.4886" stroke="#1D1D1B" stroke-width="1.01499"/>
<rect x="1107.32" y="453.529" width="75.4886" height="75.4886" stroke="#1D1D1B" stroke-width="1.01499"/>
<rect x="1182.81" y="453.529" width="75.4886" height="75.4886" stroke="#1D1D1B" stroke-width="1.01499"/>
<rect x="1258.3" y="453.529" width="75.4886" height="75.4886" stroke="#1D1D1B" stroke-width="1.01499"/>
<rect x="1333.79" y="453.529" width="75.4886" height="75.4886" stroke="#1D1D1B" stroke-width="1.01499"/>
<rect x="-25.0042" y="529.032" width="75.4886" height="75.4886" fill="#A6A1FF" stroke="#1D1D1B" stroke-width="1.01499"/>
<rect x="50.4841" y="529.032" width="75.4886" height="75.4886" stroke="#1D1D1B" stroke-width="1.01499"/>
<rect x="125.972" y="529.032" width="75.4886" height="75.4886" stroke="#1D1D1B" stroke-width="1.01499"/>
<rect x="201.463" y="529.032" width="75.4886" height="75.4886" stroke="#1D1D1B" stroke-width="1.01499"/>
<rect x="276.951" y="529.032" width="75.4886" height="75.4886" stroke="#1D1D1B" stroke-width="1.01499"/>
<rect x="352.439" y="529.032" width="75.4886" height="75.4886" stroke="#1D1D1B" stroke-width="1.01499"/>
<rect x="427.927" y="529.032" width="75.4886" height="75.4886" stroke="#1D1D1B" stroke-width="1.01499"/>
<rect x="503.416" y="529.032" width="75.4886" height="75.4886" stroke="#1D1D1B" stroke-width="1.01499"/>
<rect x="578.904" y="529.032" width="75.4886" height="75.4886" stroke="#1D1D1B" stroke-width="1.01499"/>
<rect x="654.394" y="529.032" width="75.4886" height="75.4886" stroke="#1D1D1B" stroke-width="1.01499"/>
<rect x="729.882" y="529.032" width="75.4886" height="75.4886" stroke="#1D1D1B" stroke-width="1.01499"/>
<rect x="805.371" y="529.032" width="75.4886" height="75.4886" stroke="#1D1D1B" stroke-width="1.01499"/>
<rect x="880.859" y="529.032" width="75.4886" height="75.4886" stroke="#1D1D1B" stroke-width="1.01499"/>
<rect x="956.347" y="529.032" width="75.4886" height="75.4886" stroke="#1D1D1B" stroke-width="1.01499"/>
<rect x="1031.84" y="529.032" width="75.4886" height="75.4886" fill="#71861E" stroke="#1D1D1B" stroke-width="1.01499"/>
<path d="M1067.01 563.336H1063.19C1063.35 561.892 1063.99 560.371 1064.89 559.443C1066.16 558.128 1067.83 557.819 1069.25 557.819C1071.37 557.819 1072.89 558.464 1073.76 559.34C1074.48 560.036 1075.08 561.17 1075.08 562.846C1075.08 563.696 1074.92 564.444 1074.38 565.192C1074.02 565.707 1073.58 566.042 1073.09 566.274C1073.81 566.532 1074.59 567.022 1075.05 567.666C1075.57 568.362 1075.85 569.445 1075.85 570.373C1075.85 571.688 1075.33 573.183 1074.12 574.291C1072.65 575.632 1070.98 575.786 1069.59 575.786C1067.91 575.786 1066.08 575.529 1064.56 574.008C1063.58 573.002 1062.83 571.482 1062.65 569.754H1066.62C1066.67 570.425 1066.98 571.224 1067.45 571.688C1067.86 572.1 1068.53 572.384 1069.35 572.384C1070.02 572.384 1070.67 572.178 1071.08 571.791C1071.49 571.404 1071.78 570.734 1071.78 570.038C1071.78 569.316 1071.44 568.723 1071.03 568.388C1070.41 567.898 1069.51 567.847 1068.92 567.847H1068.61V565.114H1068.84C1069.07 565.114 1070 565.089 1070.57 564.625C1070.93 564.315 1071.21 563.774 1071.21 563.078C1071.21 562.485 1070.98 561.995 1070.64 561.686C1070.33 561.402 1069.82 561.17 1069.17 561.17C1068.5 561.17 1067.96 561.402 1067.63 561.737C1067.27 562.124 1067.03 562.794 1067.01 563.336Z" fill="#E3FA71"/>
<rect x="1107.32" y="529.032" width="75.4886" height="75.4886" stroke="#1D1D1B" stroke-width="1.01499"/>
<rect x="1182.81" y="529.032" width="75.4886" height="75.4886" stroke="#1D1D1B" stroke-width="1.01499"/>
<rect x="1258.3" y="529.032" width="75.4886" height="75.4886" stroke="#1D1D1B" stroke-width="1.01499"/>
<rect x="1333.79" y="529.032" width="75.4886" height="75.4886" stroke="#1D1D1B" stroke-width="1.01499"/>
<rect x="-25.0042" y="604.536" width="75.4886" height="75.4886" fill="#A6A1FF" stroke="#1D1D1B" stroke-width="1.01499"/>
<rect x="50.4841" y="604.536" width="75.4886" height="75.4886" stroke="#1D1D1B" stroke-width="1.01499"/>
<rect x="125.972" y="604.536" width="75.4886" height="75.4886" stroke="#1D1D1B" stroke-width="1.01499"/>
<rect x="201.463" y="604.536" width="75.4886" height="75.4886" stroke="#1D1D1B" stroke-width="1.01499"/>
<rect x="276.951" y="604.536" width="75.4886" height="75.4886" stroke="#1D1D1B" stroke-width="1.01499"/>
<rect x="352.439" y="604.536" width="75.4886" height="75.4886" stroke="#1D1D1B" stroke-width="1.01499"/>
<rect x="427.927" y="604.536" width="75.4886" height="75.4886" stroke="#1D1D1B" stroke-width="1.01499"/>
<rect x="503.416" y="604.536" width="75.4886" height="75.4886" stroke="#1D1D1B" stroke-width="1.01499"/>
<rect x="578.904" y="604.536" width="75.4886" height="75.4886" stroke="#1D1D1B" stroke-width="1.01499"/>
<rect x="654.394" y="604.536" width="75.4886" height="75.4886" stroke="#1D1D1B" stroke-width="1.01499"/>
<rect x="729.882" y="604.536" width="75.4886" height="75.4886" stroke="#1D1D1B" stroke-width="1.01499"/>
<rect x="805.371" y="604.536" width="75.4886" height="75.4886" stroke="#1D1D1B" stroke-width="1.01499"/>
<rect x="880.859" y="604.536" width="75.4886" height="75.4886" stroke="#1D1D1B" stroke-width="1.01499"/>
<rect x="956.347" y="604.536" width="75.4886" height="75.4886" stroke="#1D1D1B" stroke-width="1.01499"/>
<rect x="1031.84" y="604.536" width="75.4886" height="75.4886" stroke="#1D1D1B" stroke-width="1.01499"/>
<rect x="1107.32" y="604.536" width="75.4886" height="75.4886" stroke="#1D1D1B" stroke-width="1.01499"/>
<rect x="1182.81" y="604.536" width="75.4886" height="75.4886" stroke="#1D1D1B" stroke-width="1.01499"/>
<rect x="1258.3" y="604.536" width="75.4886" height="75.4886" stroke="#1D1D1B" stroke-width="1.01499"/>
<rect x="1333.79" y="604.536" width="75.4886" height="75.4886" stroke="#1D1D1B" stroke-width="1.01499"/>
<rect x="-25.0042" y="680.04" width="75.4886" height="75.4886" stroke="#1D1D1B" stroke-width="1.01499"/>
<rect x="50.4841" y="680.04" width="75.4886" height="75.4886" stroke="#1D1D1B" stroke-width="1.01499"/>
<rect x="125.972" y="680.04" width="75.4886" height="75.4886" stroke="#1D1D1B" stroke-width="1.01499"/>
<rect x="201.463" y="680.04" width="75.4886" height="75.4886" stroke="#1D1D1B" stroke-width="1.01499"/>
<rect x="276.951" y="680.04" width="75.4886" height="75.4886" stroke="#1D1D1B" stroke-width="1.01499"/>
<rect x="352.439" y="680.04" width="75.4886" height="75.4886" stroke="#1D1D1B" stroke-width="1.01499"/>
<rect x="427.927" y="680.04" width="75.4886" height="75.4886" stroke="#1D1D1B" stroke-width="1.01499"/>
<rect x="503.416" y="680.04" width="75.4886" height="75.4886" stroke="#1D1D1B" stroke-width="1.01499"/>
<rect x="578.904" y="680.04" width="75.4886" height="75.4886" stroke="#1D1D1B" stroke-width="1.01499"/>
<rect x="654.394" y="680.04" width="75.4886" height="75.4886" stroke="#1D1D1B" stroke-width="1.01499"/>
<rect x="729.882" y="680.04" width="75.4886" height="75.4886" stroke="#1D1D1B" stroke-width="1.01499"/>
<rect x="805.371" y="680.04" width="75.4886" height="75.4886" stroke="#1D1D1B" stroke-width="1.01499"/>
<rect x="880.859" y="680.04" width="75.4886" height="75.4886" stroke="#1D1D1B" stroke-width="1.01499"/>
<rect x="956.347" y="680.04" width="75.4886" height="75.4886" stroke="#1D1D1B" stroke-width="1.01499"/>
<rect x="1031.84" y="680.04" width="75.4886" height="75.4886" stroke="#1D1D1B" stroke-width="1.01499"/>
<rect x="1107.32" y="680.04" width="75.4886" height="75.4886" stroke="#1D1D1B" stroke-width="1.01499"/>
<rect x="1182.81" y="680.04" width="75.4886" height="75.4886" stroke="#1D1D1B" stroke-width="1.01499"/>
<rect x="1258.3" y="680.04" width="75.4886" height="75.4886" stroke="#1D1D1B" stroke-width="1.01499"/>
<rect x="1333.79" y="680.04" width="75.4886" height="75.4886" stroke="#1D1D1B" stroke-width="1.01499"/>
<rect x="-25.0042" y="755.543" width="75.4886" height="75.4886" stroke="#1D1D1B" stroke-width="1.01499"/>
<rect x="50.4841" y="755.543" width="75.4886" height="75.4886" stroke="#1D1D1B" stroke-width="1.01499"/>
<rect x="125.972" y="755.543" width="75.4886" height="75.4886" stroke="#1D1D1B" stroke-width="1.01499"/>
<rect x="201.463" y="755.543" width="75.4886" height="75.4886" stroke="#1D1D1B" stroke-width="1.01499"/>
<rect x="276.951" y="755.543" width="75.4886" height="75.4886" stroke="#1D1D1B" stroke-width="1.01499"/>
<rect x="352.439" y="755.543" width="75.4886" height="75.4886" stroke="#1D1D1B" stroke-width="1.01499"/>
<rect x="427.927" y="755.543" width="75.4886" height="75.4886" stroke="#1D1D1B" stroke-width="1.01499"/>
<rect x="503.416" y="755.543" width="75.4886" height="75.4886" stroke="#1D1D1B" stroke-width="1.01499"/>
<rect x="578.904" y="755.543" width="75.4886" height="75.4886" stroke="#1D1D1B" stroke-width="1.01499"/>
<rect x="654.394" y="755.543" width="75.4886" height="75.4886" stroke="#1D1D1B" stroke-width="1.01499"/>
<rect x="729.882" y="755.543" width="75.4886" height="75.4886" stroke="#1D1D1B" stroke-width="1.01499"/>
<rect x="805.371" y="755.543" width="75.4886" height="75.4886" stroke="#1D1D1B" stroke-width="1.01499"/>
<rect x="880.859" y="755.543" width="75.4886" height="75.4886" stroke="#1D1D1B" stroke-width="1.01499"/>
<rect x="956.347" y="755.543" width="75.4886" height="75.4886" stroke="#1D1D1B" stroke-width="1.01499"/>
<rect x="1031.84" y="755.543" width="75.4886" height="75.4886" stroke="#1D1D1B" stroke-width="1.01499"/>
<rect x="1107.32" y="755.543" width="75.4886" height="75.4886" stroke="#1D1D1B" stroke-width="1.01499"/>
<rect x="1182.81" y="755.543" width="75.4886" height="75.4886" stroke="#1D1D1B" stroke-width="1.01499"/>
<rect x="1258.3" y="755.543" width="75.4886" height="75.4886" stroke="#1D1D1B" stroke-width="1.01499"/>
<rect x="1333.79" y="755.543" width="75.4886" height="75.4886" stroke="#1D1D1B" stroke-width="1.01499"/>
<rect x="-25.0042" y="831.047" width="75.4886" height="75.4886" stroke="#1D1D1B" stroke-width="1.01499"/>
<rect x="50.4841" y="831.047" width="75.4886" height="75.4886" stroke="#1D1D1B" stroke-width="1.01499"/>
<rect x="125.972" y="831.047" width="75.4886" height="75.4886" stroke="#1D1D1B" stroke-width="1.01499"/>
<rect x="201.463" y="831.047" width="75.4886" height="75.4886" stroke="#1D1D1B" stroke-width="1.01499"/>
<rect x="276.951" y="831.047" width="75.4886" height="75.4886" stroke="#1D1D1B" stroke-width="1.01499"/>
<rect x="352.439" y="831.047" width="75.4886" height="75.4886" stroke="#1D1D1B" stroke-width="1.01499"/>
<rect x="427.927" y="831.047" width="75.4886" height="75.4886" stroke="#1D1D1B" stroke-width="1.01499"/>
<rect x="503.416" y="831.047" width="75.4886" height="75.4886" stroke="#1D1D1B" stroke-width="1.01499"/>
<rect x="578.904" y="831.047" width="75.4886" height="75.4886" stroke="#1D1D1B" stroke-width="1.01499"/>
<rect x="654.394" y="831.047" width="75.4886" height="75.4886" stroke="#1D1D1B" stroke-width="1.01499"/>
<rect x="729.882" y="831.047" width="75.4886" height="75.4886" stroke="#1D1D1B" stroke-width="1.01499"/>
<rect x="805.371" y="831.047" width="75.4886" height="75.4886" stroke="#1D1D1B" stroke-width="1.01499"/>
<rect x="880.859" y="831.047" width="75.4886" height="75.4886" stroke="#1D1D1B" stroke-width="1.01499"/>
<rect x="956.347" y="831.047" width="75.4886" height="75.4886" stroke="#1D1D1B" stroke-width="1.01499"/>
<rect x="1031.84" y="831.047" width="75.4886" height="75.4886" stroke="#1D1D1B" stroke-width="1.01499"/>
<rect x="1107.32" y="831.047" width="75.4886" height="75.4886" stroke="#1D1D1B" stroke-width="1.01499"/>
<rect x="1182.81" y="831.047" width="75.4886" height="75.4886" stroke="#1D1D1B" stroke-width="1.01499"/>
<rect x="1258.3" y="831.047" width="75.4886" height="75.4886" fill="#71861E" stroke="#1D1D1B" stroke-width="1.01499"/>
<path d="M1301.8 873.928V877.279H1288.65L1293.81 871.66C1294.71 870.654 1296.08 868.979 1296.62 868.154C1297 867.535 1297.65 866.427 1297.65 865.241C1297.65 864.596 1297.39 863.926 1296.98 863.54C1296.64 863.23 1296.08 863.05 1295.41 863.05C1294.66 863.05 1294.17 863.307 1293.83 863.668C1293.37 864.184 1293.11 865.112 1293.11 865.782H1289.14C1289.27 864.287 1289.86 862.586 1290.92 861.477C1291.75 860.601 1293.21 859.699 1295.66 859.699C1298.16 859.699 1299.5 860.73 1300.12 861.323C1301.05 862.251 1301.72 863.668 1301.72 865.447C1301.72 866.968 1301.26 868.076 1300.43 869.236C1299.69 870.268 1298.78 871.144 1297.67 872.201L1295.87 873.928H1301.8Z" fill="#E3FA71"/>
<rect x="1333.79" y="831.047" width="75.4886" height="75.4886" stroke="#1D1D1B" stroke-width="1.01499"/>
<rect x="-25.0042" y="906.55" width="75.4886" height="75.4886" stroke="#1D1D1B" stroke-width="1.01499"/>
<rect x="50.4841" y="906.55" width="75.4886" height="75.4886" stroke="#1D1D1B" stroke-width="1.01499"/>
<rect x="125.972" y="906.55" width="75.4886" height="75.4886" stroke="#1D1D1B" stroke-width="1.01499"/>
<rect x="201.463" y="906.55" width="75.4886" height="75.4886" stroke="#1D1D1B" stroke-width="1.01499"/>
<rect x="276.951" y="906.55" width="75.4886" height="75.4886" stroke="#1D1D1B" stroke-width="1.01499"/>
<rect x="352.439" y="906.55" width="75.4886" height="75.4886" stroke="#1D1D1B" stroke-width="1.01499"/>
<rect x="427.927" y="906.55" width="75.4886" height="75.4886" stroke="#1D1D1B" stroke-width="1.01499"/>
<rect x="503.416" y="906.55" width="75.4886" height="75.4886" stroke="#1D1D1B" stroke-width="1.01499"/>
<rect x="578.904" y="906.55" width="75.4886" height="75.4886" stroke="#1D1D1B" stroke-width="1.01499"/>
<rect x="654.394" y="906.55" width="75.4886" height="75.4886" stroke="#1D1D1B" stroke-width="1.01499"/>
<rect x="729.882" y="906.55" width="75.4886" height="75.4886" stroke="#1D1D1B" stroke-width="1.01499"/>
<rect x="805.371" y="906.55" width="75.4886" height="75.4886" stroke="#1D1D1B" stroke-width="1.01499"/>
<rect x="880.859" y="906.55" width="75.4886" height="75.4886" stroke="#1D1D1B" stroke-width="1.01499"/>
<rect x="956.347" y="906.55" width="75.4886" height="75.4886" stroke="#1D1D1B" stroke-width="1.01499"/>
<rect x="1031.84" y="906.55" width="75.4886" height="75.4886" stroke="#1D1D1B" stroke-width="1.01499"/>
<rect x="1107.32" y="906.55" width="75.4886" height="75.4886" stroke="#1D1D1B" stroke-width="1.01499"/>
<rect x="1182.81" y="906.55" width="75.4886" height="75.4886" stroke="#1D1D1B" stroke-width="1.01499"/>
<rect x="1258.3" y="906.55" width="75.4886" height="75.4886" stroke="#1D1D1B" stroke-width="1.01499"/>
<rect x="1333.79" y="906.55" width="75.4886" height="75.4886" stroke="#1D1D1B" stroke-width="1.01499"/>
<rect x="-25.0042" y="982.053" width="75.4886" height="75.4886" stroke="#1D1D1B" stroke-width="1.01499"/>
<rect x="50.4841" y="982.053" width="75.4886" height="75.4886" stroke="#1D1D1B" stroke-width="1.01499"/>
<rect x="125.972" y="982.053" width="75.4886" height="75.4886" stroke="#1D1D1B" stroke-width="1.01499"/>
<rect x="201.463" y="982.053" width="75.4886" height="75.4886" stroke="#1D1D1B" stroke-width="1.01499"/>
<rect x="276.951" y="982.053" width="75.4886" height="75.4886" stroke="#1D1D1B" stroke-width="1.01499"/>
<rect x="352.439" y="982.053" width="75.4886" height="75.4886" stroke="#1D1D1B" stroke-width="1.01499"/>
<rect x="427.927" y="982.053" width="75.4886" height="75.4886" stroke="#1D1D1B" stroke-width="1.01499"/>
<rect x="503.416" y="982.053" width="75.4886" height="75.4886" stroke="#1D1D1B" stroke-width="1.01499"/>
<rect x="578.904" y="982.053" width="75.4886" height="75.4886" stroke="#1D1D1B" stroke-width="1.01499"/>
<rect x="654.394" y="982.053" width="75.4886" height="75.4886" stroke="#1D1D1B" stroke-width="1.01499"/>
<rect x="729.882" y="982.053" width="75.4886" height="75.4886" stroke="#1D1D1B" stroke-width="1.01499"/>
<rect x="805.371" y="982.053" width="75.4886" height="75.4886" stroke="#1D1D1B" stroke-width="1.01499"/>
<rect x="880.859" y="982.053" width="75.4886" height="75.4886" stroke="#1D1D1B" stroke-width="1.01499"/>
<rect x="956.347" y="982.053" width="75.4886" height="75.4886" stroke="#1D1D1B" stroke-width="1.01499"/>
<rect x="1031.84" y="982.053" width="75.4886" height="75.4886" stroke="#1D1D1B" stroke-width="1.01499"/>
<rect x="1107.32" y="982.053" width="75.4886" height="75.4886" stroke="#1D1D1B" stroke-width="1.01499"/>
<rect x="1182.81" y="982.051" width="75.4936" height="75.4936" fill="#A6A1FF" stroke="#1D1D1B" stroke-width="1.01"/>
<rect x="1258.3" y="982.053" width="75.4886" height="75.4886" stroke="#1D1D1B" stroke-width="1.01499"/>
<rect x="1333.79" y="982.053" width="75.4886" height="75.4886" fill="#A6A1FF" stroke="#1D1D1B" stroke-width="1.01499"/>
<rect x="-25.0042" y="1057.56" width="75.4886" height="75.4886" stroke="#1D1D1B" stroke-width="1.01499"/>
<rect x="50.4841" y="1057.56" width="75.4886" height="75.4886" stroke="#1D1D1B" stroke-width="1.01499"/>
<rect x="125.972" y="1057.56" width="75.4886" height="75.4886" stroke="#1D1D1B" stroke-width="1.01499"/>
<rect x="201.463" y="1057.56" width="75.4886" height="75.4886" stroke="#1D1D1B" stroke-width="1.01499"/>
<rect x="276.951" y="1057.56" width="75.4886" height="75.4886" stroke="#1D1D1B" stroke-width="1.01499"/>
<rect x="352.439" y="1057.56" width="75.4886" height="75.4886" stroke="#1D1D1B" stroke-width="1.01499"/>
<rect x="427.927" y="1057.56" width="75.4886" height="75.4886" stroke="#1D1D1B" stroke-width="1.01499"/>
<rect x="503.416" y="1057.56" width="75.4886" height="75.4886" fill="#71861E" stroke="#1D1D1B" stroke-width="1.01499"/>
<path d="M537.799 1092.74H533.984C534.139 1091.29 534.783 1089.77 535.686 1088.85C536.949 1087.53 538.624 1087.22 540.042 1087.22C542.156 1087.22 543.677 1087.87 544.553 1088.74C545.275 1089.44 545.868 1090.57 545.868 1092.25C545.868 1093.1 545.713 1093.85 545.172 1094.59C544.811 1095.11 544.373 1095.44 543.883 1095.68C544.605 1095.93 545.378 1096.42 545.842 1097.07C546.358 1097.76 546.641 1098.85 546.641 1099.78C546.641 1101.09 546.126 1102.59 544.914 1103.69C543.445 1105.03 541.769 1105.19 540.377 1105.19C538.702 1105.19 536.871 1104.93 535.351 1103.41C534.371 1102.4 533.623 1100.88 533.443 1099.16H537.413C537.464 1099.83 537.774 1100.63 538.238 1101.09C538.65 1101.5 539.32 1101.79 540.145 1101.79C540.816 1101.79 541.46 1101.58 541.872 1101.19C542.285 1100.81 542.568 1100.14 542.568 1099.44C542.568 1098.72 542.233 1098.13 541.821 1097.79C541.202 1097.3 540.3 1097.25 539.707 1097.25H539.398V1094.52H539.63C539.862 1094.52 540.79 1094.49 541.357 1094.03C541.718 1093.72 542.001 1093.18 542.001 1092.48C542.001 1091.89 541.769 1091.4 541.434 1091.09C541.125 1090.8 540.609 1090.57 539.965 1090.57C539.295 1090.57 538.753 1090.8 538.418 1091.14C538.057 1091.53 537.825 1092.2 537.799 1092.74Z" fill="#E3FA71"/>
<rect x="578.904" y="1057.56" width="75.4886" height="75.4886" stroke="#1D1D1B" stroke-width="1.01499"/>
<rect x="654.394" y="1057.56" width="75.4886" height="75.4886" stroke="#1D1D1B" stroke-width="1.01499"/>
<rect x="729.882" y="1057.56" width="75.4886" height="75.4886" stroke="#1D1D1B" stroke-width="1.01499"/>
<rect x="805.371" y="1057.56" width="75.4886" height="75.4886" stroke="#1D1D1B" stroke-width="1.01499"/>
<rect x="880.859" y="1057.56" width="75.4886" height="75.4886" stroke="#1D1D1B" stroke-width="1.01499"/>
<rect x="956.347" y="1057.56" width="75.4886" height="75.4886" stroke="#1D1D1B" stroke-width="1.01499"/>
<rect x="1031.84" y="1057.56" width="75.4886" height="75.4886" stroke="#1D1D1B" stroke-width="1.01499"/>
<rect x="1107.32" y="1057.56" width="75.4886" height="75.4886" stroke="#1D1D1B" stroke-width="1.01499"/>
<rect x="1182.81" y="1057.56" width="75.4886" height="75.4886" stroke="#1D1D1B" stroke-width="1.01499"/>
<rect x="1258.3" y="1057.56" width="75.4886" height="75.4886" stroke="#1D1D1B" stroke-width="1.01499"/>
<rect x="1333.79" y="1057.56" width="75.4886" height="75.4886" stroke="#1D1D1B" stroke-width="1.01499"/>
<path d="M-92 906.105L1410 906.105" stroke="#1D1D1B" stroke-width="3.04496"/>
<path d="M-84 681.105L1410 681.105" stroke="#1D1D1B" stroke-width="3.04496"/>
<path d="M-84 454.105L1410 454.105" stroke="#1D1D1B" stroke-width="3.04496"/>
<path d="M-84 226.105L1410 226.105" stroke="#1D1D1B" stroke-width="3.04496"/>
<path d="M1182 0.105469V1133.11" stroke="#1D1D1B" stroke-width="3.04496"/>
<path d="M956 0.105469V1133.11" stroke="#1D1D1B" stroke-width="3.04496"/>
<path d="M731 0.105469V1133.11" stroke="#1D1D1B" stroke-width="3.04496"/>
<path d="M277 0.105469V1133.11" stroke="#1D1D1B" stroke-width="3.04496"/>
<path d="M52 0.105469V1133.11" stroke="#1D1D1B" stroke-width="3.04496"/>
<path d="M504 0.105469V1133.11" stroke="#1D1D1B" stroke-width="3.04496"/>
</g>
<defs>
<clipPath id="clip0_4815_17627">
<rect width="1440" height="1134" fill="white"/>
</clipPath>
</defs>
</svg>
