<?xml version="1.0" encoding="UTF-8"?>
<svg id="Layer_1" data-name="Layer 1" xmlns="http://www.w3.org/2000/svg" viewBox="0 0 640.47 800">
  <defs>
    <style>
      .cls-1 {
        fill: #00a8ad;
      }
    </style>
  </defs>
  <rect class="cls-1" width="640.47" height="800" rx="12.45" ry="12.45"/>
  <path d="M32,45.67v-3.11h17.27v3.11h-6.7v17.45h-3.82v-17.45h-6.75ZM56.66,63.59c-4.76,0-7.93-2.76-7.93-8.11,0-4.9,3.08-7.99,7.75-7.99,4.35,0,7.52,3.11,7.52,7.52,0,.41-.03.79-.09,1.2h-11.72c.06,2.94,1.91,4.58,4.46,4.58,2.11,0,3.55-1.26,3.96-2.97h3.23c-.47,3.73-3.82,5.76-7.2,5.76ZM52.19,54.19h8.28c-.15-2.38-1.64-3.91-4.05-3.91s-4.05,1.38-4.23,3.91ZM71.85,63.59c-2.94,0-5.11-1.47-5.11-4.2s1.91-4.38,5.58-4.38h1.85c2.76,0,3.91-.62,3.91-2.17,0-1.15-.88-2.56-3.58-2.56-2.2,0-3.73,1.12-4.02,3.17h-3.58c.38-3.73,3.23-5.96,7.64-5.96s7.08,2,7.08,5.43v10.19h-3.47l-.06-3.82h-.15c-.65,2.5-3.03,4.29-6.08,4.29ZM70.41,59.07c0,1.29.88,2.06,2.7,2.06,2.97,0,4.96-2.35,4.96-4.67v-1.5h-.15c-.29,1.41-1.5,2.06-3.85,2.06h-1.26c-1.56,0-2.41.76-2.41,2.06ZM85.4,42.56h3.55v20.56h-3.55v-20.56Z"/>
  <path d="M33.18,101.11v-1.9h2.54l.78-3.7h-2.26v-1.92h2.65l.85-4.2h2.1l-.73,4.2h3.79l.85-4.2h2.1l-.73,4.2h2.17v1.92h-2.58l-.75,3.7h2.31v1.9h-2.7l-.87,4.27h-2.06l.71-4.27h-3.79l-.87,4.27h-2.06l.71-4.27h-2.15ZM37.93,99.21h3.79l.78-3.7h-3.79l-.78,3.7ZM56.1,105.72c-4.16,0-6.26-2.92-6.26-8.34s2.12-8.36,6.26-8.36,6.24,2.95,6.24,8.36-2.12,8.34-6.24,8.34ZM52.4,97.39c0,4.18,1.1,6.28,3.7,6.28s3.7-2.1,3.7-6.28-1.14-6.3-3.7-6.3-3.7,2.1-3.7,6.3ZM71.18,105.72c-4.16,0-6.26-2.92-6.26-8.34s2.12-8.36,6.26-8.36,6.24,2.95,6.24,8.36-2.12,8.34-6.24,8.34ZM67.48,97.39c0,4.18,1.1,6.28,3.7,6.28s3.7-2.1,3.7-6.28-1.14-6.3-3.7-6.3-3.7,2.1-3.7,6.3ZM80.8,105.38h-2.54l6.37-15.99h2.95l6.51,15.99h-2.58l-1.69-4.34h-7.36l-1.67,4.34ZM83.27,98.99h5.73l-1.16-2.99c-.57-1.46-1.12-2.92-1.64-4.39h-.16c-.53,1.51-1.07,2.97-1.64,4.48l-1.12,2.9ZM101.38,105.75c-3.59,0-6.05-1.83-6.05-4.87,0-2.33,1.55-3.56,3.29-4.02v-.14c-1.48-.25-2.65-1.69-2.65-3.4,0-2.67,2.28-4.29,5.41-4.29s5.39,1.62,5.39,4.29c0,1.69-1.17,3.15-2.65,3.4v.14c1.74.46,3.31,1.69,3.31,4.02,0,3.04-2.47,4.87-6.05,4.87ZM97.81,100.77c0,1.94,1.48,2.95,3.56,2.95s3.56-1.01,3.56-2.95-1.49-2.92-3.56-2.92-3.56.94-3.56,2.92ZM98.29,93.5c0,1.69,1.3,2.49,3.08,2.49s3.08-.82,3.08-2.49-1.32-2.47-3.08-2.47-3.08.82-3.08,2.47ZM111.16,105.38h-2.54l6.37-15.99h2.95l6.51,15.99h-2.58l-1.69-4.34h-7.35l-1.67,4.34ZM113.63,98.99h5.73l-1.17-2.99c-.57-1.46-1.12-2.92-1.64-4.39h-.16c-.52,1.51-1.07,2.97-1.64,4.48l-1.12,2.9ZM132.01,103.3c3.47,0,5.55-1.87,5.55-5.92s-2.1-5.92-5.55-5.92h-3.18v11.83h3.18ZM126.39,105.38v-15.99h5.64c4.82,0,8.04,2.67,8.04,8s-3.27,8-8.04,8h-5.64Z"/>
</svg>