<svg width="640" height="800" viewBox="0 0 640 800" fill="none" xmlns="http://www.w3.org/2000/svg">
<rect width="640" height="443.672" rx="12.4476" fill="#B13E25"/>
<path d="M42.4538 63.5888C36.3156 63.5888 32.3801 59.4771 32.3801 52.8102C32.3801 46.1139 36.3156 42.0903 42.4538 42.0903C47.6816 42.0903 51.0591 44.9979 51.8815 49.3739H47.8872C47.2117 46.9069 45.3027 45.2328 42.4245 45.2328C38.7533 45.2328 36.345 48.0523 36.345 52.8102C36.345 57.5387 38.7533 60.4463 42.5419 60.4463C45.7139 60.4463 47.6523 58.2729 48.0634 55.336H51.9989C51.529 60.2407 48.0341 63.5888 42.4538 63.5888ZM62.6293 63.5888C58.1945 63.5888 54.4646 60.4756 54.4646 55.4828C54.4646 50.6075 58.1945 47.4943 62.6293 47.4943C67.0642 47.4943 70.7647 50.6075 70.7647 55.4828C70.7647 60.4756 67.0642 63.5888 62.6293 63.5888ZM58.1064 55.4828C58.1064 58.8897 59.898 60.7693 62.6293 60.7693C65.3607 60.7693 67.1523 58.8897 67.1523 55.4828C67.1523 52.164 65.3607 50.3138 62.6293 50.3138C59.898 50.3138 58.1064 52.164 58.1064 55.4828ZM73.9837 68.5229V47.9642H77.4493L77.5668 51.5473H77.7136C78.6828 48.9334 80.6799 47.4943 83.2938 47.4943C87.1706 47.4943 89.8726 50.6368 89.8726 55.5709C89.8726 60.4756 87.1706 63.5888 83.2938 63.5888C80.6799 63.5888 78.6828 62.1497 77.7136 59.5652H77.5668V68.5229H73.9837ZM77.5668 56.4226C77.5668 58.9778 79.2996 60.9455 81.9134 60.9455C84.5273 60.9455 86.2601 58.919 86.2601 55.5709C86.2601 52.1934 84.5273 50.1375 81.9134 50.1375C79.2996 50.1375 77.5668 52.1347 77.5668 54.6898V56.4226ZM93.0854 68.5229V47.9642H96.551L96.6684 51.5473H96.8153C97.7845 48.9334 99.7816 47.4943 102.396 47.4943C106.272 47.4943 108.974 50.6368 108.974 55.5709C108.974 60.4756 106.272 63.5888 102.396 63.5888C99.7816 63.5888 97.7845 62.1497 96.8153 59.5652H96.6684V68.5229H93.0854ZM96.6684 56.4226C96.6684 58.9778 98.4012 60.9455 101.015 60.9455C103.629 60.9455 105.362 58.919 105.362 55.5709C105.362 52.1934 103.629 50.1375 101.015 50.1375C98.4012 50.1375 96.6684 52.1347 96.6684 54.6898V56.4226ZM119.556 63.5888C114.798 63.5888 111.626 60.8281 111.626 55.4828C111.626 50.5781 114.71 47.4943 119.38 47.4943C123.727 47.4943 126.898 50.6075 126.898 55.0129C126.898 55.4241 126.869 55.8059 126.81 56.217H115.092C115.151 59.154 117.001 60.7987 119.556 60.7987C121.671 60.7987 123.11 59.5358 123.521 57.8324H126.752C126.282 61.5623 122.934 63.5888 119.556 63.5888ZM115.092 54.1905H123.374C123.227 51.8116 121.729 50.2844 119.321 50.2844C116.972 50.2844 115.268 51.6648 115.092 54.1905ZM130.17 63.1189V47.9642H133.636L133.753 52.6927H133.9C134.576 49.3446 136.103 47.7292 140.185 47.7292V50.7543C138.012 50.8718 136.514 51.283 135.515 52.1347C134.282 53.192 133.753 54.866 133.753 57.4212V63.1189H130.17Z" fill="white"/>
<path d="M32.4492 101.11V99.2145H34.9848L35.7615 95.5139H33.5V93.5951H36.1498L36.995 89.392H39.0966L38.3656 93.5951H42.1575L43.0027 89.392H45.1043L44.3733 93.5951H46.5434V95.5139H43.9621L43.2083 99.2145H45.5154V101.11H42.82L41.9519 105.382H39.8961L40.6042 101.11H36.8123L35.9442 105.382H33.8883L34.5965 101.11H32.4492ZM37.2006 99.2145H40.9925L41.7692 95.5139H37.9772L37.2006 99.2145ZM49.4828 105.382V89.392H57.1352C59.9677 89.392 61.7723 90.6712 61.7723 92.9555C61.7723 94.9657 60.2647 96.5418 58.2773 96.6561V96.816C60.5388 96.9302 62.252 98.5063 62.252 100.813C62.252 103.6 60.1962 105.382 56.9296 105.382H49.4828ZM51.927 103.303H56.6327C58.7114 103.303 59.7621 102.412 59.7621 100.745C59.7621 99.0774 58.7114 98.2779 56.6327 98.2779H51.927V103.303ZM51.927 96.2906H56.3585C58.186 96.2906 59.2824 95.1713 59.2824 93.7093C59.2824 92.3616 58.2545 91.4707 56.724 91.4707H51.927V96.2906ZM67.6307 92.4986C66.8083 93.5494 65.6205 94.0291 63.793 94.0291V91.7448C65.8946 91.7448 67.5164 90.8768 68.2246 89.392H70.2119V105.382H67.7677V92.4986H67.6307ZM79.4387 105.748C75.6696 105.748 73.4538 103.783 73.4081 100.425H75.8295C75.898 102.618 77.2001 103.669 79.3702 103.669C81.3575 103.669 82.6596 102.572 82.6596 100.813C82.6596 98.986 81.426 97.9124 79.0961 97.9124H78.0224V96.0621H79.2331C81.2205 96.0621 82.2941 95.1484 82.2941 93.5494C82.2941 91.9276 81.0834 91.1052 79.3016 91.1052C77.4514 91.1052 76.2407 91.9961 76.1493 93.8921H73.7508C73.7965 90.7626 76.0351 89.0265 79.3473 89.0265C82.4311 89.0265 84.6926 90.6027 84.6926 93.3895C84.6926 94.7601 83.8702 96.4733 81.7002 96.7703V96.9302C84.2357 97.3185 85.218 98.8718 85.218 100.859C85.218 103.829 82.8195 105.748 79.4387 105.748ZM88.0303 105.382V89.392H99.566V91.4707H90.4745V96.1078H98.6523V98.1409H90.4745V103.303H99.4975V105.382H88.0303ZM101.628 103.349C107.019 98.6434 110.24 96.3134 110.24 93.755C110.24 92.0189 109.075 91.0595 107.316 91.0595C105.58 91.0595 104.392 91.9047 104.232 93.8921H101.833C102.039 90.6027 104.232 89.0265 107.316 89.0265C110.491 89.0265 112.707 90.7854 112.707 93.7093C112.707 97.2728 109.166 99.6256 104.757 103.235L104.803 103.372C106.128 103.281 107.27 103.281 108.641 103.281H112.684V105.382H101.651L101.628 103.349ZM116.831 100.882C117.014 102.732 118.384 103.76 120.189 103.76C122.153 103.76 123.524 102.367 123.524 100.311C123.524 98.3008 122.176 96.816 120.189 96.816C118.681 96.816 117.653 97.4327 117.059 98.6891L114.912 98.2551L116.237 89.392H125.191V91.4022H118.201L117.311 96.8616L117.448 96.8845C117.882 95.6738 119.321 94.8971 120.851 94.8971C123.867 94.8971 125.922 97.0215 125.922 100.265C125.922 103.577 123.501 105.748 120.212 105.748C117.036 105.748 114.706 103.943 114.501 100.882H116.831Z" fill="white" fill-opacity="0.8"/>
<rect y="458.672" width="640" height="163.164" rx="13.0531" fill="#86341B"/>
<path d="M34.7768 523.304V502.746H38.6242V520.191H48.9623V523.304H34.7768ZM52.1617 508.15H55.7155V523.304H52.1617V508.15ZM51.7799 503.832C51.7799 502.658 52.7491 501.659 53.9239 501.659C55.1281 501.659 56.0973 502.628 56.0973 503.832C56.0973 505.037 55.1281 505.976 53.9239 505.976C52.7491 505.976 51.7799 505.007 51.7799 503.832ZM66.7371 517.724C65.5917 517.724 64.5637 517.577 63.6826 517.284C62.919 517.607 62.5079 518.194 62.5079 518.752C62.5079 519.516 63.154 520.162 64.3288 520.162H69.9677C72.934 520.162 74.6668 521.66 74.6668 524.127C74.6668 527.328 72.0823 528.943 66.7371 528.943C61.7149 528.943 59.424 527.739 59.424 525.507C59.424 524.156 60.5107 523.246 61.9792 522.805V522.629C60.6282 522.218 59.8646 521.337 59.8646 520.074C59.8646 518.693 60.8925 517.607 62.7134 517.019V516.843C61.0981 515.991 60.217 514.523 60.217 512.643C60.217 510.059 61.7736 508.355 65.5329 507.621L74.7843 505.859V508.678L69.5272 507.856L69.4978 508.032C71.7005 508.649 73.2277 510.323 73.2277 512.643C73.2277 515.727 70.8194 517.724 66.7371 517.724ZM62.0673 524.362C62.0673 525.654 63.3596 526.271 66.7664 526.271C69.7621 526.271 71.3775 525.537 71.3775 524.274C71.3775 523.393 70.6139 522.893 69.3803 522.893H63.947C63.712 522.893 63.5064 522.893 63.2715 522.864C62.5079 523.216 62.0673 523.804 62.0673 524.362ZM63.5652 512.643C63.5652 514.171 64.7399 515.11 66.7371 515.11C68.7048 515.11 69.8796 514.171 69.8796 512.643C69.8796 511.145 68.7048 510.206 66.7371 510.206C64.7399 510.206 63.5652 511.145 63.5652 512.643ZM77.7364 523.304V502.746H81.3489V511.821H81.5251C82.3474 509.148 84.2858 507.68 87.0172 507.68C90.1304 507.68 92.5681 509.794 92.5681 513.407V523.304H88.985V514.405C88.985 511.938 87.7808 510.587 85.3725 510.587C82.9055 510.587 81.3489 512.467 81.3489 515.433V523.304H77.7364ZM94.7749 510.441V508.15H97.2713V504.185H100.766V508.15H105.084V510.441H100.825V518.488C100.825 520.133 101.412 520.72 102.94 520.72C103.556 520.72 104.261 520.632 105.054 520.426V523.04C104.085 523.334 103.116 523.51 102.205 523.51C98.7104 523.51 97.2713 522.247 97.2713 518.928V510.441H94.7749ZM115.314 523.304V502.746H125.71C129.352 502.746 131.614 504.39 131.614 507.298C131.614 509.971 129.646 511.88 126.944 511.997V512.203C130.028 512.379 132.231 514.347 132.231 517.372C132.231 521.102 129.587 523.304 125.123 523.304H115.314ZM119.161 520.191H124.741C127.091 520.191 128.324 519.134 128.324 517.225C128.324 515.316 127.091 514.376 124.741 514.376H119.161V520.191ZM119.161 511.498H124.389C126.445 511.498 127.708 510.206 127.708 508.502C127.708 506.916 126.503 505.859 124.712 505.859H119.161V511.498ZM135.3 523.304V508.15H138.765L138.883 512.878H139.03C139.705 509.53 141.232 507.915 145.315 507.915V510.94C143.141 511.057 141.643 511.469 140.645 512.32C139.411 513.378 138.883 515.052 138.883 517.607V523.304H135.3ZM154.72 523.774C150.285 523.774 146.556 520.661 146.556 515.668C146.556 510.793 150.285 507.68 154.72 507.68C159.155 507.68 162.856 510.793 162.856 515.668C162.856 520.661 159.155 523.774 154.72 523.774ZM150.197 515.668C150.197 519.075 151.989 520.955 154.72 520.955C157.452 520.955 159.243 519.075 159.243 515.668C159.243 512.35 157.452 510.499 154.72 510.499C151.989 510.499 150.197 512.35 150.197 515.668ZM169.206 523.304L163.861 508.15H167.679L169.089 512.261C169.882 514.67 170.469 516.373 171.233 519.016H171.38C172.114 516.256 172.584 514.582 173.259 512.232L174.463 508.15H177.753L178.957 512.232C179.633 514.582 180.102 516.256 180.837 519.016H180.984C181.747 516.373 182.335 514.67 183.127 512.261L184.537 508.15H188.355L183.01 523.304H179.368L176.167 512.467H176.049L172.848 523.304H169.206ZM190.626 523.304V508.15H194.091L194.238 511.821H194.414C195.237 509.148 197.175 507.68 199.906 507.68C203.02 507.68 205.457 509.794 205.457 513.407V523.304H201.874V514.405C201.874 511.938 200.67 510.587 198.262 510.587C195.795 510.587 194.238 512.467 194.238 515.433V523.304H190.626Z" fill="white"/>
<path d="M34.2287 561.296V559.4H36.7643L37.5409 555.699H35.2795V553.781H37.9293L38.7745 549.578H40.876L40.145 553.781H43.937L44.7822 549.578H46.8837L46.1528 553.781H48.3228V555.699H45.7416L44.9878 559.4H47.2949V561.296H44.5994L43.7314 565.568H41.6755L42.3837 561.296H38.5917L37.7237 565.568H35.6678L36.376 561.296H34.2287ZM38.9801 559.4H42.772L43.5487 555.699H39.7567L38.9801 559.4ZM56.6304 565.933C53.044 565.933 50.577 564.106 50.577 561.068C50.577 558.738 52.1303 557.504 53.8664 557.047V556.91C52.3816 556.659 51.2166 555.22 51.2166 553.507C51.2166 550.834 53.5009 549.212 56.6304 549.212C59.7599 549.212 62.0213 550.834 62.0213 553.507C62.0213 555.197 60.8563 556.659 59.3715 556.91V557.047C61.1076 557.504 62.6838 558.738 62.6838 561.068C62.6838 564.106 60.2167 565.933 56.6304 565.933ZM53.0669 560.953C53.0669 562.895 54.5517 563.9 56.6304 563.9C58.7091 563.9 60.1939 562.895 60.1939 560.953C60.1939 558.943 58.7091 558.029 56.6304 558.029C54.5517 558.029 53.0669 558.966 53.0669 560.953ZM53.5466 553.689C53.5466 555.38 54.8486 556.179 56.6304 556.179C58.435 556.179 59.7142 555.357 59.7142 553.689C59.7142 552.045 58.3893 551.222 56.6304 551.222C54.8258 551.222 53.5466 552.045 53.5466 553.689ZM67.4851 558.144C67.9648 556.339 69.3582 555.106 71.8252 555.106C74.7491 555.106 76.8507 557.253 76.8507 560.474C76.8507 563.969 74.3837 565.933 71.1171 565.933C66.6399 565.933 64.9952 562.621 64.9952 557.71C64.9952 552.661 66.7998 549.212 71.1628 549.212C73.904 549.212 76.1426 550.674 76.6223 553.552H74.2923C73.9725 552.045 72.876 551.222 71.1628 551.222C68.5587 551.222 67.3937 553.232 67.348 558.121L67.4851 558.144ZM67.782 560.474C67.782 562.552 69.1526 563.877 71.1171 563.877C73.1501 563.877 74.4065 562.461 74.4065 560.474C74.4065 558.578 73.1501 557.07 71.1171 557.07C69.0384 557.07 67.782 558.601 67.782 560.474ZM84.9658 565.933C81.1968 565.933 78.981 563.969 78.9353 560.611H81.3567C81.4252 562.804 82.7272 563.854 84.8973 563.854C86.8847 563.854 88.1867 562.758 88.1867 560.999C88.1867 559.172 86.9532 558.098 84.6232 558.098H83.5496V556.248H84.7603C86.7476 556.248 87.8212 555.334 87.8212 553.735C87.8212 552.113 86.6105 551.291 84.8288 551.291C82.9785 551.291 81.7678 552.182 81.6765 554.078H79.2779C79.3236 550.948 81.5622 549.212 84.8745 549.212C87.9583 549.212 90.2197 550.788 90.2197 553.575C90.2197 554.946 89.3974 556.659 87.2273 556.956V557.116C89.7629 557.504 90.7451 559.057 90.7451 561.045C90.7451 564.014 88.3466 565.933 84.9658 565.933ZM100.461 565.568V561.753H92.5572V559.469L100.278 549.578H102.905V559.697H105.029V561.753H102.905V565.568H100.461ZM94.7958 559.697H100.484V552.045H100.347C99.867 553.05 99.1817 554.1 98.3365 555.151L94.7958 559.697ZM109.988 552.684C109.165 553.735 107.977 554.215 106.15 554.215V551.93C108.252 551.93 109.873 551.062 110.582 549.578H112.569V565.568H110.125V552.684H109.988ZM116.044 565.568V549.578H123.696C126.528 549.578 128.333 550.857 128.333 553.141C128.333 555.151 126.825 556.727 124.838 556.842V557.002C127.1 557.116 128.813 558.692 128.813 560.999C128.813 563.786 126.757 565.568 123.49 565.568H116.044ZM118.488 563.489H123.193C125.272 563.489 126.323 562.598 126.323 560.93C126.323 559.263 125.272 558.463 123.193 558.463H118.488V563.489ZM118.488 556.476H122.919C124.747 556.476 125.843 555.357 125.843 553.895C125.843 552.547 124.815 551.656 123.285 551.656H118.488V556.476Z" fill="white" fill-opacity="0.8"/>
<rect y="636.836" width="640" height="163.164" rx="13.0531" fill="#542317"/>
<path d="M42.4422 698.356C46.4071 698.356 49.021 696.123 49.021 691.189C49.021 686.108 46.3778 684.023 42.4129 684.023H38.6242V698.356H42.4422ZM34.7768 701.469V680.91H42.5304C48.5805 680.91 52.9565 684.229 52.9565 691.189C52.9565 698.414 48.5217 701.469 42.5304 701.469H34.7768ZM60.2267 701.939C57.2897 701.939 55.1164 700.47 55.1164 697.739C55.1164 695.037 57.0254 693.363 60.6966 693.363H62.5469C65.3076 693.363 66.453 692.746 66.453 691.189C66.453 690.044 65.5719 688.634 62.8699 688.634C60.6672 688.634 59.14 689.75 58.8463 691.806H55.2632C55.645 688.076 58.4939 685.844 62.8993 685.844C67.3341 685.844 69.9774 687.841 69.9774 691.278V701.469H66.5117L66.453 697.651H66.3062C65.66 700.147 63.2811 701.939 60.2267 701.939ZM58.7876 697.416C58.7876 698.708 59.6686 699.472 61.4896 699.472C64.4559 699.472 66.453 697.122 66.453 694.802V693.304H66.3062C66.0125 694.714 64.8083 695.36 62.4587 695.36H61.1959C59.6393 695.36 58.7876 696.123 58.7876 697.416ZM73.8645 701.469V686.314H77.3301L77.4475 691.043H77.5944C78.2699 687.694 79.7971 686.079 83.8795 686.079V689.104C81.7061 689.222 80.2083 689.633 79.2097 690.485C77.9762 691.542 77.4475 693.216 77.4475 695.771V701.469H73.8645ZM86.7423 701.469V680.91H90.2667V688.076C90.2667 689.927 90.2373 691.659 90.1786 693.275L90.3254 693.333C91.2359 692.305 92.4988 690.954 93.5561 689.927L97.3447 686.314H101.545L98.4608 689.251C97.1098 690.543 95.6707 691.806 94.8483 692.54L94.8777 692.687C96.9923 692.834 98.079 693.921 98.9013 695.712L101.545 701.469H97.8147L95.9937 697.445C95.3476 695.977 94.4959 695.184 93.0274 695.184H92.3519L90.2667 697.151V701.469H86.7423ZM111.184 701.469V680.91H121.58C125.222 680.91 127.484 682.555 127.484 685.462C127.484 688.135 125.516 690.044 122.814 690.161V690.367C125.898 690.543 128.1 692.511 128.1 695.536C128.1 699.266 125.457 701.469 120.993 701.469H111.184ZM115.031 698.356H120.611C122.961 698.356 124.194 697.298 124.194 695.389C124.194 693.48 122.961 692.54 120.611 692.54H115.031V698.356ZM115.031 689.662H120.259C122.315 689.662 123.577 688.37 123.577 686.666C123.577 685.081 122.373 684.023 120.582 684.023H115.031V689.662ZM131.17 701.469V686.314H134.635L134.753 691.043H134.899C135.575 687.694 137.102 686.079 141.185 686.079V689.104C139.011 689.222 137.513 689.633 136.515 690.485C135.281 691.542 134.753 693.216 134.753 695.771V701.469H131.17ZM150.59 701.939C146.155 701.939 142.425 698.825 142.425 693.833C142.425 688.957 146.155 685.844 150.59 685.844C155.025 685.844 158.726 688.957 158.726 693.833C158.726 698.825 155.025 701.939 150.59 701.939ZM146.067 693.833C146.067 697.24 147.859 699.119 150.59 699.119C153.322 699.119 155.113 697.24 155.113 693.833C155.113 690.514 153.322 688.664 150.59 688.664C147.859 688.664 146.067 690.514 146.067 693.833ZM165.076 701.469L159.731 686.314H163.549L164.959 690.426C165.752 692.834 166.339 694.538 167.103 697.181H167.25C167.984 694.42 168.454 692.746 169.129 690.396L170.333 686.314H173.623L174.827 690.396C175.502 692.746 175.972 694.42 176.707 697.181H176.853C177.617 694.538 178.204 692.834 178.997 690.426L180.407 686.314H184.225L178.88 701.469H175.238L172.037 690.631H171.919L168.718 701.469H165.076ZM186.496 701.469V686.314H189.961L190.108 689.985H190.284C191.107 687.313 193.045 685.844 195.776 685.844C198.89 685.844 201.327 687.959 201.327 691.571V701.469H197.744V692.57C197.744 690.103 196.54 688.752 194.132 688.752C191.665 688.752 190.108 690.631 190.108 693.598V701.469H186.496Z" fill="white"/>
<path d="M53.4705 739.46V737.564H56.006L56.7827 733.864H54.5213V731.945H57.171L58.0162 727.742H60.1178L59.3868 731.945H63.1787L64.0239 727.742H66.1255L65.3945 731.945H67.5646V733.864H64.9833L64.2295 737.564H66.5367V739.46H63.8412L62.9732 743.732H60.9173L61.6254 739.46H57.8335L56.9655 743.732H54.9096L55.6177 739.46H53.4705ZM58.2218 737.564H62.0138L62.7904 733.864H58.9985L58.2218 737.564ZM72.4685 739.232C72.6513 741.082 74.0218 742.11 75.8264 742.11C77.7909 742.11 79.1615 740.717 79.1615 738.661C79.1615 736.651 77.8138 735.166 75.8264 735.166C74.3188 735.166 73.2909 735.783 72.697 737.039L70.5497 736.605L71.8746 727.742H80.8291V729.752H73.8391L72.9482 735.211L73.0853 735.234C73.5193 734.024 74.9584 733.247 76.4889 733.247C79.5042 733.247 81.56 735.371 81.56 738.615C81.56 741.927 79.1387 744.097 75.8493 744.097C72.6741 744.097 70.3441 742.293 70.1385 739.232H72.4685ZM91.372 743.732V739.917H83.4683V737.633L91.1892 727.742H93.8162V737.861H95.9406V739.917H93.8162V743.732H91.372ZM85.7069 737.861H91.3948V730.209H91.2578C90.7781 731.214 90.0928 732.265 89.2476 733.316L85.7069 737.861ZM97.843 741.699C103.234 736.993 106.455 734.663 106.455 732.105C106.455 730.369 105.29 729.409 103.531 729.409C101.795 729.409 100.607 730.255 100.447 732.242H98.0486C98.2542 728.953 100.447 727.376 103.531 727.376C106.706 727.376 108.922 729.135 108.922 732.059C108.922 735.623 105.381 737.976 100.972 741.585L101.018 741.722C102.343 741.63 103.485 741.63 104.856 741.63H108.899V743.732H97.8658L97.843 741.699ZM116.901 744.097C113.132 744.097 110.916 742.133 110.87 738.775H113.291C113.36 740.968 114.662 742.019 116.832 742.019C118.819 742.019 120.121 740.922 120.121 739.163C120.121 737.336 118.888 736.262 116.558 736.262H115.484V734.412H116.695C118.682 734.412 119.756 733.498 119.756 731.899C119.756 730.277 118.545 729.455 116.764 729.455C114.913 729.455 113.703 730.346 113.611 732.242H111.213C111.258 729.112 113.497 727.376 116.809 727.376C119.893 727.376 122.155 728.953 122.155 731.739C122.155 733.11 121.332 734.823 119.162 735.12V735.28C121.698 735.668 122.68 737.222 122.68 739.209C122.68 742.179 120.281 744.097 116.901 744.097ZM128.672 730.848C127.849 731.899 126.662 732.379 124.834 732.379V730.095C126.936 730.095 128.558 729.227 129.266 727.742H131.253V743.732H128.809V730.848H128.672ZM142.608 729.798H133.723V727.742H144.482V729.683C140.918 733.544 139.022 738.113 138.885 743.732H136.349C136.487 738.113 138.611 733.019 142.631 729.935L142.608 729.798Z" fill="white" fill-opacity="0.8"/>
</svg>
