<svg width="1401" height="578" viewBox="0 0 1401 578" fill="none" xmlns="http://www.w3.org/2000/svg">
<ellipse cx="248.384" cy="163.692" rx="11.5364" ry="11.4973" fill="black"/>
<ellipse cx="273.06" cy="196.051" rx="9.1559" ry="9.12488" fill="black"/>
<ellipse cx="292.47" cy="57.1249" rx="9.1559" ry="9.12488" fill="black"/>
<path d="M352.924 171.453H407.355C432.951 171.453 453.701 192.203 453.701 217.799C453.701 243.395 432.951 264.145 407.355 264.145H352.924V171.453Z" stroke="black" stroke-width="7.64453"/>
<path d="M154.86 208.713L203.76 185.041L244.398 268.423L195.497 292.094C172.442 303.255 144.655 293.636 133.434 270.611C122.212 247.586 131.805 219.873 154.86 208.713Z" stroke="black" stroke-width="7.64453"/>
<path d="M472.413 138.559L427.952 97.4788C408.991 79.9593 379.107 82.099 362.843 102.141V102.141C349.289 118.844 349.631 142.807 363.655 159.113L374.3 171.49M472.413 138.559L515.017 177.923C535.399 196.756 536.6 228.494 517.698 248.812V248.812C498.797 269.131 466.951 270.335 446.569 251.503L443.72 248.87M472.413 138.559L434.319 181.137" stroke="black" stroke-width="7.64453"/>
<path d="M314.788 167.426L333.665 178.826C345.082 185.722 352.069 198.073 352.099 211.414L352.13 225.586L344.234 222.921C330.751 218.371 320.923 206.706 318.727 192.649L314.788 167.426Z" fill="black" stroke="black" stroke-width="7.64453"/>
<path d="M281.896 258.081L291.557 242.43C300.185 228.454 316.775 221.526 332.775 225.22L347.734 228.673L345.035 236.121C338.901 253.048 321.779 263.424 303.929 261.033L281.896 258.081Z" fill="black" stroke="black" stroke-width="7.64453"/>
<path d="M82.9396 462.66C91.2296 462.66 96.6948 457.993 96.6948 447.676C96.6948 437.053 91.1682 432.693 82.8782 432.693H74.9567V462.66H82.9396ZM66.9124 469.169V426.184H83.1238C95.7737 426.184 104.923 433.123 104.923 447.676C104.923 462.783 95.6509 469.169 83.1238 469.169H66.9124ZM120.124 470.151C113.983 470.151 109.439 467.081 109.439 461.37C109.439 455.721 113.431 452.221 121.107 452.221H124.975C130.747 452.221 133.142 450.931 133.142 447.676C133.142 445.282 131.3 442.334 125.651 442.334C121.045 442.334 117.852 444.668 117.238 448.966H109.746C110.544 441.167 116.501 436.5 125.712 436.5C134.985 436.5 140.511 440.676 140.511 447.861V469.169H133.265L133.142 461.186H132.835C131.484 466.406 126.51 470.151 120.124 470.151ZM117.115 460.695C117.115 463.397 118.957 464.993 122.765 464.993C128.967 464.993 133.142 460.081 133.142 455.23V452.098H132.835C132.221 455.045 129.704 456.396 124.791 456.396H122.15C118.896 456.396 117.115 457.993 117.115 460.695ZM149.257 437.483H156.687V469.169H149.257V437.483ZM148.459 428.456C148.459 426 150.485 423.912 152.941 423.912C155.459 423.912 157.485 425.938 157.485 428.456C157.485 430.974 155.459 432.939 152.941 432.939C150.485 432.939 148.459 430.912 148.459 428.456ZM165.669 426.184H173.1V469.169H165.669V426.184ZM185.018 481.082C183.238 481.082 181.211 480.775 179 480.284V474.634C180.536 474.941 181.825 475.125 182.93 475.125C186.001 475.125 187.413 474.143 188.703 471.073L189.501 469.046L177.772 437.483H185.939L189.685 448.598C191.036 452.712 192.449 457.072 193.861 462.169H194.168C195.642 457.01 197.054 452.835 198.466 448.598L202.397 437.483H210.318L197.73 470.274C194.843 477.705 191.159 481.082 185.018 481.082ZM230.505 469.169V426.184H238.549V444.299H258.998V426.184H266.98V469.169H258.998V450.808H238.549V469.169H230.505ZM284.136 470.151C277.995 470.151 273.451 467.081 273.451 461.37C273.451 455.721 277.443 452.221 285.119 452.221H288.987C294.759 452.221 297.154 450.931 297.154 447.676C297.154 445.282 295.312 442.334 289.663 442.334C285.057 442.334 281.864 444.668 281.25 448.966H273.758C274.557 441.167 280.513 436.5 289.724 436.5C298.997 436.5 304.523 440.676 304.523 447.861V469.169H297.277L297.154 461.186H296.847C295.496 466.406 290.522 470.151 284.136 470.151ZM281.127 460.695C281.127 463.397 282.969 464.993 286.777 464.993C292.979 464.993 297.154 460.081 297.154 455.23V452.098H296.847C296.233 455.045 293.716 456.396 288.803 456.396H286.162C282.908 456.396 281.127 457.993 281.127 460.695ZM313.269 437.483H320.699V469.169H313.269V437.483ZM312.471 428.456C312.471 426 314.497 423.912 316.953 423.912C319.471 423.912 321.497 425.938 321.497 428.456C321.497 430.974 319.471 432.939 316.953 432.939C314.497 432.939 312.471 430.912 312.471 428.456ZM329.681 469.169V437.483H336.927L337.173 447.369H337.48C338.892 440.369 342.086 436.992 350.621 436.992V443.317C346.077 443.562 342.945 444.422 340.857 446.203C338.278 448.413 337.173 451.914 337.173 457.256V469.169H329.681ZM389.538 470.151C377.625 470.151 369.827 461.125 369.827 447.676C369.827 434.781 377.257 425.201 391.565 425.201C403.294 425.201 410.233 431.956 411.522 440.86H403.232C402.065 435.579 398.197 431.711 391.626 431.772C381.985 431.772 378.117 438.957 378.117 447.676C378.117 456.458 382.231 463.581 392.24 463.581C399.425 463.581 404.522 458.73 404.829 453.326V452.589H391.503V446.571H412.443V469.169H405.443L404.952 460.265H404.583C402.434 465.362 398.258 470.151 389.538 470.151ZM420.533 469.169V437.483H427.779L428.024 447.369H428.331C429.744 440.369 432.937 436.992 441.472 436.992V443.317C436.928 443.562 433.797 444.422 431.709 446.203C429.13 448.413 428.024 451.914 428.024 457.256V469.169H420.533ZM461.138 470.151C451.866 470.151 444.067 463.642 444.067 453.203C444.067 443.01 451.866 436.5 461.138 436.5C470.411 436.5 478.148 443.01 478.148 453.203C478.148 463.642 470.411 470.151 461.138 470.151ZM451.681 453.203C451.681 460.326 455.427 464.256 461.138 464.256C466.849 464.256 470.595 460.326 470.595 453.203C470.595 446.264 466.849 442.395 461.138 442.395C455.427 442.395 451.681 446.264 451.681 453.203ZM491.426 469.169L480.25 437.483H488.233L491.181 446.08C492.839 451.115 494.067 454.677 495.663 460.204H495.97C497.505 454.431 498.488 450.931 499.9 446.018L502.418 437.483H509.296L511.813 446.018C513.226 450.931 514.208 454.431 515.743 460.204H516.05C517.647 454.677 518.875 451.115 520.533 446.08L523.481 437.483H531.464L520.288 469.169H512.673L505.98 446.51H505.734L499.041 469.169H491.426ZM534.116 442.273V437.483H539.335V429.193H546.643V437.483H555.669V442.273H546.765V459.098C546.765 462.537 547.994 463.765 551.187 463.765C552.476 463.765 553.95 463.581 555.608 463.151V468.616C553.582 469.23 551.555 469.599 549.652 469.599C542.344 469.599 539.335 466.958 539.335 460.019V442.273H534.116ZM561.997 469.169V426.184H569.55V445.159H569.918C571.638 439.571 575.691 436.5 581.401 436.5C587.911 436.5 593.007 440.922 593.007 448.475V469.169H585.516V450.563C585.516 445.404 582.998 442.58 577.963 442.58C572.804 442.58 569.55 446.51 569.55 452.712V469.169H561.997ZM224.757 556.151C212.782 556.151 205.536 550.502 205.598 541.291L213.519 541.352C213.765 546.572 218.002 549.519 224.941 549.581C231.327 549.581 234.95 547.37 234.95 543.256C234.95 539.51 231.082 538.221 226.108 537.238L221.87 536.378C214.502 534.905 206.764 532.694 206.764 523.421C206.764 516.114 213.458 511.324 224.45 511.263C235.196 511.201 242.012 516.79 242.135 526.185H234.336C234.213 520.904 230.283 517.833 224.388 517.833C218.493 517.833 214.931 519.983 214.931 523.606C214.931 527.474 218.984 528.825 224.02 529.869L228.564 530.79C235.748 532.264 243.117 534.352 243.117 542.949C243.117 551.177 236.178 556.151 224.757 556.151ZM260.9 556.151C254.391 556.151 249.295 551.73 249.295 544.177V523.483H256.786V541.844C256.786 546.94 259.672 550.072 264.401 550.072C269.559 550.072 272.813 546.142 272.813 539.94V523.483H280.305V555.169H273.059L272.813 547.493H272.445C270.726 553.081 266.611 556.151 260.9 556.151ZM288.394 566.468V523.483H295.64L295.885 530.975H296.192C298.219 525.509 302.394 522.5 307.86 522.5C315.965 522.5 321.615 529.071 321.615 539.387C321.615 549.642 315.965 556.151 307.86 556.151C302.394 556.151 298.219 553.143 296.192 547.739H295.885V566.468H288.394ZM295.885 541.168C295.885 546.511 299.508 550.625 304.973 550.625C310.439 550.625 314.062 546.388 314.062 539.387C314.062 532.326 310.439 528.027 304.973 528.027C299.508 528.027 295.885 532.203 295.885 537.545V541.168ZM328.332 566.468V523.483H335.578L335.824 530.975H336.131C338.157 525.509 342.333 522.5 347.798 522.5C355.904 522.5 361.553 529.071 361.553 539.387C361.553 549.642 355.904 556.151 347.798 556.151C342.333 556.151 338.157 553.143 336.131 547.739H335.824V566.468H328.332ZM335.824 541.168C335.824 546.511 339.447 550.625 344.912 550.625C350.377 550.625 354 546.388 354 539.387C354 532.326 350.377 528.027 344.912 528.027C339.447 528.027 335.824 532.203 335.824 537.545V541.168ZM384.169 556.151C374.897 556.151 367.098 549.642 367.098 539.203C367.098 529.01 374.897 522.5 384.169 522.5C393.442 522.5 401.179 529.01 401.179 539.203C401.179 549.642 393.442 556.151 384.169 556.151ZM374.713 539.203C374.713 546.326 378.459 550.256 384.169 550.256C389.88 550.256 393.626 546.326 393.626 539.203C393.626 532.264 389.88 528.395 384.169 528.395C378.459 528.395 374.713 532.264 374.713 539.203ZM407.909 555.169V523.483H415.155L415.401 533.369H415.708C417.12 526.369 420.314 522.992 428.849 522.992V529.317C424.305 529.562 421.173 530.422 419.086 532.203C416.506 534.413 415.401 537.914 415.401 543.256V555.169H407.909ZM432.38 528.273V523.483H437.6V515.193H444.907V523.483H453.934V528.273H445.03V545.098C445.03 548.537 446.258 549.765 449.451 549.765C450.741 549.765 452.215 549.581 453.873 549.151V554.616C451.846 555.23 449.82 555.599 447.916 555.599C440.609 555.599 437.6 552.958 437.6 546.019V528.273H432.38Z" fill="black"/>
<path d="M1016.5 192.539C1060.98 175.884 1005.38 286.804 1058.4 304.417C1089.35 314.7 1104.83 291.453 1104.83 265.857C1104.83 235.884 1094.51 193.879 1117.72 193.879" stroke="black" stroke-width="7.64453"/>
<path d="M1218.16 198.322C1202.78 192.573 1199.85 198.322 1198.84 204.402C1196.35 219.3 1219.13 302.851 1149.54 286.729C1113.06 278.278 1128.19 219.604 1128.19 207.443C1128.19 196.316 1123.08 193.344 1112.5 195.262" stroke="black" stroke-width="7.64453"/>
<path d="M923 188.999C931.617 185.318 943.338 185.958 943.338 198.12C943.338 210.281 927.122 264.137 955.225 281.282C973.281 292.297 991.577 286.885 1001.65 275.519C1020.03 254.796 1012.87 230.79 1011.97 219.585C1010.12 196.449 1014.7 191.175 1024.87 191.614" stroke="black" stroke-width="7.64453"/>
<path d="M1099.59 55.063C1088.74 95.9389 1085.57 134.829 1085.57 178.408C1085.57 200.704 1090.6 230.861 1065.17 224.013C1030.83 214.763 1080.28 91.5473 1099.59 55.063Z" fill="black" stroke="black" stroke-width="7.64453" stroke-linejoin="round"/>
<path d="M1189.92 89.7954C1179.07 130.671 1175.91 174.703 1175.91 218.282C1175.91 240.578 1180.93 270.735 1155.5 263.887C1121.16 254.637 1170.61 126.28 1189.92 89.7954Z" stroke="black" stroke-width="7.64453" stroke-linejoin="round"/>
<path d="M1004.18 95.2451C993.332 136.121 990.168 175.012 990.168 218.59C990.168 240.886 995.191 271.043 969.767 264.195C935.423 254.945 984.872 131.729 1004.18 95.2451Z" stroke="black" stroke-width="7.64453" stroke-linejoin="round"/>
<path d="M944.125 469.169V426.184H974.767V432.693H952.17V445.282H972.618V451.668H952.17V469.169H944.125ZM980.271 452.835V426.184H988.254V452.589C988.254 459.467 991.57 463.581 998.694 463.581C1005.82 463.581 1009.13 459.528 1009.13 452.589V426.184H1017.12V452.835C1017.12 464.256 1009.81 470.151 998.694 470.151C987.824 470.151 980.271 464.256 980.271 452.835ZM1025.44 469.169V426.184H1057.37V432.693H1033.49V443.808H1054.92V450.194H1033.49V462.66H1057.19V469.169H1025.44ZM1078.93 469.169V426.184H1086.98V444.299H1107.43V426.184H1115.41V469.169H1107.43V450.808H1086.98V469.169H1078.93ZM1132.56 470.151C1126.42 470.151 1121.88 467.081 1121.88 461.37C1121.88 455.721 1125.87 452.221 1133.55 452.221H1137.42C1143.19 452.221 1145.58 450.931 1145.58 447.676C1145.58 445.282 1143.74 442.334 1138.09 442.334C1133.49 442.334 1130.29 444.668 1129.68 448.966H1122.19C1122.98 441.167 1128.94 436.5 1138.15 436.5C1147.42 436.5 1152.95 440.676 1152.95 447.861V469.169H1145.71L1145.58 461.186H1145.28C1143.92 466.406 1138.95 470.151 1132.56 470.151ZM1129.56 460.695C1129.56 463.397 1131.4 464.993 1135.2 464.993C1141.41 464.993 1145.58 460.081 1145.58 455.23V452.098H1145.28C1144.66 455.045 1142.14 456.396 1137.23 456.396H1134.59C1131.34 456.396 1129.56 457.993 1129.56 460.695ZM1161.7 437.483H1169.13V469.169H1161.7V437.483ZM1160.9 428.456C1160.9 426 1162.93 423.912 1165.38 423.912C1167.9 423.912 1169.93 425.938 1169.93 428.456C1169.93 430.974 1167.9 432.939 1165.38 432.939C1162.93 432.939 1160.9 430.912 1160.9 428.456ZM1178.11 469.169V437.483H1185.36L1185.6 447.369H1185.91C1187.32 440.369 1190.51 436.992 1199.05 436.992V443.317C1194.51 443.562 1191.37 444.422 1189.29 446.203C1186.71 448.413 1185.6 451.914 1185.6 457.256V469.169H1178.11ZM827.126 518.693V512.184H863.233V518.693H849.233V555.169H841.25V518.693H827.126ZM865.078 555.169V523.483H872.324L872.569 533.369H872.876C874.289 526.369 877.482 522.992 886.017 522.992V529.317C881.473 529.562 878.341 530.422 876.254 532.203C873.675 534.413 872.569 537.914 872.569 543.256V555.169H865.078ZM900.069 556.151C893.928 556.151 889.384 553.081 889.384 547.37C889.384 541.721 893.376 538.221 901.052 538.221H904.92C910.692 538.221 913.087 536.931 913.087 533.676C913.087 531.282 911.245 528.334 905.596 528.334C900.99 528.334 897.797 530.668 897.183 534.966H889.691C890.489 527.167 896.446 522.5 905.657 522.5C914.93 522.5 920.456 526.676 920.456 533.861V555.169H913.21L913.087 547.186H912.78C911.429 552.406 906.455 556.151 900.069 556.151ZM897.06 546.695C897.06 549.397 898.902 550.993 902.709 550.993C908.912 550.993 913.087 546.081 913.087 541.23V538.098H912.78C912.166 541.045 909.648 542.396 904.736 542.396H902.095C898.841 542.396 897.06 543.993 897.06 546.695ZM928.583 555.169V523.483H935.829L936.137 531.159H936.505C938.224 525.571 942.277 522.5 947.988 522.5C954.497 522.5 959.594 526.922 959.594 534.475V555.169H952.102V536.563C952.102 531.404 949.585 528.58 944.549 528.58C939.391 528.58 936.137 532.51 936.137 538.712V555.169H928.583ZM981.131 556.151C971.367 556.151 965.84 552.099 965.595 544.853H973.025C973.271 548.598 976.157 550.686 981.253 550.686C985.429 550.686 987.947 549.151 987.947 546.572C987.947 543.931 985.122 542.949 981.56 542.273L977.815 541.598C972.165 540.554 966.332 538.835 966.332 532.203C966.332 526.308 971.49 522.5 979.902 522.5C988.929 522.5 994.333 526.676 994.333 533.799H987.21C987.21 530.176 984.447 527.966 980.148 527.966C976.034 527.966 973.7 529.501 973.7 532.018C973.7 534.598 976.587 535.519 980.332 536.194L983.833 536.87C989.543 537.914 995.377 539.633 995.377 546.265C995.377 552.467 990.096 556.151 981.131 556.151ZM1001.32 566.468V523.483H1008.57L1008.82 530.975H1009.12C1011.15 525.509 1015.33 522.5 1020.79 522.5C1028.9 522.5 1034.55 529.071 1034.55 539.387C1034.55 549.642 1028.9 556.151 1020.79 556.151C1015.33 556.151 1011.15 553.143 1009.12 547.739H1008.82V566.468H1001.32ZM1008.82 541.168C1008.82 546.511 1012.44 550.625 1017.9 550.625C1023.37 550.625 1026.99 546.388 1026.99 539.387C1026.99 532.326 1023.37 528.027 1017.9 528.027C1012.44 528.027 1008.82 532.203 1008.82 537.545V541.168ZM1041.26 512.184H1048.69V555.169H1041.26V512.184ZM1065.82 556.151C1059.68 556.151 1055.14 553.081 1055.14 547.37C1055.14 541.721 1059.13 538.221 1066.8 538.221H1070.67C1076.44 538.221 1078.84 536.931 1078.84 533.676C1078.84 531.282 1077 528.334 1071.35 528.334C1066.74 528.334 1063.55 530.668 1062.93 534.966H1055.44C1056.24 527.167 1062.2 522.5 1071.41 522.5C1080.68 522.5 1086.21 526.676 1086.21 533.861V555.169H1078.96L1078.84 547.186H1078.53C1077.18 552.406 1072.21 556.151 1065.82 556.151ZM1062.81 546.695C1062.81 549.397 1064.65 550.993 1068.46 550.993C1074.66 550.993 1078.84 546.081 1078.84 541.23V538.098H1078.53C1077.92 541.045 1075.4 542.396 1070.49 542.396H1067.85C1064.59 542.396 1062.81 543.993 1062.81 546.695ZM1094.33 555.169V523.483H1101.58L1101.89 531.159H1102.26C1103.98 525.571 1108.03 522.5 1113.74 522.5C1120.25 522.5 1125.35 526.922 1125.35 534.475V555.169H1117.85V536.563C1117.85 531.404 1115.34 528.58 1110.3 528.58C1105.14 528.58 1101.89 532.51 1101.89 538.712V555.169H1094.33ZM1129.96 528.273V523.483H1135.18V515.193H1142.49V523.483H1151.51V528.273H1142.61V545.098C1142.61 548.537 1143.84 549.765 1147.03 549.765C1148.32 549.765 1149.79 549.581 1151.45 549.151V554.616C1149.43 555.23 1147.4 555.599 1145.5 555.599C1138.19 555.599 1135.18 552.958 1135.18 546.019V528.273H1129.96ZM1192.12 556.151C1179.29 556.151 1171.06 547.554 1171.06 533.615C1171.06 519.614 1179.29 511.201 1192.12 511.201C1203.05 511.201 1210.12 517.281 1211.83 526.43H1203.48C1202.07 521.272 1198.08 517.772 1192.06 517.772C1184.39 517.772 1179.35 523.667 1179.35 533.615C1179.35 543.502 1184.39 549.581 1192.31 549.581C1198.94 549.581 1202.99 545.037 1203.85 538.896H1212.08C1211.1 549.151 1203.79 556.151 1192.12 556.151ZM1228.57 556.151C1222.43 556.151 1217.89 553.081 1217.89 547.37C1217.89 541.721 1221.88 538.221 1229.56 538.221H1233.42C1239.2 538.221 1241.59 536.931 1241.59 533.676C1241.59 531.282 1239.75 528.334 1234.1 528.334C1229.49 528.334 1226.3 530.668 1225.69 534.966H1218.2C1218.99 527.167 1224.95 522.5 1234.16 522.5C1243.43 522.5 1248.96 526.676 1248.96 533.861V555.169H1241.71L1241.59 547.186H1241.28C1239.93 552.406 1234.96 556.151 1228.57 556.151ZM1225.56 546.695C1225.56 549.397 1227.41 550.993 1231.21 550.993C1237.42 550.993 1241.59 546.081 1241.59 541.23V538.098H1241.28C1240.67 541.045 1238.15 542.396 1233.24 542.396H1230.6C1227.34 542.396 1225.56 543.993 1225.56 546.695ZM1257.09 555.169V523.483H1264.33L1264.58 533.369H1264.89C1266.3 526.369 1269.49 522.992 1278.03 522.992V529.317C1273.48 529.562 1270.35 530.422 1268.26 532.203C1265.68 534.413 1264.58 537.914 1264.58 543.256V555.169H1257.09ZM1297.2 556.151C1287.25 556.151 1280.62 550.379 1280.62 539.203C1280.62 528.948 1287.07 522.5 1296.83 522.5C1305.92 522.5 1312.55 529.01 1312.55 538.221C1312.55 539.08 1312.49 539.879 1312.37 540.738H1287.87C1287.99 546.879 1291.86 550.318 1297.2 550.318C1301.62 550.318 1304.63 547.677 1305.49 544.116H1312.25C1311.26 551.914 1304.26 556.151 1297.2 556.151ZM1287.87 536.501H1305.18C1304.88 531.527 1301.75 528.334 1296.71 528.334C1291.8 528.334 1288.24 531.22 1287.87 536.501Z" fill="black"/>
</svg>
