<svg width="640" height="800" viewBox="0 0 640 800" fill="none" xmlns="http://www.w3.org/2000/svg">
<rect width="640" height="265.507" rx="13.0531" fill="url(#paint0_linear_6014_28535)"/>
<path d="M34.7768 64.6328V44.0741H45.1736C48.8154 44.0741 51.0769 45.7188 51.0769 48.6264C51.0769 51.299 49.1091 53.2081 46.4071 53.3255V53.5311C49.4909 53.7073 51.6937 55.6751 51.6937 58.7002C51.6937 62.4301 49.0504 64.6328 44.5862 64.6328H34.7768ZM38.6242 61.5196H44.2044C46.554 61.5196 47.7875 60.4623 47.7875 58.5533C47.7875 56.6443 46.554 55.7045 44.2044 55.7045H38.6242V61.5196ZM38.6242 52.8262H43.852C45.9079 52.8262 47.1707 51.534 47.1707 49.8306C47.1707 48.2446 45.9666 47.1873 44.175 47.1873H38.6242V52.8262ZM54.6481 44.0741H58.2018V64.6328H54.6481V44.0741ZM69.5944 65.1027C65.1596 65.1027 61.4297 61.9896 61.4297 56.9967C61.4297 52.1214 65.1596 49.0082 69.5944 49.0082C74.0292 49.0082 77.7298 52.1214 77.7298 56.9967C77.7298 61.9896 74.0292 65.1027 69.5944 65.1027ZM65.0715 56.9967C65.0715 60.4036 66.863 62.2832 69.5944 62.2832C72.3258 62.2832 74.1173 60.4036 74.1173 56.9967C74.1173 53.678 72.3258 51.8277 69.5944 51.8277C66.863 51.8277 65.0715 53.678 65.0715 56.9967ZM80.9487 64.6328V49.4781H84.4143L84.5612 53.1493H84.7374C85.5597 50.4767 87.4981 49.0082 90.2295 49.0082C93.3427 49.0082 95.7804 51.1228 95.7804 54.7353V64.6328H92.1973V55.7338C92.1973 53.2668 90.9931 51.9158 88.5848 51.9158C86.1178 51.9158 84.5612 53.7954 84.5612 56.7618V64.6328H80.9487ZM98.9734 57.0848C98.9734 52.1801 101.617 49.0082 105.67 49.0082C108.195 49.0082 110.193 50.5061 111.162 53.0612H111.279V44.0741H114.862V64.6328H111.426L111.279 61.0791H111.162C110.193 63.6342 108.166 65.1027 105.67 65.1027C101.617 65.1027 98.9734 61.9308 98.9734 57.0848ZM102.586 57.0848C102.586 60.3449 104.319 62.4595 106.962 62.4595C109.576 62.4595 111.279 60.4917 111.279 57.9366V56.2037C111.279 53.6192 109.576 51.6515 106.962 51.6515C104.319 51.6515 102.586 53.7954 102.586 57.0848ZM126.005 65.1027C121.247 65.1027 118.075 62.342 118.075 56.9967C118.075 52.092 121.159 49.0082 125.829 49.0082C130.175 49.0082 133.347 52.1214 133.347 56.5268C133.347 56.938 133.318 57.3198 133.259 57.731H121.541C121.599 60.6679 123.45 62.3126 126.005 62.3126C128.119 62.3126 129.559 61.0497 129.97 59.3463H133.2C132.73 63.0762 129.382 65.1027 126.005 65.1027ZM121.541 55.7045H129.823C129.676 53.3255 128.178 51.7983 125.77 51.7983C123.42 51.7983 121.717 53.1787 121.541 55.7045ZM150.343 59.0526C149.197 59.0526 148.169 58.9057 147.288 58.6121C146.525 58.9351 146.114 59.5225 146.114 60.0805C146.114 60.8441 146.76 61.4903 147.934 61.4903H153.573C156.54 61.4903 158.273 62.9881 158.273 65.4552C158.273 68.6564 155.688 70.2718 150.343 70.2718C145.321 70.2718 143.03 69.0676 143.03 66.8355C143.03 65.4845 144.116 64.5741 145.585 64.1335V63.9573C144.234 63.5461 143.47 62.6651 143.47 61.4022C143.47 60.0218 144.498 58.9351 146.319 58.3477V58.1715C144.704 57.3198 143.823 55.8513 143.823 53.9717C143.823 51.3871 145.379 49.6837 149.139 48.9495L158.39 47.1873V50.0068L153.133 49.1844L153.104 49.3606C155.306 49.9774 156.833 51.6515 156.833 53.9717C156.833 57.0555 154.425 59.0526 150.343 59.0526ZM145.673 65.6901C145.673 66.9824 146.965 67.5991 150.372 67.5991C153.368 67.5991 154.983 66.8649 154.983 65.602C154.983 64.7209 154.22 64.2216 152.986 64.2216H147.553C147.318 64.2216 147.112 64.2216 146.877 64.1923C146.114 64.5447 145.673 65.1321 145.673 65.6901ZM147.171 53.9717C147.171 55.4989 148.346 56.4387 150.343 56.4387C152.311 56.4387 153.485 55.4989 153.485 53.9717C153.485 52.4738 152.311 51.534 150.343 51.534C148.346 51.534 147.171 52.4738 147.171 53.9717ZM161.342 64.6328V49.4781H164.808L164.925 54.2066H165.072C165.748 50.8585 167.275 49.2432 171.357 49.2432V52.2682C169.184 52.3857 167.686 52.7969 166.687 53.6486C165.454 54.7059 164.925 56.38 164.925 58.9351V64.6328H161.342ZM178.078 65.1027C175.141 65.1027 172.967 63.6342 172.967 60.9029C172.967 58.2009 174.876 56.5268 178.548 56.5268H180.398C183.159 56.5268 184.304 55.9101 184.304 54.3535C184.304 53.2081 183.423 51.7983 180.721 51.7983C178.518 51.7983 176.991 52.9144 176.697 54.9702H173.114C173.496 51.2403 176.345 49.0082 180.75 49.0082C185.185 49.0082 187.828 51.0053 187.828 54.4416V64.6328H184.363L184.304 60.8148H184.157C183.511 63.3112 181.132 65.1027 178.078 65.1027ZM176.639 60.5798C176.639 61.8721 177.52 62.6357 179.341 62.6357C182.307 62.6357 184.304 60.2861 184.304 57.9659V56.4681H184.157C183.864 57.8778 182.659 58.5239 180.31 58.5239H179.047C177.49 58.5239 176.639 59.2876 176.639 60.5798ZM190.954 57.0848C190.954 52.1801 193.597 49.0082 197.65 49.0082C200.176 49.0082 202.173 50.5061 203.142 53.0612H203.26V44.0741H206.843V64.6328H203.407L203.26 61.0791H203.142C202.173 63.6342 200.147 65.1027 197.65 65.1027C193.597 65.1027 190.954 61.9308 190.954 57.0848ZM194.566 57.0848C194.566 60.3449 196.299 62.4595 198.943 62.4595C201.556 62.4595 203.26 60.4917 203.26 57.9366V56.2037C203.26 53.6192 201.556 51.6515 198.943 51.6515C196.299 51.6515 194.566 53.7954 194.566 57.0848ZM211.113 49.4781H214.667V64.6328H211.113V49.4781ZM210.731 45.1608C210.731 43.986 211.7 42.9874 212.875 42.9874C214.079 42.9874 215.049 43.9566 215.049 45.1608C215.049 46.3649 214.079 47.3048 212.875 47.3048C211.7 47.3048 210.731 46.3356 210.731 45.1608ZM225.5 65.1027C220.742 65.1027 217.57 62.342 217.57 56.9967C217.57 52.092 220.654 49.0082 225.324 49.0082C229.67 49.0082 232.842 52.1214 232.842 56.5268C232.842 56.938 232.813 57.3198 232.754 57.731H221.036C221.095 60.6679 222.945 62.3126 225.5 62.3126C227.615 62.3126 229.054 61.0497 229.465 59.3463H232.695C232.226 63.0762 228.877 65.1027 225.5 65.1027ZM221.036 55.7045H229.318C229.171 53.3255 227.673 51.7983 225.265 51.7983C222.915 51.7983 221.212 53.1787 221.036 55.7045ZM236.114 64.6328V49.4781H239.58L239.727 53.1493H239.903C240.725 50.4767 242.663 49.0082 245.395 49.0082C248.508 49.0082 250.946 51.1228 250.946 54.7353V64.6328H247.363V55.7338C247.363 53.2668 246.158 51.9158 243.75 51.9158C241.283 51.9158 239.727 53.7954 239.727 56.7618V64.6328H236.114ZM253.153 51.7689V49.4781H255.649V45.5132H259.144V49.4781H263.461V51.7689H259.203V59.8162C259.203 61.4609 259.79 62.0483 261.317 62.0483C261.934 62.0483 262.639 61.9602 263.432 61.7546V64.3685C262.463 64.6622 261.494 64.8384 260.583 64.8384C257.088 64.8384 255.649 63.5755 255.649 60.2567V51.7689H253.153Z" fill="black"/>
<path d="M34.5977 102.624V100.728H37.1333L37.91 97.0278H35.6485V95.109H38.2983L39.1435 90.9059H41.245L40.5141 95.109H44.306L45.1512 90.9059H47.2527L46.5218 95.109H48.6918V97.0278H46.1106L45.3568 100.728H47.6639V102.624H44.9684L44.1004 106.896H42.0445L42.7527 102.624H38.9607L38.0927 106.896H36.0368L36.745 102.624H34.5977ZM39.3491 100.728H43.141L43.9177 97.0278H40.1257L39.3491 100.728ZM51.6313 106.896V90.9059H62.6873V92.9846H54.0755V98.1243H61.8421V100.157H54.0755V106.896H51.6313ZM70.7914 104.817C74.2635 104.817 76.3422 102.944 76.3422 98.9009C76.3422 94.8121 74.2407 92.9846 70.7914 92.9846H67.6162V104.817H70.7914ZM65.172 106.896V90.9059H70.8142C75.6341 90.9059 78.8549 93.5785 78.8549 98.9009C78.8549 104.383 75.5884 106.896 70.8142 106.896H65.172ZM81.635 106.896V90.9059H93.1707V92.9846H84.0792V97.6217H92.257V99.6548H84.0792V104.817H93.1022V106.896H81.635ZM102.634 107.261C98.0198 107.261 94.9589 104.018 94.9589 98.8553C94.9589 93.6699 98.0198 90.5404 102.634 90.5404C106.563 90.5404 109.122 92.779 109.807 96.0227H107.226C106.632 94.0811 105.055 92.642 102.634 92.642C99.5503 92.642 97.4945 94.972 97.4945 98.8553C97.4945 102.739 99.5503 105.16 102.68 105.16C105.375 105.16 107.02 103.264 107.385 100.934H109.921C109.51 104.612 106.883 107.261 102.634 107.261ZM118.262 104.817C121.734 104.817 123.813 102.944 123.813 98.9009C123.813 94.8121 121.711 92.9846 118.262 92.9846H115.087V104.817H118.262ZM112.643 106.896V90.9059H118.285C123.105 90.9059 126.326 93.5785 126.326 98.9009C126.326 104.383 123.059 106.896 118.285 106.896H112.643ZM129.205 106.896H126.669L133.042 90.9059H135.989L142.499 106.896H139.918L138.228 102.556H130.872L129.205 106.896ZM131.672 100.5H137.405L136.24 97.5075C135.669 96.0456 135.121 94.5836 134.596 93.1217H134.436C133.91 94.6293 133.362 96.0913 132.791 97.5989L131.672 100.5ZM153.911 93.4186H156.104V97.7588H160.421V99.769H156.104V104.086H153.911V99.769H149.571V97.7588H153.911V93.4186ZM168.109 102.624V100.728H170.644L171.421 97.0278H169.16V95.109H171.809L172.654 90.9059H174.756L174.025 95.109H177.817L178.662 90.9059H180.764L180.033 95.109H182.203V97.0278H179.622L178.868 100.728H181.175V102.624H178.479L177.611 106.896H175.556L176.264 102.624H172.472L171.604 106.896H169.548L170.256 102.624H168.109ZM172.86 100.728H176.652L177.429 97.0278H173.637L172.86 100.728ZM185.142 106.896V90.9059H196.198V92.9846H187.586V98.1243H195.353V100.157H187.586V106.896H185.142ZM200.001 102.396C200.183 104.246 201.554 105.274 203.359 105.274C205.323 105.274 206.694 103.881 206.694 101.825C206.694 99.8147 205.346 98.3299 203.359 98.3299C201.851 98.3299 200.823 98.9466 200.229 100.203L198.082 99.769L199.407 90.9059H208.361V92.9161H201.371L200.48 98.3756L200.617 98.3984C201.051 97.1877 202.49 96.4111 204.021 96.4111C207.036 96.4111 209.092 98.5355 209.092 101.779C209.092 105.091 206.671 107.261 203.381 107.261C200.206 107.261 197.876 105.457 197.671 102.396H200.001ZM218.834 107.261C214.22 107.261 211.159 104.018 211.159 98.8553C211.159 93.6699 214.22 90.5404 218.834 90.5404C222.763 90.5404 225.322 92.779 226.007 96.0227H223.426C222.832 94.0811 221.256 92.642 218.834 92.642C215.751 92.642 213.695 94.972 213.695 98.8553C213.695 102.739 215.751 105.16 218.88 105.16C221.576 105.16 223.22 103.264 223.586 100.934H226.121C225.71 104.612 223.083 107.261 218.834 107.261ZM234.462 104.817C237.934 104.817 240.013 102.944 240.013 98.9009C240.013 94.8121 237.912 92.9846 234.462 92.9846H231.287V104.817H234.462ZM228.843 106.896V90.9059H234.485C239.305 90.9059 242.526 93.5785 242.526 98.9009C242.526 104.383 239.259 106.896 234.485 106.896H228.843ZM254.24 98.3299C253.76 100.134 252.367 101.368 249.899 101.368C246.976 101.368 244.874 99.2208 244.874 95.9999C244.874 92.5049 247.341 90.5404 250.608 90.5404C255.085 90.5404 256.73 93.8526 256.73 98.7639C256.73 103.812 254.925 107.261 250.562 107.261C247.821 107.261 245.582 105.8 245.102 102.921H247.432C247.752 104.429 248.849 105.251 250.562 105.251C253.166 105.251 254.331 103.241 254.377 98.3527L254.24 98.3299ZM247.318 95.9999C247.318 97.8959 248.575 99.4035 250.608 99.4035C252.686 99.4035 253.943 97.873 253.943 95.9999C253.943 93.9212 252.572 92.5963 250.608 92.5963C248.575 92.5963 247.318 94.0126 247.318 95.9999ZM259.828 106.896V90.9059H270.884V92.9846H262.272V98.1243H270.039V100.157H262.272V106.896H259.828Z" fill="black" fill-opacity="0.5"/>
<rect y="280.507" width="640" height="163.164" rx="13.0531" fill="#F5CD9F"/>
<path d="M42.4422 342.027C46.4071 342.027 49.021 339.795 49.021 334.861C49.021 329.78 46.3778 327.695 42.4129 327.695H38.6242V342.027H42.4422ZM34.7768 345.14V324.581H42.5304C48.5805 324.581 52.9565 327.9 52.9565 334.861C52.9565 342.086 48.5217 345.14 42.5304 345.14H34.7768ZM60.2267 345.61C57.2897 345.61 55.1164 344.142 55.1164 341.41C55.1164 338.708 57.0254 337.034 60.6966 337.034H62.5469C65.3076 337.034 66.453 336.417 66.453 334.861C66.453 333.715 65.5719 332.306 62.8699 332.306C60.6672 332.306 59.14 333.422 58.8463 335.478H55.2632C55.645 331.748 58.4939 329.516 62.8993 329.516C67.3341 329.516 69.9774 331.513 69.9774 334.949V345.14H66.5117L66.453 341.322H66.3062C65.66 343.819 63.2811 345.61 60.2267 345.61ZM58.7876 341.087C58.7876 342.379 59.6686 343.143 61.4896 343.143C64.4559 343.143 66.453 340.793 66.453 338.473V336.975H66.3062C66.0125 338.385 64.8083 339.031 62.4587 339.031H61.1959C59.6393 339.031 58.7876 339.795 58.7876 341.087ZM73.8645 345.14V329.985H77.3301L77.4475 334.714H77.5944C78.2699 331.366 79.7971 329.75 83.8795 329.75V332.776C81.7061 332.893 80.2083 333.304 79.2097 334.156C77.9762 335.213 77.4475 336.887 77.4475 339.442V345.14H73.8645ZM86.7423 345.14V324.581H90.2667V331.748C90.2667 333.598 90.2373 335.331 90.1786 336.946L90.3254 337.005C91.2359 335.977 92.4988 334.626 93.5561 333.598L97.3447 329.985H101.545L98.4608 332.922C97.1098 334.215 95.6707 335.478 94.8483 336.212L94.8777 336.359C96.9923 336.505 98.079 337.592 98.9013 339.384L101.545 345.14H97.8147L95.9937 341.117C95.3476 339.648 94.4959 338.855 93.0274 338.855H92.3519L90.2667 340.823V345.14H86.7423ZM111.184 345.14V324.581H121.58C125.222 324.581 127.484 326.226 127.484 329.134C127.484 331.806 125.516 333.715 122.814 333.833V334.038C125.898 334.215 128.1 336.182 128.1 339.207C128.1 342.937 125.457 345.14 120.993 345.14H111.184ZM115.031 342.027H120.611C122.961 342.027 124.194 340.97 124.194 339.061C124.194 337.152 122.961 336.212 120.611 336.212H115.031V342.027ZM115.031 333.334H120.259C122.315 333.334 123.577 332.041 123.577 330.338C123.577 328.752 122.373 327.695 120.582 327.695H115.031V333.334ZM131.055 324.581H134.609V345.14H131.055V324.581ZM146.001 345.61C141.566 345.61 137.836 342.497 137.836 337.504C137.836 332.629 141.566 329.516 146.001 329.516C150.436 329.516 154.137 332.629 154.137 337.504C154.137 342.497 150.436 345.61 146.001 345.61ZM141.478 337.504C141.478 340.911 143.27 342.791 146.001 342.791C148.733 342.791 150.524 340.911 150.524 337.504C150.524 334.185 148.733 332.335 146.001 332.335C143.27 332.335 141.478 334.185 141.478 337.504ZM157.355 345.14V329.985H160.821L160.968 333.657H161.144C161.966 330.984 163.905 329.516 166.636 329.516C169.749 329.516 172.187 331.63 172.187 335.243V345.14H168.604V336.241C168.604 333.774 167.4 332.423 164.992 332.423C162.525 332.423 160.968 334.303 160.968 337.269V345.14H157.355ZM175.38 337.592C175.38 332.687 178.023 329.516 182.076 329.516C184.602 329.516 186.599 331.013 187.568 333.569H187.686V324.581H191.269V345.14H187.833L187.686 341.586H187.568C186.599 344.142 184.573 345.61 182.076 345.61C178.023 345.61 175.38 342.438 175.38 337.592ZM178.993 337.592C178.993 340.852 180.725 342.967 183.369 342.967C185.983 342.967 187.686 340.999 187.686 338.444V336.711C187.686 334.127 185.983 332.159 183.369 332.159C180.725 332.159 178.993 334.303 178.993 337.592ZM202.412 345.61C197.654 345.61 194.482 342.849 194.482 337.504C194.482 332.599 197.566 329.516 202.235 329.516C206.582 329.516 209.754 332.629 209.754 337.034C209.754 337.445 209.725 337.827 209.666 338.238H197.947C198.006 341.175 199.856 342.82 202.412 342.82C204.526 342.82 205.965 341.557 206.376 339.854H209.607C209.137 343.584 205.789 345.61 202.412 345.61ZM197.947 336.212H206.23C206.083 333.833 204.585 332.306 202.177 332.306C199.827 332.306 198.124 333.686 197.947 336.212Z" fill="black"/>
<path d="M34.1087 383.132V381.236H36.6443L37.421 377.535H35.1595V375.616H37.8093L38.6545 371.413H40.7561L40.0251 375.616H43.817L44.6622 371.413H46.7638L46.0328 375.616H48.2029V377.535H45.6216L44.8678 381.236H47.1749V383.132H44.4795L43.6114 387.403H41.5556L42.2637 383.132H38.4718L37.6037 387.403H35.5478L36.256 383.132H34.1087ZM38.8601 381.236H42.652L43.4287 377.535H39.6367L38.8601 381.236ZM51.1423 387.403V371.413H62.1983V373.492H53.5865V378.632H61.3531V380.665H53.5865V387.403H51.1423ZM66.0006 382.903C66.1833 384.754 67.5539 385.781 69.3585 385.781C71.323 385.781 72.6936 384.388 72.6936 382.332C72.6936 380.322 71.3458 378.837 69.3585 378.837C67.8509 378.837 66.8229 379.454 66.229 380.71L64.0818 380.276L65.4067 371.413H74.3611V373.423H67.3712L66.4803 378.883L66.6173 378.906C67.0514 377.695 68.4905 376.918 70.021 376.918C73.0362 376.918 75.0921 379.043 75.0921 382.286C75.0921 385.599 72.6707 387.769 69.3814 387.769C66.2062 387.769 63.8762 385.964 63.6706 382.903H66.0006ZM84.8345 387.769C80.2202 387.769 77.1592 384.525 77.1592 379.363C77.1592 374.177 80.2202 371.048 84.8345 371.048C88.7634 371.048 91.3219 373.286 92.0072 376.53H89.4259C88.832 374.588 87.2558 373.149 84.8345 373.149C81.7507 373.149 79.6948 375.479 79.6948 379.363C79.6948 383.246 81.7507 385.667 84.8801 385.667C87.5756 385.667 89.2203 383.771 89.5858 381.441H92.1214C91.7102 385.119 89.0833 387.769 84.8345 387.769ZM100.462 385.325C103.934 385.325 106.013 383.451 106.013 379.408C106.013 375.319 103.912 373.492 100.462 373.492H97.2871V385.325H100.462ZM94.8429 387.403V371.413H100.485C105.305 371.413 108.526 374.086 108.526 379.408C108.526 384.891 105.259 387.403 100.485 387.403H94.8429ZM120.24 378.837C119.76 380.642 118.367 381.875 115.899 381.875C112.976 381.875 110.874 379.728 110.874 376.507C110.874 373.012 113.341 371.048 116.608 371.048C121.085 371.048 122.73 374.36 122.73 379.271C122.73 384.32 120.925 387.769 116.562 387.769C113.821 387.769 111.582 386.307 111.102 383.429H113.432C113.752 384.936 114.849 385.759 116.562 385.759C119.166 385.759 120.331 383.748 120.377 378.86L120.24 378.837ZM113.318 376.507C113.318 378.403 114.575 379.911 116.608 379.911C118.686 379.911 119.943 378.38 119.943 376.507C119.943 374.429 118.572 373.104 116.608 373.104C114.575 373.104 113.318 374.52 113.318 376.507ZM125.828 387.403V371.413H136.884V373.492H128.272V378.632H136.039V380.665H128.272V387.403H125.828Z" fill="black" fill-opacity="0.5"/>
<rect y="458.672" width="640" height="163.164" rx="12.4476" fill="#FDECDA"/>
<path d="M41.8077 522.26C36.11 522.26 32.3801 517.943 32.3801 511.511C32.3801 505.344 35.9338 500.762 42.7769 500.762C48.3865 500.762 51.7053 503.993 52.322 508.251H48.3571C47.7991 505.725 45.9488 503.875 42.8063 503.904C38.1953 503.904 36.345 507.341 36.345 511.511C36.345 515.711 38.3127 519.118 43.1 519.118C46.5362 519.118 48.9739 516.798 49.1207 514.213V513.861H42.7475V510.983H52.7626V521.791H49.4144L49.1795 517.532H49.0033C47.9753 519.97 45.9782 522.26 41.8077 522.26ZM64.0921 522.26C59.6573 522.26 55.9274 519.147 55.9274 514.154C55.9274 509.279 59.6573 506.166 64.0921 506.166C68.5269 506.166 72.2275 509.279 72.2275 514.154C72.2275 519.147 68.5269 522.26 64.0921 522.26ZM59.5692 514.154C59.5692 517.561 61.3607 519.441 64.0921 519.441C66.8235 519.441 68.615 517.561 68.615 514.154C68.615 510.836 66.8235 508.985 64.0921 508.985C61.3607 508.985 59.5692 510.836 59.5692 514.154ZM75.4464 501.232H79.0001V521.791H75.4464V501.232ZM82.228 514.243C82.228 509.338 84.8713 506.166 88.9243 506.166C91.4501 506.166 93.4472 507.664 94.4164 510.219H94.5339V501.232H98.117V521.791H94.6807L94.5339 518.237H94.4164C93.4472 520.792 91.4207 522.26 88.9243 522.26C84.8713 522.26 82.228 519.089 82.228 514.243ZM85.8405 514.243C85.8405 517.503 87.5733 519.617 90.2165 519.617C92.8304 519.617 94.5339 517.649 94.5339 515.094V513.361C94.5339 510.777 92.8304 508.809 90.2165 508.809C87.5733 508.809 85.8405 510.953 85.8405 514.243ZM109.259 522.26C104.502 522.26 101.33 519.5 101.33 514.154C101.33 509.25 104.414 506.166 109.083 506.166C113.43 506.166 116.602 509.279 116.602 513.685C116.602 514.096 116.573 514.478 116.514 514.889H104.795C104.854 517.826 106.704 519.47 109.259 519.47C111.374 519.47 112.813 518.207 113.224 516.504H116.455C115.985 520.234 112.637 522.26 109.259 522.26ZM104.795 512.862H113.078C112.931 510.483 111.433 508.956 109.025 508.956C106.675 508.956 104.972 510.336 104.795 512.862ZM119.874 521.791V506.636H123.339L123.486 510.307H123.662C124.485 507.634 126.423 506.166 129.154 506.166C132.268 506.166 134.705 508.281 134.705 511.893V521.791H131.122V512.892C131.122 510.425 129.918 509.074 127.51 509.074C125.043 509.074 123.486 510.953 123.486 513.919V521.791H119.874ZM138.574 521.791V506.636H142.039L142.157 511.364H142.304C142.979 508.016 144.506 506.401 148.589 506.401V509.426C146.415 509.543 144.918 509.955 143.919 510.806C142.685 511.864 142.157 513.538 142.157 516.093V521.791H138.574ZM157.994 522.26C153.56 522.26 149.83 519.147 149.83 514.154C149.83 509.279 153.56 506.166 157.994 506.166C162.429 506.166 166.13 509.279 166.13 514.154C166.13 519.147 162.429 522.26 157.994 522.26ZM153.471 514.154C153.471 517.561 155.263 519.441 157.994 519.441C160.726 519.441 162.517 517.561 162.517 514.154C162.517 510.836 160.726 508.985 157.994 508.985C155.263 508.985 153.471 510.836 153.471 514.154ZM168.788 514.243C168.788 509.338 171.431 506.166 175.484 506.166C178.01 506.166 180.007 507.664 180.976 510.219H181.094V501.232H184.677V521.791H181.241L181.094 518.237H180.976C180.007 520.792 177.981 522.26 175.484 522.26C171.431 522.26 168.788 519.089 168.788 514.243ZM172.4 514.243C172.4 517.503 174.133 519.617 176.776 519.617C179.39 519.617 181.094 517.649 181.094 515.094V513.361C181.094 510.777 179.39 508.809 176.776 508.809C174.133 508.809 172.4 510.953 172.4 514.243ZM208.515 530.719C201.173 530.69 194.947 525.609 194.888 517.15C194.888 510.483 199.146 503.875 208.104 503.875C213.009 503.875 217.003 506.107 217.003 511.482V521.791H213.626L213.479 517.972H213.361C212.627 520.704 210.131 522.26 207.37 522.26C204.404 522.26 202.171 520.88 202.171 518.061C202.171 515.3 204.169 513.685 207.752 513.685H209.543C212.451 513.685 213.537 512.392 213.537 510.454C213.537 508.104 211.628 506.518 208.28 506.518C200.967 506.518 197.619 511.746 197.766 517.062C197.884 524.052 202.876 528.046 208.838 528.076C210.894 528.046 213.068 527.576 215.212 526.607V529.397C212.95 530.308 210.689 530.719 208.515 530.719ZM205.843 517.738C205.843 519.03 206.694 519.793 208.633 519.793C211.54 519.735 213.479 517.414 213.479 515.124V513.45H213.361C213.009 514.889 211.775 515.682 209.484 515.682H208.251C206.577 515.682 205.843 516.504 205.843 517.738ZM219.905 518.648C226.719 513.156 230.948 510.219 230.948 506.988C230.948 504.962 229.597 503.787 227.542 503.787C225.486 503.787 224.105 504.844 223.87 507.164H220.17C220.463 502.788 223.4 500.762 227.542 500.762C231.741 500.762 234.796 502.965 234.796 506.9C234.766 511.541 230.038 514.478 224.663 518.531L224.751 518.736C226.337 518.589 227.688 518.56 229.597 518.56H234.62V521.791H219.935L219.905 518.648ZM245.802 522.231C240.075 522.231 237.402 518.207 237.402 511.511C237.402 504.756 240.104 500.762 245.802 500.762C251.5 500.762 254.172 504.786 254.172 511.511C254.172 518.266 251.441 522.231 245.802 522.231ZM241.397 511.511C241.397 516.621 242.718 519.177 245.802 519.177C248.827 519.177 250.178 516.621 250.178 511.511C250.178 506.372 248.827 503.816 245.802 503.816C242.718 503.816 241.397 506.372 241.397 511.511ZM262.62 521.791L273.604 501.232H276.247L265.263 521.791H262.62ZM256.804 507.047C256.804 503.258 258.42 500.85 261.915 500.85C265.41 500.85 267.025 503.258 267.025 507.047C267.025 510.806 265.41 513.215 261.915 513.215C258.478 513.215 256.804 510.806 256.804 507.047ZM259.653 507.047C259.653 509.485 260.299 510.924 261.915 510.924C263.53 510.924 264.176 509.426 264.176 507.047C264.176 504.58 263.53 503.141 261.915 503.141C260.27 503.141 259.653 504.639 259.653 507.047ZM271.959 516.005C271.959 512.187 273.574 509.808 277.04 509.808C280.564 509.808 282.15 512.187 282.15 516.005C282.15 519.764 280.535 522.172 277.04 522.172C273.633 522.172 271.959 519.764 271.959 516.005ZM274.779 516.005C274.779 518.442 275.425 519.882 277.04 519.882C278.685 519.882 279.301 518.384 279.301 516.005C279.301 513.538 278.655 512.099 277.04 512.099C275.395 512.099 274.779 513.596 274.779 516.005Z" fill="black"/>
<path d="M32.6408 559.782V557.886H35.1764L35.9531 554.186H33.6916V552.267H36.3414L37.1866 548.064H39.2881L38.5572 552.267H42.3491L43.1943 548.064H45.2958L44.5649 552.267H46.735V554.186H44.1537L43.3999 557.886H45.707V559.782H43.0115L42.1435 564.054H40.0876L40.7958 559.782H37.0038L36.1358 564.054H34.0799L34.7881 559.782H32.6408ZM37.3922 557.886H41.1841L41.9608 554.186H38.1688L37.3922 557.886ZM49.6744 564.054V548.064H60.7304V550.142H52.1186V555.282H59.8852V557.315H52.1186V564.054H49.6744ZM68.8345 561.975C72.3066 561.975 74.3853 560.102 74.3853 556.059C74.3853 551.97 72.2838 550.142 68.8345 550.142H65.6593V561.975H68.8345ZM63.2151 564.054V548.064H68.8573C73.6772 548.064 76.8981 550.736 76.8981 556.059C76.8981 561.541 73.6315 564.054 68.8573 564.054H63.2151ZM79.6781 564.054V548.064H91.2138V550.142H82.1223V554.779H90.3001V556.812H82.1223V561.975H91.1453V564.054H79.6781ZM100.677 564.419C96.063 564.419 93.002 561.175 93.002 556.013C93.002 550.828 96.063 547.698 100.677 547.698C104.606 547.698 107.165 549.937 107.85 553.18H105.269C104.675 551.239 103.099 549.8 100.677 549.8C97.5934 549.8 95.5376 552.13 95.5376 556.013C95.5376 559.896 97.5934 562.318 100.723 562.318C103.418 562.318 105.063 560.422 105.429 558.092H107.964C107.553 561.769 104.926 564.419 100.677 564.419ZM116.305 561.975C119.777 561.975 121.856 560.102 121.856 556.059C121.856 551.97 119.754 550.142 116.305 550.142H113.13V561.975H116.305ZM110.686 564.054V548.064H116.328C121.148 548.064 124.369 550.736 124.369 556.059C124.369 561.541 121.102 564.054 116.328 564.054H110.686ZM127.248 564.054H124.712L131.085 548.064H134.032L140.542 564.054H137.961L136.271 559.714H128.915L127.248 564.054ZM129.715 557.658H135.448L134.283 554.665C133.712 553.203 133.164 551.741 132.639 550.279H132.479C131.953 551.787 131.405 553.249 130.834 554.757L129.715 557.658Z" fill="black" fill-opacity="0.5"/>
<rect y="636.836" width="640" height="163.164" rx="13.0531" fill="#F7A245"/>
<path d="M43.3233 701.939C37.6256 701.939 33.8957 697.621 33.8957 691.189C33.8957 685.022 37.4494 680.44 44.2925 680.44C49.9021 680.44 53.2209 683.671 53.8376 687.929H49.8727C49.3147 685.404 47.4644 683.553 44.3219 683.583C39.7109 683.583 37.8606 687.019 37.8606 691.189C37.8606 695.389 39.8284 698.796 44.6156 698.796C48.0518 698.796 50.4895 696.476 50.6364 693.891V693.539H44.2632V690.661H54.2782V701.469H50.93L50.6951 697.21H50.5189C49.4909 699.648 47.4938 701.939 43.3233 701.939ZM65.6077 701.939C61.1729 701.939 57.443 698.825 57.443 693.833C57.443 688.957 61.1729 685.844 65.6077 685.844C70.0425 685.844 73.7431 688.957 73.7431 693.833C73.7431 698.825 70.0425 701.939 65.6077 701.939ZM61.0848 693.833C61.0848 697.24 62.8763 699.119 65.6077 699.119C68.3391 699.119 70.1306 697.24 70.1306 693.833C70.1306 690.514 68.3391 688.664 65.6077 688.664C62.8763 688.664 61.0848 690.514 61.0848 693.833ZM76.962 680.91H80.5158V701.469H76.962V680.91ZM83.7436 693.921C83.7436 689.016 86.3869 685.844 90.4399 685.844C92.9657 685.844 94.9628 687.342 95.932 689.897H96.0495V680.91H99.6326V701.469H96.1963L96.0495 697.915H95.932C94.9628 700.47 92.9363 701.939 90.4399 701.939C86.3869 701.939 83.7436 698.767 83.7436 693.921ZM87.3561 693.921C87.3561 697.181 89.0889 699.295 91.7322 699.295C94.3461 699.295 96.0495 697.328 96.0495 694.772V693.04C96.0495 690.455 94.3461 688.487 91.7322 688.487C89.0889 688.487 87.3561 690.631 87.3561 693.921ZM110.775 701.939C106.017 701.939 102.845 699.178 102.845 693.833C102.845 688.928 105.929 685.844 110.599 685.844C114.946 685.844 118.118 688.957 118.118 693.363C118.118 693.774 118.088 694.156 118.029 694.567H106.311C106.37 697.504 108.22 699.149 110.775 699.149C112.89 699.149 114.329 697.886 114.74 696.182H117.971C117.501 699.912 114.153 701.939 110.775 701.939ZM106.311 692.54H114.593C114.446 690.161 112.948 688.634 110.54 688.634C108.191 688.634 106.487 690.015 106.311 692.54ZM121.389 701.469V686.314H124.855L125.002 689.985H125.178C126 687.313 127.939 685.844 130.67 685.844C133.783 685.844 136.221 687.959 136.221 691.571V701.469H132.638V692.57C132.638 690.103 131.434 688.752 129.025 688.752C126.558 688.752 125.002 690.631 125.002 693.598V701.469H121.389ZM140.089 701.469V686.314H143.555L143.672 691.043H143.819C144.495 687.694 146.022 686.079 150.104 686.079V689.104C147.931 689.222 146.433 689.633 145.435 690.485C144.201 691.542 143.672 693.216 143.672 695.771V701.469H140.089ZM159.51 701.939C155.075 701.939 151.345 698.825 151.345 693.833C151.345 688.957 155.075 685.844 159.51 685.844C163.945 685.844 167.645 688.957 167.645 693.833C167.645 698.825 163.945 701.939 159.51 701.939ZM154.987 693.833C154.987 697.24 156.779 699.119 159.51 699.119C162.241 699.119 164.033 697.24 164.033 693.833C164.033 690.514 162.241 688.664 159.51 688.664C156.779 688.664 154.987 690.514 154.987 693.833ZM170.304 693.921C170.304 689.016 172.947 685.844 177 685.844C179.526 685.844 181.523 687.342 182.492 689.897H182.609V680.91H186.192V701.469H182.756L182.609 697.915H182.492C181.523 700.47 179.496 701.939 177 701.939C172.947 701.939 170.304 698.767 170.304 693.921ZM173.916 693.921C173.916 697.181 175.649 699.295 178.292 699.295C180.906 699.295 182.609 697.328 182.609 694.772V693.04C182.609 690.455 180.906 688.487 178.292 688.487C175.649 688.487 173.916 690.631 173.916 693.921Z" fill="black"/>
<path d="M34.2064 739.46V737.564H36.742L37.5186 733.864H35.2572V731.945H37.907L38.7522 727.742H40.8537L40.1227 731.945H43.9147L44.7599 727.742H46.8614L46.1304 731.945H48.3005V733.864H45.7193L44.9655 737.564H47.2726V739.46H44.5771L43.7091 743.732H41.6532L42.3614 739.46H38.5694L37.7014 743.732H35.6455L36.3536 739.46H34.2064ZM38.9577 737.564H42.7497L43.5263 733.864H39.7344L38.9577 737.564ZM51.24 743.732V727.742H62.296V729.821H53.6842V734.96H61.4508V736.993H53.6842V743.732H51.24ZM72.7284 729.798H63.8425V727.742H74.6016V729.683C71.038 733.544 69.1421 738.113 69.005 743.732H66.4694C66.6065 738.113 68.7309 733.019 72.7513 729.935L72.7284 729.798ZM75.8774 743.732H73.3418L79.715 727.742H82.6617L89.172 743.732H86.5907L84.9004 739.392H77.5449L75.8774 743.732ZM78.3444 737.336H84.078L82.913 734.343C82.3419 732.882 81.7937 731.42 81.2683 729.958H81.1084C80.583 731.465 80.0348 732.927 79.4637 734.435L78.3444 737.336ZM90.6919 741.699C96.0829 736.993 99.3038 734.663 99.3038 732.105C99.3038 730.369 98.1388 729.409 96.3798 729.409C94.6438 729.409 93.4559 730.255 93.296 732.242H90.8975C91.1031 728.953 93.296 727.376 96.3798 727.376C99.555 727.376 101.771 729.135 101.771 732.059C101.771 735.623 98.2301 737.976 93.8214 741.585L93.8671 741.722C95.192 741.63 96.3342 741.63 97.7047 741.63H101.748V743.732H90.7148L90.6919 741.699ZM110.499 743.732V739.917H102.596V737.633L110.317 727.742H112.944V737.861H115.068V739.917H112.944V743.732H110.499ZM104.834 737.861H110.522V730.209H110.385C109.905 731.214 109.22 732.265 108.375 733.316L104.834 737.861ZM119.347 739.232C119.529 741.082 120.9 742.11 122.704 742.11C124.669 742.11 126.04 740.717 126.04 738.661C126.04 736.651 124.692 735.166 122.704 735.166C121.197 735.166 120.169 735.783 119.575 737.039L117.428 736.605L118.753 727.742H127.707V729.752H120.717L119.826 735.211L119.963 735.234C120.397 734.024 121.836 733.247 123.367 733.247C126.382 733.247 128.438 735.371 128.438 738.615C128.438 741.927 126.017 744.097 122.727 744.097C119.552 744.097 117.222 742.293 117.017 739.232H119.347Z" fill="black" fill-opacity="0.5"/>
<defs>
<linearGradient id="paint0_linear_6014_28535" x1="320" y1="0" x2="320" y2="265.507" gradientUnits="userSpaceOnUse">
<stop stop-color="#F5CD9F"/>
<stop offset="1" stop-color="#FDECDA"/>
</linearGradient>
</defs>
</svg>
