<svg width="1401" height="578" viewBox="0 0 1401 578" fill="none" xmlns="http://www.w3.org/2000/svg">
<path d="M276.498 194.371C320.975 177.716 265.378 288.636 318.396 306.249C349.349 316.532 364.825 293.285 364.825 267.689C364.825 237.716 354.508 195.711 377.722 195.711" stroke="black" stroke-width="7.64453"/>
<path d="M478.158 200.155C462.776 194.406 459.854 200.155 458.837 206.235C456.346 221.134 479.132 304.684 409.542 288.562C373.062 280.111 388.187 221.437 388.187 209.276C388.187 198.149 383.082 195.178 372.5 197.095" stroke="black" stroke-width="7.64453"/>
<path d="M183 190.833C191.617 187.152 203.338 187.792 203.338 199.954C203.338 212.115 187.122 265.971 215.225 283.116C233.281 294.131 251.577 288.719 261.655 277.353C280.029 256.63 272.871 232.624 271.972 221.419C270.117 198.283 274.696 193.009 284.869 193.448" stroke="black" stroke-width="7.64453"/>
<path d="M359.585 56.895C348.739 97.771 345.574 136.661 345.574 180.24C345.574 202.536 350.597 232.693 325.173 225.845C290.83 216.595 340.279 93.3793 359.585 56.895Z" fill="black" stroke="black" stroke-width="7.64453" stroke-linejoin="round"/>
<path d="M449.918 56.895C439.071 97.771 435.906 141.803 435.906 185.381C435.906 207.677 440.93 237.834 415.505 230.987C381.162 221.737 430.611 93.3793 449.918 56.895Z" fill="black" stroke="black" stroke-width="7.64453" stroke-linejoin="round"/>
<path d="M264.179 56.895C253.332 97.771 250.168 136.661 250.168 180.24C250.168 202.536 255.191 232.693 229.767 225.845C195.423 216.595 244.872 93.3793 264.179 56.895Z" fill="black" stroke="black" stroke-width="7.64453" stroke-linejoin="round"/>
<path d="M204.441 469.169V426.184H235.083V432.693H212.485V445.282H232.934V451.668H212.485V469.169H204.441ZM240.587 452.835V426.184H248.57V452.589C248.57 459.467 251.886 463.581 259.009 463.581C266.132 463.581 269.448 459.528 269.448 452.589V426.184H277.431V452.835C277.431 464.256 270.124 470.151 259.009 470.151C248.14 470.151 240.587 464.256 240.587 452.835ZM282.277 432.693V426.184H318.385V432.693H304.384V469.169H296.401V432.693H282.277ZM339.368 469.169V426.184H347.413V444.299H367.861V426.184H375.844V469.169H367.861V450.808H347.413V469.169H339.368ZM393 470.151C386.859 470.151 382.315 467.081 382.315 461.37C382.315 455.721 386.306 452.221 393.982 452.221H397.851C403.623 452.221 406.018 450.931 406.018 447.676C406.018 445.282 404.176 442.334 398.527 442.334C393.921 442.334 390.728 444.668 390.114 448.966H382.622C383.42 441.167 389.377 436.5 398.588 436.5C407.86 436.5 413.387 440.676 413.387 447.861V469.169H406.141L406.018 461.186H405.711C404.36 466.406 399.386 470.151 393 470.151ZM389.991 460.695C389.991 463.397 391.833 464.993 395.64 464.993C401.842 464.993 406.018 460.081 406.018 455.23V452.098H405.711C405.097 455.045 402.579 456.396 397.667 456.396H395.026C391.772 456.396 389.991 457.993 389.991 460.695ZM422.133 437.483H429.563V469.169H422.133V437.483ZM421.334 428.456C421.334 426 423.361 423.912 425.817 423.912C428.335 423.912 430.361 425.938 430.361 428.456C430.361 430.974 428.335 432.939 425.817 432.939C423.361 432.939 421.334 430.912 421.334 428.456ZM438.545 469.169V437.483H445.791L446.037 447.369H446.344C447.756 440.369 450.949 436.992 459.485 436.992V443.317C454.941 443.562 451.809 444.422 449.721 446.203C447.142 448.413 446.037 451.914 446.037 457.256V469.169H438.545ZM87.5016 518.693V512.184H123.609V518.693H109.608V555.169H101.625V518.693H87.5016ZM125.453 555.169V523.483H132.699L132.945 533.369H133.252C134.664 526.369 137.857 522.992 146.393 522.992V529.317C141.849 529.562 138.717 530.422 136.629 532.203C134.05 534.413 132.945 537.914 132.945 543.256V555.169H125.453ZM160.445 556.151C154.304 556.151 149.76 553.081 149.76 547.37C149.76 541.721 153.751 538.221 161.427 538.221H165.296C171.068 538.221 173.463 536.931 173.463 533.676C173.463 531.282 171.621 528.334 165.971 528.334C161.366 528.334 158.173 530.668 157.558 534.966H150.067C150.865 527.167 156.822 522.5 166.033 522.5C175.305 522.5 180.832 526.676 180.832 533.861V555.169H173.586L173.463 547.186H173.156C171.805 552.406 166.831 556.151 160.445 556.151ZM157.436 546.695C157.436 549.397 159.278 550.993 163.085 550.993C169.287 550.993 173.463 546.081 173.463 541.23V538.098H173.156C172.542 541.045 170.024 542.396 165.112 542.396H162.471C159.216 542.396 157.436 543.993 157.436 546.695ZM188.959 555.169V523.483H196.205L196.512 531.159H196.881C198.6 525.571 202.653 522.5 208.364 522.5C214.873 522.5 219.97 526.922 219.97 534.475V555.169H212.478V536.563C212.478 531.404 209.96 528.58 204.925 528.58C199.767 528.58 196.512 532.51 196.512 538.712V555.169H188.959ZM241.506 556.151C231.743 556.151 226.216 552.099 225.97 544.853H233.401C233.646 548.598 236.532 550.686 241.629 550.686C245.805 550.686 248.322 549.151 248.322 546.572C248.322 543.931 245.498 542.949 241.936 542.273L238.19 541.598C232.541 540.554 226.707 538.835 226.707 532.203C226.707 526.308 231.865 522.5 240.278 522.5C249.305 522.5 254.709 526.676 254.709 533.799H247.586C247.586 530.176 244.822 527.966 240.524 527.966C236.409 527.966 234.076 529.501 234.076 532.018C234.076 534.598 236.962 535.519 240.708 536.194L244.208 536.87C249.919 537.914 255.753 539.633 255.753 546.265C255.753 552.467 250.472 556.151 241.506 556.151ZM261.7 566.468V523.483H268.946L269.192 530.975H269.499C271.525 525.509 275.701 522.5 281.166 522.5C289.272 522.5 294.921 529.071 294.921 539.387C294.921 549.642 289.272 556.151 281.166 556.151C275.701 556.151 271.525 553.143 269.499 547.739H269.192V566.468H261.7ZM269.192 541.168C269.192 546.511 272.815 550.625 278.28 550.625C283.745 550.625 287.368 546.388 287.368 539.387C287.368 532.326 283.745 528.027 278.28 528.027C272.815 528.027 269.192 532.203 269.192 537.545V541.168ZM301.639 512.184H309.069V555.169H301.639V512.184ZM326.196 556.151C320.055 556.151 315.511 553.081 315.511 547.37C315.511 541.721 319.502 538.221 327.178 538.221H331.047C336.819 538.221 339.214 536.931 339.214 533.676C339.214 531.282 337.372 528.334 331.722 528.334C327.117 528.334 323.924 530.668 323.31 534.966H315.818C316.616 527.167 322.573 522.5 331.784 522.5C341.056 522.5 346.583 526.676 346.583 533.861V555.169H339.337L339.214 547.186H338.907C337.556 552.406 332.582 556.151 326.196 556.151ZM323.187 546.695C323.187 549.397 325.029 550.993 328.836 550.993C335.038 550.993 339.214 546.081 339.214 541.23V538.098H338.907C338.293 541.045 335.775 542.396 330.863 542.396H328.222C324.968 542.396 323.187 543.993 323.187 546.695ZM354.71 555.169V523.483H361.956L362.263 531.159H362.632C364.351 525.571 368.404 522.5 374.115 522.5C380.624 522.5 385.721 526.922 385.721 534.475V555.169H378.229V536.563C378.229 531.404 375.711 528.58 370.676 528.58C365.518 528.58 362.263 532.51 362.263 538.712V555.169H354.71ZM390.335 528.273V523.483H395.555V515.193H402.862V523.483H411.889V528.273H402.985V545.098C402.985 548.537 404.213 549.765 407.406 549.765C408.696 549.765 410.169 549.581 411.827 549.151V554.616C409.801 555.23 407.775 555.599 405.871 555.599C398.563 555.599 395.555 552.958 395.555 546.019V528.273H390.335ZM452.499 556.151C439.664 556.151 431.436 547.554 431.436 533.615C431.436 519.614 439.664 511.201 452.499 511.201C463.429 511.201 470.491 517.281 472.21 526.43H463.859C462.446 521.272 458.455 517.772 452.437 517.772C444.761 517.772 439.726 523.667 439.726 533.615C439.726 543.502 444.761 549.581 452.683 549.581C459.315 549.581 463.368 545.037 464.227 538.896H472.456C471.473 549.151 464.166 556.151 452.499 556.151ZM488.948 556.151C482.808 556.151 478.264 553.081 478.264 547.37C478.264 541.721 482.255 538.221 489.931 538.221H493.8C499.572 538.221 501.967 536.931 501.967 533.676C501.967 531.282 500.125 528.334 494.475 528.334C489.87 528.334 486.676 530.668 486.062 534.966H478.571C479.369 527.167 485.325 522.5 494.536 522.5C503.809 522.5 509.336 526.676 509.336 533.861V555.169H502.09L501.967 547.186H501.66C500.309 552.406 495.335 556.151 488.948 556.151ZM485.939 546.695C485.939 549.397 487.782 550.993 491.589 550.993C497.791 550.993 501.967 546.081 501.967 541.23V538.098H501.66C501.046 541.045 498.528 542.396 493.615 542.396H490.975C487.72 542.396 485.939 543.993 485.939 546.695ZM517.463 555.169V523.483H524.709L524.955 533.369H525.262C526.674 526.369 529.867 522.992 538.403 522.992V529.317C533.859 529.562 530.727 530.422 528.639 532.203C526.06 534.413 524.955 537.914 524.955 543.256V555.169H517.463ZM557.577 556.151C547.629 556.151 540.997 550.379 540.997 539.203C540.997 528.948 547.445 522.5 557.209 522.5C566.297 522.5 572.929 529.01 572.929 538.221C572.929 539.08 572.867 539.879 572.745 540.738H548.243C548.366 546.879 552.235 550.318 557.577 550.318C561.998 550.318 565.007 547.677 565.867 544.116H572.622C571.639 551.914 564.639 556.151 557.577 556.151ZM548.243 536.501H565.56C565.253 531.527 562.121 528.334 557.086 528.334C552.173 528.334 548.612 531.22 548.243 536.501Z" fill="black"/>
<path d="M932 233.506C957.536 236.051 983.071 233.506 1000.95 225.871C1011.77 221.25 1026.48 222.053 1026.48 237.323C1026.48 252.592 1021.37 303.932 1053.29 313.671C1115.86 332.757 1106.34 252.211 1109.47 233.506C1110.75 225.871 1114.42 218.653 1133.73 225.871C1154.16 233.505 1180.55 233.506 1210.34 233.506" stroke="black" stroke-width="7.64453"/>
<path d="M1118.41 50.2673C1104.79 101.59 1081.39 176.241 1081.39 230.957C1081.39 258.951 1094.17 296.815 1062.25 288.217C1019.13 276.603 1094.17 96.0759 1118.41 50.2673Z" fill="black" stroke="black" stroke-width="7.64453" stroke-linejoin="round"/>
<ellipse cx="1150.34" cy="169.874" rx="11.4911" ry="11.4521" fill="black"/>
<ellipse cx="976.671" cy="202.959" rx="11.4911" ry="11.4521" fill="black"/>
<ellipse cx="1114.58" cy="200.414" rx="8.9375" ry="8.90722" fill="black"/>
<path d="M827.3 470.151C814.466 470.151 806.238 461.554 806.238 447.615C806.238 433.614 814.466 425.201 827.3 425.201C838.231 425.201 845.293 431.281 847.012 440.43H838.661C837.248 435.272 833.257 431.772 827.239 431.772C819.563 431.772 814.528 437.667 814.528 447.615C814.528 457.502 819.563 463.581 827.484 463.581C834.116 463.581 838.169 459.037 839.029 452.896H847.258C846.275 463.151 838.968 470.151 827.3 470.151ZM853.825 426.184H861.255V469.169H853.825V426.184ZM870.215 437.483H877.645V469.169H870.215V437.483ZM869.417 428.456C869.417 426 871.443 423.912 873.9 423.912C876.417 423.912 878.444 425.938 878.444 428.456C878.444 430.974 876.417 432.939 873.9 432.939C871.443 432.939 869.417 430.912 869.417 428.456ZM886.628 469.169V437.483H893.874L894.181 445.159H894.549C896.269 439.571 900.321 436.5 906.032 436.5C912.541 436.5 917.638 440.922 917.638 448.475V469.169H910.147V450.563C910.147 445.404 907.629 442.58 902.593 442.58C897.435 442.58 894.181 446.51 894.181 452.712V469.169H886.628ZM926.525 437.483H933.955V469.169H926.525V437.483ZM925.727 428.456C925.727 426 927.753 423.912 930.209 423.912C932.727 423.912 934.754 425.938 934.754 428.456C934.754 430.974 932.727 432.939 930.209 432.939C927.753 432.939 925.727 430.912 925.727 428.456ZM956.176 470.151C947.088 470.151 940.026 464.318 940.026 453.08C940.026 442.764 946.781 436.5 956.176 436.5C964.589 436.5 970.484 441.29 971.466 448.966H963.975C963.361 444.729 960.413 442.395 956.176 442.395C950.895 442.395 947.64 446.448 947.64 452.957C947.64 460.142 951.018 464.256 956.176 464.256C960.781 464.256 963.545 461.493 964.036 457.072H971.528C970.852 465.485 964.282 470.151 956.176 470.151ZM987.884 470.151C981.743 470.151 977.199 467.081 977.199 461.37C977.199 455.721 981.19 452.221 988.866 452.221H992.735C998.507 452.221 1000.9 450.931 1000.9 447.676C1000.9 445.282 999.06 442.334 993.41 442.334C988.805 442.334 985.612 444.668 984.997 448.966H977.506C978.304 441.167 984.261 436.5 993.472 436.5C1002.74 436.5 1008.27 440.676 1008.27 447.861V469.169H1001.02L1000.9 461.186H1000.59C999.244 466.406 994.27 470.151 987.884 470.151ZM984.875 460.695C984.875 463.397 986.717 464.993 990.524 464.993C996.726 464.993 1000.9 460.081 1000.9 455.23V452.098H1000.59C999.981 455.045 997.463 456.396 992.551 456.396H989.91C986.655 456.396 984.875 457.993 984.875 460.695ZM1016.22 426.184H1023.65V469.169H1016.22V426.184ZM1046.87 469.169V426.184H1067.93C1076.53 426.184 1081.57 430.237 1081.57 436.93C1081.57 443.01 1077.27 447.308 1071.93 447.799V448.229C1077.08 448.598 1079.36 450.87 1080.34 456.458L1082.61 469.169H1074.38L1072.66 458.791C1071.93 454.124 1070.39 453.08 1065.05 453.08H1054.92V469.169H1046.87ZM1054.92 447.124H1065.66C1070.51 447.124 1073.71 444.115 1073.71 439.509C1073.71 435.211 1070.76 432.693 1065.79 432.693H1054.92V447.124ZM1103.95 470.151C1094 470.151 1087.37 464.379 1087.37 453.203C1087.37 442.948 1093.81 436.5 1103.58 436.5C1112.67 436.5 1119.3 443.01 1119.3 452.221C1119.3 453.08 1119.24 453.879 1119.11 454.738H1094.61C1094.74 460.879 1098.6 464.318 1103.95 464.318C1108.37 464.318 1111.38 461.677 1112.24 458.116H1118.99C1118.01 465.914 1111.01 470.151 1103.95 470.151ZM1094.61 450.501H1111.93C1111.62 445.527 1108.49 442.334 1103.46 442.334C1098.54 442.334 1094.98 445.22 1094.61 450.501ZM1139.42 457.502C1137.03 457.502 1134.88 457.195 1133.04 456.58C1131.44 457.256 1130.58 458.484 1130.58 459.651C1130.58 461.247 1131.93 462.598 1134.39 462.598H1146.18C1152.38 462.598 1156 465.73 1156 470.888C1156 477.582 1150.6 480.959 1139.42 480.959C1128.92 480.959 1124.13 478.441 1124.13 473.774C1124.13 470.95 1126.4 469.046 1129.47 468.125V467.757C1126.65 466.897 1125.05 465.055 1125.05 462.414C1125.05 459.528 1127.2 457.256 1131.01 456.028V455.659C1127.63 453.879 1125.79 450.808 1125.79 446.878C1125.79 441.474 1129.04 437.913 1136.9 436.378L1156.25 432.693V438.588L1145.26 436.869L1145.19 437.237C1149.8 438.527 1152.99 442.027 1152.99 446.878C1152.99 453.326 1147.96 457.502 1139.42 457.502ZM1129.66 471.38C1129.66 474.082 1132.36 475.371 1139.48 475.371C1145.75 475.371 1149.12 473.836 1149.12 471.195C1149.12 469.353 1147.53 468.309 1144.95 468.309H1133.59C1133.1 468.309 1132.67 468.309 1132.18 468.248C1130.58 468.985 1129.66 470.213 1129.66 471.38ZM1132.79 446.878C1132.79 450.071 1135.25 452.036 1139.42 452.036C1143.54 452.036 1145.99 450.071 1145.99 446.878C1145.99 443.746 1143.54 441.781 1139.42 441.781C1135.25 441.781 1132.79 443.746 1132.79 446.878ZM1162.42 469.169V437.483H1169.67L1169.91 447.369H1170.22C1171.63 440.369 1174.82 436.992 1183.36 436.992V443.317C1178.82 443.562 1175.68 444.422 1173.6 446.203C1171.02 448.413 1169.91 451.914 1169.91 457.256V469.169H1162.42ZM1203.03 470.151C1193.75 470.151 1185.95 463.642 1185.95 453.203C1185.95 443.01 1193.75 436.5 1203.03 436.5C1212.3 436.5 1220.03 443.01 1220.03 453.203C1220.03 463.642 1212.3 470.151 1203.03 470.151ZM1193.57 453.203C1193.57 460.326 1197.31 464.256 1203.03 464.256C1208.74 464.256 1212.48 460.326 1212.48 453.203C1212.48 446.264 1208.74 442.395 1203.03 442.395C1197.31 442.395 1193.57 446.264 1193.57 453.203ZM1233.31 469.169L1222.14 437.483H1230.12L1233.07 446.08C1234.73 451.115 1235.95 454.677 1237.55 460.204H1237.86C1239.39 454.431 1240.38 450.931 1241.79 446.018L1244.31 437.483H1251.18L1253.7 446.018C1255.11 450.931 1256.1 454.431 1257.63 460.204H1257.94C1259.53 454.677 1260.76 451.115 1262.42 446.08L1265.37 437.483H1273.35L1262.17 469.169H1254.56L1247.87 446.51H1247.62L1240.93 469.169H1233.31ZM1276 442.273V437.483H1281.22V429.193H1288.53V437.483H1297.56V442.273H1288.65V459.098C1288.65 462.537 1289.88 463.765 1293.07 463.765C1294.36 463.765 1295.84 463.581 1297.5 463.151V468.616C1295.47 469.23 1293.44 469.599 1291.54 469.599C1284.23 469.599 1281.22 466.958 1281.22 460.019V442.273H1276ZM1303.88 469.169V426.184H1311.44V445.159H1311.81C1313.52 439.571 1317.58 436.5 1323.29 436.5C1329.8 436.5 1334.89 440.922 1334.89 448.475V469.169H1327.4V450.563C1327.4 445.404 1324.89 442.58 1319.85 442.58C1314.69 442.58 1311.44 446.51 1311.44 452.712V469.169H1303.88ZM895.721 518.693V512.184H931.828V518.693H917.827V555.169H909.845V518.693H895.721ZM933.672 555.169V523.483H940.918L941.164 533.369H941.471C942.883 526.369 946.077 522.992 954.612 522.992V529.317C950.068 529.562 946.936 530.422 944.848 532.203C942.269 534.413 941.164 537.914 941.164 543.256V555.169H933.672ZM973.787 556.151C963.839 556.151 957.207 550.379 957.207 539.203C957.207 528.948 963.654 522.5 973.418 522.5C982.506 522.5 989.138 529.01 989.138 538.221C989.138 539.08 989.077 539.879 988.954 540.738H964.453C964.576 546.879 968.444 550.318 973.787 550.318C978.208 550.318 981.217 547.677 982.077 544.116H988.831C987.849 551.914 980.848 556.151 973.787 556.151ZM964.453 536.501H981.769C981.462 531.527 978.331 528.334 973.295 528.334C968.383 528.334 964.821 531.22 964.453 536.501ZM1005.54 556.151C999.403 556.151 994.859 553.081 994.859 547.37C994.859 541.721 998.851 538.221 1006.53 538.221H1010.4C1016.17 538.221 1018.56 536.931 1018.56 533.676C1018.56 531.282 1016.72 528.334 1011.07 528.334C1006.47 528.334 1003.27 530.668 1002.66 534.966H995.166C995.965 527.167 1001.92 522.5 1011.13 522.5C1020.4 522.5 1025.93 526.676 1025.93 533.861V555.169H1018.69L1018.56 547.186H1018.26C1016.9 552.406 1011.93 556.151 1005.54 556.151ZM1002.54 546.695C1002.54 549.397 1004.38 550.993 1008.18 550.993C1014.39 550.993 1018.56 546.081 1018.56 541.23V538.098H1018.26C1017.64 541.045 1015.12 542.396 1010.21 542.396H1007.57C1004.32 542.396 1002.54 543.993 1002.54 546.695ZM1030.7 528.273V523.483H1035.92V515.193H1043.23V523.483H1052.26V528.273H1043.35V545.098C1043.35 548.537 1044.58 549.765 1047.78 549.765C1049.06 549.765 1050.54 549.581 1052.2 549.151V554.616C1050.17 555.23 1048.14 555.599 1046.24 555.599C1038.93 555.599 1035.92 552.958 1035.92 546.019V528.273H1030.7ZM1058.65 555.169L1058.59 523.483H1065.83L1066.14 531.282H1066.51C1068.1 525.632 1071.97 522.5 1077.31 522.5C1082.84 522.5 1086.83 526.001 1087.82 531.282H1088.37C1089.96 525.632 1093.96 522.5 1099.3 522.5C1105.75 522.5 1110.11 527.229 1110.11 534.106V555.169H1102.68V536.563C1102.68 531.65 1100.04 528.641 1095.8 528.641C1091.07 528.641 1088.12 532.51 1088.12 538.712V555.169H1080.63V536.563C1080.63 531.65 1077.99 528.641 1073.75 528.641C1069.33 528.641 1066.14 532.141 1066.14 538.528V555.169H1058.65ZM1133.42 556.151C1123.47 556.151 1116.84 550.379 1116.84 539.203C1116.84 528.948 1123.29 522.5 1133.05 522.5C1142.14 522.5 1148.77 529.01 1148.77 538.221C1148.77 539.08 1148.71 539.879 1148.59 540.738H1124.09C1124.21 546.879 1128.08 550.318 1133.42 550.318C1137.84 550.318 1140.85 547.677 1141.71 544.116H1148.47C1147.48 551.914 1140.48 556.151 1133.42 556.151ZM1124.09 536.501H1141.4C1141.1 531.527 1137.97 528.334 1132.93 528.334C1128.02 528.334 1124.46 531.22 1124.09 536.501ZM1155.61 555.169V523.483H1162.86L1163.17 531.159H1163.53C1165.25 525.571 1169.31 522.5 1175.02 522.5C1181.53 522.5 1186.62 526.922 1186.62 534.475V555.169H1179.13V536.563C1179.13 531.404 1176.61 528.58 1171.58 528.58C1166.42 528.58 1163.17 532.51 1163.17 538.712V555.169H1155.61ZM1191.24 528.273V523.483H1196.46V515.193H1203.77V523.483H1212.79V528.273H1203.89V545.098C1203.89 548.537 1205.12 549.765 1208.31 549.765C1209.6 549.765 1211.07 549.581 1212.73 549.151V554.616C1210.7 555.23 1208.68 555.599 1206.77 555.599C1199.47 555.599 1196.46 552.958 1196.46 546.019V528.273H1191.24ZM1232.51 556.151C1222.74 556.151 1217.22 552.099 1216.97 544.853H1224.4C1224.65 548.598 1227.53 550.686 1232.63 550.686C1236.81 550.686 1239.32 549.151 1239.32 546.572C1239.32 543.931 1236.5 542.949 1232.94 542.273L1229.19 541.598C1223.54 540.554 1217.71 538.835 1217.71 532.203C1217.71 526.308 1222.87 522.5 1231.28 522.5C1240.31 522.5 1245.71 526.676 1245.71 533.799H1238.59C1238.59 530.176 1235.82 527.966 1231.53 527.966C1227.41 527.966 1225.08 529.501 1225.08 532.018C1225.08 534.598 1227.96 535.519 1231.71 536.194L1235.21 536.87C1240.92 537.914 1246.75 539.633 1246.75 546.265C1246.75 552.467 1241.47 556.151 1232.51 556.151Z" fill="black"/>
</svg>
