<svg width="204" height="120" viewBox="0 0 204 120" fill="none" xmlns="http://www.w3.org/2000/svg">
<rect width="182" height="20" transform="translate(0.861328)" fill="#D7C6FF"/>
<path d="M12.4669 13.2093C10.523 13.2093 8.8931 11.5346 8.8931 9.50093C8.8931 7.46729 10.523 5.79252 12.4669 5.79252C14.4258 5.79252 15.8912 7.58692 15.8912 9.50093C15.8912 11.415 14.4258 13.2093 12.4669 13.2093ZM12.5866 12.043C13.9324 12.043 15.0539 10.8916 15.0539 9.50093C15.0539 8.12523 13.9324 6.95888 12.5866 6.95888C11.2408 6.95888 10.1193 8.14019 10.1193 9.50093C10.1193 10.8766 11.2408 12.043 12.5866 12.043ZM14.9492 13V10.5178L15.2782 9.50093L14.9492 8.40935V6.00187H16.1604V13H14.9492ZM14.9492 13L15.338 11.8486H17.5211V13H14.9492ZM20.7376 13V6.00187H21.9039V7.87103L21.9488 8.66355V13H20.7376ZM21.2908 9.15701C21.2908 7.60187 22.2329 5.79252 24.0572 5.79252C25.6871 5.79252 26.8983 7.03364 26.8983 9.14206V13H25.702V9.15701C25.702 7.73645 24.8946 6.95888 23.8179 6.95888C22.8011 6.95888 21.9488 7.7215 21.9488 9.15701H21.2908ZM19.3768 7.16822V6.00187H21.9039L21.5301 7.16822H19.3768ZM19.3768 13V11.8486H21.56L21.9488 13H19.3768ZM20.7376 13L21.1114 11.8486H23.2048V13H20.7376ZM24.446 13V11.8486H26.5394L26.8983 13H24.446ZM25.702 13L26.0908 11.8486H28.274V13H25.702ZM47.8807 11.6991C47.1928 12.5963 45.8919 13.2093 44.4863 13.2093C42.4825 13.2093 40.8078 11.5495 40.8078 9.50093C40.8078 7.48224 42.4676 5.79252 44.4863 5.79252C46.505 5.79252 48.1947 7.43738 48.1947 9.45607C48.1947 9.63551 48.1498 9.84486 48.09 10.0093H41.4807V8.94766H47.3124L46.9536 9.47103C46.9536 8.05047 45.8171 6.95888 44.4863 6.95888C43.0956 6.95888 42.0339 8.09533 42.0339 9.50093C42.0339 10.8916 43.1255 12.043 44.5909 12.043C45.6078 12.043 46.5199 11.5944 46.9984 10.9514L47.8807 11.6991ZM58.0503 13L54.5961 9.85981L51.127 6.62991L51.1868 6.00187H51.8746L55.3438 9.20187L58.798 12.357L58.7232 13H58.0503ZM51.8746 13H51.2017L51.127 12.357L54.5961 9.20187L58.0503 6.00187H58.7382L58.798 6.62991L55.3438 9.85981L51.8746 13ZM50.8578 7.16822V6.00187H51.8746L51.7401 7.16822H50.8578ZM51.5905 7.16822L51.127 6.00187H54.1176V7.16822H51.5905ZM55.8074 7.16822V6.00187H58.798L58.3345 7.16822H55.8074ZM58.1849 7.16822L58.0503 6.00187H59.0672V7.16822H58.1849ZM50.8578 13V11.8486H51.7401L51.8746 13H50.8578ZM51.127 13L51.5905 11.8486H54.1176V13H51.127ZM55.8074 13V11.8486H58.3345L58.798 13H55.8074ZM58.0503 13L58.1849 11.8486H59.0672V13H58.0503ZM61.9995 9.51589C61.9995 7.43738 63.7041 5.79252 65.8425 5.79252C67.0836 5.79252 68.1303 6.1514 69.0425 6.95888L68.0855 7.7215C67.3527 7.10841 66.7098 6.95888 65.8724 6.95888C64.4219 6.95888 63.2256 8.11028 63.2256 9.53084C63.2256 10.9364 64.3322 12.043 65.8275 12.043C66.7995 12.043 67.7565 11.5645 68.235 10.8916L69.1172 11.6393C68.4443 12.5664 67.0686 13.2093 65.7228 13.2093C63.6892 13.2093 61.9995 11.5645 61.9995 9.51589ZM69.0425 6.95888V9.05234H67.8163V7.2729L69.0425 6.95888ZM79.2869 11.6991C78.5991 12.5963 77.2981 13.2093 75.8925 13.2093C73.8888 13.2093 72.214 11.5495 72.214 9.50093C72.214 7.48224 73.8738 5.79252 75.8925 5.79252C77.9112 5.79252 79.6009 7.43738 79.6009 9.45607C79.6009 9.63551 79.5561 9.84486 79.4963 10.0093H72.8869V8.94766H78.7187L78.3598 9.47103C78.3598 8.05047 77.2234 6.95888 75.8925 6.95888C74.5019 6.95888 73.4402 8.09533 73.4402 9.50093C73.4402 10.8916 74.5318 12.043 75.9972 12.043C77.014 12.043 77.9262 11.5944 78.4047 10.9514L79.2869 11.6991ZM86.9893 13.2093C85.0304 13.2093 83.565 11.415 83.565 9.50093C83.565 7.58692 85.0304 5.79252 86.9893 5.79252C88.9332 5.79252 90.5631 7.46729 90.5631 9.50093C90.5631 11.5346 88.9332 13.2093 86.9893 13.2093ZM86.8697 12.043C88.2155 12.043 89.337 10.8766 89.337 9.50093C89.337 8.14019 88.2155 6.95888 86.8697 6.95888C85.5239 6.95888 84.4024 8.12523 84.4024 9.50093C84.4024 10.8916 85.5239 12.043 86.8697 12.043ZM83.2958 17.1271V6.00187H84.5071V8.40935L84.1781 9.51589L84.5071 10.8168V17.1271H83.2958ZM81.9351 7.16822V6.00187H84.5071L84.1183 7.16822H81.9351ZM81.9351 17.1271V15.9757H84.1183L84.5071 17.1271H81.9351ZM83.2809 17.1271L83.7744 15.9757H86.5856V17.1271H83.2809ZM97.6524 13.2093C96.1422 13.2093 95.0655 12.0879 95.0655 10.6075V3.54953H96.2767V10.5776C96.2767 11.4449 96.845 12.043 97.6524 12.043C98.43 12.043 99.0282 11.4449 99.0282 10.5776V9.41121H100.224V10.5776C100.224 12.0879 99.1328 13.2093 97.6524 13.2093ZM92.8973 7.16822V6.00187H96.2767L95.7683 7.16822H92.8973ZM95.6487 7.16822L95.0655 6.00187H98.8936V7.16822H95.6487ZM104.233 13V11.8486H107.643L108.241 13H104.233ZM107.03 13L107.643 11.8486H111.052V13H107.03ZM104.233 7.16822V6.00187H108.241L107.643 7.16822H104.233ZM107.03 13V6.00187H108.241V13H107.03ZM107.673 4.34206C107.03 4.34206 106.491 3.83364 106.491 3.1757C106.491 2.51776 107.03 1.99439 107.673 1.99439C108.301 1.99439 108.839 2.51776 108.839 3.1757C108.839 3.83364 108.301 4.34206 107.673 4.34206ZM117.782 13.2093C115.674 13.2093 114.119 11.5047 114.119 9.50093C114.119 7.4972 115.749 5.79252 117.782 5.79252C119.801 5.79252 121.431 7.4972 121.431 9.50093C121.431 11.5047 119.876 13.2093 117.782 13.2093ZM117.782 12.043C119.143 12.043 120.205 10.9065 120.205 9.50093C120.205 8.09533 119.143 6.95888 117.782 6.95888C116.407 6.95888 115.345 8.09533 115.345 9.50093C115.345 10.9065 116.407 12.043 117.782 12.043ZM125.425 13V6.00187H126.591V7.87103L126.636 8.66355V13H125.425ZM125.978 9.15701C125.978 7.60187 126.92 5.79252 128.745 5.79252C130.375 5.79252 131.586 7.03364 131.586 9.14206V13H130.39V9.15701C130.39 7.73645 129.582 6.95888 128.505 6.95888C127.489 6.95888 126.636 7.7215 126.636 9.15701H125.978ZM124.064 7.16822V6.00187H126.591L126.218 7.16822H124.064ZM124.064 13V11.8486H126.247L126.636 13H124.064ZM125.425 13L125.799 11.8486H127.892V13H125.425ZM129.133 13V11.8486H131.227L131.586 13H129.133ZM130.39 13L130.778 11.8486H132.962V13H130.39ZM138.092 13.2093C136.148 13.2093 134.518 11.5346 134.518 9.50093C134.518 7.46729 136.148 5.79252 138.092 5.79252C140.051 5.79252 141.516 7.58692 141.516 9.50093C141.516 11.415 140.051 13.2093 138.092 13.2093ZM138.212 12.043C139.557 12.043 140.679 10.8916 140.679 9.50093C140.679 8.12523 139.557 6.95888 138.212 6.95888C136.866 6.95888 135.744 8.14019 135.744 9.50093C135.744 10.8766 136.866 12.043 138.212 12.043ZM140.574 13V10.5178L140.903 9.50093L140.574 8.40935V6.00187H141.785V13H140.574ZM140.574 13L140.963 11.8486H143.146V13H140.574ZM148.89 13V2.0542H150.101V13H148.89ZM146.078 13V11.8486H149.488L150.101 13H146.078ZM148.89 13L149.488 11.8486H152.897V13H148.89ZM146.093 3.22056V2.0542H150.101L149.488 3.22056H146.093ZM172.818 8.12523L173.894 8.79813C173.894 11.2206 172.025 13.1794 169.618 13.1794C167.539 13.1794 166.119 12.1028 166.119 10.2486C166.119 8.99252 166.747 7.99065 168.437 7.2729L168.721 8.09533C167.674 8.63364 167.39 9.39626 167.39 10.1439C167.39 11.2804 168.362 11.9832 169.618 11.9832C171.517 11.9832 172.818 10.443 172.818 8.12523ZM172.893 13L167.943 7.64673L169.139 7.13832L174.597 13H172.893ZM170.395 5.50841C170.395 4.98505 169.902 4.50654 169.244 4.50654C168.646 4.50654 168.152 4.92523 168.152 5.50841C168.152 5.8972 168.302 6.24112 168.721 6.67477L168.975 6.95888L169.229 6.85421C169.962 6.55514 170.395 6.16636 170.395 5.50841ZM171.651 5.55327C171.651 6.43551 170.904 7.21308 169.887 7.58692L168.392 8.12523L167.674 7.36262C167.18 6.85421 166.896 6.34579 166.896 5.65794C166.896 4.37196 167.928 3.34019 169.244 3.34019C170.605 3.34019 171.651 4.34206 171.651 5.55327Z" fill="#363131"/>
<rect width="203" height="20" transform="translate(0.861328 25)" fill="#D7C6FF"/>
<path d="M12.437 38L9.14731 31.0019H10.4931L13.2744 36.9981H12.9006L15.6819 31.0019H17.0277L13.738 38H12.437ZM13.8127 32.1682V31.0019H17.0277L16.5492 32.1682H13.8127ZM15.981 32.1682L15.6819 31.0019H17.6707V32.1682H15.981ZM8.50432 32.1682V31.0019H10.4931L10.194 32.1682H8.50432ZM9.62581 32.1682L9.14731 31.0019H12.3623V32.1682H9.62581ZM26.9432 36.6991C26.2553 37.5963 24.9544 38.2093 23.5488 38.2093C21.545 38.2093 19.8703 36.5495 19.8703 34.5009C19.8703 32.4822 21.5301 30.7925 23.5488 30.7925C25.5675 30.7925 27.2572 32.4374 27.2572 34.4561C27.2572 34.6355 27.2123 34.8449 27.1525 35.0093H20.5432V33.9477H26.3749L26.0161 34.471C26.0161 33.0505 24.8796 31.9589 23.5488 31.9589C22.1581 31.9589 21.0964 33.0953 21.0964 34.5009C21.0964 35.8916 22.188 37.043 23.6534 37.043C24.6703 37.043 25.5824 36.5944 26.0609 35.9514L26.9432 36.6991ZM33.3446 34.2617C33.3446 32.3178 34.4362 30.7925 36.111 30.7925C36.739 30.7925 37.397 30.972 37.9054 31.4953V32.7215C37.382 32.1682 36.7091 31.9589 36.111 31.9589C34.9596 31.9589 34.0026 33.0056 34.0026 34.2617H33.3446ZM32.7914 38V31.0019H33.9577V32.4673L34.0026 33.2598V38H32.7914ZM30.8773 32.1682V31.0019H33.9577L33.4942 32.1682H30.8773ZM30.8773 38V36.8486H33.5241L34.0026 38H30.8773ZM32.7914 38L33.3297 36.8486H36.3353V38H32.7914ZM44.4414 38.2093C43.2003 38.2093 41.9592 37.9103 41.0022 37.4467L41.6751 36.4449C42.333 36.9234 43.3797 37.1028 44.4713 37.1028C46.0265 37.1028 46.7741 36.6991 46.7741 36.0561C46.7741 35.5327 46.3106 35.2187 44.9797 35.0243L43.7984 34.8748C42.1835 34.6505 41.1816 34.1869 41.1816 32.9458C41.1816 31.585 42.5274 30.7925 44.5012 30.7925C45.6377 30.7925 46.8339 31.0318 47.7461 31.5402L47.1779 32.4374C46.2807 32.0785 45.3386 31.8991 44.3218 31.8991C43.0508 31.8991 42.3779 32.2879 42.3779 32.8262C42.3779 33.3794 42.8863 33.5738 44.0377 33.7383L45.1891 33.8879C47.133 34.1421 48.0003 34.9047 48.0003 35.9813C48.0003 37.372 46.5349 38.2093 44.4414 38.2093ZM47.7461 31.5402V33.0355H46.5498V31.7495L47.7461 31.5402ZM41.0022 37.4467V35.9514H42.1984V37.2224L41.0022 37.4467ZM54.3419 38.2093C52.398 38.2093 50.7681 36.5346 50.7681 34.5009C50.7681 32.4673 52.398 30.7925 54.3419 30.7925C56.3008 30.7925 57.7662 32.5869 57.7662 34.5009C57.7662 36.415 56.3008 38.2093 54.3419 38.2093ZM54.4616 37.043C55.8074 37.043 56.9289 35.8916 56.9289 34.5009C56.9289 33.1252 55.8074 31.9589 54.4616 31.9589C53.1158 31.9589 51.9943 33.1402 51.9943 34.5009C51.9943 35.8766 53.1158 37.043 54.4616 37.043ZM56.8242 38V35.5178L57.1532 34.5009L56.8242 33.4093V31.0019H58.0354V38H56.8242ZM56.8242 38L57.213 36.8486H59.3961V38H56.8242ZM66.2462 38.2093C64.7359 38.2093 63.6593 37.0879 63.6593 35.6075V28.5495H64.8705V35.5776C64.8705 36.4449 65.4387 37.043 66.2462 37.043C67.0238 37.043 67.6219 36.4449 67.6219 35.5776V34.4112H68.8182V35.5776C68.8182 37.0879 67.7266 38.2093 66.2462 38.2093ZM61.4911 32.1682V31.0019H64.8705L64.3621 32.1682H61.4911ZM64.2425 32.1682L63.6593 31.0019H67.4873V32.1682H64.2425ZM72.8271 38V36.8486H76.2364L76.8346 38H72.8271ZM75.6234 38L76.2364 36.8486H79.6458V38H75.6234ZM72.8271 32.1682V31.0019H76.8346L76.2364 32.1682H72.8271ZM75.6234 38V31.0019H76.8346V38H75.6234ZM76.2664 29.3421C75.6234 29.3421 75.085 28.8336 75.085 28.1757C75.085 27.5178 75.6234 26.9944 76.2664 26.9944C76.8944 26.9944 77.4327 27.5178 77.4327 28.1757C77.4327 28.8336 76.8944 29.3421 76.2664 29.3421ZM86.0772 38V27.0542H87.2884V38H86.0772ZM83.2659 38V36.8486H86.6753L87.2884 38H83.2659ZM86.0772 38L86.6753 36.8486H90.0846V38H86.0772ZM83.2809 28.2206V27.0542H87.2884L86.6753 28.2206H83.2809ZM100.224 36.6991C99.5366 37.5963 98.2356 38.2093 96.83 38.2093C94.8263 38.2093 93.1515 36.5495 93.1515 34.5009C93.1515 32.4822 94.8113 30.7925 96.83 30.7925C98.8487 30.7925 100.538 32.4374 100.538 34.4561C100.538 34.6355 100.494 34.8449 100.434 35.0093H93.8244V33.9477H99.6562L99.2973 34.471C99.2973 33.0505 98.1609 31.9589 96.83 31.9589C95.4394 31.9589 94.3777 33.0953 94.3777 34.5009C94.3777 35.8916 95.4693 37.043 96.9347 37.043C97.9515 37.043 98.8637 36.5944 99.3422 35.9514L100.224 36.6991ZM114.343 34.5159C114.343 32.4374 116.048 30.7925 118.186 30.7925C119.427 30.7925 120.474 31.1514 121.386 31.9589L120.429 32.7215C119.696 32.1084 119.054 31.9589 118.216 31.9589C116.766 31.9589 115.569 33.1103 115.569 34.5308C115.569 35.9364 116.676 37.043 118.171 37.043C119.143 37.043 120.1 36.5645 120.579 35.8916L121.461 36.6393C120.788 37.5664 119.412 38.2093 118.067 38.2093C116.033 38.2093 114.343 36.5645 114.343 34.5159ZM121.386 31.9589V34.0523H120.16V32.2729L121.386 31.9589ZM127.563 34.2617C127.563 32.3178 128.655 30.7925 130.33 30.7925C130.958 30.7925 131.616 30.972 132.124 31.4953V32.7215C131.601 32.1682 130.928 31.9589 130.33 31.9589C129.178 31.9589 128.221 33.0056 128.221 34.2617H127.563ZM127.01 38V31.0019H128.176V32.4673L128.221 33.2598V38H127.01ZM125.096 32.1682V31.0019H128.176L127.713 32.1682H125.096ZM125.096 38V36.8486H127.743L128.221 38H125.096ZM127.01 38L127.548 36.8486H130.554V38H127.01ZM142.099 36.6991C141.412 37.5963 140.111 38.2093 138.705 38.2093C136.701 38.2093 135.027 36.5495 135.027 34.5009C135.027 32.4822 136.686 30.7925 138.705 30.7925C140.724 30.7925 142.413 32.4374 142.413 34.4561C142.413 34.6355 142.369 34.8449 142.309 35.0093H135.699V33.9477H141.531L141.172 34.471C141.172 33.0505 140.036 31.9589 138.705 31.9589C137.314 31.9589 136.253 33.0953 136.253 34.5009C136.253 35.8916 137.344 37.043 138.81 37.043C139.827 37.043 140.739 36.5944 141.217 35.9514L142.099 36.6991ZM148.561 38.2093C146.617 38.2093 144.987 36.5346 144.987 34.5009C144.987 32.4673 146.617 30.7925 148.561 30.7925C150.52 30.7925 151.985 32.5869 151.985 34.5009C151.985 36.415 150.52 38.2093 148.561 38.2093ZM148.68 37.043C150.026 37.043 151.148 35.8916 151.148 34.5009C151.148 33.1252 150.026 31.9589 148.68 31.9589C147.335 31.9589 146.213 33.1402 146.213 34.5009C146.213 35.8766 147.335 37.043 148.68 37.043ZM151.043 38V35.5178L151.372 34.5009L151.043 33.4093V31.0019H152.254V38H151.043ZM151.043 38L151.432 36.8486H153.615V38H151.043ZM160.465 38.2093C158.955 38.2093 157.878 37.0879 157.878 35.6075V28.5495H159.089V35.5776C159.089 36.4449 159.657 37.043 160.465 37.043C161.243 37.043 161.841 36.4449 161.841 35.5776V34.4112H163.037V35.5776C163.037 37.0879 161.945 38.2093 160.465 38.2093ZM155.71 32.1682V31.0019H159.089L158.581 32.1682H155.71ZM158.461 32.1682L157.878 31.0019H161.706V32.1682H158.461ZM167.046 38V36.8486H170.455L171.053 38H167.046ZM169.842 38L170.455 36.8486H173.865V38H169.842ZM167.046 32.1682V31.0019H171.053L170.455 32.1682H167.046ZM169.842 38V31.0019H171.053V38H169.842ZM170.485 29.3421C169.842 29.3421 169.304 28.8336 169.304 28.1757C169.304 27.5178 169.842 26.9944 170.485 26.9944C171.113 26.9944 171.651 27.5178 171.651 28.1757C171.651 28.8336 171.113 29.3421 170.485 29.3421ZM179.937 38L176.647 31.0019H177.993L180.774 36.9981H180.401L183.182 31.0019H184.528L181.238 38H179.937ZM181.313 32.1682V31.0019H184.528L184.049 32.1682H181.313ZM183.481 32.1682L183.182 31.0019H185.171V32.1682H183.481ZM176.004 32.1682V31.0019H177.993L177.694 32.1682H176.004ZM177.126 32.1682L176.647 31.0019H179.862V32.1682H177.126ZM194.443 36.6991C193.755 37.5963 192.454 38.2093 191.049 38.2093C189.045 38.2093 187.37 36.5495 187.37 34.5009C187.37 32.4822 189.03 30.7925 191.049 30.7925C193.067 30.7925 194.757 32.4374 194.757 34.4561C194.757 34.6355 194.712 34.8449 194.653 35.0093H188.043V33.9477H193.875L193.516 34.471C193.516 33.0505 192.38 31.9589 191.049 31.9589C189.658 31.9589 188.596 33.0953 188.596 34.5009C188.596 35.8916 189.688 37.043 191.153 37.043C192.17 37.043 193.082 36.5944 193.561 35.9514L194.443 36.6991Z" fill="#363131"/>
<rect width="192" height="20" transform="translate(0.861328 50)" fill="#D7C6FF"/>
<path d="M13.7081 63.2093C11.7492 63.2093 10.2838 61.415 10.2838 59.5009C10.2838 57.5869 11.7492 55.7925 13.7081 55.7925C15.652 55.7925 17.2819 57.4673 17.2819 59.5009C17.2819 61.5346 15.652 63.2093 13.7081 63.2093ZM13.5884 62.043C14.9342 62.043 16.0557 60.8766 16.0557 59.5009C16.0557 58.1402 14.9342 56.9589 13.5884 56.9589C12.2426 56.9589 11.1211 58.1252 11.1211 59.5009C11.1211 60.8916 12.2426 62.043 13.5884 62.043ZM10.0146 67.1271V56.0019H11.2258V58.4093L10.8968 59.5159L11.2258 60.8168V67.1271H10.0146ZM8.65385 57.1682V56.0019H11.2258L10.837 57.1682H8.65385ZM8.65385 67.1271V65.9757H10.837L11.2258 67.1271H8.65385ZM9.99965 67.1271L10.4931 65.9757H13.3043V67.1271H9.99965ZM22.9357 63.2093C20.9918 63.2093 19.3619 61.5346 19.3619 59.5009C19.3619 57.4673 20.9918 55.7925 22.9357 55.7925C24.8946 55.7925 26.36 57.5869 26.36 59.5009C26.36 61.415 24.8946 63.2093 22.9357 63.2093ZM23.0553 62.043C24.4011 62.043 25.5226 60.8916 25.5226 59.5009C25.5226 58.1252 24.4011 56.9589 23.0553 56.9589C21.7095 56.9589 20.588 58.1402 20.588 59.5009C20.588 60.8766 21.7095 62.043 23.0553 62.043ZM25.4179 63V60.5178L25.7469 59.5009L25.4179 58.4093V56.0019H26.6291V63H25.4179ZM25.4179 63L25.8067 61.8486H27.9899V63H25.4179ZM33.3446 59.2617C33.3446 57.3178 34.4362 55.7925 36.111 55.7925C36.739 55.7925 37.397 55.972 37.9054 56.4953V57.7215C37.382 57.1682 36.7091 56.9589 36.111 56.9589C34.9596 56.9589 34.0026 58.0056 34.0026 59.2617H33.3446ZM32.7914 63V56.0019H33.9577V57.4673L34.0026 58.2598V63H32.7914ZM30.8773 57.1682V56.0019H33.9577L33.4942 57.1682H30.8773ZM30.8773 63V61.8486H33.5241L34.0026 63H30.8773ZM32.7914 63L33.3297 61.8486H36.3353V63H32.7914ZM45.3087 63.2093C43.7984 63.2093 42.7218 62.0879 42.7218 60.6075V53.5495H43.933V60.5776C43.933 61.4449 44.5012 62.043 45.3087 62.043C46.0863 62.043 46.6844 61.4449 46.6844 60.5776V59.4112H47.8807V60.5776C47.8807 62.0879 46.7891 63.2093 45.3087 63.2093ZM40.5536 57.1682V56.0019H43.933L43.4246 57.1682H40.5536ZM43.305 57.1682L42.7218 56.0019H46.5498V57.1682H43.305ZM52.1438 63V56.0019H53.3102V57.871L53.355 58.6636V63H52.1438ZM52.6971 59.157C52.6971 57.6019 53.6391 55.7925 55.4634 55.7925C57.0933 55.7925 58.3046 57.0336 58.3046 59.1421V63H57.1083V59.157C57.1083 57.7364 56.3008 56.9589 55.2242 56.9589C54.2074 56.9589 53.355 57.7215 53.355 59.157H52.6971ZM50.7831 57.1682V56.0019H53.3102L52.9363 57.1682H50.7831ZM50.7831 63V61.8486H52.9662L53.355 63H50.7831ZM52.1438 63L52.5176 61.8486H54.6111V63H52.1438ZM55.8522 63V61.8486H57.9457L58.3046 63H55.8522ZM57.1083 63L57.4971 61.8486H59.6803V63H57.1083ZM68.8182 61.6991C68.1303 62.5963 66.8294 63.2093 65.4238 63.2093C63.42 63.2093 61.7453 61.5495 61.7453 59.5009C61.7453 57.4822 63.4051 55.7925 65.4238 55.7925C67.4425 55.7925 69.1322 57.4374 69.1322 59.4561C69.1322 59.6355 69.0873 59.8449 69.0275 60.0093H62.4182V58.9477H68.2499L67.8911 59.471C67.8911 58.0505 66.7546 56.9589 65.4238 56.9589C64.0331 56.9589 62.9714 58.0953 62.9714 59.5009C62.9714 60.8916 64.063 62.043 65.5284 62.043C66.5453 62.043 67.4574 61.5944 67.9359 60.9514L68.8182 61.6991ZM75.2196 59.2617C75.2196 57.3178 76.3112 55.7925 77.986 55.7925C78.614 55.7925 79.272 55.972 79.7804 56.4953V57.7215C79.257 57.1682 78.5841 56.9589 77.986 56.9589C76.8346 56.9589 75.8776 58.0056 75.8776 59.2617H75.2196ZM74.6664 63V56.0019H75.8327V57.4673L75.8776 58.2598V63H74.6664ZM72.7523 57.1682V56.0019H75.8327L75.3692 57.1682H72.7523ZM72.7523 63V61.8486H75.3991L75.8776 63H72.7523ZM74.6664 63L75.2047 61.8486H78.2103V63H74.6664ZM97.6524 63.2093C96.1422 63.2093 95.0655 62.0879 95.0655 60.6075V53.5495H96.2767V60.5776C96.2767 61.4449 96.845 62.043 97.6524 62.043C98.43 62.043 99.0282 61.4449 99.0282 60.5776V59.4112H100.224V60.5776C100.224 62.0879 99.1328 63.2093 97.6524 63.2093ZM92.8973 57.1682V56.0019H96.2767L95.7683 57.1682H92.8973ZM95.6487 57.1682L95.0655 56.0019H98.8936V57.1682H95.6487ZM104.488 63V52.0542H105.699V63H104.488ZM105.041 59.157C105.041 57.6019 105.983 55.7925 107.807 55.7925C109.377 55.7925 110.648 57.0336 110.648 59.157V63H109.452V59.157C109.452 57.6916 108.6 56.9589 107.568 56.9589C106.551 56.9589 105.699 57.7215 105.699 59.157H105.041ZM103.127 53.2206V52.0542H105.699L105.31 53.2206H103.127ZM103.127 63V61.8486H105.31L105.699 63H103.127ZM104.488 63L104.861 61.8486H106.955V63H104.488ZM108.196 63V61.8486H110.289L110.648 63H108.196ZM109.452 63L109.841 61.8486H112.024V63H109.452ZM117.154 63.2093C115.211 63.2093 113.581 61.5346 113.581 59.5009C113.581 57.4673 115.211 55.7925 117.154 55.7925C119.113 55.7925 120.579 57.5869 120.579 59.5009C120.579 61.415 119.113 63.2093 117.154 63.2093ZM117.274 62.043C118.62 62.043 119.741 60.8916 119.741 59.5009C119.741 58.1252 118.62 56.9589 117.274 56.9589C115.928 56.9589 114.807 58.1402 114.807 59.5009C114.807 60.8766 115.928 62.043 117.274 62.043ZM119.637 63V60.5178L119.966 59.5009L119.637 58.4093V56.0019H120.848V63H119.637ZM119.637 63L120.025 61.8486H122.209V63H119.637ZM129.059 63.2093C127.548 63.2093 126.472 62.0879 126.472 60.6075V53.5495H127.683V60.5776C127.683 61.4449 128.251 62.043 129.059 62.043C129.836 62.043 130.434 61.4449 130.434 60.5776V59.4112H131.631V60.5776C131.631 62.0879 130.539 63.2093 129.059 63.2093ZM124.304 57.1682V56.0019H127.683L127.175 57.1682H124.304ZM127.055 57.1682L126.472 56.0019H130.3V57.1682H127.055ZM146.153 63L144.628 56.0019H145.839L147.275 63H146.153ZM146.811 63L148.366 56.5402H149.398L147.933 63H146.811ZM150.445 63L148.979 56.5402H149.996L151.551 63H150.445ZM151.088 63L152.523 56.0019H153.735L152.209 63H151.088ZM146.467 62.8206V61.8486H147.649V62.8206H146.467ZM148.83 57.6916L148.71 56.6449L149.533 56.5402L149.652 57.6019L148.83 57.6916ZM151.716 62.8206L150.729 62.7458L150.893 61.8486L151.895 61.9234L151.716 62.8206ZM144.075 57.1682V56.0019H145.839L145.57 57.1682H144.075ZM145.002 57.1682L144.628 56.0019H147.11V57.1682H145.002ZM151.252 57.1682V56.0019H153.735L153.361 57.1682H151.252ZM152.792 57.1682L152.523 56.0019H154.288V57.1682H152.792ZM156.577 63V61.8486H159.986L160.585 63H156.577ZM159.373 63L159.986 61.8486H163.396V63H159.373ZM156.577 57.1682V56.0019H160.585L159.986 57.1682H156.577ZM159.373 63V56.0019H160.585V63H159.373ZM160.016 54.3421C159.373 54.3421 158.835 53.8336 158.835 53.1757C158.835 52.5178 159.373 51.9944 160.016 51.9944C160.644 51.9944 161.183 52.5178 161.183 53.1757C161.183 53.8336 160.644 54.3421 160.016 54.3421ZM169.827 63V52.0542H171.038V63H169.827ZM167.016 63V61.8486H170.425L171.038 63H167.016ZM169.827 63L170.425 61.8486H173.835V63H169.827ZM167.031 53.2206V52.0542H171.038L170.425 53.2206H167.031ZM180.296 63V52.0542H181.507V63H180.296ZM177.485 63V61.8486H180.894L181.507 63H177.485ZM180.296 63L180.894 61.8486H184.303V63H180.296ZM177.5 53.2206V52.0542H181.507L180.894 53.2206H177.5Z" fill="#363131"/>
<rect width="192" height="20" transform="translate(0.861328 75)" fill="#D7C6FF"/>
<path d="M10.2688 88V77.0542H11.48V88H10.2688ZM10.8221 84.157C10.8221 82.6019 11.7641 80.7925 13.5884 80.7925C15.1585 80.7925 16.4296 82.0336 16.4296 84.157V88H15.2333V84.157C15.2333 82.6916 14.381 81.9589 13.3492 81.9589C12.3324 81.9589 11.48 82.7215 11.48 84.157H10.8221ZM8.90806 78.2206V77.0542H11.48L11.0912 78.2206H8.90806ZM8.90806 88V86.8486H11.0912L11.48 88H8.90806ZM10.2688 88L10.6426 86.8486H12.7361V88H10.2688ZM13.9772 88V86.8486H16.0707L16.4296 88H13.9772ZM15.2333 88L15.6221 86.8486H17.8053V88H15.2333ZM26.9432 86.6991C26.2553 87.5963 24.9544 88.2093 23.5488 88.2093C21.545 88.2093 19.8703 86.5495 19.8703 84.5009C19.8703 82.4822 21.5301 80.7925 23.5488 80.7925C25.5675 80.7925 27.2572 82.4374 27.2572 84.4561C27.2572 84.6355 27.2123 84.8449 27.1525 85.0093H20.5432V83.9477H26.3749L26.0161 84.471C26.0161 83.0505 24.8796 81.9589 23.5488 81.9589C22.1581 81.9589 21.0964 83.0953 21.0964 84.5009C21.0964 85.8916 22.188 87.043 23.6534 87.043C24.6703 87.043 25.5824 86.5944 26.0609 85.9514L26.9432 86.6991ZM33.7334 88V77.0542H34.9446V88H33.7334ZM30.9222 88V86.8486H34.3315L34.9446 88H30.9222ZM33.7334 88L34.3315 86.8486H37.7409V88H33.7334ZM30.9371 78.2206V77.0542H34.9446L34.3315 78.2206H30.9371ZM45.1143 88.2093C43.1554 88.2093 41.69 86.415 41.69 84.5009C41.69 82.5869 43.1554 80.7925 45.1143 80.7925C47.0582 80.7925 48.6881 82.4673 48.6881 84.5009C48.6881 86.5346 47.0582 88.2093 45.1143 88.2093ZM44.9947 87.043C46.3405 87.043 47.462 85.8766 47.462 84.5009C47.462 83.1402 46.3405 81.9589 44.9947 81.9589C43.6489 81.9589 42.5274 83.1252 42.5274 84.5009C42.5274 85.8916 43.6489 87.043 44.9947 87.043ZM41.4208 92.1271V81.0019H42.6321V83.4093L42.3031 84.5159L42.6321 85.8168V92.1271H41.4208ZM40.0601 82.1682V81.0019H42.6321L42.2433 82.1682H40.0601ZM40.0601 92.1271V90.9757H42.2433L42.6321 92.1271H40.0601ZM41.4059 92.1271L41.8994 90.9757H44.7106V92.1271H41.4059ZM67.1733 88V86.1607V85.5776V81.0019H68.3845V88H67.1733ZM62.2238 84.8299V81.0019H63.42V84.8299C63.42 86.2953 64.2724 87.043 65.3041 87.043C66.321 87.043 67.1733 86.2654 67.1733 84.8299H67.8312C67.8312 86.3701 66.8892 88.1794 65.0649 88.1794C63.4649 88.1794 62.2238 86.9533 62.2238 84.8299ZM65.7976 82.1682V81.0019H68.3845L67.9808 82.1682H65.7976ZM60.8481 82.1682V81.0019H63.42L63.0312 82.1682H60.8481ZM67.1733 88L67.5621 86.8486H69.7453V88H67.1733ZM76.5206 88.2093C74.5617 88.2093 73.0963 86.415 73.0963 84.5009C73.0963 82.5869 74.5617 80.7925 76.5206 80.7925C78.4645 80.7925 80.0944 82.4673 80.0944 84.5009C80.0944 86.5346 78.4645 88.2093 76.5206 88.2093ZM76.4009 87.043C77.7467 87.043 78.8682 85.8766 78.8682 84.5009C78.8682 83.1402 77.7467 81.9589 76.4009 81.9589C75.0551 81.9589 73.9336 83.1252 73.9336 84.5009C73.9336 85.8916 75.0551 87.043 76.4009 87.043ZM72.8271 92.1271V81.0019H74.0383V83.4093L73.7093 84.5159L74.0383 85.8168V92.1271H72.8271ZM71.4664 82.1682V81.0019H74.0383L73.6495 82.1682H71.4664ZM71.4664 92.1271V90.9757H73.6495L74.0383 92.1271H71.4664ZM72.8121 92.1271L73.3056 90.9757H76.1168V92.1271H72.8121ZM86.0772 88V77.0542H87.2884V88H86.0772ZM83.2659 88V86.8486H86.6753L87.2884 88H83.2659ZM86.0772 88L86.6753 86.8486H90.0846V88H86.0772ZM83.2809 78.2206V77.0542H87.2884L86.6753 78.2206H83.2809ZM100.224 86.6991C99.5366 87.5963 98.2356 88.2093 96.83 88.2093C94.8263 88.2093 93.1515 86.5495 93.1515 84.5009C93.1515 82.4822 94.8113 80.7925 96.83 80.7925C98.8487 80.7925 100.538 82.4374 100.538 84.4561C100.538 84.6355 100.494 84.8449 100.434 85.0093H93.8244V83.9477H99.6562L99.2973 84.471C99.2973 83.0505 98.1609 81.9589 96.83 81.9589C95.4394 81.9589 94.3777 83.0953 94.3777 84.5009C94.3777 85.8916 95.4693 87.043 96.9347 87.043C97.9515 87.043 98.8637 86.5944 99.3422 85.9514L100.224 86.6991ZM106.656 88L103.366 81.0019H104.712L107.493 86.9981H107.119L109.901 81.0019H111.246L107.957 88H106.656ZM108.031 82.1682V81.0019H111.246L110.768 82.1682H108.031ZM110.2 82.1682L109.901 81.0019H111.889V82.1682H110.2ZM102.723 82.1682V81.0019H104.712L104.413 82.1682H102.723ZM103.845 82.1682L103.366 81.0019H106.581V82.1682H103.845ZM121.162 86.6991C120.474 87.5963 119.173 88.2093 117.768 88.2093C115.764 88.2093 114.089 86.5495 114.089 84.5009C114.089 82.4822 115.749 80.7925 117.768 80.7925C119.786 80.7925 121.476 82.4374 121.476 84.4561C121.476 84.6355 121.431 84.8449 121.371 85.0093H114.762V83.9477H120.594L120.235 84.471C120.235 83.0505 119.098 81.9589 117.768 81.9589C116.377 81.9589 115.315 83.0953 115.315 84.5009C115.315 85.8916 116.407 87.043 117.872 87.043C118.889 87.043 119.801 86.5944 120.28 85.9514L121.162 86.6991ZM127.952 88V77.0542H129.163V88H127.952ZM125.141 88V86.8486H128.55L129.163 88H125.141ZM127.952 88L128.55 86.8486H131.96V88H127.952ZM125.156 78.2206V77.0542H129.163L128.55 78.2206H125.156ZM145.974 84.8598V81.0019H147.17V84.8598C147.17 86.3103 148.022 87.0729 149.054 87.0729C150.071 87.0729 150.923 86.2804 150.923 84.8598H151.581C151.581 86.4 150.639 88.2093 148.815 88.2093C147.23 88.2093 145.974 86.9682 145.974 84.8598ZM147.11 88.8972C147.14 90.3327 147.828 91.1103 148.964 91.1103C149.981 91.1103 150.923 90.4075 150.923 88.9869V81.0019H152.135V88.9869C152.135 91.0953 150.654 92.3065 148.949 92.3065C147.26 92.3065 145.944 91.0953 145.944 89.1065L147.11 88.8972ZM144.598 82.1682V81.0019H147.17L146.781 82.1682H144.598ZM146.333 82.1682L145.974 81.0019H148.426V82.1682H146.333ZM151.312 82.1682L150.923 81.0019H153.495V82.1682H151.312ZM149.667 82.1682V81.0019H152.135L151.761 82.1682H149.667ZM159.657 88.2093C157.549 88.2093 155.994 86.5047 155.994 84.5009C155.994 82.4972 157.624 80.7925 159.657 80.7925C161.676 80.7925 163.306 82.4972 163.306 84.5009C163.306 86.5047 161.751 88.2093 159.657 88.2093ZM159.657 87.043C161.018 87.043 162.08 85.9065 162.08 84.5009C162.08 83.0953 161.018 81.9589 159.657 81.9589C158.282 81.9589 157.22 83.0953 157.22 84.5009C157.22 85.9065 158.282 87.043 159.657 87.043ZM171.861 88V86.1607V85.5776V81.0019H173.072V88H171.861ZM166.911 84.8299V81.0019H168.108V84.8299C168.108 86.2953 168.96 87.043 169.992 87.043C171.008 87.043 171.861 86.2654 171.861 84.8299H172.519C172.519 86.3701 171.577 88.1794 169.752 88.1794C168.152 88.1794 166.911 86.9533 166.911 84.8299ZM170.485 82.1682V81.0019H173.072L172.668 82.1682H170.485ZM165.536 82.1682V81.0019H168.108L167.719 82.1682H165.536ZM171.861 88L172.25 86.8486H174.433V88H171.861ZM179.907 84.2617C179.907 82.3178 180.999 80.7925 182.673 80.7925C183.302 80.7925 183.959 80.972 184.468 81.4953V82.7215C183.945 82.1682 183.272 81.9589 182.673 81.9589C181.522 81.9589 180.565 83.0056 180.565 84.2617H179.907ZM179.354 88V81.0019H180.52V82.4673L180.565 83.2598V88H179.354ZM177.44 82.1682V81.0019H180.52L180.057 82.1682H177.44ZM177.44 88V86.8486H180.087L180.565 88H177.44ZM179.354 88L179.892 86.8486H182.898V88H179.354Z" fill="#363131"/>
<rect width="77" height="20" transform="translate(0.861328 100)" fill="#D7C6FF"/>
<path d="M13.6931 113.209C11.7492 113.209 10.2838 111.415 10.2838 109.501C10.2838 107.587 11.7492 105.793 13.6931 105.793C15.652 105.793 17.2669 107.467 17.2669 109.501C17.2669 111.535 15.652 113.209 13.6931 113.209ZM13.5735 112.043C14.9193 112.043 16.0408 110.877 16.0408 109.501C16.0408 108.14 14.9193 106.959 13.5735 106.959C12.2277 106.959 11.1211 108.125 11.1211 109.501C11.1211 110.892 12.2277 112.043 13.5735 112.043ZM10.0146 113V102.054H11.2109V108.32L10.8819 109.561L11.2109 110.817V113H10.0146ZM8.6389 103.221V102.054H11.2109L10.8221 103.221H8.6389ZM22.8759 109.262C22.8759 107.318 23.9675 105.793 25.6422 105.793C26.2703 105.793 26.9282 105.972 27.4366 106.495V107.721C26.9133 107.168 26.2404 106.959 25.6422 106.959C24.4908 106.959 23.5338 108.006 23.5338 109.262H22.8759ZM22.3226 113V106.002H23.489V107.467L23.5338 108.26V113H22.3226ZM20.4086 107.168V106.002H23.489L23.0254 107.168H20.4086ZM20.4086 113V111.849H23.0553L23.5338 113H20.4086ZM22.3226 113L22.8609 111.849H25.8665V113H22.3226ZM33.4044 113.209C31.4605 113.209 29.8306 111.535 29.8306 109.501C29.8306 107.467 31.4605 105.793 33.4044 105.793C35.3633 105.793 36.8287 107.587 36.8287 109.501C36.8287 111.415 35.3633 113.209 33.4044 113.209ZM33.5241 112.043C34.8699 112.043 35.9914 110.892 35.9914 109.501C35.9914 108.125 34.8699 106.959 33.5241 106.959C32.1783 106.959 31.0568 108.14 31.0568 109.501C31.0568 110.877 32.1783 112.043 33.5241 112.043ZM35.8867 113V110.518L36.2157 109.501L35.8867 108.409V106.002H37.0979V113H35.8867ZM35.8867 113L36.2755 111.849H38.4586V113H35.8867ZM41.6751 113V106.002H42.8414V107.871L42.8863 108.664V113H41.6751ZM42.2283 109.157C42.2283 107.602 43.1704 105.793 44.9947 105.793C46.6246 105.793 47.8358 107.034 47.8358 109.142V113H46.6395V109.157C46.6395 107.736 45.8321 106.959 44.7554 106.959C43.7386 106.959 42.8863 107.721 42.8863 109.157H42.2283ZM40.3143 107.168V106.002H42.8414L42.4676 107.168H40.3143ZM40.3143 113V111.849H42.4975L42.8863 113H40.3143ZM41.6751 113L42.0489 111.849H44.1423V113H41.6751ZM45.3835 113V111.849H47.4769L47.8358 113H45.3835ZM46.6395 113L47.0283 111.849H49.2115V113H46.6395ZM56.8242 113V110.593L57.1532 109.546L56.8242 108.499V102.054H58.0354V113H56.8242ZM54.3419 113.209C52.398 113.209 50.7681 111.535 50.7681 109.501C50.7681 107.467 52.398 105.793 54.3419 105.793C56.3008 105.793 57.7662 107.587 57.7662 109.501C57.7662 111.415 56.3008 113.209 54.3419 113.209ZM54.4616 112.043C55.8074 112.043 56.9289 110.892 56.9289 109.501C56.9289 108.125 55.8074 106.959 54.4616 106.959C53.1158 106.959 51.9943 108.14 51.9943 109.501C51.9943 110.877 53.1158 112.043 54.4616 112.043ZM55.1943 103.221V102.054H58.0354L57.6017 103.221H55.1943ZM56.8242 113L57.213 111.849H59.3961V113H56.8242ZM65.4537 113.209C64.7957 113.209 64.2574 112.701 64.2574 112.043C64.2574 111.385 64.7957 110.862 65.4537 110.862C66.0817 110.862 66.6051 111.385 66.6051 112.043C66.6051 112.701 66.0817 113.209 65.4537 113.209Z" fill="#363131"/>
</svg>
