<svg width="182" height="45" viewBox="0 0 182 45" fill="none" xmlns="http://www.w3.org/2000/svg">
<rect width="182" height="20" fill="#D7C6FF"/>
<path d="M9.40748 13V6.00187H10.5738V7.87103L10.6187 8.66355V13H9.40748ZM9.96075 9.15701C9.96075 7.60187 10.9028 5.79252 12.7271 5.79252C14.357 5.79252 15.5682 7.03364 15.5682 9.14206V13H14.372V9.15701C14.372 7.73645 13.5645 6.95888 12.4879 6.95888C11.471 6.95888 10.6187 7.7215 10.6187 9.15701H9.96075ZM8.04673 7.16822V6.00187H10.5738L10.2 7.16822H8.04673ZM8.04673 13V11.8486H10.2299L10.6187 13H8.04673ZM9.40748 13L9.78131 11.8486H11.8748V13H9.40748ZM13.1159 13V11.8486H15.2093L15.5682 13H13.1159ZM14.372 13L14.7607 11.8486H16.9439V13H14.372ZM22.7024 13.2093C20.594 13.2093 19.0388 11.5047 19.0388 9.50093C19.0388 7.4972 20.6688 5.79252 22.7024 5.79252C24.7211 5.79252 26.351 7.4972 26.351 9.50093C26.351 11.5047 24.7959 13.2093 22.7024 13.2093ZM22.7024 12.043C24.0631 12.043 25.1248 10.9065 25.1248 9.50093C25.1248 8.09533 24.0631 6.95888 22.7024 6.95888C21.3267 6.95888 20.265 8.09533 20.265 9.50093C20.265 10.9065 21.3267 12.043 22.7024 12.043ZM33.9786 13.2093C32.4683 13.2093 31.3917 12.0879 31.3917 10.6075V3.54953H32.6029V10.5776C32.6029 11.4449 33.1711 12.043 33.9786 12.043C34.7562 12.043 35.3543 11.4449 35.3543 10.5776V9.41121H36.5506V10.5776C36.5506 12.0879 35.459 13.2093 33.9786 13.2093ZM29.2235 7.16822V6.00187H32.6029L32.0945 7.16822H29.2235ZM31.9749 7.16822L31.3917 6.00187H35.2197V7.16822H31.9749ZM40.8137 13V2.0542H42.0249V13H40.8137ZM41.367 9.15701C41.367 7.60187 42.3091 5.79252 44.1334 5.79252C45.7034 5.79252 46.9745 7.03364 46.9745 9.15701V13H45.7782V9.15701C45.7782 7.69159 44.9259 6.95888 43.8941 6.95888C42.8773 6.95888 42.0249 7.7215 42.0249 9.15701H41.367ZM39.453 3.22056V2.0542H42.0249L41.6362 3.22056H39.453ZM39.453 13V11.8486H41.6362L42.0249 13H39.453ZM40.8137 13L41.1876 11.8486H43.281V13H40.8137ZM44.5221 13V11.8486H46.6156L46.9745 13H44.5221ZM45.7782 13L46.167 11.8486H48.3502V13H45.7782ZM51.0283 13V11.8486H54.4376L55.0357 13H51.0283ZM53.8245 13L54.4376 11.8486H57.847V13H53.8245ZM51.0283 7.16822V6.00187H55.0357L54.4376 7.16822H51.0283ZM53.8245 13V6.00187H55.0357V13H53.8245ZM54.4675 4.34206C53.8245 4.34206 53.2862 3.83364 53.2862 3.1757C53.2862 2.51776 53.8245 1.99439 54.4675 1.99439C55.0956 1.99439 55.6339 2.51776 55.6339 3.1757C55.6339 3.83364 55.0956 4.34206 54.4675 4.34206ZM61.7512 13V6.00187H62.9176V7.87103L62.9624 8.66355V13H61.7512ZM62.3045 9.15701C62.3045 7.60187 63.2466 5.79252 65.0709 5.79252C66.7008 5.79252 67.912 7.03364 67.912 9.14206V13H66.7157V9.15701C66.7157 7.73645 65.9082 6.95888 64.8316 6.95888C63.8148 6.95888 62.9624 7.7215 62.9624 9.15701H62.3045ZM60.3905 7.16822V6.00187H62.9176L62.5438 7.16822H60.3905ZM60.3905 13V11.8486H62.5737L62.9624 13H60.3905ZM61.7512 13L62.1251 11.8486H64.2185V13H61.7512ZM65.4596 13V11.8486H67.5531L67.912 13H65.4596ZM66.7157 13L67.1045 11.8486H69.2877V13H66.7157ZM73.5209 17.1271C72.1602 17.1271 71.0237 16.1701 71.0237 15.0187C71.0237 13.9121 72.0106 13 73.2069 13L73.3116 12.7607H77.1246C78.3508 12.7607 79.3826 13.7477 79.3826 14.914C79.3826 16.1252 78.2611 17.1271 76.9452 17.1271H73.5209ZM74.8817 11.3103C72.9975 11.3103 71.6518 10.2037 71.6518 8.6486C71.6518 7.10841 72.9975 6.00187 74.8817 6.00187C76.6461 6.00187 78.0817 7.24299 78.0817 8.75327C78.0817 10.2486 76.7359 11.3103 74.8817 11.3103ZM74.8817 10.2636C76.063 10.2636 76.9153 9.59065 76.9153 8.6486C76.9153 7.7215 76.063 7.0486 74.8817 7.0486C73.6854 7.0486 72.8181 7.7215 72.8181 8.6486C72.8181 9.59065 73.6854 10.2636 74.8817 10.2636ZM73.4162 13.5383C72.3845 13.5383 71.3975 13.0299 71.3975 11.8935C71.3975 10.9664 72.0555 10.3383 72.9676 10.0841L73.3415 10.7869C72.863 10.8916 72.519 11.3103 72.519 11.8336C72.519 12.372 72.9377 12.7607 73.6106 12.7607L73.4162 13.5383ZM76.8405 16.0804C77.6032 16.0804 78.1863 15.5869 78.1863 14.9589C78.1863 14.3308 77.6331 13.8224 76.9452 13.8224H73.4162C72.7433 13.8224 72.205 14.3308 72.205 14.9589C72.205 15.5869 72.7882 16.0804 73.5359 16.0804H76.8405ZM75.5845 7.0486L74.8817 6.00187H79.6368V7.0486H75.5845ZM95.9238 13.2093C94.6827 13.2093 93.4416 12.9103 92.4846 12.4467L93.1575 11.4449C93.8154 11.9234 94.8621 12.1028 95.9537 12.1028C97.5089 12.1028 98.2565 11.6991 98.2565 11.0561C98.2565 10.5327 97.793 10.2187 96.4621 10.0243L95.2808 9.87477C93.6659 9.65047 92.664 9.18692 92.664 7.94579C92.664 6.58505 94.0098 5.79252 95.9836 5.79252C97.1201 5.79252 98.3164 6.03178 99.2285 6.54019L98.6603 7.43738C97.7631 7.0785 96.821 6.89907 95.8042 6.89907C94.5332 6.89907 93.8603 7.28785 93.8603 7.82617C93.8603 8.37944 94.3687 8.57383 95.5201 8.73832L96.6715 8.88785C98.6154 9.14206 99.4827 9.90467 99.4827 10.9813C99.4827 12.372 98.0173 13.2093 95.9238 13.2093ZM99.2285 6.54019V8.03551H98.0322V6.74953L99.2285 6.54019ZM92.4846 12.4467V10.9514H93.6808V12.2224L92.4846 12.4467ZM103.626 13V2.0542H104.837V13H103.626ZM104.179 9.15701C104.179 7.60187 105.122 5.79252 106.946 5.79252C108.516 5.79252 109.787 7.03364 109.787 9.15701V13H108.591V9.15701C108.591 7.69159 107.738 6.95888 106.707 6.95888C105.69 6.95888 104.837 7.7215 104.837 9.15701H104.179ZM102.265 3.22056V2.0542H104.837L104.449 3.22056H102.265ZM102.265 13V11.8486H104.449L104.837 13H102.265ZM103.626 13L104 11.8486H106.094V13H103.626ZM107.335 13V11.8486H109.428L109.787 13H107.335ZM108.591 13L108.979 11.8486H111.163V13H108.591ZM116.921 13.2093C114.813 13.2093 113.258 11.5047 113.258 9.50093C113.258 7.4972 114.888 5.79252 116.921 5.79252C118.94 5.79252 120.57 7.4972 120.57 9.50093C120.57 11.5047 119.015 13.2093 116.921 13.2093ZM116.921 12.043C118.282 12.043 119.344 10.9065 119.344 9.50093C119.344 8.09533 118.282 6.95888 116.921 6.95888C115.545 6.95888 114.484 8.09533 114.484 9.50093C114.484 10.9065 115.545 12.043 116.921 12.043ZM126.702 9.26168C126.702 7.31776 127.794 5.79252 129.468 5.79252C130.096 5.79252 130.754 5.97196 131.263 6.49533V7.7215C130.739 7.16822 130.067 6.95888 129.468 6.95888C128.317 6.95888 127.36 8.00561 127.36 9.26168H126.702ZM126.149 13V6.00187H127.315V7.46729L127.36 8.25981V13H126.149ZM124.235 7.16822V6.00187H127.315L126.852 7.16822H124.235ZM124.235 13V11.8486H126.881L127.36 13H124.235ZM126.149 13L126.687 11.8486H129.693V13H126.149ZM138.666 13.2093C137.156 13.2093 136.079 12.0879 136.079 10.6075V3.54953H137.29V10.5776C137.29 11.4449 137.859 12.043 138.666 12.043C139.444 12.043 140.042 11.4449 140.042 10.5776V9.41121H141.238V10.5776C141.238 12.0879 140.146 13.2093 138.666 13.2093ZM133.911 7.16822V6.00187H137.29L136.782 7.16822H133.911ZM136.662 7.16822L136.079 6.00187H139.907V7.16822H136.662ZM158.796 13.2093C156.688 13.2093 155.133 11.5047 155.133 9.50093C155.133 7.4972 156.763 5.79252 158.796 5.79252C160.815 5.79252 162.445 7.4972 162.445 9.50093C162.445 11.5047 160.89 13.2093 158.796 13.2093ZM158.796 12.043C160.157 12.043 161.219 10.9065 161.219 9.50093C161.219 8.09533 160.157 6.95888 158.796 6.95888C157.42 6.95888 156.359 8.09533 156.359 9.50093C156.359 10.9065 157.42 12.043 158.796 12.043ZM168.398 4.61121C168.398 2.99626 169.459 1.85981 170.955 1.85981C172.45 1.85981 173.527 2.98131 173.527 4.56635V4.74579H172.315V4.56635C172.315 3.65421 171.747 3.01121 170.955 3.01121C170.147 3.01121 169.609 3.65421 169.609 4.56635V13H168.398V4.61121ZM166.289 7.16822V6.00187H169.609L169.1 7.16822H166.289ZM168.996 7.16822L168.398 6.00187H172.36V7.16822H168.996ZM166.289 13V11.8486H169.1L169.609 13H166.289ZM168.398 13L168.996 11.8486H172.36V13H168.398Z" fill="#363131"/>
<rect width="172" height="20" transform="translate(0 25)" fill="#D7C6FF"/>
<path d="M13.0411 38.2093C11.5308 38.2093 10.4542 37.0879 10.4542 35.6075V28.5495H11.6654V35.5776C11.6654 36.4449 12.2336 37.043 13.0411 37.043C13.8187 37.043 14.4168 36.4449 14.4168 35.5776V34.4112H15.6131V35.5776C15.6131 37.0879 14.5215 38.2093 13.0411 38.2093ZM8.28598 32.1682V31.0019H11.6654L11.157 32.1682H8.28598ZM11.0374 32.1682L10.4542 31.0019H14.2822V32.1682H11.0374ZM22.0145 34.2617C22.0145 32.3178 23.1061 30.7925 24.7809 30.7925C25.4089 30.7925 26.0669 30.972 26.5753 31.4953V32.7215C26.0519 32.1682 25.379 31.9589 24.7809 31.9589C23.6295 31.9589 22.6725 33.0056 22.6725 34.2617H22.0145ZM21.4613 38V31.0019H22.6276V32.4673L22.6725 33.2598V38H21.4613ZM19.5473 32.1682V31.0019H22.6276L22.1641 32.1682H19.5473ZM19.5473 38V36.8486H22.194L22.6725 38H19.5473ZM21.4613 38L21.9996 36.8486H25.0052V38H21.4613ZM32.5431 38.2093C30.5992 38.2093 28.9693 36.5346 28.9693 34.5009C28.9693 32.4673 30.5992 30.7925 32.5431 30.7925C34.502 30.7925 35.9674 32.5869 35.9674 34.5009C35.9674 36.415 34.502 38.2093 32.5431 38.2093ZM32.6627 37.043C34.0085 37.043 35.13 35.8916 35.13 34.5009C35.13 33.1252 34.0085 31.9589 32.6627 31.9589C31.3169 31.9589 30.1954 33.1402 30.1954 34.5009C30.1954 35.8766 31.3169 37.043 32.6627 37.043ZM35.0254 38V35.5178L35.3543 34.5009L35.0254 33.4093V31.0019H36.2366V38H35.0254ZM35.0254 38L35.4141 36.8486H37.5973V38H35.0254ZM40.8137 38V31.0019H41.9801V32.871L42.0249 33.6636V38H40.8137ZM41.367 34.157C41.367 32.6019 42.3091 30.7925 44.1334 30.7925C45.7633 30.7925 46.9745 32.0336 46.9745 34.1421V38H45.7782V34.157C45.7782 32.7364 44.9707 31.9589 43.8941 31.9589C42.8773 31.9589 42.0249 32.7215 42.0249 34.157H41.367ZM39.453 32.1682V31.0019H41.9801L41.6063 32.1682H39.453ZM39.453 38V36.8486H41.6362L42.0249 38H39.453ZM40.8137 38L41.1876 36.8486H43.281V38H40.8137ZM44.5221 38V36.8486H46.6156L46.9745 38H44.5221ZM45.7782 38L46.167 36.8486H48.3502V38H45.7782ZM54.0488 38.2093C52.8077 38.2093 51.5666 37.9103 50.6096 37.4467L51.2825 36.4449C51.9404 36.9234 52.9871 37.1028 54.0787 37.1028C55.6339 37.1028 56.3815 36.6991 56.3815 36.0561C56.3815 35.5327 55.918 35.2187 54.5871 35.0243L53.4058 34.8748C51.7909 34.6505 50.789 34.1869 50.789 32.9458C50.789 31.585 52.1348 30.7925 54.1086 30.7925C55.2451 30.7925 56.4414 31.0318 57.3535 31.5402L56.7853 32.4374C55.8881 32.0785 54.946 31.8991 53.9292 31.8991C52.6582 31.8991 51.9853 32.2879 51.9853 32.8262C51.9853 33.3794 52.4937 33.5738 53.6451 33.7383L54.7965 33.8879C56.7404 34.1421 57.6077 34.9047 57.6077 35.9813C57.6077 37.372 56.1423 38.2093 54.0488 38.2093ZM57.3535 31.5402V33.0355H56.1572V31.7495L57.3535 31.5402ZM50.6096 37.4467V35.9514H51.8058V37.2224L50.6096 37.4467ZM63.7101 29.6112C63.7101 27.9963 64.7718 26.8598 66.2671 26.8598C67.7624 26.8598 68.8391 27.9813 68.8391 29.5664V29.7458H67.6279V29.5664C67.6279 28.6542 67.0596 28.0112 66.2671 28.0112C65.4596 28.0112 64.9213 28.6542 64.9213 29.5664V38H63.7101V29.6112ZM61.6017 32.1682V31.0019H64.9213L64.4129 32.1682H61.6017ZM64.3082 32.1682L63.7101 31.0019H67.6727V32.1682H64.3082ZM61.6017 38V36.8486H64.4129L64.9213 38H61.6017ZM63.7101 38L64.3082 36.8486H67.6727V38H63.7101ZM75.0461 38.2093C72.9377 38.2093 71.3826 36.5047 71.3826 34.5009C71.3826 32.4972 73.0125 30.7925 75.0461 30.7925C77.0648 30.7925 78.6947 32.4972 78.6947 34.5009C78.6947 36.5047 77.1396 38.2093 75.0461 38.2093ZM75.0461 37.043C76.4069 37.043 77.4686 35.9065 77.4686 34.5009C77.4686 33.0953 76.4069 31.9589 75.0461 31.9589C73.6704 31.9589 72.6088 33.0953 72.6088 34.5009C72.6088 35.9065 73.6704 37.043 75.0461 37.043ZM84.827 34.2617C84.827 32.3178 85.9186 30.7925 87.5934 30.7925C88.2214 30.7925 88.8794 30.972 89.3878 31.4953V32.7215C88.8644 32.1682 88.1915 31.9589 87.5934 31.9589C86.442 31.9589 85.485 33.0056 85.485 34.2617H84.827ZM84.2738 38V31.0019H85.4401V32.4673L85.485 33.2598V38H84.2738ZM82.3598 32.1682V31.0019H85.4401L84.9766 32.1682H82.3598ZM82.3598 38V36.8486H85.0065L85.485 38H82.3598ZM84.2738 38L84.8121 36.8486H87.8177V38H84.2738ZM92.2902 38V31.0019H93.4864V32.5869L93.5014 33.1701V38H92.2902ZM98.7949 33.6187C98.7949 32.4224 98.4659 31.9589 97.9276 31.9589C97.3145 31.9589 96.7463 32.7065 96.7463 34.1271H96.0883C96.0883 32.7963 97.0304 30.7925 98.3014 30.7925C99.393 30.7925 100.006 31.7495 100.006 33.6187V38H98.7949V33.6187ZM95.55 33.6187C95.55 32.4224 95.221 31.9589 94.6827 31.9589C94.0696 31.9589 93.5014 32.7215 93.5014 34.157H92.8435C92.8435 32.8262 93.7855 30.7925 95.0565 30.7925C96.1332 30.7925 96.7463 31.7495 96.7463 33.6187V38H95.55V33.6187ZM105.824 38.2093C103.88 38.2093 102.251 36.5346 102.251 34.5009C102.251 32.4673 103.88 30.7925 105.824 30.7925C107.783 30.7925 109.249 32.5869 109.249 34.5009C109.249 36.415 107.783 38.2093 105.824 38.2093ZM105.944 37.043C107.29 37.043 108.411 35.8916 108.411 34.5009C108.411 33.1252 107.29 31.9589 105.944 31.9589C104.598 31.9589 103.477 33.1402 103.477 34.5009C103.477 35.8766 104.598 37.043 105.944 37.043ZM108.307 38V35.5178L108.636 34.5009L108.307 33.4093V31.0019H109.518V38H108.307ZM108.307 38L108.695 36.8486H110.879V38H108.307ZM117.729 38.2093C116.218 38.2093 115.142 37.0879 115.142 35.6075V28.5495H116.353V35.5776C116.353 36.4449 116.921 37.043 117.729 37.043C118.506 37.043 119.104 36.4449 119.104 35.5776V34.4112H120.301V35.5776C120.301 37.0879 119.209 38.2093 117.729 38.2093ZM112.973 32.1682V31.0019H116.353L115.845 32.1682H112.973ZM115.725 32.1682L115.142 31.0019H118.97V32.1682H115.725ZM124.31 38V36.8486H127.719L128.317 38H124.31ZM127.106 38L127.719 36.8486H131.128V38H127.106ZM124.31 32.1682V31.0019H128.317L127.719 32.1682H124.31ZM127.106 38V31.0019H128.317V38H127.106ZM127.749 29.3421C127.106 29.3421 126.567 28.8336 126.567 28.1757C126.567 27.5178 127.106 26.9944 127.749 26.9944C128.377 26.9944 128.915 27.5178 128.915 28.1757C128.915 28.8336 128.377 29.3421 127.749 29.3421ZM137.201 38L133.911 31.0019H135.257L138.038 36.9981H137.664L140.446 31.0019H141.791L138.502 38H137.201ZM138.576 32.1682V31.0019H141.791L141.313 32.1682H138.576ZM140.745 32.1682L140.446 31.0019H142.434V32.1682H140.745ZM133.268 32.1682V31.0019H135.257L134.958 32.1682H133.268ZM134.389 32.1682L133.911 31.0019H137.126V32.1682H134.389ZM151.707 36.6991C151.019 37.5963 149.718 38.2093 148.312 38.2093C146.309 38.2093 144.634 36.5495 144.634 34.5009C144.634 32.4822 146.294 30.7925 148.312 30.7925C150.331 30.7925 152.021 32.4374 152.021 34.4561C152.021 34.6355 151.976 34.8449 151.916 35.0093H145.307V33.9477H151.139L150.78 34.471C150.78 33.0505 149.643 31.9589 148.312 31.9589C146.922 31.9589 145.86 33.0953 145.86 34.5009C145.86 35.8916 146.952 37.043 148.417 37.043C149.434 37.043 150.346 36.5944 150.825 35.9514L151.707 36.6991ZM158.811 38.2093C158.153 38.2093 157.615 37.7009 157.615 37.043C157.615 36.385 158.153 35.8617 158.811 35.8617C159.439 35.8617 159.963 36.385 159.963 37.043C159.963 37.7009 159.439 38.2093 158.811 38.2093Z" fill="#363131"/>
</svg>
