<svg width="182" height="70" viewBox="0 0 182 70" fill="none" xmlns="http://www.w3.org/2000/svg">
<rect width="182" height="20" fill="#D7C6FF"/>
<path d="M10.0056 10.8766L9.57196 10.0692L15.0598 6.04673L15.4935 6.95888L10.0056 10.8766ZM9.40748 13V2.0542H10.6037V13H9.40748ZM14.7458 13L11.6355 9.14206L12.5626 8.45421L15.7178 12.3421L14.7458 13ZM8.04673 3.22056V2.0542H10.514L10.1402 3.22056H8.04673ZM8.04673 13V11.8486H10.2299L10.6187 13H8.04673ZM9.51215 13L9.84112 11.8486H11.7701V13H9.51215ZM15.0449 13L15.2692 11.8486H16.6598V13H15.0449ZM12.428 7.16822V6.00187H15.4636L15 7.16822H12.428ZM12.8766 13V11.8486H15.2393L15.6729 13H12.8766ZM15.1794 7.16822L14.9551 6.00187H16.4953V7.16822H15.1794ZM26.0818 11.6991C25.394 12.5963 24.093 13.2093 22.6874 13.2093C20.6837 13.2093 19.0089 11.5495 19.0089 9.50093C19.0089 7.48224 20.6688 5.79252 22.6874 5.79252C24.7061 5.79252 26.3959 7.43738 26.3959 9.45607C26.3959 9.63551 26.351 9.84486 26.2912 10.0093H19.6818V8.94766H25.5136L25.1547 9.47103C25.1547 8.05047 24.0183 6.95888 22.6874 6.95888C21.2968 6.95888 20.2351 8.09533 20.2351 9.50093C20.2351 10.8916 21.3267 12.043 22.7921 12.043C23.8089 12.043 24.7211 11.5944 25.1996 10.9514L26.0818 11.6991ZM36.5506 11.6991C35.8627 12.5963 34.5618 13.2093 33.1562 13.2093C31.1525 13.2093 29.4777 11.5495 29.4777 9.50093C29.4777 7.48224 31.1375 5.79252 33.1562 5.79252C35.1749 5.79252 36.8646 7.43738 36.8646 9.45607C36.8646 9.63551 36.8197 9.84486 36.7599 10.0093H30.1506V8.94766H35.9824L35.6235 9.47103C35.6235 8.05047 34.487 6.95888 33.1562 6.95888C31.7655 6.95888 30.7039 8.09533 30.7039 9.50093C30.7039 10.8916 31.7954 12.043 33.2609 12.043C34.2777 12.043 35.1898 11.5944 35.6683 10.9514L36.5506 11.6991ZM44.253 13.2093C42.2941 13.2093 40.8287 11.415 40.8287 9.50093C40.8287 7.58692 42.2941 5.79252 44.253 5.79252C46.1969 5.79252 47.8268 7.46729 47.8268 9.50093C47.8268 11.5346 46.1969 13.2093 44.253 13.2093ZM44.1334 12.043C45.4791 12.043 46.6006 10.8766 46.6006 9.50093C46.6006 8.14019 45.4791 6.95888 44.1334 6.95888C42.7876 6.95888 41.6661 8.12523 41.6661 9.50093C41.6661 10.8916 42.7876 12.043 44.1334 12.043ZM40.5595 17.1271V6.00187H41.7707V8.40935L41.4418 9.51589L41.7707 10.8168V17.1271H40.5595ZM39.1988 7.16822V6.00187H41.7707L41.382 7.16822H39.1988ZM39.1988 17.1271V15.9757H41.382L41.7707 17.1271H39.1988ZM40.5446 17.1271L41.038 15.9757H43.8492V17.1271H40.5446ZM51.0283 13V11.8486H54.4376L55.0357 13H51.0283ZM53.8245 13L54.4376 11.8486H57.847V13H53.8245ZM51.0283 7.16822V6.00187H55.0357L54.4376 7.16822H51.0283ZM53.8245 13V6.00187H55.0357V13H53.8245ZM54.4675 4.34206C53.8245 4.34206 53.2862 3.83364 53.2862 3.1757C53.2862 2.51776 53.8245 1.99439 54.4675 1.99439C55.0956 1.99439 55.6339 2.51776 55.6339 3.1757C55.6339 3.83364 55.0956 4.34206 54.4675 4.34206ZM61.7512 13V6.00187H62.9176V7.87103L62.9624 8.66355V13H61.7512ZM62.3045 9.15701C62.3045 7.60187 63.2466 5.79252 65.0709 5.79252C66.7008 5.79252 67.912 7.03364 67.912 9.14206V13H66.7157V9.15701C66.7157 7.73645 65.9082 6.95888 64.8316 6.95888C63.8148 6.95888 62.9624 7.7215 62.9624 9.15701H62.3045ZM60.3905 7.16822V6.00187H62.9176L62.5438 7.16822H60.3905ZM60.3905 13V11.8486H62.5737L62.9624 13H60.3905ZM61.7512 13L62.1251 11.8486H64.2185V13H61.7512ZM65.4596 13V11.8486H67.5531L67.912 13H65.4596ZM66.7157 13L67.1045 11.8486H69.2877V13H66.7157ZM73.5209 17.1271C72.1602 17.1271 71.0237 16.1701 71.0237 15.0187C71.0237 13.9121 72.0106 13 73.2069 13L73.3116 12.7607H77.1246C78.3508 12.7607 79.3826 13.7477 79.3826 14.914C79.3826 16.1252 78.2611 17.1271 76.9452 17.1271H73.5209ZM74.8817 11.3103C72.9975 11.3103 71.6518 10.2037 71.6518 8.6486C71.6518 7.10841 72.9975 6.00187 74.8817 6.00187C76.6461 6.00187 78.0817 7.24299 78.0817 8.75327C78.0817 10.2486 76.7359 11.3103 74.8817 11.3103ZM74.8817 10.2636C76.063 10.2636 76.9153 9.59065 76.9153 8.6486C76.9153 7.7215 76.063 7.0486 74.8817 7.0486C73.6854 7.0486 72.8181 7.7215 72.8181 8.6486C72.8181 9.59065 73.6854 10.2636 74.8817 10.2636ZM73.4162 13.5383C72.3845 13.5383 71.3975 13.0299 71.3975 11.8935C71.3975 10.9664 72.0555 10.3383 72.9676 10.0841L73.3415 10.7869C72.863 10.8916 72.519 11.3103 72.519 11.8336C72.519 12.372 72.9377 12.7607 73.6106 12.7607L73.4162 13.5383ZM76.8405 16.0804C77.6032 16.0804 78.1863 15.5869 78.1863 14.9589C78.1863 14.3308 77.6331 13.8224 76.9452 13.8224H73.4162C72.7433 13.8224 72.205 14.3308 72.205 14.9589C72.205 15.5869 72.7882 16.0804 73.5359 16.0804H76.8405ZM75.5845 7.0486L74.8817 6.00187H79.6368V7.0486H75.5845ZM93.1575 13V2.0542H94.3687V13H93.1575ZM93.7107 9.15701C93.7107 7.60187 94.6528 5.79252 96.4771 5.79252C98.0472 5.79252 99.3182 7.03364 99.3182 9.15701V13H98.122V9.15701C98.122 7.69159 97.2696 6.95888 96.2379 6.95888C95.221 6.95888 94.3687 7.7215 94.3687 9.15701H93.7107ZM91.7967 3.22056V2.0542H94.3687L93.9799 3.22056H91.7967ZM91.7967 13V11.8486H93.9799L94.3687 13H91.7967ZM93.1575 13L93.5313 11.8486H95.6248V13H93.1575ZM96.8659 13V11.8486H98.9593L99.3182 13H96.8659ZM98.122 13L98.5107 11.8486H100.694V13H98.122ZM109.832 11.6991C109.144 12.5963 107.843 13.2093 106.437 13.2093C104.434 13.2093 102.759 11.5495 102.759 9.50093C102.759 7.48224 104.419 5.79252 106.437 5.79252C108.456 5.79252 110.146 7.43738 110.146 9.45607C110.146 9.63551 110.101 9.84486 110.041 10.0093H103.432V8.94766H109.264L108.905 9.47103C108.905 8.05047 107.768 6.95888 106.437 6.95888C105.047 6.95888 103.985 8.09533 103.985 9.50093C103.985 10.8916 105.077 12.043 106.542 12.043C107.559 12.043 108.471 11.5944 108.95 10.9514L109.832 11.6991ZM116.233 9.26168C116.233 7.31776 117.325 5.79252 119 5.79252C119.628 5.79252 120.286 5.97196 120.794 6.49533V7.7215C120.271 7.16822 119.598 6.95888 119 6.95888C117.848 6.95888 116.891 8.00561 116.891 9.26168H116.233ZM115.68 13V6.00187H116.846V7.46729L116.891 8.25981V13H115.68ZM113.766 7.16822V6.00187H116.846L116.383 7.16822H113.766ZM113.766 13V11.8486H116.413L116.891 13H113.766ZM115.68 13L116.218 11.8486H119.224V13H115.68ZM138.666 13.2093C137.156 13.2093 136.079 12.0879 136.079 10.6075V3.54953H137.29V10.5776C137.29 11.4449 137.859 12.043 138.666 12.043C139.444 12.043 140.042 11.4449 140.042 10.5776V9.41121H141.238V10.5776C141.238 12.0879 140.146 13.2093 138.666 13.2093ZM133.911 7.16822V6.00187H137.29L136.782 7.16822H133.911ZM136.662 7.16822L136.079 6.00187H139.907V7.16822H136.662ZM151.707 11.6991C151.019 12.5963 149.718 13.2093 148.312 13.2093C146.309 13.2093 144.634 11.5495 144.634 9.50093C144.634 7.48224 146.294 5.79252 148.312 5.79252C150.331 5.79252 152.021 7.43738 152.021 9.45607C152.021 9.63551 151.976 9.84486 151.916 10.0093H145.307V8.94766H151.139L150.78 9.47103C150.78 8.05047 149.643 6.95888 148.312 6.95888C146.922 6.95888 145.86 8.09533 145.86 9.50093C145.86 10.8916 146.952 12.043 148.417 12.043C149.434 12.043 150.346 11.5944 150.825 10.9514L151.707 11.6991ZM158.168 13.2093C156.224 13.2093 154.594 11.5346 154.594 9.50093C154.594 7.46729 156.224 5.79252 158.168 5.79252C160.127 5.79252 161.592 7.58692 161.592 9.50093C161.592 11.415 160.127 13.2093 158.168 13.2093ZM158.288 12.043C159.634 12.043 160.755 10.8916 160.755 9.50093C160.755 8.12523 159.634 6.95888 158.288 6.95888C156.942 6.95888 155.82 8.14019 155.82 9.50093C155.82 10.8766 156.942 12.043 158.288 12.043ZM160.65 13V10.5178L160.979 9.50093L160.65 8.40935V6.00187H161.862V13H160.65ZM160.65 13L161.039 11.8486H163.222V13H160.65ZM165.571 13V6.00187H166.768V7.58692L166.783 8.17009V13H165.571ZM172.076 8.61869C172.076 7.42243 171.747 6.95888 171.209 6.95888C170.596 6.95888 170.028 7.70654 170.028 9.1271H169.37C169.37 7.79626 170.312 5.79252 171.583 5.79252C172.674 5.79252 173.287 6.74953 173.287 8.61869V13H172.076V8.61869ZM168.831 8.61869C168.831 7.42243 168.502 6.95888 167.964 6.95888C167.351 6.95888 166.783 7.7215 166.783 9.15701H166.125C166.125 7.82617 167.067 5.79252 168.338 5.79252C169.414 5.79252 170.028 6.74953 170.028 8.61869V13H168.831V8.61869Z" fill="#363131"/>
<rect width="140" height="20" transform="translate(0 25)" fill="#D7C6FF"/>
<path d="M9.15327 38V36.8486H12.5626L13.1607 38H9.15327ZM11.9495 38L12.5626 36.8486H15.972V38H11.9495ZM9.15327 32.1682V31.0019H13.1607L12.5626 32.1682H9.15327ZM11.9495 38V31.0019H13.1607V38H11.9495ZM12.5925 29.3421C11.9495 29.3421 11.4112 28.8336 11.4112 28.1757C11.4112 27.5178 11.9495 26.9944 12.5925 26.9944C13.2206 26.9944 13.7589 27.5178 13.7589 28.1757C13.7589 28.8336 13.2206 29.3421 12.5925 29.3421ZM19.8762 38V31.0019H21.0426V32.871L21.0874 33.6636V38H19.8762ZM20.4295 34.157C20.4295 32.6019 21.3716 30.7925 23.1959 30.7925C24.8258 30.7925 26.037 32.0336 26.037 34.1421V38H24.8407V34.157C24.8407 32.7364 24.0332 31.9589 22.9566 31.9589C21.9398 31.9589 21.0874 32.7215 21.0874 34.157H20.4295ZM18.5155 32.1682V31.0019H21.0426L20.6688 32.1682H18.5155ZM18.5155 38V36.8486H20.6987L21.0874 38H18.5155ZM19.8762 38L20.2501 36.8486H22.3435V38H19.8762ZM23.5846 38V36.8486H25.6781L26.037 38H23.5846ZM24.8407 38L25.2295 36.8486H27.4127V38H24.8407ZM32.3039 29.6112C32.3039 27.9963 33.3655 26.8598 34.8609 26.8598C36.3562 26.8598 37.4328 27.9813 37.4328 29.5664V29.7458H36.2216V29.5664C36.2216 28.6542 35.6534 28.0112 34.8609 28.0112C34.0534 28.0112 33.5151 28.6542 33.5151 29.5664V38H32.3039V29.6112ZM30.1954 32.1682V31.0019H33.5151L33.0067 32.1682H30.1954ZM32.902 32.1682L32.3039 31.0019H36.2665V32.1682H32.902ZM30.1954 38V36.8486H33.0067L33.5151 38H30.1954ZM32.3039 38L32.902 36.8486H36.2665V38H32.3039ZM43.6399 38.2093C41.5315 38.2093 39.9763 36.5047 39.9763 34.5009C39.9763 32.4972 41.6063 30.7925 43.6399 30.7925C45.6586 30.7925 47.2885 32.4972 47.2885 34.5009C47.2885 36.5047 45.7334 38.2093 43.6399 38.2093ZM43.6399 37.043C45.0006 37.043 46.0623 35.9065 46.0623 34.5009C46.0623 33.0953 45.0006 31.9589 43.6399 31.9589C42.2642 31.9589 41.2025 33.0953 41.2025 34.5009C41.2025 35.9065 42.2642 37.043 43.6399 37.043ZM53.4208 34.2617C53.4208 32.3178 54.5124 30.7925 56.1871 30.7925C56.8152 30.7925 57.4731 30.972 57.9815 31.4953V32.7215C57.4582 32.1682 56.7853 31.9589 56.1871 31.9589C55.0357 31.9589 54.0787 33.0056 54.0787 34.2617H53.4208ZM52.8675 38V31.0019H54.0339V32.4673L54.0787 33.2598V38H52.8675ZM50.9535 32.1682V31.0019H54.0339L53.5703 32.1682H50.9535ZM50.9535 38V36.8486H53.6002L54.0787 38H50.9535ZM52.8675 38L53.4058 36.8486H56.4114V38H52.8675ZM60.8839 38V31.0019H62.0802V32.5869L62.0952 33.1701V38H60.8839ZM67.3886 33.6187C67.3886 32.4224 67.0596 31.9589 66.5213 31.9589C65.9082 31.9589 65.34 32.7065 65.34 34.1271H64.6821C64.6821 32.7963 65.6241 30.7925 66.8952 30.7925C67.9867 30.7925 68.5998 31.7495 68.5998 33.6187V38H67.3886V33.6187ZM64.1438 33.6187C64.1438 32.4224 63.8148 31.9589 63.2765 31.9589C62.6634 31.9589 62.0952 32.7215 62.0952 34.157H61.4372C61.4372 32.8262 62.3793 30.7925 63.6503 30.7925C64.7269 30.7925 65.34 31.7495 65.34 33.6187V38H64.1438V33.6187ZM78.4256 36.6991C77.7377 37.5963 76.4368 38.2093 75.0312 38.2093C73.0275 38.2093 71.3527 36.5495 71.3527 34.5009C71.3527 32.4822 73.0125 30.7925 75.0312 30.7925C77.0499 30.7925 78.7396 32.4374 78.7396 34.4561C78.7396 34.6355 78.6947 34.8449 78.6349 35.0093H72.0256V33.9477H77.8574L77.4985 34.471C77.4985 33.0505 76.362 31.9589 75.0312 31.9589C73.6405 31.9589 72.5789 33.0953 72.5789 34.5009C72.5789 35.8916 73.6704 37.043 75.1359 37.043C76.1527 37.043 77.0648 36.5944 77.5433 35.9514L78.4256 36.6991ZM87.3691 38V35.5925L87.6981 34.5458L87.3691 33.4991V27.0542H88.5803V38H87.3691ZM84.8869 38.2093C82.9429 38.2093 81.313 36.5346 81.313 34.5009C81.313 32.4673 82.9429 30.7925 84.8869 30.7925C86.8457 30.7925 88.3112 32.5869 88.3112 34.5009C88.3112 36.415 86.8457 38.2093 84.8869 38.2093ZM85.0065 37.043C86.3523 37.043 87.4738 35.8916 87.4738 34.5009C87.4738 33.1252 86.3523 31.9589 85.0065 31.9589C83.6607 31.9589 82.5392 33.1402 82.5392 34.5009C82.5392 35.8766 83.6607 37.043 85.0065 37.043ZM85.7392 28.2206V27.0542H88.5803L88.1467 28.2206H85.7392ZM87.3691 38L87.7579 36.8486H89.9411V38H87.3691ZM105.824 38.2093C103.88 38.2093 102.251 36.5346 102.251 34.5009C102.251 32.4673 103.88 30.7925 105.824 30.7925C107.783 30.7925 109.249 32.5869 109.249 34.5009C109.249 36.415 107.783 38.2093 105.824 38.2093ZM105.944 37.043C107.29 37.043 108.411 35.8916 108.411 34.5009C108.411 33.1252 107.29 31.9589 105.944 31.9589C104.598 31.9589 103.477 33.1402 103.477 34.5009C103.477 35.8766 104.598 37.043 105.944 37.043ZM108.307 38V35.5178L108.636 34.5009L108.307 33.4093V31.0019H109.518V38H108.307ZM108.307 38L108.695 36.8486H110.879V38H108.307ZM114.095 38V31.0019H115.261V32.871L115.306 33.6636V38H114.095ZM114.648 34.157C114.648 32.6019 115.59 30.7925 117.415 30.7925C119.045 30.7925 120.256 32.0336 120.256 34.1421V38H119.059V34.157C119.059 32.7364 118.252 31.9589 117.175 31.9589C116.159 31.9589 115.306 32.7215 115.306 34.157H114.648ZM112.734 32.1682V31.0019H115.261L114.888 32.1682H112.734ZM112.734 38V36.8486H114.917L115.306 38H112.734ZM114.095 38L114.469 36.8486H116.562V38H114.095ZM117.803 38V36.8486H119.897L120.256 38H117.803ZM119.059 38L119.448 36.8486H121.631V38H119.059ZM129.244 38V35.5925L129.573 34.5458L129.244 33.4991V27.0542H130.455V38H129.244ZM126.762 38.2093C124.818 38.2093 123.188 36.5346 123.188 34.5009C123.188 32.4673 124.818 30.7925 126.762 30.7925C128.721 30.7925 130.186 32.5869 130.186 34.5009C130.186 36.415 128.721 38.2093 126.762 38.2093ZM126.881 37.043C128.227 37.043 129.349 35.8916 129.349 34.5009C129.349 33.1252 128.227 31.9589 126.881 31.9589C125.536 31.9589 124.414 33.1402 124.414 34.5009C124.414 35.8766 125.536 37.043 126.881 37.043ZM127.614 28.2206V27.0542H130.455L130.022 28.2206H127.614ZM129.244 38L129.633 36.8486H131.816V38H129.244Z" fill="#363131"/>
<rect width="119" height="20" transform="translate(0 50)" fill="#D7C6FF"/>
<path d="M15.6131 61.6991C14.9252 62.5963 13.6243 63.2093 12.2187 63.2093C10.215 63.2093 8.54019 61.5495 8.54019 59.5009C8.54019 57.4822 10.2 55.7925 12.2187 55.7925C14.2374 55.7925 15.9271 57.4374 15.9271 59.4561C15.9271 59.6355 15.8822 59.8449 15.8224 60.0093H9.21308V58.9477H15.0449L14.686 59.471C14.686 58.0505 13.5495 56.9589 12.2187 56.9589C10.828 56.9589 9.76636 58.0953 9.76636 59.5009C9.76636 60.8916 10.8579 62.043 12.3234 62.043C13.3402 62.043 14.2523 61.5944 14.7308 60.9514L15.6131 61.6991ZM19.0089 63V56.0019H20.2052V57.5869L20.2202 58.1701V63H19.0089ZM25.5136 58.6187C25.5136 57.4224 25.1846 56.9589 24.6463 56.9589C24.0332 56.9589 23.465 57.7065 23.465 59.1271H22.8071C22.8071 57.7963 23.7491 55.7925 25.0202 55.7925C26.1117 55.7925 26.7248 56.7495 26.7248 58.6187V63H25.5136V58.6187ZM22.2688 58.6187C22.2688 57.4224 21.9398 56.9589 21.4015 56.9589C20.7884 56.9589 20.2202 57.7215 20.2202 59.157H19.5622C19.5622 57.8262 20.5043 55.7925 21.7753 55.7925C22.8519 55.7925 23.465 56.7495 23.465 58.6187V63H22.2688V58.6187ZM33.7842 63.2093C31.8254 63.2093 30.3599 61.415 30.3599 59.5009C30.3599 57.5869 31.8254 55.7925 33.7842 55.7925C35.7282 55.7925 37.3581 57.4673 37.3581 59.5009C37.3581 61.5346 35.7282 63.2093 33.7842 63.2093ZM33.6646 62.043C35.0104 62.043 36.1319 60.8766 36.1319 59.5009C36.1319 58.1402 35.0104 56.9589 33.6646 56.9589C32.3188 56.9589 31.1973 58.1252 31.1973 59.5009C31.1973 60.8916 32.3188 62.043 33.6646 62.043ZM30.0908 67.1271V56.0019H31.302V58.4093L30.973 59.5159L31.302 60.8168V67.1271H30.0908ZM28.73 57.1682V56.0019H31.302L30.9132 57.1682H28.73ZM28.73 67.1271V65.9757H30.9132L31.302 67.1271H28.73ZM30.0758 67.1271L30.5693 65.9757H33.3805V67.1271H30.0758ZM43.6399 63.2093C41.5315 63.2093 39.9763 61.5047 39.9763 59.5009C39.9763 57.4972 41.6063 55.7925 43.6399 55.7925C45.6586 55.7925 47.2885 57.4972 47.2885 59.5009C47.2885 61.5047 45.7334 63.2093 43.6399 63.2093ZM43.6399 62.043C45.0006 62.043 46.0623 60.9065 46.0623 59.5009C46.0623 58.0953 45.0006 56.9589 43.6399 56.9589C42.2642 56.9589 41.2025 58.0953 41.2025 59.5009C41.2025 60.9065 42.2642 62.043 43.6399 62.043ZM51.0731 63L49.5479 56.0019H50.7591L52.1946 63H51.0731ZM51.7311 63L53.2862 56.5402H54.318L52.8526 63H51.7311ZM55.3647 63L53.8993 56.5402H54.9161L56.4713 63H55.3647ZM56.0077 63L57.4432 56.0019H58.6544L57.1292 63H56.0077ZM51.3871 62.8206V61.8486H52.5685V62.8206H51.3871ZM53.7498 57.6916L53.6301 56.6449L54.4526 56.5402L54.5722 57.6019L53.7498 57.6916ZM56.6357 62.8206L55.6488 62.7458L55.8133 61.8486L56.8152 61.9234L56.6357 62.8206ZM48.9946 57.1682V56.0019H50.7591L50.49 57.1682H48.9946ZM49.9217 57.1682L49.5479 56.0019H52.0301V57.1682H49.9217ZM56.1722 57.1682V56.0019H58.6544L58.2806 57.1682H56.1722ZM57.7124 57.1682L57.4432 56.0019H59.2077V57.1682H57.7124ZM67.9568 61.6991C67.269 62.5963 65.968 63.2093 64.5624 63.2093C62.5587 63.2093 60.8839 61.5495 60.8839 59.5009C60.8839 57.4822 62.5438 55.7925 64.5624 55.7925C66.5811 55.7925 68.2709 57.4374 68.2709 59.4561C68.2709 59.6355 68.226 59.8449 68.1662 60.0093H61.5568V58.9477H67.3886L67.0297 59.471C67.0297 58.0505 65.8933 56.9589 64.5624 56.9589C63.1718 56.9589 62.1101 58.0953 62.1101 59.5009C62.1101 60.8916 63.2017 62.043 64.6671 62.043C65.6839 62.043 66.5961 61.5944 67.0746 60.9514L67.9568 61.6991ZM74.3583 59.2617C74.3583 57.3178 75.4499 55.7925 77.1246 55.7925C77.7527 55.7925 78.4106 55.972 78.919 56.4953V57.7215C78.3957 57.1682 77.7228 56.9589 77.1246 56.9589C75.9732 56.9589 75.0162 58.0056 75.0162 59.2617H74.3583ZM73.805 63V56.0019H74.9714V57.4673L75.0162 58.2598V63H73.805ZM71.891 57.1682V56.0019H74.9714L74.5078 57.1682H71.891ZM71.891 63V61.8486H74.5377L75.0162 63H71.891ZM73.805 63L74.3433 61.8486H77.3489V63H73.805ZM88.8943 61.6991C88.2065 62.5963 86.9055 63.2093 85.4999 63.2093C83.4962 63.2093 81.8214 61.5495 81.8214 59.5009C81.8214 57.4822 83.4813 55.7925 85.4999 55.7925C87.5186 55.7925 89.2084 57.4374 89.2084 59.4561C89.2084 59.6355 89.1635 59.8449 89.1037 60.0093H82.4943V58.9477H88.3261L87.9672 59.471C87.9672 58.0505 86.8308 56.9589 85.4999 56.9589C84.1093 56.9589 83.0476 58.0953 83.0476 59.5009C83.0476 60.8916 84.1392 62.043 85.6046 62.043C86.6214 62.043 87.5336 61.5944 88.0121 60.9514L88.8943 61.6991ZM97.8379 63V60.5925L98.1668 59.5458L97.8379 58.4991V52.0542H99.0491V63H97.8379ZM95.3556 63.2093C93.4117 63.2093 91.7818 61.5346 91.7818 59.5009C91.7818 57.4673 93.4117 55.7925 95.3556 55.7925C97.3145 55.7925 98.7799 57.5869 98.7799 59.5009C98.7799 61.415 97.3145 63.2093 95.3556 63.2093ZM95.4752 62.043C96.821 62.043 97.9425 60.8916 97.9425 59.5009C97.9425 58.1252 96.821 56.9589 95.4752 56.9589C94.1294 56.9589 93.0079 58.1402 93.0079 59.5009C93.0079 60.8766 94.1294 62.043 95.4752 62.043ZM96.2079 53.2206V52.0542H99.0491L98.6154 53.2206H96.2079ZM97.8379 63L98.2266 61.8486H100.41V63H97.8379ZM106.467 63.2093C105.809 63.2093 105.271 62.7009 105.271 62.043C105.271 61.385 105.809 60.8617 106.467 60.8617C107.095 60.8617 107.619 61.385 107.619 62.043C107.619 62.7009 107.095 63.2093 106.467 63.2093Z" fill="#363131"/>
</svg>
