<svg width="204" height="145" viewBox="0 0 204 145" fill="none" xmlns="http://www.w3.org/2000/svg">
<rect width="182" height="20" transform="translate(0.572266)" fill="#D7C6FF"/>
<path d="M12.7461 13.2093C11.505 13.2093 10.2639 12.9103 9.30685 12.4467L9.97974 11.4449C10.6377 11.9234 11.6844 12.1028 12.776 12.1028C14.3311 12.1028 15.0788 11.6991 15.0788 11.0561C15.0788 10.5327 14.6153 10.2187 13.2844 10.0243L12.1031 9.87477C10.4882 9.65047 9.48628 9.18692 9.48628 7.94579C9.48628 6.58505 10.8321 5.79252 12.8059 5.79252C13.9424 5.79252 15.1386 6.03178 16.0508 6.54019L15.4825 7.43738C14.5854 7.0785 13.6433 6.89907 12.6265 6.89907C11.3554 6.89907 10.6825 7.28785 10.6825 7.82617C10.6825 8.37944 11.191 8.57383 12.3424 8.73832L13.4938 8.88785C15.4377 9.14206 16.305 9.90467 16.305 10.9813C16.305 12.372 14.8396 13.2093 12.7461 13.2093ZM16.0508 6.54019V8.03551H14.8545V6.74953L16.0508 6.54019ZM9.30685 12.4467V10.9514H10.5031V12.2224L9.30685 12.4467ZM20.1943 13V11.8486H23.6036L24.2018 13H20.1943ZM22.9905 13L23.6036 11.8486H27.013V13H22.9905ZM20.1943 7.16822V6.00187H24.2018L23.6036 7.16822H20.1943ZM22.9905 13V6.00187H24.2018V13H22.9905ZM23.6335 4.34206C22.9905 4.34206 22.4522 3.83364 22.4522 3.1757C22.4522 2.51776 22.9905 1.99439 23.6335 1.99439C24.2616 1.99439 24.7999 2.51776 24.7999 3.1757C24.7999 3.83364 24.2616 4.34206 23.6335 4.34206ZM30.05 13V6.00187H31.2462V7.58692L31.2612 8.17009V13H30.05ZM36.5546 8.61869C36.5546 7.42243 36.2257 6.95888 35.6873 6.95888C35.0743 6.95888 34.506 7.70654 34.506 9.1271H33.8481C33.8481 7.79626 34.7901 5.79252 36.0612 5.79252C37.1528 5.79252 37.7658 6.74953 37.7658 8.61869V13H36.5546V8.61869ZM33.3098 8.61869C33.3098 7.42243 32.9808 6.95888 32.4425 6.95888C31.8294 6.95888 31.2612 7.7215 31.2612 9.15701H30.6032C30.6032 7.82617 31.5453 5.79252 32.8163 5.79252C33.8929 5.79252 34.506 6.74953 34.506 8.61869V13H33.3098V8.61869ZM45.9467 13V11.1607V10.5776V6.00187H47.158V13H45.9467ZM40.9972 9.82991V6.00187H42.1935V9.82991C42.1935 11.2953 43.0458 12.043 44.0776 12.043C45.0944 12.043 45.9467 11.2654 45.9467 9.82991H46.6047C46.6047 11.3701 45.6626 13.1794 43.8383 13.1794C42.2383 13.1794 40.9972 11.9533 40.9972 9.82991ZM44.571 7.16822V6.00187H47.158L46.7542 7.16822H44.571ZM39.6215 7.16822V6.00187H42.1935L41.8047 7.16822H39.6215ZM45.9467 13L46.3355 11.8486H48.5187V13H45.9467ZM54.3818 13V2.0542H55.5931V13H54.3818ZM51.5706 13V11.8486H54.98L55.5931 13H51.5706ZM54.3818 13L54.98 11.8486H58.3893V13H54.3818ZM51.5856 3.22056V2.0542H55.5931L54.98 3.22056H51.5856ZM65.9571 13.2093C64.4469 13.2093 63.3702 12.0879 63.3702 10.6075V3.54953H64.5814V10.5776C64.5814 11.4449 65.1497 12.043 65.9571 12.043C66.7347 12.043 67.3328 11.4449 67.3328 10.5776V9.41121H68.5291V10.5776C68.5291 12.0879 67.4375 13.2093 65.9571 13.2093ZM61.202 7.16822V6.00187H64.5814L64.073 7.16822H61.202ZM63.9534 7.16822L63.3702 6.00187H67.1983V7.16822H63.9534ZM74.9904 13.2093C73.0464 13.2093 71.4165 11.5346 71.4165 9.50093C71.4165 7.46729 73.0464 5.79252 74.9904 5.79252C76.9493 5.79252 78.4147 7.58692 78.4147 9.50093C78.4147 11.415 76.9493 13.2093 74.9904 13.2093ZM75.11 12.043C76.4558 12.043 77.5773 10.8916 77.5773 9.50093C77.5773 8.12523 76.4558 6.95888 75.11 6.95888C73.7642 6.95888 72.6427 8.14019 72.6427 9.50093C72.6427 10.8766 73.7642 12.043 75.11 12.043ZM77.4726 13V10.5178L77.8016 9.50093L77.4726 8.40935V6.00187H78.6838V13H77.4726ZM77.4726 13L77.8614 11.8486H80.0446V13H77.4726ZM83.261 13V6.00187H84.4273V7.87103L84.4722 8.66355V13H83.261ZM83.8143 9.15701C83.8143 7.60187 84.7563 5.79252 86.5806 5.79252C88.2105 5.79252 89.4217 7.03364 89.4217 9.14206V13H88.2255V9.15701C88.2255 7.73645 87.418 6.95888 86.3414 6.95888C85.3245 6.95888 84.4722 7.7215 84.4722 9.15701H83.8143ZM81.9002 7.16822V6.00187H84.4273L84.0535 7.16822H81.9002ZM81.9002 13V11.8486H84.0834L84.4722 13H81.9002ZM83.261 13L83.6348 11.8486H85.7283V13H83.261ZM86.9694 13V11.8486H89.0629L89.4217 13H86.9694ZM88.2255 13L88.6143 11.8486H90.7974V13H88.2255ZM99.9354 11.6991C99.2475 12.5963 97.9466 13.2093 96.541 13.2093C94.5372 13.2093 92.8625 11.5495 92.8625 9.50093C92.8625 7.48224 94.5223 5.79252 96.541 5.79252C98.5596 5.79252 100.249 7.43738 100.249 9.45607C100.249 9.63551 100.205 9.84486 100.145 10.0093H93.5353V8.94766H99.3671L99.0082 9.47103C99.0082 8.05047 97.8718 6.95888 96.541 6.95888C95.1503 6.95888 94.0886 8.09533 94.0886 9.50093C94.0886 10.8916 95.1802 12.043 96.6456 12.043C97.6625 12.043 98.5746 11.5944 99.0531 10.9514L99.9354 11.6991ZM107.025 13.2093C104.916 13.2093 103.361 11.5047 103.361 9.50093C103.361 7.4972 104.991 5.79252 107.025 5.79252C109.043 5.79252 110.673 7.4972 110.673 9.50093C110.673 11.5047 109.118 13.2093 107.025 13.2093ZM107.025 12.043C108.385 12.043 109.447 10.9065 109.447 9.50093C109.447 8.09533 108.385 6.95888 107.025 6.95888C105.649 6.95888 104.587 8.09533 104.587 9.50093C104.587 10.9065 105.649 12.043 107.025 12.043ZM119.228 13V11.1607V10.5776V6.00187H120.439V13H119.228ZM114.278 9.82991V6.00187H115.475V9.82991C115.475 11.2953 116.327 12.043 117.359 12.043C118.376 12.043 119.228 11.2654 119.228 9.82991H119.886C119.886 11.3701 118.944 13.1794 117.12 13.1794C115.52 13.1794 114.278 11.9533 114.278 9.82991ZM117.852 7.16822V6.00187H120.439L120.035 7.16822H117.852ZM112.903 7.16822V6.00187H115.475L115.086 7.16822H112.903ZM119.228 13L119.617 11.8486H121.8V13H119.228ZM127.902 13.2093C126.661 13.2093 125.42 12.9103 124.463 12.4467L125.136 11.4449C125.794 11.9234 126.841 12.1028 127.932 12.1028C129.487 12.1028 130.235 11.6991 130.235 11.0561C130.235 10.5327 129.772 10.2187 128.441 10.0243L127.259 9.87477C125.644 9.65047 124.643 9.18692 124.643 7.94579C124.643 6.58505 125.988 5.79252 127.962 5.79252C129.099 5.79252 130.295 6.03178 131.207 6.54019L130.639 7.43738C129.742 7.0785 128.8 6.89907 127.783 6.89907C126.512 6.89907 125.839 7.28785 125.839 7.82617C125.839 8.37944 126.347 8.57383 127.499 8.73832L128.65 8.88785C130.594 9.14206 131.461 9.90467 131.461 10.9813C131.461 12.372 129.996 13.2093 127.902 13.2093ZM131.207 6.54019V8.03551H130.011V6.74953L131.207 6.54019ZM124.463 12.4467V10.9514H125.659V12.2224L124.463 12.4467ZM138.132 13V2.0542H139.343V13H138.132ZM135.321 13V11.8486H138.73L139.343 13H135.321ZM138.132 13L138.73 11.8486H142.139V13H138.132ZM135.336 3.22056V2.0542H139.343L138.73 3.22056H135.336ZM145.685 9.85981V6.00187H146.881V9.85981C146.881 11.3103 147.733 12.0729 148.765 12.0729C149.782 12.0729 150.634 11.2804 150.634 9.85981H151.292C151.292 11.4 150.35 13.2093 148.526 13.2093C146.941 13.2093 145.685 11.9682 145.685 9.85981ZM146.821 13.8972C146.851 15.3327 147.539 16.1103 148.675 16.1103C149.692 16.1103 150.634 15.4075 150.634 13.9869V6.00187H151.845V13.9869C151.845 16.0953 150.365 17.3065 148.66 17.3065C146.971 17.3065 145.655 16.0953 145.655 14.1065L146.821 13.8972ZM144.309 7.16822V6.00187H146.881L146.492 7.16822H144.309ZM146.044 7.16822L145.685 6.00187H148.137V7.16822H146.044ZM151.023 7.16822L150.634 6.00187H153.206V7.16822H151.023ZM149.378 7.16822V6.00187H151.845L151.472 7.16822H149.378ZM169.209 13.2093C167.265 13.2093 165.635 11.5346 165.635 9.50093C165.635 7.46729 167.265 5.79252 169.209 5.79252C171.168 5.79252 172.633 7.58692 172.633 9.50093C172.633 11.415 171.168 13.2093 169.209 13.2093ZM169.329 12.043C170.675 12.043 171.796 10.8916 171.796 9.50093C171.796 8.12523 170.675 6.95888 169.329 6.95888C167.983 6.95888 166.861 8.14019 166.861 9.50093C166.861 10.8766 167.983 12.043 169.329 12.043ZM171.691 13V10.5178L172.02 9.50093L171.691 8.40935V6.00187H172.903V13H171.691ZM171.691 13L172.08 11.8486H174.263V13H171.691Z" fill="#363131"/>
<rect width="203" height="20" transform="translate(0.572266 25)" fill="#D7C6FF"/>
<path d="M9.36666 34.5159C9.36666 32.4374 11.0713 30.7925 13.2096 30.7925C14.4508 30.7925 15.4975 31.1514 16.4096 31.9589L15.4526 32.7215C14.7199 32.1084 14.0769 31.9589 13.2396 31.9589C11.7891 31.9589 10.5928 33.1103 10.5928 34.5308C10.5928 35.9364 11.6994 37.043 13.1947 37.043C14.1667 37.043 15.1237 36.5645 15.6022 35.8916L16.4844 36.6393C15.8115 37.5664 14.4358 38.2093 13.09 38.2093C11.0564 38.2093 9.36666 36.5645 9.36666 34.5159ZM16.4096 31.9589V34.0523H15.1835V32.2729L16.4096 31.9589ZM22.5868 34.2617C22.5868 32.3178 23.6784 30.7925 25.3532 30.7925C25.9812 30.7925 26.6391 30.972 27.1476 31.4953V32.7215C26.6242 32.1682 25.9513 31.9589 25.3532 31.9589C24.2018 31.9589 23.2448 33.0056 23.2448 34.2617H22.5868ZM22.0335 38V31.0019H23.1999V32.4673L23.2448 33.2598V38H22.0335ZM20.1195 32.1682V31.0019H23.1999L22.7363 32.1682H20.1195ZM20.1195 38V36.8486H22.7662L23.2448 38H20.1195ZM22.0335 38L22.5719 36.8486H25.5775V38H22.0335ZM37.1229 36.6991C36.435 37.5963 35.1341 38.2093 33.7285 38.2093C31.7247 38.2093 30.05 36.5495 30.05 34.5009C30.05 32.4822 31.7098 30.7925 33.7285 30.7925C35.7471 30.7925 37.4369 32.4374 37.4369 34.4561C37.4369 34.6355 37.392 34.8449 37.3322 35.0093H30.7228V33.9477H36.5546L36.1957 34.471C36.1957 33.0505 35.0593 31.9589 33.7285 31.9589C32.3378 31.9589 31.2761 33.0953 31.2761 34.5009C31.2761 35.8916 32.3677 37.043 33.8331 37.043C34.85 37.043 35.7621 36.5944 36.2406 35.9514L37.1229 36.6991ZM43.5841 38.2093C41.6402 38.2093 40.0103 36.5346 40.0103 34.5009C40.0103 32.4673 41.6402 30.7925 43.5841 30.7925C45.543 30.7925 47.0084 32.5869 47.0084 34.5009C47.0084 36.415 45.543 38.2093 43.5841 38.2093ZM43.7037 37.043C45.0495 37.043 46.171 35.8916 46.171 34.5009C46.171 33.1252 45.0495 31.9589 43.7037 31.9589C42.358 31.9589 41.2365 33.1402 41.2365 34.5009C41.2365 35.8766 42.358 37.043 43.7037 37.043ZM46.0664 38V35.5178L46.3953 34.5009L46.0664 33.4093V31.0019H47.2776V38H46.0664ZM46.0664 38L46.4552 36.8486H48.6383V38H46.0664ZM55.4884 38.2093C53.9781 38.2093 52.9015 37.0879 52.9015 35.6075V28.5495H54.1127V35.5776C54.1127 36.4449 54.6809 37.043 55.4884 37.043C56.266 37.043 56.8641 36.4449 56.8641 35.5776V34.4112H58.0604V35.5776C58.0604 37.0879 56.9688 38.2093 55.4884 38.2093ZM50.7332 32.1682V31.0019H54.1127L53.6043 32.1682H50.7332ZM53.4846 32.1682L52.9015 31.0019H56.7295V32.1682H53.4846ZM62.0693 38V36.8486H65.4786L66.0768 38H62.0693ZM64.8655 38L65.4786 36.8486H68.888V38H64.8655ZM62.0693 32.1682V31.0019H66.0768L65.4786 32.1682H62.0693ZM64.8655 38V31.0019H66.0768V38H64.8655ZM65.5085 29.3421C64.8655 29.3421 64.3272 28.8336 64.3272 28.1757C64.3272 27.5178 64.8655 26.9944 65.5085 26.9944C66.1366 26.9944 66.6749 27.5178 66.6749 28.1757C66.6749 28.8336 66.1366 29.3421 65.5085 29.3421ZM74.9605 38L71.6707 31.0019H73.0165L75.7979 36.9981H75.424L78.2053 31.0019H79.5511L76.2614 38H74.9605ZM76.3362 32.1682V31.0019H79.5511L79.0726 32.1682H76.3362ZM78.5044 32.1682L78.2053 31.0019H80.1941V32.1682H78.5044ZM71.0278 32.1682V31.0019H73.0165L72.7175 32.1682H71.0278ZM72.1493 32.1682L71.6707 31.0019H74.8857V32.1682H72.1493ZM89.4666 36.6991C88.7787 37.5963 87.4778 38.2093 86.0722 38.2093C84.0685 38.2093 82.3937 36.5495 82.3937 34.5009C82.3937 32.4822 84.0535 30.7925 86.0722 30.7925C88.0909 30.7925 89.7806 32.4374 89.7806 34.4561C89.7806 34.6355 89.7358 34.8449 89.6759 35.0093H83.0666V33.9477H88.8984L88.5395 34.471C88.5395 33.0505 87.403 31.9589 86.0722 31.9589C84.6816 31.9589 83.6199 33.0953 83.6199 34.5009C83.6199 35.8916 84.7115 37.043 86.1769 37.043C87.1937 37.043 88.1059 36.5944 88.5844 35.9514L89.4666 36.6991ZM106.157 29.6112C106.157 27.9963 107.219 26.8598 108.714 26.8598C110.21 26.8598 111.286 27.9813 111.286 29.5664V29.7458H110.075V29.5664C110.075 28.6542 109.507 28.0112 108.714 28.0112C107.907 28.0112 107.369 28.6542 107.369 29.5664V38H106.157V29.6112ZM104.049 32.1682V31.0019H107.369L106.86 32.1682H104.049ZM106.756 32.1682L106.157 31.0019H110.12V32.1682H106.756ZM104.049 38V36.8486H106.86L107.369 38H104.049ZM106.157 38L106.756 36.8486H110.12V38H106.157ZM117.493 38.2093C115.385 38.2093 113.83 36.5047 113.83 34.5009C113.83 32.4972 115.46 30.7925 117.493 30.7925C119.512 30.7925 121.142 32.4972 121.142 34.5009C121.142 36.5047 119.587 38.2093 117.493 38.2093ZM117.493 37.043C118.854 37.043 119.916 35.9065 119.916 34.5009C119.916 33.0953 118.854 31.9589 117.493 31.9589C116.118 31.9589 115.056 33.0953 115.056 34.5009C115.056 35.9065 116.118 37.043 117.493 37.043ZM127.274 34.2617C127.274 32.3178 128.366 30.7925 130.041 30.7925C130.669 30.7925 131.327 30.972 131.835 31.4953V32.7215C131.312 32.1682 130.639 31.9589 130.041 31.9589C128.889 31.9589 127.932 33.0056 127.932 34.2617H127.274ZM126.721 38V31.0019H127.887V32.4673L127.932 33.2598V38H126.721ZM124.807 32.1682V31.0019H127.887L127.424 32.1682H124.807ZM124.807 38V36.8486H127.454L127.932 38H124.807ZM126.721 38L127.259 36.8486H130.265V38H126.721ZM134.992 34.5159C134.992 32.4374 136.696 30.7925 138.835 30.7925C140.076 30.7925 141.122 31.1514 142.035 31.9589L141.078 32.7215C140.345 32.1084 139.702 31.9589 138.865 31.9589C137.414 31.9589 136.218 33.1103 136.218 34.5308C136.218 35.9364 137.324 37.043 138.82 37.043C139.792 37.043 140.749 36.5645 141.227 35.8916L142.109 36.6393C141.437 37.5664 140.061 38.2093 138.715 38.2093C136.681 38.2093 134.992 36.5645 134.992 34.5159ZM142.035 31.9589V34.0523H140.808V32.2729L142.035 31.9589ZM152.279 36.6991C151.591 37.5963 150.29 38.2093 148.885 38.2093C146.881 38.2093 145.206 36.5495 145.206 34.5009C145.206 32.4822 146.866 30.7925 148.885 30.7925C150.903 30.7925 152.593 32.4374 152.593 34.4561C152.593 34.6355 152.548 34.8449 152.488 35.0093H145.879V33.9477H151.711L151.352 34.471C151.352 33.0505 150.216 31.9589 148.885 31.9589C147.494 31.9589 146.432 33.0953 146.432 34.5009C146.432 35.8916 147.524 37.043 148.989 37.043C150.006 37.043 150.918 36.5944 151.397 35.9514L152.279 36.6991ZM169.209 38.2093C167.265 38.2093 165.635 36.5346 165.635 34.5009C165.635 32.4673 167.265 30.7925 169.209 30.7925C171.168 30.7925 172.633 32.5869 172.633 34.5009C172.633 36.415 171.168 38.2093 169.209 38.2093ZM169.329 37.043C170.675 37.043 171.796 35.8916 171.796 34.5009C171.796 33.1252 170.675 31.9589 169.329 31.9589C167.983 31.9589 166.861 33.1402 166.861 34.5009C166.861 35.8766 167.983 37.043 169.329 37.043ZM171.691 38V35.5178L172.02 34.5009L171.691 33.4093V31.0019H172.903V38H171.691ZM171.691 38L172.08 36.8486H174.263V38H171.691ZM177.48 38V31.0019H178.646V32.871L178.691 33.6636V38H177.48ZM178.033 34.157C178.033 32.6019 178.975 30.7925 180.799 30.7925C182.429 30.7925 183.64 32.0336 183.64 34.1421V38H182.444V34.157C182.444 32.7364 181.637 31.9589 180.56 31.9589C179.543 31.9589 178.691 32.7215 178.691 34.157H178.033ZM176.119 32.1682V31.0019H178.646L178.272 32.1682H176.119ZM176.119 38V36.8486H178.302L178.691 38H176.119ZM177.48 38L177.854 36.8486H179.947V38H177.48ZM181.188 38V36.8486H183.282L183.64 38H181.188ZM182.444 38L182.833 36.8486H185.016V38H182.444ZM192.629 38V35.5925L192.958 34.5458L192.629 33.4991V27.0542H193.84V38H192.629ZM190.147 38.2093C188.203 38.2093 186.573 36.5346 186.573 34.5009C186.573 32.4673 188.203 30.7925 190.147 30.7925C192.106 30.7925 193.571 32.5869 193.571 34.5009C193.571 36.415 192.106 38.2093 190.147 38.2093ZM190.266 37.043C191.612 37.043 192.734 35.8916 192.734 34.5009C192.734 33.1252 191.612 31.9589 190.266 31.9589C188.92 31.9589 187.799 33.1402 187.799 34.5009C187.799 35.8766 188.92 37.043 190.266 37.043ZM190.999 28.2206V27.0542H193.84L193.406 28.2206H190.999ZM192.629 38L193.018 36.8486H195.201V38H192.629Z" fill="#363131"/>
<rect width="130" height="20" transform="translate(0.572266 50)" fill="#D7C6FF"/>
<path d="M12.7461 63.2093C11.505 63.2093 10.2639 62.9103 9.30685 62.4467L9.97974 61.4449C10.6377 61.9234 11.6844 62.1028 12.776 62.1028C14.3311 62.1028 15.0788 61.6991 15.0788 61.0561C15.0788 60.5327 14.6153 60.2187 13.2844 60.0243L12.1031 59.8748C10.4882 59.6505 9.48628 59.1869 9.48628 57.9458C9.48628 56.585 10.8321 55.7925 12.8059 55.7925C13.9424 55.7925 15.1386 56.0318 16.0508 56.5402L15.4825 57.4374C14.5854 57.0785 13.6433 56.8991 12.6265 56.8991C11.3554 56.8991 10.6825 57.2879 10.6825 57.8262C10.6825 58.3794 11.191 58.5738 12.3424 58.7383L13.4938 58.8879C15.4377 59.1421 16.305 59.9047 16.305 60.9813C16.305 62.372 14.8396 63.2093 12.7461 63.2093ZM16.0508 56.5402V58.0355H14.8545V56.7495L16.0508 56.5402ZM9.30685 62.4467V60.9514H10.5031V62.2224L9.30685 62.4467ZM23.2747 63.2093C21.1662 63.2093 19.6111 61.5047 19.6111 59.5009C19.6111 57.4972 21.241 55.7925 23.2747 55.7925C25.2934 55.7925 26.9233 57.4972 26.9233 59.5009C26.9233 61.5047 25.3681 63.2093 23.2747 63.2093ZM23.2747 62.043C24.6354 62.043 25.6971 60.9065 25.6971 59.5009C25.6971 58.0953 24.6354 56.9589 23.2747 56.9589C21.899 56.9589 20.8373 58.0953 20.8373 59.5009C20.8373 60.9065 21.899 62.043 23.2747 62.043ZM30.05 63V56.0019H31.2462V57.5869L31.2612 58.1701V63H30.05ZM36.5546 58.6187C36.5546 57.4224 36.2257 56.9589 35.6873 56.9589C35.0743 56.9589 34.506 57.7065 34.506 59.1271H33.8481C33.8481 57.7963 34.7901 55.7925 36.0612 55.7925C37.1528 55.7925 37.7658 56.7495 37.7658 58.6187V63H36.5546V58.6187ZM33.3098 58.6187C33.3098 57.4224 32.9808 56.9589 32.4425 56.9589C31.8294 56.9589 31.2612 57.7215 31.2612 59.157H30.6032C30.6032 57.8262 31.5453 55.7925 32.8163 55.7925C33.8929 55.7925 34.506 56.7495 34.506 58.6187V63H33.3098V58.6187ZM47.5916 61.6991C46.9037 62.5963 45.6028 63.2093 44.1972 63.2093C42.1935 63.2093 40.5187 61.5495 40.5187 59.5009C40.5187 57.4822 42.1785 55.7925 44.1972 55.7925C46.2159 55.7925 47.9056 57.4374 47.9056 59.4561C47.9056 59.6355 47.8608 59.8449 47.8009 60.0093H41.1916V58.9477H47.0234L46.6645 59.471C46.6645 58.0505 45.528 56.9589 44.1972 56.9589C42.8066 56.9589 41.7449 58.0953 41.7449 59.5009C41.7449 60.8916 42.8365 62.043 44.3019 62.043C45.3187 62.043 46.2309 61.5944 46.7094 60.9514L47.5916 61.6991ZM54.6809 63.2093C52.5725 63.2093 51.0174 61.5047 51.0174 59.5009C51.0174 57.4972 52.6473 55.7925 54.6809 55.7925C56.6996 55.7925 58.3295 57.4972 58.3295 59.5009C58.3295 61.5047 56.7744 63.2093 54.6809 63.2093ZM54.6809 62.043C56.0417 62.043 57.1033 60.9065 57.1033 59.5009C57.1033 58.0953 56.0417 56.9589 54.6809 56.9589C53.3052 56.9589 52.2435 58.0953 52.2435 59.5009C52.2435 60.9065 53.3052 62.043 54.6809 62.043ZM62.3235 63V56.0019H63.4898V57.871L63.5347 58.6636V63H62.3235ZM62.8768 59.157C62.8768 57.6019 63.8188 55.7925 65.6431 55.7925C67.273 55.7925 68.4842 57.0336 68.4842 59.1421V63H67.288V59.157C67.288 57.7364 66.4805 56.9589 65.4039 56.9589C64.387 56.9589 63.5347 57.7215 63.5347 59.157H62.8768ZM60.9627 57.1682V56.0019H63.4898L63.116 57.1682H60.9627ZM60.9627 63V61.8486H63.1459L63.5347 63H60.9627ZM62.3235 63L62.6973 61.8486H64.7908V63H62.3235ZM66.0319 63V61.8486H68.1254L68.4842 63H66.0319ZM67.288 63L67.6768 61.8486H69.8599V63H67.288ZM78.9979 61.6991C78.31 62.5963 77.0091 63.2093 75.6035 63.2093C73.5997 63.2093 71.925 61.5495 71.925 59.5009C71.925 57.4822 73.5848 55.7925 75.6035 55.7925C77.6221 55.7925 79.3119 57.4374 79.3119 59.4561C79.3119 59.6355 79.267 59.8449 79.2072 60.0093H72.5978V58.9477H78.4296L78.0707 59.471C78.0707 58.0505 76.9343 56.9589 75.6035 56.9589C74.2128 56.9589 73.1511 58.0953 73.1511 59.5009C73.1511 60.8916 74.2427 62.043 75.7081 62.043C76.725 62.043 77.6371 61.5944 78.1156 60.9514L78.9979 61.6991ZM93.5204 63L91.9952 56.0019H93.2064L94.6419 63H93.5204ZM94.1783 63L95.7335 56.5402H96.7653L95.2998 63H94.1783ZM97.812 63L96.3466 56.5402H97.3634L98.9185 63H97.812ZM98.455 63L99.8905 56.0019H101.102L99.5765 63H98.455ZM93.8344 62.8206V61.8486H95.0157V62.8206H93.8344ZM96.197 57.6916L96.0774 56.6449L96.8998 56.5402L97.0195 57.6019L96.197 57.6916ZM99.083 62.8206L98.0961 62.7458L98.2606 61.8486L99.2625 61.9234L99.083 62.8206ZM91.4419 57.1682V56.0019H93.2064L92.9372 57.1682H91.4419ZM92.369 57.1682L91.9952 56.0019H94.4774V57.1682H92.369ZM98.6195 57.1682V56.0019H101.102L100.728 57.1682H98.6195ZM100.16 57.1682L99.8905 56.0019H101.655V57.1682H100.16ZM104.198 63V52.0542H105.41V63H104.198ZM104.752 59.157C104.752 57.6019 105.694 55.7925 107.518 55.7925C109.088 55.7925 110.359 57.0336 110.359 59.157V63H109.163V59.157C109.163 57.6916 108.311 56.9589 107.279 56.9589C106.262 56.9589 105.41 57.7215 105.41 59.157H104.752ZM102.838 53.2206V52.0542H105.41L105.021 53.2206H102.838ZM102.838 63V61.8486H105.021L105.41 63H102.838ZM104.198 63L104.572 61.8486H106.666V63H104.198ZM107.907 63V61.8486H110L110.359 63H107.907ZM109.163 63L109.552 61.8486H111.735V63H109.163ZM117.493 63.2093C115.385 63.2093 113.83 61.5047 113.83 59.5009C113.83 57.4972 115.46 55.7925 117.493 55.7925C119.512 55.7925 121.142 57.4972 121.142 59.5009C121.142 61.5047 119.587 63.2093 117.493 63.2093ZM117.493 62.043C118.854 62.043 119.916 60.9065 119.916 59.5009C119.916 58.0953 118.854 56.9589 117.493 56.9589C116.118 56.9589 115.056 58.0953 115.056 59.5009C115.056 60.9065 116.118 62.043 117.493 62.043Z" fill="#363131"/>
<rect width="172" height="20" transform="translate(0.572266 75)" fill="#D7C6FF"/>
<path d="M14.5405 88V86.1607V85.5776V81.0019H15.7517V88H14.5405ZM9.59096 84.8299V81.0019H10.7872V84.8299C10.7872 86.2953 11.6396 87.043 12.6713 87.043C13.6882 87.043 14.5405 86.2654 14.5405 84.8299H15.1984C15.1984 86.3701 14.2564 88.1794 12.4321 88.1794C10.8321 88.1794 9.59096 86.9533 9.59096 84.8299ZM13.1648 82.1682V81.0019H15.7517L15.348 82.1682H13.1648ZM8.21526 82.1682V81.0019H10.7872L10.3984 82.1682H8.21526ZM14.5405 88L14.9293 86.8486H17.1125V88H14.5405ZM20.4485 88V81.0019H21.6148V82.871L21.6597 83.6636V88H20.4485ZM21.0018 84.157C21.0018 82.6019 21.9438 80.7925 23.7681 80.7925C25.398 80.7925 26.6092 82.0336 26.6092 84.1421V88H25.413V84.157C25.413 82.7364 24.6055 81.9589 23.5289 81.9589C22.512 81.9589 21.6597 82.7215 21.6597 84.157H21.0018ZM19.0877 82.1682V81.0019H21.6148L21.241 82.1682H19.0877ZM19.0877 88V86.8486H21.2709L21.6597 88H19.0877ZM20.4485 88L20.8223 86.8486H22.9158V88H20.4485ZM24.1569 88V86.8486H26.2504L26.6092 88H24.1569ZM25.413 88L25.8018 86.8486H27.9849V88H25.413ZM35.5976 88V85.5925L35.9266 84.5458L35.5976 83.4991V77.0542H36.8088V88H35.5976ZM33.1154 88.2093C31.1714 88.2093 29.5415 86.5346 29.5415 84.5009C29.5415 82.4673 31.1714 80.7925 33.1154 80.7925C35.0743 80.7925 36.5397 82.5869 36.5397 84.5009C36.5397 86.415 35.0743 88.2093 33.1154 88.2093ZM33.235 87.043C34.5808 87.043 35.7023 85.8916 35.7023 84.5009C35.7023 83.1252 34.5808 81.9589 33.235 81.9589C31.8892 81.9589 30.7677 83.1402 30.7677 84.5009C30.7677 85.8766 31.8892 87.043 33.235 87.043ZM33.9677 78.2206V77.0542H36.8088L36.3752 78.2206H33.9677ZM35.5976 88L35.9864 86.8486H38.1696V88H35.5976ZM47.5916 86.6991C46.9037 87.5963 45.6028 88.2093 44.1972 88.2093C42.1935 88.2093 40.5187 86.5495 40.5187 84.5009C40.5187 82.4822 42.1785 80.7925 44.1972 80.7925C46.2159 80.7925 47.9056 82.4374 47.9056 84.4561C47.9056 84.6355 47.8608 84.8449 47.8009 85.0093H41.1916V83.9477H47.0234L46.6645 84.471C46.6645 83.0505 45.528 81.9589 44.1972 81.9589C42.8066 81.9589 41.7449 83.0953 41.7449 84.5009C41.7449 85.8916 42.8365 87.043 44.3019 87.043C45.3187 87.043 46.2309 86.5944 46.7094 85.9514L47.5916 86.6991ZM53.9931 84.2617C53.9931 82.3178 55.0846 80.7925 56.7594 80.7925C57.3875 80.7925 58.0454 80.972 58.5538 81.4953V82.7215C58.0304 82.1682 57.3575 81.9589 56.7594 81.9589C55.608 81.9589 54.651 83.0056 54.651 84.2617H53.9931ZM53.4398 88V81.0019H54.6061V82.4673L54.651 83.2598V88H53.4398ZM51.5258 82.1682V81.0019H54.6061L54.1426 82.1682H51.5258ZM51.5258 88V86.8486H54.1725L54.651 88H51.5258ZM53.4398 88L53.9781 86.8486H56.9837V88H53.4398ZM65.0898 88.2093C63.8487 88.2093 62.6076 87.9103 61.6506 87.4467L62.3235 86.4449C62.9814 86.9234 64.0282 87.1028 65.1198 87.1028C66.6749 87.1028 67.4226 86.6991 67.4226 86.0561C67.4226 85.5327 66.959 85.2187 65.6282 85.0243L64.4469 84.8748C62.8319 84.6505 61.83 84.1869 61.83 82.9458C61.83 81.585 63.1758 80.7925 65.1497 80.7925C66.2861 80.7925 67.4824 81.0318 68.3945 81.5402L67.8263 82.4374C66.9291 82.0785 65.987 81.8991 64.9702 81.8991C63.6992 81.8991 63.0263 82.2879 63.0263 82.8262C63.0263 83.3794 63.5347 83.5738 64.6861 83.7383L65.8375 83.8879C67.7814 84.1421 68.6487 84.9047 68.6487 85.9813C68.6487 87.372 67.1833 88.2093 65.0898 88.2093ZM68.3945 81.5402V83.0355H67.1983V81.7495L68.3945 81.5402ZM61.6506 87.4467V85.9514H62.8469V87.2224L61.6506 87.4467ZM76.4259 88.2093C74.9156 88.2093 73.839 87.0879 73.839 85.6075V78.5495H75.0502V85.5776C75.0502 86.4449 75.6184 87.043 76.4259 87.043C77.2035 87.043 77.8016 86.4449 77.8016 85.5776V84.4112H78.9979V85.5776C78.9979 87.0879 77.9063 88.2093 76.4259 88.2093ZM71.6707 82.1682V81.0019H75.0502L74.5418 82.1682H71.6707ZM74.4221 82.1682L73.839 81.0019H77.667V82.1682H74.4221ZM85.4591 88.2093C83.5152 88.2093 81.8853 86.5346 81.8853 84.5009C81.8853 82.4673 83.5152 80.7925 85.4591 80.7925C87.418 80.7925 88.8834 82.5869 88.8834 84.5009C88.8834 86.415 87.418 88.2093 85.4591 88.2093ZM85.5787 87.043C86.9245 87.043 88.046 85.8916 88.046 84.5009C88.046 83.1252 86.9245 81.9589 85.5787 81.9589C84.233 81.9589 83.1115 83.1402 83.1115 84.5009C83.1115 85.8766 84.233 87.043 85.5787 87.043ZM87.9414 88V85.5178L88.2703 84.5009L87.9414 83.4093V81.0019H89.1526V88H87.9414ZM87.9414 88L88.3302 86.8486H90.5133V88H87.9414ZM93.7297 88V81.0019H94.8961V82.871L94.941 83.6636V88H93.7297ZM94.283 84.157C94.283 82.6019 95.2251 80.7925 97.0494 80.7925C98.6793 80.7925 99.8905 82.0336 99.8905 84.1421V88H98.6942V84.157C98.6942 82.7364 97.8868 81.9589 96.8101 81.9589C95.7933 81.9589 94.941 82.7215 94.941 84.157H94.283ZM92.369 82.1682V81.0019H94.8961L94.5223 82.1682H92.369ZM92.369 88V86.8486H94.5522L94.941 88H92.369ZM93.7297 88L94.1036 86.8486H96.197V88H93.7297ZM97.4382 88V86.8486H99.5316L99.8905 88H97.4382ZM98.6942 88L99.083 86.8486H101.266V88H98.6942ZM108.879 88V85.5925L109.208 84.5458L108.879 83.4991V77.0542H110.09V88H108.879ZM106.397 88.2093C104.453 88.2093 102.823 86.5346 102.823 84.5009C102.823 82.4673 104.453 80.7925 106.397 80.7925C108.356 80.7925 109.821 82.5869 109.821 84.5009C109.821 86.415 108.356 88.2093 106.397 88.2093ZM106.516 87.043C107.862 87.043 108.984 85.8916 108.984 84.5009C108.984 83.1252 107.862 81.9589 106.516 81.9589C105.17 81.9589 104.049 83.1402 104.049 84.5009C104.049 85.8766 105.17 87.043 106.516 87.043ZM107.249 78.2206V77.0542H110.09L109.656 78.2206H107.249ZM108.879 88L109.268 86.8486H111.451V88H108.879ZM117.434 88.2093C116.192 88.2093 114.951 87.9103 113.994 87.4467L114.667 86.4449C115.325 86.9234 116.372 87.1028 117.464 87.1028C119.019 87.1028 119.766 86.6991 119.766 86.0561C119.766 85.5327 119.303 85.2187 117.972 85.0243L116.791 84.8748C115.176 84.6505 114.174 84.1869 114.174 82.9458C114.174 81.585 115.52 80.7925 117.493 80.7925C118.63 80.7925 119.826 81.0318 120.738 81.5402L120.17 82.4374C119.273 82.0785 118.331 81.8991 117.314 81.8991C116.043 81.8991 115.37 82.2879 115.37 82.8262C115.37 83.3794 115.878 83.5738 117.03 83.7383L118.181 83.8879C120.125 84.1421 120.992 84.9047 120.992 85.9813C120.992 87.372 119.527 88.2093 117.434 88.2093ZM120.738 81.5402V83.0355H119.542V81.7495L120.738 81.5402ZM113.994 87.4467V85.9514H115.191V87.2224L113.994 87.4467ZM137.803 88.2093C135.859 88.2093 134.229 86.5346 134.229 84.5009C134.229 82.4673 135.859 80.7925 137.803 80.7925C139.762 80.7925 141.227 82.5869 141.227 84.5009C141.227 86.415 139.762 88.2093 137.803 88.2093ZM137.922 87.043C139.268 87.043 140.39 85.8916 140.39 84.5009C140.39 83.1252 139.268 81.9589 137.922 81.9589C136.577 81.9589 135.455 83.1402 135.455 84.5009C135.455 85.8766 136.577 87.043 137.922 87.043ZM140.285 88V85.5178L140.614 84.5009L140.285 83.4093V81.0019H141.496V88H140.285ZM140.285 88L140.674 86.8486H142.857V88H140.285ZM146.073 88V81.0019H147.24V82.871L147.285 83.6636V88H146.073ZM146.627 84.157C146.627 82.6019 147.569 80.7925 149.393 80.7925C151.023 80.7925 152.234 82.0336 152.234 84.1421V88H151.038V84.157C151.038 82.7364 150.231 81.9589 149.154 81.9589C148.137 81.9589 147.285 82.7215 147.285 84.157H146.627ZM144.713 82.1682V81.0019H147.24L146.866 82.1682H144.713ZM144.713 88V86.8486H146.896L147.285 88H144.713ZM146.073 88L146.447 86.8486H148.541V88H146.073ZM149.782 88V86.8486H151.875L152.234 88H149.782ZM151.038 88L151.427 86.8486H153.61V88H151.038ZM161.223 88V85.5925L161.552 84.5458L161.223 83.4991V77.0542H162.434V88H161.223ZM158.74 88.2093C156.796 88.2093 155.167 86.5346 155.167 84.5009C155.167 82.4673 156.796 80.7925 158.74 80.7925C160.699 80.7925 162.165 82.5869 162.165 84.5009C162.165 86.415 160.699 88.2093 158.74 88.2093ZM158.86 87.043C160.206 87.043 161.327 85.8916 161.327 84.5009C161.327 83.1252 160.206 81.9589 158.86 81.9589C157.514 81.9589 156.393 83.1402 156.393 84.5009C156.393 85.8766 157.514 87.043 158.86 87.043ZM159.593 78.2206V77.0542H162.434L162 78.2206H159.593ZM161.223 88L161.611 86.8486H163.795V88H161.223Z" fill="#363131"/>
<rect width="172" height="20" transform="translate(0.572266 100)" fill="#D7C6FF"/>
<path d="M14.6601 113V110.593L14.9891 109.546L14.6601 108.499V102.054H15.8713V113H14.6601ZM12.1779 113.209C10.2339 113.209 8.60404 111.535 8.60404 109.501C8.60404 107.467 10.2339 105.793 12.1779 105.793C14.1368 105.793 15.6022 107.587 15.6022 109.501C15.6022 111.415 14.1368 113.209 12.1779 113.209ZM12.2975 112.043C13.6433 112.043 14.7648 110.892 14.7648 109.501C14.7648 108.125 13.6433 106.959 12.2975 106.959C10.9517 106.959 9.83021 108.14 9.83021 109.501C9.83021 110.877 10.9517 112.043 12.2975 112.043ZM13.0302 103.221V102.054H15.8713L15.4377 103.221H13.0302ZM14.6601 113L15.0489 111.849H17.2321V113H14.6601ZM22.5868 109.262C22.5868 107.318 23.6784 105.793 25.3532 105.793C25.9812 105.793 26.6391 105.972 27.1476 106.495V107.721C26.6242 107.168 25.9513 106.959 25.3532 106.959C24.2018 106.959 23.2448 108.006 23.2448 109.262H22.5868ZM22.0335 113V106.002H23.1999V107.467L23.2448 108.26V113H22.0335ZM20.1195 107.168V106.002H23.1999L22.7363 107.168H20.1195ZM20.1195 113V111.849H22.7662L23.2448 113H20.1195ZM22.0335 113L22.5719 111.849H25.5775V113H22.0335ZM30.663 113V111.849H34.0724L34.6705 113H30.663ZM33.4593 113L34.0724 111.849H37.4817V113H33.4593ZM30.663 107.168V106.002H34.6705L34.0724 107.168H30.663ZM33.4593 113V106.002H34.6705V113H33.4593ZM34.1023 104.342C33.4593 104.342 32.921 103.834 32.921 103.176C32.921 102.518 33.4593 101.994 34.1023 101.994C34.7303 101.994 35.2686 102.518 35.2686 103.176C35.2686 103.834 34.7303 104.342 34.1023 104.342ZM43.5542 113L40.2645 106.002H41.6103L44.3916 111.998H44.0178L46.7991 106.002H48.1449L44.8552 113H43.5542ZM44.9299 107.168V106.002H48.1449L47.6664 107.168H44.9299ZM47.0981 107.168L46.7991 106.002H48.7879V107.168H47.0981ZM39.6215 107.168V106.002H41.6103L41.3112 107.168H39.6215ZM40.743 107.168L40.2645 106.002H43.4795V107.168H40.743ZM58.0604 111.699C57.3725 112.596 56.0716 113.209 54.666 113.209C52.6622 113.209 50.9875 111.55 50.9875 109.501C50.9875 107.482 52.6473 105.793 54.666 105.793C56.6846 105.793 58.3744 107.437 58.3744 109.456C58.3744 109.636 58.3295 109.845 58.2697 110.009H51.6603V108.948H57.4921L57.1332 109.471C57.1332 108.05 55.9968 106.959 54.666 106.959C53.2753 106.959 52.2136 108.095 52.2136 109.501C52.2136 110.892 53.3052 112.043 54.7706 112.043C55.7875 112.043 56.6996 111.594 57.1781 110.951L58.0604 111.699ZM65.0898 113.209C63.8487 113.209 62.6076 112.91 61.6506 112.447L62.3235 111.445C62.9814 111.923 64.0282 112.103 65.1198 112.103C66.6749 112.103 67.4226 111.699 67.4226 111.056C67.4226 110.533 66.959 110.219 65.6282 110.024L64.4469 109.875C62.8319 109.65 61.83 109.187 61.83 107.946C61.83 106.585 63.1758 105.793 65.1497 105.793C66.2861 105.793 67.4824 106.032 68.3945 106.54L67.8263 107.437C66.9291 107.079 65.987 106.899 64.9702 106.899C63.6992 106.899 63.0263 107.288 63.0263 107.826C63.0263 108.379 63.5347 108.574 64.6861 108.738L65.8375 108.888C67.7814 109.142 68.6487 109.905 68.6487 110.981C68.6487 112.372 67.1833 113.209 65.0898 113.209ZM68.3945 106.54V108.036H67.1983V106.75L68.3945 106.54ZM61.6506 112.447V110.951H62.8469V112.222L61.6506 112.447ZM86.6853 113.209C84.7414 113.209 83.2759 111.415 83.2759 109.501C83.2759 107.587 84.7414 105.793 86.6853 105.793C88.6442 105.793 90.2591 107.467 90.2591 109.501C90.2591 111.535 88.6442 113.209 86.6853 113.209ZM86.5657 112.043C87.9115 112.043 89.033 110.877 89.033 109.501C89.033 108.14 87.9115 106.959 86.5657 106.959C85.2199 106.959 84.1133 108.125 84.1133 109.501C84.1133 110.892 85.2199 112.043 86.5657 112.043ZM83.0068 113V102.054H84.203V108.32L83.8741 109.561L84.203 110.817V113H83.0068ZM81.6311 103.221V102.054H84.203L83.8143 103.221H81.6311ZM98.2905 113V111.161V110.578V106.002H99.5017V113H98.2905ZM93.341 109.83V106.002H94.5372V109.83C94.5372 111.295 95.3896 112.043 96.4213 112.043C97.4382 112.043 98.2905 111.265 98.2905 109.83H98.9484C98.9484 111.37 98.0064 113.179 96.1821 113.179C94.5821 113.179 93.341 111.953 93.341 109.83ZM96.9148 107.168V106.002H99.5017L99.098 107.168H96.9148ZM91.9653 107.168V106.002H94.5372L94.1484 107.168H91.9653ZM98.2905 113L98.6793 111.849H100.862V113H98.2905ZM106.965 113.209C105.724 113.209 104.483 112.91 103.526 112.447L104.198 111.445C104.856 111.923 105.903 112.103 106.995 112.103C108.55 112.103 109.298 111.699 109.298 111.056C109.298 110.533 108.834 110.219 107.503 110.024L106.322 109.875C104.707 109.65 103.705 109.187 103.705 107.946C103.705 106.585 105.051 105.793 107.025 105.793C108.161 105.793 109.357 106.032 110.27 106.54L109.701 107.437C108.804 107.079 107.862 106.899 106.845 106.899C105.574 106.899 104.901 107.288 104.901 107.826C104.901 108.379 105.41 108.574 106.561 108.738L107.713 108.888C109.656 109.142 110.524 109.905 110.524 110.981C110.524 112.372 109.058 113.209 106.965 113.209ZM110.27 106.54V108.036H109.073V106.75L110.27 106.54ZM103.526 112.447V110.951H104.722V112.222L103.526 112.447ZM114.413 113V111.849H117.822L118.421 113H114.413ZM117.209 113L117.822 111.849H121.232V113H117.209ZM114.413 107.168V106.002H118.421L117.822 107.168H114.413ZM117.209 113V106.002H118.421V113H117.209ZM117.852 104.342C117.209 104.342 116.671 103.834 116.671 103.176C116.671 102.518 117.209 101.994 117.852 101.994C118.48 101.994 119.019 102.518 119.019 103.176C119.019 103.834 118.48 104.342 117.852 104.342ZM125.136 113V106.002H126.302V107.871L126.347 108.664V113H125.136ZM125.689 109.157C125.689 107.602 126.631 105.793 128.456 105.793C130.086 105.793 131.297 107.034 131.297 109.142V113H130.1V109.157C130.1 107.736 129.293 106.959 128.216 106.959C127.2 106.959 126.347 107.721 126.347 109.157H125.689ZM123.775 107.168V106.002H126.302L125.929 107.168H123.775ZM123.775 113V111.849H125.958L126.347 113H123.775ZM125.136 113L125.51 111.849H127.603V113H125.136ZM128.844 113V111.849H130.938L131.297 113H128.844ZM130.1 113L130.489 111.849H132.672V113H130.1ZM141.81 111.699C141.122 112.596 139.822 113.209 138.416 113.209C136.412 113.209 134.737 111.55 134.737 109.501C134.737 107.482 136.397 105.793 138.416 105.793C140.435 105.793 142.124 107.437 142.124 109.456C142.124 109.636 142.08 109.845 142.02 110.009H135.41V108.948H141.242L140.883 109.471C140.883 108.05 139.747 106.959 138.416 106.959C137.025 106.959 135.964 108.095 135.964 109.501C135.964 110.892 137.055 112.043 138.521 112.043C139.537 112.043 140.45 111.594 140.928 110.951L141.81 111.699ZM148.84 113.209C147.599 113.209 146.358 112.91 145.401 112.447L146.073 111.445C146.731 111.923 147.778 112.103 148.87 112.103C150.425 112.103 151.173 111.699 151.173 111.056C151.173 110.533 150.709 110.219 149.378 110.024L148.197 109.875C146.582 109.65 145.58 109.187 145.58 107.946C145.58 106.585 146.926 105.793 148.9 105.793C150.036 105.793 151.232 106.032 152.145 106.54L151.576 107.437C150.679 107.079 149.737 106.899 148.72 106.899C147.449 106.899 146.776 107.288 146.776 107.826C146.776 108.379 147.285 108.574 148.436 108.738L149.588 108.888C151.531 109.142 152.399 109.905 152.399 110.981C152.399 112.372 150.933 113.209 148.84 113.209ZM152.145 106.54V108.036H150.948V106.75L152.145 106.54ZM145.401 112.447V110.951H146.597V112.222L145.401 112.447ZM159.309 113.209C158.067 113.209 156.826 112.91 155.869 112.447L156.542 111.445C157.2 111.923 158.247 112.103 159.339 112.103C160.894 112.103 161.641 111.699 161.641 111.056C161.641 110.533 161.178 110.219 159.847 110.024L158.666 109.875C157.051 109.65 156.049 109.187 156.049 107.946C156.049 106.585 157.395 105.793 159.368 105.793C160.505 105.793 161.701 106.032 162.613 106.54L162.045 107.437C161.148 107.079 160.206 106.899 159.189 106.899C157.918 106.899 157.245 107.288 157.245 107.826C157.245 108.379 157.753 108.574 158.905 108.738L160.056 108.888C162 109.142 162.867 109.905 162.867 110.981C162.867 112.372 161.402 113.209 159.309 113.209ZM162.613 106.54V108.036H161.417V106.75L162.613 106.54ZM155.869 112.447V110.951H157.066V112.222L155.869 112.447Z" fill="#363131"/>
<rect width="88" height="20" transform="translate(0.572266 125)" fill="#D7C6FF"/>
<path d="M9.72554 138V136.849H13.1349L13.733 138H9.72554ZM12.5218 138L13.1349 136.849H16.5442V138H12.5218ZM9.72554 132.168V131.002H13.733L13.1349 132.168H9.72554ZM12.5218 138V131.002H13.733V138H12.5218ZM13.1648 129.342C12.5218 129.342 11.9835 128.834 11.9835 128.176C11.9835 127.518 12.5218 126.994 13.1648 126.994C13.7928 126.994 14.3311 127.518 14.3311 128.176C14.3311 128.834 13.7928 129.342 13.1648 129.342ZM19.5812 138V131.002H20.7775V132.587L20.7924 133.17V138H19.5812ZM26.0859 133.619C26.0859 132.422 25.7569 131.959 25.2186 131.959C24.6055 131.959 24.0373 132.707 24.0373 134.127H23.3793C23.3793 132.796 24.3214 130.793 25.5924 130.793C26.684 130.793 27.2971 131.75 27.2971 133.619V138H26.0859V133.619ZM22.841 133.619C22.841 132.422 22.512 131.959 21.9737 131.959C21.3606 131.959 20.7924 132.721 20.7924 134.157H20.1345C20.1345 132.826 21.0765 130.793 22.3476 130.793C23.4242 130.793 24.0373 131.75 24.0373 133.619V138H22.841V133.619ZM34.3565 138.209C32.3976 138.209 30.9322 136.415 30.9322 134.501C30.9322 132.587 32.3976 130.793 34.3565 130.793C36.3004 130.793 37.9303 132.467 37.9303 134.501C37.9303 136.535 36.3004 138.209 34.3565 138.209ZM34.2369 137.043C35.5827 137.043 36.7042 135.877 36.7042 134.501C36.7042 133.14 35.5827 131.959 34.2369 131.959C32.8911 131.959 31.7696 133.125 31.7696 134.501C31.7696 135.892 32.8911 137.043 34.2369 137.043ZM30.663 142.127V131.002H31.8743V133.409L31.5453 134.516L31.8743 135.817V142.127H30.663ZM29.3023 132.168V131.002H31.8743L31.4855 132.168H29.3023ZM29.3023 142.127V140.976H31.4855L31.8743 142.127H29.3023ZM30.6481 142.127L31.1415 140.976H33.9528V142.127H30.6481ZM43.5841 138.209C41.6402 138.209 40.0103 136.535 40.0103 134.501C40.0103 132.467 41.6402 130.793 43.5841 130.793C45.543 130.793 47.0084 132.587 47.0084 134.501C47.0084 136.415 45.543 138.209 43.5841 138.209ZM43.7037 137.043C45.0495 137.043 46.171 135.892 46.171 134.501C46.171 133.125 45.0495 131.959 43.7037 131.959C42.358 131.959 41.2365 133.14 41.2365 134.501C41.2365 135.877 42.358 137.043 43.7037 137.043ZM46.0664 138V135.518L46.3953 134.501L46.0664 133.409V131.002H47.2776V138H46.0664ZM46.0664 138L46.4552 136.849H48.6383V138H46.0664ZM51.2417 134.516C51.2417 132.437 52.9463 130.793 55.0846 130.793C56.3258 130.793 57.3725 131.151 58.2846 131.959L57.3276 132.721C56.5949 132.108 55.9519 131.959 55.1146 131.959C53.6641 131.959 52.4678 133.11 52.4678 134.531C52.4678 135.936 53.5744 137.043 55.0697 137.043C56.0417 137.043 56.9987 136.564 57.4772 135.892L58.3594 136.639C57.6865 137.566 56.3108 138.209 54.965 138.209C52.9314 138.209 51.2417 136.564 51.2417 134.516ZM58.2846 131.959V134.052H57.0585V132.273L58.2846 131.959ZM65.9571 138.209C64.4469 138.209 63.3702 137.088 63.3702 135.607V128.55H64.5814V135.578C64.5814 136.445 65.1497 137.043 65.9571 137.043C66.7347 137.043 67.3328 136.445 67.3328 135.578V134.411H68.5291V135.578C68.5291 137.088 67.4375 138.209 65.9571 138.209ZM61.202 132.168V131.002H64.5814L64.073 132.168H61.202ZM63.9534 132.168L63.3702 131.002H67.1983V132.168H63.9534ZM75.6334 138.209C74.9754 138.209 74.4371 137.701 74.4371 137.043C74.4371 136.385 74.9754 135.862 75.6334 135.862C76.2614 135.862 76.7848 136.385 76.7848 137.043C76.7848 137.701 76.2614 138.209 75.6334 138.209Z" fill="#363131"/>
</svg>
