<svg width="275" height="165" viewBox="0 0 275 165" fill="none" xmlns="http://www.w3.org/2000/svg">
<rect width="275" height="165" rx="5" fill="#F7F4ED"/>
<path d="M28.436 42.216C27.68 42.216 26.987 42.081 26.357 41.811C25.727 41.535 25.22 41.13 24.836 40.596C24.452 40.062 24.254 39.402 24.242 38.616H25.61C25.61 39.144 25.739 39.579 25.997 39.921C26.255 40.257 26.597 40.509 27.023 40.677C27.449 40.839 27.914 40.92 28.418 40.92C28.964 40.92 29.438 40.833 29.84 40.659C30.242 40.485 30.551 40.257 30.767 39.975C30.989 39.687 31.1 39.372 31.1 39.03C31.1 38.55 30.953 38.163 30.659 37.869C30.365 37.569 29.93 37.326 29.354 37.14L27.356 36.438C26.42 36.102 25.712 35.718 25.232 35.286C24.752 34.854 24.512 34.248 24.512 33.468C24.512 32.592 24.848 31.878 25.52 31.326C26.198 30.774 27.158 30.498 28.4 30.498C29.552 30.498 30.452 30.765 31.1 31.299C31.748 31.827 32.12 32.538 32.216 33.432H30.83C30.74 32.91 30.494 32.505 30.092 32.217C29.696 31.923 29.132 31.776 28.4 31.776C27.656 31.776 27.077 31.941 26.663 32.271C26.249 32.601 26.042 33.018 26.042 33.522C26.042 33.936 26.171 34.266 26.429 34.512C26.693 34.752 27.104 34.968 27.662 35.16L30.002 35.97C30.812 36.24 31.451 36.618 31.919 37.104C32.393 37.59 32.63 38.22 32.63 38.994C32.63 39.594 32.468 40.137 32.144 40.623C31.826 41.109 31.355 41.496 30.731 41.784C30.107 42.072 29.342 42.216 28.436 42.216ZM37.5889 42L41.4769 30.696H43.1869L46.9849 42H45.5089L44.5549 39.102H40.0549L39.0649 42H37.5889ZM40.4149 38.004H44.1949L42.3049 32.406L40.4149 38.004ZM52.5148 42V30.696H56.4568C57.7468 30.696 58.7218 31.005 59.3818 31.623C60.0478 32.235 60.3808 33.042 60.3808 34.044C60.3808 35.034 60.0478 35.838 59.3818 36.456C58.7218 37.068 57.7468 37.374 56.4568 37.374H53.9188V42H52.5148ZM58.8508 42L55.6108 36.87H57.1408L60.6688 42H58.8508ZM53.9188 36.384H56.3488C57.1948 36.384 57.8368 36.177 58.2748 35.763C58.7188 35.343 58.9408 34.8 58.9408 34.134C58.9408 33.45 58.7278 32.907 58.3018 32.505C57.8818 32.103 57.2668 31.902 56.4568 31.902H53.9188V36.384ZM65.4263 42L69.3143 30.696H71.0243L74.8223 42H73.3463L72.3923 39.102H67.8923L66.9023 42H65.4263ZM68.2523 38.004H72.0323L70.1423 32.406L68.2523 38.004ZM80.3522 30.696H81.7562V35.682H87.3542V30.696H88.7402V42H87.3542V36.888H81.7562V42H80.3522V30.696ZM103.145 30.696H104.549V35.682H110.147V30.696H111.533V42H110.147V36.888H104.549V42H103.145V30.696ZM117.076 42L120.964 30.696H122.674L126.472 42H124.996L124.042 39.102H119.542L118.552 42H117.076ZM119.902 38.004H123.682L121.792 32.406L119.902 38.004ZM132.002 42V30.696H135.944C137.234 30.696 138.209 31.005 138.869 31.623C139.535 32.235 139.868 33.042 139.868 34.044C139.868 35.034 139.535 35.838 138.869 36.456C138.209 37.068 137.234 37.374 135.944 37.374H133.406V42H132.002ZM138.338 42L135.098 36.87H136.628L140.156 42H138.338ZM133.406 36.384H135.836C136.682 36.384 137.324 36.177 137.762 35.763C138.206 35.343 138.428 34.8 138.428 34.134C138.428 33.45 138.215 32.907 137.789 32.505C137.369 32.103 136.754 31.902 135.944 31.902H133.406V36.384ZM144.553 31.902V30.696H153.355V31.902H149.332L149.647 31.578V42H148.243V31.578L148.558 31.902H144.553ZM159.925 30.696V40.776H164.965V42H158.521V30.696H159.925ZM170.163 42V30.696H177.129V31.902H171.567V35.7H176.805V36.906H171.567V40.776H177.129V42H170.163ZM181.872 30.696H183.564L186.804 36.186H186.444L189.738 30.696H191.412L187.326 37.356V42H185.904V37.356L181.872 30.696ZM204.158 42V30.696H205.562V42H204.158ZM216.061 42.216C215.305 42.216 214.612 42.081 213.982 41.811C213.352 41.535 212.845 41.13 212.461 40.596C212.077 40.062 211.879 39.402 211.867 38.616H213.235C213.235 39.144 213.364 39.579 213.622 39.921C213.88 40.257 214.222 40.509 214.648 40.677C215.074 40.839 215.539 40.92 216.043 40.92C216.589 40.92 217.063 40.833 217.465 40.659C217.867 40.485 218.176 40.257 218.392 39.975C218.614 39.687 218.725 39.372 218.725 39.03C218.725 38.55 218.578 38.163 218.284 37.869C217.99 37.569 217.555 37.326 216.979 37.14L214.981 36.438C214.045 36.102 213.337 35.718 212.857 35.286C212.377 34.854 212.137 34.248 212.137 33.468C212.137 32.592 212.473 31.878 213.145 31.326C213.823 30.774 214.783 30.498 216.025 30.498C217.177 30.498 218.077 30.765 218.725 31.299C219.373 31.827 219.745 32.538 219.841 33.432H218.455C218.365 32.91 218.119 32.505 217.717 32.217C217.321 31.923 216.757 31.776 216.025 31.776C215.281 31.776 214.702 31.941 214.288 32.271C213.874 32.601 213.667 33.018 213.667 33.522C213.667 33.936 213.796 34.266 214.054 34.512C214.318 34.752 214.729 34.968 215.287 35.16L217.627 35.97C218.437 36.24 219.076 36.618 219.544 37.104C220.018 37.59 220.255 38.22 220.255 38.994C220.255 39.594 220.093 40.137 219.769 40.623C219.451 41.109 218.98 41.496 218.356 41.784C217.732 42.072 216.967 42.216 216.061 42.216Z" fill="#363131"/>
<rect width="182" height="20" transform="translate(20 56)" fill="#D7C6FF"/>
<path d="M31.6056 69.2093C29.6617 69.2093 28.0318 67.5346 28.0318 65.5009C28.0318 63.4673 29.6617 61.7925 31.6056 61.7925C33.5645 61.7925 35.0299 63.5869 35.0299 65.5009C35.0299 67.415 33.5645 69.2093 31.6056 69.2093ZM31.7252 68.043C33.071 68.043 34.1925 66.8916 34.1925 65.5009C34.1925 64.1252 33.071 62.9589 31.7252 62.9589C30.3794 62.9589 29.2579 64.1402 29.2579 65.5009C29.2579 66.8766 30.3794 68.043 31.7252 68.043ZM34.0879 69V66.5178L34.4168 65.5009L34.0879 64.4093V62.0019H35.2991V69H34.0879ZM34.0879 69L34.4766 67.8486H36.6598V69H34.0879ZM53.1113 69.2093C51.8702 69.2093 50.6291 68.9103 49.6721 68.4467L50.345 67.4449C51.0029 67.9234 52.0496 68.1028 53.1412 68.1028C54.6964 68.1028 55.444 67.6991 55.444 67.0561C55.444 66.5327 54.9805 66.2187 53.6496 66.0243L52.4683 65.8748C50.8534 65.6505 49.8515 65.1869 49.8515 63.9458C49.8515 62.585 51.1973 61.7925 53.1711 61.7925C54.3076 61.7925 55.5039 62.0318 56.416 62.5402L55.8478 63.4374C54.9506 63.0785 54.0085 62.8991 52.9917 62.8991C51.7207 62.8991 51.0478 63.2879 51.0478 63.8262C51.0478 64.3794 51.5562 64.5738 52.7076 64.7383L53.859 64.8879C55.8029 65.1421 56.6702 65.9047 56.6702 66.9813C56.6702 68.372 55.2048 69.2093 53.1113 69.2093ZM56.416 62.5402V64.0355H55.2197V62.7495L56.416 62.5402ZM49.6721 68.4467V66.9514H50.8683V68.2224L49.6721 68.4467ZM67.0193 67.6991C66.3315 68.5963 65.0305 69.2093 63.6249 69.2093C61.6212 69.2093 59.9464 67.5495 59.9464 65.5009C59.9464 63.4822 61.6063 61.7925 63.6249 61.7925C65.6436 61.7925 67.3334 63.4374 67.3334 65.4561C67.3334 65.6355 67.2885 65.8449 67.2287 66.0093H60.6193V64.9477H66.4511L66.0922 65.471C66.0922 64.0505 64.9558 62.9589 63.6249 62.9589C62.2343 62.9589 61.1726 64.0953 61.1726 65.5009C61.1726 66.8916 62.2642 68.043 63.7296 68.043C64.7464 68.043 65.6586 67.5944 66.1371 66.9514L67.0193 67.6991ZM70.6694 65.5159C70.6694 63.4374 72.3741 61.7925 74.5124 61.7925C75.7535 61.7925 76.8002 62.1514 77.7124 62.9589L76.7554 63.7215C76.0227 63.1084 75.3797 62.9589 74.5423 62.9589C73.0918 62.9589 71.8956 64.1103 71.8956 65.5308C71.8956 66.9364 73.0021 68.043 74.4974 68.043C75.4694 68.043 76.4264 67.5645 76.9049 66.8916L77.7871 67.6393C77.1143 68.5664 75.7386 69.2093 74.3928 69.2093C72.3591 69.2093 70.6694 67.5645 70.6694 65.5159ZM77.7124 62.9589V65.0523H76.4862V63.2729L77.7124 62.9589ZM83.8895 65.2617C83.8895 63.3178 84.9811 61.7925 86.6559 61.7925C87.2839 61.7925 87.9419 61.972 88.4503 62.4953V63.7215C87.9269 63.1682 87.254 62.9589 86.6559 62.9589C85.5045 62.9589 84.5475 64.0056 84.5475 65.2617H83.8895ZM83.3363 69V62.0019H84.5026V63.4673L84.5475 64.2598V69H83.3363ZM81.4223 63.1682V62.0019H84.5026L84.0391 63.1682H81.4223ZM81.4223 69V67.8486H84.069L84.5475 69H81.4223ZM83.3363 69L83.8746 67.8486H86.8802V69H83.3363ZM98.4256 67.6991C97.7377 68.5963 96.4368 69.2093 95.0312 69.2093C93.0275 69.2093 91.3527 67.5495 91.3527 65.5009C91.3527 63.4822 93.0125 61.7925 95.0312 61.7925C97.0499 61.7925 98.7396 63.4374 98.7396 65.4561C98.7396 65.6355 98.6947 65.8449 98.6349 66.0093H92.0256V64.9477H97.8574L97.4985 65.471C97.4985 64.0505 96.362 62.9589 95.0312 62.9589C93.6405 62.9589 92.5789 64.0953 92.5789 65.5009C92.5789 66.8916 93.6704 68.043 95.1359 68.043C96.1527 68.043 97.0648 67.5944 97.5433 66.9514L98.4256 67.6991ZM106.322 69.2093C104.812 69.2093 103.735 68.0879 103.735 66.6075V59.5495H104.947V66.5776C104.947 67.4449 105.515 68.043 106.322 68.043C107.1 68.043 107.698 67.4449 107.698 66.5776V65.4112H108.894V66.5776C108.894 68.0879 107.803 69.2093 106.322 69.2093ZM101.567 63.1682V62.0019H104.947L104.438 63.1682H101.567ZM104.319 63.1682L103.735 62.0019H107.563V63.1682H104.319ZM123.417 69L121.892 62.0019H123.103L124.538 69H123.417ZM124.075 69L125.63 62.5402H126.662L125.196 69H124.075ZM127.708 69L126.243 62.5402H127.26L128.815 69H127.708ZM128.351 69L129.787 62.0019H130.998L129.473 69H128.351ZM123.731 68.8206V67.8486H124.912V68.8206H123.731ZM126.094 63.6916L125.974 62.6449L126.796 62.5402L126.916 63.6019L126.094 63.6916ZM128.979 68.8206L127.993 68.7458L128.157 67.8486L129.159 67.9234L128.979 68.8206ZM121.338 63.1682V62.0019H123.103L122.834 63.1682H121.338ZM122.265 63.1682L121.892 62.0019H124.374V63.1682H122.265ZM128.516 63.1682V62.0019H130.998L130.624 63.1682H128.516ZM130.056 63.1682L129.787 62.0019H131.551V63.1682H130.056ZM140.301 67.6991C139.613 68.5963 138.312 69.2093 136.906 69.2093C134.902 69.2093 133.228 67.5495 133.228 65.5009C133.228 63.4822 134.888 61.7925 136.906 61.7925C138.925 61.7925 140.615 63.4374 140.615 65.4561C140.615 65.6355 140.57 65.8449 140.51 66.0093H133.901V64.9477H139.732L139.373 65.471C139.373 64.0505 138.237 62.9589 136.906 62.9589C135.516 62.9589 134.454 64.0953 134.454 65.5009C134.454 66.8916 135.545 68.043 137.011 68.043C138.028 68.043 138.94 67.5944 139.418 66.9514L140.301 67.6991ZM146.762 69.2093C144.818 69.2093 143.188 67.5346 143.188 65.5009C143.188 63.4673 144.818 61.7925 146.762 61.7925C148.721 61.7925 150.186 63.5869 150.186 65.5009C150.186 67.415 148.721 69.2093 146.762 69.2093ZM146.881 68.043C148.227 68.043 149.349 66.8916 149.349 65.5009C149.349 64.1252 148.227 62.9589 146.881 62.9589C145.536 62.9589 144.414 64.1402 144.414 65.5009C144.414 66.8766 145.536 68.043 146.881 68.043ZM149.244 69V66.5178L149.573 65.5009L149.244 64.4093V62.0019H150.455V69H149.244ZM149.244 69L149.633 67.8486H151.816V69H149.244ZM158.472 69.2093C156.513 69.2093 155.047 67.415 155.047 65.5009C155.047 63.5869 156.513 61.7925 158.472 61.7925C160.416 61.7925 162.046 63.4673 162.046 65.5009C162.046 67.5346 160.416 69.2093 158.472 69.2093ZM158.352 68.043C159.698 68.043 160.819 66.8766 160.819 65.5009C160.819 64.1402 159.698 62.9589 158.352 62.9589C157.006 62.9589 155.885 64.1252 155.885 65.5009C155.885 66.8916 157.006 68.043 158.352 68.043ZM154.778 73.1271V62.0019H155.989V64.4093L155.661 65.5159L155.989 66.8168V73.1271H154.778ZM153.418 63.1682V62.0019H155.989L155.601 63.1682H153.418ZM153.418 73.1271V71.9757H155.601L155.989 73.1271H153.418ZM154.763 73.1271L155.257 71.9757H158.068V73.1271H154.763ZM168.327 69.2093C166.219 69.2093 164.664 67.5047 164.664 65.5009C164.664 63.4972 166.294 61.7925 168.327 61.7925C170.346 61.7925 171.976 63.4972 171.976 65.5009C171.976 67.5047 170.421 69.2093 168.327 69.2093ZM168.327 68.043C169.688 68.043 170.75 66.9065 170.75 65.5009C170.75 64.0953 169.688 62.9589 168.327 62.9589C166.952 62.9589 165.89 64.0953 165.89 65.5009C165.89 66.9065 166.952 68.043 168.327 68.043ZM175.97 69V62.0019H177.136V63.871L177.181 64.6636V69H175.97ZM176.523 65.157C176.523 63.6019 177.465 61.7925 179.29 61.7925C180.92 61.7925 182.131 63.0336 182.131 65.1421V69H180.934V65.157C180.934 63.7364 180.127 62.9589 179.05 62.9589C178.034 62.9589 177.181 63.7215 177.181 65.157H176.523ZM174.609 63.1682V62.0019H177.136L176.763 63.1682H174.609ZM174.609 69V67.8486H176.792L177.181 69H174.609ZM175.97 69L176.344 67.8486H178.437V69H175.97ZM179.678 69V67.8486H181.772L182.131 69H179.678ZM180.934 69L181.323 67.8486H183.506V69H180.934ZM189.28 69.2093C188.622 69.2093 188.084 68.7009 188.084 68.043C188.084 67.385 188.622 66.8617 189.28 66.8617C189.908 66.8617 190.431 67.385 190.431 68.043C190.431 68.7009 189.908 69.2093 189.28 69.2093Z" fill="#363131"/>
<path d="M24.606 119.196C23.808 119.196 23.1127 119.007 22.52 118.629C21.932 118.246 21.4747 117.7 21.148 116.991C20.8213 116.282 20.658 115.43 20.658 114.436C20.658 113.409 20.826 112.548 21.162 111.853C21.5027 111.153 21.9693 110.626 22.562 110.271C23.1593 109.912 23.8407 109.732 24.606 109.732C25.6653 109.732 26.4913 109.989 27.084 110.502C27.6813 111.015 28.064 111.683 28.232 112.504L26.468 112.826C26.3233 112.35 26.0923 111.965 25.775 111.671C25.4577 111.377 25.068 111.23 24.606 111.23C24.2 111.23 23.8337 111.349 23.507 111.587C23.1803 111.82 22.919 112.175 22.723 112.651C22.5317 113.127 22.436 113.722 22.436 114.436C22.436 115.108 22.52 115.687 22.688 116.172C22.8607 116.657 23.108 117.031 23.43 117.292C23.752 117.553 24.144 117.684 24.606 117.684C25.1987 117.684 25.656 117.528 25.978 117.215C26.3047 116.898 26.468 116.494 26.468 116.004H28.232C28.232 116.681 28.085 117.257 27.791 117.733C27.5017 118.204 27.0863 118.566 26.545 118.818C26.0037 119.07 25.3573 119.196 24.606 119.196ZM34.781 119L34.571 117.348V114.618C34.571 114.142 34.473 113.79 34.277 113.561C34.0857 113.332 33.759 113.218 33.297 113.218C33.031 113.218 32.8 113.258 32.604 113.337C32.408 113.416 32.2564 113.531 32.149 113.68C32.0464 113.825 31.995 114.002 31.995 114.212H30.189C30.189 113.699 30.3127 113.281 30.56 112.959C30.8074 112.632 31.162 112.394 31.624 112.245C32.0907 112.091 32.6484 112.014 33.297 112.014C33.885 112.014 34.3984 112.11 34.837 112.301C35.2757 112.488 35.6164 112.777 35.859 113.169C36.1017 113.561 36.223 114.063 36.223 114.674V119H34.781ZM32.555 119.196C31.9717 119.196 31.484 119.096 31.092 118.895C30.7047 118.69 30.413 118.421 30.217 118.09C30.021 117.759 29.923 117.399 29.923 117.012C29.923 116.583 30.035 116.223 30.259 115.934C30.4877 115.64 30.8097 115.421 31.225 115.276C31.6404 115.127 32.1304 115.052 32.695 115.052C33.0637 115.052 33.4114 115.08 33.738 115.136C34.0694 115.192 34.3984 115.267 34.725 115.36V116.326C34.4684 116.242 34.1884 116.177 33.885 116.13C33.5817 116.083 33.297 116.06 33.031 116.06C32.639 116.06 32.317 116.132 32.065 116.277C31.813 116.422 31.687 116.667 31.687 117.012C31.687 117.264 31.7897 117.481 31.995 117.663C32.2004 117.845 32.527 117.936 32.975 117.936C33.3157 117.936 33.605 117.861 33.843 117.712C34.081 117.563 34.2607 117.376 34.382 117.152C34.508 116.928 34.571 116.704 34.571 116.48H34.963C34.963 116.97 34.872 117.423 34.69 117.838C34.508 118.249 34.2374 118.578 33.878 118.825C33.5234 119.072 33.0824 119.196 32.555 119.196ZM41.2205 119.196C40.8192 119.196 40.4505 119.121 40.1145 118.972C39.7832 118.823 39.5172 118.594 39.3165 118.286C39.1205 117.978 39.0225 117.586 39.0225 117.11V110.404H40.6745V117.054C40.6745 117.614 40.9405 117.894 41.4725 117.894C41.6358 117.894 41.7992 117.875 41.9625 117.838C42.1258 117.801 42.3125 117.745 42.5225 117.67L42.7605 118.832C42.4992 118.935 42.2448 119.021 41.9975 119.091C41.7502 119.161 41.4912 119.196 41.2205 119.196ZM38.0705 113.302V112.21H42.5225V113.302H38.0705ZM49.3899 119V115.024C49.3899 114.52 49.2686 114.14 49.0259 113.883C48.7833 113.626 48.4659 113.498 48.0739 113.498C47.7426 113.498 47.4486 113.589 47.1919 113.771C46.9399 113.953 46.7416 114.228 46.5969 114.597C46.4523 114.961 46.3799 115.416 46.3799 115.962H45.8339C45.8339 115.08 45.9436 114.347 46.1629 113.764C46.3823 113.176 46.6926 112.737 47.0939 112.448C47.4953 112.159 47.9666 112.014 48.5079 112.014C49.0679 112.014 49.5346 112.14 49.9079 112.392C50.2859 112.639 50.5683 112.989 50.7549 113.442C50.9463 113.895 51.0419 114.422 51.0419 115.024V119H49.3899ZM44.7279 119V109.396H46.3799V119H44.7279ZM56.2646 119.196C55.6859 119.196 55.1563 119.047 54.6756 118.748C54.1949 118.449 53.8099 118.032 53.5206 117.495C53.2313 116.954 53.0866 116.321 53.0866 115.598C53.0866 114.851 53.2289 114.21 53.5136 113.673C53.8029 113.136 54.1879 112.726 54.6686 112.441C55.1493 112.156 55.6813 112.014 56.2646 112.014C56.8059 112.014 57.2726 112.124 57.6646 112.343C58.0613 112.558 58.3786 112.852 58.6166 113.225C58.8593 113.594 59.0226 114.011 59.1066 114.478C59.1906 114.945 59.1953 115.425 59.1206 115.92H54.4026V115.024H57.9516L57.6296 115.234C57.6436 115.015 57.6319 114.793 57.5946 114.569C57.5619 114.345 57.4966 114.14 57.3986 113.953C57.3006 113.766 57.1606 113.617 56.9786 113.505C56.8013 113.388 56.5726 113.33 56.2926 113.33C55.9566 113.33 55.6719 113.414 55.4386 113.582C55.2053 113.75 55.0279 113.979 54.9066 114.268C54.7853 114.557 54.7246 114.884 54.7246 115.248V115.906C54.7246 116.289 54.7806 116.627 54.8926 116.921C55.0093 117.215 55.1796 117.446 55.4036 117.614C55.6323 117.782 55.9193 117.866 56.2646 117.866C56.5866 117.866 56.8573 117.791 57.0766 117.642C57.2959 117.493 57.4359 117.269 57.4966 116.97H59.1626C59.0926 117.409 58.9269 117.796 58.6656 118.132C58.4089 118.463 58.0753 118.725 57.6646 118.916C57.2539 119.103 56.7873 119.196 56.2646 119.196ZM61.4344 119V112.182H63.0864V119H61.4344ZM62.6804 116.018C62.6804 115.127 62.7808 114.389 62.9814 113.806C63.1821 113.223 63.4504 112.791 63.7864 112.511C64.1271 112.226 64.5051 112.084 64.9204 112.084C65.0324 112.084 65.1374 112.091 65.2354 112.105C65.3381 112.119 65.4384 112.14 65.5364 112.168L65.5084 113.82C65.3871 113.792 65.2564 113.769 65.1164 113.75C64.9764 113.731 64.8504 113.722 64.7384 113.722C64.3744 113.722 64.0688 113.811 63.8214 113.988C63.5788 114.161 63.3944 114.417 63.2684 114.758C63.1471 115.099 63.0864 115.519 63.0864 116.018H62.6804ZM68.1765 110.964C67.8545 110.964 67.6025 110.88 67.4205 110.712C67.2432 110.539 67.1545 110.301 67.1545 109.998C67.1545 109.704 67.2432 109.471 67.4205 109.298C67.6025 109.121 67.8545 109.032 68.1765 109.032C68.4938 109.032 68.7435 109.121 68.9255 109.298C69.1075 109.471 69.1985 109.704 69.1985 109.998C69.1985 110.301 69.1075 110.539 68.9255 110.712C68.7435 110.88 68.4938 110.964 68.1765 110.964ZM67.3505 119V112.182H69.0025V119H67.3505ZM76.7463 119V115.024C76.7463 114.52 76.6249 114.14 76.3823 113.883C76.1396 113.626 75.8223 113.498 75.4303 113.498C75.0989 113.498 74.8049 113.589 74.5483 113.771C74.2963 113.953 74.0979 114.228 73.9533 114.597C73.8086 114.961 73.7363 115.416 73.7363 115.962H73.1903C73.1903 115.08 73.2999 114.347 73.5193 113.764C73.7386 113.176 74.0489 112.737 74.4503 112.448C74.8516 112.159 75.3229 112.014 75.8643 112.014C76.4243 112.014 76.8909 112.14 77.2643 112.392C77.6423 112.639 77.9246 112.989 78.1113 113.442C78.3026 113.895 78.3983 114.422 78.3983 115.024V119H76.7463ZM72.0843 119V112.21H73.5263L73.7363 113.554V119H72.0843ZM83.6209 119.196C83.0423 119.196 82.5126 119.047 82.0319 118.748C81.5513 118.449 81.1663 118.032 80.8769 117.495C80.5876 116.954 80.4429 116.321 80.4429 115.598C80.4429 114.851 80.5853 114.21 80.8699 113.673C81.1593 113.136 81.5443 112.726 82.0249 112.441C82.5056 112.156 83.0376 112.014 83.6209 112.014C84.1623 112.014 84.6289 112.124 85.0209 112.343C85.4176 112.558 85.7349 112.852 85.9729 113.225C86.2156 113.594 86.3789 114.011 86.4629 114.478C86.5469 114.945 86.5516 115.425 86.4769 115.92H81.7589V115.024H85.3079L84.9859 115.234C84.9999 115.015 84.9883 114.793 84.9509 114.569C84.9183 114.345 84.8529 114.14 84.7549 113.953C84.6569 113.766 84.5169 113.617 84.3349 113.505C84.1576 113.388 83.9289 113.33 83.6489 113.33C83.3129 113.33 83.0283 113.414 82.7949 113.582C82.5616 113.75 82.3843 113.979 82.2629 114.268C82.1416 114.557 82.0809 114.884 82.0809 115.248V115.906C82.0809 116.289 82.1369 116.627 82.2489 116.921C82.3656 117.215 82.5359 117.446 82.7599 117.614C82.9886 117.782 83.2756 117.866 83.6209 117.866C83.9429 117.866 84.2136 117.791 84.4329 117.642C84.6523 117.493 84.7923 117.269 84.8529 116.97H86.5189C86.4489 117.409 86.2833 117.796 86.0219 118.132C85.7653 118.463 85.4316 118.725 85.0209 118.916C84.6103 119.103 84.1436 119.196 83.6209 119.196ZM92.6118 119V109.914H96.2798C96.9798 109.914 97.5608 110.024 98.0228 110.243C98.4848 110.458 98.8301 110.747 99.0588 111.111C99.2874 111.475 99.4018 111.879 99.4018 112.322C99.4018 112.835 99.2571 113.274 98.9678 113.638C98.6831 114.002 98.2818 114.259 97.7638 114.408C98.1044 114.478 98.4101 114.606 98.6808 114.793C98.9514 114.98 99.1638 115.215 99.3178 115.5C99.4764 115.785 99.5558 116.111 99.5558 116.48C99.5558 116.769 99.5044 117.061 99.4018 117.355C99.3038 117.649 99.1311 117.922 98.8838 118.174C98.6411 118.421 98.3074 118.622 97.8828 118.776C97.4628 118.925 96.9331 119 96.2938 119H92.6118ZM94.2638 117.558H96.2518C96.7791 117.558 97.1641 117.453 97.4068 117.243C97.6541 117.028 97.7778 116.741 97.7778 116.382C97.7778 116.023 97.6518 115.736 97.3998 115.521C97.1478 115.302 96.7651 115.192 96.2518 115.192H94.2638V117.558ZM94.2638 111.342V113.75H96.2098C96.6998 113.75 97.0708 113.643 97.3228 113.428C97.5794 113.209 97.7078 112.91 97.7078 112.532C97.7078 112.173 97.5818 111.886 97.3298 111.671C97.0824 111.452 96.7138 111.342 96.2238 111.342H94.2638ZM106.296 119L106.086 117.348V114.618C106.086 114.142 105.988 113.79 105.792 113.561C105.601 113.332 105.274 113.218 104.812 113.218C104.546 113.218 104.315 113.258 104.119 113.337C103.923 113.416 103.771 113.531 103.664 113.68C103.561 113.825 103.51 114.002 103.51 114.212H101.704C101.704 113.699 101.828 113.281 102.075 112.959C102.322 112.632 102.677 112.394 103.139 112.245C103.606 112.091 104.163 112.014 104.812 112.014C105.4 112.014 105.913 112.11 106.352 112.301C106.791 112.488 107.131 112.777 107.374 113.169C107.617 113.561 107.738 114.063 107.738 114.674V119H106.296ZM104.07 119.196C103.487 119.196 102.999 119.096 102.607 118.895C102.22 118.69 101.928 118.421 101.732 118.09C101.536 117.759 101.438 117.399 101.438 117.012C101.438 116.583 101.55 116.223 101.774 115.934C102.003 115.64 102.325 115.421 102.74 115.276C103.155 115.127 103.645 115.052 104.21 115.052C104.579 115.052 104.926 115.08 105.253 115.136C105.584 115.192 105.913 115.267 106.24 115.36V116.326C105.983 116.242 105.703 116.177 105.4 116.13C105.097 116.083 104.812 116.06 104.546 116.06C104.154 116.06 103.832 116.132 103.58 116.277C103.328 116.422 103.202 116.667 103.202 117.012C103.202 117.264 103.305 117.481 103.51 117.663C103.715 117.845 104.042 117.936 104.49 117.936C104.831 117.936 105.12 117.861 105.358 117.712C105.596 117.563 105.776 117.376 105.897 117.152C106.023 116.928 106.086 116.704 106.086 116.48H106.478C106.478 116.97 106.387 117.423 106.205 117.838C106.023 118.249 105.752 118.578 105.393 118.825C105.038 119.072 104.597 119.196 104.07 119.196ZM110.439 119V109.396H112.091V119H110.439ZM117.519 119.196C116.866 119.196 116.303 119.107 115.832 118.93C115.365 118.748 115.006 118.489 114.754 118.153C114.502 117.812 114.374 117.404 114.369 116.928H115.895C115.909 117.264 116.042 117.509 116.294 117.663C116.546 117.817 116.889 117.894 117.323 117.894C117.561 117.894 117.771 117.859 117.953 117.789C118.14 117.719 118.284 117.623 118.387 117.502C118.49 117.381 118.541 117.245 118.541 117.096C118.541 116.905 118.471 116.755 118.331 116.648C118.196 116.536 117.976 116.433 117.673 116.34L116.189 115.808C115.657 115.617 115.249 115.365 114.964 115.052C114.679 114.739 114.537 114.366 114.537 113.932C114.537 113.358 114.796 112.896 115.314 112.546C115.837 112.191 116.534 112.014 117.407 112.014C118.275 112.014 118.945 112.205 119.416 112.588C119.892 112.966 120.137 113.447 120.151 114.03H118.597C118.574 113.806 118.466 113.629 118.275 113.498C118.084 113.367 117.794 113.302 117.407 113.302C117.057 113.302 116.782 113.374 116.581 113.519C116.385 113.659 116.287 113.825 116.287 114.016C116.287 114.338 116.562 114.581 117.113 114.744L118.723 115.346C119.246 115.523 119.652 115.752 119.941 116.032C120.23 116.312 120.375 116.667 120.375 117.096C120.375 117.455 120.254 117.796 120.011 118.118C119.773 118.435 119.439 118.694 119.01 118.895C118.581 119.096 118.084 119.196 117.519 119.196ZM126.974 119L126.764 117.348V114.618C126.764 114.142 126.666 113.79 126.47 113.561C126.278 113.332 125.952 113.218 125.49 113.218C125.224 113.218 124.993 113.258 124.797 113.337C124.601 113.416 124.449 113.531 124.342 113.68C124.239 113.825 124.188 114.002 124.188 114.212H122.382C122.382 113.699 122.505 113.281 122.753 112.959C123 112.632 123.355 112.394 123.817 112.245C124.283 112.091 124.841 112.014 125.49 112.014C126.078 112.014 126.591 112.11 127.03 112.301C127.468 112.488 127.809 112.777 128.052 113.169C128.294 113.561 128.416 114.063 128.416 114.674V119H126.974ZM124.748 119.196C124.164 119.196 123.677 119.096 123.285 118.895C122.897 118.69 122.606 118.421 122.41 118.09C122.214 117.759 122.116 117.399 122.116 117.012C122.116 116.583 122.228 116.223 122.452 115.934C122.68 115.64 123.002 115.421 123.418 115.276C123.833 115.127 124.323 115.052 124.888 115.052C125.256 115.052 125.604 115.08 125.931 115.136C126.262 115.192 126.591 115.267 126.918 115.36V116.326C126.661 116.242 126.381 116.177 126.078 116.13C125.774 116.083 125.49 116.06 125.224 116.06C124.832 116.06 124.51 116.132 124.258 116.277C124.006 116.422 123.88 116.667 123.88 117.012C123.88 117.264 123.982 117.481 124.188 117.663C124.393 117.845 124.72 117.936 125.168 117.936C125.508 117.936 125.798 117.861 126.036 117.712C126.274 117.563 126.453 117.376 126.575 117.152C126.701 116.928 126.764 116.704 126.764 116.48H127.156C127.156 116.97 127.065 117.423 126.883 117.838C126.701 118.249 126.43 118.578 126.071 118.825C125.716 119.072 125.275 119.196 124.748 119.196ZM140.343 119V115.024C140.343 114.52 140.222 114.14 139.979 113.883C139.737 113.626 139.419 113.498 139.027 113.498C138.533 113.498 138.143 113.699 137.858 114.1C137.574 114.501 137.431 115.108 137.431 115.92H136.745C136.745 115.206 136.811 114.602 136.941 114.107C137.077 113.608 137.266 113.206 137.508 112.903C137.756 112.595 138.045 112.371 138.376 112.231C138.708 112.086 139.074 112.014 139.475 112.014C140.031 112.014 140.495 112.14 140.868 112.392C141.246 112.639 141.531 112.989 141.722 113.442C141.914 113.895 142.009 114.422 142.009 115.024V119H140.343ZM131.117 119V112.21H132.559L132.741 113.372C132.965 112.919 133.262 112.581 133.63 112.357C133.999 112.128 134.421 112.014 134.897 112.014C135.457 112.014 135.924 112.14 136.297 112.392C136.675 112.639 136.958 112.989 137.144 113.442C137.336 113.895 137.431 114.422 137.431 115.024V119H135.779V115.024C135.779 114.52 135.658 114.14 135.415 113.883C135.173 113.626 134.855 113.498 134.463 113.498C134.132 113.498 133.838 113.589 133.581 113.771C133.329 113.953 133.131 114.228 132.986 114.597C132.842 114.961 132.769 115.416 132.769 115.962V119H131.117ZM144.154 115.5V114.058H153.38V115.5H144.154ZM158.876 119.196C158.246 119.196 157.665 119.086 157.133 118.867C156.606 118.648 156.177 118.314 155.845 117.866C155.519 117.418 155.344 116.849 155.32 116.158H156.944C156.944 116.508 157.031 116.795 157.203 117.019C157.376 117.243 157.607 117.411 157.896 117.523C158.19 117.63 158.512 117.684 158.862 117.684C159.198 117.684 159.497 117.64 159.758 117.551C160.024 117.462 160.232 117.336 160.381 117.173C160.535 117.005 160.612 116.807 160.612 116.578C160.612 116.275 160.519 116.037 160.332 115.864C160.15 115.691 159.856 115.533 159.45 115.388L157.658 114.674C156.958 114.399 156.422 114.079 156.048 113.715C155.675 113.351 155.488 112.849 155.488 112.21C155.488 111.473 155.78 110.875 156.363 110.418C156.947 109.961 157.761 109.732 158.806 109.732C159.824 109.732 160.61 109.97 161.165 110.446C161.721 110.917 162.036 111.575 162.11 112.42H160.486C160.426 112.061 160.262 111.774 159.996 111.559C159.73 111.34 159.334 111.23 158.806 111.23C158.34 111.23 157.971 111.328 157.7 111.524C157.43 111.715 157.294 111.958 157.294 112.252C157.294 112.504 157.378 112.705 157.546 112.854C157.719 112.999 157.985 113.139 158.344 113.274L160.332 114.044C161.004 114.305 161.52 114.634 161.879 115.031C162.239 115.428 162.418 115.925 162.418 116.522C162.418 117.068 162.281 117.542 162.005 117.943C161.73 118.34 161.329 118.648 160.801 118.867C160.274 119.086 159.632 119.196 158.876 119.196ZM167.496 119.196C166.927 119.196 166.397 119.049 165.907 118.755C165.422 118.456 165.027 118.039 164.724 117.502C164.425 116.961 164.276 116.326 164.276 115.598C164.276 114.828 164.425 114.177 164.724 113.645C165.027 113.108 165.422 112.702 165.907 112.427C166.397 112.152 166.927 112.014 167.496 112.014C167.939 112.014 168.329 112.086 168.665 112.231C169.006 112.371 169.295 112.562 169.533 112.805C169.771 113.043 169.958 113.309 170.093 113.603C170.228 113.897 170.315 114.193 170.352 114.492L168.686 114.534C168.611 114.235 168.471 113.988 168.266 113.792C168.065 113.596 167.804 113.498 167.482 113.498C167.216 113.498 166.966 113.573 166.733 113.722C166.5 113.867 166.308 114.093 166.159 114.401C166.014 114.709 165.942 115.108 165.942 115.598C165.942 116.065 166.01 116.454 166.145 116.767C166.285 117.075 166.472 117.308 166.705 117.467C166.938 117.621 167.197 117.698 167.482 117.698C167.902 117.698 168.208 117.598 168.399 117.397C168.59 117.192 168.686 116.919 168.686 116.578H170.352C170.352 117.059 170.242 117.497 170.023 117.894C169.804 118.291 169.482 118.608 169.057 118.846C168.632 119.079 168.112 119.196 167.496 119.196ZM177.272 119V115.024C177.272 114.52 177.151 114.14 176.908 113.883C176.666 113.626 176.348 113.498 175.956 113.498C175.625 113.498 175.331 113.589 175.074 113.771C174.822 113.953 174.624 114.228 174.479 114.597C174.335 114.961 174.262 115.416 174.262 115.962H173.716C173.716 115.08 173.826 114.347 174.045 113.764C174.265 113.176 174.575 112.737 174.976 112.448C175.378 112.159 175.849 112.014 176.39 112.014C176.95 112.014 177.417 112.14 177.79 112.392C178.168 112.639 178.451 112.989 178.637 113.442C178.829 113.895 178.924 114.422 178.924 115.024V119H177.272ZM172.61 119V109.396H174.262V119H172.61ZM180.479 112.21H182.201L183.671 117.362H183.503L184.889 112.574H186.387L187.773 117.376H187.605L189.075 112.21H190.727L188.487 119H186.863L185.477 114.492H185.729L184.371 119H182.733L180.479 112.21ZM196.828 119L196.618 117.348V114.618C196.618 114.142 196.52 113.79 196.324 113.561C196.133 113.332 195.806 113.218 195.344 113.218C195.078 113.218 194.847 113.258 194.651 113.337C194.455 113.416 194.304 113.531 194.196 113.68C194.094 113.825 194.042 114.002 194.042 114.212H192.236C192.236 113.699 192.36 113.281 192.607 112.959C192.855 112.632 193.209 112.394 193.671 112.245C194.138 112.091 194.696 112.014 195.344 112.014C195.932 112.014 196.446 112.11 196.884 112.301C197.323 112.488 197.664 112.777 197.906 113.169C198.149 113.561 198.27 114.063 198.27 114.674V119H196.828ZM194.602 119.196C194.019 119.196 193.531 119.096 193.139 118.895C192.752 118.69 192.46 118.421 192.264 118.09C192.068 117.759 191.97 117.399 191.97 117.012C191.97 116.583 192.082 116.223 192.306 115.934C192.535 115.64 192.857 115.421 193.272 115.276C193.688 115.127 194.178 115.052 194.742 115.052C195.111 115.052 195.459 115.08 195.785 115.136C196.117 115.192 196.446 115.267 196.772 115.36V116.326C196.516 116.242 196.236 116.177 195.932 116.13C195.629 116.083 195.344 116.06 195.078 116.06C194.686 116.06 194.364 116.132 194.112 116.277C193.86 116.422 193.734 116.667 193.734 117.012C193.734 117.264 193.837 117.481 194.042 117.663C194.248 117.845 194.574 117.936 195.022 117.936C195.363 117.936 195.652 117.861 195.89 117.712C196.128 117.563 196.308 117.376 196.429 117.152C196.555 116.928 196.618 116.704 196.618 116.48H197.01C197.01 116.97 196.919 117.423 196.737 117.838C196.555 118.249 196.285 118.578 195.925 118.825C195.571 119.072 195.13 119.196 194.602 119.196ZM204.444 119.196C204.019 119.196 203.629 119.077 203.275 118.839C202.925 118.601 202.645 118.246 202.435 117.775C202.225 117.299 202.12 116.704 202.12 115.99H202.624C202.624 116.331 202.701 116.629 202.855 116.886C203.009 117.143 203.207 117.343 203.45 117.488C203.692 117.628 203.944 117.698 204.206 117.698C204.528 117.698 204.815 117.609 205.067 117.432C205.319 117.255 205.517 117.007 205.662 116.69C205.811 116.373 205.886 115.999 205.886 115.57C205.886 115.155 205.813 114.793 205.669 114.485C205.524 114.172 205.323 113.93 205.067 113.757C204.815 113.584 204.523 113.498 204.192 113.498C203.916 113.498 203.66 113.566 203.422 113.701C203.184 113.832 202.99 114.023 202.841 114.275C202.696 114.522 202.624 114.823 202.624 115.178H202.12C202.12 114.492 202.218 113.913 202.414 113.442C202.614 112.971 202.897 112.616 203.261 112.378C203.629 112.135 204.066 112.014 204.57 112.014C205.12 112.014 205.62 112.161 206.068 112.455C206.52 112.744 206.88 113.157 207.146 113.694C207.416 114.226 207.552 114.851 207.552 115.57C207.552 116.298 207.412 116.935 207.132 117.481C206.856 118.022 206.483 118.445 206.012 118.748C205.54 119.047 205.018 119.196 204.444 119.196ZM200.972 119V109.396H202.624V117.32L202.05 119H200.972ZM212.385 119.196C211.807 119.196 211.277 119.047 210.796 118.748C210.316 118.449 209.931 118.032 209.641 117.495C209.352 116.954 209.207 116.321 209.207 115.598C209.207 114.851 209.35 114.21 209.634 113.673C209.924 113.136 210.309 112.726 210.789 112.441C211.27 112.156 211.802 112.014 212.385 112.014C212.927 112.014 213.393 112.124 213.785 112.343C214.182 112.558 214.499 112.852 214.737 113.225C214.98 113.594 215.143 114.011 215.227 114.478C215.311 114.945 215.316 115.425 215.241 115.92H210.523V115.024H214.072L213.75 115.234C213.764 115.015 213.753 114.793 213.715 114.569C213.683 114.345 213.617 114.14 213.519 113.953C213.421 113.766 213.281 113.617 213.099 113.505C212.922 113.388 212.693 113.33 212.413 113.33C212.077 113.33 211.793 113.414 211.559 113.582C211.326 113.75 211.149 113.979 211.027 114.268C210.906 114.557 210.845 114.884 210.845 115.248V115.906C210.845 116.289 210.901 116.627 211.013 116.921C211.13 117.215 211.3 117.446 211.524 117.614C211.753 117.782 212.04 117.866 212.385 117.866C212.707 117.866 212.978 117.791 213.197 117.642C213.417 117.493 213.557 117.269 213.617 116.97H215.283C215.213 117.409 215.048 117.796 214.786 118.132C214.53 118.463 214.196 118.725 213.785 118.916C213.375 119.103 212.908 119.196 212.385 119.196ZM217.555 119V112.182H219.207V119H217.555ZM218.801 116.018C218.801 115.127 218.902 114.389 219.102 113.806C219.303 113.223 219.571 112.791 219.907 112.511C220.248 112.226 220.626 112.084 221.041 112.084C221.153 112.084 221.258 112.091 221.356 112.105C221.459 112.119 221.559 112.14 221.657 112.168L221.629 113.82C221.508 113.792 221.377 113.769 221.237 113.75C221.097 113.731 220.971 113.722 220.859 113.722C220.495 113.722 220.19 113.811 219.942 113.988C219.7 114.161 219.515 114.417 219.389 114.758C219.268 115.099 219.207 115.519 219.207 116.018H218.801Z" fill="#363131"/>
<path d="M24.396 137.154C23.6353 137.154 22.982 136.958 22.436 136.566C21.89 136.169 21.47 135.63 21.176 134.949C20.8867 134.263 20.742 133.481 20.742 132.604C20.742 131.652 20.903 130.852 21.225 130.203C21.5517 129.55 21.9903 129.055 22.541 128.719C23.0963 128.383 23.7147 128.215 24.396 128.215C25.278 128.215 25.9967 128.439 26.552 128.887C27.112 129.335 27.511 129.916 27.749 130.63L26.867 130.826C26.671 130.243 26.3513 129.783 25.908 129.447C25.4693 129.106 24.9653 128.936 24.396 128.936C23.906 128.936 23.4487 129.076 23.024 129.356C22.604 129.631 22.2633 130.042 22.002 130.588C21.7453 131.134 21.617 131.806 21.617 132.604C21.617 133.318 21.715 133.964 21.911 134.543C22.1117 135.117 22.4173 135.574 22.828 135.915C23.2387 136.251 23.7613 136.419 24.396 136.419C25.1427 136.419 25.74 136.218 26.188 135.817C26.6407 135.416 26.867 134.881 26.867 134.214H27.77C27.77 134.821 27.6253 135.343 27.336 135.782C27.0467 136.221 26.6477 136.559 26.139 136.797C25.6303 137.035 25.0493 137.154 24.396 137.154ZM30.1715 137V128.355H35.3795V129.048H30.9835V132.282H35.1275V132.975H30.9835V136.293H35.3795V137H30.1715ZM41.0888 137.154C40.3981 137.154 39.7775 136.991 39.2268 136.664C38.6761 136.337 38.2398 135.845 37.9178 135.187C37.5958 134.524 37.4348 133.696 37.4348 132.702C37.4348 131.694 37.5958 130.859 37.9178 130.196C38.2398 129.529 38.6761 129.032 39.2268 128.705C39.7775 128.378 40.3981 128.215 41.0888 128.215C41.7748 128.215 42.3931 128.381 42.9438 128.712C43.4945 129.039 43.9308 129.536 44.2528 130.203C44.5748 130.866 44.7358 131.699 44.7358 132.702C44.7358 133.705 44.5748 134.536 44.2528 135.194C43.9308 135.852 43.4945 136.344 42.9438 136.671C42.3931 136.993 41.7748 137.154 41.0888 137.154ZM41.0888 136.391C41.9568 136.391 42.6405 136.081 43.1398 135.46C43.6391 134.835 43.8888 133.911 43.8888 132.688C43.8888 131.484 43.6391 130.56 43.1398 129.916C42.6405 129.267 41.9568 128.943 41.0888 128.943C40.2255 128.943 39.5418 129.267 39.0378 129.916C38.5338 130.565 38.2818 131.493 38.2818 132.702C38.2818 133.92 38.5338 134.839 39.0378 135.46C39.5418 136.081 40.2255 136.391 41.0888 136.391ZM52.442 130.021H53.233V133.115H56.215V133.801H53.233V136.895H52.442V133.801H49.46V133.115H52.442V130.021ZM61.6637 137V128.355H66.8227V129.048H62.4757V132.24H66.5567V132.94H62.4757V137H61.6637ZM71.0483 137.154C70.4556 137.154 69.9329 137.021 69.4803 136.755C69.0276 136.489 68.6706 136.097 68.4093 135.579C68.1526 135.061 68.0243 134.426 68.0243 133.675C68.0243 132.924 68.1526 132.291 68.4093 131.778C68.6706 131.26 69.0276 130.868 69.4803 130.602C69.9329 130.336 70.4556 130.203 71.0483 130.203C71.6409 130.203 72.1636 130.336 72.6163 130.602C73.0689 130.868 73.4236 131.26 73.6803 131.778C73.9369 132.291 74.0653 132.924 74.0653 133.675C74.0653 134.426 73.9369 135.061 73.6803 135.579C73.4236 136.097 73.0689 136.489 72.6163 136.755C72.1636 137.021 71.6409 137.154 71.0483 137.154ZM71.0343 136.447C71.5243 136.447 71.9326 136.333 72.2593 136.104C72.5859 135.871 72.8286 135.546 72.9873 135.131C73.1506 134.716 73.2323 134.23 73.2323 133.675C73.2323 132.84 73.0526 132.168 72.6933 131.659C72.3386 131.15 71.7949 130.896 71.0623 130.896C70.5723 130.896 70.1639 131.013 69.8373 131.246C69.5153 131.475 69.2726 131.799 69.1093 132.219C68.9506 132.634 68.8713 133.12 68.8713 133.675C68.8713 134.506 69.0486 135.175 69.4033 135.684C69.7626 136.193 70.3063 136.447 71.0343 136.447ZM81.1021 130.35H81.9141V137H81.1021V130.35ZM76.3141 130.35H77.1261V134.522C77.1261 135.138 77.2755 135.609 77.5741 135.936C77.8775 136.258 78.3138 136.419 78.8831 136.419C79.3498 136.419 79.7488 136.293 80.0801 136.041C80.4115 135.789 80.6635 135.451 80.8361 135.026C81.0135 134.601 81.1021 134.132 81.1021 133.619H81.4871C81.4871 134.328 81.3775 134.947 81.1581 135.474C80.9388 136.001 80.6285 136.41 80.2271 136.699C79.8258 136.984 79.3498 137.126 78.7991 137.126C78.2858 137.126 77.8425 137.03 77.4691 136.839C77.1005 136.648 76.8158 136.363 76.6151 135.985C76.4145 135.602 76.3141 135.129 76.3141 134.564V130.35ZM89.9533 137V133.087C89.9533 132.382 89.783 131.843 89.4423 131.47C89.1063 131.097 88.642 130.91 88.0493 130.91C87.6153 130.91 87.2396 131.029 86.9223 131.267C86.6096 131.505 86.3693 131.839 86.2013 132.268C86.038 132.697 85.9563 133.199 85.9563 133.773H85.5993C85.5993 133.045 85.6973 132.415 85.8933 131.883C86.094 131.346 86.388 130.933 86.7753 130.644C87.1673 130.35 87.6526 130.203 88.2313 130.203C88.7446 130.203 89.188 130.317 89.5613 130.546C89.9393 130.775 90.231 131.106 90.4363 131.54C90.6416 131.969 90.7443 132.485 90.7443 133.087V137H89.9533ZM85.1443 137V130.357H85.8303L85.9563 131.995V137H85.1443ZM96.0748 137.154C95.5475 137.154 95.0598 137.012 94.6118 136.727C94.1685 136.438 93.8138 136.032 93.5478 135.509C93.2818 134.986 93.1488 134.368 93.1488 133.654C93.1488 132.94 93.2795 132.326 93.5408 131.813C93.8068 131.295 94.1568 130.898 94.5908 130.623C95.0295 130.343 95.5078 130.203 96.0258 130.203C96.5065 130.203 96.9335 130.322 97.3068 130.56C97.6801 130.793 97.9718 131.129 98.1818 131.568C98.3918 132.002 98.4968 132.525 98.4968 133.136H98.1258C98.1258 132.646 98.0301 132.238 97.8388 131.911C97.6521 131.58 97.4071 131.33 97.1038 131.162C96.8005 130.994 96.4761 130.91 96.1308 130.91C95.7528 130.91 95.4005 131.02 95.0738 131.239C94.7518 131.458 94.4905 131.771 94.2898 132.177C94.0938 132.583 93.9958 133.075 93.9958 133.654C93.9958 134.237 94.0938 134.737 94.2898 135.152C94.4858 135.567 94.7471 135.885 95.0738 136.104C95.4005 136.323 95.7551 136.433 96.1378 136.433C96.4645 136.433 96.7795 136.349 97.0828 136.181C97.3861 136.013 97.6358 135.766 97.8318 135.439C98.0278 135.108 98.1258 134.702 98.1258 134.221H98.4968C98.4968 134.837 98.3895 135.364 98.1748 135.803C97.9648 136.242 97.6755 136.578 97.3068 136.811C96.9428 137.04 96.5321 137.154 96.0748 137.154ZM98.2448 137L98.1258 135.488V127.48H98.9308V137H98.2448ZM104.384 137.154C103.806 137.154 103.295 137.007 102.851 136.713C102.413 136.414 102.067 136.006 101.815 135.488C101.563 134.965 101.437 134.37 101.437 133.703C101.437 132.975 101.561 132.35 101.808 131.827C102.06 131.304 102.406 130.903 102.844 130.623C103.288 130.343 103.801 130.203 104.384 130.203C104.874 130.203 105.29 130.303 105.63 130.504C105.976 130.7 106.253 130.968 106.463 131.309C106.673 131.65 106.82 132.035 106.904 132.464C106.993 132.893 107.028 133.337 107.009 133.794H102.102V133.234H106.512L106.19 133.444C106.204 133.141 106.186 132.84 106.134 132.541C106.088 132.238 105.997 131.96 105.861 131.708C105.731 131.456 105.546 131.253 105.308 131.099C105.07 130.945 104.765 130.868 104.391 130.868C103.915 130.868 103.519 130.992 103.201 131.239C102.884 131.482 102.646 131.799 102.487 132.191C102.333 132.578 102.256 132.994 102.256 133.437V133.78C102.256 134.289 102.333 134.746 102.487 135.152C102.646 135.558 102.882 135.88 103.194 136.118C103.512 136.356 103.908 136.475 104.384 136.475C104.874 136.475 105.273 136.356 105.581 136.118C105.894 135.875 106.081 135.521 106.141 135.054H107.009C106.939 135.497 106.783 135.875 106.54 136.188C106.302 136.501 105.999 136.741 105.63 136.909C105.262 137.072 104.846 137.154 104.384 137.154ZM109.514 137V130.35H110.326V137H109.514ZM110.025 133.955C110.025 133.124 110.097 132.434 110.242 131.883C110.386 131.332 110.61 130.919 110.914 130.644C111.217 130.369 111.604 130.231 112.076 130.231C112.239 130.231 112.388 130.243 112.524 130.266C112.664 130.289 112.804 130.327 112.944 130.378L112.853 131.169C112.717 131.118 112.568 131.076 112.405 131.043C112.241 131.006 112.099 130.987 111.978 130.987C111.562 130.987 111.233 131.113 110.991 131.365C110.753 131.617 110.582 131.967 110.48 132.415C110.377 132.858 110.326 133.372 110.326 133.955H110.025Z" fill="#363131"/>
</svg>
