<svg width="275" height="290" viewBox="0 0 275 290" fill="none" xmlns="http://www.w3.org/2000/svg">
<rect width="275" height="290" rx="5" fill="#F7F4ED"/>
<path d="M28.436 42.216C27.68 42.216 26.987 42.081 26.357 41.811C25.727 41.535 25.22 41.13 24.836 40.596C24.452 40.062 24.254 39.402 24.242 38.616H25.61C25.61 39.144 25.739 39.579 25.997 39.921C26.255 40.257 26.597 40.509 27.023 40.677C27.449 40.839 27.914 40.92 28.418 40.92C28.964 40.92 29.438 40.833 29.84 40.659C30.242 40.485 30.551 40.257 30.767 39.975C30.989 39.687 31.1 39.372 31.1 39.03C31.1 38.55 30.953 38.163 30.659 37.869C30.365 37.569 29.93 37.326 29.354 37.14L27.356 36.438C26.42 36.102 25.712 35.718 25.232 35.286C24.752 34.854 24.512 34.248 24.512 33.468C24.512 32.592 24.848 31.878 25.52 31.326C26.198 30.774 27.158 30.498 28.4 30.498C29.552 30.498 30.452 30.765 31.1 31.299C31.748 31.827 32.12 32.538 32.216 33.432H30.83C30.74 32.91 30.494 32.505 30.092 32.217C29.696 31.923 29.132 31.776 28.4 31.776C27.656 31.776 27.077 31.941 26.663 32.271C26.249 32.601 26.042 33.018 26.042 33.522C26.042 33.936 26.171 34.266 26.429 34.512C26.693 34.752 27.104 34.968 27.662 35.16L30.002 35.97C30.812 36.24 31.451 36.618 31.919 37.104C32.393 37.59 32.63 38.22 32.63 38.994C32.63 39.594 32.468 40.137 32.144 40.623C31.826 41.109 31.355 41.496 30.731 41.784C30.107 42.072 29.342 42.216 28.436 42.216ZM37.5889 42L41.4769 30.696H43.1869L46.9849 42H45.5089L44.5549 39.102H40.0549L39.0649 42H37.5889ZM40.4149 38.004H44.1949L42.3049 32.406L40.4149 38.004ZM52.5148 42V30.696H56.4568C57.7468 30.696 58.7218 31.005 59.3818 31.623C60.0478 32.235 60.3808 33.042 60.3808 34.044C60.3808 35.034 60.0478 35.838 59.3818 36.456C58.7218 37.068 57.7468 37.374 56.4568 37.374H53.9188V42H52.5148ZM58.8508 42L55.6108 36.87H57.1408L60.6688 42H58.8508ZM53.9188 36.384H56.3488C57.1948 36.384 57.8368 36.177 58.2748 35.763C58.7188 35.343 58.9408 34.8 58.9408 34.134C58.9408 33.45 58.7278 32.907 58.3018 32.505C57.8818 32.103 57.2668 31.902 56.4568 31.902H53.9188V36.384ZM65.4263 42L69.3143 30.696H71.0243L74.8223 42H73.3463L72.3923 39.102H67.8923L66.9023 42H65.4263ZM68.2523 38.004H72.0323L70.1423 32.406L68.2523 38.004ZM80.3522 30.696H81.7562V35.682H87.3542V30.696H88.7402V42H87.3542V36.888H81.7562V42H80.3522V30.696ZM103.145 30.696H104.549V35.682H110.147V30.696H111.533V42H110.147V36.888H104.549V42H103.145V30.696ZM117.076 42L120.964 30.696H122.674L126.472 42H124.996L124.042 39.102H119.542L118.552 42H117.076ZM119.902 38.004H123.682L121.792 32.406L119.902 38.004ZM132.002 42V30.696H135.944C137.234 30.696 138.209 31.005 138.869 31.623C139.535 32.235 139.868 33.042 139.868 34.044C139.868 35.034 139.535 35.838 138.869 36.456C138.209 37.068 137.234 37.374 135.944 37.374H133.406V42H132.002ZM138.338 42L135.098 36.87H136.628L140.156 42H138.338ZM133.406 36.384H135.836C136.682 36.384 137.324 36.177 137.762 35.763C138.206 35.343 138.428 34.8 138.428 34.134C138.428 33.45 138.215 32.907 137.789 32.505C137.369 32.103 136.754 31.902 135.944 31.902H133.406V36.384ZM144.553 31.902V30.696H153.355V31.902H149.332L149.647 31.578V42H148.243V31.578L148.558 31.902H144.553ZM159.925 30.696V40.776H164.965V42H158.521V30.696H159.925ZM170.163 42V30.696H177.129V31.902H171.567V35.7H176.805V36.906H171.567V40.776H177.129V42H170.163ZM181.872 30.696H183.564L186.804 36.186H186.444L189.738 30.696H191.412L187.326 37.356V42H185.904V37.356L181.872 30.696ZM204.158 42V30.696H205.562V42H204.158ZM216.061 42.216C215.305 42.216 214.612 42.081 213.982 41.811C213.352 41.535 212.845 41.13 212.461 40.596C212.077 40.062 211.879 39.402 211.867 38.616H213.235C213.235 39.144 213.364 39.579 213.622 39.921C213.88 40.257 214.222 40.509 214.648 40.677C215.074 40.839 215.539 40.92 216.043 40.92C216.589 40.92 217.063 40.833 217.465 40.659C217.867 40.485 218.176 40.257 218.392 39.975C218.614 39.687 218.725 39.372 218.725 39.03C218.725 38.55 218.578 38.163 218.284 37.869C217.99 37.569 217.555 37.326 216.979 37.14L214.981 36.438C214.045 36.102 213.337 35.718 212.857 35.286C212.377 34.854 212.137 34.248 212.137 33.468C212.137 32.592 212.473 31.878 213.145 31.326C213.823 30.774 214.783 30.498 216.025 30.498C217.177 30.498 218.077 30.765 218.725 31.299C219.373 31.827 219.745 32.538 219.841 33.432H218.455C218.365 32.91 218.119 32.505 217.717 32.217C217.321 31.923 216.757 31.776 216.025 31.776C215.281 31.776 214.702 31.941 214.288 32.271C213.874 32.601 213.667 33.018 213.667 33.522C213.667 33.936 213.796 34.266 214.054 34.512C214.318 34.752 214.729 34.968 215.287 35.16L217.627 35.97C218.437 36.24 219.076 36.618 219.544 37.104C220.018 37.59 220.255 38.22 220.255 38.994C220.255 39.594 220.093 40.137 219.769 40.623C219.451 41.109 218.98 41.496 218.356 41.784C217.732 42.072 216.967 42.216 216.061 42.216Z" fill="#363131"/>
<rect width="182" height="20" transform="translate(20 56)" fill="#D7C6FF"/>
<path d="M32.1738 69.2093C30.9327 69.2093 29.6916 68.9103 28.7346 68.4467L29.4075 67.4449C30.0654 67.9234 31.1121 68.1028 32.2037 68.1028C33.7589 68.1028 34.5065 67.6991 34.5065 67.0561C34.5065 66.5327 34.043 66.2187 32.7121 66.0243L31.5308 65.8748C29.9159 65.6505 28.914 65.1869 28.914 63.9458C28.914 62.585 30.2598 61.7925 32.2336 61.7925C33.3701 61.7925 34.5664 62.0318 35.4785 62.5402L34.9103 63.4374C34.0131 63.0785 33.071 62.8991 32.0542 62.8991C30.7832 62.8991 30.1103 63.2879 30.1103 63.8262C30.1103 64.3794 30.6187 64.5738 31.7701 64.7383L32.9215 64.8879C34.8654 65.1421 35.7327 65.9047 35.7327 66.9813C35.7327 68.372 34.2673 69.2093 32.1738 69.2093ZM35.4785 62.5402V64.0355H34.2822V62.7495L35.4785 62.5402ZM28.7346 68.4467V66.9514H29.9308V68.2224L28.7346 68.4467ZM39.622 69V67.8486H43.0314L43.6295 69H39.622ZM42.4183 69L43.0314 67.8486H46.4407V69H42.4183ZM39.622 63.1682V62.0019H43.6295L43.0314 63.1682H39.622ZM42.4183 69V62.0019H43.6295V69H42.4183ZM43.0613 60.3421C42.4183 60.3421 41.88 59.8336 41.88 59.1757C41.88 58.5178 42.4183 57.9944 43.0613 57.9944C43.6893 57.9944 44.2276 58.5178 44.2276 59.1757C44.2276 59.8336 43.6893 60.3421 43.0613 60.3421ZM49.4777 69V62.0019H50.6739V63.5869L50.6889 64.1701V69H49.4777ZM55.9824 64.6187C55.9824 63.4224 55.6534 62.9589 55.1151 62.9589C54.502 62.9589 53.9338 63.7065 53.9338 65.1271H53.2758C53.2758 63.7963 54.2179 61.7925 55.4889 61.7925C56.5805 61.7925 57.1936 62.7495 57.1936 64.6187V69H55.9824V64.6187ZM52.7375 64.6187C52.7375 63.4224 52.4085 62.9589 51.8702 62.9589C51.2571 62.9589 50.6889 63.7215 50.6889 65.157H50.031C50.031 63.8262 50.973 61.7925 52.244 61.7925C53.3207 61.7925 53.9338 62.7495 53.9338 64.6187V69H52.7375V64.6187ZM65.3745 69V67.1607V66.5776V62.0019H66.5857V69H65.3745ZM60.4249 65.8299V62.0019H61.6212V65.8299C61.6212 67.2953 62.4735 68.043 63.5053 68.043C64.5221 68.043 65.3745 67.2654 65.3745 65.8299H66.0324C66.0324 67.3701 65.0904 69.1794 63.2661 69.1794C61.6661 69.1794 60.4249 67.9533 60.4249 65.8299ZM63.9988 63.1682V62.0019H66.5857L66.182 63.1682H63.9988ZM59.0492 63.1682V62.0019H61.6212L61.2324 63.1682H59.0492ZM65.3745 69L65.7633 67.8486H67.9464V69H65.3745ZM73.8096 69V58.0542H75.0208V69H73.8096ZM70.9984 69V67.8486H74.4077L75.0208 69H70.9984ZM73.8096 69L74.4077 67.8486H77.8171V69H73.8096ZM71.0133 59.2206V58.0542H75.0208L74.4077 59.2206H71.0133ZM85.3849 69.2093C83.8746 69.2093 82.798 68.0879 82.798 66.6075V59.5495H84.0092V66.5776C84.0092 67.4449 84.5774 68.043 85.3849 68.043C86.1624 68.043 86.7606 67.4449 86.7606 66.5776V65.4112H87.9568V66.5776C87.9568 68.0879 86.8652 69.2093 85.3849 69.2093ZM80.6297 63.1682V62.0019H84.0092L83.5008 63.1682H80.6297ZM83.3811 63.1682L82.798 62.0019H86.626V63.1682H83.3811ZM94.4181 69.2093C92.4742 69.2093 90.8443 67.5346 90.8443 65.5009C90.8443 63.4673 92.4742 61.7925 94.4181 61.7925C96.377 61.7925 97.8424 63.5869 97.8424 65.5009C97.8424 67.415 96.377 69.2093 94.4181 69.2093ZM94.5377 68.043C95.8835 68.043 97.005 66.8916 97.005 65.5009C97.005 64.1252 95.8835 62.9589 94.5377 62.9589C93.1919 62.9589 92.0704 64.1402 92.0704 65.5009C92.0704 66.8766 93.1919 68.043 94.5377 68.043ZM96.9004 69V66.5178L97.2293 65.5009L96.9004 64.4093V62.0019H98.1116V69H96.9004ZM96.9004 69L97.2891 67.8486H99.4723V69H96.9004ZM102.689 69V62.0019H103.855V63.871L103.9 64.6636V69H102.689ZM103.242 65.157C103.242 63.6019 104.184 61.7925 106.008 61.7925C107.638 61.7925 108.849 63.0336 108.849 65.1421V69H107.653V65.157C107.653 63.7364 106.846 62.9589 105.769 62.9589C104.752 62.9589 103.9 63.7215 103.9 65.157H103.242ZM101.328 63.1682V62.0019H103.855L103.481 63.1682H101.328ZM101.328 69V67.8486H103.511L103.9 69H101.328ZM102.689 69L103.063 67.8486H105.156V69H102.689ZM106.397 69V67.8486H108.491L108.849 69H106.397ZM107.653 69L108.042 67.8486H110.225V69H107.653ZM119.363 67.6991C118.675 68.5963 117.374 69.2093 115.969 69.2093C113.965 69.2093 112.29 67.5495 112.29 65.5009C112.29 63.4822 113.95 61.7925 115.969 61.7925C117.987 61.7925 119.677 63.4374 119.677 65.4561C119.677 65.6355 119.632 65.8449 119.572 66.0093H112.963V64.9477H118.795L118.436 65.471C118.436 64.0505 117.3 62.9589 115.969 62.9589C114.578 62.9589 113.516 64.0953 113.516 65.5009C113.516 66.8916 114.608 68.043 116.073 68.043C117.09 68.043 118.002 67.5944 118.481 66.9514L119.363 67.6991ZM126.452 69.2093C124.344 69.2093 122.789 67.5047 122.789 65.5009C122.789 63.4972 124.419 61.7925 126.452 61.7925C128.471 61.7925 130.101 63.4972 130.101 65.5009C130.101 67.5047 128.546 69.2093 126.452 69.2093ZM126.452 68.043C127.813 68.043 128.875 66.9065 128.875 65.5009C128.875 64.0953 127.813 62.9589 126.452 62.9589C125.077 62.9589 124.015 64.0953 124.015 65.5009C124.015 66.9065 125.077 68.043 126.452 68.043ZM138.656 69V67.1607V66.5776V62.0019H139.867V69H138.656ZM133.706 65.8299V62.0019H134.902V65.8299C134.902 67.2953 135.755 68.043 136.787 68.043C137.803 68.043 138.656 67.2654 138.656 65.8299H139.314C139.314 67.3701 138.372 69.1794 136.547 69.1794C134.947 69.1794 133.706 67.9533 133.706 65.8299ZM137.28 63.1682V62.0019H139.867L139.463 63.1682H137.28ZM132.33 63.1682V62.0019H134.902L134.514 63.1682H132.33ZM138.656 69L139.045 67.8486H141.228V69H138.656ZM147.33 69.2093C146.089 69.2093 144.848 68.9103 143.891 68.4467L144.564 67.4449C145.222 67.9234 146.268 68.1028 147.36 68.1028C148.915 68.1028 149.663 67.6991 149.663 67.0561C149.663 66.5327 149.199 66.2187 147.868 66.0243L146.687 65.8748C145.072 65.6505 144.07 65.1869 144.07 63.9458C144.07 62.585 145.416 61.7925 147.39 61.7925C148.526 61.7925 149.723 62.0318 150.635 62.5402L150.067 63.4374C149.169 63.0785 148.227 62.8991 147.21 62.8991C145.939 62.8991 145.267 63.2879 145.267 63.8262C145.267 64.3794 145.775 64.5738 146.926 64.7383L148.078 64.8879C150.022 65.1421 150.889 65.9047 150.889 66.9813C150.889 68.372 149.424 69.2093 147.33 69.2093ZM150.635 62.5402V64.0355H149.438V62.7495L150.635 62.5402ZM143.891 68.4467V66.9514H145.087V68.2224L143.891 68.4467ZM157.56 69V58.0542H158.771V69H157.56ZM154.748 69V67.8486H158.158L158.771 69H154.748ZM157.56 69L158.158 67.8486H161.567V69H157.56ZM154.763 59.2206V58.0542H158.771L158.158 59.2206H154.763ZM165.112 65.8598V62.0019H166.309V65.8598C166.309 67.3103 167.161 68.0729 168.193 68.0729C169.21 68.0729 170.062 67.2804 170.062 65.8598H170.72C170.72 67.4 169.778 69.2093 167.954 69.2093C166.369 69.2093 165.112 67.9682 165.112 65.8598ZM166.249 69.8972C166.279 71.3327 166.967 72.1103 168.103 72.1103C169.12 72.1103 170.062 71.4075 170.062 69.9869V62.0019H171.273V69.9869C171.273 72.0953 169.793 73.3065 168.088 73.3065C166.398 73.3065 165.083 72.0953 165.083 70.1065L166.249 69.8972ZM163.737 63.1682V62.0019H166.309L165.92 63.1682H163.737ZM165.471 63.1682L165.112 62.0019H167.565V63.1682H165.471ZM170.451 63.1682L170.062 62.0019H172.634V63.1682H170.451ZM168.806 63.1682V62.0019H171.273L170.899 63.1682H168.806ZM188.637 69.2093C186.693 69.2093 185.063 67.5346 185.063 65.5009C185.063 63.4673 186.693 61.7925 188.637 61.7925C190.596 61.7925 192.061 63.5869 192.061 65.5009C192.061 67.415 190.596 69.2093 188.637 69.2093ZM188.756 68.043C190.102 68.043 191.224 66.8916 191.224 65.5009C191.224 64.1252 190.102 62.9589 188.756 62.9589C187.411 62.9589 186.289 64.1402 186.289 65.5009C186.289 66.8766 187.411 68.043 188.756 68.043ZM191.119 69V66.5178L191.448 65.5009L191.119 64.4093V62.0019H192.33V69H191.119ZM191.119 69L191.508 67.8486H193.691V69H191.119Z" fill="#363131"/>
<rect width="203" height="20" transform="translate(20 81)" fill="#D7C6FF"/>
<path d="M28.7944 90.5159C28.7944 88.4374 30.4991 86.7925 32.6374 86.7925C33.8785 86.7925 34.9252 87.1514 35.8374 87.9589L34.8804 88.7215C34.1477 88.1084 33.5047 87.9589 32.6673 87.9589C31.2168 87.9589 30.0206 89.1103 30.0206 90.5308C30.0206 91.9364 31.1271 93.043 32.6224 93.043C33.5944 93.043 34.5514 92.5645 35.0299 91.8916L35.9121 92.6393C35.2393 93.5664 33.8636 94.2093 32.5178 94.2093C30.4841 94.2093 28.7944 92.5645 28.7944 90.5159ZM35.8374 87.9589V90.0523H34.6112V88.2729L35.8374 87.9589ZM42.0145 90.2617C42.0145 88.3178 43.1061 86.7925 44.7809 86.7925C45.4089 86.7925 46.0669 86.972 46.5753 87.4953V88.7215C46.0519 88.1682 45.379 87.9589 44.7809 87.9589C43.6295 87.9589 42.6725 89.0056 42.6725 90.2617H42.0145ZM41.4613 94V87.0019H42.6276V88.4673L42.6725 89.2598V94H41.4613ZM39.5473 88.1682V87.0019H42.6276L42.1641 88.1682H39.5473ZM39.5473 94V92.8486H42.194L42.6725 94H39.5473ZM41.4613 94L41.9996 92.8486H45.0052V94H41.4613ZM56.5506 92.6991C55.8627 93.5963 54.5618 94.2093 53.1562 94.2093C51.1525 94.2093 49.4777 92.5495 49.4777 90.5009C49.4777 88.4822 51.1375 86.7925 53.1562 86.7925C55.1749 86.7925 56.8646 88.4374 56.8646 90.4561C56.8646 90.6355 56.8197 90.8449 56.7599 91.0093H50.1506V89.9477H55.9824L55.6235 90.471C55.6235 89.0505 54.487 87.9589 53.1562 87.9589C51.7655 87.9589 50.7039 89.0953 50.7039 90.5009C50.7039 91.8916 51.7954 93.043 53.2609 93.043C54.2777 93.043 55.1898 92.5944 55.6683 91.9514L56.5506 92.6991ZM63.0119 94.2093C61.0679 94.2093 59.438 92.5346 59.438 90.5009C59.438 88.4673 61.0679 86.7925 63.0119 86.7925C64.9707 86.7925 66.4362 88.5869 66.4362 90.5009C66.4362 92.415 64.9707 94.2093 63.0119 94.2093ZM63.1315 93.043C64.4773 93.043 65.5988 91.8916 65.5988 90.5009C65.5988 89.1252 64.4773 87.9589 63.1315 87.9589C61.7857 87.9589 60.6642 89.1402 60.6642 90.5009C60.6642 91.8766 61.7857 93.043 63.1315 93.043ZM65.4941 94V91.5178L65.8231 90.5009L65.4941 89.4093V87.0019H66.7053V94H65.4941ZM65.4941 94L65.8829 92.8486H68.0661V94H65.4941ZM74.9161 94.2093C73.4058 94.2093 72.3292 93.0879 72.3292 91.6075V84.5495H73.5404V91.5776C73.5404 92.4449 74.1086 93.043 74.9161 93.043C75.6937 93.043 76.2918 92.4449 76.2918 91.5776V90.4112H77.4881V91.5776C77.4881 93.0879 76.3965 94.2093 74.9161 94.2093ZM70.161 88.1682V87.0019H73.5404L73.032 88.1682H70.161ZM72.9124 88.1682L72.3292 87.0019H76.1572V88.1682H72.9124ZM81.497 94V92.8486H84.9064L85.5045 94H81.497ZM84.2933 94L84.9064 92.8486H88.3157V94H84.2933ZM81.497 88.1682V87.0019H85.5045L84.9064 88.1682H81.497ZM84.2933 94V87.0019H85.5045V94H84.2933ZM84.9363 85.3421C84.2933 85.3421 83.755 84.8336 83.755 84.1757C83.755 83.5178 84.2933 82.9944 84.9363 82.9944C85.5643 82.9944 86.1026 83.5178 86.1026 84.1757C86.1026 84.8336 85.5643 85.3421 84.9363 85.3421ZM94.3882 94L91.0985 87.0019H92.4443L95.2256 92.9981H94.8518L97.6331 87.0019H98.9789L95.6891 94H94.3882ZM95.7639 88.1682V87.0019H98.9789L98.5004 88.1682H95.7639ZM97.9321 88.1682L97.6331 87.0019H99.6218V88.1682H97.9321ZM90.4555 88.1682V87.0019H92.4443L92.1452 88.1682H90.4555ZM91.577 88.1682L91.0985 87.0019H94.3134V88.1682H91.577ZM108.894 92.6991C108.206 93.5963 106.906 94.2093 105.5 94.2093C103.496 94.2093 101.821 92.5495 101.821 90.5009C101.821 88.4822 103.481 86.7925 105.5 86.7925C107.519 86.7925 109.208 88.4374 109.208 90.4561C109.208 90.6355 109.163 90.8449 109.104 91.0093H102.494V89.9477H108.326L107.967 90.471C107.967 89.0505 106.831 87.9589 105.5 87.9589C104.109 87.9589 103.048 89.0953 103.048 90.5009C103.048 91.8916 104.139 93.043 105.605 93.043C106.621 93.043 107.534 92.5944 108.012 91.9514L108.894 92.6991ZM125.585 85.6112C125.585 83.9963 126.647 82.8598 128.142 82.8598C129.637 82.8598 130.714 83.9813 130.714 85.5664V85.7458H129.503V85.5664C129.503 84.6542 128.935 84.0112 128.142 84.0112C127.335 84.0112 126.796 84.6542 126.796 85.5664V94H125.585V85.6112ZM123.477 88.1682V87.0019H126.796L126.288 88.1682H123.477ZM126.183 88.1682L125.585 87.0019H129.548V88.1682H126.183ZM123.477 94V92.8486H126.288L126.796 94H123.477ZM125.585 94L126.183 92.8486H129.548V94H125.585ZM136.921 94.2093C134.813 94.2093 133.258 92.5047 133.258 90.5009C133.258 88.4972 134.888 86.7925 136.921 86.7925C138.94 86.7925 140.57 88.4972 140.57 90.5009C140.57 92.5047 139.015 94.2093 136.921 94.2093ZM136.921 93.043C138.282 93.043 139.344 91.9065 139.344 90.5009C139.344 89.0953 138.282 87.9589 136.921 87.9589C135.545 87.9589 134.484 89.0953 134.484 90.5009C134.484 91.9065 135.545 93.043 136.921 93.043ZM146.702 90.2617C146.702 88.3178 147.794 86.7925 149.468 86.7925C150.096 86.7925 150.754 86.972 151.263 87.4953V88.7215C150.739 88.1682 150.067 87.9589 149.468 87.9589C148.317 87.9589 147.36 89.0056 147.36 90.2617H146.702ZM146.149 94V87.0019H147.315V88.4673L147.36 89.2598V94H146.149ZM144.235 88.1682V87.0019H147.315L146.852 88.1682H144.235ZM144.235 94V92.8486H146.881L147.36 94H144.235ZM146.149 94L146.687 92.8486H149.693V94H146.149ZM154.419 90.5159C154.419 88.4374 156.124 86.7925 158.262 86.7925C159.504 86.7925 160.55 87.1514 161.462 87.9589L160.505 88.7215C159.773 88.1084 159.13 87.9589 158.292 87.9589C156.842 87.9589 155.646 89.1103 155.646 90.5308C155.646 91.9364 156.752 93.043 158.247 93.043C159.219 93.043 160.176 92.5645 160.655 91.8916L161.537 92.6393C160.864 93.5664 159.489 94.2093 158.143 94.2093C156.109 94.2093 154.419 92.5645 154.419 90.5159ZM161.462 87.9589V90.0523H160.236V88.2729L161.462 87.9589ZM171.707 92.6991C171.019 93.5963 169.718 94.2093 168.312 94.2093C166.309 94.2093 164.634 92.5495 164.634 90.5009C164.634 88.4822 166.294 86.7925 168.312 86.7925C170.331 86.7925 172.021 88.4374 172.021 90.4561C172.021 90.6355 171.976 90.8449 171.916 91.0093H165.307V89.9477H171.139L170.78 90.471C170.78 89.0505 169.643 87.9589 168.312 87.9589C166.922 87.9589 165.86 89.0953 165.86 90.5009C165.86 91.8916 166.952 93.043 168.417 93.043C169.434 93.043 170.346 92.5944 170.825 91.9514L171.707 92.6991ZM188.637 94.2093C186.693 94.2093 185.063 92.5346 185.063 90.5009C185.063 88.4673 186.693 86.7925 188.637 86.7925C190.596 86.7925 192.061 88.5869 192.061 90.5009C192.061 92.415 190.596 94.2093 188.637 94.2093ZM188.756 93.043C190.102 93.043 191.224 91.8916 191.224 90.5009C191.224 89.1252 190.102 87.9589 188.756 87.9589C187.411 87.9589 186.289 89.1402 186.289 90.5009C186.289 91.8766 187.411 93.043 188.756 93.043ZM191.119 94V91.5178L191.448 90.5009L191.119 89.4093V87.0019H192.33V94H191.119ZM191.119 94L191.508 92.8486H193.691V94H191.119ZM196.907 94V87.0019H198.074V88.871L198.119 89.6636V94H196.907ZM197.461 90.157C197.461 88.6019 198.403 86.7925 200.227 86.7925C201.857 86.7925 203.068 88.0336 203.068 90.1421V94H201.872V90.157C201.872 88.7364 201.064 87.9589 199.988 87.9589C198.971 87.9589 198.119 88.7215 198.119 90.157H197.461ZM195.547 88.1682V87.0019H198.074L197.7 88.1682H195.547ZM195.547 94V92.8486H197.73L198.119 94H195.547ZM196.907 94L197.281 92.8486H199.375V94H196.907ZM200.616 94V92.8486H202.709L203.068 94H200.616ZM201.872 94L202.261 92.8486H204.444V94H201.872ZM212.057 94V91.5925L212.386 90.5458L212.057 89.4991V83.0542H213.268V94H212.057ZM209.574 94.2093C207.63 94.2093 206.001 92.5346 206.001 90.5009C206.001 88.4673 207.63 86.7925 209.574 86.7925C211.533 86.7925 212.999 88.5869 212.999 90.5009C212.999 92.415 211.533 94.2093 209.574 94.2093ZM209.694 93.043C211.04 93.043 212.161 91.8916 212.161 90.5009C212.161 89.1252 211.04 87.9589 209.694 87.9589C208.348 87.9589 207.227 89.1402 207.227 90.5009C207.227 91.8766 208.348 93.043 209.694 93.043ZM210.427 84.2206V83.0542H213.268L212.834 84.2206H210.427ZM212.057 94L212.445 92.8486H214.629V94H212.057Z" fill="#363131"/>
<rect width="130" height="20" transform="translate(20 106)" fill="#D7C6FF"/>
<path d="M32.1738 119.209C30.9327 119.209 29.6916 118.91 28.7346 118.447L29.4075 117.445C30.0654 117.923 31.1121 118.103 32.2037 118.103C33.7589 118.103 34.5065 117.699 34.5065 117.056C34.5065 116.533 34.043 116.219 32.7121 116.024L31.5308 115.875C29.9159 115.65 28.914 115.187 28.914 113.946C28.914 112.585 30.2598 111.793 32.2336 111.793C33.3701 111.793 34.5664 112.032 35.4785 112.54L34.9103 113.437C34.0131 113.079 33.071 112.899 32.0542 112.899C30.7832 112.899 30.1103 113.288 30.1103 113.826C30.1103 114.379 30.6187 114.574 31.7701 114.738L32.9215 114.888C34.8654 115.142 35.7327 115.905 35.7327 116.981C35.7327 118.372 34.2673 119.209 32.1738 119.209ZM35.4785 112.54V114.036H34.2822V112.75L35.4785 112.54ZM28.7346 118.447V116.951H29.9308V118.222L28.7346 118.447ZM42.7024 119.209C40.594 119.209 39.0388 117.505 39.0388 115.501C39.0388 113.497 40.6688 111.793 42.7024 111.793C44.7211 111.793 46.351 113.497 46.351 115.501C46.351 117.505 44.7959 119.209 42.7024 119.209ZM42.7024 118.043C44.0631 118.043 45.1248 116.907 45.1248 115.501C45.1248 114.095 44.0631 112.959 42.7024 112.959C41.3267 112.959 40.265 114.095 40.265 115.501C40.265 116.907 41.3267 118.043 42.7024 118.043ZM49.4777 119V112.002H50.6739V113.587L50.6889 114.17V119H49.4777ZM55.9824 114.619C55.9824 113.422 55.6534 112.959 55.1151 112.959C54.502 112.959 53.9338 113.707 53.9338 115.127H53.2758C53.2758 113.796 54.2179 111.793 55.4889 111.793C56.5805 111.793 57.1936 112.75 57.1936 114.619V119H55.9824V114.619ZM52.7375 114.619C52.7375 113.422 52.4085 112.959 51.8702 112.959C51.2571 112.959 50.6889 113.721 50.6889 115.157H50.031C50.031 113.826 50.973 111.793 52.244 111.793C53.3207 111.793 53.9338 112.75 53.9338 114.619V119H52.7375V114.619ZM67.0193 117.699C66.3315 118.596 65.0305 119.209 63.6249 119.209C61.6212 119.209 59.9464 117.55 59.9464 115.501C59.9464 113.482 61.6063 111.793 63.6249 111.793C65.6436 111.793 67.3334 113.437 67.3334 115.456C67.3334 115.636 67.2885 115.845 67.2287 116.009H60.6193V114.948H66.4511L66.0922 115.471C66.0922 114.05 64.9558 112.959 63.6249 112.959C62.2343 112.959 61.1726 114.095 61.1726 115.501C61.1726 116.892 62.2642 118.043 63.7296 118.043C64.7464 118.043 65.6586 117.594 66.1371 116.951L67.0193 117.699ZM74.1086 119.209C72.0002 119.209 70.4451 117.505 70.4451 115.501C70.4451 113.497 72.075 111.793 74.1086 111.793C76.1273 111.793 77.7572 113.497 77.7572 115.501C77.7572 117.505 76.2021 119.209 74.1086 119.209ZM74.1086 118.043C75.4694 118.043 76.5311 116.907 76.5311 115.501C76.5311 114.095 75.4694 112.959 74.1086 112.959C72.7329 112.959 71.6713 114.095 71.6713 115.501C71.6713 116.907 72.7329 118.043 74.1086 118.043ZM81.7512 119V112.002H82.9176V113.871L82.9624 114.664V119H81.7512ZM82.3045 115.157C82.3045 113.602 83.2466 111.793 85.0709 111.793C86.7008 111.793 87.912 113.034 87.912 115.142V119H86.7157V115.157C86.7157 113.736 85.9082 112.959 84.8316 112.959C83.8148 112.959 82.9624 113.721 82.9624 115.157H82.3045ZM80.3905 113.168V112.002H82.9176L82.5438 113.168H80.3905ZM80.3905 119V117.849H82.5737L82.9624 119H80.3905ZM81.7512 119L82.1251 117.849H84.2185V119H81.7512ZM85.4596 119V117.849H87.5531L87.912 119H85.4596ZM86.7157 119L87.1045 117.849H89.2877V119H86.7157ZM98.4256 117.699C97.7377 118.596 96.4368 119.209 95.0312 119.209C93.0275 119.209 91.3527 117.55 91.3527 115.501C91.3527 113.482 93.0125 111.793 95.0312 111.793C97.0499 111.793 98.7396 113.437 98.7396 115.456C98.7396 115.636 98.6947 115.845 98.6349 116.009H92.0256V114.948H97.8574L97.4985 115.471C97.4985 114.05 96.362 112.959 95.0312 112.959C93.6405 112.959 92.5789 114.095 92.5789 115.501C92.5789 116.892 93.6704 118.043 95.1359 118.043C96.1527 118.043 97.0648 117.594 97.5433 116.951L98.4256 117.699ZM112.948 119L111.423 112.002H112.634L114.07 119H112.948ZM113.606 119L115.161 112.54H116.193L114.728 119H113.606ZM117.24 119L115.774 112.54H116.791L118.346 119H117.24ZM117.883 119L119.318 112.002H120.529L119.004 119H117.883ZM113.262 118.821V117.849H114.443V118.821H113.262ZM115.625 113.692L115.505 112.645L116.328 112.54L116.447 113.602L115.625 113.692ZM118.511 118.821L117.524 118.746L117.688 117.849L118.69 117.923L118.511 118.821ZM110.87 113.168V112.002H112.634L112.365 113.168H110.87ZM111.797 113.168L111.423 112.002H113.905V113.168H111.797ZM118.047 113.168V112.002H120.529L120.156 113.168H118.047ZM119.587 113.168L119.318 112.002H121.083V113.168H119.587ZM123.626 119V108.054H124.837V119H123.626ZM124.179 115.157C124.179 113.602 125.122 111.793 126.946 111.793C128.516 111.793 129.787 113.034 129.787 115.157V119H128.591V115.157C128.591 113.692 127.738 112.959 126.707 112.959C125.69 112.959 124.837 113.721 124.837 115.157H124.179ZM122.265 109.221V108.054H124.837L124.449 109.221H122.265ZM122.265 119V117.849H124.449L124.837 119H122.265ZM123.626 119L124 117.849H126.094V119H123.626ZM127.335 119V117.849H129.428L129.787 119H127.335ZM128.591 119L128.979 117.849H131.163V119H128.591ZM136.921 119.209C134.813 119.209 133.258 117.505 133.258 115.501C133.258 113.497 134.888 111.793 136.921 111.793C138.94 111.793 140.57 113.497 140.57 115.501C140.57 117.505 139.015 119.209 136.921 119.209ZM136.921 118.043C138.282 118.043 139.344 116.907 139.344 115.501C139.344 114.095 138.282 112.959 136.921 112.959C135.545 112.959 134.484 114.095 134.484 115.501C134.484 116.907 135.545 118.043 136.921 118.043Z" fill="#363131"/>
<rect width="172" height="20" transform="translate(20 131)" fill="#D7C6FF"/>
<path d="M33.9682 144V142.161V141.578V137.002H35.1794V144H33.9682ZM29.0187 140.83V137.002H30.215V140.83C30.215 142.295 31.0673 143.043 32.0991 143.043C33.1159 143.043 33.9682 142.265 33.9682 140.83H34.6262C34.6262 142.37 33.6841 144.179 31.8598 144.179C30.2598 144.179 29.0187 142.953 29.0187 140.83ZM32.5925 138.168V137.002H35.1794L34.7757 138.168H32.5925ZM27.643 138.168V137.002H30.215L29.8262 138.168H27.643ZM33.9682 144L34.357 142.849H36.5402V144H33.9682ZM39.8762 144V137.002H41.0426V138.871L41.0874 139.664V144H39.8762ZM40.4295 140.157C40.4295 138.602 41.3716 136.793 43.1959 136.793C44.8258 136.793 46.037 138.034 46.037 140.142V144H44.8407V140.157C44.8407 138.736 44.0332 137.959 42.9566 137.959C41.9398 137.959 41.0874 138.721 41.0874 140.157H40.4295ZM38.5155 138.168V137.002H41.0426L40.6688 138.168H38.5155ZM38.5155 144V142.849H40.6987L41.0874 144H38.5155ZM39.8762 144L40.2501 142.849H42.3435V144H39.8762ZM43.5846 144V142.849H45.6781L46.037 144H43.5846ZM44.8407 144L45.2295 142.849H47.4127V144H44.8407ZM55.0254 144V141.593L55.3543 140.546L55.0254 139.499V133.054H56.2366V144H55.0254ZM52.5431 144.209C50.5992 144.209 48.9693 142.535 48.9693 140.501C48.9693 138.467 50.5992 136.793 52.5431 136.793C54.502 136.793 55.9674 138.587 55.9674 140.501C55.9674 142.415 54.502 144.209 52.5431 144.209ZM52.6627 143.043C54.0085 143.043 55.13 141.892 55.13 140.501C55.13 139.125 54.0085 137.959 52.6627 137.959C51.3169 137.959 50.1954 139.14 50.1954 140.501C50.1954 141.877 51.3169 143.043 52.6627 143.043ZM53.3954 134.221V133.054H56.2366L55.8029 134.221H53.3954ZM55.0254 144L55.4141 142.849H57.5973V144H55.0254ZM67.0193 142.699C66.3315 143.596 65.0305 144.209 63.6249 144.209C61.6212 144.209 59.9464 142.55 59.9464 140.501C59.9464 138.482 61.6063 136.793 63.6249 136.793C65.6436 136.793 67.3334 138.437 67.3334 140.456C67.3334 140.636 67.2885 140.845 67.2287 141.009H60.6193V139.948H66.4511L66.0922 140.471C66.0922 139.05 64.9558 137.959 63.6249 137.959C62.2343 137.959 61.1726 139.095 61.1726 140.501C61.1726 141.892 62.2642 143.043 63.7296 143.043C64.7464 143.043 65.6586 142.594 66.1371 141.951L67.0193 142.699ZM73.4208 140.262C73.4208 138.318 74.5124 136.793 76.1871 136.793C76.8152 136.793 77.4731 136.972 77.9815 137.495V138.721C77.4582 138.168 76.7853 137.959 76.1871 137.959C75.0357 137.959 74.0787 139.006 74.0787 140.262H73.4208ZM72.8675 144V137.002H74.0339V138.467L74.0787 139.26V144H72.8675ZM70.9535 138.168V137.002H74.0339L73.5703 138.168H70.9535ZM70.9535 144V142.849H73.6002L74.0787 144H70.9535ZM72.8675 144L73.4058 142.849H76.4114V144H72.8675ZM84.5176 144.209C83.2765 144.209 82.0353 143.91 81.0783 143.447L81.7512 142.445C82.4092 142.923 83.4559 143.103 84.5475 143.103C86.1026 143.103 86.8503 142.699 86.8503 142.056C86.8503 141.533 86.3867 141.219 85.0559 141.024L83.8746 140.875C82.2596 140.65 81.2578 140.187 81.2578 138.946C81.2578 137.585 82.6036 136.793 84.5774 136.793C85.7138 136.793 86.9101 137.032 87.8223 137.54L87.254 138.437C86.3568 138.079 85.4148 137.899 84.398 137.899C83.1269 137.899 82.454 138.288 82.454 138.826C82.454 139.379 82.9624 139.574 84.1138 139.738L85.2652 139.888C87.2092 140.142 88.0765 140.905 88.0765 141.981C88.0765 143.372 86.611 144.209 84.5176 144.209ZM87.8223 137.54V139.036H86.626V137.75L87.8223 137.54ZM81.0783 143.447V141.951H82.2746V143.222L81.0783 143.447ZM95.8536 144.209C94.3433 144.209 93.2667 143.088 93.2667 141.607V134.55H94.4779V141.578C94.4779 142.445 95.0461 143.043 95.8536 143.043C96.6312 143.043 97.2293 142.445 97.2293 141.578V140.411H98.4256V141.578C98.4256 143.088 97.334 144.209 95.8536 144.209ZM91.0985 138.168V137.002H94.4779L93.9695 138.168H91.0985ZM93.8499 138.168L93.2667 137.002H97.0947V138.168H93.8499ZM104.887 144.209C102.943 144.209 101.313 142.535 101.313 140.501C101.313 138.467 102.943 136.793 104.887 136.793C106.846 136.793 108.311 138.587 108.311 140.501C108.311 142.415 106.846 144.209 104.887 144.209ZM105.006 143.043C106.352 143.043 107.474 141.892 107.474 140.501C107.474 139.125 106.352 137.959 105.006 137.959C103.661 137.959 102.539 139.14 102.539 140.501C102.539 141.877 103.661 143.043 105.006 143.043ZM107.369 144V141.518L107.698 140.501L107.369 139.409V137.002H108.58V144H107.369ZM107.369 144L107.758 142.849H109.941V144H107.369ZM113.157 144V137.002H114.324V138.871L114.369 139.664V144H113.157ZM113.711 140.157C113.711 138.602 114.653 136.793 116.477 136.793C118.107 136.793 119.318 138.034 119.318 140.142V144H118.122V140.157C118.122 138.736 117.314 137.959 116.238 137.959C115.221 137.959 114.369 138.721 114.369 140.157H113.711ZM111.797 138.168V137.002H114.324L113.95 138.168H111.797ZM111.797 144V142.849H113.98L114.369 144H111.797ZM113.157 144L113.531 142.849H115.625V144H113.157ZM116.866 144V142.849H118.959L119.318 144H116.866ZM118.122 144L118.511 142.849H120.694V144H118.122ZM128.307 144V141.593L128.636 140.546L128.307 139.499V133.054H129.518V144H128.307ZM125.824 144.209C123.88 144.209 122.251 142.535 122.251 140.501C122.251 138.467 123.88 136.793 125.824 136.793C127.783 136.793 129.249 138.587 129.249 140.501C129.249 142.415 127.783 144.209 125.824 144.209ZM125.944 143.043C127.29 143.043 128.411 141.892 128.411 140.501C128.411 139.125 127.29 137.959 125.944 137.959C124.598 137.959 123.477 139.14 123.477 140.501C123.477 141.877 124.598 143.043 125.944 143.043ZM126.677 134.221V133.054H129.518L129.084 134.221H126.677ZM128.307 144L128.695 142.849H130.879V144H128.307ZM136.861 144.209C135.62 144.209 134.379 143.91 133.422 143.447L134.095 142.445C134.753 142.923 135.8 143.103 136.891 143.103C138.446 143.103 139.194 142.699 139.194 142.056C139.194 141.533 138.73 141.219 137.4 141.024L136.218 140.875C134.603 140.65 133.602 140.187 133.602 138.946C133.602 137.585 134.947 136.793 136.921 136.793C138.058 136.793 139.254 137.032 140.166 137.54L139.598 138.437C138.701 138.079 137.759 137.899 136.742 137.899C135.471 137.899 134.798 138.288 134.798 138.826C134.798 139.379 135.306 139.574 136.458 139.738L137.609 139.888C139.553 140.142 140.42 140.905 140.42 141.981C140.42 143.372 138.955 144.209 136.861 144.209ZM140.166 137.54V139.036H138.97V137.75L140.166 137.54ZM133.422 143.447V141.951H134.618V143.222L133.422 143.447ZM157.231 144.209C155.287 144.209 153.657 142.535 153.657 140.501C153.657 138.467 155.287 136.793 157.231 136.793C159.189 136.793 160.655 138.587 160.655 140.501C160.655 142.415 159.189 144.209 157.231 144.209ZM157.35 143.043C158.696 143.043 159.818 141.892 159.818 140.501C159.818 139.125 158.696 137.959 157.35 137.959C156.004 137.959 154.883 139.14 154.883 140.501C154.883 141.877 156.004 143.043 157.35 143.043ZM159.713 144V141.518L160.042 140.501L159.713 139.409V137.002H160.924V144H159.713ZM159.713 144L160.102 142.849H162.285V144H159.713ZM165.501 144V137.002H166.668V138.871L166.712 139.664V144H165.501ZM166.054 140.157C166.054 138.602 166.997 136.793 168.821 136.793C170.451 136.793 171.662 138.034 171.662 140.142V144H170.466V140.157C170.466 138.736 169.658 137.959 168.582 137.959C167.565 137.959 166.712 138.721 166.712 140.157H166.054ZM164.14 138.168V137.002H166.668L166.294 138.168H164.14ZM164.14 144V142.849H166.324L166.712 144H164.14ZM165.501 144L165.875 142.849H167.969V144H165.501ZM169.21 144V142.849H171.303L171.662 144H169.21ZM170.466 144L170.854 142.849H173.038V144H170.466ZM180.65 144V141.593L180.979 140.546L180.65 139.499V133.054H181.862V144H180.65ZM178.168 144.209C176.224 144.209 174.594 142.535 174.594 140.501C174.594 138.467 176.224 136.793 178.168 136.793C180.127 136.793 181.592 138.587 181.592 140.501C181.592 142.415 180.127 144.209 178.168 144.209ZM178.288 143.043C179.634 143.043 180.755 141.892 180.755 140.501C180.755 139.125 179.634 137.959 178.288 137.959C176.942 137.959 175.82 139.14 175.82 140.501C175.82 141.877 176.942 143.043 178.288 143.043ZM179.02 134.221V133.054H181.862L181.428 134.221H179.02ZM180.65 144L181.039 142.849H183.222V144H180.65Z" fill="#363131"/>
<rect width="172" height="20" transform="translate(20 156)" fill="#D7C6FF"/>
<path d="M34.0879 169V166.593L34.4168 165.546L34.0879 164.499V158.054H35.2991V169H34.0879ZM31.6056 169.209C29.6617 169.209 28.0318 167.535 28.0318 165.501C28.0318 163.467 29.6617 161.793 31.6056 161.793C33.5645 161.793 35.0299 163.587 35.0299 165.501C35.0299 167.415 33.5645 169.209 31.6056 169.209ZM31.7252 168.043C33.071 168.043 34.1925 166.892 34.1925 165.501C34.1925 164.125 33.071 162.959 31.7252 162.959C30.3794 162.959 29.2579 164.14 29.2579 165.501C29.2579 166.877 30.3794 168.043 31.7252 168.043ZM32.4579 159.221V158.054H35.2991L34.8654 159.221H32.4579ZM34.0879 169L34.4766 167.849H36.6598V169H34.0879ZM42.0145 165.262C42.0145 163.318 43.1061 161.793 44.7809 161.793C45.4089 161.793 46.0669 161.972 46.5753 162.495V163.721C46.0519 163.168 45.379 162.959 44.7809 162.959C43.6295 162.959 42.6725 164.006 42.6725 165.262H42.0145ZM41.4613 169V162.002H42.6276V163.467L42.6725 164.26V169H41.4613ZM39.5473 163.168V162.002H42.6276L42.1641 163.168H39.5473ZM39.5473 169V167.849H42.194L42.6725 169H39.5473ZM41.4613 169L41.9996 167.849H45.0052V169H41.4613ZM50.0908 169V167.849H53.5001L54.0982 169H50.0908ZM52.887 169L53.5001 167.849H56.9095V169H52.887ZM50.0908 163.168V162.002H54.0982L53.5001 163.168H50.0908ZM52.887 169V162.002H54.0982V169H52.887ZM53.53 160.342C52.887 160.342 52.3487 159.834 52.3487 159.176C52.3487 158.518 52.887 157.994 53.53 157.994C54.1581 157.994 54.6964 158.518 54.6964 159.176C54.6964 159.834 54.1581 160.342 53.53 160.342ZM62.982 169L59.6922 162.002H61.038L63.8193 167.998H63.4455L66.2268 162.002H67.5726L64.2829 169H62.982ZM64.3577 163.168V162.002H67.5726L67.0941 163.168H64.3577ZM66.5259 163.168L66.2268 162.002H68.2156V163.168H66.5259ZM59.0492 163.168V162.002H61.038L60.739 163.168H59.0492ZM60.1707 163.168L59.6922 162.002H62.9072V163.168H60.1707ZM77.4881 167.699C76.8002 168.596 75.4993 169.209 74.0937 169.209C72.09 169.209 70.4152 167.55 70.4152 165.501C70.4152 163.482 72.075 161.793 74.0937 161.793C76.1124 161.793 77.8021 163.437 77.8021 165.456C77.8021 165.636 77.7572 165.845 77.6974 166.009H71.0881V164.948H76.9199L76.561 165.471C76.561 164.05 75.4245 162.959 74.0937 162.959C72.703 162.959 71.6414 164.095 71.6414 165.501C71.6414 166.892 72.7329 168.043 74.1984 168.043C75.2152 168.043 76.1273 167.594 76.6058 166.951L77.4881 167.699ZM84.5176 169.209C83.2765 169.209 82.0353 168.91 81.0783 168.447L81.7512 167.445C82.4092 167.923 83.4559 168.103 84.5475 168.103C86.1026 168.103 86.8503 167.699 86.8503 167.056C86.8503 166.533 86.3867 166.219 85.0559 166.024L83.8746 165.875C82.2596 165.65 81.2578 165.187 81.2578 163.946C81.2578 162.585 82.6036 161.793 84.5774 161.793C85.7138 161.793 86.9101 162.032 87.8223 162.54L87.254 163.437C86.3568 163.079 85.4148 162.899 84.398 162.899C83.1269 162.899 82.454 163.288 82.454 163.826C82.454 164.379 82.9624 164.574 84.1138 164.738L85.2652 164.888C87.2092 165.142 88.0765 165.905 88.0765 166.981C88.0765 168.372 86.611 169.209 84.5176 169.209ZM87.8223 162.54V164.036H86.626V162.75L87.8223 162.54ZM81.0783 168.447V166.951H82.2746V168.222L81.0783 168.447ZM106.113 169.209C104.169 169.209 102.704 167.415 102.704 165.501C102.704 163.587 104.169 161.793 106.113 161.793C108.072 161.793 109.687 163.467 109.687 165.501C109.687 167.535 108.072 169.209 106.113 169.209ZM105.993 168.043C107.339 168.043 108.461 166.877 108.461 165.501C108.461 164.14 107.339 162.959 105.993 162.959C104.648 162.959 103.541 164.125 103.541 165.501C103.541 166.892 104.648 168.043 105.993 168.043ZM102.435 169V158.054H103.631V164.32L103.302 165.561L103.631 166.817V169H102.435ZM101.059 159.221V158.054H103.631L103.242 159.221H101.059ZM117.718 169V167.161V166.578V162.002H118.929V169H117.718ZM112.769 165.83V162.002H113.965V165.83C113.965 167.295 114.817 168.043 115.849 168.043C116.866 168.043 117.718 167.265 117.718 165.83H118.376C118.376 167.37 117.434 169.179 115.61 169.179C114.01 169.179 112.769 167.953 112.769 165.83ZM116.343 163.168V162.002H118.929L118.526 163.168H116.343ZM111.393 163.168V162.002H113.965L113.576 163.168H111.393ZM117.718 169L118.107 167.849H120.29V169H117.718ZM126.393 169.209C125.151 169.209 123.91 168.91 122.953 168.447L123.626 167.445C124.284 167.923 125.331 168.103 126.422 168.103C127.978 168.103 128.725 167.699 128.725 167.056C128.725 166.533 128.262 166.219 126.931 166.024L125.75 165.875C124.135 165.65 123.133 165.187 123.133 163.946C123.133 162.585 124.479 161.793 126.452 161.793C127.589 161.793 128.785 162.032 129.697 162.54L129.129 163.437C128.232 163.079 127.29 162.899 126.273 162.899C125.002 162.899 124.329 163.288 124.329 163.826C124.329 164.379 124.837 164.574 125.989 164.738L127.14 164.888C129.084 165.142 129.951 165.905 129.951 166.981C129.951 168.372 128.486 169.209 126.393 169.209ZM129.697 162.54V164.036H128.501V162.75L129.697 162.54ZM122.953 168.447V166.951H124.15V168.222L122.953 168.447ZM133.841 169V167.849H137.25L137.848 169H133.841ZM136.637 169L137.25 167.849H140.659V169H136.637ZM133.841 163.168V162.002H137.848L137.25 163.168H133.841ZM136.637 169V162.002H137.848V169H136.637ZM137.28 160.342C136.637 160.342 136.099 159.834 136.099 159.176C136.099 158.518 136.637 157.994 137.28 157.994C137.908 157.994 138.446 158.518 138.446 159.176C138.446 159.834 137.908 160.342 137.28 160.342ZM144.564 169V162.002H145.73V163.871L145.775 164.664V169H144.564ZM145.117 165.157C145.117 163.602 146.059 161.793 147.883 161.793C149.513 161.793 150.724 163.034 150.724 165.142V169H149.528V165.157C149.528 163.736 148.721 162.959 147.644 162.959C146.627 162.959 145.775 163.721 145.775 165.157H145.117ZM143.203 163.168V162.002H145.73L145.356 163.168H143.203ZM143.203 169V167.849H145.386L145.775 169H143.203ZM144.564 169L144.938 167.849H147.031V169H144.564ZM148.272 169V167.849H150.366L150.724 169H148.272ZM149.528 169L149.917 167.849H152.1V169H149.528ZM161.238 167.699C160.55 168.596 159.249 169.209 157.844 169.209C155.84 169.209 154.165 167.55 154.165 165.501C154.165 163.482 155.825 161.793 157.844 161.793C159.862 161.793 161.552 163.437 161.552 165.456C161.552 165.636 161.507 165.845 161.447 166.009H154.838V164.948H160.67L160.311 165.471C160.311 164.05 159.175 162.959 157.844 162.959C156.453 162.959 155.391 164.095 155.391 165.501C155.391 166.892 156.483 168.043 157.948 168.043C158.965 168.043 159.877 167.594 160.356 166.951L161.238 167.699ZM168.268 169.209C167.026 169.209 165.785 168.91 164.828 168.447L165.501 167.445C166.159 167.923 167.206 168.103 168.297 168.103C169.853 168.103 170.6 167.699 170.6 167.056C170.6 166.533 170.137 166.219 168.806 166.024L167.625 165.875C166.01 165.65 165.008 165.187 165.008 163.946C165.008 162.585 166.354 161.793 168.327 161.793C169.464 161.793 170.66 162.032 171.572 162.54L171.004 163.437C170.107 163.079 169.165 162.899 168.148 162.899C166.877 162.899 166.204 163.288 166.204 163.826C166.204 164.379 166.712 164.574 167.864 164.738L169.015 164.888C170.959 165.142 171.826 165.905 171.826 166.981C171.826 168.372 170.361 169.209 168.268 169.209ZM171.572 162.54V164.036H170.376V162.75L171.572 162.54ZM164.828 168.447V166.951H166.025V168.222L164.828 168.447ZM178.736 169.209C177.495 169.209 176.254 168.91 175.297 168.447L175.97 167.445C176.628 167.923 177.675 168.103 178.766 168.103C180.321 168.103 181.069 167.699 181.069 167.056C181.069 166.533 180.605 166.219 179.275 166.024L178.093 165.875C176.478 165.65 175.477 165.187 175.477 163.946C175.477 162.585 176.822 161.793 178.796 161.793C179.933 161.793 181.129 162.032 182.041 162.54L181.473 163.437C180.576 163.079 179.634 162.899 178.617 162.899C177.346 162.899 176.673 163.288 176.673 163.826C176.673 164.379 177.181 164.574 178.333 164.738L179.484 164.888C181.428 165.142 182.295 165.905 182.295 166.981C182.295 168.372 180.83 169.209 178.736 169.209ZM182.041 162.54V164.036H180.845V162.75L182.041 162.54ZM175.297 168.447V166.951H176.493V168.222L175.297 168.447Z" fill="#363131"/>
<rect width="88" height="20" transform="translate(20 181)" fill="#D7C6FF"/>
<path d="M29.1533 194V192.849H32.5626L33.1607 194H29.1533ZM31.9495 194L32.5626 192.849H35.972V194H31.9495ZM29.1533 188.168V187.002H33.1607L32.5626 188.168H29.1533ZM31.9495 194V187.002H33.1607V194H31.9495ZM32.5925 185.342C31.9495 185.342 31.4112 184.834 31.4112 184.176C31.4112 183.518 31.9495 182.994 32.5925 182.994C33.2206 182.994 33.7589 183.518 33.7589 184.176C33.7589 184.834 33.2206 185.342 32.5925 185.342ZM39.0089 194V187.002H40.2052V188.587L40.2202 189.17V194H39.0089ZM45.5136 189.619C45.5136 188.422 45.1846 187.959 44.6463 187.959C44.0332 187.959 43.465 188.707 43.465 190.127H42.8071C42.8071 188.796 43.7491 186.793 45.0202 186.793C46.1117 186.793 46.7248 187.75 46.7248 189.619V194H45.5136V189.619ZM42.2688 189.619C42.2688 188.422 41.9398 187.959 41.4015 187.959C40.7884 187.959 40.2202 188.721 40.2202 190.157H39.5622C39.5622 188.826 40.5043 186.793 41.7753 186.793C42.8519 186.793 43.465 187.75 43.465 189.619V194H42.2688V189.619ZM53.7842 194.209C51.8254 194.209 50.3599 192.415 50.3599 190.501C50.3599 188.587 51.8254 186.793 53.7842 186.793C55.7282 186.793 57.3581 188.467 57.3581 190.501C57.3581 192.535 55.7282 194.209 53.7842 194.209ZM53.6646 193.043C55.0104 193.043 56.1319 191.877 56.1319 190.501C56.1319 189.14 55.0104 187.959 53.6646 187.959C52.3188 187.959 51.1973 189.125 51.1973 190.501C51.1973 191.892 52.3188 193.043 53.6646 193.043ZM50.0908 198.127V187.002H51.302V189.409L50.973 190.516L51.302 191.817V198.127H50.0908ZM48.73 188.168V187.002H51.302L50.9132 188.168H48.73ZM48.73 198.127V196.976H50.9132L51.302 198.127H48.73ZM50.0758 198.127L50.5693 196.976H53.3805V198.127H50.0758ZM63.0119 194.209C61.0679 194.209 59.438 192.535 59.438 190.501C59.438 188.467 61.0679 186.793 63.0119 186.793C64.9707 186.793 66.4362 188.587 66.4362 190.501C66.4362 192.415 64.9707 194.209 63.0119 194.209ZM63.1315 193.043C64.4773 193.043 65.5988 191.892 65.5988 190.501C65.5988 189.125 64.4773 187.959 63.1315 187.959C61.7857 187.959 60.6642 189.14 60.6642 190.501C60.6642 191.877 61.7857 193.043 63.1315 193.043ZM65.4941 194V191.518L65.8231 190.501L65.4941 189.409V187.002H66.7053V194H65.4941ZM65.4941 194L65.8829 192.849H68.0661V194H65.4941ZM70.6694 190.516C70.6694 188.437 72.3741 186.793 74.5124 186.793C75.7535 186.793 76.8002 187.151 77.7124 187.959L76.7554 188.721C76.0227 188.108 75.3797 187.959 74.5423 187.959C73.0918 187.959 71.8956 189.11 71.8956 190.531C71.8956 191.936 73.0021 193.043 74.4974 193.043C75.4694 193.043 76.4264 192.564 76.9049 191.892L77.7871 192.639C77.1143 193.566 75.7386 194.209 74.3928 194.209C72.3591 194.209 70.6694 192.564 70.6694 190.516ZM77.7124 187.959V190.052H76.4862V188.273L77.7124 187.959ZM85.3849 194.209C83.8746 194.209 82.798 193.088 82.798 191.607V184.55H84.0092V191.578C84.0092 192.445 84.5774 193.043 85.3849 193.043C86.1624 193.043 86.7606 192.445 86.7606 191.578V190.411H87.9568V191.578C87.9568 193.088 86.8652 194.209 85.3849 194.209ZM80.6297 188.168V187.002H84.0092L83.5008 188.168H80.6297ZM83.3811 188.168L82.798 187.002H86.626V188.168H83.3811ZM95.0611 194.209C94.4032 194.209 93.8648 193.701 93.8648 193.043C93.8648 192.385 94.4032 191.862 95.0611 191.862C95.6891 191.862 96.2125 192.385 96.2125 193.043C96.2125 193.701 95.6891 194.209 95.0611 194.209Z" fill="#363131"/>
<path d="M24.606 244.196C23.808 244.196 23.1127 244.007 22.52 243.629C21.932 243.246 21.4747 242.7 21.148 241.991C20.8213 241.282 20.658 240.43 20.658 239.436C20.658 238.409 20.826 237.548 21.162 236.853C21.5027 236.153 21.9693 235.626 22.562 235.271C23.1593 234.912 23.8407 234.732 24.606 234.732C25.6653 234.732 26.4913 234.989 27.084 235.502C27.6813 236.015 28.064 236.683 28.232 237.504L26.468 237.826C26.3233 237.35 26.0923 236.965 25.775 236.671C25.4577 236.377 25.068 236.23 24.606 236.23C24.2 236.23 23.8337 236.349 23.507 236.587C23.1803 236.82 22.919 237.175 22.723 237.651C22.5317 238.127 22.436 238.722 22.436 239.436C22.436 240.108 22.52 240.687 22.688 241.172C22.8607 241.657 23.108 242.031 23.43 242.292C23.752 242.553 24.144 242.684 24.606 242.684C25.1987 242.684 25.656 242.528 25.978 242.215C26.3047 241.898 26.468 241.494 26.468 241.004H28.232C28.232 241.681 28.085 242.257 27.791 242.733C27.5017 243.204 27.0863 243.566 26.545 243.818C26.0037 244.07 25.3573 244.196 24.606 244.196ZM34.781 244L34.571 242.348V239.618C34.571 239.142 34.473 238.79 34.277 238.561C34.0857 238.332 33.759 238.218 33.297 238.218C33.031 238.218 32.8 238.258 32.604 238.337C32.408 238.416 32.2564 238.531 32.149 238.68C32.0464 238.825 31.995 239.002 31.995 239.212H30.189C30.189 238.699 30.3127 238.281 30.56 237.959C30.8074 237.632 31.162 237.394 31.624 237.245C32.0907 237.091 32.6484 237.014 33.297 237.014C33.885 237.014 34.3984 237.11 34.837 237.301C35.2757 237.488 35.6164 237.777 35.859 238.169C36.1017 238.561 36.223 239.063 36.223 239.674V244H34.781ZM32.555 244.196C31.9717 244.196 31.484 244.096 31.092 243.895C30.7047 243.69 30.413 243.421 30.217 243.09C30.021 242.759 29.923 242.399 29.923 242.012C29.923 241.583 30.035 241.223 30.259 240.934C30.4877 240.64 30.8097 240.421 31.225 240.276C31.6404 240.127 32.1304 240.052 32.695 240.052C33.0637 240.052 33.4114 240.08 33.738 240.136C34.0694 240.192 34.3984 240.267 34.725 240.36V241.326C34.4684 241.242 34.1884 241.177 33.885 241.13C33.5817 241.083 33.297 241.06 33.031 241.06C32.639 241.06 32.317 241.132 32.065 241.277C31.813 241.422 31.687 241.667 31.687 242.012C31.687 242.264 31.7897 242.481 31.995 242.663C32.2004 242.845 32.527 242.936 32.975 242.936C33.3157 242.936 33.605 242.861 33.843 242.712C34.081 242.563 34.2607 242.376 34.382 242.152C34.508 241.928 34.571 241.704 34.571 241.48H34.963C34.963 241.97 34.872 242.423 34.69 242.838C34.508 243.249 34.2374 243.578 33.878 243.825C33.5234 244.072 33.0824 244.196 32.555 244.196ZM38.9245 244V237.182H40.5765V244H38.9245ZM40.1705 241.018C40.1705 240.127 40.2708 239.389 40.4715 238.806C40.6722 238.223 40.9405 237.791 41.2765 237.511C41.6172 237.226 41.9952 237.084 42.4105 237.084C42.5225 237.084 42.6275 237.091 42.7255 237.105C42.8282 237.119 42.9285 237.14 43.0265 237.168L42.9985 238.82C42.8772 238.792 42.7465 238.769 42.6065 238.75C42.4665 238.731 42.3405 238.722 42.2285 238.722C41.8645 238.722 41.5588 238.811 41.3115 238.988C41.0688 239.161 40.8845 239.417 40.7585 239.758C40.6372 240.099 40.5765 240.519 40.5765 241.018H40.1705ZM53.9266 244V240.024C53.9266 239.52 53.8053 239.14 53.5626 238.883C53.3199 238.626 53.0026 238.498 52.6106 238.498C52.1159 238.498 51.7263 238.699 51.4416 239.1C51.1569 239.501 51.0146 240.108 51.0146 240.92H50.3286C50.3286 240.206 50.3939 239.602 50.5246 239.107C50.6599 238.608 50.8489 238.206 51.0916 237.903C51.3389 237.595 51.6283 237.371 51.9596 237.231C52.2909 237.086 52.6573 237.014 53.0586 237.014C53.6139 237.014 54.0783 237.14 54.4516 237.392C54.8296 237.639 55.1143 237.989 55.3056 238.442C55.4969 238.895 55.5926 239.422 55.5926 240.024V244H53.9266ZM44.7006 244V237.21H46.1426L46.3246 238.372C46.5486 237.919 46.8449 237.581 47.2136 237.357C47.5823 237.128 48.0046 237.014 48.4806 237.014C49.0406 237.014 49.5073 237.14 49.8806 237.392C50.2586 237.639 50.5409 237.989 50.7276 238.442C50.9189 238.895 51.0146 239.422 51.0146 240.024V244H49.3626V240.024C49.3626 239.52 49.2413 239.14 48.9986 238.883C48.7559 238.626 48.4386 238.498 48.0466 238.498C47.7153 238.498 47.4213 238.589 47.1646 238.771C46.9126 238.953 46.7143 239.228 46.5696 239.597C46.4249 239.961 46.3526 240.416 46.3526 240.962V244H44.7006ZM60.8037 244.196C60.225 244.196 59.6953 244.047 59.2147 243.748C58.734 243.449 58.349 243.032 58.0597 242.495C57.7703 241.954 57.6257 241.321 57.6257 240.598C57.6257 239.851 57.768 239.21 58.0527 238.673C58.342 238.136 58.727 237.726 59.2077 237.441C59.6883 237.156 60.2203 237.014 60.8037 237.014C61.345 237.014 61.8117 237.124 62.2037 237.343C62.6003 237.558 62.9177 237.852 63.1557 238.225C63.3983 238.594 63.5617 239.011 63.6457 239.478C63.7297 239.945 63.7343 240.425 63.6597 240.92H58.9417V240.024H62.4907L62.1687 240.234C62.1827 240.015 62.171 239.793 62.1337 239.569C62.101 239.345 62.0357 239.14 61.9377 238.953C61.8397 238.766 61.6997 238.617 61.5177 238.505C61.3403 238.388 61.1117 238.33 60.8317 238.33C60.4957 238.33 60.211 238.414 59.9777 238.582C59.7443 238.75 59.567 238.979 59.4457 239.268C59.3243 239.557 59.2637 239.884 59.2637 240.248V240.906C59.2637 241.289 59.3197 241.627 59.4317 241.921C59.5483 242.215 59.7187 242.446 59.9427 242.614C60.1713 242.782 60.4583 242.866 60.8037 242.866C61.1257 242.866 61.3963 242.791 61.6157 242.642C61.835 242.493 61.975 242.269 62.0357 241.97H63.7017C63.6317 242.409 63.466 242.796 63.2047 243.132C62.948 243.463 62.6143 243.725 62.2037 243.916C61.793 244.103 61.3263 244.196 60.8037 244.196ZM70.6355 244V240.024C70.6355 239.52 70.5142 239.14 70.2715 238.883C70.0288 238.626 69.7115 238.498 69.3195 238.498C68.9882 238.498 68.6942 238.589 68.4375 238.771C68.1855 238.953 67.9872 239.228 67.8425 239.597C67.6978 239.961 67.6255 240.416 67.6255 240.962H67.0795C67.0795 240.08 67.1892 239.347 67.4085 238.764C67.6278 238.176 67.9382 237.737 68.3395 237.448C68.7408 237.159 69.2122 237.014 69.7535 237.014C70.3135 237.014 70.7802 237.14 71.1535 237.392C71.5315 237.639 71.8138 237.989 72.0005 238.442C72.1918 238.895 72.2875 239.422 72.2875 240.024V244H70.6355ZM65.9735 244V237.21H67.4155L67.6255 238.554V244H65.9735ZM78.7972 244V234.914H82.4652C83.1652 234.914 83.7462 235.024 84.2082 235.243C84.6702 235.458 85.0155 235.747 85.2442 236.111C85.4728 236.475 85.5872 236.879 85.5872 237.322C85.5872 237.835 85.4425 238.274 85.1532 238.638C84.8685 239.002 84.4672 239.259 83.9492 239.408C84.2898 239.478 84.5955 239.606 84.8662 239.793C85.1368 239.98 85.3492 240.215 85.5032 240.5C85.6618 240.785 85.7412 241.111 85.7412 241.48C85.7412 241.769 85.6898 242.061 85.5872 242.355C85.4892 242.649 85.3165 242.922 85.0692 243.174C84.8265 243.421 84.4928 243.622 84.0682 243.776C83.6482 243.925 83.1185 244 82.4792 244H78.7972ZM80.4492 242.558H82.4372C82.9645 242.558 83.3495 242.453 83.5922 242.243C83.8395 242.028 83.9632 241.741 83.9632 241.382C83.9632 241.023 83.8372 240.736 83.5852 240.521C83.3332 240.302 82.9505 240.192 82.4372 240.192H80.4492V242.558ZM80.4492 236.342V238.75H82.3952C82.8852 238.75 83.2562 238.643 83.5082 238.428C83.7648 238.209 83.8932 237.91 83.8932 237.532C83.8932 237.173 83.7672 236.886 83.5152 236.671C83.2678 236.452 82.8992 236.342 82.4092 236.342H80.4492ZM88.1553 244V237.182H89.8073V244H88.1553ZM89.4013 241.018C89.4013 240.127 89.5016 239.389 89.7023 238.806C89.9029 238.223 90.1713 237.791 90.5073 237.511C90.8479 237.226 91.2259 237.084 91.6413 237.084C91.7533 237.084 91.8583 237.091 91.9563 237.105C92.0589 237.119 92.1593 237.14 92.2573 237.168L92.2293 238.82C92.1079 238.792 91.9773 238.769 91.8373 238.75C91.6973 238.731 91.5713 238.722 91.4593 238.722C91.0953 238.722 90.7896 238.811 90.5423 238.988C90.2996 239.161 90.1153 239.417 89.9893 239.758C89.8679 240.099 89.8073 240.519 89.8073 241.018H89.4013ZM92.8954 237.21H94.7714L96.5774 242.558H96.2834L97.8374 237.21H99.5174L96.9134 245.232C96.6474 246.035 96.3184 246.616 95.9264 246.975C95.539 247.334 95.0654 247.514 94.5054 247.514C94.1834 247.514 93.8684 247.477 93.5604 247.402C93.257 247.332 92.9467 247.22 92.6294 247.066V245.61C92.886 245.769 93.1334 245.885 93.3714 245.96C93.614 246.035 93.8567 246.072 94.0994 246.072C94.3187 246.072 94.51 246.011 94.6734 245.89C94.8414 245.773 94.986 245.608 95.1074 245.393C95.2287 245.183 95.3314 244.938 95.4154 244.658L95.6254 244L92.8954 237.21ZM105.592 244L105.382 242.348V239.618C105.382 239.142 105.284 238.79 105.088 238.561C104.897 238.332 104.57 238.218 104.108 238.218C103.842 238.218 103.611 238.258 103.415 238.337C103.219 238.416 103.067 238.531 102.96 238.68C102.857 238.825 102.806 239.002 102.806 239.212H101C101 238.699 101.124 238.281 101.371 237.959C101.618 237.632 101.973 237.394 102.435 237.245C102.902 237.091 103.459 237.014 104.108 237.014C104.696 237.014 105.209 237.11 105.648 237.301C106.087 237.488 106.427 237.777 106.67 238.169C106.913 238.561 107.034 239.063 107.034 239.674V244H105.592ZM103.366 244.196C102.783 244.196 102.295 244.096 101.903 243.895C101.516 243.69 101.224 243.421 101.028 243.09C100.832 242.759 100.734 242.399 100.734 242.012C100.734 241.583 100.846 241.223 101.07 240.934C101.299 240.64 101.621 240.421 102.036 240.276C102.451 240.127 102.941 240.052 103.506 240.052C103.875 240.052 104.222 240.08 104.549 240.136C104.88 240.192 105.209 240.267 105.536 240.36V241.326C105.279 241.242 104.999 241.177 104.696 241.13C104.393 241.083 104.108 241.06 103.842 241.06C103.45 241.06 103.128 241.132 102.876 241.277C102.624 241.422 102.498 241.667 102.498 242.012C102.498 242.264 102.601 242.481 102.806 242.663C103.011 242.845 103.338 242.936 103.786 242.936C104.127 242.936 104.416 242.861 104.654 242.712C104.892 242.563 105.072 242.376 105.193 242.152C105.319 241.928 105.382 241.704 105.382 241.48H105.774C105.774 241.97 105.683 242.423 105.501 242.838C105.319 243.249 105.048 243.578 104.689 243.825C104.334 244.072 103.893 244.196 103.366 244.196ZM114.398 244V240.024C114.398 239.52 114.276 239.14 114.034 238.883C113.791 238.626 113.474 238.498 113.082 238.498C112.75 238.498 112.456 238.589 112.2 238.771C111.948 238.953 111.749 239.228 111.605 239.597C111.46 239.961 111.388 240.416 111.388 240.962H110.842C110.842 240.08 110.951 239.347 111.171 238.764C111.39 238.176 111.7 237.737 112.102 237.448C112.503 237.159 112.974 237.014 113.516 237.014C114.076 237.014 114.542 237.14 114.916 237.392C115.294 237.639 115.576 237.989 115.763 238.442C115.954 238.895 116.05 239.422 116.05 240.024V244H114.398ZM109.736 244V237.21H111.178L111.388 238.554V244H109.736ZM121.034 244.196C120.633 244.196 120.264 244.121 119.928 243.972C119.597 243.823 119.331 243.594 119.13 243.286C118.934 242.978 118.836 242.586 118.836 242.11V235.404H120.488V242.054C120.488 242.614 120.754 242.894 121.286 242.894C121.45 242.894 121.613 242.875 121.776 242.838C121.94 242.801 122.126 242.745 122.336 242.67L122.574 243.832C122.313 243.935 122.059 244.021 121.811 244.091C121.564 244.161 121.305 244.196 121.034 244.196ZM117.884 238.302V237.21H122.336V238.302H117.884Z" fill="#363131"/>
<path d="M21.47 253.355H22.282V257.275H26.832V253.355H27.623V262H26.832V257.961H22.282V262H21.47V253.355ZM33.0745 262.154C32.4958 262.154 31.9848 262.007 31.5415 261.713C31.1028 261.414 30.7575 261.006 30.5055 260.488C30.2535 259.965 30.1275 259.37 30.1275 258.703C30.1275 257.975 30.2511 257.35 30.4985 256.827C30.7505 256.304 31.0958 255.903 31.5345 255.623C31.9778 255.343 32.4911 255.203 33.0745 255.203C33.5645 255.203 33.9798 255.303 34.3205 255.504C34.6658 255.7 34.9435 255.968 35.1535 256.309C35.3635 256.65 35.5105 257.035 35.5945 257.464C35.6831 257.893 35.7181 258.337 35.6995 258.794H30.7925V258.234H35.2025L34.8805 258.444C34.8945 258.141 34.8758 257.84 34.8245 257.541C34.7778 257.238 34.6868 256.96 34.5515 256.708C34.4208 256.456 34.2365 256.253 33.9985 256.099C33.7605 255.945 33.4548 255.868 33.0815 255.868C32.6055 255.868 32.2088 255.992 31.8915 256.239C31.5741 256.482 31.3361 256.799 31.1775 257.191C31.0235 257.578 30.9465 257.994 30.9465 258.437V258.78C30.9465 259.289 31.0235 259.746 31.1775 260.152C31.3361 260.558 31.5718 260.88 31.8845 261.118C32.2018 261.356 32.5985 261.475 33.0745 261.475C33.5645 261.475 33.9635 261.356 34.2715 261.118C34.5841 260.875 34.7708 260.521 34.8315 260.054H35.6995C35.6295 260.497 35.4731 260.875 35.2305 261.188C34.9925 261.501 34.6891 261.741 34.3205 261.909C33.9518 262.072 33.5365 262.154 33.0745 262.154ZM42.2568 262L42.1518 260.621V257.681C42.1518 257.014 42.0072 256.54 41.7178 256.26C41.4285 255.98 41.0155 255.84 40.4788 255.84C40.1802 255.84 39.9025 255.884 39.6458 255.973C39.3892 256.057 39.1838 256.195 39.0298 256.386C38.8758 256.573 38.7988 256.82 38.7988 257.128H37.8748C37.8748 256.657 37.9915 256.281 38.2248 256.001C38.4582 255.716 38.7708 255.513 39.1628 255.392C39.5595 255.266 39.9982 255.203 40.4788 255.203C40.9548 255.203 41.3795 255.287 41.7528 255.455C42.1262 255.618 42.4202 255.884 42.6348 256.253C42.8542 256.617 42.9638 257.098 42.9638 257.695V262H42.2568ZM39.9468 262.154C39.4148 262.154 38.9762 262.058 38.6308 261.867C38.2855 261.671 38.0288 261.421 37.8608 261.118C37.6928 260.815 37.6088 260.502 37.6088 260.18C37.6088 259.713 37.7208 259.34 37.9448 259.06C38.1735 258.78 38.4768 258.577 38.8548 258.451C39.2375 258.325 39.6552 258.262 40.1078 258.262C40.4485 258.262 40.8008 258.302 41.1648 258.381C41.5335 258.456 41.8858 258.561 42.2218 258.696V259.242C41.9325 259.116 41.5988 259.016 41.2208 258.941C40.8428 258.866 40.4998 258.829 40.1918 258.829C39.7158 258.829 39.3098 258.932 38.9738 259.137C38.6378 259.342 38.4698 259.69 38.4698 260.18C38.4698 260.549 38.5935 260.861 38.8408 261.118C39.0928 261.375 39.4965 261.503 40.0518 261.503C40.4298 261.503 40.7775 261.412 41.0948 261.23C41.4122 261.048 41.6665 260.822 41.8578 260.551C42.0538 260.28 42.1518 260.007 42.1518 259.732H42.3548C42.3548 260.157 42.2545 260.553 42.0538 260.922C41.8578 261.291 41.5778 261.589 41.2138 261.818C40.8545 262.042 40.4322 262.154 39.9468 262.154ZM48.2867 262.154C47.7593 262.154 47.2717 262.012 46.8237 261.727C46.3803 261.438 46.0257 261.032 45.7597 260.509C45.4937 259.986 45.3607 259.368 45.3607 258.654C45.3607 257.94 45.4913 257.326 45.7527 256.813C46.0187 256.295 46.3687 255.898 46.8027 255.623C47.2413 255.343 47.7197 255.203 48.2377 255.203C48.7183 255.203 49.1453 255.322 49.5187 255.56C49.892 255.793 50.1837 256.129 50.3937 256.568C50.6037 257.002 50.7087 257.525 50.7087 258.136H50.3377C50.3377 257.646 50.242 257.238 50.0507 256.911C49.864 256.58 49.619 256.33 49.3157 256.162C49.0123 255.994 48.688 255.91 48.3427 255.91C47.9647 255.91 47.6123 256.02 47.2857 256.239C46.9637 256.458 46.7023 256.771 46.5017 257.177C46.3057 257.583 46.2077 258.075 46.2077 258.654C46.2077 259.237 46.3057 259.737 46.5017 260.152C46.6977 260.567 46.959 260.885 47.2857 261.104C47.6123 261.323 47.967 261.433 48.3497 261.433C48.6763 261.433 48.9913 261.349 49.2947 261.181C49.598 261.013 49.8477 260.766 50.0437 260.439C50.2397 260.108 50.3377 259.702 50.3377 259.221H50.7087C50.7087 259.837 50.6013 260.364 50.3867 260.803C50.1767 261.242 49.8873 261.578 49.5187 261.811C49.1547 262.04 48.744 262.154 48.2867 262.154ZM50.4567 262L50.3377 260.488V252.48H51.1427V262H50.4567ZM60.166 262.154C59.5733 262.154 59.0507 262.021 58.598 261.755C58.1453 261.489 57.7883 261.097 57.527 260.579C57.2703 260.061 57.142 259.426 57.142 258.675C57.142 257.924 57.2703 257.291 57.527 256.778C57.7883 256.26 58.1453 255.868 58.598 255.602C59.0507 255.336 59.5733 255.203 60.166 255.203C60.7587 255.203 61.2813 255.336 61.734 255.602C62.1867 255.868 62.5413 256.26 62.798 256.778C63.0547 257.291 63.183 257.924 63.183 258.675C63.183 259.426 63.0547 260.061 62.798 260.579C62.5413 261.097 62.1867 261.489 61.734 261.755C61.2813 262.021 60.7587 262.154 60.166 262.154ZM60.152 261.447C60.642 261.447 61.0503 261.333 61.377 261.104C61.7037 260.871 61.9463 260.546 62.105 260.131C62.2683 259.716 62.35 259.23 62.35 258.675C62.35 257.84 62.1703 257.168 61.811 256.659C61.4563 256.15 60.9127 255.896 60.18 255.896C59.69 255.896 59.2817 256.013 58.955 256.246C58.633 256.475 58.3903 256.799 58.227 257.219C58.0683 257.634 57.989 258.12 57.989 258.675C57.989 259.506 58.1663 260.175 58.521 260.684C58.8803 261.193 59.424 261.447 60.152 261.447ZM66.0059 262V254.216C66.0059 253.796 66.0852 253.451 66.2439 253.18C66.4025 252.909 66.6195 252.711 66.8949 252.585C67.1702 252.454 67.4805 252.389 67.8259 252.389C67.9985 252.389 68.1735 252.403 68.3509 252.431C68.5282 252.454 68.7055 252.496 68.8829 252.557L68.7289 253.222C68.5795 253.161 68.4325 253.117 68.2879 253.089C68.1432 253.056 68.0055 253.04 67.8749 253.04C67.7162 253.04 67.5552 253.07 67.3919 253.131C67.2285 253.192 67.0909 253.306 66.9789 253.474C66.8669 253.642 66.8109 253.892 66.8109 254.223V262H66.0059ZM64.8719 255.945V255.357H68.2669V255.945H64.8719ZM74.0498 253.355H75.2188L78.4738 259.69H78.3758L81.6308 253.355H82.7788V262H81.9528V254.104H82.1208L78.7048 260.838H78.1518L74.7498 254.153H74.8618V262H74.0498V253.355ZM90.045 262L89.94 260.621V257.681C89.94 257.014 89.7953 256.54 89.5059 256.26C89.2166 255.98 88.8036 255.84 88.2669 255.84C87.9683 255.84 87.6906 255.884 87.4339 255.973C87.1773 256.057 86.9719 256.195 86.8179 256.386C86.6639 256.573 86.5869 256.82 86.5869 257.128H85.6629C85.6629 256.657 85.7796 256.281 86.0129 256.001C86.2463 255.716 86.5589 255.513 86.9509 255.392C87.3476 255.266 87.7863 255.203 88.2669 255.203C88.7429 255.203 89.1676 255.287 89.5409 255.455C89.9143 255.618 90.2083 255.884 90.423 256.253C90.6423 256.617 90.752 257.098 90.752 257.695V262H90.045ZM87.7349 262.154C87.2029 262.154 86.7643 262.058 86.4189 261.867C86.0736 261.671 85.8169 261.421 85.6489 261.118C85.4809 260.815 85.3969 260.502 85.3969 260.18C85.3969 259.713 85.5089 259.34 85.7329 259.06C85.9616 258.78 86.2649 258.577 86.6429 258.451C87.0256 258.325 87.4433 258.262 87.8959 258.262C88.2366 258.262 88.5889 258.302 88.9529 258.381C89.3216 258.456 89.6739 258.561 90.01 258.696V259.242C89.7206 259.116 89.387 259.016 89.0089 258.941C88.6309 258.866 88.2879 258.829 87.9799 258.829C87.5039 258.829 87.0979 258.932 86.7619 259.137C86.4259 259.342 86.2579 259.69 86.2579 260.18C86.2579 260.549 86.3816 260.861 86.6289 261.118C86.8809 261.375 87.2846 261.503 87.84 261.503C88.2179 261.503 88.5656 261.412 88.8829 261.23C89.2003 261.048 89.4546 260.822 89.646 260.551C89.842 260.28 89.94 260.007 89.94 259.732H90.1429C90.1429 260.157 90.0426 260.553 89.842 260.922C89.646 261.291 89.366 261.589 89.002 261.818C88.6426 262.042 88.2203 262.154 87.7349 262.154ZM93.7368 262V255.35H94.5488V262H93.7368ZM94.2478 258.955C94.2478 258.124 94.3201 257.434 94.4648 256.883C94.6095 256.332 94.8335 255.919 95.1368 255.644C95.4401 255.369 95.8275 255.231 96.2988 255.231C96.4621 255.231 96.6115 255.243 96.7468 255.266C96.8868 255.289 97.0268 255.327 97.1668 255.378L97.0758 256.169C96.9405 256.118 96.7911 256.076 96.6278 256.043C96.4645 256.006 96.3221 255.987 96.2008 255.987C95.7855 255.987 95.4565 256.113 95.2138 256.365C94.9758 256.617 94.8055 256.967 94.7028 257.415C94.6001 257.858 94.5488 258.372 94.5488 258.955H94.2478ZM98.8566 262V252.48H99.6686V262H98.8566ZM99.5286 258.353L103.197 255.357H104.366L99.5286 259.242V258.353ZM103.505 262L100.257 257.821L101.132 257.716L104.513 262H103.505ZM109.053 262.154C108.474 262.154 107.963 262.007 107.52 261.713C107.081 261.414 106.736 261.006 106.484 260.488C106.232 259.965 106.106 259.37 106.106 258.703C106.106 257.975 106.23 257.35 106.477 256.827C106.729 256.304 107.074 255.903 107.513 255.623C107.956 255.343 108.47 255.203 109.053 255.203C109.543 255.203 109.958 255.303 110.299 255.504C110.644 255.7 110.922 255.968 111.132 256.309C111.342 256.65 111.489 257.035 111.573 257.464C111.662 257.893 111.697 258.337 111.678 258.794H106.771V258.234H111.181L110.859 258.444C110.873 258.141 110.854 257.84 110.803 257.541C110.756 257.238 110.665 256.96 110.53 256.708C110.399 256.456 110.215 256.253 109.977 256.099C109.739 255.945 109.433 255.868 109.06 255.868C108.584 255.868 108.187 255.992 107.87 256.239C107.553 256.482 107.315 256.799 107.156 257.191C107.002 257.578 106.925 257.994 106.925 258.437V258.78C106.925 259.289 107.002 259.746 107.156 260.152C107.315 260.558 107.55 260.88 107.863 261.118C108.18 261.356 108.577 261.475 109.053 261.475C109.543 261.475 109.942 261.356 110.25 261.118C110.563 260.875 110.749 260.521 110.81 260.054H111.678C111.608 260.497 111.452 260.875 111.209 261.188C110.971 261.501 110.668 261.741 110.299 261.909C109.93 262.072 109.515 262.154 109.053 262.154ZM116.121 262.154C115.776 262.154 115.468 262.086 115.197 261.951C114.931 261.816 114.721 261.615 114.567 261.349C114.418 261.083 114.343 260.754 114.343 260.362V253.467H115.134V260.348C115.134 261.104 115.484 261.482 116.184 261.482C116.39 261.482 116.586 261.459 116.772 261.412C116.959 261.365 117.169 261.3 117.402 261.216L117.514 261.811C117.286 261.914 117.057 261.995 116.828 262.056C116.6 262.121 116.364 262.154 116.121 262.154ZM113.202 255.945V255.357H117.381V255.945H113.202ZM120.03 253.607C119.858 253.607 119.718 253.553 119.61 253.446C119.503 253.339 119.449 253.203 119.449 253.04C119.449 252.881 119.503 252.755 119.61 252.662C119.718 252.564 119.858 252.515 120.03 252.515C120.212 252.515 120.355 252.564 120.457 252.662C120.56 252.755 120.611 252.881 120.611 253.04C120.611 253.203 120.56 253.339 120.457 253.446C120.355 253.553 120.212 253.607 120.03 253.607ZM119.624 262V255.35H120.436V262H119.624ZM128.643 262V258.087C128.643 257.382 128.473 256.843 128.132 256.47C127.796 256.097 127.332 255.91 126.739 255.91C126.305 255.91 125.929 256.029 125.612 256.267C125.299 256.505 125.059 256.839 124.891 257.268C124.728 257.697 124.646 258.199 124.646 258.773H124.289C124.289 258.045 124.387 257.415 124.583 256.883C124.784 256.346 125.078 255.933 125.465 255.644C125.857 255.35 126.342 255.203 126.921 255.203C127.434 255.203 127.878 255.317 128.251 255.546C128.629 255.775 128.921 256.106 129.126 256.54C129.331 256.969 129.434 257.485 129.434 258.087V262H128.643ZM123.834 262V255.357H124.52L124.646 256.995V262H123.834ZM134.667 265.409C134.027 265.409 133.467 265.316 132.987 265.129C132.506 264.947 132.13 264.7 131.86 264.387C131.594 264.074 131.461 263.727 131.461 263.344C131.461 262.807 131.657 262.399 132.049 262.119C132.445 261.844 132.961 261.706 133.596 261.706L133.904 262.049C133.376 262.049 132.968 262.163 132.679 262.392C132.389 262.621 132.245 262.931 132.245 263.323C132.245 263.71 132.445 264.044 132.847 264.324C133.253 264.604 133.859 264.744 134.667 264.744C135.273 264.744 135.805 264.658 136.263 264.485C136.725 264.317 137.084 264.093 137.341 263.813C137.602 263.538 137.733 263.239 137.733 262.917C137.733 262.684 137.644 262.481 137.467 262.308C137.294 262.135 137.028 262.049 136.669 262.049H133.904C133.451 262.049 133.073 261.984 132.77 261.853C132.466 261.722 132.235 261.55 132.077 261.335C131.923 261.12 131.846 260.892 131.846 260.649C131.846 260.369 131.923 260.136 132.077 259.949C132.235 259.758 132.438 259.613 132.686 259.515C132.933 259.417 133.192 259.368 133.463 259.368L133.568 259.704C133.423 259.704 133.276 259.739 133.127 259.809C132.977 259.874 132.849 259.975 132.742 260.11C132.639 260.241 132.588 260.409 132.588 260.614C132.588 260.843 132.681 261.036 132.868 261.195C133.054 261.354 133.4 261.433 133.904 261.433H136.669C137.257 261.433 137.716 261.566 138.048 261.832C138.384 262.098 138.552 262.45 138.552 262.889C138.552 263.3 138.398 263.699 138.09 264.086C137.782 264.473 137.338 264.791 136.76 265.038C136.181 265.285 135.483 265.409 134.667 265.409ZM134.919 260.11C134.415 260.11 133.964 260.007 133.568 259.802C133.176 259.592 132.865 259.303 132.637 258.934C132.408 258.561 132.294 258.134 132.294 257.653C132.294 257.168 132.408 256.741 132.637 256.372C132.865 256.003 133.176 255.716 133.568 255.511C133.964 255.306 134.415 255.203 134.919 255.203C135.409 255.203 135.847 255.306 136.235 255.511C136.627 255.716 136.937 256.003 137.166 256.372C137.394 256.741 137.509 257.168 137.509 257.653C137.509 258.134 137.394 258.561 137.166 258.934C136.937 259.303 136.627 259.592 136.235 259.802C135.847 260.007 135.409 260.11 134.919 260.11ZM134.912 259.508C135.467 259.508 135.903 259.333 136.221 258.983C136.543 258.628 136.704 258.185 136.704 257.653C136.704 257.116 136.543 256.678 136.221 256.337C135.903 255.996 135.469 255.826 134.919 255.826C134.363 255.826 133.922 255.996 133.596 256.337C133.274 256.678 133.113 257.116 133.113 257.653C133.113 258.185 133.274 258.628 133.596 258.983C133.922 259.333 134.361 259.508 134.912 259.508ZM137.012 256.253L136.613 256.155C136.613 255.768 136.68 255.429 136.816 255.14C136.956 254.846 137.159 254.617 137.425 254.454C137.695 254.291 138.029 254.209 138.426 254.209L138.342 255.035C137.912 255.035 137.583 255.135 137.355 255.336C137.126 255.532 137.012 255.838 137.012 256.253Z" fill="#363131"/>
</svg>
