<svg width="120" height="20" viewBox="0 0 120 20" fill="none" xmlns="http://www.w3.org/2000/svg">
<rect width="119" height="20" transform="translate(0.289062)" fill="#D7C6FF"/>
<path d="M13.1358 13.2093C11.1769 13.2093 9.71149 11.415 9.71149 9.50093C9.71149 7.58692 11.1769 5.79252 13.1358 5.79252C15.0797 5.79252 16.7096 7.46729 16.7096 9.50093C16.7096 11.5346 15.0797 13.2093 13.1358 13.2093ZM13.0162 12.043C14.362 12.043 15.4835 10.8766 15.4835 9.50093C15.4835 8.14019 14.362 6.95888 13.0162 6.95888C11.6704 6.95888 10.5489 8.12523 10.5489 9.50093C10.5489 10.8916 11.6704 12.043 13.0162 12.043ZM9.44233 17.1271V6.00187H10.6535V8.40935L10.3246 9.51589L10.6535 10.8168V17.1271H9.44233ZM8.08159 7.16822V6.00187H10.6535L10.2648 7.16822H8.08159ZM8.08159 17.1271V15.9757H10.2648L10.6535 17.1271H8.08159ZM9.42738 17.1271L9.92084 15.9757H12.7321V17.1271H9.42738ZM22.3036 9.26168C22.3036 7.31776 23.3952 5.79252 25.07 5.79252C25.698 5.79252 26.3559 5.97196 26.8644 6.49533V7.7215C26.341 7.16822 25.6681 6.95888 25.07 6.95888C23.9186 6.95888 22.9616 8.00561 22.9616 9.26168H22.3036ZM21.7503 13V6.00187H22.9167V7.46729L22.9616 8.25981V13H21.7503ZM19.8363 7.16822V6.00187H22.9167L22.4531 7.16822H19.8363ZM19.8363 13V11.8486H22.483L22.9616 13H19.8363ZM21.7503 13L22.2887 11.8486H25.2943V13H21.7503ZM30.3798 13V11.8486H33.7892L34.3873 13H30.3798ZM33.1761 13L33.7892 11.8486H37.1985V13H33.1761ZM30.3798 7.16822V6.00187H34.3873L33.7892 7.16822H30.3798ZM33.1761 13V6.00187H34.3873V13H33.1761ZM33.8191 4.34206C33.1761 4.34206 32.6378 3.83364 32.6378 3.1757C32.6378 2.51776 33.1761 1.99439 33.8191 1.99439C34.4471 1.99439 34.9854 2.51776 34.9854 3.1757C34.9854 3.83364 34.4471 4.34206 33.8191 4.34206ZM40.4897 9.51589C40.4897 7.43738 42.1944 5.79252 44.3327 5.79252C45.5738 5.79252 46.6205 6.1514 47.5327 6.95888L46.5757 7.7215C45.843 7.10841 45.2 6.95888 44.3626 6.95888C42.9121 6.95888 41.7159 8.11028 41.7159 9.53084C41.7159 10.9364 42.8224 12.043 44.3177 12.043C45.2897 12.043 46.2467 11.5645 46.7252 10.8916L47.6075 11.6393C46.9346 12.5664 45.5589 13.2093 44.2131 13.2093C42.1794 13.2093 40.4897 11.5645 40.4897 9.51589ZM47.5327 6.95888V9.05234H46.3065V7.2729L47.5327 6.95888ZM57.7771 11.6991C57.0893 12.5963 55.7884 13.2093 54.3828 13.2093C52.379 13.2093 50.7042 11.5495 50.7042 9.50093C50.7042 7.48224 52.3641 5.79252 54.3828 5.79252C56.4014 5.79252 58.0912 7.43738 58.0912 9.45607C58.0912 9.63551 58.0463 9.84486 57.9865 10.0093H51.3771V8.94766H57.2089L56.85 9.47103C56.85 8.05047 55.7136 6.95888 54.3828 6.95888C52.9921 6.95888 51.9304 8.09533 51.9304 9.50093C51.9304 10.8916 53.022 12.043 54.4874 12.043C55.5042 12.043 56.4164 11.5944 56.8949 10.9514L57.7771 11.6991ZM64.5674 13V2.0542H65.7786V13H64.5674ZM61.7562 13V11.8486H65.1655L65.7786 13H61.7562ZM64.5674 13L65.1655 11.8486H68.5749V13H64.5674ZM61.7711 3.22056V2.0542H65.7786L65.1655 3.22056H61.7711ZM78.7146 11.6991C78.0268 12.5963 76.7259 13.2093 75.3203 13.2093C73.3165 13.2093 71.6417 11.5495 71.6417 9.50093C71.6417 7.48224 73.3016 5.79252 75.3203 5.79252C77.3389 5.79252 79.0287 7.43738 79.0287 9.45607C79.0287 9.63551 78.9838 9.84486 78.924 10.0093H72.3146V8.94766H78.1464L77.7875 9.47103C77.7875 8.05047 76.6511 6.95888 75.3203 6.95888C73.9296 6.95888 72.8679 8.09533 72.8679 9.50093C72.8679 10.8916 73.9595 12.043 75.4249 12.043C76.4417 12.043 77.3539 11.5944 77.8324 10.9514L78.7146 11.6991ZM85.7441 13.2093C84.503 13.2093 83.2619 12.9103 82.3049 12.4467L82.9778 11.4449C83.6357 11.9234 84.6825 12.1028 85.7741 12.1028C87.3292 12.1028 88.0769 11.6991 88.0769 11.0561C88.0769 10.5327 87.6133 10.2187 86.2825 10.0243L85.1012 9.87477C83.4862 9.65047 82.4843 9.18692 82.4843 7.94579C82.4843 6.58505 83.8301 5.79252 85.804 5.79252C86.9404 5.79252 88.1367 6.03178 89.0488 6.54019L88.4806 7.43738C87.5834 7.0785 86.6413 6.89907 85.6245 6.89907C84.3535 6.89907 83.6806 7.28785 83.6806 7.82617C83.6806 8.37944 84.189 8.57383 85.3404 8.73832L86.4918 8.88785C88.4357 9.14206 89.303 9.90467 89.303 10.9813C89.303 12.372 87.8376 13.2093 85.7441 13.2093ZM89.0488 6.54019V8.03551H87.8526V6.74953L89.0488 6.54019ZM82.3049 12.4467V10.9514H83.5012V12.2224L82.3049 12.4467ZM96.2129 13.2093C94.9718 13.2093 93.7307 12.9103 92.7736 12.4467L93.4465 11.4449C94.1045 11.9234 95.1512 12.1028 96.2428 12.1028C97.7979 12.1028 98.5456 11.6991 98.5456 11.0561C98.5456 10.5327 98.0821 10.2187 96.7512 10.0243L95.5699 9.87477C93.955 9.65047 92.9531 9.18692 92.9531 7.94579C92.9531 6.58505 94.2989 5.79252 96.2727 5.79252C97.4092 5.79252 98.6054 6.03178 99.5176 6.54019L98.9493 7.43738C98.0521 7.0785 97.1101 6.89907 96.0933 6.89907C94.8222 6.89907 94.1493 7.28785 94.1493 7.82617C94.1493 8.37944 94.6578 8.57383 95.8092 8.73832L96.9606 8.88785C98.9045 9.14206 99.7718 9.90467 99.7718 10.9813C99.7718 12.372 98.3064 13.2093 96.2129 13.2093ZM99.5176 6.54019V8.03551H98.3213V6.74953L99.5176 6.54019ZM92.7736 12.4467V10.9514H93.9699V12.2224L92.7736 12.4467ZM106.756 13.2093C106.098 13.2093 105.56 12.7009 105.56 12.043C105.56 11.385 106.098 10.8617 106.756 10.8617C107.384 10.8617 107.908 11.385 107.908 12.043C107.908 12.7009 107.384 13.2093 106.756 13.2093Z" fill="#363131"/>
</svg>
