<svg width="235" height="195" viewBox="0 0 235 195" fill="none" xmlns="http://www.w3.org/2000/svg">
<rect width="213" height="20" transform="translate(0.716797)" fill="#D7C6FF"/>
<path d="M9.51119 9.51589C9.51119 7.43738 11.2159 5.79252 13.3542 5.79252C14.5953 5.79252 15.642 6.1514 16.5542 6.95888L15.5972 7.7215C14.8645 7.10841 14.2215 6.95888 13.3841 6.95888C11.9336 6.95888 10.7374 8.11028 10.7374 9.53084C10.7374 10.9364 11.8439 12.043 13.3392 12.043C14.3112 12.043 15.2682 11.5645 15.7467 10.8916L16.6289 11.6393C15.956 12.5664 14.5803 13.2093 13.2346 13.2093C11.2009 13.2093 9.51119 11.5645 9.51119 9.51589ZM16.5542 6.95888V9.05234H15.328V7.2729L16.5542 6.95888ZM22.7313 9.26168C22.7313 7.31776 23.8229 5.79252 25.4977 5.79252C26.1257 5.79252 26.7837 5.97196 27.2921 6.49533V7.7215C26.7687 7.16822 26.0958 6.95888 25.4977 6.95888C24.3463 6.95888 23.3893 8.00561 23.3893 9.26168H22.7313ZM22.1781 13V6.00187H23.3444V7.46729L23.3893 8.25981V13H22.1781ZM20.2641 7.16822V6.00187H23.3444L22.8809 7.16822H20.2641ZM20.2641 13V11.8486H22.9108L23.3893 13H20.2641ZM22.1781 13L22.7164 11.8486H25.722V13H22.1781ZM35.6225 13V11.1607V10.5776V6.00187H36.8337V13H35.6225ZM30.673 9.82991V6.00187H31.8693V9.82991C31.8693 11.2953 32.7216 12.043 33.7534 12.043C34.7702 12.043 35.6225 11.2654 35.6225 9.82991H36.2805C36.2805 11.3701 35.3384 13.1794 33.5141 13.1794C31.9141 13.1794 30.673 11.9533 30.673 9.82991ZM34.2468 7.16822V6.00187H36.8337L36.43 7.16822H34.2468ZM29.2973 7.16822V6.00187H31.8693L31.4805 7.16822H29.2973ZM35.6225 13L36.0113 11.8486H38.1945V13H35.6225ZM40.9174 9.51589C40.9174 7.43738 42.6221 5.79252 44.7604 5.79252C46.0016 5.79252 47.0483 6.1514 47.9604 6.95888L47.0034 7.7215C46.2707 7.10841 45.6277 6.95888 44.7903 6.95888C43.3399 6.95888 42.1436 8.11028 42.1436 9.53084C42.1436 10.9364 43.2501 12.043 44.7455 12.043C45.7174 12.043 46.6744 11.5645 47.153 10.8916L48.0352 11.6393C47.3623 12.5664 45.9866 13.2093 44.6408 13.2093C42.6072 13.2093 40.9174 11.5645 40.9174 9.51589ZM47.9604 6.95888V9.05234H46.7343V7.2729L47.9604 6.95888ZM51.7451 13V11.8486H55.1544L55.7525 13H51.7451ZM54.5413 13L55.1544 11.8486H58.5638V13H54.5413ZM51.7451 7.16822V6.00187H55.7525L55.1544 7.16822H51.7451ZM54.5413 13V6.00187H55.7525V13H54.5413ZM55.1843 4.34206C54.5413 4.34206 54.003 3.83364 54.003 3.1757C54.003 2.51776 54.5413 1.99439 55.1843 1.99439C55.8124 1.99439 56.3507 2.51776 56.3507 3.1757C56.3507 3.83364 55.8124 4.34206 55.1843 4.34206ZM64.6662 13.2093C62.7222 13.2093 61.0923 11.5346 61.0923 9.50093C61.0923 7.46729 62.7222 5.79252 64.6662 5.79252C66.625 5.79252 68.0905 7.58692 68.0905 9.50093C68.0905 11.415 66.625 13.2093 64.6662 13.2093ZM64.7858 12.043C66.1316 12.043 67.2531 10.8916 67.2531 9.50093C67.2531 8.12523 66.1316 6.95888 64.7858 6.95888C63.44 6.95888 62.3185 8.14019 62.3185 9.50093C62.3185 10.8766 63.44 12.043 64.7858 12.043ZM67.1484 13V10.5178L67.4774 9.50093L67.1484 8.40935V6.00187H68.3596V13H67.1484ZM67.1484 13L67.5372 11.8486H69.7204V13H67.1484ZM75.4639 13V2.0542H76.6751V13H75.4639ZM72.6527 13V11.8486H76.062L76.6751 13H72.6527ZM75.4639 13L76.062 11.8486H79.4714V13H75.4639ZM72.6676 3.22056V2.0542H76.6751L76.062 3.22056H72.6676ZM93.6201 13V11.8486H97.0294L97.6275 13H93.6201ZM96.4163 13L97.0294 11.8486H100.439V13H96.4163ZM93.6201 7.16822V6.00187H97.6275L97.0294 7.16822H93.6201ZM96.4163 13V6.00187H97.6275V13H96.4163ZM97.0593 4.34206C96.4163 4.34206 95.878 3.83364 95.878 3.1757C95.878 2.51776 96.4163 1.99439 97.0593 1.99439C97.6874 1.99439 98.2257 2.51776 98.2257 3.1757C98.2257 3.83364 97.6874 4.34206 97.0593 4.34206ZM104.343 13V6.00187H105.509V7.87103L105.554 8.66355V13H104.343ZM104.896 9.15701C104.896 7.60187 105.838 5.79252 107.663 5.79252C109.293 5.79252 110.504 7.03364 110.504 9.14206V13H109.308V9.15701C109.308 7.73645 108.5 6.95888 107.423 6.95888C106.407 6.95888 105.554 7.7215 105.554 9.15701H104.896ZM102.982 7.16822V6.00187H105.509L105.136 7.16822H102.982ZM102.982 13V11.8486H105.165L105.554 13H102.982ZM104.343 13L104.717 11.8486H106.81V13H104.343ZM108.051 13V11.8486H110.145L110.504 13H108.051ZM109.308 13L109.696 11.8486H111.879V13H109.308ZM127.479 13.2093C125.535 13.2093 123.905 11.5346 123.905 9.50093C123.905 7.46729 125.535 5.79252 127.479 5.79252C129.438 5.79252 130.903 7.58692 130.903 9.50093C130.903 11.415 129.438 13.2093 127.479 13.2093ZM127.598 12.043C128.944 12.043 130.066 10.8916 130.066 9.50093C130.066 8.12523 128.944 6.95888 127.598 6.95888C126.252 6.95888 125.131 8.14019 125.131 9.50093C125.131 10.8766 126.252 12.043 127.598 12.043ZM129.961 13V10.5178L130.29 9.50093L129.961 8.40935V6.00187H131.172V13H129.961ZM129.961 13L130.35 11.8486H132.533V13H129.961ZM138.276 13V2.0542H139.488V13H138.276ZM135.465 13V11.8486H138.875L139.488 13H135.465ZM138.276 13L138.875 11.8486H142.284V13H138.276ZM135.48 3.22056V2.0542H139.488L138.875 3.22056H135.48ZM145.964 13V11.8486H149.373L149.971 13H145.964ZM148.76 13L149.373 11.8486H152.783V13H148.76ZM145.964 7.16822V6.00187H149.971L149.373 7.16822H145.964ZM148.76 13V6.00187H149.971V13H148.76ZM149.403 4.34206C148.76 4.34206 148.222 3.83364 148.222 3.1757C148.222 2.51776 148.76 1.99439 149.403 1.99439C150.031 1.99439 150.569 2.51776 150.569 3.1757C150.569 3.83364 150.031 4.34206 149.403 4.34206ZM157.988 17.1271C156.627 17.1271 155.491 16.1701 155.491 15.0187C155.491 13.9121 156.477 13 157.674 13L157.778 12.7607H161.591C162.818 12.7607 163.849 13.7477 163.849 14.914C163.849 16.1252 162.728 17.1271 161.412 17.1271H157.988ZM159.348 11.3103C157.464 11.3103 156.119 10.2037 156.119 8.6486C156.119 7.10841 157.464 6.00187 159.348 6.00187C161.113 6.00187 162.548 7.24299 162.548 8.75327C162.548 10.2486 161.203 11.3103 159.348 11.3103ZM159.348 10.2636C160.53 10.2636 161.382 9.59065 161.382 8.6486C161.382 7.7215 160.53 7.0486 159.348 7.0486C158.152 7.0486 157.285 7.7215 157.285 8.6486C157.285 9.59065 158.152 10.2636 159.348 10.2636ZM157.883 13.5383C156.851 13.5383 155.864 13.0299 155.864 11.8935C155.864 10.9664 156.522 10.3383 157.434 10.0841L157.808 10.7869C157.33 10.8916 156.986 11.3103 156.986 11.8336C156.986 12.372 157.405 12.7607 158.077 12.7607L157.883 13.5383ZM161.307 16.0804C162.07 16.0804 162.653 15.5869 162.653 14.9589C162.653 14.3308 162.1 13.8224 161.412 13.8224H157.883C157.21 13.8224 156.672 14.3308 156.672 14.9589C156.672 15.5869 157.255 16.0804 158.003 16.0804H161.307ZM160.051 7.0486L159.348 6.00187H164.104V7.0486H160.051ZM167.156 13V6.00187H168.322V7.87103L168.367 8.66355V13H167.156ZM167.709 9.15701C167.709 7.60187 168.651 5.79252 170.475 5.79252C172.105 5.79252 173.316 7.03364 173.316 9.14206V13H172.12V9.15701C172.12 7.73645 171.313 6.95888 170.236 6.95888C169.219 6.95888 168.367 7.7215 168.367 9.15701H167.709ZM165.795 7.16822V6.00187H168.322L167.948 7.16822H165.795ZM165.795 13V11.8486H167.978L168.367 13H165.795ZM167.156 13L167.529 11.8486H169.623V13H167.156ZM170.864 13V11.8486H172.957L173.316 13H170.864ZM172.12 13L172.509 11.8486H174.692V13H172.12ZM177.37 13V11.8486H180.779L181.378 13H177.37ZM180.166 13L180.779 11.8486H184.189V13H180.166ZM177.37 7.16822V6.00187H181.378L180.779 7.16822H177.37ZM180.166 13V6.00187H181.378V13H180.166ZM180.809 4.34206C180.166 4.34206 179.628 3.83364 179.628 3.1757C179.628 2.51776 180.166 1.99439 180.809 1.99439C181.437 1.99439 181.976 2.51776 181.976 3.1757C181.976 3.83364 181.437 4.34206 180.809 4.34206ZM188.093 13V6.00187H189.259V7.87103L189.304 8.66355V13H188.093ZM188.646 9.15701C188.646 7.60187 189.588 5.79252 191.413 5.79252C193.043 5.79252 194.254 7.03364 194.254 9.14206V13H193.058V9.15701C193.058 7.73645 192.25 6.95888 191.173 6.95888C190.157 6.95888 189.304 7.7215 189.304 9.15701H188.646ZM186.732 7.16822V6.00187H189.259L188.886 7.16822H186.732ZM186.732 13V11.8486H188.915L189.304 13H186.732ZM188.093 13L188.467 11.8486H190.56V13H188.093ZM191.801 13V11.8486H193.895L194.254 13H191.801ZM193.058 13L193.446 11.8486H195.629V13H193.058ZM199.863 17.1271C198.502 17.1271 197.366 16.1701 197.366 15.0187C197.366 13.9121 198.352 13 199.549 13L199.653 12.7607H203.466C204.693 12.7607 205.724 13.7477 205.724 14.914C205.724 16.1252 204.603 17.1271 203.287 17.1271H199.863ZM201.223 11.3103C199.339 11.3103 197.994 10.2037 197.994 8.6486C197.994 7.10841 199.339 6.00187 201.223 6.00187C202.988 6.00187 204.423 7.24299 204.423 8.75327C204.423 10.2486 203.078 11.3103 201.223 11.3103ZM201.223 10.2636C202.405 10.2636 203.257 9.59065 203.257 8.6486C203.257 7.7215 202.405 7.0486 201.223 7.0486C200.027 7.0486 199.16 7.7215 199.16 8.6486C199.16 9.59065 200.027 10.2636 201.223 10.2636ZM199.758 13.5383C198.726 13.5383 197.739 13.0299 197.739 11.8935C197.739 10.9664 198.397 10.3383 199.309 10.0841L199.683 10.7869C199.205 10.8916 198.861 11.3103 198.861 11.8336C198.861 12.372 199.28 12.7607 199.952 12.7607L199.758 13.5383ZM203.182 16.0804C203.945 16.0804 204.528 15.5869 204.528 14.9589C204.528 14.3308 203.975 13.8224 203.287 13.8224H199.758C199.085 13.8224 198.547 14.3308 198.547 14.9589C198.547 15.5869 199.13 16.0804 199.878 16.0804H203.182ZM201.926 7.0486L201.223 6.00187H205.979V7.0486H201.926Z" fill="#363131"/>
<rect width="151" height="20" transform="translate(0.716797 25)" fill="#D7C6FF"/>
<path d="M12.9504 38.2093C10.842 38.2093 9.28689 36.5047 9.28689 34.5009C9.28689 32.4972 10.9168 30.7925 12.9504 30.7925C14.9691 30.7925 16.599 32.4972 16.599 34.5009C16.599 36.5047 15.0439 38.2093 12.9504 38.2093ZM12.9504 37.043C14.3112 37.043 15.3729 35.9065 15.3729 34.5009C15.3729 33.0953 14.3112 31.9589 12.9504 31.9589C11.5747 31.9589 10.5131 33.0953 10.5131 34.5009C10.5131 35.9065 11.5747 37.043 12.9504 37.043ZM25.1538 38V36.1607V35.5776V31.0019H26.365V38H25.1538ZM20.2042 34.8299V31.0019H21.4005V34.8299C21.4005 36.2953 22.2528 37.043 23.2846 37.043C24.3014 37.043 25.1538 36.2654 25.1538 34.8299H25.8117C25.8117 36.3701 24.8697 38.1794 23.0454 38.1794C21.4454 38.1794 20.2042 36.9533 20.2042 34.8299ZM23.7781 32.1682V31.0019H26.365L25.9612 32.1682H23.7781ZM18.8285 32.1682V31.0019H21.4005L21.0117 32.1682H18.8285ZM25.1538 38L25.5426 36.8486H27.7257V38H25.1538ZM33.2001 34.2617C33.2001 32.3178 34.2917 30.7925 35.9664 30.7925C36.5945 30.7925 37.2524 30.972 37.7608 31.4953V32.7215C37.2375 32.1682 36.5646 31.9589 35.9664 31.9589C34.815 31.9589 33.858 33.0056 33.858 34.2617H33.2001ZM32.6468 38V31.0019H33.8132V32.4673L33.858 33.2598V38H32.6468ZM30.7328 32.1682V31.0019H33.8132L33.3496 32.1682H30.7328ZM30.7328 38V36.8486H33.3795L33.858 38H30.7328ZM32.6468 38L33.1851 36.8486H36.1907V38H32.6468ZM55.6329 38.2093C54.1226 38.2093 53.046 37.0879 53.046 35.6075V28.5495H54.2572V35.5776C54.2572 36.4449 54.8254 37.043 55.6329 37.043C56.4105 37.043 57.0086 36.4449 57.0086 35.5776V34.4112H58.2049V35.5776C58.2049 37.0879 57.1133 38.2093 55.6329 38.2093ZM50.8778 32.1682V31.0019H54.2572L53.7488 32.1682H50.8778ZM53.6292 32.1682L53.046 31.0019H56.874V32.1682H53.6292ZM68.6736 36.6991C67.9858 37.5963 66.6848 38.2093 65.2792 38.2093C63.2755 38.2093 61.6007 36.5495 61.6007 34.5009C61.6007 32.4822 63.2605 30.7925 65.2792 30.7925C67.2979 30.7925 68.9876 32.4374 68.9876 34.4561C68.9876 34.6355 68.9428 34.8449 68.883 35.0093H62.2736V33.9477H68.1054L67.7465 34.471C67.7465 33.0505 66.6101 31.9589 65.2792 31.9589C63.8886 31.9589 62.8269 33.0953 62.8269 34.5009C62.8269 35.8916 63.9185 37.043 65.3839 37.043C66.4007 37.043 67.3129 36.5944 67.7914 35.9514L68.6736 36.6991ZM75.1349 38.2093C73.191 38.2093 71.5611 36.5346 71.5611 34.5009C71.5611 32.4673 73.191 30.7925 75.1349 30.7925C77.0938 30.7925 78.5592 32.5869 78.5592 34.5009C78.5592 36.415 77.0938 38.2093 75.1349 38.2093ZM75.2545 37.043C76.6003 37.043 77.7218 35.8916 77.7218 34.5009C77.7218 33.1252 76.6003 31.9589 75.2545 31.9589C73.9087 31.9589 72.7872 33.1402 72.7872 34.5009C72.7872 35.8766 73.9087 37.043 75.2545 37.043ZM77.6171 38V35.5178L77.9461 34.5009L77.6171 33.4093V31.0019H78.8284V38H77.6171ZM77.6171 38L78.0059 36.8486H80.1891V38H77.6171ZM82.5382 38V31.0019H83.7345V32.5869L83.7494 33.1701V38H82.5382ZM89.0429 33.6187C89.0429 32.4224 88.7139 31.9589 88.1756 31.9589C87.5625 31.9589 86.9943 32.7065 86.9943 34.1271H86.3364C86.3364 32.7963 87.2784 30.7925 88.5494 30.7925C89.641 30.7925 90.2541 31.7495 90.2541 33.6187V38H89.0429V33.6187ZM85.798 33.6187C85.798 32.4224 85.4691 31.9589 84.9308 31.9589C84.3177 31.9589 83.7494 32.7215 83.7494 34.157H83.0915C83.0915 32.8262 84.0336 30.7925 85.3046 30.7925C86.3812 30.7925 86.9943 31.7495 86.9943 33.6187V38H85.798V33.6187ZM107.169 38.2093C105.061 38.2093 103.506 36.5047 103.506 34.5009C103.506 32.4972 105.136 30.7925 107.169 30.7925C109.188 30.7925 110.818 32.4972 110.818 34.5009C110.818 36.5047 109.263 38.2093 107.169 38.2093ZM107.169 37.043C108.53 37.043 109.592 35.9065 109.592 34.5009C109.592 33.0953 108.53 31.9589 107.169 31.9589C105.793 31.9589 104.732 33.0953 104.732 34.5009C104.732 35.9065 105.793 37.043 107.169 37.043ZM114.812 38V31.0019H115.978V32.871L116.023 33.6636V38H114.812ZM115.365 34.157C115.365 32.6019 116.307 30.7925 118.131 30.7925C119.761 30.7925 120.973 32.0336 120.973 34.1421V38H119.776V34.157C119.776 32.7364 118.969 31.9589 117.892 31.9589C116.875 31.9589 116.023 32.7215 116.023 34.157H115.365ZM113.451 32.1682V31.0019H115.978L115.604 32.1682H113.451ZM113.451 38V36.8486H115.634L116.023 38H113.451ZM114.812 38L115.186 36.8486H117.279V38H114.812ZM118.52 38V36.8486H120.614L120.973 38H118.52ZM119.776 38L120.165 36.8486H122.348V38H119.776ZM137.947 38.2093C136.003 38.2093 134.374 36.5346 134.374 34.5009C134.374 32.4673 136.003 30.7925 137.947 30.7925C139.906 30.7925 141.372 32.5869 141.372 34.5009C141.372 36.415 139.906 38.2093 137.947 38.2093ZM138.067 37.043C139.413 37.043 140.534 35.8916 140.534 34.5009C140.534 33.1252 139.413 31.9589 138.067 31.9589C136.721 31.9589 135.6 33.1402 135.6 34.5009C135.6 35.8766 136.721 37.043 138.067 37.043ZM140.43 38V35.5178L140.759 34.5009L140.43 33.4093V31.0019H141.641V38H140.43ZM140.43 38L140.818 36.8486H143.002V38H140.43Z" fill="#363131"/>
<rect width="151" height="20" transform="translate(0.716797 50)" fill="#D7C6FF"/>
<path d="M14.685 63V61.1607V60.5776V56.0019H15.8962V63H14.685ZM9.73549 59.8299V56.0019H10.9318V59.8299C10.9318 61.2953 11.7841 62.043 12.8159 62.043C13.8327 62.043 14.685 61.2654 14.685 59.8299H15.343C15.343 61.3701 14.4009 63.1794 12.5766 63.1794C10.9766 63.1794 9.73549 61.9533 9.73549 59.8299ZM13.3093 57.1682V56.0019H15.8962L15.4925 57.1682H13.3093ZM8.35979 57.1682V56.0019H10.9318L10.543 57.1682H8.35979ZM14.685 63L15.0738 61.8486H17.257V63H14.685ZM20.593 63V56.0019H21.7594V57.871L21.8042 58.6636V63H20.593ZM21.1463 59.157C21.1463 57.6019 22.0884 55.7925 23.9126 55.7925C25.5426 55.7925 26.7538 57.0336 26.7538 59.1421V63H25.5575V59.157C25.5575 57.7364 24.75 56.9589 23.6734 56.9589C22.6566 56.9589 21.8042 57.7215 21.8042 59.157H21.1463ZM19.2323 57.1682V56.0019H21.7594L21.3855 57.1682H19.2323ZM19.2323 63V61.8486H21.4155L21.8042 63H19.2323ZM20.593 63L20.9669 61.8486H23.0603V63H20.593ZM24.3014 63V61.8486H26.3949L26.7538 63H24.3014ZM25.5575 63L25.9463 61.8486H28.1295V63H25.5575ZM30.8076 63V61.8486H34.2169L34.815 63H30.8076ZM33.6038 63L34.2169 61.8486H37.6263V63H33.6038ZM30.8076 57.1682V56.0019H34.815L34.2169 57.1682H30.8076ZM33.6038 63V56.0019H34.815V63H33.6038ZM34.2468 54.3421C33.6038 54.3421 33.0655 53.8336 33.0655 53.1757C33.0655 52.5178 33.6038 51.9944 34.2468 51.9944C34.8749 51.9944 35.4132 52.5178 35.4132 53.1757C35.4132 53.8336 34.8749 54.3421 34.2468 54.3421ZM43.4894 54.6112C43.4894 52.9963 44.5511 51.8598 46.0464 51.8598C47.5417 51.8598 48.6184 52.9813 48.6184 54.5664V54.7458H47.4072V54.5664C47.4072 53.6542 46.8389 53.0112 46.0464 53.0112C45.2389 53.0112 44.7006 53.6542 44.7006 54.5664V63H43.4894V54.6112ZM41.381 57.1682V56.0019H44.7006L44.1922 57.1682H41.381ZM44.0875 57.1682L43.4894 56.0019H47.452V57.1682H44.0875ZM41.381 63V61.8486H44.1922L44.7006 63H41.381ZM43.4894 63L44.0875 61.8486H47.452V63H43.4894ZM51.7436 63V61.8486H55.153L55.7511 63H51.7436ZM54.5399 63L55.153 61.8486H58.5623V63H54.5399ZM51.7436 57.1682V56.0019H55.7511L55.153 57.1682H51.7436ZM54.5399 63V56.0019H55.7511V63H54.5399ZM55.1829 54.3421C54.5399 54.3421 54.0016 53.8336 54.0016 53.1757C54.0016 52.5178 54.5399 51.9944 55.1829 51.9944C55.8109 51.9944 56.3492 52.5178 56.3492 53.1757C56.3492 53.8336 55.8109 54.3421 55.1829 54.3421ZM68.6736 61.6991C67.9858 62.5963 66.6848 63.2093 65.2792 63.2093C63.2755 63.2093 61.6007 61.5495 61.6007 59.5009C61.6007 57.4822 63.2605 55.7925 65.2792 55.7925C67.2979 55.7925 68.9876 57.4374 68.9876 59.4561C68.9876 59.6355 68.9428 59.8449 68.883 60.0093H62.2736V58.9477H68.1054L67.7465 59.471C67.7465 58.0505 66.6101 56.9589 65.2792 56.9589C63.8886 56.9589 62.8269 58.0953 62.8269 59.5009C62.8269 60.8916 63.9185 62.043 65.3839 62.043C66.4007 62.043 67.3129 61.5944 67.7914 60.9514L68.6736 61.6991ZM77.6171 63V60.5925L77.9461 59.5458L77.6171 58.4991V52.0542H78.8284V63H77.6171ZM75.1349 63.2093C73.191 63.2093 71.5611 61.5346 71.5611 59.5009C71.5611 57.4673 73.191 55.7925 75.1349 55.7925C77.0938 55.7925 78.5592 57.5869 78.5592 59.5009C78.5592 61.415 77.0938 63.2093 75.1349 63.2093ZM75.2545 62.043C76.6003 62.043 77.7218 60.8916 77.7218 59.5009C77.7218 58.1252 76.6003 56.9589 75.2545 56.9589C73.9087 56.9589 72.7872 58.1402 72.7872 59.5009C72.7872 60.8766 73.9087 62.043 75.2545 62.043ZM75.9872 53.2206V52.0542H78.8284L78.3947 53.2206H75.9872ZM77.6171 63L78.0059 61.8486H80.1891V63H77.6171ZM97.2986 63.2093C95.3546 63.2093 93.8892 61.415 93.8892 59.5009C93.8892 57.5869 95.3546 55.7925 97.2986 55.7925C99.2575 55.7925 100.872 57.4673 100.872 59.5009C100.872 61.5346 99.2575 63.2093 97.2986 63.2093ZM97.1789 62.043C98.5247 62.043 99.6462 60.8766 99.6462 59.5009C99.6462 58.1402 98.5247 56.9589 97.1789 56.9589C95.8332 56.9589 94.7266 58.1252 94.7266 59.5009C94.7266 60.8916 95.8332 62.043 97.1789 62.043ZM93.6201 63V52.0542H94.8163V58.3196L94.4874 59.5607L94.8163 60.8168V63H93.6201ZM92.2444 53.2206V52.0542H94.8163L94.4275 53.2206H92.2444ZM106.481 59.2617C106.481 57.3178 107.573 55.7925 109.248 55.7925C109.876 55.7925 110.534 55.972 111.042 56.4953V57.7215C110.519 57.1682 109.846 56.9589 109.248 56.9589C108.096 56.9589 107.139 58.0056 107.139 59.2617H106.481ZM105.928 63V56.0019H107.094V57.4673L107.139 58.2598V63H105.928ZM104.014 57.1682V56.0019H107.094L106.631 57.1682H104.014ZM104.014 63V61.8486H106.661L107.139 63H104.014ZM105.928 63L106.466 61.8486H109.472V63H105.928ZM117.01 63.2093C115.066 63.2093 113.436 61.5346 113.436 59.5009C113.436 57.4673 115.066 55.7925 117.01 55.7925C118.969 55.7925 120.434 57.5869 120.434 59.5009C120.434 61.415 118.969 63.2093 117.01 63.2093ZM117.13 62.043C118.475 62.043 119.597 60.8916 119.597 59.5009C119.597 58.1252 118.475 56.9589 117.13 56.9589C115.784 56.9589 114.662 58.1402 114.662 59.5009C114.662 60.8766 115.784 62.043 117.13 62.043ZM119.492 63V60.5178L119.821 59.5009L119.492 58.4093V56.0019H120.703V63H119.492ZM119.492 63L119.881 61.8486H122.064V63H119.492ZM125.281 63V56.0019H126.447V57.871L126.492 58.6636V63H125.281ZM125.834 59.157C125.834 57.6019 126.776 55.7925 128.6 55.7925C130.23 55.7925 131.441 57.0336 131.441 59.1421V63H130.245V59.157C130.245 57.7364 129.438 56.9589 128.361 56.9589C127.344 56.9589 126.492 57.7215 126.492 59.157H125.834ZM123.92 57.1682V56.0019H126.447L126.073 57.1682H123.92ZM123.92 63V61.8486H126.103L126.492 63H123.92ZM125.281 63L125.654 61.8486H127.748V63H125.281ZM128.989 63V61.8486H131.082L131.441 63H128.989ZM130.245 63L130.634 61.8486H132.817V63H130.245ZM140.43 63V60.5925L140.759 59.5458L140.43 58.4991V52.0542H141.641V63H140.43ZM137.947 63.2093C136.003 63.2093 134.374 61.5346 134.374 59.5009C134.374 57.4673 136.003 55.7925 137.947 55.7925C139.906 55.7925 141.372 57.5869 141.372 59.5009C141.372 61.415 139.906 63.2093 137.947 63.2093ZM138.067 62.043C139.413 62.043 140.534 60.8916 140.534 59.5009C140.534 58.1252 139.413 56.9589 138.067 56.9589C136.721 56.9589 135.6 58.1402 135.6 59.5009C135.6 60.8766 136.721 62.043 138.067 62.043ZM138.8 53.2206V52.0542H141.641L141.207 53.2206H138.8ZM140.43 63L140.818 61.8486H143.002V63H140.43Z" fill="#363131"/>
<rect width="224" height="20" transform="translate(0.716797 75)" fill="#D7C6FF"/>
<path d="M9.87007 88V86.8486H13.2794L13.8775 88H9.87007ZM12.6663 88L13.2794 86.8486H16.6888V88H12.6663ZM9.87007 82.1682V81.0019H13.8775L13.2794 82.1682H9.87007ZM12.6663 88V81.0019H13.8775V88H12.6663ZM13.3093 79.3421C12.6663 79.3421 12.128 78.8336 12.128 78.1757C12.128 77.5178 12.6663 76.9944 13.3093 76.9944C13.9374 76.9944 14.4757 77.5178 14.4757 78.1757C14.4757 78.8336 13.9374 79.3421 13.3093 79.3421ZM25.2734 88V85.5925L25.6024 84.5458L25.2734 83.4991V77.0542H26.4846V88H25.2734ZM22.7912 88.2093C20.8472 88.2093 19.2173 86.5346 19.2173 84.5009C19.2173 82.4673 20.8472 80.7925 22.7912 80.7925C24.75 80.7925 26.2155 82.5869 26.2155 84.5009C26.2155 86.415 24.75 88.2093 22.7912 88.2093ZM22.9108 87.043C24.2566 87.043 25.3781 85.8916 25.3781 84.5009C25.3781 83.1252 24.2566 81.9589 22.9108 81.9589C21.565 81.9589 20.4435 83.1402 20.4435 84.5009C20.4435 85.8766 21.565 87.043 22.9108 87.043ZM23.6435 78.2206V77.0542H26.4846L26.051 78.2206H23.6435ZM25.2734 88L25.6622 86.8486H27.8454V88H25.2734ZM37.2674 86.6991C36.5795 87.5963 35.2786 88.2093 33.873 88.2093C31.8693 88.2093 30.1945 86.5495 30.1945 84.5009C30.1945 82.4822 31.8543 80.7925 33.873 80.7925C35.8917 80.7925 37.5814 82.4374 37.5814 84.4561C37.5814 84.6355 37.5365 84.8449 37.4767 85.0093H30.8674V83.9477H36.6992L36.3403 84.471C36.3403 83.0505 35.2038 81.9589 33.873 81.9589C32.4823 81.9589 31.4207 83.0953 31.4207 84.5009C31.4207 85.8916 32.5122 87.043 33.9777 87.043C34.9945 87.043 35.9066 86.5944 36.3851 85.9514L37.2674 86.6991ZM41.5305 88V81.0019H42.6969V82.871L42.7417 83.6636V88H41.5305ZM42.0838 84.157C42.0838 82.6019 43.0259 80.7925 44.8501 80.7925C46.4801 80.7925 47.6913 82.0336 47.6913 84.1421V88H46.495V84.157C46.495 82.7364 45.6875 81.9589 44.6109 81.9589C43.5941 81.9589 42.7417 82.7215 42.7417 84.157H42.0838ZM40.1698 82.1682V81.0019H42.6969L42.323 82.1682H40.1698ZM40.1698 88V86.8486H42.353L42.7417 88H40.1698ZM41.5305 88L41.9044 86.8486H43.9978V88H41.5305ZM45.2389 88V86.8486H47.3324L47.6913 88H45.2389ZM46.495 88L46.8838 86.8486H49.067V88H46.495ZM55.6329 88.2093C54.1226 88.2093 53.046 87.0879 53.046 85.6075V78.5495H54.2572V85.5776C54.2572 86.4449 54.8254 87.043 55.6329 87.043C56.4105 87.043 57.0086 86.4449 57.0086 85.5776V84.4112H58.2049V85.5776C58.2049 87.0879 57.1133 88.2093 55.6329 88.2093ZM50.8778 82.1682V81.0019H54.2572L53.7488 82.1682H50.8778ZM53.6292 82.1682L53.046 81.0019H56.874V82.1682H53.6292ZM62.2138 88V86.8486H65.6232L66.2213 88H62.2138ZM65.0101 88L65.6232 86.8486H69.0325V88H65.0101ZM62.2138 82.1682V81.0019H66.2213L65.6232 82.1682H62.2138ZM65.0101 88V81.0019H66.2213V88H65.0101ZM65.6531 79.3421C65.0101 79.3421 64.4718 78.8336 64.4718 78.1757C64.4718 77.5178 65.0101 76.9944 65.6531 76.9944C66.2811 76.9944 66.8194 77.5178 66.8194 78.1757C66.8194 78.8336 66.2811 79.3421 65.6531 79.3421ZM76.5704 88.2093C75.0601 88.2093 73.9835 87.0879 73.9835 85.6075V78.5495H75.1947V85.5776C75.1947 86.4449 75.7629 87.043 76.5704 87.043C77.348 87.043 77.9461 86.4449 77.9461 85.5776V84.4112H79.1424V85.5776C79.1424 87.0879 78.0508 88.2093 76.5704 88.2093ZM71.8153 82.1682V81.0019H75.1947L74.6863 82.1682H71.8153ZM74.5667 82.1682L73.9835 81.0019H77.8115V82.1682H74.5667ZM83.0167 84.8598V81.0019H84.213V84.8598C84.213 86.3103 85.0653 87.0729 86.0971 87.0729C87.1139 87.0729 87.9663 86.2804 87.9663 84.8598H88.6242C88.6242 86.4 87.6822 88.2093 85.8579 88.2093C84.2728 88.2093 83.0167 86.9682 83.0167 84.8598ZM84.1532 88.8972C84.1831 90.3327 84.8709 91.1103 86.0074 91.1103C87.0242 91.1103 87.9663 90.4075 87.9663 88.9869V81.0019H89.1775V88.9869C89.1775 91.0953 87.6971 92.3065 85.9924 92.3065C84.3027 92.3065 82.9868 91.0953 82.9868 89.1065L84.1532 88.8972ZM81.641 82.1682V81.0019H84.213L83.8242 82.1682H81.641ZM83.3756 82.1682L83.0167 81.0019H85.4691V82.1682H83.3756ZM88.3551 82.1682L87.9663 81.0019H90.5382V82.1682H88.3551ZM86.7102 82.1682V81.0019H89.1775L88.8037 82.1682H86.7102ZM95.564 90.2579L94.8462 89.6449L96.4014 87.7757H97.6126L95.564 90.2579ZM96.7154 88.2093C96.0724 88.2093 95.5341 87.7009 95.5341 87.043C95.5341 86.385 96.0724 85.8617 96.7154 85.8617C97.3434 85.8617 97.8818 86.385 97.8818 87.043C97.8818 87.7009 97.3434 88.2093 96.7154 88.2093ZM114.199 84.5159C114.199 82.4374 115.903 80.7925 118.042 80.7925C119.283 80.7925 120.33 81.1514 121.242 81.9589L120.285 82.7215C119.552 82.1084 118.909 81.9589 118.072 81.9589C116.621 81.9589 115.425 83.1103 115.425 84.5308C115.425 85.9364 116.531 87.043 118.027 87.043C118.999 87.043 119.956 86.5645 120.434 85.8916L121.316 86.6393C120.644 87.5664 119.268 88.2093 117.922 88.2093C115.888 88.2093 114.199 86.5645 114.199 84.5159ZM121.242 81.9589V84.0523H120.016V82.2729L121.242 81.9589ZM127.419 84.2617C127.419 82.3178 128.51 80.7925 130.185 80.7925C130.813 80.7925 131.471 80.972 131.98 81.4953V82.7215C131.456 82.1682 130.783 81.9589 130.185 81.9589C129.034 81.9589 128.077 83.0056 128.077 84.2617H127.419ZM126.866 88V81.0019H128.032V82.4673L128.077 83.2598V88H126.866ZM124.952 82.1682V81.0019H128.032L127.568 82.1682H124.952ZM124.952 88V86.8486H127.598L128.077 88H124.952ZM126.866 88L127.404 86.8486H130.409V88H126.866ZM141.955 86.6991C141.267 87.5963 139.966 88.2093 138.56 88.2093C136.557 88.2093 134.882 86.5495 134.882 84.5009C134.882 82.4822 136.542 80.7925 138.56 80.7925C140.579 80.7925 142.269 82.4374 142.269 84.4561C142.269 84.6355 142.224 84.8449 142.164 85.0093H135.555V83.9477H141.387L141.028 84.471C141.028 83.0505 139.891 81.9589 138.56 81.9589C137.17 81.9589 136.108 83.0953 136.108 84.5009C136.108 85.8916 137.2 87.043 138.665 87.043C139.682 87.043 140.594 86.5944 141.073 85.9514L141.955 86.6991ZM148.416 88.2093C146.472 88.2093 144.842 86.5346 144.842 84.5009C144.842 82.4673 146.472 80.7925 148.416 80.7925C150.375 80.7925 151.84 82.5869 151.84 84.5009C151.84 86.415 150.375 88.2093 148.416 88.2093ZM148.536 87.043C149.882 87.043 151.003 85.8916 151.003 84.5009C151.003 83.1252 149.882 81.9589 148.536 81.9589C147.19 81.9589 146.068 83.1402 146.068 84.5009C146.068 85.8766 147.19 87.043 148.536 87.043ZM150.898 88V85.5178L151.227 84.5009L150.898 83.4093V81.0019H152.11V88H150.898ZM150.898 88L151.287 86.8486H153.47V88H150.898ZM160.32 88.2093C158.81 88.2093 157.734 87.0879 157.734 85.6075V78.5495H158.945V85.5776C158.945 86.4449 159.513 87.043 160.32 87.043C161.098 87.043 161.696 86.4449 161.696 85.5776V84.4112H162.892V85.5776C162.892 87.0879 161.801 88.2093 160.32 88.2093ZM155.565 82.1682V81.0019H158.945L158.436 82.1682H155.565ZM158.317 82.1682L157.734 81.0019H161.562V82.1682H158.317ZM166.901 88V86.8486H170.311L170.909 88H166.901ZM169.698 88L170.311 86.8486H173.72V88H169.698ZM166.901 82.1682V81.0019H170.909L170.311 82.1682H166.901ZM169.698 88V81.0019H170.909V88H169.698ZM170.341 79.3421C169.698 79.3421 169.159 78.8336 169.159 78.1757C169.159 77.5178 169.698 76.9944 170.341 76.9944C170.969 76.9944 171.507 77.5178 171.507 78.1757C171.507 78.8336 170.969 79.3421 170.341 79.3421ZM177.624 88V81.0019H178.791V82.871L178.835 83.6636V88H177.624ZM178.178 84.157C178.178 82.6019 179.12 80.7925 180.944 80.7925C182.574 80.7925 183.785 82.0336 183.785 84.1421V88H182.589V84.157C182.589 82.7364 181.781 81.9589 180.705 81.9589C179.688 81.9589 178.835 82.7215 178.835 84.157H178.178ZM176.264 82.1682V81.0019H178.791L178.417 82.1682H176.264ZM176.264 88V86.8486H178.447L178.835 88H176.264ZM177.624 88L177.998 86.8486H180.092V88H177.624ZM181.333 88V86.8486H183.426L183.785 88H181.333ZM182.589 88L182.978 86.8486H185.161V88H182.589ZM189.394 92.1271C188.033 92.1271 186.897 91.1701 186.897 90.0187C186.897 88.9121 187.884 88 189.08 88L189.185 87.7607H192.998C194.224 87.7607 195.256 88.7477 195.256 89.914C195.256 91.1252 194.134 92.1271 192.818 92.1271H189.394ZM190.755 86.3103C188.871 86.3103 187.525 85.2037 187.525 83.6486C187.525 82.1084 188.871 81.0019 190.755 81.0019C192.519 81.0019 193.955 82.243 193.955 83.7533C193.955 85.2486 192.609 86.3103 190.755 86.3103ZM190.755 85.2636C191.936 85.2636 192.788 84.5907 192.788 83.6486C192.788 82.7215 191.936 82.0486 190.755 82.0486C189.558 82.0486 188.691 82.7215 188.691 83.6486C188.691 84.5907 189.558 85.2636 190.755 85.2636ZM189.289 88.5383C188.258 88.5383 187.271 88.0299 187.271 86.8935C187.271 85.9664 187.929 85.3383 188.841 85.0841L189.215 85.7869C188.736 85.8916 188.392 86.3103 188.392 86.8336C188.392 87.372 188.811 87.7607 189.484 87.7607L189.289 88.5383ZM192.714 91.0804C193.476 91.0804 194.059 90.5869 194.059 89.9589C194.059 89.3308 193.506 88.8224 192.818 88.8224H189.289C188.616 88.8224 188.078 89.3308 188.078 89.9589C188.078 90.5869 188.661 91.0804 189.409 91.0804H192.714ZM191.458 82.0486L190.755 81.0019H195.51V82.0486H191.458ZM211.229 88.2093C209.285 88.2093 207.655 86.5346 207.655 84.5009C207.655 82.4673 209.285 80.7925 211.229 80.7925C213.188 80.7925 214.653 82.5869 214.653 84.5009C214.653 86.415 213.188 88.2093 211.229 88.2093ZM211.348 87.043C212.694 87.043 213.816 85.8916 213.816 84.5009C213.816 83.1252 212.694 81.9589 211.348 81.9589C210.002 81.9589 208.881 83.1402 208.881 84.5009C208.881 85.8766 210.002 87.043 211.348 87.043ZM213.711 88V85.5178L214.04 84.5009L213.711 83.4093V81.0019H214.922V88H213.711ZM213.711 88L214.1 86.8486H216.283V88H213.711Z" fill="#363131"/>
<rect width="172" height="20" transform="translate(0.716797 100)" fill="#D7C6FF"/>
<path d="M12.8906 113.209C11.6495 113.209 10.4084 112.91 9.45138 112.447L10.1243 111.445C10.7822 111.923 11.8289 112.103 12.9205 112.103C14.4757 112.103 15.2233 111.699 15.2233 111.056C15.2233 110.533 14.7598 110.219 13.4289 110.024L12.2476 109.875C10.6327 109.65 9.63082 109.187 9.63082 107.946C9.63082 106.585 10.9766 105.793 12.9504 105.793C14.0869 105.793 15.2832 106.032 16.1953 106.54L15.6271 107.437C14.7299 107.079 13.7878 106.899 12.771 106.899C11.5 106.899 10.8271 107.288 10.8271 107.826C10.8271 108.379 11.3355 108.574 12.4869 108.738L13.6383 108.888C15.5822 109.142 16.4495 109.905 16.4495 110.981C16.4495 112.372 14.9841 113.209 12.8906 113.209ZM16.1953 106.54V108.036H14.999V106.75L16.1953 106.54ZM9.45138 112.447V110.951H10.6476V112.222L9.45138 112.447ZM19.9799 109.516C19.9799 107.437 21.6846 105.793 23.8229 105.793C25.0641 105.793 26.1108 106.151 27.0229 106.959L26.0659 107.721C25.3332 107.108 24.6902 106.959 23.8528 106.959C22.4024 106.959 21.2061 108.11 21.2061 109.531C21.2061 110.936 22.3126 112.043 23.808 112.043C24.7799 112.043 25.7369 111.564 26.2155 110.892L27.0977 111.639C26.4248 112.566 25.0491 113.209 23.7033 113.209C21.6697 113.209 19.9799 111.564 19.9799 109.516ZM27.0229 106.959V109.052H25.7968V107.273L27.0229 106.959ZM33.2599 113.209C31.316 113.209 29.6861 111.535 29.6861 109.501C29.6861 107.467 31.316 105.793 33.2599 105.793C35.2188 105.793 36.6842 107.587 36.6842 109.501C36.6842 111.415 35.2188 113.209 33.2599 113.209ZM33.3795 112.043C34.7253 112.043 35.8468 110.892 35.8468 109.501C35.8468 108.125 34.7253 106.959 33.3795 106.959C32.0337 106.959 30.9122 108.14 30.9122 109.501C30.9122 110.877 32.0337 112.043 33.3795 112.043ZM35.7421 113V110.518L36.0711 109.501L35.7421 108.409V106.002H36.9534V113H35.7421ZM35.7421 113L36.1309 111.849H38.3141V113H35.7421ZM44.0576 113V102.054H45.2688V113H44.0576ZM41.2464 113V111.849H44.6558L45.2688 113H41.2464ZM44.0576 113L44.6558 111.849H48.0651V113H44.0576ZM41.2614 103.221V102.054H45.2688L44.6558 103.221H41.2614ZM54.1974 113.209C52.2535 113.209 50.6236 111.535 50.6236 109.501C50.6236 107.467 52.2535 105.793 54.1974 105.793C56.1563 105.793 57.6217 107.587 57.6217 109.501C57.6217 111.415 56.1563 113.209 54.1974 113.209ZM54.317 112.043C55.6628 112.043 56.7843 110.892 56.7843 109.501C56.7843 108.125 55.6628 106.959 54.317 106.959C52.9712 106.959 51.8497 108.14 51.8497 109.501C51.8497 110.877 52.9712 112.043 54.317 112.043ZM56.6796 113V110.518L57.0086 109.501L56.6796 108.409V106.002H57.8909V113H56.6796ZM56.6796 113L57.0684 111.849H59.2516V113H56.6796ZM65.8923 113.209C63.9484 113.209 62.483 111.415 62.483 109.501C62.483 107.587 63.9484 105.793 65.8923 105.793C67.8512 105.793 69.4662 107.467 69.4662 109.501C69.4662 111.535 67.8512 113.209 65.8923 113.209ZM65.7727 112.043C67.1185 112.043 68.24 110.877 68.24 109.501C68.24 108.14 67.1185 106.959 65.7727 106.959C64.4269 106.959 63.3204 108.125 63.3204 109.501C63.3204 110.892 64.4269 112.043 65.7727 112.043ZM62.2138 113V102.054H63.4101V108.32L63.0811 109.561L63.4101 110.817V113H62.2138ZM60.8381 103.221V102.054H63.4101L63.0213 103.221H60.8381ZM75.4639 113V102.054H76.6751V113H75.4639ZM72.6527 113V111.849H76.062L76.6751 113H72.6527ZM75.4639 113L76.062 111.849H79.4714V113H75.4639ZM72.6676 103.221V102.054H76.6751L76.062 103.221H72.6676ZM89.6111 111.699C88.9233 112.596 87.6223 113.209 86.2167 113.209C84.213 113.209 82.5382 111.55 82.5382 109.501C82.5382 107.482 84.198 105.793 86.2167 105.793C88.2354 105.793 89.9251 107.437 89.9251 109.456C89.9251 109.636 89.8803 109.845 89.8205 110.009H83.2111V108.948H89.0429L88.684 109.471C88.684 108.05 87.5476 106.959 86.2167 106.959C84.8261 106.959 83.7644 108.095 83.7644 109.501C83.7644 110.892 84.856 112.043 86.3214 112.043C87.3382 112.043 88.2504 111.594 88.7289 110.951L89.6111 111.699ZM109.023 113V110.593L109.352 109.546L109.023 108.499V102.054H110.235V113H109.023ZM106.541 113.209C104.597 113.209 102.967 111.535 102.967 109.501C102.967 107.467 104.597 105.793 106.541 105.793C108.5 105.793 109.965 107.587 109.965 109.501C109.965 111.415 108.5 113.209 106.541 113.209ZM106.661 112.043C108.007 112.043 109.128 110.892 109.128 109.501C109.128 108.125 108.007 106.959 106.661 106.959C105.315 106.959 104.193 108.14 104.193 109.501C104.193 110.877 105.315 112.043 106.661 112.043ZM107.393 103.221V102.054H110.235L109.801 103.221H107.393ZM109.023 113L109.412 111.849H111.595V113H109.023ZM121.017 111.699C120.33 112.596 119.029 113.209 117.623 113.209C115.619 113.209 113.944 111.55 113.944 109.501C113.944 107.482 115.604 105.793 117.623 105.793C119.642 105.793 121.331 107.437 121.331 109.456C121.331 109.636 121.287 109.845 121.227 110.009H114.617V108.948H120.449L120.09 109.471C120.09 108.05 118.954 106.959 117.623 106.959C116.232 106.959 115.171 108.095 115.171 109.501C115.171 110.892 116.262 112.043 117.728 112.043C118.744 112.043 119.657 111.594 120.135 110.951L121.017 111.699ZM128.047 113.209C126.806 113.209 125.565 112.91 124.608 112.447L125.281 111.445C125.938 111.923 126.985 112.103 128.077 112.103C129.632 112.103 130.38 111.699 130.38 111.056C130.38 110.533 129.916 110.219 128.585 110.024L127.404 109.875C125.789 109.65 124.787 109.187 124.787 107.946C124.787 106.585 126.133 105.793 128.107 105.793C129.243 105.793 130.439 106.032 131.352 106.54L130.783 107.437C129.886 107.079 128.944 106.899 127.927 106.899C126.656 106.899 125.983 107.288 125.983 107.826C125.983 108.379 126.492 108.574 127.643 108.738L128.795 108.888C130.738 109.142 131.606 109.905 131.606 110.981C131.606 112.372 130.14 113.209 128.047 113.209ZM131.352 106.54V108.036H130.155V106.75L131.352 106.54ZM124.608 112.447V110.951H125.804V112.222L124.608 112.447ZM135.495 113V111.849H138.904L139.503 113H135.495ZM138.291 113L138.904 111.849H142.314V113H138.291ZM135.495 107.168V106.002H139.503L138.904 107.168H135.495ZM138.291 113V106.002H139.503V113H138.291ZM138.934 104.342C138.291 104.342 137.753 103.834 137.753 103.176C137.753 102.518 138.291 101.994 138.934 101.994C139.562 101.994 140.101 102.518 140.101 103.176C140.101 103.834 139.562 104.342 138.934 104.342ZM147.519 117.127C146.158 117.127 145.022 116.17 145.022 115.019C145.022 113.912 146.009 113 147.205 113L147.31 112.761H151.123C152.349 112.761 153.381 113.748 153.381 114.914C153.381 116.125 152.259 117.127 150.943 117.127H147.519ZM148.88 111.31C146.996 111.31 145.65 110.204 145.65 108.649C145.65 107.108 146.996 106.002 148.88 106.002C150.644 106.002 152.08 107.243 152.08 108.753C152.08 110.249 150.734 111.31 148.88 111.31ZM148.88 110.264C150.061 110.264 150.913 109.591 150.913 108.649C150.913 107.721 150.061 107.049 148.88 107.049C147.683 107.049 146.816 107.721 146.816 108.649C146.816 109.591 147.683 110.264 148.88 110.264ZM147.414 113.538C146.383 113.538 145.396 113.03 145.396 111.893C145.396 110.966 146.054 110.338 146.966 110.084L147.34 110.787C146.861 110.892 146.517 111.31 146.517 111.834C146.517 112.372 146.936 112.761 147.609 112.761L147.414 113.538ZM150.839 116.08C151.601 116.08 152.184 115.587 152.184 114.959C152.184 114.331 151.631 113.822 150.943 113.822H147.414C146.741 113.822 146.203 114.331 146.203 114.959C146.203 115.587 146.786 116.08 147.534 116.08H150.839ZM149.583 107.049L148.88 106.002H153.635V107.049H149.583ZM156.687 113V106.002H157.853V107.871L157.898 108.664V113H156.687ZM157.24 109.157C157.24 107.602 158.182 105.793 160.006 105.793C161.636 105.793 162.848 107.034 162.848 109.142V113H161.651V109.157C161.651 107.736 160.844 106.959 159.767 106.959C158.75 106.959 157.898 107.721 157.898 109.157H157.24ZM155.326 107.168V106.002H157.853L157.479 107.168H155.326ZM155.326 113V111.849H157.509L157.898 113H155.326ZM156.687 113L157.061 111.849H159.154V113H156.687ZM160.395 113V111.849H162.489L162.848 113H160.395ZM161.651 113L162.04 111.849H164.223V113H161.651Z" fill="#363131"/>
<rect width="234" height="20" transform="translate(0.716797 125)" fill="#D7C6FF"/>
<path d="M12.8906 138.209C11.6495 138.209 10.4084 137.91 9.45138 137.447L10.1243 136.445C10.7822 136.923 11.8289 137.103 12.9205 137.103C14.4757 137.103 15.2233 136.699 15.2233 136.056C15.2233 135.533 14.7598 135.219 13.4289 135.024L12.2476 134.875C10.6327 134.65 9.63082 134.187 9.63082 132.946C9.63082 131.585 10.9766 130.793 12.9504 130.793C14.0869 130.793 15.2832 131.032 16.1953 131.54L15.6271 132.437C14.7299 132.079 13.7878 131.899 12.771 131.899C11.5 131.899 10.8271 132.288 10.8271 132.826C10.8271 133.379 11.3355 133.574 12.4869 133.738L13.6383 133.888C15.5822 134.142 16.4495 134.905 16.4495 135.981C16.4495 137.372 14.9841 138.209 12.8906 138.209ZM16.1953 131.54V133.036H14.999V131.75L16.1953 131.54ZM9.45138 137.447V135.951H10.6476V137.222L9.45138 137.447ZM20.2042 134.86V131.002H21.4005V134.86C21.4005 136.31 22.2528 137.073 23.2846 137.073C24.3014 137.073 25.1538 136.28 25.1538 134.86H25.8117C25.8117 136.4 24.8697 138.209 23.0454 138.209C21.4603 138.209 20.2042 136.968 20.2042 134.86ZM21.3407 138.897C21.3706 140.333 22.0584 141.11 23.1949 141.11C24.2117 141.11 25.1538 140.407 25.1538 138.987V131.002H26.365V138.987C26.365 141.095 24.8846 142.307 23.1799 142.307C21.4902 142.307 20.1743 141.095 20.1743 139.107L21.3407 138.897ZM18.8285 132.168V131.002H21.4005L21.0117 132.168H18.8285ZM20.5631 132.168L20.2042 131.002H22.6566V132.168H20.5631ZM25.5426 132.168L25.1538 131.002H27.7257V132.168H25.5426ZM23.8977 132.168V131.002H26.365L25.9912 132.168H23.8977ZM33.8281 138.209C32.587 138.209 31.3459 137.91 30.3889 137.447L31.0618 136.445C31.7197 136.923 32.7664 137.103 33.858 137.103C35.4132 137.103 36.1608 136.699 36.1608 136.056C36.1608 135.533 35.6973 135.219 34.3664 135.024L33.1851 134.875C31.5702 134.65 30.5683 134.187 30.5683 132.946C30.5683 131.585 31.9141 130.793 33.8879 130.793C35.0244 130.793 36.2207 131.032 37.1328 131.54L36.5646 132.437C35.6674 132.079 34.7253 131.899 33.7085 131.899C32.4375 131.899 31.7646 132.288 31.7646 132.826C31.7646 133.379 32.273 133.574 33.4244 133.738L34.5758 133.888C36.5197 134.142 37.387 134.905 37.387 135.981C37.387 137.372 35.9216 138.209 33.8281 138.209ZM37.1328 131.54V133.036H35.9365V131.75L37.1328 131.54ZM30.3889 137.447V135.951H31.5851V137.222L30.3889 137.447ZM45.1642 138.209C43.6539 138.209 42.5773 137.088 42.5773 135.607V128.55H43.7885V135.578C43.7885 136.445 44.3567 137.043 45.1642 137.043C45.9417 137.043 46.5399 136.445 46.5399 135.578V134.411H47.7361V135.578C47.7361 137.088 46.6445 138.209 45.1642 138.209ZM40.409 132.168V131.002H43.7885L43.2801 132.168H40.409ZM43.1604 132.168L42.5773 131.002H46.4053V132.168H43.1604ZM58.2049 136.699C57.517 137.596 56.2161 138.209 54.8105 138.209C52.8068 138.209 51.132 136.55 51.132 134.501C51.132 132.482 52.7918 130.793 54.8105 130.793C56.8292 130.793 58.5189 132.437 58.5189 134.456C58.5189 134.636 58.474 134.845 58.4142 135.009H51.8049V133.948H57.6367L57.2778 134.471C57.2778 133.05 56.1413 131.959 54.8105 131.959C53.4198 131.959 52.3582 133.095 52.3582 134.501C52.3582 135.892 53.4497 137.043 54.9152 137.043C55.932 137.043 56.8441 136.594 57.3226 135.951L58.2049 136.699ZM61.6007 138V131.002H62.797V132.587L62.8119 133.17V138H61.6007ZM68.1054 133.619C68.1054 132.422 67.7764 131.959 67.2381 131.959C66.625 131.959 66.0568 132.707 66.0568 134.127H65.3989C65.3989 132.796 66.3409 130.793 67.6119 130.793C68.7035 130.793 69.3166 131.75 69.3166 133.619V138H68.1054V133.619ZM64.8605 133.619C64.8605 132.422 64.5316 131.959 63.9933 131.959C63.3802 131.959 62.8119 132.721 62.8119 134.157H62.154C62.154 132.826 63.0961 130.793 64.3671 130.793C65.4437 130.793 66.0568 131.75 66.0568 133.619V138H64.8605V133.619ZM74.6265 140.258L73.9087 139.645L75.4639 137.776H76.6751L74.6265 140.258ZM75.7779 138.209C75.1349 138.209 74.5966 137.701 74.5966 137.043C74.5966 136.385 75.1349 135.862 75.7779 135.862C76.4059 135.862 76.9443 136.385 76.9443 137.043C76.9443 137.701 76.4059 138.209 75.7779 138.209ZM96.0724 138.209C94.1285 138.209 92.4986 136.535 92.4986 134.501C92.4986 132.467 94.1285 130.793 96.0724 130.793C98.0313 130.793 99.4967 132.587 99.4967 134.501C99.4967 136.415 98.0313 138.209 96.0724 138.209ZM96.192 137.043C97.5378 137.043 98.6593 135.892 98.6593 134.501C98.6593 133.125 97.5378 131.959 96.192 131.959C94.8462 131.959 93.7247 133.14 93.7247 134.501C93.7247 135.877 94.8462 137.043 96.192 137.043ZM98.5546 138V135.518L98.8836 134.501L98.5546 133.409V131.002H99.7659V138H98.5546ZM98.5546 138L98.9434 136.849H101.127V138H98.5546ZM104.343 138V131.002H105.509V132.871L105.554 133.664V138H104.343ZM104.896 134.157C104.896 132.602 105.838 130.793 107.663 130.793C109.293 130.793 110.504 132.034 110.504 134.142V138H109.308V134.157C109.308 132.736 108.5 131.959 107.423 131.959C106.407 131.959 105.554 132.721 105.554 134.157H104.896ZM102.982 132.168V131.002H105.509L105.136 132.168H102.982ZM102.982 138V136.849H105.165L105.554 138H102.982ZM104.343 138L104.717 136.849H106.81V138H104.343ZM108.051 138V136.849H110.145L110.504 138H108.051ZM109.308 138L109.696 136.849H111.879V138H109.308ZM119.492 138V135.593L119.821 134.546L119.492 133.499V127.054H120.703V138H119.492ZM117.01 138.209C115.066 138.209 113.436 136.535 113.436 134.501C113.436 132.467 115.066 130.793 117.01 130.793C118.969 130.793 120.434 132.587 120.434 134.501C120.434 136.415 118.969 138.209 117.01 138.209ZM117.13 137.043C118.475 137.043 119.597 135.892 119.597 134.501C119.597 133.125 118.475 131.959 117.13 131.959C115.784 131.959 114.662 133.14 114.662 134.501C114.662 135.877 115.784 137.043 117.13 137.043ZM117.862 128.221V127.054H120.703L120.27 128.221H117.862ZM119.492 138L119.881 136.849H122.064V138H119.492ZM138.516 138.209C137.275 138.209 136.033 137.91 135.076 137.447L135.749 136.445C136.407 136.923 137.454 137.103 138.546 137.103C140.101 137.103 140.848 136.699 140.848 136.056C140.848 135.533 140.385 135.219 139.054 135.024L137.873 134.875C136.258 134.65 135.256 134.187 135.256 132.946C135.256 131.585 136.602 130.793 138.575 130.793C139.712 130.793 140.908 131.032 141.82 131.54L141.252 132.437C140.355 132.079 139.413 131.899 138.396 131.899C137.125 131.899 136.452 132.288 136.452 132.826C136.452 133.379 136.96 133.574 138.112 133.738L139.263 133.888C141.207 134.142 142.075 134.905 142.075 135.981C142.075 137.372 140.609 138.209 138.516 138.209ZM141.82 131.54V133.036H140.624V131.75L141.82 131.54ZM135.076 137.447V135.951H136.273V137.222L135.076 137.447ZM146.218 138V127.054H147.429V138H146.218ZM146.771 134.157C146.771 132.602 147.713 130.793 149.538 130.793C151.108 130.793 152.379 132.034 152.379 134.157V138H151.183V134.157C151.183 132.692 150.33 131.959 149.298 131.959C148.282 131.959 147.429 132.721 147.429 134.157H146.771ZM144.857 128.221V127.054H147.429L147.04 128.221H144.857ZM144.857 138V136.849H147.04L147.429 138H144.857ZM146.218 138L146.592 136.849H148.685V138H146.218ZM149.926 138V136.849H152.02L152.379 138H149.926ZM151.183 138L151.571 136.849H153.754V138H151.183ZM158.885 138.209C156.941 138.209 155.311 136.535 155.311 134.501C155.311 132.467 156.941 130.793 158.885 130.793C160.844 130.793 162.309 132.587 162.309 134.501C162.309 136.415 160.844 138.209 158.885 138.209ZM159.005 137.043C160.35 137.043 161.472 135.892 161.472 134.501C161.472 133.125 160.35 131.959 159.005 131.959C157.659 131.959 156.537 133.14 156.537 134.501C156.537 135.877 157.659 137.043 159.005 137.043ZM161.367 138V135.518L161.696 134.501L161.367 133.409V131.002H162.578V138H161.367ZM161.367 138L161.756 136.849H163.939V138H161.367ZM170.595 138.209C168.636 138.209 167.17 136.415 167.17 134.501C167.17 132.587 168.636 130.793 170.595 130.793C172.539 130.793 174.169 132.467 174.169 134.501C174.169 136.535 172.539 138.209 170.595 138.209ZM170.475 137.043C171.821 137.043 172.942 135.877 172.942 134.501C172.942 133.14 171.821 131.959 170.475 131.959C169.129 131.959 168.008 133.125 168.008 134.501C168.008 135.892 169.129 137.043 170.475 137.043ZM166.901 142.127V131.002H168.113V133.409L167.784 134.516L168.113 135.817V142.127H166.901ZM165.541 132.168V131.002H168.113L167.724 132.168H165.541ZM165.541 142.127V140.976H167.724L168.113 142.127H165.541ZM166.886 142.127L167.38 140.976H170.191V142.127H166.886ZM177.37 138V136.849H180.779L181.378 138H177.37ZM180.166 138L180.779 136.849H184.189V138H180.166ZM177.37 132.168V131.002H181.378L180.779 132.168H177.37ZM180.166 138V131.002H181.378V138H180.166ZM180.809 129.342C180.166 129.342 179.628 128.834 179.628 128.176C179.628 127.518 180.166 126.994 180.809 126.994C181.437 126.994 181.976 127.518 181.976 128.176C181.976 128.834 181.437 129.342 180.809 129.342ZM188.093 138V131.002H189.259V132.871L189.304 133.664V138H188.093ZM188.646 134.157C188.646 132.602 189.588 130.793 191.413 130.793C193.043 130.793 194.254 132.034 194.254 134.142V138H193.058V134.157C193.058 132.736 192.25 131.959 191.173 131.959C190.157 131.959 189.304 132.721 189.304 134.157H188.646ZM186.732 132.168V131.002H189.259L188.886 132.168H186.732ZM186.732 138V136.849H188.915L189.304 138H186.732ZM188.093 138L188.467 136.849H190.56V138H188.093ZM191.801 138V136.849H193.895L194.254 138H191.801ZM193.058 138L193.446 136.849H195.629V138H193.058ZM199.863 142.127C198.502 142.127 197.366 141.17 197.366 140.019C197.366 138.912 198.352 138 199.549 138L199.653 137.761H203.466C204.693 137.761 205.724 138.748 205.724 139.914C205.724 141.125 204.603 142.127 203.287 142.127H199.863ZM201.223 136.31C199.339 136.31 197.994 135.204 197.994 133.649C197.994 132.108 199.339 131.002 201.223 131.002C202.988 131.002 204.423 132.243 204.423 133.753C204.423 135.249 203.078 136.31 201.223 136.31ZM201.223 135.264C202.405 135.264 203.257 134.591 203.257 133.649C203.257 132.721 202.405 132.049 201.223 132.049C200.027 132.049 199.16 132.721 199.16 133.649C199.16 134.591 200.027 135.264 201.223 135.264ZM199.758 138.538C198.726 138.538 197.739 138.03 197.739 136.893C197.739 135.966 198.397 135.338 199.309 135.084L199.683 135.787C199.205 135.892 198.861 136.31 198.861 136.834C198.861 137.372 199.28 137.761 199.952 137.761L199.758 138.538ZM203.182 141.08C203.945 141.08 204.528 140.587 204.528 139.959C204.528 139.331 203.975 138.822 203.287 138.822H199.758C199.085 138.822 198.547 139.331 198.547 139.959C198.547 140.587 199.13 141.08 199.878 141.08H203.182ZM201.926 132.049L201.223 131.002H205.979V132.049H201.926ZM221.697 138.209C219.753 138.209 218.124 136.535 218.124 134.501C218.124 132.467 219.753 130.793 221.697 130.793C223.656 130.793 225.122 132.587 225.122 134.501C225.122 136.415 223.656 138.209 221.697 138.209ZM221.817 137.043C223.163 137.043 224.284 135.892 224.284 134.501C224.284 133.125 223.163 131.959 221.817 131.959C220.471 131.959 219.35 133.14 219.35 134.501C219.35 135.877 220.471 137.043 221.817 137.043ZM224.18 138V135.518L224.509 134.501L224.18 133.409V131.002H225.391V138H224.18ZM224.18 138L224.568 136.849H226.752V138H224.18Z" fill="#363131"/>
<rect width="161" height="20" transform="translate(0.716797 150)" fill="#D7C6FF"/>
<path d="M12.2925 163L9.00278 156.002H10.3486L13.1299 161.998H12.756L15.5374 156.002H16.8832L13.5934 163H12.2925ZM13.6682 157.168V156.002H16.8832L16.4046 157.168H13.6682ZM15.8364 157.168L15.5374 156.002H17.5261V157.168H15.8364ZM8.35979 157.168V156.002H10.3486L10.0495 157.168H8.35979ZM9.48128 157.168L9.00278 156.002H12.2177V157.168H9.48128ZM20.3388 163V161.849H23.7482L24.3463 163H20.3388ZM23.1351 163L23.7482 161.849H27.1575V163H23.1351ZM20.3388 157.168V156.002H24.3463L23.7482 157.168H20.3388ZM23.1351 163V156.002H24.3463V163H23.1351ZM23.7781 154.342C23.1351 154.342 22.5968 153.834 22.5968 153.176C22.5968 152.518 23.1351 151.994 23.7781 151.994C24.4061 151.994 24.9444 152.518 24.9444 153.176C24.9444 153.834 24.4061 154.342 23.7781 154.342ZM33.8281 163.209C32.587 163.209 31.3459 162.91 30.3889 162.447L31.0618 161.445C31.7197 161.923 32.7664 162.103 33.858 162.103C35.4132 162.103 36.1608 161.699 36.1608 161.056C36.1608 160.533 35.6973 160.219 34.3664 160.024L33.1851 159.875C31.5702 159.65 30.5683 159.187 30.5683 157.946C30.5683 156.585 31.9141 155.793 33.8879 155.793C35.0244 155.793 36.2207 156.032 37.1328 156.54L36.5646 157.437C35.6674 157.079 34.7253 156.899 33.7085 156.899C32.4375 156.899 31.7646 157.288 31.7646 157.826C31.7646 158.379 32.273 158.574 33.4244 158.738L34.5758 158.888C36.5197 159.142 37.387 159.905 37.387 160.981C37.387 162.372 35.9216 163.209 33.8281 163.209ZM37.1328 156.54V158.036H35.9365V156.75L37.1328 156.54ZM30.3889 162.447V160.951H31.5851V162.222L30.3889 162.447ZM41.2763 163V161.849H44.6857L45.2838 163H41.2763ZM44.0726 163L44.6857 161.849H48.095V163H44.0726ZM41.2763 157.168V156.002H45.2838L44.6857 157.168H41.2763ZM44.0726 163V156.002H45.2838V163H44.0726ZM44.7156 154.342C44.0726 154.342 43.5343 153.834 43.5343 153.176C43.5343 152.518 44.0726 151.994 44.7156 151.994C45.3436 151.994 45.8819 152.518 45.8819 153.176C45.8819 153.834 45.3436 154.342 44.7156 154.342ZM54.8254 163.209C52.717 163.209 51.1619 161.505 51.1619 159.501C51.1619 157.497 52.7918 155.793 54.8254 155.793C56.8441 155.793 58.474 157.497 58.474 159.501C58.474 161.505 56.9189 163.209 54.8254 163.209ZM54.8254 162.043C56.1862 162.043 57.2479 160.907 57.2479 159.501C57.2479 158.095 56.1862 156.959 54.8254 156.959C53.4497 156.959 52.3881 158.095 52.3881 159.501C52.3881 160.907 53.4497 162.043 54.8254 162.043ZM62.468 163V156.002H63.6344V157.871L63.6792 158.664V163H62.468ZM63.0213 159.157C63.0213 157.602 63.9634 155.793 65.7876 155.793C67.4176 155.793 68.6288 157.034 68.6288 159.142V163H67.4325V159.157C67.4325 157.736 66.625 156.959 65.5484 156.959C64.5316 156.959 63.6792 157.721 63.6792 159.157H63.0213ZM61.1073 157.168V156.002H63.6344L63.2605 157.168H61.1073ZM61.1073 163V161.849H63.2905L63.6792 163H61.1073ZM62.468 163L62.8419 161.849H64.9353V163H62.468ZM66.1764 163V161.849H68.2699L68.6288 163H66.1764ZM67.4325 163L67.8213 161.849H70.0045V163H67.4325ZM85.3644 154.611C85.3644 152.996 86.4261 151.86 87.9214 151.86C89.4167 151.86 90.4934 152.981 90.4934 154.566V154.746H89.2822V154.566C89.2822 153.654 88.7139 153.011 87.9214 153.011C87.1139 153.011 86.5756 153.654 86.5756 154.566V163H85.3644V154.611ZM83.256 157.168V156.002H86.5756L86.0672 157.168H83.256ZM85.9625 157.168L85.3644 156.002H89.327V157.168H85.9625ZM83.256 163V161.849H86.0672L86.5756 163H83.256ZM85.3644 163L85.9625 161.849H89.327V163H85.3644ZM96.7004 163.209C94.592 163.209 93.0369 161.505 93.0369 159.501C93.0369 157.497 94.6668 155.793 96.7004 155.793C98.7191 155.793 100.349 157.497 100.349 159.501C100.349 161.505 98.7939 163.209 96.7004 163.209ZM96.7004 162.043C98.0612 162.043 99.1229 160.907 99.1229 159.501C99.1229 158.095 98.0612 156.959 96.7004 156.959C95.3247 156.959 94.2631 158.095 94.2631 159.501C94.2631 160.907 95.3247 162.043 96.7004 162.043ZM106.481 159.262C106.481 157.318 107.573 155.793 109.248 155.793C109.876 155.793 110.534 155.972 111.042 156.495V157.721C110.519 157.168 109.846 156.959 109.248 156.959C108.096 156.959 107.139 158.006 107.139 159.262H106.481ZM105.928 163V156.002H107.094V157.467L107.139 158.26V163H105.928ZM104.014 157.168V156.002H107.094L106.631 157.168H104.014ZM104.014 163V161.849H106.661L107.139 163H104.014ZM105.928 163L106.466 161.849H109.472V163H105.928ZM128.914 163.209C127.404 163.209 126.327 162.088 126.327 160.607V153.55H127.538V160.578C127.538 161.445 128.107 162.043 128.914 162.043C129.692 162.043 130.29 161.445 130.29 160.578V159.411H131.486V160.578C131.486 162.088 130.395 163.209 128.914 163.209ZM124.159 157.168V156.002H127.538L127.03 157.168H124.159ZM126.91 157.168L126.327 156.002H130.155V157.168H126.91ZM135.749 163V152.054H136.96V163H135.749ZM136.303 159.157C136.303 157.602 137.245 155.793 139.069 155.793C140.639 155.793 141.91 157.034 141.91 159.157V163H140.714V159.157C140.714 157.692 139.861 156.959 138.83 156.959C137.813 156.959 136.96 157.721 136.96 159.157H136.303ZM134.389 153.221V152.054H136.96L136.572 153.221H134.389ZM134.389 163V161.849H136.572L136.96 163H134.389ZM135.749 163L136.123 161.849H138.217V163H135.749ZM139.458 163V161.849H141.551L141.91 163H139.458ZM140.714 163L141.103 161.849H143.286V163H140.714ZM152.424 161.699C151.736 162.596 150.435 163.209 149.029 163.209C147.026 163.209 145.351 161.55 145.351 159.501C145.351 157.482 147.011 155.793 149.029 155.793C151.048 155.793 152.738 157.437 152.738 159.456C152.738 159.636 152.693 159.845 152.633 160.009H146.024V158.948H151.855L151.497 159.471C151.497 158.05 150.36 156.959 149.029 156.959C147.639 156.959 146.577 158.095 146.577 159.501C146.577 160.892 147.668 162.043 149.134 162.043C150.151 162.043 151.063 161.594 151.541 160.951L152.424 161.699Z" fill="#363131"/>
<path d="M7.7168 166.2H154.279V167H7.7168V166.2Z" fill="#363131"/>
<rect width="192" height="20" transform="translate(0.716797 175)" fill="#D7C6FF"/>
<path d="M13.5635 188.209C11.6046 188.209 10.1392 186.415 10.1392 184.501C10.1392 182.587 11.6046 180.793 13.5635 180.793C15.5075 180.793 17.1374 182.467 17.1374 184.501C17.1374 186.535 15.5075 188.209 13.5635 188.209ZM13.4439 187.043C14.7897 187.043 15.9112 185.877 15.9112 184.501C15.9112 183.14 14.7897 181.959 13.4439 181.959C12.0981 181.959 10.9766 183.125 10.9766 184.501C10.9766 185.892 12.0981 187.043 13.4439 187.043ZM9.87007 192.127V181.002H11.0813V183.409L10.7523 184.516L11.0813 185.817V192.127H9.87007ZM8.50932 182.168V181.002H11.0813L10.6925 182.168H8.50932ZM8.50932 192.127V190.976H10.6925L11.0813 192.127H8.50932ZM9.85511 192.127L10.3486 190.976H13.1598V192.127H9.85511ZM22.7313 184.262C22.7313 182.318 23.8229 180.793 25.4977 180.793C26.1257 180.793 26.7837 180.972 27.2921 181.495V182.721C26.7687 182.168 26.0958 181.959 25.4977 181.959C24.3463 181.959 23.3893 183.006 23.3893 184.262H22.7313ZM22.1781 188V181.002H23.3444V182.467L23.3893 183.26V188H22.1781ZM20.2641 182.168V181.002H23.3444L22.8809 182.168H20.2641ZM20.2641 188V186.849H22.9108L23.3893 188H20.2641ZM22.1781 188L22.7164 186.849H25.722V188H22.1781ZM33.8879 188.209C31.7795 188.209 30.2244 186.505 30.2244 184.501C30.2244 182.497 31.8543 180.793 33.8879 180.793C35.9066 180.793 37.5365 182.497 37.5365 184.501C37.5365 186.505 35.9814 188.209 33.8879 188.209ZM33.8879 187.043C35.2487 187.043 36.3104 185.907 36.3104 184.501C36.3104 183.095 35.2487 181.959 33.8879 181.959C32.5122 181.959 31.4506 183.095 31.4506 184.501C31.4506 185.907 32.5122 187.043 33.8879 187.043ZM46.2109 188V185.593L46.5399 184.546L46.2109 183.499V177.054H47.4221V188H46.2109ZM43.7287 188.209C41.7847 188.209 40.1548 186.535 40.1548 184.501C40.1548 182.467 41.7847 180.793 43.7287 180.793C45.6875 180.793 47.153 182.587 47.153 184.501C47.153 186.415 45.6875 188.209 43.7287 188.209ZM43.8483 187.043C45.1941 187.043 46.3156 185.892 46.3156 184.501C46.3156 183.125 45.1941 181.959 43.8483 181.959C42.5025 181.959 41.381 183.14 41.381 184.501C41.381 185.877 42.5025 187.043 43.8483 187.043ZM44.581 178.221V177.054H47.4221L46.9885 178.221H44.581ZM46.2109 188L46.5997 186.849H48.7829V188H46.2109ZM56.56 188V186.161V185.578V181.002H57.7712V188H56.56ZM51.6105 184.83V181.002H52.8068V184.83C52.8068 186.295 53.6591 187.043 54.6909 187.043C55.7077 187.043 56.56 186.265 56.56 184.83H57.218C57.218 186.37 56.2759 188.179 54.4516 188.179C52.8516 188.179 51.6105 186.953 51.6105 184.83ZM55.1843 182.168V181.002H57.7712L57.3675 182.168H55.1843ZM50.2348 182.168V181.002H52.8068L52.418 182.168H50.2348ZM56.56 188L56.9488 186.849H59.132V188H56.56ZM61.8549 184.516C61.8549 182.437 63.5596 180.793 65.6979 180.793C66.9391 180.793 67.9858 181.151 68.8979 181.959L67.9409 182.721C67.2082 182.108 66.5652 181.959 65.7278 181.959C64.2774 181.959 63.0811 183.11 63.0811 184.531C63.0811 185.936 64.1876 187.043 65.683 187.043C66.6549 187.043 67.6119 186.564 68.0905 185.892L68.9727 186.639C68.2998 187.566 66.9241 188.209 65.5783 188.209C63.5447 188.209 61.8549 186.564 61.8549 184.516ZM68.8979 181.959V184.052H67.6718V182.273L68.8979 181.959ZM76.5704 188.209C75.0601 188.209 73.9835 187.088 73.9835 185.607V178.55H75.1947V185.578C75.1947 186.445 75.7629 187.043 76.5704 187.043C77.348 187.043 77.9461 186.445 77.9461 185.578V184.411H79.1424V185.578C79.1424 187.088 78.0508 188.209 76.5704 188.209ZM71.8153 182.168V181.002H75.1947L74.6863 182.168H71.8153ZM74.5667 182.168L73.9835 181.002H77.8115V182.168H74.5667ZM85.7532 182.557L85.5289 178.52H86.9195L86.6952 182.557H85.7532ZM96.6406 188.209C95.3995 188.209 94.1584 187.91 93.2014 187.447L93.8743 186.445C94.5322 186.923 95.5789 187.103 96.6705 187.103C98.2257 187.103 98.9733 186.699 98.9733 186.056C98.9733 185.533 98.5098 185.219 97.1789 185.024L95.9976 184.875C94.3827 184.65 93.3808 184.187 93.3808 182.946C93.3808 181.585 94.7266 180.793 96.7004 180.793C97.8369 180.793 99.0332 181.032 99.9453 181.54L99.3771 182.437C98.4799 182.079 97.5378 181.899 96.521 181.899C95.25 181.899 94.5771 182.288 94.5771 182.826C94.5771 183.379 95.0855 183.574 96.2369 183.738L97.3883 183.888C99.3322 184.142 100.2 184.905 100.2 185.981C100.2 187.372 98.7341 188.209 96.6406 188.209ZM99.9453 181.54V183.036H98.749V181.75L99.9453 181.54ZM93.2014 187.447V185.951H94.3976V187.222L93.2014 187.447ZM116.771 179.611C116.771 177.996 117.832 176.86 119.328 176.86C120.823 176.86 121.9 177.981 121.9 179.566V179.746H120.688V179.566C120.688 178.654 120.12 178.011 119.328 178.011C118.52 178.011 117.982 178.654 117.982 179.566V188H116.771V179.611ZM114.662 182.168V181.002H117.982L117.473 182.168H114.662ZM117.369 182.168L116.771 181.002H120.733V182.168H117.369ZM114.662 188V186.849H117.473L117.982 188H114.662ZM116.771 188L117.369 186.849H120.733V188H116.771ZM129.841 188V186.161V185.578V181.002H131.052V188H129.841ZM124.892 184.83V181.002H126.088V184.83C126.088 186.295 126.94 187.043 127.972 187.043C128.989 187.043 129.841 186.265 129.841 184.83H130.499C130.499 186.37 129.557 188.179 127.733 188.179C126.133 188.179 124.892 186.953 124.892 184.83ZM128.466 182.168V181.002H131.052L130.649 182.168H128.466ZM123.516 182.168V181.002H126.088L125.699 182.168H123.516ZM129.841 188L130.23 186.849H132.413V188H129.841ZM139.383 188.209C137.873 188.209 136.796 187.088 136.796 185.607V178.55H138.007V185.578C138.007 186.445 138.575 187.043 139.383 187.043C140.16 187.043 140.759 186.445 140.759 185.578V184.411H141.955V185.578C141.955 187.088 140.863 188.209 139.383 188.209ZM134.628 182.168V181.002H138.007L137.499 182.168H134.628ZM137.379 182.168L136.796 181.002H140.624V182.168H137.379ZM150.779 188V186.161V185.578V181.002H151.99V188H150.779ZM145.829 184.83V181.002H147.026V184.83C147.026 186.295 147.878 187.043 148.91 187.043C149.926 187.043 150.779 186.265 150.779 184.83H151.437C151.437 186.37 150.495 188.179 148.67 188.179C147.07 188.179 145.829 186.953 145.829 184.83ZM149.403 182.168V181.002H151.99L151.586 182.168H149.403ZM144.454 182.168V181.002H147.026L146.637 182.168H144.454ZM150.779 188L151.168 186.849H153.351V188H150.779ZM158.825 184.262C158.825 182.318 159.917 180.793 161.591 180.793C162.219 180.793 162.877 180.972 163.386 181.495V182.721C162.862 182.168 162.19 181.959 161.591 181.959C160.44 181.959 159.483 183.006 159.483 184.262H158.825ZM158.272 188V181.002H159.438V182.467L159.483 183.26V188H158.272ZM156.358 182.168V181.002H159.438L158.975 182.168H156.358ZM156.358 188V186.849H159.005L159.483 188H156.358ZM158.272 188L158.81 186.849H161.816V188H158.272ZM173.361 186.699C172.673 187.596 171.372 188.209 169.967 188.209C167.963 188.209 166.288 186.55 166.288 184.501C166.288 182.482 167.948 180.793 169.967 180.793C171.985 180.793 173.675 182.437 173.675 184.456C173.675 184.636 173.63 184.845 173.57 185.009H166.961V183.948H172.793L172.434 184.471C172.434 183.05 171.298 181.959 169.967 181.959C168.576 181.959 167.514 183.095 167.514 184.501C167.514 185.892 168.606 187.043 170.071 187.043C171.088 187.043 172 186.594 172.479 185.951L173.361 186.699ZM180.465 188.209C179.807 188.209 179.269 187.701 179.269 187.043C179.269 186.385 179.807 185.862 180.465 185.862C181.093 185.862 181.617 186.385 181.617 187.043C181.617 187.701 181.093 188.209 180.465 188.209Z" fill="#363131"/>
</svg>
