<svg width="275" height="265" viewBox="0 0 275 265" fill="none" xmlns="http://www.w3.org/2000/svg">
<rect width="275" height="265" rx="5" fill="#F7F4ED"/>
<path d="M28.436 42.216C27.68 42.216 26.987 42.081 26.357 41.811C25.727 41.535 25.22 41.13 24.836 40.596C24.452 40.062 24.254 39.402 24.242 38.616H25.61C25.61 39.144 25.739 39.579 25.997 39.921C26.255 40.257 26.597 40.509 27.023 40.677C27.449 40.839 27.914 40.92 28.418 40.92C28.964 40.92 29.438 40.833 29.84 40.659C30.242 40.485 30.551 40.257 30.767 39.975C30.989 39.687 31.1 39.372 31.1 39.03C31.1 38.55 30.953 38.163 30.659 37.869C30.365 37.569 29.93 37.326 29.354 37.14L27.356 36.438C26.42 36.102 25.712 35.718 25.232 35.286C24.752 34.854 24.512 34.248 24.512 33.468C24.512 32.592 24.848 31.878 25.52 31.326C26.198 30.774 27.158 30.498 28.4 30.498C29.552 30.498 30.452 30.765 31.1 31.299C31.748 31.827 32.12 32.538 32.216 33.432H30.83C30.74 32.91 30.494 32.505 30.092 32.217C29.696 31.923 29.132 31.776 28.4 31.776C27.656 31.776 27.077 31.941 26.663 32.271C26.249 32.601 26.042 33.018 26.042 33.522C26.042 33.936 26.171 34.266 26.429 34.512C26.693 34.752 27.104 34.968 27.662 35.16L30.002 35.97C30.812 36.24 31.451 36.618 31.919 37.104C32.393 37.59 32.63 38.22 32.63 38.994C32.63 39.594 32.468 40.137 32.144 40.623C31.826 41.109 31.355 41.496 30.731 41.784C30.107 42.072 29.342 42.216 28.436 42.216ZM37.5889 42L41.4769 30.696H43.1869L46.9849 42H45.5089L44.5549 39.102H40.0549L39.0649 42H37.5889ZM40.4149 38.004H44.1949L42.3049 32.406L40.4149 38.004ZM52.5148 42V30.696H56.4568C57.7468 30.696 58.7218 31.005 59.3818 31.623C60.0478 32.235 60.3808 33.042 60.3808 34.044C60.3808 35.034 60.0478 35.838 59.3818 36.456C58.7218 37.068 57.7468 37.374 56.4568 37.374H53.9188V42H52.5148ZM58.8508 42L55.6108 36.87H57.1408L60.6688 42H58.8508ZM53.9188 36.384H56.3488C57.1948 36.384 57.8368 36.177 58.2748 35.763C58.7188 35.343 58.9408 34.8 58.9408 34.134C58.9408 33.45 58.7278 32.907 58.3018 32.505C57.8818 32.103 57.2668 31.902 56.4568 31.902H53.9188V36.384ZM65.4263 42L69.3143 30.696H71.0243L74.8223 42H73.3463L72.3923 39.102H67.8923L66.9023 42H65.4263ZM68.2523 38.004H72.0323L70.1423 32.406L68.2523 38.004ZM80.3522 30.696H81.7562V35.682H87.3542V30.696H88.7402V42H87.3542V36.888H81.7562V42H80.3522V30.696ZM103.145 30.696H104.549V35.682H110.147V30.696H111.533V42H110.147V36.888H104.549V42H103.145V30.696ZM117.076 42L120.964 30.696H122.674L126.472 42H124.996L124.042 39.102H119.542L118.552 42H117.076ZM119.902 38.004H123.682L121.792 32.406L119.902 38.004ZM132.002 42V30.696H135.944C137.234 30.696 138.209 31.005 138.869 31.623C139.535 32.235 139.868 33.042 139.868 34.044C139.868 35.034 139.535 35.838 138.869 36.456C138.209 37.068 137.234 37.374 135.944 37.374H133.406V42H132.002ZM138.338 42L135.098 36.87H136.628L140.156 42H138.338ZM133.406 36.384H135.836C136.682 36.384 137.324 36.177 137.762 35.763C138.206 35.343 138.428 34.8 138.428 34.134C138.428 33.45 138.215 32.907 137.789 32.505C137.369 32.103 136.754 31.902 135.944 31.902H133.406V36.384ZM144.553 31.902V30.696H153.355V31.902H149.332L149.647 31.578V42H148.243V31.578L148.558 31.902H144.553ZM159.925 30.696V40.776H164.965V42H158.521V30.696H159.925ZM170.163 42V30.696H177.129V31.902H171.567V35.7H176.805V36.906H171.567V40.776H177.129V42H170.163ZM181.872 30.696H183.564L186.804 36.186H186.444L189.738 30.696H191.412L187.326 37.356V42H185.904V37.356L181.872 30.696ZM204.158 42V30.696H205.562V42H204.158ZM216.061 42.216C215.305 42.216 214.612 42.081 213.982 41.811C213.352 41.535 212.845 41.13 212.461 40.596C212.077 40.062 211.879 39.402 211.867 38.616H213.235C213.235 39.144 213.364 39.579 213.622 39.921C213.88 40.257 214.222 40.509 214.648 40.677C215.074 40.839 215.539 40.92 216.043 40.92C216.589 40.92 217.063 40.833 217.465 40.659C217.867 40.485 218.176 40.257 218.392 39.975C218.614 39.687 218.725 39.372 218.725 39.03C218.725 38.55 218.578 38.163 218.284 37.869C217.99 37.569 217.555 37.326 216.979 37.14L214.981 36.438C214.045 36.102 213.337 35.718 212.857 35.286C212.377 34.854 212.137 34.248 212.137 33.468C212.137 32.592 212.473 31.878 213.145 31.326C213.823 30.774 214.783 30.498 216.025 30.498C217.177 30.498 218.077 30.765 218.725 31.299C219.373 31.827 219.745 32.538 219.841 33.432H218.455C218.365 32.91 218.119 32.505 217.717 32.217C217.321 31.923 216.757 31.776 216.025 31.776C215.281 31.776 214.702 31.941 214.288 32.271C213.874 32.601 213.667 33.018 213.667 33.522C213.667 33.936 213.796 34.266 214.054 34.512C214.318 34.752 214.729 34.968 215.287 35.16L217.627 35.97C218.437 36.24 219.076 36.618 219.544 37.104C220.018 37.59 220.255 38.22 220.255 38.994C220.255 39.594 220.093 40.137 219.769 40.623C219.451 41.109 218.98 41.496 218.356 41.784C217.732 42.072 216.967 42.216 216.061 42.216Z" fill="#363131"/>
<rect width="182" height="20" transform="translate(20 56)" fill="#D7C6FF"/>
<path d="M31.6056 69.2093C29.6617 69.2093 28.0318 67.5346 28.0318 65.5009C28.0318 63.4673 29.6617 61.7925 31.6056 61.7925C33.5645 61.7925 35.0299 63.5869 35.0299 65.5009C35.0299 67.415 33.5645 69.2093 31.6056 69.2093ZM31.7252 68.043C33.071 68.043 34.1925 66.8916 34.1925 65.5009C34.1925 64.1252 33.071 62.9589 31.7252 62.9589C30.3794 62.9589 29.2579 64.1402 29.2579 65.5009C29.2579 66.8766 30.3794 68.043 31.7252 68.043ZM34.0879 69V66.5178L34.4168 65.5009L34.0879 64.4093V62.0019H35.2991V69H34.0879ZM34.0879 69L34.4766 67.8486H36.6598V69H34.0879ZM39.8762 69V62.0019H41.0426V63.871L41.0874 64.6636V69H39.8762ZM40.4295 65.157C40.4295 63.6019 41.3716 61.7925 43.1959 61.7925C44.8258 61.7925 46.037 63.0336 46.037 65.1421V69H44.8407V65.157C44.8407 63.7364 44.0332 62.9589 42.9566 62.9589C41.9398 62.9589 41.0874 63.7215 41.0874 65.157H40.4295ZM38.5155 63.1682V62.0019H41.0426L40.6688 63.1682H38.5155ZM38.5155 69V67.8486H40.6987L41.0874 69H38.5155ZM39.8762 69L40.2501 67.8486H42.3435V69H39.8762ZM43.5846 69V67.8486H45.6781L46.037 69H43.5846ZM44.8407 69L45.2295 67.8486H47.4127V69H44.8407ZM67.0193 67.6991C66.3315 68.5963 65.0305 69.2093 63.6249 69.2093C61.6212 69.2093 59.9464 67.5495 59.9464 65.5009C59.9464 63.4822 61.6063 61.7925 63.6249 61.7925C65.6436 61.7925 67.3334 63.4374 67.3334 65.4561C67.3334 65.6355 67.2885 65.8449 67.2287 66.0093H60.6193V64.9477H66.4511L66.0922 65.471C66.0922 64.0505 64.9558 62.9589 63.6249 62.9589C62.2343 62.9589 61.1726 64.0953 61.1726 65.5009C61.1726 66.8916 62.2642 68.043 63.7296 68.043C64.7464 68.043 65.6586 67.5944 66.1371 66.9514L67.0193 67.6991ZM77.189 69L73.7348 65.8598L70.2657 62.6299L70.3255 62.0019H71.0133L74.4825 65.2019L77.9367 68.357L77.8619 69H77.189ZM71.0133 69H70.3404L70.2657 68.357L73.7348 65.2019L77.189 62.0019H77.8769L77.9367 62.6299L74.4825 65.8598L71.0133 69ZM69.9965 63.1682V62.0019H71.0133L70.8787 63.1682H69.9965ZM70.7292 63.1682L70.2657 62.0019H73.2563V63.1682H70.7292ZM74.946 63.1682V62.0019H77.9367L77.4731 63.1682H74.946ZM77.3236 63.1682L77.189 62.0019H78.2058V63.1682H77.3236ZM69.9965 69V67.8486H70.8787L71.0133 69H69.9965ZM70.2657 69L70.7292 67.8486H73.2563V69H70.2657ZM74.946 69V67.8486H77.4731L77.9367 69H74.946ZM77.189 69L77.3236 67.8486H78.2058V69H77.189ZM81.1381 65.5159C81.1381 63.4374 82.8428 61.7925 84.9811 61.7925C86.2223 61.7925 87.269 62.1514 88.1811 62.9589L87.2241 63.7215C86.4914 63.1084 85.8484 62.9589 85.011 62.9589C83.5606 62.9589 82.3643 64.1103 82.3643 65.5308C82.3643 66.9364 83.4709 68.043 84.9662 68.043C85.9381 68.043 86.8952 67.5645 87.3737 66.8916L88.2559 67.6393C87.583 68.5664 86.2073 69.2093 84.8615 69.2093C82.8279 69.2093 81.1381 67.5645 81.1381 65.5159ZM88.1811 62.9589V65.0523H86.955V63.2729L88.1811 62.9589ZM98.4256 67.6991C97.7377 68.5963 96.4368 69.2093 95.0312 69.2093C93.0275 69.2093 91.3527 67.5495 91.3527 65.5009C91.3527 63.4822 93.0125 61.7925 95.0312 61.7925C97.0499 61.7925 98.7396 63.4374 98.7396 65.4561C98.7396 65.6355 98.6947 65.8449 98.6349 66.0093H92.0256V64.9477H97.8574L97.4985 65.471C97.4985 64.0505 96.362 62.9589 95.0312 62.9589C93.6405 62.9589 92.5789 64.0953 92.5789 65.5009C92.5789 66.8916 93.6704 68.043 95.1359 68.043C96.1527 68.043 97.0648 67.5944 97.5433 66.9514L98.4256 67.6991ZM106.128 69.2093C104.169 69.2093 102.704 67.415 102.704 65.5009C102.704 63.5869 104.169 61.7925 106.128 61.7925C108.072 61.7925 109.702 63.4673 109.702 65.5009C109.702 67.5346 108.072 69.2093 106.128 69.2093ZM106.008 68.043C107.354 68.043 108.476 66.8766 108.476 65.5009C108.476 64.1402 107.354 62.9589 106.008 62.9589C104.663 62.9589 103.541 64.1252 103.541 65.5009C103.541 66.8916 104.663 68.043 106.008 68.043ZM102.435 73.1271V62.0019H103.646V64.4093L103.317 65.5159L103.646 66.8168V73.1271H102.435ZM101.074 63.1682V62.0019H103.646L103.257 63.1682H101.074ZM101.074 73.1271V71.9757H103.257L103.646 73.1271H101.074ZM102.42 73.1271L102.913 71.9757H105.724V73.1271H102.42ZM116.791 69.2093C115.281 69.2093 114.204 68.0879 114.204 66.6075V59.5495H115.415V66.5776C115.415 67.4449 115.984 68.043 116.791 68.043C117.569 68.043 118.167 67.4449 118.167 66.5776V65.4112H119.363V66.5776C119.363 68.0879 118.271 69.2093 116.791 69.2093ZM112.036 63.1682V62.0019H115.415L114.907 63.1682H112.036ZM114.787 63.1682L114.204 62.0019H118.032V63.1682H114.787ZM123.372 69V67.8486H126.781L127.379 69H123.372ZM126.168 69L126.781 67.8486H130.191V69H126.168ZM123.372 63.1682V62.0019H127.379L126.781 63.1682H123.372ZM126.168 69V62.0019H127.379V69H126.168ZM126.811 60.3421C126.168 60.3421 125.63 59.8336 125.63 59.1757C125.63 58.5178 126.168 57.9944 126.811 57.9944C127.439 57.9944 127.978 58.5178 127.978 59.1757C127.978 59.8336 127.439 60.3421 126.811 60.3421ZM136.921 69.2093C134.813 69.2093 133.258 67.5047 133.258 65.5009C133.258 63.4972 134.888 61.7925 136.921 61.7925C138.94 61.7925 140.57 63.4972 140.57 65.5009C140.57 67.5047 139.015 69.2093 136.921 69.2093ZM136.921 68.043C138.282 68.043 139.344 66.9065 139.344 65.5009C139.344 64.0953 138.282 62.9589 136.921 62.9589C135.545 62.9589 134.484 64.0953 134.484 65.5009C134.484 66.9065 135.545 68.043 136.921 68.043ZM144.564 69V62.0019H145.73V63.871L145.775 64.6636V69H144.564ZM145.117 65.157C145.117 63.6019 146.059 61.7925 147.883 61.7925C149.513 61.7925 150.724 63.0336 150.724 65.1421V69H149.528V65.157C149.528 63.7364 148.721 62.9589 147.644 62.9589C146.627 62.9589 145.775 63.7215 145.775 65.157H145.117ZM143.203 63.1682V62.0019H145.73L145.356 63.1682H143.203ZM143.203 69V67.8486H145.386L145.775 69H143.203ZM144.564 69L144.938 67.8486H147.031V69H144.564ZM148.272 69V67.8486H150.366L150.724 69H148.272ZM149.528 69L149.917 67.8486H152.1V69H149.528ZM157.231 69.2093C155.287 69.2093 153.657 67.5346 153.657 65.5009C153.657 63.4673 155.287 61.7925 157.231 61.7925C159.189 61.7925 160.655 63.5869 160.655 65.5009C160.655 67.415 159.189 69.2093 157.231 69.2093ZM157.35 68.043C158.696 68.043 159.818 66.8916 159.818 65.5009C159.818 64.1252 158.696 62.9589 157.35 62.9589C156.004 62.9589 154.883 64.1402 154.883 65.5009C154.883 66.8766 156.004 68.043 157.35 68.043ZM159.713 69V66.5178L160.042 65.5009L159.713 64.4093V62.0019H160.924V69H159.713ZM159.713 69L160.102 67.8486H162.285V69H159.713ZM168.028 69V58.0542H169.24V69H168.028ZM165.217 69V67.8486H168.626L169.24 69H165.217ZM168.028 69L168.626 67.8486H172.036V69H168.028ZM165.232 59.2206V58.0542H169.24L168.626 59.2206H165.232ZM191.956 64.1252L193.033 64.7981C193.033 67.2206 191.164 69.1794 188.756 69.1794C186.678 69.1794 185.257 68.1028 185.257 66.2486C185.257 64.9925 185.885 63.9907 187.575 63.2729L187.859 64.0953C186.813 64.6336 186.528 65.3963 186.528 66.1439C186.528 67.2804 187.5 67.9832 188.756 67.9832C190.656 67.9832 191.956 66.443 191.956 64.1252ZM192.031 69L187.082 63.6467L188.278 63.1383L193.736 69H192.031ZM189.534 61.5084C189.534 60.985 189.041 60.5065 188.383 60.5065C187.785 60.5065 187.291 60.9252 187.291 61.5084C187.291 61.8972 187.441 62.2411 187.859 62.6748L188.113 62.9589L188.368 62.8542C189.1 62.5551 189.534 62.1664 189.534 61.5084ZM190.79 61.5533C190.79 62.4355 190.042 63.2131 189.026 63.5869L187.53 64.1252L186.813 63.3626C186.319 62.8542 186.035 62.3458 186.035 61.6579C186.035 60.372 187.067 59.3402 188.383 59.3402C189.743 59.3402 190.79 60.3421 190.79 61.5533Z" fill="#363131"/>
<rect width="203" height="20" transform="translate(20 81)" fill="#D7C6FF"/>
<path d="M31.5757 94L28.286 87.0019H29.6318L32.4131 92.9981H32.0393L34.8206 87.0019H36.1664L32.8766 94H31.5757ZM32.9514 88.1682V87.0019H36.1664L35.6879 88.1682H32.9514ZM35.1196 88.1682L34.8206 87.0019H36.8093V88.1682H35.1196ZM27.643 88.1682V87.0019H29.6318L29.3327 88.1682H27.643ZM28.7645 88.1682L28.286 87.0019H31.5009V88.1682H28.7645ZM46.0818 92.6991C45.394 93.5963 44.093 94.2093 42.6874 94.2093C40.6837 94.2093 39.0089 92.5495 39.0089 90.5009C39.0089 88.4822 40.6688 86.7925 42.6874 86.7925C44.7061 86.7925 46.3959 88.4374 46.3959 90.4561C46.3959 90.6355 46.351 90.8449 46.2912 91.0093H39.6818V89.9477H45.5136L45.1547 90.471C45.1547 89.0505 44.0183 87.9589 42.6874 87.9589C41.2968 87.9589 40.2351 89.0953 40.2351 90.5009C40.2351 91.8916 41.3267 93.043 42.7921 93.043C43.8089 93.043 44.7211 92.5944 45.1996 91.9514L46.0818 92.6991ZM52.4833 90.2617C52.4833 88.3178 53.5749 86.7925 55.2496 86.7925C55.8777 86.7925 56.5356 86.972 57.044 87.4953V88.7215C56.5207 88.1682 55.8478 87.9589 55.2496 87.9589C54.0982 87.9589 53.1412 89.0056 53.1412 90.2617H52.4833ZM51.93 94V87.0019H53.0964V88.4673L53.1412 89.2598V94H51.93ZM50.016 88.1682V87.0019H53.0964L52.6328 88.1682H50.016ZM50.016 94V92.8486H52.6627L53.1412 94H50.016ZM51.93 94L52.4683 92.8486H55.4739V94H51.93ZM63.5801 94.2093C62.339 94.2093 61.0978 93.9103 60.1408 93.4467L60.8137 92.4449C61.4717 92.9234 62.5184 93.1028 63.61 93.1028C65.1651 93.1028 65.9128 92.6991 65.9128 92.0561C65.9128 91.5327 65.4492 91.2187 64.1184 91.0243L62.9371 90.8748C61.3221 90.6505 60.3203 90.1869 60.3203 88.9458C60.3203 87.585 61.6661 86.7925 63.6399 86.7925C64.7763 86.7925 65.9726 87.0318 66.8848 87.5402L66.3165 88.4374C65.4193 88.0785 64.4773 87.8991 63.4605 87.8991C62.1894 87.8991 61.5165 88.2879 61.5165 88.8262C61.5165 89.3794 62.0249 89.5738 63.1763 89.7383L64.3277 89.8879C66.2717 90.1421 67.139 90.9047 67.139 91.9813C67.139 93.372 65.6735 94.2093 63.5801 94.2093ZM66.8848 87.5402V89.0355H65.6885V87.7495L66.8848 87.5402ZM60.1408 93.4467V91.9514H61.3371V93.2224L60.1408 93.4467ZM73.4806 94.2093C71.5367 94.2093 69.9068 92.5346 69.9068 90.5009C69.9068 88.4673 71.5367 86.7925 73.4806 86.7925C75.4395 86.7925 76.9049 88.5869 76.9049 90.5009C76.9049 92.415 75.4395 94.2093 73.4806 94.2093ZM73.6002 93.043C74.946 93.043 76.0675 91.8916 76.0675 90.5009C76.0675 89.1252 74.946 87.9589 73.6002 87.9589C72.2544 87.9589 71.1329 89.1402 71.1329 90.5009C71.1329 91.8766 72.2544 93.043 73.6002 93.043ZM75.9629 94V91.5178L76.2918 90.5009L75.9629 89.4093V87.0019H77.1741V94H75.9629ZM75.9629 94L76.3516 92.8486H78.5348V94H75.9629ZM85.3849 94.2093C83.8746 94.2093 82.798 93.0879 82.798 91.6075V84.5495H84.0092V91.5776C84.0092 92.4449 84.5774 93.043 85.3849 93.043C86.1624 93.043 86.7606 92.4449 86.7606 91.5776V90.4112H87.9568V91.5776C87.9568 93.0879 86.8652 94.2093 85.3849 94.2093ZM80.6297 88.1682V87.0019H84.0092L83.5008 88.1682H80.6297ZM83.3811 88.1682L82.798 87.0019H86.626V88.1682H83.3811ZM91.9658 94V92.8486H95.3751L95.9732 94H91.9658ZM94.762 94L95.3751 92.8486H98.7845V94H94.762ZM91.9658 88.1682V87.0019H95.9732L95.3751 88.1682H91.9658ZM94.762 94V87.0019H95.9732V94H94.762ZM95.405 85.3421C94.762 85.3421 94.2237 84.8336 94.2237 84.1757C94.2237 83.5178 94.762 82.9944 95.405 82.9944C96.0331 82.9944 96.5714 83.5178 96.5714 84.1757C96.5714 84.8336 96.0331 85.3421 95.405 85.3421ZM105.216 94V83.0542H106.427V94H105.216ZM102.405 94V92.8486H105.814L106.427 94H102.405ZM105.216 94L105.814 92.8486H109.223V94H105.216ZM102.42 84.2206V83.0542H106.427L105.814 84.2206H102.42ZM119.363 92.6991C118.675 93.5963 117.374 94.2093 115.969 94.2093C113.965 94.2093 112.29 92.5495 112.29 90.5009C112.29 88.4822 113.95 86.7925 115.969 86.7925C117.987 86.7925 119.677 88.4374 119.677 90.4561C119.677 90.6355 119.632 90.8449 119.572 91.0093H112.963V89.9477H118.795L118.436 90.471C118.436 89.0505 117.3 87.9589 115.969 87.9589C114.578 87.9589 113.516 89.0953 113.516 90.5009C113.516 91.8916 114.608 93.043 116.073 93.043C117.09 93.043 118.002 92.5944 118.481 91.9514L119.363 92.6991ZM133.482 90.5159C133.482 88.4374 135.187 86.7925 137.325 86.7925C138.566 86.7925 139.613 87.1514 140.525 87.9589L139.568 88.7215C138.835 88.1084 138.192 87.9589 137.355 87.9589C135.904 87.9589 134.708 89.1103 134.708 90.5308C134.708 91.9364 135.815 93.043 137.31 93.043C138.282 93.043 139.239 92.5645 139.717 91.8916L140.6 92.6393C139.927 93.5664 138.551 94.2093 137.205 94.2093C135.172 94.2093 133.482 92.5645 133.482 90.5159ZM140.525 87.9589V90.0523H139.299V88.2729L140.525 87.9589ZM146.702 90.2617C146.702 88.3178 147.794 86.7925 149.468 86.7925C150.096 86.7925 150.754 86.972 151.263 87.4953V88.7215C150.739 88.1682 150.067 87.9589 149.468 87.9589C148.317 87.9589 147.36 89.0056 147.36 90.2617H146.702ZM146.149 94V87.0019H147.315V88.4673L147.36 89.2598V94H146.149ZM144.235 88.1682V87.0019H147.315L146.852 88.1682H144.235ZM144.235 94V92.8486H146.881L147.36 94H144.235ZM146.149 94L146.687 92.8486H149.693V94H146.149ZM161.238 92.6991C160.55 93.5963 159.249 94.2093 157.844 94.2093C155.84 94.2093 154.165 92.5495 154.165 90.5009C154.165 88.4822 155.825 86.7925 157.844 86.7925C159.862 86.7925 161.552 88.4374 161.552 90.4561C161.552 90.6355 161.507 90.8449 161.447 91.0093H154.838V89.9477H160.67L160.311 90.471C160.311 89.0505 159.175 87.9589 157.844 87.9589C156.453 87.9589 155.391 89.0953 155.391 90.5009C155.391 91.8916 156.483 93.043 157.948 93.043C158.965 93.043 159.877 92.5944 160.356 91.9514L161.238 92.6991ZM167.699 94.2093C165.755 94.2093 164.126 92.5346 164.126 90.5009C164.126 88.4673 165.755 86.7925 167.699 86.7925C169.658 86.7925 171.124 88.5869 171.124 90.5009C171.124 92.415 169.658 94.2093 167.699 94.2093ZM167.819 93.043C169.165 93.043 170.286 91.8916 170.286 90.5009C170.286 89.1252 169.165 87.9589 167.819 87.9589C166.473 87.9589 165.352 89.1402 165.352 90.5009C165.352 91.8766 166.473 93.043 167.819 93.043ZM170.182 94V91.5178L170.511 90.5009L170.182 89.4093V87.0019H171.393V94H170.182ZM170.182 94L170.57 92.8486H172.754V94H170.182ZM179.604 94.2093C178.093 94.2093 177.017 93.0879 177.017 91.6075V84.5495H178.228V91.5776C178.228 92.4449 178.796 93.043 179.604 93.043C180.381 93.043 180.979 92.4449 180.979 91.5776V90.4112H182.176V91.5776C182.176 93.0879 181.084 94.2093 179.604 94.2093ZM174.848 88.1682V87.0019H178.228L177.72 88.1682H174.848ZM177.6 88.1682L177.017 87.0019H180.845V88.1682H177.6ZM186.185 94V92.8486H189.594L190.192 94H186.185ZM188.981 94L189.594 92.8486H193.003V94H188.981ZM186.185 88.1682V87.0019H190.192L189.594 88.1682H186.185ZM188.981 94V87.0019H190.192V94H188.981ZM189.624 85.3421C188.981 85.3421 188.442 84.8336 188.442 84.1757C188.442 83.5178 188.981 82.9944 189.624 82.9944C190.252 82.9944 190.79 83.5178 190.79 84.1757C190.79 84.8336 190.252 85.3421 189.624 85.3421ZM199.076 94L195.786 87.0019H197.132L199.913 92.9981H199.539L202.321 87.0019H203.666L200.377 94H199.076ZM200.451 88.1682V87.0019H203.666L203.188 88.1682H200.451ZM202.62 88.1682L202.321 87.0019H204.309V88.1682H202.62ZM195.143 88.1682V87.0019H197.132L196.833 88.1682H195.143ZM196.264 88.1682L195.786 87.0019H199.001V88.1682H196.264ZM213.582 92.6991C212.894 93.5963 211.593 94.2093 210.187 94.2093C208.184 94.2093 206.509 92.5495 206.509 90.5009C206.509 88.4822 208.169 86.7925 210.187 86.7925C212.206 86.7925 213.896 88.4374 213.896 90.4561C213.896 90.6355 213.851 90.8449 213.791 91.0093H207.182V89.9477H213.014L212.655 90.471C212.655 89.0505 211.518 87.9589 210.187 87.9589C208.797 87.9589 207.735 89.0953 207.735 90.5009C207.735 91.8916 208.827 93.043 210.292 93.043C211.309 93.043 212.221 92.5944 212.7 91.9514L213.582 92.6991Z" fill="#363131"/>
<rect width="192" height="20" transform="translate(20 106)" fill="#D7C6FF"/>
<path d="M32.8467 119.209C30.8879 119.209 29.4224 117.415 29.4224 115.501C29.4224 113.587 30.8879 111.793 32.8467 111.793C34.7907 111.793 36.4206 113.467 36.4206 115.501C36.4206 117.535 34.7907 119.209 32.8467 119.209ZM32.7271 118.043C34.0729 118.043 35.1944 116.877 35.1944 115.501C35.1944 114.14 34.0729 112.959 32.7271 112.959C31.3813 112.959 30.2598 114.125 30.2598 115.501C30.2598 116.892 31.3813 118.043 32.7271 118.043ZM29.1533 123.127V112.002H30.3645V114.409L30.0355 115.516L30.3645 116.817V123.127H29.1533ZM27.7925 113.168V112.002H30.3645L29.9757 113.168H27.7925ZM27.7925 123.127V121.976H29.9757L30.3645 123.127H27.7925ZM29.1383 123.127L29.6318 121.976H32.443V123.127H29.1383ZM42.0744 119.209C40.1304 119.209 38.5005 117.535 38.5005 115.501C38.5005 113.467 40.1304 111.793 42.0744 111.793C44.0332 111.793 45.4987 113.587 45.4987 115.501C45.4987 117.415 44.0332 119.209 42.0744 119.209ZM42.194 118.043C43.5398 118.043 44.6613 116.892 44.6613 115.501C44.6613 114.125 43.5398 112.959 42.194 112.959C40.8482 112.959 39.7267 114.14 39.7267 115.501C39.7267 116.877 40.8482 118.043 42.194 118.043ZM44.5566 119V116.518L44.8856 115.501L44.5566 114.409V112.002H45.7678V119H44.5566ZM44.5566 119L44.9454 117.849H47.1286V119H44.5566ZM52.4833 115.262C52.4833 113.318 53.5749 111.793 55.2496 111.793C55.8777 111.793 56.5356 111.972 57.044 112.495V113.721C56.5207 113.168 55.8478 112.959 55.2496 112.959C54.0982 112.959 53.1412 114.006 53.1412 115.262H52.4833ZM51.93 119V112.002H53.0964V113.467L53.1412 114.26V119H51.93ZM50.016 113.168V112.002H53.0964L52.6328 113.168H50.016ZM50.016 119V117.849H52.6627L53.1412 119H50.016ZM51.93 119L52.4683 117.849H55.4739V119H51.93ZM64.4474 119.209C62.9371 119.209 61.8605 118.088 61.8605 116.607V109.55H63.0717V116.578C63.0717 117.445 63.6399 118.043 64.4474 118.043C65.2249 118.043 65.8231 117.445 65.8231 116.578V115.411H67.0193V116.578C67.0193 118.088 65.9277 119.209 64.4474 119.209ZM59.6922 113.168V112.002H63.0717L62.5633 113.168H59.6922ZM62.4436 113.168L61.8605 112.002H65.6885V113.168H62.4436ZM71.2825 119V112.002H72.4488V113.871L72.4937 114.664V119H71.2825ZM71.8357 115.157C71.8357 113.602 72.7778 111.793 74.6021 111.793C76.232 111.793 77.4432 113.034 77.4432 115.142V119H76.247V115.157C76.247 113.736 75.4395 112.959 74.3629 112.959C73.346 112.959 72.4937 113.721 72.4937 115.157H71.8357ZM69.9217 113.168V112.002H72.4488L72.075 113.168H69.9217ZM69.9217 119V117.849H72.1049L72.4937 119H69.9217ZM71.2825 119L71.6563 117.849H73.7498V119H71.2825ZM74.9909 119V117.849H77.0843L77.4432 119H74.9909ZM76.247 119L76.6357 117.849H78.8189V119H76.247ZM87.9568 117.699C87.269 118.596 85.968 119.209 84.5624 119.209C82.5587 119.209 80.8839 117.55 80.8839 115.501C80.8839 113.482 82.5438 111.793 84.5624 111.793C86.5811 111.793 88.2709 113.437 88.2709 115.456C88.2709 115.636 88.226 115.845 88.1662 116.009H81.5568V114.948H87.3886L87.0297 115.471C87.0297 114.05 85.8933 112.959 84.5624 112.959C83.1718 112.959 82.1101 114.095 82.1101 115.501C82.1101 116.892 83.2017 118.043 84.6671 118.043C85.6839 118.043 86.5961 117.594 87.0746 116.951L87.9568 117.699ZM94.3583 115.262C94.3583 113.318 95.4499 111.793 97.1246 111.793C97.7527 111.793 98.4106 111.972 98.919 112.495V113.721C98.3957 113.168 97.7228 112.959 97.1246 112.959C95.9732 112.959 95.0162 114.006 95.0162 115.262H94.3583ZM93.805 119V112.002H94.9714V113.467L95.0162 114.26V119H93.805ZM91.891 113.168V112.002H94.9714L94.5078 113.168H91.891ZM91.891 119V117.849H94.5377L95.0162 119H91.891ZM93.805 119L94.3433 117.849H97.3489V119H93.805ZM116.791 119.209C115.281 119.209 114.204 118.088 114.204 116.607V109.55H115.415V116.578C115.415 117.445 115.984 118.043 116.791 118.043C117.569 118.043 118.167 117.445 118.167 116.578V115.411H119.363V116.578C119.363 118.088 118.271 119.209 116.791 119.209ZM112.036 113.168V112.002H115.415L114.907 113.168H112.036ZM114.787 113.168L114.204 112.002H118.032V113.168H114.787ZM123.626 119V108.054H124.837V119H123.626ZM124.179 115.157C124.179 113.602 125.122 111.793 126.946 111.793C128.516 111.793 129.787 113.034 129.787 115.157V119H128.591V115.157C128.591 113.692 127.738 112.959 126.707 112.959C125.69 112.959 124.837 113.721 124.837 115.157H124.179ZM122.265 109.221V108.054H124.837L124.449 109.221H122.265ZM122.265 119V117.849H124.449L124.837 119H122.265ZM123.626 119L124 117.849H126.094V119H123.626ZM127.335 119V117.849H129.428L129.787 119H127.335ZM128.591 119L128.979 117.849H131.163V119H128.591ZM136.293 119.209C134.349 119.209 132.719 117.535 132.719 115.501C132.719 113.467 134.349 111.793 136.293 111.793C138.252 111.793 139.717 113.587 139.717 115.501C139.717 117.415 138.252 119.209 136.293 119.209ZM136.413 118.043C137.759 118.043 138.88 116.892 138.88 115.501C138.88 114.125 137.759 112.959 136.413 112.959C135.067 112.959 133.945 114.14 133.945 115.501C133.945 116.877 135.067 118.043 136.413 118.043ZM138.775 119V116.518L139.104 115.501L138.775 114.409V112.002H139.987V119H138.775ZM138.775 119L139.164 117.849H141.347V119H138.775ZM148.197 119.209C146.687 119.209 145.61 118.088 145.61 116.607V109.55H146.822V116.578C146.822 117.445 147.39 118.043 148.197 118.043C148.975 118.043 149.573 117.445 149.573 116.578V115.411H150.769V116.578C150.769 118.088 149.678 119.209 148.197 119.209ZM143.442 113.168V112.002H146.822L146.313 113.168H143.442ZM146.194 113.168L145.61 112.002H149.438V113.168H146.194ZM165.292 119L163.767 112.002H164.978L166.413 119H165.292ZM165.95 119L167.505 112.54H168.537L167.071 119H165.95ZM169.583 119L168.118 112.54H169.135L170.69 119H169.583ZM170.226 119L171.662 112.002H172.873L171.348 119H170.226ZM165.606 118.821V117.849H166.787V118.821H165.606ZM167.969 113.692L167.849 112.645L168.671 112.54L168.791 113.602L167.969 113.692ZM170.854 118.821L169.868 118.746L170.032 117.849L171.034 117.923L170.854 118.821ZM163.213 113.168V112.002H164.978L164.709 113.168H163.213ZM164.14 113.168L163.767 112.002H166.249V113.168H164.14ZM170.391 113.168V112.002H172.873L172.499 113.168H170.391ZM171.931 113.168L171.662 112.002H173.426V113.168H171.931ZM175.716 119V117.849H179.125L179.723 119H175.716ZM178.512 119L179.125 117.849H182.534V119H178.512ZM175.716 113.168V112.002H179.723L179.125 113.168H175.716ZM178.512 119V112.002H179.723V119H178.512ZM179.155 110.342C178.512 110.342 177.974 109.834 177.974 109.176C177.974 108.518 178.512 107.994 179.155 107.994C179.783 107.994 180.321 108.518 180.321 109.176C180.321 109.834 179.783 110.342 179.155 110.342ZM188.966 119V108.054H190.177V119H188.966ZM186.155 119V117.849H189.564L190.177 119H186.155ZM188.966 119L189.564 117.849H192.973V119H188.966ZM186.17 109.221V108.054H190.177L189.564 109.221H186.17ZM199.435 119V108.054H200.646V119H199.435ZM196.623 119V117.849H200.033L200.646 119H196.623ZM199.435 119L200.033 117.849H203.442V119H199.435ZM196.638 109.221V108.054H200.646L200.033 109.221H196.638Z" fill="#363131"/>
<rect width="192" height="20" transform="translate(20 131)" fill="#D7C6FF"/>
<path d="M29.4075 144V133.054H30.6187V144H29.4075ZM29.9607 140.157C29.9607 138.602 30.9028 136.793 32.7271 136.793C34.2972 136.793 35.5682 138.034 35.5682 140.157V144H34.372V140.157C34.372 138.692 33.5196 137.959 32.4879 137.959C31.471 137.959 30.6187 138.721 30.6187 140.157H29.9607ZM28.0467 134.221V133.054H30.6187L30.2299 134.221H28.0467ZM28.0467 144V142.849H30.2299L30.6187 144H28.0467ZM29.4075 144L29.7813 142.849H31.8748V144H29.4075ZM33.1159 144V142.849H35.2093L35.5682 144H33.1159ZM34.372 144L34.7607 142.849H36.9439V144H34.372ZM46.0818 142.699C45.394 143.596 44.093 144.209 42.6874 144.209C40.6837 144.209 39.0089 142.55 39.0089 140.501C39.0089 138.482 40.6688 136.793 42.6874 136.793C44.7061 136.793 46.3959 138.437 46.3959 140.456C46.3959 140.636 46.351 140.845 46.2912 141.009H39.6818V139.948H45.5136L45.1547 140.471C45.1547 139.05 44.0183 137.959 42.6874 137.959C41.2968 137.959 40.2351 139.095 40.2351 140.501C40.2351 141.892 41.3267 143.043 42.7921 143.043C43.8089 143.043 44.7211 142.594 45.1996 141.951L46.0818 142.699ZM52.8721 144V133.054H54.0833V144H52.8721ZM50.0609 144V142.849H53.4702L54.0833 144H50.0609ZM52.8721 144L53.4702 142.849H56.8796V144H52.8721ZM50.0758 134.221V133.054H54.0833L53.4702 134.221H50.0758ZM64.253 144.209C62.2941 144.209 60.8287 142.415 60.8287 140.501C60.8287 138.587 62.2941 136.793 64.253 136.793C66.1969 136.793 67.8268 138.467 67.8268 140.501C67.8268 142.535 66.1969 144.209 64.253 144.209ZM64.1334 143.043C65.4791 143.043 66.6006 141.877 66.6006 140.501C66.6006 139.14 65.4791 137.959 64.1334 137.959C62.7876 137.959 61.6661 139.125 61.6661 140.501C61.6661 141.892 62.7876 143.043 64.1334 143.043ZM60.5595 148.127V137.002H61.7707V139.409L61.4418 140.516L61.7707 141.817V148.127H60.5595ZM59.1988 138.168V137.002H61.7707L61.382 138.168H59.1988ZM59.1988 148.127V146.976H61.382L61.7707 148.127H59.1988ZM60.5446 148.127L61.038 146.976H63.8492V148.127H60.5446ZM86.312 144V142.161V141.578V137.002H87.5232V144H86.312ZM81.3624 140.83V137.002H82.5587V140.83C82.5587 142.295 83.411 143.043 84.4428 143.043C85.4596 143.043 86.312 142.265 86.312 140.83H86.9699C86.9699 142.37 86.0279 144.179 84.2036 144.179C82.6036 144.179 81.3624 142.953 81.3624 140.83ZM84.9363 138.168V137.002H87.5232L87.1195 138.168H84.9363ZM79.9867 138.168V137.002H82.5587L82.1699 138.168H79.9867ZM86.312 144L86.7008 142.849H88.8839V144H86.312ZM95.6592 144.209C93.7004 144.209 92.2349 142.415 92.2349 140.501C92.2349 138.587 93.7004 136.793 95.6592 136.793C97.6032 136.793 99.2331 138.467 99.2331 140.501C99.2331 142.535 97.6032 144.209 95.6592 144.209ZM95.5396 143.043C96.8854 143.043 98.0069 141.877 98.0069 140.501C98.0069 139.14 96.8854 137.959 95.5396 137.959C94.1938 137.959 93.0723 139.125 93.0723 140.501C93.0723 141.892 94.1938 143.043 95.5396 143.043ZM91.9658 148.127V137.002H93.177V139.409L92.848 140.516L93.177 141.817V148.127H91.9658ZM90.605 138.168V137.002H93.177L92.7882 138.168H90.605ZM90.605 148.127V146.976H92.7882L93.177 148.127H90.605ZM91.9508 148.127L92.4443 146.976H95.2555V148.127H91.9508ZM105.216 144V133.054H106.427V144H105.216ZM102.405 144V142.849H105.814L106.427 144H102.405ZM105.216 144L105.814 142.849H109.223V144H105.216ZM102.42 134.221V133.054H106.427L105.814 134.221H102.42ZM119.363 142.699C118.675 143.596 117.374 144.209 115.969 144.209C113.965 144.209 112.29 142.55 112.29 140.501C112.29 138.482 113.95 136.793 115.969 136.793C117.987 136.793 119.677 138.437 119.677 140.456C119.677 140.636 119.632 140.845 119.572 141.009H112.963V139.948H118.795L118.436 140.471C118.436 139.05 117.3 137.959 115.969 137.959C114.578 137.959 113.516 139.095 113.516 140.501C113.516 141.892 114.608 143.043 116.073 143.043C117.09 143.043 118.002 142.594 118.481 141.951L119.363 142.699ZM125.794 144L122.505 137.002H123.851L126.632 142.998H126.258L129.039 137.002H130.385L127.095 144H125.794ZM127.17 138.168V137.002H130.385L129.907 138.168H127.17ZM129.338 138.168L129.039 137.002H131.028V138.168H129.338ZM121.862 138.168V137.002H123.851L123.551 138.168H121.862ZM122.983 138.168L122.505 137.002H125.72V138.168H122.983ZM140.301 142.699C139.613 143.596 138.312 144.209 136.906 144.209C134.902 144.209 133.228 142.55 133.228 140.501C133.228 138.482 134.888 136.793 136.906 136.793C138.925 136.793 140.615 138.437 140.615 140.456C140.615 140.636 140.57 140.845 140.51 141.009H133.901V139.948H139.732L139.373 140.471C139.373 139.05 138.237 137.959 136.906 137.959C135.516 137.959 134.454 139.095 134.454 140.501C134.454 141.892 135.545 143.043 137.011 143.043C138.028 143.043 138.94 142.594 139.418 141.951L140.301 142.699ZM147.091 144V133.054H148.302V144H147.091ZM144.28 144V142.849H147.689L148.302 144H144.28ZM147.091 144L147.689 142.849H151.098V144H147.091ZM144.295 134.221V133.054H148.302L147.689 134.221H144.295ZM165.112 140.86V137.002H166.309V140.86C166.309 142.31 167.161 143.073 168.193 143.073C169.21 143.073 170.062 142.28 170.062 140.86H170.72C170.72 142.4 169.778 144.209 167.954 144.209C166.369 144.209 165.112 142.968 165.112 140.86ZM166.249 144.897C166.279 146.333 166.967 147.11 168.103 147.11C169.12 147.11 170.062 146.407 170.062 144.987V137.002H171.273V144.987C171.273 147.095 169.793 148.307 168.088 148.307C166.398 148.307 165.083 147.095 165.083 145.107L166.249 144.897ZM163.737 138.168V137.002H166.309L165.92 138.168H163.737ZM165.471 138.168L165.112 137.002H167.565V138.168H165.471ZM170.451 138.168L170.062 137.002H172.634V138.168H170.451ZM168.806 138.168V137.002H171.273L170.899 138.168H168.806ZM178.796 144.209C176.688 144.209 175.133 142.505 175.133 140.501C175.133 138.497 176.763 136.793 178.796 136.793C180.815 136.793 182.445 138.497 182.445 140.501C182.445 142.505 180.89 144.209 178.796 144.209ZM178.796 143.043C180.157 143.043 181.219 141.907 181.219 140.501C181.219 139.095 180.157 137.959 178.796 137.959C177.42 137.959 176.359 139.095 176.359 140.501C176.359 141.907 177.42 143.043 178.796 143.043ZM190.999 144V142.161V141.578V137.002H192.211V144H190.999ZM186.05 140.83V137.002H187.246V140.83C187.246 142.295 188.099 143.043 189.13 143.043C190.147 143.043 190.999 142.265 190.999 140.83H191.657C191.657 142.37 190.715 144.179 188.891 144.179C187.291 144.179 186.05 142.953 186.05 140.83ZM189.624 138.168V137.002H192.211L191.807 138.168H189.624ZM184.674 138.168V137.002H187.246L186.857 138.168H184.674ZM190.999 144L191.388 142.849H193.571V144H190.999ZM199.046 140.262C199.046 138.318 200.137 136.793 201.812 136.793C202.44 136.793 203.098 136.972 203.607 137.495V138.721C203.083 138.168 202.41 137.959 201.812 137.959C200.661 137.959 199.704 139.006 199.704 140.262H199.046ZM198.493 144V137.002H199.659V138.467L199.704 139.26V144H198.493ZM196.579 138.168V137.002H199.659L199.195 138.168H196.579ZM196.579 144V142.849H199.225L199.704 144H196.579ZM198.493 144L199.031 142.849H202.036V144H198.493Z" fill="#363131"/>
<rect width="77" height="20" transform="translate(20 156)" fill="#D7C6FF"/>
<path d="M32.8318 169.209C30.8879 169.209 29.4224 167.415 29.4224 165.501C29.4224 163.587 30.8879 161.793 32.8318 161.793C34.7907 161.793 36.4056 163.467 36.4056 165.501C36.4056 167.535 34.7907 169.209 32.8318 169.209ZM32.7121 168.043C34.0579 168.043 35.1794 166.877 35.1794 165.501C35.1794 164.14 34.0579 162.959 32.7121 162.959C31.3664 162.959 30.2598 164.125 30.2598 165.501C30.2598 166.892 31.3664 168.043 32.7121 168.043ZM29.1533 169V158.054H30.3495V164.32L30.0206 165.561L30.3495 166.817V169H29.1533ZM27.7776 159.221V158.054H30.3495L29.9607 159.221H27.7776ZM42.0145 165.262C42.0145 163.318 43.1061 161.793 44.7809 161.793C45.4089 161.793 46.0669 161.972 46.5753 162.495V163.721C46.0519 163.168 45.379 162.959 44.7809 162.959C43.6295 162.959 42.6725 164.006 42.6725 165.262H42.0145ZM41.4613 169V162.002H42.6276V163.467L42.6725 164.26V169H41.4613ZM39.5473 163.168V162.002H42.6276L42.1641 163.168H39.5473ZM39.5473 169V167.849H42.194L42.6725 169H39.5473ZM41.4613 169L41.9996 167.849H45.0052V169H41.4613ZM52.5431 169.209C50.5992 169.209 48.9693 167.535 48.9693 165.501C48.9693 163.467 50.5992 161.793 52.5431 161.793C54.502 161.793 55.9674 163.587 55.9674 165.501C55.9674 167.415 54.502 169.209 52.5431 169.209ZM52.6627 168.043C54.0085 168.043 55.13 166.892 55.13 165.501C55.13 164.125 54.0085 162.959 52.6627 162.959C51.3169 162.959 50.1954 164.14 50.1954 165.501C50.1954 166.877 51.3169 168.043 52.6627 168.043ZM55.0254 169V166.518L55.3543 165.501L55.0254 164.409V162.002H56.2366V169H55.0254ZM55.0254 169L55.4141 167.849H57.5973V169H55.0254ZM60.8137 169V162.002H61.9801V163.871L62.0249 164.664V169H60.8137ZM61.367 165.157C61.367 163.602 62.3091 161.793 64.1334 161.793C65.7633 161.793 66.9745 163.034 66.9745 165.142V169H65.7782V165.157C65.7782 163.736 64.9707 162.959 63.8941 162.959C62.8773 162.959 62.0249 163.721 62.0249 165.157H61.367ZM59.453 163.168V162.002H61.9801L61.6063 163.168H59.453ZM59.453 169V167.849H61.6362L62.0249 169H59.453ZM60.8137 169L61.1876 167.849H63.281V169H60.8137ZM64.5221 169V167.849H66.6156L66.9745 169H64.5221ZM65.7782 169L66.167 167.849H68.3502V169H65.7782ZM75.9629 169V166.593L76.2918 165.546L75.9629 164.499V158.054H77.1741V169H75.9629ZM73.4806 169.209C71.5367 169.209 69.9068 167.535 69.9068 165.501C69.9068 163.467 71.5367 161.793 73.4806 161.793C75.4395 161.793 76.9049 163.587 76.9049 165.501C76.9049 167.415 75.4395 169.209 73.4806 169.209ZM73.6002 168.043C74.946 168.043 76.0675 166.892 76.0675 165.501C76.0675 164.125 74.946 162.959 73.6002 162.959C72.2544 162.959 71.1329 164.14 71.1329 165.501C71.1329 166.877 72.2544 168.043 73.6002 168.043ZM74.3329 159.221V158.054H77.1741L76.7404 159.221H74.3329ZM75.9629 169L76.3516 167.849H78.5348V169H75.9629ZM84.5923 169.209C83.9344 169.209 83.3961 168.701 83.3961 168.043C83.3961 167.385 83.9344 166.862 84.5923 166.862C85.2204 166.862 85.7438 167.385 85.7438 168.043C85.7438 168.701 85.2204 169.209 84.5923 169.209Z" fill="#363131"/>
<path d="M24.466 219.196C23.836 219.196 23.255 219.086 22.723 218.867C22.1957 218.648 21.7663 218.314 21.435 217.866C21.1083 217.418 20.9333 216.849 20.91 216.158H22.534C22.534 216.508 22.6203 216.795 22.793 217.019C22.9657 217.243 23.1967 217.411 23.486 217.523C23.78 217.63 24.102 217.684 24.452 217.684C24.788 217.684 25.0867 217.64 25.348 217.551C25.614 217.462 25.8217 217.336 25.971 217.173C26.125 217.005 26.202 216.807 26.202 216.578C26.202 216.275 26.1087 216.037 25.922 215.864C25.74 215.691 25.446 215.533 25.04 215.388L23.248 214.674C22.548 214.399 22.0113 214.079 21.638 213.715C21.2647 213.351 21.078 212.849 21.078 212.21C21.078 211.473 21.3697 210.875 21.953 210.418C22.5363 209.961 23.3507 209.732 24.396 209.732C25.4133 209.732 26.1997 209.97 26.755 210.446C27.3103 210.917 27.6253 211.575 27.7 212.42H26.076C26.0153 212.061 25.852 211.774 25.586 211.559C25.32 211.34 24.9233 211.23 24.396 211.23C23.9293 211.23 23.5607 211.328 23.29 211.524C23.0193 211.715 22.884 211.958 22.884 212.252C22.884 212.504 22.968 212.705 23.136 212.854C23.3087 212.999 23.5747 213.139 23.934 213.274L25.922 214.044C26.594 214.305 27.1097 214.634 27.469 215.031C27.8283 215.428 28.008 215.925 28.008 216.522C28.008 217.068 27.8703 217.542 27.595 217.943C27.3197 218.34 26.9183 218.648 26.391 218.867C25.8637 219.086 25.222 219.196 24.466 219.196ZM31.4757 210.964C31.1537 210.964 30.9017 210.88 30.7197 210.712C30.5424 210.539 30.4537 210.301 30.4537 209.998C30.4537 209.704 30.5424 209.471 30.7197 209.298C30.9017 209.121 31.1537 209.032 31.4757 209.032C31.7931 209.032 32.0427 209.121 32.2247 209.298C32.4067 209.471 32.4977 209.704 32.4977 209.998C32.4977 210.301 32.4067 210.539 32.2247 210.712C32.0427 210.88 31.7931 210.964 31.4757 210.964ZM30.6497 219V212.182H32.3017V219H30.6497ZM37.8895 219.196C37.3202 219.196 36.7998 219.047 36.3285 218.748C35.8618 218.445 35.4885 218.022 35.2085 217.481C34.9332 216.935 34.7955 216.298 34.7955 215.57C34.7955 214.851 34.9285 214.226 35.1945 213.694C35.4652 213.157 35.8245 212.744 36.2725 212.455C36.7252 212.161 37.2268 212.014 37.7775 212.014C38.2815 212.014 38.7178 212.135 39.0865 212.378C39.4552 212.616 39.7375 212.971 39.9335 213.442C40.1295 213.913 40.2275 214.492 40.2275 215.178H39.7095C39.7095 214.823 39.6372 214.522 39.4925 214.275C39.3478 214.023 39.1565 213.832 38.9185 213.701C38.6852 213.566 38.4308 213.498 38.1555 213.498C37.8242 213.498 37.5302 213.584 37.2735 213.757C37.0215 213.93 36.8232 214.172 36.6785 214.485C36.5338 214.793 36.4615 215.155 36.4615 215.57C36.4615 215.999 36.5338 216.373 36.6785 216.69C36.8232 217.007 37.0215 217.255 37.2735 217.432C37.5302 217.609 37.8195 217.698 38.1415 217.698C38.4028 217.698 38.6525 217.628 38.8905 217.488C39.1332 217.343 39.3292 217.143 39.4785 216.886C39.6325 216.629 39.7095 216.331 39.7095 215.99H40.2275C40.2275 216.704 40.1202 217.299 39.9055 217.775C39.6955 218.246 39.4132 218.601 39.0585 218.839C38.7038 219.077 38.3142 219.196 37.8895 219.196ZM40.0175 219L39.7095 217.32V209.396H41.3755V219H40.0175ZM46.7971 219.196C46.2184 219.196 45.6888 219.047 45.2081 218.748C44.7274 218.449 44.3424 218.032 44.0531 217.495C43.7638 216.954 43.6191 216.321 43.6191 215.598C43.6191 214.851 43.7614 214.21 44.0461 213.673C44.3354 213.136 44.7204 212.726 45.2011 212.441C45.6818 212.156 46.2138 212.014 46.7971 212.014C47.3384 212.014 47.8051 212.124 48.1971 212.343C48.5938 212.558 48.9111 212.852 49.1491 213.225C49.3918 213.594 49.5551 214.011 49.6391 214.478C49.7231 214.945 49.7278 215.425 49.6531 215.92H44.9351V215.024H48.4841L48.1621 215.234C48.1761 215.015 48.1644 214.793 48.1271 214.569C48.0944 214.345 48.0291 214.14 47.9311 213.953C47.8331 213.766 47.6931 213.617 47.5111 213.505C47.3338 213.388 47.1051 213.33 46.8251 213.33C46.4891 213.33 46.2044 213.414 45.9711 213.582C45.7378 213.75 45.5604 213.979 45.4391 214.268C45.3178 214.557 45.2571 214.884 45.2571 215.248V215.906C45.2571 216.289 45.3131 216.627 45.4251 216.921C45.5418 217.215 45.7121 217.446 45.9361 217.614C46.1648 217.782 46.4518 217.866 46.7971 217.866C47.1191 217.866 47.3898 217.791 47.6091 217.642C47.8284 217.493 47.9684 217.269 48.0291 216.97H49.6951C49.6251 217.409 49.4594 217.796 49.1981 218.132C48.9414 218.463 48.6078 218.725 48.1971 218.916C47.7864 219.103 47.3198 219.196 46.7971 219.196ZM51.9669 219V212.182H53.6189V219H51.9669ZM53.2129 216.018C53.2129 215.127 53.3133 214.389 53.5139 213.806C53.7146 213.223 53.9829 212.791 54.3189 212.511C54.6596 212.226 55.0376 212.084 55.4529 212.084C55.5649 212.084 55.6699 212.091 55.7679 212.105C55.8706 212.119 55.9709 212.14 56.0689 212.168L56.0409 213.82C55.9196 213.792 55.7889 213.769 55.6489 213.75C55.5089 213.731 55.3829 213.722 55.2709 213.722C54.9069 213.722 54.6013 213.811 54.3539 213.988C54.1113 214.161 53.9269 214.417 53.8009 214.758C53.6796 215.099 53.6189 215.519 53.6189 216.018H53.2129ZM62.069 219L61.859 217.348V214.618C61.859 214.142 61.761 213.79 61.565 213.561C61.3737 213.332 61.047 213.218 60.585 213.218C60.319 213.218 60.088 213.258 59.892 213.337C59.696 213.416 59.5444 213.531 59.437 213.68C59.3344 213.825 59.283 214.002 59.283 214.212H57.477C57.477 213.699 57.6007 213.281 57.848 212.959C58.0954 212.632 58.45 212.394 58.912 212.245C59.3787 212.091 59.9364 212.014 60.585 212.014C61.173 212.014 61.6864 212.11 62.125 212.301C62.5637 212.488 62.9044 212.777 63.147 213.169C63.3897 213.561 63.511 214.063 63.511 214.674V219H62.069ZM59.843 219.196C59.2597 219.196 58.772 219.096 58.38 218.895C57.9927 218.69 57.701 218.421 57.505 218.09C57.309 217.759 57.211 217.399 57.211 217.012C57.211 216.583 57.323 216.223 57.547 215.934C57.7757 215.64 58.0977 215.421 58.513 215.276C58.9284 215.127 59.4184 215.052 59.983 215.052C60.3517 215.052 60.6994 215.08 61.026 215.136C61.3574 215.192 61.6864 215.267 62.013 215.36V216.326C61.7564 216.242 61.4764 216.177 61.173 216.13C60.8697 216.083 60.585 216.06 60.319 216.06C59.927 216.06 59.605 216.132 59.353 216.277C59.101 216.422 58.975 216.667 58.975 217.012C58.975 217.264 59.0777 217.481 59.283 217.663C59.4884 217.845 59.815 217.936 60.263 217.936C60.6037 217.936 60.893 217.861 61.131 217.712C61.369 217.563 61.5487 217.376 61.67 217.152C61.796 216.928 61.859 216.704 61.859 216.48H62.251C62.251 216.97 62.16 217.423 61.978 217.838C61.796 218.249 61.5254 218.578 61.166 218.825C60.8114 219.072 60.3704 219.196 59.843 219.196Z" fill="#363131"/>
<path d="M24.452 237.154C23.7753 237.154 23.1547 236.979 22.59 236.629C22.0253 236.279 21.575 235.78 21.239 235.131C20.9077 234.478 20.742 233.701 20.742 232.8C20.742 232.03 20.8517 231.358 21.071 230.784C21.2903 230.21 21.589 229.734 21.967 229.356C22.3497 228.973 22.7837 228.689 23.269 228.502C23.7543 228.311 24.2607 228.215 24.788 228.215C25.3947 228.215 25.9407 228.336 26.426 228.579C26.9113 228.817 27.3523 229.195 27.749 229.713L27.042 230.063C26.6873 229.676 26.321 229.396 25.943 229.223C25.565 229.046 25.173 228.957 24.767 228.957C24.2023 228.957 23.6773 229.111 23.192 229.419C22.7113 229.727 22.324 230.168 22.03 230.742C21.7407 231.316 21.596 232.002 21.596 232.8C21.596 233.491 21.7103 234.107 21.939 234.648C22.1723 235.189 22.5037 235.616 22.933 235.929C23.367 236.242 23.885 236.398 24.487 236.398C24.9303 236.398 25.327 236.295 25.677 236.09C26.0317 235.885 26.3093 235.567 26.51 235.138C26.7153 234.709 26.818 234.158 26.818 233.486H27.14C27.14 234.228 27.0513 234.874 26.874 235.425C26.6967 235.976 26.4097 236.403 26.013 236.706C25.621 237.005 25.1007 237.154 24.452 237.154ZM26.993 237L26.818 234.893V233.472L24.522 233.388V232.8H27.623V237H26.993ZM30.541 237V230.35H31.353V237H30.541ZM31.052 233.955C31.052 233.124 31.1243 232.434 31.269 231.883C31.4137 231.332 31.6377 230.919 31.941 230.644C32.2443 230.369 32.6317 230.231 33.103 230.231C33.2663 230.231 33.4157 230.243 33.551 230.266C33.691 230.289 33.831 230.327 33.971 230.378L33.88 231.169C33.7447 231.118 33.5953 231.076 33.432 231.043C33.2687 231.006 33.1263 230.987 33.005 230.987C32.5897 230.987 32.2607 231.113 32.018 231.365C31.78 231.617 31.6097 231.967 31.507 232.415C31.4043 232.858 31.353 233.372 31.353 233.955H31.052ZM37.9569 237.154C37.3642 237.154 36.8415 237.021 36.3889 236.755C35.9362 236.489 35.5792 236.097 35.3179 235.579C35.0612 235.061 34.9329 234.426 34.9329 233.675C34.9329 232.924 35.0612 232.291 35.3179 231.778C35.5792 231.26 35.9362 230.868 36.3889 230.602C36.8415 230.336 37.3642 230.203 37.9569 230.203C38.5495 230.203 39.0722 230.336 39.5249 230.602C39.9775 230.868 40.3322 231.26 40.5889 231.778C40.8455 232.291 40.9739 232.924 40.9739 233.675C40.9739 234.426 40.8455 235.061 40.5889 235.579C40.3322 236.097 39.9775 236.489 39.5249 236.755C39.0722 237.021 38.5495 237.154 37.9569 237.154ZM37.9429 236.447C38.4329 236.447 38.8412 236.333 39.1679 236.104C39.4945 235.871 39.7372 235.546 39.8959 235.131C40.0592 234.716 40.1409 234.23 40.1409 233.675C40.1409 232.84 39.9612 232.168 39.6019 231.659C39.2472 231.15 38.7035 230.896 37.9709 230.896C37.4809 230.896 37.0725 231.013 36.7459 231.246C36.4239 231.475 36.1812 231.799 36.0179 232.219C35.8592 232.634 35.7799 233.12 35.7799 233.675C35.7799 234.506 35.9572 235.175 36.3119 235.684C36.6712 236.193 37.2149 236.447 37.9429 236.447ZM42.2707 230.357H43.1107L44.9377 236.16H44.8117L46.6177 230.658H47.2337L49.0187 236.174H48.9137L50.7407 230.357H51.5527L49.3757 237H48.5917L46.8487 231.841H46.9747L45.2387 237H44.4617L42.2707 230.357ZM55.5642 237.154C55.2188 237.154 54.9108 237.086 54.6402 236.951C54.3742 236.816 54.1642 236.615 54.0102 236.349C53.8608 236.083 53.7862 235.754 53.7862 235.362V228.467H54.5772V235.348C54.5772 236.104 54.9272 236.482 55.6272 236.482C55.8325 236.482 56.0285 236.459 56.2152 236.412C56.4018 236.365 56.6118 236.3 56.8452 236.216L56.9572 236.811C56.7285 236.914 56.4998 236.995 56.2712 237.056C56.0425 237.121 55.8068 237.154 55.5642 237.154ZM52.6452 230.945V230.357H56.8242V230.945H52.6452ZM63.8411 237V233.087C63.8411 232.382 63.6708 231.843 63.3301 231.47C62.9941 231.097 62.5298 230.91 61.9371 230.91C61.5031 230.91 61.1274 231.029 60.8101 231.267C60.4974 231.505 60.2571 231.839 60.0891 232.268C59.9258 232.697 59.8441 233.199 59.8441 233.773H59.4871C59.4871 233.045 59.5851 232.415 59.7811 231.883C59.9818 231.346 60.2758 230.933 60.6631 230.644C61.0551 230.35 61.5404 230.203 62.1191 230.203C62.6324 230.203 63.0758 230.317 63.4491 230.546C63.8271 230.775 64.1188 231.106 64.3241 231.54C64.5294 231.969 64.6321 232.485 64.6321 233.087V237H63.8411ZM59.0321 237V227.48H59.8441V237H59.0321ZM71.1175 228.355H72.2865L75.5415 234.69H75.4435L78.6985 228.355H79.8465V237H79.0205V229.104H79.1885L75.7725 235.838H75.2195L71.8175 229.153H71.9295V237H71.1175V228.355ZM87.1126 237L87.0076 235.621V232.681C87.0076 232.014 86.8629 231.54 86.5736 231.26C86.2843 230.98 85.8713 230.84 85.3346 230.84C85.0359 230.84 84.7583 230.884 84.5016 230.973C84.2449 231.057 84.0396 231.195 83.8856 231.386C83.7316 231.573 83.6546 231.82 83.6546 232.128H82.7306C82.7306 231.657 82.8473 231.281 83.0806 231.001C83.3139 230.716 83.6266 230.513 84.0186 230.392C84.4153 230.266 84.8539 230.203 85.3346 230.203C85.8106 230.203 86.2353 230.287 86.6086 230.455C86.9819 230.618 87.2759 230.884 87.4906 231.253C87.7099 231.617 87.8196 232.098 87.8196 232.695V237H87.1126ZM84.8026 237.154C84.2706 237.154 83.8319 237.058 83.4866 236.867C83.1413 236.671 82.8846 236.421 82.7166 236.118C82.5486 235.815 82.4646 235.502 82.4646 235.18C82.4646 234.713 82.5766 234.34 82.8006 234.06C83.0293 233.78 83.3326 233.577 83.7106 233.451C84.0933 233.325 84.5109 233.262 84.9636 233.262C85.3043 233.262 85.6566 233.302 86.0206 233.381C86.3893 233.456 86.7416 233.561 87.0776 233.696V234.242C86.7883 234.116 86.4546 234.016 86.0766 233.941C85.6986 233.866 85.3556 233.829 85.0476 233.829C84.5716 233.829 84.1656 233.932 83.8296 234.137C83.4936 234.342 83.3256 234.69 83.3256 235.18C83.3256 235.549 83.4493 235.861 83.6966 236.118C83.9486 236.375 84.3523 236.503 84.9076 236.503C85.2856 236.503 85.6333 236.412 85.9506 236.23C86.2679 236.048 86.5223 235.822 86.7136 235.551C86.9096 235.28 87.0076 235.007 87.0076 234.732H87.2106C87.2106 235.157 87.1103 235.553 86.9096 235.922C86.7136 236.291 86.4336 236.589 86.0696 236.818C85.7103 237.042 85.2879 237.154 84.8026 237.154ZM90.8044 237V230.35H91.6164V237H90.8044ZM91.3154 233.955C91.3154 233.124 91.3878 232.434 91.5324 231.883C91.6771 231.332 91.9011 230.919 92.2044 230.644C92.5078 230.369 92.8951 230.231 93.3665 230.231C93.5298 230.231 93.6791 230.243 93.8145 230.266C93.9544 230.289 94.0944 230.327 94.2345 230.378L94.1435 231.169C94.0081 231.118 93.8588 231.076 93.6954 231.043C93.5321 231.006 93.3898 230.987 93.2685 230.987C92.8531 230.987 92.5241 231.113 92.2815 231.365C92.0434 231.617 91.8731 231.967 91.7704 232.415C91.6678 232.858 91.6164 233.372 91.6164 233.955H91.3154ZM95.9243 237V227.48H96.7363V237H95.9243ZM96.5963 233.353L100.264 230.357H101.433L96.5963 234.242V233.353ZM100.572 237L97.3243 232.821L98.1993 232.716L101.58 237H100.572ZM106.121 237.154C105.542 237.154 105.031 237.007 104.588 236.713C104.149 236.414 103.804 236.006 103.552 235.488C103.3 234.965 103.174 234.37 103.174 233.703C103.174 232.975 103.297 232.35 103.545 231.827C103.797 231.304 104.142 230.903 104.581 230.623C105.024 230.343 105.537 230.203 106.121 230.203C106.611 230.203 107.026 230.303 107.367 230.504C107.712 230.7 107.99 230.968 108.2 231.309C108.41 231.65 108.557 232.035 108.641 232.464C108.729 232.893 108.764 233.337 108.746 233.794H103.839V233.234H108.249L107.927 233.444C107.941 233.141 107.922 232.84 107.871 232.541C107.824 232.238 107.733 231.96 107.598 231.708C107.467 231.456 107.283 231.253 107.045 231.099C106.807 230.945 106.501 230.868 106.128 230.868C105.652 230.868 105.255 230.992 104.938 231.239C104.62 231.482 104.382 231.799 104.224 232.191C104.07 232.578 103.993 232.994 103.993 233.437V233.78C103.993 234.289 104.07 234.746 104.224 235.152C104.382 235.558 104.618 235.88 104.931 236.118C105.248 236.356 105.645 236.475 106.121 236.475C106.611 236.475 107.01 236.356 107.318 236.118C107.63 235.875 107.817 235.521 107.878 235.054H108.746C108.676 235.497 108.519 235.875 108.277 236.188C108.039 236.501 107.735 236.741 107.367 236.909C106.998 237.072 106.583 237.154 106.121 237.154ZM113.189 237.154C112.844 237.154 112.536 237.086 112.265 236.951C111.999 236.816 111.789 236.615 111.635 236.349C111.486 236.083 111.411 235.754 111.411 235.362V228.467H112.202V235.348C112.202 236.104 112.552 236.482 113.252 236.482C113.457 236.482 113.653 236.459 113.84 236.412C114.027 236.365 114.237 236.3 114.47 236.216L114.582 236.811C114.353 236.914 114.125 236.995 113.896 237.056C113.667 237.121 113.432 237.154 113.189 237.154ZM110.27 230.945V230.357H114.449V230.945H110.27ZM117.098 228.607C116.925 228.607 116.785 228.553 116.678 228.446C116.571 228.339 116.517 228.203 116.517 228.04C116.517 227.881 116.571 227.755 116.678 227.662C116.785 227.564 116.925 227.515 117.098 227.515C117.28 227.515 117.422 227.564 117.525 227.662C117.628 227.755 117.679 227.881 117.679 228.04C117.679 228.203 117.628 228.339 117.525 228.446C117.422 228.553 117.28 228.607 117.098 228.607ZM116.692 237V230.35H117.504V237H116.692ZM125.711 237V233.087C125.711 232.382 125.54 231.843 125.2 231.47C124.864 231.097 124.399 230.91 123.807 230.91C123.373 230.91 122.997 231.029 122.68 231.267C122.367 231.505 122.127 231.839 121.959 232.268C121.795 232.697 121.714 233.199 121.714 233.773H121.357C121.357 233.045 121.455 232.415 121.651 231.883C121.851 231.346 122.145 230.933 122.533 230.644C122.925 230.35 123.41 230.203 123.989 230.203C124.502 230.203 124.945 230.317 125.319 230.546C125.697 230.775 125.988 231.106 126.194 231.54C126.399 231.969 126.502 232.485 126.502 233.087V237H125.711ZM120.902 237V230.357H121.588L121.714 231.995V237H120.902ZM131.734 240.409C131.095 240.409 130.535 240.316 130.054 240.129C129.574 239.947 129.198 239.7 128.927 239.387C128.661 239.074 128.528 238.727 128.528 238.344C128.528 237.807 128.724 237.399 129.116 237.119C129.513 236.844 130.029 236.706 130.663 236.706L130.971 237.049C130.444 237.049 130.036 237.163 129.746 237.392C129.457 237.621 129.312 237.931 129.312 238.323C129.312 238.71 129.513 239.044 129.914 239.324C130.32 239.604 130.927 239.744 131.734 239.744C132.341 239.744 132.873 239.658 133.33 239.485C133.792 239.317 134.152 239.093 134.408 238.813C134.67 238.538 134.8 238.239 134.8 237.917C134.8 237.684 134.712 237.481 134.534 237.308C134.362 237.135 134.096 237.049 133.736 237.049H130.971C130.519 237.049 130.141 236.984 129.837 236.853C129.534 236.722 129.303 236.55 129.144 236.335C128.99 236.12 128.913 235.892 128.913 235.649C128.913 235.369 128.99 235.136 129.144 234.949C129.303 234.758 129.506 234.613 129.753 234.515C130.001 234.417 130.26 234.368 130.53 234.368L130.635 234.704C130.491 234.704 130.344 234.739 130.194 234.809C130.045 234.874 129.917 234.975 129.809 235.11C129.707 235.241 129.655 235.409 129.655 235.614C129.655 235.843 129.749 236.036 129.935 236.195C130.122 236.354 130.467 236.433 130.971 236.433H133.736C134.324 236.433 134.784 236.566 135.115 236.832C135.451 237.098 135.619 237.45 135.619 237.889C135.619 238.3 135.465 238.699 135.157 239.086C134.849 239.473 134.406 239.791 133.827 240.038C133.249 240.285 132.551 240.409 131.734 240.409ZM131.986 235.11C131.482 235.11 131.032 235.007 130.635 234.802C130.243 234.592 129.933 234.303 129.704 233.934C129.476 233.561 129.361 233.134 129.361 232.653C129.361 232.168 129.476 231.741 129.704 231.372C129.933 231.003 130.243 230.716 130.635 230.511C131.032 230.306 131.482 230.203 131.986 230.203C132.476 230.203 132.915 230.306 133.302 230.511C133.694 230.716 134.005 231.003 134.233 231.372C134.462 231.741 134.576 232.168 134.576 232.653C134.576 233.134 134.462 233.561 134.233 233.934C134.005 234.303 133.694 234.592 133.302 234.802C132.915 235.007 132.476 235.11 131.986 235.11ZM131.979 234.508C132.535 234.508 132.971 234.333 133.288 233.983C133.61 233.628 133.771 233.185 133.771 232.653C133.771 232.116 133.61 231.678 133.288 231.337C132.971 230.996 132.537 230.826 131.986 230.826C131.431 230.826 130.99 230.996 130.663 231.337C130.341 231.678 130.18 232.116 130.18 232.653C130.18 233.185 130.341 233.628 130.663 233.983C130.99 234.333 131.429 234.508 131.979 234.508ZM134.079 231.253L133.68 231.155C133.68 230.768 133.748 230.429 133.883 230.14C134.023 229.846 134.226 229.617 134.492 229.454C134.763 229.291 135.097 229.209 135.493 229.209L135.409 230.035C134.98 230.035 134.651 230.135 134.422 230.336C134.194 230.532 134.079 230.838 134.079 231.253ZM142.775 230.021H143.566V233.115H146.548V233.801H143.566V236.895H142.775V233.801H139.793V233.115H142.775V230.021ZM154.636 237.154C154.071 237.154 153.553 237.051 153.082 236.846C152.611 236.636 152.233 236.333 151.948 235.936C151.663 235.535 151.521 235.047 151.521 234.473H152.305C152.305 234.912 152.412 235.273 152.627 235.558C152.842 235.843 153.124 236.055 153.474 236.195C153.829 236.33 154.211 236.398 154.622 236.398C155.093 236.398 155.497 236.321 155.833 236.167C156.169 236.008 156.426 235.803 156.603 235.551C156.785 235.299 156.876 235.031 156.876 234.746C156.876 234.331 156.75 233.995 156.498 233.738C156.251 233.481 155.891 233.281 155.42 233.136L153.985 232.674C153.243 232.417 152.685 232.128 152.312 231.806C151.939 231.484 151.752 231.029 151.752 230.441C151.752 229.788 151.999 229.253 152.494 228.838C152.989 228.423 153.7 228.215 154.629 228.215C155.464 228.215 156.12 228.406 156.596 228.789C157.077 229.172 157.354 229.673 157.429 230.294H156.624C156.549 229.865 156.344 229.536 156.008 229.307C155.677 229.074 155.217 228.957 154.629 228.957C153.994 228.957 153.502 229.102 153.152 229.391C152.807 229.676 152.634 230.04 152.634 230.483C152.634 230.842 152.744 231.127 152.963 231.337C153.182 231.542 153.528 231.724 153.999 231.883L155.735 232.443C156.342 232.63 156.829 232.905 157.198 233.269C157.571 233.628 157.758 234.116 157.758 234.732C157.758 235.157 157.639 235.553 157.401 235.922C157.163 236.291 156.813 236.589 156.351 236.818C155.889 237.042 155.317 237.154 154.636 237.154ZM162.447 237.154C162.101 237.154 161.793 237.086 161.523 236.951C161.257 236.816 161.047 236.615 160.893 236.349C160.743 236.083 160.669 235.754 160.669 235.362V228.467H161.46V235.348C161.46 236.104 161.81 236.482 162.51 236.482C162.715 236.482 162.911 236.459 163.098 236.412C163.284 236.365 163.494 236.3 163.728 236.216L163.84 236.811C163.611 236.914 163.382 236.995 163.154 237.056C162.925 237.121 162.689 237.154 162.447 237.154ZM159.528 230.945V230.357H163.707V230.945H159.528ZM165.914 237V230.35H166.726V237H165.914ZM166.425 233.955C166.425 233.124 166.498 232.434 166.642 231.883C166.787 231.332 167.011 230.919 167.314 230.644C167.618 230.369 168.005 230.231 168.476 230.231C168.64 230.231 168.789 230.243 168.924 230.266C169.064 230.289 169.204 230.327 169.344 230.378L169.253 231.169C169.118 231.118 168.969 231.076 168.805 231.043C168.642 231.006 168.5 230.987 168.378 230.987C167.963 230.987 167.634 231.113 167.391 231.365C167.153 231.617 166.983 231.967 166.88 232.415C166.778 232.858 166.726 233.372 166.726 233.955H166.425ZM175.087 237L174.982 235.621V232.681C174.982 232.014 174.838 231.54 174.548 231.26C174.259 230.98 173.846 230.84 173.309 230.84C173.011 230.84 172.733 230.884 172.476 230.973C172.22 231.057 172.014 231.195 171.86 231.386C171.706 231.573 171.629 231.82 171.629 232.128H170.705C170.705 231.657 170.822 231.281 171.055 231.001C171.289 230.716 171.601 230.513 171.993 230.392C172.39 230.266 172.829 230.203 173.309 230.203C173.785 230.203 174.21 230.287 174.583 230.455C174.957 230.618 175.251 230.884 175.465 231.253C175.685 231.617 175.794 232.098 175.794 232.695V237H175.087ZM172.777 237.154C172.245 237.154 171.807 237.058 171.461 236.867C171.116 236.671 170.859 236.421 170.691 236.118C170.523 235.815 170.439 235.502 170.439 235.18C170.439 234.713 170.551 234.34 170.775 234.06C171.004 233.78 171.307 233.577 171.685 233.451C172.068 233.325 172.486 233.262 172.938 233.262C173.279 233.262 173.631 233.302 173.995 233.381C174.364 233.456 174.716 233.561 175.052 233.696V234.242C174.763 234.116 174.429 234.016 174.051 233.941C173.673 233.866 173.33 233.829 173.022 233.829C172.546 233.829 172.14 233.932 171.804 234.137C171.468 234.342 171.3 234.69 171.3 235.18C171.3 235.549 171.424 235.861 171.671 236.118C171.923 236.375 172.327 236.503 172.882 236.503C173.26 236.503 173.608 236.412 173.925 236.23C174.243 236.048 174.497 235.822 174.688 235.551C174.884 235.28 174.982 235.007 174.982 234.732H175.185C175.185 235.157 175.085 235.553 174.884 235.922C174.688 236.291 174.408 236.589 174.044 236.818C173.685 237.042 173.263 237.154 172.777 237.154ZM180.718 237.154C180.373 237.154 180.065 237.086 179.794 236.951C179.528 236.816 179.318 236.615 179.164 236.349C179.015 236.083 178.94 235.754 178.94 235.362V228.467H179.731V235.348C179.731 236.104 180.081 236.482 180.781 236.482C180.986 236.482 181.182 236.459 181.369 236.412C181.556 236.365 181.766 236.3 181.999 236.216L182.111 236.811C181.882 236.914 181.654 236.995 181.425 237.056C181.196 237.121 180.961 237.154 180.718 237.154ZM177.799 230.945V230.357H181.978V230.945H177.799ZM186.405 237.154C185.826 237.154 185.315 237.007 184.872 236.713C184.433 236.414 184.088 236.006 183.836 235.488C183.584 234.965 183.458 234.37 183.458 233.703C183.458 232.975 183.582 232.35 183.829 231.827C184.081 231.304 184.426 230.903 184.865 230.623C185.308 230.343 185.822 230.203 186.405 230.203C186.895 230.203 187.31 230.303 187.651 230.504C187.996 230.7 188.274 230.968 188.484 231.309C188.694 231.65 188.841 232.035 188.925 232.464C189.014 232.893 189.049 233.337 189.03 233.794H184.123V233.234H188.533L188.211 233.444C188.225 233.141 188.206 232.84 188.155 232.541C188.108 232.238 188.017 231.96 187.882 231.708C187.751 231.456 187.567 231.253 187.329 231.099C187.091 230.945 186.785 230.868 186.412 230.868C185.936 230.868 185.539 230.992 185.222 231.239C184.905 231.482 184.667 231.799 184.508 232.191C184.354 232.578 184.277 232.994 184.277 233.437V233.78C184.277 234.289 184.354 234.746 184.508 235.152C184.667 235.558 184.902 235.88 185.215 236.118C185.532 236.356 185.929 236.475 186.405 236.475C186.895 236.475 187.294 236.356 187.602 236.118C187.915 235.875 188.101 235.521 188.162 235.054H189.03C188.96 235.497 188.804 235.875 188.561 236.188C188.323 236.501 188.02 236.741 187.651 236.909C187.282 237.072 186.867 237.154 186.405 237.154ZM193.774 240.409C193.135 240.409 192.575 240.316 192.094 240.129C191.614 239.947 191.238 239.7 190.967 239.387C190.701 239.074 190.568 238.727 190.568 238.344C190.568 237.807 190.764 237.399 191.156 237.119C191.553 236.844 192.069 236.706 192.703 236.706L193.011 237.049C192.484 237.049 192.076 237.163 191.786 237.392C191.497 237.621 191.352 237.931 191.352 238.323C191.352 238.71 191.553 239.044 191.954 239.324C192.36 239.604 192.967 239.744 193.774 239.744C194.381 239.744 194.913 239.658 195.37 239.485C195.832 239.317 196.192 239.093 196.448 238.813C196.71 238.538 196.84 238.239 196.84 237.917C196.84 237.684 196.752 237.481 196.574 237.308C196.402 237.135 196.136 237.049 195.776 237.049H193.011C192.559 237.049 192.181 236.984 191.877 236.853C191.574 236.722 191.343 236.55 191.184 236.335C191.03 236.12 190.953 235.892 190.953 235.649C190.953 235.369 191.03 235.136 191.184 234.949C191.343 234.758 191.546 234.613 191.793 234.515C192.041 234.417 192.3 234.368 192.57 234.368L192.675 234.704C192.531 234.704 192.384 234.739 192.234 234.809C192.085 234.874 191.957 234.975 191.849 235.11C191.747 235.241 191.695 235.409 191.695 235.614C191.695 235.843 191.789 236.036 191.975 236.195C192.162 236.354 192.507 236.433 193.011 236.433H195.776C196.364 236.433 196.824 236.566 197.155 236.832C197.491 237.098 197.659 237.45 197.659 237.889C197.659 238.3 197.505 238.699 197.197 239.086C196.889 239.473 196.446 239.791 195.867 240.038C195.289 240.285 194.591 240.409 193.774 240.409ZM194.026 235.11C193.522 235.11 193.072 235.007 192.675 234.802C192.283 234.592 191.973 234.303 191.744 233.934C191.516 233.561 191.401 233.134 191.401 232.653C191.401 232.168 191.516 231.741 191.744 231.372C191.973 231.003 192.283 230.716 192.675 230.511C193.072 230.306 193.522 230.203 194.026 230.203C194.516 230.203 194.955 230.306 195.342 230.511C195.734 230.716 196.045 231.003 196.273 231.372C196.502 231.741 196.616 232.168 196.616 232.653C196.616 233.134 196.502 233.561 196.273 233.934C196.045 234.303 195.734 234.592 195.342 234.802C194.955 235.007 194.516 235.11 194.026 235.11ZM194.019 234.508C194.575 234.508 195.011 234.333 195.328 233.983C195.65 233.628 195.811 233.185 195.811 232.653C195.811 232.116 195.65 231.678 195.328 231.337C195.011 230.996 194.577 230.826 194.026 230.826C193.471 230.826 193.03 230.996 192.703 231.337C192.381 231.678 192.22 232.116 192.22 232.653C192.22 233.185 192.381 233.628 192.703 233.983C193.03 234.333 193.469 234.508 194.019 234.508ZM196.119 231.253L195.72 231.155C195.72 230.768 195.788 230.429 195.923 230.14C196.063 229.846 196.266 229.617 196.532 229.454C196.803 229.291 197.137 229.209 197.533 229.209L197.449 230.035C197.02 230.035 196.691 230.135 196.462 230.336C196.234 230.532 196.119 230.838 196.119 231.253ZM198.726 230.357H199.615L201.988 236.293H201.757L203.521 230.357H204.361L201.883 238.4C201.701 239.007 201.445 239.492 201.113 239.856C200.787 240.225 200.353 240.409 199.811 240.409C199.531 240.409 199.27 240.365 199.027 240.276C198.785 240.187 198.533 240.061 198.271 239.898V239.114C198.514 239.324 198.75 239.473 198.978 239.562C199.207 239.655 199.447 239.702 199.699 239.702C200.012 239.702 200.266 239.599 200.462 239.394C200.663 239.189 200.826 238.93 200.952 238.617C201.083 238.304 201.195 237.992 201.288 237.679L201.477 237L198.726 230.357ZM210.7 228.355V236.293H214.711V237H209.888V228.355H210.7ZM218.745 237.154C218.166 237.154 217.655 237.007 217.212 236.713C216.773 236.414 216.428 236.006 216.176 235.488C215.924 234.965 215.798 234.37 215.798 233.703C215.798 232.975 215.921 232.35 216.169 231.827C216.421 231.304 216.766 230.903 217.205 230.623C217.648 230.343 218.161 230.203 218.745 230.203C219.235 230.203 219.65 230.303 219.991 230.504C220.336 230.7 220.614 230.968 220.824 231.309C221.034 231.65 221.181 232.035 221.265 232.464C221.353 232.893 221.388 233.337 221.37 233.794H216.463V233.234H220.873L220.551 233.444C220.565 233.141 220.546 232.84 220.495 232.541C220.448 232.238 220.357 231.96 220.222 231.708C220.091 231.456 219.907 231.253 219.669 231.099C219.431 230.945 219.125 230.868 218.752 230.868C218.276 230.868 217.879 230.992 217.562 231.239C217.244 231.482 217.006 231.799 216.848 232.191C216.694 232.578 216.617 232.994 216.617 233.437V233.78C216.617 234.289 216.694 234.746 216.848 235.152C217.006 235.558 217.242 235.88 217.555 236.118C217.872 236.356 218.269 236.475 218.745 236.475C219.235 236.475 219.634 236.356 219.942 236.118C220.254 235.875 220.441 235.521 220.502 235.054H221.37C221.3 235.497 221.143 235.875 220.901 236.188C220.663 236.501 220.359 236.741 219.991 236.909C219.622 237.072 219.207 237.154 218.745 237.154ZM227.927 237L227.822 235.621V232.681C227.822 232.014 227.677 231.54 227.388 231.26C227.099 230.98 226.686 230.84 226.149 230.84C225.85 230.84 225.573 230.884 225.316 230.973C225.059 231.057 224.854 231.195 224.7 231.386C224.546 231.573 224.469 231.82 224.469 232.128H223.545C223.545 231.657 223.662 231.281 223.895 231.001C224.128 230.716 224.441 230.513 224.833 230.392C225.23 230.266 225.668 230.203 226.149 230.203C226.625 230.203 227.05 230.287 227.423 230.455C227.796 230.618 228.09 230.884 228.305 231.253C228.524 231.617 228.634 232.098 228.634 232.695V237H227.927ZM225.617 237.154C225.085 237.154 224.646 237.058 224.301 236.867C223.956 236.671 223.699 236.421 223.531 236.118C223.363 235.815 223.279 235.502 223.279 235.18C223.279 234.713 223.391 234.34 223.615 234.06C223.844 233.78 224.147 233.577 224.525 233.451C224.908 233.325 225.325 233.262 225.778 233.262C226.119 233.262 226.471 233.302 226.835 233.381C227.204 233.456 227.556 233.561 227.892 233.696V234.242C227.603 234.116 227.269 234.016 226.891 233.941C226.513 233.866 226.17 233.829 225.862 233.829C225.386 233.829 224.98 233.932 224.644 234.137C224.308 234.342 224.14 234.69 224.14 235.18C224.14 235.549 224.264 235.861 224.511 236.118C224.763 236.375 225.167 236.503 225.722 236.503C226.1 236.503 226.448 236.412 226.765 236.23C227.082 236.048 227.337 235.822 227.528 235.551C227.724 235.28 227.822 235.007 227.822 234.732H228.025C228.025 235.157 227.925 235.553 227.724 235.922C227.528 236.291 227.248 236.589 226.884 236.818C226.525 237.042 226.102 237.154 225.617 237.154ZM233.957 237.154C233.429 237.154 232.942 237.012 232.494 236.727C232.05 236.438 231.696 236.032 231.43 235.509C231.164 234.986 231.031 234.368 231.031 233.654C231.031 232.94 231.161 232.326 231.423 231.813C231.689 231.295 232.039 230.898 232.473 230.623C232.911 230.343 233.39 230.203 233.908 230.203C234.388 230.203 234.815 230.322 235.189 230.56C235.562 230.793 235.854 231.129 236.064 231.568C236.274 232.002 236.379 232.525 236.379 233.136H236.008C236.008 232.646 235.912 232.238 235.721 231.911C235.534 231.58 235.289 231.33 234.986 231.162C234.682 230.994 234.358 230.91 234.013 230.91C233.635 230.91 233.282 231.02 232.956 231.239C232.634 231.458 232.372 231.771 232.172 232.177C231.976 232.583 231.878 233.075 231.878 233.654C231.878 234.237 231.976 234.737 232.172 235.152C232.368 235.567 232.629 235.885 232.956 236.104C233.282 236.323 233.637 236.433 234.02 236.433C234.346 236.433 234.661 236.349 234.965 236.181C235.268 236.013 235.518 235.766 235.714 235.439C235.91 235.108 236.008 234.702 236.008 234.221H236.379C236.379 234.837 236.271 235.364 236.057 235.803C235.847 236.242 235.557 236.578 235.189 236.811C234.825 237.04 234.414 237.154 233.957 237.154ZM236.127 237L236.008 235.488V227.48H236.813V237H236.127ZM242.266 237.154C241.688 237.154 241.177 237.007 240.733 236.713C240.295 236.414 239.949 236.006 239.697 235.488C239.445 234.965 239.319 234.37 239.319 233.703C239.319 232.975 239.443 232.35 239.69 231.827C239.942 231.304 240.288 230.903 240.726 230.623C241.17 230.343 241.683 230.203 242.266 230.203C242.756 230.203 243.172 230.303 243.512 230.504C243.858 230.7 244.135 230.968 244.345 231.309C244.555 231.65 244.702 232.035 244.786 232.464C244.875 232.893 244.91 233.337 244.891 233.794H239.984V233.234H244.394L244.072 233.444C244.086 233.141 244.068 232.84 244.016 232.541C243.97 232.238 243.879 231.96 243.743 231.708C243.613 231.456 243.428 231.253 243.19 231.099C242.952 230.945 242.647 230.868 242.273 230.868C241.797 230.868 241.401 230.992 241.083 231.239C240.766 231.482 240.528 231.799 240.369 232.191C240.215 232.578 240.138 232.994 240.138 233.437V233.78C240.138 234.289 240.215 234.746 240.369 235.152C240.528 235.558 240.764 235.88 241.076 236.118C241.394 236.356 241.79 236.475 242.266 236.475C242.756 236.475 243.155 236.356 243.463 236.118C243.776 235.875 243.963 235.521 244.023 235.054H244.891C244.821 235.497 244.665 235.875 244.422 236.188C244.184 236.501 243.881 236.741 243.512 236.909C243.144 237.072 242.728 237.154 242.266 237.154ZM247.396 237V230.35H248.208V237H247.396ZM247.907 233.955C247.907 233.124 247.979 232.434 248.124 231.883C248.268 231.332 248.492 230.919 248.796 230.644C249.099 230.369 249.486 230.231 249.958 230.231C250.121 230.231 250.27 230.243 250.406 230.266C250.546 230.289 250.686 230.327 250.826 230.378L250.735 231.169C250.599 231.118 250.45 231.076 250.287 231.043C250.123 231.006 249.981 230.987 249.86 230.987C249.444 230.987 249.115 231.113 248.873 231.365C248.635 231.617 248.464 231.967 248.362 232.415C248.259 232.858 248.208 233.372 248.208 233.955H247.907Z" fill="#363131"/>
</svg>
