<svg width="100%" height="100%" viewBox="0 0 275 212" fill="none" xmlns="http://www.w3.org/2000/svg">
<rect width="275" height="212" rx="5" fill="#F7F4ED"/>
<path d="M23.252 30.696H24.836L27.77 40.758H27.356L30.362 31.866H31.316L34.286 40.686H33.89L37.256 30.696H38.822L34.826 42H33.35L30.74 34.332H31.01L28.31 42H26.834L23.252 30.696ZM48.138 42.216C47.202 42.216 46.365 42 45.627 41.568C44.889 41.136 44.307 40.488 43.881 39.624C43.455 38.754 43.242 37.668 43.242 36.366C43.242 35.046 43.455 33.954 43.881 33.09C44.307 32.22 44.889 31.572 45.627 31.146C46.365 30.714 47.202 30.498 48.138 30.498C49.074 30.498 49.911 30.714 50.649 31.146C51.387 31.578 51.969 32.229 52.395 33.099C52.821 33.969 53.034 35.058 53.034 36.366C53.034 37.68 52.821 38.772 52.395 39.642C51.969 40.506 51.387 41.151 50.649 41.577C49.911 42.003 49.074 42.216 48.138 42.216ZM48.138 40.92C49.2 40.92 50.037 40.533 50.649 39.759C51.267 38.985 51.576 37.848 51.576 36.348C51.576 34.878 51.267 33.747 50.649 32.955C50.037 32.157 49.2 31.758 48.138 31.758C47.088 31.758 46.251 32.157 45.627 32.955C45.009 33.753 44.7 34.89 44.7 36.366C44.7 37.86 45.009 38.994 45.627 39.768C46.251 40.536 47.088 40.92 48.138 40.92ZM59.0011 42V30.696H62.9431C64.2331 30.696 65.2081 31.005 65.8681 31.623C66.5341 32.235 66.8671 33.042 66.8671 34.044C66.8671 35.034 66.5341 35.838 65.8681 36.456C65.2081 37.068 64.2331 37.374 62.9431 37.374H60.4051V42H59.0011ZM65.3371 42L62.0971 36.87H63.6271L67.1551 42H65.3371ZM60.4051 36.384H62.8351C63.6811 36.384 64.3231 36.177 64.7611 35.763C65.2051 35.343 65.4271 34.8 65.4271 34.134C65.4271 33.45 65.2141 32.907 64.7881 32.505C64.3681 32.103 63.7531 31.902 62.9431 31.902H60.4051V36.384ZM79.7606 30.696H81.7046L74.4866 38.13V36.15L79.7606 30.696ZM76.5206 35.466L82.0106 42H80.1746L75.5126 36.384L76.5206 35.466ZM73.2626 30.696H74.6846V42H73.2626V30.696ZM87.4362 42V30.696H88.8402V42H87.4362ZM95.7031 30.696H97.3771L103.119 40.002H102.993V30.696H104.397V42H102.831L96.8911 32.388H97.1071V42H95.7031V30.696ZM115.244 42.216C114.344 42.216 113.525 41.982 112.787 41.514C112.049 41.046 111.461 40.383 111.023 39.525C110.585 38.667 110.366 37.65 110.366 36.474C110.366 35.496 110.507 34.635 110.789 33.891C111.071 33.147 111.458 32.523 111.95 32.019C112.442 31.515 113.006 31.137 113.642 30.885C114.284 30.627 114.962 30.498 115.676 30.498C116.558 30.498 117.332 30.681 117.998 31.047C118.664 31.407 119.234 31.98 119.708 32.766L118.376 33.234C117.974 32.736 117.542 32.37 117.08 32.136C116.624 31.896 116.138 31.776 115.622 31.776C114.944 31.776 114.32 31.965 113.75 32.343C113.18 32.721 112.721 33.261 112.373 33.963C112.031 34.665 111.86 35.502 111.86 36.474C111.86 37.338 112.001 38.106 112.283 38.778C112.565 39.444 112.964 39.969 113.48 40.353C114.002 40.731 114.62 40.92 115.334 40.92C115.88 40.92 116.369 40.794 116.801 40.542C117.239 40.29 117.584 39.912 117.836 39.408C118.088 38.898 118.214 38.256 118.214 37.482H118.646C118.646 38.442 118.532 39.276 118.304 39.984C118.076 40.692 117.71 41.241 117.206 41.631C116.708 42.021 116.054 42.216 115.244 42.216ZM118.466 42L118.214 39.336V37.446L115.37 37.356V36.402H119.582V42H118.466ZM132.035 30.696H133.619L136.553 40.758H136.139L139.145 31.866H140.099L143.069 40.686H142.673L146.039 30.696H147.605L143.609 42H142.133L139.523 34.332H139.793L137.093 42H135.617L132.035 30.696ZM152.925 42V30.696H154.329V42H152.925ZM159.5 31.902V30.696H168.302V31.902H164.279L164.594 31.578V42H163.19V31.578L163.505 31.902H159.5ZM173.468 30.696H174.872V35.682H180.47V30.696H181.856V42H180.47V36.888H174.872V42H173.468V30.696ZM196.26 42V30.696H200.49C201.318 30.696 202.005 30.834 202.551 31.11C203.097 31.38 203.505 31.74 203.775 32.19C204.045 32.634 204.18 33.12 204.18 33.648C204.18 34.296 204 34.86 203.64 35.34C203.286 35.814 202.752 36.138 202.038 36.312C202.5 36.384 202.905 36.549 203.253 36.807C203.607 37.059 203.883 37.371 204.081 37.743C204.279 38.109 204.378 38.502 204.378 38.922C204.378 39.306 204.312 39.681 204.18 40.047C204.054 40.413 203.841 40.743 203.541 41.037C203.241 41.331 202.842 41.565 202.344 41.739C201.846 41.913 201.228 42 200.49 42H196.26ZM197.664 40.776H200.472C201.33 40.776 201.945 40.596 202.317 40.236C202.695 39.876 202.884 39.414 202.884 38.85C202.884 38.28 202.68 37.824 202.272 37.482C201.864 37.134 201.264 36.96 200.472 36.96H197.664V40.776ZM197.664 31.902V35.754H200.436C201.138 35.754 201.696 35.583 202.11 35.241C202.53 34.893 202.74 34.404 202.74 33.774C202.74 33.186 202.536 32.727 202.128 32.397C201.726 32.067 201.168 31.902 200.454 31.902H197.664ZM209.024 30.696H210.716L213.956 36.186H213.596L216.89 30.696H218.564L214.478 37.356V42H213.056V37.356L209.024 30.696ZM24.818 52.696H26.222V57.682H31.82V52.696H33.206V64H31.82V58.888H26.222V64H24.818V52.696ZM38.749 64L42.637 52.696H44.347L48.145 64H46.669L45.715 61.102H41.215L40.225 64H38.749ZM41.575 60.004H45.355L43.465 54.406L41.575 60.004ZM53.675 64V52.696H57.617C58.907 52.696 59.882 53.005 60.542 53.623C61.208 54.235 61.541 55.042 61.541 56.044C61.541 57.034 61.208 57.838 60.542 58.456C59.882 59.068 58.907 59.374 57.617 59.374H55.079V64H53.675ZM60.011 64L56.771 58.87H58.301L61.829 64H60.011ZM55.079 58.384H57.509C58.355 58.384 58.997 58.177 59.435 57.763C59.879 57.343 60.101 56.8 60.101 56.134C60.101 55.45 59.888 54.907 59.462 54.505C59.042 54.103 58.427 53.902 57.617 53.902H55.079V58.384ZM66.2264 53.902V52.696H75.0284V53.902H71.0054L71.3204 53.578V64H69.9164V53.578L70.2314 53.902H66.2264ZM86.1395 52.696H87.7235L90.6575 62.758H90.2435L93.2495 53.866H94.2035L97.1735 62.686H96.7775L100.144 52.696H101.71L97.7135 64H96.2375L93.6275 56.332H93.8975L91.1975 64H89.7215L86.1395 52.696ZM105.099 64L108.987 52.696H110.697L114.495 64H113.019L112.065 61.102H107.565L106.575 64H105.099ZM107.925 60.004H111.705L109.815 54.406L107.925 60.004ZM123.643 64.216C122.887 64.216 122.194 64.081 121.564 63.811C120.934 63.535 120.427 63.13 120.043 62.596C119.659 62.062 119.461 61.402 119.449 60.616H120.817C120.817 61.144 120.946 61.579 121.204 61.921C121.462 62.257 121.804 62.509 122.23 62.677C122.656 62.839 123.121 62.92 123.625 62.92C124.171 62.92 124.645 62.833 125.047 62.659C125.449 62.485 125.758 62.257 125.974 61.975C126.196 61.687 126.307 61.372 126.307 61.03C126.307 60.55 126.16 60.163 125.866 59.869C125.572 59.569 125.137 59.326 124.561 59.14L122.563 58.438C121.627 58.102 120.919 57.718 120.439 57.286C119.959 56.854 119.719 56.248 119.719 55.468C119.719 54.592 120.055 53.878 120.727 53.326C121.405 52.774 122.365 52.498 123.607 52.498C124.759 52.498 125.659 52.765 126.307 53.299C126.955 53.827 127.327 54.538 127.423 55.432H126.037C125.947 54.91 125.701 54.505 125.299 54.217C124.903 53.923 124.339 53.776 123.607 53.776C122.863 53.776 122.284 53.941 121.87 54.271C121.456 54.601 121.249 55.018 121.249 55.522C121.249 55.936 121.378 56.266 121.636 56.512C121.9 56.752 122.311 56.968 122.869 57.16L125.209 57.97C126.019 58.24 126.658 58.618 127.126 59.104C127.6 59.59 127.837 60.22 127.837 60.994C127.837 61.594 127.675 62.137 127.351 62.623C127.033 63.109 126.562 63.496 125.938 63.784C125.314 64.072 124.549 64.216 123.643 64.216Z" fill="#363131"/>
<rect width="182" height="20" transform="translate(20 78)" fill="#D7C6FF"/>
<path d="M29.4075 91V84.0019H30.5738V85.871L30.6187 86.6636V91H29.4075ZM29.9607 87.157C29.9607 85.6019 30.9028 83.7925 32.7271 83.7925C34.357 83.7925 35.5682 85.0336 35.5682 87.1421V91H34.372V87.157C34.372 85.7364 33.5645 84.9589 32.4879 84.9589C31.471 84.9589 30.6187 85.7215 30.6187 87.157H29.9607ZM28.0467 85.1682V84.0019H30.5738L30.2 85.1682H28.0467ZM28.0467 91V89.8486H30.2299L30.6187 91H28.0467ZM29.4075 91L29.7813 89.8486H31.8748V91H29.4075ZM33.1159 91V89.8486H35.2093L35.5682 91H33.1159ZM34.372 91L34.7607 89.8486H36.9439V91H34.372ZM42.7024 91.2093C40.594 91.2093 39.0388 89.5047 39.0388 87.5009C39.0388 85.4972 40.6688 83.7925 42.7024 83.7925C44.7211 83.7925 46.351 85.4972 46.351 87.5009C46.351 89.5047 44.7959 91.2093 42.7024 91.2093ZM42.7024 90.043C44.0631 90.043 45.1248 88.9065 45.1248 87.5009C45.1248 86.0953 44.0631 84.9589 42.7024 84.9589C41.3267 84.9589 40.265 86.0953 40.265 87.5009C40.265 88.9065 41.3267 90.043 42.7024 90.043ZM53.9786 91.2093C52.4683 91.2093 51.3917 90.0879 51.3917 88.6075V81.5495H52.6029V88.5776C52.6029 89.4449 53.1711 90.043 53.9786 90.043C54.7562 90.043 55.3543 89.4449 55.3543 88.5776V87.4112H56.5506V88.5776C56.5506 90.0879 55.459 91.2093 53.9786 91.2093ZM49.2235 85.1682V84.0019H52.6029L52.0945 85.1682H49.2235ZM51.9749 85.1682L51.3917 84.0019H55.2197V85.1682H51.9749ZM60.8137 91V80.0542H62.0249V91H60.8137ZM61.367 87.157C61.367 85.6019 62.3091 83.7925 64.1334 83.7925C65.7034 83.7925 66.9745 85.0336 66.9745 87.157V91H65.7782V87.157C65.7782 85.6916 64.9259 84.9589 63.8941 84.9589C62.8773 84.9589 62.0249 85.7215 62.0249 87.157H61.367ZM59.453 81.2206V80.0542H62.0249L61.6362 81.2206H59.453ZM59.453 91V89.8486H61.6362L62.0249 91H59.453ZM60.8137 91L61.1876 89.8486H63.281V91H60.8137ZM64.5221 91V89.8486H66.6156L66.9745 91H64.5221ZM65.7782 91L66.167 89.8486H68.3502V91H65.7782ZM71.0283 91V89.8486H74.4376L75.0357 91H71.0283ZM73.8245 91L74.4376 89.8486H77.847V91H73.8245ZM71.0283 85.1682V84.0019H75.0357L74.4376 85.1682H71.0283ZM73.8245 91V84.0019H75.0357V91H73.8245ZM74.4675 82.3421C73.8245 82.3421 73.2862 81.8336 73.2862 81.1757C73.2862 80.5178 73.8245 79.9944 74.4675 79.9944C75.0956 79.9944 75.6339 80.5178 75.6339 81.1757C75.6339 81.8336 75.0956 82.3421 74.4675 82.3421ZM81.7512 91V84.0019H82.9176V85.871L82.9624 86.6636V91H81.7512ZM82.3045 87.157C82.3045 85.6019 83.2466 83.7925 85.0709 83.7925C86.7008 83.7925 87.912 85.0336 87.912 87.1421V91H86.7157V87.157C86.7157 85.7364 85.9082 84.9589 84.8316 84.9589C83.8148 84.9589 82.9624 85.7215 82.9624 87.157H82.3045ZM80.3905 85.1682V84.0019H82.9176L82.5438 85.1682H80.3905ZM80.3905 91V89.8486H82.5737L82.9624 91H80.3905ZM81.7512 91L82.1251 89.8486H84.2185V91H81.7512ZM85.4596 91V89.8486H87.5531L87.912 91H85.4596ZM86.7157 91L87.1045 89.8486H89.2877V91H86.7157ZM93.5209 95.1271C92.1602 95.1271 91.0237 94.1701 91.0237 93.0187C91.0237 91.9121 92.0106 91 93.2069 91L93.3116 90.7607H97.1246C98.3508 90.7607 99.3826 91.7477 99.3826 92.914C99.3826 94.1252 98.2611 95.1271 96.9452 95.1271H93.5209ZM94.8817 89.3103C92.9975 89.3103 91.6518 88.2037 91.6518 86.6486C91.6518 85.1084 92.9975 84.0019 94.8817 84.0019C96.6461 84.0019 98.0817 85.243 98.0817 86.7533C98.0817 88.2486 96.7359 89.3103 94.8817 89.3103ZM94.8817 88.2636C96.063 88.2636 96.9153 87.5907 96.9153 86.6486C96.9153 85.7215 96.063 85.0486 94.8817 85.0486C93.6854 85.0486 92.8181 85.7215 92.8181 86.6486C92.8181 87.5907 93.6854 88.2636 94.8817 88.2636ZM93.4162 91.5383C92.3845 91.5383 91.3975 91.0299 91.3975 89.8935C91.3975 88.9664 92.0555 88.3383 92.9676 88.0841L93.3415 88.7869C92.863 88.8916 92.519 89.3103 92.519 89.8336C92.519 90.372 92.9377 90.7607 93.6106 90.7607L93.4162 91.5383ZM96.8405 94.0804C97.6032 94.0804 98.1863 93.5869 98.1863 92.9589C98.1863 92.3308 97.6331 91.8224 96.9452 91.8224H93.4162C92.7433 91.8224 92.205 92.3308 92.205 92.9589C92.205 93.5869 92.7882 94.0804 93.5359 94.0804H96.8405ZM95.5845 85.0486L94.8817 84.0019H99.6368V85.0486H95.5845ZM115.924 91.2093C114.683 91.2093 113.442 90.9103 112.485 90.4467L113.157 89.4449C113.815 89.9234 114.862 90.1028 115.954 90.1028C117.509 90.1028 118.257 89.6991 118.257 89.0561C118.257 88.5327 117.793 88.2187 116.462 88.0243L115.281 87.8748C113.666 87.6505 112.664 87.1869 112.664 85.9458C112.664 84.585 114.01 83.7925 115.984 83.7925C117.12 83.7925 118.316 84.0318 119.229 84.5402L118.66 85.4374C117.763 85.0785 116.821 84.8991 115.804 84.8991C114.533 84.8991 113.86 85.2879 113.86 85.8262C113.86 86.3794 114.369 86.5738 115.52 86.7383L116.671 86.8879C118.615 87.1421 119.483 87.9047 119.483 88.9813C119.483 90.372 118.017 91.2093 115.924 91.2093ZM119.229 84.5402V86.0355H118.032V84.7495L119.229 84.5402ZM112.485 90.4467V88.9514H113.681V90.2224L112.485 90.4467ZM123.626 91V80.0542H124.837V91H123.626ZM124.179 87.157C124.179 85.6019 125.122 83.7925 126.946 83.7925C128.516 83.7925 129.787 85.0336 129.787 87.157V91H128.591V87.157C128.591 85.6916 127.738 84.9589 126.707 84.9589C125.69 84.9589 124.837 85.7215 124.837 87.157H124.179ZM122.265 81.2206V80.0542H124.837L124.449 81.2206H122.265ZM122.265 91V89.8486H124.449L124.837 91H122.265ZM123.626 91L124 89.8486H126.094V91H123.626ZM127.335 91V89.8486H129.428L129.787 91H127.335ZM128.591 91L128.979 89.8486H131.163V91H128.591ZM136.921 91.2093C134.813 91.2093 133.258 89.5047 133.258 87.5009C133.258 85.4972 134.888 83.7925 136.921 83.7925C138.94 83.7925 140.57 85.4972 140.57 87.5009C140.57 89.5047 139.015 91.2093 136.921 91.2093ZM136.921 90.043C138.282 90.043 139.344 88.9065 139.344 87.5009C139.344 86.0953 138.282 84.9589 136.921 84.9589C135.545 84.9589 134.484 86.0953 134.484 87.5009C134.484 88.9065 135.545 90.043 136.921 90.043ZM146.702 87.2617C146.702 85.3178 147.794 83.7925 149.468 83.7925C150.096 83.7925 150.754 83.972 151.263 84.4953V85.7215C150.739 85.1682 150.067 84.9589 149.468 84.9589C148.317 84.9589 147.36 86.0056 147.36 87.2617H146.702ZM146.149 91V84.0019H147.315V85.4673L147.36 86.2598V91H146.149ZM144.235 85.1682V84.0019H147.315L146.852 85.1682H144.235ZM144.235 91V89.8486H146.881L147.36 91H144.235ZM146.149 91L146.687 89.8486H149.693V91H146.149ZM158.666 91.2093C157.156 91.2093 156.079 90.0879 156.079 88.6075V81.5495H157.29V88.5776C157.29 89.4449 157.859 90.043 158.666 90.043C159.444 90.043 160.042 89.4449 160.042 88.5776V87.4112H161.238V88.5776C161.238 90.0879 160.146 91.2093 158.666 91.2093ZM153.911 85.1682V84.0019H157.29L156.782 85.1682H153.911ZM156.662 85.1682L156.079 84.0019H159.907V85.1682H156.662ZM178.796 91.2093C176.688 91.2093 175.133 89.5047 175.133 87.5009C175.133 85.4972 176.763 83.7925 178.796 83.7925C180.815 83.7925 182.445 85.4972 182.445 87.5009C182.445 89.5047 180.89 91.2093 178.796 91.2093ZM178.796 90.043C180.157 90.043 181.219 88.9065 181.219 87.5009C181.219 86.0953 180.157 84.9589 178.796 84.9589C177.42 84.9589 176.359 86.0953 176.359 87.5009C176.359 88.9065 177.42 90.043 178.796 90.043ZM188.398 82.6112C188.398 80.9963 189.459 79.8598 190.955 79.8598C192.45 79.8598 193.527 80.9813 193.527 82.5664V82.7458H192.315V82.5664C192.315 81.6542 191.747 81.0112 190.955 81.0112C190.147 81.0112 189.609 81.6542 189.609 82.5664V91H188.398V82.6112ZM186.289 85.1682V84.0019H189.609L189.1 85.1682H186.289ZM188.996 85.1682L188.398 84.0019H192.36V85.1682H188.996ZM186.289 91V89.8486H189.1L189.609 91H186.289ZM188.398 91L188.996 89.8486H192.36V91H188.398Z" fill="#363131"/>
<rect width="172" height="20" transform="translate(20 103)" fill="#D7C6FF"/>
<path d="M33.0411 116.209C31.5308 116.209 30.4542 115.088 30.4542 113.607V106.55H31.6654V113.578C31.6654 114.445 32.2336 115.043 33.0411 115.043C33.8187 115.043 34.4168 114.445 34.4168 113.578V112.411H35.6131V113.578C35.6131 115.088 34.5215 116.209 33.0411 116.209ZM28.286 110.168V109.002H31.6654L31.157 110.168H28.286ZM31.0374 110.168L30.4542 109.002H34.2822V110.168H31.0374ZM42.0145 112.262C42.0145 110.318 43.1061 108.793 44.7809 108.793C45.4089 108.793 46.0669 108.972 46.5753 109.495V110.721C46.0519 110.168 45.379 109.959 44.7809 109.959C43.6295 109.959 42.6725 111.006 42.6725 112.262H42.0145ZM41.4613 116V109.002H42.6276V110.467L42.6725 111.26V116H41.4613ZM39.5473 110.168V109.002H42.6276L42.1641 110.168H39.5473ZM39.5473 116V114.849H42.194L42.6725 116H39.5473ZM41.4613 116L41.9996 114.849H45.0052V116H41.4613ZM52.5431 116.209C50.5992 116.209 48.9693 114.535 48.9693 112.501C48.9693 110.467 50.5992 108.793 52.5431 108.793C54.502 108.793 55.9674 110.587 55.9674 112.501C55.9674 114.415 54.502 116.209 52.5431 116.209ZM52.6627 115.043C54.0085 115.043 55.13 113.892 55.13 112.501C55.13 111.125 54.0085 109.959 52.6627 109.959C51.3169 109.959 50.1954 111.14 50.1954 112.501C50.1954 113.877 51.3169 115.043 52.6627 115.043ZM55.0254 116V113.518L55.3543 112.501L55.0254 111.409V109.002H56.2366V116H55.0254ZM55.0254 116L55.4141 114.849H57.5973V116H55.0254ZM60.8137 116V109.002H61.9801V110.871L62.0249 111.664V116H60.8137ZM61.367 112.157C61.367 110.602 62.3091 108.793 64.1334 108.793C65.7633 108.793 66.9745 110.034 66.9745 112.142V116H65.7782V112.157C65.7782 110.736 64.9707 109.959 63.8941 109.959C62.8773 109.959 62.0249 110.721 62.0249 112.157H61.367ZM59.453 110.168V109.002H61.9801L61.6063 110.168H59.453ZM59.453 116V114.849H61.6362L62.0249 116H59.453ZM60.8137 116L61.1876 114.849H63.281V116H60.8137ZM64.5221 116V114.849H66.6156L66.9745 116H64.5221ZM65.7782 116L66.167 114.849H68.3502V116H65.7782ZM74.0488 116.209C72.8077 116.209 71.5666 115.91 70.6096 115.447L71.2825 114.445C71.9404 114.923 72.9871 115.103 74.0787 115.103C75.6339 115.103 76.3815 114.699 76.3815 114.056C76.3815 113.533 75.918 113.219 74.5871 113.024L73.4058 112.875C71.7909 112.65 70.789 112.187 70.789 110.946C70.789 109.585 72.1348 108.793 74.1086 108.793C75.2451 108.793 76.4414 109.032 77.3535 109.54L76.7853 110.437C75.8881 110.079 74.946 109.899 73.9292 109.899C72.6582 109.899 71.9853 110.288 71.9853 110.826C71.9853 111.379 72.4937 111.574 73.6451 111.738L74.7965 111.888C76.7404 112.142 77.6077 112.905 77.6077 113.981C77.6077 115.372 76.1423 116.209 74.0488 116.209ZM77.3535 109.54V111.036H76.1572V109.75L77.3535 109.54ZM70.6096 115.447V113.951H71.8058V115.222L70.6096 115.447ZM83.7101 107.611C83.7101 105.996 84.7718 104.86 86.2671 104.86C87.7624 104.86 88.8391 105.981 88.8391 107.566V107.746H87.6279V107.566C87.6279 106.654 87.0596 106.011 86.2671 106.011C85.4596 106.011 84.9213 106.654 84.9213 107.566V116H83.7101V107.611ZM81.6017 110.168V109.002H84.9213L84.4129 110.168H81.6017ZM84.3082 110.168L83.7101 109.002H87.6727V110.168H84.3082ZM81.6017 116V114.849H84.4129L84.9213 116H81.6017ZM83.7101 116L84.3082 114.849H87.6727V116H83.7101ZM95.0461 116.209C92.9377 116.209 91.3826 114.505 91.3826 112.501C91.3826 110.497 93.0125 108.793 95.0461 108.793C97.0648 108.793 98.6947 110.497 98.6947 112.501C98.6947 114.505 97.1396 116.209 95.0461 116.209ZM95.0461 115.043C96.4069 115.043 97.4686 113.907 97.4686 112.501C97.4686 111.095 96.4069 109.959 95.0461 109.959C93.6704 109.959 92.6088 111.095 92.6088 112.501C92.6088 113.907 93.6704 115.043 95.0461 115.043ZM104.827 112.262C104.827 110.318 105.919 108.793 107.593 108.793C108.221 108.793 108.879 108.972 109.388 109.495V110.721C108.864 110.168 108.192 109.959 107.593 109.959C106.442 109.959 105.485 111.006 105.485 112.262H104.827ZM104.274 116V109.002H105.44V110.467L105.485 111.26V116H104.274ZM102.36 110.168V109.002H105.44L104.977 110.168H102.36ZM102.36 116V114.849H105.006L105.485 116H102.36ZM104.274 116L104.812 114.849H107.818V116H104.274ZM112.29 116V109.002H113.486V110.587L113.501 111.17V116H112.29ZM118.795 111.619C118.795 110.422 118.466 109.959 117.928 109.959C117.314 109.959 116.746 110.707 116.746 112.127H116.088C116.088 110.796 117.03 108.793 118.301 108.793C119.393 108.793 120.006 109.75 120.006 111.619V116H118.795V111.619ZM115.55 111.619C115.55 110.422 115.221 109.959 114.683 109.959C114.07 109.959 113.501 110.721 113.501 112.157H112.843C112.843 110.826 113.786 108.793 115.057 108.793C116.133 108.793 116.746 109.75 116.746 111.619V116H115.55V111.619ZM125.824 116.209C123.88 116.209 122.251 114.535 122.251 112.501C122.251 110.467 123.88 108.793 125.824 108.793C127.783 108.793 129.249 110.587 129.249 112.501C129.249 114.415 127.783 116.209 125.824 116.209ZM125.944 115.043C127.29 115.043 128.411 113.892 128.411 112.501C128.411 111.125 127.29 109.959 125.944 109.959C124.598 109.959 123.477 111.14 123.477 112.501C123.477 113.877 124.598 115.043 125.944 115.043ZM128.307 116V113.518L128.636 112.501L128.307 111.409V109.002H129.518V116H128.307ZM128.307 116L128.695 114.849H130.879V116H128.307ZM137.729 116.209C136.218 116.209 135.142 115.088 135.142 113.607V106.55H136.353V113.578C136.353 114.445 136.921 115.043 137.729 115.043C138.506 115.043 139.104 114.445 139.104 113.578V112.411H140.301V113.578C140.301 115.088 139.209 116.209 137.729 116.209ZM132.973 110.168V109.002H136.353L135.845 110.168H132.973ZM135.725 110.168L135.142 109.002H138.97V110.168H135.725ZM144.31 116V114.849H147.719L148.317 116H144.31ZM147.106 116L147.719 114.849H151.128V116H147.106ZM144.31 110.168V109.002H148.317L147.719 110.168H144.31ZM147.106 116V109.002H148.317V116H147.106ZM147.749 107.342C147.106 107.342 146.567 106.834 146.567 106.176C146.567 105.518 147.106 104.994 147.749 104.994C148.377 104.994 148.915 105.518 148.915 106.176C148.915 106.834 148.377 107.342 147.749 107.342ZM157.201 116L153.911 109.002H155.257L158.038 114.998H157.664L160.446 109.002H161.791L158.502 116H157.201ZM158.576 110.168V109.002H161.791L161.313 110.168H158.576ZM160.745 110.168L160.446 109.002H162.434V110.168H160.745ZM153.268 110.168V109.002H155.257L154.958 110.168H153.268ZM154.389 110.168L153.911 109.002H157.126V110.168H154.389ZM171.707 114.699C171.019 115.596 169.718 116.209 168.312 116.209C166.309 116.209 164.634 114.55 164.634 112.501C164.634 110.482 166.294 108.793 168.312 108.793C170.331 108.793 172.021 110.437 172.021 112.456C172.021 112.636 171.976 112.845 171.916 113.009H165.307V111.948H171.139L170.78 112.471C170.78 111.05 169.643 109.959 168.312 109.959C166.922 109.959 165.86 111.095 165.86 112.501C165.86 113.892 166.952 115.043 168.417 115.043C169.434 115.043 170.346 114.594 170.825 113.951L171.707 114.699ZM178.811 116.209C178.153 116.209 177.615 115.701 177.615 115.043C177.615 114.385 178.153 113.862 178.811 113.862C179.439 113.862 179.963 114.385 179.963 115.043C179.963 115.701 179.439 116.209 178.811 116.209Z" fill="#363131"/>
<path d="M21.302 166V156.914H24.662C25.7493 156.914 26.5823 157.168 27.161 157.677C27.7443 158.186 28.036 158.86 28.036 159.7C28.036 160.526 27.7443 161.193 27.161 161.702C26.5823 162.206 25.7493 162.458 24.662 162.458H22.954V166H21.302ZM26.216 166L23.808 161.744H25.572L28.372 166H26.216ZM22.954 161.352H24.494C25.1007 161.352 25.5603 161.214 25.873 160.939C26.1857 160.659 26.342 160.297 26.342 159.854C26.342 159.401 26.1997 159.037 25.915 158.762C25.6303 158.482 25.2127 158.342 24.662 158.342H22.954V161.352ZM33.2658 166.196C32.6451 166.196 32.0828 166.063 31.5788 165.797C31.0794 165.531 30.6828 165.134 30.3888 164.607C30.0948 164.075 29.9478 163.41 29.9478 162.612C29.9478 161.8 30.0948 161.128 30.3888 160.596C30.6828 160.064 31.0794 159.667 31.5788 159.406C32.0828 159.145 32.6451 159.014 33.2658 159.014C33.8771 159.014 34.4301 159.145 34.9248 159.406C35.4241 159.667 35.8208 160.064 36.1148 160.596C36.4088 161.128 36.5558 161.8 36.5558 162.612C36.5558 163.41 36.4088 164.075 36.1148 164.607C35.8208 165.134 35.4241 165.531 34.9248 165.797C34.4301 166.063 33.8771 166.196 33.2658 166.196ZM33.2098 164.754C33.5364 164.754 33.8258 164.675 34.0778 164.516C34.3344 164.353 34.5351 164.112 34.6798 163.795C34.8291 163.478 34.9038 163.083 34.9038 162.612C34.9038 161.893 34.7614 161.352 34.4768 160.988C34.1968 160.624 33.8118 160.442 33.3218 160.442C32.9904 160.442 32.6964 160.524 32.4398 160.687C32.1831 160.846 31.9801 161.086 31.8308 161.408C31.6861 161.73 31.6138 162.131 31.6138 162.612C31.6138 163.321 31.7561 163.856 32.0408 164.215C32.3301 164.574 32.7198 164.754 33.2098 164.754ZM41.3355 166.196C40.6821 166.196 40.1198 166.107 39.6485 165.93C39.1818 165.748 38.8225 165.489 38.5705 165.153C38.3185 164.812 38.1901 164.404 38.1855 163.928H39.7115C39.7255 164.264 39.8585 164.509 40.1105 164.663C40.3625 164.817 40.7055 164.894 41.1395 164.894C41.3775 164.894 41.5875 164.859 41.7695 164.789C41.9561 164.719 42.1008 164.623 42.2035 164.502C42.3061 164.381 42.3575 164.245 42.3575 164.096C42.3575 163.905 42.2875 163.755 42.1475 163.648C42.0121 163.536 41.7928 163.433 41.4895 163.34L40.0055 162.808C39.4735 162.617 39.0651 162.365 38.7805 162.052C38.4958 161.739 38.3535 161.366 38.3535 160.932C38.3535 160.358 38.6125 159.896 39.1305 159.546C39.6531 159.191 40.3508 159.014 41.2235 159.014C42.0915 159.014 42.7611 159.205 43.2325 159.588C43.7085 159.966 43.9535 160.447 43.9675 161.03H42.4135C42.3901 160.806 42.2828 160.629 42.0915 160.498C41.9001 160.367 41.6108 160.302 41.2235 160.302C40.8735 160.302 40.5981 160.374 40.3975 160.519C40.2015 160.659 40.1035 160.825 40.1035 161.016C40.1035 161.338 40.3788 161.581 40.9295 161.744L42.5395 162.346C43.0621 162.523 43.4681 162.752 43.7575 163.032C44.0468 163.312 44.1915 163.667 44.1915 164.096C44.1915 164.455 44.0701 164.796 43.8275 165.118C43.5895 165.435 43.2558 165.694 42.8265 165.895C42.3971 166.096 41.9001 166.196 41.3355 166.196ZM48.9983 166.196C48.3449 166.196 47.7826 166.107 47.3113 165.93C46.8446 165.748 46.4853 165.489 46.2333 165.153C45.9813 164.812 45.8529 164.404 45.8483 163.928H47.3743C47.3883 164.264 47.5213 164.509 47.7733 164.663C48.0253 164.817 48.3683 164.894 48.8023 164.894C49.0403 164.894 49.2503 164.859 49.4323 164.789C49.6189 164.719 49.7636 164.623 49.8663 164.502C49.9689 164.381 50.0203 164.245 50.0203 164.096C50.0203 163.905 49.9503 163.755 49.8103 163.648C49.6749 163.536 49.4556 163.433 49.1523 163.34L47.6683 162.808C47.1363 162.617 46.7279 162.365 46.4433 162.052C46.1586 161.739 46.0163 161.366 46.0163 160.932C46.0163 160.358 46.2753 159.896 46.7933 159.546C47.3159 159.191 48.0136 159.014 48.8863 159.014C49.7543 159.014 50.4239 159.205 50.8953 159.588C51.3713 159.966 51.6163 160.447 51.6303 161.03H50.0763C50.0529 160.806 49.9456 160.629 49.7543 160.498C49.5629 160.367 49.2736 160.302 48.8863 160.302C48.5363 160.302 48.2609 160.374 48.0603 160.519C47.8643 160.659 47.7663 160.825 47.7663 161.016C47.7663 161.338 48.0416 161.581 48.5923 161.744L50.2023 162.346C50.7249 162.523 51.1309 162.752 51.4203 163.032C51.7096 163.312 51.8543 163.667 51.8543 164.096C51.8543 164.455 51.7329 164.796 51.4903 165.118C51.2523 165.435 50.9186 165.694 50.4893 165.895C50.0599 166.096 49.5629 166.196 48.9983 166.196ZM56.8701 165.622V163.97C57.2434 164.185 57.6074 164.341 57.9621 164.439C58.3214 164.537 58.6528 164.586 58.9561 164.586C59.3574 164.586 59.6491 164.469 59.8311 164.236C60.0131 164.003 60.1041 163.648 60.1041 163.172V156.914H61.7701V163.172C61.7701 163.905 61.6558 164.493 61.4271 164.936C61.1984 165.379 60.8834 165.701 60.4821 165.902C60.0808 166.098 59.6188 166.196 59.0961 166.196C58.6854 166.196 58.2934 166.14 57.9201 166.028C57.5468 165.921 57.1968 165.785 56.8701 165.622ZM68.7611 166L68.5511 164.348V161.618C68.5511 161.142 68.4531 160.79 68.2571 160.561C68.0658 160.332 67.7391 160.218 67.2771 160.218C67.0111 160.218 66.7801 160.258 66.5841 160.337C66.3881 160.416 66.2365 160.531 66.1291 160.68C66.0265 160.825 65.9751 161.002 65.9751 161.212H64.1691C64.1691 160.699 64.2928 160.281 64.5401 159.959C64.7875 159.632 65.1421 159.394 65.6041 159.245C66.0708 159.091 66.6285 159.014 67.2771 159.014C67.8651 159.014 68.3785 159.11 68.8171 159.301C69.2558 159.488 69.5965 159.777 69.8391 160.169C70.0818 160.561 70.2031 161.063 70.2031 161.674V166H68.7611ZM66.5351 166.196C65.9518 166.196 65.4641 166.096 65.0721 165.895C64.6848 165.69 64.3931 165.421 64.1971 165.09C64.0011 164.759 63.9031 164.399 63.9031 164.012C63.9031 163.583 64.0151 163.223 64.2391 162.934C64.4678 162.64 64.7898 162.421 65.2051 162.276C65.6205 162.127 66.1105 162.052 66.6751 162.052C67.0438 162.052 67.3915 162.08 67.7181 162.136C68.0495 162.192 68.3785 162.267 68.7051 162.36V163.326C68.4485 163.242 68.1685 163.177 67.8651 163.13C67.5618 163.083 67.2771 163.06 67.0111 163.06C66.6191 163.06 66.2971 163.132 66.0451 163.277C65.7931 163.422 65.6671 163.667 65.6671 164.012C65.6671 164.264 65.7698 164.481 65.9751 164.663C66.1805 164.845 66.5071 164.936 66.9551 164.936C67.2958 164.936 67.5851 164.861 67.8231 164.712C68.0611 164.563 68.2408 164.376 68.3621 164.152C68.4881 163.928 68.5511 163.704 68.5511 163.48H68.9431C68.9431 163.97 68.8521 164.423 68.6701 164.838C68.4881 165.249 68.2175 165.578 67.8581 165.825C67.5035 166.072 67.0625 166.196 66.5351 166.196ZM75.4806 166.196C74.9112 166.196 74.3816 166.049 73.8916 165.755C73.4062 165.456 73.0119 165.039 72.7086 164.502C72.4099 163.961 72.2606 163.326 72.2606 162.598C72.2606 161.828 72.4099 161.177 72.7086 160.645C73.0119 160.108 73.4062 159.702 73.8916 159.427C74.3816 159.152 74.9112 159.014 75.4806 159.014C75.9239 159.014 76.3136 159.086 76.6496 159.231C76.9902 159.371 77.2796 159.562 77.5176 159.805C77.7556 160.043 77.9422 160.309 78.0776 160.603C78.2129 160.897 78.2992 161.193 78.3366 161.492L76.6706 161.534C76.5959 161.235 76.4559 160.988 76.2506 160.792C76.0499 160.596 75.7886 160.498 75.4666 160.498C75.2006 160.498 74.9509 160.573 74.7176 160.722C74.4842 160.867 74.2929 161.093 74.1436 161.401C73.9989 161.709 73.9266 162.108 73.9266 162.598C73.9266 163.065 73.9942 163.454 74.1296 163.767C74.2696 164.075 74.4562 164.308 74.6896 164.467C74.9229 164.621 75.1819 164.698 75.4666 164.698C75.8866 164.698 76.1922 164.598 76.3836 164.397C76.5749 164.192 76.6706 163.919 76.6706 163.578H78.3366C78.3366 164.059 78.2269 164.497 78.0076 164.894C77.7882 165.291 77.4662 165.608 77.0416 165.846C76.6169 166.079 76.0966 166.196 75.4806 166.196ZM83.2687 166.196C82.6481 166.196 82.0857 166.063 81.5817 165.797C81.0824 165.531 80.6857 165.134 80.3917 164.607C80.0977 164.075 79.9507 163.41 79.9507 162.612C79.9507 161.8 80.0977 161.128 80.3917 160.596C80.6857 160.064 81.0824 159.667 81.5817 159.406C82.0857 159.145 82.6481 159.014 83.2687 159.014C83.8801 159.014 84.4331 159.145 84.9277 159.406C85.4271 159.667 85.8237 160.064 86.1177 160.596C86.4117 161.128 86.5587 161.8 86.5587 162.612C86.5587 163.41 86.4117 164.075 86.1177 164.607C85.8237 165.134 85.4271 165.531 84.9277 165.797C84.4331 166.063 83.8801 166.196 83.2687 166.196ZM83.2127 164.754C83.5394 164.754 83.8287 164.675 84.0807 164.516C84.3374 164.353 84.5381 164.112 84.6827 163.795C84.8321 163.478 84.9067 163.083 84.9067 162.612C84.9067 161.893 84.7644 161.352 84.4797 160.988C84.1997 160.624 83.8147 160.442 83.3247 160.442C82.9934 160.442 82.6994 160.524 82.4427 160.687C82.1861 160.846 81.9831 161.086 81.8337 161.408C81.6891 161.73 81.6167 162.131 81.6167 162.612C81.6167 163.321 81.7591 163.856 82.0437 164.215C82.3331 164.574 82.7227 164.754 83.2127 164.754ZM92.2764 166.196C91.8518 166.196 91.4621 166.077 91.1074 165.839C90.7574 165.601 90.4774 165.246 90.2674 164.775C90.0574 164.299 89.9524 163.704 89.9524 162.99H90.4564C90.4564 163.331 90.5334 163.629 90.6874 163.886C90.8414 164.143 91.0398 164.343 91.2824 164.488C91.5251 164.628 91.7771 164.698 92.0384 164.698C92.3604 164.698 92.6474 164.609 92.8994 164.432C93.1514 164.255 93.3498 164.007 93.4944 163.69C93.6438 163.373 93.7184 162.999 93.7184 162.57C93.7184 162.155 93.6461 161.793 93.5014 161.485C93.3568 161.172 93.1561 160.93 92.8994 160.757C92.6474 160.584 92.3558 160.498 92.0244 160.498C91.7491 160.498 91.4924 160.566 91.2544 160.701C91.0164 160.832 90.8228 161.023 90.6734 161.275C90.5288 161.522 90.4564 161.823 90.4564 162.178H89.9524C89.9524 161.492 90.0504 160.913 90.2464 160.442C90.4471 159.971 90.7294 159.616 91.0934 159.378C91.4621 159.135 91.8984 159.014 92.4024 159.014C92.9531 159.014 93.4524 159.161 93.9004 159.455C94.3531 159.744 94.7124 160.157 94.9784 160.694C95.2491 161.226 95.3844 161.851 95.3844 162.57C95.3844 163.298 95.2444 163.935 94.9644 164.481C94.6891 165.022 94.3158 165.445 93.8444 165.748C93.3731 166.047 92.8504 166.196 92.2764 166.196ZM88.8044 166V156.396H90.4564V164.32L89.8824 166H88.8044ZM100.218 166.196C99.5647 166.196 99.0024 166.107 98.531 165.93C98.0644 165.748 97.705 165.489 97.453 165.153C97.201 164.812 97.0727 164.404 97.068 163.928H98.594C98.608 164.264 98.741 164.509 98.993 164.663C99.245 164.817 99.588 164.894 100.022 164.894C100.26 164.894 100.47 164.859 100.652 164.789C100.839 164.719 100.983 164.623 101.086 164.502C101.189 164.381 101.24 164.245 101.24 164.096C101.24 163.905 101.17 163.755 101.03 163.648C100.895 163.536 100.675 163.433 100.372 163.34L98.888 162.808C98.356 162.617 97.9477 162.365 97.663 162.052C97.3784 161.739 97.236 161.366 97.236 160.932C97.236 160.358 97.495 159.896 98.013 159.546C98.5357 159.191 99.2334 159.014 100.106 159.014C100.974 159.014 101.644 159.205 102.115 159.588C102.591 159.966 102.836 160.447 102.85 161.03H101.296C101.273 160.806 101.165 160.629 100.974 160.498C100.783 160.367 100.493 160.302 100.106 160.302C99.756 160.302 99.4807 160.374 99.28 160.519C99.084 160.659 98.986 160.825 98.986 161.016C98.986 161.338 99.2614 161.581 99.812 161.744L101.422 162.346C101.945 162.523 102.351 162.752 102.64 163.032C102.929 163.312 103.074 163.667 103.074 164.096C103.074 164.455 102.953 164.796 102.71 165.118C102.472 165.435 102.138 165.694 101.709 165.895C101.28 166.096 100.783 166.196 100.218 166.196ZM108.021 166.196C107.4 166.196 106.838 166.063 106.334 165.797C105.835 165.531 105.438 165.134 105.144 164.607C104.85 164.075 104.703 163.41 104.703 162.612C104.703 161.8 104.85 161.128 105.144 160.596C105.438 160.064 105.835 159.667 106.334 159.406C106.838 159.145 107.4 159.014 108.021 159.014C108.632 159.014 109.185 159.145 109.68 159.406C110.179 159.667 110.576 160.064 110.87 160.596C111.164 161.128 111.311 161.8 111.311 162.612C111.311 163.41 111.164 164.075 110.87 164.607C110.576 165.134 110.179 165.531 109.68 165.797C109.185 166.063 108.632 166.196 108.021 166.196ZM107.965 164.754C108.292 164.754 108.581 164.675 108.833 164.516C109.09 164.353 109.29 164.112 109.435 163.795C109.584 163.478 109.659 163.083 109.659 162.612C109.659 161.893 109.517 161.352 109.232 160.988C108.952 160.624 108.567 160.442 108.077 160.442C107.746 160.442 107.452 160.524 107.195 160.687C106.938 160.846 106.735 161.086 106.586 161.408C106.441 161.73 106.369 162.131 106.369 162.612C106.369 163.321 106.511 163.856 106.796 164.215C107.085 164.574 107.475 164.754 107.965 164.754ZM118.219 166V162.024C118.219 161.52 118.097 161.14 117.855 160.883C117.612 160.626 117.295 160.498 116.903 160.498C116.571 160.498 116.277 160.589 116.021 160.771C115.769 160.953 115.57 161.228 115.426 161.597C115.281 161.961 115.209 162.416 115.209 162.962H114.663C114.663 162.08 114.772 161.347 114.992 160.764C115.211 160.176 115.521 159.737 115.923 159.448C116.324 159.159 116.795 159.014 117.337 159.014C117.897 159.014 118.363 159.14 118.737 159.392C119.115 159.639 119.397 159.989 119.584 160.442C119.775 160.895 119.871 161.422 119.871 162.024V166H118.219ZM113.557 166V159.21H114.999L115.209 160.554V166H113.557Z" fill="#363131"/>
<path d="M24.396 184.154C23.6353 184.154 22.982 183.958 22.436 183.566C21.89 183.169 21.47 182.63 21.176 181.949C20.8867 181.263 20.742 180.481 20.742 179.604C20.742 178.652 20.903 177.852 21.225 177.203C21.5517 176.55 21.9903 176.055 22.541 175.719C23.0963 175.383 23.7147 175.215 24.396 175.215C25.278 175.215 25.9967 175.439 26.552 175.887C27.112 176.335 27.511 176.916 27.749 177.63L26.867 177.826C26.671 177.243 26.3513 176.783 25.908 176.447C25.4693 176.106 24.9653 175.936 24.396 175.936C23.906 175.936 23.4487 176.076 23.024 176.356C22.604 176.631 22.2633 177.042 22.002 177.588C21.7453 178.134 21.617 178.806 21.617 179.604C21.617 180.318 21.715 180.964 21.911 181.543C22.1117 182.117 22.4173 182.574 22.828 182.915C23.2387 183.251 23.7613 183.419 24.396 183.419C25.1427 183.419 25.74 183.218 26.188 182.817C26.6407 182.416 26.867 181.881 26.867 181.214H27.77C27.77 181.821 27.6253 182.343 27.336 182.782C27.0467 183.221 26.6477 183.559 26.139 183.797C25.6303 184.035 25.0493 184.154 24.396 184.154ZM30.1715 184V175.355H35.3795V176.048H30.9835V179.282H35.1275V179.975H30.9835V183.293H35.3795V184H30.1715ZM41.0888 184.154C40.3981 184.154 39.7775 183.991 39.2268 183.664C38.6761 183.337 38.2398 182.845 37.9178 182.187C37.5958 181.524 37.4348 180.696 37.4348 179.702C37.4348 178.694 37.5958 177.859 37.9178 177.196C38.2398 176.529 38.6761 176.032 39.2268 175.705C39.7775 175.378 40.3981 175.215 41.0888 175.215C41.7748 175.215 42.3931 175.381 42.9438 175.712C43.4945 176.039 43.9308 176.536 44.2528 177.203C44.5748 177.866 44.7358 178.699 44.7358 179.702C44.7358 180.705 44.5748 181.536 44.2528 182.194C43.9308 182.852 43.4945 183.344 42.9438 183.671C42.3931 183.993 41.7748 184.154 41.0888 184.154ZM41.0888 183.391C41.9568 183.391 42.6405 183.081 43.1398 182.46C43.6391 181.835 43.8888 180.911 43.8888 179.688C43.8888 178.484 43.6391 177.56 43.1398 176.916C42.6405 176.267 41.9568 175.943 41.0888 175.943C40.2255 175.943 39.5418 176.267 39.0378 176.916C38.5338 177.565 38.2818 178.493 38.2818 179.702C38.2818 180.92 38.5338 181.839 39.0378 182.46C39.5418 183.081 40.2255 183.391 41.0888 183.391ZM52.442 177.021H53.233V180.115H56.215V180.801H53.233V183.895H52.442V180.801H49.46V180.115H52.442V177.021ZM61.6637 184V175.355H66.8227V176.048H62.4757V179.24H66.5567V179.94H62.4757V184H61.6637ZM71.0483 184.154C70.4556 184.154 69.9329 184.021 69.4803 183.755C69.0276 183.489 68.6706 183.097 68.4093 182.579C68.1526 182.061 68.0243 181.426 68.0243 180.675C68.0243 179.924 68.1526 179.291 68.4093 178.778C68.6706 178.26 69.0276 177.868 69.4803 177.602C69.9329 177.336 70.4556 177.203 71.0483 177.203C71.6409 177.203 72.1636 177.336 72.6163 177.602C73.0689 177.868 73.4236 178.26 73.6803 178.778C73.9369 179.291 74.0653 179.924 74.0653 180.675C74.0653 181.426 73.9369 182.061 73.6803 182.579C73.4236 183.097 73.0689 183.489 72.6163 183.755C72.1636 184.021 71.6409 184.154 71.0483 184.154ZM71.0343 183.447C71.5243 183.447 71.9326 183.333 72.2593 183.104C72.5859 182.871 72.8286 182.546 72.9873 182.131C73.1506 181.716 73.2323 181.23 73.2323 180.675C73.2323 179.84 73.0526 179.168 72.6933 178.659C72.3386 178.15 71.7949 177.896 71.0623 177.896C70.5723 177.896 70.1639 178.013 69.8373 178.246C69.5153 178.475 69.2726 178.799 69.1093 179.219C68.9506 179.634 68.8713 180.12 68.8713 180.675C68.8713 181.506 69.0486 182.175 69.4033 182.684C69.7626 183.193 70.3063 183.447 71.0343 183.447ZM81.1021 177.35H81.9141V184H81.1021V177.35ZM76.3141 177.35H77.1261V181.522C77.1261 182.138 77.2755 182.609 77.5741 182.936C77.8775 183.258 78.3138 183.419 78.8831 183.419C79.3498 183.419 79.7488 183.293 80.0801 183.041C80.4115 182.789 80.6635 182.451 80.8361 182.026C81.0135 181.601 81.1021 181.132 81.1021 180.619H81.4871C81.4871 181.328 81.3775 181.947 81.1581 182.474C80.9388 183.001 80.6285 183.41 80.2271 183.699C79.8258 183.984 79.3498 184.126 78.7991 184.126C78.2858 184.126 77.8425 184.03 77.4691 183.839C77.1005 183.648 76.8158 183.363 76.6151 182.985C76.4145 182.602 76.3141 182.129 76.3141 181.564V177.35ZM89.9533 184V180.087C89.9533 179.382 89.783 178.843 89.4423 178.47C89.1063 178.097 88.642 177.91 88.0493 177.91C87.6153 177.91 87.2396 178.029 86.9223 178.267C86.6096 178.505 86.3693 178.839 86.2013 179.268C86.038 179.697 85.9563 180.199 85.9563 180.773H85.5993C85.5993 180.045 85.6973 179.415 85.8933 178.883C86.094 178.346 86.388 177.933 86.7753 177.644C87.1673 177.35 87.6526 177.203 88.2313 177.203C88.7446 177.203 89.188 177.317 89.5613 177.546C89.9393 177.775 90.231 178.106 90.4363 178.54C90.6416 178.969 90.7443 179.485 90.7443 180.087V184H89.9533ZM85.1443 184V177.357H85.8303L85.9563 178.995V184H85.1443ZM96.0748 184.154C95.5475 184.154 95.0598 184.012 94.6118 183.727C94.1685 183.438 93.8138 183.032 93.5478 182.509C93.2818 181.986 93.1488 181.368 93.1488 180.654C93.1488 179.94 93.2795 179.326 93.5408 178.813C93.8068 178.295 94.1568 177.898 94.5908 177.623C95.0295 177.343 95.5078 177.203 96.0258 177.203C96.5065 177.203 96.9335 177.322 97.3068 177.56C97.6801 177.793 97.9718 178.129 98.1818 178.568C98.3918 179.002 98.4968 179.525 98.4968 180.136H98.1258C98.1258 179.646 98.0301 179.238 97.8388 178.911C97.6521 178.58 97.4071 178.33 97.1038 178.162C96.8005 177.994 96.4761 177.91 96.1308 177.91C95.7528 177.91 95.4005 178.02 95.0738 178.239C94.7518 178.458 94.4905 178.771 94.2898 179.177C94.0938 179.583 93.9958 180.075 93.9958 180.654C93.9958 181.237 94.0938 181.737 94.2898 182.152C94.4858 182.567 94.7471 182.885 95.0738 183.104C95.4005 183.323 95.7551 183.433 96.1378 183.433C96.4645 183.433 96.7795 183.349 97.0828 183.181C97.3861 183.013 97.6358 182.766 97.8318 182.439C98.0278 182.108 98.1258 181.702 98.1258 181.221H98.4968C98.4968 181.837 98.3895 182.364 98.1748 182.803C97.9648 183.242 97.6755 183.578 97.3068 183.811C96.9428 184.04 96.5321 184.154 96.0748 184.154ZM98.2448 184L98.1258 182.488V174.48H98.9308V184H98.2448ZM104.384 184.154C103.806 184.154 103.295 184.007 102.851 183.713C102.413 183.414 102.067 183.006 101.815 182.488C101.563 181.965 101.437 181.37 101.437 180.703C101.437 179.975 101.561 179.35 101.808 178.827C102.06 178.304 102.406 177.903 102.844 177.623C103.288 177.343 103.801 177.203 104.384 177.203C104.874 177.203 105.29 177.303 105.63 177.504C105.976 177.7 106.253 177.968 106.463 178.309C106.673 178.65 106.82 179.035 106.904 179.464C106.993 179.893 107.028 180.337 107.009 180.794H102.102V180.234H106.512L106.19 180.444C106.204 180.141 106.186 179.84 106.134 179.541C106.088 179.238 105.997 178.96 105.861 178.708C105.731 178.456 105.546 178.253 105.308 178.099C105.07 177.945 104.765 177.868 104.391 177.868C103.915 177.868 103.519 177.992 103.201 178.239C102.884 178.482 102.646 178.799 102.487 179.191C102.333 179.578 102.256 179.994 102.256 180.437V180.78C102.256 181.289 102.333 181.746 102.487 182.152C102.646 182.558 102.882 182.88 103.194 183.118C103.512 183.356 103.908 183.475 104.384 183.475C104.874 183.475 105.273 183.356 105.581 183.118C105.894 182.875 106.081 182.521 106.141 182.054H107.009C106.939 182.497 106.783 182.875 106.54 183.188C106.302 183.501 105.999 183.741 105.63 183.909C105.262 184.072 104.846 184.154 104.384 184.154ZM109.514 184V177.35H110.326V184H109.514ZM110.025 180.955C110.025 180.124 110.097 179.434 110.242 178.883C110.386 178.332 110.61 177.919 110.914 177.644C111.217 177.369 111.604 177.231 112.076 177.231C112.239 177.231 112.388 177.243 112.524 177.266C112.664 177.289 112.804 177.327 112.944 177.378L112.853 178.169C112.717 178.118 112.568 178.076 112.405 178.043C112.241 178.006 112.099 177.987 111.978 177.987C111.562 177.987 111.233 178.113 110.991 178.365C110.753 178.617 110.582 178.967 110.48 179.415C110.377 179.858 110.326 180.372 110.326 180.955H110.025Z" fill="#363131"/>
</svg>
