<svg width="275" height="362" viewBox="0 0 275 362" fill="none" xmlns="http://www.w3.org/2000/svg">
<rect width="275" height="362" rx="5" fill="#F7F4ED"/>
<path d="M28.436 42.216C27.68 42.216 26.987 42.081 26.357 41.811C25.727 41.535 25.22 41.13 24.836 40.596C24.452 40.062 24.254 39.402 24.242 38.616H25.61C25.61 39.144 25.739 39.579 25.997 39.921C26.255 40.257 26.597 40.509 27.023 40.677C27.449 40.839 27.914 40.92 28.418 40.92C28.964 40.92 29.438 40.833 29.84 40.659C30.242 40.485 30.551 40.257 30.767 39.975C30.989 39.687 31.1 39.372 31.1 39.03C31.1 38.55 30.953 38.163 30.659 37.869C30.365 37.569 29.93 37.326 29.354 37.14L27.356 36.438C26.42 36.102 25.712 35.718 25.232 35.286C24.752 34.854 24.512 34.248 24.512 33.468C24.512 32.592 24.848 31.878 25.52 31.326C26.198 30.774 27.158 30.498 28.4 30.498C29.552 30.498 30.452 30.765 31.1 31.299C31.748 31.827 32.12 32.538 32.216 33.432H30.83C30.74 32.91 30.494 32.505 30.092 32.217C29.696 31.923 29.132 31.776 28.4 31.776C27.656 31.776 27.077 31.941 26.663 32.271C26.249 32.601 26.042 33.018 26.042 33.522C26.042 33.936 26.171 34.266 26.429 34.512C26.693 34.752 27.104 34.968 27.662 35.16L30.002 35.97C30.812 36.24 31.451 36.618 31.919 37.104C32.393 37.59 32.63 38.22 32.63 38.994C32.63 39.594 32.468 40.137 32.144 40.623C31.826 41.109 31.355 41.496 30.731 41.784C30.107 42.072 29.342 42.216 28.436 42.216ZM37.5889 42L41.4769 30.696H43.1869L46.9849 42H45.5089L44.5549 39.102H40.0549L39.0649 42H37.5889ZM40.4149 38.004H44.1949L42.3049 32.406L40.4149 38.004ZM52.5148 42V30.696H56.4568C57.7468 30.696 58.7218 31.005 59.3818 31.623C60.0478 32.235 60.3808 33.042 60.3808 34.044C60.3808 35.034 60.0478 35.838 59.3818 36.456C58.7218 37.068 57.7468 37.374 56.4568 37.374H53.9188V42H52.5148ZM58.8508 42L55.6108 36.87H57.1408L60.6688 42H58.8508ZM53.9188 36.384H56.3488C57.1948 36.384 57.8368 36.177 58.2748 35.763C58.7188 35.343 58.9408 34.8 58.9408 34.134C58.9408 33.45 58.7278 32.907 58.3018 32.505C57.8818 32.103 57.2668 31.902 56.4568 31.902H53.9188V36.384ZM65.4263 42L69.3143 30.696H71.0243L74.8223 42H73.3463L72.3923 39.102H67.8923L66.9023 42H65.4263ZM68.2523 38.004H72.0323L70.1423 32.406L68.2523 38.004ZM80.3522 30.696H81.7562V35.682H87.3542V30.696H88.7402V42H87.3542V36.888H81.7562V42H80.3522V30.696ZM95.0932 34.458L94.0852 33.918C94.4272 33.744 94.7152 33.549 94.9492 33.333C95.1892 33.111 95.3452 32.856 95.4172 32.568C95.1472 32.538 94.9192 32.445 94.7332 32.289C94.5532 32.133 94.4632 31.926 94.4632 31.668C94.4632 31.404 94.5622 31.182 94.7602 31.002C94.9582 30.822 95.2072 30.732 95.5072 30.732C95.7592 30.732 95.9752 30.798 96.1552 30.93C96.3352 31.056 96.4732 31.227 96.5692 31.443C96.6652 31.653 96.7132 31.89 96.7132 32.154C96.7132 32.586 96.5722 33.009 96.2902 33.423C96.0082 33.831 95.6092 34.176 95.0932 34.458ZM106.323 42.216C105.567 42.216 104.874 42.081 104.244 41.811C103.614 41.535 103.107 41.13 102.723 40.596C102.339 40.062 102.141 39.402 102.129 38.616H103.497C103.497 39.144 103.626 39.579 103.884 39.921C104.142 40.257 104.484 40.509 104.91 40.677C105.336 40.839 105.801 40.92 106.305 40.92C106.851 40.92 107.325 40.833 107.727 40.659C108.129 40.485 108.438 40.257 108.654 39.975C108.876 39.687 108.987 39.372 108.987 39.03C108.987 38.55 108.84 38.163 108.546 37.869C108.252 37.569 107.817 37.326 107.241 37.14L105.243 36.438C104.307 36.102 103.599 35.718 103.119 35.286C102.639 34.854 102.399 34.248 102.399 33.468C102.399 32.592 102.735 31.878 103.407 31.326C104.085 30.774 105.045 30.498 106.287 30.498C107.439 30.498 108.339 30.765 108.987 31.299C109.635 31.827 110.007 32.538 110.103 33.432H108.717C108.627 32.91 108.381 32.505 107.979 32.217C107.583 31.923 107.019 31.776 106.287 31.776C105.543 31.776 104.964 31.941 104.55 32.271C104.136 32.601 103.929 33.018 103.929 33.522C103.929 33.936 104.058 34.266 104.316 34.512C104.58 34.752 104.991 34.968 105.549 35.16L107.889 35.97C108.699 36.24 109.338 36.618 109.806 37.104C110.28 37.59 110.517 38.22 110.517 38.994C110.517 39.594 110.355 40.137 110.031 40.623C109.713 41.109 109.242 41.496 108.618 41.784C107.994 42.072 107.229 42.216 106.323 42.216ZM24.8 64V52.696H31.766V53.902H26.204V57.7H31.442V58.906H26.204V62.776H31.766V64H24.8ZM37.2294 64L41.2074 58.384L37.1934 52.696H38.8854L42.1434 57.304L45.1314 52.696H46.8414L42.9174 58.366L46.9854 64H45.2574L41.9814 59.482L38.9214 64H37.2294ZM52.9182 64V52.696H56.5543C57.7962 52.696 58.7442 53.011 59.3982 53.641C60.0582 54.265 60.3882 55.114 60.3882 56.188C60.3882 57.25 60.0582 58.093 59.3982 58.717C58.7442 59.335 57.7962 59.644 56.5543 59.644H54.3402V64H52.9182ZM54.3402 58.42H56.5543C57.3402 58.42 57.9342 58.219 58.3362 57.817C58.7442 57.415 58.9482 56.872 58.9482 56.188C58.9482 55.492 58.7442 54.937 58.3362 54.523C57.9342 54.109 57.3402 53.902 56.5543 53.902H54.3402V58.42ZM66.143 64V52.696H73.109V53.902H67.547V57.7H72.785V58.906H67.547V62.776H73.109V64H66.143ZM79.5085 64V52.696H83.4505C84.7405 52.696 85.7155 53.005 86.3755 53.623C87.0415 54.235 87.3745 55.042 87.3745 56.044C87.3745 57.034 87.0415 57.838 86.3755 58.456C85.7155 59.068 84.7405 59.374 83.4505 59.374H80.9125V64H79.5085ZM85.8445 64L82.6045 58.87H84.1345L87.6625 64H85.8445ZM80.9125 58.384H83.3425C84.1885 58.384 84.8305 58.177 85.2685 57.763C85.7125 57.343 85.9345 56.8 85.9345 56.134C85.9345 55.45 85.7215 54.907 85.2955 54.505C84.8755 54.103 84.2605 53.902 83.4505 53.902H80.9125V58.384ZM92.06 53.902V52.696H100.862V53.902H96.839L97.154 53.578V64H95.75V53.578L96.065 53.902H92.06ZM106.028 64V52.696H107.432V64H106.028ZM117.93 64.216C117.174 64.216 116.481 64.081 115.851 63.811C115.221 63.535 114.714 63.13 114.33 62.596C113.946 62.062 113.748 61.402 113.736 60.616H115.104C115.104 61.144 115.233 61.579 115.491 61.921C115.749 62.257 116.091 62.509 116.517 62.677C116.943 62.839 117.408 62.92 117.912 62.92C118.458 62.92 118.932 62.833 119.334 62.659C119.736 62.485 120.045 62.257 120.261 61.975C120.483 61.687 120.594 61.372 120.594 61.03C120.594 60.55 120.447 60.163 120.153 59.869C119.859 59.569 119.424 59.326 118.848 59.14L116.85 58.438C115.914 58.102 115.206 57.718 114.726 57.286C114.246 56.854 114.006 56.248 114.006 55.468C114.006 54.592 114.342 53.878 115.014 53.326C115.692 52.774 116.652 52.498 117.894 52.498C119.046 52.498 119.946 52.765 120.594 53.299C121.242 53.827 121.614 54.538 121.71 55.432H120.324C120.234 54.91 119.988 54.505 119.586 54.217C119.19 53.923 118.626 53.776 117.894 53.776C117.15 53.776 116.571 53.941 116.157 54.271C115.743 54.601 115.536 55.018 115.536 55.522C115.536 55.936 115.665 56.266 115.923 56.512C116.187 56.752 116.598 56.968 117.156 57.16L119.496 57.97C120.306 58.24 120.945 58.618 121.413 59.104C121.887 59.59 122.124 60.22 122.124 60.994C122.124 61.594 121.962 62.137 121.638 62.623C121.32 63.109 120.849 63.496 120.225 63.784C119.601 64.072 118.836 64.216 117.93 64.216ZM128.415 64V52.696H135.381V53.902H129.819V57.7H135.057V58.906H129.819V62.776H135.381V64H128.415ZM147.726 52.696H149.31L152.244 62.758H151.83L154.836 53.866H155.79L158.76 62.686H158.364L161.73 52.696H163.296L159.3 64H157.824L155.214 56.332H155.484L152.784 64H151.308L147.726 52.696ZM166.686 64L170.574 52.696H172.284L176.082 64H174.606L173.652 61.102H169.152L168.162 64H166.686ZM169.512 60.004H173.292L171.402 54.406L169.512 60.004ZM185.23 64.216C184.474 64.216 183.781 64.081 183.151 63.811C182.521 63.535 182.014 63.13 181.63 62.596C181.246 62.062 181.048 61.402 181.036 60.616H182.404C182.404 61.144 182.533 61.579 182.791 61.921C183.049 62.257 183.391 62.509 183.817 62.677C184.243 62.839 184.708 62.92 185.212 62.92C185.758 62.92 186.232 62.833 186.634 62.659C187.036 62.485 187.345 62.257 187.561 61.975C187.783 61.687 187.894 61.372 187.894 61.03C187.894 60.55 187.747 60.163 187.453 59.869C187.159 59.569 186.724 59.326 186.148 59.14L184.15 58.438C183.214 58.102 182.506 57.718 182.026 57.286C181.546 56.854 181.306 56.248 181.306 55.468C181.306 54.592 181.642 53.878 182.314 53.326C182.992 52.774 183.952 52.498 185.194 52.498C186.346 52.498 187.246 52.765 187.894 53.299C188.542 53.827 188.914 54.538 189.01 55.432H187.624C187.534 54.91 187.288 54.505 186.886 54.217C186.49 53.923 185.926 53.776 185.194 53.776C184.45 53.776 183.871 53.941 183.457 54.271C183.043 54.601 182.836 55.018 182.836 55.522C182.836 55.936 182.965 56.266 183.223 56.512C183.487 56.752 183.898 56.968 184.456 57.16L186.796 57.97C187.606 58.24 188.245 58.618 188.713 59.104C189.187 59.59 189.424 60.22 189.424 60.994C189.424 61.594 189.262 62.137 188.938 62.623C188.62 63.109 188.149 63.496 187.525 63.784C186.901 64.072 186.136 64.216 185.23 64.216Z" fill="#363131"/>
<rect width="213" height="20" transform="translate(20 78)" fill="#D7C6FF"/>
<path d="M28.7944 87.5159C28.7944 85.4374 30.4991 83.7925 32.6374 83.7925C33.8785 83.7925 34.9252 84.1514 35.8374 84.9589L34.8804 85.7215C34.1477 85.1084 33.5047 84.9589 32.6673 84.9589C31.2168 84.9589 30.0206 86.1103 30.0206 87.5308C30.0206 88.9364 31.1271 90.043 32.6224 90.043C33.5944 90.043 34.5514 89.5645 35.0299 88.8916L35.9121 89.6393C35.2393 90.5664 33.8636 91.2093 32.5178 91.2093C30.4841 91.2093 28.7944 89.5645 28.7944 87.5159ZM35.8374 84.9589V87.0523H34.6112V85.2729L35.8374 84.9589ZM42.0145 87.2617C42.0145 85.3178 43.1061 83.7925 44.7809 83.7925C45.4089 83.7925 46.0669 83.972 46.5753 84.4953V85.7215C46.0519 85.1682 45.379 84.9589 44.7809 84.9589C43.6295 84.9589 42.6725 86.0056 42.6725 87.2617H42.0145ZM41.4613 91V84.0019H42.6276V85.4673L42.6725 86.2598V91H41.4613ZM39.5473 85.1682V84.0019H42.6276L42.1641 85.1682H39.5473ZM39.5473 91V89.8486H42.194L42.6725 91H39.5473ZM41.4613 91L41.9996 89.8486H45.0052V91H41.4613ZM54.9057 91V89.1607V88.5776V84.0019H56.1169V91H54.9057ZM49.9562 87.8299V84.0019H51.1525V87.8299C51.1525 89.2953 52.0048 90.043 53.0366 90.043C54.0534 90.043 54.9057 89.2654 54.9057 87.8299H55.5637C55.5637 89.3701 54.6216 91.1794 52.7973 91.1794C51.1973 91.1794 49.9562 89.9533 49.9562 87.8299ZM53.53 85.1682V84.0019H56.1169L55.7132 85.1682H53.53ZM48.5805 85.1682V84.0019H51.1525L50.7637 85.1682H48.5805ZM54.9057 91L55.2945 89.8486H57.4777V91H54.9057ZM60.2006 87.5159C60.2006 85.4374 61.9053 83.7925 64.0436 83.7925C65.2848 83.7925 66.3315 84.1514 67.2436 84.9589L66.2866 85.7215C65.5539 85.1084 64.9109 84.9589 64.0735 84.9589C62.6231 84.9589 61.4268 86.1103 61.4268 87.5308C61.4268 88.9364 62.5334 90.043 64.0287 90.043C65.0006 90.043 65.9577 89.5645 66.4362 88.8916L67.3184 89.6393C66.6455 90.5664 65.2698 91.2093 63.924 91.2093C61.8904 91.2093 60.2006 89.5645 60.2006 87.5159ZM67.2436 84.9589V87.0523H66.0175V85.2729L67.2436 84.9589ZM71.0283 91V89.8486H74.4376L75.0357 91H71.0283ZM73.8245 91L74.4376 89.8486H77.847V91H73.8245ZM71.0283 85.1682V84.0019H75.0357L74.4376 85.1682H71.0283ZM73.8245 91V84.0019H75.0357V91H73.8245ZM74.4675 82.3421C73.8245 82.3421 73.2862 81.8336 73.2862 81.1757C73.2862 80.5178 73.8245 79.9944 74.4675 79.9944C75.0956 79.9944 75.6339 80.5178 75.6339 81.1757C75.6339 81.8336 75.0956 82.3421 74.4675 82.3421ZM83.9494 91.2093C82.0054 91.2093 80.3755 89.5346 80.3755 87.5009C80.3755 85.4673 82.0054 83.7925 83.9494 83.7925C85.9082 83.7925 87.3737 85.5869 87.3737 87.5009C87.3737 89.415 85.9082 91.2093 83.9494 91.2093ZM84.069 90.043C85.4148 90.043 86.5363 88.8916 86.5363 87.5009C86.5363 86.1252 85.4148 84.9589 84.069 84.9589C82.7232 84.9589 81.6017 86.1402 81.6017 87.5009C81.6017 88.8766 82.7232 90.043 84.069 90.043ZM86.4316 91V88.5178L86.7606 87.5009L86.4316 86.4093V84.0019H87.6428V91H86.4316ZM86.4316 91L86.8204 89.8486H89.0036V91H86.4316ZM94.7471 91V80.0542H95.9583V91H94.7471ZM91.9359 91V89.8486H95.3452L95.9583 91H91.9359ZM94.7471 91L95.3452 89.8486H98.7546V91H94.7471ZM91.9508 81.2206V80.0542H95.9583L95.3452 81.2206H91.9508ZM112.903 91V89.8486H116.313L116.911 91H112.903ZM115.7 91L116.313 89.8486H119.722V91H115.7ZM112.903 85.1682V84.0019H116.911L116.313 85.1682H112.903ZM115.7 91V84.0019H116.911V91H115.7ZM116.343 82.3421C115.7 82.3421 115.161 81.8336 115.161 81.1757C115.161 80.5178 115.7 79.9944 116.343 79.9944C116.971 79.9944 117.509 80.5178 117.509 81.1757C117.509 81.8336 116.971 82.3421 116.343 82.3421ZM123.626 91V84.0019H124.793V85.871L124.837 86.6636V91H123.626ZM124.179 87.157C124.179 85.6019 125.122 83.7925 126.946 83.7925C128.576 83.7925 129.787 85.0336 129.787 87.1421V91H128.591V87.157C128.591 85.7364 127.783 84.9589 126.707 84.9589C125.69 84.9589 124.837 85.7215 124.837 87.157H124.179ZM122.265 85.1682V84.0019H124.793L124.419 85.1682H122.265ZM122.265 91V89.8486H124.449L124.837 91H122.265ZM123.626 91L124 89.8486H126.094V91H123.626ZM127.335 91V89.8486H129.428L129.787 91H127.335ZM128.591 91L128.979 89.8486H131.163V91H128.591ZM146.762 91.2093C144.818 91.2093 143.188 89.5346 143.188 87.5009C143.188 85.4673 144.818 83.7925 146.762 83.7925C148.721 83.7925 150.186 85.5869 150.186 87.5009C150.186 89.415 148.721 91.2093 146.762 91.2093ZM146.881 90.043C148.227 90.043 149.349 88.8916 149.349 87.5009C149.349 86.1252 148.227 84.9589 146.881 84.9589C145.536 84.9589 144.414 86.1402 144.414 87.5009C144.414 88.8766 145.536 90.043 146.881 90.043ZM149.244 91V88.5178L149.573 87.5009L149.244 86.4093V84.0019H150.455V91H149.244ZM149.244 91L149.633 89.8486H151.816V91H149.244ZM157.56 91V80.0542H158.771V91H157.56ZM154.748 91V89.8486H158.158L158.771 91H154.748ZM157.56 91L158.158 89.8486H161.567V91H157.56ZM154.763 81.2206V80.0542H158.771L158.158 81.2206H154.763ZM165.247 91V89.8486H168.656L169.254 91H165.247ZM168.043 91L168.656 89.8486H172.066V91H168.043ZM165.247 85.1682V84.0019H169.254L168.656 85.1682H165.247ZM168.043 91V84.0019H169.254V91H168.043ZM168.686 82.3421C168.043 82.3421 167.505 81.8336 167.505 81.1757C167.505 80.5178 168.043 79.9944 168.686 79.9944C169.314 79.9944 169.853 80.5178 169.853 81.1757C169.853 81.8336 169.314 82.3421 168.686 82.3421ZM177.271 95.1271C175.91 95.1271 174.774 94.1701 174.774 93.0187C174.774 91.9121 175.761 91 176.957 91L177.062 90.7607H180.875C182.101 90.7607 183.133 91.7477 183.133 92.914C183.133 94.1252 182.011 95.1271 180.695 95.1271H177.271ZM178.632 89.3103C176.748 89.3103 175.402 88.2037 175.402 86.6486C175.402 85.1084 176.748 84.0019 178.632 84.0019C180.396 84.0019 181.832 85.243 181.832 86.7533C181.832 88.2486 180.486 89.3103 178.632 89.3103ZM178.632 88.2636C179.813 88.2636 180.665 87.5907 180.665 86.6486C180.665 85.7215 179.813 85.0486 178.632 85.0486C177.435 85.0486 176.568 85.7215 176.568 86.6486C176.568 87.5907 177.435 88.2636 178.632 88.2636ZM177.166 91.5383C176.134 91.5383 175.148 91.0299 175.148 89.8935C175.148 88.9664 175.805 88.3383 176.718 88.0841L177.091 88.7869C176.613 88.8916 176.269 89.3103 176.269 89.8336C176.269 90.372 176.688 90.7607 177.361 90.7607L177.166 91.5383ZM180.591 94.0804C181.353 94.0804 181.936 93.5869 181.936 92.9589C181.936 92.3308 181.383 91.8224 180.695 91.8224H177.166C176.493 91.8224 175.955 92.3308 175.955 92.9589C175.955 93.5869 176.538 94.0804 177.286 94.0804H180.591ZM179.334 85.0486L178.632 84.0019H183.387V85.0486H179.334ZM186.439 91V84.0019H187.605V85.871L187.65 86.6636V91H186.439ZM186.992 87.157C186.992 85.6019 187.934 83.7925 189.758 83.7925C191.388 83.7925 192.599 85.0336 192.599 87.1421V91H191.403V87.157C191.403 85.7364 190.596 84.9589 189.519 84.9589C188.502 84.9589 187.65 85.7215 187.65 87.157H186.992ZM185.078 85.1682V84.0019H187.605L187.231 85.1682H185.078ZM185.078 91V89.8486H187.261L187.65 91H185.078ZM186.439 91L186.813 89.8486H188.906V91H186.439ZM190.147 91V89.8486H192.241L192.599 91H190.147ZM191.403 91L191.792 89.8486H193.975V91H191.403ZM196.653 91V89.8486H200.063L200.661 91H196.653ZM199.45 91L200.063 89.8486H203.472V91H199.45ZM196.653 85.1682V84.0019H200.661L200.063 85.1682H196.653ZM199.45 91V84.0019H200.661V91H199.45ZM200.093 82.3421C199.45 82.3421 198.911 81.8336 198.911 81.1757C198.911 80.5178 199.45 79.9944 200.093 79.9944C200.721 79.9944 201.259 80.5178 201.259 81.1757C201.259 81.8336 200.721 82.3421 200.093 82.3421ZM207.376 91V84.0019H208.543V85.871L208.587 86.6636V91H207.376ZM207.929 87.157C207.929 85.6019 208.872 83.7925 210.696 83.7925C212.326 83.7925 213.537 85.0336 213.537 87.1421V91H212.341V87.157C212.341 85.7364 211.533 84.9589 210.457 84.9589C209.44 84.9589 208.587 85.7215 208.587 87.157H207.929ZM206.015 85.1682V84.0019H208.543L208.169 85.1682H206.015ZM206.015 91V89.8486H208.199L208.587 91H206.015ZM207.376 91L207.75 89.8486H209.844V91H207.376ZM211.085 91V89.8486H213.178L213.537 91H211.085ZM212.341 91L212.729 89.8486H214.913V91H212.341ZM219.146 95.1271C217.785 95.1271 216.649 94.1701 216.649 93.0187C216.649 91.9121 217.636 91 218.832 91L218.937 90.7607H222.75C223.976 90.7607 225.008 91.7477 225.008 92.914C225.008 94.1252 223.886 95.1271 222.57 95.1271H219.146ZM220.507 89.3103C218.623 89.3103 217.277 88.2037 217.277 86.6486C217.277 85.1084 218.623 84.0019 220.507 84.0019C222.271 84.0019 223.707 85.243 223.707 86.7533C223.707 88.2486 222.361 89.3103 220.507 89.3103ZM220.507 88.2636C221.688 88.2636 222.54 87.5907 222.54 86.6486C222.54 85.7215 221.688 85.0486 220.507 85.0486C219.31 85.0486 218.443 85.7215 218.443 86.6486C218.443 87.5907 219.31 88.2636 220.507 88.2636ZM219.041 91.5383C218.009 91.5383 217.023 91.0299 217.023 89.8935C217.023 88.9664 217.68 88.3383 218.593 88.0841L218.966 88.7869C218.488 88.8916 218.144 89.3103 218.144 89.8336C218.144 90.372 218.563 90.7607 219.236 90.7607L219.041 91.5383ZM222.466 94.0804C223.228 94.0804 223.811 93.5869 223.811 92.9589C223.811 92.3308 223.258 91.8224 222.57 91.8224H219.041C218.368 91.8224 217.83 92.3308 217.83 92.9589C217.83 93.5869 218.413 94.0804 219.161 94.0804H222.466ZM221.209 85.0486L220.507 84.0019H225.262V85.0486H221.209Z" fill="#363131"/>
<rect width="151" height="20" transform="translate(20 103)" fill="#D7C6FF"/>
<path d="M32.2336 116.209C30.1252 116.209 28.5701 114.505 28.5701 112.501C28.5701 110.497 30.2 108.793 32.2336 108.793C34.2523 108.793 35.8822 110.497 35.8822 112.501C35.8822 114.505 34.3271 116.209 32.2336 116.209ZM32.2336 115.043C33.5944 115.043 34.6561 113.907 34.6561 112.501C34.6561 111.095 33.5944 109.959 32.2336 109.959C30.8579 109.959 29.7963 111.095 29.7963 112.501C29.7963 113.907 30.8579 115.043 32.2336 115.043ZM44.437 116V114.161V113.578V109.002H45.6482V116H44.437ZM39.4874 112.83V109.002H40.6837V112.83C40.6837 114.295 41.536 115.043 42.5678 115.043C43.5846 115.043 44.437 114.265 44.437 112.83H45.0949C45.0949 114.37 44.1529 116.179 42.3286 116.179C40.7286 116.179 39.4874 114.953 39.4874 112.83ZM43.0613 110.168V109.002H45.6482L45.2445 110.168H43.0613ZM38.1117 110.168V109.002H40.6837L40.2949 110.168H38.1117ZM44.437 116L44.8258 114.849H47.0089V116H44.437ZM52.4833 112.262C52.4833 110.318 53.5749 108.793 55.2496 108.793C55.8777 108.793 56.5356 108.972 57.044 109.495V110.721C56.5207 110.168 55.8478 109.959 55.2496 109.959C54.0982 109.959 53.1412 111.006 53.1412 112.262H52.4833ZM51.93 116V109.002H53.0964V110.467L53.1412 111.26V116H51.93ZM50.016 110.168V109.002H53.0964L52.6328 110.168H50.016ZM50.016 116V114.849H52.6627L53.1412 116H50.016ZM51.93 116L52.4683 114.849H55.4739V116H51.93ZM74.9161 116.209C73.4058 116.209 72.3292 115.088 72.3292 113.607V106.55H73.5404V113.578C73.5404 114.445 74.1086 115.043 74.9161 115.043C75.6937 115.043 76.2918 114.445 76.2918 113.578V112.411H77.4881V113.578C77.4881 115.088 76.3965 116.209 74.9161 116.209ZM70.161 110.168V109.002H73.5404L73.032 110.168H70.161ZM72.9124 110.168L72.3292 109.002H76.1572V110.168H72.9124ZM87.9568 114.699C87.269 115.596 85.968 116.209 84.5624 116.209C82.5587 116.209 80.8839 114.55 80.8839 112.501C80.8839 110.482 82.5438 108.793 84.5624 108.793C86.5811 108.793 88.2709 110.437 88.2709 112.456C88.2709 112.636 88.226 112.845 88.1662 113.009H81.5568V111.948H87.3886L87.0297 112.471C87.0297 111.05 85.8933 109.959 84.5624 109.959C83.1718 109.959 82.1101 111.095 82.1101 112.501C82.1101 113.892 83.2017 115.043 84.6671 115.043C85.6839 115.043 86.5961 114.594 87.0746 113.951L87.9568 114.699ZM94.4181 116.209C92.4742 116.209 90.8443 114.535 90.8443 112.501C90.8443 110.467 92.4742 108.793 94.4181 108.793C96.377 108.793 97.8424 110.587 97.8424 112.501C97.8424 114.415 96.377 116.209 94.4181 116.209ZM94.5377 115.043C95.8835 115.043 97.005 113.892 97.005 112.501C97.005 111.125 95.8835 109.959 94.5377 109.959C93.1919 109.959 92.0704 111.14 92.0704 112.501C92.0704 113.877 93.1919 115.043 94.5377 115.043ZM96.9004 116V113.518L97.2293 112.501L96.9004 111.409V109.002H98.1116V116H96.9004ZM96.9004 116L97.2891 114.849H99.4723V116H96.9004ZM101.821 116V109.002H103.018V110.587L103.033 111.17V116H101.821ZM108.326 111.619C108.326 110.422 107.997 109.959 107.459 109.959C106.846 109.959 106.278 110.707 106.278 112.127H105.62C105.62 110.796 106.562 108.793 107.833 108.793C108.924 108.793 109.537 109.75 109.537 111.619V116H108.326V111.619ZM105.081 111.619C105.081 110.422 104.752 109.959 104.214 109.959C103.601 109.959 103.033 110.721 103.033 112.157H102.375C102.375 110.826 103.317 108.793 104.588 108.793C105.664 108.793 106.278 109.75 106.278 111.619V116H105.081V111.619ZM126.452 116.209C124.344 116.209 122.789 114.505 122.789 112.501C122.789 110.497 124.419 108.793 126.452 108.793C128.471 108.793 130.101 110.497 130.101 112.501C130.101 114.505 128.546 116.209 126.452 116.209ZM126.452 115.043C127.813 115.043 128.875 113.907 128.875 112.501C128.875 111.095 127.813 109.959 126.452 109.959C125.077 109.959 124.015 111.095 124.015 112.501C124.015 113.907 125.077 115.043 126.452 115.043ZM134.095 116V109.002H135.261V110.871L135.306 111.664V116H134.095ZM134.648 112.157C134.648 110.602 135.59 108.793 137.415 108.793C139.045 108.793 140.256 110.034 140.256 112.142V116H139.059V112.157C139.059 110.736 138.252 109.959 137.175 109.959C136.159 109.959 135.306 110.721 135.306 112.157H134.648ZM132.734 110.168V109.002H135.261L134.888 110.168H132.734ZM132.734 116V114.849H134.917L135.306 116H132.734ZM134.095 116L134.469 114.849H136.562V116H134.095ZM137.803 116V114.849H139.897L140.256 116H137.803ZM139.059 116L139.448 114.849H141.631V116H139.059ZM157.231 116.209C155.287 116.209 153.657 114.535 153.657 112.501C153.657 110.467 155.287 108.793 157.231 108.793C159.189 108.793 160.655 110.587 160.655 112.501C160.655 114.415 159.189 116.209 157.231 116.209ZM157.35 115.043C158.696 115.043 159.818 113.892 159.818 112.501C159.818 111.125 158.696 109.959 157.35 109.959C156.004 109.959 154.883 111.14 154.883 112.501C154.883 113.877 156.004 115.043 157.35 115.043ZM159.713 116V113.518L160.042 112.501L159.713 111.409V109.002H160.924V116H159.713ZM159.713 116L160.102 114.849H162.285V116H159.713Z" fill="#363131"/>
<rect width="151" height="20" transform="translate(20 128)" fill="#D7C6FF"/>
<path d="M33.9682 141V139.161V138.578V134.002H35.1794V141H33.9682ZM29.0187 137.83V134.002H30.215V137.83C30.215 139.295 31.0673 140.043 32.0991 140.043C33.1159 140.043 33.9682 139.265 33.9682 137.83H34.6262C34.6262 139.37 33.6841 141.179 31.8598 141.179C30.2598 141.179 29.0187 139.953 29.0187 137.83ZM32.5925 135.168V134.002H35.1794L34.7757 135.168H32.5925ZM27.643 135.168V134.002H30.215L29.8262 135.168H27.643ZM33.9682 141L34.357 139.849H36.5402V141H33.9682ZM39.8762 141V134.002H41.0426V135.871L41.0874 136.664V141H39.8762ZM40.4295 137.157C40.4295 135.602 41.3716 133.793 43.1959 133.793C44.8258 133.793 46.037 135.034 46.037 137.142V141H44.8407V137.157C44.8407 135.736 44.0332 134.959 42.9566 134.959C41.9398 134.959 41.0874 135.721 41.0874 137.157H40.4295ZM38.5155 135.168V134.002H41.0426L40.6688 135.168H38.5155ZM38.5155 141V139.849H40.6987L41.0874 141H38.5155ZM39.8762 141L40.2501 139.849H42.3435V141H39.8762ZM43.5846 141V139.849H45.6781L46.037 141H43.5846ZM44.8407 141L45.2295 139.849H47.4127V141H44.8407ZM50.0908 141V139.849H53.5001L54.0982 141H50.0908ZM52.887 141L53.5001 139.849H56.9095V141H52.887ZM50.0908 135.168V134.002H54.0982L53.5001 135.168H50.0908ZM52.887 141V134.002H54.0982V141H52.887ZM53.53 132.342C52.887 132.342 52.3487 131.834 52.3487 131.176C52.3487 130.518 52.887 129.994 53.53 129.994C54.1581 129.994 54.6964 130.518 54.6964 131.176C54.6964 131.834 54.1581 132.342 53.53 132.342ZM62.7726 132.611C62.7726 130.996 63.8343 129.86 65.3296 129.86C66.8249 129.86 67.9016 130.981 67.9016 132.566V132.746H66.6904V132.566C66.6904 131.654 66.1221 131.011 65.3296 131.011C64.5221 131.011 63.9838 131.654 63.9838 132.566V141H62.7726V132.611ZM60.6642 135.168V134.002H63.9838L63.4754 135.168H60.6642ZM63.3707 135.168L62.7726 134.002H66.7352V135.168H63.3707ZM60.6642 141V139.849H63.4754L63.9838 141H60.6642ZM62.7726 141L63.3707 139.849H66.7352V141H62.7726ZM71.0268 141V139.849H74.4362L75.0343 141H71.0268ZM73.8231 141L74.4362 139.849H77.8455V141H73.8231ZM71.0268 135.168V134.002H75.0343L74.4362 135.168H71.0268ZM73.8231 141V134.002H75.0343V141H73.8231ZM74.4661 132.342C73.8231 132.342 73.2848 131.834 73.2848 131.176C73.2848 130.518 73.8231 129.994 74.4661 129.994C75.0941 129.994 75.6324 130.518 75.6324 131.176C75.6324 131.834 75.0941 132.342 74.4661 132.342ZM87.9568 139.699C87.269 140.596 85.968 141.209 84.5624 141.209C82.5587 141.209 80.8839 139.55 80.8839 137.501C80.8839 135.482 82.5438 133.793 84.5624 133.793C86.5811 133.793 88.2709 135.437 88.2709 137.456C88.2709 137.636 88.226 137.845 88.1662 138.009H81.5568V136.948H87.3886L87.0297 137.471C87.0297 136.05 85.8933 134.959 84.5624 134.959C83.1718 134.959 82.1101 136.095 82.1101 137.501C82.1101 138.892 83.2017 140.043 84.6671 140.043C85.6839 140.043 86.5961 139.594 87.0746 138.951L87.9568 139.699ZM96.9004 141V138.593L97.2293 137.546L96.9004 136.499V130.054H98.1116V141H96.9004ZM94.4181 141.209C92.4742 141.209 90.8443 139.535 90.8443 137.501C90.8443 135.467 92.4742 133.793 94.4181 133.793C96.377 133.793 97.8424 135.587 97.8424 137.501C97.8424 139.415 96.377 141.209 94.4181 141.209ZM94.5377 140.043C95.8835 140.043 97.005 138.892 97.005 137.501C97.005 136.125 95.8835 134.959 94.5377 134.959C93.1919 134.959 92.0704 136.14 92.0704 137.501C92.0704 138.877 93.1919 140.043 94.5377 140.043ZM95.2704 131.221V130.054H98.1116L97.6779 131.221H95.2704ZM96.9004 141L97.2891 139.849H99.4723V141H96.9004ZM116.582 141.209C114.638 141.209 113.172 139.415 113.172 137.501C113.172 135.587 114.638 133.793 116.582 133.793C118.541 133.793 120.156 135.467 120.156 137.501C120.156 139.535 118.541 141.209 116.582 141.209ZM116.462 140.043C117.808 140.043 118.929 138.877 118.929 137.501C118.929 136.14 117.808 134.959 116.462 134.959C115.116 134.959 114.01 136.125 114.01 137.501C114.01 138.892 115.116 140.043 116.462 140.043ZM112.903 141V130.054H114.1V136.32L113.771 137.561L114.1 138.817V141H112.903ZM111.528 131.221V130.054H114.1L113.711 131.221H111.528ZM125.765 137.262C125.765 135.318 126.856 133.793 128.531 133.793C129.159 133.793 129.817 133.972 130.325 134.495V135.721C129.802 135.168 129.129 134.959 128.531 134.959C127.379 134.959 126.422 136.006 126.422 137.262H125.765ZM125.211 141V134.002H126.378V135.467L126.422 136.26V141H125.211ZM123.297 135.168V134.002H126.378L125.914 135.168H123.297ZM123.297 141V139.849H125.944L126.422 141H123.297ZM125.211 141L125.75 139.849H128.755V141H125.211ZM136.293 141.209C134.349 141.209 132.719 139.535 132.719 137.501C132.719 135.467 134.349 133.793 136.293 133.793C138.252 133.793 139.717 135.587 139.717 137.501C139.717 139.415 138.252 141.209 136.293 141.209ZM136.413 140.043C137.759 140.043 138.88 138.892 138.88 137.501C138.88 136.125 137.759 134.959 136.413 134.959C135.067 134.959 133.945 136.14 133.945 137.501C133.945 138.877 135.067 140.043 136.413 140.043ZM138.775 141V138.518L139.104 137.501L138.775 136.409V134.002H139.987V141H138.775ZM138.775 141L139.164 139.849H141.347V141H138.775ZM144.564 141V134.002H145.73V135.871L145.775 136.664V141H144.564ZM145.117 137.157C145.117 135.602 146.059 133.793 147.883 133.793C149.513 133.793 150.724 135.034 150.724 137.142V141H149.528V137.157C149.528 135.736 148.721 134.959 147.644 134.959C146.627 134.959 145.775 135.721 145.775 137.157H145.117ZM143.203 135.168V134.002H145.73L145.356 135.168H143.203ZM143.203 141V139.849H145.386L145.775 141H143.203ZM144.564 141L144.938 139.849H147.031V141H144.564ZM148.272 141V139.849H150.366L150.724 141H148.272ZM149.528 141L149.917 139.849H152.1V141H149.528ZM159.713 141V138.593L160.042 137.546L159.713 136.499V130.054H160.924V141H159.713ZM157.231 141.209C155.287 141.209 153.657 139.535 153.657 137.501C153.657 135.467 155.287 133.793 157.231 133.793C159.189 133.793 160.655 135.587 160.655 137.501C160.655 139.415 159.189 141.209 157.231 141.209ZM157.35 140.043C158.696 140.043 159.818 138.892 159.818 137.501C159.818 136.125 158.696 134.959 157.35 134.959C156.004 134.959 154.883 136.14 154.883 137.501C154.883 138.877 156.004 140.043 157.35 140.043ZM158.083 131.221V130.054H160.924L160.49 131.221H158.083ZM159.713 141L160.102 139.849H162.285V141H159.713Z" fill="#363131"/>
<rect width="224" height="20" transform="translate(20 153)" fill="#D7C6FF"/>
<path d="M29.1533 166V164.849H32.5626L33.1607 166H29.1533ZM31.9495 166L32.5626 164.849H35.972V166H31.9495ZM29.1533 160.168V159.002H33.1607L32.5626 160.168H29.1533ZM31.9495 166V159.002H33.1607V166H31.9495ZM32.5925 157.342C31.9495 157.342 31.4112 156.834 31.4112 156.176C31.4112 155.518 31.9495 154.994 32.5925 154.994C33.2206 154.994 33.7589 155.518 33.7589 156.176C33.7589 156.834 33.2206 157.342 32.5925 157.342ZM44.5566 166V163.593L44.8856 162.546L44.5566 161.499V155.054H45.7678V166H44.5566ZM42.0744 166.209C40.1304 166.209 38.5005 164.535 38.5005 162.501C38.5005 160.467 40.1304 158.793 42.0744 158.793C44.0332 158.793 45.4987 160.587 45.4987 162.501C45.4987 164.415 44.0332 166.209 42.0744 166.209ZM42.194 165.043C43.5398 165.043 44.6613 163.892 44.6613 162.501C44.6613 161.125 43.5398 159.959 42.194 159.959C40.8482 159.959 39.7267 161.14 39.7267 162.501C39.7267 163.877 40.8482 165.043 42.194 165.043ZM42.9267 156.221V155.054H45.7678L45.3342 156.221H42.9267ZM44.5566 166L44.9454 164.849H47.1286V166H44.5566ZM56.5506 164.699C55.8627 165.596 54.5618 166.209 53.1562 166.209C51.1525 166.209 49.4777 164.55 49.4777 162.501C49.4777 160.482 51.1375 158.793 53.1562 158.793C55.1749 158.793 56.8646 160.437 56.8646 162.456C56.8646 162.636 56.8197 162.845 56.7599 163.009H50.1506V161.948H55.9824L55.6235 162.471C55.6235 161.05 54.487 159.959 53.1562 159.959C51.7655 159.959 50.7039 161.095 50.7039 162.501C50.7039 163.892 51.7954 165.043 53.2609 165.043C54.2777 165.043 55.1898 164.594 55.6683 163.951L56.5506 164.699ZM60.8137 166V159.002H61.9801V160.871L62.0249 161.664V166H60.8137ZM61.367 162.157C61.367 160.602 62.3091 158.793 64.1334 158.793C65.7633 158.793 66.9745 160.034 66.9745 162.142V166H65.7782V162.157C65.7782 160.736 64.9707 159.959 63.8941 159.959C62.8773 159.959 62.0249 160.721 62.0249 162.157H61.367ZM59.453 160.168V159.002H61.9801L61.6063 160.168H59.453ZM59.453 166V164.849H61.6362L62.0249 166H59.453ZM60.8137 166L61.1876 164.849H63.281V166H60.8137ZM64.5221 166V164.849H66.6156L66.9745 166H64.5221ZM65.7782 166L66.167 164.849H68.3502V166H65.7782ZM74.9161 166.209C73.4058 166.209 72.3292 165.088 72.3292 163.607V156.55H73.5404V163.578C73.5404 164.445 74.1086 165.043 74.9161 165.043C75.6937 165.043 76.2918 164.445 76.2918 163.578V162.411H77.4881V163.578C77.4881 165.088 76.3965 166.209 74.9161 166.209ZM70.161 160.168V159.002H73.5404L73.032 160.168H70.161ZM72.9124 160.168L72.3292 159.002H76.1572V160.168H72.9124ZM81.497 166V164.849H84.9064L85.5045 166H81.497ZM84.2933 166L84.9064 164.849H88.3157V166H84.2933ZM81.497 160.168V159.002H85.5045L84.9064 160.168H81.497ZM84.2933 166V159.002H85.5045V166H84.2933ZM84.9363 157.342C84.2933 157.342 83.755 156.834 83.755 156.176C83.755 155.518 84.2933 154.994 84.9363 154.994C85.5643 154.994 86.1026 155.518 86.1026 156.176C86.1026 156.834 85.5643 157.342 84.9363 157.342ZM95.8536 166.209C94.3433 166.209 93.2667 165.088 93.2667 163.607V156.55H94.4779V163.578C94.4779 164.445 95.0461 165.043 95.8536 165.043C96.6312 165.043 97.2293 164.445 97.2293 163.578V162.411H98.4256V163.578C98.4256 165.088 97.334 166.209 95.8536 166.209ZM91.0985 160.168V159.002H94.4779L93.9695 160.168H91.0985ZM93.8499 160.168L93.2667 159.002H97.0947V160.168H93.8499ZM102.3 162.86V159.002H103.496V162.86C103.496 164.31 104.349 165.073 105.38 165.073C106.397 165.073 107.249 164.28 107.249 162.86H107.907C107.907 164.4 106.965 166.209 105.141 166.209C103.556 166.209 102.3 164.968 102.3 162.86ZM103.436 166.897C103.466 168.333 104.154 169.11 105.291 169.11C106.307 169.11 107.249 168.407 107.249 166.987V159.002H108.461V166.987C108.461 169.095 106.98 170.307 105.276 170.307C103.586 170.307 102.27 169.095 102.27 167.107L103.436 166.897ZM100.924 160.168V159.002H103.496L103.107 160.168H100.924ZM102.659 160.168L102.3 159.002H104.752V160.168H102.659ZM107.638 160.168L107.249 159.002H109.821V160.168H107.638ZM105.993 160.168V159.002H108.461L108.087 160.168H105.993ZM114.847 168.258L114.129 167.645L115.685 165.776H116.896L114.847 168.258ZM115.999 166.209C115.356 166.209 114.817 165.701 114.817 165.043C114.817 164.385 115.356 163.862 115.999 163.862C116.627 163.862 117.165 164.385 117.165 165.043C117.165 165.701 116.627 166.209 115.999 166.209ZM133.482 162.516C133.482 160.437 135.187 158.793 137.325 158.793C138.566 158.793 139.613 159.151 140.525 159.959L139.568 160.721C138.835 160.108 138.192 159.959 137.355 159.959C135.904 159.959 134.708 161.11 134.708 162.531C134.708 163.936 135.815 165.043 137.31 165.043C138.282 165.043 139.239 164.564 139.717 163.892L140.6 164.639C139.927 165.566 138.551 166.209 137.205 166.209C135.172 166.209 133.482 164.564 133.482 162.516ZM140.525 159.959V162.052H139.299V160.273L140.525 159.959ZM146.702 162.262C146.702 160.318 147.794 158.793 149.468 158.793C150.096 158.793 150.754 158.972 151.263 159.495V160.721C150.739 160.168 150.067 159.959 149.468 159.959C148.317 159.959 147.36 161.006 147.36 162.262H146.702ZM146.149 166V159.002H147.315V160.467L147.36 161.26V166H146.149ZM144.235 160.168V159.002H147.315L146.852 160.168H144.235ZM144.235 166V164.849H146.881L147.36 166H144.235ZM146.149 166L146.687 164.849H149.693V166H146.149ZM161.238 164.699C160.55 165.596 159.249 166.209 157.844 166.209C155.84 166.209 154.165 164.55 154.165 162.501C154.165 160.482 155.825 158.793 157.844 158.793C159.862 158.793 161.552 160.437 161.552 162.456C161.552 162.636 161.507 162.845 161.447 163.009H154.838V161.948H160.67L160.311 162.471C160.311 161.05 159.175 159.959 157.844 159.959C156.453 159.959 155.391 161.095 155.391 162.501C155.391 163.892 156.483 165.043 157.948 165.043C158.965 165.043 159.877 164.594 160.356 163.951L161.238 164.699ZM167.699 166.209C165.755 166.209 164.126 164.535 164.126 162.501C164.126 160.467 165.755 158.793 167.699 158.793C169.658 158.793 171.124 160.587 171.124 162.501C171.124 164.415 169.658 166.209 167.699 166.209ZM167.819 165.043C169.165 165.043 170.286 163.892 170.286 162.501C170.286 161.125 169.165 159.959 167.819 159.959C166.473 159.959 165.352 161.14 165.352 162.501C165.352 163.877 166.473 165.043 167.819 165.043ZM170.182 166V163.518L170.511 162.501L170.182 161.409V159.002H171.393V166H170.182ZM170.182 166L170.57 164.849H172.754V166H170.182ZM179.604 166.209C178.093 166.209 177.017 165.088 177.017 163.607V156.55H178.228V163.578C178.228 164.445 178.796 165.043 179.604 165.043C180.381 165.043 180.979 164.445 180.979 163.578V162.411H182.176V163.578C182.176 165.088 181.084 166.209 179.604 166.209ZM174.848 160.168V159.002H178.228L177.72 160.168H174.848ZM177.6 160.168L177.017 159.002H180.845V160.168H177.6ZM186.185 166V164.849H189.594L190.192 166H186.185ZM188.981 166L189.594 164.849H193.003V166H188.981ZM186.185 160.168V159.002H190.192L189.594 160.168H186.185ZM188.981 166V159.002H190.192V166H188.981ZM189.624 157.342C188.981 157.342 188.442 156.834 188.442 156.176C188.442 155.518 188.981 154.994 189.624 154.994C190.252 154.994 190.79 155.518 190.79 156.176C190.79 156.834 190.252 157.342 189.624 157.342ZM196.907 166V159.002H198.074V160.871L198.119 161.664V166H196.907ZM197.461 162.157C197.461 160.602 198.403 158.793 200.227 158.793C201.857 158.793 203.068 160.034 203.068 162.142V166H201.872V162.157C201.872 160.736 201.064 159.959 199.988 159.959C198.971 159.959 198.119 160.721 198.119 162.157H197.461ZM195.547 160.168V159.002H198.074L197.7 160.168H195.547ZM195.547 166V164.849H197.73L198.119 166H195.547ZM196.907 166L197.281 164.849H199.375V166H196.907ZM200.616 166V164.849H202.709L203.068 166H200.616ZM201.872 166L202.261 164.849H204.444V166H201.872ZM208.677 170.127C207.316 170.127 206.18 169.17 206.18 168.019C206.18 166.912 207.167 166 208.363 166L208.468 165.761H212.281C213.507 165.761 214.539 166.748 214.539 167.914C214.539 169.125 213.417 170.127 212.101 170.127H208.677ZM210.038 164.31C208.154 164.31 206.808 163.204 206.808 161.649C206.808 160.108 208.154 159.002 210.038 159.002C211.802 159.002 213.238 160.243 213.238 161.753C213.238 163.249 211.892 164.31 210.038 164.31ZM210.038 163.264C211.219 163.264 212.072 162.591 212.072 161.649C212.072 160.721 211.219 160.049 210.038 160.049C208.842 160.049 207.974 160.721 207.974 161.649C207.974 162.591 208.842 163.264 210.038 163.264ZM208.572 166.538C207.541 166.538 206.554 166.03 206.554 164.893C206.554 163.966 207.212 163.338 208.124 163.084L208.498 163.787C208.019 163.892 207.675 164.31 207.675 164.834C207.675 165.372 208.094 165.761 208.767 165.761L208.572 166.538ZM211.997 169.08C212.759 169.08 213.343 168.587 213.343 167.959C213.343 167.331 212.789 166.822 212.101 166.822H208.572C207.9 166.822 207.361 167.331 207.361 167.959C207.361 168.587 207.944 169.08 208.692 169.08H211.997ZM210.741 160.049L210.038 159.002H214.793V160.049H210.741ZM230.512 166.209C228.568 166.209 226.938 164.535 226.938 162.501C226.938 160.467 228.568 158.793 230.512 158.793C232.471 158.793 233.936 160.587 233.936 162.501C233.936 164.415 232.471 166.209 230.512 166.209ZM230.631 165.043C231.977 165.043 233.099 163.892 233.099 162.501C233.099 161.125 231.977 159.959 230.631 159.959C229.286 159.959 228.164 161.14 228.164 162.501C228.164 163.877 229.286 165.043 230.631 165.043ZM232.994 166V163.518L233.323 162.501L232.994 161.409V159.002H234.205V166H232.994ZM232.994 166L233.383 164.849H235.566V166H232.994Z" fill="#363131"/>
<rect width="172" height="20" transform="translate(20 178)" fill="#D7C6FF"/>
<path d="M32.1738 191.209C30.9327 191.209 29.6916 190.91 28.7346 190.447L29.4075 189.445C30.0654 189.923 31.1121 190.103 32.2037 190.103C33.7589 190.103 34.5065 189.699 34.5065 189.056C34.5065 188.533 34.043 188.219 32.7121 188.024L31.5308 187.875C29.9159 187.65 28.914 187.187 28.914 185.946C28.914 184.585 30.2598 183.793 32.2336 183.793C33.3701 183.793 34.5664 184.032 35.4785 184.54L34.9103 185.437C34.0131 185.079 33.071 184.899 32.0542 184.899C30.7832 184.899 30.1103 185.288 30.1103 185.826C30.1103 186.379 30.6187 186.574 31.7701 186.738L32.9215 186.888C34.8654 187.142 35.7327 187.905 35.7327 188.981C35.7327 190.372 34.2673 191.209 32.1738 191.209ZM35.4785 184.54V186.036H34.2822V184.75L35.4785 184.54ZM28.7346 190.447V188.951H29.9308V190.222L28.7346 190.447ZM39.2631 187.516C39.2631 185.437 40.9678 183.793 43.1061 183.793C44.3473 183.793 45.394 184.151 46.3061 184.959L45.3491 185.721C44.6164 185.108 43.9734 184.959 43.136 184.959C41.6856 184.959 40.4893 186.11 40.4893 187.531C40.4893 188.936 41.5959 190.043 43.0912 190.043C44.0631 190.043 45.0202 189.564 45.4987 188.892L46.3809 189.639C45.708 190.566 44.3323 191.209 42.9865 191.209C40.9529 191.209 39.2631 189.564 39.2631 187.516ZM46.3061 184.959V187.052H45.08V185.273L46.3061 184.959ZM52.5431 191.209C50.5992 191.209 48.9693 189.535 48.9693 187.501C48.9693 185.467 50.5992 183.793 52.5431 183.793C54.502 183.793 55.9674 185.587 55.9674 187.501C55.9674 189.415 54.502 191.209 52.5431 191.209ZM52.6627 190.043C54.0085 190.043 55.13 188.892 55.13 187.501C55.13 186.125 54.0085 184.959 52.6627 184.959C51.3169 184.959 50.1954 186.14 50.1954 187.501C50.1954 188.877 51.3169 190.043 52.6627 190.043ZM55.0254 191V188.518L55.3543 187.501L55.0254 186.409V184.002H56.2366V191H55.0254ZM55.0254 191L55.4141 189.849H57.5973V191H55.0254ZM63.3408 191V180.054H64.552V191H63.3408ZM60.5296 191V189.849H63.939L64.552 191H60.5296ZM63.3408 191L63.939 189.849H67.3483V191H63.3408ZM60.5446 181.221V180.054H64.552L63.939 181.221H60.5446ZM73.4806 191.209C71.5367 191.209 69.9068 189.535 69.9068 187.501C69.9068 185.467 71.5367 183.793 73.4806 183.793C75.4395 183.793 76.9049 185.587 76.9049 187.501C76.9049 189.415 75.4395 191.209 73.4806 191.209ZM73.6002 190.043C74.946 190.043 76.0675 188.892 76.0675 187.501C76.0675 186.125 74.946 184.959 73.6002 184.959C72.2544 184.959 71.1329 186.14 71.1329 187.501C71.1329 188.877 72.2544 190.043 73.6002 190.043ZM75.9629 191V188.518L76.2918 187.501L75.9629 186.409V184.002H77.1741V191H75.9629ZM75.9629 191L76.3516 189.849H78.5348V191H75.9629ZM85.1755 191.209C83.2316 191.209 81.7662 189.415 81.7662 187.501C81.7662 185.587 83.2316 183.793 85.1755 183.793C87.1344 183.793 88.7494 185.467 88.7494 187.501C88.7494 189.535 87.1344 191.209 85.1755 191.209ZM85.0559 190.043C86.4017 190.043 87.5232 188.877 87.5232 187.501C87.5232 186.14 86.4017 184.959 85.0559 184.959C83.7101 184.959 82.6036 186.125 82.6036 187.501C82.6036 188.892 83.7101 190.043 85.0559 190.043ZM81.497 191V180.054H82.6933V186.32L82.3643 187.561L82.6933 188.817V191H81.497ZM80.1213 181.221V180.054H82.6933L82.3045 181.221H80.1213ZM94.7471 191V180.054H95.9583V191H94.7471ZM91.9359 191V189.849H95.3452L95.9583 191H91.9359ZM94.7471 191L95.3452 189.849H98.7546V191H94.7471ZM91.9508 181.221V180.054H95.9583L95.3452 181.221H91.9508ZM108.894 189.699C108.206 190.596 106.906 191.209 105.5 191.209C103.496 191.209 101.821 189.55 101.821 187.501C101.821 185.482 103.481 183.793 105.5 183.793C107.519 183.793 109.208 185.437 109.208 187.456C109.208 187.636 109.163 187.845 109.104 188.009H102.494V186.948H108.326L107.967 187.471C107.967 186.05 106.831 184.959 105.5 184.959C104.109 184.959 103.048 186.095 103.048 187.501C103.048 188.892 104.139 190.043 105.605 190.043C106.621 190.043 107.534 189.594 108.012 188.951L108.894 189.699ZM128.307 191V188.593L128.636 187.546L128.307 186.499V180.054H129.518V191H128.307ZM125.824 191.209C123.88 191.209 122.251 189.535 122.251 187.501C122.251 185.467 123.88 183.793 125.824 183.793C127.783 183.793 129.249 185.587 129.249 187.501C129.249 189.415 127.783 191.209 125.824 191.209ZM125.944 190.043C127.29 190.043 128.411 188.892 128.411 187.501C128.411 186.125 127.29 184.959 125.944 184.959C124.598 184.959 123.477 186.14 123.477 187.501C123.477 188.877 124.598 190.043 125.944 190.043ZM126.677 181.221V180.054H129.518L129.084 181.221H126.677ZM128.307 191L128.695 189.849H130.879V191H128.307ZM140.301 189.699C139.613 190.596 138.312 191.209 136.906 191.209C134.902 191.209 133.228 189.55 133.228 187.501C133.228 185.482 134.888 183.793 136.906 183.793C138.925 183.793 140.615 185.437 140.615 187.456C140.615 187.636 140.57 187.845 140.51 188.009H133.901V186.948H139.732L139.373 187.471C139.373 186.05 138.237 184.959 136.906 184.959C135.516 184.959 134.454 186.095 134.454 187.501C134.454 188.892 135.545 190.043 137.011 190.043C138.028 190.043 138.94 189.594 139.418 188.951L140.301 189.699ZM147.33 191.209C146.089 191.209 144.848 190.91 143.891 190.447L144.564 189.445C145.222 189.923 146.268 190.103 147.36 190.103C148.915 190.103 149.663 189.699 149.663 189.056C149.663 188.533 149.199 188.219 147.868 188.024L146.687 187.875C145.072 187.65 144.07 187.187 144.07 185.946C144.07 184.585 145.416 183.793 147.39 183.793C148.526 183.793 149.723 184.032 150.635 184.54L150.067 185.437C149.169 185.079 148.227 184.899 147.21 184.899C145.939 184.899 145.267 185.288 145.267 185.826C145.267 186.379 145.775 186.574 146.926 186.738L148.078 186.888C150.022 187.142 150.889 187.905 150.889 188.981C150.889 190.372 149.424 191.209 147.33 191.209ZM150.635 184.54V186.036H149.438V184.75L150.635 184.54ZM143.891 190.447V188.951H145.087V190.222L143.891 190.447ZM154.778 191V189.849H158.188L158.786 191H154.778ZM157.575 191L158.188 189.849H161.597V191H157.575ZM154.778 185.168V184.002H158.786L158.188 185.168H154.778ZM157.575 191V184.002H158.786V191H157.575ZM158.218 182.342C157.575 182.342 157.036 181.834 157.036 181.176C157.036 180.518 157.575 179.994 158.218 179.994C158.846 179.994 159.384 180.518 159.384 181.176C159.384 181.834 158.846 182.342 158.218 182.342ZM166.802 195.127C165.441 195.127 164.305 194.17 164.305 193.019C164.305 191.912 165.292 191 166.488 191L166.593 190.761H170.406C171.632 190.761 172.664 191.748 172.664 192.914C172.664 194.125 171.542 195.127 170.226 195.127H166.802ZM168.163 189.31C166.279 189.31 164.933 188.204 164.933 186.649C164.933 185.108 166.279 184.002 168.163 184.002C169.927 184.002 171.363 185.243 171.363 186.753C171.363 188.249 170.017 189.31 168.163 189.31ZM168.163 188.264C169.344 188.264 170.197 187.591 170.197 186.649C170.197 185.721 169.344 185.049 168.163 185.049C166.967 185.049 166.099 185.721 166.099 186.649C166.099 187.591 166.967 188.264 168.163 188.264ZM166.697 191.538C165.666 191.538 164.679 191.03 164.679 189.893C164.679 188.966 165.337 188.338 166.249 188.084L166.623 188.787C166.144 188.892 165.8 189.31 165.8 189.834C165.8 190.372 166.219 190.761 166.892 190.761L166.697 191.538ZM170.122 194.08C170.884 194.08 171.468 193.587 171.468 192.959C171.468 192.331 170.914 191.822 170.226 191.822H166.697C166.025 191.822 165.486 192.331 165.486 192.959C165.486 193.587 166.069 194.08 166.817 194.08H170.122ZM168.866 185.049L168.163 184.002H172.918V185.049H168.866ZM175.97 191V184.002H177.136V185.871L177.181 186.664V191H175.97ZM176.523 187.157C176.523 185.602 177.465 183.793 179.29 183.793C180.92 183.793 182.131 185.034 182.131 187.142V191H180.934V187.157C180.934 185.736 180.127 184.959 179.05 184.959C178.034 184.959 177.181 185.721 177.181 187.157H176.523ZM174.609 185.168V184.002H177.136L176.763 185.168H174.609ZM174.609 191V189.849H176.792L177.181 191H174.609ZM175.97 191L176.344 189.849H178.437V191H175.97ZM179.678 191V189.849H181.772L182.131 191H179.678ZM180.934 191L181.323 189.849H183.506V191H180.934Z" fill="#363131"/>
<rect width="234" height="20" transform="translate(20 203)" fill="#D7C6FF"/>
<path d="M32.1738 216.209C30.9327 216.209 29.6916 215.91 28.7346 215.447L29.4075 214.445C30.0654 214.923 31.1121 215.103 32.2037 215.103C33.7589 215.103 34.5065 214.699 34.5065 214.056C34.5065 213.533 34.043 213.219 32.7121 213.024L31.5308 212.875C29.9159 212.65 28.914 212.187 28.914 210.946C28.914 209.585 30.2598 208.793 32.2336 208.793C33.3701 208.793 34.5664 209.032 35.4785 209.54L34.9103 210.437C34.0131 210.079 33.071 209.899 32.0542 209.899C30.7832 209.899 30.1103 210.288 30.1103 210.826C30.1103 211.379 30.6187 211.574 31.7701 211.738L32.9215 211.888C34.8654 212.142 35.7327 212.905 35.7327 213.981C35.7327 215.372 34.2673 216.209 32.1738 216.209ZM35.4785 209.54V211.036H34.2822V209.75L35.4785 209.54ZM28.7346 215.447V213.951H29.9308V215.222L28.7346 215.447ZM39.4874 212.86V209.002H40.6837V212.86C40.6837 214.31 41.536 215.073 42.5678 215.073C43.5846 215.073 44.437 214.28 44.437 212.86H45.0949C45.0949 214.4 44.1529 216.209 42.3286 216.209C40.7435 216.209 39.4874 214.968 39.4874 212.86ZM40.6239 216.897C40.6538 218.333 41.3416 219.11 42.4781 219.11C43.4949 219.11 44.437 218.407 44.437 216.987V209.002H45.6482V216.987C45.6482 219.095 44.1678 220.307 42.4631 220.307C40.7734 220.307 39.4575 219.095 39.4575 217.107L40.6239 216.897ZM38.1117 210.168V209.002H40.6837L40.2949 210.168H38.1117ZM39.8463 210.168L39.4874 209.002H41.9398V210.168H39.8463ZM44.8258 210.168L44.437 209.002H47.0089V210.168H44.8258ZM43.1809 210.168V209.002H45.6482L45.2744 210.168H43.1809ZM53.1113 216.209C51.8702 216.209 50.6291 215.91 49.6721 215.447L50.345 214.445C51.0029 214.923 52.0496 215.103 53.1412 215.103C54.6964 215.103 55.444 214.699 55.444 214.056C55.444 213.533 54.9805 213.219 53.6496 213.024L52.4683 212.875C50.8534 212.65 49.8515 212.187 49.8515 210.946C49.8515 209.585 51.1973 208.793 53.1711 208.793C54.3076 208.793 55.5039 209.032 56.416 209.54L55.8478 210.437C54.9506 210.079 54.0085 209.899 52.9917 209.899C51.7207 209.899 51.0478 210.288 51.0478 210.826C51.0478 211.379 51.5562 211.574 52.7076 211.738L53.859 211.888C55.8029 212.142 56.6702 212.905 56.6702 213.981C56.6702 215.372 55.2048 216.209 53.1113 216.209ZM56.416 209.54V211.036H55.2197V209.75L56.416 209.54ZM49.6721 215.447V213.951H50.8683V215.222L49.6721 215.447ZM64.4474 216.209C62.9371 216.209 61.8605 215.088 61.8605 213.607V206.55H63.0717V213.578C63.0717 214.445 63.6399 215.043 64.4474 215.043C65.2249 215.043 65.8231 214.445 65.8231 213.578V212.411H67.0193V213.578C67.0193 215.088 65.9277 216.209 64.4474 216.209ZM59.6922 210.168V209.002H63.0717L62.5633 210.168H59.6922ZM62.4436 210.168L61.8605 209.002H65.6885V210.168H62.4436ZM77.4881 214.699C76.8002 215.596 75.4993 216.209 74.0937 216.209C72.09 216.209 70.4152 214.55 70.4152 212.501C70.4152 210.482 72.075 208.793 74.0937 208.793C76.1124 208.793 77.8021 210.437 77.8021 212.456C77.8021 212.636 77.7572 212.845 77.6974 213.009H71.0881V211.948H76.9199L76.561 212.471C76.561 211.05 75.4245 209.959 74.0937 209.959C72.703 209.959 71.6414 211.095 71.6414 212.501C71.6414 213.892 72.7329 215.043 74.1984 215.043C75.2152 215.043 76.1273 214.594 76.6058 213.951L77.4881 214.699ZM80.8839 216V209.002H82.0802V210.587L82.0952 211.17V216H80.8839ZM87.3886 211.619C87.3886 210.422 87.0596 209.959 86.5213 209.959C85.9082 209.959 85.34 210.707 85.34 212.127H84.6821C84.6821 210.796 85.6241 208.793 86.8952 208.793C87.9867 208.793 88.5998 209.75 88.5998 211.619V216H87.3886V211.619ZM84.1438 211.619C84.1438 210.422 83.8148 209.959 83.2765 209.959C82.6634 209.959 82.0952 210.721 82.0952 212.157H81.4372C81.4372 210.826 82.3793 208.793 83.6503 208.793C84.7269 208.793 85.34 209.75 85.34 211.619V216H84.1438V211.619ZM93.9097 218.258L93.1919 217.645L94.7471 215.776H95.9583L93.9097 218.258ZM95.0611 216.209C94.4181 216.209 93.8798 215.701 93.8798 215.043C93.8798 214.385 94.4181 213.862 95.0611 213.862C95.6891 213.862 96.2275 214.385 96.2275 215.043C96.2275 215.701 95.6891 216.209 95.0611 216.209ZM115.356 216.209C113.412 216.209 111.782 214.535 111.782 212.501C111.782 210.467 113.412 208.793 115.356 208.793C117.314 208.793 118.78 210.587 118.78 212.501C118.78 214.415 117.314 216.209 115.356 216.209ZM115.475 215.043C116.821 215.043 117.943 213.892 117.943 212.501C117.943 211.125 116.821 209.959 115.475 209.959C114.129 209.959 113.008 211.14 113.008 212.501C113.008 213.877 114.129 215.043 115.475 215.043ZM117.838 216V213.518L118.167 212.501L117.838 211.409V209.002H119.049V216H117.838ZM117.838 216L118.227 214.849H120.41V216H117.838ZM123.626 216V209.002H124.793V210.871L124.837 211.664V216H123.626ZM124.179 212.157C124.179 210.602 125.122 208.793 126.946 208.793C128.576 208.793 129.787 210.034 129.787 212.142V216H128.591V212.157C128.591 210.736 127.783 209.959 126.707 209.959C125.69 209.959 124.837 210.721 124.837 212.157H124.179ZM122.265 210.168V209.002H124.793L124.419 210.168H122.265ZM122.265 216V214.849H124.449L124.837 216H122.265ZM123.626 216L124 214.849H126.094V216H123.626ZM127.335 216V214.849H129.428L129.787 216H127.335ZM128.591 216L128.979 214.849H131.163V216H128.591ZM138.775 216V213.593L139.104 212.546L138.775 211.499V205.054H139.987V216H138.775ZM136.293 216.209C134.349 216.209 132.719 214.535 132.719 212.501C132.719 210.467 134.349 208.793 136.293 208.793C138.252 208.793 139.717 210.587 139.717 212.501C139.717 214.415 138.252 216.209 136.293 216.209ZM136.413 215.043C137.759 215.043 138.88 213.892 138.88 212.501C138.88 211.125 137.759 209.959 136.413 209.959C135.067 209.959 133.945 211.14 133.945 212.501C133.945 213.877 135.067 215.043 136.413 215.043ZM137.145 206.221V205.054H139.987L139.553 206.221H137.145ZM138.775 216L139.164 214.849H141.347V216H138.775ZM157.799 216.209C156.558 216.209 155.317 215.91 154.36 215.447L155.032 214.445C155.69 214.923 156.737 215.103 157.829 215.103C159.384 215.103 160.132 214.699 160.132 214.056C160.132 213.533 159.668 213.219 158.337 213.024L157.156 212.875C155.541 212.65 154.539 212.187 154.539 210.946C154.539 209.585 155.885 208.793 157.859 208.793C158.995 208.793 160.191 209.032 161.104 209.54L160.535 210.437C159.638 210.079 158.696 209.899 157.679 209.899C156.408 209.899 155.735 210.288 155.735 210.826C155.735 211.379 156.244 211.574 157.395 211.738L158.546 211.888C160.49 212.142 161.358 212.905 161.358 213.981C161.358 215.372 159.892 216.209 157.799 216.209ZM161.104 209.54V211.036H159.907V209.75L161.104 209.54ZM154.36 215.447V213.951H155.556V215.222L154.36 215.447ZM165.501 216V205.054H166.712V216H165.501ZM166.054 212.157C166.054 210.602 166.997 208.793 168.821 208.793C170.391 208.793 171.662 210.034 171.662 212.157V216H170.466V212.157C170.466 210.692 169.613 209.959 168.582 209.959C167.565 209.959 166.712 210.721 166.712 212.157H166.054ZM164.14 206.221V205.054H166.712L166.324 206.221H164.14ZM164.14 216V214.849H166.324L166.712 216H164.14ZM165.501 216L165.875 214.849H167.969V216H165.501ZM169.21 216V214.849H171.303L171.662 216H169.21ZM170.466 216L170.854 214.849H173.038V216H170.466ZM178.168 216.209C176.224 216.209 174.594 214.535 174.594 212.501C174.594 210.467 176.224 208.793 178.168 208.793C180.127 208.793 181.592 210.587 181.592 212.501C181.592 214.415 180.127 216.209 178.168 216.209ZM178.288 215.043C179.634 215.043 180.755 213.892 180.755 212.501C180.755 211.125 179.634 209.959 178.288 209.959C176.942 209.959 175.82 211.14 175.82 212.501C175.82 213.877 176.942 215.043 178.288 215.043ZM180.65 216V213.518L180.979 212.501L180.65 211.409V209.002H181.862V216H180.65ZM180.65 216L181.039 214.849H183.222V216H180.65ZM189.878 216.209C187.919 216.209 186.454 214.415 186.454 212.501C186.454 210.587 187.919 208.793 189.878 208.793C191.822 208.793 193.452 210.467 193.452 212.501C193.452 214.535 191.822 216.209 189.878 216.209ZM189.758 215.043C191.104 215.043 192.226 213.877 192.226 212.501C192.226 211.14 191.104 209.959 189.758 209.959C188.413 209.959 187.291 211.125 187.291 212.501C187.291 213.892 188.413 215.043 189.758 215.043ZM186.185 220.127V209.002H187.396V211.409L187.067 212.516L187.396 213.817V220.127H186.185ZM184.824 210.168V209.002H187.396L187.007 210.168H184.824ZM184.824 220.127V218.976H187.007L187.396 220.127H184.824ZM186.17 220.127L186.663 218.976H189.474V220.127H186.17ZM196.653 216V214.849H200.063L200.661 216H196.653ZM199.45 216L200.063 214.849H203.472V216H199.45ZM196.653 210.168V209.002H200.661L200.063 210.168H196.653ZM199.45 216V209.002H200.661V216H199.45ZM200.093 207.342C199.45 207.342 198.911 206.834 198.911 206.176C198.911 205.518 199.45 204.994 200.093 204.994C200.721 204.994 201.259 205.518 201.259 206.176C201.259 206.834 200.721 207.342 200.093 207.342ZM207.376 216V209.002H208.543V210.871L208.587 211.664V216H207.376ZM207.929 212.157C207.929 210.602 208.872 208.793 210.696 208.793C212.326 208.793 213.537 210.034 213.537 212.142V216H212.341V212.157C212.341 210.736 211.533 209.959 210.457 209.959C209.44 209.959 208.587 210.721 208.587 212.157H207.929ZM206.015 210.168V209.002H208.543L208.169 210.168H206.015ZM206.015 216V214.849H208.199L208.587 216H206.015ZM207.376 216L207.75 214.849H209.844V216H207.376ZM211.085 216V214.849H213.178L213.537 216H211.085ZM212.341 216L212.729 214.849H214.913V216H212.341ZM219.146 220.127C217.785 220.127 216.649 219.17 216.649 218.019C216.649 216.912 217.636 216 218.832 216L218.937 215.761H222.75C223.976 215.761 225.008 216.748 225.008 217.914C225.008 219.125 223.886 220.127 222.57 220.127H219.146ZM220.507 214.31C218.623 214.31 217.277 213.204 217.277 211.649C217.277 210.108 218.623 209.002 220.507 209.002C222.271 209.002 223.707 210.243 223.707 211.753C223.707 213.249 222.361 214.31 220.507 214.31ZM220.507 213.264C221.688 213.264 222.54 212.591 222.54 211.649C222.54 210.721 221.688 210.049 220.507 210.049C219.31 210.049 218.443 210.721 218.443 211.649C218.443 212.591 219.31 213.264 220.507 213.264ZM219.041 216.538C218.009 216.538 217.023 216.03 217.023 214.893C217.023 213.966 217.68 213.338 218.593 213.084L218.966 213.787C218.488 213.892 218.144 214.31 218.144 214.834C218.144 215.372 218.563 215.761 219.236 215.761L219.041 216.538ZM222.466 219.08C223.228 219.08 223.811 218.587 223.811 217.959C223.811 217.331 223.258 216.822 222.57 216.822H219.041C218.368 216.822 217.83 217.331 217.83 217.959C217.83 218.587 218.413 219.08 219.161 219.08H222.466ZM221.209 210.049L220.507 209.002H225.262V210.049H221.209ZM240.981 216.209C239.037 216.209 237.407 214.535 237.407 212.501C237.407 210.467 239.037 208.793 240.981 208.793C242.939 208.793 244.405 210.587 244.405 212.501C244.405 214.415 242.939 216.209 240.981 216.209ZM241.1 215.043C242.446 215.043 243.568 213.892 243.568 212.501C243.568 211.125 242.446 209.959 241.1 209.959C239.754 209.959 238.633 211.14 238.633 212.501C238.633 213.877 239.754 215.043 241.1 215.043ZM243.463 216V213.518L243.792 212.501L243.463 211.409V209.002H244.674V216H243.463ZM243.463 216L243.852 214.849H246.035V216H243.463Z" fill="#363131"/>
<rect width="161" height="20" transform="translate(20 228)" fill="#D7C6FF"/>
<path d="M31.5757 241L28.286 234.002H29.6318L32.4131 239.998H32.0393L34.8206 234.002H36.1664L32.8766 241H31.5757ZM32.9514 235.168V234.002H36.1664L35.6879 235.168H32.9514ZM35.1196 235.168L34.8206 234.002H36.8093V235.168H35.1196ZM27.643 235.168V234.002H29.6318L29.3327 235.168H27.643ZM28.7645 235.168L28.286 234.002H31.5009V235.168H28.7645ZM39.622 241V239.849H43.0314L43.6295 241H39.622ZM42.4183 241L43.0314 239.849H46.4407V241H42.4183ZM39.622 235.168V234.002H43.6295L43.0314 235.168H39.622ZM42.4183 241V234.002H43.6295V241H42.4183ZM43.0613 232.342C42.4183 232.342 41.88 231.834 41.88 231.176C41.88 230.518 42.4183 229.994 43.0613 229.994C43.6893 229.994 44.2276 230.518 44.2276 231.176C44.2276 231.834 43.6893 232.342 43.0613 232.342ZM53.1113 241.209C51.8702 241.209 50.6291 240.91 49.6721 240.447L50.345 239.445C51.0029 239.923 52.0496 240.103 53.1412 240.103C54.6964 240.103 55.444 239.699 55.444 239.056C55.444 238.533 54.9805 238.219 53.6496 238.024L52.4683 237.875C50.8534 237.65 49.8515 237.187 49.8515 235.946C49.8515 234.585 51.1973 233.793 53.1711 233.793C54.3076 233.793 55.5039 234.032 56.416 234.54L55.8478 235.437C54.9506 235.079 54.0085 234.899 52.9917 234.899C51.7207 234.899 51.0478 235.288 51.0478 235.826C51.0478 236.379 51.5562 236.574 52.7076 236.738L53.859 236.888C55.8029 237.142 56.6702 237.905 56.6702 238.981C56.6702 240.372 55.2048 241.209 53.1113 241.209ZM56.416 234.54V236.036H55.2197V234.75L56.416 234.54ZM49.6721 240.447V238.951H50.8683V240.222L49.6721 240.447ZM60.5595 241V239.849H63.9689L64.567 241H60.5595ZM63.3558 241L63.9689 239.849H67.3782V241H63.3558ZM60.5595 235.168V234.002H64.567L63.9689 235.168H60.5595ZM63.3558 241V234.002H64.567V241H63.3558ZM63.9988 232.342C63.3558 232.342 62.8175 231.834 62.8175 231.176C62.8175 230.518 63.3558 229.994 63.9988 229.994C64.6268 229.994 65.1651 230.518 65.1651 231.176C65.1651 231.834 64.6268 232.342 63.9988 232.342ZM74.1086 241.209C72.0002 241.209 70.4451 239.505 70.4451 237.501C70.4451 235.497 72.075 233.793 74.1086 233.793C76.1273 233.793 77.7572 235.497 77.7572 237.501C77.7572 239.505 76.2021 241.209 74.1086 241.209ZM74.1086 240.043C75.4694 240.043 76.5311 238.907 76.5311 237.501C76.5311 236.095 75.4694 234.959 74.1086 234.959C72.7329 234.959 71.6713 236.095 71.6713 237.501C71.6713 238.907 72.7329 240.043 74.1086 240.043ZM81.7512 241V234.002H82.9176V235.871L82.9624 236.664V241H81.7512ZM82.3045 237.157C82.3045 235.602 83.2466 233.793 85.0709 233.793C86.7008 233.793 87.912 235.034 87.912 237.142V241H86.7157V237.157C86.7157 235.736 85.9082 234.959 84.8316 234.959C83.8148 234.959 82.9624 235.721 82.9624 237.157H82.3045ZM80.3905 235.168V234.002H82.9176L82.5438 235.168H80.3905ZM80.3905 241V239.849H82.5737L82.9624 241H80.3905ZM81.7512 241L82.1251 239.849H84.2185V241H81.7512ZM85.4596 241V239.849H87.5531L87.912 241H85.4596ZM86.7157 241L87.1045 239.849H89.2877V241H86.7157ZM104.648 232.611C104.648 230.996 105.709 229.86 107.205 229.86C108.7 229.86 109.777 230.981 109.777 232.566V232.746H108.565V232.566C108.565 231.654 107.997 231.011 107.205 231.011C106.397 231.011 105.859 231.654 105.859 232.566V241H104.648V232.611ZM102.539 235.168V234.002H105.859L105.35 235.168H102.539ZM105.246 235.168L104.648 234.002H108.61V235.168H105.246ZM102.539 241V239.849H105.35L105.859 241H102.539ZM104.648 241L105.246 239.849H108.61V241H104.648ZM115.984 241.209C113.875 241.209 112.32 239.505 112.32 237.501C112.32 235.497 113.95 233.793 115.984 233.793C118.002 233.793 119.632 235.497 119.632 237.501C119.632 239.505 118.077 241.209 115.984 241.209ZM115.984 240.043C117.344 240.043 118.406 238.907 118.406 237.501C118.406 236.095 117.344 234.959 115.984 234.959C114.608 234.959 113.546 236.095 113.546 237.501C113.546 238.907 114.608 240.043 115.984 240.043ZM125.765 237.262C125.765 235.318 126.856 233.793 128.531 233.793C129.159 233.793 129.817 233.972 130.325 234.495V235.721C129.802 235.168 129.129 234.959 128.531 234.959C127.379 234.959 126.422 236.006 126.422 237.262H125.765ZM125.211 241V234.002H126.378V235.467L126.422 236.26V241H125.211ZM123.297 235.168V234.002H126.378L125.914 235.168H123.297ZM123.297 241V239.849H125.944L126.422 241H123.297ZM125.211 241L125.75 239.849H128.755V241H125.211ZM148.197 241.209C146.687 241.209 145.61 240.088 145.61 238.607V231.55H146.822V238.578C146.822 239.445 147.39 240.043 148.197 240.043C148.975 240.043 149.573 239.445 149.573 238.578V237.411H150.769V238.578C150.769 240.088 149.678 241.209 148.197 241.209ZM143.442 235.168V234.002H146.822L146.313 235.168H143.442ZM146.194 235.168L145.61 234.002H149.438V235.168H146.194ZM155.032 241V230.054H156.244V241H155.032ZM155.586 237.157C155.586 235.602 156.528 233.793 158.352 233.793C159.922 233.793 161.193 235.034 161.193 237.157V241H159.997V237.157C159.997 235.692 159.145 234.959 158.113 234.959C157.096 234.959 156.244 235.721 156.244 237.157H155.586ZM153.672 231.221V230.054H156.244L155.855 231.221H153.672ZM153.672 241V239.849H155.855L156.244 241H153.672ZM155.032 241L155.406 239.849H157.5V241H155.032ZM158.741 241V239.849H160.834L161.193 241H158.741ZM159.997 241L160.386 239.849H162.569V241H159.997ZM171.707 239.699C171.019 240.596 169.718 241.209 168.312 241.209C166.309 241.209 164.634 239.55 164.634 237.501C164.634 235.482 166.294 233.793 168.312 233.793C170.331 233.793 172.021 235.437 172.021 237.456C172.021 237.636 171.976 237.845 171.916 238.009H165.307V236.948H171.139L170.78 237.471C170.78 236.05 169.643 234.959 168.312 234.959C166.922 234.959 165.86 236.095 165.86 237.501C165.86 238.892 166.952 240.043 168.417 240.043C169.434 240.043 170.346 239.594 170.825 238.951L171.707 239.699Z" fill="#363131"/>
<path d="M27 244.2H173.562V245H27V244.2Z" fill="#363131"/>
<rect width="192" height="20" transform="translate(20 253)" fill="#D7C6FF"/>
<path d="M32.8467 266.209C30.8879 266.209 29.4224 264.415 29.4224 262.501C29.4224 260.587 30.8879 258.793 32.8467 258.793C34.7907 258.793 36.4206 260.467 36.4206 262.501C36.4206 264.535 34.7907 266.209 32.8467 266.209ZM32.7271 265.043C34.0729 265.043 35.1944 263.877 35.1944 262.501C35.1944 261.14 34.0729 259.959 32.7271 259.959C31.3813 259.959 30.2598 261.125 30.2598 262.501C30.2598 263.892 31.3813 265.043 32.7271 265.043ZM29.1533 270.127V259.002H30.3645V261.409L30.0355 262.516L30.3645 263.817V270.127H29.1533ZM27.7925 260.168V259.002H30.3645L29.9757 260.168H27.7925ZM27.7925 270.127V268.976H29.9757L30.3645 270.127H27.7925ZM29.1383 270.127L29.6318 268.976H32.443V270.127H29.1383ZM42.0145 262.262C42.0145 260.318 43.1061 258.793 44.7809 258.793C45.4089 258.793 46.0669 258.972 46.5753 259.495V260.721C46.0519 260.168 45.379 259.959 44.7809 259.959C43.6295 259.959 42.6725 261.006 42.6725 262.262H42.0145ZM41.4613 266V259.002H42.6276V260.467L42.6725 261.26V266H41.4613ZM39.5473 260.168V259.002H42.6276L42.1641 260.168H39.5473ZM39.5473 266V264.849H42.194L42.6725 266H39.5473ZM41.4613 266L41.9996 264.849H45.0052V266H41.4613ZM53.1711 266.209C51.0627 266.209 49.5076 264.505 49.5076 262.501C49.5076 260.497 51.1375 258.793 53.1711 258.793C55.1898 258.793 56.8197 260.497 56.8197 262.501C56.8197 264.505 55.2646 266.209 53.1711 266.209ZM53.1711 265.043C54.5319 265.043 55.5936 263.907 55.5936 262.501C55.5936 261.095 54.5319 259.959 53.1711 259.959C51.7954 259.959 50.7338 261.095 50.7338 262.501C50.7338 263.907 51.7954 265.043 53.1711 265.043ZM65.4941 266V263.593L65.8231 262.546L65.4941 261.499V255.054H66.7053V266H65.4941ZM63.0119 266.209C61.0679 266.209 59.438 264.535 59.438 262.501C59.438 260.467 61.0679 258.793 63.0119 258.793C64.9707 258.793 66.4362 260.587 66.4362 262.501C66.4362 264.415 64.9707 266.209 63.0119 266.209ZM63.1315 265.043C64.4773 265.043 65.5988 263.892 65.5988 262.501C65.5988 261.125 64.4773 259.959 63.1315 259.959C61.7857 259.959 60.6642 261.14 60.6642 262.501C60.6642 263.877 61.7857 265.043 63.1315 265.043ZM63.8642 256.221V255.054H66.7053L66.2717 256.221H63.8642ZM65.4941 266L65.8829 264.849H68.0661V266H65.4941ZM75.8432 266V264.161V263.578V259.002H77.0544V266H75.8432ZM70.8937 262.83V259.002H72.09V262.83C72.09 264.295 72.9423 265.043 73.9741 265.043C74.9909 265.043 75.8432 264.265 75.8432 262.83H76.5012C76.5012 264.37 75.5591 266.179 73.7348 266.179C72.1348 266.179 70.8937 264.953 70.8937 262.83ZM74.4675 260.168V259.002H77.0544L76.6507 260.168H74.4675ZM69.518 260.168V259.002H72.09L71.7012 260.168H69.518ZM75.8432 266L76.232 264.849H78.4152V266H75.8432ZM81.1381 262.516C81.1381 260.437 82.8428 258.793 84.9811 258.793C86.2223 258.793 87.269 259.151 88.1811 259.959L87.2241 260.721C86.4914 260.108 85.8484 259.959 85.011 259.959C83.5606 259.959 82.3643 261.11 82.3643 262.531C82.3643 263.936 83.4709 265.043 84.9662 265.043C85.9381 265.043 86.8952 264.564 87.3737 263.892L88.2559 264.639C87.583 265.566 86.2073 266.209 84.8615 266.209C82.8279 266.209 81.1381 264.564 81.1381 262.516ZM88.1811 259.959V262.052H86.955V260.273L88.1811 259.959ZM95.8536 266.209C94.3433 266.209 93.2667 265.088 93.2667 263.607V256.55H94.4779V263.578C94.4779 264.445 95.0461 265.043 95.8536 265.043C96.6312 265.043 97.2293 264.445 97.2293 263.578V262.411H98.4256V263.578C98.4256 265.088 97.334 266.209 95.8536 266.209ZM91.0985 260.168V259.002H94.4779L93.9695 260.168H91.0985ZM93.8499 260.168L93.2667 259.002H97.0947V260.168H93.8499ZM105.036 260.557L104.812 256.52H106.203L105.978 260.557H105.036ZM115.924 266.209C114.683 266.209 113.442 265.91 112.485 265.447L113.157 264.445C113.815 264.923 114.862 265.103 115.954 265.103C117.509 265.103 118.257 264.699 118.257 264.056C118.257 263.533 117.793 263.219 116.462 263.024L115.281 262.875C113.666 262.65 112.664 262.187 112.664 260.946C112.664 259.585 114.01 258.793 115.984 258.793C117.12 258.793 118.316 259.032 119.229 259.54L118.66 260.437C117.763 260.079 116.821 259.899 115.804 259.899C114.533 259.899 113.86 260.288 113.86 260.826C113.86 261.379 114.369 261.574 115.52 261.738L116.671 261.888C118.615 262.142 119.483 262.905 119.483 263.981C119.483 265.372 118.017 266.209 115.924 266.209ZM119.229 259.54V261.036H118.032V259.75L119.229 259.54ZM112.485 265.447V263.951H113.681V265.222L112.485 265.447ZM136.054 257.611C136.054 255.996 137.116 254.86 138.611 254.86C140.106 254.86 141.183 255.981 141.183 257.566V257.746H139.972V257.566C139.972 256.654 139.403 256.011 138.611 256.011C137.803 256.011 137.265 256.654 137.265 257.566V266H136.054V257.611ZM133.945 260.168V259.002H137.265L136.757 260.168H133.945ZM136.652 260.168L136.054 259.002H140.016V260.168H136.652ZM133.945 266V264.849H136.757L137.265 266H133.945ZM136.054 266L136.652 264.849H140.016V266H136.054ZM149.124 266V264.161V263.578V259.002H150.336V266H149.124ZM144.175 262.83V259.002H145.371V262.83C145.371 264.295 146.224 265.043 147.255 265.043C148.272 265.043 149.124 264.265 149.124 262.83H149.782C149.782 264.37 148.84 266.179 147.016 266.179C145.416 266.179 144.175 264.953 144.175 262.83ZM147.749 260.168V259.002H150.336L149.932 260.168H147.749ZM142.799 260.168V259.002H145.371L144.982 260.168H142.799ZM149.124 266L149.513 264.849H151.696V266H149.124ZM158.666 266.209C157.156 266.209 156.079 265.088 156.079 263.607V256.55H157.29V263.578C157.29 264.445 157.859 265.043 158.666 265.043C159.444 265.043 160.042 264.445 160.042 263.578V262.411H161.238V263.578C161.238 265.088 160.146 266.209 158.666 266.209ZM153.911 260.168V259.002H157.29L156.782 260.168H153.911ZM156.662 260.168L156.079 259.002H159.907V260.168H156.662ZM170.062 266V264.161V263.578V259.002H171.273V266H170.062ZM165.112 262.83V259.002H166.309V262.83C166.309 264.295 167.161 265.043 168.193 265.043C169.21 265.043 170.062 264.265 170.062 262.83H170.72C170.72 264.37 169.778 266.179 167.954 266.179C166.354 266.179 165.112 264.953 165.112 262.83ZM168.686 260.168V259.002H171.273L170.869 260.168H168.686ZM163.737 260.168V259.002H166.309L165.92 260.168H163.737ZM170.062 266L170.451 264.849H172.634V266H170.062ZM178.108 262.262C178.108 260.318 179.2 258.793 180.875 258.793C181.503 258.793 182.161 258.972 182.669 259.495V260.721C182.146 260.168 181.473 259.959 180.875 259.959C179.723 259.959 178.766 261.006 178.766 262.262H178.108ZM177.555 266V259.002H178.721V260.467L178.766 261.26V266H177.555ZM175.641 260.168V259.002H178.721L178.258 260.168H175.641ZM175.641 266V264.849H178.288L178.766 266H175.641ZM177.555 266L178.093 264.849H181.099V266H177.555ZM192.644 264.699C191.956 265.596 190.656 266.209 189.25 266.209C187.246 266.209 185.571 264.55 185.571 262.501C185.571 260.482 187.231 258.793 189.25 258.793C191.269 258.793 192.958 260.437 192.958 262.456C192.958 262.636 192.913 262.845 192.854 263.009H186.244V261.948H192.076L191.717 262.471C191.717 261.05 190.581 259.959 189.25 259.959C187.859 259.959 186.798 261.095 186.798 262.501C186.798 263.892 187.889 265.043 189.355 265.043C190.371 265.043 191.284 264.594 191.762 263.951L192.644 264.699ZM199.749 266.209C199.091 266.209 198.552 265.701 198.552 265.043C198.552 264.385 199.091 263.862 199.749 263.862C200.377 263.862 200.9 264.385 200.9 265.043C200.9 265.701 200.377 266.209 199.749 266.209Z" fill="#363131"/>
<path d="M20.224 315.622V313.97C20.5973 314.185 20.9613 314.341 21.316 314.439C21.6753 314.537 22.0067 314.586 22.31 314.586C22.7113 314.586 23.003 314.469 23.185 314.236C23.367 314.003 23.458 313.648 23.458 313.172V306.914H25.124V313.172C25.124 313.905 25.0097 314.493 24.781 314.936C24.5523 315.379 24.2373 315.701 23.836 315.902C23.4347 316.098 22.9727 316.196 22.45 316.196C22.0393 316.196 21.6473 316.14 21.274 316.028C20.9007 315.921 20.5507 315.785 20.224 315.622ZM30.323 316.196C29.7444 316.196 29.2147 316.047 28.734 315.748C28.2534 315.449 27.8684 315.032 27.579 314.495C27.2897 313.954 27.145 313.321 27.145 312.598C27.145 311.851 27.2874 311.21 27.572 310.673C27.8614 310.136 28.2464 309.726 28.727 309.441C29.2077 309.156 29.7397 309.014 30.323 309.014C30.8644 309.014 31.331 309.124 31.723 309.343C32.1197 309.558 32.437 309.852 32.675 310.225C32.9177 310.594 33.081 311.011 33.165 311.478C33.249 311.945 33.2537 312.425 33.179 312.92H28.461V312.024H32.01L31.688 312.234C31.702 312.015 31.6904 311.793 31.653 311.569C31.6204 311.345 31.555 311.14 31.457 310.953C31.359 310.766 31.219 310.617 31.037 310.505C30.8597 310.388 30.631 310.33 30.351 310.33C30.015 310.33 29.7304 310.414 29.497 310.582C29.2637 310.75 29.0864 310.979 28.965 311.268C28.8437 311.557 28.783 311.884 28.783 312.248V312.906C28.783 313.289 28.839 313.627 28.951 313.921C29.0677 314.215 29.238 314.446 29.462 314.614C29.6907 314.782 29.9777 314.866 30.323 314.866C30.645 314.866 30.9157 314.791 31.135 314.642C31.3544 314.493 31.4944 314.269 31.555 313.97H33.221C33.151 314.409 32.9854 314.796 32.724 315.132C32.4674 315.463 32.1337 315.725 31.723 315.916C31.3124 316.103 30.8457 316.196 30.323 316.196ZM38.0269 316.196C37.3735 316.196 36.8112 316.107 36.3399 315.93C35.8732 315.748 35.5139 315.489 35.2619 315.153C35.0099 314.812 34.8815 314.404 34.8769 313.928H36.4029C36.4169 314.264 36.5499 314.509 36.8019 314.663C37.0539 314.817 37.3969 314.894 37.8309 314.894C38.0689 314.894 38.2789 314.859 38.4609 314.789C38.6475 314.719 38.7922 314.623 38.8949 314.502C38.9975 314.381 39.0489 314.245 39.0489 314.096C39.0489 313.905 38.9789 313.755 38.8389 313.648C38.7035 313.536 38.4842 313.433 38.1809 313.34L36.6969 312.808C36.1649 312.617 35.7565 312.365 35.4719 312.052C35.1872 311.739 35.0449 311.366 35.0449 310.932C35.0449 310.358 35.3039 309.896 35.8219 309.546C36.3445 309.191 37.0422 309.014 37.9149 309.014C38.7829 309.014 39.4525 309.205 39.9239 309.588C40.3999 309.966 40.6449 310.447 40.6589 311.03H39.1049C39.0815 310.806 38.9742 310.629 38.7829 310.498C38.5915 310.367 38.3022 310.302 37.9149 310.302C37.5649 310.302 37.2895 310.374 37.0889 310.519C36.8929 310.659 36.7949 310.825 36.7949 311.016C36.7949 311.338 37.0702 311.581 37.6209 311.744L39.2309 312.346C39.7535 312.523 40.1595 312.752 40.4489 313.032C40.7382 313.312 40.8829 313.667 40.8829 314.096C40.8829 314.455 40.7615 314.796 40.5189 315.118C40.2809 315.435 39.9472 315.694 39.5179 315.895C39.0885 316.096 38.5915 316.196 38.0269 316.196ZM45.6897 316.196C45.0363 316.196 44.474 316.107 44.0027 315.93C43.536 315.748 43.1767 315.489 42.9247 315.153C42.6727 314.812 42.5443 314.404 42.5397 313.928H44.0657C44.0797 314.264 44.2127 314.509 44.4647 314.663C44.7167 314.817 45.0597 314.894 45.4937 314.894C45.7317 314.894 45.9417 314.859 46.1237 314.789C46.3103 314.719 46.455 314.623 46.5577 314.502C46.6603 314.381 46.7117 314.245 46.7117 314.096C46.7117 313.905 46.6417 313.755 46.5017 313.648C46.3663 313.536 46.147 313.433 45.8437 313.34L44.3597 312.808C43.8277 312.617 43.4193 312.365 43.1347 312.052C42.85 311.739 42.7077 311.366 42.7077 310.932C42.7077 310.358 42.9667 309.896 43.4847 309.546C44.0073 309.191 44.705 309.014 45.5777 309.014C46.4457 309.014 47.1153 309.205 47.5867 309.588C48.0627 309.966 48.3077 310.447 48.3217 311.03H46.7677C46.7443 310.806 46.637 310.629 46.4457 310.498C46.2543 310.367 45.965 310.302 45.5777 310.302C45.2277 310.302 44.9523 310.374 44.7517 310.519C44.5557 310.659 44.4577 310.825 44.4577 311.016C44.4577 311.338 44.733 311.581 45.2837 311.744L46.8937 312.346C47.4163 312.523 47.8223 312.752 48.1117 313.032C48.401 313.312 48.5457 313.667 48.5457 314.096C48.5457 314.455 48.4243 314.796 48.1817 315.118C47.9437 315.435 47.61 315.694 47.1807 315.895C46.7513 316.096 46.2543 316.196 45.6897 316.196ZM51.7845 307.964C51.4625 307.964 51.2105 307.88 51.0285 307.712C50.8512 307.539 50.7625 307.301 50.7625 306.998C50.7625 306.704 50.8512 306.471 51.0285 306.298C51.2105 306.121 51.4625 306.032 51.7845 306.032C52.1018 306.032 52.3515 306.121 52.5335 306.298C52.7155 306.471 52.8065 306.704 52.8065 306.998C52.8065 307.301 52.7155 307.539 52.5335 307.712C52.3515 307.88 52.1018 307.964 51.7845 307.964ZM50.9585 316V309.182H52.6105V316H50.9585ZM58.2682 316.196C57.6989 316.196 57.1692 316.049 56.6792 315.755C56.1939 315.456 55.7996 315.039 55.4962 314.502C55.1976 313.961 55.0482 313.326 55.0482 312.598C55.0482 311.828 55.1976 311.177 55.4962 310.645C55.7996 310.108 56.1939 309.702 56.6792 309.427C57.1692 309.152 57.6989 309.014 58.2682 309.014C58.7116 309.014 59.1012 309.086 59.4372 309.231C59.7779 309.371 60.0672 309.562 60.3052 309.805C60.5432 310.043 60.7299 310.309 60.8652 310.603C61.0006 310.897 61.0869 311.193 61.1242 311.492L59.4582 311.534C59.3836 311.235 59.2436 310.988 59.0382 310.792C58.8376 310.596 58.5762 310.498 58.2542 310.498C57.9882 310.498 57.7386 310.573 57.5052 310.722C57.2719 310.867 57.0806 311.093 56.9312 311.401C56.7866 311.709 56.7142 312.108 56.7142 312.598C56.7142 313.065 56.7819 313.454 56.9172 313.767C57.0572 314.075 57.2439 314.308 57.4772 314.467C57.7106 314.621 57.9696 314.698 58.2542 314.698C58.6742 314.698 58.9799 314.598 59.1712 314.397C59.3626 314.192 59.4582 313.919 59.4582 313.578H61.1242C61.1242 314.059 61.0146 314.497 60.7952 314.894C60.5759 315.291 60.2539 315.608 59.8292 315.846C59.4046 316.079 58.8842 316.196 58.2682 316.196ZM67.7084 316L67.4984 314.348V311.618C67.4984 311.142 67.4004 310.79 67.2044 310.561C67.0131 310.332 66.6864 310.218 66.2244 310.218C65.9584 310.218 65.7274 310.258 65.5314 310.337C65.3354 310.416 65.1837 310.531 65.0764 310.68C64.9737 310.825 64.9224 311.002 64.9224 311.212H63.1164C63.1164 310.699 63.2401 310.281 63.4874 309.959C63.7347 309.632 64.0894 309.394 64.5514 309.245C65.0181 309.091 65.5757 309.014 66.2244 309.014C66.8124 309.014 67.3257 309.11 67.7644 309.301C68.2031 309.488 68.5437 309.777 68.7864 310.169C69.0291 310.561 69.1504 311.063 69.1504 311.674V316H67.7084ZM65.4824 316.196C64.8991 316.196 64.4114 316.096 64.0194 315.895C63.6321 315.69 63.3404 315.421 63.1444 315.09C62.9484 314.759 62.8504 314.399 62.8504 314.012C62.8504 313.583 62.9624 313.223 63.1864 312.934C63.4151 312.64 63.7371 312.421 64.1524 312.276C64.5677 312.127 65.0577 312.052 65.6224 312.052C65.9911 312.052 66.3387 312.08 66.6654 312.136C66.9967 312.192 67.3257 312.267 67.6524 312.36V313.326C67.3957 313.242 67.1157 313.177 66.8124 313.13C66.5091 313.083 66.2244 313.06 65.9584 313.06C65.5664 313.06 65.2444 313.132 64.9924 313.277C64.7404 313.422 64.6144 313.667 64.6144 314.012C64.6144 314.264 64.7171 314.481 64.9224 314.663C65.1277 314.845 65.4544 314.936 65.9024 314.936C66.2431 314.936 66.5324 314.861 66.7704 314.712C67.0084 314.563 67.1881 314.376 67.3094 314.152C67.4354 313.928 67.4984 313.704 67.4984 313.48H67.8904C67.8904 313.97 67.7994 314.423 67.6174 314.838C67.4354 315.249 67.1647 315.578 66.8054 315.825C66.4507 316.072 66.0097 316.196 65.4824 316.196ZM78.8369 316.196C78.2069 316.196 77.6259 316.086 77.0939 315.867C76.5665 315.648 76.1372 315.314 75.8059 314.866C75.4792 314.418 75.3042 313.849 75.2809 313.158H76.9049C76.9049 313.508 76.9912 313.795 77.1639 314.019C77.3365 314.243 77.5675 314.411 77.8569 314.523C78.1509 314.63 78.4729 314.684 78.8229 314.684C79.1589 314.684 79.4575 314.64 79.7189 314.551C79.9849 314.462 80.1925 314.336 80.3419 314.173C80.4959 314.005 80.5729 313.807 80.5729 313.578C80.5729 313.275 80.4795 313.037 80.2929 312.864C80.1109 312.691 79.8169 312.533 79.4109 312.388L77.6189 311.674C76.9189 311.399 76.3822 311.079 76.0089 310.715C75.6355 310.351 75.4489 309.849 75.4489 309.21C75.4489 308.473 75.7405 307.875 76.3239 307.418C76.9072 306.961 77.7215 306.732 78.7669 306.732C79.7842 306.732 80.5705 306.97 81.1259 307.446C81.6812 307.917 81.9962 308.575 82.0709 309.42H80.4469C80.3862 309.061 80.2229 308.774 79.9569 308.559C79.6909 308.34 79.2942 308.23 78.7669 308.23C78.3002 308.23 77.9315 308.328 77.6609 308.524C77.3902 308.715 77.2549 308.958 77.2549 309.252C77.2549 309.504 77.3389 309.705 77.5069 309.854C77.6795 309.999 77.9455 310.139 78.3049 310.274L80.2929 311.044C80.9649 311.305 81.4805 311.634 81.8399 312.031C82.1992 312.428 82.3789 312.925 82.3789 313.522C82.3789 314.068 82.2412 314.542 81.9659 314.943C81.6905 315.34 81.2892 315.648 80.7619 315.867C80.2345 316.086 79.5929 316.196 78.8369 316.196ZM88.2826 316.196C87.7833 316.196 87.3586 316.089 87.0086 315.874C86.6586 315.659 86.3903 315.335 86.2036 314.901C86.0216 314.462 85.9306 313.914 85.9306 313.256H86.5326C86.5326 313.559 86.6026 313.818 86.7426 314.033C86.8826 314.248 87.0669 314.413 87.2956 314.53C87.5289 314.642 87.7786 314.698 88.0446 314.698C88.3199 314.698 88.5906 314.623 88.8566 314.474C89.1273 314.32 89.3513 314.089 89.5286 313.781C89.7059 313.468 89.7946 313.074 89.7946 312.598C89.7946 312.164 89.7199 311.791 89.5706 311.478C89.4213 311.161 89.2159 310.918 88.9546 310.75C88.6979 310.582 88.4039 310.498 88.0726 310.498C87.7926 310.498 87.5359 310.561 87.3026 310.687C87.0693 310.813 86.8826 310.997 86.7426 311.24C86.6026 311.478 86.5326 311.767 86.5326 312.108H85.9306C85.9306 311.394 86.0403 310.811 86.2596 310.358C86.4789 309.901 86.7729 309.562 87.1416 309.343C87.5103 309.124 87.9139 309.014 88.3526 309.014C88.8893 309.014 89.3933 309.156 89.8646 309.441C90.3406 309.726 90.7256 310.136 91.0196 310.673C91.3136 311.205 91.4606 311.847 91.4606 312.598C91.4606 313.354 91.3113 314 91.0126 314.537C90.7139 315.074 90.3219 315.484 89.8366 315.769C89.3559 316.054 88.8379 316.196 88.2826 316.196ZM84.8806 319.318V309.21H86.2386L86.5326 310.89V319.318H84.8806ZM94.6715 307.964C94.3495 307.964 94.0975 307.88 93.9155 307.712C93.7382 307.539 93.6495 307.301 93.6495 306.998C93.6495 306.704 93.7382 306.471 93.9155 306.298C94.0975 306.121 94.3495 306.032 94.6715 306.032C94.9889 306.032 95.2385 306.121 95.4205 306.298C95.6025 306.471 95.6935 306.704 95.6935 306.998C95.6935 307.301 95.6025 307.539 95.4205 307.712C95.2385 307.88 94.9889 307.964 94.6715 307.964ZM93.8455 316V309.182H95.4975V316H93.8455ZM98.5793 316V309.182H100.231V316H98.5793ZM99.8253 313.018C99.8253 312.127 99.9256 311.389 100.126 310.806C100.327 310.223 100.595 309.791 100.931 309.511C101.272 309.226 101.65 309.084 102.065 309.084C102.177 309.084 102.282 309.091 102.38 309.105C102.483 309.119 102.583 309.14 102.681 309.168L102.653 310.82C102.532 310.792 102.401 310.769 102.261 310.75C102.121 310.731 101.995 310.722 101.883 310.722C101.519 310.722 101.214 310.811 100.966 310.988C100.724 311.161 100.539 311.417 100.413 311.758C100.292 312.099 100.231 312.519 100.231 313.018H99.8253ZM108.681 316L108.471 314.348V311.618C108.471 311.142 108.373 310.79 108.177 310.561C107.986 310.332 107.659 310.218 107.197 310.218C106.931 310.218 106.7 310.258 106.504 310.337C106.308 310.416 106.157 310.531 106.049 310.68C105.947 310.825 105.895 311.002 105.895 311.212H104.089C104.089 310.699 104.213 310.281 104.46 309.959C104.708 309.632 105.062 309.394 105.524 309.245C105.991 309.091 106.549 309.014 107.197 309.014C107.785 309.014 108.299 309.11 108.737 309.301C109.176 309.488 109.517 309.777 109.759 310.169C110.002 310.561 110.123 311.063 110.123 311.674V316H108.681ZM106.455 316.196C105.872 316.196 105.384 316.096 104.992 315.895C104.605 315.69 104.313 315.421 104.117 315.09C103.921 314.759 103.823 314.399 103.823 314.012C103.823 313.583 103.935 313.223 104.159 312.934C104.388 312.64 104.71 312.421 105.125 312.276C105.541 312.127 106.031 312.052 106.595 312.052C106.964 312.052 107.312 312.08 107.638 312.136C107.97 312.192 108.299 312.267 108.625 312.36V313.326C108.369 313.242 108.089 313.177 107.785 313.13C107.482 313.083 107.197 313.06 106.931 313.06C106.539 313.06 106.217 313.132 105.965 313.277C105.713 313.422 105.587 313.667 105.587 314.012C105.587 314.264 105.69 314.481 105.895 314.663C106.101 314.845 106.427 314.936 106.875 314.936C107.216 314.936 107.505 314.861 107.743 314.712C107.981 314.563 108.161 314.376 108.282 314.152C108.408 313.928 108.471 313.704 108.471 313.48H108.863C108.863 313.97 108.772 314.423 108.59 314.838C108.408 315.249 108.138 315.578 107.778 315.825C107.424 316.072 106.983 316.196 106.455 316.196Z" fill="#363131"/>
<path d="M23.731 333.16L26.475 325.355H27.35L24.207 334H23.374L20.252 325.355H21.12L23.857 333.16H23.731ZM29.3306 334V325.355H31.9696C32.9076 325.355 33.6169 325.595 34.0976 326.076C34.5782 326.557 34.8186 327.191 34.8186 327.98C34.8186 328.759 34.5782 329.387 34.0976 329.863C33.6169 330.334 32.9076 330.57 31.9696 330.57H30.1566V334H29.3306ZM30.1566 329.863H31.9696C32.6276 329.863 33.1269 329.697 33.4676 329.366C33.8129 329.03 33.9856 328.568 33.9856 327.98C33.9856 327.383 33.8129 326.911 33.4676 326.566C33.1269 326.221 32.6276 326.048 31.9696 326.048H30.1566V329.863ZM36.8141 335.337L36.1841 335.036C36.4268 334.915 36.6274 334.779 36.7861 334.63C36.9448 334.485 37.0474 334.299 37.0941 334.07C36.9214 334.061 36.7744 334.007 36.6531 333.909C36.5318 333.806 36.4711 333.671 36.4711 333.503C36.4711 333.349 36.5271 333.216 36.6391 333.104C36.7511 332.987 36.8981 332.929 37.0801 332.929C37.3041 332.929 37.4908 333.013 37.6401 333.181C37.7894 333.349 37.8641 333.554 37.8641 333.797C37.8641 334.082 37.7778 334.364 37.6051 334.644C37.4371 334.924 37.1734 335.155 36.8141 335.337ZM46.5023 334.154C45.7417 334.154 45.0883 333.958 44.5423 333.566C43.9963 333.169 43.5763 332.63 43.2823 331.949C42.993 331.263 42.8483 330.481 42.8483 329.604C42.8483 328.652 43.0093 327.852 43.3313 327.203C43.658 326.55 44.0967 326.055 44.6473 325.719C45.2027 325.383 45.821 325.215 46.5023 325.215C47.3843 325.215 48.103 325.439 48.6583 325.887C49.2183 326.335 49.6173 326.916 49.8553 327.63L48.9733 327.826C48.7773 327.243 48.4577 326.783 48.0143 326.447C47.5757 326.106 47.0717 325.936 46.5023 325.936C46.0123 325.936 45.555 326.076 45.1303 326.356C44.7103 326.631 44.3697 327.042 44.1083 327.588C43.8517 328.134 43.7233 328.806 43.7233 329.604C43.7233 330.318 43.8213 330.964 44.0173 331.543C44.218 332.117 44.5237 332.574 44.9343 332.915C45.345 333.251 45.8677 333.419 46.5023 333.419C47.249 333.419 47.8463 333.218 48.2943 332.817C48.747 332.416 48.9733 331.881 48.9733 331.214H49.8763C49.8763 331.821 49.7317 332.343 49.4423 332.782C49.153 333.221 48.754 333.559 48.2453 333.797C47.7367 334.035 47.1557 334.154 46.5023 334.154ZM54.5879 334.154C53.9952 334.154 53.4725 334.021 53.0199 333.755C52.5672 333.489 52.2102 333.097 51.9489 332.579C51.6922 332.061 51.5639 331.426 51.5639 330.675C51.5639 329.924 51.6922 329.291 51.9489 328.778C52.2102 328.26 52.5672 327.868 53.0199 327.602C53.4725 327.336 53.9952 327.203 54.5879 327.203C55.1805 327.203 55.7032 327.336 56.1559 327.602C56.6085 327.868 56.9632 328.26 57.2199 328.778C57.4765 329.291 57.6049 329.924 57.6049 330.675C57.6049 331.426 57.4765 332.061 57.2199 332.579C56.9632 333.097 56.6085 333.489 56.1559 333.755C55.7032 334.021 55.1805 334.154 54.5879 334.154ZM54.5739 333.447C55.0639 333.447 55.4722 333.333 55.7989 333.104C56.1255 332.871 56.3682 332.546 56.5269 332.131C56.6902 331.716 56.7719 331.23 56.7719 330.675C56.7719 329.84 56.5922 329.168 56.2329 328.659C55.8782 328.15 55.3345 327.896 54.6019 327.896C54.1119 327.896 53.7035 328.013 53.3769 328.246C53.0549 328.475 52.8122 328.799 52.6489 329.219C52.4902 329.634 52.4109 330.12 52.4109 330.675C52.4109 331.506 52.5882 332.175 52.9429 332.684C53.3022 333.193 53.8459 333.447 54.5739 333.447ZM69.5767 334V330.087C69.5767 329.382 69.4087 328.843 69.0727 328.47C68.7367 328.097 68.2771 327.91 67.6937 327.91C67.0311 327.91 66.5294 328.162 66.1887 328.666C65.8481 329.165 65.6777 329.833 65.6777 330.668H65.2647C65.2647 330.122 65.3207 329.634 65.4327 329.205C65.5447 328.771 65.7104 328.407 65.9297 328.113C66.1491 327.814 66.4197 327.588 66.7417 327.434C67.0684 327.28 67.4441 327.203 67.8687 327.203C68.3821 327.203 68.8254 327.317 69.1987 327.546C69.5767 327.775 69.8684 328.106 70.0737 328.54C70.2791 328.969 70.3817 329.485 70.3817 330.087V334H69.5767ZM60.0777 334V327.357H60.7637L60.8617 328.792C61.0624 328.293 61.3564 327.903 61.7437 327.623C62.1311 327.343 62.6047 327.203 63.1647 327.203C63.6781 327.203 64.1214 327.317 64.4947 327.546C64.8727 327.775 65.1644 328.106 65.3697 328.54C65.5751 328.969 65.6777 329.485 65.6777 330.087V334H64.8867V330.087C64.8867 329.382 64.7164 328.843 64.3757 328.47C64.0397 328.097 63.5754 327.91 62.9827 327.91C62.5487 327.91 62.1731 328.029 61.8557 328.267C61.5431 328.505 61.3027 328.839 61.1347 329.268C60.9714 329.697 60.8897 330.199 60.8897 330.773V334H60.0777ZM82.8587 334V330.087C82.8587 329.382 82.6907 328.843 82.3547 328.47C82.0187 328.097 81.559 327.91 80.9757 327.91C80.313 327.91 79.8114 328.162 79.4707 328.666C79.13 329.165 78.9597 329.833 78.9597 330.668H78.5467C78.5467 330.122 78.6027 329.634 78.7147 329.205C78.8267 328.771 78.9924 328.407 79.2117 328.113C79.431 327.814 79.7017 327.588 80.0237 327.434C80.3504 327.28 80.726 327.203 81.1507 327.203C81.664 327.203 82.1074 327.317 82.4807 327.546C82.8587 327.775 83.1504 328.106 83.3557 328.54C83.561 328.969 83.6637 329.485 83.6637 330.087V334H82.8587ZM73.3597 334V327.357H74.0457L74.1437 328.792C74.3444 328.293 74.6384 327.903 75.0257 327.623C75.413 327.343 75.8867 327.203 76.4467 327.203C76.96 327.203 77.4034 327.317 77.7767 327.546C78.1547 327.775 78.4464 328.106 78.6517 328.54C78.857 328.969 78.9597 329.485 78.9597 330.087V334H78.1687V330.087C78.1687 329.382 77.9984 328.843 77.6577 328.47C77.3217 328.097 76.8574 327.91 76.2647 327.91C75.8307 327.91 75.455 328.029 75.1377 328.267C74.825 328.505 74.5847 328.839 74.4167 329.268C74.2534 329.697 74.1717 330.199 74.1717 330.773V334H73.3597ZM88.8606 334.154C88.282 334.154 87.771 334.007 87.3276 333.713C86.889 333.414 86.5436 333.006 86.2916 332.488C86.0396 331.965 85.9136 331.37 85.9136 330.703C85.9136 329.975 86.0373 329.35 86.2846 328.827C86.5366 328.304 86.882 327.903 87.3206 327.623C87.764 327.343 88.2773 327.203 88.8606 327.203C89.3506 327.203 89.766 327.303 90.1066 327.504C90.452 327.7 90.7296 327.968 90.9396 328.309C91.1496 328.65 91.2966 329.035 91.3806 329.464C91.4693 329.893 91.5043 330.337 91.4856 330.794H86.5786V330.234H90.9886L90.6666 330.444C90.6806 330.141 90.662 329.84 90.6106 329.541C90.564 329.238 90.473 328.96 90.3376 328.708C90.207 328.456 90.0226 328.253 89.7846 328.099C89.5466 327.945 89.241 327.868 88.8676 327.868C88.3916 327.868 87.995 327.992 87.6776 328.239C87.3603 328.482 87.1223 328.799 86.9636 329.191C86.8096 329.578 86.7326 329.994 86.7326 330.437V330.78C86.7326 331.289 86.8096 331.746 86.9636 332.152C87.1223 332.558 87.358 332.88 87.6706 333.118C87.988 333.356 88.3846 333.475 88.8606 333.475C89.3506 333.475 89.7496 333.356 90.0576 333.118C90.3703 332.875 90.557 332.521 90.6176 332.054H91.4856C91.4156 332.497 91.2593 332.875 91.0166 333.188C90.7786 333.501 90.4753 333.741 90.1066 333.909C89.738 334.072 89.3226 334.154 88.8606 334.154ZM93.99 334V327.35H94.802V334H93.99ZM94.501 330.955C94.501 330.124 94.5733 329.434 94.718 328.883C94.8627 328.332 95.0867 327.919 95.39 327.644C95.6933 327.369 96.0807 327.231 96.552 327.231C96.7153 327.231 96.8647 327.243 97 327.266C97.14 327.289 97.28 327.327 97.42 327.378L97.329 328.169C97.1937 328.118 97.0443 328.076 96.881 328.043C96.7177 328.006 96.5753 327.987 96.454 327.987C96.0387 327.987 95.7097 328.113 95.467 328.365C95.229 328.617 95.0587 328.967 94.956 329.415C94.8533 329.858 94.802 330.372 94.802 330.955H94.501ZM101.35 334.154C100.832 334.154 100.347 334.012 99.8938 333.727C99.4412 333.442 99.0748 333.039 98.7948 332.516C98.5195 331.993 98.3818 331.375 98.3818 330.661C98.3818 329.938 98.5195 329.319 98.7948 328.806C99.0748 328.288 99.4412 327.891 99.8938 327.616C100.347 327.341 100.832 327.203 101.35 327.203C101.695 327.203 102.008 327.254 102.288 327.357C102.573 327.455 102.822 327.595 103.037 327.777C103.256 327.954 103.443 328.162 103.597 328.4C103.751 328.633 103.87 328.885 103.954 329.156L103.107 329.282C102.972 328.853 102.75 328.517 102.442 328.274C102.134 328.031 101.765 327.91 101.336 327.91C100.972 327.91 100.629 328.015 100.307 328.225C99.9895 328.435 99.7305 328.745 99.5298 329.156C99.3292 329.562 99.2288 330.064 99.2288 330.661C99.2288 331.202 99.3175 331.683 99.4948 332.103C99.6768 332.518 99.9265 332.845 100.244 333.083C100.561 333.316 100.925 333.433 101.336 333.433C101.901 333.433 102.337 333.293 102.645 333.013C102.953 332.733 103.107 332.339 103.107 331.83H103.954C103.954 332.287 103.844 332.691 103.625 333.041C103.406 333.391 103.1 333.664 102.708 333.86C102.316 334.056 101.863 334.154 101.35 334.154ZM108.732 334.154C108.153 334.154 107.642 334.007 107.199 333.713C106.76 333.414 106.415 333.006 106.163 332.488C105.911 331.965 105.785 331.37 105.785 330.703C105.785 329.975 105.909 329.35 106.156 328.827C106.408 328.304 106.753 327.903 107.192 327.623C107.635 327.343 108.149 327.203 108.732 327.203C109.222 327.203 109.637 327.303 109.978 327.504C110.323 327.7 110.601 327.968 110.811 328.309C111.021 328.65 111.168 329.035 111.252 329.464C111.341 329.893 111.376 330.337 111.357 330.794H106.45V330.234H110.86L110.538 330.444C110.552 330.141 110.533 329.84 110.482 329.541C110.435 329.238 110.344 328.96 110.209 328.708C110.078 328.456 109.894 328.253 109.656 328.099C109.418 327.945 109.112 327.868 108.739 327.868C108.263 327.868 107.866 327.992 107.549 328.239C107.232 328.482 106.994 328.799 106.835 329.191C106.681 329.578 106.604 329.994 106.604 330.437V330.78C106.604 331.289 106.681 331.746 106.835 332.152C106.994 332.558 107.229 332.88 107.542 333.118C107.859 333.356 108.256 333.475 108.732 333.475C109.222 333.475 109.621 333.356 109.929 333.118C110.242 332.875 110.428 332.521 110.489 332.054H111.357C111.287 332.497 111.131 332.875 110.888 333.188C110.65 333.501 110.347 333.741 109.978 333.909C109.609 334.072 109.194 334.154 108.732 334.154Z" fill="#363131"/>
</svg>
