<svg width="275" height="237" viewBox="0 0 275 237" fill="none" xmlns="http://www.w3.org/2000/svg">
<rect width="275" height="237" rx="5" fill="#F7F4ED"/>
<path d="M28.436 42.216C27.68 42.216 26.987 42.081 26.357 41.811C25.727 41.535 25.22 41.13 24.836 40.596C24.452 40.062 24.254 39.402 24.242 38.616H25.61C25.61 39.144 25.739 39.579 25.997 39.921C26.255 40.257 26.597 40.509 27.023 40.677C27.449 40.839 27.914 40.92 28.418 40.92C28.964 40.92 29.438 40.833 29.84 40.659C30.242 40.485 30.551 40.257 30.767 39.975C30.989 39.687 31.1 39.372 31.1 39.03C31.1 38.55 30.953 38.163 30.659 37.869C30.365 37.569 29.93 37.326 29.354 37.14L27.356 36.438C26.42 36.102 25.712 35.718 25.232 35.286C24.752 34.854 24.512 34.248 24.512 33.468C24.512 32.592 24.848 31.878 25.52 31.326C26.198 30.774 27.158 30.498 28.4 30.498C29.552 30.498 30.452 30.765 31.1 31.299C31.748 31.827 32.12 32.538 32.216 33.432H30.83C30.74 32.91 30.494 32.505 30.092 32.217C29.696 31.923 29.132 31.776 28.4 31.776C27.656 31.776 27.077 31.941 26.663 32.271C26.249 32.601 26.042 33.018 26.042 33.522C26.042 33.936 26.171 34.266 26.429 34.512C26.693 34.752 27.104 34.968 27.662 35.16L30.002 35.97C30.812 36.24 31.451 36.618 31.919 37.104C32.393 37.59 32.63 38.22 32.63 38.994C32.63 39.594 32.468 40.137 32.144 40.623C31.826 41.109 31.355 41.496 30.731 41.784C30.107 42.072 29.342 42.216 28.436 42.216ZM37.5889 42L41.4769 30.696H43.1869L46.9849 42H45.5089L44.5549 39.102H40.0549L39.0649 42H37.5889ZM40.4149 38.004H44.1949L42.3049 32.406L40.4149 38.004ZM52.5148 42V30.696H56.4568C57.7468 30.696 58.7218 31.005 59.3818 31.623C60.0478 32.235 60.3808 33.042 60.3808 34.044C60.3808 35.034 60.0478 35.838 59.3818 36.456C58.7218 37.068 57.7468 37.374 56.4568 37.374H53.9188V42H52.5148ZM58.8508 42L55.6108 36.87H57.1408L60.6688 42H58.8508ZM53.9188 36.384H56.3488C57.1948 36.384 57.8368 36.177 58.2748 35.763C58.7188 35.343 58.9408 34.8 58.9408 34.134C58.9408 33.45 58.7278 32.907 58.3018 32.505C57.8818 32.103 57.2668 31.902 56.4568 31.902H53.9188V36.384ZM65.4263 42L69.3143 30.696H71.0243L74.8223 42H73.3463L72.3923 39.102H67.8923L66.9023 42H65.4263ZM68.2523 38.004H72.0323L70.1423 32.406L68.2523 38.004ZM80.3522 30.696H81.7562V35.682H87.3542V30.696H88.7402V42H87.3542V36.888H81.7562V42H80.3522V30.696ZM103.109 42V30.696H106.745C107.987 30.696 108.935 31.011 109.589 31.641C110.249 32.265 110.579 33.114 110.579 34.188C110.579 35.25 110.249 36.093 109.589 36.717C108.935 37.335 107.987 37.644 106.745 37.644H104.531V42H103.109ZM104.531 36.42H106.745C107.531 36.42 108.125 36.219 108.527 35.817C108.935 35.415 109.139 34.872 109.139 34.188C109.139 33.492 108.935 32.937 108.527 32.523C108.125 32.109 107.531 31.902 106.745 31.902H104.531V36.42ZM116.352 42V30.696H120.294C121.584 30.696 122.559 31.005 123.219 31.623C123.885 32.235 124.218 33.042 124.218 34.044C124.218 35.034 123.885 35.838 123.219 36.456C122.559 37.068 121.584 37.374 120.294 37.374H117.756V42H116.352ZM122.688 42L119.448 36.87H120.978L124.506 42H122.688ZM117.756 36.384H120.186C121.032 36.384 121.674 36.177 122.112 35.763C122.556 35.343 122.778 34.8 122.778 34.134C122.778 33.45 122.565 32.907 122.139 32.505C121.719 32.103 121.104 31.902 120.294 31.902H117.756V36.384ZM130.613 42V30.696H132.017V42H130.613ZM138.898 30.696H142.21C143.35 30.696 144.34 30.93 145.18 31.398C146.02 31.86 146.671 32.514 147.133 33.36C147.595 34.206 147.826 35.202 147.826 36.348C147.826 37.482 147.595 38.472 147.133 39.318C146.671 40.164 146.02 40.824 145.18 41.298C144.34 41.766 143.35 42 142.21 42H138.898V30.696ZM140.302 31.938V40.776H142.21C143.062 40.776 143.794 40.584 144.406 40.2C145.024 39.816 145.498 39.291 145.828 38.625C146.164 37.953 146.332 37.194 146.332 36.348C146.332 35.496 146.164 34.74 145.828 34.08C145.498 33.414 145.024 32.892 144.406 32.514C143.794 32.13 143.062 31.938 142.21 31.938H140.302ZM154.003 42V30.696H160.969V31.902H155.407V35.7H160.645V36.906H155.407V40.776H160.969V42H154.003ZM170.986 42.216C170.23 42.216 169.537 42.081 168.907 41.811C168.277 41.535 167.77 41.13 167.386 40.596C167.002 40.062 166.804 39.402 166.792 38.616H168.16C168.16 39.144 168.289 39.579 168.547 39.921C168.805 40.257 169.147 40.509 169.573 40.677C169.999 40.839 170.464 40.92 170.968 40.92C171.514 40.92 171.988 40.833 172.39 40.659C172.792 40.485 173.101 40.257 173.317 39.975C173.539 39.687 173.65 39.372 173.65 39.03C173.65 38.55 173.503 38.163 173.209 37.869C172.915 37.569 172.48 37.326 171.904 37.14L169.906 36.438C168.97 36.102 168.262 35.718 167.782 35.286C167.302 34.854 167.062 34.248 167.062 33.468C167.062 32.592 167.398 31.878 168.07 31.326C168.748 30.774 169.708 30.498 170.95 30.498C172.102 30.498 173.002 30.765 173.65 31.299C174.298 31.827 174.67 32.538 174.766 33.432H173.38C173.29 32.91 173.044 32.505 172.642 32.217C172.246 31.923 171.682 31.776 170.95 31.776C170.206 31.776 169.627 31.941 169.213 32.271C168.799 32.601 168.592 33.018 168.592 33.522C168.592 33.936 168.721 34.266 168.979 34.512C169.243 34.752 169.654 34.968 170.212 35.16L172.552 35.97C173.362 36.24 174.001 36.618 174.469 37.104C174.943 37.59 175.18 38.22 175.18 38.994C175.18 39.594 175.018 40.137 174.694 40.623C174.376 41.109 173.905 41.496 173.281 41.784C172.657 42.072 171.892 42.216 170.986 42.216ZM24.818 52.696H26.222V57.682H31.82V52.696H33.206V64H31.82V58.888H26.222V64H24.818V52.696ZM40.081 64V52.696H47.047V53.902H41.485V57.7H46.723V58.906H41.485V62.776H47.047V64H40.081ZM53.4464 64V52.696H57.3884C58.6784 52.696 59.6534 53.005 60.3134 53.623C60.9794 54.235 61.3124 55.042 61.3124 56.044C61.3124 57.034 60.9794 57.838 60.3134 58.456C59.6534 59.068 58.6784 59.374 57.3884 59.374H54.8504V64H53.4464ZM59.7824 64L56.5424 58.87H58.0724L61.6004 64H59.7824ZM54.8504 58.384H57.2804C58.1264 58.384 58.7684 58.177 59.2064 57.763C59.6504 57.343 59.8724 56.8 59.8724 56.134C59.8724 55.45 59.6594 54.907 59.2334 54.505C58.8134 54.103 58.1984 53.902 57.3884 53.902H54.8504V58.384ZM71.3259 64.216C70.5699 64.216 69.8769 64.081 69.2469 63.811C68.6169 63.535 68.1099 63.13 67.7259 62.596C67.3419 62.062 67.1439 61.402 67.1319 60.616H68.4999C68.4999 61.144 68.6289 61.579 68.8869 61.921C69.1449 62.257 69.4869 62.509 69.9129 62.677C70.3389 62.839 70.8039 62.92 71.3079 62.92C71.8539 62.92 72.3279 62.833 72.7299 62.659C73.1319 62.485 73.4409 62.257 73.6569 61.975C73.8789 61.687 73.9899 61.372 73.9899 61.03C73.9899 60.55 73.8429 60.163 73.5489 59.869C73.2549 59.569 72.8199 59.326 72.2439 59.14L70.2459 58.438C69.3099 58.102 68.6019 57.718 68.1219 57.286C67.6419 56.854 67.4019 56.248 67.4019 55.468C67.4019 54.592 67.7379 53.878 68.4099 53.326C69.0879 52.774 70.0479 52.498 71.2899 52.498C72.4419 52.498 73.3419 52.765 73.9899 53.299C74.6379 53.827 75.0099 54.538 75.1059 55.432H73.7199C73.6299 54.91 73.3839 54.505 72.9819 54.217C72.5859 53.923 72.0219 53.776 71.2899 53.776C70.5459 53.776 69.9669 53.941 69.5529 54.271C69.1389 54.601 68.9319 55.018 68.9319 55.522C68.9319 55.936 69.0609 56.266 69.3189 56.512C69.5829 56.752 69.9939 56.968 70.5519 57.16L72.8919 57.97C73.7019 58.24 74.3409 58.618 74.8089 59.104C75.2829 59.59 75.5199 60.22 75.5199 60.994C75.5199 61.594 75.3579 62.137 75.0339 62.623C74.7159 63.109 74.2449 63.496 73.6209 63.784C72.9969 64.072 72.2319 64.216 71.3259 64.216ZM81.8108 64V52.696H88.7768V53.902H83.2148V57.7H88.4528V58.906H83.2148V62.776H88.7768V64H81.8108ZM96.5802 52.696V62.776H101.62V64H95.1762V52.696H96.5802ZM106.836 64V52.696H113.712V53.902H108.24V57.664H113.334V58.87H108.24V64H106.836ZM131.023 64.216C130.087 64.216 129.25 64 128.512 63.568C127.774 63.136 127.192 62.488 126.766 61.624C126.34 60.754 126.127 59.668 126.127 58.366C126.127 57.046 126.34 55.954 126.766 55.09C127.192 54.22 127.774 53.572 128.512 53.146C129.25 52.714 130.087 52.498 131.023 52.498C131.959 52.498 132.796 52.714 133.534 53.146C134.272 53.578 134.854 54.229 135.28 55.099C135.706 55.969 135.919 57.058 135.919 58.366C135.919 59.68 135.706 60.772 135.28 61.642C134.854 62.506 134.272 63.151 133.534 63.577C132.796 64.003 131.959 64.216 131.023 64.216ZM131.023 62.92C132.085 62.92 132.922 62.533 133.534 61.759C134.152 60.985 134.461 59.848 134.461 58.348C134.461 56.878 134.152 55.747 133.534 54.955C132.922 54.157 132.085 53.758 131.023 53.758C129.973 53.758 129.136 54.157 128.512 54.955C127.894 55.753 127.585 56.89 127.585 58.366C127.585 59.86 127.894 60.994 128.512 61.768C129.136 62.536 129.973 62.92 131.023 62.92ZM141.868 52.696H143.542L149.284 62.002H149.158V52.696H150.562V64H148.996L143.056 54.388H143.272V64H141.868V52.696Z" fill="#363131"/>
<rect width="182" height="20" transform="translate(20 78)" fill="#D7C6FF"/>
<path d="M30.0056 88.8766L29.572 88.0692L35.0598 84.0467L35.4935 84.9589L30.0056 88.8766ZM29.4075 91V80.0542H30.6037V91H29.4075ZM34.7458 91L31.6355 87.1421L32.5626 86.4542L35.7178 90.3421L34.7458 91ZM28.0467 81.2206V80.0542H30.514L30.1402 81.2206H28.0467ZM28.0467 91V89.8486H30.2299L30.6187 91H28.0467ZM29.5121 91L29.8411 89.8486H31.7701V91H29.5121ZM35.0449 91L35.2692 89.8486H36.6598V91H35.0449ZM32.428 85.1682V84.0019H35.4636L35 85.1682H32.428ZM32.8766 91V89.8486H35.2393L35.6729 91H32.8766ZM35.1794 85.1682L34.9551 84.0019H36.4953V85.1682H35.1794ZM46.0818 89.6991C45.394 90.5963 44.093 91.2093 42.6874 91.2093C40.6837 91.2093 39.0089 89.5495 39.0089 87.5009C39.0089 85.4822 40.6688 83.7925 42.6874 83.7925C44.7061 83.7925 46.3959 85.4374 46.3959 87.4561C46.3959 87.6355 46.351 87.8449 46.2912 88.0093H39.6818V86.9477H45.5136L45.1547 87.471C45.1547 86.0505 44.0183 84.9589 42.6874 84.9589C41.2968 84.9589 40.2351 86.0953 40.2351 87.5009C40.2351 88.8916 41.3267 90.043 42.7921 90.043C43.8089 90.043 44.7211 89.5944 45.1996 88.9514L46.0818 89.6991ZM56.5506 89.6991C55.8627 90.5963 54.5618 91.2093 53.1562 91.2093C51.1525 91.2093 49.4777 89.5495 49.4777 87.5009C49.4777 85.4822 51.1375 83.7925 53.1562 83.7925C55.1749 83.7925 56.8646 85.4374 56.8646 87.4561C56.8646 87.6355 56.8197 87.8449 56.7599 88.0093H50.1506V86.9477H55.9824L55.6235 87.471C55.6235 86.0505 54.487 84.9589 53.1562 84.9589C51.7655 84.9589 50.7039 86.0953 50.7039 87.5009C50.7039 88.8916 51.7954 90.043 53.2609 90.043C54.2777 90.043 55.1898 89.5944 55.6683 88.9514L56.5506 89.6991ZM64.253 91.2093C62.2941 91.2093 60.8287 89.415 60.8287 87.5009C60.8287 85.5869 62.2941 83.7925 64.253 83.7925C66.1969 83.7925 67.8268 85.4673 67.8268 87.5009C67.8268 89.5346 66.1969 91.2093 64.253 91.2093ZM64.1334 90.043C65.4791 90.043 66.6006 88.8766 66.6006 87.5009C66.6006 86.1402 65.4791 84.9589 64.1334 84.9589C62.7876 84.9589 61.6661 86.1252 61.6661 87.5009C61.6661 88.8916 62.7876 90.043 64.1334 90.043ZM60.5595 95.1271V84.0019H61.7707V86.4093L61.4418 87.5159L61.7707 88.8168V95.1271H60.5595ZM59.1988 85.1682V84.0019H61.7707L61.382 85.1682H59.1988ZM59.1988 95.1271V93.9757H61.382L61.7707 95.1271H59.1988ZM60.5446 95.1271L61.038 93.9757H63.8492V95.1271H60.5446ZM71.0283 91V89.8486H74.4376L75.0357 91H71.0283ZM73.8245 91L74.4376 89.8486H77.847V91H73.8245ZM71.0283 85.1682V84.0019H75.0357L74.4376 85.1682H71.0283ZM73.8245 91V84.0019H75.0357V91H73.8245ZM74.4675 82.3421C73.8245 82.3421 73.2862 81.8336 73.2862 81.1757C73.2862 80.5178 73.8245 79.9944 74.4675 79.9944C75.0956 79.9944 75.6339 80.5178 75.6339 81.1757C75.6339 81.8336 75.0956 82.3421 74.4675 82.3421ZM81.7512 91V84.0019H82.9176V85.871L82.9624 86.6636V91H81.7512ZM82.3045 87.157C82.3045 85.6019 83.2466 83.7925 85.0709 83.7925C86.7008 83.7925 87.912 85.0336 87.912 87.1421V91H86.7157V87.157C86.7157 85.7364 85.9082 84.9589 84.8316 84.9589C83.8148 84.9589 82.9624 85.7215 82.9624 87.157H82.3045ZM80.3905 85.1682V84.0019H82.9176L82.5438 85.1682H80.3905ZM80.3905 91V89.8486H82.5737L82.9624 91H80.3905ZM81.7512 91L82.1251 89.8486H84.2185V91H81.7512ZM85.4596 91V89.8486H87.5531L87.912 91H85.4596ZM86.7157 91L87.1045 89.8486H89.2877V91H86.7157ZM93.5209 95.1271C92.1602 95.1271 91.0237 94.1701 91.0237 93.0187C91.0237 91.9121 92.0106 91 93.2069 91L93.3116 90.7607H97.1246C98.3508 90.7607 99.3826 91.7477 99.3826 92.914C99.3826 94.1252 98.2611 95.1271 96.9452 95.1271H93.5209ZM94.8817 89.3103C92.9975 89.3103 91.6518 88.2037 91.6518 86.6486C91.6518 85.1084 92.9975 84.0019 94.8817 84.0019C96.6461 84.0019 98.0817 85.243 98.0817 86.7533C98.0817 88.2486 96.7359 89.3103 94.8817 89.3103ZM94.8817 88.2636C96.063 88.2636 96.9153 87.5907 96.9153 86.6486C96.9153 85.7215 96.063 85.0486 94.8817 85.0486C93.6854 85.0486 92.8181 85.7215 92.8181 86.6486C92.8181 87.5907 93.6854 88.2636 94.8817 88.2636ZM93.4162 91.5383C92.3845 91.5383 91.3975 91.0299 91.3975 89.8935C91.3975 88.9664 92.0555 88.3383 92.9676 88.0841L93.3415 88.7869C92.863 88.8916 92.519 89.3103 92.519 89.8336C92.519 90.372 92.9377 90.7607 93.6106 90.7607L93.4162 91.5383ZM96.8405 94.0804C97.6032 94.0804 98.1863 93.5869 98.1863 92.9589C98.1863 92.3308 97.6331 91.8224 96.9452 91.8224H93.4162C92.7433 91.8224 92.205 92.3308 92.205 92.9589C92.205 93.5869 92.7882 94.0804 93.5359 94.0804H96.8405ZM95.5845 85.0486L94.8817 84.0019H99.6368V85.0486H95.5845ZM113.157 91V80.0542H114.369V91H113.157ZM113.711 87.157C113.711 85.6019 114.653 83.7925 116.477 83.7925C118.047 83.7925 119.318 85.0336 119.318 87.157V91H118.122V87.157C118.122 85.6916 117.27 84.9589 116.238 84.9589C115.221 84.9589 114.369 85.7215 114.369 87.157H113.711ZM111.797 81.2206V80.0542H114.369L113.98 81.2206H111.797ZM111.797 91V89.8486H113.98L114.369 91H111.797ZM113.157 91L113.531 89.8486H115.625V91H113.157ZM116.866 91V89.8486H118.959L119.318 91H116.866ZM118.122 91L118.511 89.8486H120.694V91H118.122ZM129.832 89.6991C129.144 90.5963 127.843 91.2093 126.437 91.2093C124.434 91.2093 122.759 89.5495 122.759 87.5009C122.759 85.4822 124.419 83.7925 126.437 83.7925C128.456 83.7925 130.146 85.4374 130.146 87.4561C130.146 87.6355 130.101 87.8449 130.041 88.0093H123.432V86.9477H129.264L128.905 87.471C128.905 86.0505 127.768 84.9589 126.437 84.9589C125.047 84.9589 123.985 86.0953 123.985 87.5009C123.985 88.8916 125.077 90.043 126.542 90.043C127.559 90.043 128.471 89.5944 128.95 88.9514L129.832 89.6991ZM136.233 87.2617C136.233 85.3178 137.325 83.7925 139 83.7925C139.628 83.7925 140.286 83.972 140.794 84.4953V85.7215C140.271 85.1682 139.598 84.9589 139 84.9589C137.848 84.9589 136.891 86.0056 136.891 87.2617H136.233ZM135.68 91V84.0019H136.846V85.4673L136.891 86.2598V91H135.68ZM133.766 85.1682V84.0019H136.846L136.383 85.1682H133.766ZM133.766 91V89.8486H136.413L136.891 91H133.766ZM135.68 91L136.218 89.8486H139.224V91H135.68ZM158.666 91.2093C157.156 91.2093 156.079 90.0879 156.079 88.6075V81.5495H157.29V88.5776C157.29 89.4449 157.859 90.043 158.666 90.043C159.444 90.043 160.042 89.4449 160.042 88.5776V87.4112H161.238V88.5776C161.238 90.0879 160.146 91.2093 158.666 91.2093ZM153.911 85.1682V84.0019H157.29L156.782 85.1682H153.911ZM156.662 85.1682L156.079 84.0019H159.907V85.1682H156.662ZM171.707 89.6991C171.019 90.5963 169.718 91.2093 168.312 91.2093C166.309 91.2093 164.634 89.5495 164.634 87.5009C164.634 85.4822 166.294 83.7925 168.312 83.7925C170.331 83.7925 172.021 85.4374 172.021 87.4561C172.021 87.6355 171.976 87.8449 171.916 88.0093H165.307V86.9477H171.139L170.78 87.471C170.78 86.0505 169.643 84.9589 168.312 84.9589C166.922 84.9589 165.86 86.0953 165.86 87.5009C165.86 88.8916 166.952 90.043 168.417 90.043C169.434 90.043 170.346 89.5944 170.825 88.9514L171.707 89.6991ZM178.168 91.2093C176.224 91.2093 174.594 89.5346 174.594 87.5009C174.594 85.4673 176.224 83.7925 178.168 83.7925C180.127 83.7925 181.592 85.5869 181.592 87.5009C181.592 89.415 180.127 91.2093 178.168 91.2093ZM178.288 90.043C179.634 90.043 180.755 88.8916 180.755 87.5009C180.755 86.1252 179.634 84.9589 178.288 84.9589C176.942 84.9589 175.82 86.1402 175.82 87.5009C175.82 88.8766 176.942 90.043 178.288 90.043ZM180.65 91V88.5178L180.979 87.5009L180.65 86.4093V84.0019H181.862V91H180.65ZM180.65 91L181.039 89.8486H183.222V91H180.65ZM185.571 91V84.0019H186.768V85.5869L186.783 86.1701V91H185.571ZM192.076 86.6187C192.076 85.4224 191.747 84.9589 191.209 84.9589C190.596 84.9589 190.028 85.7065 190.028 87.1271H189.37C189.37 85.7963 190.312 83.7925 191.583 83.7925C192.674 83.7925 193.287 84.7495 193.287 86.6187V91H192.076V86.6187ZM188.831 86.6187C188.831 85.4224 188.502 84.9589 187.964 84.9589C187.351 84.9589 186.783 85.7215 186.783 87.157H186.125C186.125 85.8262 187.067 83.7925 188.338 83.7925C189.414 83.7925 190.028 84.7495 190.028 86.6187V91H188.831V86.6187Z" fill="#363131"/>
<rect width="140" height="20" transform="translate(20 103)" fill="#D7C6FF"/>
<path d="M29.1533 116V114.849H32.5626L33.1607 116H29.1533ZM31.9495 116L32.5626 114.849H35.972V116H31.9495ZM29.1533 110.168V109.002H33.1607L32.5626 110.168H29.1533ZM31.9495 116V109.002H33.1607V116H31.9495ZM32.5925 107.342C31.9495 107.342 31.4112 106.834 31.4112 106.176C31.4112 105.518 31.9495 104.994 32.5925 104.994C33.2206 104.994 33.7589 105.518 33.7589 106.176C33.7589 106.834 33.2206 107.342 32.5925 107.342ZM39.8762 116V109.002H41.0426V110.871L41.0874 111.664V116H39.8762ZM40.4295 112.157C40.4295 110.602 41.3716 108.793 43.1959 108.793C44.8258 108.793 46.037 110.034 46.037 112.142V116H44.8407V112.157C44.8407 110.736 44.0332 109.959 42.9566 109.959C41.9398 109.959 41.0874 110.721 41.0874 112.157H40.4295ZM38.5155 110.168V109.002H41.0426L40.6688 110.168H38.5155ZM38.5155 116V114.849H40.6987L41.0874 116H38.5155ZM39.8762 116L40.2501 114.849H42.3435V116H39.8762ZM43.5846 116V114.849H45.6781L46.037 116H43.5846ZM44.8407 116L45.2295 114.849H47.4127V116H44.8407ZM52.3039 107.611C52.3039 105.996 53.3655 104.86 54.8609 104.86C56.3562 104.86 57.4328 105.981 57.4328 107.566V107.746H56.2216V107.566C56.2216 106.654 55.6534 106.011 54.8609 106.011C54.0534 106.011 53.5151 106.654 53.5151 107.566V116H52.3039V107.611ZM50.1954 110.168V109.002H53.5151L53.0067 110.168H50.1954ZM52.902 110.168L52.3039 109.002H56.2665V110.168H52.902ZM50.1954 116V114.849H53.0067L53.5151 116H50.1954ZM52.3039 116L52.902 114.849H56.2665V116H52.3039ZM63.6399 116.209C61.5315 116.209 59.9763 114.505 59.9763 112.501C59.9763 110.497 61.6063 108.793 63.6399 108.793C65.6586 108.793 67.2885 110.497 67.2885 112.501C67.2885 114.505 65.7334 116.209 63.6399 116.209ZM63.6399 115.043C65.0006 115.043 66.0623 113.907 66.0623 112.501C66.0623 111.095 65.0006 109.959 63.6399 109.959C62.2642 109.959 61.2025 111.095 61.2025 112.501C61.2025 113.907 62.2642 115.043 63.6399 115.043ZM73.4208 112.262C73.4208 110.318 74.5124 108.793 76.1871 108.793C76.8152 108.793 77.4731 108.972 77.9815 109.495V110.721C77.4582 110.168 76.7853 109.959 76.1871 109.959C75.0357 109.959 74.0787 111.006 74.0787 112.262H73.4208ZM72.8675 116V109.002H74.0339V110.467L74.0787 111.26V116H72.8675ZM70.9535 110.168V109.002H74.0339L73.5703 110.168H70.9535ZM70.9535 116V114.849H73.6002L74.0787 116H70.9535ZM72.8675 116L73.4058 114.849H76.4114V116H72.8675ZM80.8839 116V109.002H82.0802V110.587L82.0952 111.17V116H80.8839ZM87.3886 111.619C87.3886 110.422 87.0596 109.959 86.5213 109.959C85.9082 109.959 85.34 110.707 85.34 112.127H84.6821C84.6821 110.796 85.6241 108.793 86.8952 108.793C87.9867 108.793 88.5998 109.75 88.5998 111.619V116H87.3886V111.619ZM84.1438 111.619C84.1438 110.422 83.8148 109.959 83.2765 109.959C82.6634 109.959 82.0952 110.721 82.0952 112.157H81.4372C81.4372 110.826 82.3793 108.793 83.6503 108.793C84.7269 108.793 85.34 109.75 85.34 111.619V116H84.1438V111.619ZM98.4256 114.699C97.7377 115.596 96.4368 116.209 95.0312 116.209C93.0275 116.209 91.3527 114.55 91.3527 112.501C91.3527 110.482 93.0125 108.793 95.0312 108.793C97.0499 108.793 98.7396 110.437 98.7396 112.456C98.7396 112.636 98.6947 112.845 98.6349 113.009H92.0256V111.948H97.8574L97.4985 112.471C97.4985 111.05 96.362 109.959 95.0312 109.959C93.6405 109.959 92.5789 111.095 92.5789 112.501C92.5789 113.892 93.6704 115.043 95.1359 115.043C96.1527 115.043 97.0648 114.594 97.5433 113.951L98.4256 114.699ZM107.369 116V113.593L107.698 112.546L107.369 111.499V105.054H108.58V116H107.369ZM104.887 116.209C102.943 116.209 101.313 114.535 101.313 112.501C101.313 110.467 102.943 108.793 104.887 108.793C106.846 108.793 108.311 110.587 108.311 112.501C108.311 114.415 106.846 116.209 104.887 116.209ZM105.006 115.043C106.352 115.043 107.474 113.892 107.474 112.501C107.474 111.125 106.352 109.959 105.006 109.959C103.661 109.959 102.539 111.14 102.539 112.501C102.539 113.877 103.661 115.043 105.006 115.043ZM105.739 106.221V105.054H108.58L108.147 106.221H105.739ZM107.369 116L107.758 114.849H109.941V116H107.369ZM125.824 116.209C123.88 116.209 122.251 114.535 122.251 112.501C122.251 110.467 123.88 108.793 125.824 108.793C127.783 108.793 129.249 110.587 129.249 112.501C129.249 114.415 127.783 116.209 125.824 116.209ZM125.944 115.043C127.29 115.043 128.411 113.892 128.411 112.501C128.411 111.125 127.29 109.959 125.944 109.959C124.598 109.959 123.477 111.14 123.477 112.501C123.477 113.877 124.598 115.043 125.944 115.043ZM128.307 116V113.518L128.636 112.501L128.307 111.409V109.002H129.518V116H128.307ZM128.307 116L128.695 114.849H130.879V116H128.307ZM134.095 116V109.002H135.261V110.871L135.306 111.664V116H134.095ZM134.648 112.157C134.648 110.602 135.59 108.793 137.415 108.793C139.045 108.793 140.256 110.034 140.256 112.142V116H139.059V112.157C139.059 110.736 138.252 109.959 137.175 109.959C136.159 109.959 135.306 110.721 135.306 112.157H134.648ZM132.734 110.168V109.002H135.261L134.888 110.168H132.734ZM132.734 116V114.849H134.917L135.306 116H132.734ZM134.095 116L134.469 114.849H136.562V116H134.095ZM137.803 116V114.849H139.897L140.256 116H137.803ZM139.059 116L139.448 114.849H141.631V116H139.059ZM149.244 116V113.593L149.573 112.546L149.244 111.499V105.054H150.455V116H149.244ZM146.762 116.209C144.818 116.209 143.188 114.535 143.188 112.501C143.188 110.467 144.818 108.793 146.762 108.793C148.721 108.793 150.186 110.587 150.186 112.501C150.186 114.415 148.721 116.209 146.762 116.209ZM146.881 115.043C148.227 115.043 149.349 113.892 149.349 112.501C149.349 111.125 148.227 109.959 146.881 109.959C145.536 109.959 144.414 111.14 144.414 112.501C144.414 113.877 145.536 115.043 146.881 115.043ZM147.614 106.221V105.054H150.455L150.022 106.221H147.614ZM149.244 116L149.633 114.849H151.816V116H149.244Z" fill="#363131"/>
<rect width="119" height="20" transform="translate(20 128)" fill="#D7C6FF"/>
<path d="M35.6131 139.699C34.9252 140.596 33.6243 141.209 32.2187 141.209C30.215 141.209 28.5402 139.55 28.5402 137.501C28.5402 135.482 30.2 133.793 32.2187 133.793C34.2374 133.793 35.9271 135.437 35.9271 137.456C35.9271 137.636 35.8822 137.845 35.8224 138.009H29.2131V136.948H35.0449L34.686 137.471C34.686 136.05 33.5495 134.959 32.2187 134.959C30.828 134.959 29.7664 136.095 29.7664 137.501C29.7664 138.892 30.8579 140.043 32.3234 140.043C33.3402 140.043 34.2523 139.594 34.7308 138.951L35.6131 139.699ZM39.0089 141V134.002H40.2052V135.587L40.2202 136.17V141H39.0089ZM45.5136 136.619C45.5136 135.422 45.1846 134.959 44.6463 134.959C44.0332 134.959 43.465 135.707 43.465 137.127H42.8071C42.8071 135.796 43.7491 133.793 45.0202 133.793C46.1117 133.793 46.7248 134.75 46.7248 136.619V141H45.5136V136.619ZM42.2688 136.619C42.2688 135.422 41.9398 134.959 41.4015 134.959C40.7884 134.959 40.2202 135.721 40.2202 137.157H39.5622C39.5622 135.826 40.5043 133.793 41.7753 133.793C42.8519 133.793 43.465 134.75 43.465 136.619V141H42.2688V136.619ZM53.7842 141.209C51.8254 141.209 50.3599 139.415 50.3599 137.501C50.3599 135.587 51.8254 133.793 53.7842 133.793C55.7282 133.793 57.3581 135.467 57.3581 137.501C57.3581 139.535 55.7282 141.209 53.7842 141.209ZM53.6646 140.043C55.0104 140.043 56.1319 138.877 56.1319 137.501C56.1319 136.14 55.0104 134.959 53.6646 134.959C52.3188 134.959 51.1973 136.125 51.1973 137.501C51.1973 138.892 52.3188 140.043 53.6646 140.043ZM50.0908 145.127V134.002H51.302V136.409L50.973 137.516L51.302 138.817V145.127H50.0908ZM48.73 135.168V134.002H51.302L50.9132 135.168H48.73ZM48.73 145.127V143.976H50.9132L51.302 145.127H48.73ZM50.0758 145.127L50.5693 143.976H53.3805V145.127H50.0758ZM63.6399 141.209C61.5315 141.209 59.9763 139.505 59.9763 137.501C59.9763 135.497 61.6063 133.793 63.6399 133.793C65.6586 133.793 67.2885 135.497 67.2885 137.501C67.2885 139.505 65.7334 141.209 63.6399 141.209ZM63.6399 140.043C65.0006 140.043 66.0623 138.907 66.0623 137.501C66.0623 136.095 65.0006 134.959 63.6399 134.959C62.2642 134.959 61.2025 136.095 61.2025 137.501C61.2025 138.907 62.2642 140.043 63.6399 140.043ZM71.0731 141L69.5479 134.002H70.7591L72.1946 141H71.0731ZM71.7311 141L73.2862 134.54H74.318L72.8526 141H71.7311ZM75.3647 141L73.8993 134.54H74.9161L76.4713 141H75.3647ZM76.0077 141L77.4432 134.002H78.6544L77.1292 141H76.0077ZM71.3871 140.821V139.849H72.5685V140.821H71.3871ZM73.7498 135.692L73.6301 134.645L74.4526 134.54L74.5722 135.602L73.7498 135.692ZM76.6357 140.821L75.6488 140.746L75.8133 139.849L76.8152 139.923L76.6357 140.821ZM68.9946 135.168V134.002H70.7591L70.49 135.168H68.9946ZM69.9217 135.168L69.5479 134.002H72.0301V135.168H69.9217ZM76.1722 135.168V134.002H78.6544L78.2806 135.168H76.1722ZM77.7124 135.168L77.4432 134.002H79.2077V135.168H77.7124ZM87.9568 139.699C87.269 140.596 85.968 141.209 84.5624 141.209C82.5587 141.209 80.8839 139.55 80.8839 137.501C80.8839 135.482 82.5438 133.793 84.5624 133.793C86.5811 133.793 88.2709 135.437 88.2709 137.456C88.2709 137.636 88.226 137.845 88.1662 138.009H81.5568V136.948H87.3886L87.0297 137.471C87.0297 136.05 85.8933 134.959 84.5624 134.959C83.1718 134.959 82.1101 136.095 82.1101 137.501C82.1101 138.892 83.2017 140.043 84.6671 140.043C85.6839 140.043 86.5961 139.594 87.0746 138.951L87.9568 139.699ZM94.3583 137.262C94.3583 135.318 95.4499 133.793 97.1246 133.793C97.7527 133.793 98.4106 133.972 98.919 134.495V135.721C98.3957 135.168 97.7228 134.959 97.1246 134.959C95.9732 134.959 95.0162 136.006 95.0162 137.262H94.3583ZM93.805 141V134.002H94.9714V135.467L95.0162 136.26V141H93.805ZM91.891 135.168V134.002H94.9714L94.5078 135.168H91.891ZM91.891 141V139.849H94.5377L95.0162 141H91.891ZM93.805 141L94.3433 139.849H97.3489V141H93.805ZM108.894 139.699C108.206 140.596 106.906 141.209 105.5 141.209C103.496 141.209 101.821 139.55 101.821 137.501C101.821 135.482 103.481 133.793 105.5 133.793C107.519 133.793 109.208 135.437 109.208 137.456C109.208 137.636 109.163 137.845 109.104 138.009H102.494V136.948H108.326L107.967 137.471C107.967 136.05 106.831 134.959 105.5 134.959C104.109 134.959 103.048 136.095 103.048 137.501C103.048 138.892 104.139 140.043 105.605 140.043C106.621 140.043 107.534 139.594 108.012 138.951L108.894 139.699ZM117.838 141V138.593L118.167 137.546L117.838 136.499V130.054H119.049V141H117.838ZM115.356 141.209C113.412 141.209 111.782 139.535 111.782 137.501C111.782 135.467 113.412 133.793 115.356 133.793C117.314 133.793 118.78 135.587 118.78 137.501C118.78 139.415 117.314 141.209 115.356 141.209ZM115.475 140.043C116.821 140.043 117.943 138.892 117.943 137.501C117.943 136.125 116.821 134.959 115.475 134.959C114.129 134.959 113.008 136.14 113.008 137.501C113.008 138.877 114.129 140.043 115.475 140.043ZM116.208 131.221V130.054H119.049L118.615 131.221H116.208ZM117.838 141L118.227 139.849H120.41V141H117.838ZM126.467 141.209C125.809 141.209 125.271 140.701 125.271 140.043C125.271 139.385 125.809 138.862 126.467 138.862C127.095 138.862 127.619 139.385 127.619 140.043C127.619 140.701 127.095 141.209 126.467 141.209Z" fill="#363131"/>
<path d="M24.466 191.196C23.836 191.196 23.255 191.086 22.723 190.867C22.1957 190.648 21.7663 190.314 21.435 189.866C21.1083 189.418 20.9333 188.849 20.91 188.158H22.534C22.534 188.508 22.6203 188.795 22.793 189.019C22.9657 189.243 23.1967 189.411 23.486 189.523C23.78 189.63 24.102 189.684 24.452 189.684C24.788 189.684 25.0867 189.64 25.348 189.551C25.614 189.462 25.8217 189.336 25.971 189.173C26.125 189.005 26.202 188.807 26.202 188.578C26.202 188.275 26.1087 188.037 25.922 187.864C25.74 187.691 25.446 187.533 25.04 187.388L23.248 186.674C22.548 186.399 22.0113 186.079 21.638 185.715C21.2647 185.351 21.078 184.849 21.078 184.21C21.078 183.473 21.3697 182.875 21.953 182.418C22.5363 181.961 23.3507 181.732 24.396 181.732C25.4133 181.732 26.1997 181.97 26.755 182.446C27.3103 182.917 27.6253 183.575 27.7 184.42H26.076C26.0153 184.061 25.852 183.774 25.586 183.559C25.32 183.34 24.9233 183.23 24.396 183.23C23.9293 183.23 23.5607 183.328 23.29 183.524C23.0193 183.715 22.884 183.958 22.884 184.252C22.884 184.504 22.968 184.705 23.136 184.854C23.3087 184.999 23.5747 185.139 23.934 185.274L25.922 186.044C26.594 186.305 27.1097 186.634 27.469 187.031C27.8283 187.428 28.008 187.925 28.008 188.522C28.008 189.068 27.8703 189.542 27.595 189.943C27.3197 190.34 26.9183 190.648 26.391 190.867C25.8637 191.086 25.222 191.196 24.466 191.196ZM32.8057 191.196C32.4044 191.196 32.0357 191.121 31.6997 190.972C31.3684 190.823 31.1024 190.594 30.9017 190.286C30.7057 189.978 30.6077 189.586 30.6077 189.11V182.404H32.2597V189.054C32.2597 189.614 32.5257 189.894 33.0577 189.894C33.2211 189.894 33.3844 189.875 33.5477 189.838C33.7111 189.801 33.8977 189.745 34.1077 189.67L34.3457 190.832C34.0844 190.935 33.8301 191.021 33.5827 191.091C33.3354 191.161 33.0764 191.196 32.8057 191.196ZM29.6557 185.302V184.21H34.1077V185.302H29.6557ZM38.8472 191.196C38.2685 191.196 37.7388 191.047 37.2582 190.748C36.7775 190.449 36.3925 190.032 36.1032 189.495C35.8138 188.954 35.6692 188.321 35.6692 187.598C35.6692 186.851 35.8115 186.21 36.0962 185.673C36.3855 185.136 36.7705 184.726 37.2512 184.441C37.7318 184.156 38.2638 184.014 38.8472 184.014C39.3885 184.014 39.8552 184.124 40.2472 184.343C40.6438 184.558 40.9612 184.852 41.1992 185.225C41.4418 185.594 41.6052 186.011 41.6892 186.478C41.7732 186.945 41.7778 187.425 41.7032 187.92H36.9852V187.024H40.5342L40.2122 187.234C40.2262 187.015 40.2145 186.793 40.1772 186.569C40.1445 186.345 40.0792 186.14 39.9812 185.953C39.8832 185.766 39.7432 185.617 39.5612 185.505C39.3838 185.388 39.1552 185.33 38.8752 185.33C38.5392 185.33 38.2545 185.414 38.0212 185.582C37.7878 185.75 37.6105 185.979 37.4892 186.268C37.3678 186.557 37.3072 186.884 37.3072 187.248V187.906C37.3072 188.289 37.3632 188.627 37.4752 188.921C37.5918 189.215 37.7622 189.446 37.9862 189.614C38.2148 189.782 38.5018 189.866 38.8472 189.866C39.1692 189.866 39.4398 189.791 39.6592 189.642C39.8785 189.493 40.0185 189.269 40.0792 188.97H41.7452C41.6752 189.409 41.5095 189.796 41.2482 190.132C40.9915 190.463 40.6578 190.725 40.2472 190.916C39.8365 191.103 39.3698 191.196 38.8472 191.196ZM47.419 191.196C46.9197 191.196 46.495 191.089 46.145 190.874C45.795 190.659 45.5267 190.335 45.34 189.901C45.158 189.462 45.067 188.914 45.067 188.256H45.669C45.669 188.559 45.739 188.818 45.879 189.033C46.019 189.248 46.2033 189.413 46.432 189.53C46.6653 189.642 46.915 189.698 47.181 189.698C47.4563 189.698 47.727 189.623 47.993 189.474C48.2637 189.32 48.4877 189.089 48.665 188.781C48.8423 188.468 48.931 188.074 48.931 187.598C48.931 187.164 48.8563 186.791 48.707 186.478C48.5577 186.161 48.3523 185.918 48.091 185.75C47.8343 185.582 47.5403 185.498 47.209 185.498C46.929 185.498 46.6723 185.561 46.439 185.687C46.2057 185.813 46.019 185.997 45.879 186.24C45.739 186.478 45.669 186.767 45.669 187.108H45.067C45.067 186.394 45.1767 185.811 45.396 185.358C45.6153 184.901 45.9093 184.562 46.278 184.343C46.6467 184.124 47.0503 184.014 47.489 184.014C48.0257 184.014 48.5297 184.156 49.001 184.441C49.477 184.726 49.862 185.136 50.156 185.673C50.45 186.205 50.597 186.847 50.597 187.598C50.597 188.354 50.4477 189 50.149 189.537C49.8503 190.074 49.4583 190.484 48.973 190.769C48.4923 191.054 47.9743 191.196 47.419 191.196ZM44.017 194.318V184.21H45.375L45.669 185.89V194.318H44.017ZM57.5039 191V187.024C57.5039 186.52 57.3826 186.14 57.1399 185.883C56.8973 185.626 56.5799 185.498 56.1879 185.498C55.8566 185.498 55.5626 185.589 55.3059 185.771C55.0539 185.953 54.8556 186.228 54.7109 186.597C54.5663 186.961 54.4939 187.416 54.4939 187.962H53.9479C53.9479 187.08 54.0576 186.347 54.2769 185.764C54.4963 185.176 54.8066 184.737 55.2079 184.448C55.6093 184.159 56.0806 184.014 56.6219 184.014C57.1819 184.014 57.6486 184.14 58.0219 184.392C58.3999 184.639 58.6823 184.989 58.8689 185.442C59.0603 185.895 59.1559 186.422 59.1559 187.024V191H57.5039ZM52.8419 191V181.396H54.4939V191H52.8419ZM66.1706 191L65.9606 189.348V186.618C65.9606 186.142 65.8626 185.79 65.6666 185.561C65.4752 185.332 65.1486 185.218 64.6866 185.218C64.4206 185.218 64.1896 185.258 63.9936 185.337C63.7976 185.416 63.6459 185.531 63.5386 185.68C63.4359 185.825 63.3846 186.002 63.3846 186.212H61.5786C61.5786 185.699 61.7022 185.281 61.9496 184.959C62.1969 184.632 62.5516 184.394 63.0136 184.245C63.4802 184.091 64.0379 184.014 64.6866 184.014C65.2746 184.014 65.7879 184.11 66.2266 184.301C66.6652 184.488 67.0059 184.777 67.2486 185.169C67.4912 185.561 67.6126 186.063 67.6126 186.674V191H66.1706ZM63.9446 191.196C63.3612 191.196 62.8736 191.096 62.4816 190.895C62.0942 190.69 61.8026 190.421 61.6066 190.09C61.4106 189.759 61.3126 189.399 61.3126 189.012C61.3126 188.583 61.4246 188.223 61.6486 187.934C61.8772 187.64 62.1992 187.421 62.6146 187.276C63.0299 187.127 63.5199 187.052 64.0846 187.052C64.4532 187.052 64.8009 187.08 65.1276 187.136C65.4589 187.192 65.7879 187.267 66.1146 187.36V188.326C65.8579 188.242 65.5779 188.177 65.2746 188.13C64.9712 188.083 64.6866 188.06 64.4206 188.06C64.0286 188.06 63.7066 188.132 63.4546 188.277C63.2026 188.422 63.0766 188.667 63.0766 189.012C63.0766 189.264 63.1792 189.481 63.3846 189.663C63.5899 189.845 63.9166 189.936 64.3646 189.936C64.7052 189.936 64.9946 189.861 65.2326 189.712C65.4706 189.563 65.6502 189.376 65.7716 189.152C65.8976 188.928 65.9606 188.704 65.9606 188.48H66.3526C66.3526 188.97 66.2616 189.423 66.0796 189.838C65.8976 190.249 65.6269 190.578 65.2676 190.825C64.9129 191.072 64.4719 191.196 63.9446 191.196ZM74.976 191V187.024C74.976 186.52 74.8547 186.14 74.612 185.883C74.3694 185.626 74.052 185.498 73.66 185.498C73.3287 185.498 73.0347 185.589 72.778 185.771C72.526 185.953 72.3277 186.228 72.183 186.597C72.0384 186.961 71.966 187.416 71.966 187.962H71.42C71.42 187.08 71.5297 186.347 71.749 185.764C71.9684 185.176 72.2787 184.737 72.68 184.448C73.0814 184.159 73.5527 184.014 74.094 184.014C74.654 184.014 75.1207 184.14 75.494 184.392C75.872 184.639 76.1544 184.989 76.341 185.442C76.5324 185.895 76.628 186.422 76.628 187.024V191H74.976ZM70.314 191V184.21H71.756L71.966 185.554V191H70.314ZM80.2827 182.964C79.9607 182.964 79.7087 182.88 79.5267 182.712C79.3494 182.539 79.2607 182.301 79.2607 181.998C79.2607 181.704 79.3494 181.471 79.5267 181.298C79.7087 181.121 79.9607 181.032 80.2827 181.032C80.6 181.032 80.8497 181.121 81.0317 181.298C81.2137 181.471 81.3047 181.704 81.3047 181.998C81.3047 182.301 81.2137 182.539 81.0317 182.712C80.8497 182.88 80.6 182.964 80.2827 182.964ZM79.4567 191V184.182H81.1087V191H79.4567ZM86.7244 191.196C86.1458 191.196 85.6161 191.047 85.1354 190.748C84.6548 190.449 84.2698 190.032 83.9804 189.495C83.6911 188.954 83.5464 188.321 83.5464 187.598C83.5464 186.851 83.6888 186.21 83.9734 185.673C84.2628 185.136 84.6478 184.726 85.1284 184.441C85.6091 184.156 86.1411 184.014 86.7244 184.014C87.2658 184.014 87.7324 184.124 88.1244 184.343C88.5211 184.558 88.8384 184.852 89.0764 185.225C89.3191 185.594 89.4824 186.011 89.5664 186.478C89.6504 186.945 89.6551 187.425 89.5804 187.92H84.8624V187.024H88.4114L88.0894 187.234C88.1034 187.015 88.0918 186.793 88.0544 186.569C88.0218 186.345 87.9564 186.14 87.8584 185.953C87.7604 185.766 87.6204 185.617 87.4384 185.505C87.2611 185.388 87.0324 185.33 86.7524 185.33C86.4164 185.33 86.1318 185.414 85.8984 185.582C85.6651 185.75 85.4878 185.979 85.3664 186.268C85.2451 186.557 85.1844 186.884 85.1844 187.248V187.906C85.1844 188.289 85.2404 188.627 85.3524 188.921C85.4691 189.215 85.6394 189.446 85.8634 189.614C86.0921 189.782 86.3791 189.866 86.7244 189.866C87.0464 189.866 87.3171 189.791 87.5364 189.642C87.7558 189.493 87.8958 189.269 87.9564 188.97H89.6224C89.5524 189.409 89.3868 189.796 89.1254 190.132C88.8688 190.463 88.5351 190.725 88.1244 190.916C87.7138 191.103 87.2471 191.196 86.7244 191.196ZM94.7213 191L97.8153 181.914H99.8873L102.855 191H101.119L100.489 189.04H97.1153L96.4713 191H94.7213ZM97.5353 187.794H100.097L98.8233 183.888L97.5353 187.794ZM104.759 191V184.182H106.411V191H104.759ZM106.005 188.018C106.005 187.127 106.105 186.389 106.306 185.806C106.507 185.223 106.775 184.791 107.111 184.511C107.452 184.226 107.83 184.084 108.245 184.084C108.357 184.084 108.462 184.091 108.56 184.105C108.663 184.119 108.763 184.14 108.861 184.168L108.833 185.82C108.712 185.792 108.581 185.769 108.441 185.75C108.301 185.731 108.175 185.722 108.063 185.722C107.699 185.722 107.393 185.811 107.146 185.988C106.903 186.161 106.719 186.417 106.593 186.758C106.472 187.099 106.411 187.519 106.411 188.018H106.005ZM111.501 182.964C111.179 182.964 110.927 182.88 110.745 182.712C110.568 182.539 110.479 182.301 110.479 181.998C110.479 181.704 110.568 181.471 110.745 181.298C110.927 181.121 111.179 181.032 111.501 181.032C111.818 181.032 112.068 181.121 112.25 181.298C112.432 181.471 112.523 181.704 112.523 181.998C112.523 182.301 112.432 182.539 112.25 182.712C112.068 182.88 111.818 182.964 111.501 182.964ZM110.675 191V184.182H112.327V191H110.675ZM120.071 191V187.024C120.071 186.52 119.949 186.14 119.707 185.883C119.464 185.626 119.147 185.498 118.755 185.498C118.423 185.498 118.129 185.589 117.873 185.771C117.621 185.953 117.422 186.228 117.278 186.597C117.133 186.961 117.061 187.416 117.061 187.962H116.515C116.515 187.08 116.624 186.347 116.844 185.764C117.063 185.176 117.373 184.737 117.775 184.448C118.176 184.159 118.647 184.014 119.189 184.014C119.749 184.014 120.215 184.14 120.589 184.392C120.967 184.639 121.249 184.989 121.436 185.442C121.627 185.895 121.723 186.422 121.723 187.024V191H120.071ZM115.409 191V184.21H116.851L117.061 185.554V191H115.409ZM125.377 182.964C125.055 182.964 124.803 182.88 124.621 182.712C124.444 182.539 124.355 182.301 124.355 181.998C124.355 181.704 124.444 181.471 124.621 181.298C124.803 181.121 125.055 181.032 125.377 181.032C125.695 181.032 125.944 181.121 126.126 181.298C126.308 181.471 126.399 181.704 126.399 181.998C126.399 182.301 126.308 182.539 126.126 182.712C125.944 182.88 125.695 182.964 125.377 182.964ZM124.551 191V184.182H126.203V191H124.551ZM131.819 191.196C131.241 191.196 130.711 191.047 130.23 190.748C129.75 190.449 129.365 190.032 129.075 189.495C128.786 188.954 128.641 188.321 128.641 187.598C128.641 186.851 128.784 186.21 129.068 185.673C129.358 185.136 129.743 184.726 130.223 184.441C130.704 184.156 131.236 184.014 131.819 184.014C132.361 184.014 132.827 184.124 133.219 184.343C133.616 184.558 133.933 184.852 134.171 185.225C134.414 185.594 134.577 186.011 134.661 186.478C134.745 186.945 134.75 187.425 134.675 187.92H129.957V187.024H133.506L133.184 187.234C133.198 187.015 133.187 186.793 133.149 186.569C133.117 186.345 133.051 186.14 132.953 185.953C132.855 185.766 132.715 185.617 132.533 185.505C132.356 185.388 132.127 185.33 131.847 185.33C131.511 185.33 131.227 185.414 130.993 185.582C130.76 185.75 130.583 185.979 130.461 186.268C130.34 186.557 130.279 186.884 130.279 187.248V187.906C130.279 188.289 130.335 188.627 130.447 188.921C130.564 189.215 130.734 189.446 130.958 189.614C131.187 189.782 131.474 189.866 131.819 189.866C132.141 189.866 132.412 189.791 132.631 189.642C132.851 189.493 132.991 189.269 133.051 188.97H134.717C134.647 189.409 134.482 189.796 134.22 190.132C133.964 190.463 133.63 190.725 133.219 190.916C132.809 191.103 132.342 191.196 131.819 191.196ZM136.989 191V181.396H138.641V191H136.989ZM141.535 191V181.396H143.187V191H141.535ZM148.754 191.196C148.134 191.196 147.571 191.063 147.067 190.797C146.568 190.531 146.171 190.134 145.877 189.607C145.583 189.075 145.436 188.41 145.436 187.612C145.436 186.8 145.583 186.128 145.877 185.596C146.171 185.064 146.568 184.667 147.067 184.406C147.571 184.145 148.134 184.014 148.754 184.014C149.366 184.014 149.919 184.145 150.413 184.406C150.913 184.667 151.309 185.064 151.603 185.596C151.897 186.128 152.044 186.8 152.044 187.612C152.044 188.41 151.897 189.075 151.603 189.607C151.309 190.134 150.913 190.531 150.413 190.797C149.919 191.063 149.366 191.196 148.754 191.196ZM148.698 189.754C149.025 189.754 149.314 189.675 149.566 189.516C149.823 189.353 150.024 189.112 150.168 188.795C150.318 188.478 150.392 188.083 150.392 187.612C150.392 186.893 150.25 186.352 149.965 185.988C149.685 185.624 149.3 185.442 148.81 185.442C148.479 185.442 148.185 185.524 147.928 185.687C147.672 185.846 147.469 186.086 147.319 186.408C147.175 186.73 147.102 187.131 147.102 187.612C147.102 188.321 147.245 188.856 147.529 189.215C147.819 189.574 148.208 189.754 148.698 189.754Z" fill="#363131"/>
<path d="M24.109 209.154C23.5443 209.154 23.0263 209.051 22.555 208.846C22.0837 208.636 21.7057 208.333 21.421 207.936C21.1363 207.535 20.994 207.047 20.994 206.473H21.778C21.778 206.912 21.8853 207.273 22.1 207.558C22.3147 207.843 22.597 208.055 22.947 208.195C23.3017 208.33 23.6843 208.398 24.095 208.398C24.5663 208.398 24.97 208.321 25.306 208.167C25.642 208.008 25.8987 207.803 26.076 207.551C26.258 207.299 26.349 207.031 26.349 206.746C26.349 206.331 26.223 205.995 25.971 205.738C25.7237 205.481 25.3643 205.281 24.893 205.136L23.458 204.674C22.716 204.417 22.1583 204.128 21.785 203.806C21.4117 203.484 21.225 203.029 21.225 202.441C21.225 201.788 21.4723 201.253 21.967 200.838C22.4617 200.423 23.1733 200.215 24.102 200.215C24.9373 200.215 25.593 200.406 26.069 200.789C26.5497 201.172 26.8273 201.673 26.902 202.294H26.097C26.0223 201.865 25.817 201.536 25.481 201.307C25.1497 201.074 24.69 200.957 24.102 200.957C23.4673 200.957 22.975 201.102 22.625 201.391C22.2797 201.676 22.107 202.04 22.107 202.483C22.107 202.842 22.2167 203.127 22.436 203.337C22.6553 203.542 23.0007 203.724 23.472 203.883L25.208 204.443C25.8147 204.63 26.3023 204.905 26.671 205.269C27.0443 205.628 27.231 206.116 27.231 206.732C27.231 207.157 27.112 207.553 26.874 207.922C26.636 208.291 26.286 208.589 25.824 208.818C25.362 209.042 24.7903 209.154 24.109 209.154ZM32.1995 209.154C31.6208 209.154 31.1098 209.007 30.6665 208.713C30.2278 208.414 29.8825 208.006 29.6305 207.488C29.3785 206.965 29.2525 206.37 29.2525 205.703C29.2525 204.975 29.3761 204.35 29.6235 203.827C29.8755 203.304 30.2208 202.903 30.6595 202.623C31.1028 202.343 31.6161 202.203 32.1995 202.203C32.6895 202.203 33.1048 202.303 33.4455 202.504C33.7908 202.7 34.0685 202.968 34.2785 203.309C34.4885 203.65 34.6355 204.035 34.7195 204.464C34.8081 204.893 34.8431 205.337 34.8245 205.794H29.9175V205.234H34.3275L34.0055 205.444C34.0195 205.141 34.0008 204.84 33.9495 204.541C33.9028 204.238 33.8118 203.96 33.6765 203.708C33.5458 203.456 33.3615 203.253 33.1235 203.099C32.8855 202.945 32.5798 202.868 32.2065 202.868C31.7305 202.868 31.3338 202.992 31.0165 203.239C30.6991 203.482 30.4611 203.799 30.3025 204.191C30.1485 204.578 30.0715 204.994 30.0715 205.437V205.78C30.0715 206.289 30.1485 206.746 30.3025 207.152C30.4611 207.558 30.6968 207.88 31.0095 208.118C31.3268 208.356 31.7235 208.475 32.1995 208.475C32.6895 208.475 33.0885 208.356 33.3965 208.118C33.7091 207.875 33.8958 207.521 33.9565 207.054H34.8245C34.7545 207.497 34.5981 207.875 34.3555 208.188C34.1175 208.501 33.8141 208.741 33.4455 208.909C33.0768 209.072 32.6615 209.154 32.1995 209.154ZM42.1378 209V205.087C42.1378 204.382 41.9675 203.843 41.6268 203.47C41.2908 203.097 40.8265 202.91 40.2338 202.91C39.7998 202.91 39.4242 203.029 39.1068 203.267C38.7942 203.505 38.5538 203.839 38.3858 204.268C38.2225 204.697 38.1408 205.199 38.1408 205.773H37.7838C37.7838 205.045 37.8818 204.415 38.0778 203.883C38.2785 203.346 38.5725 202.933 38.9598 202.644C39.3518 202.35 39.8372 202.203 40.4158 202.203C40.9292 202.203 41.3725 202.317 41.7458 202.546C42.1238 202.775 42.4155 203.106 42.6208 203.54C42.8262 203.969 42.9288 204.485 42.9288 205.087V209H42.1378ZM37.3288 209V202.357H38.0148L38.1408 203.995V209H37.3288ZM46.3623 200.607C46.1897 200.607 46.0497 200.553 45.9423 200.446C45.835 200.339 45.7813 200.203 45.7813 200.04C45.7813 199.881 45.835 199.755 45.9423 199.662C46.0497 199.564 46.1897 199.515 46.3623 199.515C46.5443 199.515 46.6867 199.564 46.7893 199.662C46.892 199.755 46.9433 199.881 46.9433 200.04C46.9433 200.203 46.892 200.339 46.7893 200.446C46.6867 200.553 46.5443 200.607 46.3623 200.607ZM45.9563 209V202.35H46.7683V209H45.9563ZM52.4622 209.154C51.8695 209.154 51.3468 209.021 50.8942 208.755C50.4415 208.489 50.0845 208.097 49.8232 207.579C49.5665 207.061 49.4382 206.426 49.4382 205.675C49.4382 204.924 49.5665 204.291 49.8232 203.778C50.0845 203.26 50.4415 202.868 50.8942 202.602C51.3468 202.336 51.8695 202.203 52.4622 202.203C53.0548 202.203 53.5775 202.336 54.0302 202.602C54.4828 202.868 54.8375 203.26 55.0942 203.778C55.3508 204.291 55.4792 204.924 55.4792 205.675C55.4792 206.426 55.3508 207.061 55.0942 207.579C54.8375 208.097 54.4828 208.489 54.0302 208.755C53.5775 209.021 53.0548 209.154 52.4622 209.154ZM52.4482 208.447C52.9382 208.447 53.3465 208.333 53.6732 208.104C53.9998 207.871 54.2425 207.546 54.4012 207.131C54.5645 206.716 54.6462 206.23 54.6462 205.675C54.6462 204.84 54.4665 204.168 54.1072 203.659C53.7525 203.15 53.2088 202.896 52.4762 202.896C51.9862 202.896 51.5778 203.013 51.2512 203.246C50.9292 203.475 50.6865 203.799 50.5232 204.219C50.3645 204.634 50.2852 205.12 50.2852 205.675C50.2852 206.506 50.4625 207.175 50.8172 207.684C51.1765 208.193 51.7202 208.447 52.4482 208.447ZM57.952 209V202.35H58.764V209H57.952ZM58.463 205.955C58.463 205.124 58.5354 204.434 58.68 203.883C58.8247 203.332 59.0487 202.919 59.352 202.644C59.6554 202.369 60.0427 202.231 60.514 202.231C60.6774 202.231 60.8267 202.243 60.962 202.266C61.102 202.289 61.242 202.327 61.382 202.378L61.291 203.169C61.1557 203.118 61.0064 203.076 60.843 203.043C60.6797 203.006 60.5374 202.987 60.416 202.987C60.0007 202.987 59.6717 203.113 59.429 203.365C59.191 203.617 59.0207 203.967 58.918 204.415C58.8154 204.858 58.764 205.372 58.764 205.955H58.463ZM69.4908 209.154C68.7301 209.154 68.0768 208.958 67.5308 208.566C66.9848 208.169 66.5648 207.63 66.2708 206.949C65.9814 206.263 65.8368 205.481 65.8368 204.604C65.8368 203.652 65.9978 202.852 66.3198 202.203C66.6464 201.55 67.0851 201.055 67.6358 200.719C68.1911 200.383 68.8094 200.215 69.4908 200.215C70.3728 200.215 71.0914 200.439 71.6468 200.887C72.2068 201.335 72.6058 201.916 72.8438 202.63L71.9618 202.826C71.7658 202.243 71.4461 201.783 71.0028 201.447C70.5641 201.106 70.0601 200.936 69.4908 200.936C69.0008 200.936 68.5434 201.076 68.1188 201.356C67.6988 201.631 67.3581 202.042 67.0968 202.588C66.8401 203.134 66.7118 203.806 66.7118 204.604C66.7118 205.318 66.8098 205.964 67.0058 206.543C67.2064 207.117 67.5121 207.574 67.9228 207.915C68.3334 208.251 68.8561 208.419 69.4908 208.419C70.2374 208.419 70.8348 208.218 71.2828 207.817C71.7354 207.416 71.9618 206.881 71.9618 206.214H72.8648C72.8648 206.821 72.7201 207.343 72.4308 207.782C72.1414 208.221 71.7424 208.559 71.2338 208.797C70.7251 209.035 70.1441 209.154 69.4908 209.154ZM77.5763 209.154C76.9836 209.154 76.461 209.021 76.0083 208.755C75.5556 208.489 75.1986 208.097 74.9373 207.579C74.6806 207.061 74.5523 206.426 74.5523 205.675C74.5523 204.924 74.6806 204.291 74.9373 203.778C75.1986 203.26 75.5556 202.868 76.0083 202.602C76.461 202.336 76.9836 202.203 77.5763 202.203C78.169 202.203 78.6916 202.336 79.1443 202.602C79.597 202.868 79.9516 203.26 80.2083 203.778C80.465 204.291 80.5933 204.924 80.5933 205.675C80.5933 206.426 80.465 207.061 80.2083 207.579C79.9516 208.097 79.597 208.489 79.1443 208.755C78.6916 209.021 78.169 209.154 77.5763 209.154ZM77.5623 208.447C78.0523 208.447 78.4606 208.333 78.7873 208.104C79.114 207.871 79.3566 207.546 79.5153 207.131C79.6786 206.716 79.7603 206.23 79.7603 205.675C79.7603 204.84 79.5806 204.168 79.2213 203.659C78.8666 203.15 78.323 202.896 77.5903 202.896C77.1003 202.896 76.692 203.013 76.3653 203.246C76.0433 203.475 75.8006 203.799 75.6373 204.219C75.4786 204.634 75.3993 205.12 75.3993 205.675C75.3993 206.506 75.5766 207.175 75.9313 207.684C76.2906 208.193 76.8343 208.447 77.5623 208.447ZM85.9222 209.154C85.4368 209.154 85.0098 209.04 84.6412 208.811C84.2772 208.582 83.9925 208.253 83.7872 207.824C83.5865 207.395 83.4862 206.879 83.4862 206.277H83.8782C83.8782 206.748 83.9715 207.145 84.1582 207.467C84.3495 207.784 84.5945 208.025 84.8932 208.188C85.1965 208.351 85.5162 208.433 85.8522 208.433C86.2208 208.433 86.5685 208.326 86.8952 208.111C87.2218 207.896 87.4878 207.584 87.6932 207.173C87.8985 206.758 88.0012 206.254 88.0012 205.661C88.0012 205.078 87.9032 204.583 87.7072 204.177C87.5112 203.766 87.2498 203.454 86.9232 203.239C86.6012 203.02 86.2465 202.91 85.8592 202.91C85.5232 202.91 85.2035 202.994 84.9002 203.162C84.5968 203.33 84.3495 203.577 84.1582 203.904C83.9715 204.226 83.8782 204.627 83.8782 205.108H83.4862C83.4862 204.492 83.5912 203.967 83.8012 203.533C84.0158 203.099 84.3075 202.77 84.6762 202.546C85.0448 202.317 85.4625 202.203 85.9292 202.203C86.4472 202.203 86.9278 202.343 87.3712 202.623C87.8145 202.898 88.1715 203.295 88.4422 203.813C88.7128 204.326 88.8482 204.942 88.8482 205.661C88.8482 206.389 88.7105 207.014 88.4352 207.537C88.1645 208.06 87.8052 208.461 87.3572 208.741C86.9138 209.016 86.4355 209.154 85.9222 209.154ZM83.0662 212.276V202.357H83.7522L83.8782 203.869V212.276H83.0662ZM90.2169 202.357H91.1059L93.4789 208.293H93.2479L95.0119 202.357H95.8519L93.3739 210.4C93.1919 211.007 92.9352 211.492 92.6039 211.856C92.2772 212.225 91.8432 212.409 91.3019 212.409C91.0219 212.409 90.7606 212.365 90.5179 212.276C90.2752 212.187 90.0232 212.061 89.7619 211.898V211.114C90.0046 211.324 90.2402 211.473 90.4689 211.562C90.6976 211.655 90.9379 211.702 91.1899 211.702C91.5026 211.702 91.7569 211.599 91.9529 211.394C92.1536 211.189 92.3169 210.93 92.4429 210.617C92.5736 210.304 92.6856 209.992 92.7789 209.679L92.9679 209L90.2169 202.357ZM96.7099 202.357H97.5499L99.3769 208.16H99.2509L101.057 202.658H101.673L103.458 208.174H103.353L105.18 202.357H105.992L103.815 209H103.031L101.288 203.841H101.414L99.6779 209H98.9009L96.7099 202.357ZM108.064 209V202.35H108.876V209H108.064ZM108.575 205.955C108.575 205.124 108.648 204.434 108.792 203.883C108.937 203.332 109.161 202.919 109.464 202.644C109.768 202.369 110.155 202.231 110.626 202.231C110.79 202.231 110.939 202.243 111.074 202.266C111.214 202.289 111.354 202.327 111.494 202.378L111.403 203.169C111.268 203.118 111.119 203.076 110.955 203.043C110.792 203.006 110.65 202.987 110.528 202.987C110.113 202.987 109.784 203.113 109.541 203.365C109.303 203.617 109.133 203.967 109.03 204.415C108.928 204.858 108.876 205.372 108.876 205.955H108.575ZM113.625 200.607C113.453 200.607 113.313 200.553 113.205 200.446C113.098 200.339 113.044 200.203 113.044 200.04C113.044 199.881 113.098 199.755 113.205 199.662C113.313 199.564 113.453 199.515 113.625 199.515C113.807 199.515 113.95 199.564 114.052 199.662C114.155 199.755 114.206 199.881 114.206 200.04C114.206 200.203 114.155 200.339 114.052 200.446C113.95 200.553 113.807 200.607 113.625 200.607ZM113.219 209V202.35H114.031V209H113.219ZM119.368 209.154C119.023 209.154 118.715 209.086 118.444 208.951C118.178 208.816 117.968 208.615 117.814 208.349C117.665 208.083 117.59 207.754 117.59 207.362V200.467H118.381V207.348C118.381 208.104 118.731 208.482 119.431 208.482C119.636 208.482 119.832 208.459 120.019 208.412C120.206 208.365 120.416 208.3 120.649 208.216L120.761 208.811C120.532 208.914 120.304 208.995 120.075 209.056C119.846 209.121 119.611 209.154 119.368 209.154ZM116.449 202.945V202.357H120.628V202.945H116.449ZM125.055 209.154C124.476 209.154 123.965 209.007 123.522 208.713C123.083 208.414 122.738 208.006 122.486 207.488C122.234 206.965 122.108 206.37 122.108 205.703C122.108 204.975 122.232 204.35 122.479 203.827C122.731 203.304 123.076 202.903 123.515 202.623C123.958 202.343 124.472 202.203 125.055 202.203C125.545 202.203 125.96 202.303 126.301 202.504C126.646 202.7 126.924 202.968 127.134 203.309C127.344 203.65 127.491 204.035 127.575 204.464C127.664 204.893 127.699 205.337 127.68 205.794H122.773V205.234H127.183L126.861 205.444C126.875 205.141 126.856 204.84 126.805 204.541C126.758 204.238 126.667 203.96 126.532 203.708C126.401 203.456 126.217 203.253 125.979 203.099C125.741 202.945 125.435 202.868 125.062 202.868C124.586 202.868 124.189 202.992 123.872 203.239C123.555 203.482 123.317 203.799 123.158 204.191C123.004 204.578 122.927 204.994 122.927 205.437V205.78C122.927 206.289 123.004 206.746 123.158 207.152C123.317 207.558 123.552 207.88 123.865 208.118C124.182 208.356 124.579 208.475 125.055 208.475C125.545 208.475 125.944 208.356 126.252 208.118C126.565 207.875 126.751 207.521 126.812 207.054H127.68C127.61 207.497 127.454 207.875 127.211 208.188C126.973 208.501 126.67 208.741 126.301 208.909C125.932 209.072 125.517 209.154 125.055 209.154ZM130.184 209V202.35H130.996V209H130.184ZM130.695 205.955C130.695 205.124 130.768 204.434 130.912 203.883C131.057 203.332 131.281 202.919 131.584 202.644C131.888 202.369 132.275 202.231 132.746 202.231C132.91 202.231 133.059 202.243 133.194 202.266C133.334 202.289 133.474 202.327 133.614 202.378L133.523 203.169C133.388 203.118 133.239 203.076 133.075 203.043C132.912 203.006 132.77 202.987 132.648 202.987C132.233 202.987 131.904 203.113 131.661 203.365C131.423 203.617 131.253 203.967 131.15 204.415C131.048 204.858 130.996 205.372 130.996 205.955H130.695Z" fill="#363131"/>
</svg>
