<svg width="275" height="165" viewBox="0 0 275 165" fill="none" xmlns="http://www.w3.org/2000/svg">
<rect width="275" height="165" rx="5" fill="#F7F4ED"/>
<path d="M28.436 42.216C27.68 42.216 26.987 42.081 26.357 41.811C25.727 41.535 25.22 41.13 24.836 40.596C24.452 40.062 24.254 39.402 24.242 38.616H25.61C25.61 39.144 25.739 39.579 25.997 39.921C26.255 40.257 26.597 40.509 27.023 40.677C27.449 40.839 27.914 40.92 28.418 40.92C28.964 40.92 29.438 40.833 29.84 40.659C30.242 40.485 30.551 40.257 30.767 39.975C30.989 39.687 31.1 39.372 31.1 39.03C31.1 38.55 30.953 38.163 30.659 37.869C30.365 37.569 29.93 37.326 29.354 37.14L27.356 36.438C26.42 36.102 25.712 35.718 25.232 35.286C24.752 34.854 24.512 34.248 24.512 33.468C24.512 32.592 24.848 31.878 25.52 31.326C26.198 30.774 27.158 30.498 28.4 30.498C29.552 30.498 30.452 30.765 31.1 31.299C31.748 31.827 32.12 32.538 32.216 33.432H30.83C30.74 32.91 30.494 32.505 30.092 32.217C29.696 31.923 29.132 31.776 28.4 31.776C27.656 31.776 27.077 31.941 26.663 32.271C26.249 32.601 26.042 33.018 26.042 33.522C26.042 33.936 26.171 34.266 26.429 34.512C26.693 34.752 27.104 34.968 27.662 35.16L30.002 35.97C30.812 36.24 31.451 36.618 31.919 37.104C32.393 37.59 32.63 38.22 32.63 38.994C32.63 39.594 32.468 40.137 32.144 40.623C31.826 41.109 31.355 41.496 30.731 41.784C30.107 42.072 29.342 42.216 28.436 42.216ZM37.5889 42L41.4769 30.696H43.1869L46.9849 42H45.5089L44.5549 39.102H40.0549L39.0649 42H37.5889ZM40.4149 38.004H44.1949L42.3049 32.406L40.4149 38.004ZM52.5148 42V30.696H56.4568C57.7468 30.696 58.7218 31.005 59.3818 31.623C60.0478 32.235 60.3808 33.042 60.3808 34.044C60.3808 35.034 60.0478 35.838 59.3818 36.456C58.7218 37.068 57.7468 37.374 56.4568 37.374H53.9188V42H52.5148ZM58.8508 42L55.6108 36.87H57.1408L60.6688 42H58.8508ZM53.9188 36.384H56.3488C57.1948 36.384 57.8368 36.177 58.2748 35.763C58.7188 35.343 58.9408 34.8 58.9408 34.134C58.9408 33.45 58.7278 32.907 58.3018 32.505C57.8818 32.103 57.2668 31.902 56.4568 31.902H53.9188V36.384ZM65.4263 42L69.3143 30.696H71.0243L74.8223 42H73.3463L72.3923 39.102H67.8923L66.9023 42H65.4263ZM68.2523 38.004H72.0323L70.1423 32.406L68.2523 38.004ZM80.3522 30.696H81.7562V35.682H87.3542V30.696H88.7402V42H87.3542V36.888H81.7562V42H80.3522V30.696ZM95.0932 34.458L94.0852 33.918C94.4272 33.744 94.7152 33.549 94.9492 33.333C95.1892 33.111 95.3452 32.856 95.4172 32.568C95.1472 32.538 94.9192 32.445 94.7332 32.289C94.5532 32.133 94.4632 31.926 94.4632 31.668C94.4632 31.404 94.5622 31.182 94.7602 31.002C94.9582 30.822 95.2072 30.732 95.5072 30.732C95.7592 30.732 95.9752 30.798 96.1552 30.93C96.3352 31.056 96.4732 31.227 96.5692 31.443C96.6652 31.653 96.7132 31.89 96.7132 32.154C96.7132 32.586 96.5722 33.009 96.2902 33.423C96.0082 33.831 95.6092 34.176 95.0932 34.458ZM106.323 42.216C105.567 42.216 104.874 42.081 104.244 41.811C103.614 41.535 103.107 41.13 102.723 40.596C102.339 40.062 102.141 39.402 102.129 38.616H103.497C103.497 39.144 103.626 39.579 103.884 39.921C104.142 40.257 104.484 40.509 104.91 40.677C105.336 40.839 105.801 40.92 106.305 40.92C106.851 40.92 107.325 40.833 107.727 40.659C108.129 40.485 108.438 40.257 108.654 39.975C108.876 39.687 108.987 39.372 108.987 39.03C108.987 38.55 108.84 38.163 108.546 37.869C108.252 37.569 107.817 37.326 107.241 37.14L105.243 36.438C104.307 36.102 103.599 35.718 103.119 35.286C102.639 34.854 102.399 34.248 102.399 33.468C102.399 32.592 102.735 31.878 103.407 31.326C104.085 30.774 105.045 30.498 106.287 30.498C107.439 30.498 108.339 30.765 108.987 31.299C109.635 31.827 110.007 32.538 110.103 33.432H108.717C108.627 32.91 108.381 32.505 107.979 32.217C107.583 31.923 107.019 31.776 106.287 31.776C105.543 31.776 104.964 31.941 104.55 32.271C104.136 32.601 103.929 33.018 103.929 33.522C103.929 33.936 104.058 34.266 104.316 34.512C104.58 34.752 104.991 34.968 105.549 35.16L107.889 35.97C108.699 36.24 109.338 36.618 109.806 37.104C110.28 37.59 110.517 38.22 110.517 38.994C110.517 39.594 110.355 40.137 110.031 40.623C109.713 41.109 109.242 41.496 108.618 41.784C107.994 42.072 107.229 42.216 106.323 42.216ZM122.988 42L126.876 30.696H128.586L132.384 42H130.908L129.954 39.102H125.454L124.464 42H122.988ZM125.814 38.004H129.594L127.704 32.406L125.814 38.004ZM137.914 30.696H141.226C142.366 30.696 143.356 30.93 144.196 31.398C145.036 31.86 145.687 32.514 146.149 33.36C146.611 34.206 146.842 35.202 146.842 36.348C146.842 37.482 146.611 38.472 146.149 39.318C145.687 40.164 145.036 40.824 144.196 41.298C143.356 41.766 142.366 42 141.226 42H137.914V30.696ZM139.318 31.938V40.776H141.226C142.078 40.776 142.81 40.584 143.422 40.2C144.04 39.816 144.514 39.291 144.844 38.625C145.18 37.953 145.348 37.194 145.348 36.348C145.348 35.496 145.18 34.74 144.844 34.08C144.514 33.414 144.04 32.892 143.422 32.514C142.81 32.13 142.078 31.938 141.226 31.938H139.318ZM156.186 40.506L159.534 30.696H161.028L156.996 42H155.538L151.542 30.696H153.036L156.366 40.506H156.186ZM166.401 42V30.696H167.805V42H166.401ZM178.61 42.216C177.614 42.216 176.756 41.967 176.036 41.469C175.316 40.965 174.761 40.269 174.371 39.381C173.981 38.487 173.786 37.452 173.786 36.276C173.786 35.022 173.996 33.966 174.416 33.108C174.842 32.25 175.418 31.602 176.144 31.164C176.876 30.72 177.698 30.498 178.61 30.498C179.816 30.498 180.785 30.801 181.517 31.407C182.255 32.007 182.762 32.79 183.038 33.756L181.526 34.062C181.292 33.36 180.917 32.802 180.401 32.388C179.891 31.968 179.294 31.758 178.61 31.758C178.016 31.758 177.467 31.929 176.963 32.271C176.465 32.607 176.063 33.111 175.757 33.783C175.451 34.455 175.298 35.286 175.298 36.276C175.298 37.176 175.418 37.977 175.658 38.679C175.904 39.381 176.27 39.933 176.756 40.335C177.248 40.737 177.866 40.938 178.61 40.938C179.504 40.938 180.212 40.698 180.734 40.218C181.262 39.738 181.526 39.108 181.526 38.328H183.056C183.056 39.138 182.87 39.834 182.498 40.416C182.126 40.992 181.604 41.436 180.932 41.748C180.266 42.06 179.492 42.216 178.61 42.216ZM188.947 42V30.696H195.913V31.902H190.351V35.7H195.589V36.906H190.351V40.776H195.913V42H188.947ZM209.824 42V30.696H211.228V42H209.824ZM221.727 42.216C220.971 42.216 220.278 42.081 219.648 41.811C219.018 41.535 218.511 41.13 218.127 40.596C217.743 40.062 217.545 39.402 217.533 38.616H218.901C218.901 39.144 219.03 39.579 219.288 39.921C219.546 40.257 219.888 40.509 220.314 40.677C220.74 40.839 221.205 40.92 221.709 40.92C222.255 40.92 222.729 40.833 223.131 40.659C223.533 40.485 223.842 40.257 224.058 39.975C224.28 39.687 224.391 39.372 224.391 39.03C224.391 38.55 224.244 38.163 223.95 37.869C223.656 37.569 223.221 37.326 222.645 37.14L220.647 36.438C219.711 36.102 219.003 35.718 218.523 35.286C218.043 34.854 217.803 34.248 217.803 33.468C217.803 32.592 218.139 31.878 218.811 31.326C219.489 30.774 220.449 30.498 221.691 30.498C222.843 30.498 223.743 30.765 224.391 31.299C225.039 31.827 225.411 32.538 225.507 33.432H224.121C224.031 32.91 223.785 32.505 223.383 32.217C222.987 31.923 222.423 31.776 221.691 31.776C220.947 31.776 220.368 31.941 219.954 32.271C219.54 32.601 219.333 33.018 219.333 33.522C219.333 33.936 219.462 34.266 219.72 34.512C219.984 34.752 220.395 34.968 220.953 35.16L223.293 35.97C224.103 36.24 224.742 36.618 225.21 37.104C225.684 37.59 225.921 38.22 225.921 38.994C225.921 39.594 225.759 40.137 225.435 40.623C225.117 41.109 224.646 41.496 224.022 41.784C223.398 42.072 222.633 42.216 221.727 42.216Z" fill="#363131"/>
<rect width="119" height="20" transform="translate(20 56)" fill="#D7C6FF"/>
<path d="M32.8467 69.2093C30.8879 69.2093 29.4224 67.415 29.4224 65.5009C29.4224 63.5869 30.8879 61.7925 32.8467 61.7925C34.7907 61.7925 36.4206 63.4673 36.4206 65.5009C36.4206 67.5346 34.7907 69.2093 32.8467 69.2093ZM32.7271 68.043C34.0729 68.043 35.1944 66.8766 35.1944 65.5009C35.1944 64.1402 34.0729 62.9589 32.7271 62.9589C31.3813 62.9589 30.2598 64.1252 30.2598 65.5009C30.2598 66.8916 31.3813 68.043 32.7271 68.043ZM29.1533 73.1271V62.0019H30.3645V64.4093L30.0355 65.5159L30.3645 66.8168V73.1271H29.1533ZM27.7925 63.1682V62.0019H30.3645L29.9757 63.1682H27.7925ZM27.7925 73.1271V71.9757H29.9757L30.3645 73.1271H27.7925ZM29.1383 73.1271L29.6318 71.9757H32.443V73.1271H29.1383ZM42.0145 65.2617C42.0145 63.3178 43.1061 61.7925 44.7809 61.7925C45.4089 61.7925 46.0669 61.972 46.5753 62.4953V63.7215C46.0519 63.1682 45.379 62.9589 44.7809 62.9589C43.6295 62.9589 42.6725 64.0056 42.6725 65.2617H42.0145ZM41.4613 69V62.0019H42.6276V63.4673L42.6725 64.2598V69H41.4613ZM39.5473 63.1682V62.0019H42.6276L42.1641 63.1682H39.5473ZM39.5473 69V67.8486H42.194L42.6725 69H39.5473ZM41.4613 69L41.9996 67.8486H45.0052V69H41.4613ZM50.0908 69V67.8486H53.5001L54.0982 69H50.0908ZM52.887 69L53.5001 67.8486H56.9095V69H52.887ZM50.0908 63.1682V62.0019H54.0982L53.5001 63.1682H50.0908ZM52.887 69V62.0019H54.0982V69H52.887ZM53.53 60.3421C52.887 60.3421 52.3487 59.8336 52.3487 59.1757C52.3487 58.5178 52.887 57.9944 53.53 57.9944C54.1581 57.9944 54.6964 58.5178 54.6964 59.1757C54.6964 59.8336 54.1581 60.3421 53.53 60.3421ZM60.2006 65.5159C60.2006 63.4374 61.9053 61.7925 64.0436 61.7925C65.2848 61.7925 66.3315 62.1514 67.2436 62.9589L66.2866 63.7215C65.5539 63.1084 64.9109 62.9589 64.0735 62.9589C62.6231 62.9589 61.4268 64.1103 61.4268 65.5308C61.4268 66.9364 62.5334 68.043 64.0287 68.043C65.0006 68.043 65.9577 67.5645 66.4362 66.8916L67.3184 67.6393C66.6455 68.5664 65.2698 69.2093 63.924 69.2093C61.8904 69.2093 60.2006 67.5645 60.2006 65.5159ZM67.2436 62.9589V65.0523H66.0175V63.2729L67.2436 62.9589ZM77.4881 67.6991C76.8002 68.5963 75.4993 69.2093 74.0937 69.2093C72.09 69.2093 70.4152 67.5495 70.4152 65.5009C70.4152 63.4822 72.075 61.7925 74.0937 61.7925C76.1124 61.7925 77.8021 63.4374 77.8021 65.4561C77.8021 65.6355 77.7572 65.8449 77.6974 66.0093H71.0881V64.9477H76.9199L76.561 65.471C76.561 64.0505 75.4245 62.9589 74.0937 62.9589C72.703 62.9589 71.6414 64.0953 71.6414 65.5009C71.6414 66.8916 72.7329 68.043 74.1984 68.043C75.2152 68.043 76.1273 67.5944 76.6058 66.9514L77.4881 67.6991ZM84.2783 69V58.0542H85.4895V69H84.2783ZM81.4671 69V67.8486H84.8765L85.4895 69H81.4671ZM84.2783 69L84.8765 67.8486H88.2858V69H84.2783ZM81.4821 59.2206V58.0542H85.4895L84.8765 59.2206H81.4821ZM98.4256 67.6991C97.7377 68.5963 96.4368 69.2093 95.0312 69.2093C93.0275 69.2093 91.3527 67.5495 91.3527 65.5009C91.3527 63.4822 93.0125 61.7925 95.0312 61.7925C97.0499 61.7925 98.7396 63.4374 98.7396 65.4561C98.7396 65.6355 98.6947 65.8449 98.6349 66.0093H92.0256V64.9477H97.8574L97.4985 65.471C97.4985 64.0505 96.362 62.9589 95.0312 62.9589C93.6405 62.9589 92.5789 64.0953 92.5789 65.5009C92.5789 66.8916 93.6704 68.043 95.1359 68.043C96.1527 68.043 97.0648 67.5944 97.5433 66.9514L98.4256 67.6991ZM105.455 69.2093C104.214 69.2093 102.973 68.9103 102.016 68.4467L102.689 67.4449C103.347 67.9234 104.393 68.1028 105.485 68.1028C107.04 68.1028 107.788 67.6991 107.788 67.0561C107.788 66.5327 107.324 66.2187 105.993 66.0243L104.812 65.8748C103.197 65.6505 102.195 65.1869 102.195 63.9458C102.195 62.585 103.541 61.7925 105.515 61.7925C106.651 61.7925 107.848 62.0318 108.76 62.5402L108.192 63.4374C107.294 63.0785 106.352 62.8991 105.335 62.8991C104.064 62.8991 103.392 63.2879 103.392 63.8262C103.392 64.3794 103.9 64.5738 105.051 64.7383L106.203 64.8879C108.147 65.1421 109.014 65.9047 109.014 66.9813C109.014 68.372 107.549 69.2093 105.455 69.2093ZM108.76 62.5402V64.0355H107.563V62.7495L108.76 62.5402ZM102.016 68.4467V66.9514H103.212V68.2224L102.016 68.4467ZM115.924 69.2093C114.683 69.2093 113.442 68.9103 112.485 68.4467L113.157 67.4449C113.815 67.9234 114.862 68.1028 115.954 68.1028C117.509 68.1028 118.257 67.6991 118.257 67.0561C118.257 66.5327 117.793 66.2187 116.462 66.0243L115.281 65.8748C113.666 65.6505 112.664 65.1869 112.664 63.9458C112.664 62.585 114.01 61.7925 115.984 61.7925C117.12 61.7925 118.316 62.0318 119.229 62.5402L118.66 63.4374C117.763 63.0785 116.821 62.8991 115.804 62.8991C114.533 62.8991 113.86 63.2879 113.86 63.8262C113.86 64.3794 114.369 64.5738 115.52 64.7383L116.671 64.8879C118.615 65.1421 119.483 65.9047 119.483 66.9813C119.483 68.372 118.017 69.2093 115.924 69.2093ZM119.229 62.5402V64.0355H118.032V62.7495L119.229 62.5402ZM112.485 68.4467V66.9514H113.681V68.2224L112.485 68.4467ZM126.467 69.2093C125.809 69.2093 125.271 68.7009 125.271 68.043C125.271 67.385 125.809 66.8617 126.467 66.8617C127.095 66.8617 127.619 67.385 127.619 68.043C127.619 68.7009 127.095 69.2093 126.467 69.2093Z" fill="#363131"/>
<path d="M20.308 119L23.402 109.914H25.474L28.442 119H26.706L26.076 117.04H22.702L22.058 119H20.308ZM23.122 115.794H25.684L24.41 111.888L23.122 115.794ZM28.8585 112.21H30.7345L32.5405 117.558H32.2465L33.8005 112.21H35.4805L32.8765 120.232C32.6105 121.035 32.2815 121.616 31.8895 121.975C31.5022 122.334 31.0285 122.514 30.4685 122.514C30.1465 122.514 29.8315 122.477 29.5235 122.402C29.2202 122.332 28.9098 122.22 28.5925 122.066V120.61C28.8492 120.769 29.0965 120.885 29.3345 120.96C29.5772 121.035 29.8198 121.072 30.0625 121.072C30.2818 121.072 30.4732 121.011 30.6365 120.89C30.8045 120.773 30.9492 120.608 31.0705 120.393C31.1918 120.183 31.2945 119.938 31.3785 119.658L31.5885 119L28.8585 112.21ZM41.5552 119L41.3452 117.348V114.618C41.3452 114.142 41.2472 113.79 41.0512 113.561C40.8599 113.332 40.5332 113.218 40.0712 113.218C39.8052 113.218 39.5742 113.258 39.3782 113.337C39.1822 113.416 39.0305 113.531 38.9232 113.68C38.8205 113.825 38.7692 114.002 38.7692 114.212H36.9632C36.9632 113.699 37.0869 113.281 37.3342 112.959C37.5815 112.632 37.9362 112.394 38.3982 112.245C38.8649 112.091 39.4225 112.014 40.0712 112.014C40.6592 112.014 41.1725 112.11 41.6112 112.301C42.0499 112.488 42.3905 112.777 42.6332 113.169C42.8759 113.561 42.9972 114.063 42.9972 114.674V119H41.5552ZM39.3292 119.196C38.7459 119.196 38.2582 119.096 37.8662 118.895C37.4789 118.69 37.1872 118.421 36.9912 118.09C36.7952 117.759 36.6972 117.399 36.6972 117.012C36.6972 116.583 36.8092 116.223 37.0332 115.934C37.2619 115.64 37.5839 115.421 37.9992 115.276C38.4145 115.127 38.9045 115.052 39.4692 115.052C39.8379 115.052 40.1855 115.08 40.5122 115.136C40.8435 115.192 41.1725 115.267 41.4992 115.36V116.326C41.2425 116.242 40.9625 116.177 40.6592 116.13C40.3559 116.083 40.0712 116.06 39.8052 116.06C39.4132 116.06 39.0912 116.132 38.8392 116.277C38.5872 116.422 38.4612 116.667 38.4612 117.012C38.4612 117.264 38.5639 117.481 38.7692 117.663C38.9745 117.845 39.3012 117.936 39.7492 117.936C40.0899 117.936 40.3792 117.861 40.6172 117.712C40.8552 117.563 41.0349 117.376 41.1562 117.152C41.2822 116.928 41.3452 116.704 41.3452 116.48H41.7372C41.7372 116.97 41.6462 117.423 41.4642 117.838C41.2822 118.249 41.0115 118.578 40.6522 118.825C40.2975 119.072 39.8565 119.196 39.3292 119.196ZM50.3606 119V115.024C50.3606 114.52 50.2393 114.14 49.9966 113.883C49.754 113.626 49.4366 113.498 49.0446 113.498C48.7133 113.498 48.4193 113.589 48.1626 113.771C47.9106 113.953 47.7123 114.228 47.5676 114.597C47.423 114.961 47.3506 115.416 47.3506 115.962H46.8046C46.8046 115.08 46.9143 114.347 47.1336 113.764C47.353 113.176 47.6633 112.737 48.0646 112.448C48.466 112.159 48.9373 112.014 49.4786 112.014C50.0386 112.014 50.5053 112.14 50.8786 112.392C51.2566 112.639 51.539 112.989 51.7256 113.442C51.917 113.895 52.0126 114.422 52.0126 115.024V119H50.3606ZM45.6986 119V112.21H47.1406L47.3506 113.554V119H45.6986ZM59.3633 119V115.024C59.3633 114.52 59.242 114.14 58.9993 113.883C58.7566 113.626 58.4393 113.498 58.0473 113.498C57.716 113.498 57.422 113.589 57.1653 113.771C56.9133 113.953 56.715 114.228 56.5703 114.597C56.4256 114.961 56.3533 115.416 56.3533 115.962H55.8073C55.8073 115.08 55.917 114.347 56.1363 113.764C56.3556 113.176 56.666 112.737 57.0673 112.448C57.4686 112.159 57.94 112.014 58.4813 112.014C59.0413 112.014 59.508 112.14 59.8813 112.392C60.2593 112.639 60.5416 112.989 60.7283 113.442C60.9196 113.895 61.0153 114.422 61.0153 115.024V119H59.3633ZM54.7013 119V112.21H56.1433L56.3533 113.554V119H54.7013ZM68.03 119L67.82 117.348V114.618C67.82 114.142 67.722 113.79 67.526 113.561C67.3346 113.332 67.008 113.218 66.546 113.218C66.28 113.218 66.049 113.258 65.853 113.337C65.657 113.416 65.5053 113.531 65.398 113.68C65.2953 113.825 65.244 114.002 65.244 114.212H63.438C63.438 113.699 63.5616 113.281 63.809 112.959C64.0563 112.632 64.411 112.394 64.873 112.245C65.3396 112.091 65.8973 112.014 66.546 112.014C67.134 112.014 67.6473 112.11 68.086 112.301C68.5246 112.488 68.8653 112.777 69.108 113.169C69.3506 113.561 69.472 114.063 69.472 114.674V119H68.03ZM65.804 119.196C65.2206 119.196 64.733 119.096 64.341 118.895C63.9536 118.69 63.662 118.421 63.466 118.09C63.27 117.759 63.172 117.399 63.172 117.012C63.172 116.583 63.284 116.223 63.508 115.934C63.7366 115.64 64.0586 115.421 64.474 115.276C64.8893 115.127 65.3793 115.052 65.944 115.052C66.3126 115.052 66.6603 115.08 66.987 115.136C67.3183 115.192 67.6473 115.267 67.974 115.36V116.326C67.7173 116.242 67.4373 116.177 67.134 116.13C66.8306 116.083 66.546 116.06 66.28 116.06C65.888 116.06 65.566 116.132 65.314 116.277C65.062 116.422 64.936 116.667 64.936 117.012C64.936 117.264 65.0386 117.481 65.244 117.663C65.4493 117.845 65.776 117.936 66.224 117.936C66.5646 117.936 66.854 117.861 67.092 117.712C67.33 117.563 67.5096 117.376 67.631 117.152C67.757 116.928 67.82 116.704 67.82 116.48H68.212C68.212 116.97 68.121 117.423 67.939 117.838C67.757 118.249 67.4863 118.578 67.127 118.825C66.7723 119.072 66.3313 119.196 65.804 119.196ZM75.9944 109.914H78.3604L80.9224 115.472H80.7824L83.3444 109.914H85.6264V119H83.9604V111.818H84.2124L81.3844 118.006H80.3064L77.4924 111.846H77.6464V119H75.9944V109.914ZM87.5447 118.034C87.5447 117.717 87.6521 117.451 87.8667 117.236C88.0814 117.021 88.3567 116.914 88.6927 116.914C89.0287 116.914 89.3087 117.021 89.5327 117.236C89.7567 117.451 89.8687 117.717 89.8687 118.034C89.8687 118.347 89.7567 118.608 89.5327 118.818C89.3087 119.023 89.0287 119.126 88.6927 119.126C88.3567 119.126 88.0814 119.021 87.8667 118.811C87.6521 118.601 87.5447 118.342 87.5447 118.034ZM98.9236 119.196C98.1256 119.196 97.4302 119.007 96.8376 118.629C96.2496 118.246 95.7922 117.7 95.4656 116.991C95.1389 116.282 94.9756 115.43 94.9756 114.436C94.9756 113.409 95.1436 112.548 95.4796 111.853C95.8202 111.153 96.2869 110.626 96.8796 110.271C97.4769 109.912 98.1582 109.732 98.9236 109.732C99.9829 109.732 100.809 109.989 101.402 110.502C101.999 111.015 102.382 111.683 102.55 112.504L100.786 112.826C100.641 112.35 100.41 111.965 100.093 111.671C99.7752 111.377 99.3856 111.23 98.9236 111.23C98.5176 111.23 98.1512 111.349 97.8246 111.587C97.4979 111.82 97.2366 112.175 97.0406 112.651C96.8492 113.127 96.7536 113.722 96.7536 114.436C96.7536 115.108 96.8376 115.687 97.0056 116.172C97.1782 116.657 97.4256 117.031 97.7476 117.292C98.0696 117.553 98.4616 117.684 98.9236 117.684C99.5162 117.684 99.9736 117.528 100.296 117.215C100.622 116.898 100.786 116.494 100.786 116.004H102.55C102.55 116.681 102.403 117.257 102.109 117.733C101.819 118.204 101.404 118.566 100.863 118.818C100.321 119.07 99.6749 119.196 98.9236 119.196ZM107.447 119.196C106.826 119.196 106.264 119.063 105.76 118.797C105.26 118.531 104.864 118.134 104.57 117.607C104.276 117.075 104.129 116.41 104.129 115.612C104.129 114.8 104.276 114.128 104.57 113.596C104.864 113.064 105.26 112.667 105.76 112.406C106.264 112.145 106.826 112.014 107.447 112.014C108.058 112.014 108.611 112.145 109.106 112.406C109.605 112.667 110.002 113.064 110.296 113.596C110.59 114.128 110.737 114.8 110.737 115.612C110.737 116.41 110.59 117.075 110.296 117.607C110.002 118.134 109.605 118.531 109.106 118.797C108.611 119.063 108.058 119.196 107.447 119.196ZM107.391 117.754C107.717 117.754 108.007 117.675 108.259 117.516C108.515 117.353 108.716 117.112 108.861 116.795C109.01 116.478 109.085 116.083 109.085 115.612C109.085 114.893 108.942 114.352 108.658 113.988C108.378 113.624 107.993 113.442 107.503 113.442C107.171 113.442 106.877 113.524 106.621 113.687C106.364 113.846 106.161 114.086 106.012 114.408C105.867 114.73 105.795 115.131 105.795 115.612C105.795 116.321 105.937 116.856 106.222 117.215C106.511 117.574 106.901 117.754 107.391 117.754ZM112.982 119V109.396H114.634V119H112.982ZM120.062 119.196C119.483 119.196 118.954 119.047 118.473 118.748C117.992 118.449 117.607 118.032 117.318 117.495C117.029 116.954 116.884 116.321 116.884 115.598C116.884 114.851 117.026 114.21 117.311 113.673C117.6 113.136 117.985 112.726 118.466 112.441C118.947 112.156 119.479 112.014 120.062 112.014C120.603 112.014 121.07 112.124 121.462 112.343C121.859 112.558 122.176 112.852 122.414 113.225C122.657 113.594 122.82 114.011 122.904 114.478C122.988 114.945 122.993 115.425 122.918 115.92H118.2V115.024H121.749L121.427 115.234C121.441 115.015 121.429 114.793 121.392 114.569C121.359 114.345 121.294 114.14 121.196 113.953C121.098 113.766 120.958 113.617 120.776 113.505C120.599 113.388 120.37 113.33 120.09 113.33C119.754 113.33 119.469 113.414 119.236 113.582C119.003 113.75 118.825 113.979 118.704 114.268C118.583 114.557 118.522 114.884 118.522 115.248V115.906C118.522 116.289 118.578 116.627 118.69 116.921C118.807 117.215 118.977 117.446 119.201 117.614C119.43 117.782 119.717 117.866 120.062 117.866C120.384 117.866 120.655 117.791 120.874 117.642C121.093 117.493 121.233 117.269 121.294 116.97H122.96C122.89 117.409 122.724 117.796 122.463 118.132C122.206 118.463 121.873 118.725 121.462 118.916C121.051 119.103 120.585 119.196 120.062 119.196Z" fill="#363131"/>
<path d="M20.392 137L23.381 128.355H24.34L27.287 137H26.433L25.635 134.599H22.072L21.239 137H20.392ZM22.282 133.941H25.411L23.843 129.363L22.282 133.941ZM29.4336 137V130.35H30.2456V137H29.4336ZM29.9446 133.955C29.9446 133.124 30.0169 132.434 30.1616 131.883C30.3063 131.332 30.5303 130.919 30.8336 130.644C31.1369 130.369 31.5243 130.231 31.9956 130.231C32.1589 130.231 32.3083 130.243 32.4436 130.266C32.5836 130.289 32.7236 130.327 32.8636 130.378L32.7726 131.169C32.6373 131.118 32.4879 131.076 32.3246 131.043C32.1613 131.006 32.0189 130.987 31.8976 130.987C31.4823 130.987 31.1533 131.113 30.9106 131.365C30.6726 131.617 30.5023 131.967 30.3996 132.415C30.2969 132.858 30.2456 133.372 30.2456 133.955H29.9446ZM36.4924 137.154C36.1471 137.154 35.8391 137.086 35.5684 136.951C35.3024 136.816 35.0924 136.615 34.9384 136.349C34.7891 136.083 34.7144 135.754 34.7144 135.362V128.467H35.5054V135.348C35.5054 136.104 35.8554 136.482 36.5554 136.482C36.7608 136.482 36.9568 136.459 37.1434 136.412C37.3301 136.365 37.5401 136.3 37.7734 136.216L37.8854 136.811C37.6568 136.914 37.4281 136.995 37.1994 137.056C36.9708 137.121 36.7351 137.154 36.4924 137.154ZM33.5734 130.945V130.357H37.7524V130.945H33.5734ZM47.5063 137L47.4013 135.621V132.681C47.4013 132.014 47.2566 131.54 46.9673 131.26C46.6779 130.98 46.2649 130.84 45.7283 130.84C45.4296 130.84 45.1519 130.884 44.8953 130.973C44.6386 131.057 44.4333 131.195 44.2793 131.386C44.1253 131.573 44.0483 131.82 44.0483 132.128H43.1243C43.1243 131.657 43.2409 131.281 43.4743 131.001C43.7076 130.716 44.0203 130.513 44.4123 130.392C44.8089 130.266 45.2476 130.203 45.7283 130.203C46.2043 130.203 46.6289 130.287 47.0023 130.455C47.3756 130.618 47.6696 130.884 47.8843 131.253C48.1036 131.617 48.2133 132.098 48.2133 132.695V137H47.5063ZM45.1963 137.154C44.6643 137.154 44.2256 137.058 43.8803 136.867C43.5349 136.671 43.2783 136.421 43.1103 136.118C42.9423 135.815 42.8583 135.502 42.8583 135.18C42.8583 134.713 42.9703 134.34 43.1943 134.06C43.4229 133.78 43.7263 133.577 44.1043 133.451C44.4869 133.325 44.9046 133.262 45.3573 133.262C45.6979 133.262 46.0503 133.302 46.4143 133.381C46.7829 133.456 47.1353 133.561 47.4713 133.696V134.242C47.1819 134.116 46.8483 134.016 46.4703 133.941C46.0923 133.866 45.7493 133.829 45.4413 133.829C44.9653 133.829 44.5593 133.932 44.2233 134.137C43.8873 134.342 43.7193 134.69 43.7193 135.18C43.7193 135.549 43.8429 135.861 44.0903 136.118C44.3423 136.375 44.7459 136.503 45.3013 136.503C45.6793 136.503 46.0269 136.412 46.3443 136.23C46.6616 136.048 46.9159 135.822 47.1073 135.551C47.3033 135.28 47.4013 135.007 47.4013 134.732H47.6043C47.6043 135.157 47.5039 135.553 47.3033 135.922C47.1073 136.291 46.8273 136.589 46.4633 136.818C46.1039 137.042 45.6816 137.154 45.1963 137.154ZM56.0071 137V133.087C56.0071 132.382 55.8368 131.843 55.4961 131.47C55.1601 131.097 54.6958 130.91 54.1031 130.91C53.6691 130.91 53.2935 131.029 52.9761 131.267C52.6635 131.505 52.4231 131.839 52.2551 132.268C52.0918 132.697 52.0101 133.199 52.0101 133.773H51.6531C51.6531 133.045 51.7511 132.415 51.9471 131.883C52.1478 131.346 52.4418 130.933 52.8291 130.644C53.2211 130.35 53.7065 130.203 54.2851 130.203C54.7985 130.203 55.2418 130.317 55.6151 130.546C55.9931 130.775 56.2848 131.106 56.4901 131.54C56.6955 131.969 56.7981 132.485 56.7981 133.087V137H56.0071ZM51.1981 137V130.357H51.8841L52.0101 131.995V137H51.1981ZM62.1286 137.154C61.6013 137.154 61.1136 137.012 60.6656 136.727C60.2223 136.438 59.8676 136.032 59.6016 135.509C59.3356 134.986 59.2026 134.368 59.2026 133.654C59.2026 132.94 59.3333 132.326 59.5946 131.813C59.8606 131.295 60.2106 130.898 60.6446 130.623C61.0833 130.343 61.5616 130.203 62.0796 130.203C62.5603 130.203 62.9873 130.322 63.3606 130.56C63.734 130.793 64.0256 131.129 64.2356 131.568C64.4456 132.002 64.5506 132.525 64.5506 133.136H64.1796C64.1796 132.646 64.084 132.238 63.8926 131.911C63.706 131.58 63.461 131.33 63.1576 131.162C62.8543 130.994 62.53 130.91 62.1846 130.91C61.8066 130.91 61.4543 131.02 61.1276 131.239C60.8056 131.458 60.5443 131.771 60.3436 132.177C60.1476 132.583 60.0496 133.075 60.0496 133.654C60.0496 134.237 60.1476 134.737 60.3436 135.152C60.5396 135.567 60.801 135.885 61.1276 136.104C61.4543 136.323 61.809 136.433 62.1916 136.433C62.5183 136.433 62.8333 136.349 63.1366 136.181C63.44 136.013 63.6896 135.766 63.8856 135.439C64.0816 135.108 64.1796 134.702 64.1796 134.221H64.5506C64.5506 134.837 64.4433 135.364 64.2286 135.803C64.0186 136.242 63.7293 136.578 63.3606 136.811C62.9966 137.04 62.586 137.154 62.1286 137.154ZM64.2986 137L64.1796 135.488V127.48H64.9846V137H64.2986ZM74.351 137.154C73.7863 137.154 73.2683 137.051 72.797 136.846C72.3256 136.636 71.9476 136.333 71.663 135.936C71.3783 135.535 71.236 135.047 71.236 134.473H72.02C72.02 134.912 72.1273 135.273 72.342 135.558C72.5566 135.843 72.839 136.055 73.189 136.195C73.5436 136.33 73.9263 136.398 74.337 136.398C74.8083 136.398 75.212 136.321 75.548 136.167C75.884 136.008 76.1406 135.803 76.318 135.551C76.5 135.299 76.591 135.031 76.591 134.746C76.591 134.331 76.465 133.995 76.213 133.738C75.9656 133.481 75.6063 133.281 75.135 133.136L73.7 132.674C72.958 132.417 72.4003 132.128 72.027 131.806C71.6536 131.484 71.467 131.029 71.467 130.441C71.467 129.788 71.7143 129.253 72.209 128.838C72.7036 128.423 73.4153 128.215 74.344 128.215C75.1793 128.215 75.835 128.406 76.311 128.789C76.7916 129.172 77.0693 129.673 77.144 130.294H76.339C76.2643 129.865 76.059 129.536 75.723 129.307C75.3916 129.074 74.932 128.957 74.344 128.957C73.7093 128.957 73.217 129.102 72.867 129.391C72.5216 129.676 72.349 130.04 72.349 130.483C72.349 130.842 72.4586 131.127 72.678 131.337C72.8973 131.542 73.2426 131.724 73.714 131.883L75.45 132.443C76.0566 132.63 76.5443 132.905 76.913 133.269C77.2863 133.628 77.473 134.116 77.473 134.732C77.473 135.157 77.354 135.553 77.116 135.922C76.878 136.291 76.528 136.589 76.066 136.818C75.604 137.042 75.0323 137.154 74.351 137.154ZM82.5184 137.154C81.9258 137.154 81.4031 137.021 80.9504 136.755C80.4978 136.489 80.1408 136.097 79.8794 135.579C79.6228 135.061 79.4944 134.426 79.4944 133.675C79.4944 132.924 79.6228 132.291 79.8794 131.778C80.1408 131.26 80.4978 130.868 80.9504 130.602C81.4031 130.336 81.9258 130.203 82.5184 130.203C83.1111 130.203 83.6338 130.336 84.0864 130.602C84.5391 130.868 84.8938 131.26 85.1504 131.778C85.4071 132.291 85.5354 132.924 85.5354 133.675C85.5354 134.426 85.4071 135.061 85.1504 135.579C84.8938 136.097 84.5391 136.489 84.0864 136.755C83.6338 137.021 83.1111 137.154 82.5184 137.154ZM82.5044 136.447C82.9944 136.447 83.4028 136.333 83.7294 136.104C84.0561 135.871 84.2988 135.546 84.4574 135.131C84.6208 134.716 84.7024 134.23 84.7024 133.675C84.7024 132.84 84.5228 132.168 84.1634 131.659C83.8088 131.15 83.2651 130.896 82.5324 130.896C82.0424 130.896 81.6341 131.013 81.3074 131.246C80.9854 131.475 80.7428 131.799 80.5794 132.219C80.4208 132.634 80.3414 133.12 80.3414 133.675C80.3414 134.506 80.5188 135.175 80.8734 135.684C81.2328 136.193 81.7764 136.447 82.5044 136.447ZM90.2483 137.154C89.7303 137.154 89.245 137.012 88.7923 136.727C88.3396 136.442 87.9733 136.039 87.6933 135.516C87.418 134.993 87.2803 134.375 87.2803 133.661C87.2803 132.938 87.418 132.319 87.6933 131.806C87.9733 131.288 88.3396 130.891 88.7923 130.616C89.245 130.341 89.7303 130.203 90.2483 130.203C90.5936 130.203 90.9063 130.254 91.1863 130.357C91.471 130.455 91.7206 130.595 91.9353 130.777C92.1546 130.954 92.3413 131.162 92.4953 131.4C92.6493 131.633 92.7683 131.885 92.8523 132.156L92.0053 132.282C91.87 131.853 91.6483 131.517 91.3403 131.274C91.0323 131.031 90.6636 130.91 90.2343 130.91C89.8703 130.91 89.5273 131.015 89.2053 131.225C88.888 131.435 88.629 131.745 88.4283 132.156C88.2276 132.562 88.1273 133.064 88.1273 133.661C88.1273 134.202 88.216 134.683 88.3933 135.103C88.5753 135.518 88.825 135.845 89.1423 136.083C89.4596 136.316 89.8236 136.433 90.2343 136.433C90.799 136.433 91.2353 136.293 91.5433 136.013C91.8513 135.733 92.0053 135.339 92.0053 134.83H92.8523C92.8523 135.287 92.7426 135.691 92.5233 136.041C92.304 136.391 91.9983 136.664 91.6063 136.86C91.2143 137.056 90.7616 137.154 90.2483 137.154ZM95.8523 128.607C95.6797 128.607 95.5397 128.553 95.4323 128.446C95.325 128.339 95.2713 128.203 95.2713 128.04C95.2713 127.881 95.325 127.755 95.4323 127.662C95.5397 127.564 95.6797 127.515 95.8523 127.515C96.0343 127.515 96.1767 127.564 96.2793 127.662C96.382 127.755 96.4333 127.881 96.4333 128.04C96.4333 128.203 96.382 128.339 96.2793 128.446C96.1767 128.553 96.0343 128.607 95.8523 128.607ZM95.4463 137V130.35H96.2583V137H95.4463ZM103.709 137L103.604 135.621V132.681C103.604 132.014 103.46 131.54 103.17 131.26C102.881 130.98 102.468 130.84 101.931 130.84C101.633 130.84 101.355 130.884 101.098 130.973C100.842 131.057 100.636 131.195 100.482 131.386C100.328 131.573 100.251 131.82 100.251 132.128H99.3272C99.3272 131.657 99.4438 131.281 99.6772 131.001C99.9105 130.716 100.223 130.513 100.615 130.392C101.012 130.266 101.451 130.203 101.931 130.203C102.407 130.203 102.832 130.287 103.205 130.455C103.579 130.618 103.873 130.884 104.087 131.253C104.307 131.617 104.416 132.098 104.416 132.695V137H103.709ZM101.399 137.154C100.867 137.154 100.429 137.058 100.083 136.867C99.7378 136.671 99.4812 136.421 99.3132 136.118C99.1452 135.815 99.0612 135.502 99.0612 135.18C99.0612 134.713 99.1732 134.34 99.3972 134.06C99.6258 133.78 99.9292 133.577 100.307 133.451C100.69 133.325 101.108 133.262 101.56 133.262C101.901 133.262 102.253 133.302 102.617 133.381C102.986 133.456 103.338 133.561 103.674 133.696V134.242C103.385 134.116 103.051 134.016 102.673 133.941C102.295 133.866 101.952 133.829 101.644 133.829C101.168 133.829 100.762 133.932 100.426 134.137C100.09 134.342 99.9222 134.69 99.9222 135.18C99.9222 135.549 100.046 135.861 100.293 136.118C100.545 136.375 100.949 136.503 101.504 136.503C101.882 136.503 102.23 136.412 102.547 136.23C102.865 136.048 103.119 135.822 103.31 135.551C103.506 135.28 103.604 135.007 103.604 134.732H103.807C103.807 135.157 103.707 135.553 103.506 135.922C103.31 136.291 103.03 136.589 102.666 136.818C102.307 137.042 101.885 137.154 101.399 137.154ZM107.401 137V127.48H108.213V137H107.401ZM113.506 136.538V135.663C113.814 135.878 114.127 136.048 114.444 136.174C114.766 136.3 115.086 136.363 115.403 136.363C115.94 136.363 116.318 136.204 116.537 135.887C116.756 135.57 116.866 135.138 116.866 134.592V128.355H117.671V134.592C117.671 135.185 117.582 135.67 117.405 136.048C117.228 136.426 116.971 136.706 116.635 136.888C116.304 137.065 115.905 137.154 115.438 137.154C115.079 137.154 114.74 137.096 114.423 136.979C114.11 136.862 113.805 136.715 113.506 136.538ZM125.137 130.35H125.949V137H125.137V130.35ZM120.349 130.35H121.161V134.522C121.161 135.138 121.31 135.609 121.609 135.936C121.912 136.258 122.349 136.419 122.918 136.419C123.385 136.419 123.784 136.293 124.115 136.041C124.446 135.789 124.698 135.451 124.871 135.026C125.048 134.601 125.137 134.132 125.137 133.619H125.522C125.522 134.328 125.412 134.947 125.193 135.474C124.974 136.001 124.663 136.41 124.262 136.699C123.861 136.984 123.385 137.126 122.834 137.126C122.321 137.126 121.877 137.03 121.504 136.839C121.135 136.648 120.851 136.363 120.65 135.985C120.449 135.602 120.349 135.129 120.349 134.564V130.35ZM131.524 137.154C130.88 137.154 130.348 137.061 129.928 136.874C129.513 136.687 129.2 136.435 128.99 136.118C128.78 135.801 128.666 135.446 128.647 135.054H129.459C129.487 135.525 129.676 135.882 130.026 136.125C130.381 136.363 130.864 136.482 131.475 136.482C131.793 136.482 132.087 136.431 132.357 136.328C132.628 136.221 132.845 136.076 133.008 135.894C133.176 135.707 133.26 135.497 133.26 135.264C133.26 134.965 133.151 134.732 132.931 134.564C132.712 134.396 132.364 134.251 131.888 134.13L130.677 133.766C130.094 133.598 129.648 133.36 129.34 133.052C129.032 132.739 128.878 132.366 128.878 131.932C128.878 131.409 129.105 130.992 129.557 130.679C130.01 130.362 130.6 130.203 131.328 130.203C132.122 130.203 132.74 130.359 133.183 130.672C133.627 130.985 133.86 131.374 133.883 131.841H133.043C132.992 131.51 132.822 131.265 132.532 131.106C132.243 130.943 131.842 130.861 131.328 130.861C130.82 130.861 130.425 130.978 130.145 131.211C129.865 131.444 129.725 131.699 129.725 131.974C129.725 132.506 130.183 132.896 131.097 133.143L132.287 133.514C132.885 133.682 133.34 133.906 133.652 134.186C133.97 134.466 134.128 134.825 134.128 135.264C134.128 135.586 134.023 135.892 133.813 136.181C133.608 136.47 133.312 136.706 132.924 136.888C132.537 137.065 132.07 137.154 131.524 137.154ZM138.74 137.154C138.395 137.154 138.087 137.086 137.816 136.951C137.55 136.816 137.34 136.615 137.186 136.349C137.037 136.083 136.962 135.754 136.962 135.362V128.467H137.753V135.348C137.753 136.104 138.103 136.482 138.803 136.482C139.008 136.482 139.204 136.459 139.391 136.412C139.578 136.365 139.788 136.3 140.021 136.216L140.133 136.811C139.904 136.914 139.676 136.995 139.447 137.056C139.218 137.121 138.983 137.154 138.74 137.154ZM135.821 130.945V130.357H140V130.945H135.821ZM142.649 128.607C142.476 128.607 142.336 128.553 142.229 128.446C142.122 128.339 142.068 128.203 142.068 128.04C142.068 127.881 142.122 127.755 142.229 127.662C142.336 127.564 142.476 127.515 142.649 127.515C142.831 127.515 142.973 127.564 143.076 127.662C143.179 127.755 143.23 127.881 143.23 128.04C143.23 128.203 143.179 128.339 143.076 128.446C142.973 128.553 142.831 128.607 142.649 128.607ZM142.243 137V130.35H143.055V137H142.243ZM148.693 137.154C148.175 137.154 147.689 137.012 147.237 136.727C146.784 136.442 146.418 136.039 146.138 135.516C145.862 134.993 145.725 134.375 145.725 133.661C145.725 132.938 145.862 132.319 146.138 131.806C146.418 131.288 146.784 130.891 147.237 130.616C147.689 130.341 148.175 130.203 148.693 130.203C149.038 130.203 149.351 130.254 149.631 130.357C149.915 130.455 150.165 130.595 150.38 130.777C150.599 130.954 150.786 131.162 150.94 131.4C151.094 131.633 151.213 131.885 151.297 132.156L150.45 132.282C150.314 131.853 150.093 131.517 149.785 131.274C149.477 131.031 149.108 130.91 148.679 130.91C148.315 130.91 147.972 131.015 147.65 131.225C147.332 131.435 147.073 131.745 146.873 132.156C146.672 132.562 146.572 133.064 146.572 133.661C146.572 134.202 146.66 134.683 146.838 135.103C147.02 135.518 147.269 135.845 147.587 136.083C147.904 136.316 148.268 136.433 148.679 136.433C149.243 136.433 149.68 136.293 149.988 136.013C150.296 135.733 150.45 135.339 150.45 134.83H151.297C151.297 135.287 151.187 135.691 150.968 136.041C150.748 136.391 150.443 136.664 150.051 136.86C149.659 137.056 149.206 137.154 148.693 137.154ZM156.075 137.154C155.496 137.154 154.985 137.007 154.542 136.713C154.103 136.414 153.758 136.006 153.506 135.488C153.254 134.965 153.128 134.37 153.128 133.703C153.128 132.975 153.252 132.35 153.499 131.827C153.751 131.304 154.096 130.903 154.535 130.623C154.978 130.343 155.492 130.203 156.075 130.203C156.565 130.203 156.98 130.303 157.321 130.504C157.666 130.7 157.944 130.968 158.154 131.309C158.364 131.65 158.511 132.035 158.595 132.464C158.684 132.893 158.719 133.337 158.7 133.794H153.793V133.234H158.203L157.881 133.444C157.895 133.141 157.876 132.84 157.825 132.541C157.778 132.238 157.687 131.96 157.552 131.708C157.421 131.456 157.237 131.253 156.999 131.099C156.761 130.945 156.455 130.868 156.082 130.868C155.606 130.868 155.209 130.992 154.892 131.239C154.575 131.482 154.337 131.799 154.178 132.191C154.024 132.578 153.947 132.994 153.947 133.437V133.78C153.947 134.289 154.024 134.746 154.178 135.152C154.337 135.558 154.572 135.88 154.885 136.118C155.202 136.356 155.599 136.475 156.075 136.475C156.565 136.475 156.964 136.356 157.272 136.118C157.585 135.875 157.771 135.521 157.832 135.054H158.7C158.63 135.497 158.474 135.875 158.231 136.188C157.993 136.501 157.69 136.741 157.321 136.909C156.952 137.072 156.537 137.154 156.075 137.154ZM165.509 128.355V136.293H169.52V137H164.697V128.355H165.509ZM173.554 137.154C172.975 137.154 172.464 137.007 172.021 136.713C171.582 136.414 171.237 136.006 170.985 135.488C170.733 134.965 170.607 134.37 170.607 133.703C170.607 132.975 170.73 132.35 170.978 131.827C171.23 131.304 171.575 130.903 172.014 130.623C172.457 130.343 172.97 130.203 173.554 130.203C174.044 130.203 174.459 130.303 174.8 130.504C175.145 130.7 175.423 130.968 175.633 131.309C175.843 131.65 175.99 132.035 176.074 132.464C176.162 132.893 176.197 133.337 176.179 133.794H171.272V133.234H175.682L175.36 133.444C175.374 133.141 175.355 132.84 175.304 132.541C175.257 132.238 175.166 131.96 175.031 131.708C174.9 131.456 174.716 131.253 174.478 131.099C174.24 130.945 173.934 130.868 173.561 130.868C173.085 130.868 172.688 130.992 172.371 131.239C172.053 131.482 171.815 131.799 171.657 132.191C171.503 132.578 171.426 132.994 171.426 133.437V133.78C171.426 134.289 171.503 134.746 171.657 135.152C171.815 135.558 172.051 135.88 172.364 136.118C172.681 136.356 173.078 136.475 173.554 136.475C174.044 136.475 174.443 136.356 174.751 136.118C175.063 135.875 175.25 135.521 175.311 135.054H176.179C176.109 135.497 175.952 135.875 175.71 136.188C175.472 136.501 175.168 136.741 174.8 136.909C174.431 137.072 174.016 137.154 173.554 137.154ZM182.736 137L182.631 135.621V132.681C182.631 132.014 182.486 131.54 182.197 131.26C181.908 130.98 181.495 130.84 180.958 130.84C180.659 130.84 180.382 130.884 180.125 130.973C179.868 131.057 179.663 131.195 179.509 131.386C179.355 131.573 179.278 131.82 179.278 132.128H178.354C178.354 131.657 178.471 131.281 178.704 131.001C178.937 130.716 179.25 130.513 179.642 130.392C180.039 130.266 180.477 130.203 180.958 130.203C181.434 130.203 181.859 130.287 182.232 130.455C182.605 130.618 182.899 130.884 183.114 131.253C183.333 131.617 183.443 132.098 183.443 132.695V137H182.736ZM180.426 137.154C179.894 137.154 179.455 137.058 179.11 136.867C178.765 136.671 178.508 136.421 178.34 136.118C178.172 135.815 178.088 135.502 178.088 135.18C178.088 134.713 178.2 134.34 178.424 134.06C178.653 133.78 178.956 133.577 179.334 133.451C179.717 133.325 180.134 133.262 180.587 133.262C180.928 133.262 181.28 133.302 181.644 133.381C182.013 133.456 182.365 133.561 182.701 133.696V134.242C182.412 134.116 182.078 134.016 181.7 133.941C181.322 133.866 180.979 133.829 180.671 133.829C180.195 133.829 179.789 133.932 179.453 134.137C179.117 134.342 178.949 134.69 178.949 135.18C178.949 135.549 179.073 135.861 179.32 136.118C179.572 136.375 179.976 136.503 180.531 136.503C180.909 136.503 181.257 136.412 181.574 136.23C181.891 136.048 182.146 135.822 182.337 135.551C182.533 135.28 182.631 135.007 182.631 134.732H182.834C182.834 135.157 182.734 135.553 182.533 135.922C182.337 136.291 182.057 136.589 181.693 136.818C181.334 137.042 180.911 137.154 180.426 137.154ZM188.766 137.154C188.238 137.154 187.751 137.012 187.303 136.727C186.859 136.438 186.505 136.032 186.239 135.509C185.973 134.986 185.84 134.368 185.84 133.654C185.84 132.94 185.97 132.326 186.232 131.813C186.498 131.295 186.848 130.898 187.282 130.623C187.72 130.343 188.199 130.203 188.717 130.203C189.197 130.203 189.624 130.322 189.998 130.56C190.371 130.793 190.663 131.129 190.873 131.568C191.083 132.002 191.188 132.525 191.188 133.136H190.817C190.817 132.646 190.721 132.238 190.53 131.911C190.343 131.58 190.098 131.33 189.795 131.162C189.491 130.994 189.167 130.91 188.822 130.91C188.444 130.91 188.091 131.02 187.765 131.239C187.443 131.458 187.181 131.771 186.981 132.177C186.785 132.583 186.687 133.075 186.687 133.654C186.687 134.237 186.785 134.737 186.981 135.152C187.177 135.567 187.438 135.885 187.765 136.104C188.091 136.323 188.446 136.433 188.829 136.433C189.155 136.433 189.47 136.349 189.774 136.181C190.077 136.013 190.327 135.766 190.523 135.439C190.719 135.108 190.817 134.702 190.817 134.221H191.188C191.188 134.837 191.08 135.364 190.866 135.803C190.656 136.242 190.366 136.578 189.998 136.811C189.634 137.04 189.223 137.154 188.766 137.154ZM190.936 137L190.817 135.488V127.48H191.622V137H190.936ZM197.075 137.154C196.497 137.154 195.986 137.007 195.542 136.713C195.104 136.414 194.758 136.006 194.506 135.488C194.254 134.965 194.128 134.37 194.128 133.703C194.128 132.975 194.252 132.35 194.499 131.827C194.751 131.304 195.097 130.903 195.535 130.623C195.979 130.343 196.492 130.203 197.075 130.203C197.565 130.203 197.981 130.303 198.321 130.504C198.667 130.7 198.944 130.968 199.154 131.309C199.364 131.65 199.511 132.035 199.595 132.464C199.684 132.893 199.719 133.337 199.7 133.794H194.793V133.234H199.203L198.881 133.444C198.895 133.141 198.877 132.84 198.825 132.541C198.779 132.238 198.688 131.96 198.552 131.708C198.422 131.456 198.237 131.253 197.999 131.099C197.761 130.945 197.456 130.868 197.082 130.868C196.606 130.868 196.21 130.992 195.892 131.239C195.575 131.482 195.337 131.799 195.178 132.191C195.024 132.578 194.947 132.994 194.947 133.437V133.78C194.947 134.289 195.024 134.746 195.178 135.152C195.337 135.558 195.573 135.88 195.885 136.118C196.203 136.356 196.599 136.475 197.075 136.475C197.565 136.475 197.964 136.356 198.272 136.118C198.585 135.875 198.772 135.521 198.832 135.054H199.7C199.63 135.497 199.474 135.875 199.231 136.188C198.993 136.501 198.69 136.741 198.321 136.909C197.953 137.072 197.537 137.154 197.075 137.154ZM202.205 137V130.35H203.017V137H202.205ZM202.716 133.955C202.716 133.124 202.788 132.434 202.933 131.883C203.077 131.332 203.301 130.919 203.605 130.644C203.908 130.369 204.295 130.231 204.767 130.231C204.93 130.231 205.079 130.243 205.215 130.266C205.355 130.289 205.495 130.327 205.635 130.378L205.544 131.169C205.408 131.118 205.259 131.076 205.096 131.043C204.932 131.006 204.79 130.987 204.669 130.987C204.253 130.987 203.924 131.113 203.682 131.365C203.444 131.617 203.273 131.967 203.171 132.415C203.068 132.858 203.017 133.372 203.017 133.955H202.716Z" fill="#363131"/>
</svg>
