<svg width="183" height="20" viewBox="0 0 183 20" fill="none" xmlns="http://www.w3.org/2000/svg">
<rect width="182" height="20" transform="translate(0.144531)" fill="#D7C6FF"/>
<path d="M11.7501 13.2093C9.80621 13.2093 8.17631 11.5346 8.17631 9.50093C8.17631 7.46729 9.80621 5.79252 11.7501 5.79252C13.709 5.79252 15.1744 7.58692 15.1744 9.50093C15.1744 11.415 13.709 13.2093 11.7501 13.2093ZM11.8698 12.043C13.2156 12.043 14.3371 10.8916 14.3371 9.50093C14.3371 8.12523 13.2156 6.95888 11.8698 6.95888C10.524 6.95888 9.40248 8.14019 9.40248 9.50093C9.40248 10.8766 10.524 12.043 11.8698 12.043ZM14.2324 13V10.5178L14.5614 9.50093L14.2324 8.40935V6.00187H15.4436V13H14.2324ZM14.2324 13L14.6212 11.8486H16.8043V13H14.2324ZM33.2559 13.2093C32.0147 13.2093 30.7736 12.9103 29.8166 12.4467L30.4895 11.4449C31.1475 11.9234 32.1942 12.1028 33.2858 12.1028C34.8409 12.1028 35.5886 11.6991 35.5886 11.0561C35.5886 10.5327 35.125 10.2187 33.7942 10.0243L32.6129 9.87477C30.9979 9.65047 29.9961 9.18692 29.9961 7.94579C29.9961 6.58505 31.3418 5.79252 33.3157 5.79252C34.4521 5.79252 35.6484 6.03178 36.5605 6.54019L35.9923 7.43738C35.0951 7.0785 34.1531 6.89907 33.1362 6.89907C31.8652 6.89907 31.1923 7.28785 31.1923 7.82617C31.1923 8.37944 31.7007 8.57383 32.8521 8.73832L34.0035 8.88785C35.9475 9.14206 36.8147 9.90467 36.8147 10.9813C36.8147 12.372 35.3493 13.2093 33.2559 13.2093ZM36.5605 6.54019V8.03551H35.3643V6.74953L36.5605 6.54019ZM29.8166 12.4467V10.9514H31.0129V12.2224L29.8166 12.4467ZM47.1639 11.6991C46.476 12.5963 45.1751 13.2093 43.7695 13.2093C41.7657 13.2093 40.091 11.5495 40.091 9.50093C40.091 7.48224 41.7508 5.79252 43.7695 5.79252C45.7882 5.79252 47.4779 7.43738 47.4779 9.45607C47.4779 9.63551 47.433 9.84486 47.3732 10.0093H40.7639V8.94766H46.5956L46.2368 9.47103C46.2368 8.05047 45.1003 6.95888 43.7695 6.95888C42.3788 6.95888 41.3171 8.09533 41.3171 9.50093C41.3171 10.8916 42.4087 12.043 43.8741 12.043C44.891 12.043 45.8031 11.5944 46.2816 10.9514L47.1639 11.6991ZM50.8139 9.51589C50.8139 7.43738 52.5186 5.79252 54.6569 5.79252C55.898 5.79252 56.9448 6.1514 57.8569 6.95888L56.8999 7.7215C56.1672 7.10841 55.5242 6.95888 54.6868 6.95888C53.2364 6.95888 52.0401 8.11028 52.0401 9.53084C52.0401 10.9364 53.1466 12.043 54.642 12.043C55.6139 12.043 56.5709 11.5645 57.0494 10.8916L57.9317 11.6393C57.2588 12.5664 55.8831 13.2093 54.5373 13.2093C52.5036 13.2093 50.8139 11.5645 50.8139 9.51589ZM57.8569 6.95888V9.05234H56.6307V7.2729L57.8569 6.95888ZM64.0341 9.26168C64.0341 7.31776 65.1257 5.79252 66.8004 5.79252C67.4285 5.79252 68.0864 5.97196 68.5948 6.49533V7.7215C68.0715 7.16822 67.3986 6.95888 66.8004 6.95888C65.649 6.95888 64.692 8.00561 64.692 9.26168H64.0341ZM63.4808 13V6.00187H64.6472V7.46729L64.692 8.25981V13H63.4808ZM61.5668 7.16822V6.00187H64.6472L64.1836 7.16822H61.5668ZM61.5668 13V11.8486H64.2135L64.692 13H61.5668ZM63.4808 13L64.0191 11.8486H67.0247V13H63.4808ZM78.5701 11.6991C77.8823 12.5963 76.5813 13.2093 75.1757 13.2093C73.172 13.2093 71.4972 11.5495 71.4972 9.50093C71.4972 7.48224 73.157 5.79252 75.1757 5.79252C77.1944 5.79252 78.8841 7.43738 78.8841 9.45607C78.8841 9.63551 78.8393 9.84486 78.7795 10.0093H72.1701V8.94766H78.0019L77.643 9.47103C77.643 8.05047 76.5066 6.95888 75.1757 6.95888C73.7851 6.95888 72.7234 8.09533 72.7234 9.50093C72.7234 10.8916 73.815 12.043 75.2804 12.043C76.2972 12.043 77.2094 11.5944 77.6879 10.9514L78.5701 11.6991ZM86.4669 13.2093C84.9566 13.2093 83.88 12.0879 83.88 10.6075V3.54953H85.0912V10.5776C85.0912 11.4449 85.6594 12.043 86.4669 12.043C87.2445 12.043 87.8426 11.4449 87.8426 10.5776V9.41121H89.0389V10.5776C89.0389 12.0879 87.9473 13.2093 86.4669 13.2093ZM81.7118 7.16822V6.00187H85.0912L84.5828 7.16822H81.7118ZM84.4632 7.16822L83.88 6.00187H87.708V7.16822H84.4632ZM103.561 13L102.036 6.00187H103.247L104.683 13H103.561ZM104.219 13L105.774 6.54019H106.806L105.341 13H104.219ZM107.853 13L106.388 6.54019H107.404L108.96 13H107.853ZM108.496 13L109.932 6.00187H111.143L109.617 13H108.496ZM103.875 12.8206V11.8486H105.057V12.8206H103.875ZM106.238 7.69159L106.118 6.64486L106.941 6.54019L107.06 7.60187L106.238 7.69159ZM109.124 12.8206L108.137 12.7458L108.302 11.8486L109.303 11.9234L109.124 12.8206ZM101.483 7.16822V6.00187H103.247L102.978 7.16822H101.483ZM102.41 7.16822L102.036 6.00187H104.518V7.16822H102.41ZM108.66 7.16822V6.00187H111.143L110.769 7.16822H108.66ZM110.201 7.16822L109.932 6.00187H111.696V7.16822H110.201ZM120.445 11.6991C119.757 12.5963 118.456 13.2093 117.051 13.2093C115.047 13.2093 113.372 11.5495 113.372 9.50093C113.372 7.48224 115.032 5.79252 117.051 5.79252C119.069 5.79252 120.759 7.43738 120.759 9.45607C120.759 9.63551 120.714 9.84486 120.654 10.0093H114.045V8.94766H119.877L119.518 9.47103C119.518 8.05047 118.382 6.95888 117.051 6.95888C115.66 6.95888 114.598 8.09533 114.598 9.50093C114.598 10.8916 115.69 12.043 117.155 12.043C118.172 12.043 119.084 11.5944 119.563 10.9514L120.445 11.6991ZM126.906 13.2093C124.962 13.2093 123.333 11.5346 123.333 9.50093C123.333 7.46729 124.962 5.79252 126.906 5.79252C128.865 5.79252 130.331 7.58692 130.331 9.50093C130.331 11.415 128.865 13.2093 126.906 13.2093ZM127.026 12.043C128.372 12.043 129.493 10.8916 129.493 9.50093C129.493 8.12523 128.372 6.95888 127.026 6.95888C125.68 6.95888 124.559 8.14019 124.559 9.50093C124.559 10.8766 125.68 12.043 127.026 12.043ZM129.389 13V10.5178L129.718 9.50093L129.389 8.40935V6.00187H130.6V13H129.389ZM129.389 13L129.777 11.8486H131.961V13H129.389ZM138.616 13.2093C136.657 13.2093 135.192 11.415 135.192 9.50093C135.192 7.58692 136.657 5.79252 138.616 5.79252C140.56 5.79252 142.19 7.46729 142.19 9.50093C142.19 11.5346 140.56 13.2093 138.616 13.2093ZM138.497 12.043C139.842 12.043 140.964 10.8766 140.964 9.50093C140.964 8.14019 139.842 6.95888 138.497 6.95888C137.151 6.95888 136.029 8.12523 136.029 9.50093C136.029 10.8916 137.151 12.043 138.497 12.043ZM134.923 17.1271V6.00187H136.134V8.40935L135.805 9.51589L136.134 10.8168V17.1271H134.923ZM133.562 7.16822V6.00187H136.134L135.745 7.16822H133.562ZM133.562 17.1271V15.9757H135.745L136.134 17.1271H133.562ZM134.908 17.1271L135.401 15.9757H138.213V17.1271H134.908ZM148.472 13.2093C146.364 13.2093 144.808 11.5047 144.808 9.50093C144.808 7.4972 146.438 5.79252 148.472 5.79252C150.491 5.79252 152.121 7.4972 152.121 9.50093C152.121 11.5047 150.565 13.2093 148.472 13.2093ZM148.472 12.043C149.833 12.043 150.894 10.9065 150.894 9.50093C150.894 8.09533 149.833 6.95888 148.472 6.95888C147.096 6.95888 146.035 8.09533 146.035 9.50093C146.035 10.9065 147.096 12.043 148.472 12.043ZM156.115 13V6.00187H157.281V7.87103L157.326 8.66355V13H156.115ZM156.668 9.15701C156.668 7.60187 157.61 5.79252 159.434 5.79252C161.064 5.79252 162.275 7.03364 162.275 9.14206V13H161.079V9.15701C161.079 7.73645 160.272 6.95888 159.195 6.95888C158.178 6.95888 157.326 7.7215 157.326 9.15701H156.668ZM154.754 7.16822V6.00187H157.281L156.907 7.16822H154.754ZM154.754 13V11.8486H156.937L157.326 13H154.754ZM156.115 13L156.488 11.8486H158.582V13H156.115ZM159.823 13V11.8486H161.916L162.275 13H159.823ZM161.079 13L161.468 11.8486H163.651V13H161.079ZM169.424 13.2093C168.766 13.2093 168.228 12.7009 168.228 12.043C168.228 11.385 168.766 10.8617 169.424 10.8617C170.052 10.8617 170.576 11.385 170.576 12.043C170.576 12.7009 170.052 13.2093 169.424 13.2093Z" fill="#363131"/>
</svg>
