<svg width="275" height="190" viewBox="0 0 275 190" fill="none" xmlns="http://www.w3.org/2000/svg">
<rect width="275" height="190" rx="5" fill="#F7F4ED"/>
<path d="M24.818 42V30.696H29.048C29.876 30.696 30.563 30.834 31.109 31.11C31.655 31.38 32.063 31.74 32.333 32.19C32.603 32.634 32.738 33.12 32.738 33.648C32.738 34.296 32.558 34.86 32.198 35.34C31.844 35.814 31.31 36.138 30.596 36.312C31.058 36.384 31.463 36.549 31.811 36.807C32.165 37.059 32.441 37.371 32.639 37.743C32.837 38.109 32.936 38.502 32.936 38.922C32.936 39.306 32.87 39.681 32.738 40.047C32.612 40.413 32.399 40.743 32.099 41.037C31.799 41.331 31.4 41.565 30.902 41.739C30.404 41.913 29.786 42 29.048 42H24.818ZM26.222 40.776H29.03C29.888 40.776 30.503 40.596 30.875 40.236C31.253 39.876 31.442 39.414 31.442 38.85C31.442 38.28 31.238 37.824 30.83 37.482C30.422 37.134 29.822 36.96 29.03 36.96H26.222V40.776ZM26.222 31.902V35.754H28.994C29.696 35.754 30.254 35.583 30.668 35.241C31.088 34.893 31.298 34.404 31.298 33.774C31.298 33.186 31.094 32.727 30.686 32.397C30.284 32.067 29.726 31.902 29.012 31.902H26.222ZM37.5817 30.696H39.2737L42.5137 36.186H42.1537L45.4477 30.696H47.1217L43.0357 37.356V42H41.6137V37.356L37.5817 30.696ZM59.8681 30.696H61.2721V35.682H66.8701V30.696H68.2561V42H66.8701V36.888H61.2721V42H59.8681V30.696ZM73.7991 42L77.6871 30.696H79.3971L83.1951 42H81.7191L80.7651 39.102H76.2651L75.2751 42H73.7991ZM76.6251 38.004H80.4051L78.5151 32.406L76.6251 38.004ZM88.725 42V30.696H92.667C93.957 30.696 94.932 31.005 95.592 31.623C96.258 32.235 96.591 33.042 96.591 34.044C96.591 35.034 96.258 35.838 95.592 36.456C94.932 37.068 93.957 37.374 92.667 37.374H90.129V42H88.725ZM95.061 42L91.821 36.87H93.351L96.879 42H95.061ZM90.129 36.384H92.559C93.405 36.384 94.047 36.177 94.485 35.763C94.929 35.343 95.151 34.8 95.151 34.134C95.151 33.45 94.938 32.907 94.512 32.505C94.092 32.103 93.477 31.902 92.667 31.902H90.129V36.384ZM101.277 31.902V30.696H110.079V31.902H106.056L106.371 31.578V42H104.967V31.578L105.282 31.902H101.277ZM122.756 42V30.696H124.16V42H122.756ZM134.659 42.216C133.903 42.216 133.21 42.081 132.58 41.811C131.95 41.535 131.443 41.13 131.059 40.596C130.675 40.062 130.477 39.402 130.465 38.616H131.833C131.833 39.144 131.962 39.579 132.22 39.921C132.478 40.257 132.82 40.509 133.246 40.677C133.672 40.839 134.137 40.92 134.641 40.92C135.187 40.92 135.661 40.833 136.063 40.659C136.465 40.485 136.774 40.257 136.99 39.975C137.212 39.687 137.323 39.372 137.323 39.03C137.323 38.55 137.176 38.163 136.882 37.869C136.588 37.569 136.153 37.326 135.577 37.14L133.579 36.438C132.643 36.102 131.935 35.718 131.455 35.286C130.975 34.854 130.735 34.248 130.735 33.468C130.735 32.592 131.071 31.878 131.743 31.326C132.421 30.774 133.381 30.498 134.623 30.498C135.775 30.498 136.675 30.765 137.323 31.299C137.971 31.827 138.343 32.538 138.439 33.432H137.053C136.963 32.91 136.717 32.505 136.315 32.217C135.919 31.923 135.355 31.776 134.623 31.776C133.879 31.776 133.3 31.941 132.886 32.271C132.472 32.601 132.265 33.018 132.265 33.522C132.265 33.936 132.394 34.266 132.652 34.512C132.916 34.752 133.327 34.968 133.885 35.16L136.225 35.97C137.035 36.24 137.674 36.618 138.142 37.104C138.616 37.59 138.853 38.22 138.853 38.994C138.853 39.594 138.691 40.137 138.367 40.623C138.049 41.109 137.578 41.496 136.954 41.784C136.33 42.072 135.565 42.216 134.659 42.216Z" fill="#363131"/>
<rect width="161" height="20" transform="translate(20 56)" fill="#D7C6FF"/>
<path d="M32.8467 69.2093C30.8879 69.2093 29.4224 67.415 29.4224 65.5009C29.4224 63.5869 30.8879 61.7925 32.8467 61.7925C34.7907 61.7925 36.4206 63.4673 36.4206 65.5009C36.4206 67.5346 34.7907 69.2093 32.8467 69.2093ZM32.7271 68.043C34.0729 68.043 35.1944 66.8766 35.1944 65.5009C35.1944 64.1402 34.0729 62.9589 32.7271 62.9589C31.3813 62.9589 30.2598 64.1252 30.2598 65.5009C30.2598 66.8916 31.3813 68.043 32.7271 68.043ZM29.1533 73.1271V62.0019H30.3645V64.4093L30.0355 65.5159L30.3645 66.8168V73.1271H29.1533ZM27.7925 63.1682V62.0019H30.3645L29.9757 63.1682H27.7925ZM27.7925 73.1271V71.9757H29.9757L30.3645 73.1271H27.7925ZM29.1383 73.1271L29.6318 71.9757H32.443V73.1271H29.1383ZM39.622 69V67.8486H43.0314L43.6295 69H39.622ZM42.4183 69L43.0314 67.8486H46.4407V69H42.4183ZM39.622 63.1682V62.0019H43.6295L43.0314 63.1682H39.622ZM42.4183 69V62.0019H43.6295V69H42.4183ZM43.0613 60.3421C42.4183 60.3421 41.88 59.8336 41.88 59.1757C41.88 58.5178 42.4183 57.9944 43.0613 57.9944C43.6893 57.9944 44.2276 58.5178 44.2276 59.1757C44.2276 59.8336 43.6893 60.3421 43.0613 60.3421ZM52.5132 69L49.2235 62.0019H50.5693L53.3506 67.9981H52.9768L55.7581 62.0019H57.1039L53.8141 69H52.5132ZM53.8889 63.1682V62.0019H57.1039L56.6254 63.1682H53.8889ZM56.0571 63.1682L55.7581 62.0019H57.7468V63.1682H56.0571ZM48.5805 63.1682V62.0019H50.5693L50.2702 63.1682H48.5805ZM49.702 63.1682L49.2235 62.0019H52.4384V63.1682H49.702ZM63.6399 69.2093C61.5315 69.2093 59.9763 67.5047 59.9763 65.5009C59.9763 63.4972 61.6063 61.7925 63.6399 61.7925C65.6586 61.7925 67.2885 63.4972 67.2885 65.5009C67.2885 67.5047 65.7334 69.2093 63.6399 69.2093ZM63.6399 68.043C65.0006 68.043 66.0623 66.9065 66.0623 65.5009C66.0623 64.0953 65.0006 62.9589 63.6399 62.9589C62.2642 62.9589 61.2025 64.0953 61.2025 65.5009C61.2025 66.9065 62.2642 68.043 63.6399 68.043ZM74.9161 69.2093C73.4058 69.2093 72.3292 68.0879 72.3292 66.6075V59.5495H73.5404V66.5776C73.5404 67.4449 74.1086 68.043 74.9161 68.043C75.6937 68.043 76.2918 67.4449 76.2918 66.5776V65.4112H77.4881V66.5776C77.4881 68.0879 76.3965 69.2093 74.9161 69.2093ZM70.161 63.1682V62.0019H73.5404L73.032 63.1682H70.161ZM72.9124 63.1682L72.3292 62.0019H76.1572V63.1682H72.9124ZM83.9494 69.2093C82.0054 69.2093 80.3755 67.5346 80.3755 65.5009C80.3755 63.4673 82.0054 61.7925 83.9494 61.7925C85.9082 61.7925 87.3737 63.5869 87.3737 65.5009C87.3737 67.415 85.9082 69.2093 83.9494 69.2093ZM84.069 68.043C85.4148 68.043 86.5363 66.8916 86.5363 65.5009C86.5363 64.1252 85.4148 62.9589 84.069 62.9589C82.7232 62.9589 81.6017 64.1402 81.6017 65.5009C81.6017 66.8766 82.7232 68.043 84.069 68.043ZM86.4316 69V66.5178L86.7606 65.5009L86.4316 64.4093V62.0019H87.6428V69H86.4316ZM86.4316 69L86.8204 67.8486H89.0036V69H86.4316ZM94.7471 69V58.0542H95.9583V69H94.7471ZM91.9359 69V67.8486H95.3452L95.9583 69H91.9359ZM94.7471 69L95.3452 67.8486H98.7546V69H94.7471ZM91.9508 59.2206V58.0542H95.9583L95.3452 59.2206H91.9508ZM116.791 69.2093C115.281 69.2093 114.204 68.0879 114.204 66.6075V59.5495H115.415V66.5776C115.415 67.4449 115.984 68.043 116.791 68.043C117.569 68.043 118.167 67.4449 118.167 66.5776V65.4112H119.363V66.5776C119.363 68.0879 118.271 69.2093 116.791 69.2093ZM112.036 63.1682V62.0019H115.415L114.907 63.1682H112.036ZM114.787 63.1682L114.204 62.0019H118.032V63.1682H114.787ZM126.452 69.2093C124.344 69.2093 122.789 67.5047 122.789 65.5009C122.789 63.4972 124.419 61.7925 126.452 61.7925C128.471 61.7925 130.101 63.4972 130.101 65.5009C130.101 67.5047 128.546 69.2093 126.452 69.2093ZM126.452 68.043C127.813 68.043 128.875 66.9065 128.875 65.5009C128.875 64.0953 127.813 62.9589 126.452 62.9589C125.077 62.9589 124.015 64.0953 124.015 65.5009C124.015 66.9065 125.077 68.043 126.452 68.043ZM147.39 69.2093C145.281 69.2093 143.726 67.5047 143.726 65.5009C143.726 63.4972 145.356 61.7925 147.39 61.7925C149.409 61.7925 151.038 63.4972 151.038 65.5009C151.038 67.5047 149.483 69.2093 147.39 69.2093ZM147.39 68.043C148.751 68.043 149.812 66.9065 149.812 65.5009C149.812 64.0953 148.751 62.9589 147.39 62.9589C146.014 62.9589 144.953 64.0953 144.953 65.5009C144.953 66.9065 146.014 68.043 147.39 68.043ZM159.593 69V67.1607V66.5776V62.0019H160.804V69H159.593ZM154.644 65.8299V62.0019H155.84V65.8299C155.84 67.2953 156.692 68.043 157.724 68.043C158.741 68.043 159.593 67.2654 159.593 65.8299H160.251C160.251 67.3701 159.309 69.1794 157.485 69.1794C155.885 69.1794 154.644 67.9533 154.644 65.8299ZM158.218 63.1682V62.0019H160.804L160.401 63.1682H158.218ZM153.268 63.1682V62.0019H155.84L155.451 63.1682H153.268ZM159.593 69L159.982 67.8486H162.165V69H159.593ZM167.64 65.2617C167.64 63.3178 168.731 61.7925 170.406 61.7925C171.034 61.7925 171.692 61.972 172.2 62.4953V63.7215C171.677 63.1682 171.004 62.9589 170.406 62.9589C169.254 62.9589 168.297 64.0056 168.297 65.2617H167.64ZM167.086 69V62.0019H168.253V63.4673L168.297 64.2598V69H167.086ZM165.172 63.1682V62.0019H168.253L167.789 63.1682H165.172ZM165.172 69V67.8486H167.819L168.297 69H165.172ZM167.086 69L167.625 67.8486H170.63V69H167.086Z" fill="#363131"/>
<rect width="88" height="20" transform="translate(20 81)" fill="#D7C6FF"/>
<path d="M30.7084 98.1271C29.3477 98.1271 28.2112 97.1701 28.2112 96.0187C28.2112 94.9121 29.1981 94 30.3944 94L30.4991 93.7607H34.3121C35.5383 93.7607 36.5701 94.7477 36.5701 95.914C36.5701 97.1252 35.4486 98.1271 34.1327 98.1271H30.7084ZM32.0692 92.3103C30.185 92.3103 28.8393 91.2037 28.8393 89.6486C28.8393 88.1084 30.185 87.0019 32.0692 87.0019C33.8336 87.0019 35.2692 88.243 35.2692 89.7533C35.2692 91.2486 33.9234 92.3103 32.0692 92.3103ZM32.0692 91.2636C33.2505 91.2636 34.1028 90.5907 34.1028 89.6486C34.1028 88.7215 33.2505 88.0486 32.0692 88.0486C30.8729 88.0486 30.0056 88.7215 30.0056 89.6486C30.0056 90.5907 30.8729 91.2636 32.0692 91.2636ZM30.6037 94.5383C29.572 94.5383 28.585 94.0299 28.585 92.8935C28.585 91.9664 29.243 91.3383 30.1551 91.0841L30.529 91.7869C30.0505 91.8916 29.7065 92.3103 29.7065 92.8336C29.7065 93.372 30.1252 93.7607 30.7981 93.7607L30.6037 94.5383ZM34.028 97.0804C34.7907 97.0804 35.3738 96.5869 35.3738 95.9589C35.3738 95.3308 34.8206 94.8224 34.1327 94.8224H30.6037C29.9308 94.8224 29.3925 95.3308 29.3925 95.9589C29.3925 96.5869 29.9757 97.0804 30.7234 97.0804H34.028ZM32.772 88.0486L32.0692 87.0019H36.8243V88.0486H32.772ZM42.0145 90.2617C42.0145 88.3178 43.1061 86.7925 44.7809 86.7925C45.4089 86.7925 46.0669 86.972 46.5753 87.4953V88.7215C46.0519 88.1682 45.379 87.9589 44.7809 87.9589C43.6295 87.9589 42.6725 89.0056 42.6725 90.2617H42.0145ZM41.4613 94V87.0019H42.6276V88.4673L42.6725 89.2598V94H41.4613ZM39.5473 88.1682V87.0019H42.6276L42.1641 88.1682H39.5473ZM39.5473 94V92.8486H42.194L42.6725 94H39.5473ZM41.4613 94L41.9996 92.8486H45.0052V94H41.4613ZM53.1711 94.2093C51.0627 94.2093 49.5076 92.5047 49.5076 90.5009C49.5076 88.4972 51.1375 86.7925 53.1711 86.7925C55.1898 86.7925 56.8197 88.4972 56.8197 90.5009C56.8197 92.5047 55.2646 94.2093 53.1711 94.2093ZM53.1711 93.043C54.5319 93.043 55.5936 91.9065 55.5936 90.5009C55.5936 89.0953 54.5319 87.9589 53.1711 87.9589C51.7954 87.9589 50.7338 89.0953 50.7338 90.5009C50.7338 91.9065 51.7954 93.043 53.1711 93.043ZM60.6044 94L59.0791 87.0019H60.2904L61.7259 94H60.6044ZM61.2623 94L62.8175 87.5402H63.8492L62.3838 94H61.2623ZM64.896 94L63.4305 87.5402H64.4474L66.0025 94H64.896ZM65.539 94L66.9745 87.0019H68.1857L66.6605 94H65.539ZM60.9184 93.8206V92.8486H62.0997V93.8206H60.9184ZM63.281 88.6916L63.1614 87.6449L63.9838 87.5402L64.1034 88.6019L63.281 88.6916ZM66.167 93.8206L65.1801 93.7458L65.3446 92.8486L66.3464 92.9234L66.167 93.8206ZM58.5259 88.1682V87.0019H60.2904L60.0212 88.1682H58.5259ZM59.453 88.1682L59.0791 87.0019H61.5614V88.1682H59.453ZM65.7034 88.1682V87.0019H68.1857L67.8119 88.1682H65.7034ZM67.2436 88.1682L66.9745 87.0019H68.739V88.1682H67.2436ZM74.9161 94.2093C73.4058 94.2093 72.3292 93.0879 72.3292 91.6075V84.5495H73.5404V91.5776C73.5404 92.4449 74.1086 93.043 74.9161 93.043C75.6937 93.043 76.2918 92.4449 76.2918 91.5776V90.4112H77.4881V91.5776C77.4881 93.0879 76.3965 94.2093 74.9161 94.2093ZM70.161 88.1682V87.0019H73.5404L73.032 88.1682H70.161ZM72.9124 88.1682L72.3292 87.0019H76.1572V88.1682H72.9124ZM81.7512 94V83.0542H82.9624V94H81.7512ZM82.3045 90.157C82.3045 88.6019 83.2466 86.7925 85.0709 86.7925C86.6409 86.7925 87.912 88.0336 87.912 90.157V94H86.7157V90.157C86.7157 88.6916 85.8634 87.9589 84.8316 87.9589C83.8148 87.9589 82.9624 88.7215 82.9624 90.157H82.3045ZM80.3905 84.2206V83.0542H82.9624L82.5737 84.2206H80.3905ZM80.3905 94V92.8486H82.5737L82.9624 94H80.3905ZM81.7512 94L82.1251 92.8486H84.2185V94H81.7512ZM85.4596 94V92.8486H87.5531L87.912 94H85.4596ZM86.7157 94L87.1045 92.8486H89.2877V94H86.7157ZM95.0611 94.2093C94.4032 94.2093 93.8648 93.7009 93.8648 93.043C93.8648 92.385 94.4032 91.8617 95.0611 91.8617C95.6891 91.8617 96.2125 92.385 96.2125 93.043C96.2125 93.7009 95.6891 94.2093 95.0611 94.2093Z" fill="#363131"/>
<path d="M20.308 144L23.402 134.914H25.474L28.442 144H26.706L26.076 142.04H22.702L22.058 144H20.308ZM23.122 140.794H25.684L24.41 136.888L23.122 140.794ZM35.0077 144V140.024C35.0077 139.52 34.8863 139.14 34.6437 138.883C34.401 138.626 34.0837 138.498 33.6917 138.498C33.3603 138.498 33.0663 138.589 32.8097 138.771C32.5577 138.953 32.3593 139.228 32.2147 139.597C32.07 139.961 31.9977 140.416 31.9977 140.962H31.4517C31.4517 140.08 31.5613 139.347 31.7807 138.764C32 138.176 32.3103 137.737 32.7117 137.448C33.113 137.159 33.5843 137.014 34.1257 137.014C34.6857 137.014 35.1523 137.14 35.5257 137.392C35.9037 137.639 36.186 137.989 36.3727 138.442C36.564 138.895 36.6597 139.422 36.6597 140.024V144H35.0077ZM30.3457 144V137.21H31.7877L31.9977 138.554V144H30.3457ZM41.8543 144.196C41.285 144.196 40.7647 144.047 40.2933 143.748C39.8267 143.445 39.4533 143.022 39.1733 142.481C38.898 141.935 38.7603 141.298 38.7603 140.57C38.7603 139.851 38.8933 139.226 39.1593 138.694C39.43 138.157 39.7893 137.744 40.2373 137.455C40.69 137.161 41.1917 137.014 41.7423 137.014C42.2463 137.014 42.6827 137.135 43.0513 137.378C43.42 137.616 43.7023 137.971 43.8983 138.442C44.0943 138.913 44.1923 139.492 44.1923 140.178H43.6743C43.6743 139.823 43.602 139.522 43.4573 139.275C43.3127 139.023 43.1213 138.832 42.8833 138.701C42.65 138.566 42.3957 138.498 42.1203 138.498C41.789 138.498 41.495 138.584 41.2383 138.757C40.9863 138.93 40.788 139.172 40.6433 139.485C40.4987 139.793 40.4263 140.155 40.4263 140.57C40.4263 140.999 40.4987 141.373 40.6433 141.69C40.788 142.007 40.9863 142.255 41.2383 142.432C41.495 142.609 41.7843 142.698 42.1063 142.698C42.3677 142.698 42.6173 142.628 42.8553 142.488C43.098 142.343 43.294 142.143 43.4433 141.886C43.5973 141.629 43.6743 141.331 43.6743 140.99H44.1923C44.1923 141.704 44.085 142.299 43.8703 142.775C43.6603 143.246 43.378 143.601 43.0233 143.839C42.6687 144.077 42.279 144.196 41.8543 144.196ZM43.9823 144L43.6743 142.32V134.396H45.3403V144H43.9823ZM48.2279 144V137.182H49.8799V144H48.2279ZM49.4739 141.018C49.4739 140.127 49.5743 139.389 49.7749 138.806C49.9756 138.223 50.2439 137.791 50.5799 137.511C50.9206 137.226 51.2986 137.084 51.7139 137.084C51.8259 137.084 51.9309 137.091 52.0289 137.105C52.1316 137.119 52.2319 137.14 52.3299 137.168L52.3019 138.82C52.1806 138.792 52.0499 138.769 51.9099 138.75C51.7699 138.731 51.6439 138.722 51.5319 138.722C51.1679 138.722 50.8623 138.811 50.6149 138.988C50.3723 139.161 50.1879 139.417 50.0619 139.758C49.9406 140.099 49.8799 140.519 49.8799 141.018H49.4739ZM56.538 144.196C55.9594 144.196 55.4297 144.047 54.949 143.748C54.4684 143.449 54.0834 143.032 53.794 142.495C53.5047 141.954 53.36 141.321 53.36 140.598C53.36 139.851 53.5024 139.21 53.787 138.673C54.0764 138.136 54.4614 137.726 54.942 137.441C55.4227 137.156 55.9547 137.014 56.538 137.014C57.0794 137.014 57.546 137.124 57.938 137.343C58.3347 137.558 58.652 137.852 58.89 138.225C59.1327 138.594 59.296 139.011 59.38 139.478C59.464 139.945 59.4687 140.425 59.394 140.92H54.676V140.024H58.225L57.903 140.234C57.917 140.015 57.9054 139.793 57.868 139.569C57.8354 139.345 57.77 139.14 57.672 138.953C57.574 138.766 57.434 138.617 57.252 138.505C57.0747 138.388 56.846 138.33 56.566 138.33C56.23 138.33 55.9454 138.414 55.712 138.582C55.4787 138.75 55.3014 138.979 55.18 139.268C55.0587 139.557 54.998 139.884 54.998 140.248V140.906C54.998 141.289 55.054 141.627 55.166 141.921C55.2827 142.215 55.453 142.446 55.677 142.614C55.9057 142.782 56.1927 142.866 56.538 142.866C56.86 142.866 57.1307 142.791 57.35 142.642C57.5694 142.493 57.7094 142.269 57.77 141.97H59.436C59.366 142.409 59.2004 142.796 58.939 143.132C58.6824 143.463 58.3487 143.725 57.938 143.916C57.5274 144.103 57.0607 144.196 56.538 144.196ZM60.5739 137.21H62.2959L63.7659 142.362H63.5979L64.9839 137.574H66.4819L67.8679 142.376H67.6999L69.1699 137.21H70.8219L68.5819 144H66.9579L65.5719 139.492H65.8239L64.4659 144H62.8279L60.5739 137.21ZM76.3762 144V134.914H79.5822C80.6042 134.914 81.3999 135.166 81.9692 135.67C82.5432 136.174 82.8302 136.888 82.8302 137.812C82.8302 138.727 82.5432 139.436 81.9692 139.94C81.3999 140.444 80.6042 140.696 79.5822 140.696H78.0422V144H76.3762ZM78.0422 139.254H79.5822C80.0956 139.254 80.4829 139.119 80.7442 138.848C81.0056 138.577 81.1362 138.232 81.1362 137.812C81.1362 137.383 81.0056 137.03 80.7442 136.755C80.4829 136.48 80.0956 136.342 79.5822 136.342H78.0422V139.254ZM84.8193 144V137.182H86.4713V144H84.8193ZM86.0653 141.018C86.0653 140.127 86.1657 139.389 86.3663 138.806C86.567 138.223 86.8353 137.791 87.1713 137.511C87.512 137.226 87.89 137.084 88.3053 137.084C88.4173 137.084 88.5223 137.091 88.6203 137.105C88.723 137.119 88.8233 137.14 88.9213 137.168L88.8933 138.82C88.772 138.792 88.6413 138.769 88.5013 138.75C88.3613 138.731 88.2353 138.722 88.1233 138.722C87.7593 138.722 87.4537 138.811 87.2063 138.988C86.9637 139.161 86.7793 139.417 86.6533 139.758C86.532 140.099 86.4713 140.519 86.4713 141.018H86.0653ZM93.2694 144.196C92.6488 144.196 92.0864 144.063 91.5824 143.797C91.0831 143.531 90.6864 143.134 90.3924 142.607C90.0984 142.075 89.9514 141.41 89.9514 140.612C89.9514 139.8 90.0984 139.128 90.3924 138.596C90.6864 138.064 91.0831 137.667 91.5824 137.406C92.0864 137.145 92.6488 137.014 93.2694 137.014C93.8808 137.014 94.4338 137.145 94.9284 137.406C95.4278 137.667 95.8244 138.064 96.1184 138.596C96.4124 139.128 96.5594 139.8 96.5594 140.612C96.5594 141.41 96.4124 142.075 96.1184 142.607C95.8244 143.134 95.4278 143.531 94.9284 143.797C94.4338 144.063 93.8808 144.196 93.2694 144.196ZM93.2134 142.754C93.5401 142.754 93.8294 142.675 94.0814 142.516C94.3381 142.353 94.5388 142.112 94.6834 141.795C94.8328 141.478 94.9074 141.083 94.9074 140.612C94.9074 139.893 94.7651 139.352 94.4804 138.988C94.2004 138.624 93.8154 138.442 93.3254 138.442C92.9941 138.442 92.7001 138.524 92.4434 138.687C92.1868 138.846 91.9838 139.086 91.8344 139.408C91.6898 139.73 91.6174 140.131 91.6174 140.612C91.6174 141.321 91.7598 141.856 92.0444 142.215C92.3338 142.574 92.7234 142.754 93.2134 142.754ZM97.6711 137.21H99.5751L101.199 142.586H101.073L102.697 137.21H104.601L102.067 144H100.205L97.6711 137.21ZM109.019 144.196C108.398 144.196 107.836 144.063 107.332 143.797C106.833 143.531 106.436 143.134 106.142 142.607C105.848 142.075 105.701 141.41 105.701 140.612C105.701 139.8 105.848 139.128 106.142 138.596C106.436 138.064 106.833 137.667 107.332 137.406C107.836 137.145 108.398 137.014 109.019 137.014C109.63 137.014 110.183 137.145 110.678 137.406C111.177 137.667 111.574 138.064 111.868 138.596C112.162 139.128 112.309 139.8 112.309 140.612C112.309 141.41 112.162 142.075 111.868 142.607C111.574 143.134 111.177 143.531 110.678 143.797C110.183 144.063 109.63 144.196 109.019 144.196ZM108.963 142.754C109.29 142.754 109.579 142.675 109.831 142.516C110.088 142.353 110.288 142.112 110.433 141.795C110.582 141.478 110.657 141.083 110.657 140.612C110.657 139.893 110.515 139.352 110.23 138.988C109.95 138.624 109.565 138.442 109.075 138.442C108.744 138.442 108.45 138.524 108.193 138.687C107.936 138.846 107.733 139.086 107.584 139.408C107.439 139.73 107.367 140.131 107.367 140.612C107.367 141.321 107.509 141.856 107.794 142.215C108.083 142.574 108.473 142.754 108.963 142.754ZM117.089 144.196C116.435 144.196 115.873 144.107 115.402 143.93C114.935 143.748 114.576 143.489 114.324 143.153C114.072 142.812 113.943 142.404 113.939 141.928H115.465C115.479 142.264 115.612 142.509 115.864 142.663C116.116 142.817 116.459 142.894 116.893 142.894C117.131 142.894 117.341 142.859 117.523 142.789C117.709 142.719 117.854 142.623 117.957 142.502C118.059 142.381 118.111 142.245 118.111 142.096C118.111 141.905 118.041 141.755 117.901 141.648C117.765 141.536 117.546 141.433 117.243 141.34L115.759 140.808C115.227 140.617 114.818 140.365 114.534 140.052C114.249 139.739 114.107 139.366 114.107 138.932C114.107 138.358 114.366 137.896 114.884 137.546C115.406 137.191 116.104 137.014 116.977 137.014C117.845 137.014 118.514 137.205 118.986 137.588C119.462 137.966 119.707 138.447 119.721 139.03H118.167C118.143 138.806 118.036 138.629 117.845 138.498C117.653 138.367 117.364 138.302 116.977 138.302C116.627 138.302 116.351 138.374 116.151 138.519C115.955 138.659 115.857 138.825 115.857 139.016C115.857 139.338 116.132 139.581 116.683 139.744L118.293 140.346C118.815 140.523 119.221 140.752 119.511 141.032C119.8 141.312 119.945 141.667 119.945 142.096C119.945 142.455 119.823 142.796 119.581 143.118C119.343 143.435 119.009 143.694 118.58 143.895C118.15 144.096 117.653 144.196 117.089 144.196ZM124.513 144.196C124.112 144.196 123.743 144.121 123.407 143.972C123.076 143.823 122.81 143.594 122.609 143.286C122.413 142.978 122.315 142.586 122.315 142.11V135.404H123.967V142.054C123.967 142.614 124.233 142.894 124.765 142.894C124.929 142.894 125.092 142.875 125.255 142.838C125.419 142.801 125.605 142.745 125.815 142.67L126.053 143.832C125.792 143.935 125.538 144.021 125.29 144.091C125.043 144.161 124.784 144.196 124.513 144.196ZM121.363 138.302V137.21H125.815V138.302H121.363Z" fill="#363131"/>
<path d="M24.396 162.154C23.6353 162.154 22.982 161.958 22.436 161.566C21.89 161.169 21.47 160.63 21.176 159.949C20.8867 159.263 20.742 158.481 20.742 157.604C20.742 156.652 20.903 155.852 21.225 155.203C21.5517 154.55 21.9903 154.055 22.541 153.719C23.0963 153.383 23.7147 153.215 24.396 153.215C25.278 153.215 25.9967 153.439 26.552 153.887C27.112 154.335 27.511 154.916 27.749 155.63L26.867 155.826C26.671 155.243 26.3513 154.783 25.908 154.447C25.4693 154.106 24.9653 153.936 24.396 153.936C23.906 153.936 23.4487 154.076 23.024 154.356C22.604 154.631 22.2633 155.042 22.002 155.588C21.7453 156.134 21.617 156.806 21.617 157.604C21.617 158.318 21.715 158.964 21.911 159.543C22.1117 160.117 22.4173 160.574 22.828 160.915C23.2387 161.251 23.7613 161.419 24.396 161.419C25.1427 161.419 25.74 161.218 26.188 160.817C26.6407 160.416 26.867 159.881 26.867 159.214H27.77C27.77 159.821 27.6253 160.343 27.336 160.782C27.0467 161.221 26.6477 161.559 26.139 161.797C25.6303 162.035 25.0493 162.154 24.396 162.154ZM30.1715 162V153.355H35.3795V154.048H30.9835V157.282H35.1275V157.975H30.9835V161.293H35.3795V162H30.1715ZM41.0888 162.154C40.3981 162.154 39.7775 161.991 39.2268 161.664C38.6761 161.337 38.2398 160.845 37.9178 160.187C37.5958 159.524 37.4348 158.696 37.4348 157.702C37.4348 156.694 37.5958 155.859 37.9178 155.196C38.2398 154.529 38.6761 154.032 39.2268 153.705C39.7775 153.378 40.3981 153.215 41.0888 153.215C41.7748 153.215 42.3931 153.381 42.9438 153.712C43.4945 154.039 43.9308 154.536 44.2528 155.203C44.5748 155.866 44.7358 156.699 44.7358 157.702C44.7358 158.705 44.5748 159.536 44.2528 160.194C43.9308 160.852 43.4945 161.344 42.9438 161.671C42.3931 161.993 41.7748 162.154 41.0888 162.154ZM41.0888 161.391C41.9568 161.391 42.6405 161.081 43.1398 160.46C43.6391 159.835 43.8888 158.911 43.8888 157.688C43.8888 156.484 43.6391 155.56 43.1398 154.916C42.6405 154.267 41.9568 153.943 41.0888 153.943C40.2255 153.943 39.5418 154.267 39.0378 154.916C38.5338 155.565 38.2818 156.493 38.2818 157.702C38.2818 158.92 38.5338 159.839 39.0378 160.46C39.5418 161.081 40.2255 161.391 41.0888 161.391Z" fill="#363131"/>
</svg>
