<svg width="162" height="45" viewBox="0 0 162 45" fill="none" xmlns="http://www.w3.org/2000/svg">
<rect width="161" height="20" transform="translate(0.433594)" fill="#D7C6FF"/>
<path d="M13.2803 13.2093C11.3214 13.2093 9.85602 11.415 9.85602 9.50093C9.85602 7.58692 11.3214 5.79252 13.2803 5.79252C15.2242 5.79252 16.8542 7.46729 16.8542 9.50093C16.8542 11.5346 15.2242 13.2093 13.2803 13.2093ZM13.1607 12.043C14.5065 12.043 15.628 10.8766 15.628 9.50093C15.628 8.14019 14.5065 6.95888 13.1607 6.95888C11.8149 6.95888 10.6934 8.12523 10.6934 9.50093C10.6934 10.8916 11.8149 12.043 13.1607 12.043ZM9.58686 17.1271V6.00187H10.7981V8.40935L10.4691 9.51589L10.7981 10.8168V17.1271H9.58686ZM8.22612 7.16822V6.00187H10.7981L10.4093 7.16822H8.22612ZM8.22612 17.1271V15.9757H10.4093L10.7981 17.1271H8.22612ZM9.57191 17.1271L10.0654 15.9757H12.8766V17.1271H9.57191ZM20.0556 13V11.8486H23.465L24.0631 13H20.0556ZM22.8519 13L23.465 11.8486H26.8743V13H22.8519ZM20.0556 7.16822V6.00187H24.0631L23.465 7.16822H20.0556ZM22.8519 13V6.00187H24.0631V13H22.8519ZM23.4949 4.34206C22.8519 4.34206 22.3136 3.83364 22.3136 3.1757C22.3136 2.51776 22.8519 1.99439 23.4949 1.99439C24.1229 1.99439 24.6612 2.51776 24.6612 3.1757C24.6612 3.83364 24.1229 4.34206 23.4949 4.34206ZM32.9468 13L29.6571 6.00187H31.0029L33.7842 11.9981H33.4103L36.1917 6.00187H37.5374L34.2477 13H32.9468ZM34.3225 7.16822V6.00187H37.5374L37.0589 7.16822H34.3225ZM36.4907 7.16822L36.1917 6.00187H38.1804V7.16822H36.4907ZM29.0141 7.16822V6.00187H31.0029L30.7038 7.16822H29.0141ZM30.1356 7.16822L29.6571 6.00187H32.872V7.16822H30.1356ZM44.0735 13.2093C41.9651 13.2093 40.4099 11.5047 40.4099 9.50093C40.4099 7.4972 42.0398 5.79252 44.0735 5.79252C46.0922 5.79252 47.7221 7.4972 47.7221 9.50093C47.7221 11.5047 46.1669 13.2093 44.0735 13.2093ZM44.0735 12.043C45.4342 12.043 46.4959 10.9065 46.4959 9.50093C46.4959 8.09533 45.4342 6.95888 44.0735 6.95888C42.6978 6.95888 41.6361 8.09533 41.6361 9.50093C41.6361 10.9065 42.6978 12.043 44.0735 12.043ZM55.3497 13.2093C53.8394 13.2093 52.7628 12.0879 52.7628 10.6075V3.54953H53.974V10.5776C53.974 11.4449 54.5422 12.043 55.3497 12.043C56.1273 12.043 56.7254 11.4449 56.7254 10.5776V9.41121H57.9217V10.5776C57.9217 12.0879 56.8301 13.2093 55.3497 13.2093ZM50.5946 7.16822V6.00187H53.974L53.4656 7.16822H50.5946ZM53.346 7.16822L52.7628 6.00187H56.5908V7.16822H53.346ZM64.383 13.2093C62.439 13.2093 60.8091 11.5346 60.8091 9.50093C60.8091 7.46729 62.439 5.79252 64.383 5.79252C66.3418 5.79252 67.8073 7.58692 67.8073 9.50093C67.8073 11.415 66.3418 13.2093 64.383 13.2093ZM64.5026 12.043C65.8484 12.043 66.9699 10.8916 66.9699 9.50093C66.9699 8.12523 65.8484 6.95888 64.5026 6.95888C63.1568 6.95888 62.0353 8.14019 62.0353 9.50093C62.0353 10.8766 63.1568 12.043 64.5026 12.043ZM66.8652 13V10.5178L67.1942 9.50093L66.8652 8.40935V6.00187H68.0764V13H66.8652ZM66.8652 13L67.254 11.8486H69.4372V13H66.8652ZM75.1807 13V2.0542H76.3919V13H75.1807ZM72.3695 13V11.8486H75.7788L76.3919 13H72.3695ZM75.1807 13L75.7788 11.8486H79.1882V13H75.1807ZM72.3844 3.22056V2.0542H76.3919L75.7788 3.22056H72.3844ZM97.2247 13.2093C95.7144 13.2093 94.6378 12.0879 94.6378 10.6075V3.54953H95.849V10.5776C95.849 11.4449 96.4172 12.043 97.2247 12.043C98.0023 12.043 98.6004 11.4449 98.6004 10.5776V9.41121H99.7967V10.5776C99.7967 12.0879 98.7051 13.2093 97.2247 13.2093ZM92.4696 7.16822V6.00187H95.849L95.3406 7.16822H92.4696ZM95.221 7.16822L94.6378 6.00187H98.4658V7.16822H95.221ZM106.886 13.2093C104.778 13.2093 103.222 11.5047 103.222 9.50093C103.222 7.4972 104.852 5.79252 106.886 5.79252C108.905 5.79252 110.535 7.4972 110.535 9.50093C110.535 11.5047 108.979 13.2093 106.886 13.2093ZM106.886 12.043C108.247 12.043 109.308 10.9065 109.308 9.50093C109.308 8.09533 108.247 6.95888 106.886 6.95888C105.51 6.95888 104.449 8.09533 104.449 9.50093C104.449 10.9065 105.51 12.043 106.886 12.043ZM127.823 13.2093C125.715 13.2093 124.16 11.5047 124.16 9.50093C124.16 7.4972 125.79 5.79252 127.823 5.79252C129.842 5.79252 131.472 7.4972 131.472 9.50093C131.472 11.5047 129.917 13.2093 127.823 13.2093ZM127.823 12.043C129.184 12.043 130.246 10.9065 130.246 9.50093C130.246 8.09533 129.184 6.95888 127.823 6.95888C126.448 6.95888 125.386 8.09533 125.386 9.50093C125.386 10.9065 126.448 12.043 127.823 12.043ZM140.027 13V11.1607V10.5776V6.00187H141.238V13H140.027ZM135.077 9.82991V6.00187H136.274V9.82991C136.274 11.2953 137.126 12.043 138.158 12.043C139.174 12.043 140.027 11.2654 140.027 9.82991H140.685C140.685 11.3701 139.743 13.1794 137.918 13.1794C136.318 13.1794 135.077 11.9533 135.077 9.82991ZM138.651 7.16822V6.00187H141.238L140.834 7.16822H138.651ZM133.702 7.16822V6.00187H136.274L135.885 7.16822H133.702ZM140.027 13L140.416 11.8486H142.599V13H140.027ZM148.073 9.26168C148.073 7.31776 149.165 5.79252 150.839 5.79252C151.468 5.79252 152.125 5.97196 152.634 6.49533V7.7215C152.111 7.16822 151.438 6.95888 150.839 6.95888C149.688 6.95888 148.731 8.00561 148.731 9.26168H148.073ZM147.52 13V6.00187H148.686V7.46729L148.731 8.25981V13H147.52ZM145.606 7.16822V6.00187H148.686L148.223 7.16822H145.606ZM145.606 13V11.8486H148.253L148.731 13H145.606ZM147.52 13L148.058 11.8486H151.064V13H147.52Z" fill="#363131"/>
<rect width="88" height="20" transform="translate(0.433594 25)" fill="#D7C6FF"/>
<path d="M11.142 42.1271C9.78126 42.1271 8.64481 41.1701 8.64481 40.0187C8.64481 38.9121 9.63172 38 10.828 38L10.9327 37.7607H14.7457C15.9719 37.7607 17.0037 38.7477 17.0037 39.914C17.0037 41.1252 15.8822 42.1271 14.5663 42.1271H11.142ZM12.5028 36.3103C10.6186 36.3103 9.27285 35.2037 9.27285 33.6486C9.27285 32.1084 10.6186 31.0019 12.5028 31.0019C14.2672 31.0019 15.7028 32.243 15.7028 33.7533C15.7028 35.2486 14.357 36.3103 12.5028 36.3103ZM12.5028 35.2636C13.6841 35.2636 14.5364 34.5907 14.5364 33.6486C14.5364 32.7215 13.6841 32.0486 12.5028 32.0486C11.3065 32.0486 10.4392 32.7215 10.4392 33.6486C10.4392 34.5907 11.3065 35.2636 12.5028 35.2636ZM11.0373 38.5383C10.0056 38.5383 9.01864 38.0299 9.01864 36.8935C9.01864 35.9664 9.67658 35.3383 10.5887 35.0841L10.9626 35.7869C10.4841 35.8916 10.1401 36.3103 10.1401 36.8336C10.1401 37.372 10.5588 37.7607 11.2317 37.7607L11.0373 38.5383ZM14.4616 41.0804C15.2242 41.0804 15.8074 40.5869 15.8074 39.9589C15.8074 39.3308 15.2542 38.8224 14.5663 38.8224H11.0373C10.3644 38.8224 9.82612 39.3308 9.82612 39.9589C9.82612 40.5869 10.4093 41.0804 11.157 41.0804H14.4616ZM13.2056 32.0486L12.5028 31.0019H17.2579V32.0486H13.2056ZM22.4481 34.2617C22.4481 32.3178 23.5397 30.7925 25.2145 30.7925C25.8425 30.7925 26.5005 30.972 27.0089 31.4953V32.7215C26.4855 32.1682 25.8126 31.9589 25.2145 31.9589C24.0631 31.9589 23.1061 33.0056 23.1061 34.2617H22.4481ZM21.8949 38V31.0019H23.0612V32.4673L23.1061 33.2598V38H21.8949ZM19.9808 32.1682V31.0019H23.0612L22.5977 32.1682H19.9808ZM19.9808 38V36.8486H22.6276L23.1061 38H19.9808ZM21.8949 38L22.4332 36.8486H25.4388V38H21.8949ZM33.6047 38.2093C31.4963 38.2093 29.9412 36.5047 29.9412 34.5009C29.9412 32.4972 31.5711 30.7925 33.6047 30.7925C35.6234 30.7925 37.2533 32.4972 37.2533 34.5009C37.2533 36.5047 35.6982 38.2093 33.6047 38.2093ZM33.6047 37.043C34.9655 37.043 36.0272 35.9065 36.0272 34.5009C36.0272 33.0953 34.9655 31.9589 33.6047 31.9589C32.229 31.9589 31.1674 33.0953 31.1674 34.5009C31.1674 35.9065 32.229 37.043 33.6047 37.043ZM41.038 38L39.5127 31.0019H40.724L42.1595 38H41.038ZM41.6959 38L43.2511 31.5402H44.2828L42.8174 38H41.6959ZM45.3296 38L43.8641 31.5402H44.881L46.4361 38H45.3296ZM45.9726 38L47.4081 31.0019H48.6193L47.094 38H45.9726ZM41.352 37.8206V36.8486H42.5333V37.8206H41.352ZM43.7146 32.6916L43.595 31.6449L44.4174 31.5402L44.537 32.6019L43.7146 32.6916ZM46.6006 37.8206L45.6137 37.7458L45.7782 36.8486L46.78 36.9234L46.6006 37.8206ZM38.9595 32.1682V31.0019H40.724L40.4548 32.1682H38.9595ZM39.8866 32.1682L39.5127 31.0019H41.995V32.1682H39.8866ZM46.137 32.1682V31.0019H48.6193L48.2455 32.1682H46.137ZM47.6772 32.1682L47.4081 31.0019H49.1726V32.1682H47.6772ZM55.3497 38.2093C53.8394 38.2093 52.7628 37.0879 52.7628 35.6075V28.5495H53.974V35.5776C53.974 36.4449 54.5422 37.043 55.3497 37.043C56.1273 37.043 56.7254 36.4449 56.7254 35.5776V34.4112H57.9217V35.5776C57.9217 37.0879 56.8301 38.2093 55.3497 38.2093ZM50.5946 32.1682V31.0019H53.974L53.4656 32.1682H50.5946ZM53.346 32.1682L52.7628 31.0019H56.5908V32.1682H53.346ZM62.1848 38V27.0542H63.396V38H62.1848ZM62.7381 34.157C62.7381 32.6019 63.6801 30.7925 65.5044 30.7925C67.0745 30.7925 68.3456 32.0336 68.3456 34.157V38H67.1493V34.157C67.1493 32.6916 66.297 31.9589 65.2652 31.9589C64.2484 31.9589 63.396 32.7215 63.396 34.157H62.7381ZM60.8241 28.2206V27.0542H63.396L63.0073 28.2206H60.8241ZM60.8241 38V36.8486H63.0073L63.396 38H60.8241ZM62.1848 38L62.5587 36.8486H64.6521V38H62.1848ZM65.8932 38V36.8486H67.9867L68.3456 38H65.8932ZM67.1493 38L67.5381 36.8486H69.7213V38H67.1493ZM75.4947 38.2093C74.8367 38.2093 74.2984 37.7009 74.2984 37.043C74.2984 36.385 74.8367 35.8617 75.4947 35.8617C76.1227 35.8617 76.6461 36.385 76.6461 37.043C76.6461 37.7009 76.1227 38.2093 75.4947 38.2093Z" fill="#363131"/>
</svg>
