<?xml version="1.0" encoding="UTF-8"?>
<svg id="Layer_1" xmlns="http://www.w3.org/2000/svg" version="1.1" viewBox="0 0 776.03998 341.25">
  <!-- Generator: Adobe Illustrator 29.2.1, SVG Export Plug-In . SVG Version: 2.1.0 Build 116)  -->
  <defs>
    <style>
      .st0 {
        fill: #363131;
      }
    </style>
  </defs>
  <path class="st0" d="M559.47998,14.8c-3.57001-6.24-11.40997-13.67-28.51001-13.67-40.69,0-100.41998,52.65-163.91998,144.48-9.10001,2.03-18.25,3.69-27.10001,5.3-29.61002,5.35001-53.19,9.91-73.98999,14.33,14.57001-23.78,25.81-42.66,34.88-57.9l.10999-.19c34.56-58.09,38.17001-64.16,80.64999-96.35l3.16-2.4L376.34998,0l-12.59,9.61c-40.73001,31.11-67.63998,51.67-88.11002,51.67-7.89999,0-13.5-6.6-25.33-22.81C234.46001,16.6,219.73,1.12,174.39,1.12c-53.00999,0-112.08,35.54-112.08,86.54,0,15.61,5.47,28.7,15.83,37.86,9.31,8.23,22.13,12.77,36.1,12.77,40.05,0,73.24999-30.13,84.15-58.47l1.22-3.19-10.72-4.29-1.28,3.22c-9.89999,24.94-37.24001,50.18-70.35,50.18-24.56,0-38.08-13.68-38.08-38.52,0-41.74,41.82-74.43,95.21-74.43,25.7,0,35.23,9.32,50.84999,30.58,11.50999,16.03,25.00999,30.87,45.64999,30.87,9.06,0,20.09-1.61,39.17999-12.71-30,33.21-53.98999,69.95-81.59,112.26-51.74001,13.5-80.69,27.36-99.89,47.81l-2.05,2.19,7.86,9.83,2.73-2.98c15.95-17.44,40.41-29.91,81.57001-41.55-54.59,84.40001-102.83,140.48-160.28,140.48-29.3,0-45.44-13.53-45.44-38.09,0-6.10999,4.4-8.73999,9.97-12.06,5.67-3.38,12.1-7.22,12.1-15.64001,0-4.79001-3.52-9.95-11.25-9.95C10.45999,253.83-.00001,269.04001-.00001,288.45001-.00001,321.51001,21.83999,341.24002,58.41999,341.24002c63.74,0,135.69999-56.57999,192.47-151.34l6.59-10.47c22.82001-5.16,48.79999-9.94,78.85999-15.48l5.67001-1.03999c5.38-.89999,10.76999-2.00999,15.17001-2.95-7.32999,11.02-15.67001,23.72-23.45001,36.69-28.35999,46.65001-43.34,84.37999-43.34,109.12001,0,21.88998,11.60999,35.48001,30.29001,35.48001,24.32001,0,43.20001-23.51999,71.79001-59.13l.20001-.25c5.17999-6.45001,10.53-13.12,16.36002-20.20999l4.64999-5.66h-14.14999l-1.04001,1.26001c-4.41,5.35001-8.56,10.42999-12.48001,15.23001l-.78.95999c-29.09,35.63-45.11002,55.25-59.79999,55.25-4.28,0-8.66-1.75-8.66-14.70999,0-23.61002,15.56-61.3,46.25-112.04001,9.73001-16.34,20.35001-32.92,32.48001-50.69,46.42001-12.50999,128.31003-40.71,157.49997-89.54,10.73999-18.26,13.10999-35.36,6.48999-46.93h-.01001v.00993ZM540.13,55.57c-19.91998,32.6-66.29001,60.18999-134.16998,79.84,54.29001-77.95,101.22-122.61,128.89996-122.61,4.44,0,10.34998,1.11,13.31,6.41,4.27002,7.65,1.27002,21.24-8.03998,36.37h0v-.01Z"/>
  <g>
    <path class="st0" d="M488.06,332.60999c-27.73001,0-47.92999-15.66-47.92999-40.42999s17.62-39.12,55.13-45.00999c30.65997-5.23,42.08002-15.97,42.08002-34.58s-12.72998-31.62-33.28-31.62-36.20001,10.12-51.20001,28.7v-21.85001c15-10.77,34.23999-16.62,52.51001-16.62,30.66,0,50.55002,16.96001,50.55002,45.00999v69.78c0,14.69,1.96002,30.01001,5.53998,43.39001h-20.22998l-2.62-23.16h-.31c-10.77002,16.62-28.39001,26.42999-50.23999,26.42999h0v-.03l-.00006-.01001ZM501.75,255.64c-33.92999,6.53999-42.08002,20.53999-42.08002,35.24001s11.42001,30.32001,32.92999,30.32001,44.65997-19.89001,44.65997-51.20001v-31.31c-8.15997,8.47-17.92999,13.39-35.54999,16.95999h.03l.01004-.00999Z"/>
    <path class="st0" d="M661.90002,187.47c-21.84998,0-39.12,25.77-39.12,62.28v36.20001c0,14.35001.96002,28.70001,2.62,43.39001h-21.20001v-111.51999c0-15.97-.65002-25.12-2.62-43.39h21.20001v36.2h.31c7.5-25.42999,23.15997-38.47,42.73999-38.47s13.39001,1.31,18.58002,4.58v22.5c-5.53998-7.81-13.70001-11.73-22.5-11.73h0v-.03l-.01001-.01004Z"/>
    <path class="st0" d="M749.96002,322.19c-13.70001,0-21.53998-9.76999-21.53998-28.70001v-109.25h44.35999v-9.77h-44.35999v-45.00999h-21.15997c1.82001,16.14,2.58002,29.00999,2.58002,38.54001v16.24001h0v107.64c0,32.28,18.58002,40.78,37.51001,40.78s20.89001-2.62,28.70001-8.47v-13.39001c-6.19,6.85001-16.62,11.42001-26.08002,11.42001h0v-.03h-.01007Z"/>
  </g>
  <g>
    <path class="st0" d="M24.24,172.5h14.21c3.99,0,7.05.96001,9.22,2.86s3.23,4.27,3.23,7.16-.58,4.06-1.79,5.67999-2.99,2.72-5.4,3.27c2.37.41,4.3,1.45,5.71,3.10001,1.45,1.64999,2.13,3.53999,2.13,5.64,0,4.67999-2.27,7.85001-6.85,9.5-1.69.62-3.79.89-6.23.89h-14.28v-38.06h0l.03-.03.02-.01001ZM29.02,189.5h9.33c2.34,0,4.2-.58,5.61-1.72,1.38-1.14,2.1-2.72,2.1-4.75s-.69-3.58-2.03-4.71001-3.23-1.69-5.64-1.69h-9.33v12.89999h-.03v-.03l-.01.00002ZM38.38,206.39c2.89,0,4.99-.58,6.23-1.75,1.24-1.17,1.89-2.72,1.89-4.64999s-.69-3.48-2.06-4.64999c-1.38-1.14-3.37-1.72-6.06-1.72h-9.39v12.77h9.39v-.00002Z"/>
    <path class="st0" d="M67.22,172.5l10.22,17.48,10.46-17.48h5.64l-13.66,22.44v15.62h-4.85v-15.62l-13.49-22.44s5.68,0,5.67999,0Z"/>
  </g>
</svg>