<?xml version="1.0" encoding="UTF-8"?>
<svg id="Layer_1" xmlns="http://www.w3.org/2000/svg" version="1.1" viewBox="0 0 2260.1 991.4">
  <!-- Generator: Adobe Illustrator 29.2.1, SVG Export Plug-In . SVG Version: 2.1.0 Build 116)  -->
  <defs>
    <style>
      .st0 {
        fill: #363131;
      }
    </style>
  </defs>
  <g>
    <path class="st0" d="M1629.7,41.4c-10.1-17.7-32.5-38.8-81.3-38.8-118.2,0-292.2,153.7-477.4,421.7-26.8,6-53.9,10.9-80.1,15.7-88.3,15.9-159.2,29.7-221,42.9,44-71.8,77.6-128.1,104.8-174,101.1-170,111.7-187.7,236.1-282l7.2-5.5L1096.6,0l-35.2,26.9c-119.3,91.1-198.1,151.3-258.6,151.3s-40.7-19.5-75.7-67.5C681.1,47.4,638.4,2.6,507.1,2.6S182,105.5,182,253.1s15.7,82.6,45.5,108.9c26.8,23.7,63.7,36.7,104,36.7,116,0,212.1-87.3,243.7-169.3l2.8-7.3-27.2-10.9-2.9,7.4c-29.2,73.5-109.8,147.9-207.5,147.9s-113.4-40.7-113.4-114.7c0-123.1,123.1-219.6,280.2-219.6s104.2,27.5,150.3,90.2c33.3,46.3,72.2,89.2,131.5,89.2s67.9-8.5,126.2-44.6c-92.5,100-165.7,212.3-248.6,339.3h0c-151.1,39.5-235.7,79.9-291.5,139.3l-4.7,5,20.2,25.2,6.2-6.8c47.3-51.7,121.1-89.1,244.8-123.5-161.3,250.1-304,416.1-473.1,416.1s-134.9-40.3-134.9-113.4,14-27.4,30.2-37.1c16.1-9.6,34.3-20.4,34.3-43.8s-9.6-26.9-30.6-26.9C29.8,740.4.2,783.8.2,839.3c0,95.2,62.9,152,168.4,152,185.4,0,394.8-164.9,560.2-440.9l19.7-31.4c66.9-15.1,143.2-29.2,231.3-45.4l16.6-3.1c16.5-2.7,33.1-6.2,49.5-9.7-24,36-48.3,73.1-71.4,111.6-82.6,135.9-126.3,245.7-126.3,317.5s33,101.4,86.2,101.4,124.8-68.4,207.9-171.9c15.3-19.1,31.1-38.8,48.4-59.8l10.6-12.9h-35.6l-2.4,2.9c-13.7,16.7-26.6,32.4-38.7,47.3-85.4,104.6-132.4,162.2-176.3,162.2s-27.5-5.1-27.5-45.2c0-69.3,45.5-179.8,135.4-328.3,28.5-47.9,59.8-96.6,95.4-148.8,136.5-36.7,374.6-118.8,459.4-260.6h0c31-52.7,37.9-101.8,18.9-134.9h-.2ZM1600.5,52.1c12.9,23,4.1,63.6-23.5,108.4-59.2,96.8-196.9,178.1-399,235.8,160.7-231.7,299.3-364.1,381.8-364.1s31.6,3.4,40.8,19.8h-.1Z"/>
    <path class="st0" d="M1423.2,966.6c-80.6,0-139.3-45.5-139.3-117.5s51.2-113.7,160.2-130.8c89.1-15.2,122.3-46.4,122.3-100.5s-37-91.9-96.7-91.9-105.2,29.4-148.8,83.4v-63.5c43.6-31.3,99.5-48.3,152.6-48.3,89.1,0,146.9,49.3,146.9,130.8v202.8c0,42.7,5.7,87.2,16.1,126.1h-58.8l-7.6-67.3h-.9c-31.3,48.3-82.5,76.8-146,76.8h0ZM1463,742.9c-98.6,19-122.3,59.7-122.3,102.4s33.2,88.1,95.7,88.1,129.8-57.8,129.8-148.8v-91c-23.7,24.6-52.1,38.9-103.3,49.3h.1Z"/>
    <path class="st0" d="M1928.4,544.8c-63.5,0-113.7,74.9-113.7,181v105.2c0,41.7,2.8,83.4,7.6,126.1h-61.6v-324.1c0-46.4-1.9-73-7.6-126.1h61.6v105.2h.9c21.8-73.9,67.3-111.8,124.2-111.8s38.9,3.8,54,13.3v65.4c-16.1-22.7-39.8-34.1-65.4-34.1h0Z"/>
    <path class="st0" d="M2184.3,936.3c-39.8,0-62.6-28.4-62.6-83.4v-317.5h128.9v-28.4h-128.9v-130.8h-61.5c5.3,46.9,7.5,84.3,7.5,112v47.2h0v312.8c0,93.8,54,118.5,109,118.5s60.7-7.6,83.4-24.6v-38.9c-18,19.9-48.3,33.2-75.8,33.2h0Z"/>
  </g>
  <g>
    <path class="st0" d="M75.3,501.3h41.3c11.6,0,20.5,2.8,26.8,8.3s9.4,12.4,9.4,20.8-1.7,11.8-5.2,16.5-8.7,7.9-15.7,9.5c6.9,1.2,12.5,4.2,16.6,9,4.2,4.8,6.2,10.3,6.2,16.4,0,13.6-6.6,22.8-19.9,27.6-4.9,1.8-11,2.6-18.1,2.6h-41.5v-110.6h0ZM89.2,550.7h27.1c6.8,0,12.2-1.7,16.3-5,4-3.3,6.1-7.9,6.1-13.8s-2-10.4-5.9-13.7-9.4-4.9-16.4-4.9h-27.1v37.5h-.1ZM116.4,599.8c8.4,0,14.5-1.7,18.1-5.1,3.6-3.4,5.5-7.9,5.5-13.5s-2-10.1-6-13.5c-4-3.3-9.8-5-17.6-5h-27.3v37.1s27.3,0,27.3,0Z"/>
    <path class="st0" d="M200.2,501.3l29.7,50.8,30.4-50.8h16.4l-39.7,65.2v45.4h-14.1v-45.4l-39.2-65.2h16.5Z"/>
  </g>
</svg>