<?xml version="1.0" encoding="UTF-8"?>
<svg id="Layer_1" xmlns="http://www.w3.org/2000/svg" version="1.1" viewBox="0 0 2259.65991 993.5">
  <!-- Generator: Adobe Illustrator 29.2.1, SVG Export Plug-In . SVG Version: 2.1.0 Build 116)  -->
  <defs>
    <style>
      .st0 {
        fill: #363131;
      }
    </style>
  </defs>
  <path class="st0" d="M1620.60999,831.85999v-202.58997c0-81.38-56.71997-131.92999-148.02002-131.92999-54.35999,0-110.19006,17.69-153.17004,48.52002l-.54004.39001v67.73999l2.29004-2.84003c43.72998-54.19,94.77002-82.83002,147.62-82.83002,58.76001,0,95.27002,34.69,95.27002,90.53998s-36.19995,84.63-121.03003,99.07001c-106.88,16.72998-161.07996,61.10999-161.07996,131.91998s56.43994,118.67999,140.44995,118.67999c61.72998,0,113.39001-26.79999,145.70996-75.5l7.43994,66.03998h61.53003l-.43994-1.63c-10.34998-38.58002-16.05005-83.17999-16.05005-125.57001l.02014-.00995ZM1564.06995,697.76001v87.71997c0,89.5-50.40002,147.33997-128.40002,147.33997-29.18005,0-53.5-8.83002-70.32996-25.53998-15.46997-15.35999-24-37.09998-24-61.21002,0-53,38.46997-85.08997,121.07996-100.96997h.01001c48.76001-9.94,77.62-23.32001,101.64001-47.34003v.00006Z"/>
  <path class="st0" d="M1938.43994,500.19c-57.93005,0-101.68994,38.09998-123.67004,107.46002v-100.84h-64.26001l.15002,1.42999c5.57996,52.12997,7.56995,78.95999,7.56995,125.76999v325.04999h64.27002l-.16003-1.42999c-5.08997-45.83002-7.56995-86.96997-7.56995-125.77002v-105.08002c0-102.34998,48.28003-179.52002,112.30994-179.52002,26.12,0,48.94995,11.90997,64.27002,33.53998l2.33997,3.31v-70.09003l-.60999-.38c-13.46997-8.42001-33.90002-13.45001-54.65002-13.45001l.01013.00012Z"/>
  <path class="st0" d="M2257.40991,902.95001c-17.69995,19.56-47.75,32.71002-74.78003,32.71002-39.45996,0-61.18994-29.13-61.18994-82.02002v-315.83997h128.75v-30.98001h-128.75v-130.63998h-64.20996l.15991,1.44c4.8999,43.31,7.47998,81.94,7.47998,111.73001v47.17001l.02002,1.28998v311.10999c0,98.87,59.8999,119.63,110.1499,119.63,32.36011,0,63.01001-9.07001,84.09009-24.87l.51001-.39001v-42.81l-2.25,2.47998.02002-.01001Z"/>
  <path class="st0" d="M1628.83997,43.09c-10.39001-18.17-33.21997-39.8-83-39.8-118.45996,0-292.35999,153.28001-477.22998,420.63001-26.48999,5.91-53.13,10.73999-78.90002,15.42999-86.21002,15.57999-154.84998,28.85001-215.41003,41.72,42.41998-69.23001,75.14001-124.20001,101.54999-168.57001l.32001-.54999c100.62-169.12,111.13-186.78999,234.80005-280.51001l9.19995-6.99L1095.68994-.01l-36.65002,27.98c-118.58002,90.57-196.91998,150.42999-256.52002,150.42999-23,0-39.29999-19.20999-73.73999-66.41C682.59998,48.33,639.71002,3.26,507.70999,3.26c-154.32999,0-326.29999,103.47-326.29999,251.94999,0,45.45001,15.92999,83.56,46.09,110.22,27.10001,23.95999,64.42999,37.17999,105.10001,37.17999,116.60001,0,213.25998-87.72,244.99002-170.23l3.54999-9.28999-31.21002-12.49001-3.72998,9.37c-28.82001,72.61-108.41998,146.09001-204.81,146.09001-71.5,0-110.86-39.83002-110.86-112.14999,0-121.51999,121.75002-216.69,277.19002-216.69,74.82001,0,102.57001,27.13,148.03998,89.03,33.51001,46.67,72.81,89.87,132.90002,89.87,26.38,0,58.48999-4.69,114.07001-37-87.34003,96.69-157.17999,203.64999-237.53998,326.82999-150.63,39.30002-234.91998,79.64999-290.82001,139.19003l-5.97,6.38,22.88,28.62,7.95001-8.67999c46.44-50.77002,117.64999-87.08002,237.48001-120.97003-158.92999,245.71997-299.37,408.98999-466.63,408.98999-85.3,0-132.28999-39.39001-132.28999-110.89001,0-17.78998,12.81-25.45001,29.03-35.10999,16.51-9.84003,35.23-21.02002,35.23-45.53003,0-13.95001-10.25-28.96997-32.75-28.96997C30.46008,738.97998.01008,783.26001.01008,839.76996c0,96.25,63.58,153.69,170.08001,153.69,185.57001,0,395.07001-164.71997,560.34998-440.59998l19.19-30.47998c66.44-15.01999,142.07001-28.94,229.59003-45.07001l16.51001-3.03c15.65997-2.62,31.35999-5.85001,44.17004-8.59-21.34003,32.08002-45.62,69.06-68.27002,106.82001-82.57001,135.81-126.17999,245.66003-126.17999,317.69,0,63.72998,33.79999,103.28998,88.17999,103.28998,70.79999,0,125.77002-68.47998,209.01001-172.15002l.57996-.72998c15.07996-18.78003,30.66003-38.20001,47.63-58.84003l13.54004-16.47998h-41.19995l-3.03003,3.66998c-12.83997,15.58002-24.92004,30.37-36.32996,44.34003l-2.27002,2.78998c-84.69006,103.72998-131.33002,160.84998-174.09998,160.84998-12.46002,0-25.21002-5.09003-25.21002-42.83002,0-68.73999,45.29999-178.47003,134.64996-326.19,28.32996-47.57001,59.25-95.84,94.56006-147.58002,135.15002-36.41998,373.56006-118.51999,458.54004-260.67999,31.27002-53.16,38.17004-102.95,18.89001-136.63l-.03003.03-.02026.03009ZM1572.51001,161.78c-57.98999,94.91-192.98999,175.23001-390.62,232.44,158.05994-226.94,294.69006-356.95999,375.27002-356.95999,12.93005,0,30.13,3.23,38.75,18.66,12.43005,22.27,3.69995,61.84-23.41003,105.89v-.03l.01001-.00002Z"/>
  <path class="st0" d="M135.96001,611.5c13.7-5,20.7-14.70001,20.7-28.79999s-2.2-12.20001-6.60001-17.20001c-3.3-3.90002-7.60001-6.59998-12.60001-8.20001,5-1.90002,9-4.79999,11.8-8.59998,3.60001-4.90002,5.39999-10.70001,5.39999-17.29999s-3.3-16-9.8-21.70001-15.8-8.60001-27.6-8.60001h-42.6v113.10001h42.7c7.3,0,13.5-.90002,18.5-2.70001h.10002ZM139.25999,582.20001c0,5.29999-1.60001,9.40002-5,12.59998-3.39999,3.09998-9.2,4.70001-17.2,4.70001h-25.9v-34.5h25.9c7.4,0,13,1.59998,16.7,4.70001,3.7,3.09998,5.5,7.20001,5.5,12.40002v.09998ZM132.25999,545.79999c-3.8,3.09998-9,4.70001-15.4,4.70001h-25.8v-34.79999h25.8c6.7,0,11.89999,1.59998,15.60001,4.59998,3.60001,3.09998,5.39999,7.20001,5.39999,12.70001s-1.8,9.70001-5.60001,12.79999Z"/>
  <polygon class="st0" points="221.96001 614.29999 223.36 614.29999 237.46001 614.29999 238.86 614.29999 238.86 612.90002 238.86 568 278.35999 503.10001 279.66 501 277.16 501 260.76001 501 259.95999 501 259.56 501.70001 230.46001 550.40002 201.96001 501.70001 201.56 501 200.75999 501 184.16 501 181.75999 501 182.96001 503.10001 221.96001 568 221.96001 612.90002 221.96001 614.29999"/>
</svg>