<?xml version="1.0" encoding="UTF-8"?><svg id="Layer_1" xmlns="http://www.w3.org/2000/svg" width="340" height="320" viewBox="0 0 340 320"><path d="M38.56,25.42c-1.73,0-3.33-.29-4.81-.87-1.48-.58-2.68-1.49-3.6-2.74-.92-1.24-1.43-2.86-1.53-4.85h5.69c0,.73.19,1.34.56,1.82.37.48.88.84,1.52,1.06.64.23,1.35.34,2.13.34.62,0,1.21-.05,1.76-.16.55-.11.99-.3,1.32-.58.34-.28.5-.65.5-1.13,0-.59-.18-1.03-.53-1.31-.35-.29-.99-.62-1.92-.99l-5.26-2.29c-1.73-.74-3.07-1.62-4.03-2.63s-1.44-2.38-1.44-4.12c0-2.04.83-3.69,2.49-4.94,1.66-1.25,3.94-1.88,6.83-1.88s5.2.69,6.77,2.08c1.57,1.39,2.45,3.36,2.65,5.93h-5.65c-.14-.79-.49-1.46-1.05-2-.56-.54-1.46-.81-2.71-.81-.9,0-1.63.17-2.18.5-.55.33-.83.74-.83,1.23,0,.46.18.82.53,1.08.35.26.88.55,1.59.86l5.56,2.36c1.85.8,3.22,1.75,4.13,2.83.91,1.08,1.36,2.38,1.36,3.89,0,1.62-.39,2.97-1.16,4.06-.77,1.09-1.9,1.9-3.37,2.45-1.47.54-3.25.82-5.34.82Z" style="fill:#000; stroke-width:0px;"/><path d="M54.88,24.84V.68h16.15v4.99h-10.39v4.64h9.74v5h-9.74v4.48h10.39v5.04h-16.15Z" style="fill:#000; stroke-width:0px;"/><path d="M78.1.68h6.01l9.7,14.62h-.4V.68h5.76v24.16h-5.56l-10.71-16.05h.95v16.05h-5.76V.68Z" style="fill:#000; stroke-width:0px;"/><path d="M115.61,25.42c-1.73,0-3.33-.29-4.81-.87-1.48-.58-2.68-1.49-3.6-2.74-.92-1.24-1.43-2.86-1.53-4.85h5.69c0,.73.19,1.34.56,1.82.37.48.88.84,1.52,1.06.64.23,1.35.34,2.13.34.62,0,1.21-.05,1.76-.16.55-.11.99-.3,1.32-.58.34-.28.5-.65.5-1.13,0-.59-.18-1.03-.53-1.31-.35-.29-.99-.62-1.92-.99l-5.26-2.29c-1.73-.74-3.07-1.62-4.03-2.63s-1.44-2.38-1.44-4.12c0-2.04.83-3.69,2.49-4.94,1.66-1.25,3.94-1.88,6.83-1.88s5.2.69,6.77,2.08c1.57,1.39,2.45,3.36,2.65,5.93h-5.65c-.14-.79-.49-1.46-1.05-2-.56-.54-1.46-.81-2.71-.81-.9,0-1.63.17-2.18.5-.55.33-.83.74-.83,1.23,0,.46.18.82.53,1.08.35.26.88.55,1.59.86l5.56,2.36c1.85.8,3.22,1.75,4.13,2.83.91,1.08,1.36,2.38,1.36,3.89,0,1.62-.39,2.97-1.16,4.06-.77,1.09-1.9,1.9-3.37,2.45-1.47.54-3.25.82-5.34.82Z" style="fill:#000; stroke-width:0px;"/><path d="M131.94,24.84V.68h16.15v4.99h-10.39v4.64h9.74v5h-9.74v4.48h10.39v5.04h-16.15Z" style="fill:#000; stroke-width:0px;"/><path d="M176.15,25.42c-2.29,0-4.29-.48-6-1.45-1.71-.96-3.04-2.39-3.99-4.28-.95-1.89-1.42-4.22-1.42-6.99s.47-5.19,1.42-7.05c.95-1.85,2.28-3.23,3.99-4.14s3.71-1.36,6-1.36,4.33.47,6.06,1.42c1.72.95,3.06,2.35,4,4.21.95,1.86,1.42,4.16,1.42,6.91s-.47,5.18-1.42,7.07c-.95,1.89-2.28,3.3-4,4.25-1.72.94-3.74,1.41-6.06,1.41ZM176.15,20.25c1.68,0,3.02-.66,4.03-1.99s1.51-3.2,1.51-5.61c0-2.27-.5-4.06-1.51-5.37s-2.35-1.97-4.03-1.97-2.95.66-3.96,1.97-1.51,3.12-1.51,5.41.5,4.25,1.51,5.57,2.33,1.99,3.96,1.99Z" style="fill:#000; stroke-width:0px;"/><path d="M193.46,24.84V.68h15.75v4.99h-9.99v4.73h8.95v4.91h-8.95v9.52h-5.76Z" style="fill:#000; stroke-width:0px;"/><path d="M226.06,24.84V.68h9.27c2.78,0,4.99.67,6.62,2.01,1.63,1.34,2.45,3.31,2.45,5.93s-.82,4.58-2.45,5.93c-1.63,1.35-3.84,2.03-6.62,2.03h-3.47v8.26h-5.8ZM231.86,11.54h3.47c1.04,0,1.83-.29,2.37-.87.53-.58.8-1.26.8-2.04s-.27-1.48-.8-2.07c-.53-.59-1.32-.88-2.37-.88h-3.47v5.87Z" style="fill:#000; stroke-width:0px;"/><path d="M255.15.68v19.12h9.13v5.04h-14.89V.68h5.76Z" style="fill:#000; stroke-width:0px;"/><path d="M267.05,24.84l8.14-24.16h7.33l7.69,24.16h-6.07l-1.31-4.25h-8.33l-1.31,4.25h-6.12ZM275.94,16.33h5.56l-2.74-8.84-2.83,8.84Z" style="fill:#000; stroke-width:0px;"/><path d="M291.2.68h6.77l4.64,9.05h-.94l4.95-9.05h6.75l-8.46,14.13v10.03h-5.72v-10.03l-7.99-14.13Z" style="fill:#000; stroke-width:0px;"/><path d="M2.38,69.04v-10.05h1.25v10.05h-1.25Z" style="fill:#000; stroke-width:0px;"/><path d="M9.62,69.23c-.74,0-1.36-.11-1.86-.32-.5-.21-.87-.5-1.13-.87-.26-.37-.39-.79-.41-1.28h1.2c.03.48.22.85.59,1.09s.86.36,1.49.36c.33,0,.63-.05.91-.16.28-.11.5-.25.66-.44.17-.19.25-.4.25-.63,0-.3-.11-.53-.33-.71-.22-.17-.57-.32-1.05-.45l-1.49-.48c-.65-.2-1.14-.48-1.48-.84s-.52-.78-.52-1.28c0-.62.27-1.12.82-1.49s1.26-.56,2.14-.56c.94,0,1.67.19,2.18.58.52.38.79.86.81,1.44h-1.23c-.05-.34-.22-.59-.51-.76-.29-.17-.71-.26-1.25-.26s-.92.12-1.21.35c-.29.23-.44.49-.44.77,0,.53.45.92,1.36,1.17l1.52.51c.66.2,1.16.46,1.51.78.35.32.52.73.52,1.22,0,.38-.13.75-.38,1.09s-.61.62-1.06.83-1,.32-1.63.32Z" style="fill:#000; stroke-width:0px;"/><path d="M18,62.26v-.87h4.88v.87h-4.88ZM21.42,69.23c-.42,0-.79-.08-1.12-.24-.33-.16-.59-.4-.78-.72-.19-.32-.29-.72-.29-1.2v-7.81h1.23v7.78c0,.79.37,1.18,1.1,1.18.22,0,.43-.02.64-.07.21-.05.44-.12.69-.22l.18.9c-.27.12-.54.21-.81.29s-.55.11-.84.11Z" style="fill:#000; stroke-width:0px;"/><path d="M25.09,69.04v-10.91h1.25v10.91h-1.25ZM30.53,69.04v-4.5c0-.73-.17-1.29-.52-1.67-.35-.38-.83-.57-1.43-.57-.46,0-.86.13-1.19.38-.34.25-.59.61-.78,1.08-.18.47-.27,1.02-.27,1.67h-.48c0-.89.12-1.65.35-2.28.23-.63.58-1.11,1.03-1.44.45-.33,1-.5,1.64-.5.6,0,1.12.13,1.55.4.43.27.76.65.99,1.16.23.5.34,1.1.34,1.78v4.5h-1.23Z" style="fill:#000; stroke-width:0px;"/><path d="M37.4,69.23c-.66,0-1.25-.17-1.77-.51-.52-.34-.93-.81-1.23-1.41-.3-.6-.45-1.3-.45-2.08,0-.84.15-1.56.45-2.16.3-.6.71-1.07,1.23-1.39s1.11-.48,1.78-.48c.58,0,1.08.12,1.49.35.41.24.74.55.99.95s.43.85.52,1.36.13,1.03.08,1.56h-5.54v-.77h4.71l-.37.24c.02-.32,0-.63-.05-.95-.05-.31-.15-.6-.28-.87s-.33-.48-.58-.64c-.25-.16-.57-.24-.96-.24-.49,0-.9.12-1.23.38-.33.25-.58.58-.74.99s-.25.85-.25,1.32v.51c0,.53.08,1.01.24,1.43.16.42.41.75.73,1,.33.24.74.37,1.23.37s.9-.12,1.22-.36c.32-.24.51-.6.58-1.06h1.3c-.08.51-.26.94-.54,1.31s-.64.65-1.08.84-.93.3-1.48.3Z" style="fill:#000; stroke-width:0px;"/><path d="M42.96,69.04v-7.66h1.25v7.66h-1.25ZM43.82,65.58c0-.97.09-1.78.28-2.42.19-.64.46-1.12.82-1.44.36-.32.8-.47,1.32-.47.17,0,.33.01.47.04s.28.06.43.11l-.08,1.23c-.15-.05-.31-.09-.49-.12-.18-.04-.33-.05-.47-.05-.45,0-.82.13-1.1.39-.28.26-.48.62-.6,1.09-.13.47-.19,1.02-.19,1.66h-.38Z" style="fill:#000; stroke-width:0px;"/><path d="M51.4,69.23c-.66,0-1.25-.17-1.77-.51-.52-.34-.93-.81-1.23-1.41-.3-.6-.45-1.3-.45-2.08,0-.84.15-1.56.45-2.16.3-.6.71-1.07,1.23-1.39s1.11-.48,1.78-.48c.58,0,1.08.12,1.49.35.41.24.74.55.99.95s.43.85.52,1.36.13,1.03.08,1.56h-5.54v-.77h4.71l-.37.24c.02-.32,0-.63-.05-.95-.05-.31-.15-.6-.28-.87s-.33-.48-.58-.64c-.25-.16-.57-.24-.96-.24-.49,0-.9.12-1.23.38-.33.25-.58.58-.74.99s-.25.85-.25,1.32v.51c0,.53.08,1.01.24,1.43.16.42.41.75.73,1,.33.24.74.37,1.23.37s.9-.12,1.22-.36c.32-.24.51-.6.58-1.06h1.3c-.08.51-.26.94-.54,1.31s-.64.65-1.08.84-.93.3-1.48.3Z" style="fill:#000; stroke-width:0px;"/><path d="M62.89,69.23c-.63,0-1.15-.11-1.56-.34-.41-.22-.72-.52-.92-.87s-.3-.73-.3-1.13c0-.52.13-.94.39-1.27.26-.32.61-.56,1.06-.71s.95-.23,1.51-.23c.4,0,.8.04,1.2.12.4.08.8.19,1.18.33v.79c-.32-.13-.68-.23-1.08-.3-.4-.07-.77-.11-1.11-.11-.51,0-.94.11-1.3.32-.35.21-.53.57-.53,1.08,0,.37.13.69.4.96.27.27.7.4,1.29.4.42,0,.79-.1,1.12-.29.33-.19.6-.44.79-.73.19-.29.29-.59.29-.88h.3c0,.51-.11.99-.33,1.42-.22.44-.54.79-.95,1.06-.41.27-.9.4-1.47.4ZM65.49,69.04l-.16-1.68v-3.28c0-.69-.15-1.18-.44-1.48s-.73-.45-1.32-.45c-.33,0-.63.05-.9.14s-.48.24-.64.45c-.16.2-.24.46-.24.77h-1.39c0-.55.14-1,.41-1.34.27-.34.65-.58,1.12-.74s1.02-.23,1.64-.23,1.11.1,1.56.3.81.51,1.06.94c.26.43.38.99.38,1.68v4.93h-1.09Z" style="fill:#000; stroke-width:0px;"/><path d="M69.57,69.04v-7.65h1.07l.18,1.76v5.89h-1.25ZM75.01,69.04v-4.5c0-.73-.17-1.29-.52-1.67-.35-.38-.83-.57-1.43-.57-.46,0-.86.13-1.19.38-.34.25-.59.61-.78,1.08-.18.47-.27,1.02-.27,1.67h-.48c0-.89.12-1.65.35-2.28.23-.63.58-1.11,1.03-1.44.45-.33,1-.5,1.64-.5.6,0,1.12.13,1.55.4.43.27.76.65.99,1.16.23.5.34,1.1.34,1.78v4.5h-1.23Z" style="fill:#000; stroke-width:0px;"/><path d="M77.96,61.39h1.39l2.5,6.56h-.29l1.94-6.56h1.28l-2.88,9.19c-.24.77-.56,1.36-.96,1.78-.4.42-.91.62-1.54.62-.34,0-.65-.05-.96-.14s-.61-.23-.93-.42v-1.15c.28.22.56.38.82.48.26.1.54.14.83.14.32,0,.59-.1.8-.3s.4-.46.54-.78c.14-.32.27-.65.37-1l.22-.77-3.14-7.65Z" style="fill:#000; stroke-width:0px;"/><path d="M85.6,62.26v-.87h4.88v.87h-4.88ZM89.02,69.23c-.42,0-.79-.08-1.12-.24-.33-.16-.59-.4-.78-.72-.19-.32-.29-.72-.29-1.2v-7.81h1.23v7.78c0,.79.37,1.18,1.1,1.18.22,0,.43-.02.64-.07.21-.05.44-.12.69-.22l.18.9c-.27.12-.54.21-.81.29s-.55.11-.84.11Z" style="fill:#000; stroke-width:0px;"/><path d="M92.69,69.04v-10.91h1.25v10.91h-1.25ZM98.13,69.04v-4.5c0-.73-.17-1.29-.52-1.67-.35-.38-.83-.57-1.43-.57-.46,0-.86.13-1.19.38-.34.25-.59.61-.78,1.08-.18.47-.27,1.02-.27,1.67h-.48c0-.89.12-1.65.35-2.28.23-.63.58-1.11,1.03-1.44.45-.33,1-.5,1.64-.5.6,0,1.12.13,1.55.4.43.27.76.65.99,1.16.23.5.34,1.1.34,1.78v4.5h-1.23Z" style="fill:#000; stroke-width:0px;"/><path d="M103.05,59.58c-.26,0-.46-.07-.61-.22-.15-.15-.22-.34-.22-.58s.07-.42.22-.56c.15-.14.35-.21.61-.21s.46.07.61.21c.15.14.22.33.22.56s-.07.43-.22.58c-.15.15-.35.22-.61.22ZM102.42,69.04v-7.66h1.25v7.66h-1.25Z" style="fill:#000; stroke-width:0px;"/><path d="M107.11,69.04v-7.65h1.07l.18,1.76v5.89h-1.25ZM112.55,69.04v-4.5c0-.73-.17-1.29-.52-1.67-.35-.38-.83-.57-1.43-.57-.46,0-.86.13-1.19.38-.34.25-.59.61-.78,1.08-.18.47-.27,1.02-.27,1.67h-.48c0-.89.12-1.65.35-2.28.23-.63.58-1.11,1.03-1.44.45-.33,1-.5,1.64-.5.6,0,1.12.13,1.55.4.43.27.76.65.99,1.16.23.5.34,1.1.34,1.78v4.5h-1.23Z" style="fill:#000; stroke-width:0px;"/><path d="M119.47,72.97c-.78,0-1.46-.11-2.04-.33-.58-.22-1.02-.52-1.34-.89s-.48-.78-.48-1.23c0-.59.22-1.04.65-1.36.43-.31,1-.47,1.68-.47l.69.43c-.58,0-1.02.12-1.34.36-.31.24-.47.57-.47.98s.22.77.67,1.05c.45.29,1.1.43,1.97.43.64,0,1.2-.09,1.68-.28s.86-.42,1.13-.72c.27-.29.4-.61.4-.96,0-.24-.09-.45-.26-.62-.18-.17-.45-.26-.81-.26h-2.98c-.52,0-.96-.08-1.34-.23-.38-.16-.67-.37-.87-.62-.2-.26-.3-.54-.3-.84,0-.32.09-.59.27-.82.18-.22.42-.39.71-.51.29-.12.6-.18.94-.18l.24.46c-.16,0-.32.04-.48.11-.16.07-.3.18-.41.32-.11.14-.16.32-.16.53,0,.25.1.45.3.62.2.17.57.25,1.1.25h2.98c.72,0,1.29.15,1.7.46.41.3.62.73.62,1.27,0,.5-.18.98-.54,1.45-.36.46-.87.84-1.54,1.13-.67.3-1.46.44-2.39.44ZM119.69,66.8c-.59,0-1.12-.12-1.59-.35-.47-.23-.85-.56-1.12-.98-.27-.42-.41-.91-.41-1.46s.14-1.05.41-1.47.65-.75,1.12-.98c.47-.23,1-.35,1.59-.35s1.09.12,1.56.35c.47.23.84.56,1.12.98.28.42.42.91.42,1.47s-.14,1.04-.42,1.46c-.28.42-.65.75-1.12.98-.47.23-.99.35-1.56.35ZM119.69,65.9c.59,0,1.04-.18,1.37-.54.33-.36.49-.82.49-1.36s-.16-1.02-.49-1.37c-.33-.35-.78-.52-1.37-.52s-1.04.18-1.37.52c-.33.35-.5.8-.5,1.37s.17,1,.5,1.36c.33.36.79.54,1.37.54ZM122.2,62.42l-.59-.24c0-.45.09-.84.26-1.18.18-.34.43-.6.75-.79.33-.19.71-.28,1.16-.28l-.1,1.23c-.48,0-.85.1-1.1.31-.26.21-.38.53-.38.96Z" style="fill:#000; stroke-width:0px;"/><path d="M129.6,69.04v-10.91h1.25v9.12l-.37,1.79h-.88ZM133.1,69.23c-.51,0-.97-.13-1.39-.4-.41-.27-.74-.66-.98-1.17-.24-.52-.36-1.14-.36-1.88h.48c0,.5.1.92.31,1.27.21.35.47.62.8.8.33.18.67.27,1.02.27.41,0,.79-.12,1.13-.35.34-.23.61-.57.82-1.01s.31-.96.31-1.57-.1-1.11-.3-1.54c-.2-.43-.48-.76-.82-.99-.34-.23-.73-.35-1.15-.35-.36,0-.71.09-1.03.27-.32.18-.58.44-.78.79-.2.35-.3.77-.3,1.28h-.48c0-.72.12-1.34.36-1.86s.57-.9.99-1.18c.42-.27.91-.41,1.47-.41.6,0,1.16.16,1.66.48.5.32.91.78,1.21,1.38.3.6.46,1.3.46,2.12s-.15,1.54-.46,2.14-.72,1.07-1.24,1.41c-.52.33-1.09.5-1.7.5Z" style="fill:#000; stroke-width:0px;"/><path d="M141.73,69.23c-.66,0-1.25-.17-1.77-.51-.52-.34-.93-.81-1.23-1.41-.3-.6-.45-1.3-.45-2.08,0-.84.15-1.56.45-2.16.3-.6.71-1.07,1.23-1.39s1.11-.48,1.78-.48c.58,0,1.08.12,1.49.35.41.24.74.55.99.95s.43.85.52,1.36.13,1.03.08,1.56h-5.54v-.77h4.71l-.37.24c.02-.32,0-.63-.05-.95-.05-.31-.15-.6-.28-.87s-.33-.48-.58-.64c-.25-.16-.57-.24-.96-.24-.49,0-.9.12-1.23.38-.33.25-.58.58-.74.99s-.25.85-.25,1.32v.51c0,.53.08,1.01.24,1.43.16.42.41.75.73,1,.33.24.74.37,1.23.37s.9-.12,1.22-.36c.32-.24.51-.6.58-1.06h1.3c-.08.51-.26.94-.54,1.31s-.64.65-1.08.84-.93.3-1.48.3Z" style="fill:#000; stroke-width:0px;"/><path d="M146.22,62.26v-.87h4.88v.87h-4.88ZM149.64,69.23c-.42,0-.79-.08-1.12-.24-.33-.16-.59-.4-.78-.72-.19-.32-.29-.72-.29-1.2v-7.81h1.23v7.78c0,.79.37,1.18,1.1,1.18.22,0,.43-.02.64-.07.21-.05.44-.12.69-.22l.18.9c-.27.12-.54.21-.81.29s-.55.11-.84.11Z" style="fill:#000; stroke-width:0px;"/><path d="M152.24,62.26v-.87h4.88v.87h-4.88ZM155.66,69.23c-.42,0-.79-.08-1.12-.24-.33-.16-.59-.4-.78-.72-.19-.32-.29-.72-.29-1.2v-7.81h1.23v7.78c0,.79.37,1.18,1.1,1.18.22,0,.43-.02.64-.07.21-.05.44-.12.69-.22l.18.9c-.27.12-.54.21-.81.29s-.55.11-.84.11Z" style="fill:#000; stroke-width:0px;"/><path d="M161.98,69.23c-.66,0-1.25-.17-1.77-.51-.52-.34-.93-.81-1.23-1.41-.3-.6-.45-1.3-.45-2.08,0-.84.15-1.56.45-2.16.3-.6.71-1.07,1.23-1.39s1.11-.48,1.78-.48c.58,0,1.08.12,1.49.35.41.24.74.55.99.95s.43.85.52,1.36.13,1.03.08,1.56h-5.54v-.77h4.71l-.37.24c.02-.32,0-.63-.05-.95-.05-.31-.15-.6-.28-.87s-.33-.48-.58-.64c-.25-.16-.57-.24-.96-.24-.49,0-.9.12-1.23.38-.33.25-.58.58-.74.99s-.25.85-.25,1.32v.51c0,.53.08,1.01.24,1.43.16.42.41.75.73,1,.33.24.74.37,1.23.37s.9-.12,1.22-.36c.32-.24.51-.6.58-1.06h1.3c-.08.51-.26.94-.54,1.31s-.64.65-1.08.84-.93.3-1.48.3Z" style="fill:#000; stroke-width:0px;"/><path d="M167.54,69.04v-7.66h1.25v7.66h-1.25ZM168.4,65.58c0-.97.09-1.78.28-2.42.19-.64.46-1.12.82-1.44.36-.32.8-.47,1.32-.47.17,0,.33.01.47.04s.28.06.43.11l-.08,1.23c-.15-.05-.31-.09-.49-.12-.18-.04-.33-.05-.47-.05-.45,0-.82.13-1.1.39-.28.26-.48.62-.6,1.09-.13.47-.19,1.02-.19,1.66h-.38Z" style="fill:#000; stroke-width:0px;"/><path d="M176.05,62.26v-.87h4.88v.87h-4.88ZM179.48,69.23c-.42,0-.79-.08-1.12-.24-.33-.16-.59-.4-.78-.72-.19-.32-.29-.72-.29-1.2v-7.81h1.23v7.78c0,.79.37,1.18,1.1,1.18.22,0,.43-.02.64-.07.21-.05.44-.12.69-.22l.18.9c-.27.12-.54.21-.81.29s-.55.11-.84.11Z" style="fill:#000; stroke-width:0px;"/><path d="M183.14,69.04v-10.91h1.25v10.91h-1.25ZM188.58,69.04v-4.5c0-.73-.17-1.29-.52-1.67-.35-.38-.83-.57-1.43-.57-.46,0-.86.13-1.19.38-.34.25-.59.61-.78,1.08-.18.47-.27,1.02-.27,1.67h-.48c0-.89.12-1.65.35-2.28.23-.63.58-1.11,1.03-1.44.45-.33,1-.5,1.64-.5.6,0,1.12.13,1.55.4.43.27.76.65.99,1.16.23.5.34,1.1.34,1.78v4.5h-1.23Z" style="fill:#000; stroke-width:0px;"/><path d="M194.92,69.23c-.63,0-1.15-.11-1.56-.34-.41-.22-.72-.52-.92-.87s-.3-.73-.3-1.13c0-.52.13-.94.39-1.27.26-.32.61-.56,1.06-.71s.95-.23,1.51-.23c.4,0,.8.04,1.2.12.4.08.8.19,1.18.33v.79c-.32-.13-.68-.23-1.08-.3-.4-.07-.77-.11-1.11-.11-.51,0-.94.11-1.3.32-.35.21-.53.57-.53,1.08,0,.37.13.69.4.96.27.27.7.4,1.29.4.42,0,.79-.1,1.12-.29.33-.19.6-.44.79-.73.19-.29.29-.59.29-.88h.3c0,.51-.11.99-.33,1.42-.22.44-.54.79-.95,1.06-.41.27-.9.4-1.47.4ZM197.53,69.04l-.16-1.68v-3.28c0-.69-.15-1.18-.44-1.48s-.73-.45-1.32-.45c-.33,0-.63.05-.9.14s-.48.24-.64.45c-.16.2-.24.46-.24.77h-1.39c0-.55.14-1,.41-1.34.27-.34.65-.58,1.12-.74s1.02-.23,1.64-.23,1.11.1,1.56.3.81.51,1.06.94c.26.43.38.99.38,1.68v4.93h-1.09Z" style="fill:#000; stroke-width:0px;"/><path d="M201.6,69.04v-7.65h1.07l.18,1.76v5.89h-1.25ZM207.04,69.04v-4.5c0-.73-.17-1.29-.52-1.67-.35-.38-.83-.57-1.43-.57-.46,0-.86.13-1.19.38-.34.25-.59.61-.78,1.08-.18.47-.27,1.02-.27,1.67h-.48c0-.89.12-1.65.35-2.28.23-.63.58-1.11,1.03-1.44.45-.33,1-.5,1.64-.5.6,0,1.12.13,1.55.4.43.27.76.65.99,1.16.23.5.34,1.1.34,1.78v4.5h-1.23Z" style="fill:#000; stroke-width:0px;"/><path d="M217.81,69.23c-.74,0-1.36-.11-1.86-.32-.5-.21-.87-.5-1.13-.87-.26-.37-.39-.79-.41-1.28h1.2c.03.48.22.85.59,1.09s.86.36,1.49.36c.33,0,.63-.05.91-.16.28-.11.5-.25.66-.44.17-.19.25-.4.25-.63,0-.3-.11-.53-.33-.71-.22-.17-.57-.32-1.05-.45l-1.49-.48c-.65-.2-1.14-.48-1.48-.84s-.52-.78-.52-1.28c0-.62.27-1.12.82-1.49s1.26-.56,2.14-.56c.94,0,1.67.19,2.18.58.52.38.79.86.81,1.44h-1.23c-.05-.34-.22-.59-.51-.76-.29-.17-.71-.26-1.25-.26s-.92.12-1.21.35c-.29.23-.44.49-.44.77,0,.53.45.92,1.36,1.17l1.52.51c.66.2,1.16.46,1.51.78.35.32.52.73.52,1.22,0,.38-.13.75-.38,1.09s-.61.62-1.06.83-1,.32-1.63.32Z" style="fill:#000; stroke-width:0px;"/><path d="M223.47,72.8v-11.41h1.04l.21,1.79v9.62h-1.25ZM226.94,69.23c-.56,0-1.05-.13-1.46-.38s-.73-.63-.96-1.12c-.22-.49-.34-1.09-.34-1.8h.53c0,.47.1.88.3,1.2.2.33.45.57.77.74s.65.25,1.01.25c.38,0,.75-.11,1.1-.33.35-.22.64-.55.86-.98.22-.43.34-.96.34-1.6s-.1-1.13-.31-1.56c-.21-.43-.48-.76-.83-.99-.35-.23-.73-.35-1.15-.35-.36,0-.7.09-1.02.27-.32.18-.58.43-.78.77-.2.34-.3.76-.3,1.25h-.53c0-.74.12-1.36.37-1.87.25-.5.58-.88,1-1.14.42-.26.89-.38,1.42-.38.6,0,1.15.16,1.67.48.52.32.94.78,1.26,1.38.32.6.48,1.31.48,2.14s-.16,1.57-.48,2.17c-.32.6-.75,1.06-1.27,1.38-.52.32-1.08.48-1.69.48Z" style="fill:#000; stroke-width:0px;"/><path d="M235.47,69.23c-.66,0-1.25-.17-1.77-.51-.52-.34-.93-.81-1.23-1.41-.3-.6-.45-1.3-.45-2.08,0-.84.15-1.56.45-2.16.3-.6.71-1.07,1.23-1.39s1.11-.48,1.78-.48c.58,0,1.08.12,1.49.35.41.24.74.55.99.95s.43.85.52,1.36.13,1.03.08,1.56h-5.54v-.77h4.71l-.37.24c.02-.32,0-.63-.05-.95-.05-.31-.15-.6-.28-.87s-.33-.48-.58-.64c-.25-.16-.57-.24-.96-.24-.49,0-.9.12-1.23.38-.33.25-.58.58-.74.99-.17.41-.25.85-.25,1.32v.51c0,.53.08,1.01.24,1.43.16.42.41.75.73,1,.33.24.74.37,1.23.37s.9-.12,1.22-.36c.32-.24.51-.6.58-1.06h1.3c-.08.51-.26.94-.54,1.31s-.64.65-1.08.84-.93.3-1.48.3Z" style="fill:#000; stroke-width:0px;"/><path d="M241.03,69.04v-7.65h1.07l.18,1.76v5.89h-1.25ZM246.47,69.04v-4.5c0-.73-.17-1.29-.52-1.67-.35-.38-.83-.57-1.43-.57-.46,0-.86.13-1.19.38s-.59.61-.78,1.08c-.18.47-.27,1.02-.27,1.67h-.48c0-.89.12-1.65.35-2.28.23-.63.58-1.11,1.03-1.44.45-.33,1-.5,1.64-.5.6,0,1.12.13,1.55.4s.76.65.99,1.16c.23.5.34,1.1.34,1.78v4.5h-1.23Z" style="fill:#000; stroke-width:0px;"/><path d="M253.43,69.23c-.62,0-1.19-.17-1.7-.5-.52-.33-.93-.8-1.24-1.41-.31-.61-.46-1.32-.46-2.14s.15-1.52.46-2.12c.3-.6.71-1.06,1.21-1.38.5-.32,1.06-.48,1.66-.48.56,0,1.05.14,1.48.41s.75.66.99,1.18c.23.51.35,1.13.35,1.86h-.48c0-.51-.1-.93-.3-1.28-.2-.35-.46-.61-.78-.79-.32-.18-.66-.27-1.03-.27-.42,0-.8.12-1.14.35-.34.23-.62.56-.82.99-.21.43-.31.94-.31,1.54s.1,1.13.31,1.57c.21.44.48.77.82,1.01.34.23.72.35,1.14.35.35,0,.68-.09,1-.27s.59-.45.8-.8.31-.77.31-1.27h.48c0,.74-.12,1.37-.36,1.88-.24.51-.57.9-.98,1.17-.41.27-.88.4-1.39.4ZM255.89,69.04l-.21-1.79v-9.12h1.25v10.91h-1.04Z" style="fill:#000; stroke-width:0px;"/><path d="M260.87,59.58c-.26,0-.46-.07-.61-.22s-.22-.34-.22-.58.07-.42.22-.56.35-.21.61-.21.46.07.61.21c.15.14.22.33.22.56s-.07.43-.22.58c-.15.15-.35.22-.61.22ZM260.25,69.04v-7.66h1.25v7.66h-1.25Z" style="fill:#000; stroke-width:0px;"/><path d="M264.94,69.04v-7.65h1.07l.18,1.76v5.89h-1.25ZM270.38,69.04v-4.5c0-.73-.17-1.29-.52-1.67-.35-.38-.83-.57-1.43-.57-.46,0-.86.13-1.19.38s-.59.61-.78,1.08c-.18.47-.27,1.02-.27,1.67h-.48c0-.89.12-1.65.35-2.28.23-.63.58-1.11,1.03-1.44.45-.33,1-.5,1.64-.5.6,0,1.12.13,1.55.4s.76.65.99,1.16c.23.5.34,1.1.34,1.78v4.5h-1.23Z" style="fill:#000; stroke-width:0px;"/><path d="M277.3,72.97c-.78,0-1.46-.11-2.04-.33-.58-.22-1.02-.52-1.34-.89s-.48-.78-.48-1.23c0-.59.22-1.04.65-1.36.43-.31,1-.47,1.68-.47l.69.43c-.58,0-1.02.12-1.34.36-.31.24-.47.57-.47.98s.22.77.67,1.05c.45.29,1.1.43,1.97.43.64,0,1.2-.09,1.68-.28.48-.18.86-.42,1.13-.72.27-.29.4-.61.4-.96,0-.24-.09-.45-.26-.62-.18-.17-.45-.26-.81-.26h-2.98c-.52,0-.96-.08-1.34-.23-.38-.16-.67-.37-.87-.62s-.3-.54-.3-.84c0-.32.09-.59.27-.82.18-.22.42-.39.71-.51.29-.12.6-.18.94-.18l.24.46c-.16,0-.32.04-.48.11s-.3.18-.41.32c-.11.14-.16.32-.16.53,0,.25.1.45.3.62.2.17.57.25,1.1.25h2.98c.72,0,1.29.15,1.7.46.41.3.62.73.62,1.27,0,.5-.18.98-.54,1.45-.36.46-.87.84-1.54,1.13-.67.3-1.46.44-2.39.44ZM277.52,66.8c-.59,0-1.12-.12-1.59-.35s-.85-.56-1.12-.98c-.27-.42-.41-.91-.41-1.46s.14-1.05.41-1.47.65-.75,1.12-.98c.47-.23,1-.35,1.59-.35s1.09.12,1.56.35c.47.23.84.56,1.12.98s.42.91.42,1.47-.14,1.04-.42,1.46c-.28.42-.65.75-1.12.98-.47.23-.99.35-1.56.35ZM277.52,65.9c.59,0,1.04-.18,1.37-.54.33-.36.49-.82.49-1.36s-.16-1.02-.49-1.37c-.33-.35-.78-.52-1.37-.52s-1.04.18-1.37.52c-.33.35-.5.8-.5,1.37s.17,1,.5,1.36c.33.36.79.54,1.37.54ZM280.03,62.42l-.59-.24c0-.45.09-.84.26-1.18.18-.34.43-.6.75-.79s.71-.28,1.16-.28l-.1,1.23c-.48,0-.85.1-1.1.31s-.38.53-.38.96Z" style="fill:#000; stroke-width:0px;"/><path d="M286.35,62.26v-.87h4.88v.87h-4.88ZM289.78,69.23c-.42,0-.79-.08-1.12-.24-.33-.16-.59-.4-.78-.72s-.29-.72-.29-1.2v-7.81h1.23v7.78c0,.79.37,1.18,1.1,1.18.22,0,.43-.02.64-.07.21-.05.44-.12.69-.22l.18.9c-.27.12-.54.21-.81.29-.27.07-.55.11-.84.11Z" style="fill:#000; stroke-width:0px;"/><path d="M293.44,69.04v-10.91h1.25v10.91h-1.25ZM298.88,69.04v-4.5c0-.73-.17-1.29-.52-1.67-.35-.38-.83-.57-1.43-.57-.46,0-.86.13-1.19.38s-.59.61-.78,1.08c-.18.47-.27,1.02-.27,1.67h-.48c0-.89.12-1.65.35-2.28.23-.63.58-1.11,1.03-1.44.45-.33,1-.5,1.64-.5.6,0,1.12.13,1.55.4s.76.65.99,1.16c.23.5.34,1.1.34,1.78v4.5h-1.23Z" style="fill:#000; stroke-width:0px;"/><path d="M305.75,69.23c-.66,0-1.25-.17-1.77-.51-.52-.34-.93-.81-1.23-1.41-.3-.6-.45-1.3-.45-2.08,0-.84.15-1.56.45-2.16.3-.6.71-1.07,1.23-1.39s1.11-.48,1.78-.48c.58,0,1.08.12,1.49.35.41.24.74.55.99.95s.43.85.52,1.36.13,1.03.08,1.56h-5.54v-.77h4.71l-.37.24c.02-.32,0-.63-.05-.95-.05-.31-.15-.6-.28-.87s-.33-.48-.58-.64c-.25-.16-.57-.24-.96-.24-.49,0-.9.12-1.23.38-.33.25-.58.58-.74.99-.17.41-.25.85-.25,1.32v.51c0,.53.08,1.01.24,1.43.16.42.41.75.73,1,.33.24.74.37,1.23.37s.9-.12,1.22-.36c.32-.24.51-.6.58-1.06h1.3c-.08.51-.26.94-.54,1.31s-.64.65-1.08.84-.93.3-1.48.3Z" style="fill:#000; stroke-width:0px;"/><path d="M317.85,69.23c-.62,0-1.19-.17-1.7-.5-.52-.33-.93-.8-1.24-1.41-.31-.61-.46-1.32-.46-2.14s.15-1.52.46-2.12c.3-.6.71-1.06,1.21-1.38.5-.32,1.06-.48,1.66-.48.56,0,1.05.14,1.48.41s.75.66.99,1.18c.23.51.35,1.13.35,1.86h-.48c0-.51-.1-.93-.3-1.28-.2-.35-.46-.61-.78-.79-.32-.18-.66-.27-1.03-.27-.42,0-.8.12-1.14.35-.34.23-.62.56-.82.99-.21.43-.31.94-.31,1.54s.1,1.13.31,1.57c.21.44.48.77.82,1.01.34.23.72.35,1.14.35.35,0,.68-.09,1-.27s.59-.45.8-.8.31-.77.31-1.27h.48c0,.74-.12,1.37-.36,1.88-.24.51-.57.9-.98,1.17-.41.27-.88.4-1.39.4ZM320.31,69.04l-.21-1.79v-9.12h1.25v10.91h-1.04Z" style="fill:#000; stroke-width:0px;"/><path d="M326.72,69.23c-.63,0-1.15-.11-1.56-.34-.41-.22-.72-.52-.92-.87-.2-.36-.3-.73-.3-1.13,0-.52.13-.94.39-1.27.26-.32.61-.56,1.06-.71.45-.15.95-.23,1.51-.23.4,0,.8.04,1.2.12.4.08.8.19,1.18.33v.79c-.32-.13-.68-.23-1.08-.3-.4-.07-.77-.11-1.11-.11-.51,0-.94.11-1.3.32s-.53.57-.53,1.08c0,.37.13.69.4.96.27.27.7.4,1.29.4.42,0,.79-.1,1.12-.29.33-.19.6-.44.79-.73.19-.29.29-.59.29-.88h.3c0,.51-.11.99-.33,1.42-.22.44-.54.79-.95,1.06-.41.27-.9.4-1.47.4ZM329.33,69.04l-.16-1.68v-3.28c0-.69-.15-1.18-.44-1.48s-.73-.45-1.32-.45c-.33,0-.63.05-.9.14-.27.1-.48.24-.64.45-.16.2-.24.46-.24.77h-1.39c0-.55.14-1,.41-1.34.27-.34.65-.58,1.12-.74.48-.15,1.02-.23,1.64-.23s1.11.1,1.56.3c.45.2.81.51,1.06.94.26.43.38.99.38,1.68v4.93h-1.09Z" style="fill:#000; stroke-width:0px;"/><path d="M332.14,61.39h1.39l2.5,6.56h-.29l1.94-6.56h1.28l-2.88,9.19c-.24.77-.56,1.36-.96,1.78s-.91.62-1.54.62c-.34,0-.65-.05-.96-.14s-.61-.23-.93-.42v-1.15c.28.22.56.38.82.48.26.1.54.14.83.14.32,0,.59-.1.8-.3s.4-.46.54-.78c.14-.32.27-.65.37-1l.22-.77-3.14-7.65Z" style="fill:#000; stroke-width:0px;"/><path d="M54.65,86.39h1.3l1.95,6.38h-.16l1.9-6.02h1.04l1.89,6.03h-.14l1.95-6.4h1.25l-2.51,7.65h-1.22l-1.86-5.65h.19l-1.84,5.65h-1.22l-2.53-7.65Z" style="fill:#000; stroke-width:0px;"/><path d="M68.27,84.58c-.26,0-.46-.07-.61-.22-.15-.15-.22-.34-.22-.58s.07-.42.22-.56c.15-.14.35-.21.61-.21s.46.07.61.21c.15.14.22.33.22.56s-.07.43-.22.58c-.15.15-.35.22-.61.22ZM67.65,94.04v-7.66h1.25v7.66h-1.25Z" style="fill:#000; stroke-width:0px;"/><path d="M71.27,87.26v-.87h4.88v.87h-4.88ZM74.69,94.23c-.42,0-.79-.08-1.12-.24-.33-.16-.59-.4-.78-.72-.19-.32-.29-.72-.29-1.2v-7.81h1.23v7.78c0,.79.37,1.18,1.1,1.18.22,0,.43-.02.64-.07.21-.05.44-.12.69-.22l.18.9c-.27.12-.54.21-.81.29s-.55.11-.84.11Z" style="fill:#000; stroke-width:0px;"/><path d="M78.35,94.04v-10.91h1.25v10.91h-1.25ZM83.79,94.04v-4.5c0-.73-.17-1.29-.52-1.67-.35-.38-.83-.57-1.43-.57-.46,0-.86.13-1.19.38-.34.25-.59.61-.78,1.08-.18.47-.27,1.02-.27,1.67h-.48c0-.89.12-1.65.35-2.28.23-.63.58-1.11,1.03-1.44.45-.33,1-.5,1.64-.5.6,0,1.12.13,1.55.4.43.27.76.65.99,1.16.23.5.34,1.1.34,1.78v4.5h-1.23Z" style="fill:#000; stroke-width:0px;"/><path d="M90.74,87.26v-.87h4.88v.87h-4.88ZM94.16,94.23c-.42,0-.79-.08-1.12-.24-.33-.16-.59-.4-.78-.72-.19-.32-.29-.72-.29-1.2v-7.81h1.23v7.78c0,.79.37,1.18,1.1,1.18.22,0,.43-.02.64-.07.21-.05.44-.12.69-.22l.18.9c-.27.12-.54.21-.81.29s-.55.11-.84.11Z" style="fill:#000; stroke-width:0px;"/><path d="M97.83,94.04v-10.91h1.25v10.91h-1.25ZM103.27,94.04v-4.5c0-.73-.17-1.29-.52-1.67-.35-.38-.83-.57-1.43-.57-.46,0-.86.13-1.19.38-.34.25-.59.61-.78,1.08-.18.47-.27,1.02-.27,1.67h-.48c0-.89.12-1.65.35-2.28.23-.63.58-1.11,1.03-1.44.45-.33,1-.5,1.64-.5.6,0,1.12.13,1.55.4.43.27.76.65.99,1.16.23.5.34,1.1.34,1.78v4.5h-1.23Z" style="fill:#000; stroke-width:0px;"/><path d="M110.14,94.23c-.66,0-1.25-.17-1.77-.51-.52-.34-.93-.81-1.23-1.41-.3-.6-.45-1.3-.45-2.08,0-.84.15-1.56.45-2.16.3-.6.71-1.07,1.23-1.39s1.11-.48,1.78-.48c.58,0,1.08.12,1.49.35.41.24.74.55.99.95s.43.85.52,1.36.13,1.03.08,1.56h-5.54v-.77h4.71l-.37.24c.02-.32,0-.63-.05-.95-.05-.31-.15-.6-.28-.87s-.33-.48-.58-.64c-.25-.16-.57-.24-.96-.24-.49,0-.9.12-1.23.38-.33.25-.58.58-.74.99s-.25.85-.25,1.32v.51c0,.53.08,1.01.24,1.43.16.42.41.75.73,1,.33.24.74.37,1.23.37s.9-.12,1.22-.36c.32-.24.51-.6.58-1.06h1.3c-.08.51-.26.94-.54,1.31s-.64.65-1.08.84-.93.3-1.48.3Z" style="fill:#000; stroke-width:0px;"/><path d="M122.18,94.23c-.61,0-1.19-.17-1.72-.5-.53-.33-.96-.8-1.28-1.4-.33-.6-.49-1.31-.49-2.14s.16-1.56.49-2.16c.33-.6.75-1.05,1.28-1.37s1.1-.47,1.72-.47c.43,0,.82.07,1.16.2.34.13.64.31.9.54.26.23.47.49.64.78.17.29.29.6.37.92l-1.28.11c-.13-.44-.36-.79-.67-1.05-.31-.26-.69-.39-1.14-.39-.38,0-.73.11-1.07.32-.33.22-.6.54-.81.97s-.31.96-.31,1.6c0,.59.09,1.11.28,1.54.19.43.45.77.78,1.01.33.24.71.36,1.13.36.59,0,1.04-.14,1.35-.44s.46-.7.46-1.21h1.28c0,.53-.13,1.01-.38,1.42s-.61.74-1.07.98c-.46.24-1,.36-1.63.36Z" style="fill:#000; stroke-width:0px;"/><path d="M127.53,86.37h1.25v4.77c0,.64.16,1.13.47,1.46s.76.5,1.34.5c.48,0,.9-.13,1.25-.38s.63-.61.82-1.06c.19-.45.29-.97.29-1.55h.46c0,.86-.12,1.59-.37,2.2-.25.61-.6,1.07-1.05,1.4-.45.32-.98.48-1.59.48-.58,0-1.08-.11-1.51-.32-.43-.21-.77-.54-1.01-.97-.24-.43-.36-.98-.36-1.65v-4.87ZM132.95,86.37h1.25v7.66h-1.25v-7.66Z" style="fill:#000; stroke-width:0px;"/><path d="M136.37,87.26v-.87h4.88v.87h-4.88ZM139.79,94.23c-.42,0-.79-.08-1.12-.24-.33-.16-.59-.4-.78-.72-.19-.32-.29-.72-.29-1.2v-7.81h1.23v7.78c0,.79.37,1.18,1.1,1.18.22,0,.43-.02.64-.07.21-.05.44-.12.69-.22l.18.9c-.27.12-.54.21-.81.29s-.55.11-.84.11Z" style="fill:#000; stroke-width:0px;"/><path d="M146.11,94.23c-.66,0-1.25-.17-1.77-.51-.52-.34-.93-.81-1.23-1.41-.3-.6-.45-1.3-.45-2.08,0-.84.15-1.56.45-2.16.3-.6.71-1.07,1.23-1.39s1.11-.48,1.78-.48c.58,0,1.08.12,1.49.35.41.24.74.55.99.95s.43.85.52,1.36.13,1.03.08,1.56h-5.54v-.77h4.71l-.37.24c.02-.32,0-.63-.05-.95-.05-.31-.15-.6-.28-.87s-.33-.48-.58-.64c-.25-.16-.57-.24-.96-.24-.49,0-.9.12-1.23.38-.33.25-.58.58-.74.99s-.25.85-.25,1.32v.51c0,.53.08,1.01.24,1.43.16.42.41.75.73,1,.33.24.74.37,1.23.37s.9-.12,1.22-.36c.32-.24.51-.6.58-1.06h1.3c-.08.51-.26.94-.54,1.31s-.64.65-1.08.84-.93.3-1.48.3Z" style="fill:#000; stroke-width:0px;"/><path d="M154.42,94.23c-.74,0-1.36-.11-1.86-.32-.5-.21-.87-.5-1.13-.87-.26-.37-.39-.79-.41-1.28h1.2c.03.48.22.85.59,1.09s.86.36,1.49.36c.33,0,.63-.05.91-.16.28-.11.5-.25.66-.44.17-.19.25-.4.25-.63,0-.3-.11-.53-.33-.71-.22-.17-.57-.32-1.05-.45l-1.49-.48c-.65-.2-1.14-.48-1.48-.84s-.52-.78-.52-1.28c0-.62.27-1.12.82-1.49s1.26-.56,2.14-.56c.94,0,1.67.19,2.18.58.52.38.79.86.81,1.44h-1.23c-.05-.34-.22-.59-.51-.76-.29-.17-.71-.26-1.25-.26s-.92.12-1.21.35c-.29.23-.44.49-.44.77,0,.53.45.92,1.36,1.17l1.52.51c.66.2,1.16.46,1.51.78.35.32.52.73.52,1.22,0,.38-.13.75-.38,1.09s-.61.62-1.06.83-1,.32-1.63.32Z" style="fill:#000; stroke-width:0px;"/><path d="M159.01,87.26v-.87h4.88v.87h-4.88ZM162.43,94.23c-.42,0-.79-.08-1.12-.24-.33-.16-.59-.4-.78-.72-.19-.32-.29-.72-.29-1.2v-7.81h1.23v7.78c0,.79.37,1.18,1.1,1.18.22,0,.43-.02.64-.07.21-.05.44-.12.69-.22l.18.9c-.27.12-.54.21-.81.29s-.55.11-.84.11Z" style="fill:#000; stroke-width:0px;"/><path d="M172.66,94.23c-.69,0-1.3-.15-1.84-.46-.54-.3-.96-.75-1.27-1.35s-.46-1.33-.46-2.21.15-1.62.46-2.21c.31-.6.73-1.04,1.27-1.35.54-.3,1.15-.46,1.84-.46s1.29.15,1.83.46c.54.3.96.75,1.26,1.35.31.59.46,1.33.46,2.21s-.15,1.61-.46,2.21c-.31.6-.73,1.05-1.26,1.35-.54.3-1.15.46-1.83.46ZM172.63,93.14c.5,0,.92-.12,1.26-.36.35-.24.61-.57.79-1.01.18-.44.27-.96.27-1.56,0-.91-.19-1.63-.57-2.16-.38-.52-.94-.79-1.69-.79-.5,0-.92.12-1.27.36-.34.24-.61.58-.78,1.02-.18.44-.27.96-.27,1.57,0,.9.19,1.62.57,2.14s.94.79,1.68.79Z" style="fill:#000; stroke-width:0px;"/><path d="M177.81,87.26v-.87h4.08v.87h-4.08ZM179.06,94.04v-8.83c0-.51.1-.92.29-1.24.19-.32.46-.56.78-.71.33-.15.69-.23,1.1-.23.22,0,.44.02.67.05.23.03.45.08.68.14l-.24.99c-.16-.06-.32-.11-.48-.14-.16-.03-.31-.05-.45-.05-.17,0-.34.03-.51.1-.17.06-.31.18-.42.36s-.17.43-.17.76v8.82h-1.25Z" style="fill:#000; stroke-width:0px;"/><path d="M190.61,94.23c-.61,0-1.19-.17-1.72-.5-.53-.33-.96-.8-1.28-1.4-.33-.6-.49-1.31-.49-2.14s.16-1.56.49-2.16c.33-.6.75-1.05,1.28-1.37s1.1-.47,1.72-.47c.43,0,.82.07,1.16.2.34.13.64.31.9.54.26.23.47.49.64.78.17.29.29.6.37.92l-1.28.11c-.13-.44-.36-.79-.67-1.05-.31-.26-.69-.39-1.14-.39-.38,0-.73.11-1.07.32-.33.22-.6.54-.81.97s-.31.96-.31,1.6c0,.59.09,1.11.28,1.54.19.43.45.77.78,1.01.33.24.71.36,1.13.36.59,0,1.04-.14,1.35-.44s.46-.7.46-1.21h1.28c0,.53-.13,1.01-.38,1.42s-.61.74-1.07.98c-.46.24-1,.36-1.63.36Z" style="fill:#000; stroke-width:0px;"/><path d="M198.94,94.23c-.69,0-1.3-.15-1.84-.46-.54-.3-.96-.75-1.27-1.35s-.46-1.33-.46-2.21.15-1.62.46-2.21c.31-.6.73-1.04,1.27-1.35.54-.3,1.15-.46,1.84-.46s1.29.15,1.83.46c.54.3.96.75,1.26,1.35.31.59.46,1.33.46,2.21s-.15,1.61-.46,2.21c-.31.6-.73,1.05-1.26,1.35-.54.3-1.15.46-1.83.46ZM198.91,93.14c.5,0,.92-.12,1.26-.36.35-.24.61-.57.79-1.01.18-.44.27-.96.27-1.56,0-.91-.19-1.63-.57-2.16-.38-.52-.94-.79-1.69-.79-.5,0-.92.12-1.27.36-.34.24-.61.58-.78,1.02-.18.44-.27.96-.27,1.57,0,.9.19,1.62.57,2.14s.94.79,1.68.79Z" style="fill:#000; stroke-width:0px;"/><path d="M204.92,94.04v-7.65h1.07l.14,1.54c.24-.55.58-.98,1.01-1.28.43-.3.96-.45,1.56-.45s1.12.13,1.55.4c.43.27.76.65.99,1.16.23.5.34,1.1.34,1.78v4.5h-1.23v-4.5c0-.73-.17-1.29-.52-1.67-.35-.38-.83-.57-1.43-.57-.46,0-.86.13-1.19.38-.34.25-.59.61-.78,1.08-.18.47-.27,1.02-.27,1.67v3.62h-1.25ZM215.67,94.04v-4.5c0-.73-.17-1.29-.52-1.67-.35-.38-.82-.57-1.41-.57-.69,0-1.22.27-1.59.8-.37.54-.55,1.28-.55,2.22h-.58c0-.69.07-1.29.2-1.81s.33-.95.6-1.29c.26-.35.58-.6.95-.77.37-.17.8-.26,1.27-.26.6,0,1.12.13,1.55.4s.76.65.99,1.16.34,1.1.34,1.78v4.5h-1.25Z" style="fill:#000; stroke-width:0px;"/><path d="M219.89,97.8v-11.41h1.04l.21,1.79v9.62h-1.25ZM223.36,94.23c-.56,0-1.05-.13-1.46-.38s-.73-.63-.96-1.12c-.22-.49-.34-1.09-.34-1.8h.53c0,.47.1.88.3,1.2.2.33.45.57.77.74.32.17.66.25,1.01.25.38,0,.75-.11,1.1-.33s.64-.55.86-.98c.22-.43.34-.96.34-1.6s-.1-1.13-.31-1.56c-.21-.43-.48-.76-.83-.99-.35-.23-.73-.35-1.15-.35-.36,0-.7.09-1.02.27-.32.18-.58.43-.78.77-.2.34-.3.76-.3,1.25h-.53c0-.74.12-1.36.37-1.87.25-.5.58-.88,1-1.14.42-.26.89-.38,1.42-.38.6,0,1.15.16,1.67.48.52.32.94.78,1.26,1.38.32.6.48,1.31.48,2.14s-.16,1.57-.48,2.17c-.32.6-.75,1.06-1.27,1.38-.52.32-1.09.48-1.69.48Z" style="fill:#000; stroke-width:0px;"/><path d="M231.37,94.23c-.63,0-1.15-.11-1.56-.34-.41-.22-.72-.52-.92-.87-.2-.36-.3-.73-.3-1.13,0-.52.13-.94.39-1.27.26-.32.61-.56,1.06-.71.45-.15.95-.23,1.51-.23.4,0,.8.04,1.2.12.4.08.8.19,1.18.33v.79c-.32-.13-.68-.23-1.08-.3-.4-.07-.77-.11-1.11-.11-.51,0-.94.11-1.3.32s-.53.57-.53,1.08c0,.37.13.69.4.96.27.27.7.4,1.29.4.42,0,.79-.1,1.12-.29.33-.19.6-.44.79-.73.19-.29.29-.59.29-.88h.3c0,.51-.11.99-.33,1.42-.22.44-.54.79-.95,1.06-.41.27-.9.4-1.47.4ZM233.97,94.04l-.16-1.68v-3.28c0-.69-.15-1.18-.44-1.48s-.73-.45-1.32-.45c-.33,0-.63.05-.9.14-.27.1-.48.24-.64.45-.16.2-.24.46-.24.77h-1.39c0-.55.14-1,.41-1.34.27-.34.65-.58,1.12-.74.48-.15,1.02-.23,1.64-.23s1.11.1,1.56.3c.45.2.81.51,1.06.94.26.43.38.99.38,1.68v4.93h-1.09Z" style="fill:#000; stroke-width:0px;"/><path d="M238.05,94.04v-7.65h1.07l.18,1.76v5.89h-1.25ZM243.49,94.04v-4.5c0-.73-.17-1.29-.52-1.67-.35-.38-.83-.57-1.43-.57-.46,0-.86.13-1.19.38s-.59.61-.78,1.08c-.18.47-.27,1.02-.27,1.67h-.48c0-.89.12-1.65.35-2.28.23-.63.58-1.11,1.03-1.44.45-.33,1-.5,1.64-.5.6,0,1.12.13,1.55.4s.76.65.99,1.16c.23.5.34,1.1.34,1.78v4.5h-1.23Z" style="fill:#000; stroke-width:0px;"/><path d="M248.41,84.58c-.26,0-.46-.07-.61-.22s-.22-.34-.22-.58.07-.42.22-.56.35-.21.61-.21.46.07.61.21c.15.14.22.33.22.56s-.07.43-.22.58c-.15.15-.35.22-.61.22ZM247.78,94.04v-7.66h1.25v7.66h-1.25Z" style="fill:#000; stroke-width:0px;"/><path d="M255.24,94.23c-.69,0-1.3-.15-1.84-.46-.54-.3-.96-.75-1.27-1.35-.31-.6-.46-1.33-.46-2.21s.15-1.62.46-2.21c.31-.6.73-1.04,1.27-1.35.54-.3,1.15-.46,1.84-.46s1.29.15,1.83.46c.54.3.96.75,1.26,1.35.31.59.46,1.33.46,2.21s-.15,1.61-.46,2.21-.73,1.05-1.26,1.35-1.15.46-1.83.46ZM255.21,93.14c.5,0,.92-.12,1.26-.36.35-.24.61-.57.79-1.01s.27-.96.27-1.56c0-.91-.19-1.63-.57-2.16-.38-.52-.94-.79-1.69-.79-.5,0-.92.12-1.27.36-.34.24-.61.58-.78,1.02-.18.44-.27.96-.27,1.57,0,.9.19,1.62.57,2.14s.94.79,1.68.79Z" style="fill:#000; stroke-width:0px;"/><path d="M261.21,94.04v-7.65h1.07l.18,1.76v5.89h-1.25ZM266.65,94.04v-4.5c0-.73-.17-1.29-.52-1.67-.35-.38-.83-.57-1.43-.57-.46,0-.86.13-1.19.38s-.59.61-.78,1.08c-.18.47-.27,1.02-.27,1.67h-.48c0-.89.12-1.65.35-2.28.23-.63.58-1.11,1.03-1.44.45-.33,1-.5,1.64-.5.6,0,1.12.13,1.55.4s.76.65.99,1.16c.23.5.34,1.1.34,1.78v4.5h-1.23Z" style="fill:#000; stroke-width:0px;"/><path d="M273.62,94.23c-.74,0-1.36-.11-1.86-.32-.5-.21-.87-.5-1.13-.87-.26-.37-.39-.79-.41-1.28h1.2c.03.48.22.85.59,1.09.37.24.86.36,1.49.36.33,0,.63-.05.91-.16.28-.11.5-.25.66-.44.17-.19.25-.4.25-.63,0-.3-.11-.53-.33-.71-.22-.17-.57-.32-1.05-.45l-1.49-.48c-.65-.2-1.14-.48-1.48-.84-.34-.36-.52-.78-.52-1.28,0-.62.27-1.12.82-1.49.54-.37,1.26-.56,2.14-.56.94,0,1.67.19,2.18.58.52.38.79.86.81,1.44h-1.23c-.05-.34-.22-.59-.51-.76-.29-.17-.71-.26-1.25-.26s-.92.12-1.21.35-.44.49-.44.77c0,.53.45.92,1.36,1.17l1.52.51c.66.2,1.16.46,1.51.78.35.32.52.73.52,1.22,0,.38-.13.75-.38,1.09s-.61.62-1.06.83c-.46.21-1,.32-1.63.32Z" style="fill:#000; stroke-width:0px;"/><path d="M280.49,91.48v-.72c0-.46.05-.85.15-1.14s.26-.56.49-.78c.23-.22.54-.44.94-.66.36-.19.64-.37.86-.54.21-.17.37-.35.46-.54s.14-.43.14-.7c0-.42-.17-.76-.51-1.04-.34-.28-.8-.42-1.4-.42-.66,0-1.16.13-1.5.39-.35.26-.57.62-.66,1.08h-1.33c.07-.78.4-1.41.98-1.89s1.4-.72,2.48-.72c.68,0,1.27.12,1.76.36.49.24.87.55,1.14.95.26.4.4.84.4,1.32,0,.55-.14,1.01-.42,1.38-.28.37-.73.72-1.34,1.05-.36.2-.64.38-.84.55s-.35.36-.44.58c-.09.21-.13.5-.13.84v.64h-1.23ZM281.13,94.23c-.27,0-.49-.09-.66-.26-.18-.17-.26-.38-.26-.63s.09-.47.26-.65c.17-.18.39-.27.66-.27s.49.09.68.27c.19.18.28.39.28.64s-.09.46-.28.63c-.19.18-.41.27-.68.27Z" style="fill:#000; stroke-width:0px;"/><path d="M31.96,133.99h1.41l2.61,8.94h-.37l2.67-7.9h.85l2.64,7.84h-.35l2.99-8.88h1.39l-3.55,10.05h-1.31l-2.32-6.82h.24l-2.4,6.82h-1.31l-3.18-10.05Z" style="fill:#000; stroke-width:0px;"/><path d="M49.79,144.23c-.66,0-1.25-.17-1.77-.51-.52-.34-.93-.81-1.23-1.41-.3-.6-.45-1.3-.45-2.08,0-.84.15-1.56.45-2.16.3-.6.71-1.07,1.23-1.39s1.11-.48,1.78-.48c.58,0,1.08.12,1.49.35.41.24.74.55.99.95s.43.85.52,1.36.13,1.03.08,1.56h-5.54v-.77h4.71l-.37.24c.02-.32,0-.63-.05-.95-.05-.31-.15-.6-.28-.87s-.33-.48-.58-.64c-.25-.16-.57-.24-.96-.24-.49,0-.9.12-1.23.38-.33.25-.58.58-.74.99s-.25.85-.25,1.32v.51c0,.53.08,1.01.24,1.43.16.42.41.75.73,1,.33.24.74.37,1.23.37s.9-.12,1.22-.36c.32-.24.51-.6.58-1.06h1.3c-.08.51-.26.94-.54,1.31s-.64.65-1.08.84-.93.3-1.48.3Z" style="fill:#000; stroke-width:0px;"/><path d="M58.08,137.26v-.87h4.88v.87h-4.88ZM61.51,144.23c-.42,0-.79-.08-1.12-.24-.33-.16-.59-.4-.78-.72-.19-.32-.29-.72-.29-1.2v-7.81h1.23v7.78c0,.79.37,1.18,1.1,1.18.22,0,.43-.02.64-.07.21-.05.44-.12.69-.22l.18.9c-.27.12-.54.21-.81.29s-.55.11-.84.11Z" style="fill:#000; stroke-width:0px;"/><path d="M65.17,144.04v-7.66h1.25v7.66h-1.25ZM66.03,140.58c0-.97.09-1.78.28-2.42.19-.64.46-1.12.82-1.44.36-.32.8-.47,1.32-.47.17,0,.33.01.47.04s.28.06.43.11l-.08,1.23c-.15-.05-.31-.09-.49-.12-.18-.04-.33-.05-.47-.05-.45,0-.82.13-1.1.39-.28.26-.48.62-.6,1.09-.13.47-.19,1.02-.19,1.66h-.38Z" style="fill:#000; stroke-width:0px;"/><path d="M73.61,144.23c-.66,0-1.25-.17-1.77-.51-.52-.34-.93-.81-1.23-1.41-.3-.6-.45-1.3-.45-2.08,0-.84.15-1.56.45-2.16.3-.6.71-1.07,1.23-1.39s1.11-.48,1.78-.48c.58,0,1.08.12,1.49.35.41.24.74.55.99.95s.43.85.52,1.36.13,1.03.08,1.56h-5.54v-.77h4.71l-.37.24c.02-.32,0-.63-.05-.95-.05-.31-.15-.6-.28-.87s-.33-.48-.58-.64c-.25-.16-.57-.24-.96-.24-.49,0-.9.12-1.23.38-.33.25-.58.58-.74.99s-.25.85-.25,1.32v.51c0,.53.08,1.01.24,1.43.16.42.41.75.73,1,.33.24.74.37,1.23.37s.9-.12,1.22-.36c.32-.24.51-.6.58-1.06h1.3c-.08.51-.26.94-.54,1.31s-.64.65-1.08.84-.93.3-1.48.3Z" style="fill:#000; stroke-width:0px;"/><path d="M81.3,144.23c-.63,0-1.15-.11-1.56-.34-.41-.22-.72-.52-.92-.87s-.3-.73-.3-1.13c0-.52.13-.94.39-1.27.26-.32.61-.56,1.06-.71s.95-.23,1.51-.23c.4,0,.8.04,1.2.12.4.08.8.19,1.18.33v.79c-.32-.13-.68-.23-1.08-.3-.4-.07-.77-.11-1.11-.11-.51,0-.94.11-1.3.32-.35.21-.53.57-.53,1.08,0,.37.13.69.4.96.27.27.7.4,1.29.4.42,0,.79-.1,1.12-.29.33-.19.6-.44.79-.73.19-.29.29-.59.29-.88h.3c0,.51-.11.99-.33,1.42-.22.44-.54.79-.95,1.06-.41.27-.9.4-1.47.4ZM83.91,144.04l-.16-1.68v-3.28c0-.69-.15-1.18-.44-1.48s-.73-.45-1.32-.45c-.33,0-.63.05-.9.14s-.48.24-.64.45c-.16.2-.24.46-.24.77h-1.39c0-.55.14-1,.41-1.34.27-.34.65-.58,1.12-.74s1.02-.23,1.64-.23,1.11.1,1.56.3.81.51,1.06.94c.26.43.38.99.38,1.68v4.93h-1.09Z" style="fill:#000; stroke-width:0px;"/><path d="M86.91,137.26v-.87h4.88v.87h-4.88ZM90.33,144.23c-.42,0-.79-.08-1.12-.24-.33-.16-.59-.4-.78-.72-.19-.32-.29-.72-.29-1.2v-7.81h1.23v7.78c0,.79.37,1.18,1.1,1.18.22,0,.43-.02.64-.07.21-.05.44-.12.69-.22l.18.9c-.27.12-.54.21-.81.29s-.55.11-.84.11Z" style="fill:#000; stroke-width:0px;"/><path d="M100.45,144.23c-.66,0-1.25-.17-1.77-.51-.52-.34-.93-.81-1.23-1.41-.3-.6-.45-1.3-.45-2.08,0-.84.15-1.56.45-2.16.3-.6.71-1.07,1.23-1.39s1.11-.48,1.78-.48c.58,0,1.08.12,1.49.35.41.24.74.55.99.95s.43.85.52,1.36.13,1.03.08,1.56h-5.54v-.77h4.71l-.37.24c.02-.32,0-.63-.05-.95-.05-.31-.15-.6-.28-.87s-.33-.48-.58-.64c-.25-.16-.57-.24-.96-.24-.49,0-.9.12-1.23.38-.33.25-.58.58-.74.99s-.25.85-.25,1.32v.51c0,.53.08,1.01.24,1.43.16.42.41.75.73,1,.33.24.74.37,1.23.37s.9-.12,1.22-.36c.32-.24.51-.6.58-1.06h1.3c-.08.51-.26.94-.54,1.31s-.64.65-1.08.84-.93.3-1.48.3Z" style="fill:#000; stroke-width:0px;"/><path d="M108.14,144.23c-.63,0-1.15-.11-1.56-.34-.41-.22-.72-.52-.92-.87s-.3-.73-.3-1.13c0-.52.13-.94.39-1.27.26-.32.61-.56,1.06-.71s.95-.23,1.51-.23c.4,0,.8.04,1.2.12.4.08.8.19,1.18.33v.79c-.32-.13-.68-.23-1.08-.3-.4-.07-.77-.11-1.11-.11-.51,0-.94.11-1.3.32-.35.21-.53.57-.53,1.08,0,.37.13.69.4.96.27.27.7.4,1.29.4.42,0,.79-.1,1.12-.29.33-.19.6-.44.79-.73.19-.29.29-.59.29-.88h.3c0,.51-.11.99-.33,1.42-.22.44-.54.79-.95,1.06-.41.27-.9.4-1.47.4ZM110.75,144.04l-.16-1.68v-3.28c0-.69-.15-1.18-.44-1.48s-.73-.45-1.32-.45c-.33,0-.63.05-.9.14s-.48.24-.64.45c-.16.2-.24.46-.24.77h-1.39c0-.55.14-1,.41-1.34.27-.34.65-.58,1.12-.74s1.02-.23,1.64-.23,1.11.1,1.56.3.81.51,1.06.94c.26.43.38.99.38,1.68v4.93h-1.09Z" style="fill:#000; stroke-width:0px;"/><path d="M117.51,144.23c-.61,0-1.19-.17-1.72-.5-.53-.33-.96-.8-1.28-1.4-.33-.6-.49-1.31-.49-2.14s.16-1.56.49-2.16c.33-.6.75-1.05,1.28-1.37s1.1-.47,1.72-.47c.43,0,.82.07,1.16.2.34.13.64.31.9.54.26.23.47.49.64.78.17.29.29.6.37.92l-1.28.11c-.13-.44-.36-.79-.67-1.05-.31-.26-.69-.39-1.14-.39-.38,0-.73.11-1.07.32-.33.22-.6.54-.81.97s-.31.96-.31,1.6c0,.59.09,1.11.28,1.54.19.43.45.77.78,1.01.33.24.71.36,1.13.36.59,0,1.04-.14,1.35-.44s.46-.7.46-1.21h1.28c0,.53-.13,1.01-.38,1.42s-.61.74-1.07.98c-.46.24-1,.36-1.63.36Z" style="fill:#000; stroke-width:0px;"/><path d="M123.07,144.04v-10.91h1.25v10.91h-1.25ZM128.51,144.04v-4.5c0-.73-.17-1.29-.52-1.67-.35-.38-.83-.57-1.43-.57-.46,0-.86.13-1.19.38-.34.25-.59.61-.78,1.08-.18.47-.27,1.02-.27,1.67h-.48c0-.89.12-1.65.35-2.28.23-.63.58-1.11,1.03-1.44.45-.33,1-.5,1.64-.5.6,0,1.12.13,1.55.4.43.27.76.65.99,1.16.23.5.34,1.1.34,1.78v4.5h-1.23Z" style="fill:#000; stroke-width:0px;"/><path d="M135.2,136.39h1.42l2.4,6.58h-.18l2.4-6.58h1.42l-3.06,7.65h-1.36l-3.06-7.65Z" style="fill:#000; stroke-width:0px;"/><path d="M145.27,134.58c-.26,0-.46-.07-.61-.22-.15-.15-.22-.34-.22-.58s.07-.42.22-.56c.15-.14.35-.21.61-.21s.46.07.61.21c.15.14.22.33.22.56s-.07.43-.22.58c-.15.15-.35.22-.61.22ZM144.65,144.04v-7.66h1.25v7.66h-1.25Z" style="fill:#000; stroke-width:0px;"/><path d="M152.09,144.23c-.74,0-1.36-.11-1.86-.32-.5-.21-.87-.5-1.13-.87-.26-.37-.39-.79-.41-1.28h1.2c.03.48.22.85.59,1.09s.86.36,1.49.36c.33,0,.63-.05.91-.16.28-.11.5-.25.66-.44.17-.19.25-.4.25-.63,0-.3-.11-.53-.33-.71-.22-.17-.57-.32-1.05-.45l-1.49-.48c-.65-.2-1.14-.48-1.48-.84s-.52-.78-.52-1.28c0-.62.27-1.12.82-1.49s1.26-.56,2.14-.56c.94,0,1.67.19,2.18.58.52.38.79.86.81,1.44h-1.23c-.05-.34-.22-.59-.51-.76-.29-.17-.71-.26-1.25-.26s-.92.12-1.21.35c-.29.23-.44.49-.44.77,0,.53.45.92,1.36,1.17l1.52.51c.66.2,1.16.46,1.51.78.35.32.52.73.52,1.22,0,.38-.13.75-.38,1.09s-.61.62-1.06.83-1,.32-1.63.32Z" style="fill:#000; stroke-width:0px;"/><path d="M158.45,134.58c-.26,0-.46-.07-.61-.22-.15-.15-.22-.34-.22-.58s.07-.42.22-.56c.15-.14.35-.21.61-.21s.46.07.61.21c.15.14.22.33.22.56s-.07.43-.22.58c-.15.15-.35.22-.61.22ZM157.82,144.04v-7.66h1.25v7.66h-1.25Z" style="fill:#000; stroke-width:0px;"/><path d="M161.44,137.26v-.87h4.88v.87h-4.88ZM164.86,144.23c-.42,0-.79-.08-1.12-.24-.33-.16-.59-.4-.78-.72-.19-.32-.29-.72-.29-1.2v-7.81h1.23v7.78c0,.79.37,1.18,1.1,1.18.22,0,.43-.02.64-.07.21-.05.44-.12.69-.22l.18.9c-.27.12-.54.21-.81.29s-.55.11-.84.11Z" style="fill:#000; stroke-width:0px;"/><path d="M172.33,144.04v-10.91h1.25v10.91h-1.25Z" style="fill:#000; stroke-width:0px;"/><path d="M177.51,134.58c-.26,0-.46-.07-.61-.22-.15-.15-.22-.34-.22-.58s.07-.42.22-.56c.15-.14.35-.21.61-.21s.46.07.61.21c.15.14.22.33.22.56s-.07.43-.22.58c-.15.15-.35.22-.61.22ZM176.89,144.04v-7.66h1.25v7.66h-1.25Z" style="fill:#000; stroke-width:0px;"/><path d="M181.58,144.04v-10.91h1.25v10.91h-1.25ZM182.63,139.66l3.9-3.27h1.74l-5.65,4.59v-1.33ZM186.92,144.04l-3.63-4.83,1.26-.22,3.9,5.05h-1.54Z" style="fill:#000; stroke-width:0px;"/><path d="M193.25,144.23c-.66,0-1.25-.17-1.77-.51-.52-.34-.93-.81-1.23-1.41-.3-.6-.45-1.3-.45-2.08,0-.84.15-1.56.45-2.16.3-.6.71-1.07,1.23-1.39s1.11-.48,1.78-.48c.58,0,1.08.12,1.49.35.41.24.74.55.99.95s.43.85.52,1.36.13,1.03.08,1.56h-5.54v-.77h4.71l-.37.24c.02-.32,0-.63-.05-.95-.05-.31-.15-.6-.28-.87s-.33-.48-.58-.64c-.25-.16-.57-.24-.96-.24-.49,0-.9.12-1.23.38-.33.25-.58.58-.74.99s-.25.85-.25,1.32v.51c0,.53.08,1.01.24,1.43.16.42.41.75.73,1,.33.24.74.37,1.23.37s.9-.12,1.22-.36c.32-.24.51-.6.58-1.06h1.3c-.08.51-.26.94-.54,1.31s-.64.65-1.08.84-.93.3-1.48.3Z" style="fill:#000; stroke-width:0px;"/><path d="M205.3,144.23c-.61,0-1.19-.17-1.72-.5-.53-.33-.96-.8-1.28-1.4-.33-.6-.49-1.31-.49-2.14s.16-1.56.49-2.16c.33-.6.75-1.05,1.28-1.37s1.1-.47,1.72-.47c.43,0,.82.07,1.16.2.34.13.64.31.9.54.26.23.47.49.64.78.17.29.29.6.37.92l-1.28.11c-.13-.44-.36-.79-.67-1.05-.31-.26-.69-.39-1.14-.39-.38,0-.73.11-1.07.32-.33.22-.6.54-.81.97s-.31.96-.31,1.6c0,.59.09,1.11.28,1.54.19.43.45.77.78,1.01.33.24.71.36,1.13.36.59,0,1.04-.14,1.35-.44s.46-.7.46-1.21h1.28c0,.53-.13,1.01-.38,1.42s-.61.74-1.07.98c-.46.24-1,.36-1.63.36Z" style="fill:#000; stroke-width:0px;"/><path d="M210.86,144.04v-10.91h1.25v10.91h-1.25ZM216.3,144.04v-4.5c0-.73-.17-1.29-.52-1.67-.35-.38-.83-.57-1.43-.57-.46,0-.86.13-1.19.38-.34.25-.59.61-.78,1.08-.18.47-.27,1.02-.27,1.67h-.48c0-.89.12-1.65.35-2.28.23-.63.58-1.11,1.03-1.44.45-.33,1-.5,1.64-.5.6,0,1.12.13,1.55.4.43.27.76.65.99,1.16.23.5.34,1.1.34,1.78v4.5h-1.23Z" style="fill:#000; stroke-width:0px;"/><path d="M223.17,144.23c-.66,0-1.25-.17-1.77-.51-.52-.34-.93-.81-1.23-1.41-.3-.6-.45-1.3-.45-2.08,0-.84.15-1.56.45-2.16.3-.6.71-1.07,1.23-1.39s1.11-.48,1.78-.48c.58,0,1.08.12,1.49.35.41.24.74.55.99.95s.43.85.52,1.36.13,1.03.08,1.56h-5.54v-.77h4.71l-.37.24c.02-.32,0-.63-.05-.95-.05-.31-.15-.6-.28-.87s-.33-.48-.58-.64c-.25-.16-.57-.24-.96-.24-.49,0-.9.12-1.23.38-.33.25-.58.58-.74.99s-.25.85-.25,1.32v.51c0,.53.08,1.01.24,1.43.16.42.41.75.73,1,.33.24.74.37,1.23.37s.9-.12,1.22-.36c.32-.24.51-.6.58-1.06h1.3c-.08.51-.26.94-.54,1.31s-.64.65-1.08.84-.93.3-1.48.3Z" style="fill:#000; stroke-width:0px;"/><path d="M231.42,144.23c-.61,0-1.19-.17-1.72-.5-.53-.33-.96-.8-1.28-1.4-.33-.6-.49-1.31-.49-2.14s.16-1.56.49-2.16c.33-.6.75-1.05,1.28-1.37s1.1-.47,1.72-.47c.43,0,.82.07,1.16.2.34.13.64.31.9.54.26.23.47.49.64.78.17.29.29.6.37.92l-1.28.11c-.13-.44-.36-.79-.67-1.05-.31-.26-.69-.39-1.14-.39-.38,0-.73.11-1.07.32-.33.22-.6.54-.81.97s-.31.96-.31,1.6c0,.59.09,1.11.28,1.54.19.43.45.77.78,1.01.33.24.71.36,1.13.36.59,0,1.04-.14,1.35-.44.31-.29.46-.7.46-1.21h1.28c0,.53-.13,1.01-.38,1.42-.25.42-.61.74-1.07.98-.46.24-1,.36-1.63.36Z" style="fill:#000; stroke-width:0px;"/><path d="M236.99,144.04v-10.91h1.25v10.91h-1.25ZM238.05,139.66l3.9-3.27h1.74l-5.65,4.59v-1.33ZM242.33,144.04l-3.63-4.83,1.26-.22,3.9,5.05h-1.54Z" style="fill:#000; stroke-width:0px;"/><path d="M246.71,134.58c-.26,0-.46-.07-.61-.22s-.22-.34-.22-.58.07-.42.22-.56.35-.21.61-.21.46.07.61.21c.15.14.22.33.22.56s-.07.43-.22.58c-.15.15-.35.22-.61.22ZM246.09,144.04v-7.66h1.25v7.66h-1.25Z" style="fill:#000; stroke-width:0px;"/><path d="M250.77,144.04v-7.65h1.07l.18,1.76v5.89h-1.25ZM256.21,144.04v-4.5c0-.73-.17-1.29-.52-1.67-.35-.38-.83-.57-1.43-.57-.46,0-.86.13-1.19.38s-.59.61-.78,1.08c-.18.47-.27,1.02-.27,1.67h-.48c0-.89.12-1.65.35-2.28.23-.63.58-1.11,1.03-1.44.45-.33,1-.5,1.64-.5.6,0,1.12.13,1.55.4s.76.65.99,1.16c.23.5.34,1.1.34,1.78v4.5h-1.23Z" style="fill:#000; stroke-width:0px;"/><path d="M263.13,147.97c-.78,0-1.46-.11-2.04-.33-.58-.22-1.02-.52-1.34-.89s-.48-.78-.48-1.23c0-.59.22-1.04.65-1.36.43-.31,1-.47,1.68-.47l.69.43c-.58,0-1.02.12-1.34.36-.31.24-.47.57-.47.98s.22.77.67,1.05c.45.29,1.1.43,1.97.43.64,0,1.2-.09,1.68-.28.48-.18.86-.42,1.13-.72.27-.29.4-.61.4-.96,0-.24-.09-.45-.26-.62-.18-.17-.45-.26-.81-.26h-2.98c-.52,0-.96-.08-1.34-.23-.38-.16-.67-.37-.87-.62s-.3-.54-.3-.84c0-.32.09-.59.27-.82.18-.22.42-.39.71-.51.29-.12.6-.18.94-.18l.24.46c-.16,0-.32.04-.48.11s-.3.18-.41.32c-.11.14-.16.32-.16.53,0,.25.1.45.3.62.2.17.57.25,1.1.25h2.98c.72,0,1.29.15,1.7.46.41.3.62.73.62,1.27,0,.5-.18.98-.54,1.45-.36.46-.87.84-1.54,1.13-.67.3-1.46.44-2.39.44ZM263.36,141.8c-.59,0-1.12-.12-1.59-.35s-.85-.56-1.12-.98c-.27-.42-.41-.91-.41-1.46s.14-1.05.41-1.47.65-.75,1.12-.98c.47-.23,1-.35,1.59-.35s1.09.12,1.56.35c.47.23.84.56,1.12.98s.42.91.42,1.47-.14,1.04-.42,1.46c-.28.42-.65.75-1.12.98-.47.23-.99.35-1.56.35ZM263.36,140.9c.59,0,1.04-.18,1.37-.54.33-.36.49-.82.49-1.36s-.16-1.02-.49-1.37c-.33-.35-.78-.52-1.37-.52s-1.04.18-1.37.52c-.33.35-.5.8-.5,1.37s.17,1,.5,1.36c.33.36.79.54,1.37.54ZM265.87,137.42l-.59-.24c0-.45.09-.84.26-1.18.18-.34.43-.6.75-.79s.71-.28,1.16-.28l-.1,1.23c-.48,0-.85.1-1.1.31s-.38.53-.38.96Z" style="fill:#000; stroke-width:0px;"/><path d="M273.96,134.58c-.26,0-.46-.07-.61-.22s-.22-.34-.22-.58.07-.42.22-.56.35-.21.61-.21.46.07.61.21c.15.14.22.33.22.56s-.07.43-.22.58c-.15.15-.35.22-.61.22ZM273.34,144.04v-7.66h1.25v7.66h-1.25Z" style="fill:#000; stroke-width:0px;"/><path d="M278.03,144.04v-7.65h1.07l.18,1.76v5.89h-1.25ZM283.47,144.04v-4.5c0-.73-.17-1.29-.52-1.67-.35-.38-.83-.57-1.43-.57-.46,0-.86.13-1.19.38s-.59.61-.78,1.08c-.18.47-.27,1.02-.27,1.67h-.48c0-.89.12-1.65.35-2.28.23-.63.58-1.11,1.03-1.44.45-.33,1-.5,1.64-.5.6,0,1.12.13,1.55.4s.76.65.99,1.16c.23.5.34,1.1.34,1.78v4.5h-1.23Z" style="fill:#000; stroke-width:0px;"/><path d="M294.25,144.23c-.69,0-1.3-.15-1.84-.46-.54-.3-.96-.75-1.27-1.35-.31-.6-.46-1.33-.46-2.21s.15-1.62.46-2.21c.31-.6.73-1.04,1.27-1.35.54-.3,1.15-.46,1.84-.46s1.29.15,1.83.46c.54.3.96.75,1.26,1.35.31.59.46,1.33.46,2.21s-.15,1.61-.46,2.21-.73,1.05-1.26,1.35-1.15.46-1.83.46ZM294.22,143.14c.5,0,.92-.12,1.26-.36.35-.24.61-.57.79-1.01s.27-.96.27-1.56c0-.91-.19-1.63-.57-2.16-.38-.52-.94-.79-1.69-.79-.5,0-.92.12-1.27.36-.34.24-.61.58-.78,1.02-.18.44-.27.96-.27,1.57,0,.9.19,1.62.57,2.14s.94.79,1.68.79Z" style="fill:#000; stroke-width:0px;"/><path d="M300.23,144.04v-7.65h1.07l.18,1.76v5.89h-1.25ZM305.67,144.04v-4.5c0-.73-.17-1.29-.52-1.67-.35-.38-.83-.57-1.43-.57-.46,0-.86.13-1.19.38s-.59.61-.78,1.08c-.18.47-.27,1.02-.27,1.67h-.48c0-.89.12-1.65.35-2.28.23-.63.58-1.11,1.03-1.44.45-.33,1-.5,1.64-.5.6,0,1.12.13,1.55.4s.76.65.99,1.16c.23.5.34,1.1.34,1.78v4.5h-1.23Z" style="fill:#000; stroke-width:0px;"/><path d="M7.93,172.97c-.78,0-1.46-.11-2.04-.33-.58-.22-1.02-.52-1.34-.89s-.48-.78-.48-1.23c0-.59.22-1.04.65-1.36.43-.31,1-.47,1.68-.47l.69.43c-.58,0-1.02.12-1.34.36-.31.24-.47.57-.47.98s.22.77.67,1.05c.45.29,1.1.43,1.97.43.64,0,1.2-.09,1.68-.28s.86-.42,1.13-.72c.27-.29.4-.61.4-.96,0-.24-.09-.45-.26-.62-.18-.17-.45-.26-.81-.26h-2.98c-.52,0-.96-.08-1.34-.23-.38-.16-.67-.37-.87-.62-.2-.26-.3-.54-.3-.84,0-.32.09-.59.27-.82.18-.22.42-.39.71-.51.29-.12.6-.18.94-.18l.24.46c-.16,0-.32.04-.48.11-.16.07-.3.18-.41.32-.11.14-.16.32-.16.53,0,.25.1.45.3.62.2.17.57.25,1.1.25h2.98c.72,0,1.29.15,1.7.46.41.3.62.73.62,1.27,0,.5-.18.98-.54,1.45-.36.46-.87.84-1.54,1.13-.67.3-1.46.44-2.39.44ZM8.15,166.8c-.59,0-1.12-.12-1.59-.35-.47-.23-.85-.56-1.12-.98-.27-.42-.41-.91-.41-1.46s.14-1.05.41-1.47.65-.75,1.12-.98c.47-.23,1-.35,1.59-.35s1.09.12,1.56.35c.47.23.84.56,1.12.98.28.42.42.91.42,1.47s-.14,1.04-.42,1.46c-.28.42-.65.75-1.12.98-.47.23-.99.35-1.56.35ZM8.15,165.9c.59,0,1.04-.18,1.37-.54.33-.36.49-.82.49-1.36s-.16-1.02-.49-1.37c-.33-.35-.78-.52-1.37-.52s-1.04.18-1.37.52c-.33.35-.5.8-.5,1.37s.17,1,.5,1.36c.33.36.79.54,1.37.54ZM10.67,162.42l-.59-.24c0-.45.09-.84.26-1.18.18-.34.43-.6.75-.79.33-.19.71-.28,1.16-.28l-.1,1.23c-.48,0-.85.1-1.1.31-.26.21-.38.53-.38.96Z" style="fill:#000; stroke-width:0px;"/><path d="M14.26,169.04v-7.66h1.25v7.66h-1.25ZM15.12,165.58c0-.97.09-1.78.28-2.42.19-.64.46-1.12.82-1.44.36-.32.8-.47,1.32-.47.17,0,.33.01.47.04s.28.06.43.11l-.08,1.23c-.15-.05-.31-.09-.49-.12-.18-.04-.33-.05-.47-.05-.45,0-.82.13-1.1.39-.28.26-.48.62-.6,1.09-.13.47-.19,1.02-.19,1.66h-.38Z" style="fill:#000; stroke-width:0px;"/><path d="M22.7,169.23c-.66,0-1.25-.17-1.77-.51-.52-.34-.93-.81-1.23-1.41-.3-.6-.45-1.3-.45-2.08,0-.84.15-1.56.45-2.16.3-.6.71-1.07,1.23-1.39s1.11-.48,1.78-.48c.58,0,1.08.12,1.49.35.41.24.74.55.99.95s.43.85.52,1.36.13,1.03.08,1.56h-5.54v-.77h4.71l-.37.24c.02-.32,0-.63-.05-.95-.05-.31-.15-.6-.28-.87s-.33-.48-.58-.64c-.25-.16-.57-.24-.96-.24-.49,0-.9.12-1.23.38-.33.25-.58.58-.74.99s-.25.85-.25,1.32v.51c0,.53.08,1.01.24,1.43.16.42.41.75.73,1,.33.24.74.37,1.23.37s.9-.12,1.22-.36c.32-.24.51-.6.58-1.06h1.3c-.08.51-.26.94-.54,1.31s-.64.65-1.08.84-.93.3-1.48.3Z" style="fill:#000; stroke-width:0px;"/><path d="M30.39,169.23c-.63,0-1.15-.11-1.56-.34-.41-.22-.72-.52-.92-.87s-.3-.73-.3-1.13c0-.52.13-.94.39-1.27.26-.32.61-.56,1.06-.71s.95-.23,1.51-.23c.4,0,.8.04,1.2.12.4.08.8.19,1.18.33v.79c-.32-.13-.68-.23-1.08-.3-.4-.07-.77-.11-1.11-.11-.51,0-.94.11-1.3.32-.35.21-.53.57-.53,1.08,0,.37.13.69.4.96.27.27.7.4,1.29.4.42,0,.79-.1,1.12-.29.33-.19.6-.44.79-.73.19-.29.29-.59.29-.88h.3c0,.51-.11.99-.33,1.42-.22.44-.54.79-.95,1.06-.41.27-.9.4-1.47.4ZM32.99,169.04l-.16-1.68v-3.28c0-.69-.15-1.18-.44-1.48s-.73-.45-1.32-.45c-.33,0-.63.05-.9.14s-.48.24-.64.45c-.16.2-.24.46-.24.77h-1.39c0-.55.14-1,.41-1.34.27-.34.65-.58,1.12-.74s1.02-.23,1.64-.23,1.11.1,1.56.3.81.51,1.06.94c.26.43.38.99.38,1.68v4.93h-1.09Z" style="fill:#000; stroke-width:0px;"/><path d="M35.99,162.26v-.87h4.88v.87h-4.88ZM39.42,169.23c-.42,0-.79-.08-1.12-.24-.33-.16-.59-.4-.78-.72-.19-.32-.29-.72-.29-1.2v-7.81h1.23v7.78c0,.79.37,1.18,1.1,1.18.22,0,.43-.02.64-.07.21-.05.44-.12.69-.22l.18.9c-.27.12-.54.21-.81.29s-.55.11-.84.11Z" style="fill:#000; stroke-width:0px;"/><path d="M46.05,162.26v-.87h4.08v.87h-4.08ZM47.3,169.04v-8.83c0-.51.1-.92.29-1.24.19-.32.46-.56.78-.71.33-.15.69-.23,1.1-.23.22,0,.44.02.67.05.23.03.45.08.68.14l-.24.99c-.16-.06-.32-.11-.48-.14-.16-.03-.31-.05-.45-.05-.17,0-.34.03-.51.1-.17.06-.31.18-.42.36s-.17.43-.17.76v8.82h-1.25Z" style="fill:#000; stroke-width:0px;"/><path d="M52.36,169.04v-7.66h1.25v7.66h-1.25ZM53.23,165.58c0-.97.09-1.78.28-2.42.19-.64.46-1.12.82-1.44.36-.32.8-.47,1.32-.47.17,0,.33.01.47.04s.28.06.43.11l-.08,1.23c-.15-.05-.31-.09-.49-.12-.18-.04-.33-.05-.47-.05-.45,0-.82.13-1.1.39-.28.26-.48.62-.6,1.09-.13.47-.19,1.02-.19,1.66h-.38Z" style="fill:#000; stroke-width:0px;"/><path d="M58.85,159.58c-.26,0-.46-.07-.61-.22-.15-.15-.22-.34-.22-.58s.07-.42.22-.56c.15-.14.35-.21.61-.21s.46.07.61.21c.15.14.22.33.22.56s-.07.43-.22.58c-.15.15-.35.22-.61.22ZM58.23,169.04v-7.66h1.25v7.66h-1.25Z" style="fill:#000; stroke-width:0px;"/><path d="M65.57,169.23c-.66,0-1.25-.17-1.77-.51-.52-.34-.93-.81-1.23-1.41-.3-.6-.45-1.3-.45-2.08,0-.84.15-1.56.45-2.16.3-.6.71-1.07,1.23-1.39s1.11-.48,1.78-.48c.58,0,1.08.12,1.49.35.41.24.74.55.99.95s.43.85.52,1.36.13,1.03.08,1.56h-5.54v-.77h4.71l-.37.24c.02-.32,0-.63-.05-.95-.05-.31-.15-.6-.28-.87s-.33-.48-.58-.64c-.25-.16-.57-.24-.96-.24-.49,0-.9.12-1.23.38-.33.25-.58.58-.74.99s-.25.85-.25,1.32v.51c0,.53.08,1.01.24,1.43.16.42.41.75.73,1,.33.24.74.37,1.23.37s.9-.12,1.22-.36c.32-.24.51-.6.58-1.06h1.3c-.08.51-.26.94-.54,1.31s-.64.65-1.08.84-.93.3-1.48.3Z" style="fill:#000; stroke-width:0px;"/><path d="M71.13,169.04v-7.65h1.07l.18,1.76v5.89h-1.25ZM76.57,169.04v-4.5c0-.73-.17-1.29-.52-1.67-.35-.38-.83-.57-1.43-.57-.46,0-.86.13-1.19.38-.34.25-.59.61-.78,1.08-.18.47-.27,1.02-.27,1.67h-.48c0-.89.12-1.65.35-2.28.23-.63.58-1.11,1.03-1.44.45-.33,1-.5,1.64-.5.6,0,1.12.13,1.55.4.43.27.76.65.99,1.16.23.5.34,1.1.34,1.78v4.5h-1.23Z" style="fill:#000; stroke-width:0px;"/><path d="M83.52,169.23c-.62,0-1.19-.17-1.7-.5-.52-.33-.93-.8-1.24-1.41s-.46-1.32-.46-2.14.15-1.52.46-2.12c.3-.6.71-1.06,1.21-1.38.5-.32,1.06-.48,1.66-.48.56,0,1.05.14,1.48.41s.75.66.99,1.18c.23.51.35,1.13.35,1.86h-.48c0-.51-.1-.93-.3-1.28-.2-.35-.46-.61-.78-.79-.32-.18-.66-.27-1.03-.27-.42,0-.8.12-1.14.35-.34.23-.62.56-.82.99-.21.43-.31.94-.31,1.54s.1,1.13.31,1.57.48.77.82,1.01.72.35,1.14.35c.35,0,.68-.09,1-.27.32-.18.59-.45.8-.8s.31-.77.31-1.27h.48c0,.74-.12,1.37-.36,1.88-.24.51-.57.9-.98,1.17-.41.27-.88.4-1.39.4ZM85.99,169.04l-.21-1.79v-9.12h1.25v10.91h-1.04Z" style="fill:#000; stroke-width:0px;"/><path d="M93.02,169.23c-.74,0-1.36-.11-1.86-.32-.5-.21-.87-.5-1.13-.87-.26-.37-.39-.79-.41-1.28h1.2c.03.48.22.85.59,1.09s.86.36,1.49.36c.33,0,.63-.05.91-.16.28-.11.5-.25.66-.44.17-.19.25-.4.25-.63,0-.3-.11-.53-.33-.71-.22-.17-.57-.32-1.05-.45l-1.49-.48c-.65-.2-1.14-.48-1.48-.84s-.52-.78-.52-1.28c0-.62.27-1.12.82-1.49s1.26-.56,2.14-.56c.94,0,1.67.19,2.18.58.52.38.79.86.81,1.44h-1.23c-.05-.34-.22-.59-.51-.76-.29-.17-.71-.26-1.25-.26s-.92.12-1.21.35c-.29.23-.44.49-.44.77,0,.53.45.92,1.36,1.17l1.52.51c.66.2,1.16.46,1.51.78.35.32.52.73.52,1.22,0,.38-.13.75-.38,1.09s-.61.62-1.06.83-1,.32-1.63.32Z" style="fill:#000; stroke-width:0px;"/><path d="M98.48,170.78l-.94-.46c.3-.16.56-.33.77-.51.21-.19.35-.42.41-.69-.23-.03-.43-.11-.59-.25s-.24-.32-.24-.55.08-.42.25-.58.38-.24.64-.24c.33,0,.6.12.8.36.2.24.3.53.3.86,0,.39-.12.77-.36,1.15-.24.38-.59.68-1.05.92Z" style="fill:#000; stroke-width:0px;"/><path d="M105.82,169.04v-10.91h1.25v9.12l-.37,1.79h-.88ZM109.32,169.23c-.51,0-.97-.13-1.39-.4-.41-.27-.74-.66-.98-1.17-.24-.52-.36-1.14-.36-1.88h.48c0,.5.1.92.31,1.27.21.35.47.62.8.8.33.18.67.27,1.02.27.41,0,.79-.12,1.13-.35.34-.23.61-.57.82-1.01s.31-.96.31-1.57-.1-1.11-.3-1.54c-.2-.43-.48-.76-.82-.99-.34-.23-.73-.35-1.15-.35-.36,0-.71.09-1.03.27-.32.18-.58.44-.78.79-.2.35-.3.77-.3,1.28h-.48c0-.72.12-1.34.36-1.86s.57-.9.99-1.18c.42-.27.91-.41,1.47-.41.6,0,1.16.16,1.66.48.5.32.91.78,1.21,1.38.3.6.46,1.3.46,2.12s-.15,1.54-.46,2.14-.72,1.07-1.24,1.41c-.52.33-1.09.5-1.7.5Z" style="fill:#000; stroke-width:0px;"/><path d="M115.3,169.04v-7.66h1.25v7.66h-1.25ZM116.16,165.58c0-.97.09-1.78.28-2.42.19-.64.46-1.12.82-1.44.36-.32.8-.47,1.32-.47.17,0,.33.01.47.04s.28.06.43.11l-.08,1.23c-.15-.05-.31-.09-.49-.12-.18-.04-.33-.05-.47-.05-.45,0-.82.13-1.1.39-.28.26-.48.62-.6,1.09-.13.47-.19,1.02-.19,1.66h-.38Z" style="fill:#000; stroke-width:0px;"/><path d="M121.79,159.58c-.26,0-.46-.07-.61-.22-.15-.15-.22-.34-.22-.58s.07-.42.22-.56c.15-.14.35-.21.61-.21s.46.07.61.21c.15.14.22.33.22.56s-.07.43-.22.58c-.15.15-.35.22-.61.22ZM121.16,169.04v-7.66h1.25v7.66h-1.25Z" style="fill:#000; stroke-width:0px;"/><path d="M125.85,169.04v-7.65h1.07l.18,1.76v5.89h-1.25ZM131.29,169.04v-4.5c0-.73-.17-1.29-.52-1.67-.35-.38-.83-.57-1.43-.57-.46,0-.86.13-1.19.38-.34.25-.59.61-.78,1.08-.18.47-.27,1.02-.27,1.67h-.48c0-.89.12-1.65.35-2.28.23-.63.58-1.11,1.03-1.44.45-.33,1-.5,1.64-.5.6,0,1.12.13,1.55.4.43.27.76.65.99,1.16.23.5.34,1.1.34,1.78v4.5h-1.23Z" style="fill:#000; stroke-width:0px;"/><path d="M138.21,172.97c-.78,0-1.46-.11-2.04-.33-.58-.22-1.02-.52-1.34-.89s-.48-.78-.48-1.23c0-.59.22-1.04.65-1.36.43-.31,1-.47,1.68-.47l.69.43c-.58,0-1.02.12-1.34.36-.31.24-.47.57-.47.98s.22.77.67,1.05c.45.29,1.1.43,1.97.43.64,0,1.2-.09,1.68-.28s.86-.42,1.13-.72c.27-.29.4-.61.4-.96,0-.24-.09-.45-.26-.62-.18-.17-.45-.26-.81-.26h-2.98c-.52,0-.96-.08-1.34-.23-.38-.16-.67-.37-.87-.62-.2-.26-.3-.54-.3-.84,0-.32.09-.59.27-.82.18-.22.42-.39.71-.51.29-.12.6-.18.94-.18l.24.46c-.16,0-.32.04-.48.11-.16.07-.3.18-.41.32-.11.14-.16.32-.16.53,0,.25.1.45.3.62.2.17.57.25,1.1.25h2.98c.72,0,1.29.15,1.7.46.41.3.62.73.62,1.27,0,.5-.18.98-.54,1.45-.36.46-.87.84-1.54,1.13-.67.3-1.46.44-2.39.44ZM138.43,166.8c-.59,0-1.12-.12-1.59-.35-.47-.23-.85-.56-1.12-.98-.27-.42-.41-.91-.41-1.46s.14-1.05.41-1.47.65-.75,1.12-.98c.47-.23,1-.35,1.59-.35s1.09.12,1.56.35c.47.23.84.56,1.12.98.28.42.42.91.42,1.47s-.14,1.04-.42,1.46c-.28.42-.65.75-1.12.98-.47.23-.99.35-1.56.35ZM138.43,165.9c.59,0,1.04-.18,1.37-.54.33-.36.49-.82.49-1.36s-.16-1.02-.49-1.37c-.33-.35-.78-.52-1.37-.52s-1.04.18-1.37.52c-.33.35-.5.8-.5,1.37s.17,1,.5,1.36c.33.36.79.54,1.37.54ZM140.94,162.42l-.59-.24c0-.45.09-.84.26-1.18.18-.34.43-.6.75-.79.33-.19.71-.28,1.16-.28l-.1,1.23c-.48,0-.85.1-1.1.31-.26.21-.38.53-.38.96Z" style="fill:#000; stroke-width:0px;"/><path d="M145.24,159.58c-.26,0-.46-.07-.61-.22-.15-.15-.22-.34-.22-.58s.07-.42.22-.56c.15-.14.35-.21.61-.21s.46.07.61.21c.15.14.22.33.22.56s-.07.43-.22.58c-.15.15-.35.22-.61.22ZM144.62,169.04v-7.66h1.25v7.66h-1.25Z" style="fill:#000; stroke-width:0px;"/><path d="M149.3,169.04v-7.65h1.07l.18,1.76v5.89h-1.25ZM154.74,169.04v-4.5c0-.73-.17-1.29-.52-1.67-.35-.38-.83-.57-1.43-.57-.46,0-.86.13-1.19.38-.34.25-.59.61-.78,1.08-.18.47-.27,1.02-.27,1.67h-.48c0-.89.12-1.65.35-2.28.23-.63.58-1.11,1.03-1.44.45-.33,1-.5,1.64-.5.6,0,1.12.13,1.55.4.43.27.76.65.99,1.16.23.5.34,1.1.34,1.78v4.5h-1.23Z" style="fill:#000; stroke-width:0px;"/><path d="M161.66,172.97c-.78,0-1.46-.11-2.04-.33-.58-.22-1.02-.52-1.34-.89s-.48-.78-.48-1.23c0-.59.22-1.04.65-1.36.43-.31,1-.47,1.68-.47l.69.43c-.58,0-1.02.12-1.34.36-.31.24-.47.57-.47.98s.22.77.67,1.05c.45.29,1.1.43,1.97.43.64,0,1.2-.09,1.68-.28s.86-.42,1.13-.72c.27-.29.4-.61.4-.96,0-.24-.09-.45-.26-.62-.18-.17-.45-.26-.81-.26h-2.98c-.52,0-.96-.08-1.34-.23-.38-.16-.67-.37-.87-.62-.2-.26-.3-.54-.3-.84,0-.32.09-.59.27-.82.18-.22.42-.39.71-.51.29-.12.6-.18.94-.18l.24.46c-.16,0-.32.04-.48.11-.16.07-.3.18-.41.32-.11.14-.16.32-.16.53,0,.25.1.45.3.62.2.17.57.25,1.1.25h2.98c.72,0,1.29.15,1.7.46.41.3.62.73.62,1.27,0,.5-.18.98-.54,1.45-.36.46-.87.84-1.54,1.13-.67.3-1.46.44-2.39.44ZM161.89,166.8c-.59,0-1.12-.12-1.59-.35-.47-.23-.85-.56-1.12-.98-.27-.42-.41-.91-.41-1.46s.14-1.05.41-1.47.65-.75,1.12-.98c.47-.23,1-.35,1.59-.35s1.09.12,1.56.35c.47.23.84.56,1.12.98.28.42.42.91.42,1.47s-.14,1.04-.42,1.46c-.28.42-.65.75-1.12.98-.47.23-.99.35-1.56.35ZM161.89,165.9c.59,0,1.04-.18,1.37-.54.33-.36.49-.82.49-1.36s-.16-1.02-.49-1.37c-.33-.35-.78-.52-1.37-.52s-1.04.18-1.37.52c-.33.35-.5.8-.5,1.37s.17,1,.5,1.36c.33.36.79.54,1.37.54ZM164.4,162.42l-.59-.24c0-.45.09-.84.26-1.18.18-.34.43-.6.75-.79.33-.19.71-.28,1.16-.28l-.1,1.23c-.48,0-.85.1-1.1.31-.26.21-.38.53-.38.96Z" style="fill:#000; stroke-width:0px;"/><path d="M170.46,161.39h1.3l1.95,6.38h-.16l1.9-6.02h1.04l1.89,6.03h-.14l1.95-6.4h1.25l-2.51,7.65h-1.22l-1.86-5.65h.19l-1.84,5.65h-1.22l-2.53-7.65Z" style="fill:#000; stroke-width:0px;"/><path d="M185.51,169.23c-.63,0-1.15-.11-1.56-.34-.41-.22-.72-.52-.92-.87s-.3-.73-.3-1.13c0-.52.13-.94.39-1.27.26-.32.61-.56,1.06-.71s.95-.23,1.51-.23c.4,0,.8.04,1.2.12.4.08.8.19,1.18.33v.79c-.32-.13-.68-.23-1.08-.3-.4-.07-.77-.11-1.11-.11-.51,0-.94.11-1.3.32-.35.21-.53.57-.53,1.08,0,.37.13.69.4.96.27.27.7.4,1.29.4.42,0,.79-.1,1.12-.29.33-.19.6-.44.79-.73.19-.29.29-.59.29-.88h.3c0,.51-.11.99-.33,1.42-.22.44-.54.79-.95,1.06-.41.27-.9.4-1.47.4ZM188.12,169.04l-.16-1.68v-3.28c0-.69-.15-1.18-.44-1.48s-.73-.45-1.32-.45c-.33,0-.63.05-.9.14s-.48.24-.64.45c-.16.2-.24.46-.24.77h-1.39c0-.55.14-1,.41-1.34.27-.34.65-.58,1.12-.74s1.02-.23,1.64-.23,1.11.1,1.56.3.81.51,1.06.94c.26.43.38.99.38,1.68v4.93h-1.09Z" style="fill:#000; stroke-width:0px;"/><path d="M192.19,169.04v-7.66h1.25v7.66h-1.25ZM193.06,165.58c0-.97.09-1.78.28-2.42.19-.64.46-1.12.82-1.44.36-.32.8-.47,1.32-.47.17,0,.33.01.47.04s.28.06.43.11l-.08,1.23c-.15-.05-.31-.09-.49-.12-.18-.04-.33-.05-.47-.05-.45,0-.82.13-1.1.39-.28.26-.48.62-.6,1.09-.13.47-.19,1.02-.19,1.66h-.38Z" style="fill:#000; stroke-width:0px;"/><path d="M197.98,169.04v-7.65h1.07l.14,1.54c.24-.55.58-.98,1.01-1.28.43-.3.96-.45,1.56-.45s1.12.13,1.55.4c.43.27.76.65.99,1.16.23.5.34,1.1.34,1.78v4.5h-1.23v-4.5c0-.73-.17-1.29-.52-1.67-.35-.38-.83-.57-1.43-.57-.46,0-.86.13-1.19.38-.34.25-.59.61-.78,1.08-.18.47-.27,1.02-.27,1.67v3.62h-1.25ZM208.73,169.04v-4.5c0-.73-.17-1.29-.52-1.67-.35-.38-.82-.57-1.41-.57-.69,0-1.22.27-1.59.8-.37.54-.55,1.28-.55,2.22h-.58c0-.69.07-1.29.2-1.81s.33-.95.6-1.29c.26-.35.58-.6.95-.77.37-.17.8-.26,1.27-.26.6,0,1.12.13,1.55.4s.76.65.99,1.16.34,1.1.34,1.78v4.5h-1.25Z" style="fill:#000; stroke-width:0px;"/><path d="M211.87,162.26v-.87h4.88v.87h-4.88ZM215.3,169.23c-.42,0-.79-.08-1.12-.24-.33-.16-.59-.4-.78-.72-.19-.32-.29-.72-.29-1.2v-7.81h1.23v7.78c0,.79.37,1.18,1.1,1.18.22,0,.43-.02.64-.07.21-.05.44-.12.69-.22l.18.9c-.27.12-.54.21-.81.29s-.55.11-.84.11Z" style="fill:#000; stroke-width:0px;"/><path d="M218.96,169.04v-10.91h1.25v10.91h-1.25ZM224.4,169.04v-4.5c0-.73-.17-1.29-.52-1.67-.35-.38-.83-.57-1.43-.57-.46,0-.86.13-1.19.38-.34.25-.59.61-.78,1.08-.18.47-.27,1.02-.27,1.67h-.48c0-.89.12-1.65.35-2.28.23-.63.58-1.11,1.03-1.44.45-.33,1-.5,1.64-.5.6,0,1.12.13,1.55.4s.76.65.99,1.16c.23.5.34,1.1.34,1.78v4.5h-1.23Z" style="fill:#000; stroke-width:0px;"/><path d="M228.42,170.78l-.94-.46c.3-.16.56-.33.77-.51.21-.19.35-.42.41-.69-.23-.03-.43-.11-.59-.25-.16-.14-.24-.32-.24-.55s.08-.42.25-.58.38-.24.64-.24c.33,0,.6.12.8.36s.3.53.3.86c0,.39-.12.77-.36,1.15-.24.38-.59.68-1.05.92Z" style="fill:#000; stroke-width:0px;"/><path d="M238.41,169.23c-.66,0-1.25-.17-1.77-.51-.52-.34-.93-.81-1.23-1.41-.3-.6-.45-1.3-.45-2.08,0-.84.15-1.56.45-2.16.3-.6.71-1.07,1.23-1.39s1.11-.48,1.78-.48c.58,0,1.08.12,1.49.35.41.24.74.55.99.95s.43.85.52,1.36.13,1.03.08,1.56h-5.54v-.77h4.71l-.37.24c.02-.32,0-.63-.05-.95-.05-.31-.15-.6-.28-.87s-.33-.48-.58-.64c-.25-.16-.57-.24-.96-.24-.49,0-.9.12-1.23.38-.33.25-.58.58-.74.99-.17.41-.25.85-.25,1.32v.51c0,.53.08,1.01.24,1.43.16.42.41.75.73,1,.33.24.74.37,1.23.37s.9-.12,1.22-.36c.32-.24.51-.6.58-1.06h1.3c-.08.51-.26.94-.54,1.31s-.64.65-1.08.84-.93.3-1.48.3Z" style="fill:#000; stroke-width:0px;"/><path d="M242.77,169.04l2.9-3.82-2.9-3.84h1.52l2.19,2.9,2.11-2.9h1.52l-2.91,3.84,2.9,3.82h-1.52l-2.19-2.91-2.1,2.91h-1.52Z" style="fill:#000; stroke-width:0px;"/><path d="M252.16,172.8v-11.41h1.04l.21,1.79v9.62h-1.25ZM255.63,169.23c-.56,0-1.05-.13-1.46-.38s-.73-.63-.96-1.12c-.22-.49-.34-1.09-.34-1.8h.53c0,.47.1.88.3,1.2.2.33.45.57.77.74.32.17.65.25,1.01.25.38,0,.75-.11,1.1-.33s.64-.55.86-.98c.22-.43.34-.96.34-1.6s-.1-1.13-.31-1.56c-.21-.43-.48-.76-.83-.99-.35-.23-.73-.35-1.15-.35-.36,0-.7.09-1.02.27-.32.18-.58.43-.78.77-.2.34-.3.76-.3,1.25h-.53c0-.74.12-1.36.37-1.87.25-.5.58-.88,1-1.14s.89-.38,1.42-.38c.6,0,1.15.16,1.67.48.52.32.94.78,1.26,1.38.32.6.48,1.31.48,2.14s-.16,1.57-.48,2.17c-.32.6-.75,1.06-1.27,1.38-.52.32-1.09.48-1.69.48Z" style="fill:#000; stroke-width:0px;"/><path d="M264.17,169.23c-.66,0-1.25-.17-1.77-.51-.52-.34-.93-.81-1.23-1.41-.3-.6-.45-1.3-.45-2.08,0-.84.15-1.56.45-2.16.3-.6.71-1.07,1.23-1.39s1.11-.48,1.78-.48c.58,0,1.08.12,1.49.35.41.24.74.55.99.95s.43.85.52,1.36.13,1.03.08,1.56h-5.54v-.77h4.71l-.37.24c.02-.32,0-.63-.05-.95-.05-.31-.15-.6-.28-.87s-.33-.48-.58-.64c-.25-.16-.57-.24-.96-.24-.49,0-.9.12-1.23.38-.33.25-.58.58-.74.99-.17.41-.25.85-.25,1.32v.51c0,.53.08,1.01.24,1.43.16.42.41.75.73,1,.33.24.74.37,1.23.37s.9-.12,1.22-.36c.32-.24.51-.6.58-1.06h1.3c-.08.51-.26.94-.54,1.31s-.64.65-1.08.84-.93.3-1.48.3Z" style="fill:#000; stroke-width:0px;"/><path d="M269.73,169.04v-7.66h1.25v7.66h-1.25ZM270.59,165.58c0-.97.09-1.78.28-2.42.19-.64.46-1.12.82-1.44.36-.32.8-.47,1.32-.47.17,0,.33.01.47.04.14.02.28.06.43.11l-.08,1.23c-.15-.05-.31-.09-.49-.12-.18-.04-.33-.05-.47-.05-.45,0-.82.13-1.1.39-.28.26-.48.62-.6,1.09-.12.47-.19,1.02-.19,1.66h-.38Z" style="fill:#000; stroke-width:0px;"/><path d="M274.44,162.26v-.87h4.88v.87h-4.88ZM277.86,169.23c-.42,0-.79-.08-1.12-.24-.33-.16-.59-.4-.78-.72s-.29-.72-.29-1.2v-7.81h1.23v7.78c0,.79.37,1.18,1.1,1.18.22,0,.43-.02.64-.07.21-.05.44-.12.69-.22l.18.9c-.27.12-.54.21-.81.29-.27.07-.55.11-.84.11Z" style="fill:#000; stroke-width:0px;"/><path d="M282.23,159.58c-.26,0-.46-.07-.61-.22s-.22-.34-.22-.58.07-.42.22-.56.35-.21.61-.21.46.07.61.21c.15.14.22.33.22.56s-.07.43-.22.58c-.15.15-.35.22-.61.22ZM281.61,169.04v-7.66h1.25v7.66h-1.25Z" style="fill:#000; stroke-width:0px;"/><path d="M289.05,169.23c-.74,0-1.36-.11-1.86-.32-.5-.21-.87-.5-1.13-.87-.26-.37-.39-.79-.41-1.28h1.2c.03.48.22.85.59,1.09.37.24.86.36,1.49.36.33,0,.63-.05.91-.16.28-.11.5-.25.66-.44.17-.19.25-.4.25-.63,0-.3-.11-.53-.33-.71-.22-.17-.57-.32-1.05-.45l-1.49-.48c-.65-.2-1.14-.48-1.48-.84-.34-.36-.52-.78-.52-1.28,0-.62.27-1.12.82-1.49.54-.37,1.26-.56,2.14-.56.94,0,1.67.19,2.18.58.52.38.79.86.81,1.44h-1.23c-.05-.34-.22-.59-.51-.76-.29-.17-.71-.26-1.25-.26s-.92.12-1.21.35-.44.49-.44.77c0,.53.45.92,1.36,1.17l1.52.51c.66.2,1.16.46,1.51.78.35.32.52.73.52,1.22,0,.38-.13.75-.38,1.09s-.61.62-1.06.83c-.46.21-1,.32-1.63.32Z" style="fill:#000; stroke-width:0px;"/><path d="M297.36,169.23c-.66,0-1.25-.17-1.77-.51-.52-.34-.93-.81-1.23-1.41-.3-.6-.45-1.3-.45-2.08,0-.84.15-1.56.45-2.16.3-.6.71-1.07,1.23-1.39s1.11-.48,1.78-.48c.58,0,1.08.12,1.49.35.41.24.74.55.99.95s.43.85.52,1.36.13,1.03.08,1.56h-5.54v-.77h4.71l-.37.24c.02-.32,0-.63-.05-.95-.05-.31-.15-.6-.28-.87s-.33-.48-.58-.64c-.25-.16-.57-.24-.96-.24-.49,0-.9.12-1.23.38-.33.25-.58.58-.74.99-.17.41-.25.85-.25,1.32v.51c0,.53.08,1.01.24,1.43.16.42.41.75.73,1,.33.24.74.37,1.23.37s.9-.12,1.22-.36c.32-.24.51-.6.58-1.06h1.3c-.08.51-.26.94-.54,1.31s-.64.65-1.08.84-.93.3-1.48.3Z" style="fill:#000; stroke-width:0px;"/><path d="M302.73,170.78l-.94-.46c.3-.16.56-.33.77-.51.21-.19.35-.42.41-.69-.23-.03-.43-.11-.59-.25-.16-.14-.24-.32-.24-.55s.08-.42.25-.58.38-.24.64-.24c.33,0,.6.12.8.36s.3.53.3.86c0,.39-.12.77-.36,1.15-.24.38-.59.68-1.05.92Z" style="fill:#000; stroke-width:0px;"/><path d="M312.19,169.23c-.63,0-1.15-.11-1.56-.34-.41-.22-.72-.52-.92-.87-.2-.36-.3-.73-.3-1.13,0-.52.13-.94.39-1.27.26-.32.61-.56,1.06-.71.45-.15.95-.23,1.51-.23.4,0,.8.04,1.2.12.4.08.8.19,1.18.33v.79c-.32-.13-.68-.23-1.08-.3-.4-.07-.77-.11-1.11-.11-.51,0-.94.11-1.3.32s-.53.57-.53,1.08c0,.37.13.69.4.96.27.27.7.4,1.29.4.42,0,.79-.1,1.12-.29.33-.19.6-.44.79-.73.19-.29.29-.59.29-.88h.3c0,.51-.11.99-.33,1.42-.22.44-.54.79-.95,1.06-.41.27-.9.4-1.47.4ZM314.8,169.04l-.16-1.68v-3.28c0-.69-.15-1.18-.44-1.48s-.73-.45-1.32-.45c-.33,0-.63.05-.9.14-.27.1-.48.24-.64.45-.16.2-.24.46-.24.77h-1.39c0-.55.14-1,.41-1.34.27-.34.65-.58,1.12-.74.48-.15,1.02-.23,1.64-.23s1.11.1,1.56.3c.45.2.81.51,1.06.94.26.43.38.99.38,1.68v4.93h-1.09Z" style="fill:#000; stroke-width:0px;"/><path d="M318.87,169.04v-7.65h1.07l.18,1.76v5.89h-1.25ZM324.31,169.04v-4.5c0-.73-.17-1.29-.52-1.67-.35-.38-.83-.57-1.43-.57-.46,0-.86.13-1.19.38s-.59.61-.78,1.08c-.18.47-.27,1.02-.27,1.67h-.48c0-.89.12-1.65.35-2.28.23-.63.58-1.11,1.03-1.44.45-.33,1-.5,1.64-.5.6,0,1.12.13,1.55.4s.76.65.99,1.16c.23.5.34,1.1.34,1.78v4.5h-1.23Z" style="fill:#000; stroke-width:0px;"/><path d="M331.26,169.23c-.62,0-1.19-.17-1.7-.5-.52-.33-.93-.8-1.24-1.41-.31-.61-.46-1.32-.46-2.14s.15-1.52.46-2.12c.3-.6.71-1.06,1.21-1.38.5-.32,1.06-.48,1.66-.48.56,0,1.05.14,1.48.41s.75.66.99,1.18c.23.51.35,1.13.35,1.86h-.48c0-.51-.1-.93-.3-1.28-.2-.35-.46-.61-.78-.79-.32-.18-.66-.27-1.03-.27-.42,0-.8.12-1.14.35-.34.23-.62.56-.82.99-.21.43-.31.94-.31,1.54s.1,1.13.31,1.57c.21.44.48.77.82,1.01.34.23.72.35,1.14.35.35,0,.68-.09,1-.27s.59-.45.8-.8.31-.77.31-1.27h.48c0,.74-.12,1.37-.36,1.88-.24.51-.57.9-.98,1.17-.41.27-.88.4-1.39.4ZM333.72,169.04l-.21-1.79v-9.12h1.25v10.91h-1.04Z" style="fill:#000; stroke-width:0px;"/><path d="M5.69,187.26v-.87h4.88v.87h-4.88ZM9.12,194.23c-.42,0-.79-.08-1.12-.24-.33-.16-.59-.4-.78-.72-.19-.32-.29-.72-.29-1.2v-7.81h1.23v7.78c0,.79.37,1.18,1.1,1.18.22,0,.43-.02.64-.07.21-.05.44-.12.69-.22l.18.9c-.27.12-.54.21-.81.29s-.55.11-.84.11Z" style="fill:#000; stroke-width:0px;"/><path d="M12.78,194.04v-10.91h1.25v10.91h-1.25ZM18.22,194.04v-4.5c0-.73-.17-1.29-.52-1.67-.35-.38-.83-.57-1.43-.57-.46,0-.86.13-1.19.38-.34.25-.59.61-.78,1.08-.18.47-.27,1.02-.27,1.67h-.48c0-.89.12-1.65.35-2.28.23-.63.58-1.11,1.03-1.44.45-.33,1-.5,1.64-.5.6,0,1.12.13,1.55.4.43.27.76.65.99,1.16.23.5.34,1.1.34,1.78v4.5h-1.23Z" style="fill:#000; stroke-width:0px;"/><path d="M25.09,194.23c-.66,0-1.25-.17-1.77-.51-.52-.34-.93-.81-1.23-1.41-.3-.6-.45-1.3-.45-2.08,0-.84.15-1.56.45-2.16.3-.6.71-1.07,1.23-1.39s1.11-.48,1.78-.48c.58,0,1.08.12,1.49.35.41.24.74.55.99.95s.43.85.52,1.36.13,1.03.08,1.56h-5.54v-.77h4.71l-.37.24c.02-.32,0-.63-.05-.95-.05-.31-.15-.6-.28-.87s-.33-.48-.58-.64c-.25-.16-.57-.24-.96-.24-.49,0-.9.12-1.23.38-.33.25-.58.58-.74.99s-.25.85-.25,1.32v.51c0,.53.08,1.01.24,1.43.16.42.41.75.73,1,.33.24.74.37,1.23.37s.9-.12,1.22-.36c.32-.24.51-.6.58-1.06h1.3c-.08.51-.26.94-.54,1.31s-.64.65-1.08.84-.93.3-1.48.3Z" style="fill:#000; stroke-width:0px;"/><path d="M37.22,194.23c-.69,0-1.3-.15-1.84-.46-.54-.3-.96-.75-1.27-1.35s-.46-1.33-.46-2.21.15-1.62.46-2.21c.31-.6.73-1.04,1.27-1.35.54-.3,1.15-.46,1.84-.46s1.29.15,1.83.46c.54.3.96.75,1.26,1.35.31.59.46,1.33.46,2.21s-.15,1.61-.46,2.21c-.31.6-.73,1.05-1.26,1.35-.54.3-1.15.46-1.83.46ZM37.19,193.14c.5,0,.92-.12,1.26-.36.35-.24.61-.57.79-1.01.18-.44.27-.96.27-1.56,0-.91-.19-1.63-.57-2.16-.38-.52-.94-.79-1.69-.79-.5,0-.92.12-1.27.36-.34.24-.61.58-.78,1.02-.18.44-.27.96-.27,1.57,0,.9.19,1.62.57,2.14s.94.79,1.68.79Z" style="fill:#000; stroke-width:0px;"/><path d="M45.88,194.23c-.61,0-1.19-.17-1.72-.5-.53-.33-.96-.8-1.28-1.4-.33-.6-.49-1.31-.49-2.14s.16-1.56.49-2.16c.33-.6.75-1.05,1.28-1.37s1.1-.47,1.72-.47c.43,0,.82.07,1.16.2.34.13.64.31.9.54.26.23.47.49.64.78.17.29.29.6.37.92l-1.28.11c-.13-.44-.36-.79-.67-1.05-.31-.26-.69-.39-1.14-.39-.38,0-.73.11-1.07.32-.33.22-.6.54-.81.97s-.31.96-.31,1.6c0,.59.09,1.11.28,1.54.19.43.45.77.78,1.01.33.24.71.36,1.13.36.59,0,1.04-.14,1.35-.44s.46-.7.46-1.21h1.28c0,.53-.13,1.01-.38,1.42s-.61.74-1.07.98c-.46.24-1,.36-1.63.36Z" style="fill:#000; stroke-width:0px;"/><path d="M54.14,194.23c-.61,0-1.19-.17-1.72-.5-.53-.33-.96-.8-1.28-1.4-.33-.6-.49-1.31-.49-2.14s.16-1.56.49-2.16c.33-.6.75-1.05,1.28-1.37s1.1-.47,1.72-.47c.43,0,.82.07,1.16.2.34.13.64.31.9.54.26.23.47.49.64.78.17.29.29.6.37.92l-1.28.11c-.13-.44-.36-.79-.67-1.05-.31-.26-.69-.39-1.14-.39-.38,0-.73.11-1.07.32-.33.22-.6.54-.81.97s-.31.96-.31,1.6c0,.59.09,1.11.28,1.54.19.43.45.77.78,1.01.33.24.71.36,1.13.36.59,0,1.04-.14,1.35-.44s.46-.7.46-1.21h1.28c0,.53-.13,1.01-.38,1.42s-.61.74-1.07.98c-.46.24-1,.36-1.63.36Z" style="fill:#000; stroke-width:0px;"/><path d="M61.83,194.23c-.63,0-1.15-.11-1.56-.34-.41-.22-.72-.52-.92-.87s-.3-.73-.3-1.13c0-.52.13-.94.39-1.27.26-.32.61-.56,1.06-.71s.95-.23,1.51-.23c.4,0,.8.04,1.2.12.4.08.8.19,1.18.33v.79c-.32-.13-.68-.23-1.08-.3-.4-.07-.77-.11-1.11-.11-.51,0-.94.11-1.3.32-.35.21-.53.57-.53,1.08,0,.37.13.69.4.96.27.27.7.4,1.29.4.42,0,.79-.1,1.12-.29.33-.19.6-.44.79-.73.19-.29.29-.59.29-.88h.3c0,.51-.11.99-.33,1.42-.22.44-.54.79-.95,1.06-.41.27-.9.4-1.47.4ZM64.44,194.04l-.16-1.68v-3.28c0-.69-.15-1.18-.44-1.48s-.73-.45-1.32-.45c-.33,0-.63.05-.9.14s-.48.24-.64.45c-.16.2-.24.46-.24.77h-1.39c0-.55.14-1,.41-1.34.27-.34.65-.58,1.12-.74s1.02-.23,1.64-.23,1.11.1,1.56.3.81.51,1.06.94c.26.43.38.99.38,1.68v4.93h-1.09Z" style="fill:#000; stroke-width:0px;"/><path d="M71.27,194.23c-.74,0-1.36-.11-1.86-.32-.5-.21-.87-.5-1.13-.87-.26-.37-.39-.79-.41-1.28h1.2c.03.48.22.85.59,1.09s.86.36,1.49.36c.33,0,.63-.05.91-.16.28-.11.5-.25.66-.44.17-.19.25-.4.25-.63,0-.3-.11-.53-.33-.71-.22-.17-.57-.32-1.05-.45l-1.49-.48c-.65-.2-1.14-.48-1.48-.84s-.52-.78-.52-1.28c0-.62.27-1.12.82-1.49s1.26-.56,2.14-.56c.94,0,1.67.19,2.18.58.52.38.79.86.81,1.44h-1.23c-.05-.34-.22-.59-.51-.76-.29-.17-.71-.26-1.25-.26s-.92.12-1.21.35c-.29.23-.44.49-.44.77,0,.53.45.92,1.36,1.17l1.52.51c.66.2,1.16.46,1.51.78.35.32.52.73.52,1.22,0,.38-.13.75-.38,1.09s-.61.62-1.06.83-1,.32-1.63.32Z" style="fill:#000; stroke-width:0px;"/><path d="M77.63,184.58c-.26,0-.46-.07-.61-.22-.15-.15-.22-.34-.22-.58s.07-.42.22-.56c.15-.14.35-.21.61-.21s.46.07.61.21c.15.14.22.33.22.56s-.07.43-.22.58c-.15.15-.35.22-.61.22ZM77,194.04v-7.66h1.25v7.66h-1.25Z" style="fill:#000; stroke-width:0px;"/><path d="M84.46,194.23c-.69,0-1.3-.15-1.84-.46-.54-.3-.96-.75-1.27-1.35s-.46-1.33-.46-2.21.15-1.62.46-2.21c.31-.6.73-1.04,1.27-1.35.54-.3,1.15-.46,1.84-.46s1.29.15,1.83.46c.54.3.96.75,1.26,1.35.31.59.46,1.33.46,2.21s-.15,1.61-.46,2.21c-.31.6-.73,1.05-1.26,1.35-.54.3-1.15.46-1.83.46ZM84.43,193.14c.5,0,.92-.12,1.26-.36.35-.24.61-.57.79-1.01.18-.44.27-.96.27-1.56,0-.91-.19-1.63-.57-2.16-.38-.52-.94-.79-1.69-.79-.5,0-.92.12-1.27.36-.34.24-.61.58-.78,1.02-.18.44-.27.96-.27,1.57,0,.9.19,1.62.57,2.14s.94.79,1.68.79Z" style="fill:#000; stroke-width:0px;"/><path d="M90.43,194.04v-7.65h1.07l.18,1.76v5.89h-1.25ZM95.87,194.04v-4.5c0-.73-.17-1.29-.52-1.67-.35-.38-.83-.57-1.43-.57-.46,0-.86.13-1.19.38-.34.25-.59.61-.78,1.08-.18.47-.27,1.02-.27,1.67h-.48c0-.89.12-1.65.35-2.28.23-.63.58-1.11,1.03-1.44.45-.33,1-.5,1.64-.5.6,0,1.12.13,1.55.4.43.27.76.65.99,1.16.23.5.34,1.1.34,1.78v4.5h-1.23Z" style="fill:#000; stroke-width:0px;"/><path d="M102.22,194.23c-.63,0-1.15-.11-1.56-.34-.41-.22-.72-.52-.92-.87s-.3-.73-.3-1.13c0-.52.13-.94.39-1.27.26-.32.61-.56,1.06-.71s.95-.23,1.51-.23c.4,0,.8.04,1.2.12.4.08.8.19,1.18.33v.79c-.32-.13-.68-.23-1.08-.3-.4-.07-.77-.11-1.11-.11-.51,0-.94.11-1.3.32-.35.21-.53.57-.53,1.08,0,.37.13.69.4.96.27.27.7.4,1.29.4.42,0,.79-.1,1.12-.29.33-.19.6-.44.79-.73.19-.29.29-.59.29-.88h.3c0,.51-.11.99-.33,1.42-.22.44-.54.79-.95,1.06-.41.27-.9.4-1.47.4ZM104.83,194.04l-.16-1.68v-3.28c0-.69-.15-1.18-.44-1.48s-.73-.45-1.32-.45c-.33,0-.63.05-.9.14s-.48.24-.64.45c-.16.2-.24.46-.24.77h-1.39c0-.55.14-1,.41-1.34.27-.34.65-.58,1.12-.74s1.02-.23,1.64-.23,1.11.1,1.56.3.81.51,1.06.94c.26.43.38.99.38,1.68v4.93h-1.09Z" style="fill:#000; stroke-width:0px;"/><path d="M108.9,194.04v-10.91h1.25v10.91h-1.25Z" style="fill:#000; stroke-width:0px;"/><path d="M116.11,187.26v-.87h4.88v.87h-4.88ZM119.53,194.23c-.42,0-.79-.08-1.12-.24-.33-.16-.59-.4-.78-.72-.19-.32-.29-.72-.29-1.2v-7.81h1.23v7.78c0,.79.37,1.18,1.1,1.18.22,0,.43-.02.64-.07.21-.05.44-.12.69-.22l.18.9c-.27.12-.54.21-.81.29s-.55.11-.84.11Z" style="fill:#000; stroke-width:0px;"/><path d="M123.19,194.04v-7.66h1.25v7.66h-1.25ZM124.06,190.58c0-.97.09-1.78.28-2.42.19-.64.46-1.12.82-1.44.36-.32.8-.47,1.32-.47.17,0,.33.01.47.04s.28.06.43.11l-.08,1.23c-.15-.05-.31-.09-.49-.12-.18-.04-.33-.05-.47-.05-.45,0-.82.13-1.1.39-.28.26-.48.62-.6,1.09-.13.47-.19,1.02-.19,1.66h-.38Z" style="fill:#000; stroke-width:0px;"/><path d="M131.63,194.23c-.66,0-1.25-.17-1.77-.51-.52-.34-.93-.81-1.23-1.41-.3-.6-.45-1.3-.45-2.08,0-.84.15-1.56.45-2.16.3-.6.71-1.07,1.23-1.39s1.11-.48,1.78-.48c.58,0,1.08.12,1.49.35.41.24.74.55.99.95s.43.85.52,1.36.13,1.03.08,1.56h-5.54v-.77h4.71l-.37.24c.02-.32,0-.63-.05-.95-.05-.31-.15-.6-.28-.87s-.33-.48-.58-.64c-.25-.16-.57-.24-.96-.24-.49,0-.9.12-1.23.38-.33.25-.58.58-.74.99s-.25.85-.25,1.32v.51c0,.53.08,1.01.24,1.43.16.42.41.75.73,1,.33.24.74.37,1.23.37s.9-.12,1.22-.36c.32-.24.51-.6.58-1.06h1.3c-.08.51-.26.94-.54,1.31s-.64.65-1.08.84-.93.3-1.48.3Z" style="fill:#000; stroke-width:0px;"/><path d="M139.32,194.23c-.63,0-1.15-.11-1.56-.34-.41-.22-.72-.52-.92-.87s-.3-.73-.3-1.13c0-.52.13-.94.39-1.27.26-.32.61-.56,1.06-.71s.95-.23,1.51-.23c.4,0,.8.04,1.2.12.4.08.8.19,1.18.33v.79c-.32-.13-.68-.23-1.08-.3-.4-.07-.77-.11-1.11-.11-.51,0-.94.11-1.3.32-.35.21-.53.57-.53,1.08,0,.37.13.69.4.96.27.27.7.4,1.29.4.42,0,.79-.1,1.12-.29.33-.19.6-.44.79-.73.19-.29.29-.59.29-.88h.3c0,.51-.11.99-.33,1.42-.22.44-.54.79-.95,1.06-.41.27-.9.4-1.47.4ZM141.93,194.04l-.16-1.68v-3.28c0-.69-.15-1.18-.44-1.48s-.73-.45-1.32-.45c-.33,0-.63.05-.9.14s-.48.24-.64.45c-.16.2-.24.46-.24.77h-1.39c0-.55.14-1,.41-1.34.27-.34.65-.58,1.12-.74s1.02-.23,1.64-.23,1.11.1,1.56.3.81.51,1.06.94c.26.43.38.99.38,1.68v4.93h-1.09Z" style="fill:#000; stroke-width:0px;"/><path d="M144.93,187.26v-.87h4.88v.87h-4.88ZM148.35,194.23c-.42,0-.79-.08-1.12-.24-.33-.16-.59-.4-.78-.72-.19-.32-.29-.72-.29-1.2v-7.81h1.23v7.78c0,.79.37,1.18,1.1,1.18.22,0,.43-.02.64-.07.21-.05.44-.12.69-.22l.18.9c-.27.12-.54.21-.81.29s-.55.11-.84.11Z" style="fill:#000; stroke-width:0px;"/><path d="M154.74,187.26v-.87h4.88v.87h-4.88ZM158.17,194.23c-.42,0-.79-.08-1.12-.24-.33-.16-.59-.4-.78-.72-.19-.32-.29-.72-.29-1.2v-7.81h1.23v7.78c0,.79.37,1.18,1.1,1.18.22,0,.43-.02.64-.07.21-.05.44-.12.69-.22l.18.9c-.27.12-.54.21-.81.29s-.55.11-.84.11Z" style="fill:#000; stroke-width:0px;"/><path d="M164.6,194.23c-.69,0-1.3-.15-1.84-.46-.54-.3-.96-.75-1.27-1.35s-.46-1.33-.46-2.21.15-1.62.46-2.21c.31-.6.73-1.04,1.27-1.35.54-.3,1.15-.46,1.84-.46s1.29.15,1.83.46c.54.3.96.75,1.26,1.35.31.59.46,1.33.46,2.21s-.15,1.61-.46,2.21c-.31.6-.73,1.05-1.26,1.35-.54.3-1.15.46-1.83.46ZM164.57,193.14c.5,0,.92-.12,1.26-.36.35-.24.61-.57.79-1.01.18-.44.27-.96.27-1.56,0-.91-.19-1.63-.57-2.16-.38-.52-.94-.79-1.69-.79-.5,0-.92.12-1.27.36-.34.24-.61.58-.78,1.02-.18.44-.27.96-.27,1.57,0,.9.19,1.62.57,2.14s.94.79,1.68.79Z" style="fill:#000; stroke-width:0px;"/><path d="M174.38,194.04v-10.91h1.25v10.91h-1.25ZM179.82,194.04v-4.5c0-.73-.17-1.29-.52-1.67-.35-.38-.83-.57-1.43-.57-.46,0-.86.13-1.19.38-.34.25-.59.61-.78,1.08-.18.47-.27,1.02-.27,1.67h-.48c0-.89.12-1.65.35-2.28.23-.63.58-1.11,1.03-1.44.45-.33,1-.5,1.64-.5.6,0,1.12.13,1.55.4.43.27.76.65.99,1.16.23.5.34,1.1.34,1.78v4.5h-1.23Z" style="fill:#000; stroke-width:0px;"/><path d="M186.69,194.23c-.66,0-1.25-.17-1.77-.51-.52-.34-.93-.81-1.23-1.41-.3-.6-.45-1.3-.45-2.08,0-.84.15-1.56.45-2.16.3-.6.71-1.07,1.23-1.39s1.11-.48,1.78-.48c.58,0,1.08.12,1.49.35.41.24.74.55.99.95s.43.85.52,1.36.13,1.03.08,1.56h-5.54v-.77h4.71l-.37.24c.02-.32,0-.63-.05-.95-.05-.31-.15-.6-.28-.87s-.33-.48-.58-.64c-.25-.16-.57-.24-.96-.24-.49,0-.9.12-1.23.38-.33.25-.58.58-.74.99s-.25.85-.25,1.32v.51c0,.53.08,1.01.24,1.43.16.42.41.75.73,1,.33.24.74.37,1.23.37s.9-.12,1.22-.36c.32-.24.51-.6.58-1.06h1.3c-.08.51-.26.94-.54,1.31s-.64.65-1.08.84-.93.3-1.48.3Z" style="fill:#000; stroke-width:0px;"/><path d="M192.25,194.04v-10.91h1.25v10.91h-1.25Z" style="fill:#000; stroke-width:0px;"/><path d="M196.73,197.8v-11.41h1.04l.21,1.79v9.62h-1.25ZM200.2,194.23c-.56,0-1.05-.13-1.46-.38s-.73-.63-.96-1.12c-.22-.49-.34-1.09-.34-1.8h.53c0,.47.1.88.3,1.2.2.33.45.57.77.74.32.17.65.25,1.01.25.38,0,.75-.11,1.1-.33.35-.22.64-.55.86-.98.22-.43.34-.96.34-1.6s-.1-1.13-.31-1.56c-.21-.43-.48-.76-.83-.99-.35-.23-.73-.35-1.15-.35-.36,0-.7.09-1.02.27-.32.18-.58.43-.78.77-.2.34-.3.76-.3,1.25h-.53c0-.74.12-1.36.37-1.87.25-.5.58-.88,1-1.14.42-.26.89-.38,1.42-.38.6,0,1.15.16,1.67.48s.94.78,1.26,1.38c.32.6.48,1.31.48,2.14s-.16,1.57-.48,2.17c-.32.6-.75,1.06-1.27,1.38s-1.09.48-1.69.48Z" style="fill:#000; stroke-width:0px;"/><path d="M208.62,186.39h1.39l2.5,6.56h-.29l1.94-6.56h1.28l-2.88,9.19c-.24.77-.56,1.36-.96,1.78-.4.42-.91.62-1.54.62-.34,0-.65-.05-.96-.14s-.61-.23-.93-.42v-1.15c.28.22.56.38.82.48.26.1.54.14.83.14.32,0,.59-.1.8-.3s.4-.46.54-.78c.14-.32.27-.65.37-1l.22-.77-3.14-7.65Z" style="fill:#000; stroke-width:0px;"/><path d="M220.1,194.23c-.69,0-1.3-.15-1.84-.46-.54-.3-.96-.75-1.27-1.35s-.46-1.33-.46-2.21.15-1.62.46-2.21c.31-.6.73-1.04,1.27-1.35.54-.3,1.15-.46,1.84-.46s1.29.15,1.83.46c.54.3.96.75,1.26,1.35.31.59.46,1.33.46,2.21s-.15,1.61-.46,2.21-.73,1.05-1.26,1.35c-.54.3-1.15.46-1.83.46ZM220.06,193.14c.5,0,.92-.12,1.26-.36.35-.24.61-.57.79-1.01.18-.44.27-.96.27-1.56,0-.91-.19-1.63-.57-2.16-.38-.52-.94-.79-1.69-.79-.5,0-.92.12-1.27.36-.34.24-.61.58-.78,1.02-.18.44-.27.96-.27,1.57,0,.9.19,1.62.57,2.14s.94.79,1.68.79Z" style="fill:#000; stroke-width:0px;"/><path d="M225.85,186.37h1.25v4.77c0,.64.16,1.13.47,1.46s.76.5,1.34.5c.48,0,.9-.13,1.25-.38.35-.26.63-.61.82-1.06.19-.45.29-.97.29-1.55h.46c0,.86-.12,1.59-.37,2.2-.25.61-.6,1.07-1.05,1.4s-.98.48-1.59.48c-.58,0-1.08-.11-1.51-.32-.43-.21-.77-.54-1.01-.97-.24-.43-.36-.98-.36-1.65v-4.87ZM231.27,186.37h1.25v7.66h-1.25v-7.66Z" style="fill:#000; stroke-width:0px;"/><path d="M235.76,194.04v-7.66h1.25v7.66h-1.25ZM236.62,190.58c0-.97.09-1.78.28-2.42.19-.64.46-1.12.82-1.44.36-.32.8-.47,1.32-.47.17,0,.33.01.47.04.14.02.28.06.43.11l-.08,1.23c-.15-.05-.31-.09-.49-.12-.18-.04-.33-.05-.47-.05-.45,0-.82.13-1.1.39-.28.26-.48.62-.6,1.09-.12.47-.19,1.02-.19,1.66h-.38Z" style="fill:#000; stroke-width:0px;"/><path d="M245.34,197.8v-11.41h1.04l.21,1.79v9.62h-1.25ZM248.81,194.23c-.56,0-1.05-.13-1.46-.38s-.73-.63-.96-1.12c-.22-.49-.34-1.09-.34-1.8h.53c0,.47.1.88.3,1.2.2.33.45.57.77.74.32.17.65.25,1.01.25.38,0,.75-.11,1.1-.33s.64-.55.86-.98c.22-.43.34-.96.34-1.6s-.1-1.13-.31-1.56c-.21-.43-.48-.76-.83-.99-.35-.23-.73-.35-1.15-.35-.36,0-.7.09-1.02.27-.32.18-.58.43-.78.77-.2.34-.3.76-.3,1.25h-.53c0-.74.12-1.36.37-1.87.25-.5.58-.88,1-1.14s.89-.38,1.42-.38c.6,0,1.15.16,1.67.48.52.32.94.78,1.26,1.38.32.6.48,1.31.48,2.14s-.16,1.57-.48,2.17c-.32.6-.75,1.06-1.27,1.38-.52.32-1.09.48-1.69.48Z" style="fill:#000; stroke-width:0px;"/><path d="M257.35,194.23c-.66,0-1.25-.17-1.77-.51-.52-.34-.93-.81-1.23-1.41-.3-.6-.45-1.3-.45-2.08,0-.84.15-1.56.45-2.16.3-.6.71-1.07,1.23-1.39s1.11-.48,1.78-.48c.58,0,1.08.12,1.49.35.41.24.74.55.99.95s.43.85.52,1.36.13,1.03.08,1.56h-5.54v-.77h4.71l-.37.24c.02-.32,0-.63-.05-.95-.05-.31-.15-.6-.28-.87s-.33-.48-.58-.64c-.25-.16-.57-.24-.96-.24-.49,0-.9.12-1.23.38-.33.25-.58.58-.74.99-.17.41-.25.85-.25,1.32v.51c0,.53.08,1.01.24,1.43.16.42.41.75.73,1,.33.24.74.37,1.23.37s.9-.12,1.22-.36c.32-.24.51-.6.58-1.06h1.3c-.08.51-.26.94-.54,1.31s-.64.65-1.08.84-.93.3-1.48.3Z" style="fill:#000; stroke-width:0px;"/><path d="M261.84,187.26v-.87h4.88v.87h-4.88ZM265.26,194.23c-.42,0-.79-.08-1.12-.24-.33-.16-.59-.4-.78-.72s-.29-.72-.29-1.2v-7.81h1.23v7.78c0,.79.37,1.18,1.1,1.18.22,0,.43-.02.64-.07.21-.05.44-.12.69-.22l.18.9c-.27.12-.54.21-.81.29-.27.07-.55.11-.84.11Z" style="fill:#000; stroke-width:0px;"/><path d="M272.73,194.04v-10.91h1.25v10.91h-1.25Z" style="fill:#000; stroke-width:0px;"/><path d="M277.91,184.58c-.26,0-.46-.07-.61-.22s-.22-.34-.22-.58.07-.42.22-.56.35-.21.61-.21.46.07.61.21c.15.14.22.33.22.56s-.07.43-.22.58c-.15.15-.35.22-.61.22ZM277.29,194.04v-7.66h1.25v7.66h-1.25Z" style="fill:#000; stroke-width:0px;"/><path d="M280.65,186.39h1.42l2.4,6.58h-.18l2.4-6.58h1.42l-3.06,7.65h-1.36l-3.06-7.65Z" style="fill:#000; stroke-width:0px;"/><path d="M292.67,194.23c-.66,0-1.25-.17-1.77-.51-.52-.34-.93-.81-1.23-1.41-.3-.6-.45-1.3-.45-2.08,0-.84.15-1.56.45-2.16.3-.6.71-1.07,1.23-1.39s1.11-.48,1.78-.48c.58,0,1.08.12,1.49.35.41.24.74.55.99.95s.43.85.52,1.36.13,1.03.08,1.56h-5.54v-.77h4.71l-.37.24c.02-.32,0-.63-.05-.95-.05-.31-.15-.6-.28-.87s-.33-.48-.58-.64c-.25-.16-.57-.24-.96-.24-.49,0-.9.12-1.23.38-.33.25-.58.58-.74.99-.17.41-.25.85-.25,1.32v.51c0,.53.08,1.01.24,1.43.16.42.41.75.73,1,.33.24.74.37,1.23.37s.9-.12,1.22-.36c.32-.24.51-.6.58-1.06h1.3c-.08.51-.26.94-.54,1.31s-.64.65-1.08.84-.93.3-1.48.3Z" style="fill:#000; stroke-width:0px;"/><path d="M300.96,187.26v-.87h4.88v.87h-4.88ZM304.38,194.23c-.42,0-.79-.08-1.12-.24-.33-.16-.59-.4-.78-.72s-.29-.72-.29-1.2v-7.81h1.23v7.78c0,.79.37,1.18,1.1,1.18.22,0,.43-.02.64-.07.21-.05.44-.12.69-.22l.18.9c-.27.12-.54.21-.81.29-.27.07-.55.11-.84.11Z" style="fill:#000; stroke-width:0px;"/><path d="M308.05,194.04v-10.91h1.25v10.91h-1.25ZM313.49,194.04v-4.5c0-.73-.17-1.29-.52-1.67-.35-.38-.83-.57-1.43-.57-.46,0-.86.13-1.19.38s-.59.61-.78,1.08c-.18.47-.27,1.02-.27,1.67h-.48c0-.89.12-1.65.35-2.28.23-.63.58-1.11,1.03-1.44.45-.33,1-.5,1.64-.5.6,0,1.12.13,1.55.4s.76.65.99,1.16c.23.5.34,1.1.34,1.78v4.5h-1.23Z" style="fill:#000; stroke-width:0px;"/><path d="M320.36,194.23c-.66,0-1.25-.17-1.77-.51-.52-.34-.93-.81-1.23-1.41-.3-.6-.45-1.3-.45-2.08,0-.84.15-1.56.45-2.16.3-.6.71-1.07,1.23-1.39s1.11-.48,1.78-.48c.58,0,1.08.12,1.49.35.41.24.74.55.99.95s.43.85.52,1.36.13,1.03.08,1.56h-5.54v-.77h4.71l-.37.24c.02-.32,0-.63-.05-.95-.05-.31-.15-.6-.28-.87s-.33-.48-.58-.64c-.25-.16-.57-.24-.96-.24-.49,0-.9.12-1.23.38-.33.25-.58.58-.74.99-.17.41-.25.85-.25,1.32v.51c0,.53.08,1.01.24,1.43.16.42.41.75.73,1,.33.24.74.37,1.23.37s.9-.12,1.22-.36c.32-.24.51-.6.58-1.06h1.3c-.08.51-.26.94-.54,1.31s-.64.65-1.08.84-.93.3-1.48.3Z" style="fill:#000; stroke-width:0px;"/><path d="M326.62,184.58c-.26,0-.46-.07-.61-.22s-.22-.34-.22-.58.07-.42.22-.56.35-.21.61-.21.46.07.61.21c.15.14.22.33.22.56s-.07.43-.22.58c-.15.15-.35.22-.61.22ZM326,194.04v-7.66h1.25v7.66h-1.25Z" style="fill:#000; stroke-width:0px;"/><path d="M330.68,194.04v-7.66h1.25v7.66h-1.25ZM331.55,190.58c0-.97.09-1.78.28-2.42.19-.64.46-1.12.82-1.44.36-.32.8-.47,1.32-.47.17,0,.33.01.47.04.14.02.28.06.43.11l-.08,1.23c-.15-.05-.31-.09-.49-.12-.18-.04-.33-.05-.47-.05-.45,0-.82.13-1.1.39-.28.26-.48.62-.6,1.09-.12.47-.19,1.02-.19,1.66h-.38Z" style="fill:#000; stroke-width:0px;"/><path d="M140.76,219.04v-10.91h1.25v9.12l-.37,1.79h-.88ZM144.26,219.23c-.51,0-.97-.13-1.39-.4-.41-.27-.74-.66-.98-1.17-.24-.52-.36-1.14-.36-1.88h.48c0,.5.1.92.31,1.27.21.35.47.62.8.8.33.18.67.27,1.02.27.41,0,.79-.12,1.13-.35.34-.23.61-.57.82-1.01s.31-.96.31-1.57-.1-1.11-.3-1.54c-.2-.43-.48-.76-.82-.99-.34-.23-.73-.35-1.15-.35-.36,0-.71.09-1.03.27-.32.18-.58.44-.78.79-.2.35-.3.77-.3,1.28h-.48c0-.72.12-1.34.36-1.86s.57-.9.99-1.18c.42-.27.91-.41,1.47-.41.6,0,1.16.16,1.66.48.5.32.91.78,1.21,1.38.3.6.46,1.3.46,2.12s-.15,1.54-.46,2.14-.72,1.07-1.24,1.41c-.52.33-1.09.5-1.7.5Z" style="fill:#000; stroke-width:0px;"/><path d="M152.89,219.23c-.66,0-1.25-.17-1.77-.51-.52-.34-.93-.81-1.23-1.41-.3-.6-.45-1.3-.45-2.08,0-.84.15-1.56.45-2.16.3-.6.71-1.07,1.23-1.39s1.11-.48,1.78-.48c.58,0,1.08.12,1.49.35.41.24.74.55.99.95s.43.85.52,1.36.13,1.03.08,1.56h-5.54v-.77h4.71l-.37.24c.02-.32,0-.63-.05-.95-.05-.31-.15-.6-.28-.87s-.33-.48-.58-.64c-.25-.16-.57-.24-.96-.24-.49,0-.9.12-1.23.38-.33.25-.58.58-.74.99s-.25.85-.25,1.32v.51c0,.53.08,1.01.24,1.43.16.42.41.75.73,1,.33.24.74.37,1.23.37s.9-.12,1.22-.36c.32-.24.51-.6.58-1.06h1.3c-.08.51-.26.94-.54,1.31s-.64.65-1.08.84-.93.3-1.48.3Z" style="fill:#000; stroke-width:0px;"/><path d="M161.2,219.23c-.74,0-1.36-.11-1.86-.32-.5-.21-.87-.5-1.13-.87-.26-.37-.39-.79-.41-1.28h1.2c.03.48.22.85.59,1.09s.86.36,1.49.36c.33,0,.63-.05.91-.16.28-.11.5-.25.66-.44.17-.19.25-.4.25-.63,0-.3-.11-.53-.33-.71-.22-.17-.57-.32-1.05-.45l-1.49-.48c-.65-.2-1.14-.48-1.48-.84s-.52-.78-.52-1.28c0-.62.27-1.12.82-1.49s1.26-.56,2.14-.56c.94,0,1.67.19,2.18.58.52.38.79.86.81,1.44h-1.23c-.05-.34-.22-.59-.51-.76-.29-.17-.71-.26-1.25-.26s-.92.12-1.21.35c-.29.23-.44.49-.44.77,0,.53.45.92,1.36,1.17l1.52.51c.66.2,1.16.46,1.51.78.35.32.52.73.52,1.22,0,.38-.13.75-.38,1.09s-.61.62-1.06.83-1,.32-1.63.32Z" style="fill:#000; stroke-width:0px;"/><path d="M165.79,212.26v-.87h4.88v.87h-4.88ZM169.21,219.23c-.42,0-.79-.08-1.12-.24-.33-.16-.59-.4-.78-.72-.19-.32-.29-.72-.29-1.2v-7.81h1.23v7.78c0,.79.37,1.18,1.1,1.18.22,0,.43-.02.64-.07.21-.05.44-.12.69-.22l.18.9c-.27.12-.54.21-.81.29s-.55.11-.84.11Z" style="fill:#000; stroke-width:0px;"/><path d="M176.68,219.04v-10.91h1.25v10.91h-1.25Z" style="fill:#000; stroke-width:0px;"/><path d="M181.86,209.58c-.26,0-.46-.07-.61-.22-.15-.15-.22-.34-.22-.58s.07-.42.22-.56c.15-.14.35-.21.61-.21s.46.07.61.21c.15.14.22.33.22.56s-.07.43-.22.58c-.15.15-.35.22-.61.22ZM181.24,219.04v-7.66h1.25v7.66h-1.25Z" style="fill:#000; stroke-width:0px;"/><path d="M185.09,212.26v-.87h4.08v.87h-4.08ZM186.34,219.04v-8.83c0-.51.1-.92.29-1.24.19-.32.46-.56.78-.71.33-.15.69-.23,1.1-.23.22,0,.44.02.67.05.23.03.45.08.68.14l-.24.99c-.16-.06-.32-.11-.48-.14-.16-.03-.31-.05-.45-.05-.17,0-.34.03-.51.1-.17.06-.31.18-.42.36s-.17.43-.17.76v8.82h-1.25Z" style="fill:#000; stroke-width:0px;"/><path d="M194.06,219.23c-.66,0-1.25-.17-1.77-.51-.52-.34-.93-.81-1.23-1.41-.3-.6-.45-1.3-.45-2.08,0-.84.15-1.56.45-2.16.3-.6.71-1.07,1.23-1.39s1.11-.48,1.78-.48c.58,0,1.08.12,1.49.35.41.24.74.55.99.95s.43.85.52,1.36.13,1.03.08,1.56h-5.54v-.77h4.71l-.37.24c.02-.32,0-.63-.05-.95-.05-.31-.15-.6-.28-.87s-.33-.48-.58-.64c-.25-.16-.57-.24-.96-.24-.49,0-.9.12-1.23.38-.33.25-.58.58-.74.99s-.25.85-.25,1.32v.51c0,.53.08,1.01.24,1.43.16.42.41.75.73,1,.33.24.74.37,1.23.37s.9-.12,1.22-.36c.32-.24.51-.6.58-1.06h1.3c-.08.51-.26.94-.54,1.31s-.64.65-1.08.84-.93.3-1.48.3Z" style="fill:#000; stroke-width:0px;"/><path d="M198.48,218.29c0-.25.09-.47.26-.65.18-.18.4-.27.66-.27s.49.09.68.27c.19.18.28.4.28.65s-.09.46-.28.63c-.19.17-.41.26-.68.26s-.49-.09-.66-.26c-.18-.17-.26-.38-.26-.63Z" style="fill:#000; stroke-width:0px;"/></svg>