<?xml version="1.0" encoding="UTF-8"?><svg id="Layer_1" xmlns="http://www.w3.org/2000/svg" width="600" height="320" viewBox="0 0 600 344"><path d="M153.93,45.18c-3.07,0-5.92-.52-8.54-1.55-2.62-1.03-4.76-2.66-6.4-4.86-1.64-2.21-2.55-5.08-2.72-8.62h10.11c0,1.3.33,2.38.99,3.23.66.85,1.56,1.48,2.7,1.89,1.14.41,2.41.61,3.79.61,1.11,0,2.15-.1,3.12-.29.97-.19,1.75-.53,2.35-1.02.6-.49.9-1.16.9-2.02,0-1.04-.31-1.82-.94-2.34-.63-.51-1.77-1.1-3.41-1.76l-9.34-4.06c-3.07-1.32-5.46-2.88-7.17-4.67-1.71-1.79-2.56-4.23-2.56-7.33,0-3.63,1.48-6.55,4.43-8.78,2.95-2.23,7-3.34,12.14-3.34s9.24,1.23,12.03,3.7c2.79,2.46,4.36,5.98,4.7,10.54h-10.05c-.26-1.41-.88-2.59-1.87-3.55-.99-.96-2.6-1.44-4.82-1.44-1.6,0-2.89.29-3.87.88-.98.59-1.47,1.32-1.47,2.19,0,.81.31,1.45.94,1.92.63.47,1.57.98,2.83,1.54l9.89,4.19c3.28,1.43,5.73,3.1,7.34,5.02,1.61,1.92,2.42,4.22,2.42,6.91,0,2.88-.69,5.29-2.06,7.22-1.38,1.93-3.37,3.38-5.98,4.35-2.61.97-5.78,1.46-9.49,1.46Z" style="fill:#000; stroke-width:0px;"/><path d="M182.95,44.16V1.21h28.7v8.86h-18.46v8.26h17.31v8.9h-17.31v7.97h18.46v8.96h-28.7Z" style="fill:#000; stroke-width:0px;"/><path d="M224.23,1.21h10.69l17.25,25.98h-.7V1.21h10.24v42.94h-9.89l-19.04-28.54h1.7v28.54h-10.24V1.21Z" style="fill:#000; stroke-width:0px;"/><path d="M290.92,45.18c-3.07,0-5.92-.52-8.54-1.55-2.62-1.03-4.76-2.66-6.4-4.86-1.64-2.21-2.55-5.08-2.72-8.62h10.11c0,1.3.33,2.38.99,3.23.66.85,1.56,1.48,2.7,1.89,1.14.41,2.41.61,3.79.61,1.11,0,2.15-.1,3.12-.29.97-.19,1.75-.53,2.35-1.02.6-.49.9-1.16.9-2.02,0-1.04-.31-1.82-.94-2.34-.63-.51-1.77-1.1-3.41-1.76l-9.34-4.06c-3.07-1.32-5.46-2.88-7.17-4.67-1.71-1.79-2.56-4.23-2.56-7.33,0-3.63,1.48-6.55,4.43-8.78,2.95-2.23,7-3.34,12.14-3.34s9.24,1.23,12.03,3.7c2.79,2.46,4.36,5.98,4.7,10.54h-10.05c-.26-1.41-.88-2.59-1.87-3.55-.99-.96-2.6-1.44-4.82-1.44-1.6,0-2.89.29-3.87.88-.98.59-1.47,1.32-1.47,2.19,0,.81.31,1.45.94,1.92.63.47,1.57.98,2.83,1.54l9.89,4.19c3.28,1.43,5.73,3.1,7.34,5.02,1.61,1.92,2.42,4.22,2.42,6.91,0,2.88-.69,5.29-2.06,7.22-1.38,1.93-3.37,3.38-5.98,4.35-2.61.97-5.78,1.46-9.49,1.46Z" style="fill:#000; stroke-width:0px;"/><path d="M319.94,44.16V1.21h28.7v8.86h-18.46v8.26h17.31v8.9h-17.31v7.97h18.46v8.96h-28.7Z" style="fill:#000; stroke-width:0px;"/><path d="M398.53,45.18c-4.08,0-7.63-.86-10.67-2.58s-5.4-4.26-7.09-7.62-2.53-7.5-2.53-12.43.84-9.23,2.53-12.53,4.05-5.75,7.09-7.36c3.04-1.61,6.6-2.42,10.67-2.42s7.71.84,10.77,2.53c3.06,1.69,5.43,4.18,7.12,7.49,1.68,3.31,2.53,7.4,2.53,12.29s-.84,9.2-2.53,12.56c-1.69,3.36-4.06,5.88-7.12,7.55-3.06,1.67-6.65,2.51-10.77,2.51ZM398.53,36c2.99,0,5.38-1.18,7.17-3.54,1.79-2.36,2.69-5.68,2.69-9.97,0-4.03-.9-7.22-2.69-9.55s-4.18-3.5-7.17-3.5-5.25,1.17-7.04,3.5-2.69,5.54-2.69,9.62.9,7.55,2.69,9.9c1.79,2.36,4.14,3.54,7.04,3.54Z" style="fill:#000; stroke-width:0px;"/><path d="M429.32,44.16V1.21h28v8.86h-17.76v8.42h15.9v8.74h-15.9v16.93h-10.24Z" style="fill:#000; stroke-width:0px;"/><path d="M221.16,120.96v-42.94h16.48c4.95,0,8.87,1.19,11.78,3.57,2.9,2.38,4.35,5.89,4.35,10.54s-1.45,8.14-4.35,10.54c-2.9,2.4-6.83,3.6-11.78,3.6h-6.18v14.69h-10.3ZM231.46,97.31h6.18c1.86,0,3.26-.52,4.21-1.55.95-1.03,1.42-2.25,1.42-3.63s-.48-2.63-1.42-3.68-2.35-1.57-4.21-1.57h-6.18v10.43Z" style="fill:#000; stroke-width:0px;"/><path d="M272.87,78.01v33.98h16.22v8.96h-26.46v-42.94h10.24Z" style="fill:#000; stroke-width:0px;"/><path d="M294.02,120.96l14.46-42.94h13.02l13.66,42.94h-10.78l-2.34-7.55h-14.82l-2.34,7.55h-10.88ZM309.83,105.82h9.89l-4.86-15.71-5.02,15.71Z" style="fill:#000; stroke-width:0px;"/><path d="M336.96,78.01h12.03l8.26,16.1h-1.66l8.8-16.1h12l-15.04,25.12v17.82h-10.18v-17.82l-14.21-25.12Z" style="fill:#000; stroke-width:0px;"/><path d="M72.07,170.56v-11.3h1.4v11.3h-1.4Z" style="fill:#000; stroke-width:0px;"/><path d="M80.21,170.78c-.83,0-1.53-.12-2.09-.36-.56-.24-.98-.56-1.27-.98s-.44-.9-.46-1.44h1.35c.03.55.25.96.66,1.23.41.27.97.41,1.68.41.37,0,.71-.06,1.03-.18s.56-.29.75-.5.28-.45.28-.71c0-.34-.12-.6-.37-.79-.25-.19-.64-.36-1.18-.5l-1.67-.54c-.73-.23-1.28-.54-1.67-.94-.39-.4-.58-.88-.58-1.44,0-.7.31-1.25.92-1.67.61-.42,1.42-.63,2.41-.63,1.06,0,1.87.22,2.46.65s.89.97.91,1.62h-1.39c-.05-.38-.25-.67-.58-.86-.33-.2-.8-.29-1.4-.29s-1.04.13-1.36.39-.49.55-.49.87c0,.59.51,1.03,1.53,1.31l1.71.58c.74.22,1.3.51,1.7.87.39.36.59.82.59,1.38,0,.43-.14.84-.42,1.22-.28.38-.68.7-1.2.94-.52.24-1.13.36-1.84.36Z" style="fill:#000; stroke-width:0px;"/><path d="M89.64,162.93v-.97h5.49v.97h-5.49ZM93.49,170.78c-.47,0-.89-.09-1.26-.27-.37-.18-.67-.45-.88-.81-.22-.36-.32-.81-.32-1.35v-8.78h1.39v8.75c0,.89.41,1.33,1.24,1.33.25,0,.48-.03.72-.08s.49-.13.78-.24l.2,1.01c-.31.13-.61.24-.91.32-.3.08-.62.13-.94.13Z" style="fill:#000; stroke-width:0px;"/><path d="M97.62,170.56v-12.28h1.4v12.28h-1.4ZM103.74,170.56v-5.06c0-.82-.2-1.45-.59-1.88-.39-.43-.93-.64-1.61-.64-.52,0-.96.14-1.34.42-.38.28-.67.69-.87,1.21s-.31,1.15-.31,1.88h-.54c0-1,.13-1.86.4-2.56.26-.71.65-1.25,1.16-1.62s1.12-.56,1.85-.56c.68,0,1.26.15,1.74.46.48.3.85.74,1.11,1.3.26.56.39,1.23.39,2.01v5.06h-1.39Z" style="fill:#000; stroke-width:0px;"/><path d="M111.47,170.78c-.74,0-1.41-.19-1.99-.57s-1.05-.91-1.39-1.59-.51-1.46-.51-2.34c0-.94.17-1.75.5-2.43s.8-1.2,1.38-1.56c.58-.36,1.25-.54,2-.54.65,0,1.21.13,1.67.4s.83.62,1.12,1.07c.28.45.48.96.59,1.53.11.57.14,1.15.09,1.76h-6.23v-.86h5.3l-.41.27c.02-.35,0-.71-.06-1.06-.06-.35-.16-.68-.32-.98-.16-.3-.38-.54-.66-.72-.28-.18-.64-.27-1.08-.27-.55,0-1.01.14-1.39.42s-.65.65-.84,1.11-.28.96-.28,1.49v.58c0,.6.09,1.14.27,1.61.18.47.46.85.82,1.12.37.28.83.41,1.39.41s1.02-.14,1.38-.41c.36-.27.58-.67.66-1.2h1.46c-.09.57-.29,1.06-.61,1.47-.32.41-.72.73-1.21.95-.49.22-1.05.33-1.67.33Z" style="fill:#000; stroke-width:0px;"/><path d="M117.72,170.56v-8.62h1.4v8.62h-1.4ZM118.69,166.67c0-1.09.1-2,.31-2.72s.52-1.26.92-1.62c.41-.36.9-.54,1.48-.54.19,0,.37.01.53.04.16.03.32.07.48.12l-.09,1.39c-.17-.05-.35-.1-.55-.14-.2-.04-.38-.06-.53-.06-.51,0-.92.15-1.23.44s-.54.7-.68,1.23c-.14.53-.21,1.15-.21,1.86h-.43Z" style="fill:#000; stroke-width:0px;"/><path d="M127.22,170.78c-.74,0-1.41-.19-1.99-.57s-1.05-.91-1.39-1.59-.51-1.46-.51-2.34c0-.94.17-1.75.5-2.43s.8-1.2,1.38-1.56c.58-.36,1.25-.54,2-.54.65,0,1.21.13,1.67.4s.83.62,1.12,1.07c.28.45.48.96.59,1.53.11.57.14,1.15.09,1.76h-6.23v-.86h5.3l-.41.27c.02-.35,0-.71-.06-1.06-.06-.35-.16-.68-.32-.98-.16-.3-.38-.54-.66-.72-.28-.18-.64-.27-1.08-.27-.55,0-1.01.14-1.39.42s-.65.65-.84,1.11-.28.96-.28,1.49v.58c0,.6.09,1.14.27,1.61.18.47.46.85.82,1.12.37.28.83.41,1.39.41s1.02-.14,1.38-.41c.36-.27.58-.67.66-1.2h1.46c-.09.57-.29,1.06-.61,1.47-.32.41-.72.73-1.21.95-.49.22-1.05.33-1.67.33Z" style="fill:#000; stroke-width:0px;"/><path d="M140.14,170.78c-.71,0-1.29-.13-1.75-.38s-.81-.58-1.04-.98c-.23-.4-.34-.83-.34-1.27,0-.58.15-1.06.44-1.42s.69-.63,1.19-.81,1.07-.26,1.7-.26c.45,0,.9.05,1.35.14.45.09.9.21,1.33.37v.88c-.36-.14-.77-.26-1.22-.34s-.87-.13-1.25-.13c-.58,0-1.06.12-1.46.36-.4.24-.59.64-.59,1.21,0,.42.15.78.45,1.08.3.3.79.45,1.45.45.47,0,.89-.11,1.26-.33.38-.22.67-.49.89-.82.22-.33.33-.66.33-.99h.34c0,.58-.12,1.11-.37,1.6s-.6.89-1.07,1.19c-.46.3-1.01.45-1.66.45ZM143.07,170.56l-.18-1.89v-3.69c0-.77-.17-1.33-.49-1.67-.33-.34-.83-.51-1.49-.51-.37,0-.71.05-1.01.16-.3.11-.54.27-.72.5-.18.23-.27.51-.27.87h-1.57c0-.62.15-1.13.46-1.51.31-.38.73-.66,1.26-.83s1.15-.26,1.84-.26,1.25.11,1.76.33c.51.22.91.58,1.2,1.06.29.48.43,1.11.43,1.89v5.54h-1.22Z" style="fill:#000; stroke-width:0px;"/><path d="M147.65,170.56v-8.6h1.21l.2,1.98v6.62h-1.4ZM153.77,170.56v-5.06c0-.82-.2-1.45-.59-1.88-.39-.43-.93-.64-1.61-.64-.52,0-.96.14-1.34.42-.38.28-.67.69-.87,1.21s-.31,1.15-.31,1.88h-.54c0-1,.13-1.86.4-2.56.26-.71.65-1.25,1.16-1.62s1.12-.56,1.85-.56c.68,0,1.26.15,1.74.46.48.3.85.74,1.11,1.3.26.56.39,1.23.39,2.01v5.06h-1.39Z" style="fill:#000; stroke-width:0px;"/><path d="M157.1,161.96h1.57l2.81,7.38h-.32l2.18-7.38h1.44l-3.24,10.33c-.27.86-.63,1.53-1.08,2-.45.47-1.03.7-1.73.7-.38,0-.74-.05-1.08-.16-.34-.11-.69-.26-1.05-.47v-1.3c.32.25.63.43.92.54s.61.16.93.16c.36,0,.66-.11.9-.34.24-.23.45-.52.61-.88.16-.36.3-.73.41-1.12l.25-.86-3.53-8.6Z" style="fill:#000; stroke-width:0px;"/><path d="M165.69,162.93v-.97h5.49v.97h-5.49ZM169.54,170.78c-.47,0-.89-.09-1.26-.27-.37-.18-.67-.45-.88-.81-.22-.36-.32-.81-.32-1.35v-8.78h1.39v8.75c0,.89.41,1.33,1.24,1.33.25,0,.48-.03.72-.08s.49-.13.78-.24l.2,1.01c-.31.13-.61.24-.91.32-.3.08-.62.13-.94.13Z" style="fill:#000; stroke-width:0px;"/><path d="M173.66,170.56v-12.28h1.4v12.28h-1.4ZM179.78,170.56v-5.06c0-.82-.2-1.45-.59-1.88-.39-.43-.93-.64-1.61-.64-.52,0-.96.14-1.34.42-.38.28-.67.69-.87,1.21s-.31,1.15-.31,1.88h-.54c0-1,.13-1.86.4-2.56.26-.71.65-1.25,1.16-1.62s1.12-.56,1.85-.56c.68,0,1.26.15,1.74.46.48.3.85.74,1.11,1.3.26.56.39,1.23.39,2.01v5.06h-1.39Z" style="fill:#000; stroke-width:0px;"/><path d="M185.32,159.92c-.29,0-.52-.08-.68-.25s-.25-.38-.25-.65.08-.47.25-.63.4-.23.68-.23.52.08.68.23.25.37.25.63-.08.49-.25.65-.4.25-.68.25ZM184.62,170.56v-8.62h1.4v8.62h-1.4Z" style="fill:#000; stroke-width:0px;"/><path d="M189.89,170.56v-8.6h1.21l.2,1.98v6.62h-1.4ZM196.01,170.56v-5.06c0-.82-.2-1.45-.59-1.88-.39-.43-.93-.64-1.61-.64-.52,0-.96.14-1.34.42-.38.28-.67.69-.87,1.21s-.31,1.15-.31,1.88h-.54c0-1,.13-1.86.4-2.56.26-.71.65-1.25,1.16-1.62s1.12-.56,1.85-.56c.68,0,1.26.15,1.74.46.48.3.85.74,1.11,1.3.26.56.39,1.23.39,2.01v5.06h-1.39Z" style="fill:#000; stroke-width:0px;"/><path d="M203.8,174.99c-.88,0-1.65-.12-2.29-.37s-1.15-.58-1.51-1-.54-.88-.54-1.38c0-.67.24-1.17.73-1.53.49-.35,1.12-.53,1.89-.53l.77.49c-.65,0-1.15.13-1.5.4-.35.27-.53.64-.53,1.11s.25.86.76,1.19c.5.32,1.24.49,2.21.49.72,0,1.35-.1,1.89-.31s.97-.48,1.27-.81c.3-.33.45-.69.45-1.08,0-.27-.1-.5-.3-.7-.2-.2-.5-.29-.91-.29h-3.35c-.58,0-1.08-.09-1.51-.27s-.75-.41-.98-.7c-.23-.29-.34-.6-.34-.94,0-.36.1-.67.31-.92.2-.25.47-.44.8-.58.33-.13.68-.2,1.06-.2l.27.52c-.18,0-.36.04-.54.12s-.34.2-.46.36-.18.36-.18.6c0,.28.11.51.34.69.23.19.64.28,1.24.28h3.35c.81,0,1.45.17,1.91.51.46.34.7.82.7,1.43,0,.56-.2,1.11-.6,1.62s-.98.95-1.73,1.28-1.65.5-2.69.5ZM204.05,168.04c-.66,0-1.26-.13-1.79-.4-.53-.26-.95-.63-1.26-1.11-.31-.47-.46-1.02-.46-1.65s.15-1.18.46-1.66c.31-.47.73-.84,1.26-1.1.53-.26,1.13-.39,1.79-.39s1.23.13,1.75.39c.53.26.94.63,1.26,1.1.31.47.47,1.03.47,1.66s-.16,1.17-.47,1.65c-.31.47-.73.84-1.26,1.11-.52.26-1.11.4-1.75.4ZM204.05,167.03c.66,0,1.17-.2,1.54-.61.37-.41.55-.92.55-1.53s-.18-1.14-.55-1.53c-.37-.39-.88-.59-1.54-.59s-1.17.2-1.54.59c-.38.39-.56.9-.56,1.53s.19,1.12.56,1.53.89.61,1.54.61ZM206.87,163.11l-.67-.27c0-.5.1-.95.3-1.33.2-.38.48-.68.85-.89.37-.21.8-.32,1.31-.32l-.11,1.39c-.54,0-.95.12-1.24.35-.29.23-.43.59-.43,1.08Z" style="fill:#000; stroke-width:0px;"/><path d="M215.19,170.56v-12.28h1.4v10.26l-.41,2.02h-.99ZM219.13,170.78c-.58,0-1.1-.15-1.56-.45-.47-.3-.83-.74-1.11-1.32s-.41-1.29-.41-2.12h.54c0,.56.12,1.03.35,1.43.23.39.53.69.9.9.37.2.75.31,1.15.31.46,0,.88-.13,1.27-.4.38-.26.69-.64.92-1.13.23-.49.35-1.08.35-1.76s-.11-1.25-.34-1.73c-.23-.48-.54-.86-.92-1.12-.39-.26-.82-.39-1.29-.39-.41,0-.79.1-1.16.3-.36.2-.66.5-.88.89-.23.39-.34.87-.34,1.44h-.54c0-.82.13-1.51.4-2.09s.64-1.02,1.11-1.32c.47-.31,1.03-.46,1.66-.46.68,0,1.3.18,1.87.54.57.36,1.02.88,1.36,1.55.34.67.51,1.47.51,2.38s-.17,1.73-.52,2.41c-.35.68-.81,1.21-1.4,1.58s-1.22.56-1.92.56Z" style="fill:#000; stroke-width:0px;"/><path d="M228.84,170.78c-.74,0-1.41-.19-1.99-.57s-1.05-.91-1.39-1.59-.51-1.46-.51-2.34c0-.94.17-1.75.5-2.43s.8-1.2,1.38-1.56c.58-.36,1.25-.54,2-.54.65,0,1.21.13,1.67.4s.83.62,1.12,1.07c.28.45.48.96.59,1.53.11.57.14,1.15.09,1.76h-6.23v-.86h5.3l-.41.27c.02-.35,0-.71-.06-1.06-.06-.35-.16-.68-.32-.98-.16-.3-.38-.54-.66-.72-.28-.18-.64-.27-1.08-.27-.55,0-1.01.14-1.39.42s-.65.65-.84,1.11-.28.96-.28,1.49v.58c0,.6.09,1.14.27,1.61.18.47.46.85.82,1.12.37.28.83.41,1.39.41s1.02-.14,1.38-.41c.36-.27.58-.67.66-1.2h1.46c-.09.57-.29,1.06-.61,1.47-.32.41-.72.73-1.21.95-.49.22-1.05.33-1.67.33Z" style="fill:#000; stroke-width:0px;"/><path d="M233.89,162.93v-.97h5.49v.97h-5.49ZM237.74,170.78c-.47,0-.89-.09-1.26-.27-.37-.18-.67-.45-.88-.81-.22-.36-.32-.81-.32-1.35v-8.78h1.39v8.75c0,.89.41,1.33,1.24,1.33.25,0,.48-.03.72-.08s.49-.13.78-.24l.2,1.01c-.31.13-.61.24-.91.32-.3.08-.62.13-.94.13Z" style="fill:#000; stroke-width:0px;"/><path d="M240.66,162.93v-.97h5.49v.97h-5.49ZM244.51,170.78c-.47,0-.89-.09-1.26-.27-.37-.18-.67-.45-.88-.81-.22-.36-.32-.81-.32-1.35v-8.78h1.39v8.75c0,.89.41,1.33,1.24,1.33.25,0,.48-.03.72-.08s.49-.13.78-.24l.2,1.01c-.31.13-.61.24-.91.32-.3.08-.62.13-.94.13Z" style="fill:#000; stroke-width:0px;"/><path d="M251.62,170.78c-.74,0-1.41-.19-1.99-.57s-1.05-.91-1.39-1.59-.51-1.46-.51-2.34c0-.94.17-1.75.5-2.43s.8-1.2,1.38-1.56c.58-.36,1.25-.54,2-.54.65,0,1.21.13,1.67.4s.83.62,1.12,1.07c.28.45.48.96.59,1.53.11.57.14,1.15.09,1.76h-6.23v-.86h5.3l-.41.27c.02-.35,0-.71-.06-1.06-.06-.35-.16-.68-.32-.98-.16-.3-.38-.54-.66-.72-.28-.18-.64-.27-1.08-.27-.55,0-1.01.14-1.39.42s-.65.65-.84,1.11-.28.96-.28,1.49v.58c0,.6.09,1.14.27,1.61.18.47.46.85.82,1.12.37.28.83.41,1.39.41s1.02-.14,1.38-.41c.36-.27.58-.67.66-1.2h1.46c-.09.57-.29,1.06-.61,1.47-.32.41-.72.73-1.21.95-.49.22-1.05.33-1.67.33Z" style="fill:#000; stroke-width:0px;"/><path d="M257.88,170.56v-8.62h1.4v8.62h-1.4ZM258.85,166.67c0-1.09.1-2,.31-2.72s.52-1.26.92-1.62c.41-.36.9-.54,1.48-.54.19,0,.37.01.53.04.16.03.32.07.48.12l-.09,1.39c-.17-.05-.35-.1-.55-.14-.2-.04-.38-.06-.53-.06-.51,0-.92.15-1.23.44s-.54.7-.68,1.23c-.14.53-.21,1.15-.21,1.86h-.43Z" style="fill:#000; stroke-width:0px;"/><path d="M267.45,162.93v-.97h5.49v.97h-5.49ZM271.3,170.78c-.47,0-.89-.09-1.26-.27-.37-.18-.67-.45-.88-.81-.22-.36-.32-.81-.32-1.35v-8.78h1.39v8.75c0,.89.41,1.33,1.24,1.33.25,0,.48-.03.72-.08s.49-.13.78-.24l.2,1.01c-.31.13-.61.24-.91.32-.3.08-.62.13-.94.13Z" style="fill:#000; stroke-width:0px;"/><path d="M275.43,170.56v-12.28h1.4v12.28h-1.4ZM281.55,170.56v-5.06c0-.82-.2-1.45-.59-1.88-.39-.43-.93-.64-1.61-.64-.52,0-.96.14-1.34.42-.38.28-.67.69-.87,1.21s-.31,1.15-.31,1.88h-.54c0-1,.13-1.86.4-2.56.26-.71.65-1.25,1.16-1.62s1.12-.56,1.85-.56c.68,0,1.26.15,1.74.46.48.3.85.74,1.11,1.3.26.56.39,1.23.39,2.01v5.06h-1.39Z" style="fill:#000; stroke-width:0px;"/><path d="M288.68,170.78c-.71,0-1.29-.13-1.75-.38s-.81-.58-1.04-.98c-.23-.4-.34-.83-.34-1.27,0-.58.15-1.06.44-1.42s.69-.63,1.19-.81,1.07-.26,1.7-.26c.45,0,.9.05,1.35.14.45.09.9.21,1.33.37v.88c-.36-.14-.77-.26-1.22-.34s-.87-.13-1.25-.13c-.58,0-1.06.12-1.46.36-.4.24-.59.64-.59,1.21,0,.42.15.78.45,1.08.3.3.79.45,1.45.45.47,0,.89-.11,1.26-.33.38-.22.67-.49.89-.82.22-.33.33-.66.33-.99h.34c0,.58-.12,1.11-.37,1.6s-.6.89-1.07,1.19c-.46.3-1.01.45-1.66.45ZM291.62,170.56l-.18-1.89v-3.69c0-.77-.17-1.33-.49-1.67-.33-.34-.83-.51-1.49-.51-.37,0-.71.05-1.01.16-.3.11-.54.27-.72.5-.18.23-.27.51-.27.87h-1.57c0-.62.15-1.13.46-1.51.31-.38.73-.66,1.26-.83s1.15-.26,1.84-.26,1.25.11,1.76.33c.51.22.91.58,1.2,1.06.29.48.43,1.11.43,1.89v5.54h-1.22Z" style="fill:#000; stroke-width:0px;"/><path d="M296.2,170.56v-8.6h1.21l.2,1.98v6.62h-1.4ZM302.32,170.56v-5.06c0-.82-.2-1.45-.59-1.88-.39-.43-.93-.64-1.61-.64-.52,0-.96.14-1.34.42-.38.28-.67.69-.87,1.21s-.31,1.15-.31,1.88h-.54c0-1,.13-1.86.4-2.56.26-.71.65-1.25,1.16-1.62s1.12-.56,1.85-.56c.68,0,1.26.15,1.74.46.48.3.85.74,1.11,1.3.26.56.39,1.23.39,2.01v5.06h-1.39Z" style="fill:#000; stroke-width:0px;"/><path d="M314.43,170.78c-.83,0-1.53-.12-2.09-.36-.56-.24-.98-.56-1.27-.98s-.44-.9-.46-1.44h1.35c.03.55.25.96.66,1.23.41.27.97.41,1.68.41.37,0,.71-.06,1.03-.18s.56-.29.75-.5.28-.45.28-.71c0-.34-.12-.6-.37-.79-.25-.19-.64-.36-1.18-.5l-1.67-.54c-.73-.23-1.28-.54-1.67-.94-.39-.4-.58-.88-.58-1.44,0-.7.31-1.25.92-1.67.61-.42,1.42-.63,2.41-.63,1.06,0,1.87.22,2.46.65s.89.97.91,1.62h-1.39c-.05-.38-.25-.67-.58-.86-.33-.2-.8-.29-1.4-.29s-1.04.13-1.36.39-.49.55-.49.87c0,.59.51,1.03,1.53,1.31l1.71.58c.74.22,1.3.51,1.7.87.39.36.59.82.59,1.38,0,.43-.14.84-.42,1.22-.28.38-.68.7-1.2.94-.52.24-1.13.36-1.84.36Z" style="fill:#000; stroke-width:0px;"/><path d="M320.79,174.79v-12.83h1.17l.23,2.02v10.82h-1.4ZM324.7,170.78c-.63,0-1.18-.14-1.64-.43-.47-.29-.82-.71-1.08-1.26s-.38-1.23-.38-2.03h.59c0,.53.11.98.33,1.35.22.37.51.64.87.83.36.19.74.28,1.14.28.43,0,.85-.12,1.24-.37.4-.25.72-.62.97-1.1.25-.49.38-1.09.38-1.8s-.12-1.27-.35-1.75c-.23-.49-.54-.86-.93-1.12-.39-.26-.82-.39-1.3-.39-.41,0-.79.1-1.15.3-.36.2-.65.49-.87.87-.22.38-.33.85-.33,1.41h-.59c0-.83.14-1.53.41-2.1s.65-.99,1.12-1.28,1-.43,1.59-.43c.67,0,1.3.18,1.88.54.58.36,1.05.88,1.41,1.55.36.67.54,1.48.54,2.41s-.18,1.76-.54,2.44c-.36.68-.84,1.2-1.43,1.56-.59.36-1.22.54-1.9.54Z" style="fill:#000; stroke-width:0px;"/><path d="M334.3,170.78c-.74,0-1.41-.19-1.99-.57s-1.05-.91-1.39-1.59-.51-1.46-.51-2.34c0-.94.17-1.75.5-2.43s.8-1.2,1.38-1.56c.58-.36,1.25-.54,2-.54.65,0,1.21.13,1.67.4s.83.62,1.12,1.07c.28.45.48.96.59,1.53.11.57.14,1.15.09,1.76h-6.23v-.86h5.3l-.41.27c.02-.35,0-.71-.06-1.06-.06-.35-.16-.68-.32-.98-.16-.3-.38-.54-.66-.72-.28-.18-.64-.27-1.08-.27-.55,0-1.01.14-1.39.42s-.65.65-.84,1.11-.28.96-.28,1.49v.58c0,.6.09,1.14.27,1.61.18.47.46.85.82,1.12.37.28.83.41,1.39.41s1.02-.14,1.38-.41c.36-.27.58-.67.66-1.2h1.46c-.09.57-.29,1.06-.61,1.47-.32.41-.72.73-1.21.95-.49.22-1.05.33-1.67.33Z" style="fill:#000; stroke-width:0px;"/><path d="M340.56,170.56v-8.6h1.21l.2,1.98v6.62h-1.4ZM346.68,170.56v-5.06c0-.82-.2-1.45-.59-1.88-.39-.43-.93-.64-1.61-.64-.52,0-.96.14-1.34.42-.38.28-.67.69-.87,1.21s-.31,1.15-.31,1.88h-.54c0-1,.13-1.86.4-2.56.26-.71.65-1.25,1.16-1.62s1.12-.56,1.85-.56c.68,0,1.26.15,1.74.46.48.3.85.74,1.11,1.3.26.56.39,1.23.39,2.01v5.06h-1.39Z" style="fill:#000; stroke-width:0px;"/><path d="M354.5,170.78c-.7,0-1.33-.19-1.92-.56s-1.05-.9-1.4-1.58c-.35-.68-.52-1.48-.52-2.41s.17-1.71.51-2.38c.34-.67.8-1.19,1.36-1.55s1.19-.54,1.87-.54c.63,0,1.18.15,1.66.46.48.31.85.75,1.11,1.32.26.58.4,1.27.4,2.09h-.54c0-.57-.11-1.05-.34-1.44-.23-.39-.52-.69-.88-.89-.36-.2-.75-.3-1.16-.3-.47,0-.9.13-1.28.39-.39.26-.7.63-.93,1.12-.23.48-.35,1.06-.35,1.73s.12,1.27.35,1.76c.23.49.54.87.93,1.13.39.26.81.4,1.28.4.39,0,.77-.1,1.13-.31.36-.2.66-.5.9-.9.23-.39.35-.87.35-1.43h.54c0,.83-.14,1.54-.41,2.12s-.64,1.02-1.11,1.32c-.46.3-.99.45-1.56.45ZM357.27,170.56l-.23-2.02v-10.26h1.4v12.28h-1.17Z" style="fill:#000; stroke-width:0px;"/><path d="M362.88,159.92c-.29,0-.52-.08-.68-.25s-.25-.38-.25-.65.08-.47.25-.63.4-.23.68-.23.52.08.68.23.25.37.25.63-.08.49-.25.65-.4.25-.68.25ZM362.18,170.56v-8.62h1.4v8.62h-1.4Z" style="fill:#000; stroke-width:0px;"/><path d="M367.45,170.56v-8.6h1.21l.2,1.98v6.62h-1.4ZM373.57,170.56v-5.06c0-.82-.2-1.45-.59-1.88-.39-.43-.93-.64-1.61-.64-.52,0-.96.14-1.34.42-.38.28-.67.69-.87,1.21s-.31,1.15-.31,1.88h-.54c0-1,.13-1.86.4-2.56.26-.71.65-1.25,1.16-1.62s1.12-.56,1.85-.56c.68,0,1.26.15,1.74.46.48.3.85.74,1.11,1.3.26.56.39,1.23.39,2.01v5.06h-1.39Z" style="fill:#000; stroke-width:0px;"/><path d="M381.35,174.99c-.88,0-1.65-.12-2.29-.37s-1.15-.58-1.51-1-.54-.88-.54-1.38c0-.67.24-1.17.73-1.53.49-.35,1.12-.53,1.89-.53l.77.49c-.65,0-1.15.13-1.5.4-.35.27-.53.64-.53,1.11s.25.86.76,1.19c.5.32,1.24.49,2.21.49.72,0,1.35-.1,1.89-.31s.97-.48,1.27-.81c.3-.33.45-.69.45-1.08,0-.27-.1-.5-.3-.7-.2-.2-.5-.29-.91-.29h-3.35c-.58,0-1.08-.09-1.51-.27s-.75-.41-.98-.7c-.23-.29-.34-.6-.34-.94,0-.36.1-.67.31-.92.2-.25.47-.44.8-.58.33-.13.68-.2,1.06-.2l.27.52c-.18,0-.36.04-.54.12s-.34.2-.46.36-.18.36-.18.6c0,.28.11.51.34.69.23.19.64.28,1.24.28h3.35c.81,0,1.45.17,1.91.51.46.34.7.82.7,1.43,0,.56-.2,1.11-.6,1.62s-.98.95-1.73,1.28-1.65.5-2.69.5ZM381.61,168.04c-.66,0-1.26-.13-1.79-.4-.53-.26-.95-.63-1.26-1.11-.31-.47-.46-1.02-.46-1.65s.15-1.18.46-1.66c.31-.47.73-.84,1.26-1.1.53-.26,1.13-.39,1.79-.39s1.23.13,1.75.39c.53.26.94.63,1.26,1.1.31.47.47,1.03.47,1.66s-.16,1.17-.47,1.65c-.31.47-.73.84-1.26,1.11-.52.26-1.11.4-1.75.4ZM381.61,167.03c.66,0,1.17-.2,1.54-.61.37-.41.55-.92.55-1.53s-.18-1.14-.55-1.53c-.37-.39-.88-.59-1.54-.59s-1.17.2-1.54.59c-.38.39-.56.9-.56,1.53s.19,1.12.56,1.53.89.61,1.54.61ZM384.43,163.11l-.67-.27c0-.5.1-.95.3-1.33.2-.38.48-.68.85-.89.37-.21.8-.32,1.31-.32l-.11,1.39c-.54,0-.95.12-1.24.35-.29.23-.43.59-.43,1.08Z" style="fill:#000; stroke-width:0px;"/><path d="M391.54,162.93v-.97h5.49v.97h-5.49ZM395.39,170.78c-.47,0-.89-.09-1.26-.27-.37-.18-.67-.45-.88-.81-.22-.36-.32-.81-.32-1.35v-8.78h1.39v8.75c0,.89.41,1.33,1.24,1.33.25,0,.48-.03.72-.08s.49-.13.78-.24l.2,1.01c-.31.13-.61.24-.91.32-.3.08-.62.13-.94.13Z" style="fill:#000; stroke-width:0px;"/><path d="M399.52,170.56v-12.28h1.4v12.28h-1.4ZM405.64,170.56v-5.06c0-.82-.2-1.45-.59-1.88-.39-.43-.93-.64-1.61-.64-.52,0-.96.14-1.34.42-.38.28-.67.69-.87,1.21s-.31,1.15-.31,1.88h-.54c0-1,.13-1.86.4-2.56.26-.71.65-1.25,1.16-1.62s1.12-.56,1.85-.56c.68,0,1.26.15,1.74.46.48.3.85.74,1.11,1.3.26.56.39,1.23.39,2.01v5.06h-1.39Z" style="fill:#000; stroke-width:0px;"/><path d="M413.37,170.78c-.74,0-1.41-.19-1.99-.57s-1.05-.91-1.39-1.59-.51-1.46-.51-2.34c0-.94.17-1.75.5-2.43s.8-1.2,1.38-1.56c.58-.36,1.25-.54,2-.54.65,0,1.21.13,1.67.4s.83.62,1.12,1.07c.28.45.48.96.59,1.53.11.57.14,1.15.09,1.76h-6.23v-.86h5.3l-.41.27c.02-.35,0-.71-.06-1.06-.06-.35-.16-.68-.32-.98-.16-.3-.38-.54-.66-.72-.28-.18-.64-.27-1.08-.27-.55,0-1.01.14-1.39.42s-.65.65-.84,1.11-.28.96-.28,1.49v.58c0,.6.09,1.14.27,1.61.18.47.46.85.82,1.12.37.28.83.41,1.39.41s1.02-.14,1.38-.41c.36-.27.58-.67.66-1.2h1.46c-.09.57-.29,1.06-.61,1.47-.32.41-.72.73-1.21.95-.49.22-1.05.33-1.67.33Z" style="fill:#000; stroke-width:0px;"/><path d="M426.97,170.78c-.7,0-1.33-.19-1.92-.56s-1.05-.9-1.4-1.58c-.35-.68-.52-1.48-.52-2.41s.17-1.71.51-2.38c.34-.67.8-1.19,1.36-1.55s1.19-.54,1.87-.54c.63,0,1.18.15,1.66.46.48.31.85.75,1.11,1.32.26.58.4,1.27.4,2.09h-.54c0-.57-.11-1.05-.34-1.44-.23-.39-.52-.69-.88-.89-.36-.2-.75-.3-1.16-.3-.47,0-.9.13-1.28.39-.39.26-.7.63-.93,1.12-.23.48-.35,1.06-.35,1.73s.12,1.27.35,1.76c.23.49.54.87.93,1.13.39.26.81.4,1.28.4.39,0,.77-.1,1.13-.31.36-.2.66-.5.9-.9.23-.39.35-.87.35-1.43h.54c0,.83-.14,1.54-.41,2.12s-.64,1.02-1.11,1.32c-.46.3-.99.45-1.56.45ZM429.75,170.56l-.23-2.02v-10.26h1.4v12.28h-1.17Z" style="fill:#000; stroke-width:0px;"/><path d="M436.96,170.78c-.71,0-1.29-.13-1.75-.38s-.81-.58-1.04-.98c-.23-.4-.34-.83-.34-1.27,0-.58.15-1.06.44-1.42s.69-.63,1.19-.81,1.07-.26,1.7-.26c.45,0,.9.05,1.35.14.45.09.9.21,1.33.37v.88c-.36-.14-.77-.26-1.22-.34s-.87-.13-1.25-.13c-.58,0-1.06.12-1.46.36-.4.24-.59.64-.59,1.21,0,.42.15.78.45,1.08.3.3.79.45,1.45.45.47,0,.89-.11,1.26-.33.38-.22.67-.49.89-.82.22-.33.33-.66.33-.99h.34c0,.58-.12,1.11-.37,1.6s-.6.89-1.07,1.19c-.46.3-1.01.45-1.66.45ZM439.89,170.56l-.18-1.89v-3.69c0-.77-.17-1.33-.49-1.67-.33-.34-.83-.51-1.49-.51-.37,0-.71.05-1.01.16-.3.11-.54.27-.72.5-.18.23-.27.51-.27.87h-1.57c0-.62.15-1.13.46-1.51.31-.38.73-.66,1.26-.83s1.15-.26,1.84-.26,1.25.11,1.76.33c.51.22.91.58,1.2,1.06.29.48.43,1.11.43,1.89v5.54h-1.22Z" style="fill:#000; stroke-width:0px;"/><path d="M443.05,161.96h1.57l2.81,7.38h-.32l2.18-7.38h1.44l-3.24,10.33c-.27.86-.63,1.53-1.08,2-.45.47-1.03.7-1.73.7-.38,0-.74-.05-1.08-.16-.34-.11-.69-.26-1.05-.47v-1.3c.32.25.63.43.92.54s.61.16.93.16c.36,0,.66-.11.9-.34.24-.23.45-.52.61-.88.16-.36.3-.73.41-1.12l.25-.86-3.53-8.6Z" style="fill:#000; stroke-width:0px;"/><path d="M455.63,161.96h1.46l2.2,7.18h-.18l2.14-6.77h1.17l2.12,6.79h-.16l2.2-7.2h1.4l-2.83,8.6h-1.37l-2.09-6.35h.22l-2.07,6.35h-1.37l-2.84-8.6Z" style="fill:#000; stroke-width:0px;"/><path d="M470.96,159.92c-.29,0-.52-.08-.68-.25s-.25-.38-.25-.65.08-.47.25-.63.4-.23.68-.23.52.08.68.23.25.37.25.63-.08.49-.25.65-.4.25-.68.25ZM470.26,170.56v-8.62h1.4v8.62h-1.4Z" style="fill:#000; stroke-width:0px;"/><path d="M474.32,162.93v-.97h5.49v.97h-5.49ZM478.18,170.78c-.47,0-.89-.09-1.26-.27-.37-.18-.67-.45-.88-.81-.22-.36-.32-.81-.32-1.35v-8.78h1.39v8.75c0,.89.41,1.33,1.24,1.33.25,0,.48-.03.72-.08s.49-.13.78-.24l.2,1.01c-.31.13-.61.24-.91.32-.3.08-.62.13-.94.13Z" style="fill:#000; stroke-width:0px;"/><path d="M482.3,170.56v-12.28h1.4v12.28h-1.4ZM488.42,170.56v-5.06c0-.82-.2-1.45-.59-1.88-.39-.43-.93-.64-1.61-.64-.52,0-.96.14-1.34.42-.38.28-.67.69-.87,1.21s-.31,1.15-.31,1.88h-.54c0-1,.13-1.86.4-2.56.26-.71.65-1.25,1.16-1.62s1.12-.56,1.85-.56c.68,0,1.26.15,1.74.46.48.3.85.74,1.11,1.3.26.56.39,1.23.39,2.01v5.06h-1.39Z" style="fill:#000; stroke-width:0px;"/><path d="M496.23,162.93v-.97h5.49v.97h-5.49ZM500.08,170.78c-.47,0-.89-.09-1.26-.27-.37-.18-.67-.45-.88-.81-.22-.36-.32-.81-.32-1.35v-8.78h1.39v8.75c0,.89.41,1.33,1.24,1.33.25,0,.48-.03.72-.08s.49-.13.78-.24l.2,1.01c-.31.13-.61.24-.91.32-.3.08-.62.13-.94.13Z" style="fill:#000; stroke-width:0px;"/><path d="M504.2,170.56v-12.28h1.4v12.28h-1.4ZM510.32,170.56v-5.06c0-.82-.2-1.45-.59-1.88-.39-.43-.93-.64-1.61-.64-.52,0-.96.14-1.34.42-.38.28-.67.69-.87,1.21s-.31,1.15-.31,1.88h-.54c0-1,.13-1.86.4-2.56.26-.71.65-1.25,1.16-1.62s1.12-.56,1.85-.56c.68,0,1.26.15,1.74.46.48.3.85.74,1.11,1.3.26.56.39,1.23.39,2.01v5.06h-1.39Z" style="fill:#000; stroke-width:0px;"/><path d="M518.05,170.78c-.74,0-1.41-.19-1.99-.57s-1.05-.91-1.39-1.59-.51-1.46-.51-2.34c0-.94.17-1.75.5-2.43s.8-1.2,1.38-1.56c.58-.36,1.25-.54,2-.54.65,0,1.21.13,1.67.4s.83.62,1.12,1.07c.28.45.48.96.59,1.53.11.57.14,1.15.09,1.76h-6.23v-.86h5.3l-.41.27c.02-.35,0-.71-.06-1.06-.06-.35-.16-.68-.32-.98-.16-.3-.38-.54-.66-.72-.28-.18-.64-.27-1.08-.27-.55,0-1.01.14-1.39.42s-.65.65-.84,1.11-.28.96-.28,1.49v.58c0,.6.09,1.14.27,1.61.18.47.46.85.82,1.12.37.28.83.41,1.39.41s1.02-.14,1.38-.41c.36-.27.58-.67.66-1.2h1.46c-.09.57-.29,1.06-.61,1.47-.32.41-.72.73-1.21.95-.49.22-1.05.33-1.67.33Z" style="fill:#000; stroke-width:0px;"/><path d="M206.85,198.78c-.69,0-1.33-.19-1.93-.56-.6-.37-1.08-.9-1.44-1.58-.37-.68-.55-1.48-.55-2.4s.18-1.76.55-2.43c.37-.67.85-1.18,1.44-1.54.6-.35,1.24-.53,1.93-.53.49,0,.92.07,1.31.22.39.15.72.35,1.01.61s.53.55.72.88.33.67.42,1.03l-1.44.13c-.15-.5-.4-.89-.75-1.18s-.78-.44-1.28-.44c-.43,0-.83.12-1.2.36-.38.24-.68.61-.91,1.09-.23.48-.35,1.08-.35,1.8,0,.67.11,1.24.32,1.73.21.49.51.87.88,1.14.37.27.79.41,1.27.41.67,0,1.17-.16,1.52-.49.35-.33.52-.78.52-1.36h1.44c0,.6-.14,1.13-.42,1.6-.28.47-.68.84-1.2,1.11-.52.27-1.13.41-1.83.41Z" style="fill:#000; stroke-width:0px;"/><path d="M212.86,189.94h1.4v5.36c0,.72.18,1.27.53,1.64s.85.56,1.51.56c.54,0,1.01-.14,1.41-.43.4-.29.71-.69.93-1.19.22-.51.33-1.09.33-1.74h.52c0,.97-.14,1.79-.42,2.47-.28.68-.67,1.21-1.18,1.57-.51.36-1.1.54-1.79.54-.65,0-1.22-.12-1.7-.36-.49-.24-.86-.6-1.13-1.09-.27-.49-.41-1.11-.41-1.86v-5.47ZM218.96,189.94h1.4v8.62h-1.4v-8.62Z" style="fill:#000; stroke-width:0px;"/><path d="M222.81,190.93v-.97h5.49v.97h-5.49ZM226.66,198.78c-.47,0-.89-.09-1.26-.27-.37-.18-.67-.45-.88-.81-.22-.36-.32-.81-.32-1.35v-8.78h1.39v8.75c0,.89.41,1.33,1.24,1.33.25,0,.48-.03.72-.08s.49-.13.78-.24l.2,1.01c-.31.13-.61.24-.91.32-.3.08-.62.13-.94.13Z" style="fill:#000; stroke-width:0px;"/><path d="M233.77,198.78c-.74,0-1.41-.19-1.99-.57s-1.05-.91-1.39-1.59-.51-1.46-.51-2.34c0-.94.17-1.75.5-2.43s.8-1.2,1.38-1.56c.58-.36,1.25-.54,2-.54.65,0,1.21.13,1.67.4s.83.62,1.12,1.07c.28.45.48.96.59,1.53.11.57.14,1.15.09,1.76h-6.23v-.86h5.3l-.41.27c.02-.35,0-.71-.06-1.06-.06-.35-.16-.68-.32-.98-.16-.3-.38-.54-.66-.72-.28-.18-.64-.27-1.08-.27-.55,0-1.01.14-1.39.42s-.65.65-.84,1.11-.28.96-.28,1.49v.58c0,.6.09,1.14.27,1.61.18.47.46.85.82,1.12.37.28.83.41,1.39.41s1.02-.14,1.38-.41c.36-.27.58-.67.66-1.2h1.46c-.09.57-.29,1.06-.61,1.47-.32.41-.72.73-1.21.95-.49.22-1.05.33-1.67.33Z" style="fill:#000; stroke-width:0px;"/><path d="M243.12,198.78c-.83,0-1.53-.12-2.09-.36-.56-.24-.98-.56-1.27-.98s-.44-.9-.46-1.44h1.35c.03.55.25.96.66,1.23.41.27.97.41,1.68.41.37,0,.71-.06,1.03-.18s.56-.29.75-.5.28-.45.28-.71c0-.34-.12-.6-.37-.79-.25-.19-.64-.36-1.18-.5l-1.67-.54c-.73-.23-1.28-.54-1.67-.94-.39-.4-.58-.88-.58-1.44,0-.7.31-1.25.92-1.67.61-.42,1.42-.63,2.41-.63,1.06,0,1.87.22,2.46.65s.89.97.91,1.62h-1.39c-.05-.38-.25-.67-.58-.86-.33-.2-.8-.29-1.4-.29s-1.04.13-1.36.39-.49.55-.49.87c0,.59.51,1.03,1.53,1.31l1.71.58c.74.22,1.3.51,1.7.87.39.36.59.82.59,1.38,0,.43-.14.84-.42,1.22-.28.38-.68.7-1.2.94-.52.24-1.13.36-1.84.36Z" style="fill:#000; stroke-width:0px;"/><path d="M248.28,190.93v-.97h5.49v.97h-5.49ZM252.13,198.78c-.47,0-.89-.09-1.26-.27-.37-.18-.67-.45-.88-.81-.22-.36-.32-.81-.32-1.35v-8.78h1.39v8.75c0,.89.41,1.33,1.24,1.33.25,0,.48-.03.72-.08s.49-.13.78-.24l.2,1.01c-.31.13-.61.24-.91.32-.3.08-.62.13-.94.13Z" style="fill:#000; stroke-width:0px;"/><path d="M263.64,198.78c-.77,0-1.46-.17-2.07-.51s-1.08-.85-1.43-1.52c-.35-.67-.52-1.5-.52-2.48s.17-1.82.52-2.49.82-1.17,1.43-1.52c.6-.34,1.29-.51,2.07-.51s1.45.17,2.06.51c.6.34,1.08.85,1.42,1.52.34.67.52,1.5.52,2.49s-.17,1.81-.52,2.48c-.35.67-.82,1.18-1.42,1.52-.6.34-1.29.51-2.06.51ZM263.6,197.55c.56,0,1.03-.13,1.42-.4.39-.27.69-.65.89-1.14.2-.49.3-1.08.3-1.75,0-1.03-.21-1.83-.64-2.43-.43-.59-1.06-.89-1.9-.89-.56,0-1.04.13-1.43.4-.39.27-.68.65-.88,1.14-.2.5-.3,1.08-.3,1.77,0,1.01.21,1.82.64,2.41.43.59,1.06.89,1.89.89Z" style="fill:#000; stroke-width:0px;"/><path d="M269.43,190.93v-.97h4.59v.97h-4.59ZM270.83,198.56v-9.94c0-.57.11-1.04.33-1.4.22-.36.51-.63.88-.8.37-.17.78-.26,1.24-.26.25,0,.5.02.75.05s.51.09.76.16l-.27,1.12c-.18-.07-.36-.13-.54-.16-.18-.04-.35-.05-.51-.05-.19,0-.38.04-.58.11-.19.07-.35.21-.48.4-.13.2-.19.48-.19.86v9.92h-1.4Z" style="fill:#000; stroke-width:0px;"/><path d="M283.83,198.78c-.69,0-1.33-.19-1.93-.56-.6-.37-1.08-.9-1.44-1.58-.37-.68-.55-1.48-.55-2.4s.18-1.76.55-2.43c.37-.67.85-1.18,1.44-1.54.6-.35,1.24-.53,1.93-.53.49,0,.92.07,1.31.22.39.15.72.35,1.01.61s.53.55.72.88.33.67.42,1.03l-1.44.13c-.15-.5-.4-.89-.75-1.18s-.78-.44-1.28-.44c-.43,0-.83.12-1.2.36-.38.24-.68.61-.91,1.09-.23.48-.35,1.08-.35,1.8,0,.67.11,1.24.32,1.73.21.49.51.87.88,1.14.37.27.79.41,1.27.41.67,0,1.17-.16,1.52-.49.35-.33.52-.78.52-1.36h1.44c0,.6-.14,1.13-.42,1.6-.28.47-.68.84-1.2,1.11-.52.27-1.13.41-1.83.41Z" style="fill:#000; stroke-width:0px;"/><path d="M293.21,198.78c-.77,0-1.46-.17-2.07-.51s-1.08-.85-1.43-1.52c-.35-.67-.52-1.5-.52-2.48s.17-1.82.52-2.49.82-1.17,1.43-1.52c.6-.34,1.29-.51,2.07-.51s1.45.17,2.06.51c.6.34,1.08.85,1.42,1.52.34.67.52,1.5.52,2.49s-.17,1.81-.52,2.48c-.35.67-.82,1.18-1.42,1.52-.6.34-1.29.51-2.06.51ZM293.17,197.55c.56,0,1.03-.13,1.42-.4.39-.27.69-.65.89-1.14.2-.49.3-1.08.3-1.75,0-1.03-.21-1.83-.64-2.43-.43-.59-1.06-.89-1.9-.89-.56,0-1.04.13-1.43.4-.39.27-.68.65-.88,1.14-.2.5-.3,1.08-.3,1.77,0,1.01.21,1.82.64,2.41.43.59,1.06.89,1.89.89Z" style="fill:#000; stroke-width:0px;"/><path d="M299.93,198.56v-8.6h1.21l.16,1.73c.27-.62.65-1.1,1.14-1.44.49-.34,1.08-.5,1.76-.5s1.26.15,1.74.46c.48.3.85.74,1.11,1.3.26.56.39,1.23.39,2.01v5.06h-1.39v-5.06c0-.82-.2-1.45-.59-1.88-.39-.43-.93-.64-1.61-.64-.52,0-.96.14-1.34.42-.38.28-.67.69-.87,1.21s-.31,1.15-.31,1.88v4.07h-1.4ZM312.02,198.56v-5.06c0-.82-.2-1.45-.59-1.88-.39-.43-.92-.64-1.59-.64-.78,0-1.38.3-1.79.9-.41.6-.62,1.44-.62,2.5h-.65c0-.77.08-1.45.23-2.03.15-.58.38-1.07.67-1.45.29-.39.65-.68,1.07-.87.42-.19.9-.29,1.43-.29.68,0,1.26.15,1.74.46s.85.74,1.11,1.3c.26.56.39,1.23.39,2.01v5.06h-1.4Z" style="fill:#000; stroke-width:0px;"/><path d="M316.77,202.79v-12.83h1.17l.23,2.02v10.82h-1.4ZM320.67,198.78c-.63,0-1.18-.14-1.64-.43-.47-.29-.82-.71-1.08-1.26s-.38-1.23-.38-2.03h.59c0,.53.11.98.33,1.35.22.37.51.64.87.83.36.19.74.28,1.14.28.43,0,.85-.12,1.24-.37.4-.25.72-.62.97-1.1.25-.49.38-1.09.38-1.8s-.12-1.27-.35-1.75c-.23-.49-.54-.86-.93-1.12-.39-.26-.82-.39-1.3-.39-.41,0-.79.1-1.15.3-.36.2-.65.49-.87.87-.22.38-.33.85-.33,1.41h-.59c0-.83.14-1.53.41-2.1s.65-.99,1.12-1.28,1-.43,1.59-.43c.67,0,1.3.18,1.88.54.58.36,1.05.88,1.41,1.55.36.67.54,1.48.54,2.41s-.18,1.76-.54,2.44c-.36.68-.84,1.2-1.43,1.56-.59.36-1.22.54-1.9.54Z" style="fill:#000; stroke-width:0px;"/><path d="M329.68,198.78c-.71,0-1.29-.13-1.75-.38s-.81-.58-1.04-.98c-.23-.4-.34-.83-.34-1.27,0-.58.15-1.06.44-1.42s.69-.63,1.19-.81,1.07-.26,1.7-.26c.45,0,.9.05,1.35.14.45.09.9.21,1.33.37v.88c-.36-.14-.77-.26-1.22-.34s-.87-.13-1.25-.13c-.58,0-1.06.12-1.46.36-.4.24-.59.64-.59,1.21,0,.42.15.78.45,1.08.3.3.79.45,1.45.45.47,0,.89-.11,1.26-.33.38-.22.67-.49.89-.82.22-.33.33-.66.33-.99h.34c0,.58-.12,1.11-.37,1.6s-.6.89-1.07,1.19c-.46.3-1.01.45-1.66.45ZM332.62,198.56l-.18-1.89v-3.69c0-.77-.17-1.33-.49-1.67-.33-.34-.83-.51-1.49-.51-.37,0-.71.05-1.01.16-.3.11-.54.27-.72.5-.18.23-.27.51-.27.87h-1.57c0-.62.15-1.13.46-1.51.31-.38.73-.66,1.26-.83s1.15-.26,1.84-.26,1.25.11,1.76.33c.51.22.91.58,1.2,1.06.29.48.43,1.11.43,1.89v5.54h-1.22Z" style="fill:#000; stroke-width:0px;"/><path d="M337.2,198.56v-8.6h1.21l.2,1.98v6.62h-1.4ZM343.32,198.56v-5.06c0-.82-.2-1.45-.59-1.88-.39-.43-.93-.64-1.61-.64-.52,0-.96.14-1.34.42-.38.28-.67.69-.87,1.21s-.31,1.15-.31,1.88h-.54c0-1,.13-1.86.4-2.56.26-.71.65-1.25,1.16-1.62s1.12-.56,1.85-.56c.68,0,1.26.15,1.74.46.48.3.85.74,1.11,1.3.26.56.39,1.23.39,2.01v5.06h-1.39Z" style="fill:#000; stroke-width:0px;"/><path d="M348.85,187.92c-.29,0-.52-.08-.68-.25s-.25-.38-.25-.65.08-.47.25-.63.4-.23.68-.23.52.08.68.23.25.37.25.63-.08.49-.25.65-.4.25-.68.25ZM348.15,198.56v-8.62h1.4v8.62h-1.4Z" style="fill:#000; stroke-width:0px;"/><path d="M356.54,198.78c-.77,0-1.46-.17-2.07-.51s-1.08-.85-1.43-1.52c-.35-.67-.52-1.5-.52-2.48s.17-1.82.52-2.49.82-1.17,1.43-1.52c.6-.34,1.29-.51,2.07-.51s1.45.17,2.06.51c.6.34,1.08.85,1.42,1.52.34.67.52,1.5.52,2.49s-.17,1.81-.52,2.48c-.35.67-.82,1.18-1.42,1.52-.6.34-1.29.51-2.06.51ZM356.5,197.55c.56,0,1.03-.13,1.42-.4.39-.27.69-.65.89-1.14.2-.49.3-1.08.3-1.75,0-1.03-.21-1.83-.64-2.43-.43-.59-1.06-.89-1.9-.89-.56,0-1.04.13-1.43.4-.39.27-.68.65-.88,1.14-.2.5-.3,1.08-.3,1.77,0,1.01.21,1.82.64,2.41.43.59,1.06.89,1.89.89Z" style="fill:#000; stroke-width:0px;"/><path d="M363.26,198.56v-8.6h1.21l.2,1.98v6.62h-1.4ZM369.38,198.56v-5.06c0-.82-.2-1.45-.59-1.88-.39-.43-.93-.64-1.61-.64-.52,0-.96.14-1.34.42-.38.28-.67.69-.87,1.21s-.31,1.15-.31,1.88h-.54c0-1,.13-1.86.4-2.56.26-.71.65-1.25,1.16-1.62s1.12-.56,1.85-.56c.68,0,1.26.15,1.74.46.48.3.85.74,1.11,1.3.26.56.39,1.23.39,2.01v5.06h-1.39Z" style="fill:#000; stroke-width:0px;"/><path d="M377.22,198.78c-.83,0-1.53-.12-2.09-.36-.56-.24-.98-.56-1.27-.98s-.44-.9-.46-1.44h1.35c.03.55.25.96.66,1.23.41.27.97.41,1.68.41.37,0,.71-.06,1.03-.18s.56-.29.75-.5.28-.45.28-.71c0-.34-.12-.6-.37-.79-.25-.19-.64-.36-1.18-.5l-1.67-.54c-.73-.23-1.28-.54-1.67-.94-.39-.4-.58-.88-.58-1.44,0-.7.31-1.25.92-1.67.61-.42,1.42-.63,2.41-.63,1.06,0,1.87.22,2.46.65s.89.97.91,1.62h-1.39c-.05-.38-.25-.67-.58-.86-.33-.2-.8-.29-1.4-.29s-1.04.13-1.36.39-.49.55-.49.87c0,.59.51,1.03,1.53,1.31l1.71.58c.74.22,1.3.51,1.7.87.39.36.59.82.59,1.38,0,.43-.14.84-.42,1.22-.28.38-.68.7-1.2.94-.52.24-1.13.36-1.84.36Z" style="fill:#000; stroke-width:0px;"/><path d="M384.95,195.68v-.81c0-.52.06-.95.17-1.29.11-.34.3-.63.55-.87.26-.25.61-.49,1.06-.74.4-.22.72-.42.96-.6.24-.19.41-.39.52-.6.1-.22.16-.48.16-.79,0-.47-.19-.86-.57-1.17-.38-.31-.9-.47-1.57-.47-.74,0-1.3.15-1.69.44s-.64.7-.74,1.22h-1.49c.08-.88.45-1.58,1.1-2.12.65-.54,1.58-.81,2.79-.81.77,0,1.43.13,1.98.4.55.27.98.62,1.28,1.07s.45.94.45,1.48c0,.62-.16,1.14-.47,1.55s-.82.81-1.51,1.18c-.4.22-.72.43-.95.62-.23.19-.39.4-.49.65-.1.24-.14.56-.14.95v.72h-1.39ZM385.67,198.78c-.3,0-.55-.1-.75-.29-.2-.2-.3-.43-.3-.71s.1-.52.29-.73c.2-.2.44-.31.74-.31s.56.1.77.3.32.44.32.72-.1.51-.31.71-.46.3-.77.3Z" style="fill:#000; stroke-width:0px;"/><path d="M84.49,243.26h1.58l2.93,10.06h-.41l3.01-8.89h.95l2.97,8.82h-.4l3.37-9.99h1.57l-4,11.3h-1.48l-2.61-7.67h.27l-2.7,7.67h-1.48l-3.58-11.3Z" style="fill:#000; stroke-width:0px;"/><path d="M104.56,254.78c-.74,0-1.41-.19-1.99-.57s-1.05-.91-1.39-1.59-.51-1.46-.51-2.34c0-.94.17-1.75.5-2.43s.8-1.2,1.38-1.56c.58-.36,1.25-.54,2-.54.65,0,1.21.13,1.67.4s.83.62,1.12,1.07c.28.45.48.96.59,1.53.11.57.14,1.15.09,1.76h-6.23v-.86h5.3l-.41.27c.02-.35,0-.71-.06-1.06-.06-.35-.16-.68-.32-.98-.16-.3-.38-.54-.66-.72-.28-.18-.64-.27-1.08-.27-.55,0-1.01.14-1.39.42s-.65.65-.84,1.11-.28.96-.28,1.49v.58c0,.6.09,1.14.27,1.61.18.47.46.85.82,1.12.37.28.83.41,1.39.41s1.02-.14,1.38-.41c.36-.27.58-.67.66-1.2h1.46c-.09.57-.29,1.06-.61,1.47-.32.41-.72.73-1.21.95-.49.22-1.05.33-1.67.33Z" style="fill:#000; stroke-width:0px;"/><path d="M113.88,246.93v-.97h5.49v.97h-5.49ZM117.73,254.78c-.47,0-.89-.09-1.26-.27-.37-.18-.67-.45-.88-.81-.22-.36-.32-.81-.32-1.35v-8.78h1.39v8.75c0,.89.41,1.33,1.24,1.33.25,0,.48-.03.72-.08s.49-.13.78-.24l.2,1.01c-.31.13-.61.24-.91.32-.3.08-.62.13-.94.13Z" style="fill:#000; stroke-width:0px;"/><path d="M121.86,254.56v-8.62h1.4v8.62h-1.4ZM122.83,250.67c0-1.09.1-2,.31-2.72s.52-1.26.92-1.62c.41-.36.9-.54,1.48-.54.19,0,.37.01.53.04.16.03.32.07.48.12l-.09,1.39c-.17-.05-.35-.1-.55-.14-.2-.04-.38-.06-.53-.06-.51,0-.92.15-1.23.44s-.54.7-.68,1.23c-.14.53-.21,1.15-.21,1.86h-.43Z" style="fill:#000; stroke-width:0px;"/><path d="M131.35,254.78c-.74,0-1.41-.19-1.99-.57s-1.05-.91-1.39-1.59-.51-1.46-.51-2.34c0-.94.17-1.75.5-2.43s.8-1.2,1.38-1.56c.58-.36,1.25-.54,2-.54.65,0,1.21.13,1.67.4s.83.62,1.12,1.07c.28.45.48.96.59,1.53.11.57.14,1.15.09,1.76h-6.23v-.86h5.3l-.41.27c.02-.35,0-.71-.06-1.06-.06-.35-.16-.68-.32-.98-.16-.3-.38-.54-.66-.72-.28-.18-.64-.27-1.08-.27-.55,0-1.01.14-1.39.42s-.65.65-.84,1.11-.28.96-.28,1.49v.58c0,.6.09,1.14.27,1.61.18.47.46.85.82,1.12.37.28.83.41,1.39.41s1.02-.14,1.38-.41c.36-.27.58-.67.66-1.2h1.46c-.09.57-.29,1.06-.61,1.47-.32.41-.72.73-1.21.95-.49.22-1.05.33-1.67.33Z" style="fill:#000; stroke-width:0px;"/><path d="M140,254.78c-.71,0-1.29-.13-1.75-.38s-.81-.58-1.04-.98c-.23-.4-.34-.83-.34-1.27,0-.58.15-1.06.44-1.42s.69-.63,1.19-.81,1.07-.26,1.7-.26c.45,0,.9.05,1.35.14.45.09.9.21,1.33.37v.88c-.36-.14-.77-.26-1.22-.34s-.87-.13-1.25-.13c-.58,0-1.06.12-1.46.36-.4.24-.59.64-.59,1.21,0,.42.15.78.45,1.08.3.3.79.45,1.45.45.47,0,.89-.11,1.26-.33.38-.22.67-.49.89-.82.22-.33.33-.66.33-.99h.34c0,.58-.12,1.11-.37,1.6s-.6.89-1.07,1.19c-.46.3-1.01.45-1.66.45ZM142.93,254.56l-.18-1.89v-3.69c0-.77-.17-1.33-.49-1.67-.33-.34-.83-.51-1.49-.51-.37,0-.71.05-1.01.16-.3.11-.54.27-.72.5-.18.23-.27.51-.27.87h-1.57c0-.62.15-1.13.46-1.51.31-.38.73-.66,1.26-.83s1.15-.26,1.84-.26,1.25.11,1.76.33c.51.22.91.58,1.2,1.06.29.48.43,1.11.43,1.89v5.54h-1.22Z" style="fill:#000; stroke-width:0px;"/><path d="M146.31,246.93v-.97h5.49v.97h-5.49ZM150.16,254.78c-.47,0-.89-.09-1.26-.27-.37-.18-.67-.45-.88-.81-.22-.36-.32-.81-.32-1.35v-8.78h1.39v8.75c0,.89.41,1.33,1.24,1.33.25,0,.48-.03.72-.08s.49-.13.78-.24l.2,1.01c-.31.13-.61.24-.91.32-.3.08-.62.13-.94.13Z" style="fill:#000; stroke-width:0px;"/><path d="M161.55,254.78c-.74,0-1.41-.19-1.99-.57s-1.05-.91-1.39-1.59-.51-1.46-.51-2.34c0-.94.17-1.75.5-2.43s.8-1.2,1.38-1.56c.58-.36,1.25-.54,2-.54.65,0,1.21.13,1.67.4s.83.62,1.12,1.07c.28.45.48.96.59,1.53.11.57.14,1.15.09,1.76h-6.23v-.86h5.3l-.41.27c.02-.35,0-.71-.06-1.06-.06-.35-.16-.68-.32-.98-.16-.3-.38-.54-.66-.72-.28-.18-.64-.27-1.08-.27-.55,0-1.01.14-1.39.42s-.65.65-.84,1.11-.28.96-.28,1.49v.58c0,.6.09,1.14.27,1.61.18.47.46.85.82,1.12.37.28.83.41,1.39.41s1.02-.14,1.38-.41c.36-.27.58-.67.66-1.2h1.46c-.09.57-.29,1.06-.61,1.47-.32.41-.72.73-1.21.95-.49.22-1.05.33-1.67.33Z" style="fill:#000; stroke-width:0px;"/><path d="M170.19,254.78c-.71,0-1.29-.13-1.75-.38s-.81-.58-1.04-.98c-.23-.4-.34-.83-.34-1.27,0-.58.15-1.06.44-1.42s.69-.63,1.19-.81,1.07-.26,1.7-.26c.45,0,.9.05,1.35.14.45.09.9.21,1.33.37v.88c-.36-.14-.77-.26-1.22-.34s-.87-.13-1.25-.13c-.58,0-1.06.12-1.46.36-.4.24-.59.64-.59,1.21,0,.42.15.78.45,1.08.3.3.79.45,1.45.45.47,0,.89-.11,1.26-.33.38-.22.67-.49.89-.82.22-.33.33-.66.33-.99h.34c0,.58-.12,1.11-.37,1.6s-.6.89-1.07,1.19c-.46.3-1.01.45-1.66.45ZM173.13,254.56l-.18-1.89v-3.69c0-.77-.17-1.33-.49-1.67-.33-.34-.83-.51-1.49-.51-.37,0-.71.05-1.01.16-.3.11-.54.27-.72.5-.18.23-.27.51-.27.87h-1.57c0-.62.15-1.13.46-1.51.31-.38.73-.66,1.26-.83s1.15-.26,1.84-.26,1.25.11,1.76.33c.51.22.91.58,1.2,1.06.29.48.43,1.11.43,1.89v5.54h-1.22Z" style="fill:#000; stroke-width:0px;"/><path d="M180.73,254.78c-.69,0-1.33-.19-1.93-.56-.6-.37-1.08-.9-1.44-1.58-.37-.68-.55-1.48-.55-2.4s.18-1.76.55-2.43c.37-.67.85-1.18,1.44-1.54.6-.35,1.24-.53,1.93-.53.49,0,.92.07,1.31.22.39.15.72.35,1.01.61s.53.55.72.88.33.67.42,1.03l-1.44.13c-.15-.5-.4-.89-.75-1.18s-.78-.44-1.28-.44c-.43,0-.83.12-1.2.36-.38.24-.68.61-.91,1.09-.23.48-.35,1.08-.35,1.8,0,.67.11,1.24.32,1.73.21.49.51.87.88,1.14.37.27.79.41,1.27.41.67,0,1.17-.16,1.52-.49.35-.33.52-.78.52-1.36h1.44c0,.6-.14,1.13-.42,1.6-.28.47-.68.84-1.2,1.11-.52.27-1.13.41-1.83.41Z" style="fill:#000; stroke-width:0px;"/><path d="M187,254.56v-12.28h1.4v12.28h-1.4ZM193.12,254.56v-5.06c0-.82-.2-1.45-.59-1.88-.39-.43-.93-.64-1.61-.64-.52,0-.96.14-1.34.42-.38.28-.67.69-.87,1.21s-.31,1.15-.31,1.88h-.54c0-1,.13-1.86.4-2.56.26-.71.65-1.25,1.16-1.62s1.12-.56,1.85-.56c.68,0,1.26.15,1.74.46.48.3.85.74,1.11,1.3.26.56.39,1.23.39,2.01v5.06h-1.39Z" style="fill:#000; stroke-width:0px;"/><path d="M200.64,245.96h1.6l2.7,7.4h-.2l2.7-7.4h1.6l-3.44,8.6h-1.53l-3.44-8.6Z" style="fill:#000; stroke-width:0px;"/><path d="M211.97,243.92c-.29,0-.52-.08-.68-.25s-.25-.38-.25-.65.08-.47.25-.63.4-.23.68-.23.52.08.68.23.25.37.25.63-.08.49-.25.65-.4.25-.68.25ZM211.27,254.56v-8.62h1.4v8.62h-1.4Z" style="fill:#000; stroke-width:0px;"/><path d="M219.64,254.78c-.83,0-1.53-.12-2.09-.36-.56-.24-.98-.56-1.27-.98s-.44-.9-.46-1.44h1.35c.03.55.25.96.66,1.23.41.27.97.41,1.68.41.37,0,.71-.06,1.03-.18s.56-.29.75-.5.28-.45.28-.71c0-.34-.12-.6-.37-.79-.25-.19-.64-.36-1.18-.5l-1.67-.54c-.73-.23-1.28-.54-1.67-.94-.39-.4-.58-.88-.58-1.44,0-.7.31-1.25.92-1.67.61-.42,1.42-.63,2.41-.63,1.06,0,1.87.22,2.46.65s.89.97.91,1.62h-1.39c-.05-.38-.25-.67-.58-.86-.33-.2-.8-.29-1.4-.29s-1.04.13-1.36.39-.49.55-.49.87c0,.59.51,1.03,1.53,1.31l1.71.58c.74.22,1.3.51,1.7.87.39.36.59.82.59,1.38,0,.43-.14.84-.42,1.22-.28.38-.68.7-1.2.94-.52.24-1.13.36-1.84.36Z" style="fill:#000; stroke-width:0px;"/><path d="M226.79,243.92c-.29,0-.52-.08-.68-.25s-.25-.38-.25-.65.08-.47.25-.63.4-.23.68-.23.52.08.68.23.25.37.25.63-.08.49-.25.65-.4.25-.68.25ZM226.09,254.56v-8.62h1.4v8.62h-1.4Z" style="fill:#000; stroke-width:0px;"/><path d="M230.16,246.93v-.97h5.49v.97h-5.49ZM234.01,254.78c-.47,0-.89-.09-1.26-.27-.37-.18-.67-.45-.88-.81-.22-.36-.32-.81-.32-1.35v-8.78h1.39v8.75c0,.89.41,1.33,1.24,1.33.25,0,.48-.03.72-.08s.49-.13.78-.24l.2,1.01c-.31.13-.61.24-.91.32-.3.08-.62.13-.94.13Z" style="fill:#000; stroke-width:0px;"/><path d="M242.41,254.56v-12.28h1.4v12.28h-1.4Z" style="fill:#000; stroke-width:0px;"/><path d="M248.24,243.92c-.29,0-.52-.08-.68-.25s-.25-.38-.25-.65.08-.47.25-.63.4-.23.68-.23.52.08.68.23.25.37.25.63-.08.49-.25.65-.4.25-.68.25ZM247.54,254.56v-8.62h1.4v8.62h-1.4Z" style="fill:#000; stroke-width:0px;"/><path d="M252.81,254.56v-12.28h1.4v12.28h-1.4ZM254,249.63l4.39-3.67h1.96l-6.35,5.17v-1.49ZM258.82,254.56l-4.09-5.44,1.42-.25,4.39,5.69h-1.73Z" style="fill:#000; stroke-width:0px;"/><path d="M265.94,254.78c-.74,0-1.41-.19-1.99-.57s-1.05-.91-1.39-1.59-.51-1.46-.51-2.34c0-.94.17-1.75.5-2.43s.8-1.2,1.38-1.56c.58-.36,1.25-.54,2-.54.65,0,1.21.13,1.67.4s.83.62,1.12,1.07c.28.45.48.96.59,1.53.11.57.14,1.15.09,1.76h-6.23v-.86h5.3l-.41.27c.02-.35,0-.71-.06-1.06-.06-.35-.16-.68-.32-.98-.16-.3-.38-.54-.66-.72-.28-.18-.64-.27-1.08-.27-.55,0-1.01.14-1.39.42s-.65.65-.84,1.11-.28.96-.28,1.49v.58c0,.6.09,1.14.27,1.61.18.47.46.85.82,1.12.37.28.83.41,1.39.41s1.02-.14,1.38-.41c.36-.27.58-.67.66-1.2h1.46c-.09.57-.29,1.06-.61,1.47-.32.41-.72.73-1.21.95-.49.22-1.05.33-1.67.33Z" style="fill:#000; stroke-width:0px;"/><path d="M279.5,254.78c-.69,0-1.33-.19-1.93-.56-.6-.37-1.08-.9-1.44-1.58-.37-.68-.55-1.48-.55-2.4s.18-1.76.55-2.43c.37-.67.85-1.18,1.44-1.54.6-.35,1.24-.53,1.93-.53.49,0,.92.07,1.31.22.39.15.72.35,1.01.61s.53.55.72.88.33.67.42,1.03l-1.44.13c-.15-.5-.4-.89-.75-1.18s-.78-.44-1.28-.44c-.43,0-.83.12-1.2.36-.38.24-.68.61-.91,1.09-.23.48-.35,1.08-.35,1.8,0,.67.11,1.24.32,1.73.21.49.51.87.88,1.14.37.27.79.41,1.27.41.67,0,1.17-.16,1.52-.49.35-.33.52-.78.52-1.36h1.44c0,.6-.14,1.13-.42,1.6-.28.47-.68.84-1.2,1.11-.52.27-1.13.41-1.83.41Z" style="fill:#000; stroke-width:0px;"/><path d="M285.76,254.56v-12.28h1.4v12.28h-1.4ZM291.88,254.56v-5.06c0-.82-.2-1.45-.59-1.88-.39-.43-.93-.64-1.61-.64-.52,0-.96.14-1.34.42-.38.28-.67.69-.87,1.21s-.31,1.15-.31,1.88h-.54c0-1,.13-1.86.4-2.56.26-.71.65-1.25,1.16-1.62s1.12-.56,1.85-.56c.68,0,1.26.15,1.74.46.48.3.85.74,1.11,1.3.26.56.39,1.23.39,2.01v5.06h-1.39Z" style="fill:#000; stroke-width:0px;"/><path d="M299.61,254.78c-.74,0-1.41-.19-1.99-.57s-1.05-.91-1.39-1.59-.51-1.46-.51-2.34c0-.94.17-1.75.5-2.43s.8-1.2,1.38-1.56c.58-.36,1.25-.54,2-.54.65,0,1.21.13,1.67.4s.83.62,1.12,1.07c.28.45.48.96.59,1.53.11.57.14,1.15.09,1.76h-6.23v-.86h5.3l-.41.27c.02-.35,0-.71-.06-1.06-.06-.35-.16-.68-.32-.98-.16-.3-.38-.54-.66-.72-.28-.18-.64-.27-1.08-.27-.55,0-1.01.14-1.39.42s-.65.65-.84,1.11-.28.96-.28,1.49v.58c0,.6.09,1.14.27,1.61.18.47.46.85.82,1.12.37.28.83.41,1.39.41s1.02-.14,1.38-.41c.36-.27.58-.67.66-1.2h1.46c-.09.57-.29,1.06-.61,1.47-.32.41-.72.73-1.21.95-.49.22-1.05.33-1.67.33Z" style="fill:#000; stroke-width:0px;"/><path d="M308.89,254.78c-.69,0-1.33-.19-1.93-.56-.6-.37-1.08-.9-1.44-1.58-.37-.68-.55-1.48-.55-2.4s.18-1.76.55-2.43c.37-.67.85-1.18,1.44-1.54.6-.35,1.24-.53,1.93-.53.49,0,.92.07,1.31.22.39.15.72.35,1.01.61s.53.55.72.88.33.67.42,1.03l-1.44.13c-.15-.5-.4-.89-.75-1.18s-.78-.44-1.28-.44c-.43,0-.83.12-1.2.36-.38.24-.68.61-.91,1.09-.23.48-.35,1.08-.35,1.8,0,.67.11,1.24.32,1.73.21.49.51.87.88,1.14.37.27.79.41,1.27.41.67,0,1.17-.16,1.52-.49.35-.33.52-.78.52-1.36h1.44c0,.6-.14,1.13-.42,1.6-.28.47-.68.84-1.2,1.11-.52.27-1.13.41-1.83.41Z" style="fill:#000; stroke-width:0px;"/><path d="M315.15,254.56v-12.28h1.4v12.28h-1.4ZM316.34,249.63l4.39-3.67h1.96l-6.35,5.17v-1.49ZM321.17,254.56l-4.09-5.44,1.42-.25,4.39,5.69h-1.73Z" style="fill:#000; stroke-width:0px;"/><path d="M326.09,243.92c-.29,0-.52-.08-.68-.25s-.25-.38-.25-.65.08-.47.25-.63.4-.23.68-.23.52.08.68.23.25.37.25.63-.08.49-.25.65-.4.25-.68.25ZM325.39,254.56v-8.62h1.4v8.62h-1.4Z" style="fill:#000; stroke-width:0px;"/><path d="M330.66,254.56v-8.6h1.21l.2,1.98v6.62h-1.4ZM336.78,254.56v-5.06c0-.82-.2-1.45-.59-1.88-.39-.43-.93-.64-1.61-.64-.52,0-.96.14-1.34.42-.38.28-.67.69-.87,1.21s-.31,1.15-.31,1.88h-.54c0-1,.13-1.86.4-2.56.26-.71.65-1.25,1.16-1.62s1.12-.56,1.85-.56c.68,0,1.26.15,1.74.46.48.3.85.74,1.11,1.3.26.56.39,1.23.39,2.01v5.06h-1.39Z" style="fill:#000; stroke-width:0px;"/><path d="M344.57,258.99c-.88,0-1.65-.12-2.29-.37s-1.15-.58-1.51-1-.54-.88-.54-1.38c0-.67.24-1.17.73-1.53.49-.35,1.12-.53,1.89-.53l.77.49c-.65,0-1.15.13-1.5.4-.35.27-.53.64-.53,1.11s.25.86.76,1.19c.5.32,1.24.49,2.21.49.72,0,1.35-.1,1.89-.31s.97-.48,1.27-.81c.3-.33.45-.69.45-1.08,0-.27-.1-.5-.3-.7-.2-.2-.5-.29-.91-.29h-3.35c-.58,0-1.08-.09-1.51-.27s-.75-.41-.98-.7c-.23-.29-.34-.6-.34-.94,0-.36.1-.67.31-.92.2-.25.47-.44.8-.58.33-.13.68-.2,1.06-.2l.27.52c-.18,0-.36.04-.54.12s-.34.2-.46.36-.18.36-.18.6c0,.28.11.51.34.69.23.19.64.28,1.24.28h3.35c.81,0,1.45.17,1.91.51.46.34.7.82.7,1.43,0,.56-.2,1.11-.6,1.62s-.98.95-1.73,1.28-1.65.5-2.69.5ZM344.82,252.04c-.66,0-1.26-.13-1.79-.4-.53-.26-.95-.63-1.26-1.11-.31-.47-.46-1.02-.46-1.65s.15-1.18.46-1.66c.31-.47.73-.84,1.26-1.1.53-.26,1.13-.39,1.79-.39s1.23.13,1.75.39c.53.26.94.63,1.26,1.1.31.47.47,1.03.47,1.66s-.16,1.17-.47,1.65c-.31.47-.73.84-1.26,1.11-.52.26-1.11.4-1.75.4ZM344.82,251.03c.66,0,1.17-.2,1.54-.61.37-.41.55-.92.55-1.53s-.18-1.14-.55-1.53c-.37-.39-.88-.59-1.54-.59s-1.17.2-1.54.59c-.38.39-.56.9-.56,1.53s.19,1.12.56,1.53.89.61,1.54.61ZM347.64,247.11l-.67-.27c0-.5.1-.95.3-1.33.2-.38.48-.68.85-.89.37-.21.8-.32,1.31-.32l-.11,1.39c-.54,0-.95.12-1.24.35-.29.23-.43.59-.43,1.08Z" style="fill:#000; stroke-width:0px;"/><path d="M356.75,243.92c-.29,0-.52-.08-.68-.25s-.25-.38-.25-.65.08-.47.25-.63.4-.23.68-.23.52.08.68.23.25.37.25.63-.08.49-.25.65-.4.25-.68.25ZM356.05,254.56v-8.62h1.4v8.62h-1.4Z" style="fill:#000; stroke-width:0px;"/><path d="M361.32,254.56v-8.6h1.21l.2,1.98v6.62h-1.4ZM367.44,254.56v-5.06c0-.82-.2-1.45-.59-1.88-.39-.43-.93-.64-1.61-.64-.52,0-.96.14-1.34.42-.38.28-.67.69-.87,1.21s-.31,1.15-.31,1.88h-.54c0-1,.13-1.86.4-2.56.26-.71.65-1.25,1.16-1.62s1.12-.56,1.85-.56c.68,0,1.26.15,1.74.46.48.3.85.74,1.11,1.3.26.56.39,1.23.39,2.01v5.06h-1.39Z" style="fill:#000; stroke-width:0px;"/><path d="M379.58,254.78c-.77,0-1.46-.17-2.07-.51s-1.08-.85-1.43-1.52c-.35-.67-.52-1.5-.52-2.48s.17-1.82.52-2.49.82-1.17,1.43-1.52c.6-.34,1.29-.51,2.07-.51s1.45.17,2.06.51c.6.34,1.08.85,1.42,1.52.34.67.52,1.5.52,2.49s-.17,1.81-.52,2.48c-.35.67-.82,1.18-1.42,1.52-.6.34-1.29.51-2.06.51ZM379.54,253.55c.56,0,1.03-.13,1.42-.4.39-.27.69-.65.89-1.14.2-.49.3-1.08.3-1.75,0-1.03-.21-1.83-.64-2.43-.43-.59-1.06-.89-1.9-.89-.56,0-1.04.13-1.43.4-.39.27-.68.65-.88,1.14-.2.5-.3,1.08-.3,1.77,0,1.01.21,1.82.64,2.41.43.59,1.06.89,1.89.89Z" style="fill:#000; stroke-width:0px;"/><path d="M386.3,254.56v-8.6h1.21l.2,1.98v6.62h-1.4ZM392.42,254.56v-5.06c0-.82-.2-1.45-.59-1.88-.39-.43-.93-.64-1.61-.64-.52,0-.96.14-1.34.42-.38.28-.67.69-.87,1.21s-.31,1.15-.31,1.88h-.54c0-1,.13-1.86.4-2.56.26-.71.65-1.25,1.16-1.62s1.12-.56,1.85-.56c.68,0,1.26.15,1.74.46.48.3.85.74,1.11,1.3.26.56.39,1.23.39,2.01v5.06h-1.39Z" style="fill:#000; stroke-width:0px;"/><path d="M404.48,258.99c-.88,0-1.65-.12-2.29-.37s-1.15-.58-1.51-1-.54-.88-.54-1.38c0-.67.24-1.17.73-1.53.49-.35,1.12-.53,1.89-.53l.77.49c-.65,0-1.15.13-1.5.4-.35.27-.53.64-.53,1.11s.25.86.76,1.19c.5.32,1.24.49,2.21.49.72,0,1.35-.1,1.89-.31s.97-.48,1.27-.81c.3-.33.45-.69.45-1.08,0-.27-.1-.5-.3-.7-.2-.2-.5-.29-.91-.29h-3.35c-.58,0-1.08-.09-1.51-.27s-.75-.41-.98-.7c-.23-.29-.34-.6-.34-.94,0-.36.1-.67.31-.92.2-.25.47-.44.8-.58.33-.13.68-.2,1.06-.2l.27.52c-.18,0-.36.04-.54.12s-.34.2-.46.36-.18.36-.18.6c0,.28.11.51.34.69.23.19.64.28,1.24.28h3.35c.81,0,1.45.17,1.91.51.46.34.7.82.7,1.43,0,.56-.2,1.11-.6,1.62s-.98.95-1.73,1.28-1.65.5-2.69.5ZM404.73,252.04c-.66,0-1.26-.13-1.79-.4-.53-.26-.95-.63-1.26-1.11-.31-.47-.46-1.02-.46-1.65s.15-1.18.46-1.66c.31-.47.73-.84,1.26-1.1.53-.26,1.13-.39,1.79-.39s1.23.13,1.75.39c.53.26.94.63,1.26,1.1.31.47.47,1.03.47,1.66s-.16,1.17-.47,1.65c-.31.47-.73.84-1.26,1.11-.52.26-1.11.4-1.75.4ZM404.73,251.03c.66,0,1.17-.2,1.54-.61.37-.41.55-.92.55-1.53s-.18-1.14-.55-1.53c-.37-.39-.88-.59-1.54-.59s-1.17.2-1.54.59c-.38.39-.56.9-.56,1.53s.19,1.12.56,1.53.89.61,1.54.61ZM407.56,247.11l-.67-.27c0-.5.1-.95.3-1.33.2-.38.48-.68.85-.89.37-.21.8-.32,1.31-.32l-.11,1.39c-.54,0-.95.12-1.24.35-.29.23-.43.59-.43,1.08Z" style="fill:#000; stroke-width:0px;"/><path d="M411.6,254.56v-8.62h1.4v8.62h-1.4ZM412.57,250.67c0-1.09.1-2,.31-2.72s.52-1.26.92-1.62c.41-.36.9-.54,1.48-.54.19,0,.37.01.53.04.16.03.32.07.48.12l-.09,1.39c-.17-.05-.35-.1-.55-.14-.2-.04-.38-.06-.53-.06-.51,0-.92.15-1.23.44s-.54.7-.68,1.23c-.14.53-.21,1.15-.21,1.86h-.43Z" style="fill:#000; stroke-width:0px;"/><path d="M421.09,254.78c-.74,0-1.41-.19-1.99-.57s-1.05-.91-1.39-1.59-.51-1.46-.51-2.34c0-.94.17-1.75.5-2.43s.8-1.2,1.38-1.56c.58-.36,1.25-.54,2-.54.65,0,1.21.13,1.67.4s.83.62,1.12,1.07c.28.45.48.96.59,1.53.11.57.14,1.15.09,1.76h-6.23v-.86h5.3l-.41.27c.02-.35,0-.71-.06-1.06-.06-.35-.16-.68-.32-.98-.16-.3-.38-.54-.66-.72-.28-.18-.64-.27-1.08-.27-.55,0-1.01.14-1.39.42s-.65.65-.84,1.11-.28.96-.28,1.49v.58c0,.6.09,1.14.27,1.61.18.47.46.85.82,1.12.37.28.83.41,1.39.41s1.02-.14,1.38-.41c.36-.27.58-.67.66-1.2h1.46c-.09.57-.29,1.06-.61,1.47-.32.41-.72.73-1.21.95-.49.22-1.05.33-1.67.33Z" style="fill:#000; stroke-width:0px;"/><path d="M429.74,254.78c-.71,0-1.29-.13-1.75-.38s-.81-.58-1.04-.98c-.23-.4-.34-.83-.34-1.27,0-.58.15-1.06.44-1.42s.69-.63,1.19-.81,1.07-.26,1.7-.26c.45,0,.9.05,1.35.14.45.09.9.21,1.33.37v.88c-.36-.14-.77-.26-1.22-.34s-.87-.13-1.25-.13c-.58,0-1.06.12-1.46.36-.4.24-.59.64-.59,1.21,0,.42.15.78.45,1.08.3.3.79.45,1.45.45.47,0,.89-.11,1.26-.33.38-.22.67-.49.89-.82.22-.33.33-.66.33-.99h.34c0,.58-.12,1.11-.37,1.6s-.6.89-1.07,1.19c-.46.3-1.01.45-1.66.45ZM432.68,254.56l-.18-1.89v-3.69c0-.77-.17-1.33-.49-1.67-.33-.34-.83-.51-1.49-.51-.37,0-.71.05-1.01.16-.3.11-.54.27-.72.5-.18.23-.27.51-.27.87h-1.57c0-.62.15-1.13.46-1.51.31-.38.73-.66,1.26-.83s1.15-.26,1.84-.26,1.25.11,1.76.33c.51.22.91.58,1.2,1.06.29.48.43,1.11.43,1.89v5.54h-1.22Z" style="fill:#000; stroke-width:0px;"/><path d="M436.05,246.93v-.97h5.49v.97h-5.49ZM439.9,254.78c-.47,0-.89-.09-1.26-.27-.37-.18-.67-.45-.88-.81-.22-.36-.32-.81-.32-1.35v-8.78h1.39v8.75c0,.89.41,1.33,1.24,1.33.25,0,.48-.03.72-.08s.49-.13.78-.24l.2,1.01c-.31.13-.61.24-.91.32-.3.08-.62.13-.94.13Z" style="fill:#000; stroke-width:0px;"/><path d="M447.36,246.93v-.97h4.59v.97h-4.59ZM448.77,254.56v-9.94c0-.57.11-1.04.33-1.4.22-.36.51-.63.88-.8.37-.17.78-.26,1.24-.26.25,0,.5.02.75.05s.51.09.76.16l-.27,1.12c-.18-.07-.36-.13-.54-.16-.18-.04-.35-.05-.51-.05-.19,0-.38.04-.58.11-.19.07-.35.21-.48.4-.13.2-.19.48-.19.86v9.92h-1.4Z" style="fill:#000; stroke-width:0px;"/><path d="M454.46,254.56v-8.62h1.4v8.62h-1.4ZM455.44,250.67c0-1.09.1-2,.31-2.72s.52-1.26.92-1.62c.41-.36.9-.54,1.48-.54.19,0,.37.01.53.04.16.03.32.07.48.12l-.09,1.39c-.17-.05-.35-.1-.55-.14-.2-.04-.38-.06-.53-.06-.51,0-.92.15-1.23.44s-.54.7-.68,1.23c-.14.53-.21,1.15-.21,1.86h-.43Z" style="fill:#000; stroke-width:0px;"/><path d="M461.76,243.92c-.29,0-.52-.08-.68-.25s-.25-.38-.25-.65.08-.47.25-.63.4-.23.68-.23.52.08.68.23.25.37.25.63-.08.49-.25.65-.4.25-.68.25ZM461.06,254.56v-8.62h1.4v8.62h-1.4Z" style="fill:#000; stroke-width:0px;"/><path d="M469.32,254.78c-.74,0-1.41-.19-1.99-.57s-1.05-.91-1.39-1.59-.51-1.46-.51-2.34c0-.94.17-1.75.5-2.43s.8-1.2,1.38-1.56c.58-.36,1.25-.54,2-.54.65,0,1.21.13,1.67.4s.83.62,1.12,1.07c.28.45.48.96.59,1.53.11.57.14,1.15.09,1.76h-6.23v-.86h5.3l-.41.27c.02-.35,0-.71-.06-1.06-.06-.35-.16-.68-.32-.98-.16-.3-.38-.54-.66-.72-.28-.18-.64-.27-1.08-.27-.55,0-1.01.14-1.39.42s-.65.65-.84,1.11-.28.96-.28,1.49v.58c0,.6.09,1.14.27,1.61.18.47.46.85.82,1.12.37.28.83.41,1.39.41s1.02-.14,1.38-.41c.36-.27.58-.67.66-1.2h1.46c-.09.57-.29,1.06-.61,1.47-.32.41-.72.73-1.21.95-.49.22-1.05.33-1.67.33Z" style="fill:#000; stroke-width:0px;"/><path d="M475.58,254.56v-8.6h1.21l.2,1.98v6.62h-1.4ZM481.7,254.56v-5.06c0-.82-.2-1.45-.59-1.88-.39-.43-.93-.64-1.61-.64-.52,0-.96.14-1.34.42-.38.28-.67.69-.87,1.21s-.31,1.15-.31,1.88h-.54c0-1,.13-1.86.4-2.56.26-.71.65-1.25,1.16-1.62s1.12-.56,1.85-.56c.68,0,1.26.15,1.74.46.48.3.85.74,1.11,1.3.26.56.39,1.23.39,2.01v5.06h-1.39Z" style="fill:#000; stroke-width:0px;"/><path d="M489.52,254.78c-.7,0-1.33-.19-1.92-.56s-1.05-.9-1.4-1.58c-.35-.68-.52-1.48-.52-2.41s.17-1.71.51-2.38c.34-.67.8-1.19,1.36-1.55s1.19-.54,1.87-.54c.63,0,1.18.15,1.66.46.48.31.85.75,1.11,1.32.26.58.4,1.27.4,2.09h-.54c0-.57-.11-1.05-.34-1.44-.23-.39-.52-.69-.88-.89-.36-.2-.75-.3-1.16-.3-.47,0-.9.13-1.28.39-.39.26-.7.63-.93,1.12-.23.48-.35,1.06-.35,1.73s.12,1.27.35,1.76c.23.49.54.87.93,1.13.39.26.81.4,1.28.4.39,0,.77-.1,1.13-.31.36-.2.66-.5.9-.9.23-.39.35-.87.35-1.43h.54c0,.83-.14,1.54-.41,2.12s-.64,1.02-1.11,1.32c-.46.3-.99.45-1.56.45ZM492.29,254.56l-.23-2.02v-10.26h1.4v12.28h-1.17Z" style="fill:#000; stroke-width:0px;"/><path d="M500.2,254.78c-.83,0-1.53-.12-2.09-.36-.56-.24-.98-.56-1.27-.98s-.44-.9-.46-1.44h1.35c.03.55.25.96.66,1.23.41.27.97.41,1.68.41.37,0,.71-.06,1.03-.18s.56-.29.75-.5.28-.45.28-.71c0-.34-.12-.6-.37-.79-.25-.19-.64-.36-1.18-.5l-1.67-.54c-.73-.23-1.28-.54-1.67-.94-.39-.4-.58-.88-.58-1.44,0-.7.31-1.25.92-1.67.61-.42,1.42-.63,2.41-.63,1.06,0,1.87.22,2.46.65s.89.97.91,1.62h-1.39c-.05-.38-.25-.67-.58-.86-.33-.2-.8-.29-1.4-.29s-1.04.13-1.36.39-.49.55-.49.87c0,.59.51,1.03,1.53,1.31l1.71.58c.74.22,1.3.51,1.7.87.39.36.59.82.59,1.38,0,.43-.14.84-.42,1.22-.28.38-.68.7-1.2.94-.52.24-1.13.36-1.84.36Z" style="fill:#000; stroke-width:0px;"/><path d="M506.35,256.52l-1.06-.52c.34-.17.63-.37.87-.58.24-.21.39-.47.46-.77-.26-.03-.48-.12-.66-.28-.18-.16-.27-.36-.27-.62s.09-.47.28-.65c.19-.18.43-.27.72-.27.37,0,.67.13.9.4.23.27.34.59.34.96,0,.44-.13.87-.4,1.29-.27.42-.66.77-1.18,1.03Z" style="fill:#000; stroke-width:0px;"/><path d="M53.33,282.56v-12.28h1.4v10.26l-.41,2.02h-.99ZM57.27,282.78c-.58,0-1.1-.15-1.56-.45-.47-.3-.83-.74-1.11-1.32s-.41-1.29-.41-2.12h.54c0,.56.12,1.03.35,1.43.23.39.53.69.9.9.37.2.75.31,1.15.31.46,0,.88-.13,1.27-.4.38-.26.69-.64.92-1.13.23-.49.35-1.08.35-1.76s-.11-1.25-.34-1.73c-.23-.48-.54-.86-.92-1.12-.39-.26-.82-.39-1.29-.39-.41,0-.79.1-1.16.3-.36.2-.66.5-.88.89-.23.39-.34.87-.34,1.44h-.54c0-.82.13-1.51.4-2.09s.64-1.02,1.11-1.32c.47-.31,1.03-.46,1.66-.46.68,0,1.3.18,1.87.54.57.36,1.02.88,1.36,1.55.34.67.51,1.47.51,2.38s-.17,1.73-.52,2.41c-.35.68-.81,1.21-1.4,1.58s-1.22.56-1.92.56Z" style="fill:#000; stroke-width:0px;"/><path d="M64,282.56v-8.62h1.4v8.62h-1.4ZM64.97,278.67c0-1.09.1-2,.31-2.72s.52-1.26.92-1.62c.41-.36.9-.54,1.48-.54.19,0,.37.01.53.04.16.03.32.07.48.12l-.09,1.39c-.17-.05-.35-.1-.55-.14-.2-.04-.38-.06-.53-.06-.51,0-.92.15-1.23.44s-.54.7-.68,1.23c-.14.53-.21,1.15-.21,1.86h-.43Z" style="fill:#000; stroke-width:0px;"/><path d="M71.3,271.92c-.29,0-.52-.08-.68-.25s-.25-.38-.25-.65.08-.47.25-.63.4-.23.68-.23.52.08.68.23.25.37.25.63-.08.49-.25.65-.4.25-.68.25ZM70.59,282.56v-8.62h1.4v8.62h-1.4Z" style="fill:#000; stroke-width:0px;"/><path d="M75.87,282.56v-8.6h1.21l.2,1.98v6.62h-1.4ZM81.99,282.56v-5.06c0-.82-.2-1.45-.59-1.88-.39-.43-.93-.64-1.61-.64-.52,0-.96.14-1.34.42-.38.28-.67.69-.87,1.21s-.31,1.15-.31,1.88h-.54c0-1,.13-1.86.4-2.56.26-.71.65-1.25,1.16-1.62s1.12-.56,1.85-.56c.68,0,1.26.15,1.74.46.48.3.85.74,1.11,1.3.26.56.39,1.23.39,2.01v5.06h-1.39Z" style="fill:#000; stroke-width:0px;"/><path d="M89.77,286.99c-.88,0-1.65-.12-2.29-.37s-1.15-.58-1.51-1-.54-.88-.54-1.38c0-.67.24-1.17.73-1.53.49-.35,1.12-.53,1.89-.53l.77.49c-.65,0-1.15.13-1.5.4-.35.27-.53.64-.53,1.11s.25.86.76,1.19c.5.32,1.24.49,2.21.49.72,0,1.35-.1,1.89-.31s.97-.48,1.27-.81c.3-.33.45-.69.45-1.08,0-.27-.1-.5-.3-.7-.2-.2-.5-.29-.91-.29h-3.35c-.58,0-1.08-.09-1.51-.27s-.75-.41-.98-.7c-.23-.29-.34-.6-.34-.94,0-.36.1-.67.31-.92.2-.25.47-.44.8-.58.33-.13.68-.2,1.06-.2l.27.52c-.18,0-.36.04-.54.12s-.34.2-.46.36-.18.36-.18.6c0,.28.11.51.34.69.23.19.64.28,1.24.28h3.35c.81,0,1.45.17,1.91.51.46.34.7.82.7,1.43,0,.56-.2,1.11-.6,1.62s-.98.95-1.73,1.28-1.65.5-2.69.5ZM90.02,280.04c-.66,0-1.26-.13-1.79-.4-.53-.26-.95-.63-1.26-1.11-.31-.47-.46-1.02-.46-1.65s.15-1.18.46-1.66c.31-.47.73-.84,1.26-1.1.53-.26,1.13-.39,1.79-.39s1.23.13,1.75.39c.53.26.94.63,1.26,1.1.31.47.47,1.03.47,1.66s-.16,1.17-.47,1.65c-.31.47-.73.84-1.26,1.11-.52.26-1.11.4-1.75.4ZM90.02,279.03c.66,0,1.17-.2,1.54-.61.37-.41.55-.92.55-1.53s-.18-1.14-.55-1.53c-.37-.39-.88-.59-1.54-.59s-1.17.2-1.54.59c-.38.39-.56.9-.56,1.53s.19,1.12.56,1.53.89.61,1.54.61ZM92.85,275.11l-.67-.27c0-.5.1-.95.3-1.33.2-.38.48-.68.85-.89.37-.21.8-.32,1.31-.32l-.11,1.39c-.54,0-.95.12-1.24.35-.29.23-.43.59-.43,1.08Z" style="fill:#000; stroke-width:0px;"/><path d="M97.68,271.92c-.29,0-.52-.08-.68-.25s-.25-.38-.25-.65.08-.47.25-.63.4-.23.68-.23.52.08.68.23.25.37.25.63-.08.49-.25.65-.4.25-.68.25ZM96.98,282.56v-8.62h1.4v8.62h-1.4Z" style="fill:#000; stroke-width:0px;"/><path d="M102.26,282.56v-8.6h1.21l.2,1.98v6.62h-1.4ZM108.38,282.56v-5.06c0-.82-.2-1.45-.59-1.88-.39-.43-.93-.64-1.61-.64-.52,0-.96.14-1.34.42-.38.28-.67.69-.87,1.21s-.31,1.15-.31,1.88h-.54c0-1,.13-1.86.4-2.56.26-.71.65-1.25,1.16-1.62s1.12-.56,1.85-.56c.68,0,1.26.15,1.74.46.48.3.85.74,1.11,1.3.26.56.39,1.23.39,2.01v5.06h-1.39Z" style="fill:#000; stroke-width:0px;"/><path d="M116.16,286.99c-.88,0-1.65-.12-2.29-.37s-1.15-.58-1.51-1-.54-.88-.54-1.38c0-.67.24-1.17.73-1.53.49-.35,1.12-.53,1.89-.53l.77.49c-.65,0-1.15.13-1.5.4-.35.27-.53.64-.53,1.11s.25.86.76,1.19c.5.32,1.24.49,2.21.49.72,0,1.35-.1,1.89-.31s.97-.48,1.27-.81c.3-.33.45-.69.45-1.08,0-.27-.1-.5-.3-.7-.2-.2-.5-.29-.91-.29h-3.35c-.58,0-1.08-.09-1.51-.27s-.75-.41-.98-.7c-.23-.29-.34-.6-.34-.94,0-.36.1-.67.31-.92.2-.25.47-.44.8-.58.33-.13.68-.2,1.06-.2l.27.52c-.18,0-.36.04-.54.12s-.34.2-.46.36-.18.36-.18.6c0,.28.11.51.34.69.23.19.64.28,1.24.28h3.35c.81,0,1.45.17,1.91.51.46.34.7.82.7,1.43,0,.56-.2,1.11-.6,1.62s-.98.95-1.73,1.28-1.65.5-2.69.5ZM116.41,280.04c-.66,0-1.26-.13-1.79-.4-.53-.26-.95-.63-1.26-1.11-.31-.47-.46-1.02-.46-1.65s.15-1.18.46-1.66c.31-.47.73-.84,1.26-1.1.53-.26,1.13-.39,1.79-.39s1.23.13,1.75.39c.53.26.94.63,1.26,1.1.31.47.47,1.03.47,1.66s-.16,1.17-.47,1.65c-.31.47-.73.84-1.26,1.11-.52.26-1.11.4-1.75.4ZM116.41,279.03c.66,0,1.17-.2,1.54-.61.37-.41.55-.92.55-1.53s-.18-1.14-.55-1.53c-.37-.39-.88-.59-1.54-.59s-1.17.2-1.54.59c-.38.39-.56.9-.56,1.53s.19,1.12.56,1.53.89.61,1.54.61ZM119.24,275.11l-.67-.27c0-.5.1-.95.3-1.33.2-.38.48-.68.85-.89.37-.21.8-.32,1.31-.32l-.11,1.39c-.54,0-.95.12-1.24.35-.29.23-.43.59-.43,1.08Z" style="fill:#000; stroke-width:0px;"/><path d="M126.06,273.96h1.46l2.2,7.18h-.18l2.14-6.77h1.17l2.12,6.79h-.16l2.2-7.2h1.4l-2.83,8.6h-1.37l-2.09-6.35h.22l-2.07,6.35h-1.37l-2.84-8.6Z" style="fill:#000; stroke-width:0px;"/><path d="M142.99,282.78c-.71,0-1.29-.13-1.75-.38s-.81-.58-1.04-.98c-.23-.4-.34-.83-.34-1.27,0-.58.15-1.06.44-1.42s.69-.63,1.19-.81,1.07-.26,1.7-.26c.45,0,.9.05,1.35.14.45.09.9.21,1.33.37v.88c-.36-.14-.77-.26-1.22-.34s-.87-.13-1.25-.13c-.58,0-1.06.12-1.46.36-.4.24-.59.64-.59,1.21,0,.42.15.78.45,1.08.3.3.79.45,1.45.45.47,0,.89-.11,1.26-.33.38-.22.67-.49.89-.82.22-.33.33-.66.33-.99h.34c0,.58-.12,1.11-.37,1.6s-.6.89-1.07,1.19c-.46.3-1.01.45-1.66.45ZM145.92,282.56l-.18-1.89v-3.69c0-.77-.17-1.33-.49-1.67-.33-.34-.83-.51-1.49-.51-.37,0-.71.05-1.01.16-.3.11-.54.27-.72.5-.18.23-.27.51-.27.87h-1.57c0-.62.15-1.13.46-1.51.31-.38.73-.66,1.26-.83s1.15-.26,1.84-.26,1.25.11,1.76.33c.51.22.91.58,1.2,1.06.29.48.43,1.11.43,1.89v5.54h-1.22Z" style="fill:#000; stroke-width:0px;"/><path d="M150.5,282.56v-8.62h1.4v8.62h-1.4ZM151.48,278.67c0-1.09.1-2,.31-2.72s.52-1.26.92-1.62c.41-.36.9-.54,1.48-.54.19,0,.37.01.53.04.16.03.32.07.48.12l-.09,1.39c-.17-.05-.35-.1-.55-.14-.2-.04-.38-.06-.53-.06-.51,0-.92.15-1.23.44s-.54.7-.68,1.23c-.14.53-.21,1.15-.21,1.86h-.43Z" style="fill:#000; stroke-width:0px;"/><path d="M157.01,282.56v-8.6h1.21l.16,1.73c.27-.62.65-1.1,1.14-1.44.49-.34,1.08-.5,1.76-.5s1.26.15,1.74.46c.48.3.85.74,1.11,1.3.26.56.39,1.23.39,2.01v5.06h-1.39v-5.06c0-.82-.2-1.45-.59-1.88-.39-.43-.93-.64-1.61-.64-.52,0-.96.14-1.34.42-.38.28-.67.69-.87,1.21s-.31,1.15-.31,1.88v4.07h-1.4ZM169.11,282.56v-5.06c0-.82-.2-1.45-.59-1.88-.39-.43-.92-.64-1.59-.64-.78,0-1.38.3-1.79.9-.41.6-.62,1.44-.62,2.5h-.65c0-.77.08-1.45.23-2.03.15-.58.38-1.07.67-1.45.29-.39.65-.68,1.07-.87.42-.19.9-.29,1.43-.29.68,0,1.26.15,1.74.46s.85.74,1.11,1.3c.26.56.39,1.23.39,2.01v5.06h-1.4Z" style="fill:#000; stroke-width:0px;"/><path d="M172.64,274.93v-.97h5.49v.97h-5.49ZM176.5,282.78c-.47,0-.89-.09-1.26-.27-.37-.18-.67-.45-.88-.81-.22-.36-.32-.81-.32-1.35v-8.78h1.39v8.75c0,.89.41,1.33,1.24,1.33.25,0,.48-.03.72-.08s.49-.13.78-.24l.2,1.01c-.31.13-.61.24-.91.32-.3.08-.62.13-.94.13Z" style="fill:#000; stroke-width:0px;"/><path d="M180.62,282.56v-12.28h1.4v12.28h-1.4ZM186.74,282.56v-5.06c0-.82-.2-1.45-.59-1.88-.39-.43-.93-.64-1.61-.64-.52,0-.96.14-1.34.42-.38.28-.67.69-.87,1.21s-.31,1.15-.31,1.88h-.54c0-1,.13-1.86.4-2.56.26-.71.65-1.25,1.16-1.62s1.12-.56,1.85-.56c.68,0,1.26.15,1.74.46.48.3.85.74,1.11,1.3.26.56.39,1.23.39,2.01v5.06h-1.39Z" style="fill:#000; stroke-width:0px;"/><path d="M191.26,284.52l-1.06-.52c.34-.17.63-.37.87-.58.24-.21.39-.47.46-.77-.26-.03-.48-.12-.66-.28-.18-.16-.27-.36-.27-.62s.09-.47.28-.65c.19-.18.43-.27.72-.27.37,0,.67.13.9.4.23.27.34.59.34.96,0,.44-.13.87-.4,1.29-.27.42-.66.77-1.18,1.03Z" style="fill:#000; stroke-width:0px;"/><path d="M202.51,282.78c-.74,0-1.41-.19-1.99-.57s-1.05-.91-1.39-1.59-.51-1.46-.51-2.34c0-.94.17-1.75.5-2.43s.8-1.2,1.38-1.56c.58-.36,1.25-.54,2-.54.65,0,1.21.13,1.67.4s.83.62,1.12,1.07c.28.45.48.96.59,1.53.11.57.14,1.15.09,1.76h-6.23v-.86h5.3l-.41.27c.02-.35,0-.71-.06-1.06-.06-.35-.16-.68-.32-.98-.16-.3-.38-.54-.66-.72-.28-.18-.64-.27-1.08-.27-.55,0-1.01.14-1.39.42s-.65.65-.84,1.11-.28.96-.28,1.49v.58c0,.6.09,1.14.27,1.61.18.47.46.85.82,1.12.37.28.83.41,1.39.41s1.02-.14,1.38-.41c.36-.27.58-.67.66-1.2h1.46c-.09.57-.29,1.06-.61,1.47-.32.41-.72.73-1.21.95-.49.22-1.05.33-1.67.33Z" style="fill:#000; stroke-width:0px;"/><path d="M207.41,282.56l3.26-4.3-3.26-4.32h1.71l2.47,3.26,2.38-3.26h1.71l-3.28,4.32,3.26,4.3h-1.71l-2.47-3.28-2.36,3.28h-1.71Z" style="fill:#000; stroke-width:0px;"/><path d="M217.97,286.79v-12.83h1.17l.23,2.02v10.82h-1.4ZM221.87,282.78c-.63,0-1.18-.14-1.64-.43-.47-.29-.82-.71-1.08-1.26s-.38-1.23-.38-2.03h.59c0,.53.11.98.33,1.35.22.37.51.64.87.83.36.19.74.28,1.14.28.43,0,.85-.12,1.24-.37.4-.25.72-.62.97-1.1.25-.49.38-1.09.38-1.8s-.12-1.27-.35-1.75c-.23-.49-.54-.86-.93-1.12-.39-.26-.82-.39-1.3-.39-.41,0-.79.1-1.15.3-.36.2-.65.49-.87.87-.22.38-.33.85-.33,1.41h-.59c0-.83.14-1.53.41-2.1s.65-.99,1.12-1.28,1-.43,1.59-.43c.67,0,1.3.18,1.88.54.58.36,1.05.88,1.41,1.55.36.67.54,1.48.54,2.41s-.18,1.76-.54,2.44c-.36.68-.84,1.2-1.43,1.56-.59.36-1.22.54-1.9.54Z" style="fill:#000; stroke-width:0px;"/><path d="M231.48,282.78c-.74,0-1.41-.19-1.99-.57s-1.05-.91-1.39-1.59-.51-1.46-.51-2.34c0-.94.17-1.75.5-2.43s.8-1.2,1.38-1.56c.58-.36,1.25-.54,2-.54.65,0,1.21.13,1.67.4s.83.62,1.12,1.07c.28.45.48.96.59,1.53.11.57.14,1.15.09,1.76h-6.23v-.86h5.3l-.41.27c.02-.35,0-.71-.06-1.06-.06-.35-.16-.68-.32-.98-.16-.3-.38-.54-.66-.72-.28-.18-.64-.27-1.08-.27-.55,0-1.01.14-1.39.42s-.65.65-.84,1.11-.28.96-.28,1.49v.58c0,.6.09,1.14.27,1.61.18.47.46.85.82,1.12.37.28.83.41,1.39.41s1.02-.14,1.38-.41c.36-.27.58-.67.66-1.2h1.46c-.09.57-.29,1.06-.61,1.47-.32.41-.72.73-1.21.95-.49.22-1.05.33-1.67.33Z" style="fill:#000; stroke-width:0px;"/><path d="M237.73,282.56v-8.62h1.4v8.62h-1.4ZM238.7,278.67c0-1.09.1-2,.31-2.72s.52-1.26.92-1.62c.41-.36.9-.54,1.48-.54.19,0,.37.01.53.04.16.03.32.07.48.12l-.09,1.39c-.17-.05-.35-.1-.55-.14-.2-.04-.38-.06-.53-.06-.51,0-.92.15-1.23.44s-.54.7-.68,1.23c-.14.53-.21,1.15-.21,1.86h-.43Z" style="fill:#000; stroke-width:0px;"/><path d="M243.03,274.93v-.97h5.49v.97h-5.49ZM246.88,282.78c-.47,0-.89-.09-1.26-.27-.37-.18-.67-.45-.88-.81-.22-.36-.32-.81-.32-1.35v-8.78h1.39v8.75c0,.89.41,1.33,1.24,1.33.25,0,.48-.03.72-.08s.49-.13.78-.24l.2,1.01c-.31.13-.61.24-.91.32-.3.08-.62.13-.94.13Z" style="fill:#000; stroke-width:0px;"/><path d="M251.8,271.92c-.29,0-.52-.08-.68-.25s-.25-.38-.25-.65.08-.47.25-.63.4-.23.68-.23.52.08.68.23.25.37.25.63-.08.49-.25.65-.4.25-.68.25ZM251.1,282.56v-8.62h1.4v8.62h-1.4Z" style="fill:#000; stroke-width:0px;"/><path d="M259.47,282.78c-.83,0-1.53-.12-2.09-.36-.56-.24-.98-.56-1.27-.98s-.44-.9-.46-1.44h1.35c.03.55.25.96.66,1.23.41.27.97.41,1.68.41.37,0,.71-.06,1.03-.18s.56-.29.75-.5.28-.45.28-.71c0-.34-.12-.6-.37-.79-.25-.19-.64-.36-1.18-.5l-1.67-.54c-.73-.23-1.28-.54-1.67-.94-.39-.4-.58-.88-.58-1.44,0-.7.31-1.25.92-1.67.61-.42,1.42-.63,2.41-.63,1.06,0,1.87.22,2.46.65s.89.97.91,1.62h-1.39c-.05-.38-.25-.67-.58-.86-.33-.2-.8-.29-1.4-.29s-1.04.13-1.36.39-.49.55-.49.87c0,.59.51,1.03,1.53,1.31l1.71.58c.74.22,1.3.51,1.7.87.39.36.59.82.59,1.38,0,.43-.14.84-.42,1.22-.28.38-.68.7-1.2.94-.52.24-1.13.36-1.84.36Z" style="fill:#000; stroke-width:0px;"/><path d="M268.82,282.78c-.74,0-1.41-.19-1.99-.57s-1.05-.91-1.39-1.59-.51-1.46-.51-2.34c0-.94.17-1.75.5-2.43s.8-1.2,1.38-1.56c.58-.36,1.25-.54,2-.54.65,0,1.21.13,1.67.4s.83.62,1.12,1.07c.28.45.48.96.59,1.53.11.57.14,1.15.09,1.76h-6.23v-.86h5.3l-.41.27c.02-.35,0-.71-.06-1.06-.06-.35-.16-.68-.32-.98-.16-.3-.38-.54-.66-.72-.28-.18-.64-.27-1.08-.27-.55,0-1.01.14-1.39.42s-.65.65-.84,1.11-.28.96-.28,1.49v.58c0,.6.09,1.14.27,1.61.18.47.46.85.82,1.12.37.28.83.41,1.39.41s1.02-.14,1.38-.41c.36-.27.58-.67.66-1.2h1.46c-.09.57-.29,1.06-.61,1.47-.32.41-.72.73-1.21.95-.49.22-1.05.33-1.67.33Z" style="fill:#000; stroke-width:0px;"/><path d="M274.86,284.52l-1.06-.52c.34-.17.63-.37.87-.58.24-.21.39-.47.46-.77-.26-.03-.48-.12-.66-.28-.18-.16-.27-.36-.27-.62s.09-.47.28-.65c.19-.18.43-.27.72-.27.37,0,.67.13.9.4.23.27.34.59.34.96,0,.44-.13.87-.4,1.29-.27.42-.66.77-1.18,1.03Z" style="fill:#000; stroke-width:0px;"/><path d="M285.5,282.78c-.71,0-1.29-.13-1.75-.38s-.81-.58-1.04-.98c-.23-.4-.34-.83-.34-1.27,0-.58.15-1.06.44-1.42s.69-.63,1.19-.81,1.07-.26,1.7-.26c.45,0,.9.05,1.35.14.45.09.9.21,1.33.37v.88c-.36-.14-.77-.26-1.22-.34s-.87-.13-1.25-.13c-.58,0-1.06.12-1.46.36-.4.24-.59.64-.59,1.21,0,.42.15.78.45,1.08.3.3.79.45,1.45.45.47,0,.89-.11,1.26-.33.38-.22.67-.49.89-.82.22-.33.33-.66.33-.99h.34c0,.58-.12,1.11-.37,1.6s-.6.89-1.07,1.19c-.46.3-1.01.45-1.66.45ZM288.44,282.56l-.18-1.89v-3.69c0-.77-.17-1.33-.49-1.67-.33-.34-.83-.51-1.49-.51-.37,0-.71.05-1.01.16-.3.11-.54.27-.72.5-.18.23-.27.51-.27.87h-1.57c0-.62.15-1.13.46-1.51.31-.38.73-.66,1.26-.83s1.15-.26,1.84-.26,1.25.11,1.76.33c.51.22.91.58,1.2,1.06.29.48.43,1.11.43,1.89v5.54h-1.22Z" style="fill:#000; stroke-width:0px;"/><path d="M293.02,282.56v-8.6h1.21l.2,1.98v6.62h-1.4ZM299.14,282.56v-5.06c0-.82-.2-1.45-.59-1.88-.39-.43-.93-.64-1.61-.64-.52,0-.96.14-1.34.42-.38.28-.67.69-.87,1.21s-.31,1.15-.31,1.88h-.54c0-1,.13-1.86.4-2.56.26-.71.65-1.25,1.16-1.62s1.12-.56,1.85-.56c.68,0,1.26.15,1.74.46.48.3.85.74,1.11,1.3.26.56.39,1.23.39,2.01v5.06h-1.39Z" style="fill:#000; stroke-width:0px;"/><path d="M306.96,282.78c-.7,0-1.33-.19-1.92-.56s-1.05-.9-1.4-1.58c-.35-.68-.52-1.48-.52-2.41s.17-1.71.51-2.38c.34-.67.8-1.19,1.36-1.55s1.19-.54,1.87-.54c.63,0,1.18.15,1.66.46.48.31.85.75,1.11,1.32.26.58.4,1.27.4,2.09h-.54c0-.57-.11-1.05-.34-1.44-.23-.39-.52-.69-.88-.89-.36-.2-.75-.3-1.16-.3-.47,0-.9.13-1.28.39-.39.26-.7.63-.93,1.12-.23.48-.35,1.06-.35,1.73s.12,1.27.35,1.76c.23.49.54.87.93,1.13.39.26.81.4,1.28.4.39,0,.77-.1,1.13-.31.36-.2.66-.5.9-.9.23-.39.35-.87.35-1.43h.54c0,.83-.14,1.54-.41,2.12s-.64,1.02-1.11,1.32c-.46.3-.99.45-1.56.45ZM309.73,282.56l-.23-2.02v-10.26h1.4v12.28h-1.17Z" style="fill:#000; stroke-width:0px;"/><path d="M317.61,274.93v-.97h5.49v.97h-5.49ZM321.47,282.78c-.47,0-.89-.09-1.26-.27-.37-.18-.67-.45-.88-.81-.22-.36-.32-.81-.32-1.35v-8.78h1.39v8.75c0,.89.41,1.33,1.24,1.33.25,0,.48-.03.72-.08s.49-.13.78-.24l.2,1.01c-.31.13-.61.24-.91.32-.3.08-.62.13-.94.13Z" style="fill:#000; stroke-width:0px;"/><path d="M325.59,282.56v-12.28h1.4v12.28h-1.4ZM331.71,282.56v-5.06c0-.82-.2-1.45-.59-1.88-.39-.43-.93-.64-1.61-.64-.52,0-.96.14-1.34.42-.38.28-.67.69-.87,1.21s-.31,1.15-.31,1.88h-.54c0-1,.13-1.86.4-2.56.26-.71.65-1.25,1.16-1.62s1.12-.56,1.85-.56c.68,0,1.26.15,1.74.46.48.3.85.74,1.11,1.3.26.56.39,1.23.39,2.01v5.06h-1.39Z" style="fill:#000; stroke-width:0px;"/><path d="M339.44,282.78c-.74,0-1.41-.19-1.99-.57s-1.05-.91-1.39-1.59-.51-1.46-.51-2.34c0-.94.17-1.75.5-2.43s.8-1.2,1.38-1.56c.58-.36,1.25-.54,2-.54.65,0,1.21.13,1.67.4s.83.62,1.12,1.07c.28.45.48.96.59,1.53.11.57.14,1.15.09,1.76h-6.23v-.86h5.3l-.41.27c.02-.35,0-.71-.06-1.06-.06-.35-.16-.68-.32-.98-.16-.3-.38-.54-.66-.72-.28-.18-.64-.27-1.08-.27-.55,0-1.01.14-1.39.42s-.65.65-.84,1.11-.28.96-.28,1.49v.58c0,.6.09,1.14.27,1.61.18.47.46.85.82,1.12.37.28.83.41,1.39.41s1.02-.14,1.38-.41c.36-.27.58-.67.66-1.2h1.46c-.09.57-.29,1.06-.61,1.47-.32.41-.72.73-1.21.95-.49.22-1.05.33-1.67.33Z" style="fill:#000; stroke-width:0px;"/><path d="M353.08,282.78c-.77,0-1.46-.17-2.07-.51s-1.08-.85-1.43-1.52c-.35-.67-.52-1.5-.52-2.48s.17-1.82.52-2.49.82-1.17,1.43-1.52c.6-.34,1.29-.51,2.07-.51s1.45.17,2.06.51c.6.34,1.08.85,1.42,1.52.34.67.52,1.5.52,2.49s-.17,1.81-.52,2.48c-.35.67-.82,1.18-1.42,1.52-.6.34-1.29.51-2.06.51ZM353.05,281.55c.56,0,1.03-.13,1.42-.4.39-.27.69-.65.89-1.14.2-.49.3-1.08.3-1.75,0-1.03-.21-1.83-.64-2.43-.43-.59-1.06-.89-1.9-.89-.56,0-1.04.13-1.43.4-.39.27-.68.65-.88,1.14-.2.5-.3,1.08-.3,1.77,0,1.01.21,1.82.64,2.41.43.59,1.06.89,1.89.89Z" style="fill:#000; stroke-width:0px;"/><path d="M362.83,282.78c-.69,0-1.33-.19-1.93-.56-.6-.37-1.08-.9-1.44-1.58-.37-.68-.55-1.48-.55-2.4s.18-1.76.55-2.43c.37-.67.85-1.18,1.44-1.54.6-.35,1.24-.53,1.93-.53.49,0,.92.07,1.31.22.39.15.72.35,1.01.61s.53.55.72.88.33.67.42,1.03l-1.44.13c-.15-.5-.4-.89-.75-1.18s-.78-.44-1.28-.44c-.43,0-.83.12-1.2.36-.38.24-.68.61-.91,1.09-.23.48-.35,1.08-.35,1.8,0,.67.11,1.24.32,1.73.21.49.51.87.88,1.14.37.27.79.41,1.27.41.67,0,1.17-.16,1.52-.49.35-.33.52-.78.52-1.36h1.44c0,.6-.14,1.13-.42,1.6-.28.47-.68.84-1.2,1.11-.52.27-1.13.41-1.83.41Z" style="fill:#000; stroke-width:0px;"/><path d="M372.12,282.78c-.69,0-1.33-.19-1.93-.56-.6-.37-1.08-.9-1.44-1.58-.37-.68-.55-1.48-.55-2.4s.18-1.76.55-2.43c.37-.67.85-1.18,1.44-1.54.6-.35,1.24-.53,1.93-.53.49,0,.92.07,1.31.22.39.15.72.35,1.01.61s.53.55.72.88.33.67.42,1.03l-1.44.13c-.15-.5-.4-.89-.75-1.18s-.78-.44-1.28-.44c-.43,0-.83.12-1.2.36-.38.24-.68.61-.91,1.09-.23.48-.35,1.08-.35,1.8,0,.67.11,1.24.32,1.73.21.49.51.87.88,1.14.37.27.79.41,1.27.41.67,0,1.17-.16,1.52-.49.35-.33.52-.78.52-1.36h1.44c0,.6-.14,1.13-.42,1.6-.28.47-.68.84-1.2,1.11-.52.27-1.13.41-1.83.41Z" style="fill:#000; stroke-width:0px;"/><path d="M380.78,282.78c-.71,0-1.29-.13-1.75-.38s-.81-.58-1.04-.98c-.23-.4-.34-.83-.34-1.27,0-.58.15-1.06.44-1.42s.69-.63,1.19-.81,1.07-.26,1.7-.26c.45,0,.9.05,1.35.14.45.09.9.21,1.33.37v.88c-.36-.14-.77-.26-1.22-.34s-.87-.13-1.25-.13c-.58,0-1.06.12-1.46.36-.4.24-.59.64-.59,1.21,0,.42.15.78.45,1.08.3.3.79.45,1.45.45.47,0,.89-.11,1.26-.33.38-.22.67-.49.89-.82.22-.33.33-.66.33-.99h.34c0,.58-.12,1.11-.37,1.6s-.6.89-1.07,1.19c-.46.3-1.01.45-1.66.45ZM383.71,282.56l-.18-1.89v-3.69c0-.77-.17-1.33-.49-1.67-.33-.34-.83-.51-1.49-.51-.37,0-.71.05-1.01.16-.3.11-.54.27-.72.5-.18.23-.27.51-.27.87h-1.57c0-.62.15-1.13.46-1.51.31-.38.73-.66,1.26-.83s1.15-.26,1.84-.26,1.25.11,1.76.33c.51.22.91.58,1.2,1.06.29.48.43,1.11.43,1.89v5.54h-1.22Z" style="fill:#000; stroke-width:0px;"/><path d="M391.39,282.78c-.83,0-1.53-.12-2.09-.36-.56-.24-.98-.56-1.27-.98s-.44-.9-.46-1.44h1.35c.03.55.25.96.66,1.23.41.27.97.41,1.68.41.37,0,.71-.06,1.03-.18s.56-.29.75-.5.28-.45.28-.71c0-.34-.12-.6-.37-.79-.25-.19-.64-.36-1.18-.5l-1.67-.54c-.73-.23-1.28-.54-1.67-.94-.39-.4-.58-.88-.58-1.44,0-.7.31-1.25.92-1.67.61-.42,1.42-.63,2.41-.63,1.06,0,1.87.22,2.46.65s.89.97.91,1.62h-1.39c-.05-.38-.25-.67-.58-.86-.33-.2-.8-.29-1.4-.29s-1.04.13-1.36.39-.49.55-.49.87c0,.59.51,1.03,1.53,1.31l1.71.58c.74.22,1.3.51,1.7.87.39.36.59.82.59,1.38,0,.43-.14.84-.42,1.22-.28.38-.68.7-1.2.94-.52.24-1.13.36-1.84.36Z" style="fill:#000; stroke-width:0px;"/><path d="M398.54,271.92c-.29,0-.52-.08-.68-.25s-.25-.38-.25-.65.08-.47.25-.63.4-.23.68-.23.52.08.68.23.25.37.25.63-.08.49-.25.65-.4.25-.68.25ZM397.84,282.56v-8.62h1.4v8.62h-1.4Z" style="fill:#000; stroke-width:0px;"/><path d="M406.23,282.78c-.77,0-1.46-.17-2.07-.51s-1.08-.85-1.43-1.52c-.35-.67-.52-1.5-.52-2.48s.17-1.82.52-2.49.82-1.17,1.43-1.52c.6-.34,1.29-.51,2.07-.51s1.45.17,2.06.51c.6.34,1.08.85,1.42,1.52.34.67.52,1.5.52,2.49s-.17,1.81-.52,2.48c-.35.67-.82,1.18-1.42,1.52-.6.34-1.29.51-2.06.51ZM406.19,281.55c.56,0,1.03-.13,1.42-.4.39-.27.69-.65.89-1.14.2-.49.3-1.08.3-1.75,0-1.03-.21-1.83-.64-2.43-.43-.59-1.06-.89-1.9-.89-.56,0-1.04.13-1.43.4-.39.27-.68.65-.88,1.14-.2.5-.3,1.08-.3,1.77,0,1.01.21,1.82.64,2.41.43.59,1.06.89,1.89.89Z" style="fill:#000; stroke-width:0px;"/><path d="M412.95,282.56v-8.6h1.21l.2,1.98v6.62h-1.4ZM419.07,282.56v-5.06c0-.82-.2-1.45-.59-1.88-.39-.43-.93-.64-1.61-.64-.52,0-.96.14-1.34.42-.38.28-.67.69-.87,1.21s-.31,1.15-.31,1.88h-.54c0-1,.13-1.86.4-2.56.26-.71.65-1.25,1.16-1.62s1.12-.56,1.85-.56c.68,0,1.26.15,1.74.46.48.3.85.74,1.11,1.3.26.56.39,1.23.39,2.01v5.06h-1.39Z" style="fill:#000; stroke-width:0px;"/><path d="M426.21,282.78c-.71,0-1.29-.13-1.75-.38s-.81-.58-1.04-.98c-.23-.4-.34-.83-.34-1.27,0-.58.15-1.06.44-1.42s.69-.63,1.19-.81,1.07-.26,1.7-.26c.45,0,.9.05,1.35.14.45.09.9.21,1.33.37v.88c-.36-.14-.77-.26-1.22-.34s-.87-.13-1.25-.13c-.58,0-1.06.12-1.46.36-.4.24-.59.64-.59,1.21,0,.42.15.78.45,1.08.3.3.79.45,1.45.45.47,0,.89-.11,1.26-.33.38-.22.67-.49.89-.82.22-.33.33-.66.33-.99h.34c0,.58-.12,1.11-.37,1.6s-.6.89-1.07,1.19c-.46.3-1.01.45-1.66.45ZM429.14,282.56l-.18-1.89v-3.69c0-.77-.17-1.33-.49-1.67-.33-.34-.83-.51-1.49-.51-.37,0-.71.05-1.01.16-.3.11-.54.27-.72.5-.18.23-.27.51-.27.87h-1.57c0-.62.15-1.13.46-1.51.31-.38.73-.66,1.26-.83s1.15-.26,1.84-.26,1.25.11,1.76.33c.51.22.91.58,1.2,1.06.29.48.43,1.11.43,1.89v5.54h-1.22Z" style="fill:#000; stroke-width:0px;"/><path d="M433.72,282.56v-12.28h1.4v12.28h-1.4Z" style="fill:#000; stroke-width:0px;"/><path d="M441.83,274.93v-.97h5.49v.97h-5.49ZM445.68,282.78c-.47,0-.89-.09-1.26-.27-.37-.18-.67-.45-.88-.81-.22-.36-.32-.81-.32-1.35v-8.78h1.39v8.75c0,.89.41,1.33,1.24,1.33.25,0,.48-.03.72-.08s.49-.13.78-.24l.2,1.01c-.31.13-.61.24-.91.32-.3.08-.62.13-.94.13Z" style="fill:#000; stroke-width:0px;"/><path d="M449.8,282.56v-8.62h1.4v8.62h-1.4ZM450.78,278.67c0-1.09.1-2,.31-2.72s.52-1.26.92-1.62c.41-.36.9-.54,1.48-.54.19,0,.37.01.53.04.16.03.32.07.48.12l-.09,1.39c-.17-.05-.35-.1-.55-.14-.2-.04-.38-.06-.53-.06-.51,0-.92.15-1.23.44s-.54.7-.68,1.23c-.14.53-.21,1.15-.21,1.86h-.43Z" style="fill:#000; stroke-width:0px;"/><path d="M459.3,282.78c-.74,0-1.41-.19-1.99-.57s-1.05-.91-1.39-1.59-.51-1.46-.51-2.34c0-.94.17-1.75.5-2.43s.8-1.2,1.38-1.56c.58-.36,1.25-.54,2-.54.65,0,1.21.13,1.67.4s.83.62,1.12,1.07c.28.45.48.96.59,1.53.11.57.14,1.15.09,1.76h-6.23v-.86h5.3l-.41.27c.02-.35,0-.71-.06-1.06-.06-.35-.16-.68-.32-.98-.16-.3-.38-.54-.66-.72-.28-.18-.64-.27-1.08-.27-.55,0-1.01.14-1.39.42s-.65.65-.84,1.11-.28.96-.28,1.49v.58c0,.6.09,1.14.27,1.61.18.47.46.85.82,1.12.37.28.83.41,1.39.41s1.02-.14,1.38-.41c.36-.27.58-.67.66-1.2h1.46c-.09.57-.29,1.06-.61,1.47-.32.41-.72.73-1.21.95-.49.22-1.05.33-1.67.33Z" style="fill:#000; stroke-width:0px;"/><path d="M467.95,282.78c-.71,0-1.29-.13-1.75-.38s-.81-.58-1.04-.98c-.23-.4-.34-.83-.34-1.27,0-.58.15-1.06.44-1.42s.69-.63,1.19-.81,1.07-.26,1.7-.26c.45,0,.9.05,1.35.14.45.09.9.21,1.33.37v.88c-.36-.14-.77-.26-1.22-.34s-.87-.13-1.25-.13c-.58,0-1.06.12-1.46.36-.4.24-.59.64-.59,1.21,0,.42.15.78.45,1.08.3.3.79.45,1.45.45.47,0,.89-.11,1.26-.33.38-.22.67-.49.89-.82.22-.33.33-.66.33-.99h.34c0,.58-.12,1.11-.37,1.6s-.6.89-1.07,1.19c-.46.3-1.01.45-1.66.45ZM470.88,282.56l-.18-1.89v-3.69c0-.77-.17-1.33-.49-1.67-.33-.34-.83-.51-1.49-.51-.37,0-.71.05-1.01.16-.3.11-.54.27-.72.5-.18.23-.27.51-.27.87h-1.57c0-.62.15-1.13.46-1.51.31-.38.73-.66,1.26-.83s1.15-.26,1.84-.26,1.25.11,1.76.33c.51.22.91.58,1.2,1.06.29.48.43,1.11.43,1.89v5.54h-1.22Z" style="fill:#000; stroke-width:0px;"/><path d="M474.26,274.93v-.97h5.49v.97h-5.49ZM478.11,282.78c-.47,0-.89-.09-1.26-.27-.37-.18-.67-.45-.88-.81-.22-.36-.32-.81-.32-1.35v-8.78h1.39v8.75c0,.89.41,1.33,1.24,1.33.25,0,.48-.03.72-.08s.49-.13.78-.24l.2,1.01c-.31.13-.61.24-.91.32-.3.08-.62.13-.94.13Z" style="fill:#000; stroke-width:0px;"/><path d="M485.3,274.93v-.97h5.49v.97h-5.49ZM489.15,282.78c-.47,0-.89-.09-1.26-.27-.37-.18-.67-.45-.88-.81-.22-.36-.32-.81-.32-1.35v-8.78h1.39v8.75c0,.89.41,1.33,1.24,1.33.25,0,.48-.03.72-.08s.49-.13.78-.24l.2,1.01c-.31.13-.61.24-.91.32-.3.08-.62.13-.94.13Z" style="fill:#000; stroke-width:0px;"/><path d="M496.39,282.78c-.77,0-1.46-.17-2.07-.51s-1.08-.85-1.43-1.52c-.35-.67-.52-1.5-.52-2.48s.17-1.82.52-2.49.82-1.17,1.43-1.52c.6-.34,1.29-.51,2.07-.51s1.45.17,2.06.51c.6.34,1.08.85,1.42,1.52.34.67.52,1.5.52,2.49s-.17,1.81-.52,2.48c-.35.67-.82,1.18-1.42,1.52-.6.34-1.29.51-2.06.51ZM496.35,281.55c.56,0,1.03-.13,1.42-.4.39-.27.69-.65.89-1.14.2-.49.3-1.08.3-1.75,0-1.03-.21-1.83-.64-2.43-.43-.59-1.06-.89-1.9-.89-.56,0-1.04.13-1.43.4-.39.27-.68.65-.88,1.14-.2.5-.3,1.08-.3,1.77,0,1.01.21,1.82.64,2.41.43.59,1.06.89,1.89.89Z" style="fill:#000; stroke-width:0px;"/><path d="M507.39,282.56v-12.28h1.4v12.28h-1.4ZM513.51,282.56v-5.06c0-.82-.2-1.45-.59-1.88-.39-.43-.93-.64-1.61-.64-.52,0-.96.14-1.34.42-.38.28-.67.69-.87,1.21s-.31,1.15-.31,1.88h-.54c0-1,.13-1.86.4-2.56.26-.71.65-1.25,1.16-1.62s1.12-.56,1.85-.56c.68,0,1.26.15,1.74.46.48.3.85.74,1.11,1.3.26.56.39,1.23.39,2.01v5.06h-1.39Z" style="fill:#000; stroke-width:0px;"/><path d="M521.24,282.78c-.74,0-1.41-.19-1.99-.57s-1.05-.91-1.39-1.59-.51-1.46-.51-2.34c0-.94.17-1.75.5-2.43s.8-1.2,1.38-1.56c.58-.36,1.25-.54,2-.54.65,0,1.21.13,1.67.4s.83.62,1.12,1.07c.28.45.48.96.59,1.53.11.57.14,1.15.09,1.76h-6.23v-.86h5.3l-.41.27c.02-.35,0-.71-.06-1.06-.06-.35-.16-.68-.32-.98-.16-.3-.38-.54-.66-.72-.28-.18-.64-.27-1.08-.27-.55,0-1.01.14-1.39.42s-.65.65-.84,1.11-.28.96-.28,1.49v.58c0,.6.09,1.14.27,1.61.18.47.46.85.82,1.12.37.28.83.41,1.39.41s1.02-.14,1.38-.41c.36-.27.58-.67.66-1.2h1.46c-.09.57-.29,1.06-.61,1.47-.32.41-.72.73-1.21.95-.49.22-1.05.33-1.67.33Z" style="fill:#000; stroke-width:0px;"/><path d="M527.49,282.56v-12.28h1.4v12.28h-1.4Z" style="fill:#000; stroke-width:0px;"/><path d="M532.53,286.79v-12.83h1.17l.23,2.02v10.82h-1.4ZM536.44,282.78c-.63,0-1.18-.14-1.64-.43-.47-.29-.82-.71-1.08-1.26s-.38-1.23-.38-2.03h.59c0,.53.11.98.33,1.35.22.37.51.64.87.83.36.19.74.28,1.14.28.43,0,.85-.12,1.24-.37.4-.25.72-.62.97-1.1.25-.49.38-1.09.38-1.8s-.12-1.27-.35-1.75c-.23-.49-.54-.86-.93-1.12-.39-.26-.82-.39-1.3-.39-.41,0-.79.1-1.15.3-.36.2-.65.49-.87.87-.22.38-.33.85-.33,1.41h-.59c0-.83.14-1.53.41-2.1s.65-.99,1.12-1.28,1-.43,1.59-.43c.67,0,1.3.18,1.88.54.58.36,1.05.88,1.41,1.55.36.67.54,1.48.54,2.41s-.18,1.76-.54,2.44c-.36.68-.84,1.2-1.43,1.56-.59.36-1.22.54-1.9.54Z" style="fill:#000; stroke-width:0px;"/><path d="M188.71,301.96h1.57l2.81,7.38h-.32l2.18-7.38h1.44l-3.24,10.33c-.27.86-.63,1.53-1.08,2-.45.47-1.03.7-1.73.7-.38,0-.74-.05-1.08-.16-.34-.11-.69-.26-1.05-.47v-1.3c.32.25.63.43.92.54s.61.16.93.16c.36,0,.66-.11.9-.34.24-.23.45-.52.61-.88.16-.36.3-.73.41-1.12l.25-.86-3.53-8.6Z" style="fill:#000; stroke-width:0px;"/><path d="M201.62,310.78c-.77,0-1.46-.17-2.07-.51s-1.08-.85-1.43-1.52c-.35-.67-.52-1.5-.52-2.48s.17-1.82.52-2.49.82-1.17,1.43-1.52c.6-.34,1.29-.51,2.07-.51s1.45.17,2.06.51c.6.34,1.08.85,1.42,1.52.34.67.52,1.5.52,2.49s-.17,1.81-.52,2.48c-.35.67-.82,1.18-1.42,1.52-.6.34-1.29.51-2.06.51ZM201.59,309.55c.56,0,1.03-.13,1.42-.4.39-.27.69-.65.89-1.14.2-.49.3-1.08.3-1.75,0-1.03-.21-1.83-.64-2.43-.43-.59-1.06-.89-1.9-.89-.56,0-1.04.13-1.43.4-.39.27-.68.65-.88,1.14-.2.5-.3,1.08-.3,1.77,0,1.01.21,1.82.64,2.41.43.59,1.06.89,1.89.89Z" style="fill:#000; stroke-width:0px;"/><path d="M208.09,301.94h1.4v5.36c0,.72.18,1.27.53,1.64s.85.56,1.51.56c.54,0,1.01-.14,1.41-.43.4-.29.71-.69.93-1.19.22-.51.33-1.09.33-1.74h.52c0,.97-.14,1.79-.42,2.47-.28.68-.67,1.21-1.18,1.57-.51.36-1.1.54-1.79.54-.65,0-1.22-.12-1.7-.36-.49-.24-.86-.6-1.13-1.09-.27-.49-.41-1.11-.41-1.86v-5.47ZM214.19,301.94h1.4v8.62h-1.4v-8.62Z" style="fill:#000; stroke-width:0px;"/><path d="M219.24,310.56v-8.62h1.4v8.62h-1.4ZM220.22,306.67c0-1.09.1-2,.31-2.72s.52-1.26.92-1.62c.41-.36.9-.54,1.48-.54.19,0,.37.01.53.04.16.03.32.07.48.12l-.09,1.39c-.17-.05-.35-.1-.55-.14-.2-.04-.38-.06-.53-.06-.51,0-.92.15-1.23.44s-.54.7-.68,1.23c-.14.53-.21,1.15-.21,1.86h-.43Z" style="fill:#000; stroke-width:0px;"/><path d="M230.03,314.79v-12.83h1.17l.23,2.02v10.82h-1.4ZM233.93,310.78c-.63,0-1.18-.14-1.64-.43-.47-.29-.82-.71-1.08-1.26s-.38-1.23-.38-2.03h.59c0,.53.11.98.33,1.35.22.37.51.64.87.83.36.19.74.28,1.14.28.43,0,.85-.12,1.24-.37.4-.25.72-.62.97-1.1.25-.49.38-1.09.38-1.8s-.12-1.27-.35-1.75c-.23-.49-.54-.86-.93-1.12-.39-.26-.82-.39-1.3-.39-.41,0-.79.1-1.15.3-.36.2-.65.49-.87.87-.22.38-.33.85-.33,1.41h-.59c0-.83.14-1.53.41-2.1s.65-.99,1.12-1.28,1-.43,1.59-.43c.67,0,1.3.18,1.88.54.58.36,1.05.88,1.41,1.55.36.67.54,1.48.54,2.41s-.18,1.76-.54,2.44c-.36.68-.84,1.2-1.43,1.56-.59.36-1.22.54-1.9.54Z" style="fill:#000; stroke-width:0px;"/><path d="M243.53,310.78c-.74,0-1.41-.19-1.99-.57s-1.05-.91-1.39-1.59-.51-1.46-.51-2.34c0-.94.17-1.75.5-2.43s.8-1.2,1.38-1.56c.58-.36,1.25-.54,2-.54.65,0,1.21.13,1.67.4s.83.62,1.12,1.07c.28.45.48.96.59,1.53.11.57.14,1.15.09,1.76h-6.23v-.86h5.3l-.41.27c.02-.35,0-.71-.06-1.06-.06-.35-.16-.68-.32-.98-.16-.3-.38-.54-.66-.72-.28-.18-.64-.27-1.08-.27-.55,0-1.01.14-1.39.42s-.65.65-.84,1.11-.28.96-.28,1.49v.58c0,.6.09,1.14.27,1.61.18.47.46.85.82,1.12.37.28.83.41,1.39.41s1.02-.14,1.38-.41c.36-.27.58-.67.66-1.2h1.46c-.09.57-.29,1.06-.61,1.47-.32.41-.72.73-1.21.95-.49.22-1.05.33-1.67.33Z" style="fill:#000; stroke-width:0px;"/><path d="M248.58,302.93v-.97h5.49v.97h-5.49ZM252.43,310.78c-.47,0-.89-.09-1.26-.27-.37-.18-.67-.45-.88-.81-.22-.36-.32-.81-.32-1.35v-8.78h1.39v8.75c0,.89.41,1.33,1.24,1.33.25,0,.48-.03.72-.08s.49-.13.78-.24l.2,1.01c-.31.13-.61.24-.91.32-.3.08-.62.13-.94.13Z" style="fill:#000; stroke-width:0px;"/><path d="M260.83,310.56v-12.28h1.4v12.28h-1.4Z" style="fill:#000; stroke-width:0px;"/><path d="M266.66,299.92c-.29,0-.52-.08-.68-.25s-.25-.38-.25-.65.08-.47.25-.63.4-.23.68-.23.52.08.68.23.25.37.25.63-.08.49-.25.65-.4.25-.68.25ZM265.96,310.56v-8.62h1.4v8.62h-1.4Z" style="fill:#000; stroke-width:0px;"/><path d="M269.74,301.96h1.6l2.7,7.4h-.2l2.7-7.4h1.6l-3.44,8.6h-1.53l-3.44-8.6Z" style="fill:#000; stroke-width:0px;"/><path d="M283.27,310.78c-.74,0-1.41-.19-1.99-.57s-1.05-.91-1.39-1.59-.51-1.46-.51-2.34c0-.94.17-1.75.5-2.43s.8-1.2,1.38-1.56c.58-.36,1.25-.54,2-.54.65,0,1.21.13,1.67.4s.83.62,1.12,1.07c.28.45.48.96.59,1.53.11.57.14,1.15.09,1.76h-6.23v-.86h5.3l-.41.27c.02-.35,0-.71-.06-1.06-.06-.35-.16-.68-.32-.98-.16-.3-.38-.54-.66-.72-.28-.18-.64-.27-1.08-.27-.55,0-1.01.14-1.39.42s-.65.65-.84,1.11-.28.96-.28,1.49v.58c0,.6.09,1.14.27,1.61.18.47.46.85.82,1.12.37.28.83.41,1.39.41s1.02-.14,1.38-.41c.36-.27.58-.67.66-1.2h1.46c-.09.57-.29,1.06-.61,1.47-.32.41-.72.73-1.21.95-.49.22-1.05.33-1.67.33Z" style="fill:#000; stroke-width:0px;"/><path d="M292.59,302.93v-.97h5.49v.97h-5.49ZM296.44,310.78c-.47,0-.89-.09-1.26-.27-.37-.18-.67-.45-.88-.81-.22-.36-.32-.81-.32-1.35v-8.78h1.39v8.75c0,.89.41,1.33,1.24,1.33.25,0,.48-.03.72-.08s.49-.13.78-.24l.2,1.01c-.31.13-.61.24-.91.32-.3.08-.62.13-.94.13Z" style="fill:#000; stroke-width:0px;"/><path d="M300.57,310.56v-12.28h1.4v12.28h-1.4ZM306.69,310.56v-5.06c0-.82-.2-1.45-.59-1.88-.39-.43-.93-.64-1.61-.64-.52,0-.96.14-1.34.42-.38.28-.67.69-.87,1.21s-.31,1.15-.31,1.88h-.54c0-1,.13-1.86.4-2.56.26-.71.65-1.25,1.16-1.62s1.12-.56,1.85-.56c.68,0,1.26.15,1.74.46.48.3.85.74,1.11,1.3.26.56.39,1.23.39,2.01v5.06h-1.39Z" style="fill:#000; stroke-width:0px;"/><path d="M314.42,310.78c-.74,0-1.41-.19-1.99-.57s-1.05-.91-1.39-1.59-.51-1.46-.51-2.34c0-.94.17-1.75.5-2.43s.8-1.2,1.38-1.56c.58-.36,1.25-.54,2-.54.65,0,1.21.13,1.67.4s.83.62,1.12,1.07c.28.45.48.96.59,1.53.11.57.14,1.15.09,1.76h-6.23v-.86h5.3l-.41.27c.02-.35,0-.71-.06-1.06-.06-.35-.16-.68-.32-.98-.16-.3-.38-.54-.66-.72-.28-.18-.64-.27-1.08-.27-.55,0-1.01.14-1.39.42s-.65.65-.84,1.11-.28.96-.28,1.49v.58c0,.6.09,1.14.27,1.61.18.47.46.85.82,1.12.37.28.83.41,1.39.41s1.02-.14,1.38-.41c.36-.27.58-.67.66-1.2h1.46c-.09.57-.29,1.06-.61,1.47-.32.41-.72.73-1.21.95-.49.22-1.05.33-1.67.33Z" style="fill:#000; stroke-width:0px;"/><path d="M321.46,299.92c-.29,0-.52-.08-.68-.25s-.25-.38-.25-.65.08-.47.25-.63.4-.23.68-.23.52.08.68.23.25.37.25.63-.08.49-.25.65-.4.25-.68.25ZM320.76,310.56v-8.62h1.4v8.62h-1.4Z" style="fill:#000; stroke-width:0px;"/><path d="M326.04,310.56v-8.62h1.4v8.62h-1.4ZM327.01,306.67c0-1.09.1-2,.31-2.72s.52-1.26.92-1.62c.41-.36.9-.54,1.48-.54.19,0,.37.01.53.04.16.03.32.07.48.12l-.09,1.39c-.17-.05-.35-.1-.55-.14-.2-.04-.38-.06-.53-.06-.51,0-.92.15-1.23.44s-.54.7-.68,1.23c-.14.53-.21,1.15-.21,1.86h-.43Z" style="fill:#000; stroke-width:0px;"/><path d="M336.82,310.56v-12.28h1.4v10.26l-.41,2.02h-.99ZM340.76,310.78c-.58,0-1.1-.15-1.56-.45-.47-.3-.83-.74-1.11-1.32s-.41-1.29-.41-2.12h.54c0,.56.12,1.03.35,1.43.23.39.53.69.9.9.37.2.75.31,1.15.31.46,0,.88-.13,1.27-.4.38-.26.69-.64.92-1.13.23-.49.35-1.08.35-1.76s-.11-1.25-.34-1.73c-.23-.48-.54-.86-.92-1.12-.39-.26-.82-.39-1.29-.39-.41,0-.79.1-1.16.3-.36.2-.66.5-.88.89-.23.39-.34.87-.34,1.44h-.54c0-.82.13-1.51.4-2.09s.64-1.02,1.11-1.32c.47-.31,1.03-.46,1.66-.46.68,0,1.3.18,1.87.54.57.36,1.02.88,1.36,1.55.34.67.51,1.47.51,2.38s-.17,1.73-.52,2.41c-.35.68-.81,1.21-1.4,1.58s-1.22.56-1.92.56Z" style="fill:#000; stroke-width:0px;"/><path d="M350.47,310.78c-.74,0-1.41-.19-1.99-.57s-1.05-.91-1.39-1.59-.51-1.46-.51-2.34c0-.94.17-1.75.5-2.43s.8-1.2,1.38-1.56c.58-.36,1.25-.54,2-.54.65,0,1.21.13,1.67.4s.83.62,1.12,1.07c.28.45.48.96.59,1.53.11.57.14,1.15.09,1.76h-6.23v-.86h5.3l-.41.27c.02-.35,0-.71-.06-1.06-.06-.35-.16-.68-.32-.98-.16-.3-.38-.54-.66-.72-.28-.18-.64-.27-1.08-.27-.55,0-1.01.14-1.39.42s-.65.65-.84,1.11-.28.96-.28,1.49v.58c0,.6.09,1.14.27,1.61.18.47.46.85.82,1.12.37.28.83.41,1.39.41s1.02-.14,1.38-.41c.36-.27.58-.67.66-1.2h1.46c-.09.57-.29,1.06-.61,1.47-.32.41-.72.73-1.21.95-.49.22-1.05.33-1.67.33Z" style="fill:#000; stroke-width:0px;"/><path d="M359.82,310.78c-.83,0-1.53-.12-2.09-.36-.56-.24-.98-.56-1.27-.98s-.44-.9-.46-1.44h1.35c.03.55.25.96.66,1.23.41.27.97.41,1.68.41.37,0,.71-.06,1.03-.18s.56-.29.75-.5.28-.45.28-.71c0-.34-.12-.6-.37-.79-.25-.19-.64-.36-1.18-.5l-1.67-.54c-.73-.23-1.28-.54-1.67-.94-.39-.4-.58-.88-.58-1.44,0-.7.31-1.25.92-1.67.61-.42,1.42-.63,2.41-.63,1.06,0,1.87.22,2.46.65s.89.97.91,1.62h-1.39c-.05-.38-.25-.67-.58-.86-.33-.2-.8-.29-1.4-.29s-1.04.13-1.36.39-.49.55-.49.87c0,.59.51,1.03,1.53,1.31l1.71.58c.74.22,1.3.51,1.7.87.39.36.59.82.59,1.38,0,.43-.14.84-.42,1.22-.28.38-.68.7-1.2.94-.52.24-1.13.36-1.84.36Z" style="fill:#000; stroke-width:0px;"/><path d="M364.98,302.93v-.97h5.49v.97h-5.49ZM368.83,310.78c-.47,0-.89-.09-1.26-.27-.37-.18-.67-.45-.88-.81-.22-.36-.32-.81-.32-1.35v-8.78h1.39v8.75c0,.89.41,1.33,1.24,1.33.25,0,.48-.03.72-.08s.49-.13.78-.24l.2,1.01c-.31.13-.61.24-.91.32-.3.08-.62.13-.94.13Z" style="fill:#000; stroke-width:0px;"/><path d="M377.23,310.56v-12.28h1.4v12.28h-1.4Z" style="fill:#000; stroke-width:0px;"/><path d="M383.06,299.92c-.29,0-.52-.08-.68-.25s-.25-.38-.25-.65.08-.47.25-.63.4-.23.68-.23.52.08.68.23.25.37.25.63-.08.49-.25.65-.4.25-.68.25ZM382.36,310.56v-8.62h1.4v8.62h-1.4Z" style="fill:#000; stroke-width:0px;"/><path d="M386.69,302.93v-.97h4.59v.97h-4.59ZM388.1,310.56v-9.94c0-.57.11-1.04.33-1.4.22-.36.51-.63.88-.8.37-.17.78-.26,1.24-.26.25,0,.5.02.75.05s.51.09.76.16l-.27,1.12c-.18-.07-.36-.13-.54-.16-.18-.04-.35-.05-.51-.05-.19,0-.38.04-.58.11-.19.07-.35.21-.48.4-.13.2-.19.48-.19.86v9.92h-1.4Z" style="fill:#000; stroke-width:0px;"/><path d="M396.78,310.78c-.74,0-1.41-.19-1.99-.57s-1.05-.91-1.39-1.59-.51-1.46-.51-2.34c0-.94.17-1.75.5-2.43s.8-1.2,1.38-1.56c.58-.36,1.25-.54,2-.54.65,0,1.21.13,1.67.4s.83.62,1.12,1.07c.28.45.48.96.59,1.53.11.57.14,1.15.09,1.76h-6.23v-.86h5.3l-.41.27c.02-.35,0-.71-.06-1.06-.06-.35-.16-.68-.32-.98-.16-.3-.38-.54-.66-.72-.28-.18-.64-.27-1.08-.27-.55,0-1.01.14-1.39.42s-.65.65-.84,1.11-.28.96-.28,1.49v.58c0,.6.09,1.14.27,1.61.18.47.46.85.82,1.12.37.28.83.41,1.39.41s1.02-.14,1.38-.41c.36-.27.58-.67.66-1.2h1.46c-.09.57-.29,1.06-.61,1.47-.32.41-.72.73-1.21.95-.49.22-1.05.33-1.67.33Z" style="fill:#000; stroke-width:0px;"/><path d="M401.76,309.72c0-.28.1-.53.3-.73.2-.2.45-.31.75-.31s.55.1.77.31c.21.2.31.45.31.73s-.1.52-.31.71c-.21.19-.47.29-.77.29s-.55-.1-.75-.29c-.2-.19-.3-.43-.3-.71Z" style="fill:#000; stroke-width:0px;"/></svg>