<svg width="840" height="135" viewBox="0 0 840 135" fill="none" xmlns="http://www.w3.org/2000/svg">
<g clip-path="url(#clip0_4119_2057)">
<path d="M177.554 110.06L180.007 102.377H181.839L178.544 111.966H176.712L173.461 102.377H175.308L177.731 110.06H177.554ZM186.131 111.966V102.377H187.875V111.966H186.131ZM192.007 103.884V102.377H199.691V103.884H196.329L196.721 103.485V111.966H194.977V103.485L195.369 103.884H192.007ZM202.089 111.966L205.354 102.377H207.541L210.674 111.966H208.841L208.177 109.898H204.616L203.936 111.966H202.089ZM205.059 108.583H207.763L206.418 104.461L205.059 108.583ZM215.047 102.377H217.544L220.248 108.243H220.1L222.804 102.377H225.212V111.966H223.454V104.387H223.72L220.735 110.917H219.598L216.628 104.416H216.79V111.966H215.047V102.377ZM230.62 111.966V102.377H232.364V111.966H230.62ZM237.752 102.377H239.658L244.017 109.218H243.884V102.377H245.627V111.966H243.854L239.215 104.712H239.496V111.966H237.752V102.377ZM257.429 102.377H260.532C261.507 102.377 262.361 102.574 263.095 102.968C263.829 103.357 264.4 103.911 264.809 104.63C265.218 105.35 265.422 106.199 265.422 107.179C265.422 108.149 265.218 108.994 264.809 109.713C264.4 110.427 263.829 110.981 263.095 111.375C262.361 111.769 261.507 111.966 260.532 111.966H257.429V102.377ZM259.172 103.958V110.4H260.532C261.152 110.4 261.687 110.26 262.135 109.979C262.588 109.698 262.935 109.317 263.177 108.834C263.423 108.346 263.546 107.795 263.546 107.179C263.546 106.554 263.423 106 263.177 105.517C262.935 105.034 262.588 104.655 262.135 104.379C261.687 104.099 261.152 103.958 260.532 103.958H259.172Z" fill="black"/>
<circle cx="219.332" cy="42.4143" r="42.4141" fill="#FEBE01"/>
<path d="M6.62139 102.377H8.52741L12.8861 109.218H12.7532V102.377H14.4967V111.966H12.7236L8.08415 104.712H8.36488V111.966H6.62139V102.377ZM19.8867 111.966V102.377H26.048V103.884H21.6302V106.411H25.782V107.918H21.6302V110.445H26.048V111.966H19.8867ZM30.0065 102.377H31.9569L34.2766 110.43H33.8333L36.1235 103.013H37.3056L39.6844 110.312H39.2855L41.7234 102.377H43.6885L40.3936 111.966H38.5615L36.685 106.307H36.8475L34.971 111.966H33.1389L30.0065 102.377ZM57.2555 110.06L59.7082 102.377H61.5404L58.2455 111.966H56.4133L53.1628 102.377H55.0097L57.4328 110.06H57.2555ZM65.8184 111.966V102.377H71.9798V103.884H67.5619V106.411H71.7138V107.918H67.5619V110.445H71.9798V111.966H65.8184ZM77.1646 111.966V102.377H78.9081V111.966H77.1646ZM84.2965 102.377H86.2025L90.5613 109.218H90.4283V102.377H92.1718V111.966H90.3988L85.7593 104.712H86.04V111.966H84.2965V102.377Z" fill="black"/>
<circle cx="49.4097" cy="42.4143" r="42.4141" fill="#C4ECFF"/>
<path d="M346.143 112.173C345.359 112.173 344.653 111.966 344.022 111.553C343.392 111.139 342.889 110.563 342.515 109.824C342.146 109.08 341.961 108.213 341.961 107.224C341.961 106.44 342.074 105.739 342.301 105.118C342.532 104.497 342.853 103.968 343.261 103.53C343.67 103.091 344.15 102.759 344.702 102.532C345.254 102.301 345.852 102.185 346.497 102.185C347.394 102.185 348.145 102.38 348.75 102.769C349.361 103.158 349.836 103.771 350.176 104.608L348.388 105.022C348.137 104.613 347.847 104.303 347.517 104.091C347.192 103.874 346.822 103.766 346.408 103.766C345.936 103.766 345.505 103.906 345.116 104.187C344.727 104.463 344.416 104.859 344.185 105.377C343.953 105.894 343.838 106.509 343.838 107.224C343.838 107.893 343.939 108.479 344.14 108.982C344.347 109.484 344.635 109.876 345.005 110.156C345.374 110.437 345.803 110.578 346.29 110.578C346.704 110.578 347.073 110.486 347.398 110.304C347.728 110.117 347.987 109.851 348.174 109.506C348.366 109.162 348.462 108.745 348.462 108.258H348.846C348.846 109.056 348.75 109.748 348.558 110.334C348.371 110.92 348.078 111.373 347.679 111.693C347.28 112.013 346.768 112.173 346.143 112.173ZM348.713 111.966L348.462 109.854V108.199L346.305 108.154V107.046H350.132V111.966H348.713ZM355.3 111.966V102.377H358.846C359.993 102.377 360.872 102.646 361.483 103.182C362.099 103.719 362.407 104.431 362.407 105.318C362.407 106.189 362.099 106.894 361.483 107.43C360.872 107.962 359.993 108.228 358.846 108.228H357.043V111.966H355.3ZM360.486 111.966L357.944 107.475H359.806L362.761 111.966H360.486ZM357.043 107.061H358.668C359.309 107.061 359.794 106.916 360.124 106.625C360.454 106.33 360.619 105.948 360.619 105.48C360.619 105.002 360.469 104.618 360.168 104.328C359.868 104.032 359.427 103.884 358.846 103.884H357.043V107.061ZM366.419 111.966L369.684 102.377H371.871L375.003 111.966H373.171L372.506 109.898H368.946L368.266 111.966H366.419ZM369.389 108.583H372.093L370.748 104.461L369.389 108.583ZM379.332 111.966V102.377H382.716C383.794 102.377 384.634 102.643 385.235 103.175C385.841 103.707 386.144 104.461 386.144 105.436C386.144 106.401 385.841 107.15 385.235 107.682C384.634 108.213 383.794 108.479 382.716 108.479H381.091V111.966H379.332ZM381.091 106.958H382.716C383.258 106.958 383.666 106.815 383.942 106.529C384.218 106.243 384.356 105.879 384.356 105.436C384.356 104.983 384.218 104.611 383.942 104.32C383.666 104.03 383.258 103.884 382.716 103.884H381.091V106.958ZM390.592 111.966V102.377H396.754V103.884H392.336V106.411H396.488V107.918H392.336V110.445H396.754V111.966H390.592ZM401.938 111.966V102.377H407.982V103.884H403.682V106.411H407.612V107.903H403.682V111.966H401.938ZM412.678 111.966V102.377H416.224C417.372 102.377 418.251 102.646 418.862 103.182C419.477 103.719 419.785 104.431 419.785 105.318C419.785 106.189 419.477 106.894 418.862 107.43C418.251 107.962 417.372 108.228 416.224 108.228H414.422V111.966H412.678ZM417.864 111.966L415.323 107.475H417.185L420.14 111.966H417.864ZM414.422 107.061H416.047C416.687 107.061 417.172 106.916 417.502 106.625C417.832 106.33 417.997 105.948 417.997 105.48C417.997 105.002 417.847 104.618 417.547 104.328C417.246 104.032 416.806 103.884 416.224 103.884H414.422V107.061ZM424.699 102.377H426.442V108.346C426.442 109.134 426.642 109.703 427.041 110.053C427.445 110.403 427.959 110.578 428.585 110.578C429.215 110.578 429.73 110.403 430.129 110.053C430.528 109.703 430.727 109.134 430.727 108.346V102.377H432.471V108.346C432.471 109.154 432.316 109.844 432.005 110.415C431.695 110.986 431.249 111.422 430.668 111.723C430.092 112.023 429.397 112.173 428.585 112.173C427.772 112.173 427.075 112.023 426.494 111.723C425.918 111.422 425.475 110.986 425.164 110.415C424.854 109.844 424.699 109.154 424.699 108.346V102.377ZM437.708 111.966V102.377H439.451V111.966H437.708ZM443.584 103.884V102.377H451.267V103.884H447.905L448.297 103.485V111.966H446.553V103.485L446.945 103.884H443.584ZM372.991 129.173C372.326 129.173 371.713 129.058 371.151 128.826C370.595 128.595 370.141 128.242 369.792 127.77C369.447 127.297 369.262 126.696 369.238 125.967H370.952C370.952 126.336 371.043 126.639 371.225 126.876C371.407 127.112 371.651 127.289 371.956 127.408C372.267 127.521 372.606 127.578 372.976 127.578C373.33 127.578 373.646 127.531 373.921 127.437C374.202 127.344 374.421 127.211 374.579 127.038C374.742 126.861 374.823 126.652 374.823 126.41C374.823 126.09 374.724 125.839 374.527 125.657C374.335 125.475 374.025 125.307 373.596 125.154L371.705 124.401C370.966 124.11 370.4 123.773 370.006 123.389C369.612 123.005 369.415 122.475 369.415 121.8C369.415 121.022 369.723 120.392 370.338 119.909C370.954 119.426 371.814 119.185 372.917 119.185C373.99 119.185 374.82 119.436 375.406 119.939C375.992 120.436 376.325 121.131 376.404 122.022H374.69C374.626 121.643 374.453 121.34 374.173 121.113C373.892 120.882 373.473 120.766 372.917 120.766C372.424 120.766 372.035 120.87 371.75 121.076C371.464 121.278 371.321 121.534 371.321 121.845C371.321 122.111 371.41 122.322 371.587 122.48C371.769 122.633 372.05 122.78 372.429 122.923L374.527 123.736C375.236 124.012 375.781 124.359 376.16 124.778C376.539 125.196 376.729 125.721 376.729 126.351C376.729 126.927 376.584 127.427 376.293 127.851C376.002 128.27 375.579 128.595 375.022 128.826C374.466 129.058 373.789 129.173 372.991 129.173ZM385.22 129.173C384.378 129.173 383.644 128.974 383.019 128.575C382.398 128.171 381.915 127.595 381.571 126.846C381.226 126.098 381.053 125.199 381.053 124.15C381.053 123.066 381.231 122.157 381.585 121.424C381.945 120.685 382.437 120.128 383.063 119.754C383.693 119.375 384.412 119.185 385.22 119.185C386.338 119.185 387.21 119.456 387.835 119.998C388.466 120.54 388.87 121.244 389.047 122.111L387.185 122.45C387.033 121.948 386.789 121.542 386.454 121.232C386.119 120.921 385.708 120.766 385.22 120.766C384.792 120.766 384.405 120.892 384.06 121.143C383.716 121.389 383.44 121.763 383.233 122.266C383.031 122.768 382.93 123.396 382.93 124.15C382.93 124.859 383.019 125.47 383.196 125.982C383.378 126.494 383.639 126.888 383.979 127.164C384.319 127.44 384.733 127.578 385.22 127.578C385.846 127.578 386.328 127.413 386.668 127.083C387.013 126.748 387.185 126.322 387.185 125.805H389.047C389.047 126.519 388.892 127.127 388.582 127.629C388.276 128.127 387.838 128.508 387.267 128.774C386.695 129.04 386.013 129.173 385.22 129.173ZM393.757 128.966V119.377H397.303C398.451 119.377 399.33 119.646 399.941 120.182C400.556 120.719 400.864 121.431 400.864 122.318C400.864 123.189 400.556 123.894 399.941 124.43C399.33 124.962 398.451 125.228 397.303 125.228H395.501V128.966H393.757ZM398.943 128.966L396.402 124.475H398.264L401.219 128.966H398.943ZM395.501 124.061H397.126C397.766 124.061 398.251 123.916 398.581 123.625C398.911 123.33 399.076 122.948 399.076 122.48C399.076 122.002 398.926 121.618 398.626 121.328C398.325 121.032 397.884 120.884 397.303 120.884H395.501V124.061ZM405.778 119.377H407.521V125.346C407.521 126.134 407.721 126.703 408.12 127.053C408.524 127.403 409.038 127.578 409.664 127.578C410.294 127.578 410.809 127.403 411.208 127.053C411.607 126.703 411.806 126.134 411.806 125.346V119.377H413.55V125.346C413.55 126.154 413.394 126.844 413.084 127.415C412.774 127.986 412.328 128.422 411.747 128.723C411.171 129.023 410.476 129.173 409.664 129.173C408.851 129.173 408.154 129.023 407.573 128.723C406.997 128.422 406.553 127.986 406.243 127.415C405.933 126.844 405.778 126.154 405.778 125.346V119.377ZM418.786 128.966V119.377H422.658C423.396 119.377 424.01 119.493 424.497 119.724C424.985 119.951 425.349 120.256 425.59 120.641C425.832 121.025 425.952 121.451 425.952 121.919C425.952 122.46 425.8 122.923 425.494 123.307C425.194 123.692 424.77 123.963 424.224 124.12C424.583 124.194 424.906 124.329 425.192 124.526C425.477 124.723 425.701 124.972 425.864 125.273C426.031 125.573 426.115 125.918 426.115 126.307C426.115 126.612 426.061 126.92 425.952 127.23C425.849 127.541 425.667 127.829 425.406 128.095C425.15 128.356 424.798 128.567 424.349 128.73C423.906 128.888 423.347 128.966 422.672 128.966H418.786ZM420.53 127.445H422.628C423.185 127.445 423.591 127.334 423.847 127.112C424.108 126.886 424.239 126.583 424.239 126.203C424.239 125.824 424.106 125.521 423.84 125.295C423.574 125.063 423.17 124.948 422.628 124.948H420.53V127.445ZM420.53 120.884V123.426H422.584C423.101 123.426 423.492 123.312 423.758 123.086C424.029 122.854 424.165 122.539 424.165 122.14C424.165 121.761 424.032 121.458 423.766 121.232C423.505 121 423.116 120.884 422.598 120.884H420.53Z" fill="black"/>
<circle cx="397.635" cy="42.4143" r="42.4141" fill="#FD7B7B"/>
<path d="M531.748 102.377H534.245L536.949 108.243H536.801L539.505 102.377H541.913V111.966H540.155V104.387H540.421L537.436 110.917H536.298L533.329 104.416H533.491V111.966H531.748V102.377ZM547.306 111.966V102.377H553.468V103.884H549.05V106.411H553.202V107.918H549.05V110.445H553.468V111.966H547.306ZM557.367 103.884V102.377H565.05V103.884H561.689L562.08 103.485V111.966H560.337V103.485L560.729 103.884H557.367ZM569.162 111.966V102.377H572.708C573.855 102.377 574.734 102.646 575.345 103.182C575.961 103.719 576.269 104.431 576.269 105.318C576.269 106.189 575.961 106.894 575.345 107.43C574.734 107.962 573.855 108.228 572.708 108.228H570.905V111.966H569.162ZM574.348 111.966L571.806 107.475H573.668L576.623 111.966H574.348ZM570.905 107.061H572.53C573.171 107.061 573.656 106.916 573.986 106.625C574.316 106.33 574.481 105.948 574.481 105.48C574.481 105.002 574.331 104.618 574.03 104.328C573.73 104.032 573.289 103.884 572.708 103.884H570.905V107.061ZM584.994 112.173C584.142 112.173 583.389 111.986 582.734 111.612C582.083 111.238 581.574 110.679 581.204 109.935C580.835 109.191 580.65 108.268 580.65 107.164C580.65 106.042 580.835 105.113 581.204 104.379C581.574 103.641 582.083 103.091 582.734 102.732C583.389 102.367 584.142 102.185 584.994 102.185C585.851 102.185 586.607 102.372 587.262 102.747C587.917 103.116 588.429 103.67 588.799 104.409C589.168 105.148 589.353 106.066 589.353 107.164C589.353 108.282 589.168 109.213 588.799 109.957C588.429 110.701 587.917 111.257 587.262 111.627C586.607 111.991 585.851 112.173 584.994 112.173ZM584.994 110.592C585.777 110.592 586.398 110.297 586.856 109.706C587.319 109.115 587.55 108.263 587.55 107.15C587.55 106.076 587.319 105.241 586.856 104.645C586.398 104.049 585.777 103.751 584.994 103.751C584.226 103.751 583.61 104.052 583.147 104.653C582.684 105.249 582.453 106.086 582.453 107.164C582.453 108.273 582.684 109.122 583.147 109.713C583.61 110.299 584.226 110.592 584.994 110.592ZM599.246 102.377H601.196L603.516 110.43H603.073L605.363 103.013H606.545L608.924 110.312H608.525L610.963 102.377H612.928L609.633 111.966H607.801L605.924 106.307H606.087L604.21 111.966H602.378L599.246 102.377ZM617.113 102.377H618.857V106.381H623.038V102.377H624.782V111.966H623.038V107.903H618.857V111.966H617.113V102.377ZM630.191 111.966V102.377H631.934V111.966H630.191ZM636.067 103.884V102.377H643.75V103.884H640.389L640.78 103.485V111.966H639.037V103.485L639.428 103.884H636.067ZM647.846 111.966V102.377H654.008V103.884H649.59V106.411H653.742V107.918H649.59V110.445H654.008V111.966H647.846Z" fill="black"/>
<circle cx="592.766" cy="42.4143" r="41.9428" fill="#F6FBFE" stroke="#D8D8D8" stroke-width="0.942536"/>
<path d="M730.659 103.884V102.377H738.343V103.884H734.981L735.373 103.485V111.966H733.629V103.485L734.021 103.884H730.659ZM742.454 111.966V102.377H746C747.147 102.377 748.027 102.646 748.637 103.182C749.253 103.719 749.561 104.431 749.561 105.318C749.561 106.189 749.253 106.894 748.637 107.43C748.027 107.962 747.147 108.228 746 108.228H744.197V111.966H742.454ZM747.64 111.966L745.099 107.475H746.96L749.915 111.966H747.64ZM744.197 107.061H745.823C746.463 107.061 746.948 106.916 747.278 106.625C747.608 106.33 747.773 105.948 747.773 105.48C747.773 105.002 747.623 104.618 747.322 104.328C747.022 104.032 746.581 103.884 746 103.884H744.197V107.061ZM754.474 102.377H756.218V108.346C756.218 109.134 756.417 109.703 756.816 110.053C757.22 110.403 757.735 110.578 758.36 110.578C758.991 110.578 759.505 110.403 759.904 110.053C760.303 109.703 760.503 109.134 760.503 108.346V102.377H762.246V108.346C762.246 109.154 762.091 109.844 761.781 110.415C761.47 110.986 761.025 111.422 760.444 111.723C759.867 112.023 759.173 112.173 758.36 112.173C757.548 112.173 756.851 112.023 756.27 111.723C755.693 111.422 755.25 110.986 754.94 110.415C754.629 109.844 754.474 109.154 754.474 108.346V102.377ZM767.468 111.966V102.377H773.63V103.884H769.212V106.411H773.364V107.918H769.212V110.445H773.63V111.966H767.468ZM785.211 111.966V102.377H789.082C789.821 102.377 790.434 102.493 790.922 102.724C791.409 102.951 791.774 103.256 792.015 103.641C792.257 104.025 792.377 104.451 792.377 104.919C792.377 105.46 792.225 105.923 791.919 106.307C791.619 106.692 791.195 106.963 790.648 107.12C791.008 107.194 791.331 107.329 791.616 107.526C791.902 107.723 792.126 107.972 792.289 108.273C792.456 108.573 792.54 108.918 792.54 109.307C792.54 109.612 792.486 109.92 792.377 110.23C792.274 110.541 792.092 110.829 791.831 111.095C791.574 111.356 791.222 111.567 790.774 111.73C790.331 111.888 789.772 111.966 789.097 111.966H785.211ZM786.955 110.445H789.053C789.609 110.445 790.016 110.334 790.272 110.112C790.533 109.886 790.663 109.583 790.663 109.203C790.663 108.824 790.53 108.521 790.264 108.295C789.998 108.063 789.595 107.948 789.053 107.948H786.955V110.445ZM786.955 103.884V106.426H789.008C789.526 106.426 789.917 106.312 790.183 106.086C790.454 105.854 790.589 105.539 790.589 105.14C790.589 104.761 790.456 104.458 790.19 104.232C789.929 104 789.54 103.884 789.023 103.884H786.955ZM799.195 102.377V110.445H803.14V111.966H797.452V102.377H799.195ZM806.363 111.966L809.629 102.377H811.815L814.948 111.966H813.116L812.451 109.898H808.89L808.21 111.966H806.363ZM809.333 108.583H812.037L810.692 104.461L809.333 108.583ZM822.808 112.173C821.966 112.173 821.232 111.974 820.606 111.575C819.986 111.171 819.503 110.595 819.158 109.846C818.814 109.098 818.641 108.199 818.641 107.15C818.641 106.066 818.819 105.157 819.173 104.424C819.533 103.685 820.025 103.128 820.651 102.754C821.281 102.375 822 102.185 822.808 102.185C823.926 102.185 824.798 102.456 825.423 102.998C826.054 103.54 826.457 104.244 826.635 105.111L824.773 105.45C824.62 104.948 824.377 104.542 824.042 104.232C823.707 103.921 823.295 103.766 822.808 103.766C822.379 103.766 821.993 103.892 821.648 104.143C821.303 104.389 821.027 104.763 820.821 105.266C820.619 105.768 820.518 106.396 820.518 107.15C820.518 107.859 820.606 108.47 820.784 108.982C820.966 109.494 821.227 109.888 821.567 110.164C821.907 110.44 822.32 110.578 822.808 110.578C823.433 110.578 823.916 110.413 824.256 110.083C824.601 109.748 824.773 109.322 824.773 108.805H826.635C826.635 109.519 826.48 110.127 826.169 110.629C825.864 111.127 825.426 111.508 824.854 111.774C824.283 112.04 823.601 112.173 822.808 112.173ZM836.886 102.377H839.279L832.955 108.849V106.47L836.886 102.377ZM834.758 106.337L839.545 111.966H837.299L833.546 107.475L834.758 106.337ZM831.345 102.377H833.103V111.966H831.345V102.377Z" fill="black"/>
<circle cx="785.05" cy="42.4143" r="42.4141" fill="black"/>
</g>
<defs>
<clipPath id="clip0_4119_2057">
<rect width="840" height="134.058" fill="white"/>
</clipPath>
</defs>
</svg>
