<?xml version="1.0" encoding="UTF-8"?>
<svg id="Layer_1" data-name="Layer 1" xmlns="http://www.w3.org/2000/svg" width="17" height="20" viewBox="0 0 16.94 20.17">
  <defs>
    <style>
      .cls-1 {
        fill: #363131;
      }
    </style>
  </defs>
  <path class="cls-1" d="M14.14,5.44c-1.63-1.52-3.68-2.27-5.77-2.12-1.15.08-2.23.36-3.37.87l-.21.1.1-.21,1.65-3.52-1.2-.55-3.01,6.52,6.27,2.96.86-1.77-4.28-1.97.17-.08c.96-.45,2.23-.74,3.25-.76h0s.04,0,.04,0c1.65,0,3.32.73,4.58,2,1.32,1.33,2.04,3.07,2.04,4.9s-.75,3.53-2.1,4.82c-1.29,1.22-2.99,1.92-4.67,1.92-1.89,0-3.62-.68-4.87-1.92-1.25-1.24-1.94-2.95-1.94-4.82,0-.59.08-1.17.22-1.74l-1.62-.36c-.18.67-.27,1.38-.27,2.1,0,4.62,3.8,8.37,8.47,8.37s8.47-3.75,8.47-8.37c0-2.38-1.02-4.7-2.81-6.37Z"/>
</svg>