<?xml version="1.0" encoding="UTF-8"?>
<svg id="Layer_1" data-name="Layer 1" xmlns="http://www.w3.org/2000/svg" viewBox="0 0 26.63 20.72">
  <defs>
    <style>
      .cls-1 {
        fill: #363131;
      }
    </style>
  </defs>
  <path class="cls-1" d="M16.09,0l-1.8.06-4.22,3.88c-.75.8-2.76,2.35-3.36,2.74-2.38.17-6.72.44-6.72.44,0,0,.2,2.08.37,4.3.14,2.21.23,4.31.23,4.31,0,0,4.34-.34,6.72-.5.64.3,2.85,1.56,3.7,2.25l4.72,3.26,1.79-.18c-.21-2.37-.68-5.13-.92-10.09,0-.06,0-.11-.01-.17,0-.06,0-.11-.01-.17-.45-4.95-.37-7.75-.49-10.11ZM2.09,14.19l-.4-5.76,4.26-.3.4,5.76-4.26.3ZM7.86,13.69l-.39-5.56,6.97-6.07.57,8.54.59,8.11-7.76-5.03h.01Z"/>
  <path class="cls-1" d="M18.33,13.85l2.89-3.86-3.6-3.71,1.29-.91c.25.45,1.26,1.63,1.71,2.12l1.33,1.44,2.68-3.86,1.51.93-2.92,4.22,3.43,3.39-.97.91c-.54-.56-3.23-3.37-3.23-3.37l-2.67,3.73-1.44-1.04h0Z"/>
</svg>