<?xml version="1.0" encoding="UTF-8"?>
<svg id="Layer_1" data-name="Layer 1" xmlns="http://www.w3.org/2000/svg" width="27" height="21" viewBox="0 0 26.64 20.72">
  <defs>
    <style>
      .cls-1 {
        fill: #363131;
      }
    </style>
  </defs>
  <path class="cls-1" d="M16.09,0l-1.8.06-4.22,3.88c-.75.8-2.76,2.35-3.36,2.74-2.38.17-6.72.44-6.72.44,0,0,.2,2.08.37,4.3.14,2.21.23,4.31.23,4.31,0,0,4.34-.34,6.72-.5.64.3,2.85,1.56,3.7,2.25l4.72,3.26,1.79-.18c-.21-2.37-.68-5.13-.92-10.09,0-.06,0-.11-.01-.17,0-.06,0-.11-.01-.17-.45-4.95-.37-7.75-.49-10.11ZM2.09,14.19l-.4-5.76,4.26-.3.4,5.76-4.26.3ZM7.86,13.68l-.39-5.56,6.97-6.07.57,8.54.59,8.11-7.76-5.03h.01Z"/>
  <path class="cls-1" d="M19.38,5.19l-.52,1.44c.84.31,1.64.87,2.07,1.72.43.85.51,1.77.19,2.68-.33.91-.94,1.68-1.77,2.32l.83,1.15c.91-.58,1.32-1.13,1.89-1.94.81-1.22,1.06-3.59-.13-5.33,0,0-.85-1.32-2.56-2.03h.01Z"/>
  <path class="cls-1" d="M20.52,1.52l-.52,1.47c2.66,1.14,4.18,2.95,4.74,4.69,1.09,3.64-1.07,6.64-3.39,8.52l1.03,1.32c1.95-1.55,3.39-3.7,3.87-5.34.56-1.94.52-4.05-.3-5.82-1.31-2.77-3.4-4.15-5.43-4.86h-.01Z"/>
</svg>